<?xml version="1.0" standalone="no"?>
<!DOCTYPE svg PUBLIC "-//W3C//DTD SVG 1.1//EN" "http://www.w3.org/Graphics/SVG/1.1/DTD/svg11.dtd" >
<svg xmlns="http://www.w3.org/2000/svg" xmlns:xlink="http://www.w3.org/1999/xlink" version="1.1">
<metadata>
Created by FontForge 20170731 at Fri Apr 29 11:11:12 2022
 By Aleksey,,,
Copyright 2022 The Mikhak Project Authors (https://github.com/aminabedi68/Mikhak)
</metadata>
<defs>
<font id="Mikhak-DS2-ExtraBold" horiz-adv-x="0" >
  <font-face 
    font-family="Mikhak-DS2 ExtraBold"
    font-weight="800"
    font-stretch="normal"
    units-per-em="2048"
    panose-1="0 0 0 0 0 0 0 0 0 0"
    ascent="1638"
    descent="-410"
    x-height="1067"
    cap-height="1513"
    bbox="-579 -1498.17 2603 2607.18"
    underline-thickness="120"
    underline-position="-780"
    unicode-range="U+0020-FEFF"
  />
<missing-glyph horiz-adv-x="1024" 
d="M102 -410v2048h820v-2048h-820zM204 -308h616v1844h-616v-1844z" />
    <glyph glyph-name="uni0622" unicode="&#x627;&#x653;" horiz-adv-x="522" 
d="M-114 1373q-32 32 -39.5 81.5t22.5 89.5q37 49 80 95.5t93.5 77t106.5 30.5q73 0 141 -37q26 -13 51.5 -21t54.5 -8q50 0 84.5 24t65.5 55q36 37 88.5 36t89.5 -33q37 -34 42 -86t-30 -93q-61 -72 -143.5 -115.5t-174.5 -43.5q-43 0 -82.5 9t-89.5 27q-22 8 -37.5 12.5
t-29.5 4.5q-33 0 -57.5 -24t-46.5 -56q-33 -45 -88.5 -56.5t-100.5 31.5zM129 1126q-7 62 31 112.5t100 58.5t112.5 -30.5t58.5 -100.5q23 -169 34.5 -343.5t11.5 -348.5q0 -115 -5 -234.5t-16 -250.5q-5 -62 -53.5 -103.5t-110.5 -36.5t-103.5 53.5t-36.5 110.5
q10 113 14.5 226.5t4.5 228.5q0 346 -42 658z" />
    <glyph glyph-name="uni0623" unicode="&#x627;&#x654;" horiz-adv-x="497" 
d="M2 1462q-10 26 3.5 54t41.5 38l92 31q-71 60 -71 166q0 101 64.5 166.5t182.5 65.5q37 0 67 -5q29 -4 47.5 -27t15.5 -51t-26 -48t-52 -16q-12 3 -32 3q-65 0 -95.5 -27.5t-30.5 -70.5q0 -81 100 -81q26 0 54 6.5t90 28.5q29 10 56.5 -6t34.5 -46q7 -27 -6.5 -51.5
t-38.5 -32.5l-405 -142q-28 -10 -55 3.5t-37 41.5zM85 1146q-8 62 30.5 112.5t100.5 58.5t112.5 -30.5t58.5 -100.5q18 -133 28 -234t14 -195.5t4 -208.5q0 -145 -5.5 -290.5t-15.5 -268.5q-5 -62 -54 -103.5t-111 -36.5q-63 5 -103.5 54t-35.5 110q10 124 15.5 267.5
t5.5 282.5q0 103 -3.5 185t-13 174t-27.5 224z" />
    <glyph glyph-name="uni0624" unicode="&#x648;&#x654;" horiz-adv-x="948" 
d="M137 946q-10 26 3.5 54t41.5 38l92 31q-71 60 -71 166q0 101 64.5 166.5t182.5 65.5q37 0 67 -5q29 -4 47.5 -27t15.5 -51t-26 -48t-52 -16q-12 3 -32 3q-65 0 -95.5 -27.5t-30.5 -70.5q0 -81 100 -81q26 0 54 6.5t90 28.5q29 10 56.5 -6t34.5 -46q7 -27 -6.5 -51.5
t-38.5 -32.5l-405 -142q-28 -10 -55 3.5t-37 41.5zM461 768q130 0 229 -80t155 -215t56 -299q0 -156 -56 -291.5t-153.5 -242t-223 -177t-263.5 -97.5q-61 -12 -113.5 24.5t-63.5 97.5q-12 62 25 111.5t96 66.5q129 36 223 97t151 139q-25 -2 -48 -2q-203 0 -313 94.5
t-110 284.5q0 136 55.5 247t148.5 176.5t205 65.5zM336 292q0 -63 34.5 -87.5t101.5 -24.5q38 0 72 5.5t63 12.5q-4 65 -23.5 128.5t-52 105t-77.5 41.5q-49 0 -83.5 -54t-34.5 -127z" />
    <glyph glyph-name="uni0625" unicode="&#x627;&#x655;" horiz-adv-x="497" 
d="M-48 -782q-10 26 3.5 54t41.5 38l92 31q-71 60 -71 166q0 101 64.5 166.5t182.5 65.5q37 0 67 -5q29 -4 47.5 -27t15.5 -51t-26 -48t-52 -16q-12 3 -32 3q-65 0 -95.5 -27.5t-30.5 -70.5q0 -81 100 -81q26 0 54 6.5t90 28.5q29 10 56.5 -6t34.5 -46q7 -27 -6.5 -51.5
t-38.5 -32.5l-405 -142q-28 -10 -55 3.5t-37 41.5zM85 1146q-8 62 30.5 112.5t100.5 58.5t112.5 -30.5t58.5 -100.5q18 -133 28 -234t14 -195.5t4 -208.5q0 -145 -5.5 -290.5t-15.5 -268.5q-5 -62 -54 -103.5t-111 -36.5q-63 5 -103.5 54t-35.5 110q10 124 15.5 267.5
t5.5 282.5q0 103 -3.5 185t-13 174t-27.5 224z" />
    <glyph glyph-name="uni0626" unicode="&#x64a;&#x654;" horiz-adv-x="1454" 
d="M38 747q-10 26 3.5 54t41.5 38l92 31q-71 60 -71 166q0 101 64.5 166.5t182.5 65.5q37 0 67 -5q29 -4 47.5 -27t15.5 -51t-26 -48t-52 -16q-12 3 -32 3q-65 0 -95.5 -27.5t-30.5 -70.5q0 -81 100 -81q26 0 54 6.5t90 28.5q29 10 56.5 -6t34.5 -46q7 -27 -6.5 -51.5
t-38.5 -32.5l-405 -142q-28 -10 -55 3.5t-37 41.5zM37 1q0 80 12.5 159t35.5 179q15 60 69 93.5t114 19.5t94 -68t20 -115q-19 -79 -29 -146.5t-10 -133.5q0 -151 85 -207t294 -56t309 47t100 102q0 35 -41.5 46.5t-105.5 15.5q-66 4 -146 16t-153 46.5t-119.5 105.5
t-46.5 193q0 104 41.5 201t113 174t164 122t194.5 45q65 0 115.5 -8t108.5 -26q57 -18 87.5 -74.5t13.5 -113.5t-70.5 -88t-109.5 -12q-32 11 -71.5 16t-71.5 5q-88 0 -152 -58.5t-64 -150.5q0 -65 61.5 -84t148.5 -27q64 -5 132 -18.5t127 -47t95.5 -98t36.5 -171.5
q0 -96 -56 -179.5t-154 -146.5t-225.5 -99t-269.5 -36q-334 0 -505.5 154.5t-171.5 423.5z" />
    <glyph glyph-name="uni06C2" unicode="&#x647;&#x654;" horiz-adv-x="920" 
d="M34 242q0 123 57.5 252.5t154.5 240.5q-35 42 -35.5 98t36.5 99q41 47 104.5 52t110.5 -36q118 -102 213.5 -216.5t152 -235t56.5 -239.5q0 -132 -58.5 -219.5t-155.5 -131t-214 -43.5q-115 0 -211 42.5t-153.5 126.5t-57.5 210zM340 261q0 -41 27 -67.5t89 -26.5
q69 0 96.5 26t27.5 72q0 44 -30.5 109t-90.5 141q-58 -71 -88.5 -140.5t-30.5 -113.5zM640 1791q-3 -31 -26.5 -51.5t-55.5 -16.5q-10 2 -20.5 2h-20.5q-71 0 -119 -27t-48 -70q0 -25 28.5 -37.5t70.5 -23.5q45 -11 93 -29.5t81.5 -58t33.5 -112.5q0 -99 -90.5 -159.5
t-230.5 -60.5q-31 0 -57.5 1.5t-48.5 3.5q-31 3 -51.5 28t-16.5 57q5 33 29.5 53t57.5 16q20 -2 43.5 -4t48.5 -2q60 0 110 14t50 48q0 20 -25.5 31.5t-63.5 21.5q-44 13 -94.5 33.5t-86.5 62t-36 116.5q0 70 43 126.5t116.5 90.5t162.5 34q21 0 55 -3q32 -2 51.5 -26.5
t16.5 -57.5z" />
    <glyph glyph-name="uniFB00" unicode="ff" horiz-adv-x="1426" 
d="M669 1001q79 0 159 -2q4 89 9 171t11 152q5 57 20 132t48 145t91 116t148 46q70 0 121 -33t85 -73q38 -43 35 -103.5t-33 -95.5q-35 -40 -64.5 -47t-62.5 0q-24 11 -40 11t-27.5 -27.5t-17.5 -96.5q-6 -67 -10.5 -147t-8.5 -168q69 -6 138 -14q62 -7 101.5 -57t32.5 -112
q-7 -61 -57.5 -100.5t-112.5 -32.5q-56 6 -113 11q-5 -185 -7 -365t-2 -315q0 -62 -45 -107t-108 -45q-62 0 -106.5 45t-44.5 107q0 140 2 323.5t7 373.5q-73 2 -148 2q-81 0 -158 -2q-5 -190 -7.5 -374t-2.5 -323q0 -62 -45 -107t-108 -45q-62 0 -107 45t-45 107
q0 137 2 316.5t7 366.5q-4 -1 -8 -1q-62 -4 -110 37t-53 104q-4 62 37 110.5t103 52.5q21 1 41 3q4 93 9 178.5t12 158.5q5 57 20 132t48.5 145t91.5 116t148 46q70 0 121 -33t85 -73q38 -43 34.5 -103.5t-33.5 -95.5q-34 -40 -64 -47t-62 0q-25 11 -41 11t-27 -27.5
t-17 -96.5q-5 -63 -10 -138.5t-8 -158.5q75 2 147 2z" />
    <glyph glyph-name="uniFB05" unicode="ft" horiz-adv-x="1365" 
d="M676 1001q63 0 125 -1q6 58 12 117t13 117q8 62 57.5 101.5t111.5 31.5q62 -7 101.5 -57t31.5 -112l-12 -108t-11 -108q54 -5 105 -11q62 -8 100.5 -58t30.5 -112t-58 -100.5t-112 -31.5q-44 5 -91 10q-5 -81 -7.5 -162t-2.5 -162q0 -73 7.5 -130.5t35.5 -57.5q19 0 47 5
q62 11 114 -25t63 -97t-24.5 -114t-97.5 -64q-27 -5 -52.5 -7t-49.5 -2q-114 0 -183.5 52.5t-104.5 132t-47 163t-12 144.5q0 86 3 170.5t8 168.5q-49 1 -101 1q-82 0 -165 -2q-5 -190 -7.5 -374t-2.5 -323q0 -62 -45 -107t-108 -45q-62 0 -107 45t-45 107q0 137 2 316.5
t7 366.5q-5 -1 -9 -1q-63 -4 -110.5 37.5t-52.5 103.5q-4 63 37.5 111t103.5 52q21 1 41 3q4 93 9 178.5t12 158.5q5 57 20 132t48.5 145t91.5 116t148 46q70 0 121 -33t85 -73q38 -43 34.5 -103.5t-33.5 -95.5q-34 -40 -64 -47t-62 0q-25 11 -41 11t-27 -27.5t-17 -96.5
q-5 -63 -10 -138.5t-8 -158.5q79 2 154 2z" />
    <glyph glyph-name="uniFBA5" unicode="&#xfeea;&#x654;" horiz-adv-x="1100" arabic-form="final" 
d="M74 373q0 142 89.5 257.5t254.5 192.5q53 24 102.5 54t67.5 56q-1 57 39.5 101t99.5 50q62 6 110.5 -35t54.5 -103l50 -557q8 -83 24.5 -124t48.5 -54.5t84 -13.5h1q63 0 107 -44.5t44 -107.5q0 -62 -44 -107t-107 -45h-1q-131 0 -217.5 39t-139.5 108q-24 -13 -51 -17
q-31 -4 -67 -6t-59 -2q-254 0 -372.5 101t-118.5 257zM380 392q0 -34 42 -53.5t143 -19.5q13 0 34.5 1.5t43.5 3.5q-2 19 -4 39l-20 220q-33 -19 -71 -37q-77 -37 -122.5 -76.5t-45.5 -77.5zM710 1821q-3 -31 -26.5 -51.5t-55.5 -16.5q-10 2 -20.5 2h-20.5q-71 0 -119 -27
t-48 -70q0 -25 28.5 -37.5t70.5 -23.5q45 -11 93 -29.5t81.5 -58t33.5 -112.5q0 -99 -90.5 -159.5t-230.5 -60.5q-31 0 -57.5 1.5t-48.5 3.5q-31 3 -51.5 28t-16.5 57q5 33 29.5 53t57.5 16q20 -2 43.5 -4t48.5 -2q60 0 110 14t50 48q0 20 -25.5 31.5t-63.5 21.5
q-44 13 -94.5 33.5t-86.5 62t-36 116.5q0 70 43 126.5t116.5 90.5t162.5 34q21 0 55 -3q32 -2 51.5 -26.5t16.5 -57.5z" />
    <glyph glyph-name="uniFE71" unicode="&#x640;&#x64b;" horiz-adv-x="668" arabic-form="medial" 
d="M-153 45q0 63 45.5 107.5t107.5 44.5h668q63 0 108 -44.5t45 -107.5q0 -62 -45 -107t-108 -45h-668q-62 0 -107.5 45t-45.5 107zM65 989q-10 28 4 55t41 37l405 144q27 10 54.5 -4.5t37.5 -41.5t-4 -54t-41 -37l-406 -144q-27 -10 -54 4t-37 41zM65 1247q-10 28 4 55
t41 37l405 144q27 10 54.5 -4.5t37.5 -41.5t-4 -54t-41 -37l-406 -144q-27 -10 -54 4t-37 41z" />
    <glyph glyph-name="uniFE77" unicode="&#x640;&#x64e;" horiz-adv-x="668" arabic-form="medial" 
d="M65 1039q-10 28 4 55t41 37l405 144q27 10 54.5 -4.5t37.5 -41.5t-4 -54t-41 -37l-406 -144q-27 -10 -54 4t-37 41zM-153 45q0 63 45.5 107.5t107.5 44.5h668q63 0 108 -44.5t45 -107.5q0 -62 -45 -107t-108 -45h-668q-62 0 -107.5 45t-45.5 107z" />
    <glyph glyph-name="uniFE79" unicode="&#x640;&#x64f;" horiz-adv-x="668" arabic-form="medial" 
d="M74 950q-7 24 2.5 52.5t41.5 38.5q79 20 149 62q-56 30 -80.5 69.5t-24.5 92.5q0 58 29.5 110.5t76 85.5t97.5 33q45 0 84.5 -29.5t63.5 -78t24 -105.5q0 -54 -26 -109q12 -2 26 -5q35 -7 48 -33t9 -50q-5 -28 -27.5 -43.5t-57.5 -10.5q-50 9 -90 19q-51 -48 -118 -85
t-142 -57q-38 -10 -57.5 4.5t-27.5 38.5zM285 1268q0 -39 93 -66q28 41 28 80q0 71 -50 71q-28 0 -49.5 -29.5t-21.5 -55.5zM-153 45q0 63 45.5 107.5t107.5 44.5h668q63 0 108 -44.5t45 -107.5q0 -62 -45 -107t-108 -45h-668q-62 0 -107.5 45t-45.5 107z" />
    <glyph glyph-name="uniFE7B" unicode="&#x640;&#x650;" horiz-adv-x="668" arabic-form="medial" 
d="M65 -552q-10 28 4 55t41 37l405 144q27 10 54.5 -4.5t37.5 -41.5t-4 -54t-41 -37l-406 -144q-27 -10 -54 4t-37 41zM-153 45q0 63 45.5 107.5t107.5 44.5h668q63 0 108 -44.5t45 -107.5q0 -62 -45 -107t-108 -45h-668q-62 0 -107.5 45t-45.5 107z" />
    <glyph glyph-name="uniFE7D" unicode="&#x640;&#x651;" horiz-adv-x="668" arabic-form="medial" 
d="M1 1351q0 32 9.5 78.5t37.5 104.5q13 26 41 36t55 -4q26 -13 35 -41.5t-3 -56.5q-32 -70 -32 -100q0 -35 30 -35q53 0 57 108q1 26 19.5 46t43.5 24q30 5 55 -16t26 -52q3 -58 12.5 -84.5t32.5 -26.5q35 0 35 57q0 23 -3.5 56.5t-11.5 67.5q-6 29 9.5 54t43.5 31
q29 5 54.5 -10t31.5 -44q8 -40 14 -80.5t6 -80.5q0 -93 -47 -144t-120 -51q-49 0 -83.5 28.5t-47.5 76.5q-13 -46 -52.5 -75t-88.5 -29q-68 0 -113.5 40t-45.5 122zM-153 45q0 63 45.5 107.5t107.5 44.5h668q63 0 108 -44.5t45 -107.5q0 -62 -45 -107t-108 -45h-668
q-62 0 -107.5 45t-45.5 107z" />
    <glyph glyph-name="uniFE7F" unicode="&#x640;&#x652;" horiz-adv-x="668" arabic-form="medial" 
d="M117 1250q0 62 29 113.5t76.5 82.5t105.5 31q63 0 110 -30.5t73 -78.5t26 -100q0 -94 -61 -160.5t-149 -66.5q-92 0 -151 64.5t-59 144.5zM261 1250q0 -23 19 -44t47 -21q23 0 44.5 20t21.5 63q0 26 -17 45.5t-48 19.5q-22 0 -44.5 -21t-22.5 -62zM-153 45
q0 63 45.5 107.5t107.5 44.5h668q63 0 108 -44.5t45 -107.5q0 -62 -45 -107t-108 -45h-668q-62 0 -107.5 45t-45.5 107z" />
    <glyph glyph-name="uniFEF5" unicode="&#xfedf;&#xfe82;" horiz-adv-x="1272" arabic-form="isolated" 
d="M58 1565q34 61 92.5 104.5t134.5 43.5q44 0 78 -17.5t62 -32.5q21 -11 42 -21t43 -10q20 0 43 19.5t45 68.5q13 26 41 36t55 -3q26 -13 35.5 -41.5t-3.5 -55.5q-18 -36 -46.5 -75t-70 -66t-99.5 -27q-40 0 -73 16.5l-59 29.5q-23 11 -46 23t-47 12q-25 0 -52.5 -18
t-50.5 -56q-15 -25 -43 -33.5t-54 6.5q-25 15 -33.5 43.5t6.5 53.5zM48 75q5 63 54.5 104.5t110.5 34.5q72 -8 128 -12t111 -4q245 0 350 68.5t105 187.5q0 115 -5 247.5t-14.5 260.5t-22.5 230q-8 62 31 112.5t100 58.5q62 8 112.5 -31t58.5 -101q15 -114 25 -248
t15.5 -270.5t5.5 -258.5q0 -163 -88 -288.5t-266.5 -196t-449.5 -70.5q-55 0 -106.5 2.5t-115.5 9.5q-63 7 -103.5 54.5t-35.5 109.5zM175 1138q-21 59 6.5 116t85.5 78q59 22 115.5 -5.5t77.5 -86.5q37 -102 61.5 -184.5t41 -160t27.5 -161.5t20 -189q5 -63 -36 -111.5
t-103 -53.5q-63 -5 -111 35.5t-53 102.5q-10 126 -24.5 220.5t-39.5 187t-68 212.5z" />
    <glyph glyph-name="uniFEF6" unicode="&#xfee0;&#xfe82;" horiz-adv-x="1441" arabic-form="final" 
d="M58 1565q34 61 92.5 104.5t134.5 43.5q44 0 78 -17.5t62 -32.5q21 -11 42 -21t43 -10q20 0 43 19.5t45 68.5q13 26 41 36t55 -3q26 -13 35.5 -41.5t-3.5 -55.5q-18 -36 -46.5 -75t-70 -66t-99.5 -27q-40 0 -73 16.5l-59 29.5q-23 11 -46 23t-47 12q-25 0 -52.5 -18
t-50.5 -56q-15 -25 -43 -33.5t-54 6.5q-25 15 -33.5 43.5t6.5 53.5zM865 1192q-8 62 31 112.5t100 58.5q62 8 112.5 -31t58.5 -101q15 -114 25 -248t15.5 -270.5t5.5 -258.5q0 -137 57.5 -197t169.5 -60h1q63 0 107 -44.5t44 -107.5q0 -62 -44 -107t-107 -45h-1
q-117 0 -222 46t-180 134q-99 -82 -256 -128t-373 -46q-55 0 -106.5 2.5t-115.5 9.5q-63 7 -103.5 54.5t-35.5 109.5q5 63 54.5 104.5t110.5 34.5q72 -8 128 -12t111 -4q245 0 350 68.5t105 187.5q0 115 -5 247.5t-14.5 260.5t-22.5 230zM175 1138q-21 59 6.5 116t85.5 78
q59 22 115.5 -5.5t77.5 -86.5q37 -102 61.5 -184.5t41 -160t27.5 -161.5t20 -189q5 -63 -36 -111.5t-103 -53.5q-63 -5 -111 35.5t-53 102.5q-10 126 -24.5 220.5t-39.5 187t-68 212.5z" />
    <glyph glyph-name="uniFEF7" unicode="&#xfedf;&#xfe84;" horiz-adv-x="1272" arabic-form="isolated" 
d="M52 1438q-10 26 3.5 54t41.5 38l92 31q-71 60 -71 166q0 101 64.5 166.5t182.5 65.5q37 0 67 -5q29 -4 47.5 -27t15.5 -51t-26 -48t-52 -16q-12 3 -32 3q-65 0 -95.5 -27.5t-30.5 -70.5q0 -81 100 -81q26 0 54 6.5t90 28.5q29 10 56.5 -6t34.5 -46q7 -27 -6.5 -51.5
t-38.5 -32.5l-405 -142q-28 -10 -55 3.5t-37 41.5zM48 75q5 63 54.5 104.5t110.5 34.5q72 -8 128 -12t111 -4q245 0 350 68.5t105 187.5q0 115 -5 247.5t-14.5 260.5t-22.5 230q-8 62 31 112.5t100 58.5q62 8 112.5 -31t58.5 -101q15 -114 25 -248t15.5 -270.5t5.5 -258.5
q0 -163 -88 -288.5t-266.5 -196t-449.5 -70.5q-55 0 -106.5 2.5t-115.5 9.5q-63 7 -103.5 54.5t-35.5 109.5zM175 1138q-21 59 6.5 116t85.5 78q59 22 115.5 -5.5t77.5 -86.5q37 -102 61.5 -184.5t41 -160t27.5 -161.5t20 -189q5 -63 -36 -111.5t-103 -53.5
q-63 -5 -111 35.5t-53 102.5q-10 126 -24.5 220.5t-39.5 187t-68 212.5z" />
    <glyph glyph-name="uniFEF8" unicode="&#xfee0;&#xfe84;" horiz-adv-x="1441" arabic-form="final" 
d="M52 1438q-10 26 3.5 54t41.5 38l92 31q-71 60 -71 166q0 101 64.5 166.5t182.5 65.5q37 0 67 -5q29 -4 47.5 -27t15.5 -51t-26 -48t-52 -16q-12 3 -32 3q-65 0 -95.5 -27.5t-30.5 -70.5q0 -81 100 -81q26 0 54 6.5t90 28.5q29 10 56.5 -6t34.5 -46q7 -27 -6.5 -51.5
t-38.5 -32.5l-405 -142q-28 -10 -55 3.5t-37 41.5zM865 1192q-8 62 31 112.5t100 58.5q62 8 112.5 -31t58.5 -101q15 -114 25 -248t15.5 -270.5t5.5 -258.5q0 -137 57.5 -197t169.5 -60h1q63 0 107 -44.5t44 -107.5q0 -62 -44 -107t-107 -45h-1q-117 0 -222 46t-180 134
q-99 -82 -256 -128t-373 -46q-55 0 -106.5 2.5t-115.5 9.5q-63 7 -103.5 54.5t-35.5 109.5q5 63 54.5 104.5t110.5 34.5q72 -8 128 -12t111 -4q245 0 350 68.5t105 187.5q0 115 -5 247.5t-14.5 260.5t-22.5 230zM175 1138q-21 59 6.5 116t85.5 78q59 22 115.5 -5.5
t77.5 -86.5q37 -102 61.5 -184.5t41 -160t27.5 -161.5t20 -189q5 -63 -36 -111.5t-103 -53.5q-63 -5 -111 35.5t-53 102.5q-10 126 -24.5 220.5t-39.5 187t-68 212.5z" />
    <glyph glyph-name="uniFEF9" unicode="&#xfedf;&#xfe88;" horiz-adv-x="1272" arabic-form="isolated" 
d="M52 -736q-10 26 3.5 54t41.5 38l92 31q-71 60 -71 166q0 101 64.5 166.5t182.5 65.5q37 0 67 -5q29 -4 47.5 -27t15.5 -51t-26 -48t-52 -16q-12 3 -32 3q-65 0 -95.5 -27.5t-30.5 -70.5q0 -81 100 -81q26 0 54 6.5t90 28.5q29 10 56.5 -6t34.5 -46q7 -27 -6.5 -51.5
t-38.5 -32.5l-405 -142q-28 -10 -55 3.5t-37 41.5zM48 75q5 63 54.5 104.5t110.5 34.5q72 -8 128 -12t111 -4q245 0 350 68.5t105 187.5q0 115 -5 247.5t-14.5 260.5t-22.5 230q-8 62 31 112.5t100 58.5q62 8 112.5 -31t58.5 -101q15 -114 25 -248t15.5 -270.5t5.5 -258.5
q0 -163 -88 -288.5t-266.5 -196t-449.5 -70.5q-55 0 -106.5 2.5t-115.5 9.5q-63 7 -103.5 54.5t-35.5 109.5zM175 1138q-21 59 6.5 116t85.5 78q59 22 115.5 -5.5t77.5 -86.5q37 -102 61.5 -184.5t41 -160t27.5 -161.5t20 -189q5 -63 -36 -111.5t-103 -53.5
q-63 -5 -111 35.5t-53 102.5q-10 126 -24.5 220.5t-39.5 187t-68 212.5z" />
    <glyph glyph-name="uniFEFA" unicode="&#xfee0;&#xfe88;" horiz-adv-x="1441" arabic-form="final" 
d="M52 -736q-10 26 3.5 54t41.5 38l92 31q-71 60 -71 166q0 101 64.5 166.5t182.5 65.5q37 0 67 -5q29 -4 47.5 -27t15.5 -51t-26 -48t-52 -16q-12 3 -32 3q-65 0 -95.5 -27.5t-30.5 -70.5q0 -81 100 -81q26 0 54 6.5t90 28.5q29 10 56.5 -6t34.5 -46q7 -27 -6.5 -51.5
t-38.5 -32.5l-405 -142q-28 -10 -55 3.5t-37 41.5zM865 1192q-8 62 31 112.5t100 58.5q62 8 112.5 -31t58.5 -101q15 -114 25 -248t15.5 -270.5t5.5 -258.5q0 -137 57.5 -197t169.5 -60h1q63 0 107 -44.5t44 -107.5q0 -62 -44 -107t-107 -45h-1q-117 0 -222 46t-180 134
q-99 -82 -256 -128t-373 -46q-55 0 -106.5 2.5t-115.5 9.5q-63 7 -103.5 54.5t-35.5 109.5q5 63 54.5 104.5t110.5 34.5q72 -8 128 -12t111 -4q245 0 350 68.5t105 187.5q0 115 -5 247.5t-14.5 260.5t-22.5 230zM175 1138q-21 59 6.5 116t85.5 78q59 22 115.5 -5.5
t77.5 -86.5q37 -102 61.5 -184.5t41 -160t27.5 -161.5t20 -189q5 -63 -36 -111.5t-103 -53.5q-63 -5 -111 35.5t-53 102.5q-10 126 -24.5 220.5t-39.5 187t-68 212.5z" />
    <glyph glyph-name="uniFEFB" unicode="&#xfedf;&#xfe8e;" horiz-adv-x="1272" arabic-form="isolated" 
d="M48 75q5 63 54.5 104.5t110.5 34.5q72 -8 128 -12t111 -4q245 0 350 68.5t105 187.5q0 115 -5 247.5t-14.5 260.5t-22.5 230q-8 62 31 112.5t100 58.5q62 8 112.5 -31t58.5 -101q15 -114 25 -248t15.5 -270.5t5.5 -258.5q0 -163 -88 -288.5t-266.5 -196t-449.5 -70.5
q-55 0 -106.5 2.5t-115.5 9.5q-63 7 -103.5 54.5t-35.5 109.5zM175 1138q-21 59 6.5 116t85.5 78q59 22 115.5 -5.5t77.5 -86.5q37 -102 61.5 -184.5t41 -160t27.5 -161.5t20 -189q5 -63 -36 -111.5t-103 -53.5q-63 -5 -111 35.5t-53 102.5q-10 126 -24.5 220.5t-39.5 187
t-68 212.5z" />
    <glyph glyph-name="uniFEFC" unicode="&#xfee0;&#xfe8e;" horiz-adv-x="1441" arabic-form="final" 
d="M865 1192q-8 62 31 112.5t100 58.5q62 8 112.5 -31t58.5 -101q15 -114 25 -248t15.5 -270.5t5.5 -258.5q0 -137 57.5 -197t169.5 -60h1q63 0 107 -44.5t44 -107.5q0 -62 -44 -107t-107 -45h-1q-117 0 -222 46t-180 134q-99 -82 -256 -128t-373 -46q-55 0 -106.5 2.5
t-115.5 9.5q-63 7 -103.5 54.5t-35.5 109.5q5 63 54.5 104.5t110.5 34.5q72 -8 128 -12t111 -4q245 0 350 68.5t105 187.5q0 115 -5 247.5t-14.5 260.5t-22.5 230zM175 1138q-21 59 6.5 116t85.5 78q59 22 115.5 -5.5t77.5 -86.5q37 -102 61.5 -184.5t41 -160t27.5 -161.5
t20 -189q5 -63 -36 -111.5t-103 -53.5q-63 -5 -111 35.5t-53 102.5q-10 126 -24.5 220.5t-39.5 187t-68 212.5z" />
    <glyph glyph-name="uni0695.fina" unicode="&#x695;" horiz-adv-x="947" 
d="M634 -724q27 -17 35 -49.5t-9 -60.5l-166 -270q-12 -19 -38.5 -26t-53 -1.5t-39.5 21.5l-192 241q-19 25 -15.5 58.5t28.5 53.5t58.5 16.5t52.5 -29.5l123 -152l105 173q17 27 50.5 34.5t60.5 -9.5zM394 449q-21 59 15.5 114t97.5 69q17 4 35 4q55 1 95.5 -33t50.5 -79
q1 -2 2 -5q48 -176 107.5 -249t148.5 -73h1q63 0 107 -44.5t44 -107.5q0 -62 -44 -107t-107 -45h-1q-60 0 -115 18t-104 51q-41 -231 -180.5 -380t-337.5 -215q-68 -22 -122.5 11t-71.5 88q-20 71 13 122.5t83 67.5q154 52 241.5 168t87.5 316q0 132 -42 297z" />
    <glyph glyph-name="uni06A4.init" unicode="&#x6a4;" horiz-adv-x="924" arabic-form="initial" 
d="M231 1763q0 55 40.5 98t101.5 43q45 0 76 -19t49 -47q23 -35 23 -75q0 -28 -12.5 -62t-44 -58t-88.5 -24q-59 0 -90 24.5t-43 57.5q-12 32 -12 62zM77 1381q-13 44 10 85.5t69 56.5q53 17 124.5 25.5t140.5 8.5q72 0 130 -9.5t98 -26.5q47 -26 59.5 -77t-16.5 -93
q-24 -34 -58 -44.5t-70 -2.5q-28 6 -67.5 10.5t-75.5 4.5q-65 0 -117 -4t-84 -14q-45 -12 -87 12t-56 68zM-152 45q0 63 45 107.5t107 44.5q209 0 329.5 10.5t178.5 45.5q47 25 68 64q-66 -10 -130 -10q-203 0 -307 85.5t-104 272.5q0 152 52 269t141.5 183.5t200.5 66.5
q140 0 243.5 -90t160 -254t56.5 -387q0 -139 -39.5 -239.5t-129.5 -166.5q-104 -84 -284.5 -119t-435.5 -35q-62 0 -107 45t-45 107zM308 703q0 -63 35 -90.5t104 -27.5q36 0 71.5 6.5t65.5 14.5l8 2q-15 143 -56.5 206.5t-99.5 63.5q-52 0 -90 -49t-38 -126z" />
    <glyph glyph-name="uni06A4.medi" unicode="&#x6a4;" horiz-adv-x="944" arabic-form="medial" 
d="M289 1495q0 55 40.5 98t101.5 43q45 0 76 -19t49 -47q23 -35 23 -75q0 -28 -12.5 -62t-44 -58t-88.5 -24q-59 0 -90 24.5t-43 57.5q-12 32 -12 62zM135 1113q-13 44 10 85.5t69 56.5q53 17 124.5 25.5t140.5 8.5q72 0 130 -9.5t98 -26.5q47 -26 59.5 -77t-16.5 -93
q-24 -34 -58 -44.5t-70 -2.5q-28 6 -67.5 10.5t-75.5 4.5q-65 0 -117 -4t-84 -14q-45 -12 -87 12t-56 68zM-152 45q0 63 45 107.5t107 44.5q86 0 159 6q-55 63 -86 134t-31 146q0 128 56.5 232t154 165.5t220.5 61.5t220 -62t153 -166t56 -232q0 -75 -30.5 -146t-85.5 -133
q72 -6 157 -6h1q63 0 107 -44.5t44 -107.5q0 -62 -44 -107t-107 -45h-1q-126 0 -246 25t-225 69q-106 -44 -226 -69t-246 -25q-62 0 -107 45t-45 107zM346 483q0 -133 126 -203q126 70 126 202q0 67 -33 110.5t-92 43.5q-60 0 -93.5 -43t-33.5 -110z" />
    <glyph glyph-name="uni06A4.fina" unicode="&#x6a4;" horiz-adv-x="1857" arabic-form="final" 
d="M1231 1495q0 55 40.5 98t101.5 43q45 0 76 -19t49 -47q23 -35 23 -75q0 -28 -12.5 -62t-44 -58t-88.5 -24q-59 0 -90 24.5t-43 57.5q-12 32 -12 62zM1077 1113q-13 44 10 85.5t69 56.5q53 17 124.5 25.5t140.5 8.5q72 0 130 -9.5t98 -26.5q47 -26 59.5 -77t-16.5 -93
q-24 -34 -58 -44.5t-70 -2.5q-28 6 -67.5 10.5t-75.5 4.5q-65 0 -117 -4t-84 -14q-45 -12 -87 12t-56 68zM34 372q0 70 12 143.5t45 138.5q28 56 88.5 76.5t116.5 -8.5q113 -57 68 -205q-2 -6 -8 -32t-11 -58t-5 -55q0 -69 36 -114.5t130 -68t268 -22.5q181 0 317 18
q-62 66 -96.5 141t-34.5 156q0 128 56.5 232t153.5 165.5t220 61.5t220 -61.5t153 -165.5t56 -232q0 -76 -29 -146.5t-83 -133.5q69 -5 149 -5h1q63 0 107 -44.5t44 -107.5q0 -62 -44 -107t-107 -45h-1q-123 0 -240.5 23.5t-220.5 66.5q-130 -57 -288 -88.5t-333 -31.5
q-83 0 -182.5 7t-197.5 33t-179.5 81t-131 149t-49.5 239zM1263 482q0 -136 130 -206q122 75 122 206q0 68 -32.5 110.5t-92.5 42.5t-93.5 -43t-33.5 -110z" />
    <glyph glyph-name="uni06AA.init" unicode="&#x6aa;" horiz-adv-x="1059" 
d="M0 197q84 0 180.5 1t190.5 5t171.5 13t124 23.5t46.5 37.5q0 29 -63 60.5t-164.5 63t-219.5 59.5t-227 49q-61 12 -93 62t-24 110.5t66 104.5l601 452q52 38 113 28t96 -55q41 -53 29 -117t-57 -98l-351 -265q90 -24 194.5 -58t198 -84.5t153 -126.5t59.5 -184
q0 -114 -67.5 -186.5t-179.5 -113.5t-247.5 -59t-273.5 -22t-256 -4q-62 0 -106.5 45t-44.5 107t44.5 107t106.5 45z" />
    <glyph glyph-name="uni06AA.medi" unicode="&#x6aa;" horiz-adv-x="1266" 
d="M0 197q84 0 180.5 1t190.5 5t171.5 13t124 23.5t46.5 37.5q0 29 -63 60.5t-164.5 63t-219.5 59.5t-227 49q-61 12 -93 62t-24 110.5t66 104.5l601 452q52 38 113 28t96 -55q41 -53 29 -117t-57 -98l-351 -265q91 -25 198 -59t201.5 -86.5t150.5 -131.5q6 -8 11 -17l1 -1
q11 -19 20 -39q53 -100 117 -150.5t147 -50.5h1q65 0 108 -43.5t43 -107.5t-43.5 -107.5t-107.5 -43.5h-1q-108 0 -199 38.5t-167 109.5q-76 -55 -185.5 -85.5t-234 -44t-248.5 -16.5t-231 -3q-62 0 -106.5 45t-44.5 107t44.5 107t106.5 45z" />
    <glyph glyph-name="uni06AA.fina" unicode="&#x6aa;" horiz-adv-x="1941" 
d="M1087 731q91 -25 198 -59t201.5 -86.5t150.5 -131.5q6 -8 11 -17l1 -1q11 -19 19 -38q111 -202 272 -202h1q65 0 108 -43.5t43 -107.5t-43.5 -107.5t-107.5 -43.5h-1q-104 0 -194 36t-166 102q-67 -57 -163 -91.5t-208 -51.5t-228 -22.5t-222 -5.5q-166 0 -323 14
t-276 42q-69 17 -97.5 68.5t-14.5 115.5q14 59 67 92t126 16q92 -22 237 -33t290 -11q104 0 212 6.5t199 20t146.5 34.5t55.5 51q0 29 -63 60.5t-164.5 63t-219.5 59.5t-227 49q-61 12 -93 62t-24 110.5t66 104.5l601 452q52 38 113 28t96 -55q41 -53 28.5 -117t-56.5 -98z
" />
    <glyph glyph-name="uni06B5.init" unicode="&#x6b5;" horiz-adv-x="494" 
d="M447 1950q27 -17 35 -49.5t-9 -60.5l-166 -270q-12 -19 -38.5 -26t-53 -1.5t-39.5 21.5l-192 241q-19 25 -15.5 58.5t28.5 53.5t58.5 16.5t52.5 -29.5l123 -152l105 173q17 27 50.5 34.5t60.5 -9.5zM-152 45q0 63 45 107.5t107 44.5q78 0 113.5 82.5t35.5 257.5
q0 68 -5 152t-17 204.5t-33 297.5q-7 62 31 112.5t100 58.5t112.5 -30.5t58.5 -100.5q27 -210 39 -357.5t12 -281.5q0 -250 -44.5 -404t-143 -224.5t-259.5 -70.5q-62 0 -107 45t-45 107z" />
    <glyph glyph-name="uni06B5.medi" unicode="&#x6b5;" horiz-adv-x="674" 
d="M497 1950q27 -17 35 -49.5t-9 -60.5l-166 -270q-12 -19 -38.5 -26t-53 -1.5t-39.5 21.5l-192 241q-19 25 -15.5 58.5t28.5 53.5t58.5 16.5t52.5 -29.5l123 -152l105 173q17 27 50.5 34.5t60.5 -9.5zM-152 45q0 63 45 107.5t107 44.5q79 0 118.5 12.5t53 49.5t13.5 110
q0 153 -5.5 287.5t-15 266t-23.5 274.5q-6 62 35 111t103 55t111 -34.5t55 -103.5q20 -213 32 -410.5t12 -427.5q1 -9 1 -18q0 -103 40 -137.5t143 -34.5h1q63 0 107 -44.5t44 -107.5q0 -62 -44 -107t-107 -45h-1q-94 0 -180 28.5t-153 85.5q-132 -114 -340 -114
q-62 0 -107 45t-45 107z" />
    <glyph glyph-name="uni06B5.fina" unicode="&#x6b5;" horiz-adv-x="1448" 
d="M1236 1950q27 -17 35 -49.5t-9 -60.5l-166 -270q-12 -19 -38.5 -26t-53 -1.5t-39.5 21.5l-192 241q-19 25 -15.5 58.5t28.5 53.5t58.5 16.5t52.5 -29.5l123 -152l105 173q17 27 50.5 34.5t60.5 -9.5zM34 -34q0 122 33.5 223t77.5 189q28 56 89 75.5t117 -7.5
q56 -28 75 -88t-8 -116q-30 -61 -54 -133t-24 -143q0 -115 73 -181t204 -66q187 0 256 107t69 322q0 254 -13.5 507t-34.5 545q-4 63 37 111t104 52q62 4 110 -37.5t52 -103.5q16 -218 28 -416t18 -392q5 -77 18.5 -125t55 -70t130.5 -22h1q63 0 107 -44.5t44 -107.5
q0 -62 -44 -107t-107 -45h-1q-117 0 -220 51q-28 -140 -100 -260.5t-197.5 -195t-312.5 -74.5q-116 0 -221 39.5t-186.5 112.5t-128.5 174.5t-47 225.5z" />
    <glyph glyph-name="uni06CA.fina" unicode="&#x6ca;" horiz-adv-x="951" 
d="M123 1030q-13 47 10.5 90.5t72.5 59.5q56 17 130 26t147 9q76 0 136.5 -10.5t102.5 -27.5q49 -28 62 -81.5t-17 -97.5q-25 -35 -60.5 -46.5t-73.5 -3.5q-29 7 -70.5 11.5t-79.5 4.5q-67 0 -121.5 -4t-88.5 -14q-47 -13 -91.5 12t-58.5 72zM476 -107q-203 0 -313.5 98
t-110.5 288q0 136 55.5 247t148.5 176.5t205 65.5q127 0 224.5 -76.5t154.5 -206t61 -288.5h50q63 0 107 -44.5t44 -107.5q0 -62 -44 -107t-107 -45h-103q-53 -137 -151 -246t-225 -181.5t-267 -99.5q-61 -12 -113.5 24.5t-63.5 97.5q-12 62 25 111.5t96 66.5
q126 35 218 93.5t149 133.5h-40zM474 197h133q-4 66 -23.5 129.5t-52 105t-77.5 41.5q-49 0 -83.5 -46t-34.5 -120q0 -62 35.5 -86t102.5 -24z" />
    <glyph glyph-name="uni06CE.init" unicode="&#x6ce;" horiz-adv-x="560" 
d="M-228 -491q-13 47 10.5 90.5t72.5 59.5q56 17 130 26t147 9q76 0 136.5 -10.5t102.5 -27.5q49 -28 62 -81.5t-17 -97.5q-25 -35 -60.5 -46.5t-73.5 -3.5q-29 7 -70.5 11.5t-79.5 4.5q-67 0 -121.5 -4t-88.5 -14q-47 -13 -91.5 12t-58.5 72zM473 1256q27 -17 35 -49.5
t-9 -60.5l-166 -270q-12 -19 -38.5 -26t-53 -1.5t-39.5 21.5l-192 241q-19 25 -15.5 58.5t28.5 53.5t58.5 16.5t52.5 -29.5l123 -152l105 173q17 27 50.5 34.5t60.5 -9.5zM-152 45q0 63 45 107.5t107 44.5q120 0 168 33.5t48 129.5q0 75 -17 194q-7 62 31 112.5t100 58.5
t111.5 -30t59.5 -100q23 -139 23 -237q0 -219 -134.5 -342t-389.5 -123q-62 0 -107 45t-45 107z" />
    <glyph glyph-name="uni06CE.medi" unicode="&#x6ce;" horiz-adv-x="811" 
d="M-228 -491q-13 47 10.5 90.5t72.5 59.5q56 17 130 26t147 9q76 0 136.5 -10.5t102.5 -27.5q49 -28 62 -81.5t-17 -97.5q-25 -35 -60.5 -46.5t-73.5 -3.5q-29 7 -70.5 11.5t-79.5 4.5q-67 0 -121.5 -4t-88.5 -14q-47 -13 -91.5 12t-58.5 72zM479 1165q27 -17 35 -49.5
t-9 -60.5l-166 -270q-12 -19 -38.5 -26t-53 -1.5t-39.5 21.5l-192 241q-19 25 -15.5 58.5t28.5 53.5t58.5 16.5t52.5 -29.5l123 -152l105 173q17 27 50.5 34.5t60.5 -9.5zM-153 45q0 63 45.5 107.5t107.5 44.5q126 0 184 28t76.5 93t23.5 176q4 71 51.5 110t111.5 34
q63 -4 104.5 -51.5t36.5 -109.5q-11 -152 37 -216t185 -64h1q63 0 107 -44.5t44 -107.5q0 -62 -44 -107t-107 -45h-1q-127 0 -222.5 43.5t-155.5 146.5q-79 -110 -184 -150t-248 -40q-62 0 -107.5 45t-45.5 107z" />
    <glyph glyph-name="uni06CE.fina" unicode="&#x6ce;" horiz-adv-x="1390" 
d="M1065 772q27 -17 35 -49.5t-9 -60.5l-166 -270q-12 -19 -38.5 -26t-53 -1.5t-39.5 21.5l-192 241q-19 25 -15.5 58.5t28.5 53.5t58.5 16.5t52.5 -29.5l123 -152l105 173q17 27 50.5 34.5t60.5 -9.5zM35 -81q0 145 28.5 271.5t84.5 280.5q21 59 79 85.5t116 5.5
q59 -21 85.5 -78.5t5.5 -116.5q-93 -258 -93 -440q0 -154 91 -219t282 -65q159 0 251 36t92 89q0 91 -293 126q-53 7 -90.5 46.5t-42.5 93.5q-5 65 40.5 114t111.5 49h607q63 0 107 -44.5t44 -107.5q0 -62 -44 -107t-107 -45h-109q64 -88 64 -174q0 -106 -82 -192.5
t-227 -138t-334 -51.5q-205 0 -354.5 72.5t-231 203.5t-81.5 306z" />
    <glyph glyph-name="uniFB51" unicode="&#x671;" horiz-adv-x="574" arabic-form="final" 
d="M515 1866q83 0 138.5 -52.5t55.5 -134.5q0 -96 -67.5 -146.5t-153.5 -50.5q-50 0 -88 11t-72 26q-6 -11 -13 -23.5t-14 -24.5q-12 -23 -36 -37t-55 -4q-25 8 -43 36.5t-2 58.5q6 11 12.5 22.5t12.5 23.5q-17 2 -34 2q-39 0 -69.5 -39.5t-52.5 -74.5q-14 -24 -44.5 -31.5
t-56.5 9.5q-23 17 -29 44.5t9 53.5q23 38 54.5 80t77.5 72t111 30q31 0 57.5 -6t51.5 -15q50 74 110 122t140 48zM510 1722q-27 0 -53.5 -21.5t-53.5 -59.5q23 -7 47 -11t50 -4q19 0 42 10t23 39q0 47 -55 47zM93 377q0 133 2 253.5t2 247.5t-6 280q-2 63 41 109.5t105 49.5
q62 2 109 -41t49 -106q7 -150 6.5 -278.5t-3 -251.5t-2.5 -259q0 -103 38.5 -143.5t138.5 -40.5h1q63 0 107 -44.5t44 -107.5q0 -62 -44 -107t-107 -45h-1q-224 0 -352 111t-128 373z" />
    <glyph glyph-name="uniFB57" unicode="&#x67e;" horiz-adv-x="1937" arabic-form="final" 
d="M34 414q0 62 12 125t32 129q19 59 75 89t115 11t89 -75t11 -115q-16 -49 -22 -90.5t-6 -73.5q0 -70 33.5 -126t120 -88.5t244.5 -32.5q335 0 500 103t206 307q11 54 57 91t107 29q59 -6 100 -53t37 -107q-2 -34 -3.5 -63.5t-1.5 -57.5q0 -105 42.5 -162t153.5 -57h1
q63 0 107 -44.5t44 -107.5q0 -62 -44 -107t-107 -45h-1q-142 0 -235 69.5t-137 193.5q-150 -162 -367 -227.5t-459 -65.5q-195 0 -354.5 61.5t-254.5 184t-95 305.5zM477 -434q-13 44 10 85.5t69 57.5q53 16 124.5 24.5t140.5 8.5q72 0 130 -9.5t98 -26.5q47 -26 59.5 -77
t-16.5 -93q-24 -34 -58 -44.5t-70 -3.5q-28 7 -67.5 11.5t-75.5 4.5q-65 0 -117 -4t-84 -14q-45 -12 -87 12t-56 68zM653 -697q0 54 40.5 97t101.5 43q45 0 76 -18.5t49 -47.5q22 -36 22 -75q0 -28 -12.5 -62t-44 -58.5t-88.5 -24.5q-59 0 -90 24.5t-43 57.5q-11 29 -11 64z
" />
    <glyph glyph-name="uniFB58" unicode="&#x67e;" horiz-adv-x="560" arabic-form="initial" 
d="M-152 45q0 63 45 107.5t107 44.5q120 0 168 33.5t48 129.5q0 75 -17 194q-7 62 31 112.5t100 58.5t111.5 -30t59.5 -100q23 -139 23 -237q0 -219 -134.5 -342t-389.5 -123q-62 0 -107 45t-45 107zM-222 -425q-13 44 10 85.5t69 57.5q53 16 124.5 24.5t140.5 8.5
q72 0 130 -9.5t98 -26.5q47 -26 59.5 -77t-16.5 -93q-24 -34 -58 -44.5t-70 -3.5q-28 7 -67.5 11.5t-75.5 4.5q-65 0 -117 -4t-84 -14q-45 -12 -87 12t-56 68zM-46 -688q0 54 40.5 97t101.5 43q45 0 76 -18.5t49 -47.5q22 -36 22 -75q0 -28 -12.5 -62t-44 -58.5t-88.5 -24.5
q-59 0 -90 24.5t-43 57.5q-11 29 -11 64z" />
    <glyph glyph-name="uniFB59" unicode="&#x67e;" horiz-adv-x="811" arabic-form="medial" 
d="M-153 45q0 63 45.5 107.5t107.5 44.5q126 0 184 28t76.5 93t23.5 176q4 71 51.5 110t111.5 34q63 -4 104.5 -51.5t36.5 -109.5q-11 -152 37 -216t185 -64h1q63 0 107 -44.5t44 -107.5q0 -62 -44 -107t-107 -45h-1q-127 0 -222.5 43.5t-155.5 146.5q-79 -110 -184 -150
t-248 -40q-62 0 -107.5 45t-45.5 107zM-222 -425q-13 44 10 85.5t69 57.5q53 16 124.5 24.5t140.5 8.5q72 0 130 -9.5t98 -26.5q47 -26 59.5 -77t-16.5 -93q-24 -34 -58 -44.5t-70 -3.5q-28 7 -67.5 11.5t-75.5 4.5q-65 0 -117 -4t-84 -14q-45 -12 -87 12t-56 68zM-46 -688
q0 54 40.5 97t101.5 43q45 0 76 -18.5t49 -47.5q22 -36 22 -75q0 -28 -12.5 -62t-44 -58.5t-88.5 -24.5q-59 0 -90 24.5t-43 57.5q-11 29 -11 64z" />
    <glyph glyph-name="uniFB67" unicode="&#x679;" horiz-adv-x="1937" arabic-form="final" 
d="M580 656q3 29 26 46.5t51 12.5q27 -4 53 -6q1 8 5 15q14 29 29 56q0 6 1 10q3 23 4 49.5t1 58.5q0 65 -5 130.5t-10 105.5q-4 28 15 50t44 26q32 5 54 -15t26 -48q6 -40 11 -94.5t5 -101.5v-14q67 41 139 41q81 0 132 -49t51 -134q0 -87 -52 -138t-138.5 -72.5
t-191.5 -21.5q-88 0 -191 14q-28 5 -45.5 28t-13.5 51zM1012 839q-42 0 -83.5 -36.5t-76.5 -100.5q48 0 99.5 5.5t86.5 22.5t35 52q0 20 -16 38.5t-45 18.5zM34 414q0 62 12 125t32 129q19 59 75 89t115 11t89 -75t11 -115q-16 -49 -22 -90.5t-6 -73.5q0 -70 33.5 -126
t120 -88.5t244.5 -32.5q335 0 500 103t206 307q11 54 57 91t107 29q59 -6 100 -53t37 -107q-2 -34 -3.5 -63.5t-1.5 -57.5q0 -105 42.5 -162t153.5 -57h1q63 0 107 -44.5t44 -107.5q0 -62 -44 -107t-107 -45h-1q-142 0 -235 69.5t-137 193.5q-150 -162 -367 -227.5
t-459 -65.5q-195 0 -354.5 61.5t-254.5 184t-95 305.5z" />
    <glyph glyph-name="uniFB68" unicode="&#x679;" horiz-adv-x="560" arabic-form="initial" 
d="M-64 952q3 29 26 46.5t51 12.5q27 -4 53 -6q1 8 5 15q14 29 29 56q0 6 1 10q3 23 4 49.5t1 58.5q0 65 -5 130.5t-10 105.5q-4 28 15 50t44 26q32 5 54 -15t26 -48q6 -40 11 -94.5t5 -101.5v-14q67 41 139 41q81 0 132 -49t51 -134q0 -87 -52 -138t-138.5 -72.5
t-191.5 -21.5q-88 0 -191 14q-28 5 -45.5 28t-13.5 51zM368 1135q-42 0 -83.5 -36.5t-76.5 -100.5q48 0 99.5 5.5t86.5 22.5t35 52q0 20 -16 38.5t-45 18.5zM-152 45q0 63 45 107.5t107 44.5q120 0 168 33.5t48 129.5q0 75 -17 194q-7 62 31 112.5t100 58.5t111.5 -30
t59.5 -100q23 -139 23 -237q0 -219 -134.5 -342t-389.5 -123q-62 0 -107 45t-45 107z" />
    <glyph glyph-name="uniFB69" unicode="&#x679;" horiz-adv-x="811" arabic-form="medial" 
d="M18 864q3 29 26 46.5t51 12.5q27 -4 53 -6q1 8 5 15q14 29 29 56q0 6 1 10q3 23 4 49.5t1 58.5q0 65 -5 130.5t-10 105.5q-4 28 15 50t44 26q32 5 54 -15t26 -48q6 -40 11 -94.5t5 -101.5v-14q67 41 139 41q81 0 132 -49t51 -134q0 -87 -52 -138t-138.5 -72.5
t-191.5 -21.5q-88 0 -191 14q-28 5 -45.5 28t-13.5 51zM450 1047q-42 0 -83.5 -36.5t-76.5 -100.5q48 0 99.5 5.5t86.5 22.5t35 52q0 20 -16 38.5t-45 18.5zM-153 45q0 63 45.5 107.5t107.5 44.5q126 0 184 28t76.5 93t23.5 176q4 71 51.5 110t111.5 34q63 -4 104.5 -51.5
t36.5 -109.5q-11 -152 37 -216t185 -64h1q63 0 107 -44.5t44 -107.5q0 -62 -44 -107t-107 -45h-1q-127 0 -222.5 43.5t-155.5 146.5q-79 -110 -184 -150t-248 -40q-62 0 -107.5 45t-45.5 107z" />
    <glyph glyph-name="uniFB7B" unicode="&#x686;" horiz-adv-x="1392" arabic-form="final" 
d="M405 941q72 0 155.5 -31.5t176.5 -77.5t194.5 -92.5t210.5 -76.5q135 -37 135 -156q0 -52 -40 -93.5t-110 -61.5q20 -64 49.5 -97.5t80.5 -45.5t134 -12h1q63 0 107 -44.5t44 -107.5q0 -62 -44 -107t-107 -45h-1q-451 0 -557 384q-239 -77 -370.5 -190.5t-131.5 -248.5
q0 -121 101 -189t269 -68q172 0 364 71q62 23 118 0.5t78 -76.5q24 -58 0 -116.5t-80 -84.5q-208 -95 -455 -95q-207 0 -363 69t-242.5 195t-86.5 297q0 220 164 383.5t513 302.5q-80 40 -154 70t-108 30q-30 0 -50.5 -23.5t-31.5 -62.5q-16 -61 -71.5 -93.5t-114.5 -17.5
q-60 16 -93.5 71t-17.5 115q38 147 127 236t207 89zM465 -76q-9 31 7.5 60.5t48.5 39.5q37 11 87 17t98 6q99 0 159 -26q32 -18 41.5 -53.5t-11.5 -64.5q-33 -47 -89 -34q-19 5 -46.5 8t-53.5 3q-46 0 -82 -2.5t-59 -9.5q-31 -9 -61 8t-39 48zM588 -260q0 38 28.5 67.5
t71.5 29.5q32 0 53.5 -12.5t33.5 -32.5q15 -25 15 -53q0 -29 -20 -65.5t-81 -36.5q-40 0 -62 17t-31 41q-8 22 -8 45z" />
    <glyph glyph-name="uniFB7C" unicode="&#x686;" horiz-adv-x="1299" arabic-form="initial" 
d="M385 875q98 0 205.5 -46t212.5 -100q69 -36 158 -76.5t199 -87.5q40 -16 66 -55.5t26 -83.5q0 -83 -71 -129q-283 -181 -573 -292.5t-608 -111.5q-63 0 -108 45.5t-45 106.5t45 106.5t108 45.5q194 0 385 54t381 157q-43 21 -83.5 41t-79.5 42q-61 33 -107 54t-81 21
q-41 0 -62 -27t-50 -95q-13 -32 -49 -57t-81.5 -29t-89.5 24q-42 27 -60.5 81.5t6.5 110.5q62 131 141.5 216t214.5 85zM127 -395q-13 44 10 85.5t69 57.5q53 16 124.5 24.5t140.5 8.5q72 0 130 -9.5t98 -26.5q47 -26 59.5 -77t-16.5 -93q-24 -34 -58 -44.5t-70 -3.5
q-28 7 -67.5 11.5t-75.5 4.5q-65 0 -117 -4t-84 -14q-45 -12 -87 12t-56 68zM303 -658q0 54 40.5 97t101.5 43q45 0 76 -18.5t49 -47.5q22 -36 22 -75q0 -28 -12.5 -62t-44 -58.5t-88.5 -24.5q-59 0 -90 24.5t-43 57.5q-11 29 -11 64z" />
    <glyph glyph-name="uniFB7D" unicode="&#x686;" horiz-adv-x="1321" arabic-form="medial" 
d="M385 875q98 0 205.5 -46t212.5 -100q69 -36 158 -76.5t199 -87.5q40 -16 66 -55.5t26 -83.5q0 -83 -71 -129q-33 -21 -66 -41q25 -29 74 -44t131 -15h1q63 0 107 -44.5t44 -107.5q0 -62 -44 -107t-107 -45h-1q-145 0 -272 53.5t-198 162.5q-203 -101 -414 -158.5
t-436 -57.5q-63 0 -108 45.5t-45 106.5t45 106.5t108 45.5q194 0 385 54t381 157q-43 21 -83.5 41t-79.5 42q-61 33 -107 54t-81 21q-41 0 -62 -27t-50 -95q-13 -32 -49 -57t-81.5 -29t-89.5 24q-42 27 -60.5 81.5t6.5 110.5q62 131 141.5 216t214.5 85zM189 -395
q-13 44 10 85.5t69 57.5q53 16 124.5 24.5t140.5 8.5q72 0 130 -9.5t98 -26.5q47 -26 59.5 -77t-16.5 -93q-24 -34 -58 -44.5t-70 -3.5q-28 7 -67.5 11.5t-75.5 4.5q-65 0 -117 -4t-84 -14q-45 -12 -87 12t-56 68zM365 -658q0 54 40.5 97t101.5 43q45 0 76 -18.5t49 -47.5
q22 -36 22 -75q0 -28 -12.5 -62t-44 -58.5t-88.5 -24.5q-59 0 -90 24.5t-43 57.5q-11 29 -11 64z" />
    <glyph glyph-name="uniFB89" unicode="&#x688;" horiz-adv-x="1121" arabic-form="final" 
d="M236 1173q3 29 26 46.5t51 12.5q27 -4 53 -6q1 8 5 15q14 29 29 56q0 6 1 10q3 23 4 49.5t1 58.5q0 65 -5 130.5t-10 105.5q-4 28 15 50t44 26q32 5 54 -15t26 -48q6 -40 11 -94.5t5 -101.5v-14q67 41 139 41q81 0 132 -49t51 -134q0 -87 -52 -138t-138.5 -72.5
t-191.5 -21.5q-88 0 -191 14q-28 5 -45.5 28t-13.5 51zM668 1356q-42 0 -83.5 -36.5t-76.5 -100.5q48 0 99.5 5.5t86.5 22.5t35 52q0 20 -16 38.5t-45 18.5zM41 82q17 60 70 89t117 15q43 -9 80.5 -14t81.5 -5q91 0 137.5 16t63 45.5t16.5 68.5q0 14 -3 28q-8 21 -16 45
q-24 74 -65.5 154t-100.5 178q-32 53 -17 115t68 95q53 32 115 17t94 -68q60 -97 108 -187t86 -204q52 -146 100.5 -209.5t143.5 -63.5h1q63 0 107 -44.5t44 -107.5q0 -62 -44 -107t-107 -45h-1q-104 0 -182.5 32t-136.5 83q-80 -79 -193 -112t-218 -33q-70 0 -121 6.5
t-124 25.5q-60 15 -90 71t-14 116z" />
    <glyph glyph-name="uniFB8B" unicode="&#x698;" horiz-adv-x="947" arabic-form="final" 
d="M394 449q-21 59 15.5 114t97.5 69q17 4 35 4q55 1 95.5 -33t50.5 -79q1 -2 2 -5q48 -176 107.5 -249t148.5 -73h1q63 0 107 -44.5t44 -107.5q0 -62 -44 -107t-107 -45h-1q-60 0 -115 18t-104 51q-41 -231 -180.5 -380t-337.5 -215q-68 -22 -122.5 11t-71.5 88
q-20 71 13 122.5t83 67.5q154 52 241.5 168t87.5 316q0 132 -42 297zM363 1222q0 55 40.5 98t101.5 43q45 0 76 -19t49 -47q23 -35 23 -75q0 -28 -12.5 -62t-44 -58t-88.5 -24q-59 0 -90 24.5t-43 57.5q-12 32 -12 62zM209 840q-13 44 10 85.5t69 56.5q53 17 124.5 25.5
t140.5 8.5q72 0 130 -9.5t98 -26.5q47 -26 59.5 -77t-16.5 -93q-24 -34 -58 -44.5t-70 -2.5q-28 6 -67.5 10.5t-75.5 4.5q-65 0 -117 -4t-84 -14q-45 -12 -87 12t-56 68z" />
    <glyph glyph-name="uniFB8D" unicode="&#x691;" horiz-adv-x="947" arabic-form="final" 
d="M193 933q3 29 26 46.5t51 12.5q27 -4 53 -6q1 8 5 15q14 29 29 56q0 6 1 10q3 23 4 49.5t1 58.5q0 65 -5 130.5t-10 105.5q-4 28 15 50t44 26q32 5 54 -15t26 -48q6 -40 11 -94.5t5 -101.5v-14q67 41 139 41q81 0 132 -49t51 -134q0 -87 -52 -138t-138.5 -72.5
t-191.5 -21.5q-88 0 -191 14q-28 5 -45.5 28t-13.5 51zM625 1116q-42 0 -83.5 -36.5t-76.5 -100.5q48 0 99.5 5.5t86.5 22.5t35 52q0 20 -16 38.5t-45 18.5zM394 449q-21 59 15.5 114t97.5 69q17 4 35 4q55 1 95.5 -33t50.5 -79q1 -2 2 -5q48 -176 107.5 -249t148.5 -73h1
q63 0 107 -44.5t44 -107.5q0 -62 -44 -107t-107 -45h-1q-60 0 -115 18t-104 51q-41 -231 -180.5 -380t-337.5 -215q-68 -22 -122.5 11t-71.5 88q-20 71 13 122.5t83 67.5q154 52 241.5 168t87.5 316q0 132 -42 297z" />
    <glyph glyph-name="uniFB8F" unicode="&#x6a9;" horiz-adv-x="2019" arabic-form="final" 
d="M35 378q0 162 56 277q28 56 89 76.5t116 -8.5q115 -57 68 -205q-10 -30 -17 -73.5t-7 -78.5q0 -112 108 -155.5t354 -43.5q239 0 369.5 35t130.5 111q0 47 -42.5 121t-116 164.5t-167.5 186.5q-45 47 -68 80.5t-23 88.5q0 50 30 90.5t82 56.5l685 227q75 24 133.5 -0.5
t77.5 -90.5q18 -69 -9 -120t-88 -68l-509 -155q89 -103 151.5 -186t101.5 -155q70 -127 129 -205.5t138.5 -114.5t210.5 -36h1q63 0 107 -44.5t44 -107.5q0 -62 -44 -107t-107 -45h-1q-158 0 -275.5 46.5t-214.5 136.5q-89 -106 -273 -159.5t-450 -53.5q-391 0 -580.5 122.5
t-189.5 392.5z" />
    <glyph glyph-name="uniFB90" unicode="&#x6a9;" horiz-adv-x="1022" arabic-form="initial" 
d="M-153 45q0 63 45.5 107.5t107.5 44.5q217 0 318.5 33.5t101.5 97.5q0 80 -93 196.5t-233 260.5q-46 47 -69 80t-23 88q0 50 30 91t83 57l686 227q74 24 132.5 -0.5t77.5 -90.5q19 -69 -8.5 -120t-87.5 -68l-509 -155q113 -130 183 -223.5t103 -171t33 -163.5
q0 -443 -725 -443q-62 0 -107.5 45t-45.5 107z" />
    <glyph glyph-name="uniFB91" unicode="&#x6a9;" horiz-adv-x="1143" arabic-form="medial" 
d="M-153 45q0 63 45.5 107.5t107.5 44.5q217 0 318.5 33.5t101.5 97.5q0 80 -93 196.5t-233 260.5q-46 47 -69 80t-23 88q0 50 30 91t83 57l686 227q74 24 132.5 -0.5t77.5 -90.5q19 -69 -8.5 -120t-87.5 -68l-509 -155q97 -112 162.5 -195.5t102.5 -154.5
q68 -124 126 -200.5t137 -111.5t208 -35h1q63 0 107 -44.5t44 -107.5q0 -62 -44 -107t-107 -45h-1q-163 0 -282 49.5t-218 144.5q-162 -194 -642 -194q-62 0 -107.5 45t-45.5 107z" />
    <glyph glyph-name="uniFB93" unicode="&#x6af;" horiz-adv-x="2019" arabic-form="final" 
d="M35 378q0 162 56 277q28 56 89 76.5t116 -8.5q115 -57 68 -205q-10 -30 -17 -73.5t-7 -78.5q0 -112 108 -155.5t354 -43.5q239 0 369.5 35t130.5 111q0 47 -42.5 121t-116 164.5t-167.5 186.5q-45 47 -68 80.5t-23 88.5q0 50 30 90.5t82 56.5l685 227q75 24 133.5 -0.5
t77.5 -90.5q18 -69 -9 -120t-88 -68l-509 -155q89 -103 151.5 -186t101.5 -155q70 -127 129 -205.5t138.5 -114.5t210.5 -36h1q63 0 107 -44.5t44 -107.5q0 -62 -44 -107t-107 -45h-1q-158 0 -275.5 46.5t-214.5 136.5q-89 -106 -273 -159.5t-450 -53.5q-391 0 -580.5 122.5
t-189.5 392.5zM878 1330q-14 48 9 92.5t70 59.5l599 194q47 15 92 -8.5t59 -71.5t-8.5 -92.5t-70.5 -59.5l-599 -194q-47 -16 -92 7.5t-59 72.5z" />
    <glyph glyph-name="uniFB94" unicode="&#x6af;" horiz-adv-x="1022" arabic-form="initial" 
d="M-153 45q0 63 45.5 107.5t107.5 44.5q217 0 318.5 33.5t101.5 97.5q0 80 -93 196.5t-233 260.5q-46 47 -69 80t-23 88q0 50 30 91t83 57l686 227q74 24 132.5 -0.5t77.5 -90.5q19 -69 -8.5 -120t-87.5 -68l-509 -155q113 -130 183 -223.5t103 -171t33 -163.5
q0 -443 -725 -443q-62 0 -107.5 45t-45.5 107zM5 1330q-14 48 9 92.5t70 59.5l599 194q47 15 92 -8.5t59 -71.5t-8.5 -92.5t-70.5 -59.5l-599 -194q-47 -16 -92 7.5t-59 72.5z" />
    <glyph glyph-name="uniFB95" unicode="&#x6af;" horiz-adv-x="1143" arabic-form="medial" 
d="M-153 45q0 63 45.5 107.5t107.5 44.5q217 0 318.5 33.5t101.5 97.5q0 80 -93 196.5t-233 260.5q-46 47 -69 80t-23 88q0 50 30 91t83 57l686 227q74 24 132.5 -0.5t77.5 -90.5q19 -69 -8.5 -120t-87.5 -68l-509 -155q97 -112 162.5 -195.5t102.5 -154.5
q68 -124 126 -200.5t137 -111.5t208 -35h1q63 0 107 -44.5t44 -107.5q0 -62 -44 -107t-107 -45h-1q-163 0 -282 49.5t-218 144.5q-162 -194 -642 -194q-62 0 -107.5 45t-45.5 107zM5 1330q-14 48 9 92.5t70 59.5l599 194q47 15 92 -8.5t59 -71.5t-8.5 -92.5t-70.5 -59.5
l-599 -194q-47 -16 -92 7.5t-59 72.5z" />
    <glyph glyph-name="uniFB9F" unicode="&#x6ba;" horiz-adv-x="1526" arabic-form="final" 
d="M715 -577q-202 0 -354 76.5t-237 209.5t-85 303q0 105 23 219t60 216q23 59 80.5 85t115.5 3q58 -22 84.5 -79.5t3.5 -116.5q-26 -71 -43.5 -151.5t-17.5 -147.5q0 -148 94 -230.5t277 -82.5t283.5 82.5t100.5 233.5q0 51 -10.5 106t-28.5 113q-8 21 -15 43l-1 4
q-12 33 -27 69q-25 58 -1 116.5t81 83.5q57 24 116 0t84 -81q21 -49 38 -98v-3l1 -1q7 -20 13 -40q27 -76 66.5 -117t108.5 -41h1q63 0 107 -44.5t44 -107.5q0 -62 -44 -107t-107 -45h-1q-63 0 -127 23q-25 -145 -117.5 -256.5t-238 -174t-327.5 -62.5z" />
    <glyph glyph-name="uniFBA7" unicode="&#x6c1;" horiz-adv-x="987" arabic-form="final" 
d="M987 197q64 0 107.5 -44t43.5 -108t-43.5 -108t-107.5 -44h-1q-132 0 -236.5 76.5t-194.5 239.5q-28 51 -43 70t-29 19q-23 0 -47 -58t-45 -159.5t-36 -233.5q-5 -55 -48 -91t-102 -36q-71 0 -115.5 53t-33.5 123q61 375 167.5 574t246.5 199q85 0 148.5 -56t134.5 -195
q65 -124 115.5 -172.5t117.5 -48.5h1z" />
    <glyph glyph-name="uniFBA8" unicode="&#x6c1;" horiz-adv-x="560" arabic-form="initial" 
d="M233 -901q-108 0 -168 66t-60 184q0 134 59 239.5t172 172.5q43 24 77 12.5t49 -40.5q14 -27 6.5 -59t-45.5 -52q-55 -31 -93.5 -76.5t-45.5 -98.5q33 13 64 13q77 0 125.5 -48.5t48.5 -125.5q0 -89 -51 -138t-138 -49zM-152 45q0 63 45 107.5t107 44.5q120 0 168 33.5
t48 129.5q0 75 -17 194q-7 62 31 112.5t100 58.5t111.5 -30t59.5 -100q23 -139 23 -237q0 -219 -134.5 -342t-389.5 -123q-62 0 -107 45t-45 107z" />
    <glyph glyph-name="uniFBA9" unicode="&#x6c1;" horiz-adv-x="1001" arabic-form="medial" 
d="M626 104q68 50 164 71t211 21q65 0 108 -43t43 -108q0 -64 -43 -107.5t-108 -43.5q-93 0 -161 -10.5t-104.5 -50.5t-36.5 -128q0 -43 8.5 -101t27.5 -131q5 -18 5 -39q0 -64 -43 -107.5t-108 -43.5q-57 0 -95.5 34t-50.5 79q-46 184 -71.5 328t-41.5 289
q-66 -54 -151.5 -86.5t-178.5 -32.5q-64 0 -107.5 43.5t-43.5 107.5q0 65 43.5 108t107.5 43q83 0 144.5 43t104.5 107t70 125q40 92 138 92q62 0 106 -44.5t45 -106.5q0 -37 2 -94t6.5 -115t9.5 -99z" />
    <glyph glyph-name="uniFBAB" unicode="&#x6be;" horiz-adv-x="1100" arabic-form="final" 
d="M74 373q0 142 89.5 257.5t254.5 192.5q53 24 102.5 54t67.5 56q-1 57 39.5 101t99.5 50q62 6 110.5 -35t54.5 -103l50 -557q8 -83 24.5 -124t48.5 -54.5t84 -13.5h1q63 0 107 -44.5t44 -107.5q0 -62 -44 -107t-107 -45h-1q-131 0 -217.5 39t-139.5 108q-24 -13 -51 -17
q-31 -4 -67 -6t-59 -2q-254 0 -372.5 101t-118.5 257zM380 392q0 -34 42 -53.5t143 -19.5q13 0 34.5 1.5t43.5 3.5q-2 19 -4 39l-20 220q-33 -19 -71 -37q-77 -37 -122.5 -76.5t-45.5 -77.5z" />
    <glyph glyph-name="uniFBAC" unicode="&#x6be;" horiz-adv-x="1359" arabic-form="initial" 
d="M-152 45q0 63 45 107.5t107 44.5q67 0 128 4q-38 50 -59 105.5t-21 116.5q0 130 59 240.5t156.5 178t212.5 67.5q62 0 118.5 -24.5t102.5 -68.5q14 1 28 -1q290 -38 434.5 -158.5t144.5 -369.5q0 -118 -54 -206.5t-150.5 -138t-225.5 -49.5q-106 0 -211 20t-200 56
q-197 -76 -463 -76q-62 0 -107 45t-45 107zM345 451q0 -55 34.5 -99t94.5 -76q128 65 128 179q0 61 -37 106t-90 45q-56 0 -93 -46.5t-37 -108.5zM839 462q0 -146 -73 -261q50 -4 103 -4q160 0 160 107q0 64 -51.5 106.5t-138.5 69.5v-18z" />
    <glyph glyph-name="uniFBAD" unicode="&#x6be;" horiz-adv-x="990" arabic-form="medial" 
d="M-152 45q0 63 45 107.5t107 44.5q30 0 59 1q5 113 33 236.5t85.5 231t152 175t233.5 67.5q102 0 174.5 -55.5t110.5 -139t38 -167.5q0 -92 -36 -181.5t-103 -167.5h243q63 0 107 -44.5t44 -107.5q0 -62 -44 -107t-107 -45h-97q11 -64 11 -125t-17.5 -129.5t-55 -128.5
t-99 -97.5t-149.5 -37.5q-102 0 -183.5 44.5t-143 119.5t-103.5 168t-66 189q-43 -3 -87 -3q-62 0 -107 45t-45 107zM532 591q-64 0 -108.5 -83.5t-57.5 -248.5q120 47 178 117t58 134q0 37 -14.5 59t-55.5 22zM580 -96q-13 34 -24 67t-15 58q-76 -45 -164 -75
q25 -138 80.5 -205.5t110.5 -67.5q56 0 56 60q0 32 -13.5 76t-30.5 87z" />
    <glyph glyph-name="uniFBAF" unicode="&#x6d2;" horiz-adv-x="1579" arabic-form="final" 
d="M1338 -519q0 -62 -44.5 -104.5t-106.5 -46.5q-420 -25 -669.5 4t-359 111t-109.5 216q0 165 177 285t518 185t834 65h1q62 0 106.5 -44.5t44.5 -106.5t-44.5 -106.5t-106.5 -44.5h-1q-178 0 -350 -11t-322.5 -31t-265.5 -47t-180 -58t-65 -65q0 -22 33 -39.5t118 -26.5
t240.5 -6t400.5 22q62 5 106.5 -42t44.5 -109z" />
    <glyph glyph-name="uniFBDA" unicode="&#x6c6;" horiz-adv-x="951" arabic-form="final" 
d="M690 1312q27 -17 35 -49.5t-9 -60.5l-166 -270q-12 -19 -38.5 -26t-53 -1.5t-39.5 21.5l-192 241q-19 25 -15.5 58.5t28.5 53.5t58.5 16.5t52.5 -29.5l123 -152l105 173q17 27 50.5 34.5t60.5 -9.5zM476 -107q-203 0 -313.5 98t-110.5 288q0 136 55.5 247t148.5 176.5
t205 65.5q127 0 224.5 -76.5t154.5 -206t61 -288.5h50q63 0 107 -44.5t44 -107.5q0 -62 -44 -107t-107 -45h-103q-53 -137 -151 -246t-225 -181.5t-267 -99.5q-61 -12 -113.5 24.5t-63.5 97.5q-12 62 25 111.5t96 66.5q126 35 218 93.5t149 133.5h-40zM474 197h133
q-4 66 -23.5 129.5t-52 105t-77.5 41.5q-49 0 -83.5 -46t-34.5 -120q0 -62 35.5 -86t102.5 -24z" />
    <glyph glyph-name="uniFBE8" unicode="&#x649;" horiz-adv-x="560" arabic-form="initial" 
d="M-152 45q0 63 45 107.5t107 44.5q120 0 168 33.5t48 129.5q0 75 -17 194q-7 62 31 112.5t100 58.5t111.5 -30t59.5 -100q23 -139 23 -237q0 -219 -134.5 -342t-389.5 -123q-62 0 -107 45t-45 107z" />
    <glyph glyph-name="uniFBE9" unicode="&#x649;" horiz-adv-x="811" arabic-form="medial" 
d="M-153 45q0 63 45.5 107.5t107.5 44.5q126 0 184 28t76.5 93t23.5 176q4 71 51.5 110t111.5 34q63 -4 104.5 -51.5t36.5 -109.5q-11 -152 37 -216t185 -64h1q63 0 107 -44.5t44 -107.5q0 -62 -44 -107t-107 -45h-1q-127 0 -222.5 43.5t-155.5 146.5q-79 -110 -184 -150
t-248 -40q-62 0 -107.5 45t-45.5 107z" />
    <glyph glyph-name="uniFBFD" unicode="&#x6cc;" horiz-adv-x="1390" arabic-form="final" 
d="M35 -81q0 145 28.5 271.5t84.5 280.5q21 59 79 85.5t116 5.5q59 -21 85.5 -78.5t5.5 -116.5q-93 -258 -93 -440q0 -154 91 -219t282 -65q159 0 251 36t92 89q0 91 -293 126q-53 7 -90.5 46.5t-42.5 93.5q-5 65 40.5 114t111.5 49h607q63 0 107 -44.5t44 -107.5
q0 -62 -44 -107t-107 -45h-109q64 -88 64 -174q0 -106 -82 -192.5t-227 -138t-334 -51.5q-205 0 -354.5 72.5t-231 203.5t-81.5 306z" />
    <glyph glyph-name="uniFBFE" unicode="&#x6cc;" horiz-adv-x="560" arabic-form="initial" 
d="M-152 45q0 63 45 107.5t107 44.5q120 0 168 33.5t48 129.5q0 75 -17 194q-7 62 31 112.5t100 58.5t111.5 -30t59.5 -100q23 -139 23 -237q0 -219 -134.5 -342t-389.5 -123q-62 0 -107 45t-45 107zM-228 -491q-13 47 10.5 90.5t72.5 59.5q56 17 130 26t147 9
q76 0 136.5 -10.5t102.5 -27.5q49 -28 62 -81.5t-17 -97.5q-25 -35 -60.5 -46.5t-73.5 -3.5q-29 7 -70.5 11.5t-79.5 4.5q-67 0 -121.5 -4t-88.5 -14q-47 -13 -91.5 12t-58.5 72z" />
    <glyph glyph-name="uniFBFF" unicode="&#x6cc;" horiz-adv-x="811" arabic-form="medial" 
d="M-153 45q0 63 45.5 107.5t107.5 44.5q126 0 184 28t76.5 93t23.5 176q4 71 51.5 110t111.5 34q63 -4 104.5 -51.5t36.5 -109.5q-11 -152 37 -216t185 -64h1q63 0 107 -44.5t44 -107.5q0 -62 -44 -107t-107 -45h-1q-127 0 -222.5 43.5t-155.5 146.5q-79 -110 -184 -150
t-248 -40q-62 0 -107.5 45t-45.5 107zM-228 -491q-13 47 10.5 90.5t72.5 59.5q56 17 130 26t147 9q76 0 136.5 -10.5t102.5 -27.5q49 -28 62 -81.5t-17 -97.5q-25 -35 -60.5 -46.5t-73.5 -3.5q-29 7 -70.5 11.5t-79.5 4.5q-67 0 -121.5 -4t-88.5 -14q-47 -13 -91.5 12
t-58.5 72z" />
    <glyph glyph-name="uniFE82" unicode="&#x622;" horiz-adv-x="574" arabic-form="final" 
d="M-92 1515q34 61 92.5 104.5t134.5 43.5q44 0 78 -17.5t62 -32.5q21 -11 42 -21t43 -10q20 0 43 19.5t45 68.5q13 26 41 36t55 -3q26 -13 35.5 -41.5t-3.5 -55.5q-18 -36 -46.5 -75t-70 -66t-99.5 -27q-40 0 -73 16.5l-59 29.5q-23 11 -46 23t-47 12q-25 0 -52.5 -18
t-50.5 -56q-15 -25 -43 -33.5t-54 6.5q-25 15 -33.5 43.5t6.5 53.5zM93 377q0 133 2 253.5t2 247.5t-6 280q-2 63 41 109.5t105 49.5q62 2 109 -41t49 -106q7 -150 6.5 -278.5t-3 -251.5t-2.5 -259q0 -103 38.5 -143.5t138.5 -40.5h1q63 0 107 -44.5t44 -107.5
q0 -62 -44 -107t-107 -45h-1q-224 0 -352 111t-128 373z" />
    <glyph glyph-name="uniFE84" unicode="&#x623;" horiz-adv-x="574" arabic-form="final" 
d="M19 1498q-10 26 3.5 54t41.5 38l92 31q-71 60 -71 166q0 101 64.5 166.5t182.5 65.5q37 0 67 -5q29 -4 47.5 -27t15.5 -51t-26 -48t-52 -16q-12 3 -32 3q-65 0 -95.5 -27.5t-30.5 -70.5q0 -81 100 -81q26 0 54 6.5t90 28.5q29 10 56.5 -6t34.5 -46q7 -27 -6.5 -51.5
t-38.5 -32.5l-405 -142q-28 -10 -55 3.5t-37 41.5zM93 377q0 133 2 253.5t2 247.5t-6 280q-2 63 41 109.5t105 49.5q62 2 109 -41t49 -106q7 -150 6.5 -278.5t-3 -251.5t-2.5 -259q0 -103 38.5 -143.5t138.5 -40.5h1q63 0 107 -44.5t44 -107.5q0 -62 -44 -107t-107 -45h-1
q-224 0 -352 111t-128 373z" />
    <glyph glyph-name="uniFE86" unicode="&#x624;" horiz-adv-x="951" arabic-form="final" 
d="M476 -107q-203 0 -313.5 98t-110.5 288q0 136 55.5 247t148.5 176.5t205 65.5q127 0 224.5 -76.5t154.5 -206t61 -288.5h50q63 0 107 -44.5t44 -107.5q0 -62 -44 -107t-107 -45h-103q-53 -137 -151 -246t-225 -181.5t-267 -99.5q-61 -12 -113.5 24.5t-63.5 97.5
q-12 62 25 111.5t96 66.5q126 35 218 93.5t149 133.5h-40zM474 197h133q-4 66 -23.5 129.5t-52 105t-77.5 41.5q-49 0 -83.5 -46t-34.5 -120q0 -62 35.5 -86t102.5 -24zM137 946q-10 26 3.5 54t41.5 38l92 31q-71 60 -71 166q0 101 64.5 166.5t182.5 65.5q37 0 67 -5
q29 -4 47.5 -27t15.5 -51t-26 -48t-52 -16q-12 3 -32 3q-65 0 -95.5 -27.5t-30.5 -70.5q0 -81 100 -81q26 0 54 6.5t90 28.5q29 10 56.5 -6t34.5 -46q7 -27 -6.5 -51.5t-38.5 -32.5l-405 -142q-28 -10 -55 3.5t-37 41.5z" />
    <glyph glyph-name="uniFE88" unicode="&#x625;" horiz-adv-x="574" arabic-form="final" 
d="M6 -782q-10 26 3.5 54t41.5 38l92 31q-71 60 -71 166q0 101 64.5 166.5t182.5 65.5q37 0 67 -5q29 -4 47.5 -27t15.5 -51t-26 -48t-52 -16q-12 3 -32 3q-65 0 -95.5 -27.5t-30.5 -70.5q0 -81 100 -81q26 0 54 6.5t90 28.5q29 10 56.5 -6t34.5 -46q7 -27 -6.5 -51.5
t-38.5 -32.5l-405 -142q-28 -10 -55 3.5t-37 41.5zM93 377q0 133 2 253.5t2 247.5t-6 280q-2 63 41 109.5t105 49.5q62 2 109 -41t49 -106q7 -150 6.5 -278.5t-3 -251.5t-2.5 -259q0 -103 38.5 -143.5t138.5 -40.5h1q63 0 107 -44.5t44 -107.5q0 -62 -44 -107t-107 -45h-1
q-224 0 -352 111t-128 373z" />
    <glyph glyph-name="uniFE8A" unicode="&#x626;" horiz-adv-x="1390" arabic-form="final" 
d="M615 397q-10 26 3.5 54t41.5 38l92 31q-71 60 -71 166q0 101 64.5 166.5t182.5 65.5q37 0 67 -5q29 -4 47.5 -27t15.5 -51t-26 -48t-52 -16q-12 3 -32 3q-65 0 -95.5 -27.5t-30.5 -70.5q0 -81 100 -81q26 0 54 6.5t90 28.5q29 10 56.5 -6t34.5 -46q7 -27 -6.5 -51.5
t-38.5 -32.5l-405 -142q-28 -10 -55 3.5t-37 41.5zM35 -81q0 145 28.5 271.5t84.5 280.5q21 59 79 85.5t116 5.5q59 -21 85.5 -78.5t5.5 -116.5q-93 -258 -93 -440q0 -154 91 -219t282 -65q159 0 251 36t92 89q0 91 -293 126q-53 7 -90.5 46.5t-42.5 93.5q-5 65 40.5 114
t111.5 49h607q63 0 107 -44.5t44 -107.5q0 -62 -44 -107t-107 -45h-109q64 -88 64 -174q0 -106 -82 -192.5t-227 -138t-334 -51.5q-205 0 -354.5 72.5t-231 203.5t-81.5 306z" />
    <glyph glyph-name="uniFE8B" unicode="&#x626;" horiz-adv-x="560" arabic-form="initial" 
d="M-68 826q-10 26 3.5 54t41.5 38l92 31q-71 60 -71 166q0 101 64.5 166.5t182.5 65.5q37 0 67 -5q29 -4 47.5 -27t15.5 -51t-26 -48t-52 -16q-12 3 -32 3q-65 0 -95.5 -27.5t-30.5 -70.5q0 -81 100 -81q26 0 54 6.5t90 28.5q29 10 56.5 -6t34.5 -46q7 -27 -6.5 -51.5
t-38.5 -32.5l-405 -142q-28 -10 -55 3.5t-37 41.5zM-152 45q0 63 45 107.5t107 44.5q120 0 168 33.5t48 129.5q0 75 -17 194q-7 62 31 112.5t100 58.5t111.5 -30t59.5 -100q23 -139 23 -237q0 -219 -134.5 -342t-389.5 -123q-62 0 -107 45t-45 107z" />
    <glyph glyph-name="uniFE8C" unicode="&#x626;" horiz-adv-x="811" arabic-form="medial" 
d="M-18 743q-10 26 3.5 54t41.5 38l92 31q-71 60 -71 166q0 101 64.5 166.5t182.5 65.5q37 0 67 -5q29 -4 47.5 -27t15.5 -51t-26 -48t-52 -16q-12 3 -32 3q-65 0 -95.5 -27.5t-30.5 -70.5q0 -81 100 -81q26 0 54 6.5t90 28.5q29 10 56.5 -6t34.5 -46q7 -27 -6.5 -51.5
t-38.5 -32.5l-405 -142q-28 -10 -55 3.5t-37 41.5zM-153 45q0 63 45.5 107.5t107.5 44.5q126 0 184 28t76.5 93t23.5 176q4 71 51.5 110t111.5 34q63 -4 104.5 -51.5t36.5 -109.5q-11 -152 37 -216t185 -64h1q63 0 107 -44.5t44 -107.5q0 -62 -44 -107t-107 -45h-1
q-127 0 -222.5 43.5t-155.5 146.5q-79 -110 -184 -150t-248 -40q-62 0 -107.5 45t-45.5 107z" />
    <glyph glyph-name="uniFE8E" unicode="&#x627;" horiz-adv-x="574" arabic-form="final" 
d="M93 377q0 133 2 253.5t2 247.5t-6 280q-2 63 41 109.5t105 49.5q62 2 109 -41t49 -106q7 -150 6.5 -278.5t-3 -251.5t-2.5 -259q0 -103 38.5 -143.5t138.5 -40.5h1q63 0 107 -44.5t44 -107.5q0 -62 -44 -107t-107 -45h-1q-224 0 -352 111t-128 373z" />
    <glyph glyph-name="uniFE90" unicode="&#x628;" horiz-adv-x="1937" arabic-form="final" 
d="M34 414q0 62 12 125t32 129q19 59 75 89t115 11t89 -75t11 -115q-16 -49 -22 -90.5t-6 -73.5q0 -70 33.5 -126t120 -88.5t244.5 -32.5q335 0 500 103t206 307q11 54 57 91t107 29q59 -6 100 -53t37 -107q-2 -34 -3.5 -63.5t-1.5 -57.5q0 -105 42.5 -162t153.5 -57h1
q63 0 107 -44.5t44 -107.5q0 -62 -44 -107t-107 -45h-1q-142 0 -235 69.5t-137 193.5q-150 -162 -367 -227.5t-459 -65.5q-195 0 -354.5 61.5t-254.5 184t-95 305.5zM612 -431q0 57 42 102.5t107 45.5q47 0 79.5 -20t51.5 -49q24 -40 24 -79q0 -30 -13 -65.5t-46.5 -61
t-93.5 -25.5q-62 0 -94 26t-45 60q-12 33 -12 66z" />
    <glyph glyph-name="uniFE91" unicode="&#x628;" horiz-adv-x="560" arabic-form="initial" 
d="M-152 45q0 63 45 107.5t107 44.5q120 0 168 33.5t48 129.5q0 75 -17 194q-7 62 31 112.5t100 58.5t111.5 -30t59.5 -100q23 -139 23 -237q0 -219 -134.5 -342t-389.5 -123q-62 0 -107 45t-45 107zM-77 -431q0 57 42 102.5t107 45.5q47 0 79.5 -20t51.5 -49q24 -40 24 -79
q0 -30 -13 -65.5t-46.5 -61t-93.5 -25.5q-62 0 -94 26t-45 60q-12 33 -12 66z" />
    <glyph glyph-name="uniFE92" unicode="&#x628;" horiz-adv-x="811" arabic-form="medial" 
d="M-153 45q0 63 45.5 107.5t107.5 44.5q126 0 184 28t76.5 93t23.5 176q4 71 51.5 110t111.5 34q63 -4 104.5 -51.5t36.5 -109.5q-11 -152 37 -216t185 -64h1q63 0 107 -44.5t44 -107.5q0 -62 -44 -107t-107 -45h-1q-127 0 -222.5 43.5t-155.5 146.5q-79 -110 -184 -150
t-248 -40q-62 0 -107.5 45t-45.5 107zM-77 -431q0 57 42 102.5t107 45.5q47 0 79.5 -20t51.5 -49q24 -40 24 -79q0 -30 -13 -65.5t-46.5 -61t-93.5 -25.5q-62 0 -94 26t-45 60q-12 33 -12 66z" />
    <glyph glyph-name="uniFE94" unicode="&#x629;" horiz-adv-x="1100" arabic-form="final" 
d="M74 373q0 142 89.5 257.5t254.5 192.5q53 24 102.5 54t67.5 56q-1 57 39.5 101t99.5 50q62 6 110.5 -35t54.5 -103l50 -557q8 -83 24.5 -124t48.5 -54.5t84 -13.5h1q63 0 107 -44.5t44 -107.5q0 -62 -44 -107t-107 -45h-1q-131 0 -217.5 39t-139.5 108q-24 -13 -51 -17
q-31 -4 -67 -6t-59 -2q-254 0 -372.5 101t-118.5 257zM380 392q0 -34 42 -53.5t143 -19.5q13 0 34.5 1.5t43.5 3.5q-2 19 -4 39l-20 220q-33 -19 -71 -37q-77 -37 -122.5 -76.5t-45.5 -77.5zM207 1349q-13 47 10.5 90.5t72.5 59.5q56 17 130 26t147 9q76 0 136.5 -10.5
t102.5 -27.5q49 -28 62 -81.5t-17 -97.5q-25 -35 -60.5 -46.5t-73.5 -3.5q-29 7 -70.5 11.5t-79.5 4.5q-67 0 -121.5 -4t-88.5 -14q-47 -13 -91.5 12t-58.5 72z" />
    <glyph glyph-name="uniFE96" unicode="&#x62a;" horiz-adv-x="1937" arabic-form="final" 
d="M34 414q0 62 12 125t32 129q19 59 75 89t115 11t89 -75t11 -115q-16 -49 -22 -90.5t-6 -73.5q0 -70 33.5 -126t120 -88.5t244.5 -32.5q335 0 500 103t206 307q11 54 57 91t107 29q59 -6 100 -53t37 -107q-2 -34 -3.5 -63.5t-1.5 -57.5q0 -105 42.5 -162t153.5 -57h1
q63 0 107 -44.5t44 -107.5q0 -62 -44 -107t-107 -45h-1q-142 0 -235 69.5t-137 193.5q-150 -162 -367 -227.5t-459 -65.5q-195 0 -354.5 61.5t-254.5 184t-95 305.5zM496 718q-13 47 10.5 90.5t72.5 59.5q56 17 130 26t147 9q76 0 136.5 -10.5t102.5 -27.5q49 -28 62 -81.5
t-17 -97.5q-25 -35 -60.5 -46.5t-73.5 -3.5q-29 7 -70.5 11.5t-79.5 4.5q-67 0 -121.5 -4t-88.5 -14q-47 -13 -91.5 12t-58.5 72z" />
    <glyph glyph-name="uniFE97" unicode="&#x62a;" horiz-adv-x="560" arabic-form="initial" 
d="M-152 45q0 63 45 107.5t107 44.5q120 0 168 33.5t48 129.5q0 75 -17 194q-7 62 31 112.5t100 58.5t111.5 -30t59.5 -100q23 -139 23 -237q0 -219 -134.5 -342t-389.5 -123q-62 0 -107 45t-45 107zM-99 968q-13 47 10.5 90.5t72.5 59.5q56 17 130 26t147 9
q76 0 136.5 -10.5t102.5 -27.5q49 -28 62 -81.5t-17 -97.5q-25 -35 -60.5 -46.5t-73.5 -3.5q-29 7 -70.5 11.5t-79.5 4.5q-67 0 -121.5 -4t-88.5 -14q-47 -13 -91.5 12t-58.5 72z" />
    <glyph glyph-name="uniFE98" unicode="&#x62a;" horiz-adv-x="811" arabic-form="medial" 
d="M-153 45q0 63 45.5 107.5t107.5 44.5q126 0 184 28t76.5 93t23.5 176q4 71 51.5 110t111.5 34q63 -4 104.5 -51.5t36.5 -109.5q-11 -152 37 -216t185 -64h1q63 0 107 -44.5t44 -107.5q0 -62 -44 -107t-107 -45h-1q-127 0 -222.5 43.5t-155.5 146.5q-79 -110 -184 -150
t-248 -40q-62 0 -107.5 45t-45.5 107zM-33 910q-13 47 10.5 90.5t72.5 59.5q56 17 130 26t147 9q76 0 136.5 -10.5t102.5 -27.5q49 -28 62 -81.5t-17 -97.5q-25 -35 -60.5 -46.5t-73.5 -3.5q-29 7 -70.5 11.5t-79.5 4.5q-67 0 -121.5 -4t-88.5 -14q-47 -13 -91.5 12
t-58.5 72z" />
    <glyph glyph-name="uniFE9A" unicode="&#x62b;" horiz-adv-x="1937" arabic-form="final" 
d="M34 414q0 62 12 125t32 129q19 59 75 89t115 11t89 -75t11 -115q-16 -49 -22 -90.5t-6 -73.5q0 -70 33.5 -126t120 -88.5t244.5 -32.5q335 0 500 103t206 307q11 54 57 91t107 29q59 -6 100 -53t37 -107q-2 -34 -3.5 -63.5t-1.5 -57.5q0 -105 42.5 -162t153.5 -57h1
q63 0 107 -44.5t44 -107.5q0 -62 -44 -107t-107 -45h-1q-142 0 -235 69.5t-137 193.5q-150 -162 -367 -227.5t-459 -65.5q-195 0 -354.5 61.5t-254.5 184t-95 305.5zM660 996q0 55 40.5 98t101.5 43q45 0 76 -19t49 -47q23 -35 23 -75q0 -28 -12.5 -62t-44 -58t-88.5 -24
q-59 0 -90 24.5t-43 57.5q-12 32 -12 62zM506 614q-13 44 10 85.5t69 56.5q53 17 124.5 25.5t140.5 8.5q72 0 130 -9.5t98 -26.5q47 -26 59.5 -77t-16.5 -93q-24 -34 -58 -44.5t-70 -2.5q-28 6 -67.5 10.5t-75.5 4.5q-65 0 -117 -4t-84 -14q-45 -12 -87 12t-56 68z" />
    <glyph glyph-name="uniFE9B" unicode="&#x62b;" horiz-adv-x="560" arabic-form="initial" 
d="M-152 45q0 63 45 107.5t107 44.5q120 0 168 33.5t48 129.5q0 75 -17 194q-7 62 31 112.5t100 58.5t111.5 -30t59.5 -100q23 -139 23 -237q0 -219 -134.5 -342t-389.5 -123q-62 0 -107 45t-45 107zM80 1239q0 55 40.5 98t101.5 43q45 0 76 -19t49 -47q23 -35 23 -75
q0 -28 -12.5 -62t-44 -58t-88.5 -24q-59 0 -90 24.5t-43 57.5q-12 32 -12 62zM-74 857q-13 44 10 85.5t69 56.5q53 17 124.5 25.5t140.5 8.5q72 0 130 -9.5t98 -26.5q47 -26 59.5 -77t-16.5 -93q-24 -34 -58 -44.5t-70 -2.5q-28 6 -67.5 10.5t-75.5 4.5q-65 0 -117 -4
t-84 -14q-45 -12 -87 12t-56 68z" />
    <glyph glyph-name="uniFE9C" unicode="&#x62b;" horiz-adv-x="811" arabic-form="medial" 
d="M-153 45q0 63 45.5 107.5t107.5 44.5q126 0 184 28t76.5 93t23.5 176q4 71 51.5 110t111.5 34q63 -4 104.5 -51.5t36.5 -109.5q-11 -152 37 -216t185 -64h1q63 0 107 -44.5t44 -107.5q0 -62 -44 -107t-107 -45h-1q-127 0 -222.5 43.5t-155.5 146.5q-79 -110 -184 -150
t-248 -40q-62 0 -107.5 45t-45.5 107zM94 1223q0 55 40.5 98t101.5 43q45 0 76 -19t49 -47q23 -35 23 -75q0 -28 -12.5 -62t-44 -58t-88.5 -24q-59 0 -90 24.5t-43 57.5q-12 32 -12 62zM-60 841q-13 44 10 85.5t69 56.5q53 17 124.5 25.5t140.5 8.5q72 0 130 -9.5t98 -26.5
q47 -26 59.5 -77t-16.5 -93q-24 -34 -58 -44.5t-70 -2.5q-28 6 -67.5 10.5t-75.5 4.5q-65 0 -117 -4t-84 -14q-45 -12 -87 12t-56 68z" />
    <glyph glyph-name="uniFE9E" unicode="&#x62c;" horiz-adv-x="1392" arabic-form="final" 
d="M405 941q72 0 155.5 -31.5t176.5 -77.5t194.5 -92.5t210.5 -76.5q135 -37 135 -156q0 -52 -40 -93.5t-110 -61.5q20 -64 49.5 -97.5t80.5 -45.5t134 -12h1q63 0 107 -44.5t44 -107.5q0 -62 -44 -107t-107 -45h-1q-451 0 -557 384q-239 -77 -370.5 -190.5t-131.5 -248.5
q0 -121 101 -189t269 -68q169 0 364 71q62 22 117.5 0.5t78.5 -76.5q24 -58 0.5 -116.5t-80.5 -84.5q-208 -95 -455 -95q-207 0 -363 69t-242.5 195t-86.5 297q0 221 164 384t513 302q-80 40 -154 70t-109 30q-30 0 -50 -23t-31 -63q-17 -60 -72 -93t-114 -18
q-60 16 -93.5 71t-17.5 115q38 147 127 236t207 89zM516 -107q0 57 42 102.5t107 45.5q47 0 79.5 -20t51.5 -49q24 -40 24 -79q0 -30 -13 -65.5t-46.5 -61t-93.5 -25.5q-62 0 -94 26t-45 60q-12 33 -12 66z" />
    <glyph glyph-name="uniFE9F" unicode="&#x62c;" horiz-adv-x="1299" arabic-form="initial" 
d="M385 875q98 0 205.5 -46t212.5 -100q69 -36 158 -76.5t199 -87.5q40 -16 66 -55.5t26 -83.5q0 -83 -71 -129q-283 -181 -573 -292.5t-608 -111.5q-63 0 -108 45.5t-45 106.5t45 106.5t108 45.5q194 0 385 54t381 157q-43 21 -83.5 41t-79.5 42q-61 33 -107 54t-81 21
q-41 0 -62 -27t-50 -95q-13 -32 -49 -57t-81.5 -29t-89.5 24q-42 27 -60.5 81.5t6.5 110.5q62 131 141.5 216t214.5 85zM314 -326q0 57 42 102.5t107 45.5q47 0 79.5 -20t51.5 -49q24 -40 24 -79q0 -30 -13 -65.5t-46.5 -61t-93.5 -25.5q-62 0 -94 26t-45 60q-12 33 -12 66z
" />
    <glyph glyph-name="uniFEA0" unicode="&#x62c;" horiz-adv-x="1321" arabic-form="medial" 
d="M385 875q98 0 205.5 -46t212.5 -100q69 -36 158 -76.5t199 -87.5q40 -16 66 -55.5t26 -83.5q0 -83 -71 -129q-33 -21 -66 -41q25 -29 74 -44t131 -15h1q63 0 107 -44.5t44 -107.5q0 -62 -44 -107t-107 -45h-1q-145 0 -272 53.5t-198 162.5q-203 -101 -414 -158.5
t-436 -57.5q-63 0 -108 45.5t-45 106.5t45 106.5t108 45.5q194 0 385 54t381 157q-43 21 -83.5 41t-79.5 42q-61 33 -107 54t-81 21q-41 0 -62 -27t-50 -95q-13 -32 -49 -57t-81.5 -29t-89.5 24q-42 27 -60.5 81.5t6.5 110.5q62 131 141.5 216t214.5 85zM438 -326
q0 57 42 102.5t107 45.5q47 0 79.5 -20t51.5 -49q24 -40 24 -79q0 -30 -13 -65.5t-46.5 -61t-93.5 -25.5q-62 0 -94 26t-45 60q-12 33 -12 66z" />
    <glyph glyph-name="uniFEA2" unicode="&#x62d;" horiz-adv-x="1392" arabic-form="final" 
d="M405 941q72 0 155.5 -31.5t176.5 -77.5t194.5 -92.5t210.5 -76.5q135 -37 135 -156q0 -52 -40 -93.5t-110 -61.5q20 -64 49.5 -97.5t80.5 -45.5t134 -12h1q63 0 107 -44.5t44 -107.5q0 -62 -44 -107t-107 -45h-1q-451 0 -557 384q-239 -77 -370.5 -190.5t-131.5 -248.5
q0 -121 101 -189t269 -68q169 0 364 71q62 22 117.5 0.5t78.5 -76.5q24 -58 0.5 -116.5t-80.5 -84.5q-208 -95 -455 -95q-207 0 -363 69t-242.5 195t-86.5 297q0 221 164 384t513 302q-80 40 -154 70t-109 30q-30 0 -50 -23t-31 -63q-17 -60 -72 -93t-114 -18
q-60 16 -93.5 71t-17.5 115q38 147 127 236t207 89z" />
    <glyph glyph-name="uniFEA3" unicode="&#x62d;" horiz-adv-x="1299" arabic-form="initial" 
d="M385 875q98 0 205.5 -46t212.5 -100q69 -36 158 -76.5t199 -87.5q40 -16 66 -55.5t26 -83.5q0 -83 -71 -129q-283 -181 -573 -292.5t-608 -111.5q-63 0 -108 45.5t-45 106.5t45 106.5t108 45.5q194 0 385 54t381 157q-43 21 -83.5 41t-79.5 42q-61 33 -107 54t-81 21
q-41 0 -62 -27t-50 -95q-13 -32 -49 -57t-81.5 -29t-89.5 24q-42 27 -60.5 81.5t6.5 110.5q62 131 141.5 216t214.5 85z" />
    <glyph glyph-name="uniFEA4" unicode="&#x62d;" horiz-adv-x="1321" arabic-form="medial" 
d="M385 875q98 0 205.5 -46t212.5 -100q69 -36 158 -76.5t199 -87.5q40 -16 66 -55.5t26 -83.5q0 -83 -71 -129q-33 -21 -66 -41q25 -29 74 -44t131 -15h1q63 0 107 -44.5t44 -107.5q0 -62 -44 -107t-107 -45h-1q-145 0 -272 53.5t-198 162.5q-203 -101 -414 -158.5
t-436 -57.5q-63 0 -108 45.5t-45 106.5t45 106.5t108 45.5q194 0 385 54t381 157q-43 21 -83.5 41t-79.5 42q-61 33 -107 54t-81 21q-41 0 -62 -27t-50 -95q-13 -32 -49 -57t-81.5 -29t-89.5 24q-42 27 -60.5 81.5t6.5 110.5q62 131 141.5 216t214.5 85z" />
    <glyph glyph-name="uniFEA6" unicode="&#x62e;" horiz-adv-x="1392" arabic-form="final" 
d="M405 941q72 0 155.5 -31.5t176.5 -77.5t194.5 -92.5t210.5 -76.5q135 -37 135 -156q0 -52 -40 -93.5t-110 -61.5q20 -64 49.5 -97.5t80.5 -45.5t134 -12h1q63 0 107 -44.5t44 -107.5q0 -62 -44 -107t-107 -45h-1q-451 0 -557 384q-239 -77 -370.5 -190.5t-131.5 -248.5
q0 -121 101 -189t269 -68q169 0 364 71q62 22 117.5 0.5t78.5 -76.5q24 -58 0.5 -116.5t-80.5 -84.5q-208 -95 -455 -95q-207 0 -363 69t-242.5 195t-86.5 297q0 221 164 384t513 302q-80 40 -154 70t-109 30q-30 0 -50 -23t-31 -63q-17 -60 -72 -93t-114 -18
q-60 16 -93.5 71t-17.5 115q38 147 127 236t207 89zM273 1273q0 57 42 102.5t107 45.5q47 0 79.5 -20t51.5 -49q24 -40 24 -79q0 -30 -13 -65.5t-46.5 -61t-93.5 -25.5q-62 0 -94 26t-45 60q-12 33 -12 66z" />
    <glyph glyph-name="uniFEA7" unicode="&#x62e;" horiz-adv-x="1299" arabic-form="initial" 
d="M385 875q98 0 205.5 -46t212.5 -100q69 -36 158 -76.5t199 -87.5q40 -16 66 -55.5t26 -83.5q0 -83 -71 -129q-283 -181 -573 -292.5t-608 -111.5q-63 0 -108 45.5t-45 106.5t45 106.5t108 45.5q194 0 385 54t381 157q-43 21 -83.5 41t-79.5 42q-61 33 -107 54t-81 21
q-41 0 -62 -27t-50 -95q-13 -32 -49 -57t-81.5 -29t-89.5 24q-42 27 -60.5 81.5t6.5 110.5q62 131 141.5 216t214.5 85zM249 1206q0 57 42 102.5t107 45.5q47 0 79.5 -20t51.5 -49q24 -40 24 -79q0 -30 -13 -65.5t-46.5 -61t-93.5 -25.5q-62 0 -94 26t-45 60q-12 33 -12 66z
" />
    <glyph glyph-name="uniFEA8" unicode="&#x62e;" horiz-adv-x="1321" arabic-form="medial" 
d="M385 875q98 0 205.5 -46t212.5 -100q69 -36 158 -76.5t199 -87.5q40 -16 66 -55.5t26 -83.5q0 -83 -71 -129q-33 -21 -66 -41q25 -29 74 -44t131 -15h1q63 0 107 -44.5t44 -107.5q0 -62 -44 -107t-107 -45h-1q-145 0 -272 53.5t-198 162.5q-203 -101 -414 -158.5
t-436 -57.5q-63 0 -108 45.5t-45 106.5t45 106.5t108 45.5q194 0 385 54t381 157q-43 21 -83.5 41t-79.5 42q-61 33 -107 54t-81 21q-41 0 -62 -27t-50 -95q-13 -32 -49 -57t-81.5 -29t-89.5 24q-42 27 -60.5 81.5t6.5 110.5q62 131 141.5 216t214.5 85zM213 1206
q0 57 42 102.5t107 45.5q47 0 79.5 -20t51.5 -49q24 -40 24 -79q0 -30 -13 -65.5t-46.5 -61t-93.5 -25.5q-62 0 -94 26t-45 60q-12 33 -12 66z" />
    <glyph glyph-name="uniFEAA" unicode="&#x62f;" horiz-adv-x="1121" arabic-form="final" 
d="M41 82q17 60 70 89t117 15q43 -9 80.5 -14t81.5 -5q91 0 137.5 16t63 45.5t16.5 68.5q0 14 -3 28q-8 21 -16 45q-24 74 -65.5 154t-100.5 178q-32 53 -17 115t68 95q53 32 115 17t94 -68q60 -97 108 -187t86 -204q52 -146 100.5 -209.5t143.5 -63.5h1q63 0 107 -44.5
t44 -107.5q0 -62 -44 -107t-107 -45h-1q-104 0 -182.5 32t-136.5 83q-80 -79 -193 -112t-218 -33q-70 0 -121 6.5t-124 25.5q-60 15 -90 71t-14 116z" />
    <glyph glyph-name="uniFEAC" unicode="&#x630;" horiz-adv-x="1121" arabic-form="final" 
d="M41 82q17 60 70 89t117 15q43 -9 80.5 -14t81.5 -5q91 0 137.5 16t63 45.5t16.5 68.5q0 14 -3 28q-8 21 -16 45q-24 74 -65.5 154t-100.5 178q-32 53 -17 115t68 95q53 32 115 17t94 -68q60 -97 108 -187t86 -204q52 -146 100.5 -209.5t143.5 -63.5h1q63 0 107 -44.5
t44 -107.5q0 -62 -44 -107t-107 -45h-1q-104 0 -182.5 32t-136.5 83q-80 -79 -193 -112t-218 -33q-70 0 -121 6.5t-124 25.5q-60 15 -90 71t-14 116zM391 1266q0 57 42 102.5t107 45.5q47 0 79.5 -20t51.5 -49q24 -40 24 -79q0 -30 -13 -65.5t-46.5 -61t-93.5 -25.5
q-62 0 -94 26t-45 60q-12 33 -12 66z" />
    <glyph glyph-name="uniFEAE" unicode="&#x631;" horiz-adv-x="947" arabic-form="final" 
d="M394 449q-21 59 15.5 114t97.5 69q17 4 35 4q55 1 95.5 -33t50.5 -79q1 -2 2 -5q48 -176 107.5 -249t148.5 -73h1q63 0 107 -44.5t44 -107.5q0 -62 -44 -107t-107 -45h-1q-60 0 -115 18t-104 51q-41 -231 -180.5 -380t-337.5 -215q-68 -22 -122.5 11t-71.5 88
q-20 71 13 122.5t83 67.5q154 52 241.5 168t87.5 316q0 132 -42 297z" />
    <glyph glyph-name="uniFEB0" unicode="&#x632;" horiz-adv-x="947" arabic-form="final" 
d="M394 449q-21 59 15.5 114t97.5 69q17 4 35 4q55 1 95.5 -33t50.5 -79q1 -2 2 -5q48 -176 107.5 -249t148.5 -73h1q63 0 107 -44.5t44 -107.5q0 -62 -44 -107t-107 -45h-1q-60 0 -115 18t-104 51q-41 -231 -180.5 -380t-337.5 -215q-68 -22 -122.5 11t-71.5 88
q-20 71 13 122.5t83 67.5q154 52 241.5 168t87.5 316q0 132 -42 297zM367 1000q0 57 42 102.5t107 45.5q47 0 79.5 -20t51.5 -49q24 -40 24 -79q0 -30 -13 -65.5t-46.5 -61t-93.5 -25.5q-62 0 -94 26t-45 60q-12 33 -12 66z" />
    <glyph glyph-name="uniFEB2" unicode="&#x633;" horiz-adv-x="2430" arabic-form="final" 
d="M35 -49q0 181 100 438q23 58 82 83.5t116 2.5q58 -23 83.5 -81.5t2.5 -115.5q-40 -98 -59 -180t-19 -147q0 -272 320 -272q159 0 246 77.5t87 216.5q0 72 -20 167.5t-53 182.5q-2 4 -4 9q-22 59 3 118t83 81q25 10 52 10q33 0 64 -13q59 -26 81 -84q61 -156 100 -213.5
t90 -57.5q48 0 73 45.5t42 159.5q2 18 6 42q2 15 8 30v0q1 2 1 4l1 1q1 2 1 4q1 0 1 1q1 2 2 3q0 1 1 2q1 2 2 3v1q21 35 58.5 54.5t80.5 13.5q56 -7 90.5 -53t26.5 -102l-2 -12q0 -4 -1 -8q-7 -50 -7 -96q0 -41 27 -69t75 -28q47 0 73.5 30t26.5 80q0 39 -1.5 72.5
t-5.5 67.5l-6 34q-10 57 20.5 106t84.5 65l18 4q32 6 64 -3q43 -10 74.5 -42t38.5 -77q4 -26 7 -47q18 -114 35.5 -170t46 -74t77.5 -18h1q63 0 107 -44.5t44 -107.5q0 -62 -44 -107t-107 -45h-1q-157 1 -259 88q-53 -55 -123.5 -86.5t-150.5 -31.5q-79 0 -146.5 31.5
t-118.5 83.5q-47 -53 -108.5 -82t-137.5 -29q-50 0 -95 12q-26 -148 -112 -262t-218.5 -178t-295.5 -64q-194 0 -335.5 70.5t-217.5 199.5t-76 306z" />
    <glyph glyph-name="uniFEB3" unicode="&#x633;" horiz-adv-x="1652" arabic-form="initial" 
d="M-152 45q0 63 45 107.5t107 44.5q186 0 227 211q3 30 10 77v2q1 1 1 3v1q8 44 41 77l2 2v0q25 25 59 37t70 6q62 -9 100 -60t29 -113q-9 -58 -11.5 -84t-2.5 -42q0 -137 104 -137q59 0 94.5 51t52.5 175q2 29 8 67q4 28 19 53q0 1 1 1q1 1 1 2q21 34 57.5 52.5t77.5 14.5
q3 0 6 -1h2q59 -9 95.5 -57t27.5 -103q-3 -25 -7 -49q-2 -23 -2 -44q0 -70 26.5 -115t93.5 -45q116 0 116 142q0 44 -6.5 89.5t-17.5 94.5q-14 61 19.5 115t94.5 67q61 14 115 -19.5t67 -94.5q14 -57 20.5 -94.5t9 -68.5t2.5 -70q0 -140 -50 -244.5t-140 -162.5t-210 -58
q-95 0 -173.5 36t-135.5 102q-61 -66 -135 -103t-154 -37q-88 0 -161 39.5t-124 105.5q-66 -58 -147 -91.5t-172 -33.5q-62 0 -107 45t-45 107z" />
    <glyph glyph-name="uniFEB4" unicode="&#x633;" horiz-adv-x="1817" arabic-form="medial" 
d="M-152 45q0 63 45 107.5t107 44.5q186 0 227 211q3 30 10 77v2q1 1 1 3v1q8 44 41 77l2 2v0q25 25 59 37t70 6q62 -9 100 -60t29 -113q-9 -58 -11.5 -84t-2.5 -42q0 -137 104 -137q59 0 94.5 51t52.5 175q2 29 8 67q4 28 19 53q0 1 1 1q1 1 1 2q21 34 57.5 52.5t77.5 14.5
q3 0 6 -1h2q59 -9 95.5 -57t27.5 -103q-3 -25 -7 -49q-2 -23 -2 -44q0 -70 26.5 -115t93.5 -45q116 0 116 142q0 44 -6.5 89.5t-17.5 94.5q-12 47 8 93q14 33 41.5 57t64.5 32q60 17 115 -17.5t67 -95.5l2 -8q9 -39 14 -66q29 -120 61.5 -185.5t73.5 -91.5t95 -26h1
q63 0 107 -44.5t44 -107.5q0 -62 -44 -107t-107 -45h-1q-90 0 -166 35t-139 99q-53 -72 -132 -112t-177 -40q-95 0 -173.5 36t-135.5 102q-61 -66 -135 -103t-154 -37q-88 0 -161 39.5t-124 105.5q-66 -58 -147 -91.5t-172 -33.5q-62 0 -107 45t-45 107z" />
    <glyph glyph-name="uniFEB6" unicode="&#x634;" horiz-adv-x="2430" arabic-form="final" 
d="M35 -49q0 181 100 438q23 58 82 83.5t116 2.5q58 -23 83.5 -81.5t2.5 -115.5q-40 -98 -59 -180t-19 -147q0 -272 320 -272q159 0 246 77.5t87 216.5q0 72 -20 167.5t-53 182.5q-2 4 -4 9q-22 59 3 118t83 81q25 10 52 10q33 0 64 -13q59 -26 81 -84q61 -156 100 -213.5
t90 -57.5q48 0 73 45.5t42 159.5q2 18 6 42q2 15 8 30v0q1 2 1 4l1 1q1 2 1 4q1 0 1 1q1 2 2 3q0 1 1 2q1 2 2 3v1q21 35 58.5 54.5t80.5 13.5q56 -7 90.5 -53t26.5 -102l-2 -12q0 -4 -1 -8q-7 -50 -7 -96q0 -41 27 -69t75 -28q47 0 73.5 30t26.5 80q0 39 -1.5 72.5
t-5.5 67.5l-6 34q-10 57 20.5 106t84.5 65l18 4q32 6 64 -3q43 -10 74.5 -42t38.5 -77q4 -26 7 -47q18 -114 35.5 -170t46 -74t77.5 -18h1q63 0 107 -44.5t44 -107.5q0 -62 -44 -107t-107 -45h-1q-157 1 -259 88q-53 -55 -123.5 -86.5t-150.5 -31.5q-79 0 -146.5 31.5
t-118.5 83.5q-47 -53 -108.5 -82t-137.5 -29q-50 0 -95 12q-26 -148 -112 -262t-218.5 -178t-295.5 -64q-194 0 -335.5 70.5t-217.5 199.5t-76 306zM1300 1136q0 55 40.5 98t101.5 43q45 0 76 -19t49 -47q23 -35 23 -75q0 -28 -12.5 -62t-44 -58t-88.5 -24q-59 0 -90 24.5
t-43 57.5q-12 32 -12 62zM1146 754q-13 44 10 85.5t69 56.5q53 17 124.5 25.5t140.5 8.5q72 0 130 -9.5t98 -26.5q47 -26 59.5 -77t-16.5 -93q-24 -34 -58 -44.5t-70 -2.5q-28 6 -67.5 10.5t-75.5 4.5q-65 0 -117 -4t-84 -14q-45 -12 -87 12t-56 68z" />
    <glyph glyph-name="uniFEB7" unicode="&#x634;" horiz-adv-x="1652" arabic-form="initial" 
d="M-152 45q0 63 45 107.5t107 44.5q186 0 227 211q3 30 10 77v2q1 1 1 3v1q8 44 41 77l2 2v0q25 25 59 37t70 6q62 -9 100 -60t29 -113q-9 -58 -11.5 -84t-2.5 -42q0 -137 104 -137q59 0 94.5 51t52.5 175q2 29 8 67q4 28 19 53q0 1 1 1q1 1 1 2q21 34 57.5 52.5t77.5 14.5
q3 0 6 -1h2q59 -9 95.5 -57t27.5 -103q-3 -25 -7 -49q-2 -23 -2 -44q0 -70 26.5 -115t93.5 -45q116 0 116 142q0 44 -6.5 89.5t-17.5 94.5q-14 61 19.5 115t94.5 67q61 14 115 -19.5t67 -94.5q14 -57 20.5 -94.5t9 -68.5t2.5 -70q0 -140 -50 -244.5t-140 -162.5t-210 -58
q-95 0 -173.5 36t-135.5 102q-61 -66 -135 -103t-154 -37q-88 0 -161 39.5t-124 105.5q-66 -58 -147 -91.5t-172 -33.5q-62 0 -107 45t-45 107zM657 1203q0 55 40.5 98t101.5 43q45 0 76 -19t49 -47q23 -35 23 -75q0 -28 -12.5 -62t-44 -58t-88.5 -24q-59 0 -90 24.5
t-43 57.5q-12 32 -12 62zM503 821q-13 44 10 85.5t69 56.5q53 17 124.5 25.5t140.5 8.5q72 0 130 -9.5t98 -26.5q47 -26 59.5 -77t-16.5 -93q-24 -34 -58 -44.5t-70 -2.5q-28 6 -67.5 10.5t-75.5 4.5q-65 0 -117 -4t-84 -14q-45 -12 -87 12t-56 68z" />
    <glyph glyph-name="uniFEB8" unicode="&#x634;" horiz-adv-x="1817" arabic-form="medial" 
d="M-152 45q0 63 45 107.5t107 44.5q186 0 227 211q3 30 10 77v2q1 1 1 3v1q8 44 41 77l2 2v0q25 25 59 37t70 6q62 -9 100 -60t29 -113q-9 -58 -11.5 -84t-2.5 -42q0 -137 104 -137q59 0 94.5 51t52.5 175q2 29 8 67q4 28 19 53q0 1 1 1q1 1 1 2q21 34 57.5 52.5t77.5 14.5
q3 0 6 -1h2q59 -9 95.5 -57t27.5 -103q-3 -25 -7 -49q-2 -23 -2 -44q0 -70 26.5 -115t93.5 -45q116 0 116 142q0 44 -6.5 89.5t-17.5 94.5q-12 47 8 93q14 33 41.5 57t64.5 32q60 17 115 -17.5t67 -95.5l2 -8q9 -39 14 -66q29 -120 61.5 -185.5t73.5 -91.5t95 -26h1
q63 0 107 -44.5t44 -107.5q0 -62 -44 -107t-107 -45h-1q-90 0 -166 35t-139 99q-53 -72 -132 -112t-177 -40q-95 0 -173.5 36t-135.5 102q-61 -66 -135 -103t-154 -37q-88 0 -161 39.5t-124 105.5q-66 -58 -147 -91.5t-172 -33.5q-62 0 -107 45t-45 107zM657 1203
q0 55 40.5 98t101.5 43q45 0 76 -19t49 -47q23 -35 23 -75q0 -28 -12.5 -62t-44 -58t-88.5 -24q-59 0 -90 24.5t-43 57.5q-12 32 -12 62zM503 821q-13 44 10 85.5t69 56.5q53 17 124.5 25.5t140.5 8.5q72 0 130 -9.5t98 -26.5q47 -26 59.5 -77t-16.5 -93q-24 -34 -58 -44.5
t-70 -2.5q-28 6 -67.5 10.5t-75.5 4.5q-65 0 -117 -4t-84 -14q-45 -12 -87 12t-56 68z" />
    <glyph glyph-name="uniFEBA" unicode="&#x635;" horiz-adv-x="2452" arabic-form="final" 
d="M36 -49q0 94 24 200.5t75 236.5q23 59 82 84t116 2q58 -23 83.5 -81t2.5 -116q-78 -202 -78 -326q0 -128 77.5 -200t241.5 -72q149 0 242 72t93 221q0 70 -20 168.5t-58 192.5q-6 16 -9 33q-8 50 17.5 96.5t74.5 67.5q57 24 116 0t83 -82q30 -73 79 -128q119 213 282 337
t352 124q120 0 213 -49.5t146.5 -140t53.5 -213.5q0 -76 -25 -147q20 -16 55.5 -25t95.5 -9h1q63 0 107 -44.5t44 -107.5q0 -62 -44 -107t-107 -45h-1q-99 0 -185 27t-151 74q-85 -61 -197.5 -96t-241.5 -35q-211 0 -378 75q-14 -168 -100.5 -294.5t-225.5 -197.5t-308 -71
q-200 0 -340.5 72.5t-214 202.5t-73.5 301zM1875 476q-93 0 -180.5 -78.5t-164.5 -216.5q68 -14 146 -14q153 0 249.5 53.5t96.5 126.5q0 61 -41 95t-106 34z" />
    <glyph glyph-name="uniFEBB" unicode="&#x635;" horiz-adv-x="1694" arabic-form="initial" 
d="M-152 45q0 63 45 107.5t107 44.5q72 0 128.5 22t92 85t45.5 186q3 31 18 58q36 69 113 79q17 3 35 1q25 -2 47 -13q39 -16 64.5 -51.5t27.5 -79.5q4 -92 32 -151q127 223 280 338t333 115q122 0 215 -51.5t145.5 -143.5t52.5 -213q0 -142 -86.5 -254t-234.5 -176.5
t-335 -64.5q-157 0 -291 48q-6 -15 -13 -30q-25 -59 -79 -74.5t-98 10.5q-38 23 -50.5 69t6.5 98q10 25 20 49q-20 17 -37 34q-156 -194 -431 -194q-62 0 -107 45t-45 107zM1179 481q-94 0 -182.5 -72.5t-174.5 -211.5q64 -10 151 -10q167 0 259.5 42.5t92.5 126.5
q0 62 -43 93.5t-103 31.5z" />
    <glyph glyph-name="uniFEBC" unicode="&#x635;" horiz-adv-x="1791" arabic-form="medial" 
d="M-152 45q0 63 45 107.5t107 44.5q72 0 128.5 22t92 85t45.5 186q3 31 18 58q36 69 113 79q17 3 35 1q25 -2 47 -13q39 -16 64.5 -51.5t27.5 -79.5q4 -92 32 -151q127 223 280 338t333 115q122 0 215 -51.5t145.5 -143.5t52.5 -213q0 -62 -18 -120q21 -34 60.5 -47.5
t118.5 -13.5h1q63 0 107 -45t44 -107t-44 -107t-107 -45h-1q-103 0 -196 33t-163 91q-87 -63 -204.5 -98.5t-253.5 -35.5q-157 0 -291 48q-6 -15 -13 -30q-25 -59 -79 -74.5t-98 10.5q-38 23 -50.5 69t6.5 98q10 25 20 49q-20 17 -37 34q-156 -194 -431 -194q-62 0 -107 45
t-45 107zM1179 481q-94 0 -182.5 -72.5t-174.5 -211.5q64 -10 151 -10q167 0 259.5 42.5t92.5 126.5q0 62 -43 93.5t-103 31.5z" />
    <glyph glyph-name="uniFEBE" unicode="&#x636;" horiz-adv-x="2452" arabic-form="final" 
d="M36 -49q0 94 24 200.5t75 236.5q23 59 82 84t116 2q58 -23 83.5 -81t2.5 -116q-78 -202 -78 -326q0 -128 77.5 -200t241.5 -72q149 0 242 72t93 221q0 70 -20 168.5t-58 192.5q-6 16 -9 33q-8 50 17.5 96.5t74.5 67.5q57 24 116 0t83 -82q30 -73 79 -128q119 213 282 337
t352 124q120 0 213 -49.5t146.5 -140t53.5 -213.5q0 -76 -25 -147q20 -16 55.5 -25t95.5 -9h1q63 0 107 -44.5t44 -107.5q0 -62 -44 -107t-107 -45h-1q-99 0 -185 27t-151 74q-85 -61 -197.5 -96t-241.5 -35q-211 0 -378 75q-14 -168 -100.5 -294.5t-225.5 -197.5t-308 -71
q-200 0 -340.5 72.5t-214 202.5t-73.5 301zM1875 476q-93 0 -180.5 -78.5t-164.5 -216.5q68 -14 146 -14q153 0 249.5 53.5t96.5 126.5q0 61 -41 95t-106 34zM1769 1082q0 57 42 102.5t107 45.5q47 0 79.5 -20t51.5 -49q24 -40 24 -79q0 -30 -13 -65.5t-46.5 -61
t-93.5 -25.5q-62 0 -94 26t-45 60q-12 33 -12 66z" />
    <glyph glyph-name="uniFEBF" unicode="&#x636;" horiz-adv-x="1694" arabic-form="initial" 
d="M-152 45q0 63 45 107.5t107 44.5q72 0 128.5 22t92 85t45.5 186q3 31 18 58q36 69 113 79q17 3 35 1q25 -2 47 -13q39 -16 64.5 -51.5t27.5 -79.5q4 -92 32 -151q127 223 280 338t333 115q122 0 215 -51.5t145.5 -143.5t52.5 -213q0 -142 -86.5 -254t-234.5 -176.5
t-335 -64.5q-157 0 -291 48q-6 -15 -13 -30q-25 -59 -79 -74.5t-98 10.5q-38 23 -50.5 69t6.5 98q10 25 20 49q-20 17 -37 34q-156 -194 -431 -194q-62 0 -107 45t-45 107zM1179 481q-94 0 -182.5 -72.5t-174.5 -211.5q64 -10 151 -10q167 0 259.5 42.5t92.5 126.5
q0 62 -43 93.5t-103 31.5zM1059 1094q0 57 42 102.5t107 45.5q47 0 79.5 -20t51.5 -49q24 -40 24 -79q0 -30 -13 -65.5t-46.5 -61t-93.5 -25.5q-62 0 -94 26t-45 60q-12 33 -12 66z" />
    <glyph glyph-name="uniFEC0" unicode="&#x636;" horiz-adv-x="1791" arabic-form="medial" 
d="M-152 45q0 63 45 107.5t107 44.5q72 0 128.5 22t92 85t45.5 186q3 31 18 58q36 69 113 79q17 3 35 1q25 -2 47 -13q39 -16 64.5 -51.5t27.5 -79.5q4 -92 32 -151q127 223 280 338t333 115q122 0 215 -51.5t145.5 -143.5t52.5 -213q0 -62 -18 -120q21 -34 60.5 -47.5
t118.5 -13.5h1q63 0 107 -45t44 -107t-44 -107t-107 -45h-1q-103 0 -196 33t-163 91q-87 -63 -204.5 -98.5t-253.5 -35.5q-157 0 -291 48q-6 -15 -13 -30q-25 -59 -79 -74.5t-98 10.5q-38 23 -50.5 69t6.5 98q10 25 20 49q-20 17 -37 34q-156 -194 -431 -194q-62 0 -107 45
t-45 107zM1179 481q-94 0 -182.5 -72.5t-174.5 -211.5q64 -10 151 -10q167 0 259.5 42.5t92.5 126.5q0 62 -43 93.5t-103 31.5zM1059 1094q0 57 42 102.5t107 45.5q47 0 79.5 -20t51.5 -49q24 -40 24 -79q0 -30 -13 -65.5t-46.5 -61t-93.5 -25.5q-62 0 -94 26t-45 60
q-12 33 -12 66z" />
    <glyph glyph-name="uniFEC2" unicode="&#x637;" horiz-adv-x="1619" arabic-form="final" 
d="M35 66q8 62 59.5 100.5t112.5 29.5q61 -8 118 -14q4 17 11 33q31 66 67 126q-1 10 1 22q12 99 12 241q0 109 -5 223t-13 212t-16 158q-8 62 33 109.5t96 55.5q69 10 117 -32.5t58 -103.5q9 -60 17 -147t13 -181t5 -176v-36q73 46 152 70.5t161 24.5q119 0 210 -49.5
t142 -140t51 -213.5q0 -58 -11 -109q25 -31 73 -51.5t119 -20.5h1q63 0 107 -44.5t44 -107.5q0 -62 -44 -107t-107 -45h-1q-100 0 -195 31t-170 91q-117 -82 -290 -117t-373 -35q-198 0 -424 31q-61 9 -99.5 59.5t-31.5 112.5zM997 476q-96 0 -190 -83.5t-172 -225.5
q83 1 170 7.5t162 25t121 54.5t46 94q0 47 -36.5 87.5t-100.5 40.5z" />
    <glyph glyph-name="uniFEC3" unicode="&#x637;" horiz-adv-x="1178" arabic-form="initial" 
d="M-151 46q0 62 44.5 106.5t106.5 44.5h35q3 10 7 19q31 66 67 126q0 11 1 20q7 50 9 110t2 132q0 109 -5 223t-12.5 212t-15.5 158q-8 62 33 109.5t96 55.5q69 10 117 -32.5t58 -103.5q9 -60 17 -147t13 -181t5 -176v-36q73 46 152 70.5t161 24.5q119 0 210 -49.5
t142 -140t51 -213.5q0 -146 -66.5 -240t-183.5 -146.5t-270.5 -73.5t-326.5 -21h-296q-62 0 -106.5 44t-44.5 105zM703 476q-92 0 -181 -75t-164 -204q174 1 279.5 13t153.5 45t48 97q0 57 -35.5 90.5t-100.5 33.5z" />
    <glyph glyph-name="uniFEC4" unicode="&#x637;" horiz-adv-x="1269" arabic-form="medial" 
d="M-151 46q0 62 44.5 106.5t106.5 44.5h35q3 10 7 19q31 66 67 126q0 11 1 20q7 50 9 110t2 132q0 109 -5 223t-12.5 212t-15.5 158q-8 62 33 109.5t96 55.5q69 10 117 -32.5t58 -103.5q9 -60 17 -147t13 -181t5 -176v-36q73 46 152 70.5t161 24.5q119 0 210 -49.5
t142 -140t51 -213.5q0 -62 -13 -116q19 -28 51 -46.5t87 -18.5h1q63 0 107 -44.5t44 -107.5q0 -62 -44 -107t-107 -45h-1q-200 0 -328 123q-117 -68 -284.5 -93.5t-359.5 -25.5h-296q-62 0 -106.5 44t-44.5 105zM703 476q-92 0 -181 -75t-164 -204q215 1 326.5 19.5
t142.5 77.5q2 8 6 14q6 20 6 44q0 57 -35.5 90.5t-100.5 33.5z" />
    <glyph glyph-name="uniFEC6" unicode="&#x638;" horiz-adv-x="1619" arabic-form="final" 
d="M35 66q8 62 59.5 100.5t112.5 29.5q61 -8 118 -14q4 17 11 33q31 66 67 126q-1 10 1 22q12 99 12 241q0 109 -5 223t-13 212t-16 158q-8 62 33 109.5t96 55.5q69 10 117 -32.5t58 -103.5q9 -60 17 -147t13 -181t5 -176v-36q73 46 152 70.5t161 24.5q119 0 210 -49.5
t142 -140t51 -213.5q0 -58 -11 -109q25 -31 73 -51.5t119 -20.5h1q63 0 107 -44.5t44 -107.5q0 -62 -44 -107t-107 -45h-1q-100 0 -195 31t-170 91q-117 -82 -290 -117t-373 -35q-198 0 -424 31q-61 9 -99.5 59.5t-31.5 112.5zM997 476q-96 0 -190 -83.5t-172 -225.5
q83 1 170 7.5t162 25t121 54.5t46 94q0 47 -36.5 87.5t-100.5 40.5zM909 1090q0 57 42 102.5t107 45.5q47 0 79.5 -20t51.5 -49q24 -40 24 -79q0 -30 -13 -65.5t-46.5 -61t-93.5 -25.5q-62 0 -94 26t-45 60q-12 33 -12 66z" />
    <glyph glyph-name="uniFEC7" unicode="&#x638;" horiz-adv-x="1178" arabic-form="initial" 
d="M-151 46q0 62 44.5 106.5t106.5 44.5h35q3 10 7 19q31 66 67 126q0 11 1 20q7 50 9 110t2 132q0 109 -5 223t-12.5 212t-15.5 158q-8 62 33 109.5t96 55.5q69 10 117 -32.5t58 -103.5q9 -60 17 -147t13 -181t5 -176v-36q73 46 152 70.5t161 24.5q119 0 210 -49.5
t142 -140t51 -213.5q0 -146 -66.5 -240t-183.5 -146.5t-270.5 -73.5t-326.5 -21h-296q-62 0 -106.5 44t-44.5 105zM703 476q-92 0 -181 -75t-164 -204q174 1 279.5 13t153.5 45t48 97q0 57 -35.5 90.5t-100.5 33.5zM616 1090q0 57 42 102.5t107 45.5q47 0 79.5 -20t51.5 -49
q24 -40 24 -79q0 -30 -13 -65.5t-46.5 -61t-93.5 -25.5q-62 0 -94 26t-45 60q-12 33 -12 66z" />
    <glyph glyph-name="uniFEC8" unicode="&#x638;" horiz-adv-x="1269" arabic-form="medial" 
d="M-151 46q0 62 44.5 106.5t106.5 44.5h35q3 10 7 19q31 66 67 126q0 11 1 20q7 50 9 110t2 132q0 109 -5 223t-12.5 212t-15.5 158q-8 62 33 109.5t96 55.5q69 10 117 -32.5t58 -103.5q9 -60 17 -147t13 -181t5 -176v-36q73 46 152 70.5t161 24.5q119 0 210 -49.5
t142 -140t51 -213.5q0 -62 -13 -116q19 -28 51 -46.5t87 -18.5h1q63 0 107 -44.5t44 -107.5q0 -62 -44 -107t-107 -45h-1q-200 0 -328 123q-117 -68 -284.5 -93.5t-359.5 -25.5h-296q-62 0 -106.5 44t-44.5 105zM703 476q-92 0 -181 -75t-164 -204q215 1 326.5 19.5
t142.5 77.5q2 8 6 14q6 20 6 44q0 57 -35.5 90.5t-100.5 33.5zM616 1090q0 57 42 102.5t107 45.5q47 0 79.5 -20t51.5 -49q24 -40 24 -79q0 -30 -13 -65.5t-46.5 -61t-93.5 -25.5q-62 0 -94 26t-45 60q-12 33 -12 66z" />
    <glyph glyph-name="uniFECA" unicode="&#x639;" horiz-adv-x="1132" arabic-form="final" 
d="M34 -285q0 117 44 212.5t115 172.5t153 140q-68 66 -133 138.5t-130 147.5l-2 3q-8 8 -14 16q-20 28 -25 65q-7 33 2 67.5t39 63.5q4 4 9 8q101 87 229.5 133t264.5 46q122 0 226 -39.5t167 -119t63 -199.5q0 -108 -47 -188t-119 -143q57 -21 120.5 -32t134.5 -11h1
q61 0 106 -44t45 -107q0 -62 -45 -106.5t-106 -44.5h-1q-162 0 -294 40.5t-245 109.5q-109 -71 -182.5 -147.5t-73.5 -181.5q0 -79 56.5 -124.5t141 -65t169.5 -19.5q94 0 205 20q71 13 121 -28.5t57 -102.5q5 -54 -31 -105t-92 -62q-67 -13 -132.5 -18.5t-127.5 -5.5
q-132 0 -252 30.5t-214 93.5t-148.5 159.5t-54.5 227.5zM586 624q-86 0 -166 -29q42 -50 86 -97t91 -89q66 43 104.5 78.5t38.5 65.5q0 41 -49.5 56t-104.5 15z" />
    <glyph glyph-name="uniFECB" unicode="&#x639;" horiz-adv-x="1023" arabic-form="initial" 
d="M-152 45q0 63 45 107.5t107 44.5q68 0 125 3q-73 105 -73 245q0 135 63.5 251t172 187t242.5 71q145 0 275 -79q54 -32 70 -93t-16 -114q-31 -54 -92 -69.5t-115 15.5q-25 14 -62.5 24t-67.5 10q-50 0 -94.5 -29t-72.5 -75t-28 -98q0 -146 250 -146q58 0 130 9
q47 8 103 16q29 4 58 -3q25 -6 48 -20v0q1 0 1 -1q26 -16 44.5 -41t23.5 -58q10 -56 -20 -105.5t-83 -65.5q-2 -1 -4 -1v-1l-10 -2q-30 -6 -66 -12q-109 -21 -214 -48t-196.5 -43.5t-185.5 -23.5t-206 -7q-62 0 -107 45t-45 107z" />
    <glyph glyph-name="uniFECC" unicode="&#x639;" horiz-adv-x="1094" arabic-form="medial" 
d="M-152 45q0 63 45 107.5t107 44.5q68 0 141 11.5t145 31.5q-57 51 -112.5 108.5t-110.5 119.5q-42 47 -33 113q4 41 29 72q12 17 28 30q85 81 213.5 133.5t299.5 52.5q77 0 156 -22t145.5 -68t107 -116.5t40.5 -167.5q0 -80 -39 -150.5t-105 -131.5q82 -16 188 -16h1
q63 0 107 -44.5t44 -107.5q0 -62 -44 -107t-107 -45h-1q-141 0 -266.5 34t-239.5 95q-152 -63 -311 -96t-276 -33q-62 0 -107 45t-45 107zM588 563q-85 0 -169 -33q99 -104 179 -168q66 36 106 70.5t40 60.5q0 33 -44.5 51.5t-111.5 18.5z" />
    <glyph glyph-name="uniFECE" unicode="&#x63a;" horiz-adv-x="1132" arabic-form="final" 
d="M34 -285q0 117 44 212.5t115 172.5t153 140q-68 66 -133 138.5t-130 147.5l-2 3q-8 8 -14 16q-20 28 -25 65q-7 33 2 67.5t39 63.5q4 4 9 8q101 87 229.5 133t264.5 46q122 0 226 -39.5t167 -119t63 -199.5q0 -108 -47 -188t-119 -143q57 -21 120.5 -32t134.5 -11h1
q61 0 106 -44t45 -107q0 -62 -45 -106.5t-106 -44.5h-1q-162 0 -294 40.5t-245 109.5q-109 -71 -182.5 -147.5t-73.5 -181.5q0 -79 56.5 -124.5t141 -65t169.5 -19.5q94 0 205 20q71 13 121 -28.5t57 -102.5q5 -54 -31 -105t-92 -62q-67 -13 -132.5 -18.5t-127.5 -5.5
q-132 0 -252 30.5t-214 93.5t-148.5 159.5t-54.5 227.5zM586 624q-86 0 -166 -29q42 -50 86 -97t91 -89q66 43 104.5 78.5t38.5 65.5q0 41 -49.5 56t-104.5 15zM361 1257q0 57 42 102.5t107 45.5q47 0 79.5 -20t51.5 -49q24 -40 24 -79q0 -30 -13 -65.5t-46.5 -61
t-93.5 -25.5q-62 0 -94 26t-45 60q-12 33 -12 66z" />
    <glyph glyph-name="uniFECF" unicode="&#x63a;" horiz-adv-x="1023" arabic-form="initial" 
d="M-152 45q0 63 45 107.5t107 44.5q68 0 125 3q-73 105 -73 245q0 135 63.5 251t172 187t242.5 71q145 0 275 -79q54 -32 70 -93t-16 -114q-31 -54 -92 -69.5t-115 15.5q-25 14 -62.5 24t-67.5 10q-50 0 -94.5 -29t-72.5 -75t-28 -98q0 -146 250 -146q58 0 130 9
q47 8 103 16q29 4 58 -3q25 -6 48 -20v0q1 0 1 -1q26 -16 44.5 -41t23.5 -58q10 -56 -20 -105.5t-83 -65.5q-2 -1 -4 -1v-1l-10 -2q-30 -6 -66 -12q-109 -21 -214 -48t-196.5 -43.5t-185.5 -23.5t-206 -7q-62 0 -107 45t-45 107zM374 1303q0 57 42 102.5t107 45.5
q47 0 79.5 -20t51.5 -49q24 -40 24 -79q0 -30 -13 -65.5t-46.5 -61t-93.5 -25.5q-62 0 -94 26t-45 60q-12 33 -12 66z" />
    <glyph glyph-name="uniFED0" unicode="&#x63a;" horiz-adv-x="1094" arabic-form="medial" 
d="M-152 45q0 63 45 107.5t107 44.5q68 0 141 11.5t145 31.5q-57 51 -112.5 108.5t-110.5 119.5q-42 47 -33 113q4 41 29 72q12 17 28 30q85 81 213.5 133.5t299.5 52.5q77 0 156 -22t145.5 -68t107 -116.5t40.5 -167.5q0 -80 -39 -150.5t-105 -131.5q82 -16 188 -16h1
q63 0 107 -44.5t44 -107.5q0 -62 -44 -107t-107 -45h-1q-141 0 -266.5 34t-239.5 95q-152 -63 -311 -96t-276 -33q-62 0 -107 45t-45 107zM588 563q-85 0 -169 -33q99 -104 179 -168q66 36 106 70.5t40 60.5q0 33 -44.5 51.5t-111.5 18.5zM435 1225q0 57 42 102.5t107 45.5
q47 0 79.5 -20t51.5 -49q24 -40 24 -79q0 -30 -13 -65.5t-46.5 -61t-93.5 -25.5q-62 0 -94 26t-45 60q-12 33 -12 66z" />
    <glyph glyph-name="uniFED2" unicode="&#x641;" horiz-adv-x="1857" arabic-form="final" 
d="M34 372q0 70 12 143.5t45 138.5q28 56 88.5 76.5t116.5 -8.5q113 -57 68 -205q-2 -6 -8 -32t-11 -58t-5 -55q0 -69 36 -114.5t130 -68t268 -22.5q181 0 317 18q-62 66 -96.5 141t-34.5 156q0 128 56.5 232t153.5 165.5t220 61.5t220 -61.5t153 -165.5t56 -232
q0 -76 -29 -146.5t-83 -133.5q69 -5 149 -5h1q63 0 107 -44.5t44 -107.5q0 -62 -44 -107t-107 -45h-1q-123 0 -240.5 23.5t-220.5 66.5q-130 -57 -288 -88.5t-333 -31.5q-83 0 -182.5 7t-197.5 33t-179.5 81t-131 149t-49.5 239zM1263 482q0 -136 130 -206q122 75 122 206
q0 68 -32.5 110.5t-92.5 42.5t-93.5 -43t-33.5 -110zM1237 1302q0 57 42 102.5t107 45.5q47 0 79.5 -20t51.5 -49q24 -40 24 -79q0 -30 -13 -65.5t-46.5 -61t-93.5 -25.5q-62 0 -94 26t-45 60q-12 33 -12 66z" />
    <glyph glyph-name="uniFED3" unicode="&#x641;" horiz-adv-x="924" arabic-form="initial" 
d="M-152 45q0 63 45 107.5t107 44.5q209 0 329.5 10.5t178.5 45.5q47 25 68 64q-66 -10 -130 -10q-203 0 -307 85.5t-104 272.5q0 152 52 269t141.5 183.5t200.5 66.5q140 0 243.5 -90t160 -254t56.5 -387q0 -139 -39.5 -239.5t-129.5 -166.5q-104 -84 -284.5 -119
t-435.5 -35q-62 0 -107 45t-45 107zM308 703q0 -63 35 -90.5t104 -27.5q36 0 71.5 6.5t65.5 14.5l8 2q-15 143 -56.5 206.5t-99.5 63.5q-52 0 -90 -49t-38 -126zM278 1564q0 57 42 102.5t107 45.5q47 0 79.5 -20t51.5 -49q24 -40 24 -79q0 -30 -13 -65.5t-46.5 -61
t-93.5 -25.5q-62 0 -94 26t-45 60q-12 33 -12 66z" />
    <glyph glyph-name="uniFED4" unicode="&#x641;" horiz-adv-x="944" arabic-form="medial" 
d="M-152 45q0 63 45 107.5t107 44.5q86 0 159 6q-55 63 -86 134t-31 146q0 128 56.5 232t154 165.5t220.5 61.5t220 -62t153 -166t56 -232q0 -75 -30.5 -146t-85.5 -133q72 -6 157 -6h1q63 0 107 -44.5t44 -107.5q0 -62 -44 -107t-107 -45h-1q-126 0 -246 25t-225 69
q-106 -44 -226 -69t-246 -25q-62 0 -107 45t-45 107zM346 483q0 -133 126 -203q126 70 126 202q0 67 -33 110.5t-92 43.5q-60 0 -93.5 -43t-33.5 -110zM340 1302q0 57 42 102.5t107 45.5q47 0 79.5 -20t51.5 -49q24 -40 24 -79q0 -30 -13 -65.5t-46.5 -61t-93.5 -25.5
q-62 0 -94 26t-45 60q-12 33 -12 66z" />
    <glyph glyph-name="uniFED6" unicode="&#x642;" horiz-adv-x="1521" arabic-form="final" 
d="M684 1040q-13 47 10.5 90.5t72.5 59.5q56 17 130 26t147 9q76 0 136.5 -10.5t102.5 -27.5q49 -28 62 -81.5t-17 -97.5q-25 -35 -60.5 -46.5t-73.5 -3.5q-29 7 -70.5 11.5t-79.5 4.5q-67 0 -121.5 -4t-88.5 -14q-47 -13 -91.5 12t-58.5 72zM1027 769q137 0 227.5 -76.5
t140 -206t63.5 -289.5h63q63 0 107 -44.5t44 -107.5q0 -62 -44 -107t-107 -45h-70q-31 -156 -122.5 -272.5t-239.5 -181t-347 -64.5q-212 0 -370 73t-245.5 207t-87.5 315q0 125 27 246.5t71 233.5q23 58 82.5 83.5t116.5 2.5q58 -23 83.5 -81t2.5 -116q-31 -80 -54 -173
t-23 -185q0 -157 104 -230t290 -73q182 0 282 53t134 162h-116q-203 0 -311.5 98t-108.5 288q0 138 55 249t148 176t205 65zM1036 197h132q-6 71 -22.5 134t-46.5 103t-79 40t-83.5 -45t-34.5 -122q0 -62 33.5 -86t100.5 -24z" />
    <glyph glyph-name="uniFED7" unicode="&#x642;" horiz-adv-x="924" arabic-form="initial" 
d="M-152 45q0 63 45 107.5t107 44.5q209 0 329.5 10.5t178.5 45.5q47 25 68 64q-66 -10 -130 -10q-203 0 -307 85.5t-104 272.5q0 152 52 269t141.5 183.5t200.5 66.5q140 0 243.5 -90t160 -254t56.5 -387q0 -139 -39.5 -239.5t-129.5 -166.5q-104 -84 -284.5 -119
t-435.5 -35q-62 0 -107 45t-45 107zM308 703q0 -63 35 -90.5t104 -27.5q36 0 71.5 6.5t65.5 14.5l8 2q-15 143 -56.5 206.5t-99.5 63.5q-52 0 -90 -49t-38 -126zM104 1455q-13 47 10.5 90.5t72.5 59.5q56 17 130 26t147 9q76 0 136.5 -10.5t102.5 -27.5q49 -28 62 -81.5
t-17 -97.5q-25 -35 -60.5 -46.5t-73.5 -3.5q-29 7 -70.5 11.5t-79.5 4.5q-67 0 -121.5 -4t-88.5 -14q-47 -13 -91.5 12t-58.5 72z" />
    <glyph glyph-name="uniFED8" unicode="&#x642;" horiz-adv-x="944" arabic-form="medial" 
d="M-152 45q0 63 45 107.5t107 44.5q86 0 159 6q-55 63 -86 134t-31 146q0 128 56.5 232t154 165.5t220.5 61.5t220 -62t153 -166t56 -232q0 -75 -30.5 -146t-85.5 -133q72 -6 157 -6h1q63 0 107 -44.5t44 -107.5q0 -62 -44 -107t-107 -45h-1q-126 0 -246 25t-225 69
q-106 -44 -226 -69t-246 -25q-62 0 -107 45t-45 107zM346 483q0 -133 126 -203q126 70 126 202q0 67 -33 110.5t-92 43.5q-60 0 -93.5 -43t-33.5 -110zM164 1224q-13 47 10.5 90.5t72.5 59.5q56 17 130 26t147 9q76 0 136.5 -10.5t102.5 -27.5q49 -28 62 -81.5t-17 -97.5
q-25 -35 -60.5 -46.5t-73.5 -3.5q-29 7 -70.5 11.5t-79.5 4.5q-67 0 -121.5 -4t-88.5 -14q-47 -13 -91.5 12t-58.5 72z" />
    <glyph glyph-name="uniFEDA" unicode="&#x643;" horiz-adv-x="1800" arabic-form="final" 
d="M34 379q0 164 57 276q27 56 88 75.5t117 -8.5q56 -27 73 -80.5t-5 -124.5q-10 -30 -17 -73t-7 -77q0 -76 42.5 -119.5t139.5 -62t261 -18.5q263 0 372 61.5t109 202.5q0 115 -5 253t-14 272t-23 236q-7 62 31.5 112t100.5 58t112 -30.5t58 -100.5q15 -113 25 -253
t15.5 -282.5t5.5 -264.5q0 -136 59 -185t170 -49h1q63 0 107 -44.5t44 -107.5q0 -62 -44 -107t-107 -45h-1q-109 0 -208.5 37t-174.5 110q-95 -87 -252 -132t-379 -45q-389 0 -570 122t-181 394zM993 1084q-3 -31 -26.5 -51.5t-55.5 -16.5q-10 2 -20.5 2h-20.5
q-71 0 -119 -27t-48 -70q0 -25 28.5 -37.5t70.5 -23.5q45 -11 93 -29.5t81.5 -58t33.5 -112.5q0 -99 -90.5 -159.5t-230.5 -60.5q-31 0 -57.5 1.5t-48.5 3.5q-31 3 -51.5 28t-16.5 57q5 33 29.5 53t57.5 16q20 -2 43.5 -4t48.5 -2q60 0 110 14t50 48q0 20 -25.5 31.5
t-63.5 21.5q-44 13 -94.5 33.5t-86.5 62t-36 116.5q0 70 43 126.5t116.5 90.5t162.5 34q21 0 55 -3q32 -2 51.5 -26.5t16.5 -57.5z" />
    <glyph glyph-name="uniFEDB" unicode="&#x643;" horiz-adv-x="1054" arabic-form="initial" 
d="M-153 45q0 63 45.5 107.5t107.5 44.5q217 0 318.5 33.5t101.5 97.5q0 80 -93 196.5t-233 260.5q-46 47 -69 80t-23 88q0 50 30 91t83 57l686 227q74 24 132.5 -0.5t77.5 -90.5q19 -69 -8.5 -120t-87.5 -68l-509 -155q113 -130 183 -223.5t103 -171t33 -163.5
q0 -443 -725 -443q-62 0 -107.5 45t-45.5 107z" />
    <glyph glyph-name="uniFEDC" unicode="&#x643;" horiz-adv-x="1143" arabic-form="medial" 
d="M-153 45q0 63 45.5 107.5t107.5 44.5q217 0 318.5 33.5t101.5 97.5q0 80 -93 196.5t-233 260.5q-46 47 -69 80t-23 88q0 50 30 91t83 57l686 227q74 24 132.5 -0.5t77.5 -90.5q19 -69 -8.5 -120t-87.5 -68l-509 -155q97 -112 162.5 -195.5t102.5 -154.5
q68 -124 126 -200.5t137 -111.5t208 -35h1q63 0 107 -44.5t44 -107.5q0 -62 -44 -107t-107 -45h-1q-163 0 -282 49.5t-218 144.5q-162 -194 -642 -194q-62 0 -107.5 45t-45.5 107z" />
    <glyph glyph-name="uniFEDE" unicode="&#x644;" horiz-adv-x="1448" arabic-form="final" 
d="M34 -34q0 122 33.5 223t77.5 189q28 56 89 75.5t117 -7.5q56 -28 75 -88t-8 -116q-30 -61 -54 -133t-24 -143q0 -115 73 -181t204 -66q187 0 256 107t69 322q0 254 -13.5 507t-34.5 545q-4 63 37 111t104 52q62 4 110 -37.5t52 -103.5q16 -218 28 -416t18 -392
q5 -77 18.5 -125t55 -70t130.5 -22h1q63 0 107 -44.5t44 -107.5q0 -62 -44 -107t-107 -45h-1q-117 0 -220 51q-28 -140 -100 -260.5t-197.5 -195t-312.5 -74.5q-116 0 -221 39.5t-186.5 112.5t-128.5 174.5t-47 225.5z" />
    <glyph glyph-name="uniFEDF" unicode="&#x644;" horiz-adv-x="494" arabic-form="initial" 
d="M-152 45q0 63 45 107.5t107 44.5q78 0 113.5 82.5t35.5 257.5q0 68 -5 152t-17 204.5t-33 297.5q-7 62 31 112.5t100 58.5t112.5 -30.5t58.5 -100.5q27 -210 39 -357.5t12 -281.5q0 -250 -44.5 -404t-143 -224.5t-259.5 -70.5q-62 0 -107 45t-45 107z" />
    <glyph glyph-name="uniFEE0" unicode="&#x644;" horiz-adv-x="674" arabic-form="medial" 
d="M-152 45q0 63 45 107.5t107 44.5q79 0 118.5 12.5t53 49.5t13.5 110q0 153 -5.5 287.5t-15 266t-23.5 274.5q-6 62 35 111t103 55t111 -34.5t55 -103.5q20 -213 32 -410.5t12 -427.5q1 -9 1 -18q0 -103 40 -137.5t143 -34.5h1q63 0 107 -44.5t44 -107.5q0 -62 -44 -107
t-107 -45h-1q-94 0 -180 28.5t-153 85.5q-132 -114 -340 -114q-62 0 -107 45t-45 107z" />
    <glyph glyph-name="uniFEE2" unicode="&#x645;" horiz-adv-x="1352" arabic-form="final" 
d="M751 717q134 0 226 -63.5t140.5 -168.5t52.5 -231q28 -34 62 -45.5t119 -11.5h1q65 0 108 -45t43 -107q0 -61 -43 -106.5t-108 -45.5h-1q-90 0 -160.5 17t-126.5 48q-60 -52 -146 -75t-190 -23q-87 0 -171 11.5t-156 24.5q-32 6 -44.5 -1.5t-11.5 -33.5l34 -606
q4 -67 -41 -116t-110 -49q-60 0 -103.5 41t-46.5 101l-38 677q-7 138 63.5 215t185.5 90q1 5 2 11q17 87 52.5 174t91 159t134 115.5t182.5 43.5zM751 416q-77 0 -115.5 -68t-61.5 -170q43 -8 86 -12.5t84 -4.5q53 0 89 16.5t36 73.5q0 60 -26 112.5t-92 52.5z" />
    <glyph glyph-name="uniFEE3" unicode="&#x645;" horiz-adv-x="1114" arabic-form="initial" 
d="M-152 45q0 63 45 107.5t107 44.5q79 0 129 69.5t112 194.5q34 68 69 129t72 107l3 4q30 37 76.5 47t89.5 -6q25 -9 45 -26q5 -4 9 -9q44 42 105 42.5t106 -41.5q233 -224 233 -486q0 -165 -114.5 -262t-309.5 -97q-120 0 -207 35.5t-137 100.5q-55 -47 -124.5 -76.5
t-156.5 -29.5q-62 0 -107 45t-45 107zM488 265q0 -45 33 -71.5t96 -26.5q128 0 128 97q0 92 -139 224l-1 1l-14 -18q-15 -19 -27 -37q-23 -31 -41 -62q-35 -62 -35 -107z" />
    <glyph glyph-name="uniFEE4" unicode="&#x645;" horiz-adv-x="1239" arabic-form="medial" 
d="M-152 45q0 63 45 107.5t107 44.5q79 0 129 69.5t112 194.5q34 68 69 129t72 107l3 4q30 37 76.5 47t89.5 -6q25 -9 45 -26q5 -4 9 -8q46 43 109 42t106 -45q7 -7 13 -14q40 -40 72 -81q46 -56 72.5 -105t51.5 -114q41 -107 82.5 -150.5t126.5 -43.5h1q63 0 107 -44.5
t44 -107.5q0 -62 -44 -107t-107 -45h-1q-93 0 -163.5 23t-121.5 61q-116 -114 -328 -114q-122 0 -208.5 35.5t-136.5 100.5q-54 -47 -123.5 -76.5t-156.5 -29.5q-62 0 -107 45t-45 107zM488 265q0 -45 32 -71.5t97 -26.5q128 0 128 97q0 92 -139 224l-1 1l-14 -18
q-15 -19 -27 -37q-23 -31 -41 -62q-35 -62 -35 -107z" />
    <glyph glyph-name="uniFEE6" unicode="&#x646;" horiz-adv-x="1526" arabic-form="final" 
d="M715 -577q-202 0 -354 76.5t-237 209.5t-85 303q0 105 23 219t60 216q23 59 80.5 85t115.5 3q58 -22 84.5 -79.5t3.5 -116.5q-26 -71 -43.5 -151.5t-17.5 -147.5q0 -148 94 -230.5t277 -82.5t283.5 82.5t100.5 233.5q0 51 -10.5 106t-28.5 113q-8 21 -15 43l-1 4
q-12 33 -27 69q-25 58 -1 116.5t81 83.5q57 24 116 0t84 -81q21 -49 38 -98v-3l1 -1q7 -20 13 -40q27 -76 66.5 -117t108.5 -41h1q63 0 107 -44.5t44 -107.5q0 -62 -44 -107t-107 -45h-1q-63 0 -127 23q-25 -145 -117.5 -256.5t-238 -174t-327.5 -62.5zM560 357
q0 57 42 102.5t107 45.5q47 0 79.5 -20t51.5 -49q24 -40 24 -79q0 -30 -13 -65.5t-46.5 -61t-93.5 -25.5q-62 0 -94 26t-45 60q-12 33 -12 66z" />
    <glyph glyph-name="uniFEE7" unicode="&#x646;" horiz-adv-x="560" arabic-form="initial" 
d="M-152 45q0 63 45 107.5t107 44.5q120 0 168 33.5t48 129.5q0 75 -17 194q-7 62 31 112.5t100 58.5t111.5 -30t59.5 -100q23 -139 23 -237q0 -219 -134.5 -342t-389.5 -123q-62 0 -107 45t-45 107zM51 1019q0 57 42 102.5t107 45.5q47 0 79.5 -20t51.5 -49q24 -40 24 -79
q0 -30 -13 -65.5t-46.5 -61t-93.5 -25.5q-62 0 -94 26t-45 60q-12 33 -12 66z" />
    <glyph glyph-name="uniFEE8" unicode="&#x646;" horiz-adv-x="811" arabic-form="medial" 
d="M-153 45q0 63 45.5 107.5t107.5 44.5q126 0 184 28t76.5 93t23.5 176q4 71 51.5 110t111.5 34q63 -4 104.5 -51.5t36.5 -109.5q-11 -152 37 -216t185 -64h1q63 0 107 -44.5t44 -107.5q0 -62 -44 -107t-107 -45h-1q-127 0 -222.5 43.5t-155.5 146.5q-79 -110 -184 -150
t-248 -40q-62 0 -107.5 45t-45.5 107zM87 929q0 57 42 102.5t107 45.5q47 0 79.5 -20t51.5 -49q24 -40 24 -79q0 -30 -13 -65.5t-46.5 -61t-93.5 -25.5q-62 0 -94 26t-45 60q-12 33 -12 66z" />
    <glyph glyph-name="uniFEEA" unicode="&#x647;" horiz-adv-x="1100" arabic-form="final" 
d="M74 373q0 142 89.5 257.5t254.5 192.5q53 24 102.5 54t67.5 56q-1 57 39.5 101t99.5 50q62 6 110.5 -35t54.5 -103l50 -557q8 -83 24.5 -124t48.5 -54.5t84 -13.5h1q63 0 107 -44.5t44 -107.5q0 -62 -44 -107t-107 -45h-1q-131 0 -217.5 39t-139.5 108q-24 -13 -51 -17
q-31 -4 -67 -6t-59 -2q-254 0 -372.5 101t-118.5 257zM380 392q0 -34 42 -53.5t143 -19.5q13 0 34.5 1.5t43.5 3.5q-2 19 -4 39l-20 220q-33 -19 -71 -37q-77 -37 -122.5 -76.5t-45.5 -77.5z" />
    <glyph glyph-name="uniFEEB" unicode="&#x647;" horiz-adv-x="1359" arabic-form="initial" 
d="M-152 45q0 63 45 107.5t107 44.5q67 0 128 4q-38 50 -59 105.5t-21 116.5q0 130 59 240.5t156.5 178t212.5 67.5q62 0 118.5 -24.5t102.5 -68.5q14 1 28 -1q290 -38 434.5 -158.5t144.5 -369.5q0 -118 -54 -206.5t-150.5 -138t-225.5 -49.5q-106 0 -211 20t-200 56
q-197 -76 -463 -76q-62 0 -107 45t-45 107zM345 451q0 -55 34.5 -99t94.5 -76q128 65 128 179q0 61 -37 106t-90 45q-56 0 -93 -46.5t-37 -108.5zM839 462q0 -146 -73 -261q50 -4 103 -4q160 0 160 107q0 64 -51.5 106.5t-138.5 69.5v-18z" />
    <glyph glyph-name="uniFEEC" unicode="&#x647;" horiz-adv-x="990" arabic-form="medial" 
d="M-152 45q0 63 45 107.5t107 44.5q30 0 59 1q5 113 33 236.5t85.5 231t152 175t233.5 67.5q102 0 174.5 -55.5t110.5 -139t38 -167.5q0 -92 -36 -181.5t-103 -167.5h243q63 0 107 -44.5t44 -107.5q0 -62 -44 -107t-107 -45h-97q11 -64 11 -125t-17.5 -129.5t-55 -128.5
t-99 -97.5t-149.5 -37.5q-102 0 -183.5 44.5t-143 119.5t-103.5 168t-66 189q-43 -3 -87 -3q-62 0 -107 45t-45 107zM532 591q-64 0 -108.5 -83.5t-57.5 -248.5q120 47 178 117t58 134q0 37 -14.5 59t-55.5 22zM580 -96q-13 34 -24 67t-15 58q-76 -45 -164 -75
q25 -138 80.5 -205.5t110.5 -67.5q56 0 56 60q0 32 -13.5 76t-30.5 87z" />
    <glyph glyph-name="uniFEEE" unicode="&#x648;" horiz-adv-x="951" arabic-form="final" 
d="M476 -107q-203 0 -313.5 98t-110.5 288q0 136 55.5 247t148.5 176.5t205 65.5q127 0 224.5 -76.5t154.5 -206t61 -288.5h50q63 0 107 -44.5t44 -107.5q0 -62 -44 -107t-107 -45h-103q-53 -137 -151 -246t-225 -181.5t-267 -99.5q-61 -12 -113.5 24.5t-63.5 97.5
q-12 62 25 111.5t96 66.5q126 35 218 93.5t149 133.5h-40zM474 197h133q-4 66 -23.5 129.5t-52 105t-77.5 41.5q-49 0 -83.5 -46t-34.5 -120q0 -62 35.5 -86t102.5 -24z" />
    <glyph glyph-name="uniFEF0" unicode="&#x649;" horiz-adv-x="1390" arabic-form="final" 
d="M35 -81q0 145 28.5 271.5t84.5 280.5q21 59 79 85.5t116 5.5q59 -21 85.5 -78.5t5.5 -116.5q-93 -258 -93 -440q0 -154 91 -219t282 -65q159 0 251 36t92 89q0 91 -293 126q-53 7 -90.5 46.5t-42.5 93.5q-5 65 40.5 114t111.5 49h607q63 0 107 -44.5t44 -107.5
q0 -62 -44 -107t-107 -45h-109q64 -88 64 -174q0 -106 -82 -192.5t-227 -138t-334 -51.5q-205 0 -354.5 72.5t-231 203.5t-81.5 306z" />
    <glyph glyph-name="uniFEF2" unicode="&#x64a;" horiz-adv-x="1390" arabic-form="final" 
d="M35 -81q0 145 28.5 271.5t84.5 280.5q21 59 79 85.5t116 5.5q59 -21 85.5 -78.5t5.5 -116.5q-93 -258 -93 -440q0 -154 91 -219t282 -65q159 0 251 36t92 89q0 91 -293 126q-53 7 -90.5 46.5t-42.5 93.5q-5 65 40.5 114t111.5 49h607q63 0 107 -44.5t44 -107.5
q0 -62 -44 -107t-107 -45h-109q64 -88 64 -174q0 -106 -82 -192.5t-227 -138t-334 -51.5q-205 0 -354.5 72.5t-231 203.5t-81.5 306zM371 -1014q-13 47 10.5 90.5t72.5 59.5q56 17 130 26t147 9q76 0 136.5 -10.5t102.5 -27.5q49 -28 62 -81.5t-17 -97.5
q-25 -35 -60.5 -46.5t-73.5 -3.5q-29 7 -70.5 11.5t-79.5 4.5q-67 0 -121.5 -4t-88.5 -14q-47 -13 -91.5 12t-58.5 72z" />
    <glyph glyph-name="uniFEF3" unicode="&#x64a;" horiz-adv-x="560" arabic-form="initial" 
d="M-152 45q0 63 45 107.5t107 44.5q120 0 168 33.5t48 129.5q0 75 -17 194q-7 62 31 112.5t100 58.5t111.5 -30t59.5 -100q23 -139 23 -237q0 -219 -134.5 -342t-389.5 -123q-62 0 -107 45t-45 107zM-228 -491q-13 47 10.5 90.5t72.5 59.5q56 17 130 26t147 9
q76 0 136.5 -10.5t102.5 -27.5q49 -28 62 -81.5t-17 -97.5q-25 -35 -60.5 -46.5t-73.5 -3.5q-29 7 -70.5 11.5t-79.5 4.5q-67 0 -121.5 -4t-88.5 -14q-47 -13 -91.5 12t-58.5 72z" />
    <glyph glyph-name="uniFEF4" unicode="&#x64a;" horiz-adv-x="811" arabic-form="medial" 
d="M-153 45q0 63 45.5 107.5t107.5 44.5q126 0 184 28t76.5 93t23.5 176q4 71 51.5 110t111.5 34q63 -4 104.5 -51.5t36.5 -109.5q-11 -152 37 -216t185 -64h1q63 0 107 -44.5t44 -107.5q0 -62 -44 -107t-107 -45h-1q-127 0 -222.5 43.5t-155.5 146.5q-79 -110 -184 -150
t-248 -40q-62 0 -107.5 45t-45.5 107zM-228 -491q-13 47 10.5 90.5t72.5 59.5q56 17 130 26t147 9q76 0 136.5 -10.5t102.5 -27.5q49 -28 62 -81.5t-17 -97.5q-25 -35 -60.5 -46.5t-73.5 -3.5q-29 7 -70.5 11.5t-79.5 4.5q-67 0 -121.5 -4t-88.5 -14q-47 -13 -91.5 12
t-58.5 72z" />
    <glyph glyph-name=".notdef" horiz-adv-x="1024" 
d="M102 -410v2048h820v-2048h-820zM204 -308h616v1844h-616v-1844z" />
    <glyph glyph-name=".null" 
 />
    <glyph glyph-name="nonmarkingreturn" horiz-adv-x="682" 
 />
    <glyph glyph-name="space" unicode=" " horiz-adv-x="300" 
 />
    <glyph glyph-name="exclam" unicode="!" horiz-adv-x="593" 
d="M240 1512q62 8 112 -30.5t59 -100.5q19 -136 29 -248.5t14 -228t4 -261.5v-61t-1 -64q-1 -63 -46 -105t-107 -42q-63 0 -108 44.5t-44 107.5q1 30 1 60.5v59.5q0 144 -3.5 253t-13 213.5t-27.5 231.5q-8 62 30.5 112t100.5 59zM495 85q0 -36 -21 -81t-62.5 -78
t-103.5 -33q-34 0 -81.5 18t-83.5 59.5t-36 113.5q0 81 58 139t139 58q60 0 102.5 -31t65.5 -76.5t23 -88.5z" />
    <glyph glyph-name="quotedbl" unicode="&#x22;" horiz-adv-x="568" 
d="M400 838q-30 3 -49 26.5t-16 52.5q11 97 11 209q0 116 -11 229q-3 29 17 52.5t50 25.5q29 3 52 -16.5t25 -49.5q11 -118 11 -241q0 -119 -11 -223q-2 -30 -26 -49t-53 -16zM163 838q-30 3 -49 26.5t-16 52.5q11 97 11 209q0 116 -11 229q-3 29 17 52.5t50 25.5
q29 3 52 -16.5t25 -49.5q11 -118 11 -241q0 -119 -11 -223q-2 -30 -26 -49t-53 -16z" />
    <glyph glyph-name="numbersign" unicode="#" horiz-adv-x="1744" 
d="M387 -155q-60 17 -92.5 71.5t-16.5 114.5l61 237h-170q-62 0 -107 45t-45 108q0 62 45.5 106t107.5 44h246l70 272l-225 1q-62 0 -106.5 45t-44.5 107q0 63 44.5 107t107.5 44l301 -2l67 262q17 60 71.5 92.5t114.5 16.5t93 -71t16 -115l-48 -187l249 -1l47 248
q11 62 64.5 97t114.5 24q62 -11 97 -64.5t24 -114.5l-37 -192l149 -1q62 0 106.5 -45t44.5 -107q0 -63 -44.5 -107t-107.5 -44l-206 1l-50 -264h193q63 0 107.5 -45t44.5 -107q0 -63 -45 -107t-108 -44h-250l-57 -299q-11 -61 -64.5 -96.5t-114.5 -24.5t-96.5 64.5
t-24.5 114.5l46 240h-305l-81 -315q-16 -60 -71 -92.5t-115 -16.5zM800 841l-69 -269h286l51 267z" />
    <glyph glyph-name="dollar" unicode="$" horiz-adv-x="1122" 
d="M1021 1185q-31 -54 -91.5 -71t-115.5 14q-59 33 -98.5 47t-85.5 17v-391q227 -79 348.5 -198.5t121.5 -262.5q0 -131 -58.5 -232.5t-164 -164t-247.5 -76.5v-134q0 -32 -24 -56t-56 -24q-31 0 -55.5 24t-24.5 56v133q-104 7 -199 33.5t-182 75.5q-55 31 -72.5 91.5
t12.5 115.5q31 55 92.5 72.5t115.5 -13.5q50 -27 110.5 -44.5t122.5 -24.5v362q-432 145 -432 464q0 127 54 229.5t151 170t227 90.5v131q0 32 24.5 56t55.5 24q32 0 56 -24t24 -56v-121q85 -3 160.5 -27.5t172.5 -78.5q55 -31 72 -91.5t-14 -115.5zM342 998q0 -40 29 -72
t99 -64v312q-128 -45 -128 -176zM794 312q0 96 -164 167v-306q76 13 120 49.5t44 89.5z" />
    <glyph glyph-name="percent" unicode="%" horiz-adv-x="1480" 
d="M54 1192q0 88 46.5 151.5t119 97.5t149.5 34q86 0 151.5 -40t102 -107t36.5 -149q0 -80 -37 -152t-104.5 -117.5t-158.5 -45.5q-94 0 -162.5 49t-105.5 124.5t-37 154.5zM1236 1421q47 -40 49 -100.5t-32 -113.5l-779 -1218q-34 -53 -87 -80.5t-111 -3.5
q-38 16 -65.5 49.5t-34 73.5t15.5 75l830 1302q34 53 101 55t113 -39zM270 1192q0 -47 31 -79.5t58 -32.5q32 0 56.5 25.5t24.5 73.5q0 45 -16 60.5t-55 15.5q-52 0 -75.5 -24.5t-23.5 -38.5zM1097 -135q-88 0 -151.5 46.5t-98 119.5t-34.5 150q0 85 39.5 150t107 102
t149.5 37q80 0 152.5 -37t118.5 -104t46 -158q0 -94 -50 -163t-125.5 -106t-153.5 -37zM1097 82q47 0 80 31t33 58q0 31 -26.5 56.5t-74.5 25.5q-45 0 -60.5 -16t-15.5 -56q0 -52 24 -75.5t40 -23.5z" />
    <glyph glyph-name="ampersand" unicode="&#x26;" horiz-adv-x="1384" 
d="M115 271q0 106 55 201.5t179 198.5q-76 102 -105 187.5t-29 177.5q0 142 53.5 247.5t150.5 164.5t229 59q128 0 228.5 -54t158.5 -147t58 -211q0 -114 -67.5 -213.5t-229.5 -223.5q108 -113 250 -241q28 44 57 96q30 55 87 78.5t113 -1.5q57 -25 81 -86t-4 -116
q-49 -96 -100 -172l52 -42q49 -40 55 -103t-34 -111q-39 -48 -102.5 -53.5t-111.5 33.5q-32 27 -63 52q-174 -132 -419 -132q-163 0 -285 51t-189.5 143.5t-67.5 216.5zM515 1086q0 -79 104 -221q94 67 132.5 115t38.5 100q0 57 -34.5 91t-98.5 34t-103 -33.5t-39 -85.5z
M422 280q0 -120 197 -120q114 0 204 44q-86 74 -157 138.5t-129 120.5q-61 -54 -88 -97t-27 -86z" />
    <glyph glyph-name="quotesingle" unicode="'" horiz-adv-x="341" 
d="M163 838q-30 3 -49 26.5t-16 52.5q11 97 11 209q0 116 -11 229q-3 29 17 52.5t50 25.5q29 3 52 -16.5t25 -49.5q11 -118 11 -241q0 -119 -11 -223q-2 -30 -26 -49t-53 -16z" />
    <glyph glyph-name="parenleft" unicode="(" horiz-adv-x="616" 
d="M437 1550q56 -28 77 -88.5t-6 -116.5q-59 -122 -90.5 -220.5t-43 -202t-11.5 -240.5q0 -127 21 -227t63.5 -201t106.5 -233q27 -56 6 -116.5t-77 -88.5q-56 -27 -116 -5.5t-88 76.5q-64 132 -114 253.5t-79 252.5t-29 289q0 149 15.5 277t53.5 254t106 266q28 56 88.5 77
t116.5 -6z" />
    <glyph glyph-name="parenright" unicode=")" horiz-adv-x="616" 
d="M189 -184q-55 28 -76.5 88.5t5.5 116.5q60 123 91 221.5t42.5 202t11.5 239.5q0 127 -21 227t-63.5 201.5t-106.5 232.5q-27 56 -5.5 116.5t76.5 88.5q56 27 116.5 6t88.5 -77q64 -131 114 -253t78.5 -253t28.5 -289q0 -148 -15 -276.5t-53 -254t-107 -266.5
q-28 -55 -88.5 -76.5t-116.5 5.5z" />
    <glyph glyph-name="asterisk" unicode="*" horiz-adv-x="1118" 
d="M116 589q-34 40 -29.5 93t44.5 87q43 37 86.5 70.5t88.5 64.5q-88 41 -186 78q-49 18 -70.5 66.5t-3.5 97.5t66 71.5t97 4.5q56 -21 111.5 -44t110.5 -49q-4 104 -13 205q-5 52 29 93t86 45q52 5 93 -29t45 -87q11 -118 16 -231q110 52 229 97q49 18 97.5 -4.5
t66.5 -71.5t-4 -97.5t-71 -66.5q-97 -37 -185 -78q44 -31 88 -64.5t87 -70.5q41 -34 45 -87t-29 -93q-34 -40 -87 -45.5t-93 28.5q-71 58 -145 111q-3 -52 -7 -104.5t-8 -107.5q-4 -52 -44.5 -86t-92.5 -30q-52 5 -86 45t-30 92q7 93 12 184q-70 -50 -135 -104
q-40 -34 -92.5 -28.5t-86.5 45.5z" />
    <glyph glyph-name="plus" unicode="+" horiz-adv-x="1094" 
d="M39 422q-7 62 32 112.5t100 57.5q58 7 115 12t113 8q-5 92 -16 180q-7 62 31.5 113t100.5 58q62 8 112.5 -31.5t57.5 -101.5q7 -54 11.5 -106.5t7.5 -104.5q102 -1 206 -6q63 -3 105 -50t40 -109q-3 -63 -50 -105t-109 -40q-94 4 -185 6q-1 -112 -6 -224
q-3 -63 -49.5 -104.5t-108.5 -39.5q-63 3 -105.5 49.5t-40.5 108.5q5 102 6 203q-100 -6 -198 -18q-62 -7 -112 32t-58 100z" />
    <glyph glyph-name="comma" unicode="," horiz-adv-x="488" 
d="M46 -338q-54 31 -70 92.5t15 114.5l230 396q31 54 92.5 70.5t114.5 -15.5q54 -31 70.5 -92t-15.5 -115l-230 -396q-31 -54 -92 -70t-115 15z" />
    <glyph glyph-name="hyphen" unicode="-" horiz-adv-x="1094" 
d="M39 422q-7 62 32 112.5t100 57.5q124 15 242 21t235 6q130 0 262 -6q63 -3 105 -50t40 -109q-3 -63 -50 -105t-109 -40q-126 6 -248 6q-110 0 -218 -5.5t-221 -19.5q-62 -7 -112 32t-58 100z" />
    <glyph glyph-name="period" unicode="." horiz-adv-x="490" 
d="M62 87q0 47 26 89.5t69 69.5t94 27q65 0 103.5 -31t56 -73t17.5 -75q0 -37 -20.5 -82.5t-61 -78t-100.5 -32.5q-71 0 -111 33t-56.5 76.5t-16.5 76.5z" />
    <glyph glyph-name="slash" unicode="/" horiz-adv-x="975" 
d="M132 -130q-53 32 -64.5 91t12.5 117l546 1314q24 58 71.5 95t108.5 23q41 -9 74 -37t46.5 -66t-2.5 -77l-583 -1408q-24 -58 -90 -71t-119 19z" />
    <glyph glyph-name="zero" unicode="0" horiz-adv-x="1171" 
d="M27 586q0 197 43 363.5t122.5 290t188 191.5t238.5 68q159 0 279 -98.5t187.5 -274t67.5 -405.5q0 -250 -78 -444t-217.5 -304t-324.5 -110q-240 0 -373 191.5t-133 531.5zM333 527q0 -184 47 -272t148 -88q98 0 170 72.5t111.5 200.5t39.5 295q0 136 -27.5 239t-76 161
t-113.5 58q-85 0 -153 -90t-107 -241t-39 -335z" />
    <glyph glyph-name="one" unicode="1" horiz-adv-x="845" 
d="M605 -152q-62 1 -107 45.5t-44 107.5l7 1013q-54 -30 -108.5 -56.5t-104.5 -46.5q-58 -23 -117.5 -4.5t-87.5 74.5q-27 56 -7.5 119t77.5 85q64 24 136.5 59.5t139.5 80.5t114 94q15 16 34 28q37 22 79 21q17 0 34 -4q40 -9 69 -36q41 -38 47 -95v-2v-2q1 -7 1 -14
l-9 -1316q-1 -62 -45.5 -107t-107.5 -44z" />
    <glyph glyph-name="two" unicode="2" horiz-adv-x="1201" 
d="M228 813q-71 0 -112 48.5t-41 130.5q0 151 67.5 263.5t191 175t291.5 62.5q142 0 255 -68.5t179 -182.5t66 -250q0 -135 -64 -251t-171 -224.5t-238 -223.5l-84 -76q68 3 138 3q76 0 154.5 -3t157.5 -8q62 -4 104.5 -50.5t40.5 -108.5q-3 -62 -50 -104.5t-109 -40.5
q-115 5 -196.5 7.5t-161.5 2.5q-237 0 -451 -22q-72 -5 -120 42q-47 44 -46 110t49 112l377 357q136 129 216 216t115 150t35 119q0 83 -58 136t-150 53q-112 0 -172 -66t-60 -184q0 -125 -153 -125z" />
    <glyph glyph-name="three" unicode="3" horiz-adv-x="1123" 
d="M62 223q40 48 103 54.5t112 -33.5q44 -36 109 -56.5t157 -20.5q116 0 179 57t63 135q0 103 -70.5 143.5t-179.5 40.5q-23 0 -54 -4q-16 -3 -31.5 -5t-29.5 -4l-15 -3q-46 -8 -86.5 14t-59.5 62q-10 19 -13 40q-2 17 -1 33q5 45 36 78q24 26 55 37q11 4 23 6l39 6.5
t44 5.5q139 24 217 70.5t78 146.5q0 80 -43.5 123.5t-105.5 43.5q-75 0 -119 -28.5t-85 -96.5q-34 -52 -95.5 -66.5t-114.5 19.5t-67 96.5t20 114.5q83 132 197.5 199.5t276.5 67.5q115 0 216 -58t163.5 -167.5t62.5 -265.5q0 -101 -38 -174.5t-98 -125.5q76 -51 128 -132.5
t56 -199.5q0 -160 -82.5 -275t-216 -176.5t-288.5 -61.5q-111 0 -220.5 35t-200.5 110q-48 40 -54.5 103.5t33.5 111.5z" />
    <glyph glyph-name="four" unicode="4" horiz-adv-x="1308" 
d="M921 802q62 -6 102.5 -55t34.5 -111l-13 -120q31 6 58 13q59 15 114 -19t69 -93q15 -60 -19 -115t-93 -69q-76 -19 -162 -33l-23 -214q-7 -62 -55.5 -103t-110.5 -35t-103.5 55.5t-34.5 110.5l16 152q-138 -9 -274.5 -5.5t-257.5 20.5q-29 4 -59 21q-55 35 -68.5 101.5
t26.5 119.5q42 56 99.5 144.5t121 195t125.5 217t113.5 212.5t83.5 181q23 58 81.5 82.5t116.5 1.5t82.5 -81.5t1.5 -116.5q-46 -114 -117.5 -253t-153.5 -279.5t-159 -261.5q132 -2 271 9l20 191q6 62 56 102.5t111 34.5z" />
    <glyph glyph-name="five" unicode="5" horiz-adv-x="1163" 
d="M1112 1369q14 -61 -20.5 -114t-96.5 -67q-116 -25 -328 -25q-122 0 -256 9l-15 -267q40 21 95 34.5t115 13.5q146 0 263.5 -62t186.5 -178t69 -280q0 -170 -77 -298.5t-213 -200t-314 -71.5q-247 0 -436 150q-49 39 -56 102t32 112t101.5 54t112.5 -30q57 -40 118 -62
t140 -22q140 0 214 66.5t74 180.5q0 121 -72 187t-195 66q-78 0 -133 -23.5t-101 -53.5q-29 -17 -57 -30.5t-63 -13.5q-64 0 -101.5 47t-31.5 119l56 643q6 67 64 107t127 26q28 -5 83 -9.5t123 -7t134 -2.5q89 0 164.5 5t112.5 12q62 14 115 -20.5t66 -96.5z" />
    <glyph glyph-name="six" unicode="6" horiz-adv-x="1149" 
d="M1121 420q0 -152 -70 -278.5t-192.5 -202.5t-280.5 -76q-188 0 -307.5 94t-176.5 252.5t-57 350.5q0 121 13.5 248.5t50.5 245.5t105 211.5t176.5 148.5t266.5 55q125 0 269 -42q59 -18 89 -74t13 -115t-73.5 -90t-115.5 -13q-55 17 -100.5 23.5t-81.5 6.5
q-110 0 -181 -67.5t-102 -230.5q58 28 123 44.5t135 16.5q91 0 179.5 -30.5t160 -93t114.5 -158.5t43 -226zM578 167q106 0 173 72t66 175q0 96 -35.5 145t-89 66t-108.5 17q-74 0 -134 -33.5t-107 -80.5q5 -205 62 -283t173 -78z" />
    <glyph glyph-name="seven" unicode="7" horiz-adv-x="1110" 
d="M28 1255q-4 63 38 110.5t104 51.5l754 49q65 4 114 -42t48 -112q0 -37 -15 -65q-85 -171 -152.5 -381.5t-118 -438.5t-87.5 -451q-10 -61 -61.5 -98.5t-113.5 -27.5q-61 10 -98.5 61.5t-27.5 112.5q46 281 113.5 571.5t168.5 549.5l-504 -32q-63 -4 -110 38t-52 104z" />
    <glyph glyph-name="eight" unicode="8" horiz-adv-x="1109" 
d="M37 285q0 115 45.5 214t134.5 198q-91 87 -135.5 177t-44.5 193q0 124 61.5 221.5t167.5 154t241 56.5q169 0 297 -86.5t192 -237.5q15 -13 27 -31q36 -52 30 -110.5t-53 -92.5q-86 -59 -162.5 -112.5t-142.5 -103.5q133 -90 210 -206.5t77 -243.5q0 -120 -60 -212
t-164.5 -144t-238.5 -52q-141 0 -250 53t-170.5 147t-61.5 218zM341 1067q0 -37 27 -80t72 -86q56 46 120.5 94.5t136.5 100.5q-59 99 -190 99q-73 0 -119.5 -36t-46.5 -92zM341 285q0 -114 178 -114q70 0 114.5 28t44.5 76q0 41 -63.5 105t-163.5 135q-53 -59 -81.5 -115.5
t-28.5 -114.5z" />
    <glyph glyph-name="nine" unicode="9" horiz-adv-x="1088" 
d="M538 1464q177 0 290.5 -92.5t168.5 -244.5t55 -332q0 -208 -63.5 -394t-177.5 -327t-266 -214q-64 -32 -123.5 -5.5t-82.5 81.5q-28 63 0.5 118t73.5 77q73 35 134 102t106 153q-44 -5 -98 -5q-164 0 -281.5 65t-180 183.5t-62.5 276.5q0 157 60.5 283.5t174.5 200.5
t272 74zM332 906q0 -129 54 -176t169 -47q58 0 104 11.5t89 30.5q3 35 3 70q0 92 -19 176t-65 137.5t-129 53.5q-106 0 -156 -75.5t-50 -180.5z" />
    <glyph glyph-name="colon" unicode=":" horiz-adv-x="490" 
d="M62 916q0 47 26 89.5t69 69.5t94 27q65 0 103.5 -31t56 -73t17.5 -75q0 -37 -20.5 -82.5t-61 -78t-100.5 -32.5q-71 0 -111 33t-56.5 76.5t-16.5 76.5zM62 393q0 47 26 89.5t69 69.5t94 27q65 0 103.5 -31t56 -73t17.5 -75q0 -37 -20.5 -82.5t-61 -78t-100.5 -32.5
q-71 0 -111 33t-56.5 76.5t-16.5 76.5z" />
    <glyph glyph-name="semicolon" unicode=";" horiz-adv-x="600" 
d="M155 916q0 47 26 89.5t69 69.5t94 27q65 0 103.5 -31t56 -73t17.5 -75q0 -37 -20.5 -82.5t-61 -78t-100.5 -32.5q-71 0 -111 33t-56.5 76.5t-16.5 76.5zM46 -315q-54 31 -70 92.5t15 114.5l230 396q31 54 92.5 70.5t114.5 -15.5q54 -31 70.5 -92t-15.5 -115l-230 -396
q-31 -54 -92 -70t-115 15z" />
    <glyph glyph-name="less" unicode="&#x3c;" horiz-adv-x="655" 
d="M550 224q-36 -22 -79.5 -11.5t-64.5 46.5q-105 170 -245 291q-34 30 -30.5 82t32.5 77q70 58 131 129t110 158q21 36 63.5 48.5t78.5 -8.5q37 -21 49 -63.5t-9 -78.5q-44 -77 -95.5 -141t-107.5 -126q56 -60 107 -123.5t94 -135.5q22 -36 11.5 -79.5t-45.5 -64.5z" />
    <glyph glyph-name="equal" unicode="=" horiz-adv-x="1047" 
d="M66 835q4 41 37.5 69t76.5 25q54 -4 127.5 -7.5t144 -5t115.5 -1.5q80 0 162 4t149 10q42 3 75.5 -25t37.5 -70q3 -43 -25 -76t-69 -37q-72 -6 -158 -10t-172 -4q-47 0 -119.5 1.5t-149.5 4.5t-138 8q-41 4 -69 38t-25 76zM67 441q9 42 45.5 66.5t77.5 16.5
q18 -4 74.5 -7t124.5 -4.5t119 -1.5q77 0 176.5 3.5t194.5 10.5q42 3 75 -25t37 -71q3 -42 -25 -75t-71 -37q-100 -7 -202 -11.5t-185 -4.5q-56 0 -124 1t-130.5 5t-103.5 11q-41 9 -65.5 45.5t-17.5 77.5z" />
    <glyph glyph-name="greater" unicode="&#x3e;" horiz-adv-x="655" 
d="M116 1035q35 22 78.5 11.5t64.5 -45.5q104 -171 245 -292q35 -30 31 -82t-33 -77q-70 -58 -131 -128.5t-111 -158.5q-20 -37 -62 -49t-79 9t-48.5 63t9.5 79q44 77 94.5 141.5t107.5 125.5q-55 60 -106 123.5t-95 136.5q-22 35 -11.5 78.5t46.5 64.5z" />
    <glyph glyph-name="question" unicode="?" horiz-adv-x="1165" 
d="M114 1129q-32 54 -26 102.5t34.5 87.5t62.5 64q74 56 177.5 93t227.5 37q129 0 235 -52t169 -147.5t63 -226.5q0 -88 -35.5 -151.5t-89.5 -109.5t-109 -84q-59 -40 -96 -78t-37 -88q0 -19 3 -36q17 -72 -24.5 -121.5t-97.5 -58.5q-76 -12 -121.5 23t-60.5 92
q-12 44 -12 96q0 89 32.5 151t83.5 108t106 84q96 69 125 105t29 73q0 63 -49 90t-118 27q-64 0 -131 -26t-104 -59q-57 -47 -129 -51t-108 56zM737 89q0 -80 -57.5 -138t-139.5 -58q-78 0 -137.5 55.5t-59.5 140.5q0 82 57.5 140t139.5 58q84 0 140.5 -60t56.5 -138z" />
    <glyph glyph-name="at" unicode="@" horiz-adv-x="2276" 
d="M1782 -279q32 -53 17.5 -115t-67.5 -95q-124 -77 -268.5 -120t-302.5 -43q-235 0 -438 72.5t-355.5 209t-238 331.5t-85.5 439q0 178 56.5 350t160.5 322.5t247.5 265t317 179.5t368.5 65q219 0 407.5 -73.5t330 -209t221 -322t79.5 -413.5q0 -69 -14 -159t-48.5 -183
t-94.5 -172.5t-150.5 -128t-218.5 -48.5q-93 0 -162.5 40t-117.5 102q-66 -67 -158 -109.5t-215 -42.5q-147 0 -261.5 68.5t-179.5 184t-65 256.5q0 152 49.5 280.5t137.5 224t203.5 148t246.5 52.5q110 0 219 -36t207 -107q35 -25 51.5 -65.5t10.5 -79.5l-52 -357
q-1 -8 -2 -15q-4 -30 -7 -63t-3 -56q0 -68 28 -93.5t59 -25.5q59 0 112.5 51.5t87 138.5t33.5 195q0 213 -94.5 374t-260 250.5t-379.5 89.5q-174 0 -326.5 -75t-269 -202t-182.5 -283t-66 -318q0 -231 101.5 -398.5t284 -258.5t425.5 -91q113 0 217 31.5t194 87.5
q53 32 115 17.5t95 -67.5zM1356 732q-85 39 -172 39q-81 0 -157 -45.5t-125 -134t-49 -219.5q0 -96 52.5 -150.5t147.5 -54.5q78 0 132.5 42.5t87.5 112.5t45 154z" />
    <glyph glyph-name="A" unicode="A" horiz-adv-x="1376" 
d="M122 -147q-56 25 -78.5 85.5t2.5 116.5l538 1324q26 60 90.5 81t122.5 -11q51 -29 68 -77l478 -1316q23 -58 -2.5 -116.5t-83.5 -81.5q-58 -22 -116.5 3t-81.5 83l-74 209l-565 22l-96 -246q-25 -56 -85 -78.5t-117 2.5zM713 925l-176 -450l339 -13z" />
    <glyph glyph-name="B" unicode="B" horiz-adv-x="1178" 
d="M1156 356q0 -148 -60 -244t-155.5 -150.5t-205.5 -76.5t-209 -22q-176 0 -331 47q-54 12 -88 58t-31 103q11 145 16.5 307.5t5.5 303.5q0 175 -7 312t-18 274q-4 53 25 96t78 60q88 33 186 54t196 21q93 0 184.5 -32.5t166.5 -95t120 -152t45 -204.5q0 -92 -38 -162
t-99 -122q99 -55 159 -147.5t60 -227.5zM558 1193q-82 0 -172 -21q6 -85 10 -173.5t5 -192.5q147 22 226.5 56t111 78.5t31.5 99.5q0 65 -52.5 109t-159.5 44zM561 539q-24 0 -68.5 -4t-92.5 -8q-1 -86 -4 -175t-8 -174q70 -11 138 -11q166 0 245 42.5t79 146.5
q0 72 -24 112t-86.5 55.5t-178.5 15.5z" />
    <glyph glyph-name="C" unicode="C" horiz-adv-x="1261" 
d="M1190 1230q-25 -57 -85 -79.5t-116 2.5q-92 40 -200 40q-144 0 -244.5 -70t-153.5 -190t-53 -271q0 -145 50.5 -256.5t150 -175t246.5 -63.5q124 0 231 56q56 29 115.5 10.5t88.5 -74.5q29 -55 10.5 -115t-74.5 -89q-176 -92 -371 -92q-172 0 -310.5 60.5t-237.5 169.5
t-152 254.5t-53 314.5t52 320t150.5 267.5t238.5 183t316 66.5q83 0 164.5 -16.5t159.5 -51.5q57 -25 80 -85t-3 -116z" />
    <glyph glyph-name="D" unicode="D" horiz-adv-x="1319" 
d="M208 1474q109 25 223 25q182 0 339 -51t275 -152t184.5 -250t66.5 -345q0 -174 -61.5 -325.5t-172.5 -267t-260 -180.5t-325 -65q-160 0 -307 57q-50 20 -76 67.5t-20 94.5q21 163 32.5 355.5t11.5 373.5q0 98 -3 174.5t-9 153t-16 171.5q-7 60 31.5 107t86.5 57z
M407 1193q8 -93 11.5 -182.5t3.5 -199.5q0 -156 -8 -318.5t-23 -316.5q42 -9 86 -9q147 0 263.5 69.5t184 190.5t67.5 274q0 254 -141.5 373t-419.5 119q-6 0 -12 0.5t-12 -0.5z" />
    <glyph glyph-name="E" unicode="E" horiz-adv-x="1138" 
d="M34 676q-6 48 16.5 89.5t61.5 63.5q2 68 2 131q0 71 -2 124t-6.5 104.5t-13.5 117.5q-4 32 13 73.5t54.5 71.5t92.5 26q62 -4 123.5 -6t121.5 -2q113 0 230 9.5t202 28.5q62 14 115.5 -19.5t66.5 -94.5q14 -61 -19.5 -114.5t-94.5 -67.5q-115 -27 -245 -37.5t-255 -10.5
q-21 0 -43 0.5t-42 1.5q3 -47 5.5 -96.5t2.5 -108.5q0 -46 -1 -95q51 2 106 2q188 0 378 -23q62 -7 101.5 -57.5t31.5 -112.5q-7 -61 -57.5 -100t-112.5 -32q-164 19 -341 19q-65 0 -120 -2q-5 -73 -12 -142.5t-16 -131.5q-3 -19 -3 -40q0 -34 31 -43.5t121.5 -7t266.5 2.5
h77.5t73.5 1q63 2 109 -42.5t47 -106.5q2 -63 -43 -108t-107 -47q-39 -1 -78 -1h-79q-70 0 -164 -3.5t-191.5 4.5t-181 42t-135 107.5t-51.5 201.5q0 17 1 35.5t4 39.5q8 54 14 117.5t11 131.5q-58 39 -66 107z" />
    <glyph glyph-name="F" unicode="F" horiz-adv-x="1132" 
d="M34 622q-6 49 18 92t67 64q-2 134 -9 255.5t-23 251.5q-4 32 13 73.5t54.5 71.5t92.5 26q60 -4 121.5 -5.5t122.5 -1.5q113 0 230 9t202 28q62 14 115.5 -19.5t66.5 -94.5q14 -61 -19.5 -114.5t-94.5 -67.5q-115 -27 -245 -37t-255 -10q-21 0 -42 0.5t-41 0.5
q6 -83 10 -165t6 -167q45 1 90 1q94 0 187 -6t186 -17q62 -7 101 -57.5t31 -112.5q-7 -61 -57.5 -100t-112.5 -32q-84 10 -168 15.5t-167 5.5q-43 0 -88 -2q-4 -276 -32 -523q-7 -61 -57 -102t-112 -34q-61 8 -101 57t-33 111q25 225 28 488q-33 17 -56.5 48t-28.5 70z" />
    <glyph glyph-name="G" unicode="G" horiz-adv-x="1389" 
d="M560 649q0 63 45.5 107.5t107.5 44.5h496q63 0 105.5 -45.5t46.5 -95.5q2 -31 3.5 -62t1.5 -61q0 -130 -33 -250.5t-106 -216t-192.5 -151.5t-293.5 -56q-194 0 -355 89.5t-257.5 263t-96.5 423.5q0 163 45.5 316.5t138 276t235 195t337.5 72.5q202 0 365 -121
q50 -37 59.5 -99.5t-27.5 -112.5t-100 -59.5t-113 27.5q-81 59 -184 59q-229 0 -339.5 -148t-110.5 -406q0 -176 53 -279.5t144 -148t206 -44.5q129 0 196 34.5t93 107.5t30 188h-347q-62 0 -107.5 45t-45.5 107z" />
    <glyph glyph-name="H" unicode="H" horiz-adv-x="1359" 
d="M1296 647q-2 -42 -24.5 -75.5t-56.5 -51.5l5 -540q0 -62 -44 -107.5t-107 -46.5q-62 0 -107.5 44t-45.5 107l-5 533q-118 4 -243.5 7t-237.5 4q-2 -134 -7.5 -267.5t-14.5 -264.5q-4 -61 -52 -103.5t-110 -38.5q-62 5 -104 52.5t-38 109.5q9 135 14.5 273.5t7.5 278.5
q-53 46 -53 115q0 72 56 118q0 129 -1.5 258.5t-5.5 259.5q-1 63 42 109t106 47q62 2 108.5 -41t47.5 -106q3 -123 5 -246.5t2 -247.5q110 -2 234 -5t241 -7l-5 500q0 62 44 107.5t107 46.5q62 0 107.5 -44t45.5 -107l5 -528q39 -20 62.5 -58.5t21.5 -84.5z" />
    <glyph glyph-name="I" unicode="I" horiz-adv-x="475" 
d="M222 -152q-63 2 -106.5 47.5t-42.5 108.5l35 1361q2 62 47.5 106t108.5 42q62 -1 106 -47t42 -108l-35 -1361q-1 -63 -47 -106.5t-108 -42.5z" />
    <glyph glyph-name="J" unicode="J" horiz-adv-x="720" 
d="M46 1317q0 63 45 107.5t107 44.5h377q63 0 108 -44.5t45 -107.5q0 -54 -35 -96t-87 -53q24 -213 35 -424t11 -444q0 -107 -39.5 -207.5t-126 -165t-228.5 -64.5q-41 0 -85 3q-62 5 -103.5 53.5t-36.5 110.5q5 63 54 104t111 36q29 -3 60 -3q43 0 61.5 4t23.5 31.5t5 97.5
q0 235 -11.5 443.5t-36.5 421.5h-102q-62 0 -107 45t-45 107z" />
    <glyph glyph-name="K" unicode="K" horiz-adv-x="1222" 
d="M222 -152q-63 2 -106.5 47.5t-42.5 108.5l16 621q-12 29 -11.5 63.5t14.5 66.5l16 609q2 62 47.5 106t108.5 42q62 -1 106 -47t42 -108l-10 -378q144 99 276 217t228 247q38 50 100.5 60t112.5 -28q50 -37 60 -100t-28 -113q-91 -123 -206 -234t-238.5 -205.5
t-242.5 -169.5q150 -152 317.5 -282t345.5 -243q52 -34 66 -96t-21 -114q-34 -52 -96 -66t-114 20q-149 95 -295 205.5t-282 234.5l-8 -315q-1 -63 -47 -106.5t-108 -42.5z" />
    <glyph glyph-name="L" unicode="L" horiz-adv-x="1156" 
d="M233 1468q63 4 110.5 -38t51.5 -104q8 -128 12.5 -251.5t4.5 -244.5q0 -162 -6.5 -320.5t-17.5 -316.5l597 -19q62 -1 106 -47t42 -108q-1 -63 -47 -106.5t-108 -42.5l-756 23q-59 2 -106.5 49.5t-42.5 114.5q15 197 24 388t9 385q0 116 -3.5 235t-11.5 241
q-4 63 38 110.5t104 51.5z" />
    <glyph glyph-name="M" unicode="M" horiz-adv-x="1639" 
d="M199 -152q-61 7 -102 57t-34 111l137 1300q7 65 61.5 105.5t118.5 28.5q47 -8 77.5 -42.5t41.5 -66.5q34 -108 85 -233t105 -243t97 -207q15 -30 27 -30q11 0 27 28q34 67 74.5 159t79.5 191t69 188.5t43 151.5q14 65 70.5 99.5t120.5 16.5q52 -15 80.5 -60t29.5 -81
q7 -190 20.5 -351.5t35 -310t51 -298t68.5 -314.5q15 -61 -18.5 -115t-94.5 -68q-61 -15 -115 18.5t-68 94.5q-40 173 -71.5 331t-54.5 323q-17 -37 -37 -76.5t-40 -72.5q-25 -44 -60 -91.5t-86 -80.5t-125 -33q-81 0 -135 38t-88.5 90.5t-56.5 95.5q-22 39 -46 87.5
t-47 95.5l-72 -700q-7 -61 -56.5 -102t-111.5 -34z" />
    <glyph glyph-name="N" unicode="N" horiz-adv-x="1347" 
d="M217 -152q-62 3 -104 50.5t-40 109.5q17 333 29 652.5t16 657.5q1 66 50.5 111t114.5 39q33 -3 62.5 -21.5t45.5 -38.5q156 -205 301.5 -419.5t278.5 -431.5l9 806q1 62 46 106.5t108 43.5q62 -1 106.5 -46t43.5 -108l-15 -1357q-1 -34 -18.5 -69t-49.5 -56
q-54 -36 -119.5 -20t-97.5 73q-129 233 -272.5 468t-299.5 461q-6 -216 -15 -431.5t-20 -435.5q-3 -62 -50 -104t-110 -40z" />
    <glyph glyph-name="O" unicode="O" horiz-adv-x="1525" 
d="M738 -137q-153 0 -282 56.5t-224 158.5t-147.5 238.5t-52.5 296.5q0 168 56.5 326.5t161 284.5t250 200.5t324.5 74.5q167 0 293.5 -71.5t212 -190.5t129 -263t43.5 -290q0 -172 -57 -321t-160 -261.5t-242.5 -175.5t-304.5 -63zM738 167q129 0 233 63t165.5 179.5
t61.5 274.5q0 150 -50.5 265t-135 179.5t-188.5 64.5q-132 0 -242.5 -77.5t-177 -209t-66.5 -293.5q0 -141 52 -240.5t142.5 -152.5t205.5 -53z" />
    <glyph glyph-name="P" unicode="P" horiz-adv-x="1309" 
d="M85 1053q-46 41 -50.5 104t36.5 110q69 79 167 130.5t208.5 76.5t214.5 25q134 0 247.5 -50t198.5 -138t132 -203t47 -246q0 -146 -64 -259t-168 -190t-227 -116.5t-242 -39.5q-27 0 -60 1t-70 4l-20 -273q-4 -62 -52 -103.5t-111 -37.5q-62 5 -103.5 52.5t-37.5 110.5
l28 386q-19 54 2 106l6 14l36 500q-68 -9 -118 36zM661 1193q-34 0 -70 -5.5t-71 -14.5l-43 -603q31 -4 60.5 -6.5t47.5 -2.5q108 0 198 43.5t144.5 112.5t54.5 145q0 95 -42.5 170t-115 118t-163.5 43z" />
    <glyph glyph-name="Q" unicode="Q" horiz-adv-x="1525" 
d="M738 -137q-153 0 -282 56.5t-224 158.5t-147.5 238.5t-52.5 296.5q0 168 56.5 326.5t161 284.5t250 200.5t324.5 74.5q167 0 293.5 -71.5t212 -190.5t129 -263t43.5 -290q0 -154 -46.5 -291t-129.5 -244q50 -49 107 -99q47 -41 51.5 -104.5t-36.5 -110.5t-104.5 -51
t-110.5 37q-74 65 -139 131q-79 -43 -168.5 -66t-187.5 -23zM738 167q76 0 145 23q-48 60 -98 130q-36 51 -26 113.5t60 98.5q51 36 113.5 26t98.5 -60q47 -65 89 -118q37 61 57.5 137.5t20.5 166.5q0 150 -50.5 265t-135 179.5t-188.5 64.5q-132 0 -242.5 -77.5t-177 -209
t-66.5 -293.5q0 -141 52 -240.5t142.5 -152.5t205.5 -53z" />
    <glyph glyph-name="R" unicode="R" horiz-adv-x="1310" 
d="M173 552q6 10 14 20l27 466q-41 -8 -80 4t-66 46q-39 49 -33 113.5t57 100.5q119 89 258.5 143t296.5 54q136 0 247.5 -51t192 -140t124 -204t43.5 -242q0 -125 -49 -231t-134.5 -186t-193.5 -128l334 -185q55 -30 71.5 -92t-15.5 -116q-31 -54 -93 -71t-115 15l-587 348
l-13 -225q-4 -62 -51 -104t-110 -39q-62 4 -104 51t-39 110l23 398q-21 32 -23 71t18 74zM647 1193q-57 0 -120 -15l-35 -614q24 -3 48 -4t45 -1q106 0 188.5 44.5t129.5 114t47 144.5q0 149 -85.5 240t-217.5 91z" />
    <glyph glyph-name="S" unicode="S" horiz-adv-x="1122" 
d="M1021 1185q-31 -54 -91.5 -71t-115.5 14q-70 39 -113.5 52t-105.5 13q-119 0 -186 -51.5t-67 -143.5q0 -55 57.5 -96.5t202.5 -90.5q240 -79 369 -201.5t129 -269.5q0 -142 -69 -249.5t-192.5 -167.5t-287.5 -60q-127 0 -242.5 27t-219.5 85q-55 31 -72.5 91.5
t12.5 115.5q31 55 92.5 72.5t115.5 -13.5q68 -37 152 -55.5t163 -18.5q110 0 176 39.5t66 105.5q0 124 -281 208q-475 144 -475 478q0 147 71 260t197 177t289 64q98 0 180 -24t188 -83q55 -31 72 -91.5t-14 -115.5z" />
    <glyph glyph-name="T" unicode="T" horiz-adv-x="1463" 
d="M738 -149q-63 -1 -109 42t-48 106q-4 137 -7.5 275t-3.5 277q0 153 3.5 304t9.5 302l-401 7q-62 1 -106 46.5t-43 108.5q1 62 46.5 106t108.5 43l1103 -19q62 -1 106 -46.5t43 -108.5q-1 -62 -46.5 -106t-108.5 -43l-398 7q-6 -150 -8.5 -299t-2.5 -302q0 -270 9 -543
q2 -63 -41.5 -109t-105.5 -48z" />
    <glyph glyph-name="U" unicode="U" horiz-adv-x="1350" 
d="M331 1483q62 -13 96.5 -66.5t20.5 -114.5q-25 -114 -40.5 -216.5t-22.5 -207t-7 -224.5q0 -237 65.5 -362t212.5 -125q179 0 252.5 215.5t73.5 616.5q0 51 -1 119.5t-2.5 133.5t-3.5 102q-2 63 40.5 109.5t104.5 49.5q62 2 108.5 -40t50.5 -105q2 -38 4 -105t3.5 -138.5
t1.5 -125.5q0 -352 -59.5 -607t-198 -392t-374.5 -137q-199 0 -328.5 102.5t-192.5 287.5t-63 432q0 176 19 335.5t59 345.5q14 62 67 96.5t114 20.5z" />
    <glyph glyph-name="V" unicode="V" horiz-adv-x="1408" 
d="M134 1460q59 20 117 -7t78 -86l318 -922l448 937q27 56 87.5 77t116.5 -5q56 -27 77 -87.5t-5 -116.5l-608 -1271q-10 -19 -30.5 -40.5t-46.5 -32.5q-60 -26 -121.5 0t-83.5 88l-440 1271q-20 59 7.5 117t85.5 78z" />
    <glyph glyph-name="W" unicode="W" horiz-adv-x="1986" 
d="M142 1495q59 18 115 -12.5t74 -89.5l211 -900l313 745q26 60 88.5 83.5t120.5 -7.5q27 -14 46.5 -37.5t28.5 -48.5l241 -709l287 847q20 59 78 86.5t116 7.5q59 -20 86.5 -77.5t7.5 -116.5l-431 -1270q-20 -62 -84 -91q-60 -26 -121 1.5t-83 89.5l-256 754l-322 -764
q-10 -24 -33 -48t-52 -35q-61 -24 -121.5 5.5t-79.5 93.5l-333 1304q-18 59 13 115t90 74z" />
    <glyph glyph-name="X" unicode="X" horiz-adv-x="1307" 
d="M99 -126q-51 35 -62.5 98t22.5 114l404 593l-360 510q-37 51 -25 114.5t62 98.5q51 35 114 24t99 -61l293 -416l323 475q35 52 98 63.5t114 -23.5q52 -34 63.5 -97.5t-23.5 -114.5l-387 -569l423 -599q35 -51 24 -113.5t-61 -98.5q-51 -36 -114.5 -25t-98.5 61l-357 505
l-339 -499q-34 -51 -97.5 -62.5t-114.5 22.5z" />
    <glyph glyph-name="Y" unicode="Y" horiz-adv-x="1307" 
d="M664 -152q-63 -1 -108.5 43t-46.5 106l-10 590l-437 642q-36 51 -25.5 113t60.5 98q51 36 113 25.5t98 -60.5l339 -506l359 495q35 52 98 63.5t114 -23.5q52 -34 63.5 -97.5t-23.5 -114.5l-455 -637l10 -582q1 -63 -43 -108.5t-106 -46.5z" />
    <glyph glyph-name="Z" unicode="Z" horiz-adv-x="1412" 
d="M37 1234q-16 60 18 114.5t94 69.5q161 40 342 57t358 10t322 -40q65 -14 99 -59.5t32 -100.5t-45 -98q-222 -223 -402 -468t-345 -491q185 15 356.5 22t370.5 7q63 0 108 -45t45 -108q0 -62 -45 -107.5t-108 -45.5q-183 0 -345 -6t-319 -18.5t-326 -31.5
q-66 -7 -109.5 31t-55 94.5t18.5 105.5q159 262 339 530.5t409 522.5q-162 6 -329 -9t-299 -48q-59 -16 -114 18t-70 94z" />
    <glyph glyph-name="bracketleft" unicode="[" horiz-adv-x="725" 
d="M677 1333q5 -62 -36 -110.5t-104 -53.5q-21 -1 -41 -2t-41 -2q-38 -2 -75 0q3 -49 5 -97t2 -96q0 -112 -4.5 -220t-10.5 -212q-4 -65 -6 -102.5t-2.5 -73.5t-0.5 -98q0 -41 36.5 -53t127.5 -16q63 -3 105 -50t40 -109q-3 -63 -50 -105t-109 -40q-84 4 -165.5 24t-147 62
t-104.5 112t-39 175q0 61 0.5 101.5t2.5 83t6 107.5q6 103 10.5 207t4.5 207q0 84 -4 166t-14 164q-4 34 14 75.5t56 71t93 24.5q35 -3 71 -3.5t74 -0.5t73 1t69 3q62 5 110.5 -36t53.5 -104z" />
    <glyph glyph-name="backslash" unicode="\" horiz-adv-x="975" 
d="M863 -130q-53 -32 -118.5 -19t-89.5 71l-584 1408q-16 39 -2 77t46.5 66t73.5 37q62 14 109 -23t71 -95l547 -1314q24 -58 12 -117t-65 -91z" />
    <glyph glyph-name="bracketright" unicode="]" horiz-adv-x="736" 
d="M59 1367q10 62 62 99t113 28q66 -10 140.5 -17t148.5 -9q50 -1 86 -29.5t53 -71t7 -84.5q-17 -77 -24 -133t-8.5 -118t-1.5 -157q0 -64 7 -132t18 -141q11 -76 20 -156t9 -161q0 -120 -45.5 -197t-117.5 -119.5t-154 -59t-155 -16.5q-62 0 -107 45t-45 107q0 63 45 107.5
t107 44.5q80 0 114.5 6t43 24.5t8.5 57.5q0 63 -7 131t-18 140q-11 77 -20 157t-9 162q0 90 2 158.5t10 140.5q-38 4 -78 8.5t-77 9.5q-61 10 -98.5 62t-28.5 113z" />
    <glyph glyph-name="asciicircum" unicode="^" horiz-adv-x="728" 
d="M147 1102q-27 17 -34.5 49t9.5 60l166 270q12 20 38 27t52.5 2t39.5 -22l192 -241q20 -25 17 -59t-29 -54q-25 -19 -58.5 -15.5t-53.5 29.5l-123 152l-105 -173q-16 -27 -49.5 -34.5t-61.5 9.5z" />
    <glyph glyph-name="underscore" unicode="_" horiz-adv-x="610" 
d="M763 45q0 -62 -45 -107t-108 -45h-610q-62 0 -107.5 45t-45.5 107q0 63 45.5 107.5t107.5 44.5h610q63 0 108 -44.5t45 -107.5z" />
    <glyph glyph-name="grave" unicode="`" horiz-adv-x="549" 
d="M141 1545q26 20 59.5 16.5t52.5 -29.5q51 -65 102 -157t88 -173q13 -28 0.5 -61t-41.5 -46q-28 -13 -60.5 -0.5t-45.5 41.5q-22 49 -52 105.5t-60.5 107.5t-56.5 84q-19 26 -15 59t29 53z" />
    <glyph glyph-name="a" unicode="a" horiz-adv-x="1309" 
d="M1137 -107q-77 0 -135 28.5t-98 80.5q-152 -139 -359 -139q-149 0 -264.5 73.5t-181 202t-66.5 293.5q-1 145 43 275t124 230.5t187.5 158t233.5 57.5q131 0 241 -71q22 30 58 45t77 10q62 -9 105 -60t39 -111l-25 -468l-2 -30q-2 -43 -3 -95.5t1 -78.5q2 -37 16 -65
t59 -40q36 -13 69.5 -45t33.5 -99q0 -62 -45 -107t-108 -45zM549 167q111 0 178.5 85t81.5 257q0 13 1 24q0 6 1 12l10 173q-39 62 -89.5 96.5t-113.5 34.5q-85 0 -148.5 -57.5t-97.5 -153t-34 -210.5q2 -125 56.5 -193t154.5 -68z" />
    <glyph glyph-name="b" unicode="b" horiz-adv-x="1203" 
d="M272 1513q62 -2 105.5 -48t41.5 -108l-9 -295q63 43 130 67t132 24q120 0 207 -40t145 -106t92.5 -145t49 -157.5t14.5 -142.5q0 -206 -84 -363.5t-229 -246.5t-327 -89q-93 0 -180 24q-31 8 -56 28q-38 -23 -83 -22q-63 2 -106 48t-42 109l42 1316q2 62 48 105.5
t109 41.5zM438 180q48 -13 102 -13q148 0 242 104.5t94 281.5q0 128 -47.5 212t-156.5 84q-77 0 -157 -72.5t-119 -230.5q-1 -6 -3 -12l-11 -350q28 3 56 -4z" />
    <glyph glyph-name="c" unicode="c" horiz-adv-x="1071" 
d="M995 808q-40 -47 -103.5 -51.5t-110.5 35.5q-67 57 -145 57q-87 0 -154 -51.5t-105.5 -141.5t-38.5 -206q0 -133 64 -208t191 -75q56 0 128.5 13.5t132.5 33.5q60 17 116 -13.5t72 -90.5q17 -61 -13.5 -115.5t-90.5 -72.5q-91 -30 -167 -44.5t-152 -14.5
q-182 0 -313.5 75.5t-202.5 212t-71 317.5q0 144 44 268t124 218t189 146.5t238 52.5q203 0 352 -131q47 -40 52 -103.5t-36 -110.5z" />
    <glyph glyph-name="d" unicode="d" horiz-adv-x="1237" 
d="M648 1153q100 0 189 -37l6 249q2 62 47.5 106t108.5 42q62 -1 106 -47t42 -108l-18 -849q0 -154 5 -229.5t12.5 -102.5t13.5 -35q40 -48 33.5 -111.5t-54.5 -103.5t-112 -33.5t-103 54.5q-16 20 -29 41q-154 -126 -353 -126q-149 0 -264 73.5t-180.5 202.5t-65.5 295
q0 144 49 274t134.5 230t196.5 157.5t236 57.5zM338 429q0 -126 54 -194t154 -68q114 0 192.5 91t84.5 277q0 9 2 17l4 195q-29 46 -77 74t-108 28q-84 0 -153.5 -57.5t-111 -152.5t-41.5 -210z" />
    <glyph glyph-name="e" unicode="e" horiz-adv-x="1191" 
d="M1088 18q-103 -94 -222 -124.5t-231 -30.5q-173 0 -314 86t-200 265q-33 18 -55.5 50.5t-24.5 73.5q-5 71 47 121q4 126 49.5 249.5t128.5 224t200 160.5t262 60q64 0 132 -21t126 -64.5t94 -108.5t36 -154q0 -78 -27.5 -143.5t-68 -115.5t-81.5 -84t-69 -51
q-99 -59 -202.5 -102.5t-211.5 -71.5q61 -70 179 -70q164 0 249 77q47 42 110 39t105 -50q42 -46 39 -109.5t-50 -105.5zM719 849q-74 0 -142 -40.5t-116 -112t-63 -164.5q173 40 305 118q68 41 93 72.5t25 57.5q0 32 -27.5 50.5t-74.5 18.5z" />
    <glyph glyph-name="f" unicode="f" horiz-adv-x="813" 
d="M33 818q-4 62 37 110.5t104 52.5q20 2 41 3q4 93 9 179t12 159q5 57 20 132t48.5 145t91.5 116t148 46q70 0 121 -33t85 -73q38 -43 34.5 -103.5t-33.5 -95.5q-34 -40 -64 -47t-62 0q-25 11 -41 11t-27 -27.5t-17 -96.5q-6 -67 -10.5 -147t-8.5 -169q65 -5 135 -13
q62 -7 102 -57t32 -112q-7 -61 -57.5 -100.5t-112.5 -32.5q-56 6 -110 10q-5 -185 -7 -364.5t-2 -314.5q0 -62 -45 -107t-108 -45q-62 0 -107 45t-45 107q0 137 2 316t6 365h-7q-63 -4 -111 37t-53 104z" />
    <glyph glyph-name="g" unicode="g" horiz-adv-x="1258" 
d="M993 1139q8 0 17 -1q5 0 11 -1q22 -3 43 -12q42 -18 69.5 -51.5t30.5 -74.5q3 -16 2 -33l-2 -50q-2 -356 -22 -613t-64.5 -429.5t-119 -274t-185.5 -145t-264 -43.5q-112 0 -226 46.5t-196 136.5q-42 47 -41 110t44 105q47 45 113 44.5t103 -46.5q42 -51 93.5 -71.5
t100.5 -20.5q118 0 189 43.5t109 177.5q-116 -55 -251 -55q-151 0 -264.5 69t-177.5 193t-65 289q-1 146 43.5 276.5t125 230.5t188 157t231.5 57q137 0 257 -75q12 18 30 32q34 29 78 29zM552 167q126 0 203 100.5t84 272.5l8 174q-37 62 -96 98.5t-126 36.5
q-83 0 -146.5 -56.5t-98.5 -151.5t-34 -213q1 -127 52 -194t154 -67z" />
    <glyph glyph-name="h" unicode="h" horiz-adv-x="1206" 
d="M217 -151q-56 5 -100 46.5t-39 115.5l97 1386q5 76 55.5 111t108.5 30q56 -4 100.5 -45.5t39.5 -117.5l-23 -327q57 48 123 76t142 28q130 0 221.5 -64t140 -172.5t48.5 -243.5q0 -161 -1.5 -332.5t-10.5 -340.5q-4 -56 -44 -102.5t-112 -46.5q-75 0 -114.5 45t-35.5 103
q5 111 8 208t3 183q0 224 -31.5 341.5t-110.5 117.5q-71 0 -122 -68t-87 -177t-62 -233q-1 -6 -3 -12l-26 -369q-5 -76 -56.5 -110.5t-108.5 -29.5z" />
    <glyph glyph-name="i" unicode="i" horiz-adv-x="475" 
d="M85 1423q0 47 26 89.5t69 69.5t94 27q65 0 103.5 -31t56 -73t17.5 -75q0 -37 -20.5 -82.5t-61 -78t-100.5 -32.5q-71 0 -111 33t-56.5 76.5t-16.5 76.5zM252 1123q63 -3 105 -50t40 -109q-3 -68 -5.5 -166.5t-4 -211t-2.5 -223.5t-1.5 -206t-0.5 -157t-45 -107t-108 -45
q-62 0 -107 45t-45 107q0 64 0.5 159t1.5 206.5t3 225t4.5 214t5.5 173.5q3 63 50 105t109 40z" />
    <glyph glyph-name="j" unicode="j" horiz-adv-x="464" 
d="M236 1123q63 0 107.5 -44.5t44.5 -107.5q0 -230 -1.5 -417t-6.5 -335q-6 -151 -20 -292t-52 -252.5t-115 -176.5t-208 -65q-62 0 -107 45.5t-45 107.5q0 63 45 108t107 45q49 0 66.5 121t24.5 371q5 143 6.5 326.5t1.5 413.5q0 63 45 107.5t107 44.5zM74 1423
q0 47 26 89.5t69 69.5t94 27q65 0 103.5 -31t56 -73t17.5 -75q0 -37 -20.5 -82.5t-61 -78t-100.5 -32.5q-71 0 -111 33t-56.5 76.5t-16.5 76.5z" />
    <glyph glyph-name="k" unicode="k" horiz-adv-x="1059" 
d="M988 -86q-36 -51 -98.5 -62t-113.5 26q-205 146 -390 322l-9 -203q-3 -63 -50 -105t-109 -40q-63 3 -105 50t-40 109l60 1357q3 63 50 105t109 40q63 -3 105 -50t40 -109l-25 -563q95 62 182 133.5t147 143.5q39 48 103 54.5t112 -33.5t54.5 -103.5t-33.5 -111.5
q-85 -103 -212 -197.5t-248 -174.5q106 -104 217.5 -201.5t218.5 -173.5q50 -37 60.5 -99.5t-25.5 -113.5z" />
    <glyph glyph-name="l" unicode="l" horiz-adv-x="489" 
d="M261 1502q63 -3 105 -50t40 -109q-6 -126 -9.5 -295t-5.5 -355t-2.5 -366t-0.5 -327q0 -62 -45 -107t-108 -45q-62 0 -107 45t-45 107q0 148 0.5 328t3 367t6 359t9.5 303q3 63 50 105t109 40z" />
    <glyph glyph-name="m" unicode="m" horiz-adv-x="1761" 
d="M78 22q26 274 34 447q-1 15 2 30q3 80 3 148q0 95 -6 173.5t-19 157.5q-11 69 24.5 111.5t86.5 55.5q53 12 107 -10t75 -82q55 47 123.5 73.5t152.5 26.5q111 0 183.5 -46.5t115.5 -125.5q73 81 167 126t211 45q129 0 206 -64.5t111 -173t34 -242.5q0 -161 -1.5 -332.5
t-10.5 -340.5q-3 -57 -43.5 -103t-112.5 -46q-74 0 -114 45t-36 103q5 111 8 208t3 183q0 171 -9 271.5t-34.5 144t-73.5 43.5q-64 0 -116 -66t-102 -231v-47q0 -69 -1 -123.5t-4 -109t-7.5 -122t-11.5 -160.5q-5 -72 -56 -105.5t-108 -29.5t-101 43t-38 114q9 119 14 196.5
t7 144.5t2 152q0 188 -24 266.5t-94 78.5q-67 0 -115.5 -79.5t-90.5 -234.5q-3 -108 -13 -240t-26 -301q-7 -73 -59 -105.5t-111 -26.5q-55 5 -97 46t-35 114z" />
    <glyph glyph-name="n" unicode="n" horiz-adv-x="1206" 
d="M78 22q20 214 29.5 363.5t9.5 261.5q0 95 -6 173.5t-19 157.5q-11 69 24.5 111.5t86.5 55.5q59 14 117.5 -14.5t71.5 -105.5q3 -17 5 -34q66 72 147 116.5t177 44.5q130 0 221.5 -64t140 -172.5t48.5 -243.5q0 -161 -1.5 -332.5t-10.5 -340.5q-4 -56 -44 -102.5
t-112 -46.5q-75 0 -114.5 45t-35.5 103q5 111 8 208t3 183q0 224 -31.5 341.5t-110.5 117.5q-71 0 -122 -68t-87 -177t-62 -233v0q-5 -81 -13 -174t-18 -202q-7 -73 -59 -105.5t-111 -26.5q-55 5 -97 46t-35 114z" />
    <glyph glyph-name="o" unicode="o" horiz-adv-x="1159" 
d="M592 1153q136 0 236.5 -56.5t166.5 -148t98.5 -199.5t32.5 -211q0 -113 -35 -231.5t-105 -219t-175.5 -162.5t-245.5 -62q-130 0 -229.5 55t-167 145.5t-102 201t-34.5 221.5q0 112 33 229t101 216.5t174 160.5t252 61zM592 849q-109 0 -181.5 -98.5t-72.5 -264.5
q0 -100 33 -171.5t85 -109.5t109 -38q63 0 122 48t97 132t38 191q0 139 -67.5 225t-162.5 86z" />
    <glyph glyph-name="p" unicode="p" horiz-adv-x="1237" 
d="M211 -585q-63 3 -105 50t-40 109l32 688q6 98 10 182.5t4 158.5q0 99 -12.5 181.5t-31.5 119.5q-27 56 -6.5 116t76.5 87t116 7.5t88 -75.5q10 -21 19 -44q75 75 167 116.5t195 41.5q140 0 248.5 -76t170.5 -208t62 -301q0 -111 -40 -233.5t-128 -230t-230 -174.5
t-345 -67q-40 0 -76 21l-15 -324q-3 -63 -50 -105t-109 -40zM402 244l-4 -91q30 14 63 14q131 0 216 37t134 97t69 130t20 137q0 114 -29.5 174.5t-71 83.5t-76.5 23q-36 0 -87 -29t-101.5 -94.5t-87 -174t-42.5 -266.5q0 -8 -1 -16q-1 -15 -2 -25z" />
    <glyph glyph-name="q" unicode="q" horiz-adv-x="1203" 
d="M1000 1129q62 -4 103 -52.5t37 -110.5q-16 -221 -25 -439.5t-9 -439.5q0 -126 3 -252t8 -253q2 -62 -40 -109t-105 -50q-62 -2 -109 40t-50 105q-4 92 -6.5 183.5t-3.5 183.5q-56 -35 -124 -54.5t-148 -19.5q-142 0 -238.5 57.5t-153.5 150.5t-82 202.5t-25 212.5
q0 102 27.5 217.5t89 218.5t162 168t246.5 65q88 0 163.5 -28t133.5 -75q21 38 60.5 60t85.5 19zM338 484q0 -175 49.5 -246t143.5 -71q100 0 166.5 69t109.5 204q5 146 13 294q-37 -3 -73 11t-61 45q-20 26 -50.5 42.5t-78.5 16.5q-86 0 -152.5 -98t-66.5 -267z" />
    <glyph glyph-name="r" unicode="r" horiz-adv-x="945" 
d="M224 -152q-20 2 -38 9q-61 23 -87 83q-16 36 -12 75q1 7 1 15q3 29 5.5 59.5t5.5 60.5q6 88 10.5 187t4.5 195q0 125 -9.5 235t-25.5 161q-17 59 13.5 115.5t89.5 73.5t115.5 -13t73.5 -89q7 -23 12 -48q66 62 154 107t204 67q61 11 114.5 -24t64.5 -97
q11 -61 -24 -114.5t-97 -64.5q-144 -28 -222 -114t-115 -230.5t-57 -348.5q-6 -88 -14 -163q-2 -20 -9 -38q-23 -61 -83 -87q-36 -16 -75 -12z" />
    <glyph glyph-name="s" unicode="s" horiz-adv-x="1020" 
d="M937 799q-38 -49 -96.5 -55t-115.5 29q-49 39 -102.5 57.5t-101.5 18.5q-60 0 -98 -26t-38 -65q0 -44 56.5 -69.5t134.5 -48.5q66 -20 139 -47.5t137.5 -71t105 -111.5t40.5 -169q0 -107 -64 -193t-173.5 -135.5t-247.5 -49.5q-146 0 -266 51t-189 143q-34 51 -21.5 114
t64.5 97q51 34 97.5 19.5t77.5 -35.5q45 -34 118 -59.5t155 -25.5q57 0 100 17t43 50q0 42 -54.5 66.5t-130.5 46.5q-66 20 -140 48t-139.5 73t-106.5 115t-41 175q0 109 61.5 199t164.5 144t226 54q125 0 212 -36t167 -107q49 -39 56.5 -101.5t-30.5 -111.5z" />
    <glyph glyph-name="t" unicode="t" horiz-adv-x="815" 
d="M791 801q-8 -62 -58 -100.5t-112 -31.5q-44 5 -91 8q-5 -80 -7.5 -160.5t-2.5 -161.5q0 -73 7.5 -130.5t35.5 -57.5q19 0 47 5q62 11 114 -25t63 -97t-24.5 -114t-97.5 -64q-27 -5 -52.5 -7t-49.5 -2q-114 0 -183.5 52.5t-104.5 132t-47 163t-12 144.5q0 80 2.5 159
t6.5 157q-10 -1 -21 -2q-62 -7 -112 32t-58 100q-7 62 32 112.5t100 57.5q41 5 83 8q6 64 13 128t14 127q8 62 57.5 101.5t111.5 31.5q62 -7 101.5 -57t31.5 -112q-6 -55 -12 -109l-12 -108q55 -4 106 -10q62 -8 100.5 -58t30.5 -112z" />
    <glyph glyph-name="u" unicode="u" horiz-adv-x="1206" 
d="M1128 980q-20 -214 -29.5 -363t-9.5 -262q0 -94 6 -172.5t19 -158.5q11 -69 -24 -111.5t-87 -55.5q-59 -14 -117.5 14.5t-71.5 105.5q-3 16 -5 31q-64 -71 -142 -114.5t-170 -43.5q-136 0 -230 64t-143 173t-49 243q0 161 1.5 332.5t10.5 340.5q4 56 44 102.5t112 46.5
q75 0 114 -45t36 -104q-3 -73 -5.5 -146t-4 -163t-1.5 -214q0 -171 31.5 -248.5t110.5 -77.5q72 0 122.5 68t86.5 177t62 233v0q5 81 13 174t18 202q7 73 59.5 105.5t110.5 26.5q55 -5 97 -45.5t35 -114.5z" />
    <glyph glyph-name="v" unicode="v" horiz-adv-x="1124" 
d="M120 1110q57 26 117 4t87 -78q61 -130 127.5 -282.5t122.5 -313.5q68 137 127 281.5t102 292.5q18 59 74 89.5t115 13.5t89.5 -73.5t13.5 -115.5q-76 -263 -192 -507t-246 -456q-31 -50 -89 -66q-63 -18 -121 17.5t-70 99.5q-29 148 -83 302.5t-119 304.5t-128 283
q-27 57 -5 117.5t78 86.5z" />
    <glyph glyph-name="w" unicode="w" horiz-adv-x="1551" 
d="M408 1077q50 -34 64.5 -88t-13.5 -110q-48 -94 -84.5 -239t-36.5 -293q0 -90 25.5 -135t84.5 -45q92 0 138.5 126.5t70.5 388.5q6 67 44 107t94 39q62 0 105 -41.5t43 -102.5q0 -197 14.5 -310t44.5 -160t76 -47q80 0 111.5 80.5t31.5 192.5t-22.5 234.5t-50.5 209.5
q-20 65 -6 122t78 85q59 26 112 6t81 -78q50 -102 77.5 -234t27.5 -278q0 -194 -48 -339t-139 -225t-219 -80q-118 0 -208 72.5t-133 208.5q-62 -123 -162.5 -202t-216.5 -79q-110 0 -191 65t-125 180t-44 265q0 108 21.5 229.5t58.5 233.5t83 193q32 59 93.5 72.5
t119.5 -24.5z" />
    <glyph glyph-name="x" unicode="x" horiz-adv-x="1177" 
d="M88 -118q-48 39 -54 103t33 112l314 383q-75 101 -140.5 204t-116.5 206q-27 56 -7 116t76 87t116 7.5t87 -75.5q36 -72 83 -148t102 -153l281 344q39 48 103 54.5t112 -33.5q48 -39 54.5 -103t-33.5 -112l-326 -398q85 -101 171.5 -195t165.5 -174q44 -43 44 -106.5
t-44 -107.5q-43 -44 -106.5 -44t-107.5 44q-75 75 -156.5 162t-162.5 182l-273 -334q-39 -48 -103 -54t-112 33z" />
    <glyph glyph-name="y" unicode="y" horiz-adv-x="1177" 
d="M272 1123q62 -7 102.5 -57t33.5 -112q-7 -64 -11.5 -146t-7 -162t-2.5 -137q0 -145 15.5 -218.5t52.5 -98.5t101 -25q88 0 150.5 60t96.5 162q2 71 2 157q0 140 -1.5 245.5t-3.5 165.5q-2 63 40.5 109.5t104.5 49.5q62 2 109 -40.5t50 -105.5q2 -41 3 -100t1.5 -156
t0.5 -252q0 -521 -145.5 -785t-471.5 -264q-138 0 -249 54.5t-179 152.5q-34 52 -22.5 115t62.5 97q52 35 115 23t97 -63q50 -73 176 -73q100 0 162.5 49t96.5 159q-92 -42 -195 -42q-157 0 -262 55t-158 190.5t-53 378.5q0 71 2.5 159t7 173.5t11.5 146.5q7 62 56.5 102
t111.5 33z" />
    <glyph glyph-name="z" unicode="z" horiz-adv-x="1094" 
d="M35 857q-10 62 27 113.5t98 61.5q68 11 174 23t229 12q132 0 229.5 -27t160.5 -66q43 -27 59.5 -72.5t6.5 -93t-49 -80.5q-57 -47 -142 -137.5t-177.5 -201t-170.5 -218.5q114 5 230 7.5t209 2.5q63 0 108 -44.5t45 -107.5q0 -62 -45 -107t-108 -45q-102 0 -234 -3.5
t-260 -9.5t-221 -14q-64 -5 -106.5 31t-54.5 90t13 102q56 107 140.5 227.5t182 239t190.5 219.5q-53 1 -105 -0.5t-100 -6.5q-46 -4 -85 -9.5t-69 -10.5q-62 -10 -113.5 27t-61.5 98z" />
    <glyph glyph-name="braceleft" unicode="{" horiz-adv-x="705" 
d="M657 93q0 -62 -44.5 -107t-107.5 -45q-123 0 -192.5 47.5t-101.5 122.5t-41.5 159t-11 159t-9.5 122.5t-39 47.5h-5h-2h-4v0q-59 5 -100.5 49.5t-41.5 103.5q0 56 36.5 98t88.5 52l1 1h5q1 0 1 1h4h2q2 0 3 1h3h3h2h3h1q34 0 43.5 47.5t11 122.5t10 159t39.5 159
t99.5 122.5t191.5 47.5q63 0 108 -44.5t45 -107.5q0 -62 -45 -107t-108 -45q-35 0 -48 -34t-14.5 -90.5t-1.5 -124.5t-9.5 -137t-39.5 -127q25 -59 32 -127t6.5 -134t2 -120.5t18 -87t54.5 -32.5q63 0 107.5 -44.5t44.5 -107.5z" />
    <glyph glyph-name="bar" unicode="|" horiz-adv-x="427" 
d="M227 1611q63 0 107.5 -44.5t44.5 -107.5q0 -158 -1.5 -353t-4 -398t-5 -388t-5.5 -323q-1 -62 -47 -106t-109 -43q-62 2 -106 47t-43 108q2 110 4.5 251t4.5 299t4 319t3 311.5t1 275.5q0 63 45 107.5t107 44.5z" />
    <glyph glyph-name="braceright" unicode="}" horiz-adv-x="705" 
d="M758 752q0 -55 -36 -97.5t-89 -52.5l-1 -1h-4q-1 0 -2 -1h-4h-2t-3 -1h-3h-3h-2h-3h-1q-34 0 -43.5 -47.5t-11 -122.5t-10 -159t-39.5 -159t-99.5 -122.5t-191.5 -47.5q-62 0 -107.5 45t-45.5 107q0 63 45.5 107.5t107.5 44.5q35 0 48 34t14.5 90.5t1.5 124.5t9.5 137
t39.5 128q-25 58 -32 126t-6.5 134t-2 120.5t-18 87t-54.5 32.5q-62 0 -107 45t-45 107q0 63 45 107.5t107 44.5q123 0 192.5 -47.5t101.5 -122.5t41.5 -159t11 -159t9.5 -122.5t39 -47.5h6h1h4v0q59 -5 100.5 -49t41.5 -104z" />
    <glyph glyph-name="asciitilde" unicode="~" horiz-adv-x="880" 
d="M91 1046q-43 14 -64 56.5t-8 83.5q19 53 53.5 102.5t88 82t128.5 32.5q78 0 137 -30.5t105 -59.5q19 -11 33.5 -19.5t36.5 -8.5q37 0 53.5 18t21 37t3.5 21q17 43 61.5 60t84.5 0q41 -18 59 -61.5t1 -84.5q-41 -92 -116 -153.5t-168 -61.5q-58 0 -108 19.5t-99 55.5
q-22 18 -42.5 30.5t-49.5 12.5t-45 -15.5t-21.5 -30.5t-4.5 -14q-13 -43 -55.5 -64.5t-84.5 -7.5z" />
    <glyph glyph-name="uni00A0" unicode="&#xa0;" horiz-adv-x="300" 
 />
    <glyph glyph-name="exclamdown" unicode="&#xa1;" horiz-adv-x="583" 
d="M88 1029q0 36 21 81t63 78t103 33q35 0 82 -17.5t83 -59.5t36 -114q0 -80 -57.5 -138.5t-139.5 -58.5q-60 0 -102.5 31t-65.5 76.5t-23 88.5zM343 -398q-61 -8 -111.5 30.5t-59.5 100.5q-18 137 -28.5 249t-14.5 227.5t-4 261.5v61t1 64q2 63 46.5 105t106.5 42
q64 0 109 -44.5t43 -107.5q-1 -30 -1 -60.5v-59.5q0 -143 3.5 -252.5t13.5 -213.5t27 -232q8 -61 -30.5 -111.5t-100.5 -59.5z" />
    <glyph glyph-name="cent" unicode="&#xa2;" horiz-adv-x="1071" 
d="M572 -517q-62 0 -107 45t-45 107v256q-183 54 -285.5 206.5t-102.5 370.5q0 151 48.5 280t135.5 224t204 142v202q0 63 45 108t107 45q63 0 107.5 -45t44.5 -108v-171q143 -25 255 -123q47 -40 52 -103.5t-36 -110.5q-40 -47 -103.5 -51.5t-110.5 35.5q-67 57 -145 57
q-87 0 -154 -51.5t-105.5 -141.5t-38.5 -206q0 -133 64 -208t191 -75q56 0 128.5 13.5t132.5 33.5q60 17 116 -13.5t72 -90.5q17 -61 -13.5 -115.5t-90.5 -72.5q-121 -40 -214 -52v-235q0 -62 -44.5 -107t-107.5 -45z" />
    <glyph glyph-name="sterling" unicode="&#xa3;" horiz-adv-x="1464" 
d="M84 684q11 49 51 82.5t94 33.5v139q0 148 48 275.5t145.5 205.5t247.5 78q131 0 226 -53.5t153 -143.5t77 -201q11 -66 -26 -115t-94 -60q-67 -13 -117.5 26t-60.5 97q-12 71 -47.5 108.5t-110.5 37.5q-53 0 -83 -39.5t-42 -98t-12 -117.5v-162q59 3 115 10.5t105 16.5
q65 13 114 -22.5t62 -90.5q17 -69 -21 -121.5t-98 -63.5q-64 -13 -139 -22t-155 -12q-24 -151 -79 -271q60 -15 127 -24.5t146 -9.5q64 0 136.5 8.5t127 33.5t63.5 74q10 53 52 88.5t98 35.5q68 0 115.5 -52.5t32.5 -126.5q-25 -133 -115.5 -213.5t-223.5 -116t-286 -35.5
q-172 0 -315.5 37t-250.5 80q-43 17 -69.5 56.5t-26.5 84.5q0 32 14.5 62.5t34.5 49.5q44 40 72.5 110.5t42.5 152.5q-9 3 -18 5q-56 14 -91 65t-19 118z" />
    <glyph glyph-name="currency" unicode="&#xa4;" horiz-adv-x="1159" 
d="M1085 -70q-47 -40 -110.5 -35.5t-104.5 51.5l-10 12q-61 -44 -134.5 -69.5t-160.5 -25.5q-80 0 -148.5 22t-125.5 61l-2 -3q-41 -46 -104.5 -49.5t-110.5 38.5q-46 42 -49 105.5t38 109.5l34 37q-65 143 -65 302q0 83 17.5 169.5t54.5 167.5l-41 44q-42 46 -39.5 109.5
t48.5 105.5t109.5 39.5t105.5 -48.5l9 -10q60 42 133.5 66t162.5 24q83 0 152.5 -22t126.5 -61v0q41 47 105 51t110 -37q47 -41 51 -104t-37 -110l-36 -40q31 -71 46.5 -146t15.5 -146q0 -82 -18.5 -169t-56.5 -168l50 -57q41 -47 36 -110t-52 -104zM592 849
q-109 0 -181.5 -98.5t-72.5 -264.5q0 -100 33 -171.5t85 -109.5t109 -38q63 0 122 48t97 132t38 191q0 139 -67.5 225t-162.5 86z" />
    <glyph glyph-name="yen" unicode="&#xa5;" horiz-adv-x="1307" 
d="M156 107q-7 62 32 112.5t100 57.5q124 15 242 21t235 6q130 0 262 -6q63 -3 105 -50t40 -109q-3 -63 -50 -105t-109 -40q-126 6 -248 6q-110 0 -218 -5.5t-221 -19.5q-62 -7 -112 32t-58 100zM147 508q-7 62 32 112.5t100 57.5q124 15 242 21t235 6q130 0 262 -6
q63 -3 105 -50t40 -109q-3 -63 -50 -105t-109 -40q-126 6 -248 6q-110 0 -218 -5.5t-221 -19.5q-62 -7 -112 32t-58 100zM664 -152q-63 -1 -108.5 43t-46.5 106l-10 590l-437 642q-36 51 -25.5 113t60.5 98q51 36 113 25.5t98 -60.5l339 -506l359 495q35 52 98 63.5
t114 -23.5q52 -34 63.5 -97.5t-23.5 -114.5l-455 -637l10 -582q1 -63 -43 -108.5t-106 -46.5z" />
    <glyph glyph-name="brokenbar" unicode="&#xa6;" horiz-adv-x="429" 
d="M214 1513q63 0 108 -44.5t45 -107.5q0 -109 -1 -227.5t-3 -241.5q-1 -62 -47 -106t-109 -43q-62 2 -106 47t-43 108q2 122 2.5 238.5t0.5 224.5q0 63 45.5 107.5t107.5 44.5zM232 649q62 -1 106.5 -46.5t42.5 -108.5q-3 -135 -7.5 -263.5t-10.5 -239.5q-4 -62 -50.5 -104
t-109.5 -39q-62 4 -104.5 51t-39.5 110q6 108 10.5 232.5t7.5 258.5q2 62 47 106.5t108 42.5z" />
    <glyph glyph-name="section" unicode="&#xa7;" horiz-adv-x="1000" 
d="M37 672q0 85 38 147t100 104q-47 43 -75.5 100t-28.5 132q0 121 68 198t177.5 120t237.5 59.5t248 16.5q63 0 107 -44.5t44 -106.5q0 -63 -44 -107t-107 -44q-55 0 -126 -4.5t-137.5 -16t-110 -33.5t-43.5 -58q0 -44 65 -71.5t144 -48.5q84 -22 169.5 -61.5t142.5 -110.5
t57 -188q0 -85 -37.5 -147t-99.5 -104q46 -43 74.5 -100t28.5 -132q0 -121 -68 -198t-177.5 -120t-237.5 -59.5t-248 -16.5q-63 0 -107 44.5t-44 106.5q0 63 44 107t107 44q55 0 126 4.5t138 16t110.5 33.5t43.5 58q0 45 -65 72t-144 48q-63 17 -128 42.5t-120 66.5
t-88.5 102t-33.5 149zM312 672q0 -38 30.5 -61.5t72 -37t76.5 -20.5h2q79 6 137 33.5t58 68.5q0 39 -30.5 62.5t-72.5 36.5t-75 20h-2q-79 -6 -137.5 -33.5t-58.5 -68.5z" />
    <glyph glyph-name="dieresis" unicode="&#xa8;" horiz-adv-x="698" 
d="M645 1210q0 -56 -40 -90.5t-89 -34.5q-55 0 -91.5 39t-36.5 85q0 55 33.5 94.5t85.5 39.5q57 0 97.5 -39t40.5 -94zM320 1226q0 -59 -41 -100t-100 -41q-54 0 -85 42t-31 87q0 53 37.5 91t90.5 38q47 0 88 -31.5t41 -85.5z" />
    <glyph glyph-name="copyright" unicode="&#xa9;" horiz-adv-x="1693" 
d="M1059 875q-24 -27 -60 -29.5t-63 20.5q-36 33 -85 33q-52 0 -96.5 -31t-71.5 -82t-27 -110q0 -74 32.5 -113.5t114.5 -39.5q47 0 83.5 12t71.5 33q30 19 65 9.5t54 -39.5q19 -31 10.5 -66t-39.5 -54q-48 -30 -109.5 -49.5t-135.5 -19.5q-105 0 -177 45.5t-109 120.5
t-37 161q0 98 46.5 189t130 149.5t194.5 58.5q58 0 108.5 -20t90.5 -55q27 -23 29.5 -59.5t-20.5 -63.5zM7 616q0 200 68 365t184.5 284t264.5 183.5t307 64.5q183 0 338.5 -59.5t271.5 -163.5t180 -240.5t64 -289.5q0 -201 -69.5 -361t-195.5 -273t-296 -173t-372 -60
q-137 0 -269.5 56t-240 155.5t-171.5 230.5t-64 281zM313 616q0 -76 39.5 -150.5t104.5 -135t142 -97t153 -36.5q306 0 467.5 148.5t161.5 414.5q0 108 -64.5 211t-187.5 170.5t-298 67.5q-93 0 -185 -39.5t-167.5 -115.5t-120.5 -186t-45 -252z" />
    <glyph glyph-name="ordfeminine" unicode="&#xaa;" horiz-adv-x="946" 
d="M404 824q-88 0 -152 46.5t-99 122.5t-35 163q0 97 40.5 182.5t114.5 139t174 53.5q111 0 185 -65q6 14 11 25q13 26 41 35.5t55 -3.5q26 -13 35.5 -41t-3.5 -55q-12 -25 -28 -87.5t-24 -130.5q-1 -17 -4 -35q-1 -21 -1 -40q0 -92 21 -129t31 -37q29 0 50.5 -21.5
t21.5 -50.5t-21.5 -50.5t-50.5 -21.5q-57 0 -93.5 27t-58.5 67q-36 -42 -87.5 -68t-122.5 -26zM404 968q70 0 112.5 61t54.5 148q2 27 5 55v15q0 84 -33 112t-96 28q-74 0 -129.5 -63.5t-55.5 -167.5q0 -94 43 -141t99 -47z" />
    <glyph glyph-name="guillemotleft" unicode="&#xab;" horiz-adv-x="1103" 
d="M968 224q-36 -22 -79.5 -11.5t-64.5 46.5q-105 170 -245 291q-34 30 -30.5 82t32.5 77q70 58 131 129t110 158q21 36 63.5 48.5t78.5 -8.5q37 -21 49 -63.5t-9 -78.5q-44 -77 -95.5 -141t-107.5 -126q56 -60 107 -123.5t94 -135.5q22 -36 11.5 -79.5t-45.5 -64.5z
M530 224q-36 -22 -79.5 -11.5t-64.5 46.5q-105 170 -245 291q-34 30 -30.5 82t32.5 77q70 58 131 129t110 158q21 36 63.5 48.5t78.5 -8.5q37 -21 49 -63.5t-9 -78.5q-44 -77 -95.5 -141t-107.5 -126q56 -60 107 -123.5t94 -135.5q22 -36 11.5 -79.5t-45.5 -64.5z" />
    <glyph glyph-name="logicalnot" unicode="&#xac;" horiz-adv-x="985" 
d="M7 661q0 63 45.5 107.5t107.5 44.5h645q69 0 110.5 -51t41.5 -101v-273q0 -62 -44.5 -107.5t-107.5 -45.5q-62 0 -107 45.5t-45 107.5v121h-493q-62 0 -107.5 45t-45.5 107z" />
    <glyph glyph-name="uni00AD" unicode="&#xad;" horiz-adv-x="1037" 
d="M39 622q-7 62 32 112.5t100 57.5q124 15 242 21t235 6q130 0 262 -6q63 -3 105 -50t40 -109q-3 -63 -50 -105t-109 -40q-126 6 -248 6q-110 0 -218 -5.5t-221 -19.5q-62 -7 -112 32t-58 100z" />
    <glyph glyph-name="registered" unicode="&#xae;" horiz-adv-x="1693" 
d="M564 844q-28 22 -33.5 57.5t15.5 63.5q45 62 113 95t141 33q70 0 139.5 -31.5t116.5 -92t47 -147.5q0 -67 -33 -123t-87 -88q50 -40 113 -73q31 -17 41 -52t-7 -66q-18 -31 -53 -41.5t-66 7.5q-60 33 -120.5 75.5t-112.5 95.5q-4 -53 -10 -110q-4 -36 -32.5 -58.5
t-63.5 -18.5q-36 3 -58.5 32t-18.5 65q9 86 16.5 178t13.5 182q-35 -3 -61 17zM801 890q-3 -71 -8 -151q8 2 17 2q69 0 93.5 25t24.5 56q0 32 -35.5 63.5t-92.5 31.5h-2q4 -13 3 -27zM7 616q0 200 68 365t184.5 284t264.5 183.5t307 64.5q183 0 338.5 -59.5t271.5 -163.5
t180 -240.5t64 -289.5q0 -201 -69.5 -361t-195.5 -273t-296 -173t-372 -60q-137 0 -269.5 56t-240 155.5t-171.5 230.5t-64 281zM313 616q0 -76 39.5 -150.5t104.5 -135t142 -97t153 -36.5q306 0 467.5 148.5t161.5 414.5q0 108 -64.5 211t-187.5 170.5t-298 67.5
q-93 0 -185 -39.5t-167.5 -115.5t-120.5 -186t-45 -252z" />
    <glyph glyph-name="macron" unicode="&#xaf;" horiz-adv-x="1037" 
d="M39 1330q-7 62 32 112.5t100 57.5q124 15 242 21t235 6q130 0 262 -6q63 -3 105 -50t40 -109q-3 -63 -50 -105t-109 -40q-126 6 -248 6q-110 0 -218 -5.5t-221 -19.5q-62 -7 -112 32t-58 100z" />
    <glyph glyph-name="degree" unicode="&#xb0;" horiz-adv-x="840" 
d="M711 1398q0 -77 -42 -141t-110.5 -101.5t-148.5 -37.5q-72 0 -134 38t-99.5 100t-37.5 135q0 79 40 147t105.5 110t139.5 42q80 0 145 -41.5t103.5 -108.5t38.5 -142zM535 1401q0 43 -33 78t-78 35q-39 0 -74 -36t-35 -82q0 -40 31 -71t70 -31q49 0 84 33t35 74z" />
    <glyph glyph-name="plusminus" unicode="&#xb1;" horiz-adv-x="1037" 
d="M40 626q-7 62 32 112.5t100 57.5q58 7 115 12t113 8q-5 92 -16 180q-7 62 31.5 113t100.5 58q62 8 112.5 -31.5t57.5 -101.5q7 -54 11.5 -106.5t7.5 -104.5q102 -1 206 -6q63 -3 105 -50t40 -109q-3 -63 -50 -105t-109 -40q-94 4 -185 6q-1 -112 -6 -224
q-3 -63 -49.5 -104.5t-108.5 -39.5q-63 3 -105.5 49.5t-40.5 108.5q5 102 6 203q-100 -6 -198 -18q-62 -7 -112 32t-58 100zM39 130q-7 62 32 112.5t100 57.5q124 15 242 21t235 6q130 0 262 -6q63 -3 105 -50t40 -109q-3 -63 -50 -105t-109 -40q-126 6 -248 6
q-110 0 -218 -5.5t-221 -19.5q-62 -7 -112 32t-58 100z" />
    <glyph glyph-name="uni00B2" unicode="&#xb2;" horiz-adv-x="728" 
d="M195 1238q-29 2 -49.5 24.5t-20.5 51.5q0 60 26 114t75 88t117 34q104 0 168.5 -66t64.5 -170q0 -105 -43 -161t-118 -116l-45 -33l160 -4q29 0 50.5 -21.5t21.5 -50.5t-22 -50.5t-51 -21.5l-350 4q-30 0 -51 22q-23 21 -22 53.5t26 52.5l171 136q68 55 98 96t30 102
q0 38 -20.5 61t-58.5 23q-37 0 -60.5 -26.5t-23.5 -73.5q0 -29 -22 -49.5t-51 -18.5z" />
    <glyph glyph-name="uni00B3" unicode="&#xb3;" horiz-adv-x="674" 
d="M201 1169q-2 28 17 49.5t46 22.5l6 1q8 0 20 3q50 10 83 37t33 55q0 50 -53 50q-51 0 -90 -52q-13 -23 -44 -30.5t-57 7.5q-24 14 -30.5 43.5t8.5 56.5q44 65 93 92t120 27q83 0 140 -52t57 -130t-69 -144q38 -29 61.5 -69t23.5 -81q0 -55 -30 -102t-81 -76t-114 -29
q-121 0 -194 60q-23 18 -27 48.5t14 52.5q18 23 48 26t53 -15q18 -13 43 -20.5t68 -7.5q76 0 76 61q0 27 -18 44.5t-56 17.5q-25 0 -73 -8q-23 -5 -44 10t-28 39v1q-1 2 -1 5v2q-1 4 -1 3v2z" />
    <glyph glyph-name="acute" unicode="&#xb4;" horiz-adv-x="532" 
d="M422 1544q26 -20 29 -53.5t-17 -58.5q-56 -70 -102.5 -138.5t-87.5 -157.5q-13 -29 -45.5 -41.5t-61.5 0.5q-28 13 -40.5 45.5t0.5 61.5q47 103 101.5 181t110.5 148q20 26 54 29.5t59 -16.5z" />
    <glyph glyph-name="mu" unicode="&#xb5;" horiz-adv-x="1206" 
d="M1128 980q-20 -214 -29.5 -363t-9.5 -262q0 -94 6 -172.5t19 -158.5q11 -69 -24 -111.5t-87 -55.5q-59 -14 -117.5 15t-71.5 105q-3 17 -5 34q-66 -72 -147 -116.5t-177 -44.5q-45 0 -86 8q6 -86 13 -168.5t15 -158.5q7 -62 -33.5 -111t-102.5 -56t-111 34t-56 103
q-18 182 -33.5 398.5t-15.5 430.5q0 161 1.5 332.5t10.5 340.5q4 56 44 102.5t112 46.5q62 0 108 -45t42 -104q-5 -110 -8 -207t-3 -184q0 -223 31.5 -340.5t110.5 -117.5q72 0 122.5 68t86.5 177t62 233v0q5 81 13 174t18 202q7 73 59.5 105.5t110.5 26.5q55 -5 97 -45.5
t35 -114.5z" />
    <glyph glyph-name="paragraph" unicode="&#xb6;" horiz-adv-x="1329" 
d="M630 1107q37 0 62 -25t25 -62v-557q21 -2 43 -2q46 0 90 8v491q0 37 23.5 62t59.5 25q37 0 60 -25t23 -62v-461q38 -7 70 -32t46 -63q22 -58 -4 -116t-84 -80l-28 -10v-640q0 -36 -23 -61.5t-60 -25.5q-36 0 -59.5 25.5t-23.5 61.5v602q-45 -5 -90 -5q-21 0 -43 1v-538
q0 -36 -25 -61.5t-62 -25.5q-36 0 -61.5 25.5t-25.5 61.5v567q-139 38 -259 123t-193.5 212t-73.5 291q0 146 57 271t156 218.5t226.5 146t268.5 52.5q179 0 321.5 -70.5t237.5 -181.5q41 -47 36.5 -110.5t-51.5 -104.5q-47 -40 -110.5 -36t-104.5 51q-58 66 -138 106
t-191 40q-110 0 -201.5 -52t-146 -139t-54.5 -191q0 -95 61 -176t159 -127v512q0 37 25.5 62t61.5 25z" />
    <glyph glyph-name="periodcentered" unicode="&#xb7;" horiz-adv-x="488" 
d="M106 750q0 47 26 89.5t69 69.5t94 27q65 0 103.5 -31t56 -73t17.5 -75q0 -37 -20.5 -82.5t-61 -78t-100.5 -32.5q-71 0 -111 33t-56.5 76.5t-16.5 76.5z" />
    <glyph glyph-name="cedilla" unicode="&#xb8;" horiz-adv-x="727" 
d="M219 96q39 49 102 55.5t112 -33.5q39 -31 87.5 -79t94 -110t75 -135.5t29.5 -154.5q0 -109 -58.5 -173t-148.5 -91.5t-183 -27.5q-57 0 -108.5 7t-92.5 19q-60 17 -90 72.5t-14 115.5q17 60 73 91.5t115 13.5q16 -5 48 -10t59 -5q36 0 63 9.5t27 31.5q0 21 -31 57.5
t-70.5 74t-66.5 58.5q-49 39 -55 102t33 112z" />
    <glyph glyph-name="uni00B9" unicode="&#xb9;" horiz-adv-x="536" 
d="M338 860q-29 2 -48.5 25.5t-18.5 52.5l24 370q-26 -13 -50 -24.5t-50 -22.5q-27 -10 -53.5 2.5t-37.5 39.5q-10 27 2 55t39 39q51 20 96.5 49.5t85.5 65.5q22 19 47 19q32 0 54 -22.5t20 -53.5l-32 -528q-1 -29 -25 -48.5t-53 -18.5z" />
    <glyph glyph-name="ordmasculine" unicode="&#xba;" horiz-adv-x="830" 
d="M711 1398q0 -77 -42 -141t-110.5 -101.5t-148.5 -37.5q-72 0 -134 38t-99.5 100t-37.5 135q0 79 40 147t105.5 110t139.5 42q80 0 145 -41.5t103.5 -108.5t38.5 -142zM535 1401q0 43 -33 78t-78 35q-39 0 -74 -36t-35 -82q0 -40 31 -71t70 -31q49 0 84 33t35 74z" />
    <glyph glyph-name="guillemotright" unicode="&#xbb;" horiz-adv-x="1103" 
d="M594 1035q35 22 78.5 11.5t64.5 -45.5q104 -171 245 -292q35 -30 31 -82t-33 -77q-70 -58 -131 -128.5t-111 -158.5q-20 -37 -62 -49t-79 9t-48.5 63t9.5 79q44 77 94.5 141.5t107.5 125.5q-55 60 -106 123.5t-95 136.5q-22 35 -11.5 78.5t46.5 64.5zM156 1035
q35 22 78.5 11.5t64.5 -45.5q104 -171 245 -292q35 -30 31 -82t-33 -77q-70 -58 -131 -128.5t-111 -158.5q-20 -37 -62 -49t-79 9t-48.5 63t9.5 79q44 77 94.5 141.5t107.5 125.5q-55 60 -106 123.5t-95 136.5q-22 35 -11.5 78.5t46.5 64.5z" />
    <glyph glyph-name="onequarter" unicode="&#xbc;" horiz-adv-x="2016" 
d="M389 416q-43 3 -71 36t-26 75l56 849q-32 -20 -63.5 -39t-60.5 -36q-37 -22 -80.5 -10.5t-63.5 45.5q-21 37 -9.5 80t47.5 63q62 37 124.5 85t117.5 99q10 10 31.5 19t39.5 9h35q44 0 75 -33.5t29 -77.5l-70 -1067q-3 -43 -36 -71t-75 -26zM424 -32q-31 29 -32.5 73.5
t26.5 75.5q132 140 276 312.5t282.5 356t256 358.5t198.5 320q21 37 63.5 49t78.5 -8q37 -21 48.5 -62.5t-8.5 -78.5q-86 -154 -207 -335t-262 -368.5t-287.5 -364t-284.5 -322.5q-29 -31 -73 -32.5t-75 26.5zM1623 361q41 -4 69 -38t25 -76l-23 -235q78 11 138 26
q41 10 78.5 -13t46.5 -64q10 -40 -13 -77.5t-64 -47.5q-93 -22 -207 -37l-17 -177q-4 -41 -38 -69t-76 -25q-41 4 -69 38.5t-25 75.5l14 139q-104 -5 -205.5 -1.5t-189.5 15.5q-7 1 -20.5 5.5t-20.5 8.5q-37 23 -47 68.5t18 82.5q42 57 103 152.5t126.5 206.5t121 218
t87.5 187q16 38 55.5 56t79.5 2q38 -16 56 -55.5t2 -79.5q-38 -95 -99 -210.5t-130 -232.5t-131 -218q53 1 107 2.5t107 4.5l27 274q4 41 38.5 69t75.5 25z" />
    <glyph glyph-name="onehalf" unicode="&#xbd;" horiz-adv-x="2070" 
d="M389 417q-43 2 -71 35t-26 75l56 849q-32 -20 -63.5 -39t-60.5 -36q-37 -22 -80.5 -10.5t-63.5 45.5q-21 37 -9.5 79.5t47.5 63.5q62 37 124.5 85t117.5 99q10 10 31.5 19t39.5 9h35q44 0 75 -33.5t29 -77.5l-70 -1067q-3 -43 -36 -71t-75 -25zM424 -32
q-31 29 -32.5 73.5t26.5 75.5q132 140 276 312.5t282.5 356t256 358.5t198.5 320q21 37 63.5 49t78.5 -8q37 -20 48.5 -62t-8.5 -79q-86 -155 -207 -335.5t-262 -368t-287.5 -364t-284.5 -322.5q-29 -32 -73 -33t-75 27zM1765 412q0 68 -47 111.5t-128 43.5t-128 -53.5
t-47 -143.5q0 -46 -28 -65.5t-77 -19.5q-52 0 -78.5 35.5t-26.5 90.5q0 166 106.5 266.5t281.5 100.5q113 0 199 -51t134.5 -135.5t48.5 -185.5q0 -99 -47.5 -189.5t-127.5 -176t-178 -172.5l-82 -73q26 2 52.5 2h53.5q62 0 127 -2t132 -6q42 -3 71 -33.5t29 -72.5
q0 -44 -31.5 -75t-74.5 -29q-82 5 -149 6.5t-127 1.5q-91 0 -176.5 -4.5t-171.5 -12.5q-48 -4 -76 28.5t-29 77t32 76.5l284 269q109 104 169.5 171t85 117t24.5 103z" />
    <glyph glyph-name="threequarters" unicode="&#xbe;" horiz-adv-x="2166" 
d="M839 829q0 -125 -62 -214t-159.5 -135.5t-205.5 -46.5q-81 0 -161.5 27.5t-146.5 81.5q-33 26 -37.5 70t22.5 76q27 33 71 37t76 -22q72 -60 176 -60q95 0 157 42.5t62 124.5q-1 56 -42.5 90.5t-114.5 34.5q-28 0 -65 -7q-19 -4 -36.5 -8t-32.5 -8q-41 -9 -78 14t-47 65
q-9 41 14 78t65 47l5 1q14 4 28.5 7.5t30.5 7.5q113 31 178 76.5t65 116.5q0 61 -35.5 95.5t-83.5 34.5q-61 0 -102.5 -38t-53.5 -89q-10 -42 -47 -65t-78 -14q-42 10 -65 47t-14 78q21 92 78 156.5t133.5 98.5t155.5 34q83 0 156 -42t118.5 -121.5t45.5 -192.5
q0 -78 -27.5 -135.5t-72.5 -99.5q55 -40 91 -101t39 -142zM574 -32q-31 29 -32.5 73.5t26.5 75.5q132 140 276 312.5t282.5 356t256 358.5t198.5 320q21 37 63.5 49t78.5 -8q37 -21 48.5 -62.5t-8.5 -78.5q-86 -154 -207 -335t-262 -368.5t-287.5 -364t-284.5 -322.5
q-29 -31 -73 -32.5t-75 26.5zM1773 361q41 -4 69 -38t25 -76l-23 -235q78 11 138 26q41 10 78.5 -13t46.5 -64q10 -40 -13 -77.5t-64 -47.5q-93 -22 -207 -37l-17 -177q-4 -41 -38 -69t-76 -25q-41 4 -69 38.5t-25 75.5l14 139q-104 -5 -205.5 -1.5t-189.5 15.5
q-7 1 -20.5 5.5t-20.5 8.5q-37 23 -47 68.5t18 82.5q42 57 103 152.5t126.5 206.5t121 218t87.5 187q16 38 55.5 56t79.5 2q38 -16 56 -55.5t2 -79.5q-38 -95 -99 -210.5t-130 -232.5t-131 -218q53 1 107 2.5t107 4.5l27 274q4 41 38.5 69t75.5 25z" />
    <glyph glyph-name="questiondown" unicode="&#xbf;" horiz-adv-x="1155" 
d="M418 1025q0 81 58 138.5t139 57.5q78 0 137.5 -55.5t59.5 -140.5q0 -82 -57.5 -140t-139.5 -58q-84 0 -140.5 60t-56.5 138zM1042 -15q32 -54 25.5 -102.5t-34.5 -87t-63 -64.5q-73 -56 -176.5 -93t-228.5 -37q-129 0 -235 52t-169 147.5t-63 226.5q0 88 35.5 151.5
t90 110t109.5 84.5q59 40 96 77.5t37 87.5q0 12 -1 20t-3 17q-17 71 25 120.5t97 58.5q76 12 121.5 -23t60.5 -92q12 -43 12 -96q0 -88 -32.5 -150.5t-83 -108t-105.5 -84.5q-97 -69 -126 -104.5t-29 -73.5q0 -62 49 -89.5t118 -27.5q65 0 131.5 26t103.5 59q57 47 129 51
t109 -56z" />
    <glyph glyph-name="Agrave" unicode="&#xc0;" horiz-adv-x="1376" 
d="M122 -147q-56 25 -78.5 85.5t2.5 116.5l538 1324q26 60 90.5 81t122.5 -11q51 -29 68 -77l478 -1316q23 -58 -2.5 -116.5t-83.5 -81.5q-58 -22 -116.5 3t-81.5 83l-74 209l-565 22l-96 -246q-25 -56 -85 -78.5t-117 2.5zM713 925l-176 -450l339 -13zM617 2143
q26 20 59.5 16.5t52.5 -29.5q51 -65 102 -157t88 -173q13 -28 0.5 -61t-41.5 -46q-28 -13 -60.5 -0.5t-45.5 41.5q-22 49 -52 105.5t-60.5 107.5t-56.5 84q-19 26 -15 59t29 53z" />
    <glyph glyph-name="Aacute" unicode="&#xc1;" horiz-adv-x="1376" 
d="M122 -147q-56 25 -78.5 85.5t2.5 116.5l538 1324q26 60 90.5 81t122.5 -11q51 -29 68 -77l478 -1316q23 -58 -2.5 -116.5t-83.5 -81.5q-58 -22 -116.5 3t-81.5 83l-74 209l-565 22l-96 -246q-25 -56 -85 -78.5t-117 2.5zM713 925l-176 -450l339 -13zM898 2141
q26 -20 29 -53.5t-17 -58.5q-56 -70 -102.5 -138.5t-87.5 -157.5q-13 -29 -45.5 -41.5t-61.5 0.5q-28 13 -40.5 45.5t0.5 61.5q47 103 101.5 181t110.5 148q20 26 54 29.5t59 -16.5z" />
    <glyph glyph-name="Acircumflex" unicode="&#xc2;" horiz-adv-x="1376" 
d="M122 -147q-56 25 -78.5 85.5t2.5 116.5l538 1324q26 60 90.5 81t122.5 -11q51 -29 68 -77l478 -1316q23 -58 -2.5 -116.5t-83.5 -81.5q-58 -22 -116.5 3t-81.5 83l-74 209l-565 22l-96 -246q-25 -56 -85 -78.5t-117 2.5zM713 925l-176 -450l339 -13zM534 1699
q-27 17 -34.5 49t9.5 60l166 270q12 20 38 27t52.5 2t39.5 -22l192 -241q20 -25 17 -59t-29 -54q-25 -19 -58.5 -15.5t-53.5 29.5l-123 152l-105 -173q-16 -27 -49.5 -34.5t-61.5 9.5z" />
    <glyph glyph-name="Atilde" unicode="&#xc3;" horiz-adv-x="1376" 
d="M122 -147q-56 25 -78.5 85.5t2.5 116.5l538 1324q26 60 90.5 81t122.5 -11q51 -29 68 -77l478 -1316q23 -58 -2.5 -116.5t-83.5 -81.5q-58 -22 -116.5 3t-81.5 83l-74 209l-565 22l-96 -246q-25 -56 -85 -78.5t-117 2.5zM713 925l-176 -450l339 -13zM393 1663
q-43 14 -64 56.5t-8 83.5q19 53 53.5 102.5t88 82t128.5 32.5q78 0 137 -30.5t105 -59.5q19 -11 33.5 -19.5t36.5 -8.5q37 0 53.5 18t21 37t3.5 21q17 43 61.5 60t84.5 0q41 -18 59 -61.5t1 -84.5q-41 -92 -116 -153.5t-168 -61.5q-58 0 -108 19.5t-99 55.5
q-22 18 -42.5 30.5t-49.5 12.5t-45 -15.5t-21.5 -30.5t-4.5 -14q-13 -43 -55.5 -64.5t-84.5 -7.5z" />
    <glyph glyph-name="Adieresis" unicode="&#xc4;" horiz-adv-x="1376" 
d="M122 -147q-56 25 -78.5 85.5t2.5 116.5l538 1324q26 60 90.5 81t122.5 -11q51 -29 68 -77l478 -1316q23 -58 -2.5 -116.5t-83.5 -81.5q-58 -22 -116.5 3t-81.5 83l-74 209l-565 22l-96 -246q-25 -56 -85 -78.5t-117 2.5zM713 925l-176 -450l339 -13zM1050 1827
q0 -56 -40 -90.5t-89 -34.5q-55 0 -91.5 39t-36.5 85q0 55 33.5 94.5t85.5 39.5q57 0 97.5 -39t40.5 -94zM725 1843q0 -59 -41 -100t-100 -41q-54 0 -85 42t-31 87q0 53 37.5 91t90.5 38q47 0 88 -31.5t41 -85.5z" />
    <glyph glyph-name="Aring" unicode="&#xc5;" horiz-adv-x="1376" 
d="M122 -147q-56 25 -78.5 85.5t2.5 116.5l538 1324q26 60 90.5 81t122.5 -11q51 -29 68 -77l478 -1316q23 -58 -2.5 -116.5t-83.5 -81.5q-58 -22 -116.5 3t-81.5 83l-74 209l-565 22l-96 -246q-25 -56 -85 -78.5t-117 2.5zM713 925l-176 -450l339 -13zM1124 1967
q0 -77 -42 -141t-110.5 -101.5t-148.5 -37.5q-72 0 -134 38t-99.5 100t-37.5 135q0 79 40 147t105.5 110t139.5 42q80 0 145 -41.5t103.5 -108.5t38.5 -142zM948 1970q0 43 -33 78t-78 35q-39 0 -74 -36t-35 -82q0 -40 31 -71t70 -31q49 0 84 33t35 74z" />
    <glyph glyph-name="AE" unicode="&#xc6;" horiz-adv-x="1918" 
d="M1906 1409q15 -61 -18.5 -115t-94.5 -68q-135 -31 -274.5 -46t-284.5 -15h-45v-46v-140.5t-1 -145.5q136 -1 264.5 -5t233.5 -13q62 -5 103 -53.5t36 -110.5q-5 -63 -53.5 -104t-110.5 -36q-96 8 -222 12.5t-261 5.5q-5 -82 -12.5 -157t-18.5 -140q-3 -23 -4 -33.5
t-1 -16.5q0 -13 39.5 -20.5t83.5 -9.5q95 -6 174.5 -9.5t172.5 -3.5h61t60 1q62 2 108.5 -42t47.5 -106q2 -63 -42.5 -108.5t-106.5 -47.5q-33 -1 -64.5 -1h-63.5q-98 0 -183.5 3.5t-181.5 9.5q-58 3 -128.5 20t-135 53t-106.5 97.5t-42 154.5q0 20 2 37t6 35q10 57 17 129
t12 152q-105 -1 -210 -4t-183 -8l-178 -561q-17 -60 -72.5 -84t-117.5 0q-57 23 -69.5 74.5t1.5 112.5l341 1269q17 62 55.5 108.5t105.5 43.5q19 -1 88 -2t162 -2l186 -2t163 -1.5t90 -0.5q130 0 252.5 13t236.5 40q62 15 115.5 -18.5t67.5 -94.5zM687 1170l-110 -346
q72 3 150.5 4.5t155.5 2.5q1 75 1.5 147.5t0.5 140.5v49q-52 0 -102.5 0.5t-95.5 1.5z" />
    <glyph glyph-name="Ccedilla" unicode="&#xc7;" horiz-adv-x="1261" 
d="M1190 1230q-25 -57 -85 -79.5t-116 2.5q-92 40 -200 40q-144 0 -244.5 -70t-153.5 -190t-53 -271q0 -145 50.5 -256.5t150 -175t246.5 -63.5q124 0 231 56q56 29 115.5 10.5t88.5 -74.5q29 -55 10.5 -115t-74.5 -89q-176 -92 -371 -92q-172 0 -310.5 60.5t-237.5 169.5
t-152 254.5t-53 314.5t52 320t150.5 267.5t238.5 183t316 66.5q83 0 164.5 -16.5t159.5 -51.5q57 -25 80 -85t-3 -116zM601 110q39 49 102 55.5t112 -33.5q39 -31 87.5 -79t94 -110t75 -135.5t29.5 -154.5q0 -109 -58.5 -173t-148.5 -91.5t-183 -27.5q-57 0 -108.5 7
t-92.5 19q-60 17 -90 72.5t-14 115.5q17 60 73 91.5t115 13.5q16 -5 48 -10t59 -5q36 0 63 9.5t27 31.5q0 21 -31 57.5t-70.5 74t-66.5 58.5q-49 39 -55 102t33 112z" />
    <glyph glyph-name="Egrave" unicode="&#xc8;" horiz-adv-x="1138" 
d="M34 676q-6 48 16.5 89.5t61.5 63.5q2 68 2 131q0 71 -2 124t-6.5 104.5t-13.5 117.5q-4 32 13 73.5t54.5 71.5t92.5 26q62 -4 123.5 -6t121.5 -2q113 0 230 9.5t202 28.5q62 14 115.5 -19.5t66.5 -94.5q14 -61 -19.5 -114.5t-94.5 -67.5q-115 -27 -245 -37.5t-255 -10.5
q-21 0 -43 0.5t-42 1.5q3 -47 5.5 -96.5t2.5 -108.5q0 -46 -1 -95q51 2 106 2q188 0 378 -23q62 -7 101.5 -57.5t31.5 -112.5q-7 -61 -57.5 -100t-112.5 -32q-164 19 -341 19q-65 0 -120 -2q-5 -73 -12 -142.5t-16 -131.5q-3 -19 -3 -40q0 -34 31 -43.5t121.5 -7t266.5 2.5
h77.5t73.5 1q63 2 109 -42.5t47 -106.5q2 -63 -43 -108t-107 -47q-39 -1 -78 -1h-79q-70 0 -164 -3.5t-191.5 4.5t-181 42t-135 107.5t-51.5 201.5q0 17 1 35.5t4 39.5q8 54 14 117.5t11 131.5q-58 39 -66 107zM458 2142q26 20 59.5 16.5t52.5 -29.5q51 -65 102 -157
t88 -173q13 -28 0.5 -61t-41.5 -46q-28 -13 -60.5 -0.5t-45.5 41.5q-22 49 -52 105.5t-60.5 107.5t-56.5 84q-19 26 -15 59t29 53z" />
    <glyph glyph-name="Eacute" unicode="&#xc9;" horiz-adv-x="1138" 
d="M34 676q-6 48 16.5 89.5t61.5 63.5q2 68 2 131q0 71 -2 124t-6.5 104.5t-13.5 117.5q-4 32 13 73.5t54.5 71.5t92.5 26q62 -4 123.5 -6t121.5 -2q113 0 230 9.5t202 28.5q62 14 115.5 -19.5t66.5 -94.5q14 -61 -19.5 -114.5t-94.5 -67.5q-115 -27 -245 -37.5t-255 -10.5
q-21 0 -43 0.5t-42 1.5q3 -47 5.5 -96.5t2.5 -108.5q0 -46 -1 -95q51 2 106 2q188 0 378 -23q62 -7 101.5 -57.5t31.5 -112.5q-7 -61 -57.5 -100t-112.5 -32q-164 19 -341 19q-65 0 -120 -2q-5 -73 -12 -142.5t-16 -131.5q-3 -19 -3 -40q0 -34 31 -43.5t121.5 -7t266.5 2.5
h77.5t73.5 1q63 2 109 -42.5t47 -106.5q2 -63 -43 -108t-107 -47q-39 -1 -78 -1h-79q-70 0 -164 -3.5t-191.5 4.5t-181 42t-135 107.5t-51.5 201.5q0 17 1 35.5t4 39.5q8 54 14 117.5t11 131.5q-58 39 -66 107zM753 2141q26 -20 29 -53.5t-17 -58.5q-56 -70 -102.5 -138.5
t-87.5 -157.5q-13 -29 -45.5 -41.5t-61.5 0.5q-28 13 -40.5 45.5t0.5 61.5q47 103 101.5 181t110.5 148q20 26 54 29.5t59 -16.5z" />
    <glyph glyph-name="Ecircumflex" unicode="&#xca;" horiz-adv-x="1138" 
d="M34 676q-6 48 16.5 89.5t61.5 63.5q2 68 2 131q0 71 -2 124t-6.5 104.5t-13.5 117.5q-4 32 13 73.5t54.5 71.5t92.5 26q62 -4 123.5 -6t121.5 -2q113 0 230 9.5t202 28.5q62 14 115.5 -19.5t66.5 -94.5q14 -61 -19.5 -114.5t-94.5 -67.5q-115 -27 -245 -37.5t-255 -10.5
q-21 0 -43 0.5t-42 1.5q3 -47 5.5 -96.5t2.5 -108.5q0 -46 -1 -95q51 2 106 2q188 0 378 -23q62 -7 101.5 -57.5t31.5 -112.5q-7 -61 -57.5 -100t-112.5 -32q-164 19 -341 19q-65 0 -120 -2q-5 -73 -12 -142.5t-16 -131.5q-3 -19 -3 -40q0 -34 31 -43.5t121.5 -7t266.5 2.5
h77.5t73.5 1q63 2 109 -42.5t47 -106.5q2 -63 -43 -108t-107 -47q-39 -1 -78 -1h-79q-70 0 -164 -3.5t-191.5 4.5t-181 42t-135 107.5t-51.5 201.5q0 17 1 35.5t4 39.5q8 54 14 117.5t11 131.5q-58 39 -66 107zM385 1699q-27 17 -34.5 49t9.5 60l166 270q12 20 38 27t52.5 2
t39.5 -22l192 -241q20 -25 17 -59t-29 -54q-25 -19 -58.5 -15.5t-53.5 29.5l-123 152l-105 -173q-16 -27 -49.5 -34.5t-61.5 9.5z" />
    <glyph glyph-name="Edieresis" unicode="&#xcb;" horiz-adv-x="1138" 
d="M34 676q-6 48 16.5 89.5t61.5 63.5q2 68 2 131q0 71 -2 124t-6.5 104.5t-13.5 117.5q-4 32 13 73.5t54.5 71.5t92.5 26q62 -4 123.5 -6t121.5 -2q113 0 230 9.5t202 28.5q62 14 115.5 -19.5t66.5 -94.5q14 -61 -19.5 -114.5t-94.5 -67.5q-115 -27 -245 -37.5t-255 -10.5
q-21 0 -43 0.5t-42 1.5q3 -47 5.5 -96.5t2.5 -108.5q0 -46 -1 -95q51 2 106 2q188 0 378 -23q62 -7 101.5 -57.5t31.5 -112.5q-7 -61 -57.5 -100t-112.5 -32q-164 19 -341 19q-65 0 -120 -2q-5 -73 -12 -142.5t-16 -131.5q-3 -19 -3 -40q0 -34 31 -43.5t121.5 -7t266.5 2.5
h77.5t73.5 1q63 2 109 -42.5t47 -106.5q2 -63 -43 -108t-107 -47q-39 -1 -78 -1h-79q-70 0 -164 -3.5t-191.5 4.5t-181 42t-135 107.5t-51.5 201.5q0 17 1 35.5t4 39.5q8 54 14 117.5t11 131.5q-58 39 -66 107zM898 1827q0 -56 -40 -90.5t-89 -34.5q-55 0 -91.5 39t-36.5 85
q0 55 33.5 94.5t85.5 39.5q57 0 97.5 -39t40.5 -94zM573 1843q0 -59 -41 -100t-100 -41q-54 0 -85 42t-31 87q0 53 37.5 91t90.5 38q47 0 88 -31.5t41 -85.5z" />
    <glyph glyph-name="Igrave" unicode="&#xcc;" horiz-adv-x="475" 
d="M222 -152q-63 2 -106.5 47.5t-42.5 108.5l35 1361q2 62 47.5 106t108.5 42q62 -1 106 -47t42 -108l-35 -1361q-1 -63 -47 -106.5t-108 -42.5zM110 2142q26 20 59.5 16.5t52.5 -29.5q51 -65 102 -157t88 -173q13 -28 0.5 -61t-41.5 -46q-28 -13 -60.5 -0.5t-45.5 41.5
q-22 49 -52 105.5t-60.5 107.5t-56.5 84q-19 26 -15 59t29 53z" />
    <glyph glyph-name="Iacute" unicode="&#xcd;" horiz-adv-x="475" 
d="M222 -152q-63 2 -106.5 47.5t-42.5 108.5l35 1361q2 62 47.5 106t108.5 42q62 -1 106 -47t42 -108l-35 -1361q-1 -63 -47 -106.5t-108 -42.5zM391 2141q26 -20 29 -53.5t-17 -58.5q-56 -70 -102.5 -138.5t-87.5 -157.5q-13 -29 -45.5 -41.5t-61.5 0.5q-28 13 -40.5 45.5
t0.5 61.5q47 103 101.5 181t110.5 148q20 26 54 29.5t59 -16.5z" />
    <glyph glyph-name="Icircumflex" unicode="&#xce;" horiz-adv-x="475" 
d="M222 -152q-63 2 -106.5 47.5t-42.5 108.5l35 1361q2 62 47.5 106t108.5 42q62 -1 106 -47t42 -108l-35 -1361q-1 -63 -47 -106.5t-108 -42.5zM27 1699q-27 17 -34.5 49t9.5 60l166 270q12 20 38 27t52.5 2t39.5 -22l192 -241q20 -25 17 -59t-29 -54q-25 -19 -58.5 -15.5
t-53.5 29.5l-123 152l-105 -173q-16 -27 -49.5 -34.5t-61.5 9.5z" />
    <glyph glyph-name="Idieresis" unicode="&#xcf;" horiz-adv-x="475" 
d="M222 -152q-63 2 -106.5 47.5t-42.5 108.5l35 1361q2 62 47.5 106t108.5 42q62 -1 106 -47t42 -108l-35 -1361q-1 -63 -47 -106.5t-108 -42.5zM543 1827q0 -56 -40 -90.5t-89 -34.5q-55 0 -91.5 39t-36.5 85q0 55 33.5 94.5t85.5 39.5q57 0 97.5 -39t40.5 -94zM218 1843
q0 -59 -41 -100t-100 -41q-54 0 -85 42t-31 87q0 53 37.5 91t90.5 38q47 0 88 -31.5t41 -85.5z" />
    <glyph glyph-name="Eth" unicode="&#xd0;" horiz-adv-x="1341" 
d="M-38 690q-4 53 30.5 93.5t86.5 44.5q94 7 189 10q0 90 -3 162.5t-9 145.5t-16 164q-7 60 31.5 107t86.5 57q109 25 223 25q182 0 339 -51t275 -152t184.5 -250t66.5 -345q0 -174 -61.5 -325.5t-172.5 -267t-260 -180.5t-325 -65q-160 0 -307 57q-50 20 -76 67.5t-20 94.5
q14 112 24.5 240.5t15.5 258.5q-83 -3 -165 -9q-52 -4 -92.5 31t-44.5 87zM557 1193q7 -88 11 -172t4 -186q52 -3 101 -7q52 -4 86.5 -45t30.5 -93t-45.5 -87t-92.5 -31q-41 3 -84 6q-8 -206 -27 -402q42 -9 86 -9q147 0 263.5 69.5t184 190.5t67.5 274q0 254 -141.5 373
t-419.5 119q-6 0 -12 0.5t-12 -0.5z" />
    <glyph glyph-name="Ntilde" unicode="&#xd1;" horiz-adv-x="1347" 
d="M217 -152q-62 3 -104 50.5t-40 109.5q17 333 29 652.5t16 657.5q1 66 50.5 111t114.5 39q33 -3 62.5 -21.5t45.5 -38.5q156 -205 301.5 -419.5t278.5 -431.5l9 806q1 62 46 106.5t108 43.5q62 -1 106.5 -46t43.5 -108l-15 -1357q-1 -34 -18.5 -69t-49.5 -56
q-54 -36 -119.5 -20t-97.5 73q-129 233 -272.5 468t-299.5 461q-6 -216 -15 -431.5t-20 -435.5q-3 -62 -50 -104t-110 -40zM326 1598q-43 14 -64 56.5t-8 83.5q19 53 53.5 102.5t88 82t128.5 32.5q78 0 137 -30.5t105 -59.5q19 -11 33.5 -19.5t36.5 -8.5q37 0 53.5 18t21 37
t3.5 21q17 43 61.5 60t84.5 0q41 -18 59 -61.5t1 -84.5q-41 -92 -116 -153.5t-168 -61.5q-58 0 -108 19.5t-99 55.5q-22 18 -42.5 30.5t-49.5 12.5t-45 -15.5t-21.5 -30.5t-4.5 -14q-13 -43 -55.5 -64.5t-84.5 -7.5z" />
    <glyph glyph-name="Ograve" unicode="&#xd2;" horiz-adv-x="1525" 
d="M738 -137q-153 0 -282 56.5t-224 158.5t-147.5 238.5t-52.5 296.5q0 168 56.5 326.5t161 284.5t250 200.5t324.5 74.5q167 0 293.5 -71.5t212 -190.5t129 -263t43.5 -290q0 -172 -57 -321t-160 -261.5t-242.5 -175.5t-304.5 -63zM738 167q129 0 233 63t165.5 179.5
t61.5 274.5q0 150 -50.5 265t-135 179.5t-188.5 64.5q-132 0 -242.5 -77.5t-177 -209t-66.5 -293.5q0 -141 52 -240.5t142.5 -152.5t205.5 -53zM657 2142q26 20 59.5 16.5t52.5 -29.5q51 -65 102 -157t88 -173q13 -28 0.5 -61t-41.5 -46q-28 -13 -60.5 -0.5t-45.5 41.5
q-22 49 -52 105.5t-60.5 107.5t-56.5 84q-19 26 -15 59t29 53z" />
    <glyph glyph-name="Oacute" unicode="&#xd3;" horiz-adv-x="1525" 
d="M738 -137q-153 0 -282 56.5t-224 158.5t-147.5 238.5t-52.5 296.5q0 168 56.5 326.5t161 284.5t250 200.5t324.5 74.5q167 0 293.5 -71.5t212 -190.5t129 -263t43.5 -290q0 -172 -57 -321t-160 -261.5t-242.5 -175.5t-304.5 -63zM738 167q129 0 233 63t165.5 179.5
t61.5 274.5q0 150 -50.5 265t-135 179.5t-188.5 64.5q-132 0 -242.5 -77.5t-177 -209t-66.5 -293.5q0 -141 52 -240.5t142.5 -152.5t205.5 -53zM938 2141q26 -20 29 -53.5t-17 -58.5q-56 -70 -102.5 -138.5t-87.5 -157.5q-13 -29 -45.5 -41.5t-61.5 0.5q-28 13 -40.5 45.5
t0.5 61.5q47 103 101.5 181t110.5 148q20 26 54 29.5t59 -16.5z" />
    <glyph glyph-name="Ocircumflex" unicode="&#xd4;" horiz-adv-x="1525" 
d="M738 -137q-153 0 -282 56.5t-224 158.5t-147.5 238.5t-52.5 296.5q0 168 56.5 326.5t161 284.5t250 200.5t324.5 74.5q167 0 293.5 -71.5t212 -190.5t129 -263t43.5 -290q0 -172 -57 -321t-160 -261.5t-242.5 -175.5t-304.5 -63zM738 167q129 0 233 63t165.5 179.5
t61.5 274.5q0 150 -50.5 265t-135 179.5t-188.5 64.5q-132 0 -242.5 -77.5t-177 -209t-66.5 -293.5q0 -141 52 -240.5t142.5 -152.5t205.5 -53zM574 1699q-27 17 -34.5 49t9.5 60l166 270q12 20 38 27t52.5 2t39.5 -22l192 -241q20 -25 17 -59t-29 -54q-25 -19 -58.5 -15.5
t-53.5 29.5l-123 152l-105 -173q-16 -27 -49.5 -34.5t-61.5 9.5z" />
    <glyph glyph-name="Otilde" unicode="&#xd5;" horiz-adv-x="1525" 
d="M738 -137q-153 0 -282 56.5t-224 158.5t-147.5 238.5t-52.5 296.5q0 168 56.5 326.5t161 284.5t250 200.5t324.5 74.5q167 0 293.5 -71.5t212 -190.5t129 -263t43.5 -290q0 -172 -57 -321t-160 -261.5t-242.5 -175.5t-304.5 -63zM738 167q129 0 233 63t165.5 179.5
t61.5 274.5q0 150 -50.5 265t-135 179.5t-188.5 64.5q-132 0 -242.5 -77.5t-177 -209t-66.5 -293.5q0 -141 52 -240.5t142.5 -152.5t205.5 -53zM433 1663q-43 14 -64 56.5t-8 83.5q19 53 53.5 102.5t88 82t128.5 32.5q78 0 137 -30.5t105 -59.5q19 -11 33.5 -19.5t36.5 -8.5
q37 0 53.5 18t21 37t3.5 21q17 43 61.5 60t84.5 0q41 -18 59 -61.5t1 -84.5q-41 -92 -116 -153.5t-168 -61.5q-58 0 -108 19.5t-99 55.5q-22 18 -42.5 30.5t-49.5 12.5t-45 -15.5t-21.5 -30.5t-4.5 -14q-13 -43 -55.5 -64.5t-84.5 -7.5z" />
    <glyph glyph-name="Odieresis" unicode="&#xd6;" horiz-adv-x="1525" 
d="M738 -137q-153 0 -282 56.5t-224 158.5t-147.5 238.5t-52.5 296.5q0 168 56.5 326.5t161 284.5t250 200.5t324.5 74.5q167 0 293.5 -71.5t212 -190.5t129 -263t43.5 -290q0 -172 -57 -321t-160 -261.5t-242.5 -175.5t-304.5 -63zM738 167q129 0 233 63t165.5 179.5
t61.5 274.5q0 150 -50.5 265t-135 179.5t-188.5 64.5q-132 0 -242.5 -77.5t-177 -209t-66.5 -293.5q0 -141 52 -240.5t142.5 -152.5t205.5 -53zM1090 1827q0 -56 -40 -90.5t-89 -34.5q-55 0 -91.5 39t-36.5 85q0 55 33.5 94.5t85.5 39.5q57 0 97.5 -39t40.5 -94zM765 1843
q0 -59 -41 -100t-100 -41q-54 0 -85 42t-31 87q0 53 37.5 91t90.5 38q47 0 88 -31.5t41 -85.5z" />
    <glyph glyph-name="multiply" unicode="&#xd7;" horiz-adv-x="882" 
d="M75 280q-45 39 -47 102.5t41 112.5q82 93 172 184q-74 62 -140 106q-51 34 -59 96t29 115q38 53 101.5 66.5t113.5 -19.5q46 -31 93 -67.5t93 -76.5q37 33 75.5 66t77.5 66q50 42 113 39t101 -50q38 -46 29.5 -109.5t-59.5 -105.5q-34 -28 -66.5 -56t-63.5 -56
q53 -60 86.5 -109t66.5 -103q32 -51 18 -114.5t-67 -101.5q-52 -38 -114 -28.5t-94 61.5q-10 15 -45.5 68t-80.5 109q-80 -82 -157 -170q-43 -49 -107 -56t-110 31z" />
    <glyph glyph-name="Oslash" unicode="&#xd8;" horiz-adv-x="1494" 
d="M78 -115q-28 19 -34 52t11 59q54 80 113 162q-65 93 -100.5 209t-35.5 246q0 168 56.5 326.5t161 284.5t250 200.5t324.5 74.5q126 0 229.5 -42.5t183.5 -115.5q45 41 91 83q25 21 58.5 20t55.5 -26q21 -24 20 -57.5t-26 -55.5l-94 -86q80 -114 120 -254.5t40 -280.5
q0 -172 -57 -321t-160 -261.5t-242.5 -175.5t-304.5 -63q-136 0 -253.5 45.5t-208.5 126.5q-45 -64 -87 -127q-19 -27 -52 -33.5t-59 10.5zM338 613q0 -106 31 -191q151 187 314.5 364.5t330.5 340.5q-87 66 -190 66q-132 0 -242.5 -77.5t-177 -209t-66.5 -293.5zM738 167
q129 0 233 63t165.5 179.5t61.5 274.5q0 95 -21 176.5t-58 145.5q-172 -169 -339.5 -352t-321.5 -377q109 -110 280 -110z" />
    <glyph glyph-name="Ugrave" unicode="&#xd9;" horiz-adv-x="1350" 
d="M331 1483q62 -13 96.5 -66.5t20.5 -114.5q-25 -114 -40.5 -216.5t-22.5 -207t-7 -224.5q0 -237 65.5 -362t212.5 -125q179 0 252.5 215.5t73.5 616.5q0 51 -1 119.5t-2.5 133.5t-3.5 102q-2 63 40.5 109.5t104.5 49.5q62 2 108.5 -40t50.5 -105q2 -38 4 -105t3.5 -138.5
t1.5 -125.5q0 -352 -59.5 -607t-198 -392t-374.5 -137q-199 0 -328.5 102.5t-192.5 287.5t-63 432q0 176 19 335.5t59 345.5q14 62 67 96.5t114 20.5zM538 2142q26 20 59.5 16.5t52.5 -29.5q51 -65 102 -157t88 -173q13 -28 0.5 -61t-41.5 -46q-28 -13 -60.5 -0.5
t-45.5 41.5q-22 49 -52 105.5t-60.5 107.5t-56.5 84q-19 26 -15 59t29 53z" />
    <glyph glyph-name="Uacute" unicode="&#xda;" horiz-adv-x="1350" 
d="M331 1483q62 -13 96.5 -66.5t20.5 -114.5q-25 -114 -40.5 -216.5t-22.5 -207t-7 -224.5q0 -237 65.5 -362t212.5 -125q179 0 252.5 215.5t73.5 616.5q0 51 -1 119.5t-2.5 133.5t-3.5 102q-2 63 40.5 109.5t104.5 49.5q62 2 108.5 -40t50.5 -105q2 -38 4 -105t3.5 -138.5
t1.5 -125.5q0 -352 -59.5 -607t-198 -392t-374.5 -137q-199 0 -328.5 102.5t-192.5 287.5t-63 432q0 176 19 335.5t59 345.5q14 62 67 96.5t114 20.5zM819 2141q26 -20 29 -53.5t-17 -58.5q-56 -70 -102.5 -138.5t-87.5 -157.5q-13 -29 -45.5 -41.5t-61.5 0.5
q-28 13 -40.5 45.5t0.5 61.5q47 103 101.5 181t110.5 148q20 26 54 29.5t59 -16.5z" />
    <glyph glyph-name="Ucircumflex" unicode="&#xdb;" horiz-adv-x="1350" 
d="M331 1483q62 -13 96.5 -66.5t20.5 -114.5q-25 -114 -40.5 -216.5t-22.5 -207t-7 -224.5q0 -237 65.5 -362t212.5 -125q179 0 252.5 215.5t73.5 616.5q0 51 -1 119.5t-2.5 133.5t-3.5 102q-2 63 40.5 109.5t104.5 49.5q62 2 108.5 -40t50.5 -105q2 -38 4 -105t3.5 -138.5
t1.5 -125.5q0 -352 -59.5 -607t-198 -392t-374.5 -137q-199 0 -328.5 102.5t-192.5 287.5t-63 432q0 176 19 335.5t59 345.5q14 62 67 96.5t114 20.5zM461 1699q-27 17 -34.5 49t9.5 60l166 270q12 20 38 27t52.5 2t39.5 -22l192 -241q20 -25 17 -59t-29 -54
q-25 -19 -58.5 -15.5t-53.5 29.5l-123 152l-105 -173q-16 -27 -49.5 -34.5t-61.5 9.5z" />
    <glyph glyph-name="Udieresis" unicode="&#xdc;" horiz-adv-x="1350" 
d="M331 1483q62 -13 96.5 -66.5t20.5 -114.5q-25 -114 -40.5 -216.5t-22.5 -207t-7 -224.5q0 -237 65.5 -362t212.5 -125q179 0 252.5 215.5t73.5 616.5q0 51 -1 119.5t-2.5 133.5t-3.5 102q-2 63 40.5 109.5t104.5 49.5q62 2 108.5 -40t50.5 -105q2 -38 4 -105t3.5 -138.5
t1.5 -125.5q0 -352 -59.5 -607t-198 -392t-374.5 -137q-199 0 -328.5 102.5t-192.5 287.5t-63 432q0 176 19 335.5t59 345.5q14 62 67 96.5t114 20.5zM976 1827q0 -56 -40 -90.5t-89 -34.5q-55 0 -91.5 39t-36.5 85q0 55 33.5 94.5t85.5 39.5q57 0 97.5 -39t40.5 -94z
M651 1843q0 -59 -41 -100t-100 -41q-54 0 -85 42t-31 87q0 53 37.5 91t90.5 38q47 0 88 -31.5t41 -85.5z" />
    <glyph glyph-name="Yacute" unicode="&#xdd;" horiz-adv-x="1307" 
d="M664 -152q-63 -1 -108.5 43t-46.5 106l-10 590l-437 642q-36 51 -25.5 113t60.5 98q51 36 113 25.5t98 -60.5l339 -506l359 495q35 52 98 63.5t114 -23.5q52 -34 63.5 -97.5t-23.5 -114.5l-455 -637l10 -582q1 -63 -43 -108.5t-106 -46.5zM811 2141q26 -20 29 -53.5
t-17 -58.5q-56 -70 -102.5 -138.5t-87.5 -157.5q-13 -29 -45.5 -41.5t-61.5 0.5q-28 13 -40.5 45.5t0.5 61.5q47 103 101.5 181t110.5 148q20 26 54 29.5t59 -16.5z" />
    <glyph glyph-name="Thorn" unicode="&#xde;" horiz-adv-x="1166" 
d="M222 -540q-63 2 -106.5 60.5t-42.5 137.5l16 810v20q0 26 2 53l17 856q2 80 47.5 136t108.5 54q62 -1 106 -59.5t42 -138.5l-6 -291q52 27 112.5 42t130.5 15q136 0 236.5 -56.5t166.5 -148t98.5 -199.5t32.5 -211q0 -113 -35 -231.5t-105 -219t-175.5 -162.5t-245.5 -62
q-68 0 -128 16t-111 45l-6 -276q-1 -80 -47 -136t-108 -54zM649 851q-109 0 -181.5 -98.5t-72.5 -264.5q0 -100 33 -171.5t85 -109.5t109 -38q63 0 122 48t97 132t38 191q0 139 -67.5 225t-162.5 86z" />
    <glyph glyph-name="germandbls" unicode="&#xdf;" horiz-adv-x="1134" 
d="M571 1499q105 0 184.5 -41t133 -106.5t80 -142.5t26.5 -149q0 -120 -43.5 -207.5t-121.5 -149.5q-56 -44 -56 -69q0 -14 13 -24t30 -19q39 -20 92 -52.5t102.5 -81t82.5 -116.5t33 -159q0 -94 -45.5 -156t-116 -98t-146.5 -51.5t-137 -15.5t-126 12.5t-127 47.5
q-47 26 -67 77v-5q-4 -62 -52 -103.5t-111 -37.5q-62 5 -103.5 52.5t-37.5 110.5q19 279 38.5 534t48.5 482q28 215 140.5 341.5t285.5 126.5zM447 992q-24 -190 -42 -407t-34 -457q31 54 79 68t106 -6q25 -9 61 -18t67 -9q26 0 57.5 4t55 14.5t23.5 28.5q0 21 -37 49
t-103 62q-43 23 -92 61t-84 96t-35 141q0 111 54 191.5t115 130.5q27 22 39 52.5t12 66.5q0 53 -33 93t-85 40q-25 0 -49.5 -14t-44 -57t-30.5 -130z" />
    <glyph glyph-name="agrave" unicode="&#xe0;" horiz-adv-x="1309" 
d="M1137 -107q-77 0 -135 28.5t-98 80.5q-152 -139 -359 -139q-149 0 -264.5 73.5t-181 202t-66.5 293.5q-1 145 43 275t124 230.5t187.5 158t233.5 57.5q131 0 241 -71q22 30 58 45t77 10q62 -9 105 -60t39 -111l-25 -468l-2 -30q-2 -43 -3 -95.5t1 -78.5q2 -37 16 -65
t59 -40q36 -13 69.5 -45t33.5 -99q0 -62 -45 -107t-108 -45zM549 167q111 0 178.5 85t81.5 257q0 13 1 24q0 6 1 12l10 173q-39 62 -89.5 96.5t-113.5 34.5q-85 0 -148.5 -57.5t-97.5 -153t-34 -210.5q2 -125 56.5 -193t154.5 -68zM488 1797q26 20 59.5 16.5t52.5 -29.5
q51 -65 102 -157t88 -173q13 -28 0.5 -61t-41.5 -46q-28 -13 -60.5 -0.5t-45.5 41.5q-22 49 -52 105.5t-60.5 107.5t-56.5 84q-19 26 -15 59t29 53z" />
    <glyph glyph-name="aacute" unicode="&#xe1;" horiz-adv-x="1309" 
d="M1137 -107q-77 0 -135 28.5t-98 80.5q-152 -139 -359 -139q-149 0 -264.5 73.5t-181 202t-66.5 293.5q-1 145 43 275t124 230.5t187.5 158t233.5 57.5q131 0 241 -71q22 30 58 45t77 10q62 -9 105 -60t39 -111l-25 -468l-2 -30q-2 -43 -3 -95.5t1 -78.5q2 -37 16 -65
t59 -40q36 -13 69.5 -45t33.5 -99q0 -62 -45 -107t-108 -45zM549 167q111 0 178.5 85t81.5 257q0 13 1 24q0 6 1 12l10 173q-39 62 -89.5 96.5t-113.5 34.5q-85 0 -148.5 -57.5t-97.5 -153t-34 -210.5q2 -125 56.5 -193t154.5 -68zM783 1796q26 -20 29 -53.5t-17 -58.5
q-56 -70 -102.5 -138.5t-87.5 -157.5q-13 -29 -45.5 -41.5t-61.5 0.5q-28 13 -40.5 45.5t0.5 61.5q47 103 101.5 181t110.5 148q20 26 54 29.5t59 -16.5z" />
    <glyph glyph-name="acircumflex" unicode="&#xe2;" horiz-adv-x="1309" 
d="M1137 -107q-77 0 -135 28.5t-98 80.5q-152 -139 -359 -139q-149 0 -264.5 73.5t-181 202t-66.5 293.5q-1 145 43 275t124 230.5t187.5 158t233.5 57.5q131 0 241 -71q22 30 58 45t77 10q62 -9 105 -60t39 -111l-25 -468l-2 -30q-2 -43 -3 -95.5t1 -78.5q2 -37 16 -65
t59 -40q36 -13 69.5 -45t33.5 -99q0 -62 -45 -107t-108 -45zM549 167q111 0 178.5 85t81.5 257q0 13 1 24q0 6 1 12l10 173q-39 62 -89.5 96.5t-113.5 34.5q-85 0 -148.5 -57.5t-97.5 -153t-34 -210.5q2 -125 56.5 -193t154.5 -68zM415 1354q-27 17 -34.5 49t9.5 60l166 270
q12 20 38 27t52.5 2t39.5 -22l192 -241q20 -25 17 -59t-29 -54q-25 -19 -58.5 -15.5t-53.5 29.5l-123 152l-105 -173q-16 -27 -49.5 -34.5t-61.5 9.5z" />
    <glyph glyph-name="atilde" unicode="&#xe3;" horiz-adv-x="1309" 
d="M1137 -107q-77 0 -135 28.5t-98 80.5q-152 -139 -359 -139q-149 0 -264.5 73.5t-181 202t-66.5 293.5q-1 145 43 275t124 230.5t187.5 158t233.5 57.5q131 0 241 -71q22 30 58 45t77 10q62 -9 105 -60t39 -111l-25 -468l-2 -30q-2 -43 -3 -95.5t1 -78.5q2 -37 16 -65
t59 -40q36 -13 69.5 -45t33.5 -99q0 -62 -45 -107t-108 -45zM549 167q111 0 178.5 85t81.5 257q0 13 1 24q0 6 1 12l10 173q-39 62 -89.5 96.5t-113.5 34.5q-85 0 -148.5 -57.5t-97.5 -153t-34 -210.5q2 -125 56.5 -193t154.5 -68zM270 1345q-43 14 -64 56.5t-8 83.5
q19 53 53.5 102.5t88 82t128.5 32.5q78 0 137 -30.5t105 -59.5q19 -11 33.5 -19.5t36.5 -8.5q37 0 53.5 18t21 37t3.5 21q17 43 61.5 60t84.5 0q41 -18 59 -61.5t1 -84.5q-41 -92 -116 -153.5t-168 -61.5q-58 0 -108 19.5t-99 55.5q-22 18 -42.5 30.5t-49.5 12.5t-45 -15.5
t-21.5 -30.5t-4.5 -14q-13 -43 -55.5 -64.5t-84.5 -7.5z" />
    <glyph glyph-name="adieresis" unicode="&#xe4;" horiz-adv-x="1309" 
d="M1137 -107q-77 0 -135 28.5t-98 80.5q-152 -139 -359 -139q-149 0 -264.5 73.5t-181 202t-66.5 293.5q-1 145 43 275t124 230.5t187.5 158t233.5 57.5q131 0 241 -71q22 30 58 45t77 10q62 -9 105 -60t39 -111l-25 -468l-2 -30q-2 -43 -3 -95.5t1 -78.5q2 -37 16 -65
t59 -40q36 -13 69.5 -45t33.5 -99q0 -62 -45 -107t-108 -45zM549 167q111 0 178.5 85t81.5 257q0 13 1 24q0 6 1 12l10 173q-39 62 -89.5 96.5t-113.5 34.5q-85 0 -148.5 -57.5t-97.5 -153t-34 -210.5q2 -125 56.5 -193t154.5 -68zM928 1483q0 -56 -40 -90.5t-89 -34.5
q-55 0 -91.5 39t-36.5 85q0 55 33.5 94.5t85.5 39.5q57 0 97.5 -39t40.5 -94zM603 1499q0 -59 -41 -100t-100 -41q-54 0 -85 42t-31 87q0 53 37.5 91t90.5 38q47 0 88 -31.5t41 -85.5z" />
    <glyph glyph-name="aring" unicode="&#xe5;" horiz-adv-x="1309" 
d="M1137 -107q-77 0 -135 28.5t-98 80.5q-152 -139 -359 -139q-149 0 -264.5 73.5t-181 202t-66.5 293.5q-1 145 43 275t124 230.5t187.5 158t233.5 57.5q131 0 241 -71q22 30 58 45t77 10q62 -9 105 -60t39 -111l-25 -468l-2 -30q-2 -43 -3 -95.5t1 -78.5q2 -37 16 -65
t59 -40q36 -13 69.5 -45t33.5 -99q0 -62 -45 -107t-108 -45zM549 167q111 0 178.5 85t81.5 257q0 13 1 24q0 6 1 12l10 173q-39 62 -89.5 96.5t-113.5 34.5q-85 0 -148.5 -57.5t-97.5 -153t-34 -210.5q2 -125 56.5 -193t154.5 -68zM1004 1623q0 -77 -42 -141t-110.5 -101.5
t-148.5 -37.5q-72 0 -134 38t-99.5 100t-37.5 135q0 79 40 147t105.5 110t139.5 42q80 0 145 -41.5t103.5 -108.5t38.5 -142zM828 1626q0 43 -33 78t-78 35q-39 0 -74 -36t-35 -82q0 -40 31 -71t70 -31q49 0 84 33t35 74z" />
    <glyph glyph-name="ae" unicode="&#xe6;" horiz-adv-x="1926" 
d="M1822 18q-103 -94 -221.5 -124.5t-231.5 -30.5q-127 0 -239 46.5t-188 142.5q-77 -91 -178.5 -140t-221.5 -49q-149 0 -264.5 73.5t-180.5 202t-65 293.5q0 145 49 275t134.5 230.5t197.5 158t238 57.5q142 0 263 -79q25 34 63.5 51.5t81.5 11.5q65 -9 104 -65
q64 38 139 59.5t160 21.5q64 0 132 -21t126 -64.5t94 -108.5t36 -154q0 -78 -27 -143.5t-67.5 -115.5t-81.5 -84t-69 -51q-101 -60 -204 -103.5t-211 -70.5q61 -70 179 -70q164 0 249 77q47 42 110 39t105 -50q42 -46 39 -109.5t-50 -105.5zM1454 849q-74 0 -142 -40.5
t-116.5 -112t-63.5 -164.5q84 19 160.5 48.5t144.5 69.5q68 41 93 72.5t25 57.5q0 32 -27 50.5t-74 18.5zM546 167q165 0 235 193q3 34 20 64q13 52 22 116l24 177q-68 132 -200 132q-85 0 -155 -57.5t-112 -153t-42 -210.5q0 -125 54 -193t154 -68z" />
    <glyph glyph-name="ccedilla" unicode="&#xe7;" horiz-adv-x="1071" 
d="M995 808q-40 -47 -103.5 -51.5t-110.5 35.5q-67 57 -145 57q-87 0 -154 -51.5t-105.5 -141.5t-38.5 -206q0 -133 64 -208t191 -75q56 0 128.5 13.5t132.5 33.5q60 17 116 -13.5t72 -90.5q17 -61 -13.5 -115.5t-90.5 -72.5q-91 -30 -167 -44.5t-152 -14.5
q-182 0 -313.5 75.5t-202.5 212t-71 317.5q0 144 44 268t124 218t189 146.5t238 52.5q203 0 352 -131q47 -40 52 -103.5t-36 -110.5zM387 114q39 49 102 55.5t112 -33.5q39 -31 87.5 -79t94 -110t75 -135.5t29.5 -154.5q0 -109 -58.5 -173t-148.5 -91.5t-183 -27.5
q-57 0 -108.5 7t-92.5 19q-60 17 -90 72.5t-14 115.5q17 60 73 91.5t115 13.5q16 -5 48 -10t59 -5q36 0 63 9.5t27 31.5q0 21 -31 57.5t-70.5 74t-66.5 58.5q-49 39 -55 102t33 112z" />
    <glyph glyph-name="egrave" unicode="&#xe8;" horiz-adv-x="1191" 
d="M1088 18q-103 -94 -222 -124.5t-231 -30.5q-173 0 -314 86t-200 265q-33 18 -55.5 50.5t-24.5 73.5q-5 71 47 121q4 126 49.5 249.5t128.5 224t200 160.5t262 60q64 0 132 -21t126 -64.5t94 -108.5t36 -154q0 -78 -27.5 -143.5t-68 -115.5t-81.5 -84t-69 -51
q-99 -59 -202.5 -102.5t-211.5 -71.5q61 -70 179 -70q164 0 249 77q47 42 110 39t105 -50q42 -46 39 -109.5t-50 -105.5zM719 849q-74 0 -142 -40.5t-116 -112t-63 -164.5q173 40 305 118q68 41 93 72.5t25 57.5q0 32 -27.5 50.5t-74.5 18.5zM475 1797q26 20 59.5 16.5
t52.5 -29.5q51 -65 102 -157t88 -173q13 -28 0.5 -61t-41.5 -46q-28 -13 -60.5 -0.5t-45.5 41.5q-22 49 -52 105.5t-60.5 107.5t-56.5 84q-19 26 -15 59t29 53z" />
    <glyph glyph-name="eacute" unicode="&#xe9;" horiz-adv-x="1191" 
d="M1088 18q-103 -94 -222 -124.5t-231 -30.5q-173 0 -314 86t-200 265q-33 18 -55.5 50.5t-24.5 73.5q-5 71 47 121q4 126 49.5 249.5t128.5 224t200 160.5t262 60q64 0 132 -21t126 -64.5t94 -108.5t36 -154q0 -78 -27.5 -143.5t-68 -115.5t-81.5 -84t-69 -51
q-99 -59 -202.5 -102.5t-211.5 -71.5q61 -70 179 -70q164 0 249 77q47 42 110 39t105 -50q42 -46 39 -109.5t-50 -105.5zM719 849q-74 0 -142 -40.5t-116 -112t-63 -164.5q173 40 305 118q68 41 93 72.5t25 57.5q0 32 -27.5 50.5t-74.5 18.5zM770 1796q26 -20 29 -53.5
t-17 -58.5q-56 -70 -102.5 -138.5t-87.5 -157.5q-13 -29 -45.5 -41.5t-61.5 0.5q-28 13 -40.5 45.5t0.5 61.5q47 103 101.5 181t110.5 148q20 26 54 29.5t59 -16.5z" />
    <glyph glyph-name="ecircumflex" unicode="&#xea;" horiz-adv-x="1191" 
d="M1088 18q-103 -94 -222 -124.5t-231 -30.5q-173 0 -314 86t-200 265q-33 18 -55.5 50.5t-24.5 73.5q-5 71 47 121q4 126 49.5 249.5t128.5 224t200 160.5t262 60q64 0 132 -21t126 -64.5t94 -108.5t36 -154q0 -78 -27.5 -143.5t-68 -115.5t-81.5 -84t-69 -51
q-99 -59 -202.5 -102.5t-211.5 -71.5q61 -70 179 -70q164 0 249 77q47 42 110 39t105 -50q42 -46 39 -109.5t-50 -105.5zM719 849q-74 0 -142 -40.5t-116 -112t-63 -164.5q173 40 305 118q68 41 93 72.5t25 57.5q0 32 -27.5 50.5t-74.5 18.5zM402 1354q-27 17 -34.5 49
t9.5 60l166 270q12 20 38 27t52.5 2t39.5 -22l192 -241q20 -25 17 -59t-29 -54q-25 -19 -58.5 -15.5t-53.5 29.5l-123 152l-105 -173q-16 -27 -49.5 -34.5t-61.5 9.5z" />
    <glyph glyph-name="edieresis" unicode="&#xeb;" horiz-adv-x="1191" 
d="M1088 18q-103 -94 -222 -124.5t-231 -30.5q-173 0 -314 86t-200 265q-33 18 -55.5 50.5t-24.5 73.5q-5 71 47 121q4 126 49.5 249.5t128.5 224t200 160.5t262 60q64 0 132 -21t126 -64.5t94 -108.5t36 -154q0 -78 -27.5 -143.5t-68 -115.5t-81.5 -84t-69 -51
q-99 -59 -202.5 -102.5t-211.5 -71.5q61 -70 179 -70q164 0 249 77q47 42 110 39t105 -50q42 -46 39 -109.5t-50 -105.5zM719 849q-74 0 -142 -40.5t-116 -112t-63 -164.5q173 40 305 118q68 41 93 72.5t25 57.5q0 32 -27.5 50.5t-74.5 18.5zM915 1483q0 -56 -40 -90.5
t-89 -34.5q-55 0 -91.5 39t-36.5 85q0 55 33.5 94.5t85.5 39.5q57 0 97.5 -39t40.5 -94zM590 1499q0 -59 -41 -100t-100 -41q-54 0 -85 42t-31 87q0 53 37.5 91t90.5 38q47 0 88 -31.5t41 -85.5z" />
    <glyph glyph-name="igrave" unicode="&#xec;" horiz-adv-x="475" 
d="M252 1123q63 -3 105 -50t40 -109q-3 -68 -5.5 -166.5t-4 -211t-2.5 -223.5t-1.5 -206t-0.5 -157t-45 -107t-108 -45q-62 0 -107 45t-45 107q0 64 0.5 159t1.5 206.5t3 225t4.5 214t5.5 173.5q3 63 50 105t109 40zM75 1797q26 20 59.5 16.5t52.5 -29.5q51 -65 102 -157
t88 -173q13 -28 0.5 -61t-41.5 -46q-28 -13 -60.5 -0.5t-45.5 41.5q-22 49 -52 105.5t-60.5 107.5t-56.5 84q-19 26 -15 59t29 53z" />
    <glyph glyph-name="iacute" unicode="&#xed;" horiz-adv-x="475" 
d="M252 1123q63 -3 105 -50t40 -109q-3 -68 -5.5 -166.5t-4 -211t-2.5 -223.5t-1.5 -206t-0.5 -157t-45 -107t-108 -45q-62 0 -107 45t-45 107q0 64 0.5 159t1.5 206.5t3 225t4.5 214t5.5 173.5q3 63 50 105t109 40zM356 1796q26 -20 29 -53.5t-17 -58.5
q-56 -70 -102.5 -138.5t-87.5 -157.5q-13 -29 -45.5 -41.5t-61.5 0.5q-28 13 -40.5 45.5t0.5 61.5q47 103 101.5 181t110.5 148q20 26 54 29.5t59 -16.5z" />
    <glyph glyph-name="icircumflex" unicode="&#xee;" horiz-adv-x="475" 
d="M252 1123q63 -3 105 -50t40 -109q-3 -68 -5.5 -166.5t-4 -211t-2.5 -223.5t-1.5 -206t-0.5 -157t-45 -107t-108 -45q-62 0 -107 45t-45 107q0 64 0.5 159t1.5 206.5t3 225t4.5 214t5.5 173.5q3 63 50 105t109 40zM-8 1354q-27 17 -34.5 49t9.5 60l166 270q12 20 38 27
t52.5 2t39.5 -22l192 -241q20 -25 17 -59t-29 -54q-25 -19 -58.5 -15.5t-53.5 29.5l-123 152l-105 -173q-16 -27 -49.5 -34.5t-61.5 9.5z" />
    <glyph glyph-name="idieresis" unicode="&#xef;" horiz-adv-x="475" 
d="M252 1123q63 -3 105 -50t40 -109q-3 -68 -5.5 -166.5t-4 -211t-2.5 -223.5t-1.5 -206t-0.5 -157t-45 -107t-108 -45q-62 0 -107 45t-45 107q0 64 0.5 159t1.5 206.5t3 225t4.5 214t5.5 173.5q3 63 50 105t109 40zM508 1483q0 -56 -40 -90.5t-89 -34.5q-55 0 -91.5 39
t-36.5 85q0 55 33.5 94.5t85.5 39.5q57 0 97.5 -39t40.5 -94zM183 1499q0 -59 -41 -100t-100 -41q-54 0 -85 42t-31 87q0 53 37.5 91t90.5 38q47 0 88 -31.5t41 -85.5z" />
    <glyph glyph-name="eth" unicode="&#xf0;" horiz-adv-x="1099" 
d="M546 -137q-140 0 -242 48.5t-168 130t-97.5 182t-31.5 203.5q0 125 48.5 236.5t134.5 192.5q-30 10 -54 31q-46 41 -49.5 105t38.5 110q29 32 70.5 69t91.5 76q-36 16 -74 31q-58 23 -84 80.5t-4 115.5q23 58 80.5 84.5t115.5 3.5q70 -27 132 -58t117 -66
q66 38 126.5 67.5t109.5 45.5q59 19 115.5 -10t75.5 -88t-10 -116t-88 -76q-24 -8 -77 -37q103 -116 164.5 -241t88 -243t26.5 -215q0 -188 -65 -338t-188.5 -237t-301.5 -87zM575 1007q19 0 37 -5q-24 30 -52 57q-47 -32 -87 -61q50 9 102 9zM313 427q0 -128 50 -194
t183 -66q77 0 133 30.5t87 108.5t31 219q0 60 -16 139t-56 163q-10 -53 -52 -89.5t-98 -36.5q-113 0 -187.5 -77.5t-74.5 -196.5z" />
    <glyph glyph-name="ntilde" unicode="&#xf1;" horiz-adv-x="1206" 
d="M78 22q20 214 29.5 363.5t9.5 261.5q0 95 -6 173.5t-19 157.5q-11 69 24.5 111.5t86.5 55.5q59 14 117.5 -14.5t71.5 -105.5q3 -17 5 -34q66 72 147 116.5t177 44.5q130 0 221.5 -64t140 -172.5t48.5 -243.5q0 -161 -1.5 -332.5t-10.5 -340.5q-4 -56 -44 -102.5
t-112 -46.5q-75 0 -114.5 45t-35.5 103q5 111 8 208t3 183q0 224 -31.5 341.5t-110.5 117.5q-71 0 -122 -68t-87 -177t-62 -233v0q-5 -81 -13 -174t-18 -202q-7 -73 -59 -105.5t-111 -26.5q-55 5 -97 46t-35 114zM264 1324q-43 14 -64 56.5t-8 83.5q19 53 53.5 102.5t88 82
t128.5 32.5q78 0 137 -30.5t105 -59.5q19 -11 33.5 -19.5t36.5 -8.5q37 0 53.5 18t21 37t3.5 21q17 43 61.5 60t84.5 0q41 -18 59 -61.5t1 -84.5q-41 -92 -116 -153.5t-168 -61.5q-58 0 -108 19.5t-99 55.5q-22 18 -42.5 30.5t-49.5 12.5t-45 -15.5t-21.5 -30.5t-4.5 -14
q-13 -43 -55.5 -64.5t-84.5 -7.5z" />
    <glyph glyph-name="ograve" unicode="&#xf2;" horiz-adv-x="1159" 
d="M592 1153q136 0 236.5 -56.5t166.5 -148t98.5 -199.5t32.5 -211q0 -113 -35 -231.5t-105 -219t-175.5 -162.5t-245.5 -62q-130 0 -229.5 55t-167 145.5t-102 201t-34.5 221.5q0 112 33 229t101 216.5t174 160.5t252 61zM592 849q-109 0 -181.5 -98.5t-72.5 -264.5
q0 -100 33 -171.5t85 -109.5t109 -38q63 0 122 48t97 132t38 191q0 139 -67.5 225t-162.5 86zM458 1797q26 20 59.5 16.5t52.5 -29.5q51 -65 102 -157t88 -173q13 -28 0.5 -61t-41.5 -46q-28 -13 -60.5 -0.5t-45.5 41.5q-22 49 -52 105.5t-60.5 107.5t-56.5 84
q-19 26 -15 59t29 53z" />
    <glyph glyph-name="oacute" unicode="&#xf3;" horiz-adv-x="1159" 
d="M592 1153q136 0 236.5 -56.5t166.5 -148t98.5 -199.5t32.5 -211q0 -113 -35 -231.5t-105 -219t-175.5 -162.5t-245.5 -62q-130 0 -229.5 55t-167 145.5t-102 201t-34.5 221.5q0 112 33 229t101 216.5t174 160.5t252 61zM592 849q-109 0 -181.5 -98.5t-72.5 -264.5
q0 -100 33 -171.5t85 -109.5t109 -38q63 0 122 48t97 132t38 191q0 139 -67.5 225t-162.5 86zM739 1796q26 -20 29 -53.5t-17 -58.5q-56 -70 -102.5 -138.5t-87.5 -157.5q-13 -29 -45.5 -41.5t-61.5 0.5q-28 13 -40.5 45.5t0.5 61.5q47 103 101.5 181t110.5 148
q20 26 54 29.5t59 -16.5z" />
    <glyph glyph-name="ocircumflex" unicode="&#xf4;" horiz-adv-x="1159" 
d="M592 1153q136 0 236.5 -56.5t166.5 -148t98.5 -199.5t32.5 -211q0 -113 -35 -231.5t-105 -219t-175.5 -162.5t-245.5 -62q-130 0 -229.5 55t-167 145.5t-102 201t-34.5 221.5q0 112 33 229t101 216.5t174 160.5t252 61zM592 849q-109 0 -181.5 -98.5t-72.5 -264.5
q0 -100 33 -171.5t85 -109.5t109 -38q63 0 122 48t97 132t38 191q0 139 -67.5 225t-162.5 86zM376 1354q-27 17 -34.5 49t9.5 60l166 270q12 20 38 27t52.5 2t39.5 -22l192 -241q20 -25 17 -59t-29 -54q-25 -19 -58.5 -15.5t-53.5 29.5l-123 152l-105 -173
q-16 -27 -49.5 -34.5t-61.5 9.5z" />
    <glyph glyph-name="otilde" unicode="&#xf5;" horiz-adv-x="1159" 
d="M592 1153q136 0 236.5 -56.5t166.5 -148t98.5 -199.5t32.5 -211q0 -113 -35 -231.5t-105 -219t-175.5 -162.5t-245.5 -62q-130 0 -229.5 55t-167 145.5t-102 201t-34.5 221.5q0 112 33 229t101 216.5t174 160.5t252 61zM592 849q-109 0 -181.5 -98.5t-72.5 -264.5
q0 -100 33 -171.5t85 -109.5t109 -38q63 0 122 48t97 132t38 191q0 139 -67.5 225t-162.5 86zM236 1319q-43 14 -64 56.5t-8 83.5q19 53 53.5 102.5t88 82t128.5 32.5q78 0 137 -30.5t105 -59.5q19 -11 33.5 -19.5t36.5 -8.5q37 0 53.5 18t21 37t3.5 21q17 43 61.5 60
t84.5 0q41 -18 59 -61.5t1 -84.5q-41 -92 -116 -153.5t-168 -61.5q-58 0 -108 19.5t-99 55.5q-22 18 -42.5 30.5t-49.5 12.5t-45 -15.5t-21.5 -30.5t-4.5 -14q-13 -43 -55.5 -64.5t-84.5 -7.5z" />
    <glyph glyph-name="odieresis" unicode="&#xf6;" horiz-adv-x="1159" 
d="M592 1153q136 0 236.5 -56.5t166.5 -148t98.5 -199.5t32.5 -211q0 -113 -35 -231.5t-105 -219t-175.5 -162.5t-245.5 -62q-130 0 -229.5 55t-167 145.5t-102 201t-34.5 221.5q0 112 33 229t101 216.5t174 160.5t252 61zM592 849q-109 0 -181.5 -98.5t-72.5 -264.5
q0 -100 33 -171.5t85 -109.5t109 -38q63 0 122 48t97 132t38 191q0 139 -67.5 225t-162.5 86zM891 1483q0 -56 -40 -90.5t-89 -34.5q-55 0 -91.5 39t-36.5 85q0 55 33.5 94.5t85.5 39.5q57 0 97.5 -39t40.5 -94zM566 1499q0 -59 -41 -100t-100 -41q-54 0 -85 42t-31 87
q0 53 37.5 91t90.5 38q47 0 88 -31.5t41 -85.5z" />
    <glyph glyph-name="divide" unicode="&#xf7;" horiz-adv-x="1094" 
d="M39 636q-7 62 32 112.5t100 57.5q124 15 242 21t235 6q130 0 262 -6q63 -3 105 -50t40 -109q-3 -63 -50 -105t-109 -40q-126 6 -248 6q-110 0 -218 -5.5t-221 -19.5q-62 -7 -112 32t-58 100zM360 1119q0 47 26 89.5t69 69.5t94 27q65 0 103.5 -31t56 -73t17.5 -75
q0 -37 -20.5 -82.5t-61 -78t-100.5 -32.5q-71 0 -111 33t-56.5 76.5t-16.5 76.5zM384 244q0 47 26 89.5t69 69.5t94 27q65 0 103.5 -31t56 -73t17.5 -75q0 -37 -20.5 -82.5t-61 -78t-100.5 -32.5q-71 0 -111 33t-56.5 76.5t-16.5 76.5z" />
    <glyph glyph-name="oslash" unicode="&#xf8;" horiz-adv-x="1144" 
d="M70 -182q-28 18 -36.5 51.5t11.5 58.5l130 163q-58 86 -87.5 189t-29.5 206q0 112 33 229t101 216.5t174 160.5t252 61q97 0 176 -30t140 -81l73 91q20 25 55.5 22t57.5 -26q21 -23 19 -55.5t-22 -57.5l-76 -96q56 -86 83.5 -186.5t27.5 -195.5q0 -113 -35 -231.5
t-105 -219t-175.5 -162.5t-245.5 -62q-92 0 -169.5 29t-138.5 79l-104 -130q-21 -25 -52 -32.5t-57 9.5zM618 849q-109 0 -181.5 -98.5t-72.5 -264.5q0 -72 19 -134l360 450q-56 47 -125 47zM848 538q0 64 -16 121l-358 -448q54 -44 117 -44t122 48t97 132t38 191z" />
    <glyph glyph-name="ugrave" unicode="&#xf9;" horiz-adv-x="1206" 
d="M1128 980q-20 -214 -29.5 -363t-9.5 -262q0 -94 6 -172.5t19 -158.5q11 -69 -24 -111.5t-87 -55.5q-59 -14 -117.5 14.5t-71.5 105.5q-3 16 -5 31q-64 -71 -142 -114.5t-170 -43.5q-136 0 -230 64t-143 173t-49 243q0 161 1.5 332.5t10.5 340.5q4 56 44 102.5t112 46.5
q75 0 114 -45t36 -104q-3 -73 -5.5 -146t-4 -163t-1.5 -214q0 -171 31.5 -248.5t110.5 -77.5q72 0 122.5 68t86.5 177t62 233v0q5 81 13 174t18 202q7 73 59.5 105.5t110.5 26.5q55 -5 97 -45.5t35 -114.5zM443 1797q26 20 59.5 16.5t52.5 -29.5q51 -65 102 -157t88 -173
q13 -28 0.5 -61t-41.5 -46q-28 -13 -60.5 -0.5t-45.5 41.5q-22 49 -52 105.5t-60.5 107.5t-56.5 84q-19 26 -15 59t29 53z" />
    </font>
</defs>
</svg>
