<?xml version="1.0" standalone="no"?>
<!DOCTYPE svg PUBLIC "-//W3C//DTD SVG 1.1//EN" "http://www.w3.org/Graphics/SVG/1.1/DTD/svg11.dtd" >
<svg xmlns="http://www.w3.org/2000/svg" xmlns:xlink="http://www.w3.org/1999/xlink" version="1.1">
<metadata>
Created by FontForge 20170731 at Wed Jun  1 20:38:01 2022
 By Aleksey,,,
Copyright 2022 The Estedad Project Authors (https://github.com/aminabedi68/Estedad)
</metadata>
<defs>
<font id="Estedad-FD-Bold" horiz-adv-x="0" >
  <font-face 
    font-family="Estedad-FD Bold"
    font-weight="700"
    font-stretch="normal"
    units-per-em="2048"
    panose-1="0 0 0 0 0 0 0 0 0 0"
    ascent="1638"
    descent="-410"
    x-height="1091"
    cap-height="1452"
    bbox="-697 -1367 4300 2528"
    underline-thickness="150"
    underline-position="-975"
    unicode-range="U+0020-FEFC"
  />
<missing-glyph horiz-adv-x="1024" 
d="M102 -410v2048h820v-2048h-820zM204 -308h616v1844h-616v-1844z" />
    <glyph glyph-name="uni0622" unicode="&#x627;&#x653;" horiz-adv-x="557" 
d="M504 1717l111 -59q-75 -209 -207 -209q-54 0 -134 47q-40 24 -63 32.5t-42 8.5q-34 0 -59 -23.5t-60 -87.5l-108 70q89 204 211 204q51 0 128 -45q47 -28 73 -39t45 -11q32 0 54 23t51 89zM417 1245v-1245h-276v1245h276z" />
    <glyph glyph-name="uni0623" unicode="&#x627;&#x654;" horiz-adv-x="557" 
d="M417 1245v-1245h-276v1245h276zM435 1902l-34 -117q-16 5 -32 8.5t-33 3.5q-49 0 -81 -26t-32 -67q0 -36 27 -58.5t69 -22.5q32 0 65 10l107 35l38 -126l-462 -149l-38 128l154 45v10q-76 37 -76 139q0 89 62.5 147.5t159.5 58.5q44 0 106 -19z" />
    <glyph glyph-name="uni0624" unicode="&#x648;&#x654;" horiz-adv-x="963" 
d="M627 1534l-34 -117q-16 5 -32 8.5t-33 3.5q-49 0 -81 -26t-32 -67q0 -36 27 -58.5t69 -22.5q32 0 65 10l107 35l38 -126l-462 -149l-38 128l154 45v10q-76 37 -76 139q0 89 62.5 147.5t159.5 58.5q44 0 106 -19zM626 6l-8 13q-37 -10 -83 -17t-91 -7q-170 0 -263 90
t-93 263q0 134 41.5 254t126 195t212.5 75q115 0 196.5 -60.5t133 -163.5t75.5 -232.5t24 -266.5q0 -253 -179.5 -422t-528.5 -276l-124 262q210 50 362.5 127.5t198.5 165.5zM632 295q-2 68 -19 133t-53.5 107.5t-98.5 42.5q-72 0 -109.5 -59t-37.5 -129q0 -61 38 -87
t103 -26q48 0 92.5 5.5t84.5 12.5z" />
    <glyph glyph-name="uni0625" unicode="&#x627;&#x655;" horiz-adv-x="557" 
d="M423 -197l-34 -117q-16 5 -32 8.5t-33 3.5q-49 0 -81 -26t-32 -67q0 -36 27 -58.5t69 -22.5q32 0 65 10l107 35l38 -126l-462 -149l-38 128l154 45v10q-76 37 -76 139q0 89 62.5 147.5t159.5 58.5q44 0 106 -19zM417 0h-276v1403h276v-1403z" />
    <glyph glyph-name="uni0626" unicode="&#x649;&#x654;" horiz-adv-x="1575" 
d="M549 1272l-34 -117q-16 5 -32 8.5t-33 3.5q-49 0 -81 -26t-32 -67q0 -36 27 -58.5t69 -22.5q32 0 65 10l107 35l38 -126l-462 -149l-38 128l154 45v10q-76 37 -76 139q0 89 62.5 147.5t159.5 58.5q44 0 106 -19zM1462 925l-89 -249q-109 44 -208 44q-118 0 -198.5 -68.5
t-80.5 -173.5q0 -73 68.5 -95.5t237.5 -36.5q146 -13 228 -73t82 -200q0 -157 -94.5 -274.5t-263.5 -182.5t-392 -65q-322 0 -495 146t-173 414q0 77 13 204.5t34 257.5l266 -48q-24 -140 -35 -230.5t-11 -158.5q0 -150 97.5 -222.5t311.5 -72.5q133 0 243.5 24t177 63.5
t66.5 87.5q0 47 -54.5 60.5t-133.5 18.5q-203 16 -312.5 90.5t-109.5 255.5q0 155 73 279.5t196 198t273 73.5q135 0 283 -67z" />
    <glyph glyph-name="uni06C0" unicode="&#x647;&#x654;" horiz-adv-x="937" 
d="M464 -11q-126 0 -214.5 46.5t-135 126t-46.5 177.5q0 138 69 258t172 226q-24 23 -50 46.5t-52 45.5l171 204q89 -73 176.5 -158t159 -181t114.5 -200.5t43 -216.5q0 -108 -51.5 -192.5t-143 -133t-212.5 -48.5zM464 281q77 0 109 35t32 82q0 56 -35.5 125t-105.5 134
q-69 -64 -105.5 -134.5t-36.5 -124.5q0 -47 32 -82t110 -35zM347 1293q-27 0 -58.5 3.5t-66.5 9.5l31 134q58 -11 114 -11q65 0 114 15t49 48q0 20 -24 29t-77 18q-74 14 -115.5 44.5t-41.5 94.5q0 113 73 182.5t182 69.5q59 0 116 -16l-43 -129q-19 5 -40 8.5t-42 3.5
q-52 0 -89 -23t-37 -63q0 -27 27.5 -38t92.5 -24q65 -11 102.5 -40.5t37.5 -95.5q0 -104 -85.5 -162t-219.5 -58z" />
    <glyph glyph-name="uniFBA5" unicode="&#xfeea;&#x654;" horiz-adv-x="1181" arabic-form="final" 
d="M664 956l-10 167l277 17l36 -609q9 -135 55 -187.5t158 -52.5h1v-291h-1q-143 0 -239 48.5t-155 147.5q-51 -23 -112.5 -36t-117.5 -13q-184 0 -301.5 83.5t-117.5 233.5q0 188 137 315.5t390 176.5zM683 690q-138 -11 -221 -57t-83 -116q0 -54 54.5 -80t139.5 -26
q76 0 133 15q-4 28 -6.5 46.5t-3.5 39.5zM270 1137q-27 0 -58.5 3.5t-66.5 9.5l31 134q58 -11 114 -11q65 0 114 15t49 48q0 20 -24 29t-77 18q-74 14 -115.5 44.5t-41.5 94.5q0 113 73 182.5t182 69.5q59 0 116 -16l-43 -129q-19 5 -40 8.5t-42 3.5q-52 0 -89 -23t-37 -63
q0 -27 27.5 -38t92.5 -24q65 -11 102.5 -40.5t37.5 -95.5q0 -104 -85.5 -162t-219.5 -58z" />
    <glyph glyph-name="uniFDF2" unicode="&#x627;&#xfedf;&#xfee0;&#xfeea;" horiz-adv-x="3097" arabic-form="isolated" 
d="M2958 0h-276v1403h276v-1403zM1908 291q95 0 142.5 17t63.5 60.5t16 121.5v913h278v-913q0 -238 -124 -364t-376 -126q-19 0 -30.5 30.5t-11.5 115.5q0 86 11.5 115.5t30.5 29.5zM1476 2209h134v-408h-134v408zM1530 1505q-11 -40 -41.5 -64t-72.5 -24q-67 0 -106 41.5
t-39 111.5q0 50 8.5 89.5t24.5 88.5l104 -34q-9 -25 -17.5 -56.5t-8.5 -54.5q0 -53 47 -53q28 0 42.5 23t14.5 77v35h98v-35q0 -54 14.5 -77t42.5 -23q45 0 45 53q0 23 -7.5 54.5t-16.5 56.5l104 34q16 -49 24.5 -88.5t8.5 -89.5q0 -70 -39 -111.5t-106 -41.5q-43 0 -73 24
t-41 64h-10zM1537 232q-31 -100 -122 -166t-234 -66q-19 0 -30 30.5t-11 115.5q0 86 11 115.5t30 29.5q98 0 145.5 19t62 63.5t14.5 121.5v758h278v-745q0 -112 44.5 -164.5t180.5 -52.5h1v-291h-1q-147 0 -237.5 66.5t-121.5 165.5h-10zM664 956l-10 167l277 17l36 -609
q9 -135 55 -187.5t158 -52.5h1v-291h-1q-143 0 -239 48.5t-155 147.5q-51 -23 -112.5 -36t-117.5 -13q-184 0 -301.5 83.5t-117.5 233.5q0 188 137 315.5t390 176.5zM683 690q-138 -11 -221 -57t-83 -116q0 -54 54.5 -80t139.5 -26q76 0 133 15q-4 28 -6.5 46.5t-3.5 39.5z
" />
    <glyph glyph-name="uniFE71" unicode="&#x640;&#x64b;" horiz-adv-x="874" arabic-form="medial" 
d="M662 1222l41 -133l-463 -149l-41 135zM662 950l41 -133l-463 -149l-41 135zM0 291h874v-291h-874q-20 0 -30.5 29.5t-10.5 116.5q0 88 10.5 116.5t30.5 28.5z" />
    <glyph glyph-name="uniFE77" unicode="&#x640;&#x64e;" horiz-adv-x="874" arabic-form="medial" 
d="M662 950l41 -133l-463 -149l-41 135zM0 291h874v-291h-874q-20 0 -30.5 29.5t-10.5 116.5q0 88 10.5 116.5t30.5 28.5z" />
    <glyph glyph-name="uniFE79" unicode="&#x640;&#x64f;" horiz-adv-x="874" arabic-form="medial" 
d="M535 1294q71 0 113 -48.5t42 -131.5q0 -84 -57.5 -160.5t-159 -136t-232.5 -94.5l-34 127q44 11 104.5 35t115.5 54q-46 21 -75.5 61.5t-29.5 95.5q0 51 29.5 96.5t78.5 73.5t105 28zM517 1169q-28 0 -57.5 -24t-29.5 -50q0 -28 28 -48.5t72 -35.5q35 40 35 96
q0 26 -12.5 44t-35.5 18zM0 291h874v-291h-874q-20 0 -30.5 29.5t-10.5 116.5q0 88 10.5 116.5t30.5 28.5z" />
    <glyph glyph-name="uniFE7B" unicode="&#x640;&#x650;" horiz-adv-x="874" arabic-form="medial" 
d="M655 -271l41 -133l-463 -149l-41 135zM0 291h874v-291h-874q-20 0 -30.5 29.5t-10.5 116.5q0 88 10.5 116.5t30.5 28.5z" />
    <glyph glyph-name="uniFE7D" unicode="&#x640;&#x651;" horiz-adv-x="874" arabic-form="medial" 
d="M0 291h874v-291h-874q-20 0 -30.5 29.5t-10.5 116.5q0 88 10.5 116.5t30.5 28.5zM438 735q-11 -40 -41.5 -64t-72.5 -24q-67 0 -106 41.5t-39 111.5q0 50 8.5 89.5t24.5 88.5l104 -34q-9 -25 -17.5 -56.5t-8.5 -54.5q0 -53 47 -53q28 0 42.5 23t14.5 77v35h98v-35
q0 -54 14.5 -77t42.5 -23q45 0 45 53q0 23 -7.5 54.5t-16.5 56.5l104 34q16 -49 24.5 -88.5t8.5 -89.5q0 -70 -39 -111.5t-106 -41.5q-43 0 -73 24t-41 64h-10z" />
    <glyph glyph-name="uniFE7F" unicode="&#x640;&#x652;" horiz-adv-x="874" arabic-form="medial" 
d="M434 998q76 0 126.5 -49t50.5 -125q0 -77 -50 -127t-127 -50q-76 0 -126.5 50t-50.5 127q0 76 50.5 125t126.5 49zM434 892q-34 0 -56.5 -18t-22.5 -50t22.5 -52t56.5 -20q33 0 56 20.5t23 51.5q0 30 -22 49t-57 19zM0 291h874v-291h-874q-20 0 -30.5 29.5t-10.5 116.5
q0 88 10.5 116.5t30.5 28.5z" />
    <glyph glyph-name="uniFEF5" unicode="&#xfedf;&#xfe82;" horiz-adv-x="1256" arabic-form="isolated" 
d="M-10 1582q79 160 196 160q26 0 52.5 -7t56.5 -24q67 -38 96 -38q26 0 45.5 21t44.5 67l113 -60q-66 -167 -190 -167q-50 0 -111 32q-29 16 -51 24.5t-40 8.5q-28 0 -50.5 -20.5t-50.5 -63.5zM752 887q114 114 114 321v195h279v-195q0 -154 -52.5 -276t-164.5 -231
q110 -102 163.5 -189.5t53.5 -174.5q0 -163 -144.5 -255.5t-386.5 -92.5q-103 0 -211 21.5t-241 68.5v331l427 302l-496 488l196 203zM738 574l-292 -215v-49q48 -13 106 -20.5t115 -7.5q104 0 166.5 25.5t62.5 62.5q0 60 -158 204z" />
    <glyph glyph-name="uniFEF6" unicode="&#xfee0;&#xfe82;" horiz-adv-x="1419" arabic-form="final" 
d="M-10 1652q79 160 196 160q26 0 52.5 -7t56.5 -24q67 -38 96 -38q26 0 45.5 21t44.5 67l113 -60q-66 -167 -190 -167q-50 0 -111 32q-29 16 -51 24.5t-40 8.5q-28 0 -50.5 -20.5t-50.5 -63.5zM110 1352l261 73q47 -125 79.5 -248t57 -273t46.5 -357l-273 -34
q-23 254 -65 459t-106 380zM918 1403h278v-911q0 -112 54 -156.5t168 -44.5h1v-291h-1q-358 0 -429 312l-1 24q-134 -172 -350 -254t-564 -82v291q217 0 373.5 31t269.5 97t201 172v812z" />
    <glyph glyph-name="uniFEF7" unicode="&#xfedf;&#xfe84;" horiz-adv-x="1256" arabic-form="isolated" 
d="M466 1973l-34 -117q-16 5 -32 8.5t-33 3.5q-49 0 -81 -26t-32 -67q0 -36 27 -58.5t69 -22.5q32 0 65 10l107 35l38 -126l-462 -149l-38 128l154 45v10q-76 37 -76 139q0 89 62.5 147.5t159.5 58.5q44 0 106 -19zM752 887q114 114 114 321v195h279v-195q0 -154 -52.5 -276
t-164.5 -231q110 -102 163.5 -189.5t53.5 -174.5q0 -163 -144.5 -255.5t-386.5 -92.5q-103 0 -211 21.5t-241 68.5v331l427 302l-496 488l196 203zM738 574l-292 -215v-49q48 -13 106 -20.5t115 -7.5q104 0 166.5 25.5t62.5 62.5q0 60 -158 204z" />
    <glyph glyph-name="uniFEF8" unicode="&#xfee0;&#xfe84;" horiz-adv-x="1419" arabic-form="final" 
d="M466 2043l-34 -117q-16 5 -32 8.5t-33 3.5q-49 0 -81 -26t-32 -67q0 -36 27 -58.5t69 -22.5q32 0 65 10l107 35l38 -126l-462 -149l-38 128l154 45v10q-76 37 -76 139q0 89 62.5 147.5t159.5 58.5q44 0 106 -19zM110 1352l261 73q47 -125 79.5 -248t57 -273t46.5 -357
l-273 -34q-23 254 -65 459t-106 380zM918 1403h278v-911q0 -112 54 -156.5t168 -44.5h1v-291h-1q-358 0 -429 312l-1 24q-134 -172 -350 -254t-564 -82v291q217 0 373.5 31t269.5 97t201 172v812z" />
    <glyph glyph-name="uniFEF9" unicode="&#xfedf;&#xfe88;" horiz-adv-x="1256" arabic-form="isolated" 
d="M471 -145l-34 -117q-16 5 -32 8.5t-33 3.5q-49 0 -81 -26t-32 -67q0 -36 27 -58.5t69 -22.5q32 0 65 10l107 35l38 -126l-462 -149l-38 128l154 45v10q-76 37 -76 139q0 89 62.5 147.5t159.5 58.5q44 0 106 -19zM752 887q114 114 114 321v195h279v-195q0 -154 -52.5 -276
t-164.5 -231q110 -102 163.5 -189.5t53.5 -174.5q0 -163 -144.5 -255.5t-386.5 -92.5q-103 0 -211 21.5t-241 68.5v331l427 302l-496 488l196 203zM738 574l-292 -215v-49q48 -13 106 -20.5t115 -7.5q104 0 166.5 25.5t62.5 62.5q0 60 -158 204z" />
    <glyph glyph-name="uniFEFA" unicode="&#xfee0;&#xfe88;" horiz-adv-x="1419" arabic-form="final" 
d="M471 -195l-34 -117q-16 5 -32 8.5t-33 3.5q-49 0 -81 -26t-32 -67q0 -36 27 -58.5t69 -22.5q32 0 65 10l107 35l38 -126l-462 -149l-38 128l154 45v10q-76 37 -76 139q0 89 62.5 147.5t159.5 58.5q44 0 106 -19zM110 1352l261 73q47 -125 79.5 -248t57 -273t46.5 -357
l-273 -34q-23 254 -65 459t-106 380zM918 1403h278v-911q0 -112 54 -156.5t168 -44.5h1v-291h-1q-358 0 -429 312l-1 24q-134 -172 -350 -254t-564 -82v291q217 0 373.5 31t269.5 97t201 172v812z" />
    <glyph glyph-name="uniFEFB" unicode="&#xfedf;&#xfe8e;" horiz-adv-x="1256" arabic-form="isolated" 
d="M752 887q114 114 114 321v195h279v-195q0 -154 -52.5 -276t-164.5 -231q110 -102 163.5 -189.5t53.5 -174.5q0 -163 -144.5 -255.5t-386.5 -92.5q-103 0 -211 21.5t-241 68.5v331l427 302l-496 488l196 203zM738 574l-292 -215v-49q48 -13 106 -20.5t115 -7.5
q104 0 166.5 25.5t62.5 62.5q0 60 -158 204z" />
    <glyph glyph-name="uniFEFC" unicode="&#xfee0;&#xfe8e;" horiz-adv-x="1419" arabic-form="final" 
d="M110 1352l261 73q47 -125 79.5 -248t57 -273t46.5 -357l-273 -34q-23 254 -65 459t-106 380zM918 1403h278v-911q0 -112 54 -156.5t168 -44.5h1v-291h-1q-358 0 -429 312l-1 24q-134 -172 -350 -254t-564 -82v291q217 0 373.5 31t269.5 97t201 172v812z" />
    <glyph glyph-name="uniFEDF_uniFB51.rlig" unicode="&#xfedf;&#xfb51;" horiz-adv-x="1256" 
d="M275 1792q73 95 126.5 133t114.5 38q68 0 105.5 -42t37.5 -117q0 -101 -62 -166.5t-158 -65.5q-36 0 -70.5 11.5t-81.5 39.5q-63 37 -98 37q-33 0 -58 -23.5t-61 -87.5l-107 69q88 204 210 204q43 0 102 -30zM357 1749q46 -21 87 -21q104 0 104 60q0 23 -16.5 36.5
t-42.5 13.5q-31 0 -60.5 -20t-71.5 -69zM752 887q114 114 114 321v195h279v-195q0 -154 -52.5 -276t-164.5 -231q110 -102 163.5 -189.5t53.5 -174.5q0 -163 -144.5 -255.5t-386.5 -92.5q-103 0 -211 21.5t-241 68.5v331l427 302l-496 488l196 203zM738 574l-292 -215v-49
q48 -13 106 -20.5t115 -7.5q104 0 166.5 25.5t62.5 62.5q0 60 -158 204z" />
    <glyph glyph-name="uniFEE0_uniFB51.rlig" unicode="&#xfee0;&#xfb51;" horiz-adv-x="1419" 
d="M275 1862q73 95 126.5 133t114.5 38q68 0 105.5 -42t37.5 -117q0 -101 -62 -166.5t-158 -65.5q-36 0 -70.5 11.5t-81.5 39.5q-63 37 -98 37q-33 0 -58 -23.5t-61 -87.5l-107 69q88 204 210 204q43 0 102 -30zM357 1819q46 -21 87 -21q104 0 104 60q0 23 -16.5 36.5
t-42.5 13.5q-31 0 -60.5 -20t-71.5 -69zM110 1352l261 73q47 -125 79.5 -248t57 -273t46.5 -357l-273 -34q-23 254 -65 459t-106 380zM918 1403h278v-911q0 -112 54 -156.5t168 -44.5h1v-291h-1q-358 0 -429 312l-1 24q-134 -172 -350 -254t-564 -82v291q217 0 373.5 31
t269.5 97t201 172v812z" />
    <glyph glyph-name="uni0620.init" unicode="&#x620;" horiz-adv-x="603" 
d="M129 -167q76 0 126.5 -49t50.5 -125q0 -77 -50 -127t-127 -50q-76 0 -126.5 50t-50.5 127q0 76 50.5 125t126.5 49zM129 -273q-34 0 -56.5 -18t-22.5 -50t22.5 -52t56.5 -20q33 0 56 20.5t23 51.5q0 30 -22 49t-57 19zM473 850q30 -119 47 -222.5t17 -181.5
q0 -446 -498 -446h-39q-41 0 -41 146q0 145 41 145h39q118 0 172.5 46t54.5 142q0 46 -14.5 123.5t-38.5 175.5z" />
    <glyph glyph-name="uni0620.medi" unicode="&#x620;" horiz-adv-x="827" 
d="M107 -167q76 0 126.5 -49t50.5 -125q0 -77 -50 -127t-127 -50q-76 0 -126.5 50t-50.5 127q0 76 50.5 125t126.5 49zM107 -273q-34 0 -56.5 -18t-22.5 -50t22.5 -52t56.5 -20q33 0 56 20.5t23 51.5q0 30 -22 49t-57 19zM554 535q0 -92 16 -145.5t65 -76t147 -22.5h45v-291
h-48q-127 0 -224 60.5t-136 166.5h-10q-38 -106 -141.5 -166.5t-228.5 -60.5h-39q-22 0 -31.5 35t-9.5 111q0 77 9.5 111t31.5 34h39q102 0 153 23t68 76.5t17 144.5v167h277v-167z" />
    <glyph glyph-name="uni0620.fina" unicode="&#x620;" horiz-adv-x="1537" 
d="M760 -759q76 0 126.5 -49t50.5 -125q0 -77 -50 -127t-127 -50q-76 0 -126.5 50t-50.5 127q0 76 50.5 125t126.5 49zM760 -865q-34 0 -56.5 -18t-22.5 -50t22.5 -52t56.5 -20q33 0 56 20.5t23 51.5q0 30 -22 49t-57 19zM1310 -10q70 -52 99 -99t29 -111
q0 -80 -52.5 -150.5t-146 -124t-216 -83.5t-263.5 -30q-349 0 -519.5 146.5t-170.5 448.5q0 116 13.5 256.5t37.5 288.5l255 -50q-23 -137 -35 -258t-12 -214q0 -172 102 -248.5t332 -76.5q171 0 279.5 43t108.5 111q0 31 -36 54.5t-126.5 45.5t-254.5 50l42 302h761v-291
h-227v-10z" />
    <glyph glyph-name="uni063B.init" unicode="&#x63b;" horiz-adv-x="888" 
d="M375 1671l140 140l141 -140l-141 -141zM57 1568l140 140l141 -140l-141 -141zM908 1454l40 -289q-207 -47 -348.5 -87t-255.5 -82v-6q156 -123 250.5 -217t136.5 -175.5t42 -165.5q0 -206 -164 -319t-466 -113h-143q-22 0 -31.5 33.5t-9.5 112.5t9.5 112t31.5 33h136
q183 0 271 39t88 118q0 47 -46.5 106.5t-153 147t-286.5 217.5l21 243q400 193 878 292z" />
    <glyph glyph-name="uni063B.medi" unicode="&#x63b;" horiz-adv-x="1136" 
d="M375 1671l140 140l141 -140l-141 -141zM57 1568l140 140l141 -140l-141 -141zM673 306q-54 -166 -176.5 -236t-353.5 -70h-143q-22 0 -31.5 33.5t-9.5 111.5q0 79 9.5 112.5t31.5 33.5h136q180 0 266 39t86 115q0 45 -47 107.5t-152 152t-280 214.5l21 243
q402 193 878 292l40 -289q-203 -46 -345.5 -86t-258.5 -83v-6q107 -83 176.5 -145.5t122 -125t105.5 -147.5q64 -107 118.5 -168.5t117.5 -87t151 -25.5h1v-291h-1q-164 0 -270 71.5t-182 234.5h-10z" />
    <glyph glyph-name="uni063B.fina" unicode="&#x63b;" horiz-adv-x="1962" 
d="M1202 1671l140 140l141 -140l-141 -141zM884 1568l140 140l141 -140l-141 -141zM1499 304q-48 -157 -216.5 -230.5t-478.5 -73.5q-388 0 -561 117.5t-173 381.5q0 147 43 360l252 -56q-16 -87 -25.5 -161t-9.5 -113q0 -131 105.5 -184.5t364.5 -53.5q252 0 383 41
t131 120q0 65 -115.5 177.5t-363.5 289.5l20 243q402 193 878 292l40 -289q-203 -46 -345.5 -86t-258.5 -83l1 -6q109 -86 179 -149.5t121.5 -126t103.5 -144.5q65 -109 120 -169.5t117.5 -85t149.5 -24.5h1v-291h-1q-166 1 -271 71t-181 233h-10z" />
    <glyph glyph-name="uni063C.init" unicode="&#x63c;" horiz-adv-x="888" 
d="M531 -341l172 173l174 -173l-174 -173zM182 -341l172 173l174 -173l-174 -173zM357 -669l173 173l173 -173l-173 -173zM908 1454l40 -289q-207 -47 -348.5 -87t-255.5 -82v-6q156 -123 250.5 -217t136.5 -175.5t42 -165.5q0 -206 -164 -319t-466 -113h-143
q-22 0 -31.5 33.5t-9.5 112.5t9.5 112t31.5 33h136q183 0 271 39t88 118q0 47 -46.5 106.5t-153 147t-286.5 217.5l21 243q400 193 878 292z" />
    <glyph glyph-name="uni063C.medi" unicode="&#x63c;" horiz-adv-x="1136" 
d="M531 -341l172 173l174 -173l-174 -173zM182 -341l172 173l174 -173l-174 -173zM357 -669l173 173l173 -173l-173 -173zM673 306q-54 -166 -176.5 -236t-353.5 -70h-143q-22 0 -31.5 33.5t-9.5 111.5q0 79 9.5 112.5t31.5 33.5h136q180 0 266 39t86 115q0 45 -47 107.5
t-152 152t-280 214.5l21 243q402 193 878 292l40 -289q-203 -46 -345.5 -86t-258.5 -83v-6q107 -83 176.5 -145.5t122 -125t105.5 -147.5q64 -107 118.5 -168.5t117.5 -87t151 -25.5h1v-291h-1q-164 0 -270 71.5t-182 234.5h-10z" />
    <glyph glyph-name="uni063C.fina" unicode="&#x63c;" horiz-adv-x="1962" 
d="M809 -341l172 173l174 -173l-174 -173zM460 -341l172 173l174 -173l-174 -173zM635 -669l173 173l173 -173l-173 -173zM1499 304q-48 -157 -216.5 -230.5t-478.5 -73.5q-388 0 -561 117.5t-173 381.5q0 147 43 360l252 -56q-16 -87 -25.5 -161t-9.5 -113
q0 -131 105.5 -184.5t364.5 -53.5q252 0 383 41t131 120q0 65 -115.5 177.5t-363.5 289.5l20 243q402 193 878 292l40 -289q-203 -46 -345.5 -86t-258.5 -83l1 -6q109 -86 179 -149.5t121.5 -126t103.5 -144.5q65 -109 120 -169.5t117.5 -85t149.5 -24.5h1v-291h-1
q-166 1 -271 71t-181 233h-10z" />
    <glyph glyph-name="uni063D.init" unicode="&#x63d;" horiz-adv-x="603" 
d="M227 1415h122l210 -279l-111 -85l-160 222l-160 -222l-111 85zM473 850q30 -119 47 -222.5t17 -181.5q0 -446 -498 -446h-39q-41 0 -41 146q0 145 41 145h39q118 0 172.5 46t54.5 142q0 46 -14.5 123.5t-38.5 175.5zM-227 -343l172 173l174 -173l-174 -173zM122 -343
l172 173l174 -173l-174 -173z" />
    <glyph glyph-name="uni063D.medi" unicode="&#x63d;" horiz-adv-x="827" 
d="M231 1242h122l210 -279l-111 -85l-160 222l-160 -222l-111 85zM554 535q0 -92 16 -145.5t65 -76t147 -22.5h45v-291h-48q-127 0 -224 60.5t-136 166.5h-10q-38 -106 -141.5 -166.5t-228.5 -60.5h-39q-22 0 -31.5 35t-9.5 111q0 77 9.5 111t31.5 34h39q102 0 153 23
t68 76.5t17 144.5v167h277v-167zM-258 -343l172 173l174 -173l-174 -173zM91 -343l172 173l174 -173l-174 -173z" />
    <glyph glyph-name="uni063D.fina" unicode="&#x63d;" horiz-adv-x="1537" 
d="M887 886h122l210 -279l-111 -85l-160 222l-160 -222l-111 85zM1310 -10q70 -52 99 -99t29 -111q0 -80 -52.5 -150.5t-146 -124t-216 -83.5t-263.5 -30q-349 0 -519.5 146.5t-170.5 448.5q0 116 13.5 256.5t37.5 288.5l255 -50q-23 -137 -35 -258t-12 -214
q0 -172 102 -248.5t332 -76.5q171 0 279.5 43t108.5 111q0 31 -36 54.5t-126.5 45.5t-254.5 50l42 302h761v-291h-227v-10z" />
    <glyph glyph-name="uni063E.init" unicode="&#x63e;" horiz-adv-x="603" 
d="M-99 1166l172 173l174 -173l-174 -173zM250 1166l172 173l174 -173l-174 -173zM473 850q30 -119 47 -222.5t17 -181.5q0 -446 -498 -446h-39q-41 0 -41 146q0 145 41 145h39q118 0 172.5 46t54.5 142q0 46 -14.5 123.5t-38.5 175.5zM-227 -343l172 173l174 -173
l-174 -173zM122 -343l172 173l174 -173l-174 -173z" />
    <glyph glyph-name="uni063E.medi" unicode="&#x63e;" horiz-adv-x="827" 
d="M-31 1063l172 173l174 -173l-174 -173zM318 1063l172 173l174 -173l-174 -173zM554 535q0 -92 16 -145.5t65 -76t147 -22.5h45v-291h-48q-127 0 -224 60.5t-136 166.5h-10q-38 -106 -141.5 -166.5t-228.5 -60.5h-39q-22 0 -31.5 35t-9.5 111q0 77 9.5 111t31.5 34h39
q102 0 153 23t68 76.5t17 144.5v167h277v-167zM-258 -343l172 173l174 -173l-174 -173zM91 -343l172 173l174 -173l-174 -173z" />
    <glyph glyph-name="uni063E.fina" unicode="&#x63e;" horiz-adv-x="1537" 
d="M601 712l172 173l174 -173l-174 -173zM950 712l172 173l174 -173l-174 -173zM1310 -10q70 -52 99 -99t29 -111q0 -80 -52.5 -150.5t-146 -124t-216 -83.5t-263.5 -30q-349 0 -519.5 146.5t-170.5 448.5q0 116 13.5 256.5t37.5 288.5l255 -50q-23 -137 -35 -258t-12 -214
q0 -172 102 -248.5t332 -76.5q171 0 279.5 43t108.5 111q0 31 -36 54.5t-126.5 45.5t-254.5 50l42 302h761v-291h-227v-10z" />
    <glyph glyph-name="uni063F.init" unicode="&#x63f;" horiz-adv-x="603" 
d="M75 1494l173 173l173 -173l-173 -173zM250 1166l172 173l174 -173l-174 -173zM-99 1166l172 173l174 -173l-174 -173zM473 850q30 -119 47 -222.5t17 -181.5q0 -446 -498 -446h-39q-41 0 -41 146q0 145 41 145h39q118 0 172.5 46t54.5 142q0 46 -14.5 123.5t-38.5 175.5z
M-227 -343l172 173l174 -173l-174 -173zM122 -343l172 173l174 -173l-174 -173z" />
    <glyph glyph-name="uni063F.medi" unicode="&#x63f;" horiz-adv-x="827" 
d="M143 1391l173 173l173 -173l-173 -173zM318 1063l172 173l174 -173l-174 -173zM-31 1063l172 173l174 -173l-174 -173zM554 535q0 -92 16 -145.5t65 -76t147 -22.5h45v-291h-48q-127 0 -224 60.5t-136 166.5h-10q-38 -106 -141.5 -166.5t-228.5 -60.5h-39q-22 0 -31.5 35
t-9.5 111q0 77 9.5 111t31.5 34h39q102 0 153 23t68 76.5t17 144.5v167h277v-167zM-258 -343l172 173l174 -173l-174 -173zM91 -343l172 173l174 -173l-174 -173z" />
    <glyph glyph-name="uni063F.fina" unicode="&#x63f;" horiz-adv-x="1537" 
d="M775 1040l173 173l173 -173l-173 -173zM950 712l172 173l174 -173l-174 -173zM601 712l172 173l174 -173l-174 -173zM1310 -10q70 -52 99 -99t29 -111q0 -80 -52.5 -150.5t-146 -124t-216 -83.5t-263.5 -30q-349 0 -519.5 146.5t-170.5 448.5q0 116 13.5 256.5
t37.5 288.5l255 -50q-23 -137 -35 -258t-12 -214q0 -172 102 -248.5t332 -76.5q171 0 279.5 43t108.5 111q0 31 -36 54.5t-126.5 45.5t-254.5 50l42 302h761v-291h-227v-10z" />
    <glyph glyph-name="uni06A1.init" unicode="&#x66f;" horiz-adv-x="961" 
d="M0 291h329q182 0 249.5 42.5t67.5 151.5q-126 -32 -233 -32q-176 0 -260.5 77t-84.5 237t46.5 278t132 183t200.5 65q135 0 234.5 -92.5t154 -261.5t54.5 -399q0 -280 -137 -410t-430 -130h-323q-22 0 -31.5 34.5t-9.5 111.5t9.5 111t31.5 34zM605 724q-12 137 -56 210.5
t-114 73.5q-64 0 -104 -55t-40 -144q0 -105 141 -105q70 0 173 20z" />
    <glyph glyph-name="uni06A1.medi" unicode="&#x66f;" horiz-adv-x="1034" 
d="M96 604q0 129 56.5 225.5t151.5 150.5t212 54q116 0 211 -54t152 -150t57 -222q0 -94 -42 -169t-113 -126l5 -9q34 -6 69.5 -9.5t74.5 -3.5h104v-291h-123q-130 0 -224.5 32.5t-175.5 88.5q-79 -56 -171.5 -88.5t-219.5 -32.5h-120q-42 0 -42 146q0 145 42 145h84
q44 0 85 3.5t80 9.5l4 9q-71 50 -114 123.5t-43 167.5zM515 369q68 38 109.5 91.5t41.5 129.5q0 65 -41.5 109.5t-108.5 44.5t-108.5 -44t-41.5 -110q0 -70 42 -126t107 -95z" />
    <glyph glyph-name="uni066F.fina" unicode="&#x66f;" horiz-adv-x="1547" 
d="M1067 872q130 0 218 -78t138 -209.5t65 -293.5h59v-291h-67q-40 -261 -226 -404t-488 -143q-343 0 -519.5 149.5t-176.5 442.5q0 82 14 199.5t43 290.5l269 -53q-25 -142 -37 -241t-12 -173q0 -165 109 -243.5t320 -78.5q179 0 297 63.5t153 185.5l-8 14q-84 -9 -179 -9
q-165 0 -258.5 88t-93.5 264q0 148 46 265.5t131.5 186t202.5 68.5zM1061 578q-73 0 -110.5 -56.5t-37.5 -126.5q0 -62 38 -88t103 -26q46 0 91 1t88 4q-2 68 -19 135.5t-53.5 112t-99.5 44.5z" />
    <glyph glyph-name="uni0672.fina" unicode="&#x672;" horiz-adv-x="642" 
d="M127 1245h278v-753q0 -110 53 -155.5t183 -45.5h1v-291h-1q-244 0 -379 122.5t-135 363.5v759zM443 1782q-27 5 -41 5q-45 0 -71 -22.5t-26 -57.5q0 -33 21 -53.5t61 -20.5q16 0 37 4.5t49 11.5l55 16l38 -127l-226 -70q-29 -10 -59 -10q-39 0 -80 16q-28 11 -42 11
q-26 0 -52 -59l-122 55q38 75 69 107.5t77 32.5q28 0 47 -11t56 -6l3 8q-31 18 -46 49.5t-15 67.5q0 75 63 131t155 56q20 0 39 -2t42 -9l44 -11l-30 -122z" />
    <glyph glyph-name="uni0673.fina" unicode="&#x673;" horiz-adv-x="642" 
d="M450 -318q-27 5 -41 5q-45 0 -71 -22.5t-26 -57.5q0 -33 21 -53.5t61 -20.5q16 0 37 4.5t49 11.5l55 16l38 -127l-226 -70q-29 -10 -59 -10q-39 0 -80 16q-28 11 -42 11q-26 0 -52 -59l-122 55q38 75 69 107.5t77 32.5q28 0 47 -11t56 -6l3 8q-31 18 -46 49.5t-15 67.5
q0 75 63 131t155 56q20 0 39 -2t42 -9l44 -11l-30 -122zM127 1403h278v-911q0 -110 53 -155.5t183 -45.5h1v-291h-1q-244 0 -379 122.5t-135 363.5v917z" />
    <glyph glyph-name="uni0675.fina" unicode="&#x675;" horiz-adv-x="1061" 
d="M135 1403h277v-911q0 -110 49.5 -155.5t179.5 -45.5h420v-291h-420q-244 0 -375 122.5t-131 363.5v917zM899 1489l-34 -117q-16 5 -32 8.5t-33 3.5q-49 0 -81 -26t-32 -67q0 -36 27 -58.5t69 -22.5q32 0 65 10l107 35l38 -126l-462 -149l-38 128l154 45v10
q-76 37 -76 139q0 89 62.5 147.5t159.5 58.5q44 0 106 -19z" />
    <glyph glyph-name="uni0676.fina" unicode="&#x676;" horiz-adv-x="947" 
d="M873 1545l-34 -117q-16 5 -32 8.5t-33 3.5q-49 0 -81 -26t-32 -67q0 -36 27 -58.5t69 -22.5q32 0 65 10l107 35l38 -126l-462 -149l-38 128l154 45v10q-76 37 -76 139q0 89 62.5 147.5t159.5 58.5q44 0 106 -19zM626 -5l-7 14q-45 -5 -91 -7t-88 -2q-167 0 -259.5 89
t-92.5 263q0 134 41.5 252.5t126 193t212.5 74.5q135 0 223 -81.5t135.5 -214t62.5 -285.5h58v-291h-69q-40 -190 -215 -324.5t-474 -224.5l-124 262q137 33 252.5 77t196 96.5t112.5 108.5zM634 286q-2 68 -19 135.5t-54 112t-100 44.5q-72 0 -109.5 -56.5t-37.5 -126.5
q0 -62 38 -88t103 -26q44 0 88.5 0.5t90.5 4.5z" />
    <glyph glyph-name="uni0677.fina" unicode="&#x677;" horiz-adv-x="947" 
d="M317 1591q71 0 113 -48.5t42 -131.5q0 -84 -57.5 -160.5t-159 -136t-232.5 -94.5l-34 127q44 11 104.5 35t115.5 54q-46 21 -75.5 61.5t-29.5 95.5q0 51 29.5 96.5t78.5 73.5t105 28zM299 1466q-28 0 -57.5 -24t-29.5 -50q0 -28 28 -48.5t72 -35.5q35 40 35 96
q0 26 -12.5 44t-35.5 18zM873 1545l-34 -117q-16 5 -32 8.5t-33 3.5q-49 0 -81 -26t-32 -67q0 -36 27 -58.5t69 -22.5q32 0 65 10l107 35l38 -126l-462 -149l-38 128l154 45v10q-76 37 -76 139q0 89 62.5 147.5t159.5 58.5q44 0 106 -19zM626 -5l-7 14q-45 -5 -91 -7t-88 -2
q-167 0 -259.5 89t-92.5 263q0 134 41.5 252.5t126 193t212.5 74.5q135 0 223 -81.5t135.5 -214t62.5 -285.5h58v-291h-69q-40 -190 -215 -324.5t-474 -224.5l-124 262q137 33 252.5 77t196 96.5t112.5 108.5zM634 286q-2 68 -19 135.5t-54 112t-100 44.5
q-72 0 -109.5 -56.5t-37.5 -126.5q0 -62 38 -88t103 -26q44 0 88.5 0.5t90.5 4.5z" />
    <glyph glyph-name="uni0678.fina" unicode="&#x678;" horiz-adv-x="1537" 
d="M1307 984l-34 -117q-16 5 -32 8.5t-33 3.5q-49 0 -81 -26t-32 -67q0 -36 27 -58.5t69 -22.5q32 0 65 10l107 35l38 -126l-462 -149l-38 128l154 45v10q-76 37 -76 139q0 89 62.5 147.5t159.5 58.5q44 0 106 -19zM1310 -10q70 -52 99 -99t29 -111q0 -80 -52.5 -150.5
t-146 -124t-216 -83.5t-263.5 -30q-349 0 -519.5 146.5t-170.5 448.5q0 116 13.5 256.5t37.5 288.5l255 -50q-23 -137 -35 -258t-12 -214q0 -172 102 -248.5t332 -76.5q171 0 279.5 43t108.5 111q0 31 -36 54.5t-126.5 45.5t-254.5 50l42 302h761v-291h-227v-10z" />
    <glyph glyph-name="uni067C.init" unicode="&#x67c;" horiz-adv-x="603" 
d="M0 106q88 0 140 -53.5t52 -141.5q0 -82 -53 -137t-139 -55q-82 0 -137 53.5t-55 138.5q0 83 55.5 139t136.5 56zM0 0q-39 0 -62.5 -20t-23.5 -57t24 -58t62 -21t62 21.5t24 57.5t-24 56.5t-62 20.5zM473 850q30 -119 47 -222.5t17 -181.5q0 -446 -498 -446h-39
q-41 0 -41 146q0 145 41 145h39q118 0 172.5 46t54.5 142q0 46 -14.5 123.5t-38.5 175.5zM-99 1166l172 173l174 -173l-174 -173zM250 1166l172 173l174 -173l-174 -173z" />
    <glyph glyph-name="uni067C.medi" unicode="&#x67c;" horiz-adv-x="827" 
d="M0 106q88 0 140 -53.5t52 -141.5q0 -82 -53 -137t-139 -55q-82 0 -137 53.5t-55 138.5q0 83 55.5 139t136.5 56zM0 0q-39 0 -62.5 -20t-23.5 -57t24 -58t62 -21t62 21.5t24 57.5t-24 56.5t-62 20.5zM554 535q0 -92 16 -145.5t65 -76t147 -22.5h45v-291h-48
q-127 0 -224 60.5t-136 166.5h-10q-38 -106 -141.5 -166.5t-228.5 -60.5h-39q-22 0 -31.5 35t-9.5 111q0 77 9.5 111t31.5 34h39q102 0 153 23t68 76.5t17 144.5v167h277v-167zM-31 1063l172 173l174 -173l-174 -173zM318 1063l172 173l174 -173l-174 -173z" />
    <glyph glyph-name="uni067C.fina" unicode="&#x67c;" horiz-adv-x="1963" 
d="M796 106q88 0 140 -53.5t52 -141.5q0 -82 -53 -137t-139 -55q-82 0 -137 53.5t-55 138.5q0 83 55.5 139t136.5 56zM796 0q-39 0 -62.5 -20t-23.5 -57t24 -58t62 -21t62 21.5t24 57.5t-24 56.5t-62 20.5zM1776 730q-15 -84 -23.5 -146.5t-8.5 -106.5q0 -85 49 -135.5
t169 -50.5h1v-291h-1q-154 0 -265.5 62.5t-160.5 207.5h-10q-106 -155 -292.5 -212.5t-443.5 -57.5q-368 0 -545 136.5t-177 402.5q0 157 59 363l242 -67q-21 -74 -32.5 -144t-11.5 -116q0 -150 117 -217t390 -67q225 0 364 48t215.5 154t111.5 279zM570 852l172 173
l174 -173l-174 -173zM919 852l172 173l174 -173l-174 -173z" />
    <glyph glyph-name="uni067D.init" unicode="&#x67d;" horiz-adv-x="603" 
d="M240 1520l172 173l174 -173l-174 -173zM-109 1520l172 173l174 -173l-174 -173zM66 1192l173 173l173 -173l-173 -173zM473 850q30 -119 47 -222.5t17 -181.5q0 -446 -498 -446h-39q-41 0 -41 146q0 145 41 145h39q118 0 172.5 46t54.5 142q0 46 -14.5 123.5t-38.5 175.5
z" />
    <glyph glyph-name="uni067D.medi" unicode="&#x67d;" horiz-adv-x="827" 
d="M313 1391l172 173l174 -173l-174 -173zM-36 1391l172 173l174 -173l-174 -173zM139 1063l173 173l173 -173l-173 -173zM554 535q0 -92 16 -145.5t65 -76t147 -22.5h45v-291h-48q-127 0 -224 60.5t-136 166.5h-10q-38 -106 -141.5 -166.5t-228.5 -60.5h-39q-22 0 -31.5 35
t-9.5 111q0 77 9.5 111t31.5 34h39q102 0 153 23t68 76.5t17 144.5v167h277v-167z" />
    <glyph glyph-name="uni067D.fina" unicode="&#x67d;" horiz-adv-x="1963" 
d="M918 1179l172 173l174 -173l-174 -173zM569 1179l172 173l174 -173l-174 -173zM744 851l173 173l173 -173l-173 -173zM1776 730q-15 -84 -23.5 -146.5t-8.5 -106.5q0 -85 49 -135.5t169 -50.5h1v-291h-1q-154 0 -265.5 62.5t-160.5 207.5h-10q-106 -155 -292.5 -212.5
t-443.5 -57.5q-368 0 -545 136.5t-177 402.5q0 157 59 363l242 -67q-21 -74 -32.5 -144t-11.5 -116q0 -150 117 -217t390 -67q225 0 364 48t215.5 154t111.5 279z" />
    <glyph glyph-name="uni0681.init" unicode="&#x681;" horiz-adv-x="1339" 
d="M814 1715l-34 -117q-16 5 -32 8.5t-33 3.5q-49 0 -81 -26t-32 -67q0 -36 27 -58.5t69 -22.5q32 0 65 10l107 35l38 -126l-462 -149l-38 128l154 45v10q-76 37 -76 139q0 89 62.5 147.5t159.5 58.5q44 0 106 -19zM463 985q56 0 134 -25t228 -90q149 -63 250.5 -98
t197.5 -57v-229l-507 -298q-168 -100 -313 -144t-308 -44h-145q-22 0 -31.5 33.5t-9.5 112.5t9.5 112t31.5 33h202q76 0 142 11.5t139 39t170 74.5l261 133v10q-49 12 -105.5 32t-131.5 51q-87 33 -136 47.5t-80 14.5q-64 0 -104 -38.5t-74 -128.5l-8 -22l-202 62l7 23
q60 204 152 294.5t231 90.5z" />
    <glyph glyph-name="uni0681.medi" unicode="&#x681;" horiz-adv-x="1389" 
d="M814 1715l-34 -117q-16 5 -32 8.5t-33 3.5q-49 0 -81 -26t-32 -67q0 -36 27 -58.5t69 -22.5q32 0 65 10l107 35l38 -126l-462 -149l-38 128l154 45v10q-76 37 -76 139q0 89 62.5 147.5t159.5 58.5q44 0 106 -19zM463 985q56 0 134 -24.5t228 -90.5q149 -63 250.5 -98
t197.5 -57v-229l-198 -107v-10q58 -45 133 -61.5t144 -16.5h37v-291h-38q-138 0 -255 61t-210 197l-120 -70q-168 -100 -313 -144t-308 -44h-145q-22 0 -31.5 33.5t-9.5 112.5t9.5 112t31.5 33h202q76 0 142 11.5t139 39t170 74.5l261 133v10q-49 12 -105.5 32.5
t-131.5 50.5q-87 33 -136 47.5t-80 14.5q-64 0 -104 -38.5t-74 -128.5l-8 -22l-202 62l7 23q60 204 152 294.5t231 90.5z" />
    <glyph glyph-name="uni0681.fina" unicode="&#x681;" horiz-adv-x="1453" 
d="M854 1764l-34 -117q-16 5 -32 8.5t-33 3.5q-49 0 -81 -26t-32 -67q0 -36 27 -58.5t69 -22.5q32 0 65 10l107 35l38 -126l-462 -149l-38 128l154 45v10q-76 37 -76 139q0 89 62.5 147.5t159.5 58.5q44 0 106 -19zM485 1028q61 0 143 -25t214 -84q120 -54 205 -89
t149.5 -56.5t120.5 -34.5l-34 -300q-41 -4 -74.5 -9t-61.5 -11v-10q75 -118 243 -118h63v-291h-24q-356 0 -443 369q-183 -29 -330.5 -104t-234 -177t-86.5 -212q0 -130 127 -208.5t341 -78.5q269 0 481 103l125 -251q-299 -148 -605 -148q-223 0 -389 69t-258 193.5
t-92 291.5q0 179 109 331t306 260t460 153v10q-90 22 -240 84q-88 33 -137 47t-79 14q-64 0 -104.5 -38t-73.5 -128l-9 -22l-201 61l7 24q62 203 152.5 294t229.5 91z" />
    <glyph glyph-name="uni0682.init" unicode="&#x682;" horiz-adv-x="1339" 
d="M487 1723l172 173l174 -173l-174 -173zM487 1373l172 173l174 -173l-174 -173zM463 985q56 0 134 -25t228 -90q149 -63 250.5 -98t197.5 -57v-229l-507 -298q-168 -100 -313 -144t-308 -44h-145q-22 0 -31.5 33.5t-9.5 112.5t9.5 112t31.5 33h202q76 0 142 11.5t139 39
t170 74.5l261 133v10q-49 12 -105.5 32t-131.5 51q-87 33 -136 47.5t-80 14.5q-64 0 -104 -38.5t-74 -128.5l-8 -22l-202 62l7 23q60 204 152 294.5t231 90.5z" />
    <glyph glyph-name="uni0682.medi" unicode="&#x682;" horiz-adv-x="1389" 
d="M487 1723l172 173l174 -173l-174 -173zM487 1373l172 173l174 -173l-174 -173zM463 985q56 0 134 -24.5t228 -90.5q149 -63 250.5 -98t197.5 -57v-229l-198 -107v-10q58 -45 133 -61.5t144 -16.5h37v-291h-38q-138 0 -255 61t-210 197l-120 -70q-168 -100 -313 -144
t-308 -44h-145q-22 0 -31.5 33.5t-9.5 112.5t9.5 112t31.5 33h202q76 0 142 11.5t139 39t170 74.5l261 133v10q-49 12 -105.5 32.5t-131.5 50.5q-87 33 -136 47.5t-80 14.5q-64 0 -104 -38.5t-74 -128.5l-8 -22l-202 62l7 23q60 204 152 294.5t231 90.5z" />
    <glyph glyph-name="uni0682.fina" unicode="&#x682;" horiz-adv-x="1453" 
d="M528 1780l172 173l174 -173l-174 -173zM528 1430l172 173l174 -173l-174 -173zM485 1028q61 0 143 -25t214 -84q120 -54 205 -89t149.5 -56.5t120.5 -34.5l-34 -300q-41 -4 -74.5 -9t-61.5 -11v-10q75 -118 243 -118h63v-291h-24q-356 0 -443 369q-183 -29 -330.5 -104
t-234 -177t-86.5 -212q0 -130 127 -208.5t341 -78.5q269 0 481 103l125 -251q-299 -148 -605 -148q-223 0 -389 69t-258 193.5t-92 291.5q0 179 109 331t306 260t460 153v10q-90 22 -240 84q-88 33 -137 47t-79 14q-64 0 -104.5 -38t-73.5 -128l-9 -22l-201 61l7 24
q62 203 152.5 294t229.5 91z" />
    <glyph glyph-name="uni0685.init" unicode="&#x685;" horiz-adv-x="1339" 
d="M508 1689l173 173l173 -173l-173 -173zM683 1361l172 173l174 -173l-174 -173zM334 1361l172 173l174 -173l-174 -173zM463 985q56 0 134 -25t228 -90q149 -63 250.5 -98t197.5 -57v-229l-507 -298q-168 -100 -313 -144t-308 -44h-145q-22 0 -31.5 33.5t-9.5 112.5
t9.5 112t31.5 33h202q76 0 142 11.5t139 39t170 74.5l261 133v10q-49 12 -105.5 32t-131.5 51q-87 33 -136 47.5t-80 14.5q-64 0 -104 -38.5t-74 -128.5l-8 -22l-202 62l7 23q60 204 152 294.5t231 90.5z" />
    <glyph glyph-name="uni0685.medi" unicode="&#x685;" horiz-adv-x="1389" 
d="M508 1689l173 173l173 -173l-173 -173zM683 1361l172 173l174 -173l-174 -173zM334 1361l172 173l174 -173l-174 -173zM463 985q56 0 134 -24.5t228 -90.5q149 -63 250.5 -98t197.5 -57v-229l-198 -107v-10q58 -45 133 -61.5t144 -16.5h37v-291h-38q-138 0 -255 61
t-210 197l-120 -70q-168 -100 -313 -144t-308 -44h-145q-22 0 -31.5 33.5t-9.5 112.5t9.5 112t31.5 33h202q76 0 142 11.5t139 39t170 74.5l261 133v10q-49 12 -105.5 32.5t-131.5 50.5q-87 33 -136 47.5t-80 14.5q-64 0 -104 -38.5t-74 -128.5l-8 -22l-202 62l7 23
q60 204 152 294.5t231 90.5z" />
    <glyph glyph-name="uni0685.fina" unicode="&#x685;" horiz-adv-x="1453" 
d="M550 1731l173 173l173 -173l-173 -173zM725 1403l172 173l174 -173l-174 -173zM376 1403l172 173l174 -173l-174 -173zM485 1028q61 0 143 -25t214 -84q120 -54 205 -89t149.5 -56.5t120.5 -34.5l-34 -300q-41 -4 -74.5 -9t-61.5 -11v-10q75 -118 243 -118h63v-291h-24
q-356 0 -443 369q-183 -29 -330.5 -104t-234 -177t-86.5 -212q0 -130 127 -208.5t341 -78.5q269 0 481 103l125 -251q-299 -148 -605 -148q-223 0 -389 69t-258 193.5t-92 291.5q0 179 109 331t306 260t460 153v10q-90 22 -240 84q-88 33 -137 47t-79 14q-64 0 -104.5 -38
t-73.5 -128l-9 -22l-201 61l7 24q62 203 152.5 294t229.5 91z" />
    <glyph glyph-name="uni0689.fina" unicode="&#x689;" horiz-adv-x="1304" 
d="M473 96q88 0 140 -53.5t52 -141.5q0 -82 -53 -137t-139 -55q-82 0 -137 53.5t-55 138.5q0 83 55.5 139t136.5 56zM473 -10q-39 0 -62.5 -20t-23.5 -57t24 -58t62 -21t62 21.5t24 57.5t-24 56.5t-62 20.5zM781 1104l261 -611q36 -85 68.5 -128.5t75.5 -58.5t109 -15h9
v-291h-9q-142 0 -234 53.5t-145 179.5h-10q-46 -115 -163.5 -179t-269.5 -64q-106 0 -211.5 36.5t-200.5 109.5l124 231q71 -43 145 -64t138 -21q92 0 172.5 31.5t134.5 92.5l-254 573z" />
    <glyph glyph-name="uni068A.fina" unicode="&#x68a;" horiz-adv-x="1304" 
d="M294 -341l172 173l174 -173l-174 -173zM781 1104l261 -611q36 -85 68.5 -128.5t75.5 -58.5t109 -15h9v-291h-9q-142 0 -234 53.5t-145 179.5h-10q-46 -115 -163.5 -179t-269.5 -64q-106 0 -211.5 36.5t-200.5 109.5l124 231q71 -43 145 -64t138 -21q92 0 172.5 31.5
t134.5 92.5l-254 573z" />
    <glyph glyph-name="uni068B.fina" unicode="&#x68b;" horiz-adv-x="1304" 
d="M431 1441v397h120v-265h10q64 60 110 85.5t94 25.5q62 0 101.5 -47t39.5 -106q0 -109 -72.5 -163.5t-201.5 -54.5h-314v128h113zM538 1441h94q166 0 166 65q0 24 -17.5 40t-46.5 16q-40 0 -85 -28t-111 -93zM781 1104l261 -611q36 -85 68.5 -128.5t75.5 -58.5t109 -15h9
v-291h-9q-142 0 -234 53.5t-145 179.5h-10q-46 -115 -163.5 -179t-269.5 -64q-106 0 -211.5 36.5t-200.5 109.5l124 231q71 -43 145 -64t138 -21q92 0 172.5 31.5t134.5 92.5l-254 573zM294 -341l172 173l174 -173l-174 -173z" />
    <glyph glyph-name="uni068F.fina" unicode="&#x68f;" horiz-adv-x="1304" 
d="M610 1810l172 173l174 -173l-174 -173zM261 1810l172 173l174 -173l-174 -173zM436 1482l173 173l173 -173l-173 -173zM781 1104l261 -611q36 -85 68.5 -128.5t75.5 -58.5t109 -15h9v-291h-9q-142 0 -234 53.5t-145 179.5h-10q-46 -115 -163.5 -179t-269.5 -64
q-106 0 -211.5 36.5t-200.5 109.5l124 231q71 -43 145 -64t138 -21q92 0 172.5 31.5t134.5 92.5l-254 573z" />
    <glyph glyph-name="uni0690.fina" unicode="&#x690;" horiz-adv-x="1304" 
d="M610 1831l172 173l174 -173l-174 -173zM261 1831l172 173l174 -173l-174 -173zM261 1482l172 173l174 -173l-174 -173zM610 1482l172 173l174 -173l-174 -173zM781 1104l261 -611q36 -85 68.5 -128.5t75.5 -58.5t109 -15h9v-291h-9q-142 0 -234 53.5t-145 179.5h-10
q-46 -115 -163.5 -179t-269.5 -64q-106 0 -211.5 36.5t-200.5 109.5l124 231q71 -43 145 -64t138 -21q92 0 172.5 31.5t134.5 92.5l-254 573z" />
    <glyph glyph-name="uni0692.fina" unicode="&#x692;" horiz-adv-x="792" 
d="M371 994h-122l-210 278l111 85l160 -221l160 221l111 -85zM164 662l260 90l70 -216q31 -95 65 -148.5t88 -75t143 -21.5h2v-291h-2q-164 0 -250 116l-10 -3q2 -237 -160.5 -396t-467.5 -267l-126 261q181 62 290.5 125.5t159.5 140t50 174.5q0 84 -30 219t-82 292z" />
    <glyph glyph-name="uni0693.fina" unicode="&#x693;" horiz-adv-x="792" 
d="M393 -220q88 0 140 -53.5t52 -141.5q0 -82 -53 -137t-139 -55q-82 0 -137 53.5t-55 138.5q0 83 55.5 139t136.5 56zM393 -326q-39 0 -62.5 -20t-23.5 -57t24 -58t62 -21t62 21.5t24 57.5t-24 56.5t-62 20.5zM164 662l260 90l70 -216q31 -95 65 -148.5t88 -75t143 -21.5h2
v-291h-2q-164 0 -250 116l-10 -3q2 -237 -160.5 -396t-467.5 -267l-126 261q181 62 290.5 125.5t159.5 140t50 174.5q0 84 -30 219t-82 292z" />
    <glyph glyph-name="uni0694.fina" unicode="&#x694;" horiz-adv-x="792" 
d="M362 -551l172 173l174 -173l-174 -173zM164 662l260 90l70 -216q31 -95 65 -148.5t88 -75t143 -21.5h2v-291h-2q-164 0 -250 116l-10 -3q2 -237 -160.5 -396t-467.5 -267l-126 261q181 62 290.5 125.5t159.5 140t50 174.5q0 84 -30 219t-82 292z" />
    <glyph glyph-name="uni0695.fina" unicode="&#x695;" horiz-adv-x="792" 
d="M339 -1025h-122l-210 278l111 85l160 -221l160 221l111 -85zM164 662l260 90l70 -216q31 -95 65 -148.5t88 -75t143 -21.5h2v-291h-2q-164 0 -250 116l-10 -3q2 -237 -160.5 -396t-467.5 -267l-126 261q181 62 290.5 125.5t159.5 140t50 174.5q0 84 -30 219t-82 292z" />
    <glyph glyph-name="uni0696.fina" unicode="&#x696;" horiz-adv-x="1099" 
d="M26 161l172 173l174 -173l-174 -173zM670 -551l172 173l174 -173l-174 -173zM472 662l260 90l70 -216q31 -95 65 -148.5t88 -75t143 -21.5h2v-291h-2q-164 0 -250 116l-10 -3q2 -237 -160.5 -396t-467.5 -267l-126 261q181 62 290.5 125.5t159.5 140t50 174.5
q0 84 -30 219t-82 292z" />
    <glyph glyph-name="uni0697.fina" unicode="&#x697;" horiz-adv-x="792" 
d="M-43 1098l172 173l174 -173l-174 -173zM306 1098l172 173l174 -173l-174 -173zM164 662l260 90l70 -216q31 -95 65 -148.5t88 -75t143 -21.5h2v-291h-2q-164 0 -250 116l-10 -3q2 -237 -160.5 -396t-467.5 -267l-126 261q181 62 290.5 125.5t159.5 140t50 174.5
q0 84 -30 219t-82 292z" />
    <glyph glyph-name="uni0699.fina" unicode="&#x699;" horiz-adv-x="792" 
d="M306 1425l172 173l174 -173l-174 -173zM-43 1425l172 173l174 -173l-174 -173zM-43 1076l172 173l174 -173l-174 -173zM306 1076l172 173l174 -173l-174 -173zM164 662l260 90l70 -216q31 -95 65 -148.5t88 -75t143 -21.5h2v-291h-2q-164 0 -250 116l-10 -3
q2 -237 -160.5 -396t-467.5 -267l-126 261q181 62 290.5 125.5t159.5 140t50 174.5q0 84 -30 219t-82 292z" />
    <glyph glyph-name="uni069A.init" unicode="&#x69a;" horiz-adv-x="1682" 
d="M782 -343l172 173l174 -173l-174 -173zM786 1151l172 173l174 -173l-174 -173zM689 291q71 0 101 40.5t38 121.5l18 202l241 -16l-15 -203q-6 -69 29 -107t105 -38q68 0 102 38.5t34 106.5q0 26 -5 75t-12.5 105.5t-16.5 104.5l268 64q17 -81 28.5 -173.5t11.5 -171.5
q0 -226 -93 -333t-267 -107q-130 0 -200 61t-93 158h-10q-48 -219 -279 -219q-124 0 -191 58.5t-92 165.5h-10q-43 -101 -130 -162.5t-212 -61.5h-39q-21 0 -31 35t-10 113q0 77 9.5 110t31.5 33h39q117 0 170 51.5t64 163.5l18 202l277 -20l-21 -240q-7 -70 30 -113.5
t112 -43.5z" />
    <glyph glyph-name="uni069A.medi" unicode="&#x69a;" horiz-adv-x="1876" 
d="M782 -343l172 173l174 -173l-174 -173zM786 1151l172 173l174 -173l-174 -173zM1521 246q-24 -118 -89 -182t-184 -64q-126 0 -194 61t-91 158h-10q-48 -219 -279 -219q-124 0 -190.5 58t-92.5 166h-10q-43 -101 -130 -162.5t-212 -61.5h-39q-21 0 -31 35t-10 113
q0 77 9.5 110t31.5 33h39q117 0 170 51.5t64 163.5l18 202l277 -20l-21 -240q-7 -70 30 -113.5t112 -43.5q71 0 101.5 40.5t37.5 121.5l18 202l241 -16l-15 -203q-6 -69 28.5 -107t103.5 -38q138 0 138 143q0 32 -11 112.5t-25 161.5l266 56l24 -158q19 -127 48.5 -195
t84 -94t146.5 -26h1v-291h-1q-156 0 -235 65.5t-109 180.5h-10z" />
    <glyph glyph-name="uni069A.fina" unicode="&#x69a;" horiz-adv-x="2777" 
d="M1699 -343l172 173l174 -173l-174 -173zM1681 1151l172 173l174 -173l-174 -173zM2423 246q-50 -246 -270 -246q-109 0 -185.5 53.5t-102.5 165.5h-10q-24 -105 -83 -162t-148 -57q-88 0 -147 49l-6 -4q-18 -170 -108.5 -286.5t-240 -176t-343.5 -59.5q-349 0 -526 155
t-177 481q0 95 15 211.5t48 258.5l262 -59q-33 -156 -45 -243t-12 -151q0 -193 106 -277.5t321 -84.5q221 0 335.5 73t114.5 233q0 85 -33.5 197t-116.5 304l257 123l119 -320q26 -68 60.5 -100.5t98.5 -32.5q65 0 96.5 38.5t38.5 127.5l15 198l239 -16l-14 -203
q-6 -73 30 -109t105 -36q127 0 127 143q0 33 -10.5 114t-24.5 160l266 56l25 -158q22 -130 50.5 -198t81 -92.5t146.5 -24.5v-291q-147 0 -229 60.5t-115 185.5h-10z" />
    <glyph glyph-name="uni069B.init" unicode="&#x69b;" horiz-adv-x="1682" 
d="M955 -341l172 173l174 -173l-174 -173zM606 -341l172 173l174 -173l-174 -173zM781 -669l173 173l173 -173l-173 -173zM689 291q71 0 101 40.5t38 121.5l18 202l241 -16l-15 -203q-6 -69 29 -107t105 -38q68 0 102 38.5t34 106.5q0 26 -5 75t-12.5 105.5t-16.5 104.5
l268 64q17 -81 28.5 -173.5t11.5 -171.5q0 -226 -93 -333t-267 -107q-130 0 -200 61t-93 158h-10q-48 -219 -279 -219q-124 0 -191 58.5t-92 165.5h-10q-43 -101 -130 -162.5t-212 -61.5h-39q-21 0 -31 35t-10 113q0 77 9.5 110t31.5 33h39q117 0 170 51.5t64 163.5l18 202
l277 -20l-21 -240q-7 -70 30 -113.5t112 -43.5z" />
    <glyph glyph-name="uni069B.medi" unicode="&#x69b;" horiz-adv-x="1876" 
d="M955 -341l172 173l174 -173l-174 -173zM606 -341l172 173l174 -173l-174 -173zM781 -669l173 173l173 -173l-173 -173zM1521 246q-24 -118 -89 -182t-184 -64q-126 0 -194 61t-91 158h-10q-48 -219 -279 -219q-124 0 -190.5 58t-92.5 166h-10q-43 -101 -130 -162.5
t-212 -61.5h-39q-21 0 -31 35t-10 113q0 77 9.5 110t31.5 33h39q117 0 170 51.5t64 163.5l18 202l277 -20l-21 -240q-7 -70 30 -113.5t112 -43.5q71 0 101.5 40.5t37.5 121.5l18 202l241 -16l-15 -203q-6 -69 28.5 -107t103.5 -38q138 0 138 143q0 32 -11 112.5t-25 161.5
l266 56l24 -158q19 -127 48.5 -195t84 -94t146.5 -26h1v-291h-1q-156 0 -235 65.5t-109 180.5h-10z" />
    <glyph glyph-name="uni069B.fina" unicode="&#x69b;" horiz-adv-x="2777" 
d="M1965 -343l172 173l174 -173l-174 -173zM1616 -343l172 173l174 -173l-174 -173zM1791 -671l173 173l173 -173l-173 -173zM2423 246q-50 -246 -270 -246q-109 0 -185.5 53.5t-102.5 165.5h-10q-24 -105 -83 -162t-148 -57q-88 0 -147 49l-6 -4q-18 -170 -108.5 -286.5
t-240 -176t-343.5 -59.5q-349 0 -526 155t-177 481q0 95 15 211.5t48 258.5l262 -59q-33 -156 -45 -243t-12 -151q0 -193 106 -277.5t321 -84.5q221 0 335.5 73t114.5 233q0 85 -33.5 197t-116.5 304l257 123l119 -320q26 -68 60.5 -100.5t98.5 -32.5q65 0 96.5 38.5
t38.5 127.5l15 198l239 -16l-14 -203q-6 -73 30 -109t105 -36q127 0 127 143q0 33 -10.5 114t-24.5 160l266 56l25 -158q22 -130 50.5 -198t81 -92.5t146.5 -24.5v-291q-147 0 -229 60.5t-115 185.5h-10z" />
    <glyph glyph-name="uni069C.init" unicode="&#x69c;" horiz-adv-x="1682" 
d="M955 -341l172 173l174 -173l-174 -173zM606 -341l172 173l174 -173l-174 -173zM781 -669l173 173l173 -173l-173 -173zM770 1374l173 173l173 -173l-173 -173zM945 1046l172 173l174 -173l-174 -173zM596 1046l172 173l174 -173l-174 -173zM689 291q71 0 101 40.5
t38 121.5l18 202l241 -16l-15 -203q-6 -69 29 -107t105 -38q68 0 102 38.5t34 106.5q0 26 -5 75t-12.5 105.5t-16.5 104.5l268 64q17 -81 28.5 -173.5t11.5 -171.5q0 -226 -93 -333t-267 -107q-130 0 -200 61t-93 158h-10q-48 -219 -279 -219q-124 0 -191 58.5t-92 165.5
h-10q-43 -101 -130 -162.5t-212 -61.5h-39q-21 0 -31 35t-10 113q0 77 9.5 110t31.5 33h39q117 0 170 51.5t64 163.5l18 202l277 -20l-21 -240q-7 -70 30 -113.5t112 -43.5z" />
    <glyph glyph-name="uni069C.medi" unicode="&#x69c;" horiz-adv-x="1876" 
d="M955 -341l172 173l174 -173l-174 -173zM606 -341l172 173l174 -173l-174 -173zM781 -669l173 173l173 -173l-173 -173zM770 1374l173 173l173 -173l-173 -173zM945 1046l172 173l174 -173l-174 -173zM596 1046l172 173l174 -173l-174 -173zM1521 246q-24 -118 -89 -182
t-184 -64q-126 0 -194 61t-91 158h-10q-48 -219 -279 -219q-124 0 -190.5 58t-92.5 166h-10q-43 -101 -130 -162.5t-212 -61.5h-39q-21 0 -31 35t-10 113q0 77 9.5 110t31.5 33h39q117 0 170 51.5t64 163.5l18 202l277 -20l-21 -240q-7 -70 30 -113.5t112 -43.5
q71 0 101.5 40.5t37.5 121.5l18 202l241 -16l-15 -203q-6 -69 28.5 -107t103.5 -38q138 0 138 143q0 32 -11 112.5t-25 161.5l266 56l24 -158q19 -127 48.5 -195t84 -94t146.5 -26h1v-291h-1q-156 0 -235 65.5t-109 180.5h-10z" />
    <glyph glyph-name="uni069C.fina" unicode="&#x69c;" horiz-adv-x="2777" 
d="M1965 -343l172 173l174 -173l-174 -173zM1616 -343l172 173l174 -173l-174 -173zM1791 -671l173 173l173 -173l-173 -173zM1654 1374l173 173l173 -173l-173 -173zM1829 1046l172 173l174 -173l-174 -173zM1480 1046l172 173l174 -173l-174 -173zM2423 246
q-50 -246 -270 -246q-109 0 -185.5 53.5t-102.5 165.5h-10q-24 -105 -83 -162t-148 -57q-88 0 -147 49l-6 -4q-18 -170 -108.5 -286.5t-240 -176t-343.5 -59.5q-349 0 -526 155t-177 481q0 95 15 211.5t48 258.5l262 -59q-33 -156 -45 -243t-12 -151q0 -193 106 -277.5
t321 -84.5q221 0 335.5 73t114.5 233q0 85 -33.5 197t-116.5 304l257 123l119 -320q26 -68 60.5 -100.5t98.5 -32.5q65 0 96.5 38.5t38.5 127.5l15 198l239 -16l-14 -203q-6 -73 30 -109t105 -36q127 0 127 143q0 33 -10.5 114t-24.5 160l266 56l25 -158q22 -130 50.5 -198
t81 -92.5t146.5 -24.5v-291q-147 0 -229 60.5t-115 185.5h-10z" />
    <glyph glyph-name="uni069D.init" unicode="&#x69d;" horiz-adv-x="1644" 
d="M643 -343l172 173l174 -173l-174 -173zM992 -343l172 173l174 -173l-174 -173zM417 236q-40 -117 -147.5 -176.5t-263.5 -59.5h-6q-22 0 -31.5 34.5t-9.5 111.5t9.5 111t31.5 34h6q137 0 184 54t47 161v206h277v-191q6 -50 21.5 -71.5t37.5 -35.5q176 248 330.5 357.5
t298.5 109.5q112 0 196.5 -55.5t132 -151.5t47.5 -218q0 -144 -80.5 -246t-218 -156t-308.5 -54q-215 0 -348.5 56.5t-195.5 179.5h-10zM1166 596q-88 0 -191.5 -64.5t-202.5 -207.5q45 -17 101 -25t117 -8q89 0 164.5 16.5t121.5 54t46 98.5q0 59 -42.5 97.5t-113.5 38.5z
" />
    <glyph glyph-name="uni069D.medi" unicode="&#x69d;" horiz-adv-x="1692" 
d="M643 -343l172 173l174 -173l-174 -173zM992 -343l172 173l174 -173l-174 -173zM237 712h277v-191q6 -50 21.5 -71.5t37.5 -35.5q176 248 330.5 357.5t298.5 109.5q112 0 196.5 -55.5t132 -151.5t47.5 -218q0 -77 -33 -140q63 -25 146 -25h1v-291h-1q-190 0 -290 117
q-81 -59 -191.5 -88t-238.5 -29q-214 0 -348 56.5t-196 179.5h-10q-40 -117 -147.5 -176.5t-263.5 -59.5h-6q-22 0 -31.5 34.5t-9.5 111.5t9.5 111t31.5 34h6q137 0 184 54t47 161v206zM1166 596q-88 0 -191.5 -64.5t-202.5 -207.5q45 -17 101 -25t117 -8q89 0 164.5 16.5
t121.5 54t46 98.5q0 59 -42.5 97.5t-113.5 38.5z" />
    <glyph glyph-name="uni069D.fina" unicode="&#x69d;" horiz-adv-x="2578" 
d="M1603 -343l172 173l174 -173l-174 -173zM1952 -343l172 173l174 -173l-174 -173zM2093 881q108 0 191 -54t130.5 -149.5t47.5 -221.5q0 -77 -33 -139q60 -26 148 -26h1v-291h-1q-179 0 -284 116q-75 -55 -180 -85.5t-237 -30.5q-242 0 -400 101q-19 -273 -203.5 -425.5
t-499.5 -152.5q-697 0 -697 636q0 97 15.5 213.5t47.5 256.5l262 -59q-32 -154 -44.5 -241.5t-12.5 -152.5q0 -188 102 -275t319 -87q444 0 444 321q0 82 -32.5 190.5t-114.5 295.5l258 124q46 -103 76 -189.5t47 -162.5q152 236 318 362t332 126zM2051 596
q-97 0 -202 -73.5t-194 -198.5q88 -33 219 -33q162 0 247 46.5t85 122.5q0 61 -43 98.5t-112 37.5z" />
    <glyph glyph-name="uni069E.init" unicode="&#x69e;" horiz-adv-x="1644" 
d="M1013 1562l173 173l173 -173l-173 -173zM1188 1234l172 173l174 -173l-174 -173zM839 1234l172 173l174 -173l-174 -173zM417 236q-40 -117 -147.5 -176.5t-263.5 -59.5h-6q-22 0 -31.5 34.5t-9.5 111.5t9.5 111t31.5 34h6q137 0 184 54t47 161v206h277v-191
q6 -50 21.5 -71.5t37.5 -35.5q176 248 330.5 357.5t298.5 109.5q112 0 196.5 -55.5t132 -151.5t47.5 -218q0 -144 -80.5 -246t-218 -156t-308.5 -54q-215 0 -348.5 56.5t-195.5 179.5h-10zM1166 596q-88 0 -191.5 -64.5t-202.5 -207.5q45 -17 101 -25t117 -8
q89 0 164.5 16.5t121.5 54t46 98.5q0 59 -42.5 97.5t-113.5 38.5z" />
    <glyph glyph-name="uni069E.medi" unicode="&#x69e;" horiz-adv-x="1692" 
d="M1013 1562l173 173l173 -173l-173 -173zM1188 1234l172 173l174 -173l-174 -173zM839 1234l172 173l174 -173l-174 -173zM237 712h277v-191q6 -50 21.5 -71.5t37.5 -35.5q176 248 330.5 357.5t298.5 109.5q112 0 196.5 -55.5t132 -151.5t47.5 -218q0 -77 -33 -140
q63 -25 146 -25h1v-291h-1q-190 0 -290 117q-81 -59 -191.5 -88t-238.5 -29q-214 0 -348 56.5t-196 179.5h-10q-40 -117 -147.5 -176.5t-263.5 -59.5h-6q-22 0 -31.5 34.5t-9.5 111.5t9.5 111t31.5 34h6q137 0 184 54t47 161v206zM1166 596q-88 0 -191.5 -64.5
t-202.5 -207.5q45 -17 101 -25t117 -8q89 0 164.5 16.5t121.5 54t46 98.5q0 59 -42.5 97.5t-113.5 38.5z" />
    <glyph glyph-name="uni069E.fina" unicode="&#x69e;" horiz-adv-x="2578" 
d="M1916 1562l173 173l173 -173l-173 -173zM2091 1234l172 173l174 -173l-174 -173zM1742 1234l172 173l174 -173l-174 -173zM2093 881q108 0 191 -54t130.5 -149.5t47.5 -221.5q0 -77 -33 -139q60 -26 148 -26h1v-291h-1q-179 0 -284 116q-75 -55 -180 -85.5t-237 -30.5
q-242 0 -400 101q-19 -273 -203.5 -425.5t-499.5 -152.5q-697 0 -697 636q0 97 15.5 213.5t47.5 256.5l262 -59q-32 -154 -44.5 -241.5t-12.5 -152.5q0 -188 102 -275t319 -87q444 0 444 321q0 82 -32.5 190.5t-114.5 295.5l258 124q46 -103 76 -189.5t47 -162.5
q152 236 318 362t332 126zM2051 596q-97 0 -202 -73.5t-194 -198.5q88 -33 219 -33q162 0 247 46.5t85 122.5q0 61 -43 98.5t-112 37.5z" />
    <glyph glyph-name="uni069F.fina" unicode="&#x69f;" horiz-adv-x="1634" 
d="M1006 1562l173 173l173 -173l-173 -173zM1181 1234l172 173l174 -173l-174 -173zM832 1234l172 173l174 -173l-174 -173zM351 291q8 14 16.5 26t16.5 25v1061h277v-564q0 -76 -13 -144.5t-44 -142.5l9 -7q277 336 531 336q114 0 197.5 -52.5t129 -145t45.5 -212.5
q0 -37 -5.5 -71.5t-19.5 -66.5q29 -20 63 -31t79 -11h1v-291h-1q-94 0 -160.5 34t-114.5 93q-79 -61 -200.5 -94t-291.5 -33h-798v291h283zM661 291h271q88 0 162.5 14t120.5 50t46 101q0 59 -45.5 99.5t-115.5 40.5q-82 0 -188.5 -63.5t-250.5 -241.5z" />
    <glyph glyph-name="uni06A0.init" unicode="&#x6a0;" horiz-adv-x="1092" 
d="M394 1734l173 173l173 -173l-173 -173zM569 1406l172 173l174 -173l-174 -173zM220 1406l172 173l174 -173l-174 -173zM357 514q0 -172 255 -172q76 0 179 13l174 23l30 -283l-339 -40q-202 -26 -365 -40.5t-253 -14.5h-38q-22 0 -31.5 34.5t-9.5 111.5t9.5 111t31.5 34
h26q42 0 87.5 1.5t83.5 4.5v17q-107 71 -107 233q0 129 63 231t173.5 160.5t250.5 58.5q210 0 361 -132l-125 -213q-122 61 -235 61q-97 0 -159 -55t-62 -144z" />
    <glyph glyph-name="uni06A0.medi" unicode="&#x6a0;" horiz-adv-x="1183" 
d="M458 1700l173 173l173 -173l-173 -173zM633 1372l172 173l174 -173l-174 -173zM284 1372l172 173l174 -173l-174 -173zM623 997q125 0 226 -43t160.5 -122.5t59.5 -188.5q0 -85 -52 -159.5t-140 -141.5v-10q50 -28 100 -34.5t108 -6.5h98v-291h-132q-118 0 -212 33.5
t-190 121.5q-112 -74 -240.5 -114.5t-277.5 -40.5h-131q-22 0 -31.5 35t-9.5 111q0 77 9.5 111t31.5 34h120q90 0 171.5 13t140.5 32v10l-318 284v174q108 92 237.5 142.5t271.5 50.5zM640 716q-123 0 -222 -50v-3l231 -237q81 50 126.5 97t45.5 93q0 52 -54.5 76t-126.5 24
z" />
    <glyph glyph-name="uni06A0.fina" unicode="&#x6a0;" horiz-adv-x="1226" 
d="M501 1724l173 173l173 -173l-173 -173zM676 1396l172 173l174 -173l-174 -173zM327 1396l172 173l174 -173l-174 -173zM1114 643q0 -159 -189 -297v-10q68 -45 191 -45h110v-291h-75q-131 0 -233.5 38.5t-209.5 127.5q-175 -82 -272.5 -175t-97.5 -209
q0 -109 124.5 -172.5t336.5 -63.5q164 0 330 40l64 -281q-207 -57 -395 -57q-219 0 -383 62.5t-255 176t-91 265.5q0 170 113 311t326 246v10l-349 311v174q228 193 509 193q132 0 232.5 -45t157 -125t56.5 -184zM866 616q0 46 -48.5 73t-131.5 27q-123 0 -223 -50v-3
l234 -237q169 103 169 190z" />
    <glyph glyph-name="uni06A1.fina" unicode="&#x6a1;" horiz-adv-x="1951" 
d="M1441 121q-109 -58 -251.5 -89.5t-306.5 -31.5q-265 0 -447 44.5t-275 149t-93 283.5q0 89 23.5 198.5t60.5 220.5l244 -78q-23 -73 -42.5 -156t-19.5 -137q0 -134 130 -181.5t419 -52.5q74 -1 148.5 2.5t144.5 11.5l3 9q-70 50 -111.5 123t-41.5 167q0 129 56.5 225.5
t151.5 150.5t212 54q116 0 211 -54t152 -150t57 -222q0 -94 -42 -169t-113 -126l4 -9q35 -6 71.5 -9.5t76.5 -3.5h88v-291h-107q-131 0 -226 32.5t-177 88.5zM1445 370q68 37 109.5 91t41.5 129q0 65 -42 109.5t-108 44.5q-67 0 -108.5 -44t-41.5 -110q0 -70 42 -125.5
t107 -94.5z" />
    <glyph glyph-name="uni06A2.init" unicode="&#x6a2;" horiz-adv-x="961" 
d="M271 -343l172 173l174 -173l-174 -173zM0 291h329q182 0 249.5 42.5t67.5 151.5q-126 -32 -233 -32q-176 0 -260.5 77t-84.5 237t46.5 278t132 183t200.5 65q135 0 234.5 -92.5t154 -261.5t54.5 -399q0 -280 -137 -410t-430 -130h-323q-22 0 -31.5 34.5t-9.5 111.5
t9.5 111t31.5 34zM605 724q-12 137 -56 210.5t-114 73.5q-64 0 -104 -55t-40 -144q0 -105 141 -105q70 0 173 20z" />
    <glyph glyph-name="uni06A2.medi" unicode="&#x6a2;" horiz-adv-x="1034" 
d="M337 -343l172 173l174 -173l-174 -173zM96 604q0 129 56.5 225.5t151.5 150.5t212 54q116 0 211 -54t152 -150t57 -222q0 -94 -42 -169t-113 -126l5 -9q34 -6 69.5 -9.5t74.5 -3.5h104v-291h-123q-130 0 -224.5 32.5t-175.5 88.5q-79 -56 -171.5 -88.5t-219.5 -32.5h-120
q-42 0 -42 146q0 145 42 145h84q44 0 85 3.5t80 9.5l4 9q-71 50 -114 123.5t-43 167.5zM515 369q68 38 109.5 91.5t41.5 129.5q0 65 -41.5 109.5t-108.5 44.5t-108.5 -44t-41.5 -110q0 -70 42 -126t107 -95z" />
    <glyph glyph-name="uni06A2.fina" unicode="&#x6a2;" horiz-adv-x="1951" 
d="M725 -343l172 173l174 -173l-174 -173zM1441 121q-109 -58 -251.5 -89.5t-306.5 -31.5q-265 0 -447 44.5t-275 149t-93 283.5q0 89 23.5 198.5t60.5 220.5l244 -78q-23 -73 -42.5 -156t-19.5 -137q0 -134 130 -181.5t419 -52.5q74 -1 148.5 2.5t144.5 11.5l3 9
q-70 50 -111.5 123t-41.5 167q0 129 56.5 225.5t151.5 150.5t212 54q116 0 211 -54t152 -150t57 -222q0 -94 -42 -169t-113 -126l4 -9q35 -6 71.5 -9.5t76.5 -3.5h88v-291h-107q-131 0 -226 32.5t-177 88.5zM1445 370q68 37 109.5 91t41.5 129q0 65 -42 109.5t-108 44.5
q-67 0 -108.5 -44t-41.5 -110q0 -70 42 -125.5t107 -94.5z" />
    <glyph glyph-name="uni06A3.init" unicode="&#x6a3;" horiz-adv-x="961" 
d="M270 1670l172 173l174 -173l-174 -173zM271 -343l172 173l174 -173l-174 -173zM0 291h329q182 0 249.5 42.5t67.5 151.5q-126 -32 -233 -32q-176 0 -260.5 77t-84.5 237t46.5 278t132 183t200.5 65q135 0 234.5 -92.5t154 -261.5t54.5 -399q0 -280 -137 -410t-430 -130
h-323q-22 0 -31.5 34.5t-9.5 111.5t9.5 111t31.5 34zM605 724q-12 137 -56 210.5t-114 73.5q-64 0 -104 -55t-40 -144q0 -105 141 -105q70 0 173 20z" />
    <glyph glyph-name="uni06A3.medi" unicode="&#x6a3;" horiz-adv-x="1034" 
d="M342 1431l172 173l174 -173l-174 -173zM337 -343l172 173l174 -173l-174 -173zM96 604q0 129 56.5 225.5t151.5 150.5t212 54q116 0 211 -54t152 -150t57 -222q0 -94 -42 -169t-113 -126l5 -9q34 -6 69.5 -9.5t74.5 -3.5h104v-291h-123q-130 0 -224.5 32.5t-175.5 88.5
q-79 -56 -171.5 -88.5t-219.5 -32.5h-120q-42 0 -42 146q0 145 42 145h84q44 0 85 3.5t80 9.5l4 9q-71 50 -114 123.5t-43 167.5zM515 369q68 38 109.5 91.5t41.5 129.5q0 65 -41.5 109.5t-108.5 44.5t-108.5 -44t-41.5 -110q0 -70 42 -126t107 -95z" />
    <glyph glyph-name="uni06A3.fina" unicode="&#x6a3;" horiz-adv-x="1951" 
d="M1274 1445l172 173l174 -173l-174 -173zM725 -343l172 173l174 -173l-174 -173zM1441 121q-109 -58 -251.5 -89.5t-306.5 -31.5q-265 0 -447 44.5t-275 149t-93 283.5q0 89 23.5 198.5t60.5 220.5l244 -78q-23 -73 -42.5 -156t-19.5 -137q0 -134 130 -181.5t419 -52.5
q74 -1 148.5 2.5t144.5 11.5l3 9q-70 50 -111.5 123t-41.5 167q0 129 56.5 225.5t151.5 150.5t212 54q116 0 211 -54t152 -150t57 -222q0 -94 -42 -169t-113 -126l4 -9q35 -6 71.5 -9.5t76.5 -3.5h88v-291h-107q-131 0 -226 32.5t-177 88.5zM1445 370q68 37 109.5 91
t41.5 129q0 65 -42 109.5t-108 44.5q-67 0 -108.5 -44t-41.5 -110q0 -70 42 -125.5t107 -94.5z" />
    <glyph glyph-name="uni06A5.init" unicode="&#x6a5;" horiz-adv-x="961" 
d="M442 -343l172 173l174 -173l-174 -173zM93 -343l172 173l174 -173l-174 -173zM268 -671l173 173l173 -173l-173 -173zM0 291h329q182 0 249.5 42.5t67.5 151.5q-126 -32 -233 -32q-176 0 -260.5 77t-84.5 237t46.5 278t132 183t200.5 65q135 0 234.5 -92.5t154 -261.5
t54.5 -399q0 -280 -137 -410t-430 -130h-323q-22 0 -31.5 34.5t-9.5 111.5t9.5 111t31.5 34zM605 724q-12 137 -56 210.5t-114 73.5q-64 0 -104 -55t-40 -144q0 -105 141 -105q70 0 173 20z" />
    <glyph glyph-name="uni06A5.medi" unicode="&#x6a5;" horiz-adv-x="1034" 
d="M511 -343l172 173l174 -173l-174 -173zM162 -343l172 173l174 -173l-174 -173zM337 -671l173 173l173 -173l-173 -173zM96 604q0 129 56.5 225.5t151.5 150.5t212 54q116 0 211 -54t152 -150t57 -222q0 -94 -42 -169t-113 -126l5 -9q34 -6 69.5 -9.5t74.5 -3.5h104v-291
h-123q-130 0 -224.5 32.5t-175.5 88.5q-79 -56 -171.5 -88.5t-219.5 -32.5h-120q-42 0 -42 146q0 145 42 145h84q44 0 85 3.5t80 9.5l4 9q-71 50 -114 123.5t-43 167.5zM515 369q68 38 109.5 91.5t41.5 129.5q0 65 -41.5 109.5t-108.5 44.5t-108.5 -44t-41.5 -110
q0 -70 42 -126t107 -95z" />
    <glyph glyph-name="uni06A5.fina" unicode="&#x6a5;" horiz-adv-x="1951" 
d="M896 -343l172 173l174 -173l-174 -173zM547 -343l172 173l174 -173l-174 -173zM722 -671l173 173l173 -173l-173 -173zM1441 121q-109 -58 -251.5 -89.5t-306.5 -31.5q-265 0 -447 44.5t-275 149t-93 283.5q0 89 23.5 198.5t60.5 220.5l244 -78q-23 -73 -42.5 -156
t-19.5 -137q0 -134 130 -181.5t419 -52.5q74 -1 148.5 2.5t144.5 11.5l3 9q-70 50 -111.5 123t-41.5 167q0 129 56.5 225.5t151.5 150.5t212 54q116 0 211 -54t152 -150t57 -222q0 -94 -42 -169t-113 -126l4 -9q35 -6 71.5 -9.5t76.5 -3.5h88v-291h-107q-131 0 -226 32.5
t-177 88.5zM1445 370q68 37 109.5 91t41.5 129q0 65 -42 109.5t-108 44.5q-67 0 -108.5 -44t-41.5 -110q0 -70 42 -125.5t107 -94.5z" />
    <glyph glyph-name="uni06A7.fina" unicode="&#x6a7;" horiz-adv-x="1547" 
d="M894 1244l172 173l174 -173l-174 -173zM1067 872q130 0 218 -78t138 -209.5t65 -293.5h59v-291h-67q-40 -261 -226 -404t-488 -143q-343 0 -519.5 149.5t-176.5 442.5q0 82 14 199.5t43 290.5l269 -53q-25 -142 -37 -241t-12 -173q0 -165 109 -243.5t320 -78.5
q179 0 297 63.5t153 185.5l-8 14q-84 -9 -179 -9q-165 0 -258.5 88t-93.5 264q0 148 46 265.5t131.5 186t202.5 68.5zM1061 578q-73 0 -110.5 -56.5t-37.5 -126.5q0 -62 38 -88t103 -26q46 0 91 1t88 4q-2 68 -19 135.5t-53.5 112t-99.5 44.5z" />
    <glyph glyph-name="uni06A8.fina" unicode="&#x6a8;" horiz-adv-x="1547" 
d="M893 1558l173 173l173 -173l-173 -173zM1068 1230l172 173l174 -173l-174 -173zM719 1230l172 173l174 -173l-174 -173zM1067 872q130 0 218 -78t138 -209.5t65 -293.5h59v-291h-67q-40 -261 -226 -404t-488 -143q-343 0 -519.5 149.5t-176.5 442.5q0 82 14 199.5
t43 290.5l269 -53q-25 -142 -37 -241t-12 -173q0 -165 109 -243.5t320 -78.5q179 0 297 63.5t153 185.5l-8 14q-84 -9 -179 -9q-165 0 -258.5 88t-93.5 264q0 148 46 265.5t131.5 186t202.5 68.5zM1061 578q-73 0 -110.5 -56.5t-37.5 -126.5q0 -62 38 -88t103 -26q46 0 91 1
t88 4q-2 68 -19 135.5t-53.5 112t-99.5 44.5z" />
    <glyph glyph-name="uni06AA.init" unicode="&#x6aa;" horiz-adv-x="1957" 
d="M925 1449l151 -244q-168 -94 -275.5 -162.5t-173.5 -120.5t-109 -98h810q289 0 426 -74.5t137 -256.5q0 -144 -81.5 -255.5t-233 -174.5t-362.5 -63h-1214q-22 0 -31.5 35t-9.5 111q0 77 9.5 111t31.5 34h1293q139 0 223.5 47t84.5 109q0 48 -51 66.5t-140 18.5h-1048
l-178 256q30 102 113.5 203.5t237 213t390.5 244.5z" />
    <glyph glyph-name="uni06AA.medi" unicode="&#x6aa;" horiz-adv-x="2156" 
d="M925 1449l151 -244q-168 -94 -275.5 -162.5t-173.5 -120.5t-109 -98h810q288 0 425.5 -74.5t137.5 -256.5q0 -73 21 -117.5t78.5 -64.5t164.5 -20h1v-291h-1q-138 0 -242 51.5t-156 170.5h-10q-75 -115 -215 -168.5t-325 -53.5h-1207q-22 0 -31.5 35t-9.5 111
q0 77 9.5 111t31.5 34h1293q139 0 223.5 47t84.5 109q0 48 -51 66.5t-140 18.5h-1048l-178 256q30 102 113.5 203.5t237 213t390.5 244.5z" />
    <glyph glyph-name="uni06AA.fina" unicode="&#x6aa;" horiz-adv-x="2385" 
d="M1154 1449l150 -244q-167 -94 -275 -162.5t-173.5 -120.5t-108.5 -98h809q290 0 426.5 -74.5t136.5 -256.5q0 -73 21.5 -117.5t79 -64.5t164.5 -20h1v-291h-1q-138 0 -243 51.5t-156 170.5h-10q-69 -109 -211.5 -165.5t-327.5 -56.5h-1368v291h1454q139 0 223.5 47
t84.5 109q0 48 -51 66.5t-140 18.5h-1047l-180 256q30 102 114 203.5t237.5 213t390.5 244.5z" />
    <glyph glyph-name="uni06AB.init" unicode="&#x6ab;" horiz-adv-x="888" 
d="M731 1217q88 0 143 -53.5t55 -141.5q0 -82 -56 -137t-142 -55q-82 0 -134 53.5t-52 138.5q0 83 53 139t133 56zM732 1110q-39 0 -62.5 -20t-23.5 -57t24.5 -58t61.5 -21q38 0 61.5 21.5t23.5 57.5t-23.5 56.5t-61.5 20.5zM908 1454l40 -289q-207 -47 -348.5 -87
t-255.5 -82v-6q156 -123 250.5 -217t136.5 -175.5t42 -165.5q0 -206 -164 -319t-466 -113h-143q-22 0 -31.5 33.5t-9.5 112.5t9.5 112t31.5 33h136q183 0 271 39t88 118q0 47 -46.5 106.5t-153 147t-286.5 217.5l21 243q400 193 878 292z" />
    <glyph glyph-name="uni06AB.medi" unicode="&#x6ab;" horiz-adv-x="1136" 
d="M731 1217q88 0 143 -53.5t55 -141.5q0 -82 -56 -137t-142 -55q-82 0 -134 53.5t-52 138.5q0 83 53 139t133 56zM732 1110q-39 0 -62.5 -20t-23.5 -57t24.5 -58t61.5 -21q38 0 61.5 21.5t23.5 57.5t-23.5 56.5t-61.5 20.5zM673 306q-54 -166 -176.5 -236t-353.5 -70h-143
q-22 0 -31.5 33.5t-9.5 111.5q0 79 9.5 112.5t31.5 33.5h136q180 0 266 39t86 115q0 45 -47 107.5t-152 152t-280 214.5l21 243q402 193 878 292l40 -289q-203 -46 -345.5 -86t-258.5 -83v-6q107 -83 176.5 -145.5t122 -125t105.5 -147.5q64 -107 118.5 -168.5t117.5 -87
t151 -25.5h1v-291h-1q-164 0 -270 71.5t-182 234.5h-10z" />
    <glyph glyph-name="uni06AB.fina" unicode="&#x6ab;" horiz-adv-x="1962" 
d="M1542 1214q88 0 143 -53.5t55 -141.5q0 -82 -56 -137t-142 -55q-82 0 -134 53.5t-52 138.5q0 83 53 139t133 56zM1543 1107q-39 0 -62.5 -20t-23.5 -57t24.5 -58t61.5 -21q38 0 61.5 21.5t23.5 57.5t-23.5 56.5t-61.5 20.5zM1499 304q-48 -157 -216.5 -230.5
t-478.5 -73.5q-388 0 -561 117.5t-173 381.5q0 147 43 360l252 -56q-16 -87 -25.5 -161t-9.5 -113q0 -131 105.5 -184.5t364.5 -53.5q252 0 383 41t131 120q0 65 -115.5 177.5t-363.5 289.5l20 243q402 193 878 292l40 -289q-203 -46 -345.5 -86t-258.5 -83l1 -6
q109 -86 179 -149.5t121.5 -126t103.5 -144.5q65 -109 120 -169.5t117.5 -85t149.5 -24.5h1v-291h-1q-166 1 -271 71t-181 233h-10z" />
    <glyph glyph-name="uni06AC.init" unicode="&#x6ac;" horiz-adv-x="888" 
d="M237 1635l140 140l141 -140l-141 -141zM908 1454l40 -289q-207 -47 -348.5 -87t-255.5 -82v-6q156 -123 250.5 -217t136.5 -175.5t42 -165.5q0 -206 -164 -319t-466 -113h-143q-22 0 -31.5 33.5t-9.5 112.5t9.5 112t31.5 33h136q183 0 271 39t88 118q0 47 -46.5 106.5
t-153 147t-286.5 217.5l21 243q400 193 878 292z" />
    <glyph glyph-name="uni06AC.medi" unicode="&#x6ac;" horiz-adv-x="1136" 
d="M237 1635l140 140l141 -140l-141 -141zM673 306q-54 -166 -176.5 -236t-353.5 -70h-143q-22 0 -31.5 33.5t-9.5 111.5q0 79 9.5 112.5t31.5 33.5h136q180 0 266 39t86 115q0 45 -47 107.5t-152 152t-280 214.5l21 243q402 193 878 292l40 -289q-203 -46 -345.5 -86
t-258.5 -83v-6q107 -83 176.5 -145.5t122 -125t105.5 -147.5q64 -107 118.5 -168.5t117.5 -87t151 -25.5h1v-291h-1q-164 0 -270 71.5t-182 234.5h-10z" />
    <glyph glyph-name="uni06AC.fina" unicode="&#x6ac;" horiz-adv-x="1845" 
d="M646 1441l172 173l174 -173l-174 -173zM688 519q-27 0 -58.5 3.5t-66.5 9.5l31 134q58 -11 114 -11q65 0 114 15t49 48q0 20 -24 29t-77 18q-74 14 -115.5 44.5t-41.5 94.5q0 113 73 182.5t182 69.5q59 0 116 -16l-43 -129q-19 5 -40 8.5t-42 3.5q-52 0 -89 -23t-37 -63
q0 -27 27.5 -38t92.5 -24q65 -11 102.5 -40.5t37.5 -95.5q0 -104 -85.5 -162t-219.5 -58zM1578 590q0 -117 23.5 -182t81.5 -91t161 -26h1v-291h-1q-158 0 -260.5 58t-135.5 181h-10q-53 -132 -206 -185.5t-418 -53.5q-266 0 -430.5 48.5t-240 155.5t-75.5 280
q0 62 11 144.5t30 165.5l250 -55q-13 -67 -21.5 -135t-8.5 -104q0 -80 43.5 -126t147.5 -64.5t286 -18.5q195 0 302.5 25.5t150 90.5t42.5 181v809h277v-807z" />
    <glyph glyph-name="uni06AE.init" unicode="&#x6ae;" horiz-adv-x="888" 
d="M538 -343l172 173l174 -173l-174 -173zM189 -343l172 173l174 -173l-174 -173zM364 -671l173 173l173 -173l-173 -173zM908 1454l40 -289q-207 -47 -348.5 -87t-255.5 -82v-6q156 -123 250.5 -217t136.5 -175.5t42 -165.5q0 -206 -164 -319t-466 -113h-143
q-22 0 -31.5 33.5t-9.5 112.5t9.5 112t31.5 33h136q183 0 271 39t88 118q0 47 -46.5 106.5t-153 147t-286.5 217.5l21 243q400 193 878 292z" />
    <glyph glyph-name="uni06AE.medi" unicode="&#x6ae;" horiz-adv-x="1136" 
d="M538 -343l172 173l174 -173l-174 -173zM189 -343l172 173l174 -173l-174 -173zM364 -671l173 173l173 -173l-173 -173zM673 306q-54 -166 -176.5 -236t-353.5 -70h-143q-22 0 -31.5 33.5t-9.5 111.5q0 79 9.5 112.5t31.5 33.5h136q180 0 266 39t86 115q0 45 -47 107.5
t-152 152t-280 214.5l21 243q402 193 878 292l40 -289q-203 -46 -345.5 -86t-258.5 -83v-6q107 -83 176.5 -145.5t122 -125t105.5 -147.5q64 -107 118.5 -168.5t117.5 -87t151 -25.5h1v-291h-1q-164 0 -270 71.5t-182 234.5h-10z" />
    <glyph glyph-name="uni06AE.fina" unicode="&#x6ae;" horiz-adv-x="1845" 
d="M781 -343l172 173l174 -173l-174 -173zM432 -343l172 173l174 -173l-174 -173zM607 -671l173 173l173 -173l-173 -173zM688 519q-27 0 -58.5 3.5t-66.5 9.5l31 134q58 -11 114 -11q65 0 114 15t49 48q0 20 -24 29t-77 18q-74 14 -115.5 44.5t-41.5 94.5q0 113 73 182.5
t182 69.5q59 0 116 -16l-43 -129q-19 5 -40 8.5t-42 3.5q-52 0 -89 -23t-37 -63q0 -27 27.5 -38t92.5 -24q65 -11 102.5 -40.5t37.5 -95.5q0 -104 -85.5 -162t-219.5 -58zM1578 590q0 -117 23.5 -182t81.5 -91t161 -26h1v-291h-1q-158 0 -260.5 58t-135.5 181h-10
q-53 -132 -206 -185.5t-418 -53.5q-266 0 -430.5 48.5t-240 155.5t-75.5 280q0 62 11 144.5t30 165.5l250 -55q-13 -67 -21.5 -135t-8.5 -104q0 -80 43.5 -126t147.5 -64.5t286 -18.5q195 0 302.5 25.5t150 90.5t42.5 181v809h277v-807z" />
    <glyph glyph-name="uni06B0.init" unicode="&#x6b0;" horiz-adv-x="888" 
d="M731 1217q88 0 143 -53.5t55 -141.5q0 -82 -56 -137t-142 -55q-82 0 -134 53.5t-52 138.5q0 83 53 139t133 56zM732 1110q-39 0 -62.5 -20t-23.5 -57t24.5 -58t61.5 -21q38 0 61.5 21.5t23.5 57.5t-23.5 56.5t-61.5 20.5zM729 1748l26 -143q-172 -31 -349 -91.5
t-349 -145.5l-67 130q371 184 739 250zM908 1454l40 -289q-207 -47 -348.5 -87t-255.5 -82v-6q156 -123 250.5 -217t136.5 -175.5t42 -165.5q0 -206 -164 -319t-466 -113h-143q-22 0 -31.5 33.5t-9.5 112.5t9.5 112t31.5 33h136q183 0 271 39t88 118q0 47 -46.5 106.5
t-153 147t-286.5 217.5l21 243q400 193 878 292z" />
    <glyph glyph-name="uni06B0.medi" unicode="&#x6b0;" horiz-adv-x="1136" 
d="M731 1217q88 0 143 -53.5t55 -141.5q0 -82 -56 -137t-142 -55q-82 0 -134 53.5t-52 138.5q0 83 53 139t133 56zM732 1110q-39 0 -62.5 -20t-23.5 -57t24.5 -58t61.5 -21q38 0 61.5 21.5t23.5 57.5t-23.5 56.5t-61.5 20.5zM729 1748l26 -143q-172 -31 -349 -91.5
t-349 -145.5l-67 130q371 184 739 250zM673 306q-54 -166 -176.5 -236t-353.5 -70h-143q-22 0 -31.5 33.5t-9.5 111.5q0 79 9.5 112.5t31.5 33.5h136q180 0 266 39t86 115q0 45 -47 107.5t-152 152t-280 214.5l21 243q402 193 878 292l40 -289q-203 -46 -345.5 -86
t-258.5 -83v-6q107 -83 176.5 -145.5t122 -125t105.5 -147.5q64 -107 118.5 -168.5t117.5 -87t151 -25.5h1v-291h-1q-164 0 -270 71.5t-182 234.5h-10z" />
    <glyph glyph-name="uni06B0.fina" unicode="&#x6b0;" horiz-adv-x="1962" 
d="M1542 1214q88 0 143 -53.5t55 -141.5q0 -82 -56 -137t-142 -55q-82 0 -134 53.5t-52 138.5q0 83 53 139t133 56zM1543 1107q-39 0 -62.5 -20t-23.5 -57t24.5 -58t61.5 -21q38 0 61.5 21.5t23.5 57.5t-23.5 56.5t-61.5 20.5zM1538 1748l26 -143q-172 -31 -349 -91.5
t-349 -145.5l-67 130q371 184 739 250zM1499 304q-48 -157 -216.5 -230.5t-478.5 -73.5q-388 0 -561 117.5t-173 381.5q0 147 43 360l252 -56q-16 -87 -25.5 -161t-9.5 -113q0 -131 105.5 -184.5t364.5 -53.5q252 0 383 41t131 120q0 65 -115.5 177.5t-363.5 289.5l20 243
q402 193 878 292l40 -289q-203 -46 -345.5 -86t-258.5 -83l1 -6q109 -86 179 -149.5t121.5 -126t103.5 -144.5q65 -109 120 -169.5t117.5 -85t149.5 -24.5h1v-291h-1q-166 1 -271 71t-181 233h-10z" />
    <glyph glyph-name="uni06B2.init" unicode="&#x6b2;" horiz-adv-x="888" 
d="M189 -343l172 173l174 -173l-174 -173zM538 -343l172 173l174 -173l-174 -173zM908 1454l40 -289q-207 -47 -348.5 -87t-255.5 -82v-6q156 -123 250.5 -217t136.5 -175.5t42 -165.5q0 -206 -164 -319t-466 -113h-143q-22 0 -31.5 33.5t-9.5 112.5t9.5 112t31.5 33h136
q183 0 271 39t88 118q0 47 -46.5 106.5t-153 147t-286.5 217.5l21 243q400 193 878 292zM729 1748l26 -143q-172 -31 -349 -91.5t-349 -145.5l-67 130q371 184 739 250z" />
    <glyph glyph-name="uni06B2.medi" unicode="&#x6b2;" horiz-adv-x="1136" 
d="M189 -343l172 173l174 -173l-174 -173zM538 -343l172 173l174 -173l-174 -173zM673 306q-54 -166 -176.5 -236t-353.5 -70h-143q-22 0 -31.5 33.5t-9.5 111.5q0 79 9.5 112.5t31.5 33.5h136q180 0 266 39t86 115q0 45 -47 107.5t-152 152t-280 214.5l21 243
q402 193 878 292l40 -289q-203 -46 -345.5 -86t-258.5 -83v-6q107 -83 176.5 -145.5t122 -125t105.5 -147.5q64 -107 118.5 -168.5t117.5 -87t151 -25.5h1v-291h-1q-164 0 -270 71.5t-182 234.5h-10zM729 1748l26 -143q-172 -31 -349 -91.5t-349 -145.5l-67 130
q371 184 739 250z" />
    <glyph glyph-name="uni06B2.fina" unicode="&#x6b2;" horiz-adv-x="1962" 
d="M465 -343l172 173l174 -173l-174 -173zM814 -343l172 173l174 -173l-174 -173zM1499 304q-48 -157 -216.5 -230.5t-478.5 -73.5q-388 0 -561 117.5t-173 381.5q0 147 43 360l252 -56q-16 -87 -25.5 -161t-9.5 -113q0 -131 105.5 -184.5t364.5 -53.5q252 0 383 41t131 120
q0 65 -115.5 177.5t-363.5 289.5l20 243q402 193 878 292l40 -289q-203 -46 -345.5 -86t-258.5 -83l1 -6q109 -86 179 -149.5t121.5 -126t103.5 -144.5q65 -109 120 -169.5t117.5 -85t149.5 -24.5h1v-291h-1q-166 1 -271 71t-181 233h-10zM1538 1748l26 -143
q-172 -31 -349 -91.5t-349 -145.5l-67 130q371 184 739 250z" />
    <glyph glyph-name="uni06B4.init" unicode="&#x6b4;" horiz-adv-x="888" 
d="M908 1454l40 -289q-207 -47 -348.5 -87t-255.5 -82v-6q156 -123 250.5 -217t136.5 -175.5t42 -165.5q0 -206 -164 -319t-466 -113h-143q-22 0 -31.5 33.5t-9.5 112.5t9.5 112t31.5 33h136q183 0 271 39t88 118q0 47 -46.5 106.5t-153 147t-286.5 217.5l21 243
q400 193 878 292zM729 1748l26 -143q-172 -31 -349 -91.5t-349 -145.5l-67 130q371 184 739 250zM289 1955l140 140l141 -140l-141 -141zM-29 1851l140 140l141 -140l-141 -141zM65 2161l140 140l141 -140l-141 -141z" />
    <glyph glyph-name="uni06B4.medi" unicode="&#x6b4;" horiz-adv-x="1136" 
d="M673 306q-54 -166 -176.5 -236t-353.5 -70h-143q-22 0 -31.5 33.5t-9.5 111.5q0 79 9.5 112.5t31.5 33.5h136q180 0 266 39t86 115q0 45 -47 107.5t-152 152t-280 214.5l21 243q402 193 878 292l40 -289q-203 -46 -345.5 -86t-258.5 -83v-6q107 -83 176.5 -145.5
t122 -125t105.5 -147.5q64 -107 118.5 -168.5t117.5 -87t151 -25.5h1v-291h-1q-164 0 -270 71.5t-182 234.5h-10zM729 1748l26 -143q-172 -31 -349 -91.5t-349 -145.5l-67 130q371 184 739 250zM289 1955l140 140l141 -140l-141 -141zM-29 1851l140 140l141 -140l-141 -141z
M65 2161l140 140l141 -140l-141 -141z" />
    <glyph glyph-name="uni06B4.fina" unicode="&#x6b4;" horiz-adv-x="1962" 
d="M891 2161l140 140l141 -140l-141 -141zM1115 1955l140 140l141 -140l-141 -141zM797 1851l140 140l141 -140l-141 -141zM1499 304q-48 -157 -216.5 -230.5t-478.5 -73.5q-388 0 -561 117.5t-173 381.5q0 147 43 360l252 -56q-16 -87 -25.5 -161t-9.5 -113
q0 -131 105.5 -184.5t364.5 -53.5q252 0 383 41t131 120q0 65 -115.5 177.5t-363.5 289.5l20 243q402 193 878 292l40 -289q-203 -46 -345.5 -86t-258.5 -83l1 -6q109 -86 179 -149.5t121.5 -126t103.5 -144.5q65 -109 120 -169.5t117.5 -85t149.5 -24.5h1v-291h-1
q-166 1 -271 71t-181 233h-10zM1538 1748l26 -143q-172 -31 -349 -91.5t-349 -145.5l-67 130q371 184 739 250z" />
    <glyph glyph-name="uni06B5.init" unicode="&#x6b5;" horiz-adv-x="632" 
d="M425 1609h-122l-210 278l111 85l160 -221l160 221l111 -85zM0 291q95 0 142.5 17t63.5 60.5t16 121.5v913h278v-913q0 -238 -124 -364t-376 -126q-19 0 -30.5 30.5t-11.5 115.5q0 86 11.5 115.5t30.5 29.5z" />
    <glyph glyph-name="uni06B5.medi" unicode="&#x6b5;" horiz-adv-x="726" 
d="M425 1609h-122l-210 278l111 85l160 -221l160 221l111 -85zM356 232q-31 -100 -122 -166t-234 -66q-19 0 -30 30.5t-11 115.5q0 86 11 115.5t30 29.5q98 0 145.5 19t62 63.5t14.5 121.5v908h278v-895q0 -112 44.5 -164.5t180.5 -52.5h1v-291h-1q-147 0 -237.5 66.5
t-121.5 165.5h-10z" />
    <glyph glyph-name="uni06B5.fina" unicode="&#x6b5;" horiz-adv-x="1577" 
d="M1227 1609h-122l-210 278l111 85l160 -221l160 221l111 -85zM1577 291v-291h-10q-86 0 -150.5 35t-96.5 103l-10 -2v-64q0 -178 -82 -307.5t-230.5 -199.5t-350.5 -70q-279 0 -429 148t-150 424q0 77 15 173t52 244l250 -65q-54 -206 -54 -332q0 -154 83 -227t257 -73
q185 0 272.5 89t87.5 276v1251h279v-875q0 -123 50 -180t196 -57h21z" />
    <glyph glyph-name="uni06B6.init" unicode="&#x6b6;" horiz-adv-x="632" 
d="M186 1778l172 173l174 -173l-174 -173zM0 291q95 0 142.5 17t63.5 60.5t16 121.5v913h278v-913q0 -238 -124 -364t-376 -126q-19 0 -30.5 30.5t-11.5 115.5q0 86 11.5 115.5t30.5 29.5z" />
    <glyph glyph-name="uni06B6.medi" unicode="&#x6b6;" horiz-adv-x="726" 
d="M186 1778l172 173l174 -173l-174 -173zM356 232q-31 -100 -122 -166t-234 -66q-19 0 -30 30.5t-11 115.5q0 86 11 115.5t30 29.5q98 0 145.5 19t62 63.5t14.5 121.5v908h278v-895q0 -112 44.5 -164.5t180.5 -52.5h1v-291h-1q-147 0 -237.5 66.5t-121.5 165.5h-10z" />
    <glyph glyph-name="uni06B6.fina" unicode="&#x6b6;" horiz-adv-x="1577" 
d="M991 1778l172 173l174 -173l-174 -173zM1577 291v-291h-10q-86 0 -150.5 35t-96.5 103l-10 -2v-64q0 -178 -82 -307.5t-230.5 -199.5t-350.5 -70q-279 0 -429 148t-150 424q0 77 15 173t52 244l250 -65q-54 -206 -54 -332q0 -154 83 -227t257 -73q185 0 272.5 89
t87.5 276v1251h279v-875q0 -123 50 -180t196 -57h21z" />
    <glyph glyph-name="uni06B7.init" unicode="&#x6b7;" horiz-adv-x="632" 
d="M187 2096l173 173l173 -173l-173 -173zM362 1768l172 173l174 -173l-174 -173zM13 1768l172 173l174 -173l-174 -173zM0 291q95 0 142.5 17t63.5 60.5t16 121.5v913h278v-913q0 -238 -124 -364t-376 -126q-19 0 -30.5 30.5t-11.5 115.5q0 86 11.5 115.5t30.5 29.5z" />
    <glyph glyph-name="uni06B7.medi" unicode="&#x6b7;" horiz-adv-x="726" 
d="M187 2096l173 173l173 -173l-173 -173zM362 1768l172 173l174 -173l-174 -173zM13 1768l172 173l174 -173l-174 -173zM356 232q-31 -100 -122 -166t-234 -66q-19 0 -30 30.5t-11 115.5q0 86 11 115.5t30 29.5q98 0 145.5 19t62 63.5t14.5 121.5v908h278v-895
q0 -112 44.5 -164.5t180.5 -52.5h1v-291h-1q-147 0 -237.5 66.5t-121.5 165.5h-10z" />
    <glyph glyph-name="uni06B7.fina" unicode="&#x6b7;" horiz-adv-x="1577" 
d="M990 2096l173 173l173 -173l-173 -173zM1165 1768l172 173l174 -173l-174 -173zM816 1768l172 173l174 -173l-174 -173zM1577 291v-291h-10q-86 0 -150.5 35t-96.5 103l-10 -2v-64q0 -178 -82 -307.5t-230.5 -199.5t-350.5 -70q-279 0 -429 148t-150 424q0 77 15 173
t52 244l250 -65q-54 -206 -54 -332q0 -154 83 -227t257 -73q185 0 272.5 89t87.5 276v1251h279v-875q0 -123 50 -180t196 -57h21z" />
    <glyph glyph-name="uni06B8.init" unicode="&#x6b8;" horiz-adv-x="632" 
d="M138 -343l172 173l174 -173l-174 -173zM-211 -343l172 173l174 -173l-174 -173zM-36 -671l173 173l173 -173l-173 -173zM0 291q95 0 142.5 17t63.5 60.5t16 121.5v913h278v-913q0 -238 -124 -364t-376 -126q-19 0 -30.5 30.5t-11.5 115.5q0 86 11.5 115.5t30.5 29.5z" />
    <glyph glyph-name="uni06B8.medi" unicode="&#x6b8;" horiz-adv-x="726" 
d="M138 -343l172 173l174 -173l-174 -173zM-211 -343l172 173l174 -173l-174 -173zM-36 -671l173 173l173 -173l-173 -173zM356 232q-31 -100 -122 -166t-234 -66q-19 0 -30 30.5t-11 115.5q0 86 11 115.5t30 29.5q98 0 145.5 19t62 63.5t14.5 121.5v908h278v-895
q0 -112 44.5 -164.5t180.5 -52.5h1v-291h-1q-147 0 -237.5 66.5t-121.5 165.5h-10z" />
    <glyph glyph-name="uni06B8.fina" unicode="&#x6b8;" horiz-adv-x="1577" 
d="M659 -800l172 173l174 -173l-174 -173zM310 -800l172 173l174 -173l-174 -173zM485 -1128l173 173l173 -173l-173 -173zM1577 291v-291h-10q-86 0 -150.5 35t-96.5 103l-10 -2v-64q0 -178 -82 -307.5t-230.5 -199.5t-350.5 -70q-279 0 -429 148t-150 424q0 77 15 173
t52 244l250 -65q-54 -206 -54 -332q0 -154 83 -227t257 -73q185 0 272.5 89t87.5 276v1251h279v-875q0 -123 50 -180t196 -57h21z" />
    <glyph glyph-name="uni06B9.init" unicode="&#x6b9;" horiz-adv-x="603" 
d="M-32 -343l172 173l174 -173l-174 -173zM473 850q30 -119 47 -222.5t17 -181.5q0 -446 -498 -446h-39q-41 0 -41 146q0 145 41 145h39q118 0 172.5 46t54.5 142q0 46 -14.5 123.5t-38.5 175.5zM66 1194l172 173l174 -173l-174 -173z" />
    <glyph glyph-name="uni06B9.medi" unicode="&#x6b9;" horiz-adv-x="827" 
d="M-32 -343l172 173l174 -173l-174 -173zM554 535q0 -92 16 -145.5t65 -76t147 -22.5h45v-291h-48q-127 0 -224 60.5t-136 166.5h-10q-38 -106 -141.5 -166.5t-228.5 -60.5h-39q-22 0 -31.5 35t-9.5 111q0 77 9.5 111t31.5 34h39q102 0 153 23t68 76.5t17 144.5v167h277
v-167zM139 1063l172 173l174 -173l-174 -173z" />
    <glyph glyph-name="uni06B9.fina" unicode="&#x6b9;" horiz-adv-x="1760" 
d="M632 -848l172 173l174 -173l-174 -173zM623 403l172 173l174 -173l-174 -173zM139 629l262 -59q-33 -155 -45 -242t-12 -151q0 -202 112.5 -289.5t339.5 -87.5q474 0 474 322q0 81 -35.5 194t-116.5 305l256 124l95 -244q33 -83 65.5 -128.5t82 -63.5t129.5 -18h14v-291
h-4q-131 0 -228 109l-8 -3q2 -183 -84.5 -317t-248 -207t-385.5 -73q-358 0 -542 157.5t-184 492.5q0 95 15 210.5t48 259.5z" />
    <glyph glyph-name="uni06BC.init" unicode="&#x6bc;" horiz-adv-x="603" 
d="M0 106q88 0 140 -53.5t52 -141.5q0 -82 -53 -137t-139 -55q-82 0 -137 53.5t-55 138.5q0 83 55.5 139t136.5 56zM0 0q-39 0 -62.5 -20t-23.5 -57t24 -58t62 -21t62 21.5t24 57.5t-24 56.5t-62 20.5zM473 850q30 -119 47 -222.5t17 -181.5q0 -446 -498 -446h-39
q-41 0 -41 146q0 145 41 145h39q118 0 172.5 46t54.5 142q0 46 -14.5 123.5t-38.5 175.5zM66 1194l172 173l174 -173l-174 -173z" />
    <glyph glyph-name="uni06BC.medi" unicode="&#x6bc;" horiz-adv-x="827" 
d="M0 106q88 0 140 -53.5t52 -141.5q0 -82 -53 -137t-139 -55q-82 0 -137 53.5t-55 138.5q0 83 55.5 139t136.5 56zM0 0q-39 0 -62.5 -20t-23.5 -57t24 -58t62 -21t62 21.5t24 57.5t-24 56.5t-62 20.5zM554 535q0 -92 16 -145.5t65 -76t147 -22.5h45v-291h-48
q-127 0 -224 60.5t-136 166.5h-10q-38 -106 -141.5 -166.5t-228.5 -60.5h-39q-22 0 -31.5 35t-9.5 111q0 77 9.5 111t31.5 34h39q102 0 153 23t68 76.5t17 144.5v167h277v-167zM139 1063l172 173l174 -173l-174 -173z" />
    <glyph glyph-name="uni06BC.fina" unicode="&#x6bc;" horiz-adv-x="1760" 
d="M805 -388q88 0 140 -53.5t52 -141.5q0 -82 -53 -137t-139 -55q-82 0 -137 53.5t-55 138.5q0 83 55.5 139t136.5 56zM805 -494q-39 0 -62.5 -20t-23.5 -57t24 -58t62 -21t62 21.5t24 57.5t-24 56.5t-62 20.5zM623 403l172 173l174 -173l-174 -173zM139 629l262 -59
q-33 -155 -45 -242t-12 -151q0 -202 112.5 -289.5t339.5 -87.5q474 0 474 322q0 81 -35.5 194t-116.5 305l256 124l95 -244q33 -83 65.5 -128.5t82 -63.5t129.5 -18h14v-291h-4q-131 0 -228 109l-8 -3q2 -183 -84.5 -317t-248 -207t-385.5 -73q-358 0 -542 157.5t-184 492.5
q0 95 15 210.5t48 259.5z" />
    <glyph glyph-name="uni06BD.fina" unicode="&#x6bd;" horiz-adv-x="1760" 
d="M925 433l-124 -123l-123 123l123 125zM1075 202l-131 -130l-130 130l130 132zM788 203l-131 -131l-130 131l130 131zM139 629l262 -59q-33 -155 -45 -242t-12 -151q0 -202 112.5 -289.5t339.5 -87.5q474 0 474 322q0 81 -35.5 194t-116.5 305l256 124l95 -244
q33 -83 65.5 -128.5t82 -63.5t129.5 -18h14v-291h-4q-131 0 -228 109l-8 -3q2 -183 -84.5 -317t-248 -207t-385.5 -73q-358 0 -542 157.5t-184 492.5q0 95 15 210.5t48 259.5z" />
    <glyph glyph-name="uni06BF.init" unicode="&#x6bf;" horiz-adv-x="1339" 
d="M487 1373l172 173l174 -173l-174 -173zM602 -288l172 173l174 -173l-174 -173zM253 -288l172 173l174 -173l-174 -173zM428 -616l173 173l173 -173l-173 -173zM463 985q56 0 134 -25t228 -90q149 -63 250.5 -98t197.5 -57v-229l-507 -298q-168 -100 -313 -144t-308 -44
h-145q-22 0 -31.5 33.5t-9.5 112.5t9.5 112t31.5 33h202q76 0 142 11.5t139 39t170 74.5l261 133v10q-49 12 -105.5 32t-131.5 51q-87 33 -136 47.5t-80 14.5q-64 0 -104 -38.5t-74 -128.5l-8 -22l-202 62l7 23q60 204 152 294.5t231 90.5z" />
    <glyph glyph-name="uni06BF.medi" unicode="&#x6bf;" horiz-adv-x="1389" 
d="M487 1373l172 173l174 -173l-174 -173zM602 -288l172 173l174 -173l-174 -173zM253 -288l172 173l174 -173l-174 -173zM428 -616l173 173l173 -173l-173 -173zM463 985q56 0 134 -24.5t228 -90.5q149 -63 250.5 -98t197.5 -57v-229l-198 -107v-10q58 -45 133 -61.5
t144 -16.5h37v-291h-38q-138 0 -255 61t-210 197l-120 -70q-168 -100 -313 -144t-308 -44h-145q-22 0 -31.5 33.5t-9.5 112.5t9.5 112t31.5 33h202q76 0 142 11.5t139 39t170 74.5l261 133v10q-49 12 -105.5 32.5t-131.5 50.5q-87 33 -136 47.5t-80 14.5q-64 0 -104 -38.5
t-74 -128.5l-8 -22l-202 62l7 23q60 204 152 294.5t231 90.5z" />
    <glyph glyph-name="uni06BF.fina" unicode="&#x6bf;" horiz-adv-x="1453" 
d="M551 1418l172 173l174 -173l-174 -173zM534 3l131 131l130 -131l-130 -131zM821 3l131 131l130 -131l-130 -132zM684 -228l124 123l123 -123l-123 -124zM485 1028q61 0 143 -25t214 -84q120 -54 205 -89t149.5 -56.5t120.5 -34.5l-34 -300q-41 -4 -74.5 -9t-61.5 -11v-10
q75 -118 243 -118h63v-291h-24q-356 0 -443 369q-183 -29 -330.5 -104t-234 -177t-86.5 -212q0 -130 127 -208.5t341 -78.5q269 0 481 103l125 -251q-299 -148 -605 -148q-223 0 -389 69t-258 193.5t-92 291.5q0 179 109 331t306 260t460 153v10q-90 22 -240 84
q-88 33 -137 47t-79 14q-64 0 -104.5 -38t-73.5 -128l-9 -22l-201 61l7 24q62 203 152.5 294t229.5 91z" />
    <glyph glyph-name="uni06C1.init" unicode="&#x6c1;" horiz-adv-x="1312" arabic-form="initial" 
d="M554 535q0 -133 45.5 -188.5t162.5 -55.5q110 0 161 45.5t51 142.5q0 85 -52 299l260 72q31 -126 47 -227.5t16 -176.5q0 -222 -120 -334t-344 -112q-142 0 -232.5 60.5t-129.5 166.5h-10q-37 -103 -139 -165t-231 -62h-39q-22 0 -31.5 33.5t-9.5 112.5t9.5 112t31.5 33
h39q96 0 147.5 20.5t71 73.5t19.5 150v167h277v-167zM815 -486l16 -4q36 24 74 24q45 0 81 -39t36 -101q0 -74 -43 -118t-114 -44q-86 0 -135 59.5t-49 163.5q0 107 51.5 207.5t148.5 177.5l88 -94q-70 -54 -106.5 -109t-47.5 -123z" />
    <glyph glyph-name="uni06C4.fina" unicode="&#x6c4;" horiz-adv-x="947" 
d="M220 16q71 0 117 -45t46 -119q0 -73 -46 -122.5t-117 -49.5q-77 0 -124.5 48t-47.5 124q0 71 48.5 117.5t123.5 46.5zM221 -84q-39 0 -62.5 -20t-23.5 -56q0 -37 24.5 -58t61.5 -21q38 0 61.5 21.5t23.5 57.5t-23.5 56t-61.5 20zM626 -5l-7 14q-45 -5 -91 -7t-88 -2
q-167 0 -259.5 89t-92.5 263q0 134 41.5 252.5t126 193t212.5 74.5q135 0 223 -81.5t135.5 -214t62.5 -285.5h58v-291h-69q-40 -190 -215 -324.5t-474 -224.5l-124 262q137 33 252.5 77t196 96.5t112.5 108.5zM634 286q-2 68 -19 135.5t-54 112t-100 44.5
q-72 0 -109.5 -56.5t-37.5 -126.5q0 -62 38 -88t103 -26q44 0 88.5 0.5t90.5 4.5z" />
    <glyph glyph-name="uni06CA.fina" unicode="&#x6ca;" horiz-adv-x="947" 
d="M131 1227l172 173l174 -173l-174 -173zM480 1227l172 173l174 -173l-174 -173zM626 -5l-7 14q-45 -5 -91 -7t-88 -2q-167 0 -259.5 89t-92.5 263q0 134 41.5 252.5t126 193t212.5 74.5q135 0 223 -81.5t135.5 -214t62.5 -285.5h58v-291h-69q-40 -190 -215 -324.5
t-474 -224.5l-124 262q137 33 252.5 77t196 96.5t112.5 108.5zM634 286q-2 68 -19 135.5t-54 112t-100 44.5q-72 0 -109.5 -56.5t-37.5 -126.5q0 -62 38 -88t103 -26q44 0 88.5 0.5t90.5 4.5z" />
    <glyph glyph-name="uni06CD.fina" unicode="&#x6cd;" horiz-adv-x="1888" 
d="M1688 -10q70 -52 99 -99t29 -111q0 -80 -52.5 -150.5t-146 -124t-216 -83.5t-263.5 -30q-349 0 -519.5 146.5t-170.5 448.5q0 76 6 163.5t17 181.5q-91 -28 -196 -64t-175 -66l-82 223q186 71 303 102t199 31q110 0 234 -76q-23 -137 -35 -258t-12 -214
q0 -172 102 -248.5t332 -76.5q171 0 279.5 43t108.5 111q0 31 -36 54.5t-126.5 45.5t-254.5 50l42 302h761v-291h-227v-10z" />
    <glyph glyph-name="uni06CE.init" unicode="&#x6ce;" horiz-adv-x="603" 
d="M364 1017h-122l-210 278l111 85l160 -221l160 221l111 -85zM473 850q30 -119 47 -222.5t17 -181.5q0 -446 -498 -446h-39q-41 0 -41 146q0 145 41 145h39q118 0 172.5 46t54.5 142q0 46 -14.5 123.5t-38.5 175.5zM-227 -343l172 173l174 -173l-174 -173zM122 -343
l172 173l174 -173l-174 -173z" />
    <glyph glyph-name="uni06CE.medi" unicode="&#x6ce;" horiz-adv-x="827" 
d="M474 861h-122l-210 278l111 85l160 -221l160 221l111 -85zM554 535q0 -92 16 -145.5t65 -76t147 -22.5h45v-291h-48q-127 0 -224 60.5t-136 166.5h-10q-38 -106 -141.5 -166.5t-228.5 -60.5h-39q-22 0 -31.5 35t-9.5 111q0 77 9.5 111t31.5 34h39q102 0 153 23t68 76.5
t17 144.5v167h277v-167zM-258 -343l172 173l174 -173l-174 -173zM91 -343l172 173l174 -173l-174 -173z" />
    <glyph glyph-name="uni06CE.fina" unicode="&#x6ce;" horiz-adv-x="1537" 
d="M1002 589h-122l-210 278l111 85l160 -221l160 221l111 -85zM1310 -10q70 -52 99 -99t29 -111q0 -80 -52.5 -150.5t-146 -124t-216 -83.5t-263.5 -30q-349 0 -519.5 146.5t-170.5 448.5q0 116 13.5 256.5t37.5 288.5l255 -50q-23 -137 -35 -258t-12 -214
q0 -172 102 -248.5t332 -76.5q171 0 279.5 43t108.5 111q0 31 -36 54.5t-126.5 45.5t-254.5 50l42 302h761v-291h-227v-10z" />
    <glyph glyph-name="uni06CF.fina" unicode="&#x6cf;" horiz-adv-x="947" 
d="M306 1261l172 173l174 -173l-174 -173zM626 -5l-7 14q-45 -5 -91 -7t-88 -2q-167 0 -259.5 89t-92.5 263q0 134 41.5 252.5t126 193t212.5 74.5q135 0 223 -81.5t135.5 -214t62.5 -285.5h58v-291h-69q-40 -190 -215 -324.5t-474 -224.5l-124 262q137 33 252.5 77
t196 96.5t112.5 108.5zM634 286q-2 68 -19 135.5t-54 112t-100 44.5q-72 0 -109.5 -56.5t-37.5 -126.5q0 -62 38 -88t103 -26q44 0 88.5 0.5t90.5 4.5z" />
    <glyph glyph-name="uni06D1.fina" unicode="&#x6d1;" horiz-adv-x="1537" 
d="M415 -916l172 173l174 -173l-174 -173zM764 -916l172 173l174 -173l-174 -173zM605 -1208l158 158l159 -158l-159 -159zM1310 -10q70 -52 99 -99t29 -111q0 -80 -52.5 -150.5t-146 -124t-216 -83.5t-263.5 -30q-349 0 -519.5 146.5t-170.5 448.5q0 116 13.5 256.5
t37.5 288.5l255 -50q-23 -137 -35 -258t-12 -214q0 -172 102 -248.5t332 -76.5q171 0 279.5 43t108.5 111q0 31 -36 54.5t-126.5 45.5t-254.5 50l42 302h761v-291h-227v-10z" />
    <glyph glyph-name="uni06EE.fina" unicode="&#x6ee;" horiz-adv-x="1304" 
d="M549 1637h122l210 -279l-111 -85l-160 222l-160 -222l-111 85zM781 1104l261 -611q36 -85 68.5 -128.5t75.5 -58.5t109 -15h9v-291h-9q-142 0 -234 53.5t-145 179.5h-10q-46 -115 -163.5 -179t-269.5 -64q-106 0 -211.5 36.5t-200.5 109.5l124 231q71 -43 145 -64
t138 -21q92 0 172.5 31.5t134.5 92.5l-254 573z" />
    <glyph glyph-name="uni06EF.fina" unicode="&#x6ef;" horiz-adv-x="792" 
d="M241 1324h122l210 -279l-111 -85l-160 222l-160 -222l-111 85zM164 662l260 90l70 -216q31 -95 65 -148.5t88 -75t143 -21.5h2v-291h-2q-164 0 -250 116l-10 -3q2 -237 -160.5 -396t-467.5 -267l-126 261q181 62 290.5 125.5t159.5 140t50 174.5q0 84 -30 219t-82 292z
" />
    <glyph glyph-name="uni06FA.init" unicode="&#x6fa;" horiz-adv-x="1682" 
d="M770 1374l173 173l173 -173l-173 -173zM945 1046l172 173l174 -173l-174 -173zM596 1046l172 173l174 -173l-174 -173zM689 291q71 0 101 40.5t38 121.5l18 202l241 -16l-15 -203q-6 -69 29 -107t105 -38q68 0 102 38.5t34 106.5q0 26 -5 75t-12.5 105.5t-16.5 104.5
l268 64q17 -81 28.5 -173.5t11.5 -171.5q0 -226 -93 -333t-267 -107q-130 0 -200 61t-93 158h-10q-48 -219 -279 -219q-124 0 -191 58.5t-92 165.5h-10q-43 -101 -130 -162.5t-212 -61.5h-39q-21 0 -31 35t-10 113q0 77 9.5 110t31.5 33h39q117 0 170 51.5t64 163.5l18 202
l277 -20l-21 -240q-7 -70 30 -113.5t112 -43.5zM782 -343l172 173l174 -173l-174 -173z" />
    <glyph glyph-name="uni06FA.medi" unicode="&#x6fa;" horiz-adv-x="1876" 
d="M770 1374l173 173l173 -173l-173 -173zM945 1046l172 173l174 -173l-174 -173zM596 1046l172 173l174 -173l-174 -173zM1521 246q-24 -118 -89 -182t-184 -64q-126 0 -194 61t-91 158h-10q-48 -219 -279 -219q-124 0 -190.5 58t-92.5 166h-10q-43 -101 -130 -162.5
t-212 -61.5h-39q-21 0 -31 35t-10 113q0 77 9.5 110t31.5 33h39q117 0 170 51.5t64 163.5l18 202l277 -20l-21 -240q-7 -70 30 -113.5t112 -43.5q71 0 101.5 40.5t37.5 121.5l18 202l241 -16l-15 -203q-6 -69 28.5 -107t103.5 -38q138 0 138 143q0 32 -11 112.5t-25 161.5
l266 56l24 -158q19 -127 48.5 -195t84 -94t146.5 -26h1v-291h-1q-156 0 -235 65.5t-109 180.5h-10zM782 -343l172 173l174 -173l-174 -173z" />
    <glyph glyph-name="uni06FA.fina" unicode="&#x6fa;" horiz-adv-x="2777" 
d="M1654 1374l173 173l173 -173l-173 -173zM1829 1046l172 173l174 -173l-174 -173zM1480 1046l172 173l174 -173l-174 -173zM2423 246q-50 -246 -270 -246q-109 0 -185.5 53.5t-102.5 165.5h-10q-24 -105 -83 -162t-148 -57q-88 0 -147 49l-6 -4q-18 -170 -108.5 -286.5
t-240 -176t-343.5 -59.5q-349 0 -526 155t-177 481q0 95 15 211.5t48 258.5l262 -59q-33 -156 -45 -243t-12 -151q0 -193 106 -277.5t321 -84.5q221 0 335.5 73t114.5 233q0 85 -33.5 197t-116.5 304l257 123l119 -320q26 -68 60.5 -100.5t98.5 -32.5q65 0 96.5 38.5
t38.5 127.5l15 198l239 -16l-14 -203q-6 -73 30 -109t105 -36q127 0 127 143q0 33 -10.5 114t-24.5 160l266 56l25 -158q22 -130 50.5 -198t81 -92.5t146.5 -24.5v-291q-147 0 -229 60.5t-115 185.5h-10zM1702 -343l172 173l174 -173l-174 -173z" />
    <glyph glyph-name="uni06FB.init" unicode="&#x6fb;" horiz-adv-x="1644" 
d="M816 -343l172 173l174 -173l-174 -173zM1014 1258l172 173l174 -173l-174 -173zM417 236q-40 -117 -147.5 -176.5t-263.5 -59.5h-6q-22 0 -31.5 34.5t-9.5 111.5t9.5 111t31.5 34h6q137 0 184 54t47 161v206h277v-191q6 -50 21.5 -71.5t37.5 -35.5q176 248 330.5 357.5
t298.5 109.5q112 0 196.5 -55.5t132 -151.5t47.5 -218q0 -144 -80.5 -246t-218 -156t-308.5 -54q-215 0 -348.5 56.5t-195.5 179.5h-10zM1166 596q-88 0 -191.5 -64.5t-202.5 -207.5q45 -17 101 -25t117 -8q89 0 164.5 16.5t121.5 54t46 98.5q0 59 -42.5 97.5t-113.5 38.5z
" />
    <glyph glyph-name="uni06FB.medi" unicode="&#x6fb;" horiz-adv-x="1692" 
d="M816 -343l172 173l174 -173l-174 -173zM1014 1258l172 173l174 -173l-174 -173zM237 712h277v-191q6 -50 21.5 -71.5t37.5 -35.5q176 248 330.5 357.5t298.5 109.5q112 0 196.5 -55.5t132 -151.5t47.5 -218q0 -77 -33 -140q63 -25 146 -25h1v-291h-1q-190 0 -290 117
q-81 -59 -191.5 -88t-238.5 -29q-214 0 -348 56.5t-196 179.5h-10q-40 -117 -147.5 -176.5t-263.5 -59.5h-6q-22 0 -31.5 34.5t-9.5 111.5t9.5 111t31.5 34h6q137 0 184 54t47 161v206zM1166 596q-88 0 -191.5 -64.5t-202.5 -207.5q45 -17 101 -25t117 -8q89 0 164.5 16.5
t121.5 54t46 98.5q0 59 -42.5 97.5t-113.5 38.5z" />
    <glyph glyph-name="uni06FB.fina" unicode="&#x6fb;" horiz-adv-x="2578" 
d="M1780 -343l172 173l174 -173l-174 -173zM2093 881q108 0 191 -54t130.5 -149.5t47.5 -221.5q0 -77 -33 -139q60 -26 148 -26h1v-291h-1q-179 0 -284 116q-75 -55 -180 -85.5t-237 -30.5q-242 0 -400 101q-19 -273 -203.5 -425.5t-499.5 -152.5q-697 0 -697 636
q0 97 15.5 213.5t47.5 256.5l262 -59q-32 -154 -44.5 -241.5t-12.5 -152.5q0 -188 102 -275t319 -87q444 0 444 321q0 82 -32.5 190.5t-114.5 295.5l258 124q46 -103 76 -189.5t47 -162.5q152 236 318 362t332 126zM2051 596q-97 0 -202 -73.5t-194 -198.5q88 -33 219 -33
q162 0 247 46.5t85 122.5q0 61 -43 98.5t-112 37.5zM1916 1258l172 173l174 -173l-174 -173z" />
    <glyph glyph-name="uni06FC.init" unicode="&#x6fc;" horiz-adv-x="1092" 
d="M402 -343l172 173l174 -173l-174 -173zM395 1431l172 173l174 -173l-174 -173zM357 514q0 -172 255 -172q76 0 179 13l174 23l30 -283l-339 -40q-202 -26 -365 -40.5t-253 -14.5h-38q-22 0 -31.5 34.5t-9.5 111.5t9.5 111t31.5 34h26q42 0 87.5 1.5t83.5 4.5v17
q-107 71 -107 233q0 129 63 231t173.5 160.5t250.5 58.5q210 0 361 -132l-125 -213q-122 61 -235 61q-97 0 -159 -55t-62 -144z" />
    <glyph glyph-name="uni06FC.medi" unicode="&#x6fc;" horiz-adv-x="1183" 
d="M464 -343l172 173l174 -173l-174 -173zM460 1396l172 173l174 -173l-174 -173zM623 997q125 0 226 -43t160.5 -122.5t59.5 -188.5q0 -85 -52 -159.5t-140 -141.5v-10q50 -28 100 -34.5t108 -6.5h98v-291h-132q-118 0 -212 33.5t-190 121.5q-112 -74 -240.5 -114.5
t-277.5 -40.5h-131q-22 0 -31.5 35t-9.5 111q0 77 9.5 111t31.5 34h120q90 0 171.5 13t140.5 32v10l-318 284v174q108 92 237.5 142.5t271.5 50.5zM640 716q-123 0 -222 -50v-3l231 -237q81 50 126.5 97t45.5 93q0 52 -54.5 76t-126.5 24z" />
    <glyph glyph-name="uni06FC.fina" unicode="&#x6fc;" horiz-adv-x="1226" 
d="M561 -170l172 173l174 -173l-174 -173zM502 1401l172 173l174 -173l-174 -173zM1114 643q0 -159 -189 -297v-10q68 -45 191 -45h110v-291h-75q-131 0 -233.5 38.5t-209.5 127.5q-175 -82 -272.5 -175t-97.5 -209q0 -109 124.5 -172.5t336.5 -63.5q164 0 330 40l64 -281
q-207 -57 -395 -57q-219 0 -383 62.5t-255 176t-91 265.5q0 170 113 311t326 246v10l-349 311v174q228 193 509 193q132 0 232.5 -45t157 -125t56.5 -184zM866 616q0 46 -48.5 73t-131.5 27q-123 0 -223 -50v-3l234 -237q169 103 169 190z" />
    <glyph glyph-name="uni06FF.init" unicode="&#x6ff;" horiz-adv-x="1414" 
d="M803 1592h122l210 -279l-111 -85l-160 222l-160 -222l-111 85zM0 291h77q93 0 165 18q-119 128 -119 252q0 88 45.5 164t131.5 109l3 10l-160 70l114 252l579 -248q184 -78 294.5 -156t160.5 -170t50 -212q0 -178 -112 -284.5t-300 -106.5q-220 0 -428 133
q-180 -122 -407 -122h-94q-22 0 -31.5 34t-9.5 112q0 77 9.5 111t31.5 34zM512 359q158 80 158 209q0 76 -41 121t-109 45q-67 0 -114.5 -52.5t-47.5 -126.5q0 -48 40.5 -100t113.5 -96zM759 319q50 -18 98.5 -28t92.5 -10q164 0 164 113q0 68 -60 120t-200 108
q45 -185 -95 -303z" />
    <glyph glyph-name="uni06FF.medi" unicode="&#x6ff;" horiz-adv-x="1064" 
d="M443 1446h122l210 -279l-111 -85l-160 222l-160 -222l-111 85zM512 945q100 0 176.5 -45.5t120 -127.5t43.5 -190q0 -116 -62 -221.5t-175 -187.5t-267 -128q28 -88 71.5 -161t108.5 -129h5q90 168 155.5 273.5t119 162.5t108 78.5t123.5 21.5h25v-291h-25
q-51 0 -93.5 -22t-86.5 -78.5t-96 -158t-123 -259.5h-197q-129 111 -206.5 242t-112.5 276h-124q-22 0 -31.5 34.5t-9.5 111.5t9.5 111t31.5 34h101q-4 227 51 371.5t150 213.5t210 69zM323 306q135 14 219.5 80.5t84.5 159.5q0 57 -31.5 92.5t-81.5 35.5q-83 0 -140 -85.5
t-51 -282.5z" />
    <glyph glyph-name="uni06FF.fina" unicode="&#x6ff;" horiz-adv-x="1181" 
d="M706 1637h122l210 -279l-111 -85l-160 222l-160 -222l-111 85zM664 956l-10 167l277 17l36 -609q9 -135 55 -187.5t158 -52.5h1v-291h-1q-143 0 -239 48.5t-155 147.5q-51 -23 -112.5 -36t-117.5 -13q-184 0 -301.5 83.5t-117.5 233.5q0 188 137 315.5t390 176.5z
M683 690q-138 -11 -221 -57t-83 -116q0 -54 54.5 -80t139.5 -26q76 0 133 15q-4 28 -6.5 46.5t-3.5 39.5z" />
    <glyph glyph-name="uniFB50" unicode="&#x671;" horiz-adv-x="557" arabic-form="isolated" 
d="M417 1245v-1245h-276v1245h276zM294 1692q73 95 126.5 133t114.5 38q68 0 105.5 -42t37.5 -117q0 -101 -62 -166.5t-158 -65.5q-36 0 -70.5 11.5t-81.5 39.5q-63 37 -98 37q-33 0 -58 -23.5t-61 -87.5l-107 69q88 204 210 204q43 0 102 -30zM376 1649q46 -21 87 -21
q104 0 104 60q0 23 -16.5 36.5t-42.5 13.5q-31 0 -60.5 -20t-71.5 -69z" />
    <glyph glyph-name="uniFB51" unicode="&#x671;" horiz-adv-x="642" arabic-form="final" 
d="M127 1245h278v-753q0 -110 53 -155.5t183 -45.5h1v-291h-1q-244 0 -379 122.5t-135 363.5v759zM294 1692q73 95 126.5 133t114.5 38q68 0 105.5 -42t37.5 -117q0 -101 -62 -166.5t-158 -65.5q-36 0 -70.5 11.5t-81.5 39.5q-63 37 -98 37q-33 0 -58 -23.5t-61 -87.5
l-107 69q88 204 210 204q43 0 102 -30zM376 1649q46 -21 87 -21q104 0 104 60q0 23 -16.5 36.5t-42.5 13.5q-31 0 -60.5 -20t-71.5 -69z" />
    <glyph glyph-name="uniFB52" unicode="&#x67b;" horiz-adv-x="1799" arabic-form="isolated" 
d="M725 -341l172 173l174 -173l-174 -173zM725 -691l172 173l174 -173l-174 -173zM1682 864q23 -89 37 -180t14 -166q0 -193 -84 -306.5t-267.5 -162.5t-481.5 -49q-297 0 -480.5 49t-267.5 161.5t-84 302.5q0 74 14.5 166.5t36.5 184.5l247 -55q-14 -68 -25 -141t-11 -121
q0 -107 53 -162t178 -74.5t339 -19.5q216 0 340.5 20.5t177 76.5t52.5 163q0 50 -10 120.5t-25 137.5z" />
    <glyph glyph-name="uniFB53" unicode="&#x67b;" horiz-adv-x="1963" arabic-form="final" 
d="M702 -342l172 173l174 -173l-174 -173zM702 -692l172 173l174 -173l-174 -173zM1776 730q-15 -84 -23.5 -146.5t-8.5 -106.5q0 -85 49 -135.5t169 -50.5h1v-291h-1q-154 0 -265.5 62.5t-160.5 207.5h-10q-106 -155 -292.5 -212.5t-443.5 -57.5q-368 0 -545 136.5
t-177 402.5q0 157 59 363l242 -67q-21 -74 -32.5 -144t-11.5 -116q0 -150 117 -217t390 -67q225 0 364 48t215.5 154t111.5 279z" />
    <glyph glyph-name="uniFB54" unicode="&#x67b;" horiz-adv-x="603" arabic-form="initial" 
d="M-32 -342l172 173l174 -173l-174 -173zM-32 -692l172 173l174 -173l-174 -173zM473 850q30 -119 47 -222.5t17 -181.5q0 -446 -498 -446h-39q-41 0 -41 146q0 145 41 145h39q118 0 172.5 46t54.5 142q0 46 -14.5 123.5t-38.5 175.5z" />
    <glyph glyph-name="uniFB55" unicode="&#x67b;" horiz-adv-x="827" arabic-form="medial" 
d="M-32 -342l172 173l174 -173l-174 -173zM-32 -692l172 173l174 -173l-174 -173zM554 535q0 -92 16 -145.5t65 -76t147 -22.5h45v-291h-48q-127 0 -224 60.5t-136 166.5h-10q-38 -106 -141.5 -166.5t-228.5 -60.5h-39q-22 0 -31.5 35t-9.5 111q0 77 9.5 111t31.5 34h39
q102 0 153 23t68 76.5t17 144.5v167h277v-167z" />
    <glyph glyph-name="uniFB56" unicode="&#x67e;" horiz-adv-x="1799" arabic-form="isolated" 
d="M1682 864q23 -89 37 -180t14 -166q0 -193 -84 -306.5t-267.5 -162.5t-481.5 -49q-297 0 -480.5 49t-267.5 161.5t-84 302.5q0 74 14.5 166.5t36.5 184.5l247 -55q-14 -68 -25 -141t-11 -121q0 -107 53 -162t178 -74.5t339 -19.5q216 0 340.5 20.5t177 76.5t52.5 163
q0 50 -10 120.5t-25 137.5zM898 -343l172 173l174 -173l-174 -173zM549 -343l172 173l174 -173l-174 -173zM724 -671l173 173l173 -173l-173 -173z" />
    <glyph glyph-name="uniFB57" unicode="&#x67e;" horiz-adv-x="1963" arabic-form="final" 
d="M837 -341l172 173l174 -173l-174 -173zM488 -341l172 173l174 -173l-174 -173zM663 -669l173 173l173 -173l-173 -173zM1776 730q-15 -84 -23.5 -146.5t-8.5 -106.5q0 -85 49 -135.5t169 -50.5h1v-291h-1q-154 0 -265.5 62.5t-160.5 207.5h-10q-106 -155 -292.5 -212.5
t-443.5 -57.5q-368 0 -545 136.5t-177 402.5q0 157 59 363l242 -67q-21 -74 -32.5 -144t-11.5 -116q0 -150 117 -217t390 -67q225 0 364 48t215.5 154t111.5 279z" />
    <glyph glyph-name="uniFB58" unicode="&#x67e;" horiz-adv-x="603" arabic-form="initial" 
d="M138 -341l172 173l174 -173l-174 -173zM-211 -341l172 173l174 -173l-174 -173zM-36 -669l173 173l173 -173l-173 -173zM473 850q30 -119 47 -222.5t17 -181.5q0 -446 -498 -446h-39q-41 0 -41 146q0 145 41 145h39q118 0 172.5 46t54.5 142q0 46 -14.5 123.5
t-38.5 175.5z" />
    <glyph glyph-name="uniFB59" unicode="&#x67e;" horiz-adv-x="827" arabic-form="medial" 
d="M108 -341l172 173l174 -173l-174 -173zM-241 -341l172 173l174 -173l-174 -173zM-66 -669l173 173l173 -173l-173 -173zM554 535q0 -92 16 -145.5t65 -76t147 -22.5h45v-291h-48q-127 0 -224 60.5t-136 166.5h-10q-38 -106 -141.5 -166.5t-228.5 -60.5h-39
q-22 0 -31.5 35t-9.5 111q0 77 9.5 111t31.5 34h39q102 0 153 23t68 76.5t17 144.5v167h277v-167z" />
    <glyph glyph-name="uniFB5A" unicode="&#x680;" horiz-adv-x="1799" arabic-form="isolated" 
d="M898 -344l172 173l174 -173l-174 -173zM549 -344l172 173l174 -173l-174 -173zM549 -693l172 173l174 -173l-174 -173zM898 -693l172 173l174 -173l-174 -173zM1682 864q23 -89 37 -180t14 -166q0 -193 -84 -306.5t-267.5 -162.5t-481.5 -49q-297 0 -480.5 49
t-267.5 161.5t-84 302.5q0 74 14.5 166.5t36.5 184.5l247 -55q-14 -68 -25 -141t-11 -121q0 -107 53 -162t178 -74.5t339 -19.5q216 0 340.5 20.5t177 76.5t52.5 163q0 50 -10 120.5t-25 137.5z" />
    <glyph glyph-name="uniFB5B" unicode="&#x680;" horiz-adv-x="1963" arabic-form="final" 
d="M837 -344l172 173l174 -173l-174 -173zM488 -344l172 173l174 -173l-174 -173zM488 -693l172 173l174 -173l-174 -173zM837 -693l172 173l174 -173l-174 -173zM1776 730q-15 -84 -23.5 -146.5t-8.5 -106.5q0 -85 49 -135.5t169 -50.5h1v-291h-1q-154 0 -265.5 62.5
t-160.5 207.5h-10q-106 -155 -292.5 -212.5t-443.5 -57.5q-368 0 -545 136.5t-177 402.5q0 157 59 363l242 -67q-21 -74 -32.5 -144t-11.5 -116q0 -150 117 -217t390 -67q225 0 364 48t215.5 154t111.5 279z" />
    <glyph glyph-name="uniFB5C" unicode="&#x680;" horiz-adv-x="603" arabic-form="initial" 
d="M138 -344l172 173l174 -173l-174 -173zM-211 -344l172 173l174 -173l-174 -173zM-211 -693l172 173l174 -173l-174 -173zM138 -693l172 173l174 -173l-174 -173zM473 850q30 -119 47 -222.5t17 -181.5q0 -446 -498 -446h-39q-41 0 -41 146q0 145 41 145h39
q118 0 172.5 46t54.5 142q0 46 -14.5 123.5t-38.5 175.5z" />
    <glyph glyph-name="uniFB5D" unicode="&#x680;" horiz-adv-x="827" arabic-form="medial" 
d="M108 -344l172 173l174 -173l-174 -173zM-241 -344l172 173l174 -173l-174 -173zM-241 -693l172 173l174 -173l-174 -173zM108 -693l172 173l174 -173l-174 -173zM554 535q0 -92 16 -145.5t65 -76t147 -22.5h45v-291h-48q-127 0 -224 60.5t-136 166.5h-10
q-38 -106 -141.5 -166.5t-228.5 -60.5h-39q-22 0 -31.5 35t-9.5 111q0 77 9.5 111t31.5 34h39q102 0 153 23t68 76.5t17 144.5v167h277v-167z" />
    <glyph glyph-name="uniFB5E" unicode="&#x67a;" horiz-adv-x="1799" arabic-form="isolated" 
d="M1682 864q23 -89 37 -180t14 -166q0 -193 -84 -306.5t-267.5 -162.5t-481.5 -49q-297 0 -480.5 49t-267.5 161.5t-84 302.5q0 74 14.5 166.5t36.5 184.5l247 -55q-14 -68 -25 -141t-11 -121q0 -107 53 -162t178 -74.5t339 -19.5q216 0 340.5 20.5t177 76.5t52.5 163
q0 50 -10 120.5t-25 137.5zM728 1195l172 173l174 -173l-174 -173zM728 845l172 173l174 -173l-174 -173z" />
    <glyph glyph-name="uniFB5F" unicode="&#x67a;" horiz-adv-x="1963" arabic-form="final" 
d="M744 1202l172 173l174 -173l-174 -173zM744 852l172 173l174 -173l-174 -173zM1776 730q-15 -84 -23.5 -146.5t-8.5 -106.5q0 -85 49 -135.5t169 -50.5h1v-291h-1q-154 0 -265.5 62.5t-160.5 207.5h-10q-106 -155 -292.5 -212.5t-443.5 -57.5q-368 0 -545 136.5
t-177 402.5q0 157 59 363l242 -67q-21 -74 -32.5 -144t-11.5 -116q0 -150 117 -217t390 -67q225 0 364 48t215.5 154t111.5 279z" />
    <glyph glyph-name="uniFB60" unicode="&#x67a;" horiz-adv-x="603" arabic-form="initial" 
d="M66 1544l172 173l174 -173l-174 -173zM66 1194l172 173l174 -173l-174 -173zM473 850q30 -119 47 -222.5t17 -181.5q0 -446 -498 -446h-39q-41 0 -41 146q0 145 41 145h39q118 0 172.5 46t54.5 142q0 46 -14.5 123.5t-38.5 175.5z" />
    <glyph glyph-name="uniFB61" unicode="&#x67a;" horiz-adv-x="827" arabic-form="medial" 
d="M139 1413l172 173l174 -173l-174 -173zM139 1063l172 173l174 -173l-174 -173zM554 535q0 -92 16 -145.5t65 -76t147 -22.5h45v-291h-48q-127 0 -224 60.5t-136 166.5h-10q-38 -106 -141.5 -166.5t-228.5 -60.5h-39q-22 0 -31.5 35t-9.5 111q0 77 9.5 111t31.5 34h39
q102 0 153 23t68 76.5t17 144.5v167h277v-167z" />
    <glyph glyph-name="uniFB62" unicode="&#x67f;" horiz-adv-x="1799" arabic-form="isolated" 
d="M901 1246l172 173l174 -173l-174 -173zM552 1246l172 173l174 -173l-174 -173zM552 897l172 173l174 -173l-174 -173zM901 897l172 173l174 -173l-174 -173zM1682 864q23 -89 37 -180t14 -166q0 -193 -84 -306.5t-267.5 -162.5t-481.5 -49q-297 0 -480.5 49t-267.5 161.5
t-84 302.5q0 74 14.5 166.5t36.5 184.5l247 -55q-14 -68 -25 -141t-11 -121q0 -107 53 -162t178 -74.5t339 -19.5q216 0 340.5 20.5t177 76.5t52.5 163q0 50 -10 120.5t-25 137.5z" />
    <glyph glyph-name="uniFB63" unicode="&#x67f;" horiz-adv-x="1963" arabic-form="final" 
d="M918 1201l172 173l174 -173l-174 -173zM569 1201l172 173l174 -173l-174 -173zM569 852l172 173l174 -173l-174 -173zM918 852l172 173l174 -173l-174 -173zM1776 730q-15 -84 -23.5 -146.5t-8.5 -106.5q0 -85 49 -135.5t169 -50.5h1v-291h-1q-154 0 -265.5 62.5
t-160.5 207.5h-10q-106 -155 -292.5 -212.5t-443.5 -57.5q-368 0 -545 136.5t-177 402.5q0 157 59 363l242 -67q-21 -74 -32.5 -144t-11.5 -116q0 -150 117 -217t390 -67q225 0 364 48t215.5 154t111.5 279z" />
    <glyph glyph-name="uniFB64" unicode="&#x67f;" horiz-adv-x="603" arabic-form="initial" 
d="M250 1515l172 173l174 -173l-174 -173zM-99 1515l172 173l174 -173l-174 -173zM-99 1166l172 173l174 -173l-174 -173zM250 1166l172 173l174 -173l-174 -173zM473 850q30 -119 47 -222.5t17 -181.5q0 -446 -498 -446h-39q-41 0 -41 146q0 145 41 145h39q118 0 172.5 46
t54.5 142q0 46 -14.5 123.5t-38.5 175.5z" />
    <glyph glyph-name="uniFB65" unicode="&#x67f;" horiz-adv-x="827" arabic-form="medial" 
d="M318 1389l172 173l174 -173l-174 -173zM-31 1389l172 173l174 -173l-174 -173zM-31 1040l172 173l174 -173l-174 -173zM318 1040l172 173l174 -173l-174 -173zM554 535q0 -92 16 -145.5t65 -76t147 -22.5h45v-291h-48q-127 0 -224 60.5t-136 166.5h-10
q-38 -106 -141.5 -166.5t-228.5 -60.5h-39q-22 0 -31.5 35t-9.5 111q0 77 9.5 111t31.5 34h39q102 0 153 23t68 76.5t17 144.5v167h277v-167z" />
    <glyph glyph-name="uniFB66" unicode="&#x679;" horiz-adv-x="1799" arabic-form="isolated" 
d="M1682 864q23 -89 37 -180t14 -166q0 -193 -84 -306.5t-267.5 -162.5t-481.5 -49q-297 0 -480.5 49t-267.5 161.5t-84 302.5q0 74 14.5 166.5t36.5 184.5l247 -55q-14 -68 -25 -141t-11 -121q0 -107 53 -162t178 -74.5t339 -19.5q216 0 340.5 20.5t177 76.5t52.5 163
q0 50 -10 120.5t-25 137.5zM699 834v397h120v-265h10q64 60 110 85.5t94 25.5q62 0 101.5 -47t39.5 -106q0 -109 -72.5 -163.5t-201.5 -54.5h-314v128h113zM806 834h94q166 0 166 65q0 24 -17.5 40t-46.5 16q-40 0 -85 -28t-111 -93z" />
    <glyph glyph-name="uniFB67" unicode="&#x679;" horiz-adv-x="1963" arabic-form="final" 
d="M744 849v397h120v-265h10q64 60 110 85.5t94 25.5q62 0 101.5 -47t39.5 -106q0 -109 -72.5 -163.5t-201.5 -54.5h-314v128h113zM851 849h94q166 0 166 65q0 24 -17.5 40t-46.5 16q-40 0 -85 -28t-111 -93zM1776 730q-15 -84 -23.5 -146.5t-8.5 -106.5q0 -85 49 -135.5
t169 -50.5h1v-291h-1q-154 0 -265.5 62.5t-160.5 207.5h-10q-106 -155 -292.5 -212.5t-443.5 -57.5q-368 0 -545 136.5t-177 402.5q0 157 59 363l242 -67q-21 -74 -32.5 -144t-11.5 -116q0 -150 117 -217t390 -67q225 0 364 48t215.5 154t111.5 279z" />
    <glyph glyph-name="uniFB68" unicode="&#x679;" horiz-adv-x="603" arabic-form="initial" 
d="M69 1189v397h120v-265h10q64 60 110 85.5t94 25.5q62 0 101.5 -47t39.5 -106q0 -109 -72.5 -163.5t-201.5 -54.5h-314v128h113zM176 1189h94q166 0 166 65q0 24 -17.5 40t-46.5 16q-40 0 -85 -28t-111 -93zM473 850q30 -119 47 -222.5t17 -181.5q0 -446 -498 -446h-39
q-41 0 -41 146q0 145 41 145h39q118 0 172.5 46t54.5 142q0 46 -14.5 123.5t-38.5 175.5z" />
    <glyph glyph-name="uniFB69" unicode="&#x679;" horiz-adv-x="827" arabic-form="medial" 
d="M129 1062v397h120v-265h10q64 60 110 85.5t94 25.5q62 0 101.5 -47t39.5 -106q0 -109 -72.5 -163.5t-201.5 -54.5h-314v128h113zM236 1062h94q166 0 166 65q0 24 -17.5 40t-46.5 16q-40 0 -85 -28t-111 -93zM554 535q0 -92 16 -145.5t65 -76t147 -22.5h45v-291h-48
q-127 0 -224 60.5t-136 166.5h-10q-38 -106 -141.5 -166.5t-228.5 -60.5h-39q-22 0 -31.5 35t-9.5 111q0 77 9.5 111t31.5 34h39q102 0 153 23t68 76.5t17 144.5v167h277v-167z" />
    <glyph glyph-name="uniFB6A" unicode="&#x6a4;" horiz-adv-x="1836" arabic-form="isolated" 
d="M1516 485q-126 -32 -233 -32q-176 0 -260.5 76.5t-84.5 237.5q0 160 47 278t132.5 183t200.5 65q135 0 234.5 -92.5t153.5 -261.5t54 -399q0 -201 -82 -319.5t-272 -169.5t-514 -51q-297 0 -478.5 49t-263.5 159t-82 291q0 66 12 156.5t33 189.5l252 -55
q-16 -88 -25.5 -155t-9.5 -105q0 -93 52.5 -145t180 -73t352.5 -21q191 0 309.5 7.5t182 28t86.5 59t23 99.5zM1475 724q-11 137 -54.5 210.5t-113.5 73.5q-66 0 -105.5 -56t-39.5 -143q0 -105 141 -105q77 0 172 20zM1114 1992l173 173l173 -173l-173 -173zM1289 1664
l172 173l174 -173l-174 -173zM940 1664l172 173l174 -173l-174 -173z" />
    <glyph glyph-name="uniFB6B" unicode="&#x6a4;" horiz-adv-x="1951" arabic-form="final" 
d="M1271 1714l173 173l173 -173l-173 -173zM1446 1386l172 173l174 -173l-174 -173zM1097 1386l172 173l174 -173l-174 -173zM1441 121q-109 -58 -251.5 -89.5t-306.5 -31.5q-265 0 -447 44.5t-275 149t-93 283.5q0 89 23.5 198.5t60.5 220.5l244 -78q-23 -73 -42.5 -156
t-19.5 -137q0 -134 130 -181.5t419 -52.5q74 -1 148.5 2.5t144.5 11.5l3 9q-70 50 -111.5 123t-41.5 167q0 129 56.5 225.5t151.5 150.5t212 54q116 0 211 -54t152 -150t57 -222q0 -94 -42 -169t-113 -126l4 -9q35 -6 71.5 -9.5t76.5 -3.5h88v-291h-107q-131 0 -226 32.5
t-177 88.5zM1445 370q68 37 109.5 91t41.5 129q0 65 -42 109.5t-108 44.5q-67 0 -108.5 -44t-41.5 -110q0 -70 42 -125.5t107 -94.5z" />
    <glyph glyph-name="uniFB6C" unicode="&#x6a4;" horiz-adv-x="961" arabic-form="initial" 
d="M268 1974l173 173l173 -173l-173 -173zM443 1646l172 173l174 -173l-174 -173zM94 1646l172 173l174 -173l-174 -173zM0 291h329q182 0 249.5 42.5t67.5 151.5q-126 -32 -233 -32q-176 0 -260.5 77t-84.5 237t46.5 278t132 183t200.5 65q135 0 234.5 -92.5t154 -261.5
t54.5 -399q0 -280 -137 -410t-430 -130h-323q-22 0 -31.5 34.5t-9.5 111.5t9.5 111t31.5 34zM605 724q-12 137 -56 210.5t-114 73.5q-64 0 -104 -55t-40 -144q0 -105 141 -105q70 0 173 20z" />
    <glyph glyph-name="uniFB6D" unicode="&#x6a4;" horiz-adv-x="1034" arabic-form="medial" 
d="M341 1714l173 173l173 -173l-173 -173zM516 1386l172 173l174 -173l-174 -173zM167 1386l172 173l174 -173l-174 -173zM96 604q0 129 56.5 225.5t151.5 150.5t212 54q116 0 211 -54t152 -150t57 -222q0 -94 -42 -169t-113 -126l5 -9q34 -6 69.5 -9.5t74.5 -3.5h104v-291
h-123q-130 0 -224.5 32.5t-175.5 88.5q-79 -56 -171.5 -88.5t-219.5 -32.5h-120q-42 0 -42 146q0 145 42 145h84q44 0 85 3.5t80 9.5l4 9q-71 50 -114 123.5t-43 167.5zM515 369q68 38 109.5 91.5t41.5 129.5q0 65 -41.5 109.5t-108.5 44.5t-108.5 -44t-41.5 -110
q0 -70 42 -126t107 -95z" />
    <glyph glyph-name="uniFB6E" unicode="&#x6a6;" horiz-adv-x="1836" arabic-form="isolated" 
d="M1308 2019l172 173l174 -173l-174 -173zM959 2019l172 173l174 -173l-174 -173zM959 1670l172 173l174 -173l-174 -173zM1308 1670l172 173l174 -173l-174 -173zM1516 485q-126 -32 -233 -32q-176 0 -260.5 76.5t-84.5 237.5q0 160 47 278t132.5 183t200.5 65
q135 0 234.5 -92.5t153.5 -261.5t54 -399q0 -201 -82 -319.5t-272 -169.5t-514 -51q-297 0 -478.5 49t-263.5 159t-82 291q0 66 12 156.5t33 189.5l252 -55q-16 -88 -25.5 -155t-9.5 -105q0 -93 52.5 -145t180 -73t352.5 -21q191 0 309.5 7.5t182 28t86.5 59t23 99.5z
M1475 724q-11 137 -54.5 210.5t-113.5 73.5q-66 0 -105.5 -56t-39.5 -143q0 -105 141 -105q77 0 172 20z" />
    <glyph glyph-name="uniFB6F" unicode="&#x6a6;" horiz-adv-x="1951" arabic-form="final" 
d="M1446 1735l172 173l174 -173l-174 -173zM1097 1735l172 173l174 -173l-174 -173zM1097 1386l172 173l174 -173l-174 -173zM1446 1386l172 173l174 -173l-174 -173zM1441 121q-109 -58 -251.5 -89.5t-306.5 -31.5q-265 0 -447 44.5t-275 149t-93 283.5q0 89 23.5 198.5
t60.5 220.5l244 -78q-23 -73 -42.5 -156t-19.5 -137q0 -134 130 -181.5t419 -52.5q74 -1 148.5 2.5t144.5 11.5l3 9q-70 50 -111.5 123t-41.5 167q0 129 56.5 225.5t151.5 150.5t212 54q116 0 211 -54t152 -150t57 -222q0 -94 -42 -169t-113 -126l4 -9q35 -6 71.5 -9.5
t76.5 -3.5h88v-291h-107q-131 0 -226 32.5t-177 88.5zM1445 370q68 37 109.5 91t41.5 129q0 65 -42 109.5t-108 44.5q-67 0 -108.5 -44t-41.5 -110q0 -70 42 -125.5t107 -94.5z" />
    <glyph glyph-name="uniFB70" unicode="&#x6a6;" horiz-adv-x="961" arabic-form="initial" 
d="M443 1995l172 173l174 -173l-174 -173zM94 1995l172 173l174 -173l-174 -173zM94 1646l172 173l174 -173l-174 -173zM443 1646l172 173l174 -173l-174 -173zM0 291h329q182 0 249.5 42.5t67.5 151.5q-126 -32 -233 -32q-176 0 -260.5 77t-84.5 237t46.5 278t132 183
t200.5 65q135 0 234.5 -92.5t154 -261.5t54.5 -399q0 -280 -137 -410t-430 -130h-323q-22 0 -31.5 34.5t-9.5 111.5t9.5 111t31.5 34zM605 724q-12 137 -56 210.5t-114 73.5q-64 0 -104 -55t-40 -144q0 -105 141 -105q70 0 173 20z" />
    <glyph glyph-name="uniFB71" unicode="&#x6a6;" horiz-adv-x="1034" arabic-form="medial" 
d="M516 1735l172 173l174 -173l-174 -173zM167 1735l172 173l174 -173l-174 -173zM167 1386l172 173l174 -173l-174 -173zM516 1386l172 173l174 -173l-174 -173zM96 604q0 129 56.5 225.5t151.5 150.5t212 54q116 0 211 -54t152 -150t57 -222q0 -94 -42 -169t-113 -126
l5 -9q34 -6 69.5 -9.5t74.5 -3.5h104v-291h-123q-130 0 -224.5 32.5t-175.5 88.5q-79 -56 -171.5 -88.5t-219.5 -32.5h-120q-42 0 -42 146q0 145 42 145h84q44 0 85 3.5t80 9.5l4 9q-71 50 -114 123.5t-43 167.5zM515 369q68 38 109.5 91.5t41.5 129.5q0 65 -41.5 109.5
t-108.5 44.5t-108.5 -44t-41.5 -110q0 -70 42 -126t107 -95z" />
    <glyph glyph-name="uniFB72" unicode="&#x684;" horiz-adv-x="1439" arabic-form="isolated" 
d="M839 -13l-115 115l115 115l115 -115zM839 -254l-115 115l115 115l115 -115zM485 1068q59 0 140 -24t217 -85q119 -53 204 -88t149.5 -56.5t121.5 -35.5l-34 -300q-125 -10 -257.5 -40.5t-255.5 -80t-221.5 -115.5t-156 -148.5t-57.5 -178.5q0 -92 60.5 -156t166 -97.5
t241.5 -33.5q267 0 481 103l125 -251q-301 -148 -605 -148q-216 0 -382.5 67t-261.5 191t-95 296q0 143 68 265t188.5 218.5t279 163t339.5 97.5v10q-50 13 -107 33t-133 51q-88 33 -137 47t-79 14q-64 0 -104.5 -38t-73.5 -128l-9 -22l-201 61l7 24q62 204 152.5 294.5
t229.5 90.5z" />
    <glyph glyph-name="uniFB73" unicode="&#x684;" horiz-adv-x="1453" arabic-form="final" 
d="M812 -75l-115 115l115 115l115 -115zM812 -316l-115 115l115 115l115 -115zM485 1028q61 0 143 -25t214 -84q120 -54 205 -89t149.5 -56.5t120.5 -34.5l-34 -300q-41 -4 -74.5 -9t-61.5 -11v-10q75 -118 243 -118h63v-291h-24q-356 0 -443 369q-183 -29 -330.5 -104
t-234 -177t-86.5 -212q0 -130 127 -208.5t341 -78.5q269 0 481 103l125 -251q-299 -148 -605 -148q-223 0 -389 69t-258 193.5t-92 291.5q0 179 109 331t306 260t460 153v10q-90 22 -240 84q-88 33 -137 47t-79 14q-64 0 -104.5 -38t-73.5 -128l-9 -22l-201 61l7 24
q62 203 152.5 294t229.5 91z" />
    <glyph glyph-name="uniFB74" unicode="&#x684;" horiz-adv-x="1339" arabic-form="initial" 
d="M415 -342l172 173l174 -173l-174 -173zM415 -692l172 173l174 -173l-174 -173zM463 985q56 0 134 -25t228 -90q149 -63 250.5 -98t197.5 -57v-229l-507 -298q-168 -100 -313 -144t-308 -44h-145q-22 0 -31.5 33.5t-9.5 112.5t9.5 112t31.5 33h202q76 0 142 11.5t139 39
t170 74.5l261 133v10q-49 12 -105.5 32t-131.5 51q-87 33 -136 47.5t-80 14.5q-64 0 -104 -38.5t-74 -128.5l-8 -22l-202 62l7 23q60 204 152 294.5t231 90.5z" />
    <glyph glyph-name="uniFB75" unicode="&#x684;" horiz-adv-x="1389" arabic-form="medial" 
d="M415 -342l172 173l174 -173l-174 -173zM415 -692l172 173l174 -173l-174 -173zM463 985q56 0 134 -24.5t228 -90.5q149 -63 250.5 -98t197.5 -57v-229l-198 -107v-10q58 -45 133 -61.5t144 -16.5h37v-291h-38q-138 0 -255 61t-210 197l-120 -70q-168 -100 -313 -144
t-308 -44h-145q-22 0 -31.5 33.5t-9.5 112.5t9.5 112t31.5 33h202q76 0 142 11.5t139 39t170 74.5l261 133v10q-49 12 -105.5 32.5t-131.5 50.5q-87 33 -136 47.5t-80 14.5q-64 0 -104 -38.5t-74 -128.5l-8 -22l-202 62l7 23q60 204 152 294.5t231 90.5z" />
    <glyph glyph-name="uniFB76" unicode="&#x683;" horiz-adv-x="1439" arabic-form="isolated" 
d="M866 -27l114 115l115 -115l-115 -115zM612 -27l115 115l115 -115l-115 -115zM485 1068q59 0 140 -24t217 -85q119 -53 204 -88t149.5 -56.5t121.5 -35.5l-34 -300q-125 -10 -257.5 -40.5t-255.5 -80t-221.5 -115.5t-156 -148.5t-57.5 -178.5q0 -92 60.5 -156t166 -97.5
t241.5 -33.5q267 0 481 103l125 -251q-301 -148 -605 -148q-216 0 -382.5 67t-261.5 191t-95 296q0 143 68 265t188.5 218.5t279 163t339.5 97.5v10q-50 13 -107 33t-133 51q-88 33 -137 47t-79 14q-64 0 -104.5 -38t-73.5 -128l-9 -22l-201 61l7 24q62 204 152.5 294.5
t229.5 90.5z" />
    <glyph glyph-name="uniFB77" unicode="&#x683;" horiz-adv-x="1453" arabic-form="final" 
d="M839 -96l114 115l115 -115l-115 -115zM585 -96l115 115l115 -115l-115 -115zM485 1028q61 0 143 -25t214 -84q120 -54 205 -89t149.5 -56.5t120.5 -34.5l-34 -300q-41 -4 -74.5 -9t-61.5 -11v-10q75 -118 243 -118h63v-291h-24q-356 0 -443 369q-183 -29 -330.5 -104
t-234 -177t-86.5 -212q0 -130 127 -208.5t341 -78.5q269 0 481 103l125 -251q-299 -148 -605 -148q-223 0 -389 69t-258 193.5t-92 291.5q0 179 109 331t306 260t460 153v10q-90 22 -240 84q-88 33 -137 47t-79 14q-64 0 -104.5 -38t-73.5 -128l-9 -22l-201 61l7 24
q62 203 152.5 294t229.5 91z" />
    <glyph glyph-name="uniFB78" unicode="&#x683;" horiz-adv-x="1339" arabic-form="initial" 
d="M253 -327l172 173l174 -173l-174 -173zM602 -327l172 173l174 -173l-174 -173zM463 985q56 0 134 -25t228 -90q149 -63 250.5 -98t197.5 -57v-229l-507 -298q-168 -100 -313 -144t-308 -44h-145q-22 0 -31.5 33.5t-9.5 112.5t9.5 112t31.5 33h202q76 0 142 11.5t139 39
t170 74.5l261 133v10q-49 12 -105.5 32t-131.5 51q-87 33 -136 47.5t-80 14.5q-64 0 -104 -38.5t-74 -128.5l-8 -22l-202 62l7 23q60 204 152 294.5t231 90.5z" />
    <glyph glyph-name="uniFB79" unicode="&#x683;" horiz-adv-x="1389" arabic-form="medial" 
d="M253 -327l172 173l174 -173l-174 -173zM602 -327l172 173l174 -173l-174 -173zM463 985q56 0 134 -24.5t228 -90.5q149 -63 250.5 -98t197.5 -57v-229l-198 -107v-10q58 -45 133 -61.5t144 -16.5h37v-291h-38q-138 0 -255 61t-210 197l-120 -70q-168 -100 -313 -144
t-308 -44h-145q-22 0 -31.5 33.5t-9.5 112.5t9.5 112t31.5 33h202q76 0 142 11.5t139 39t170 74.5l261 133v10q-49 12 -105.5 32.5t-131.5 50.5q-87 33 -136 47.5t-80 14.5q-64 0 -104 -38.5t-74 -128.5l-8 -22l-202 62l7 23q60 204 152 294.5t231 90.5z" />
    <glyph glyph-name="uniFB7A" unicode="&#x686;" horiz-adv-x="1471" arabic-form="isolated" 
d="M485 1068q59 0 140 -24t217 -85q119 -53 204 -88t149.5 -56.5t121.5 -35.5l-34 -300q-125 -10 -257.5 -40.5t-255.5 -80t-221.5 -115.5t-156 -148.5t-57.5 -178.5q0 -92 60.5 -156t166 -97.5t241.5 -33.5q267 0 481 103l125 -251q-301 -148 -605 -148q-216 0 -382.5 67
t-261.5 191t-95 296q0 143 68 265t188.5 218.5t279 163t339.5 97.5v10q-50 13 -107 33t-133 51q-88 33 -137 47t-79 14q-64 0 -104.5 -38t-73.5 -128l-9 -22l-201 61l7 24q62 204 152.5 294.5t229.5 90.5zM560 53l131 131l130 -131l-130 -131zM847 53l131 131l130 -131
l-130 -132zM710 -178l124 123l123 -123l-123 -124z" />
    <glyph glyph-name="uniFB7B" unicode="&#x686;" horiz-adv-x="1453" arabic-form="final" 
d="M534 13l131 131l130 -131l-130 -131zM821 13l131 131l130 -131l-130 -132zM684 -218l124 123l123 -123l-123 -124zM485 1028q61 0 143 -25t214 -84q120 -54 205 -89t149.5 -56.5t120.5 -34.5l-34 -300q-41 -4 -74.5 -9t-61.5 -11v-10q75 -118 243 -118h63v-291h-24
q-356 0 -443 369q-183 -29 -330.5 -104t-234 -177t-86.5 -212q0 -130 127 -208.5t341 -78.5q269 0 481 103l125 -251q-299 -148 -605 -148q-223 0 -389 69t-258 193.5t-92 291.5q0 179 109 331t306 260t460 153v10q-90 22 -240 84q-88 33 -137 47t-79 14q-64 0 -104.5 -38
t-73.5 -128l-9 -22l-201 61l7 24q62 203 152.5 294t229.5 91z" />
    <glyph glyph-name="uniFB7C" unicode="&#x686;" horiz-adv-x="1339" arabic-form="initial" 
d="M602 -288l172 173l174 -173l-174 -173zM253 -288l172 173l174 -173l-174 -173zM428 -616l173 173l173 -173l-173 -173zM463 985q56 0 134 -25t228 -90q149 -63 250.5 -98t197.5 -57v-229l-507 -298q-168 -100 -313 -144t-308 -44h-145q-22 0 -31.5 33.5t-9.5 112.5
t9.5 112t31.5 33h202q76 0 142 11.5t139 39t170 74.5l261 133v10q-49 12 -105.5 32t-131.5 51q-87 33 -136 47.5t-80 14.5q-64 0 -104 -38.5t-74 -128.5l-8 -22l-202 62l7 23q60 204 152 294.5t231 90.5z" />
    <glyph glyph-name="uniFB7D" unicode="&#x686;" horiz-adv-x="1389" arabic-form="medial" 
d="M602 -288l172 173l174 -173l-174 -173zM253 -288l172 173l174 -173l-174 -173zM428 -616l173 173l173 -173l-173 -173zM463 985q56 0 134 -24.5t228 -90.5q149 -63 250.5 -98t197.5 -57v-229l-198 -107v-10q58 -45 133 -61.5t144 -16.5h37v-291h-38q-138 0 -255 61
t-210 197l-120 -70q-168 -100 -313 -144t-308 -44h-145q-22 0 -31.5 33.5t-9.5 112.5t9.5 112t31.5 33h202q76 0 142 11.5t139 39t170 74.5l261 133v10q-49 12 -105.5 32.5t-131.5 50.5q-87 33 -136 47.5t-80 14.5q-64 0 -104 -38.5t-74 -128.5l-8 -22l-202 62l7 23
q60 204 152 294.5t231 90.5z" />
    <glyph glyph-name="uniFB7E" unicode="&#x687;" horiz-adv-x="1439" arabic-form="isolated" 
d="M607 102l122 123l123 -123l-123 -123zM856 102l122 123l123 -123l-123 -122zM607 -144l122 123l123 -123l-123 -123zM856 -144l122 123l123 -123l-123 -123zM485 1068q59 0 140 -24t217 -85q119 -53 204 -88t149.5 -56.5t121.5 -35.5l-34 -300q-125 -10 -257.5 -40.5
t-255.5 -80t-221.5 -115.5t-156 -148.5t-57.5 -178.5q0 -92 60.5 -156t166 -97.5t241.5 -33.5q267 0 481 103l125 -251q-301 -148 -605 -148q-216 0 -382.5 67t-261.5 191t-95 296q0 143 68 265t188.5 218.5t279 163t339.5 97.5v10q-50 13 -107 33t-133 51q-88 33 -137 47
t-79 14q-64 0 -104.5 -38t-73.5 -128l-9 -22l-201 61l7 24q62 204 152.5 294.5t229.5 90.5z" />
    <glyph glyph-name="uniFB7F" unicode="&#x687;" horiz-adv-x="1453" arabic-form="final" 
d="M559 33l122 123l123 -123l-123 -123zM808 33l122 123l123 -123l-123 -122zM559 -213l122 123l123 -123l-123 -123zM808 -213l122 123l123 -123l-123 -123zM485 1028q61 0 143 -25t214 -84q120 -54 205 -89t149.5 -56.5t120.5 -34.5l-34 -300q-41 -4 -74.5 -9t-61.5 -11
v-10q75 -118 243 -118h63v-291h-24q-356 0 -443 369q-183 -29 -330.5 -104t-234 -177t-86.5 -212q0 -130 127 -208.5t341 -78.5q269 0 481 103l125 -251q-299 -148 -605 -148q-223 0 -389 69t-258 193.5t-92 291.5q0 179 109 331t306 260t460 153v10q-90 22 -240 84
q-88 33 -137 47t-79 14q-64 0 -104.5 -38t-73.5 -128l-9 -22l-201 61l7 24q62 203 152.5 294t229.5 91z" />
    <glyph glyph-name="uniFB80" unicode="&#x687;" horiz-adv-x="1339" arabic-form="initial" 
d="M602 -328l172 173l174 -173l-174 -173zM253 -328l172 173l174 -173l-174 -173zM253 -677l172 173l174 -173l-174 -173zM602 -677l172 173l174 -173l-174 -173zM463 985q56 0 134 -25t228 -90q149 -63 250.5 -98t197.5 -57v-229l-507 -298q-168 -100 -313 -144t-308 -44
h-145q-22 0 -31.5 33.5t-9.5 112.5t9.5 112t31.5 33h202q76 0 142 11.5t139 39t170 74.5l261 133v10q-49 12 -105.5 32t-131.5 51q-87 33 -136 47.5t-80 14.5q-64 0 -104 -38.5t-74 -128.5l-8 -22l-202 62l7 23q60 204 152 294.5t231 90.5z" />
    <glyph glyph-name="uniFB81" unicode="&#x687;" horiz-adv-x="1389" arabic-form="medial" 
d="M602 -328l172 173l174 -173l-174 -173zM253 -328l172 173l174 -173l-174 -173zM253 -677l172 173l174 -173l-174 -173zM602 -677l172 173l174 -173l-174 -173zM463 985q56 0 134 -24.5t228 -90.5q149 -63 250.5 -98t197.5 -57v-229l-198 -107v-10q58 -45 133 -61.5
t144 -16.5h37v-291h-38q-138 0 -255 61t-210 197l-120 -70q-168 -100 -313 -144t-308 -44h-145q-22 0 -31.5 33.5t-9.5 112.5t9.5 112t31.5 33h202q76 0 142 11.5t139 39t170 74.5l261 133v10q-49 12 -105.5 32.5t-131.5 50.5q-87 33 -136 47.5t-80 14.5q-64 0 -104 -38.5
t-74 -128.5l-8 -22l-202 62l7 23q60 204 152 294.5t231 90.5z" />
    <glyph glyph-name="uniFB82" unicode="&#x68d;" horiz-adv-x="1025" arabic-form="isolated" 
d="M71 -343l172 173l174 -173l-174 -173zM420 -343l172 173l174 -173l-174 -173zM958 427q0 -142 -72 -238.5t-197.5 -145.5t-287.5 -49q-156 0 -340 46l64 274q75 -16 141 -23.5t126 -7.5q138 0 215.5 38.5t77.5 113.5q0 52 -42.5 127t-118 162.5t-175.5 175.5l184 219
q215 -190 320 -359.5t105 -332.5z" />
    <glyph glyph-name="uniFB83" unicode="&#x68d;" horiz-adv-x="1304" arabic-form="final" 
d="M136 -343l172 173l174 -173l-174 -173zM485 -343l172 173l174 -173l-174 -173zM781 1104l261 -611q36 -85 68.5 -128.5t75.5 -58.5t109 -15h9v-291h-9q-142 0 -234 53.5t-145 179.5h-10q-46 -115 -163.5 -179t-269.5 -64q-106 0 -211.5 36.5t-200.5 109.5l124 231
q71 -43 145 -64t138 -21q92 0 172.5 31.5t134.5 92.5l-254 573z" />
    <glyph glyph-name="uniFB84" unicode="&#x68c;" horiz-adv-x="1025" arabic-form="isolated" 
d="M179 1482l172 173l174 -173l-174 -173zM528 1482l172 173l174 -173l-174 -173zM958 427q0 -142 -72 -238.5t-197.5 -145.5t-287.5 -49q-156 0 -340 46l64 274q75 -16 141 -23.5t126 -7.5q138 0 215.5 38.5t77.5 113.5q0 52 -42.5 127t-118 162.5t-175.5 175.5l184 219
q215 -190 320 -359.5t105 -332.5z" />
    <glyph glyph-name="uniFB85" unicode="&#x68c;" horiz-adv-x="1304" arabic-form="final" 
d="M257 1482l172 173l174 -173l-174 -173zM606 1482l172 173l174 -173l-174 -173zM781 1104l261 -611q36 -85 68.5 -128.5t75.5 -58.5t109 -15h9v-291h-9q-142 0 -234 53.5t-145 179.5h-10q-46 -115 -163.5 -179t-269.5 -64q-106 0 -211.5 36.5t-200.5 109.5l124 231
q71 -43 145 -64t138 -21q92 0 172.5 31.5t134.5 92.5l-254 573z" />
    <glyph glyph-name="uniFB86" unicode="&#x68e;" horiz-adv-x="1025" arabic-form="isolated" 
d="M353 1810l173 173l173 -173l-173 -173zM528 1482l172 173l174 -173l-174 -173zM179 1482l172 173l174 -173l-174 -173zM958 427q0 -142 -72 -238.5t-197.5 -145.5t-287.5 -49q-156 0 -340 46l64 274q75 -16 141 -23.5t126 -7.5q138 0 215.5 38.5t77.5 113.5
q0 52 -42.5 127t-118 162.5t-175.5 175.5l184 219q215 -190 320 -359.5t105 -332.5z" />
    <glyph glyph-name="uniFB87" unicode="&#x68e;" horiz-adv-x="1304" arabic-form="final" 
d="M431 1810l173 173l173 -173l-173 -173zM606 1482l172 173l174 -173l-174 -173zM257 1482l172 173l174 -173l-174 -173zM781 1104l261 -611q36 -85 68.5 -128.5t75.5 -58.5t109 -15h9v-291h-9q-142 0 -234 53.5t-145 179.5h-10q-46 -115 -163.5 -179t-269.5 -64
q-106 0 -211.5 36.5t-200.5 109.5l124 231q71 -43 145 -64t138 -21q92 0 172.5 31.5t134.5 92.5l-254 573z" />
    <glyph glyph-name="uniFB88" unicode="&#x688;" horiz-adv-x="1025" arabic-form="isolated" 
d="M324 1457v397h120v-265h10q64 60 110 85.5t94 25.5q62 0 101.5 -47t39.5 -106q0 -109 -72.5 -163.5t-201.5 -54.5h-314v128h113zM431 1457h94q166 0 166 65q0 24 -17.5 40t-46.5 16q-40 0 -85 -28t-111 -93zM958 427q0 -142 -72 -238.5t-197.5 -145.5t-287.5 -49
q-156 0 -340 46l64 274q75 -16 141 -23.5t126 -7.5q138 0 215.5 38.5t77.5 113.5q0 52 -42.5 127t-118 162.5t-175.5 175.5l184 219q215 -190 320 -359.5t105 -332.5z" />
    <glyph glyph-name="uniFB89" unicode="&#x688;" horiz-adv-x="1304" arabic-form="final" 
d="M407 1437v397h120v-265h10q64 60 110 85.5t94 25.5q62 0 101.5 -47t39.5 -106q0 -109 -72.5 -163.5t-201.5 -54.5h-314v128h113zM514 1437h94q166 0 166 65q0 24 -17.5 40t-46.5 16q-40 0 -85 -28t-111 -93zM781 1104l261 -611q36 -85 68.5 -128.5t75.5 -58.5t109 -15h9
v-291h-9q-142 0 -234 53.5t-145 179.5h-10q-46 -115 -163.5 -179t-269.5 -64q-106 0 -211.5 36.5t-200.5 109.5l124 231q71 -43 145 -64t138 -21q92 0 172.5 31.5t134.5 92.5l-254 573z" />
    <glyph glyph-name="uniFB8A" unicode="&#x698;" horiz-adv-x="633" arabic-form="isolated" 
d="M164 662l260 90q56 -169 90 -321.5t34 -277.5q0 -245 -155.5 -414t-490.5 -289l-126 261q257 87 378.5 186.5t121.5 253.5q0 92 -32 231.5t-80 279.5zM131 1404l173 173l173 -173l-173 -173zM306 1076l172 173l174 -173l-174 -173zM-43 1076l172 173l174 -173l-174 -173z
" />
    <glyph glyph-name="uniFB8B" unicode="&#x698;" horiz-adv-x="792" arabic-form="final" 
d="M131 1404l173 173l173 -173l-173 -173zM306 1076l172 173l174 -173l-174 -173zM-43 1076l172 173l174 -173l-174 -173zM164 662l260 90l70 -216q31 -95 65 -148.5t88 -75t143 -21.5h2v-291h-2q-164 0 -250 116l-10 -3q2 -237 -160.5 -396t-467.5 -267l-126 261
q181 62 290.5 125.5t159.5 140t50 174.5q0 84 -30 219t-82 292z" />
    <glyph glyph-name="uniFB8C" unicode="&#x691;" horiz-adv-x="633" arabic-form="isolated" 
d="M125 1123v397h120v-265h10q64 60 110 85.5t94 25.5q62 0 101.5 -47t39.5 -106q0 -109 -72.5 -163.5t-201.5 -54.5h-314v128h113zM232 1123h94q166 0 166 65q0 24 -17.5 40t-46.5 16q-40 0 -85 -28t-111 -93zM164 662l260 90q56 -169 90 -321.5t34 -277.5
q0 -245 -155.5 -414t-490.5 -289l-126 261q257 87 378.5 186.5t121.5 253.5q0 92 -32 231.5t-80 279.5z" />
    <glyph glyph-name="uniFB8D" unicode="&#x691;" horiz-adv-x="792" arabic-form="final" 
d="M125 1123v397h120v-265h10q64 60 110 85.5t94 25.5q62 0 101.5 -47t39.5 -106q0 -109 -72.5 -163.5t-201.5 -54.5h-314v128h113zM232 1123h94q166 0 166 65q0 24 -17.5 40t-46.5 16q-40 0 -85 -28t-111 -93zM164 662l260 90l70 -216q31 -95 65 -148.5t88 -75t143 -21.5h2
v-291h-2q-164 0 -250 116l-10 -3q2 -237 -160.5 -396t-467.5 -267l-126 261q181 62 290.5 125.5t159.5 140t50 174.5q0 84 -30 219t-82 292z" />
    <glyph glyph-name="uniFB8E" unicode="&#x6a9;" horiz-adv-x="1713" arabic-form="isolated" 
d="M112 859l252 -56q-15 -76 -24.5 -153t-9.5 -120q0 -131 106 -185t365 -54q245 0 383 44t138 122q0 43 -48 102t-155 146.5t-284 213.5l20 243q400 193 878 292l40 -289q-207 -47 -348.5 -87t-255.5 -82l1 -6q156 -124 250 -218t136 -174t42 -162q0 -208 -209 -322
t-592 -114q-384 0 -556.5 118.5t-172.5 380.5q0 135 44 360z" />
    <glyph glyph-name="uniFB8F" unicode="&#x6a9;" horiz-adv-x="1962" arabic-form="final" 
d="M1499 304q-48 -157 -216.5 -230.5t-478.5 -73.5q-388 0 -561 117.5t-173 381.5q0 147 43 360l252 -56q-16 -87 -25.5 -161t-9.5 -113q0 -131 105.5 -184.5t364.5 -53.5q252 0 383 41t131 120q0 65 -115.5 177.5t-363.5 289.5l20 243q402 193 878 292l40 -289
q-203 -46 -345.5 -86t-258.5 -83l1 -6q109 -86 179 -149.5t121.5 -126t103.5 -144.5q65 -109 120 -169.5t117.5 -85t149.5 -24.5h1v-291h-1q-166 1 -271 71t-181 233h-10z" />
    <glyph glyph-name="uniFB90" unicode="&#x6a9;" horiz-adv-x="888" arabic-form="initial" 
d="M908 1454l40 -289q-207 -47 -348.5 -87t-255.5 -82v-6q156 -123 250.5 -217t136.5 -175.5t42 -165.5q0 -206 -164 -319t-466 -113h-143q-22 0 -31.5 33.5t-9.5 112.5t9.5 112t31.5 33h136q183 0 271 39t88 118q0 47 -46.5 106.5t-153 147t-286.5 217.5l21 243
q400 193 878 292z" />
    <glyph glyph-name="uniFB91" unicode="&#x6a9;" horiz-adv-x="1136" arabic-form="medial" 
d="M673 306q-54 -166 -176.5 -236t-353.5 -70h-143q-22 0 -31.5 33.5t-9.5 111.5q0 79 9.5 112.5t31.5 33.5h136q180 0 266 39t86 115q0 45 -47 107.5t-152 152t-280 214.5l21 243q402 193 878 292l40 -289q-203 -46 -345.5 -86t-258.5 -83v-6q107 -83 176.5 -145.5
t122 -125t105.5 -147.5q64 -107 118.5 -168.5t117.5 -87t151 -25.5h1v-291h-1q-164 0 -270 71.5t-182 234.5h-10z" />
    <glyph glyph-name="uniFB92" unicode="&#x6af;" horiz-adv-x="1713" arabic-form="isolated" 
d="M1538 1748l26 -143q-172 -31 -349 -91.5t-349 -145.5l-67 130q371 184 739 250zM112 859l252 -56q-15 -76 -24.5 -153t-9.5 -120q0 -131 106 -185t365 -54q245 0 383 44t138 122q0 43 -48 102t-155 146.5t-284 213.5l20 243q400 193 878 292l40 -289q-207 -47 -348.5 -87
t-255.5 -82l1 -6q156 -124 250 -218t136 -174t42 -162q0 -208 -209 -322t-592 -114q-384 0 -556.5 118.5t-172.5 380.5q0 135 44 360z" />
    <glyph glyph-name="uniFB93" unicode="&#x6af;" horiz-adv-x="1962" arabic-form="final" 
d="M1499 304q-48 -157 -216.5 -230.5t-478.5 -73.5q-388 0 -561 117.5t-173 381.5q0 147 43 360l252 -56q-16 -87 -25.5 -161t-9.5 -113q0 -131 105.5 -184.5t364.5 -53.5q252 0 383 41t131 120q0 65 -115.5 177.5t-363.5 289.5l20 243q402 193 878 292l40 -289
q-203 -46 -345.5 -86t-258.5 -83l1 -6q109 -86 179 -149.5t121.5 -126t103.5 -144.5q65 -109 120 -169.5t117.5 -85t149.5 -24.5h1v-291h-1q-166 1 -271 71t-181 233h-10zM1538 1748l26 -143q-172 -31 -349 -91.5t-349 -145.5l-67 130q371 184 739 250z" />
    <glyph glyph-name="uniFB94" unicode="&#x6af;" horiz-adv-x="888" arabic-form="initial" 
d="M908 1454l40 -289q-207 -47 -348.5 -87t-255.5 -82v-6q156 -123 250.5 -217t136.5 -175.5t42 -165.5q0 -206 -164 -319t-466 -113h-143q-22 0 -31.5 33.5t-9.5 112.5t9.5 112t31.5 33h136q183 0 271 39t88 118q0 47 -46.5 106.5t-153 147t-286.5 217.5l21 243
q400 193 878 292zM729 1748l26 -143q-172 -31 -349 -91.5t-349 -145.5l-67 130q371 184 739 250z" />
    <glyph glyph-name="uniFB95" unicode="&#x6af;" horiz-adv-x="1136" arabic-form="medial" 
d="M673 306q-54 -166 -176.5 -236t-353.5 -70h-143q-22 0 -31.5 33.5t-9.5 111.5q0 79 9.5 112.5t31.5 33.5h136q180 0 266 39t86 115q0 45 -47 107.5t-152 152t-280 214.5l21 243q402 193 878 292l40 -289q-203 -46 -345.5 -86t-258.5 -83v-6q107 -83 176.5 -145.5
t122 -125t105.5 -147.5q64 -107 118.5 -168.5t117.5 -87t151 -25.5h1v-291h-1q-164 0 -270 71.5t-182 234.5h-10zM729 1748l26 -143q-172 -31 -349 -91.5t-349 -145.5l-67 130q371 184 739 250z" />
    <glyph glyph-name="uniFB96" unicode="&#x6b3;" horiz-adv-x="1713" arabic-form="isolated" 
d="M635 -341l172 173l174 -173l-174 -173zM635 -691l172 173l174 -173l-174 -173zM1538 1748l26 -143q-172 -31 -349 -91.5t-349 -145.5l-67 130q371 184 739 250zM112 859l252 -56q-15 -76 -24.5 -153t-9.5 -120q0 -131 106 -185t365 -54q245 0 383 44t138 122
q0 43 -48 102t-155 146.5t-284 213.5l20 243q400 193 878 292l40 -289q-207 -47 -348.5 -87t-255.5 -82l1 -6q156 -124 250 -218t136 -174t42 -162q0 -208 -209 -322t-592 -114q-384 0 -556.5 118.5t-172.5 380.5q0 135 44 360z" />
    <glyph glyph-name="uniFB97" unicode="&#x6b3;" horiz-adv-x="1962" arabic-form="final" 
d="M630 -342l172 173l174 -173l-174 -173zM630 -692l172 173l174 -173l-174 -173zM1499 304q-48 -157 -216.5 -230.5t-478.5 -73.5q-388 0 -561 117.5t-173 381.5q0 147 43 360l252 -56q-16 -87 -25.5 -161t-9.5 -113q0 -131 105.5 -184.5t364.5 -53.5q252 0 383 41t131 120
q0 65 -115.5 177.5t-363.5 289.5l20 243q402 193 878 292l40 -289q-203 -46 -345.5 -86t-258.5 -83l1 -6q109 -86 179 -149.5t121.5 -126t103.5 -144.5q65 -109 120 -169.5t117.5 -85t149.5 -24.5h1v-291h-1q-166 1 -271 71t-181 233h-10zM1538 1748l26 -143
q-172 -31 -349 -91.5t-349 -145.5l-67 130q371 184 739 250z" />
    <glyph glyph-name="uniFB98" unicode="&#x6b3;" horiz-adv-x="888" arabic-form="initial" 
d="M337 -342l172 173l174 -173l-174 -173zM337 -692l172 173l174 -173l-174 -173zM908 1454l40 -289q-207 -47 -348.5 -87t-255.5 -82v-6q156 -123 250.5 -217t136.5 -175.5t42 -165.5q0 -206 -164 -319t-466 -113h-143q-22 0 -31.5 33.5t-9.5 112.5t9.5 112t31.5 33h136
q183 0 271 39t88 118q0 47 -46.5 106.5t-153 147t-286.5 217.5l21 243q400 193 878 292zM729 1748l26 -143q-172 -31 -349 -91.5t-349 -145.5l-67 130q371 184 739 250z" />
    <glyph glyph-name="uniFB99" unicode="&#x6b3;" horiz-adv-x="1136" arabic-form="medial" 
d="M383 -342l172 173l174 -173l-174 -173zM383 -692l172 173l174 -173l-174 -173zM673 306q-54 -166 -176.5 -236t-353.5 -70h-143q-22 0 -31.5 33.5t-9.5 111.5q0 79 9.5 112.5t31.5 33.5h136q180 0 266 39t86 115q0 45 -47 107.5t-152 152t-280 214.5l21 243
q402 193 878 292l40 -289q-203 -46 -345.5 -86t-258.5 -83v-6q107 -83 176.5 -145.5t122 -125t105.5 -147.5q64 -107 118.5 -168.5t117.5 -87t151 -25.5h1v-291h-1q-164 0 -270 71.5t-182 234.5h-10zM729 1748l26 -143q-172 -31 -349 -91.5t-349 -145.5l-67 130
q371 184 739 250z" />
    <glyph glyph-name="uniFB9A" unicode="&#x6b1;" horiz-adv-x="1713" arabic-form="isolated" 
d="M112 859l252 -56q-15 -76 -24.5 -153t-9.5 -120q0 -131 106 -185t365 -54q245 0 383 44t138 122q0 43 -48 102t-155 146.5t-284 213.5l20 243q400 193 878 292l40 -289q-207 -47 -348.5 -87t-255.5 -82l1 -6q156 -124 250 -218t136 -174t42 -162q0 -208 -209 -322
t-592 -114q-384 0 -556.5 118.5t-172.5 380.5q0 135 44 360zM1538 1748l26 -143q-172 -31 -349 -91.5t-349 -145.5l-67 130q371 184 739 250zM1115 1955l140 140l141 -140l-141 -141zM797 1851l140 140l141 -140l-141 -141z" />
    <glyph glyph-name="uniFB9B" unicode="&#x6b1;" horiz-adv-x="1962" arabic-form="final" 
d="M1499 304q-48 -157 -216.5 -230.5t-478.5 -73.5q-388 0 -561 117.5t-173 381.5q0 147 43 360l252 -56q-16 -87 -25.5 -161t-9.5 -113q0 -131 105.5 -184.5t364.5 -53.5q252 0 383 41t131 120q0 65 -115.5 177.5t-363.5 289.5l20 243q402 193 878 292l40 -289
q-203 -46 -345.5 -86t-258.5 -83l1 -6q109 -86 179 -149.5t121.5 -126t103.5 -144.5q65 -109 120 -169.5t117.5 -85t149.5 -24.5h1v-291h-1q-166 1 -271 71t-181 233h-10zM1538 1748l26 -143q-172 -31 -349 -91.5t-349 -145.5l-67 130q371 184 739 250zM1115 1955l140 140
l141 -140l-141 -141zM797 1851l140 140l141 -140l-141 -141z" />
    <glyph glyph-name="uniFB9C" unicode="&#x6b1;" horiz-adv-x="888" arabic-form="initial" 
d="M908 1454l40 -289q-207 -47 -348.5 -87t-255.5 -82v-6q156 -123 250.5 -217t136.5 -175.5t42 -165.5q0 -206 -164 -319t-466 -113h-143q-22 0 -31.5 33.5t-9.5 112.5t9.5 112t31.5 33h136q183 0 271 39t88 118q0 47 -46.5 106.5t-153 147t-286.5 217.5l21 243
q400 193 878 292zM729 1748l26 -143q-172 -31 -349 -91.5t-349 -145.5l-67 130q371 184 739 250zM359 1955l140 140l141 -140l-141 -141zM41 1851l140 140l141 -140l-141 -141z" />
    <glyph glyph-name="uniFB9D" unicode="&#x6b1;" horiz-adv-x="1136" arabic-form="medial" 
d="M673 306q-54 -166 -176.5 -236t-353.5 -70h-143q-22 0 -31.5 33.5t-9.5 111.5q0 79 9.5 112.5t31.5 33.5h136q180 0 266 39t86 115q0 45 -47 107.5t-152 152t-280 214.5l21 243q402 193 878 292l40 -289q-203 -46 -345.5 -86t-258.5 -83v-6q107 -83 176.5 -145.5
t122 -125t105.5 -147.5q64 -107 118.5 -168.5t117.5 -87t151 -25.5h1v-291h-1q-164 0 -270 71.5t-182 234.5h-10zM729 1748l26 -143q-172 -31 -349 -91.5t-349 -145.5l-67 130q371 184 739 250zM359 1955l140 140l141 -140l-141 -141zM41 1851l140 140l141 -140l-141 -141z
" />
    <glyph glyph-name="uniFB9E" unicode="&#x6ba;" horiz-adv-x="1609" arabic-form="isolated" 
d="M1121 661l259 124q158 -357 158 -585q0 -210 -90.5 -356t-255.5 -222t-390 -76q-359 0 -542.5 159.5t-183.5 493.5q0 95 15 211.5t48 258.5l262 -59q-33 -156 -45 -243t-12 -151q0 -202 111.5 -290t339.5 -88q231 0 352 79.5t121 257.5q0 83 -33 192t-114 294z" />
    <glyph glyph-name="uniFB9F" unicode="&#x6ba;" horiz-adv-x="1760" arabic-form="final" 
d="M139 629l262 -59q-33 -155 -45 -242t-12 -151q0 -202 112.5 -289.5t339.5 -87.5q474 0 474 322q0 81 -35.5 194t-116.5 305l256 124l95 -244q33 -83 65.5 -128.5t82 -63.5t129.5 -18h14v-291h-4q-131 0 -228 109l-8 -3q2 -183 -84.5 -317t-248 -207t-385.5 -73
q-358 0 -542 157.5t-184 492.5q0 95 15 210.5t48 259.5z" />
    <glyph glyph-name="uniFBA0" unicode="&#x6bb;" horiz-adv-x="1609" arabic-form="isolated" 
d="M643 450v307h85v-214h9q58 57 94.5 78.5t75.5 21.5q47 0 78 -37t31 -90q0 -74 -56.5 -114.5t-160.5 -40.5h-243v89h87zM726 450h73q134 0 134 58q0 46 -53 46q-31 0 -64.5 -22.5t-89.5 -81.5zM1121 661l259 124q158 -357 158 -585q0 -210 -90.5 -356t-255.5 -222
t-390 -76q-359 0 -542.5 159.5t-183.5 493.5q0 95 15 211.5t48 258.5l262 -59q-33 -156 -45 -243t-12 -151q0 -202 111.5 -290t339.5 -88q231 0 352 79.5t121 257.5q0 83 -33 192t-114 294z" />
    <glyph glyph-name="uniFBA1" unicode="&#x6bb;" horiz-adv-x="1760" arabic-form="final" 
d="M643 410v307h85v-214h9q58 57 94.5 78.5t75.5 21.5q47 0 78 -37t31 -90q0 -74 -56.5 -114.5t-160.5 -40.5h-243v89h87zM726 410h73q134 0 134 58q0 46 -53 46q-31 0 -64.5 -22.5t-89.5 -81.5zM139 629l262 -59q-33 -155 -45 -242t-12 -151q0 -202 112.5 -289.5
t339.5 -87.5q474 0 474 322q0 81 -35.5 194t-116.5 305l256 124l95 -244q33 -83 65.5 -128.5t82 -63.5t129.5 -18h14v-291h-4q-131 0 -228 109l-8 -3q2 -183 -84.5 -317t-248 -207t-385.5 -73q-358 0 -542 157.5t-184 492.5q0 95 15 210.5t48 259.5z" />
    <glyph glyph-name="uniFBA2" unicode="&#x6bb;" horiz-adv-x="603" arabic-form="initial" 
d="M61 1175v397h120v-265h10q64 60 110 85.5t94 25.5q62 0 101.5 -47t39.5 -106q0 -109 -72.5 -163.5t-201.5 -54.5h-314v128h113zM168 1175h94q166 0 166 65q0 24 -17.5 40t-46.5 16q-40 0 -85 -28t-111 -93zM473 850q30 -119 47 -222.5t17 -181.5q0 -446 -498 -446h-39
q-41 0 -41 146q0 145 41 145h39q118 0 172.5 46t54.5 142q0 46 -14.5 123.5t-38.5 175.5z" />
    <glyph glyph-name="uniFBA3" unicode="&#x6bb;" horiz-adv-x="827" arabic-form="medial" 
d="M132 1045v397h120v-265h10q64 60 110 85.5t94 25.5q62 0 101.5 -47t39.5 -106q0 -109 -72.5 -163.5t-201.5 -54.5h-314v128h113zM239 1045h94q166 0 166 65q0 24 -17.5 40t-46.5 16q-40 0 -85 -28t-111 -93zM554 535q0 -92 16 -145.5t65 -76t147 -22.5h45v-291h-48
q-127 0 -224 60.5t-136 166.5h-10q-38 -106 -141.5 -166.5t-228.5 -60.5h-39q-22 0 -31.5 35t-9.5 111q0 77 9.5 111t31.5 34h39q102 0 153 23t68 76.5t17 144.5v167h277v-167z" />
    <glyph glyph-name="uniFBA4" unicode="&#x6c0;" horiz-adv-x="937" arabic-form="isolated" 
d="M464 -11q-126 0 -214.5 46.5t-135 126t-46.5 177.5q0 138 69 258t172 226q-24 23 -50 46.5t-52 45.5l171 204q89 -73 176.5 -158t159 -181t114.5 -200.5t43 -216.5q0 -108 -51.5 -192.5t-143 -133t-212.5 -48.5zM464 281q77 0 109 35t32 82q0 56 -35.5 125t-105.5 134
q-69 -64 -105.5 -134.5t-36.5 -124.5q0 -47 32 -82t110 -35zM347 1293q-27 0 -58.5 3.5t-66.5 9.5l31 134q58 -11 114 -11q65 0 114 15t49 48q0 20 -24 29t-77 18q-74 14 -115.5 44.5t-41.5 94.5q0 113 73 182.5t182 69.5q59 0 116 -16l-43 -129q-19 5 -40 8.5t-42 3.5
q-52 0 -89 -23t-37 -63q0 -27 27.5 -38t92.5 -24q65 -11 102.5 -40.5t37.5 -95.5q0 -104 -85.5 -162t-219.5 -58z" />
    <glyph glyph-name="uniFBA6" unicode="&#x6c1;" horiz-adv-x="937" arabic-form="isolated" 
d="M464 -11q-126 0 -214.5 46.5t-135 126t-46.5 177.5q0 138 69 258t172 226q-24 23 -50 46.5t-52 45.5l171 204q89 -73 176.5 -158t159 -181t114.5 -200.5t43 -216.5q0 -108 -51.5 -192.5t-143 -133t-212.5 -48.5zM464 281q77 0 109 35t32 82q0 56 -35.5 125t-105.5 134
q-69 -64 -105.5 -134.5t-36.5 -124.5q0 -47 32 -82t110 -35z" />
    <glyph glyph-name="uniFBA7" unicode="&#x6c1;" horiz-adv-x="1270" arabic-form="final" 
d="M1270 291v-291h-1q-160 0 -300 66.5t-263 172.5q-30 26 -58.5 51.5t-56.5 50.5q-40 36 -72 36q-23 0 -39.5 -17t-33.5 -61q-15 -32 -29 -78.5t-27 -101.5q-14 -62 -26 -130.5t-23 -136.5l-273 44q10 69 22 138t28 133q17 74 38.5 139t48.5 118q107 260 297 260
q91 0 190 -63q35 -22 72.5 -52.5t77.5 -68.5q111 -102 210.5 -155.5t216.5 -53.5h1z" />
    <glyph glyph-name="uniFBA8" unicode="&#x6c1;" horiz-adv-x="603" arabic-form="initial" 
d="M106 -486l16 -4q36 24 74 24q45 0 81 -39t36 -101q0 -74 -43 -118t-114 -44q-86 0 -135 59.5t-49 163.5q0 107 51.5 207.5t148.5 177.5l88 -94q-70 -54 -106.5 -109t-47.5 -123zM473 850q30 -119 47 -222.5t17 -181.5q0 -446 -498 -446h-39q-41 0 -41 146q0 145 41 145
h39q118 0 172.5 46t54.5 142q0 46 -14.5 123.5t-38.5 175.5z" />
    <glyph glyph-name="uniFBA9" unicode="&#x6c1;" horiz-adv-x="1075" arabic-form="medial" 
d="M0 291q147 0 226.5 97.5t145.5 299.5l243 -74q-85 -244 -85 -433q0 -103 28.5 -206t86.5 -196q53 261 162 387q47 60 110 92.5t139 32.5h19v-291h-19q-91 0 -141 -66q-46 -48 -77.5 -146t-53.5 -264l-166 -84q-143 107 -216 287t-82 435l-9 4q-59 -81 -134.5 -123.5
t-176.5 -42.5q-22 0 -31.5 34t-9.5 111t9.5 111.5t31.5 34.5z" />
    <glyph glyph-name="uniFBAA" unicode="&#x6be;" horiz-adv-x="1522" arabic-form="isolated" 
d="M146 -115l-73 282q186 33 326 86q-76 68 -122 147t-46 161q0 88 45.5 164t131.5 109l3 10l-160 70l114 252l579 -248q184 -78 294.5 -156t160.5 -170t50 -212q0 -178 -112 -284.5t-300 -106.5q-103 0 -204.5 24.5t-193.5 67.5q-104 -70 -230 -121t-263 -75zM645 370
q64 44 98.5 94.5t34.5 103.5q0 75 -41 120.5t-109 45.5t-115 -48t-47 -117q0 -55 49 -107.5t130 -91.5zM860 307q47 -12 96.5 -19t101.5 -7q164 0 164 113q0 67 -60 119.5t-200 108.5q41 -172 -102 -315z" />
    <glyph glyph-name="uniFBAB" unicode="&#x6be;" horiz-adv-x="1181" arabic-form="final" 
d="M664 956l-10 167l277 17l36 -609q9 -135 55 -187.5t158 -52.5h1v-291h-1q-143 0 -239 48.5t-155 147.5q-51 -23 -112.5 -36t-117.5 -13q-184 0 -301.5 83.5t-117.5 233.5q0 188 137 315.5t390 176.5zM683 690q-138 -11 -221 -57t-83 -116q0 -54 54.5 -80t139.5 -26
q76 0 133 15q-4 28 -6.5 46.5t-3.5 39.5z" />
    <glyph glyph-name="uniFBAC" unicode="&#x6be;" horiz-adv-x="1414" arabic-form="initial" 
d="M0 291h77q93 0 165 18q-119 128 -119 252q0 88 45.5 164t131.5 109l3 10l-160 70l114 252l579 -248q184 -78 294.5 -156t160.5 -170t50 -212q0 -178 -112 -284.5t-300 -106.5q-220 0 -428 133q-180 -122 -407 -122h-94q-22 0 -31.5 34t-9.5 112q0 77 9.5 111t31.5 34z
M512 359q158 80 158 209q0 76 -41 121t-109 45q-67 0 -114.5 -52.5t-47.5 -126.5q0 -48 40.5 -100t113.5 -96zM759 319q50 -18 98.5 -28t92.5 -10q164 0 164 113q0 68 -60 120t-200 108q45 -185 -95 -303z" />
    <glyph glyph-name="uniFBAD" unicode="&#x6be;" horiz-adv-x="1075" arabic-form="medial" 
d="M570 954q106 0 176.5 -44t106 -117t35.5 -161q0 -90 -42.5 -178t-137.5 -153v-10h367v-291h-328v-10q92 -59 131.5 -126.5t39.5 -136.5q0 -142 -85.5 -223t-236.5 -81q-194 0 -307.5 146.5t-140.5 430.5h-148q-22 0 -31.5 34t-9.5 110q0 77 9.5 112t31.5 35h142
q14 323 123 493t305 170zM346 291h89q77 0 131 38t83 96.5t29 118.5q0 61 -33.5 93.5t-80.5 32.5q-94 0 -155.5 -98.5t-62.5 -280.5zM583 -295q110 0 110 96q0 74 -67 136.5t-191 62.5h-88q5 -145 68.5 -220t167.5 -75z" />
    <glyph glyph-name="uniFBAE" unicode="&#x6d2;" horiz-adv-x="1493" arabic-form="isolated" 
d="M486 0q-114 0 -209 33t-152 107t-57 197q0 168 100.5 293.5t277.5 195.5t407 70h261v-291h-262q-246 0 -375.5 -67t-129.5 -162q0 -43 37 -64t99 -21h944v-291h-941z" />
    <glyph glyph-name="uniFBAF" unicode="&#x6d2;" horiz-adv-x="1325" arabic-form="final" 
d="M486 -605q-114 0 -209 33t-152 107t-57 197q0 168 100.5 293.5t277.5 195.5t407 70h472v-291h-473q-246 0 -375.5 -67t-129.5 -162q0 -43 37 -64t99 -21h687v-291h-684z" />
    <glyph glyph-name="uniFBB0" unicode="&#x6d3;" horiz-adv-x="1493" arabic-form="isolated" 
d="M972 1580l-34 -117q-16 5 -32 8.5t-33 3.5q-49 0 -81 -26t-32 -67q0 -36 27 -58.5t69 -22.5q32 0 65 10l107 35l38 -126l-462 -149l-38 128l154 45v10q-76 37 -76 139q0 89 62.5 147.5t159.5 58.5q44 0 106 -19zM486 0q-114 0 -209 33t-152 107t-57 197
q0 168 100.5 293.5t277.5 195.5t407 70h261v-291h-262q-246 0 -375.5 -67t-129.5 -162q0 -43 37 -64t99 -21h944v-291h-941z" />
    <glyph glyph-name="uniFBB1" unicode="&#x6d3;" horiz-adv-x="1325" arabic-form="final" 
d="M985 969l-34 -117q-16 5 -32 8.5t-33 3.5q-49 0 -81 -26t-32 -67q0 -36 27 -58.5t69 -22.5q32 0 65 10l107 35l38 -126l-462 -149l-38 128l154 45v10q-76 37 -76 139q0 89 62.5 147.5t159.5 58.5q44 0 106 -19zM486 -605q-114 0 -209 33t-152 107t-57 197
q0 168 100.5 293.5t277.5 195.5t407 70h472v-291h-473q-246 0 -375.5 -67t-129.5 -162q0 -43 37 -64t99 -21h687v-291h-684z" />
    <glyph glyph-name="uniFBD3" unicode="&#x6ad;" horiz-adv-x="1705" arabic-form="isolated" 
d="M611 1739l173 173l173 -173l-173 -173zM786 1411l172 173l174 -173l-174 -173zM437 1411l172 173l174 -173l-174 -173zM688 519q-27 0 -58.5 3.5t-66.5 9.5l31 134q58 -11 114 -11q65 0 114 15t49 48q0 20 -24 29t-77 18q-74 14 -115.5 44.5t-41.5 94.5q0 113 73 182.5
t182 69.5q59 0 116 -16l-43 -129q-19 5 -40 8.5t-42 3.5q-52 0 -89 -23t-37 -63q0 -27 27.5 -38t92.5 -24q65 -11 102.5 -40.5t37.5 -95.5q0 -104 -85.5 -162t-219.5 -58zM802 291q187 0 296 23t156 87t47 187v809h277v-809q0 -319 -200 -453.5t-596 -134.5q-370 0 -542 113
t-172 373q0 68 11.5 150.5t29.5 157.5l250 -55q-11 -58 -20.5 -128t-9.5 -110q0 -81 42 -126.5t145 -64.5t286 -19z" />
    <glyph glyph-name="uniFBD4" unicode="&#x6ad;" horiz-adv-x="1845" arabic-form="final" 
d="M611 1739l173 173l173 -173l-173 -173zM786 1411l172 173l174 -173l-174 -173zM437 1411l172 173l174 -173l-174 -173zM688 519q-27 0 -58.5 3.5t-66.5 9.5l31 134q58 -11 114 -11q65 0 114 15t49 48q0 20 -24 29t-77 18q-74 14 -115.5 44.5t-41.5 94.5q0 113 73 182.5
t182 69.5q59 0 116 -16l-43 -129q-19 5 -40 8.5t-42 3.5q-52 0 -89 -23t-37 -63q0 -27 27.5 -38t92.5 -24q65 -11 102.5 -40.5t37.5 -95.5q0 -104 -85.5 -162t-219.5 -58zM1578 590q0 -117 23.5 -182t81.5 -91t161 -26h1v-291h-1q-158 0 -260.5 58t-135.5 181h-10
q-53 -132 -206 -185.5t-418 -53.5q-266 0 -430.5 48.5t-240 155.5t-75.5 280q0 62 11 144.5t30 165.5l250 -55q-13 -67 -21.5 -135t-8.5 -104q0 -80 43.5 -126t147.5 -64.5t286 -18.5q195 0 302.5 25.5t150 90.5t42.5 181v809h277v-807z" />
    <glyph glyph-name="uniFBD5" unicode="&#x6ad;" horiz-adv-x="888" arabic-form="initial" 
d="M221 1878l140 140l141 -140l-141 -141zM445 1671l140 140l141 -140l-141 -141zM127 1568l140 140l141 -140l-141 -141zM908 1454l40 -289q-207 -47 -348.5 -87t-255.5 -82v-6q156 -123 250.5 -217t136.5 -175.5t42 -165.5q0 -206 -164 -319t-466 -113h-143
q-22 0 -31.5 33.5t-9.5 112.5t9.5 112t31.5 33h136q183 0 271 39t88 118q0 47 -46.5 106.5t-153 147t-286.5 217.5l21 243q400 193 878 292z" />
    <glyph glyph-name="uniFBD6" unicode="&#x6ad;" horiz-adv-x="1136" arabic-form="medial" 
d="M221 1878l140 140l141 -140l-141 -141zM445 1671l140 140l141 -140l-141 -141zM127 1568l140 140l141 -140l-141 -141zM673 306q-54 -166 -176.5 -236t-353.5 -70h-143q-22 0 -31.5 33.5t-9.5 111.5q0 79 9.5 112.5t31.5 33.5h136q180 0 266 39t86 115q0 45 -47 107.5
t-152 152t-280 214.5l21 243q402 193 878 292l40 -289q-203 -46 -345.5 -86t-258.5 -83v-6q107 -83 176.5 -145.5t122 -125t105.5 -147.5q64 -107 118.5 -168.5t117.5 -87t151 -25.5h1v-291h-1q-164 0 -270 71.5t-182 234.5h-10z" />
    <glyph glyph-name="uniFBD7" unicode="&#x6c7;" horiz-adv-x="963" arabic-form="isolated" 
d="M560 1596q71 0 113 -48.5t42 -131.5q0 -84 -57.5 -160.5t-159 -136t-232.5 -94.5l-34 127q44 11 104.5 35t115.5 54q-46 21 -75.5 61.5t-29.5 95.5q0 51 29.5 96.5t78.5 73.5t105 28zM542 1471q-28 0 -57.5 -24t-29.5 -50q0 -28 28 -48.5t72 -35.5q35 40 35 96
q0 26 -12.5 44t-35.5 18zM626 6l-8 13q-37 -10 -83 -17t-91 -7q-170 0 -263 90t-93 263q0 134 41.5 254t126 195t212.5 75q115 0 196.5 -60.5t133 -163.5t75.5 -232.5t24 -266.5q0 -253 -179.5 -422t-528.5 -276l-124 262q210 50 362.5 127.5t198.5 165.5zM632 295
q-2 68 -19 133t-53.5 107.5t-98.5 42.5q-72 0 -109.5 -59t-37.5 -129q0 -61 38 -87t103 -26q48 0 92.5 5.5t84.5 12.5z" />
    <glyph glyph-name="uniFBD8" unicode="&#x6c7;" horiz-adv-x="947" arabic-form="final" 
d="M560 1596q71 0 113 -48.5t42 -131.5q0 -84 -57.5 -160.5t-159 -136t-232.5 -94.5l-34 127q44 11 104.5 35t115.5 54q-46 21 -75.5 61.5t-29.5 95.5q0 51 29.5 96.5t78.5 73.5t105 28zM542 1471q-28 0 -57.5 -24t-29.5 -50q0 -28 28 -48.5t72 -35.5q35 40 35 96
q0 26 -12.5 44t-35.5 18zM626 -5l-7 14q-45 -5 -91 -7t-88 -2q-167 0 -259.5 89t-92.5 263q0 134 41.5 252.5t126 193t212.5 74.5q135 0 223 -81.5t135.5 -214t62.5 -285.5h58v-291h-69q-40 -190 -215 -324.5t-474 -224.5l-124 262q137 33 252.5 77t196 96.5t112.5 108.5z
M634 286q-2 68 -19 135.5t-54 112t-100 44.5q-72 0 -109.5 -56.5t-37.5 -126.5q0 -62 38 -88t103 -26q44 0 88.5 0.5t90.5 4.5z" />
    <glyph glyph-name="uniFBD9" unicode="&#x6c6;" horiz-adv-x="963" arabic-form="isolated" 
d="M525 1076h-122l-210 278l111 85l160 -221l160 221l111 -85zM626 6l-8 13q-37 -10 -83 -17t-91 -7q-170 0 -263 90t-93 263q0 134 41.5 254t126 195t212.5 75q115 0 196.5 -60.5t133 -163.5t75.5 -232.5t24 -266.5q0 -253 -179.5 -422t-528.5 -276l-124 262
q210 50 362.5 127.5t198.5 165.5zM632 295q-2 68 -19 133t-53.5 107.5t-98.5 42.5q-72 0 -109.5 -59t-37.5 -129q0 -61 38 -87t103 -26q48 0 92.5 5.5t84.5 12.5z" />
    <glyph glyph-name="uniFBDA" unicode="&#x6c6;" horiz-adv-x="947" arabic-form="final" 
d="M525 1076h-122l-210 278l111 85l160 -221l160 221l111 -85zM626 -5l-7 14q-45 -5 -91 -7t-88 -2q-167 0 -259.5 89t-92.5 263q0 134 41.5 252.5t126 193t212.5 74.5q135 0 223 -81.5t135.5 -214t62.5 -285.5h58v-291h-69q-40 -190 -215 -324.5t-474 -224.5l-124 262
q137 33 252.5 77t196 96.5t112.5 108.5zM634 286q-2 68 -19 135.5t-54 112t-100 44.5q-72 0 -109.5 -56.5t-37.5 -126.5q0 -62 38 -88t103 -26q44 0 88.5 0.5t90.5 4.5z" />
    <glyph glyph-name="uniFBDB" unicode="&#x6c8;" horiz-adv-x="963" arabic-form="isolated" 
d="M407 1470h134v-408h-134v408zM626 6l-8 13q-37 -10 -83 -17t-91 -7q-170 0 -263 90t-93 263q0 134 41.5 254t126 195t212.5 75q115 0 196.5 -60.5t133 -163.5t75.5 -232.5t24 -266.5q0 -253 -179.5 -422t-528.5 -276l-124 262q210 50 362.5 127.5t198.5 165.5zM632 295
q-2 68 -19 133t-53.5 107.5t-98.5 42.5q-72 0 -109.5 -59t-37.5 -129q0 -61 38 -87t103 -26q48 0 92.5 5.5t84.5 12.5z" />
    <glyph glyph-name="uniFBDC" unicode="&#x6c8;" horiz-adv-x="947" arabic-form="final" 
d="M407 1470h134v-408h-134v408zM626 -5l-7 14q-45 -5 -91 -7t-88 -2q-167 0 -259.5 89t-92.5 263q0 134 41.5 252.5t126 193t212.5 74.5q135 0 223 -81.5t135.5 -214t62.5 -285.5h58v-291h-69q-40 -190 -215 -324.5t-474 -224.5l-124 262q137 33 252.5 77t196 96.5
t112.5 108.5zM634 286q-2 68 -19 135.5t-54 112t-100 44.5q-72 0 -109.5 -56.5t-37.5 -126.5q0 -62 38 -88t103 -26q44 0 88.5 0.5t90.5 4.5z" />
    <glyph glyph-name="uniFBDD" unicode="&#x677;" horiz-adv-x="963" arabic-form="isolated" 
d="M332 1591q71 0 113 -48.5t42 -131.5q0 -84 -57.5 -160.5t-159 -136t-232.5 -94.5l-34 127q44 11 104.5 35t115.5 54q-46 21 -75.5 61.5t-29.5 95.5q0 51 29.5 96.5t78.5 73.5t105 28zM314 1466q-28 0 -57.5 -24t-29.5 -50q0 -28 28 -48.5t72 -35.5q35 40 35 96
q0 26 -12.5 44t-35.5 18zM887 1545l-34 -117q-16 5 -32 8.5t-33 3.5q-49 0 -81 -26t-32 -67q0 -36 27 -58.5t69 -22.5q32 0 65 10l107 35l38 -126l-462 -149l-38 128l154 45v10q-76 37 -76 139q0 89 62.5 147.5t159.5 58.5q44 0 106 -19zM626 6l-8 13q-37 -10 -83 -17
t-91 -7q-170 0 -263 90t-93 263q0 134 41.5 254t126 195t212.5 75q115 0 196.5 -60.5t133 -163.5t75.5 -232.5t24 -266.5q0 -253 -179.5 -422t-528.5 -276l-124 262q210 50 362.5 127.5t198.5 165.5zM632 295q-2 68 -19 133t-53.5 107.5t-98.5 42.5q-72 0 -109.5 -59
t-37.5 -129q0 -61 38 -87t103 -26q48 0 92.5 5.5t84.5 12.5z" />
    <glyph glyph-name="uniFBDE" unicode="&#x6cb;" horiz-adv-x="963" arabic-form="isolated" 
d="M305 1575l173 173l173 -173l-173 -173zM480 1247l172 173l174 -173l-174 -173zM131 1247l172 173l174 -173l-174 -173zM626 6l-8 13q-37 -10 -83 -17t-91 -7q-170 0 -263 90t-93 263q0 134 41.5 254t126 195t212.5 75q115 0 196.5 -60.5t133 -163.5t75.5 -232.5
t24 -266.5q0 -253 -179.5 -422t-528.5 -276l-124 262q210 50 362.5 127.5t198.5 165.5zM632 295q-2 68 -19 133t-53.5 107.5t-98.5 42.5q-72 0 -109.5 -59t-37.5 -129q0 -61 38 -87t103 -26q48 0 92.5 5.5t84.5 12.5z" />
    <glyph glyph-name="uniFBDF" unicode="&#x6cb;" horiz-adv-x="947" arabic-form="final" 
d="M305 1575l173 173l173 -173l-173 -173zM480 1247l172 173l174 -173l-174 -173zM131 1247l172 173l174 -173l-174 -173zM626 -5l-7 14q-45 -5 -91 -7t-88 -2q-167 0 -259.5 89t-92.5 263q0 134 41.5 252.5t126 193t212.5 74.5q135 0 223 -81.5t135.5 -214t62.5 -285.5h58
v-291h-69q-40 -190 -215 -324.5t-474 -224.5l-124 262q137 33 252.5 77t196 96.5t112.5 108.5zM634 286q-2 68 -19 135.5t-54 112t-100 44.5q-72 0 -109.5 -56.5t-37.5 -126.5q0 -62 38 -88t103 -26q44 0 88.5 0.5t90.5 4.5z" />
    <glyph glyph-name="uniFBE0" unicode="&#x6c5;" horiz-adv-x="963" arabic-form="isolated" 
d="M754 -76v-118h-647v118h647zM626 6l-8 13q-37 -10 -83 -17t-91 -7q-170 0 -263 90t-93 263q0 134 41.5 254t126 195t212.5 75q115 0 196.5 -60.5t133 -163.5t75.5 -232.5t24 -266.5q0 -253 -179.5 -422t-528.5 -276l-124 262q210 50 362.5 127.5t198.5 165.5zM632 295
q-2 68 -19 133t-53.5 107.5t-98.5 42.5q-72 0 -109.5 -59t-37.5 -129q0 -61 38 -87t103 -26q48 0 92.5 5.5t84.5 12.5z" />
    <glyph glyph-name="uniFBE1" unicode="&#x6c5;" horiz-adv-x="947" arabic-form="final" 
d="M754 -76v-118h-647v118h647zM626 -5l-7 14q-45 -5 -91 -7t-88 -2q-167 0 -259.5 89t-92.5 263q0 134 41.5 252.5t126 193t212.5 74.5q135 0 223 -81.5t135.5 -214t62.5 -285.5h58v-291h-69q-40 -190 -215 -324.5t-474 -224.5l-124 262q137 33 252.5 77t196 96.5
t112.5 108.5zM634 286q-2 68 -19 135.5t-54 112t-100 44.5q-72 0 -109.5 -56.5t-37.5 -126.5q0 -62 38 -88t103 -26q44 0 88.5 0.5t90.5 4.5z" />
    <glyph glyph-name="uniFBE2" unicode="&#x6c9;" horiz-adv-x="963" arabic-form="isolated" 
d="M419 1429h122l210 -279l-111 -85l-160 222l-160 -222l-111 85zM626 6l-8 13q-37 -10 -83 -17t-91 -7q-170 0 -263 90t-93 263q0 134 41.5 254t126 195t212.5 75q115 0 196.5 -60.5t133 -163.5t75.5 -232.5t24 -266.5q0 -253 -179.5 -422t-528.5 -276l-124 262
q210 50 362.5 127.5t198.5 165.5zM632 295q-2 68 -19 133t-53.5 107.5t-98.5 42.5q-72 0 -109.5 -59t-37.5 -129q0 -61 38 -87t103 -26q48 0 92.5 5.5t84.5 12.5z" />
    <glyph glyph-name="uniFBE3" unicode="&#x6c9;" horiz-adv-x="947" arabic-form="final" 
d="M419 1429h122l210 -279l-111 -85l-160 222l-160 -222l-111 85zM626 -5l-7 14q-45 -5 -91 -7t-88 -2q-167 0 -259.5 89t-92.5 263q0 134 41.5 252.5t126 193t212.5 74.5q135 0 223 -81.5t135.5 -214t62.5 -285.5h58v-291h-69q-40 -190 -215 -324.5t-474 -224.5l-124 262
q137 33 252.5 77t196 96.5t112.5 108.5zM634 286q-2 68 -19 135.5t-54 112t-100 44.5q-72 0 -109.5 -56.5t-37.5 -126.5q0 -62 38 -88t103 -26q44 0 88.5 0.5t90.5 4.5z" />
    <glyph glyph-name="uniFBE4" unicode="&#x6d0;" horiz-adv-x="1575" arabic-form="isolated" 
d="M633 -780l172 173l174 -173l-174 -173zM633 -1130l172 173l174 -173l-174 -173zM1457 925l-89 -249q-109 44 -208 44q-118 0 -198.5 -68.5t-80.5 -173.5q0 -73 68.5 -95.5t237.5 -36.5q146 -13 228 -73t82 -200q0 -157 -94.5 -274.5t-263.5 -182.5t-392 -65
q-322 0 -495 146t-173 414q0 77 13 204.5t34 257.5l266 -48q-24 -140 -35 -230.5t-11 -158.5q0 -150 97.5 -222.5t311.5 -72.5q133 0 243.5 24t177 63.5t66.5 87.5q0 47 -54.5 60.5t-133.5 18.5q-203 16 -312.5 90.5t-109.5 255.5q0 155 73 279.5t196 198t273 73.5
q135 0 283 -67z" />
    <glyph glyph-name="uniFBE5" unicode="&#x6d0;" horiz-adv-x="1537" arabic-form="final" 
d="M605 -866l157 159l160 -159l-160 -159zM605 -1195l157 159l160 -159l-160 -158zM1310 -10q70 -52 99 -99t29 -111q0 -80 -52.5 -150.5t-146 -124t-216 -83.5t-263.5 -30q-349 0 -519.5 146.5t-170.5 448.5q0 116 13.5 256.5t37.5 288.5l255 -50q-23 -137 -35 -258
t-12 -214q0 -172 102 -248.5t332 -76.5q171 0 279.5 43t108.5 111q0 31 -36 54.5t-126.5 45.5t-254.5 50l42 302h761v-291h-227v-10z" />
    <glyph glyph-name="uniFBE6" unicode="&#x6d0;" horiz-adv-x="603" arabic-form="initial" 
d="M-32 -342l172 173l174 -173l-174 -173zM-32 -692l172 173l174 -173l-174 -173zM473 850q30 -119 47 -222.5t17 -181.5q0 -446 -498 -446h-39q-41 0 -41 146q0 145 41 145h39q118 0 172.5 46t54.5 142q0 46 -14.5 123.5t-38.5 175.5z" />
    <glyph glyph-name="uniFBE7" unicode="&#x6d0;" horiz-adv-x="827" arabic-form="medial" 
d="M-32 -342l172 173l174 -173l-174 -173zM-32 -692l172 173l174 -173l-174 -173zM554 535q0 -92 16 -145.5t65 -76t147 -22.5h45v-291h-48q-127 0 -224 60.5t-136 166.5h-10q-38 -106 -141.5 -166.5t-228.5 -60.5h-39q-22 0 -31.5 35t-9.5 111q0 77 9.5 111t31.5 34h39
q102 0 153 23t68 76.5t17 144.5v167h277v-167z" />
    <glyph glyph-name="uniFBE8" unicode="&#x649;" horiz-adv-x="603" arabic-form="initial" 
d="M473 850q30 -119 47 -222.5t17 -181.5q0 -446 -498 -446h-39q-41 0 -41 146q0 145 41 145h39q118 0 172.5 46t54.5 142q0 46 -14.5 123.5t-38.5 175.5z" />
    <glyph glyph-name="uniFBE9" unicode="&#x649;" horiz-adv-x="827" arabic-form="medial" 
d="M554 535q0 -92 16 -145.5t65 -76t147 -22.5h45v-291h-48q-127 0 -224 60.5t-136 166.5h-10q-38 -106 -141.5 -166.5t-228.5 -60.5h-39q-22 0 -31.5 35t-9.5 111q0 77 9.5 111t31.5 34h39q102 0 153 23t68 76.5t17 144.5v167h277v-167z" />
    <glyph glyph-name="uniFBFC" unicode="&#x6cc;" horiz-adv-x="1575" arabic-form="isolated" 
d="M1457 925l-89 -249q-109 44 -208 44q-118 0 -198.5 -68.5t-80.5 -173.5q0 -73 68.5 -95.5t237.5 -36.5q146 -13 228 -73t82 -200q0 -157 -94.5 -274.5t-263.5 -182.5t-392 -65q-322 0 -495 146t-173 414q0 77 13 204.5t34 257.5l266 -48q-24 -140 -35 -230.5t-11 -158.5
q0 -150 97.5 -222.5t311.5 -72.5q133 0 243.5 24t177 63.5t66.5 87.5q0 47 -54.5 60.5t-133.5 18.5q-203 16 -312.5 90.5t-109.5 255.5q0 155 73 279.5t196 198t273 73.5q135 0 283 -67z" />
    <glyph glyph-name="uniFBFD" unicode="&#x6cc;" horiz-adv-x="1537" arabic-form="final" 
d="M1310 -10q70 -52 99 -99t29 -111q0 -80 -52.5 -150.5t-146 -124t-216 -83.5t-263.5 -30q-349 0 -519.5 146.5t-170.5 448.5q0 116 13.5 256.5t37.5 288.5l255 -50q-23 -137 -35 -258t-12 -214q0 -172 102 -248.5t332 -76.5q171 0 279.5 43t108.5 111q0 31 -36 54.5
t-126.5 45.5t-254.5 50l42 302h761v-291h-227v-10z" />
    <glyph glyph-name="uniFBFE" unicode="&#x6cc;" horiz-adv-x="603" arabic-form="initial" 
d="M473 850q30 -119 47 -222.5t17 -181.5q0 -446 -498 -446h-39q-41 0 -41 146q0 145 41 145h39q118 0 172.5 46t54.5 142q0 46 -14.5 123.5t-38.5 175.5zM-227 -343l172 173l174 -173l-174 -173zM122 -343l172 173l174 -173l-174 -173z" />
    <glyph glyph-name="uniFBFF" unicode="&#x6cc;" horiz-adv-x="827" arabic-form="medial" 
d="M554 535q0 -92 16 -145.5t65 -76t147 -22.5h45v-291h-48q-127 0 -224 60.5t-136 166.5h-10q-38 -106 -141.5 -166.5t-228.5 -60.5h-39q-22 0 -31.5 35t-9.5 111q0 77 9.5 111t31.5 34h39q102 0 153 23t68 76.5t17 144.5v167h277v-167zM-258 -343l172 173l174 -173
l-174 -173zM91 -343l172 173l174 -173l-174 -173z" />
    <glyph glyph-name="uniFCF2" unicode="&#xfcf2;" horiz-adv-x="874" arabic-form="medial" 
d="M0 291h874v-291h-874q-20 0 -30.5 29.5t-10.5 116.5q0 88 10.5 116.5t30.5 28.5zM662 1299l41 -133l-463 -149l-41 135zM438 704q-11 -40 -41.5 -64t-72.5 -24q-67 0 -106 41.5t-39 111.5q0 50 8.5 89.5t24.5 88.5l104 -34q-9 -25 -17.5 -56.5t-8.5 -54.5q0 -53 47 -53
q28 0 42.5 23t14.5 77v35h98v-35q0 -54 14.5 -77t42.5 -23q45 0 45 53q0 23 -7.5 54.5t-16.5 56.5l104 34q16 -49 24.5 -88.5t8.5 -89.5q0 -70 -39 -111.5t-106 -41.5q-43 0 -73 24t-41 64h-10z" />
    <glyph glyph-name="uniFCF3" unicode="&#xfcf3;" horiz-adv-x="874" arabic-form="medial" 
d="M0 291h874v-291h-874q-20 0 -30.5 29.5t-10.5 116.5q0 88 10.5 116.5t30.5 28.5zM535 1569q71 0 113 -48.5t42 -131.5q0 -84 -57.5 -160.5t-159 -136t-232.5 -94.5l-34 127q44 11 104.5 35t115.5 54q-46 21 -75.5 61.5t-29.5 95.5q0 51 29.5 96.5t78.5 73.5t105 28z
M517 1444q-28 0 -57.5 -24t-29.5 -50q0 -28 28 -48.5t72 -35.5q35 40 35 96q0 26 -12.5 44t-35.5 18zM438 704q-11 -40 -41.5 -64t-72.5 -24q-67 0 -106 41.5t-39 111.5q0 50 8.5 89.5t24.5 88.5l104 -34q-9 -25 -17.5 -56.5t-8.5 -54.5q0 -53 47 -53q28 0 42.5 23t14.5 77
v35h98v-35q0 -54 14.5 -77t42.5 -23q45 0 45 53q0 23 -7.5 54.5t-16.5 56.5l104 34q16 -49 24.5 -88.5t8.5 -89.5q0 -70 -39 -111.5t-106 -41.5q-43 0 -73 24t-41 64h-10z" />
    <glyph glyph-name="uniFCF4" unicode="&#xfcf4;" horiz-adv-x="874" arabic-form="medial" 
d="M0 291h874v-291h-874q-20 0 -30.5 29.5t-10.5 116.5q0 88 10.5 116.5t30.5 28.5zM662 885l41 -133l-463 -149l-41 135zM438 1035q-11 -40 -41.5 -64t-72.5 -24q-67 0 -106 41.5t-39 111.5q0 50 8.5 89.5t24.5 88.5l104 -34q-9 -25 -17.5 -56.5t-8.5 -54.5q0 -53 47 -53
q28 0 42.5 23t14.5 77v35h98v-35q0 -54 14.5 -77t42.5 -23q45 0 45 53q0 23 -7.5 54.5t-16.5 56.5l104 34q16 -49 24.5 -88.5t8.5 -89.5q0 -70 -39 -111.5t-106 -41.5q-43 0 -73 24t-41 64h-10z" />
    <glyph glyph-name="uniFD3C" unicode="&#xfd3c;" horiz-adv-x="642" arabic-form="final" 
d="M127 1245h278v-753q0 -110 53 -155.5t183 -45.5h1v-291h-1q-244 0 -379 122.5t-135 363.5v759zM486 1948l41 -133l-463 -149l-41 135zM486 1675l41 -133l-463 -149l-41 135z" />
    <glyph glyph-name="uniFD3D" unicode="&#xfd3d;" horiz-adv-x="557" arabic-form="isolated" 
d="M417 1245v-1245h-276v1245h276zM491 1948l41 -133l-463 -149l-41 135zM491 1675l41 -133l-463 -149l-41 135z" />
    <glyph glyph-name="uniFDFC" unicode="&#xfdfc;" horiz-adv-x="3468" arabic-form="isolated" 
d="M2494 850q30 -119 47 -222.5t17 -181.5q0 -446 -498 -446h-39q-41 0 -41 146q0 145 41 145h39q118 0 172.5 46t54.5 142q0 46 -14.5 123.5t-38.5 175.5zM1793 -343l172 173l174 -173l-174 -173zM2142 -343l172 173l174 -173l-174 -173zM3000 662l260 90
q56 -169 90 -321.5t34 -277.5q0 -245 -155.5 -414t-490.5 -289l-126 261q257 87 378.5 186.5t121.5 253.5q0 92 -32 231.5t-80 279.5zM1521 1403h278v-911q0 -110 53 -155.5t183 -45.5h1v-291h-1q-244 0 -379 122.5t-135 363.5v917zM671 -213q185 0 272.5 89t87.5 276v1251
h279v-1273q0 -198 -80.5 -340.5t-229 -218.5t-353.5 -76q-279 0 -429 148t-150 424q0 77 15 173t52 244l250 -65q-54 -206 -54 -332q0 -154 83 -227t257 -73z" />
    <glyph glyph-name="uniFE80" unicode="&#x621;" horiz-adv-x="880" arabic-form="isolated" 
d="M128 470q0 116 48.5 195t125 119.5t158.5 40.5q78 0 146.5 -30.5t127.5 -80.5l-83 -122q-40 27 -84.5 43t-94.5 16q-76 0 -131 -50t-55 -128q0 -67 54 -110t148 -43q112 0 268 50l58 -159l-696 -219l-50 163l240 65v10q-75 23 -127.5 87.5t-52.5 152.5z" />
    <glyph glyph-name="uniFE81" unicode="&#x622;" horiz-adv-x="557" arabic-form="isolated" 
d="M504 1717l111 -59q-75 -209 -207 -209q-54 0 -134 47q-40 24 -63 32.5t-42 8.5q-34 0 -59 -23.5t-60 -87.5l-108 70q89 204 211 204q51 0 128 -45q47 -28 73 -39t45 -11q32 0 54 23t51 89zM417 1245v-1245h-276v1245h276z" />
    <glyph glyph-name="uniFE82" unicode="&#x622;" horiz-adv-x="642" arabic-form="final" 
d="M127 1245h278v-753q0 -110 53 -155.5t183 -45.5h1v-291h-1q-244 0 -379 122.5t-135 363.5v759zM-34 1500q79 160 196 160q26 0 52.5 -7t56.5 -24q67 -38 96 -38q26 0 45.5 21t44.5 67l113 -60q-66 -167 -190 -167q-50 0 -111 32q-29 16 -51 24.5t-40 8.5
q-28 0 -50.5 -20.5t-50.5 -63.5z" />
    <glyph glyph-name="uniFE83" unicode="&#x623;" horiz-adv-x="557" arabic-form="isolated" 
d="M417 1245v-1245h-276v1245h276zM435 1902l-34 -117q-16 5 -32 8.5t-33 3.5q-49 0 -81 -26t-32 -67q0 -36 27 -58.5t69 -22.5q32 0 65 10l107 35l38 -126l-462 -149l-38 128l154 45v10q-76 37 -76 139q0 89 62.5 147.5t159.5 58.5q44 0 106 -19z" />
    <glyph glyph-name="uniFE84" unicode="&#x623;" horiz-adv-x="642" arabic-form="final" 
d="M127 1245h278v-753q0 -110 53 -155.5t183 -45.5h1v-291h-1q-244 0 -379 122.5t-135 363.5v759zM442 1905l-34 -117q-16 5 -32 8.5t-33 3.5q-49 0 -81 -26t-32 -67q0 -36 27 -58.5t69 -22.5q32 0 65 10l107 35l38 -126l-462 -149l-38 128l154 45v10q-76 37 -76 139
q0 89 62.5 147.5t159.5 58.5q44 0 106 -19z" />
    <glyph glyph-name="uniFE85" unicode="&#x624;" horiz-adv-x="963" arabic-form="isolated" 
d="M641 1534l-34 -117q-16 5 -32 8.5t-33 3.5q-49 0 -81 -26t-32 -67q0 -36 27 -58.5t69 -22.5q32 0 65 10l107 35l38 -126l-462 -149l-38 128l154 45v10q-76 37 -76 139q0 89 62.5 147.5t159.5 58.5q44 0 106 -19zM626 6l-8 13q-37 -10 -83 -17t-91 -7q-170 0 -263 90
t-93 263q0 134 41.5 254t126 195t212.5 75q115 0 196.5 -60.5t133 -163.5t75.5 -232.5t24 -266.5q0 -253 -179.5 -422t-528.5 -276l-124 262q210 50 362.5 127.5t198.5 165.5zM632 295q-2 68 -19 133t-53.5 107.5t-98.5 42.5q-72 0 -109.5 -59t-37.5 -129q0 -61 38 -87
t103 -26q48 0 92.5 5.5t84.5 12.5z" />
    <glyph glyph-name="uniFE86" unicode="&#x624;" horiz-adv-x="947" arabic-form="final" 
d="M627 1536l-34 -117q-16 5 -32 8.5t-33 3.5q-49 0 -81 -26t-32 -67q0 -36 27 -58.5t69 -22.5q32 0 65 10l107 35l38 -126l-462 -149l-38 128l154 45v10q-76 37 -76 139q0 89 62.5 147.5t159.5 58.5q44 0 106 -19zM626 -5l-7 14q-45 -5 -91 -7t-88 -2q-167 0 -259.5 89
t-92.5 263q0 134 41.5 252.5t126 193t212.5 74.5q135 0 223 -81.5t135.5 -214t62.5 -285.5h58v-291h-69q-40 -190 -215 -324.5t-474 -224.5l-124 262q137 33 252.5 77t196 96.5t112.5 108.5zM634 286q-2 68 -19 135.5t-54 112t-100 44.5q-72 0 -109.5 -56.5t-37.5 -126.5
q0 -62 38 -88t103 -26q44 0 88.5 0.5t90.5 4.5z" />
    <glyph glyph-name="uniFE87" unicode="&#x625;" horiz-adv-x="557" arabic-form="isolated" 
d="M423 -197l-34 -117q-16 5 -32 8.5t-33 3.5q-49 0 -81 -26t-32 -67q0 -36 27 -58.5t69 -22.5q32 0 65 10l107 35l38 -126l-462 -149l-38 128l154 45v10q-76 37 -76 139q0 89 62.5 147.5t159.5 58.5q44 0 106 -19zM417 0h-276v1403h276v-1403z" />
    <glyph glyph-name="uniFE88" unicode="&#x625;" horiz-adv-x="642" arabic-form="final" 
d="M499 -195l-34 -117q-16 5 -32 8.5t-33 3.5q-49 0 -81 -26t-32 -67q0 -36 27 -58.5t69 -22.5q32 0 65 10l107 35l38 -126l-462 -149l-38 128l154 45v10q-76 37 -76 139q0 89 62.5 147.5t159.5 58.5q44 0 106 -19zM127 1403h278v-911q0 -110 53 -155.5t183 -45.5h1v-291h-1
q-244 0 -379 122.5t-135 363.5v917z" />
    <glyph glyph-name="uniFE89" unicode="&#x626;" horiz-adv-x="1575" arabic-form="isolated" 
d="M549 1272l-34 -117q-16 5 -32 8.5t-33 3.5q-49 0 -81 -26t-32 -67q0 -36 27 -58.5t69 -22.5q32 0 65 10l107 35l38 -126l-462 -149l-38 128l154 45v10q-76 37 -76 139q0 89 62.5 147.5t159.5 58.5q44 0 106 -19zM1462 925l-89 -249q-109 44 -208 44q-118 0 -198.5 -68.5
t-80.5 -173.5q0 -73 68.5 -95.5t237.5 -36.5q146 -13 228 -73t82 -200q0 -157 -94.5 -274.5t-263.5 -182.5t-392 -65q-322 0 -495 146t-173 414q0 77 13 204.5t34 257.5l266 -48q-24 -140 -35 -230.5t-11 -158.5q0 -150 97.5 -222.5t311.5 -72.5q133 0 243.5 24t177 63.5
t66.5 87.5q0 47 -54.5 60.5t-133.5 18.5q-203 16 -312.5 90.5t-109.5 255.5q0 155 73 279.5t196 198t273 73.5q135 0 283 -67z" />
    <glyph glyph-name="uniFE8A" unicode="&#x626;" horiz-adv-x="1537" arabic-form="final" 
d="M1037 985l-34 -117q-16 5 -32 8.5t-33 3.5q-49 0 -81 -26t-32 -67q0 -36 27 -58.5t69 -22.5q32 0 65 10l107 35l38 -126l-462 -149l-38 128l154 45v10q-76 37 -76 139q0 89 62.5 147.5t159.5 58.5q44 0 106 -19zM1310 -10q70 -52 99 -99t29 -111q0 -80 -52.5 -150.5
t-146 -124t-216 -83.5t-263.5 -30q-349 0 -519.5 146.5t-170.5 448.5q0 116 13.5 256.5t37.5 288.5l255 -50q-23 -137 -35 -258t-12 -214q0 -172 102 -248.5t332 -76.5q171 0 279.5 43t108.5 111q0 31 -36 54.5t-126.5 45.5t-254.5 50l42 302h761v-291h-227v-10z" />
    <glyph glyph-name="uniFE8B" unicode="&#x626;" horiz-adv-x="603" arabic-form="initial" 
d="M448 1491l-34 -117q-16 5 -32 8.5t-33 3.5q-49 0 -81 -26t-32 -67q0 -36 27 -58.5t69 -22.5q32 0 65 10l107 35l38 -126l-462 -149l-38 128l154 45v10q-76 37 -76 139q0 89 62.5 147.5t159.5 58.5q44 0 106 -19zM473 850q30 -119 47 -222.5t17 -181.5q0 -446 -498 -446
h-39q-41 0 -41 146q0 145 41 145h39q118 0 172.5 46t54.5 142q0 46 -14.5 123.5t-38.5 175.5z" />
    <glyph glyph-name="uniFE8C" unicode="&#x626;" horiz-adv-x="827" arabic-form="medial" 
d="M405 1355l-34 -117q-16 5 -32 8.5t-33 3.5q-49 0 -81 -26t-32 -67q0 -36 27 -58.5t69 -22.5q32 0 65 10l107 35l38 -126l-462 -149l-38 128l154 45v10q-76 37 -76 139q0 89 62.5 147.5t159.5 58.5q44 0 106 -19zM554 535q0 -92 16 -145.5t65 -76t147 -22.5h45v-291h-48
q-127 0 -224 60.5t-136 166.5h-10q-38 -106 -141.5 -166.5t-228.5 -60.5h-39q-22 0 -31.5 35t-9.5 111q0 77 9.5 111t31.5 34h39q102 0 153 23t68 76.5t17 144.5v167h277v-167z" />
    <glyph glyph-name="uniFE8D" unicode="&#x627;" horiz-adv-x="557" arabic-form="isolated" 
d="M417 0h-276v1403h276v-1403z" />
    <glyph glyph-name="uniFE8E" unicode="&#x627;" horiz-adv-x="642" arabic-form="final" 
d="M127 1403h278v-911q0 -110 53 -155.5t183 -45.5h1v-291h-1q-244 0 -379 122.5t-135 363.5v917z" />
    <glyph glyph-name="uniFE8F" unicode="&#x628;" horiz-adv-x="1799" arabic-form="isolated" 
d="M725 -343l172 173l174 -173l-174 -173zM1682 864q23 -89 37 -180t14 -166q0 -193 -84 -306.5t-267.5 -162.5t-481.5 -49q-297 0 -480.5 49t-267.5 161.5t-84 302.5q0 74 14.5 166.5t36.5 184.5l247 -55q-14 -68 -25 -141t-11 -121q0 -107 53 -162t178 -74.5t339 -19.5
q216 0 340.5 20.5t177 76.5t52.5 163q0 50 -10 120.5t-25 137.5z" />
    <glyph glyph-name="uniFE90" unicode="&#x628;" horiz-adv-x="1963" arabic-form="final" 
d="M1776 730q-15 -84 -23.5 -146.5t-8.5 -106.5q0 -85 49 -135.5t169 -50.5h1v-291h-1q-154 0 -265.5 62.5t-160.5 207.5h-10q-106 -155 -292.5 -212.5t-443.5 -57.5q-368 0 -545 136.5t-177 402.5q0 157 59 363l242 -67q-21 -74 -32.5 -144t-11.5 -116q0 -150 117 -217
t390 -67q225 0 364 48t215.5 154t111.5 279zM702 -343l172 173l174 -173l-174 -173z" />
    <glyph glyph-name="uniFE91" unicode="&#x628;" horiz-adv-x="603" arabic-form="initial" 
d="M473 850q30 -119 47 -222.5t17 -181.5q0 -446 -498 -446h-39q-41 0 -41 146q0 145 41 145h39q118 0 172.5 46t54.5 142q0 46 -14.5 123.5t-38.5 175.5zM-32 -343l172 173l174 -173l-174 -173z" />
    <glyph glyph-name="uniFE92" unicode="&#x628;" horiz-adv-x="827" arabic-form="medial" 
d="M554 535q0 -92 16 -145.5t65 -76t147 -22.5h45v-291h-48q-127 0 -224 60.5t-136 166.5h-10q-38 -106 -141.5 -166.5t-228.5 -60.5h-39q-22 0 -31.5 35t-9.5 111q0 77 9.5 111t31.5 34h39q102 0 153 23t68 76.5t17 144.5v167h277v-167zM-32 -343l172 173l174 -173
l-174 -173z" />
    <glyph glyph-name="uniFE93" unicode="&#x629;" horiz-adv-x="937" arabic-form="isolated" 
d="M81 1385l172 173l174 -173l-174 -173zM430 1385l172 173l174 -173l-174 -173zM464 -11q-126 0 -214.5 46.5t-135 126t-46.5 177.5q0 138 69 258t172 226q-24 23 -50 46.5t-52 45.5l171 204q89 -73 176.5 -158t159 -181t114.5 -200.5t43 -216.5q0 -108 -51.5 -192.5
t-143 -133t-212.5 -48.5zM464 281q77 0 109 35t32 82q0 56 -35.5 125t-105.5 134q-69 -64 -105.5 -134.5t-36.5 -124.5q0 -47 32 -82t110 -35z" />
    <glyph glyph-name="uniFE94" unicode="&#x629;" horiz-adv-x="1181" arabic-form="final" 
d="M424 1480l172 173l174 -173l-174 -173zM773 1480l172 173l174 -173l-174 -173zM664 956l-10 167l277 17l36 -609q9 -135 55 -187.5t158 -52.5h1v-291h-1q-143 0 -239 48.5t-155 147.5q-51 -23 -112.5 -36t-117.5 -13q-184 0 -301.5 83.5t-117.5 233.5q0 188 137 315.5
t390 176.5zM683 690q-138 -11 -221 -57t-83 -116q0 -54 54.5 -80t139.5 -26q76 0 133 15q-4 28 -6.5 46.5t-3.5 39.5z" />
    <glyph glyph-name="uniFE95" unicode="&#x62a;" horiz-adv-x="1799" arabic-form="isolated" 
d="M1682 864q23 -89 37 -180t14 -166q0 -193 -84 -306.5t-267.5 -162.5t-481.5 -49q-297 0 -480.5 49t-267.5 161.5t-84 302.5q0 74 14.5 166.5t36.5 184.5l247 -55q-14 -68 -25 -141t-11 -121q0 -107 53 -162t178 -74.5t339 -19.5q216 0 340.5 20.5t177 76.5t52.5 163
q0 50 -10 120.5t-25 137.5zM552 897l172 173l174 -173l-174 -173zM901 897l172 173l174 -173l-174 -173z" />
    <glyph glyph-name="uniFE96" unicode="&#x62a;" horiz-adv-x="1963" arabic-form="final" 
d="M1776 730q-15 -84 -23.5 -146.5t-8.5 -106.5q0 -85 49 -135.5t169 -50.5h1v-291h-1q-154 0 -265.5 62.5t-160.5 207.5h-10q-106 -155 -292.5 -212.5t-443.5 -57.5q-368 0 -545 136.5t-177 402.5q0 157 59 363l242 -67q-21 -74 -32.5 -144t-11.5 -116q0 -150 117 -217
t390 -67q225 0 364 48t215.5 154t111.5 279zM570 852l172 173l174 -173l-174 -173zM919 852l172 173l174 -173l-174 -173z" />
    <glyph glyph-name="uniFE97" unicode="&#x62a;" horiz-adv-x="603" arabic-form="initial" 
d="M473 850q30 -119 47 -222.5t17 -181.5q0 -446 -498 -446h-39q-41 0 -41 146q0 145 41 145h39q118 0 172.5 46t54.5 142q0 46 -14.5 123.5t-38.5 175.5zM-99 1166l172 173l174 -173l-174 -173zM250 1166l172 173l174 -173l-174 -173z" />
    <glyph glyph-name="uniFE98" unicode="&#x62a;" horiz-adv-x="827" arabic-form="medial" 
d="M554 535q0 -92 16 -145.5t65 -76t147 -22.5h45v-291h-48q-127 0 -224 60.5t-136 166.5h-10q-38 -106 -141.5 -166.5t-228.5 -60.5h-39q-22 0 -31.5 35t-9.5 111q0 77 9.5 111t31.5 34h39q102 0 153 23t68 76.5t17 144.5v167h277v-167zM-31 1063l172 173l174 -173
l-174 -173zM318 1063l172 173l174 -173l-174 -173z" />
    <glyph glyph-name="uniFE99" unicode="&#x62b;" horiz-adv-x="1799" arabic-form="isolated" 
d="M1682 864q23 -89 37 -180t14 -166q0 -193 -84 -306.5t-267.5 -162.5t-481.5 -49q-297 0 -480.5 49t-267.5 161.5t-84 302.5q0 74 14.5 166.5t36.5 184.5l247 -55q-14 -68 -25 -141t-11 -121q0 -107 53 -162t178 -74.5t339 -19.5q216 0 340.5 20.5t177 76.5t52.5 163
q0 50 -10 120.5t-25 137.5zM726 1225l173 173l173 -173l-173 -173zM901 897l172 173l174 -173l-174 -173zM552 897l172 173l174 -173l-174 -173z" />
    <glyph glyph-name="uniFE9A" unicode="&#x62b;" horiz-adv-x="1963" arabic-form="final" 
d="M1776 730q-15 -84 -23.5 -146.5t-8.5 -106.5q0 -85 49 -135.5t169 -50.5h1v-291h-1q-154 0 -265.5 62.5t-160.5 207.5h-10q-106 -155 -292.5 -212.5t-443.5 -57.5q-368 0 -545 136.5t-177 402.5q0 157 59 363l242 -67q-21 -74 -32.5 -144t-11.5 -116q0 -150 117 -217
t390 -67q225 0 364 48t215.5 154t111.5 279zM743 1180l173 173l173 -173l-173 -173zM918 852l172 173l174 -173l-174 -173zM569 852l172 173l174 -173l-174 -173z" />
    <glyph glyph-name="uniFE9B" unicode="&#x62b;" horiz-adv-x="603" arabic-form="initial" 
d="M473 850q30 -119 47 -222.5t17 -181.5q0 -446 -498 -446h-39q-41 0 -41 146q0 145 41 145h39q118 0 172.5 46t54.5 142q0 46 -14.5 123.5t-38.5 175.5zM75 1494l173 173l173 -173l-173 -173zM250 1166l172 173l174 -173l-174 -173zM-99 1166l172 173l174 -173l-174 -173z
" />
    <glyph glyph-name="uniFE9C" unicode="&#x62b;" horiz-adv-x="827" arabic-form="medial" 
d="M554 535q0 -92 16 -145.5t65 -76t147 -22.5h45v-291h-48q-127 0 -224 60.5t-136 166.5h-10q-38 -106 -141.5 -166.5t-228.5 -60.5h-39q-22 0 -31.5 35t-9.5 111q0 77 9.5 111t31.5 34h39q102 0 153 23t68 76.5t17 144.5v167h277v-167zM143 1368l173 173l173 -173
l-173 -173zM318 1040l172 173l174 -173l-174 -173zM-31 1040l172 173l174 -173l-174 -173z" />
    <glyph glyph-name="uniFE9D" unicode="&#x62c;" horiz-adv-x="1439" arabic-form="isolated" 
d="M628 -17l172 173l174 -173l-174 -173zM485 1068q59 0 140 -24t217 -85q119 -53 204 -88t149.5 -56.5t121.5 -35.5l-34 -300q-125 -10 -257.5 -40.5t-255.5 -80t-221.5 -115.5t-156 -148.5t-57.5 -178.5q0 -92 60.5 -156t166 -97.5t241.5 -33.5q267 0 481 103l125 -251
q-301 -148 -605 -148q-216 0 -382.5 67t-261.5 191t-95 296q0 143 68 265t188.5 218.5t279 163t339.5 97.5v10q-50 13 -107 33t-133 51q-88 33 -137 47t-79 14q-64 0 -104.5 -38t-73.5 -128l-9 -22l-201 61l7 24q62 204 152.5 294.5t229.5 90.5z" />
    <glyph glyph-name="uniFE9E" unicode="&#x62c;" horiz-adv-x="1453" arabic-form="final" 
d="M598 -74l172 173l174 -173l-174 -173zM485 1028q61 0 143 -25t214 -84q120 -54 205 -89t149.5 -56.5t120.5 -34.5l-34 -300q-41 -4 -74.5 -9t-61.5 -11v-10q75 -118 243 -118h63v-291h-24q-356 0 -443 369q-183 -29 -330.5 -104t-234 -177t-86.5 -212q0 -130 127 -208.5
t341 -78.5q269 0 481 103l125 -251q-299 -148 -605 -148q-223 0 -389 69t-258 193.5t-92 291.5q0 179 109 331t306 260t460 153v10q-90 22 -240 84q-88 33 -137 47t-79 14q-64 0 -104.5 -38t-73.5 -128l-9 -22l-201 61l7 24q62 203 152.5 294t229.5 91z" />
    <glyph glyph-name="uniFE9F" unicode="&#x62c;" horiz-adv-x="1339" arabic-form="initial" 
d="M415 -343l172 173l174 -173l-174 -173zM463 985q56 0 134 -25t228 -90q149 -63 250.5 -98t197.5 -57v-229l-507 -298q-168 -100 -313 -144t-308 -44h-145q-22 0 -31.5 33.5t-9.5 112.5t9.5 112t31.5 33h202q76 0 142 11.5t139 39t170 74.5l261 133v10q-49 12 -105.5 32
t-131.5 51q-87 33 -136 47.5t-80 14.5q-64 0 -104 -38.5t-74 -128.5l-8 -22l-202 62l7 23q60 204 152 294.5t231 90.5z" />
    <glyph glyph-name="uniFEA0" unicode="&#x62c;" horiz-adv-x="1389" arabic-form="medial" 
d="M415 -343l172 173l174 -173l-174 -173zM463 985q56 0 134 -24.5t228 -90.5q149 -63 250.5 -98t197.5 -57v-229l-198 -107v-10q58 -45 133 -61.5t144 -16.5h37v-291h-38q-138 0 -255 61t-210 197l-120 -70q-168 -100 -313 -144t-308 -44h-145q-22 0 -31.5 33.5t-9.5 112.5
t9.5 112t31.5 33h202q76 0 142 11.5t139 39t170 74.5l261 133v10q-49 12 -105.5 32.5t-131.5 50.5q-87 33 -136 47.5t-80 14.5q-64 0 -104 -38.5t-74 -128.5l-8 -22l-202 62l7 23q60 204 152 294.5t231 90.5z" />
    <glyph glyph-name="uniFEA1" unicode="&#x62d;" horiz-adv-x="1439" arabic-form="isolated" 
d="M485 1068q59 0 140 -24t217 -85q119 -53 204 -88t149.5 -56.5t121.5 -35.5l-34 -300q-125 -10 -257.5 -40.5t-255.5 -80t-221.5 -115.5t-156 -148.5t-57.5 -178.5q0 -92 60.5 -156t166 -97.5t241.5 -33.5q267 0 481 103l125 -251q-301 -148 -605 -148q-216 0 -382.5 67
t-261.5 191t-95 296q0 143 68 265t188.5 218.5t279 163t339.5 97.5v10q-50 13 -107 33t-133 51q-88 33 -137 47t-79 14q-64 0 -104.5 -38t-73.5 -128l-9 -22l-201 61l7 24q62 204 152.5 294.5t229.5 90.5z" />
    <glyph glyph-name="uniFEA2" unicode="&#x62d;" horiz-adv-x="1453" arabic-form="final" 
d="M485 1028q61 0 143 -25t214 -84q120 -54 205 -89t149.5 -56.5t120.5 -34.5l-34 -300q-41 -4 -74.5 -9t-61.5 -11v-10q75 -118 243 -118h63v-291h-24q-356 0 -443 369q-183 -29 -330.5 -104t-234 -177t-86.5 -212q0 -130 127 -208.5t341 -78.5q269 0 481 103l125 -251
q-299 -148 -605 -148q-223 0 -389 69t-258 193.5t-92 291.5q0 179 109 331t306 260t460 153v10q-90 22 -240 84q-88 33 -137 47t-79 14q-64 0 -104.5 -38t-73.5 -128l-9 -22l-201 61l7 24q62 203 152.5 294t229.5 91z" />
    <glyph glyph-name="uniFEA3" unicode="&#x62d;" horiz-adv-x="1339" arabic-form="initial" 
d="M463 985q56 0 134 -25t228 -90q149 -63 250.5 -98t197.5 -57v-229l-507 -298q-168 -100 -313 -144t-308 -44h-145q-22 0 -31.5 33.5t-9.5 112.5t9.5 112t31.5 33h202q76 0 142 11.5t139 39t170 74.5l261 133v10q-49 12 -105.5 32t-131.5 51q-87 33 -136 47.5t-80 14.5
q-64 0 -104 -38.5t-74 -128.5l-8 -22l-202 62l7 23q60 204 152 294.5t231 90.5z" />
    <glyph glyph-name="uniFEA4" unicode="&#x62d;" horiz-adv-x="1389" arabic-form="medial" 
d="M463 985q56 0 134 -24.5t228 -90.5q149 -63 250.5 -98t197.5 -57v-229l-198 -107v-10q58 -45 133 -61.5t144 -16.5h37v-291h-38q-138 0 -255 61t-210 197l-120 -70q-168 -100 -313 -144t-308 -44h-145q-22 0 -31.5 33.5t-9.5 112.5t9.5 112t31.5 33h202q76 0 142 11.5
t139 39t170 74.5l261 133v10q-49 12 -105.5 32.5t-131.5 50.5q-87 33 -136 47.5t-80 14.5q-64 0 -104 -38.5t-74 -128.5l-8 -22l-202 62l7 23q60 204 152 294.5t231 90.5z" />
    <glyph glyph-name="uniFEA5" unicode="&#x62e;" horiz-adv-x="1439" arabic-form="isolated" 
d="M485 1068q59 0 140 -24t217 -85q119 -53 204 -88t149.5 -56.5t121.5 -35.5l-34 -300q-125 -10 -257.5 -40.5t-255.5 -80t-221.5 -115.5t-156 -148.5t-57.5 -178.5q0 -92 60.5 -156t166 -97.5t241.5 -33.5q267 0 481 103l125 -251q-301 -148 -605 -148q-216 0 -382.5 67
t-261.5 191t-95 296q0 143 68 265t188.5 218.5t279 163t339.5 97.5v10q-50 13 -107 33t-133 51q-88 33 -137 47t-79 14q-64 0 -104.5 -38t-73.5 -128l-9 -22l-201 61l7 24q62 204 152.5 294.5t229.5 90.5zM551 1458l172 173l174 -173l-174 -173z" />
    <glyph glyph-name="uniFEA6" unicode="&#x62e;" horiz-adv-x="1453" arabic-form="final" 
d="M485 1028q61 0 143 -25t214 -84q120 -54 205 -89t149.5 -56.5t120.5 -34.5l-34 -300q-41 -4 -74.5 -9t-61.5 -11v-10q75 -118 243 -118h63v-291h-24q-356 0 -443 369q-183 -29 -330.5 -104t-234 -177t-86.5 -212q0 -130 127 -208.5t341 -78.5q269 0 481 103l125 -251
q-299 -148 -605 -148q-223 0 -389 69t-258 193.5t-92 291.5q0 179 109 331t306 260t460 153v10q-90 22 -240 84q-88 33 -137 47t-79 14q-64 0 -104.5 -38t-73.5 -128l-9 -22l-201 61l7 24q62 203 152.5 294t229.5 91zM551 1418l172 173l174 -173l-174 -173z" />
    <glyph glyph-name="uniFEA7" unicode="&#x62e;" horiz-adv-x="1339" arabic-form="initial" 
d="M463 985q56 0 134 -25t228 -90q149 -63 250.5 -98t197.5 -57v-229l-507 -298q-168 -100 -313 -144t-308 -44h-145q-22 0 -31.5 33.5t-9.5 112.5t9.5 112t31.5 33h202q76 0 142 11.5t139 39t170 74.5l261 133v10q-49 12 -105.5 32t-131.5 51q-87 33 -136 47.5t-80 14.5
q-64 0 -104 -38.5t-74 -128.5l-8 -22l-202 62l7 23q60 204 152 294.5t231 90.5zM487 1373l172 173l174 -173l-174 -173z" />
    <glyph glyph-name="uniFEA8" unicode="&#x62e;" horiz-adv-x="1389" arabic-form="medial" 
d="M463 985q56 0 134 -24.5t228 -90.5q149 -63 250.5 -98t197.5 -57v-229l-198 -107v-10q58 -45 133 -61.5t144 -16.5h37v-291h-38q-138 0 -255 61t-210 197l-120 -70q-168 -100 -313 -144t-308 -44h-145q-22 0 -31.5 33.5t-9.5 112.5t9.5 112t31.5 33h202q76 0 142 11.5
t139 39t170 74.5l261 133v10q-49 12 -105.5 32.5t-131.5 50.5q-87 33 -136 47.5t-80 14.5q-64 0 -104 -38.5t-74 -128.5l-8 -22l-202 62l7 23q60 204 152 294.5t231 90.5zM487 1373l172 173l174 -173l-174 -173z" />
    <glyph glyph-name="uniFEA9" unicode="&#x62f;" horiz-adv-x="1025" arabic-form="isolated" 
d="M958 427q0 -142 -72 -238.5t-197.5 -145.5t-287.5 -49q-156 0 -340 46l64 274q75 -16 141 -23.5t126 -7.5q138 0 215.5 38.5t77.5 113.5q0 52 -42.5 127t-118 162.5t-175.5 175.5l184 219q215 -190 320 -359.5t105 -332.5z" />
    <glyph glyph-name="uniFEAA" unicode="&#x62f;" horiz-adv-x="1304" arabic-form="final" 
d="M781 1104l261 -611q36 -85 68.5 -128.5t75.5 -58.5t109 -15h9v-291h-9q-142 0 -234 53.5t-145 179.5h-10q-46 -115 -163.5 -179t-269.5 -64q-106 0 -211.5 36.5t-200.5 109.5l124 231q71 -43 145 -64t138 -21q92 0 172.5 31.5t134.5 92.5l-254 573z" />
    <glyph glyph-name="uniFEAB" unicode="&#x630;" horiz-adv-x="1025" arabic-form="isolated" 
d="M958 427q0 -142 -72 -238.5t-197.5 -145.5t-287.5 -49q-156 0 -340 46l64 274q75 -16 141 -23.5t126 -7.5q138 0 215.5 38.5t77.5 113.5q0 52 -42.5 127t-118 162.5t-175.5 175.5l184 219q215 -190 320 -359.5t105 -332.5zM354 1496l172 173l174 -173l-174 -173z" />
    <glyph glyph-name="uniFEAC" unicode="&#x630;" horiz-adv-x="1304" arabic-form="final" 
d="M436 1482l172 173l174 -173l-174 -173zM781 1104l261 -611q36 -85 68.5 -128.5t75.5 -58.5t109 -15h9v-291h-9q-142 0 -234 53.5t-145 179.5h-10q-46 -115 -163.5 -179t-269.5 -64q-106 0 -211.5 36.5t-200.5 109.5l124 231q71 -43 145 -64t138 -21q92 0 172.5 31.5
t134.5 92.5l-254 573z" />
    <glyph glyph-name="uniFEAD" unicode="&#x631;" horiz-adv-x="633" arabic-form="isolated" 
d="M164 662l260 90q56 -169 90 -321.5t34 -277.5q0 -245 -155.5 -414t-490.5 -289l-126 261q257 87 378.5 186.5t121.5 253.5q0 92 -32 231.5t-80 279.5z" />
    <glyph glyph-name="uniFEAE" unicode="&#x631;" horiz-adv-x="792" arabic-form="final" 
d="M164 662l260 90l70 -216q31 -95 65 -148.5t88 -75t143 -21.5h2v-291h-2q-164 0 -250 116l-10 -3q2 -237 -160.5 -396t-467.5 -267l-126 261q181 62 290.5 125.5t159.5 140t50 174.5q0 84 -30 219t-82 292z" />
    <glyph glyph-name="uniFEAF" unicode="&#x632;" horiz-adv-x="633" arabic-form="isolated" 
d="M164 662l260 90q56 -169 90 -321.5t34 -277.5q0 -245 -155.5 -414t-490.5 -289l-126 261q257 87 378.5 186.5t121.5 253.5q0 92 -32 231.5t-80 279.5zM122 1108l172 173l174 -173l-174 -173z" />
    <glyph glyph-name="uniFEB0" unicode="&#x632;" horiz-adv-x="792" arabic-form="final" 
d="M122 1108l172 173l174 -173l-174 -173zM164 662l260 90l70 -216q31 -95 65 -148.5t88 -75t143 -21.5h2v-291h-2q-164 0 -250 116l-10 -3q2 -237 -160.5 -396t-467.5 -267l-126 261q181 62 290.5 125.5t159.5 140t50 174.5q0 84 -30 219t-82 292z" />
    <glyph glyph-name="uniFEB1" unicode="&#x633;" horiz-adv-x="2585" arabic-form="isolated" 
d="M1624 0q-88 0 -147 49l-6 -4q-18 -170 -108.5 -286.5t-240 -176t-343.5 -59.5q-349 0 -526 155t-177 481q0 95 15 211.5t48 258.5l262 -59q-33 -156 -45 -243t-12 -151q0 -193 106 -277.5t321 -84.5q221 0 335.5 73t114.5 233q0 85 -33.5 197t-116.5 304l257 123
l119 -320q23 -63 59 -98t100 -35q65 0 96.5 38.5t38.5 127.5l15 198l239 -16l-14 -203q-6 -73 30.5 -109t104.5 -36q127 0 127 141q0 21 -4.5 66.5t-12 102t-16.5 108.5l269 63q18 -91 28.5 -178t10.5 -158q0 -436 -352 -436q-118 0 -195.5 53.5t-105.5 165.5h-10
q-25 -105 -83.5 -162t-147.5 -57z" />
    <glyph glyph-name="uniFEB2" unicode="&#x633;" horiz-adv-x="2777" arabic-form="final" 
d="M2423 246q-50 -246 -270 -246q-109 0 -185.5 53.5t-102.5 165.5h-10q-24 -105 -83 -162t-148 -57q-88 0 -147 49l-6 -4q-18 -170 -108.5 -286.5t-240 -176t-343.5 -59.5q-349 0 -526 155t-177 481q0 95 15 211.5t48 258.5l262 -59q-33 -156 -45 -243t-12 -151
q0 -193 106 -277.5t321 -84.5q221 0 335.5 73t114.5 233q0 85 -33.5 197t-116.5 304l257 123l119 -320q26 -68 60.5 -100.5t98.5 -32.5q65 0 96.5 38.5t38.5 127.5l15 198l239 -16l-14 -203q-6 -73 30 -109t105 -36q127 0 127 143q0 33 -10.5 114t-24.5 160l266 56l25 -158
q22 -130 50.5 -198t81 -92.5t146.5 -24.5v-291q-147 0 -229 60.5t-115 185.5h-10z" />
    <glyph glyph-name="uniFEB3" unicode="&#x633;" horiz-adv-x="1682" arabic-form="initial" 
d="M689 291q71 0 101 40.5t38 121.5l18 202l241 -16l-15 -203q-6 -69 29 -107t105 -38q68 0 102 38.5t34 106.5q0 26 -5 75t-12.5 105.5t-16.5 104.5l268 64q17 -81 28.5 -173.5t11.5 -171.5q0 -226 -93 -333t-267 -107q-130 0 -200 61t-93 158h-10q-48 -219 -279 -219
q-124 0 -191 58.5t-92 165.5h-10q-43 -101 -130 -162.5t-212 -61.5h-39q-21 0 -31 35t-10 113q0 77 9.5 110t31.5 33h39q117 0 170 51.5t64 163.5l18 202l277 -20l-21 -240q-7 -70 30 -113.5t112 -43.5z" />
    <glyph glyph-name="uniFEB4" unicode="&#x633;" horiz-adv-x="1876" arabic-form="medial" 
d="M1521 246q-24 -118 -89 -182t-184 -64q-126 0 -194 61t-91 158h-10q-48 -219 -279 -219q-124 0 -190.5 58t-92.5 166h-10q-43 -101 -130 -162.5t-212 -61.5h-39q-21 0 -31 35t-10 113q0 77 9.5 110t31.5 33h39q117 0 170 51.5t64 163.5l18 202l277 -20l-21 -240
q-7 -70 30 -113.5t112 -43.5q71 0 101.5 40.5t37.5 121.5l18 202l241 -16l-15 -203q-6 -69 28.5 -107t103.5 -38q138 0 138 143q0 32 -11 112.5t-25 161.5l266 56l24 -158q19 -127 48.5 -195t84 -94t146.5 -26h1v-291h-1q-156 0 -235 65.5t-109 180.5h-10z" />
    <glyph glyph-name="uniFEB5" unicode="&#x634;" horiz-adv-x="2585" arabic-form="isolated" 
d="M1624 0q-88 0 -147 49l-6 -4q-18 -170 -108.5 -286.5t-240 -176t-343.5 -59.5q-349 0 -526 155t-177 481q0 95 15 211.5t48 258.5l262 -59q-33 -156 -45 -243t-12 -151q0 -193 106 -277.5t321 -84.5q221 0 335.5 73t114.5 233q0 85 -33.5 197t-116.5 304l257 123
l119 -320q23 -63 59 -98t100 -35q65 0 96.5 38.5t38.5 127.5l15 198l239 -16l-14 -203q-6 -73 30.5 -109t104.5 -36q127 0 127 141q0 21 -4.5 66.5t-12 102t-16.5 108.5l269 63q18 -91 28.5 -178t10.5 -158q0 -436 -352 -436q-118 0 -195.5 53.5t-105.5 165.5h-10
q-25 -105 -83.5 -162t-147.5 -57zM1661 1374l173 173l173 -173l-173 -173zM1836 1046l172 173l174 -173l-174 -173zM1487 1046l172 173l174 -173l-174 -173z" />
    <glyph glyph-name="uniFEB6" unicode="&#x634;" horiz-adv-x="2777" arabic-form="final" 
d="M1654 1374l173 173l173 -173l-173 -173zM1829 1046l172 173l174 -173l-174 -173zM1480 1046l172 173l174 -173l-174 -173zM2423 246q-50 -246 -270 -246q-109 0 -185.5 53.5t-102.5 165.5h-10q-24 -105 -83 -162t-148 -57q-88 0 -147 49l-6 -4q-18 -170 -108.5 -286.5
t-240 -176t-343.5 -59.5q-349 0 -526 155t-177 481q0 95 15 211.5t48 258.5l262 -59q-33 -156 -45 -243t-12 -151q0 -193 106 -277.5t321 -84.5q221 0 335.5 73t114.5 233q0 85 -33.5 197t-116.5 304l257 123l119 -320q26 -68 60.5 -100.5t98.5 -32.5q65 0 96.5 38.5
t38.5 127.5l15 198l239 -16l-14 -203q-6 -73 30 -109t105 -36q127 0 127 143q0 33 -10.5 114t-24.5 160l266 56l25 -158q22 -130 50.5 -198t81 -92.5t146.5 -24.5v-291q-147 0 -229 60.5t-115 185.5h-10z" />
    <glyph glyph-name="uniFEB7" unicode="&#x634;" horiz-adv-x="1682" arabic-form="initial" 
d="M770 1374l173 173l173 -173l-173 -173zM945 1046l172 173l174 -173l-174 -173zM596 1046l172 173l174 -173l-174 -173zM689 291q71 0 101 40.5t38 121.5l18 202l241 -16l-15 -203q-6 -69 29 -107t105 -38q68 0 102 38.5t34 106.5q0 26 -5 75t-12.5 105.5t-16.5 104.5
l268 64q17 -81 28.5 -173.5t11.5 -171.5q0 -226 -93 -333t-267 -107q-130 0 -200 61t-93 158h-10q-48 -219 -279 -219q-124 0 -191 58.5t-92 165.5h-10q-43 -101 -130 -162.5t-212 -61.5h-39q-21 0 -31 35t-10 113q0 77 9.5 110t31.5 33h39q117 0 170 51.5t64 163.5l18 202
l277 -20l-21 -240q-7 -70 30 -113.5t112 -43.5z" />
    <glyph glyph-name="uniFEB8" unicode="&#x634;" horiz-adv-x="1876" arabic-form="medial" 
d="M770 1374l173 173l173 -173l-173 -173zM945 1046l172 173l174 -173l-174 -173zM596 1046l172 173l174 -173l-174 -173zM1521 246q-24 -118 -89 -182t-184 -64q-126 0 -194 61t-91 158h-10q-48 -219 -279 -219q-124 0 -190.5 58t-92.5 166h-10q-43 -101 -130 -162.5
t-212 -61.5h-39q-21 0 -31 35t-10 113q0 77 9.5 110t31.5 33h39q117 0 170 51.5t64 163.5l18 202l277 -20l-21 -240q-7 -70 30 -113.5t112 -43.5q71 0 101.5 40.5t37.5 121.5l18 202l241 -16l-15 -203q-6 -69 28.5 -107t103.5 -38q138 0 138 143q0 32 -11 112.5t-25 161.5
l266 56l24 -158q19 -127 48.5 -195t84 -94t146.5 -26h1v-291h-1q-156 0 -235 65.5t-109 180.5h-10z" />
    <glyph glyph-name="uniFEB9" unicode="&#x635;" horiz-adv-x="2528" arabic-form="isolated" 
d="M2093 881q108 0 191 -54t130.5 -149.5t47.5 -221.5q0 -135 -70.5 -238t-202 -160.5t-313.5 -57.5q-242 0 -400 101q-19 -273 -203 -425.5t-500 -152.5q-697 0 -697 636q0 97 15.5 213.5t47.5 256.5l262 -59q-31 -153 -44 -241t-13 -153q0 -188 102 -275t319 -87
q444 0 444 321q0 82 -32.5 190.5t-114.5 295.5l258 124q89 -202 123 -352q152 236 318 362t332 126zM2051 596q-97 0 -202 -73.5t-194 -198.5q88 -33 219 -33q162 0 247 46.5t85 122.5q0 61 -43 98.5t-112 37.5z" />
    <glyph glyph-name="uniFEBA" unicode="&#x635;" horiz-adv-x="2578" arabic-form="final" 
d="M2093 881q108 0 191 -54t130.5 -149.5t47.5 -221.5q0 -77 -33 -139q60 -26 148 -26h1v-291h-1q-179 0 -284 116q-75 -55 -180 -85.5t-237 -30.5q-242 0 -400 101q-19 -273 -203.5 -425.5t-499.5 -152.5q-697 0 -697 636q0 97 15.5 213.5t47.5 256.5l262 -59
q-32 -154 -44.5 -241.5t-12.5 -152.5q0 -188 102 -275t319 -87q444 0 444 321q0 82 -32.5 190.5t-114.5 295.5l258 124q46 -103 76 -189.5t47 -162.5q152 236 318 362t332 126zM2051 596q-97 0 -202 -73.5t-194 -198.5q88 -33 219 -33q162 0 247 46.5t85 122.5
q0 61 -43 98.5t-112 37.5z" />
    <glyph glyph-name="uniFEBB" unicode="&#x635;" horiz-adv-x="1644" arabic-form="initial" 
d="M417 236q-40 -117 -147.5 -176.5t-263.5 -59.5h-6q-22 0 -31.5 34.5t-9.5 111.5t9.5 111t31.5 34h6q137 0 184 54t47 161v206h277v-191q6 -50 21.5 -71.5t37.5 -35.5q176 248 330.5 357.5t298.5 109.5q112 0 196.5 -55.5t132 -151.5t47.5 -218q0 -144 -80.5 -246
t-218 -156t-308.5 -54q-215 0 -348.5 56.5t-195.5 179.5h-10zM1166 596q-88 0 -191.5 -64.5t-202.5 -207.5q45 -17 101 -25t117 -8q89 0 164.5 16.5t121.5 54t46 98.5q0 59 -42.5 97.5t-113.5 38.5z" />
    <glyph glyph-name="uniFEBC" unicode="&#x635;" horiz-adv-x="1692" arabic-form="medial" 
d="M237 712h277v-191q6 -50 21.5 -71.5t37.5 -35.5q176 248 330.5 357.5t298.5 109.5q112 0 196.5 -55.5t132 -151.5t47.5 -218q0 -77 -33 -140q63 -25 146 -25h1v-291h-1q-190 0 -290 117q-81 -59 -191.5 -88t-238.5 -29q-214 0 -348 56.5t-196 179.5h-10
q-40 -117 -147.5 -176.5t-263.5 -59.5h-6q-22 0 -31.5 34.5t-9.5 111.5t9.5 111t31.5 34h6q137 0 184 54t47 161v206zM1166 596q-88 0 -191.5 -64.5t-202.5 -207.5q45 -17 101 -25t117 -8q89 0 164.5 16.5t121.5 54t46 98.5q0 59 -42.5 97.5t-113.5 38.5z" />
    <glyph glyph-name="uniFEBD" unicode="&#x636;" horiz-adv-x="2528" arabic-form="isolated" 
d="M2093 881q108 0 191 -54t130.5 -149.5t47.5 -221.5q0 -135 -70.5 -238t-202 -160.5t-313.5 -57.5q-242 0 -400 101q-19 -273 -203 -425.5t-500 -152.5q-697 0 -697 636q0 97 15.5 213.5t47.5 256.5l262 -59q-31 -153 -44 -241t-13 -153q0 -188 102 -275t319 -87
q444 0 444 321q0 82 -32.5 190.5t-114.5 295.5l258 124q89 -202 123 -352q152 236 318 362t332 126zM2051 596q-97 0 -202 -73.5t-194 -198.5q88 -33 219 -33q162 0 247 46.5t85 122.5q0 61 -43 98.5t-112 37.5zM1916 1258l172 173l174 -173l-174 -173z" />
    <glyph glyph-name="uniFEBE" unicode="&#x636;" horiz-adv-x="2578" arabic-form="final" 
d="M2093 881q108 0 191 -54t130.5 -149.5t47.5 -221.5q0 -77 -33 -139q60 -26 148 -26h1v-291h-1q-179 0 -284 116q-75 -55 -180 -85.5t-237 -30.5q-242 0 -400 101q-19 -273 -203.5 -425.5t-499.5 -152.5q-697 0 -697 636q0 97 15.5 213.5t47.5 256.5l262 -59
q-32 -154 -44.5 -241.5t-12.5 -152.5q0 -188 102 -275t319 -87q444 0 444 321q0 82 -32.5 190.5t-114.5 295.5l258 124q46 -103 76 -189.5t47 -162.5q152 236 318 362t332 126zM2051 596q-97 0 -202 -73.5t-194 -198.5q88 -33 219 -33q162 0 247 46.5t85 122.5
q0 61 -43 98.5t-112 37.5zM1916 1258l172 173l174 -173l-174 -173z" />
    <glyph glyph-name="uniFEBF" unicode="&#x636;" horiz-adv-x="1644" arabic-form="initial" 
d="M1014 1258l172 173l174 -173l-174 -173zM417 236q-40 -117 -147.5 -176.5t-263.5 -59.5h-6q-22 0 -31.5 34.5t-9.5 111.5t9.5 111t31.5 34h6q137 0 184 54t47 161v206h277v-191q6 -50 21.5 -71.5t37.5 -35.5q176 248 330.5 357.5t298.5 109.5q112 0 196.5 -55.5
t132 -151.5t47.5 -218q0 -144 -80.5 -246t-218 -156t-308.5 -54q-215 0 -348.5 56.5t-195.5 179.5h-10zM1166 596q-88 0 -191.5 -64.5t-202.5 -207.5q45 -17 101 -25t117 -8q89 0 164.5 16.5t121.5 54t46 98.5q0 59 -42.5 97.5t-113.5 38.5z" />
    <glyph glyph-name="uniFEC0" unicode="&#x636;" horiz-adv-x="1692" arabic-form="medial" 
d="M1014 1258l172 173l174 -173l-174 -173zM237 712h277v-191q6 -50 21.5 -71.5t37.5 -35.5q176 248 330.5 357.5t298.5 109.5q112 0 196.5 -55.5t132 -151.5t47.5 -218q0 -77 -33 -140q63 -25 146 -25h1v-291h-1q-190 0 -290 117q-81 -59 -191.5 -88t-238.5 -29
q-214 0 -348 56.5t-196 179.5h-10q-40 -117 -147.5 -176.5t-263.5 -59.5h-6q-22 0 -31.5 34.5t-9.5 111.5t9.5 111t31.5 34h6q137 0 184 54t47 161v206zM1166 596q-88 0 -191.5 -64.5t-202.5 -207.5q45 -17 101 -25t117 -8q89 0 164.5 16.5t121.5 54t46 98.5
q0 59 -42.5 97.5t-113.5 38.5z" />
    <glyph glyph-name="uniFEC1" unicode="&#x637;" horiz-adv-x="1582" arabic-form="isolated" 
d="M351 291q8 14 16.5 26t16.5 25v1061h277v-564q0 -76 -13 -144.5t-44 -142.5l9 -7q277 336 531 336q114 0 197.5 -52.5t129 -145t45.5 -212.5q0 -219 -160.5 -345t-489.5 -126h-798v291h283zM661 291h271q88 0 162.5 14t120.5 50t46 101q0 59 -45.5 99.5t-115.5 40.5
q-82 0 -188.5 -63.5t-250.5 -241.5z" />
    <glyph glyph-name="uniFEC2" unicode="&#x637;" horiz-adv-x="1634" arabic-form="final" 
d="M351 291q8 14 16.5 26t16.5 25v1061h277v-564q0 -76 -13 -144.5t-44 -142.5l9 -7q277 336 531 336q114 0 197.5 -52.5t129 -145t45.5 -212.5q0 -37 -5.5 -71.5t-19.5 -66.5q29 -20 63 -31t79 -11h1v-291h-1q-94 0 -160.5 34t-114.5 93q-79 -61 -200.5 -94t-291.5 -33
h-798v291h283zM661 291h271q88 0 162.5 14t120.5 50t46 101q0 59 -45.5 99.5t-115.5 40.5q-82 0 -188.5 -63.5t-250.5 -241.5z" />
    <glyph glyph-name="uniFEC3" unicode="&#x637;" horiz-adv-x="1353" arabic-form="initial" 
d="M0 0q-20 0 -30.5 29.5t-10.5 116.5q0 88 10.5 116.5t30.5 28.5h123q8 14 16 26t17 25v1061h277v-564q0 -84 -16.5 -153t-42.5 -134l9 -7q132 161 266.5 248.5t266.5 87.5q110 0 193.5 -51t130.5 -143t47 -216q0 -219 -160 -345t-489 -126h-638zM431 291h272q88 0 163 14
t120.5 50t45.5 101q0 59 -45.5 99.5t-115.5 40.5q-82 0 -189 -63t-251 -242z" />
    <glyph glyph-name="uniFEC4" unicode="&#x637;" horiz-adv-x="1405" arabic-form="medial" 
d="M0 0q-41 0 -41 146q0 145 41 145h123q8 14 16 26t17 25v1061h277v-564q0 -146 -59 -287l9 -7q278 336 533 336q114 0 197 -52.5t128.5 -145t45.5 -212.5q0 -73 -25 -138q59 -42 142 -42h1v-291h-1q-94 0 -160.5 34t-115.5 94q-78 -61 -199 -94.5t-291 -33.5h-638z
M431 291h272q88 0 163 14t120.5 50t45.5 101q0 59 -45.5 99.5t-115.5 40.5q-82 0 -189 -63t-251 -242z" />
    <glyph glyph-name="uniFEC5" unicode="&#x638;" horiz-adv-x="1582" arabic-form="isolated" 
d="M351 291q8 14 16.5 26t16.5 25v1061h277v-564q0 -76 -13 -144.5t-44 -142.5l9 -7q277 336 531 336q114 0 197.5 -52.5t129 -145t45.5 -212.5q0 -219 -160.5 -345t-489.5 -126h-798v291h283zM661 291h271q88 0 162.5 14t120.5 50t46 101q0 59 -45.5 99.5t-115.5 40.5
q-82 0 -188.5 -63.5t-250.5 -241.5zM955 1258l172 173l174 -173l-174 -173z" />
    <glyph glyph-name="uniFEC6" unicode="&#x638;" horiz-adv-x="1634" arabic-form="final" 
d="M955 1258l172 173l174 -173l-174 -173zM351 291q8 14 16.5 26t16.5 25v1061h277v-564q0 -76 -13 -144.5t-44 -142.5l9 -7q277 336 531 336q114 0 197.5 -52.5t129 -145t45.5 -212.5q0 -37 -5.5 -71.5t-19.5 -66.5q29 -20 63 -31t79 -11h1v-291h-1q-94 0 -160.5 34
t-114.5 93q-79 -61 -200.5 -94t-291.5 -33h-798v291h283zM661 291h271q88 0 162.5 14t120.5 50t46 101q0 59 -45.5 99.5t-115.5 40.5q-82 0 -188.5 -63.5t-250.5 -241.5z" />
    <glyph glyph-name="uniFEC7" unicode="&#x638;" horiz-adv-x="1353" arabic-form="initial" 
d="M727 1258l172 173l174 -173l-174 -173zM0 0q-20 0 -30.5 29.5t-10.5 116.5q0 88 10.5 116.5t30.5 28.5h123q8 14 16 26t17 25v1061h277v-564q0 -84 -16.5 -153t-42.5 -134l9 -7q132 161 266.5 248.5t266.5 87.5q110 0 193.5 -51t130.5 -143t47 -216q0 -219 -160 -345
t-489 -126h-638zM431 291h272q88 0 163 14t120.5 50t45.5 101q0 59 -45.5 99.5t-115.5 40.5q-82 0 -189 -63t-251 -242z" />
    <glyph glyph-name="uniFEC8" unicode="&#x638;" horiz-adv-x="1405" arabic-form="medial" 
d="M727 1258l172 173l174 -173l-174 -173zM0 0q-41 0 -41 146q0 145 41 145h123q8 14 16 26t17 25v1061h277v-564q0 -146 -59 -287l9 -7q278 336 533 336q114 0 197 -52.5t128.5 -145t45.5 -212.5q0 -73 -25 -138q59 -42 142 -42h1v-291h-1q-94 0 -160.5 34t-115.5 94
q-78 -61 -199 -94.5t-291 -33.5h-638zM431 291h272q88 0 163 14t120.5 50t45.5 101q0 59 -45.5 99.5t-115.5 40.5q-82 0 -189 -63t-251 -242z" />
    <glyph glyph-name="uniFEC9" unicode="&#x639;" horiz-adv-x="1214" arabic-form="isolated" 
d="M1057 1149l-125 -223q-131 82 -242 82q-100 0 -167 -58t-67 -142q0 -182 375 -182q55 0 121 3.5t136 9.5l-1 -276q-222 -8 -391 -68.5t-264 -161t-95 -227.5q0 -136 119 -209t338 -73q109 0 221.5 18t206.5 50l95 -263q-256 -102 -533 -102q-220 0 -380.5 65.5t-248 186
t-87.5 285.5q0 183 105 334t293 241v10q-270 100 -270 345q0 138 66 251t177 179.5t246 66.5q200 0 372 -142z" />
    <glyph glyph-name="uniFECA" unicode="&#x639;" horiz-adv-x="1226" arabic-form="final" 
d="M1114 643q0 -159 -189 -297v-10q68 -45 191 -45h110v-291h-75q-131 0 -233.5 38.5t-209.5 127.5q-175 -82 -272.5 -175t-97.5 -209q0 -109 124.5 -172.5t336.5 -63.5q164 0 330 40l64 -281q-207 -57 -395 -57q-219 0 -383 62.5t-255 176t-91 265.5q0 170 113 311t326 246
v10l-349 311v174q228 193 509 193q132 0 232.5 -45t157 -125t56.5 -184zM866 616q0 46 -48.5 73t-131.5 27q-123 0 -223 -50v-3l234 -237q169 103 169 190z" />
    <glyph glyph-name="uniFECB" unicode="&#x639;" horiz-adv-x="1092" arabic-form="initial" 
d="M357 514q0 -172 255 -172q76 0 179 13l174 23l30 -283l-339 -40q-202 -26 -365 -40.5t-253 -14.5h-38q-22 0 -31.5 34.5t-9.5 111.5t9.5 111t31.5 34h26q42 0 87.5 1.5t83.5 4.5v17q-107 71 -107 233q0 129 63 231t173.5 160.5t250.5 58.5q210 0 361 -132l-125 -213
q-122 61 -235 61q-97 0 -159 -55t-62 -144z" />
    <glyph glyph-name="uniFECC" unicode="&#x639;" horiz-adv-x="1183" arabic-form="medial" 
d="M623 997q125 0 226 -43t160.5 -122.5t59.5 -188.5q0 -85 -52 -159.5t-140 -141.5v-10q50 -28 100 -34.5t108 -6.5h98v-291h-132q-118 0 -212 33.5t-190 121.5q-112 -74 -240.5 -114.5t-277.5 -40.5h-131q-22 0 -31.5 35t-9.5 111q0 77 9.5 111t31.5 34h120q90 0 171.5 13
t140.5 32v10l-318 284v174q108 92 237.5 142.5t271.5 50.5zM640 716q-123 0 -222 -50v-3l231 -237q81 50 126.5 97t45.5 93q0 52 -54.5 76t-126.5 24z" />
    <glyph glyph-name="uniFECD" unicode="&#x63a;" horiz-adv-x="1214" arabic-form="isolated" 
d="M1057 1149l-125 -223q-131 82 -242 82q-100 0 -167 -58t-67 -142q0 -182 375 -182q55 0 121 3.5t136 9.5l-1 -276q-222 -8 -391 -68.5t-264 -161t-95 -227.5q0 -136 119 -209t338 -73q109 0 221.5 18t206.5 50l95 -263q-256 -102 -533 -102q-220 0 -380.5 65.5t-248 186
t-87.5 285.5q0 183 105 334t293 241v10q-270 100 -270 345q0 138 66 251t177 179.5t246 66.5q200 0 372 -142zM491 1710l172 173l174 -173l-174 -173z" />
    <glyph glyph-name="uniFECE" unicode="&#x63a;" horiz-adv-x="1226" arabic-form="final" 
d="M502 1401l172 173l174 -173l-174 -173zM1114 643q0 -159 -189 -297v-10q68 -45 191 -45h110v-291h-75q-131 0 -233.5 38.5t-209.5 127.5q-175 -82 -272.5 -175t-97.5 -209q0 -109 124.5 -172.5t336.5 -63.5q164 0 330 40l64 -281q-207 -57 -395 -57q-219 0 -383 62.5
t-255 176t-91 265.5q0 170 113 311t326 246v10l-349 311v174q228 193 509 193q132 0 232.5 -45t157 -125t56.5 -184zM866 616q0 46 -48.5 73t-131.5 27q-123 0 -223 -50v-3l234 -237q169 103 169 190z" />
    <glyph glyph-name="uniFECF" unicode="&#x63a;" horiz-adv-x="1092" arabic-form="initial" 
d="M395 1431l172 173l174 -173l-174 -173zM357 514q0 -172 255 -172q76 0 179 13l174 23l30 -283l-339 -40q-202 -26 -365 -40.5t-253 -14.5h-38q-22 0 -31.5 34.5t-9.5 111.5t9.5 111t31.5 34h26q42 0 87.5 1.5t83.5 4.5v17q-107 71 -107 233q0 129 63 231t173.5 160.5
t250.5 58.5q210 0 361 -132l-125 -213q-122 61 -235 61q-97 0 -159 -55t-62 -144z" />
    <glyph glyph-name="uniFED0" unicode="&#x63a;" horiz-adv-x="1183" arabic-form="medial" 
d="M460 1396l172 173l174 -173l-174 -173zM623 997q125 0 226 -43t160.5 -122.5t59.5 -188.5q0 -85 -52 -159.5t-140 -141.5v-10q50 -28 100 -34.5t108 -6.5h98v-291h-132q-118 0 -212 33.5t-190 121.5q-112 -74 -240.5 -114.5t-277.5 -40.5h-131q-22 0 -31.5 35t-9.5 111
q0 77 9.5 111t31.5 34h120q90 0 171.5 13t140.5 32v10l-318 284v174q108 92 237.5 142.5t271.5 50.5zM640 716q-123 0 -222 -50v-3l231 -237q81 50 126.5 97t45.5 93q0 52 -54.5 76t-126.5 24z" />
    <glyph glyph-name="uniFED1" unicode="&#x641;" horiz-adv-x="1836" arabic-form="isolated" 
d="M1135 1680l172 173l174 -173l-174 -173zM1516 485q-126 -32 -233 -32q-176 0 -260.5 76.5t-84.5 237.5q0 160 47 278t132.5 183t200.5 65q135 0 234.5 -92.5t153.5 -261.5t54 -399q0 -201 -82 -319.5t-272 -169.5t-514 -51q-297 0 -478.5 49t-263.5 159t-82 291
q0 66 12 156.5t33 189.5l252 -55q-16 -88 -25.5 -155t-9.5 -105q0 -93 52.5 -145t180 -73t352.5 -21q191 0 309.5 7.5t182 28t86.5 59t23 99.5zM1475 724q-11 137 -54.5 210.5t-113.5 73.5q-66 0 -105.5 -56t-39.5 -143q0 -105 141 -105q77 0 172 20z" />
    <glyph glyph-name="uniFED2" unicode="&#x641;" horiz-adv-x="1951" arabic-form="final" 
d="M1274 1445l172 173l174 -173l-174 -173zM1441 121q-109 -58 -251.5 -89.5t-306.5 -31.5q-265 0 -447 44.5t-275 149t-93 283.5q0 89 23.5 198.5t60.5 220.5l244 -78q-23 -73 -42.5 -156t-19.5 -137q0 -134 130 -181.5t419 -52.5q74 -1 148.5 2.5t144.5 11.5l3 9
q-70 50 -111.5 123t-41.5 167q0 129 56.5 225.5t151.5 150.5t212 54q116 0 211 -54t152 -150t57 -222q0 -94 -42 -169t-113 -126l4 -9q35 -6 71.5 -9.5t76.5 -3.5h88v-291h-107q-131 0 -226 32.5t-177 88.5zM1445 370q68 37 109.5 91t41.5 129q0 65 -42 109.5t-108 44.5
q-67 0 -108.5 -44t-41.5 -110q0 -70 42 -125.5t107 -94.5z" />
    <glyph glyph-name="uniFED3" unicode="&#x641;" horiz-adv-x="961" arabic-form="initial" 
d="M270 1670l172 173l174 -173l-174 -173zM0 291h329q182 0 249.5 42.5t67.5 151.5q-126 -32 -233 -32q-176 0 -260.5 77t-84.5 237t46.5 278t132 183t200.5 65q135 0 234.5 -92.5t154 -261.5t54.5 -399q0 -280 -137 -410t-430 -130h-323q-22 0 -31.5 34.5t-9.5 111.5
t9.5 111t31.5 34zM605 724q-12 137 -56 210.5t-114 73.5q-64 0 -104 -55t-40 -144q0 -105 141 -105q70 0 173 20z" />
    <glyph glyph-name="uniFED4" unicode="&#x641;" horiz-adv-x="1034" arabic-form="medial" 
d="M342 1431l172 173l174 -173l-174 -173zM96 604q0 129 56.5 225.5t151.5 150.5t212 54q116 0 211 -54t152 -150t57 -222q0 -94 -42 -169t-113 -126l5 -9q34 -6 69.5 -9.5t74.5 -3.5h104v-291h-123q-130 0 -224.5 32.5t-175.5 88.5q-79 -56 -171.5 -88.5t-219.5 -32.5h-120
q-42 0 -42 146q0 145 42 145h84q44 0 85 3.5t80 9.5l4 9q-71 50 -114 123.5t-43 167.5zM515 369q68 38 109.5 91.5t41.5 129.5q0 65 -41.5 109.5t-108.5 44.5t-108.5 -44t-41.5 -110q0 -70 42 -126t107 -95z" />
    <glyph glyph-name="uniFED5" unicode="&#x642;" horiz-adv-x="1560" arabic-form="isolated" 
d="M718 1282l172 173l174 -173l-174 -173zM1067 1282l172 173l174 -173l-174 -173zM1066 923q144 0 239 -96t142.5 -258.5t47.5 -362.5q0 -331 -189.5 -515.5t-542.5 -184.5q-342 0 -517.5 150t-175.5 442q0 81 14 198.5t43 290.5l269 -54q-25 -142 -37 -241t-12 -172
q0 -164 107.5 -243t318.5 -79q381 0 451 259l-8 14q-36 -10 -83 -17t-96 -7q-166 0 -259 88.5t-93 264.5q0 148 46 266.5t131.5 187.5t203.5 69zM1230 349q-2 67 -19 131.5t-54 107t-99 42.5q-72 0 -109 -59t-37 -129q0 -61 38 -87t102 -26q51 0 95.5 6t82.5 14z" />
    <glyph glyph-name="uniFED6" unicode="&#x642;" horiz-adv-x="1547" arabic-form="final" 
d="M719 1230l172 173l174 -173l-174 -173zM1068 1230l172 173l174 -173l-174 -173zM1067 872q130 0 218 -78t138 -209.5t65 -293.5h59v-291h-67q-40 -261 -226 -404t-488 -143q-343 0 -519.5 149.5t-176.5 442.5q0 82 14 199.5t43 290.5l269 -53q-25 -142 -37 -241t-12 -173
q0 -165 109 -243.5t320 -78.5q179 0 297 63.5t153 185.5l-8 14q-84 -9 -179 -9q-165 0 -258.5 88t-93.5 264q0 148 46 265.5t131.5 186t202.5 68.5zM1061 578q-73 0 -110.5 -56.5t-37.5 -126.5q0 -62 38 -88t103 -26q46 0 91 1t88 4q-2 68 -19 135.5t-53.5 112t-99.5 44.5z
" />
    </font>
</defs>
</svg>
