<?xml version="1.0" standalone="no"?>
<!DOCTYPE svg PUBLIC "-//W3C//DTD SVG 1.1//EN" "http://www.w3.org/Graphics/SVG/1.1/DTD/svg11.dtd" >
<svg xmlns="http://www.w3.org/2000/svg" xmlns:xlink="http://www.w3.org/1999/xlink" version="1.1">
<metadata>
Created by FontForge 20170731 at Wed Jun  1 20:38:01 2022
 By Aleksey,,,
Copyright 2022 The Estedad Project Authors (https://github.com/aminabedi68/Estedad)
</metadata>
<defs>
<font id="Estedad-FD-ExtraLight" horiz-adv-x="0" >
  <font-face 
    font-family="Estedad-FD ExtraLight"
    font-weight="200"
    font-stretch="normal"
    units-per-em="2048"
    panose-1="0 0 0 0 0 0 0 0 0 0"
    ascent="1638"
    descent="-410"
    x-height="1004"
    cap-height="1348"
    bbox="-605 -1220 4300 2421"
    underline-thickness="150"
    underline-position="-975"
    unicode-range="U+0020-FEFC"
  />
<missing-glyph horiz-adv-x="1024" 
d="M102 -410v2048h820v-2048h-820zM204 -308h616v1844h-616v-1844z" />
    <glyph glyph-name="uni0622" unicode="&#x627;&#x653;" horiz-adv-x="493" 
d="M495 1559l51 -24q-34 -88 -72.5 -123.5t-99.5 -35.5q-30 0 -61.5 13t-81.5 42q-48 28 -69 35t-41 7q-34 0 -59.5 -26.5t-66.5 -104.5l-46 29q42 91 81.5 131t88.5 40q25 0 50.5 -11t79.5 -40q60 -32 85 -40.5t47 -8.5q41 0 63.5 23.5t50.5 93.5zM292 1127v-1127h-90v1127
h90z" />
    <glyph glyph-name="uni0623" unicode="&#x627;&#x654;" horiz-adv-x="493" 
d="M292 1127v-1127h-90v1127h90zM394 1705l-21 -54q-40 19 -82 19q-61 0 -100.5 -35t-39.5 -91q0 -51 34 -79.5t90 -28.5q40 0 89 15l99 31l18 -57l-452 -144l-18 60l186 54v10q-46 16 -74 54t-28 87q0 78 57 131.5t141 53.5q27 0 52 -7.5t49 -18.5z" />
    <glyph glyph-name="uni0624" unicode="&#x648;&#x654;" horiz-adv-x="954" 
d="M630 1323l-21 -54q-40 19 -82 19q-61 0 -100.5 -35t-39.5 -91q0 -51 34 -79.5t90 -28.5q40 0 89 15l99 31l18 -57l-452 -144l-18 60l186 54v10q-46 16 -74 54t-28 87q0 78 57 131.5t141 53.5q27 0 52 -7.5t49 -18.5zM746 19l-6 7q-56 -15 -124 -26.5t-146 -11.5
q-148 0 -237 64t-89 212q0 106 35 204.5t107 162t181 63.5q105 0 175 -62t111.5 -161t59.5 -213.5t18 -219.5q0 -211 -187.5 -350t-514.5 -218l-30 88q308 70 473 186.5t174 274.5zM742 117q-4 74 -19.5 157.5t-47 158.5t-82.5 122t-127 47q-82 0 -135 -51t-78.5 -127.5
t-25.5 -153.5q0 -110 66 -150t178 -40q78 0 146.5 11.5t124.5 25.5z" />
    <glyph glyph-name="uni0625" unicode="&#x627;&#x655;" horiz-adv-x="493" 
d="M380 -222l-21 -54q-40 19 -82 19q-61 0 -100.5 -35t-39.5 -91q0 -51 34 -79.5t90 -28.5q40 0 89 15l99 31l18 -57l-452 -144l-18 60l186 54v10q-46 16 -74 54t-28 87q0 78 57 131.5t141 53.5q27 0 52 -7.5t49 -18.5zM292 0h-90v1278h90v-1278z" />
    <glyph glyph-name="uni0626" unicode="&#x649;&#x654;" horiz-adv-x="1477" 
d="M580 1044l-21 -54q-40 19 -82 19q-61 0 -100.5 -35t-39.5 -91q0 -51 34 -79.5t90 -28.5q40 0 89 15l99 31l18 -57l-452 -144l-18 60l186 54v10q-46 16 -74 54t-28 87q0 78 57 131.5t141 53.5q27 0 52 -7.5t49 -18.5zM1329 666l-35 -81q-53 28 -104.5 40.5t-101.5 12.5
q-93 0 -169 -43t-121 -119t-45 -176q0 -78 42 -114t110.5 -48t149.5 -18q81 -5 152.5 -20t116 -57.5t44.5 -132.5q0 -108 -86.5 -189.5t-236.5 -126.5t-341 -45q-265 0 -413.5 114t-148.5 334q0 87 10 179.5t33 222.5l88 -15q-24 -134 -33.5 -219.5t-9.5 -168.5
q0 -182 121 -268.5t350 -86.5q165 0 296 33t207.5 92t76.5 137q0 59 -36 86t-93.5 35.5t-124.5 12.5q-91 6 -173.5 23.5t-134.5 70.5t-52 164q0 125 57 222.5t153 153.5t213 56q56 0 117 -14.5t122 -46.5z" />
    <glyph glyph-name="uni06C0" unicode="&#x647;&#x654;" horiz-adv-x="877" 
d="M438 -11q-145 0 -229.5 83t-84.5 213q0 134 76.5 260t180.5 225q-27 26 -51 47.5t-51 43.5l57 67q203 -169 310.5 -326t107.5 -314q0 -131 -85.5 -215t-230.5 -84zM438 82q113 0 168 57.5t55 152.5q0 104 -62.5 215.5t-160.5 202.5q-97 -91 -160 -202.5t-63 -215.5
q0 -95 55.5 -152.5t167.5 -57.5zM325 1154q-27 0 -54 2.5t-53 6.5l14 66q23 -4 49 -6t51 -2q48 0 97.5 10t82.5 33t33 63q0 38 -37 50t-89 19q-55 9 -102.5 31t-47.5 94q0 97 66.5 153t157.5 56q52 0 107 -20l-23 -62q-42 14 -83 14q-64 0 -114 -32.5t-50 -95.5
q0 -43 33.5 -55.5t80.5 -19.5q41 -5 78 -15.5t60.5 -36t23.5 -75.5q0 -61 -39.5 -100.5t-103.5 -58.5t-138 -19z" />
    <glyph glyph-name="uniFBA5" unicode="&#xfeea;&#x654;" horiz-adv-x="1124" arabic-form="final" 
d="M728 796l-8 150l89 5l33 -537q8 -129 34 -198.5t84 -96.5t163 -27h1v-92h-1q-139 0 -215.5 48t-112.5 145q-55 -22 -117 -32.5t-123 -10.5q-96 0 -179 27t-134 83t-51 142q0 152 145 255.5t392 138.5zM733 706q-209 -25 -330.5 -101.5t-121.5 -189.5q0 -62 39 -101
t103.5 -57t138.5 -18q112 0 209 34q-7 30 -11 62.5t-6 68.5zM272 990q-27 0 -54 2.5t-53 6.5l14 66q23 -4 49 -6t51 -2q48 0 97.5 10t82.5 33t33 63q0 38 -37 50t-89 19q-55 9 -102.5 31t-47.5 94q0 97 66.5 153t157.5 56q52 0 107 -20l-23 -62q-42 14 -83 14
q-64 0 -114 -32.5t-50 -95.5q0 -43 33.5 -55.5t80.5 -19.5q41 -5 78 -15.5t60.5 -36t23.5 -75.5q0 -61 -39.5 -100.5t-103.5 -58.5t-138 -19z" />
    <glyph glyph-name="uniFDF2" unicode="&#x627;&#x644;&#x644;&#x647;" horiz-adv-x="2881" arabic-form="isolated" 
d="M2680 0h-90v1278h90v-1278zM1816 92q121 0 185.5 36t89.5 109t25 182v859h91v-859q0 -208 -89.5 -313.5t-301.5 -105.5q-23 0 -23 46t23 46zM1439 2039h64v-336h-64v336zM1465 1426q-11 -104 -114 -104q-118 0 -118 126q0 64 32 157l50 -17q-12 -40 -19 -72.5t-7 -57.5
q0 -74 71 -74q47 0 64.5 33t17.5 120v13h54v-13q0 -87 18.5 -120t64.5 -33q70 0 70 74q0 52 -25 130l50 17q32 -93 32 -157q0 -126 -117 -126q-103 0 -114 104h-10zM1464 244q-17 -119 -106 -181.5t-234 -62.5q-23 0 -23 46t23 46q131 0 195 42t84.5 119.5t20.5 182.5v701
h90v-694q0 -106 20 -185t84.5 -122.5t195.5 -43.5h1v-92h-1q-142 0 -232.5 63t-107.5 181h-10zM728 796l-8 150l89 5l33 -537q8 -129 34 -198.5t84 -96.5t163 -27h1v-92h-1q-139 0 -215.5 48t-112.5 145q-55 -22 -117 -32.5t-123 -10.5q-96 0 -179 27t-134 83t-51 142
q0 152 145 255.5t392 138.5zM733 706q-209 -25 -330.5 -101.5t-121.5 -189.5q0 -62 39 -101t103.5 -57t138.5 -18q112 0 209 34q-7 30 -11 62.5t-6 68.5z" />
    <glyph glyph-name="uniFE71" unicode="&#x640;&#x64b;" horiz-adv-x="898" arabic-form="medial" 
d="M668 1128l19 -59l-453 -143l-19 60zM668 904l19 -59l-453 -143l-19 60zM0 92h898v-92h-898q-23 0 -23 46t23 46z" />
    <glyph glyph-name="uniFE77" unicode="&#x640;&#x64e;" horiz-adv-x="898" arabic-form="medial" 
d="M668 904l19 -59l-453 -143l-19 60zM0 92h898v-92h-898q-23 0 -23 46t23 46z" />
    <glyph glyph-name="uniFE79" unicode="&#x640;&#x64f;" horiz-adv-x="898" arabic-form="medial" 
d="M538 1279q62 0 99 -46t37 -120q0 -89 -55.5 -156.5t-152 -117t-220.5 -84.5l-18 58q71 19 152 53.5t137 72.5q-53 16 -106 52t-53 106q0 43 24 84.5t65 69.5t91 28zM532 1220q-44 0 -80.5 -37t-36.5 -85q0 -53 50.5 -78.5t98.5 -36.5q48 59 48 127q0 44 -19.5 77
t-60.5 33zM0 92h898v-92h-898q-23 0 -23 46t23 46z" />
    <glyph glyph-name="uniFE7B" unicode="&#x640;&#x650;" horiz-adv-x="898" arabic-form="medial" 
d="M661 -317l19 -59l-453 -143l-19 60zM0 92h898v-92h-898q-23 0 -23 46t23 46z" />
    <glyph glyph-name="uniFE7D" unicode="&#x640;&#x651;" horiz-adv-x="898" arabic-form="medial" 
d="M0 92h898v-92h-898q-23 0 -23 46t23 46zM445 781q-11 -104 -114 -104q-118 0 -118 126q0 64 32 157l50 -17q-12 -40 -19 -72.5t-7 -57.5q0 -74 71 -74q47 0 64.5 33t17.5 120v13h54v-13q0 -87 18.5 -120t64.5 -33q70 0 70 74q0 52 -25 130l50 17q32 -93 32 -157
q0 -126 -117 -126q-103 0 -114 104h-10z" />
    <glyph glyph-name="uniFE7F" unicode="&#x640;&#x652;" horiz-adv-x="898" arabic-form="medial" 
d="M434 993q70 0 113.5 -43t43.5 -114t-43 -114.5t-114 -43.5t-114 43.5t-43 114.5t43 114t114 43zM434 935q-100 0 -100 -99q0 -102 100 -102q47 0 73.5 28t26.5 74q0 99 -100 99zM0 92h898v-92h-898q-23 0 -23 46t23 46z" />
    <glyph glyph-name="uniFEF5" unicode="&#xfedf;&#xfe82;" horiz-adv-x="1176" arabic-form="isolated" 
d="M-11 1486q77 113 161 113q26 0 51 -9t60 -33q54 -35 84 -35q56 0 112 88l51 -34q-70 -118 -160 -118q-44 0 -107 40q-58 38 -87 38q-54 0 -115 -85zM718 675q99 95 144 205t45 256v142h91v-142q0 -161 -54.5 -287t-170.5 -233q112 -115 168.5 -208t56.5 -173
q0 -78 -54.5 -133t-149.5 -83.5t-217 -28.5q-97 0 -199.5 16t-206.5 44v227l491 346l-537 574l65 63zM712 571l-449 -327v-125q83 -19 164 -27.5t157 -8.5q161 0 244.5 45.5t83.5 111.5q0 54 -47.5 136.5t-152.5 194.5z" />
    <glyph glyph-name="uniFEF6" unicode="&#xfee0;&#xfe82;" horiz-adv-x="1429" arabic-form="final" 
d="M-11 1556q77 113 161 113q26 0 51 -9t60 -33q54 -35 84 -35q56 0 112 88l51 -34q-70 -118 -160 -118q-44 0 -107 40q-58 38 -87 38q-54 0 -115 -85zM176 1272l83 30q69 -157 112.5 -307t65.5 -307t25 -337l-89 -5q-3 257 -49.5 477.5t-147.5 448.5zM1028 1278h90v-881
q0 -168 70.5 -236.5t239.5 -68.5h1v-92h-1q-193 0 -289.5 91.5t-101.5 280.5v66q-148 -221 -377.5 -329.5t-554.5 -108.5v92q323 0 541.5 107t381.5 345v734z" />
    <glyph glyph-name="uniFEF7" unicode="&#xfedf;&#xfe84;" horiz-adv-x="1176" arabic-form="isolated" 
d="M489 1819l-21 -54q-40 19 -82 19q-61 0 -100.5 -35t-39.5 -91q0 -51 34 -79.5t90 -28.5q40 0 89 15l99 31l18 -57l-452 -144l-18 60l186 54v10q-46 16 -74 54t-28 87q0 78 57 131.5t141 53.5q27 0 52 -7.5t49 -18.5zM718 675q99 95 144 205t45 256v142h91v-142
q0 -161 -54.5 -287t-170.5 -233q112 -115 168.5 -208t56.5 -173q0 -78 -54.5 -133t-149.5 -83.5t-217 -28.5q-97 0 -199.5 16t-206.5 44v227l491 346l-537 574l65 63zM712 571l-449 -327v-125q83 -19 164 -27.5t157 -8.5q161 0 244.5 45.5t83.5 111.5q0 54 -47.5 136.5
t-152.5 194.5z" />
    <glyph glyph-name="uniFEF8" unicode="&#xfee0;&#xfe84;" horiz-adv-x="1429" arabic-form="final" 
d="M489 1889l-21 -54q-40 19 -82 19q-61 0 -100.5 -35t-39.5 -91q0 -51 34 -79.5t90 -28.5q40 0 89 15l99 31l18 -57l-452 -144l-18 60l186 54v10q-46 16 -74 54t-28 87q0 78 57 131.5t141 53.5q27 0 52 -7.5t49 -18.5zM176 1272l83 30q69 -157 112.5 -307t65.5 -307
t25 -337l-89 -5q-3 257 -49.5 477.5t-147.5 448.5zM1028 1278h90v-881q0 -168 70.5 -236.5t239.5 -68.5h1v-92h-1q-193 0 -289.5 91.5t-101.5 280.5v66q-148 -221 -377.5 -329.5t-554.5 -108.5v92q323 0 541.5 107t381.5 345v734z" />
    <glyph glyph-name="uniFEF9" unicode="&#xfedf;&#xfe88;" horiz-adv-x="1176" arabic-form="isolated" 
d="M481 -164l-21 -54q-40 19 -82 19q-61 0 -100.5 -35t-39.5 -91q0 -51 34 -79.5t90 -28.5q40 0 89 15l99 31l18 -57l-452 -144l-18 60l186 54v10q-46 16 -74 54t-28 87q0 78 57 131.5t141 53.5q27 0 52 -7.5t49 -18.5zM718 675q99 95 144 205t45 256v142h91v-142
q0 -161 -54.5 -287t-170.5 -233q112 -115 168.5 -208t56.5 -173q0 -78 -54.5 -133t-149.5 -83.5t-217 -28.5q-97 0 -199.5 16t-206.5 44v227l491 346l-537 574l65 63zM712 571l-449 -327v-125q83 -19 164 -27.5t157 -8.5q161 0 244.5 45.5t83.5 111.5q0 54 -47.5 136.5
t-152.5 194.5z" />
    <glyph glyph-name="uniFEFA" unicode="&#xfee0;&#xfe88;" horiz-adv-x="1429" arabic-form="final" 
d="M481 -214l-21 -54q-40 19 -82 19q-61 0 -100.5 -35t-39.5 -91q0 -51 34 -79.5t90 -28.5q40 0 89 15l99 31l18 -57l-452 -144l-18 60l186 54v10q-46 16 -74 54t-28 87q0 78 57 131.5t141 53.5q27 0 52 -7.5t49 -18.5zM176 1272l83 30q69 -157 112.5 -307t65.5 -307
t25 -337l-89 -5q-3 257 -49.5 477.5t-147.5 448.5zM1028 1278h90v-881q0 -168 70.5 -236.5t239.5 -68.5h1v-92h-1q-193 0 -289.5 91.5t-101.5 280.5v66q-148 -221 -377.5 -329.5t-554.5 -108.5v92q323 0 541.5 107t381.5 345v734z" />
    <glyph glyph-name="uniFEFB" unicode="&#xfedf;&#xfe8e;" horiz-adv-x="1176" arabic-form="isolated" 
d="M718 675q99 95 144 205t45 256v142h91v-142q0 -161 -54.5 -287t-170.5 -233q112 -115 168.5 -208t56.5 -173q0 -78 -54.5 -133t-149.5 -83.5t-217 -28.5q-97 0 -199.5 16t-206.5 44v227l491 346l-537 574l65 63zM712 571l-449 -327v-125q83 -19 164 -27.5t157 -8.5
q161 0 244.5 45.5t83.5 111.5q0 54 -47.5 136.5t-152.5 194.5z" />
    <glyph glyph-name="uniFEFC" unicode="&#xfee0;&#xfe8e;" horiz-adv-x="1429" arabic-form="final" 
d="M176 1272l83 30q69 -157 112.5 -307t65.5 -307t25 -337l-89 -5q-3 257 -49.5 477.5t-147.5 448.5zM1028 1278h90v-881q0 -168 70.5 -236.5t239.5 -68.5h1v-92h-1q-193 0 -289.5 91.5t-101.5 280.5v66q-148 -221 -377.5 -329.5t-554.5 -108.5v92q323 0 541.5 107
t381.5 345v734z" />
    <glyph glyph-name="uniFEDF_uniFB51.rlig" unicode="&#xfedf;&#xfb51;" horiz-adv-x="1176" 
d="M238 1623q77 82 121.5 112.5t90.5 30.5q53 0 84.5 -33.5t31.5 -87.5q0 -67 -46 -109.5t-120 -42.5q-34 0 -68.5 12.5t-87.5 43.5q-39 24 -62 33t-43 9q-36 0 -62 -27t-67 -104l-46 28q42 91 82.5 131.5t89.5 40.5q20 0 40 -7.5t62 -29.5zM282 1599q43 -22 68.5 -31
t50.5 -9q110 0 110 81q0 31 -19.5 50t-51.5 19q-30 0 -60 -21t-98 -89zM718 675q99 95 144 205t45 256v142h91v-142q0 -161 -54.5 -287t-170.5 -233q112 -115 168.5 -208t56.5 -173q0 -78 -54.5 -133t-149.5 -83.5t-217 -28.5q-97 0 -199.5 16t-206.5 44v227l491 346
l-537 574l65 63zM712 571l-449 -327v-125q83 -19 164 -27.5t157 -8.5q161 0 244.5 45.5t83.5 111.5q0 54 -47.5 136.5t-152.5 194.5z" />
    <glyph glyph-name="uniFEE0_uniFB51.rlig" unicode="&#xfee0;&#xfb51;" horiz-adv-x="1429" 
d="M238 1693q77 82 121.5 112.5t90.5 30.5q53 0 84.5 -33.5t31.5 -87.5q0 -67 -46 -109.5t-120 -42.5q-34 0 -68.5 12.5t-87.5 43.5q-39 24 -62 33t-43 9q-36 0 -62 -27t-67 -104l-46 28q42 91 82.5 131.5t89.5 40.5q20 0 40 -7.5t62 -29.5zM282 1669q43 -22 68.5 -31
t50.5 -9q110 0 110 81q0 31 -19.5 50t-51.5 19q-30 0 -60 -21t-98 -89zM176 1272l83 30q69 -157 112.5 -307t65.5 -307t25 -337l-89 -5q-3 257 -49.5 477.5t-147.5 448.5zM1028 1278h90v-881q0 -168 70.5 -236.5t239.5 -68.5h1v-92h-1q-193 0 -289.5 91.5t-101.5 280.5v66
q-148 -221 -377.5 -329.5t-554.5 -108.5v92q323 0 541.5 107t381.5 345v734z" />
    <glyph glyph-name="uni0620.init" unicode="&#x620;" horiz-adv-x="574" 
d="M166 -239q70 0 113.5 -43t43.5 -114t-43 -114.5t-114 -43.5t-114 43.5t-43 114.5t43 114t114 43zM166 -297q-100 0 -100 -99q0 -102 100 -102q47 0 73.5 28t26.5 74q0 99 -100 99zM393 720q26 -99 42 -189t16 -164q0 -175 -91 -271t-302 -96h-58q-23 0 -23 46t23 46h58
q169 0 238.5 69t69.5 200q0 68 -16.5 153t-40.5 183z" />
    <glyph glyph-name="uni0620.medi" unicode="&#x620;" horiz-adv-x="850" 
d="M163 -239q70 0 113.5 -43t43.5 -114t-43 -114.5t-114 -43.5t-114 43.5t-43 114.5t43 114t114 43zM163 -297q-100 0 -100 -99q0 -102 100 -102q47 0 73.5 28t26.5 74q0 99 -100 99zM472 443q0 -108 22.5 -186.5t85 -121.5t181.5 -43h89v-92h-92q-127 0 -215.5 62.5
t-113.5 180.5h-10q-24 -120 -126.5 -181.5t-235.5 -61.5h-57q-23 0 -23 46t23 46h57q135 0 204.5 43t94 122t24.5 186v116h92v-116z" />
    <glyph glyph-name="uni0620.fina" unicode="&#x620;" horiz-adv-x="1422" 
d="M721 -770q70 0 113.5 -43t43.5 -114t-43 -114.5t-114 -43.5t-114 43.5t-43 114.5t43 114t114 43zM721 -828q-100 0 -100 -99q0 -102 100 -102q47 0 73.5 28t26.5 74q0 99 -100 99zM1036 -10q159 -49 222.5 -99.5t63.5 -136.5q0 -92 -79 -163t-218 -111.5t-319 -40.5
q-299 0 -440.5 119t-141.5 372q0 76 13 195.5t35 270.5l86 -17q-46 -297 -46 -446q0 -214 114.5 -308t376.5 -94q156 0 274.5 29.5t185 81.5t66.5 121q0 48 -40.5 82t-146.5 67.5t-302 76.5l12 103h670v-92h-386v-10z" />
    <glyph glyph-name="uni063B.init" unicode="&#x63b;" horiz-adv-x="807" 
d="M359 1501l109 109l109 -109l-109 -109zM41 1416l109 109l109 -109l-109 -109zM824 1248l18 -92q-237 -60 -412.5 -115.5t-300.5 -108.5l-1 -9q185 -136 299.5 -238.5t168 -188t53.5 -170.5q0 -157 -139.5 -241.5t-400.5 -84.5h-109q-23 0 -23 46t23 46h108
q221 0 336 61.5t115 177.5q0 106 -125 231.5t-394 319.5l10 110q153 66 353.5 132.5t420.5 123.5z" />
    <glyph glyph-name="uni063B.medi" unicode="&#x63b;" horiz-adv-x="1127" 
d="M359 1501l109 109l109 -109l-109 -109zM41 1416l109 109l109 -109l-109 -109zM620 343q16 -178 -114 -260.5t-397 -82.5h-109q-23 0 -23 46t23 46h108q231 0 340.5 63t109.5 175q0 61 -49.5 137.5t-162.5 178t-306 236.5l10 110q158 68 359.5 134.5t414.5 121.5l18 -92
q-226 -57 -404 -112.5t-309 -111.5l-1 -9q161 -118 263.5 -205.5t169 -163.5t117.5 -162q68 -114 125.5 -179.5t131.5 -93t191 -27.5h1v-92h-1q-132 0 -224.5 33.5t-157 108.5t-114.5 201h-10z" />
    <glyph glyph-name="uni063B.fina" unicode="&#x63b;" horiz-adv-x="1971" 
d="M1193 1501l109 109l109 -109l-109 -109zM875 1416l109 109l109 -109l-109 -109zM1464 343q16 -175 -152.5 -259t-535.5 -84q-234 0 -376.5 41t-207 131.5t-64.5 239.5q0 123 42 307l85 -22q-42 -178 -42 -281q0 -119 55.5 -190t180.5 -102.5t335 -31.5q314 0 465 59
t151 181q0 192 -518 550l10 110q158 68 359.5 134.5t415.5 121.5l17 -92q-226 -57 -403.5 -112.5t-308.5 -111.5l-1 -9q124 -92 211 -162.5t148.5 -130t106.5 -116.5t84 -123q71 -121 131 -185.5t133.5 -89t184.5 -24.5h1v-92h-1q-133 0 -225.5 33t-156.5 108.5t-114 201.5
h-10z" />
    <glyph glyph-name="uni063C.init" unicode="&#x63c;" horiz-adv-x="807" 
d="M577 -368l108 108l109 -108l-109 -109zM229 -368l108 108l109 -108l-109 -109zM404 -665l108 108l109 -108l-109 -109zM824 1248l18 -92q-237 -60 -412.5 -115.5t-300.5 -108.5l-1 -9q185 -136 299.5 -238.5t168 -188t53.5 -170.5q0 -157 -139.5 -241.5t-400.5 -84.5
h-109q-23 0 -23 46t23 46h108q221 0 336 61.5t115 177.5q0 106 -125 231.5t-394 319.5l10 110q153 66 353.5 132.5t420.5 123.5z" />
    <glyph glyph-name="uni063C.medi" unicode="&#x63c;" horiz-adv-x="1127" 
d="M577 -368l108 108l109 -108l-109 -109zM229 -368l108 108l109 -108l-109 -109zM404 -665l108 108l109 -108l-109 -109zM620 343q16 -178 -114 -260.5t-397 -82.5h-109q-23 0 -23 46t23 46h108q231 0 340.5 63t109.5 175q0 61 -49.5 137.5t-162.5 178t-306 236.5l10 110
q158 68 359.5 134.5t414.5 121.5l18 -92q-226 -57 -404 -112.5t-309 -111.5l-1 -9q161 -118 263.5 -205.5t169 -163.5t117.5 -162q68 -114 125.5 -179.5t131.5 -93t191 -27.5h1v-92h-1q-132 0 -224.5 33.5t-157 108.5t-114.5 201h-10z" />
    <glyph glyph-name="uni063C.fina" unicode="&#x63c;" horiz-adv-x="1971" 
d="M831 -368l108 108l109 -108l-109 -109zM483 -368l108 108l109 -108l-109 -109zM658 -665l108 108l109 -108l-109 -109zM1464 343q16 -175 -152.5 -259t-535.5 -84q-234 0 -376.5 41t-207 131.5t-64.5 239.5q0 123 42 307l85 -22q-42 -178 -42 -281q0 -119 55.5 -190
t180.5 -102.5t335 -31.5q314 0 465 59t151 181q0 192 -518 550l10 110q158 68 359.5 134.5t415.5 121.5l17 -92q-226 -57 -403.5 -112.5t-308.5 -111.5l-1 -9q124 -92 211 -162.5t148.5 -130t106.5 -116.5t84 -123q71 -121 131 -185.5t133.5 -89t184.5 -24.5h1v-92h-1
q-133 0 -225.5 33t-156.5 108.5t-114 201.5h-10z" />
    <glyph glyph-name="uni063D.init" unicode="&#x63d;" horiz-adv-x="574" 
d="M264 1342h48l213 -264l-48 -40l-189 236l-189 -236l-48 40zM393 720q26 -99 42 -189t16 -164q0 -175 -91 -271t-302 -96h-58q-23 0 -23 46t23 46h58q169 0 238.5 69t69.5 200q0 68 -16.5 153t-40.5 183zM-142 -369l108 108l109 -108l-109 -109zM206 -369l108 108
l109 -108l-109 -109z" />
    <glyph glyph-name="uni063D.medi" unicode="&#x63d;" horiz-adv-x="850" 
d="M267 1126h48l213 -264l-48 -40l-189 236l-189 -236l-48 40zM472 443q0 -108 22.5 -186.5t85 -121.5t181.5 -43h89v-92h-92q-127 0 -215.5 62.5t-113.5 180.5h-10q-24 -120 -126.5 -181.5t-235.5 -61.5h-57q-23 0 -23 46t23 46h57q135 0 204.5 43t94 122t24.5 186v116h92
v-116zM-174 -369l108 108l109 -108l-109 -109zM174 -369l108 108l109 -108l-109 -109z" />
    <glyph glyph-name="uni063D.fina" unicode="&#x63d;" horiz-adv-x="1422" 
d="M787 727h48l213 -264l-48 -40l-189 236l-189 -236l-48 40zM1036 -10q159 -49 222.5 -99.5t63.5 -136.5q0 -92 -79 -163t-218 -111.5t-319 -40.5q-299 0 -440.5 119t-141.5 372q0 76 13 195.5t35 270.5l86 -17q-46 -297 -46 -446q0 -214 114.5 -308t376.5 -94
q156 0 274.5 29.5t185 81.5t66.5 121q0 48 -40.5 82t-146.5 67.5t-302 76.5l12 103h670v-92h-386v-10z" />
    <glyph glyph-name="uni063E.init" unicode="&#x63e;" horiz-adv-x="574" 
d="M-26 1117l108 108l109 -108l-109 -109zM322 1117l108 108l109 -108l-109 -109zM393 720q26 -99 42 -189t16 -164q0 -175 -91 -271t-302 -96h-58q-23 0 -23 46t23 46h58q169 0 238.5 69t69.5 200q0 68 -16.5 153t-40.5 183zM-142 -369l108 108l109 -108l-109 -109z
M206 -369l108 108l109 -108l-109 -109z" />
    <glyph glyph-name="uni063E.medi" unicode="&#x63e;" horiz-adv-x="850" 
d="M44 951l108 108l109 -108l-109 -109zM392 951l108 108l109 -108l-109 -109zM472 443q0 -108 22.5 -186.5t85 -121.5t181.5 -43h89v-92h-92q-127 0 -215.5 62.5t-113.5 180.5h-10q-24 -120 -126.5 -181.5t-235.5 -61.5h-57q-23 0 -23 46t23 46h57q135 0 204.5 43t94 122
t24.5 186v116h92v-116zM-174 -369l108 108l109 -108l-109 -109zM174 -369l108 108l109 -108l-109 -109z" />
    <glyph glyph-name="uni063E.fina" unicode="&#x63e;" horiz-adv-x="1422" 
d="M534 541l108 108l109 -108l-109 -109zM882 541l108 108l109 -108l-109 -109zM1036 -10q159 -49 222.5 -99.5t63.5 -136.5q0 -92 -79 -163t-218 -111.5t-319 -40.5q-299 0 -440.5 119t-141.5 372q0 76 13 195.5t35 270.5l86 -17q-46 -297 -46 -446q0 -214 114.5 -308
t376.5 -94q156 0 274.5 29.5t185 81.5t66.5 121q0 48 -40.5 82t-146.5 67.5t-302 76.5l12 103h670v-92h-386v-10z" />
    <glyph glyph-name="uni063F.init" unicode="&#x63f;" horiz-adv-x="574" 
d="M148 1414l108 108l109 -108l-109 -109zM322 1117l108 108l109 -108l-109 -109zM-26 1117l108 108l109 -108l-109 -109zM393 720q26 -99 42 -189t16 -164q0 -175 -91 -271t-302 -96h-58q-23 0 -23 46t23 46h58q169 0 238.5 69t69.5 200q0 68 -16.5 153t-40.5 183z
M-142 -369l108 108l109 -108l-109 -109zM206 -369l108 108l109 -108l-109 -109z" />
    <glyph glyph-name="uni063F.medi" unicode="&#x63f;" horiz-adv-x="850" 
d="M218 1248l108 108l109 -108l-109 -109zM392 951l108 108l109 -108l-109 -109zM44 951l108 108l109 -108l-109 -109zM472 443q0 -108 22.5 -186.5t85 -121.5t181.5 -43h89v-92h-92q-127 0 -215.5 62.5t-113.5 180.5h-10q-24 -120 -126.5 -181.5t-235.5 -61.5h-57
q-23 0 -23 46t23 46h57q135 0 204.5 43t94 122t24.5 186v116h92v-116zM-174 -369l108 108l109 -108l-109 -109zM174 -369l108 108l109 -108l-109 -109z" />
    <glyph glyph-name="uni063F.fina" unicode="&#x63f;" horiz-adv-x="1422" 
d="M708 838l108 108l109 -108l-109 -109zM882 541l108 108l109 -108l-109 -109zM534 541l108 108l109 -108l-109 -109zM1036 -10q159 -49 222.5 -99.5t63.5 -136.5q0 -92 -79 -163t-218 -111.5t-319 -40.5q-299 0 -440.5 119t-141.5 372q0 76 13 195.5t35 270.5l86 -17
q-46 -297 -46 -446q0 -214 114.5 -308t376.5 -94q156 0 274.5 29.5t185 81.5t66.5 121q0 48 -40.5 82t-146.5 67.5t-302 76.5l12 103h670v-92h-386v-10z" />
    <glyph glyph-name="uni06A1.init" unicode="&#x66f;" horiz-adv-x="959" 
d="M0 92h353q213 0 304.5 77t91.5 252q-152 -38 -284 -38q-311 0 -311 260q0 127 41 224.5t112.5 153t164.5 55.5q112 0 193.5 -80t126 -226t44.5 -346q0 -220 -122 -322t-386 -102h-328q-23 0 -23 46t23 46zM743 508q-12 225 -84.5 351t-189.5 126q-100 0 -166 -95
t-66 -240q0 -180 229 -180q56 0 127.5 10t149.5 28z" />
    <glyph glyph-name="uni06A1.medi" unicode="&#x66f;" horiz-adv-x="968" 
d="M150 504q0 168 94.5 260.5t239.5 92.5q143 0 238.5 -93t95.5 -260q0 -131 -71 -220t-172 -142l1 -10q58 -20 125 -30t136 -10h131v-92h-148q-98 0 -176 20t-161 60q-82 -40 -161.5 -60t-179.5 -20h-142q-23 0 -23 46t23 46h130q142 0 265 40l1 10q-103 53 -174.5 142.5
t-71.5 219.5zM484 168q108 50 176 130.5t68 206.5q0 122 -68.5 194t-175.5 72q-108 0 -176.5 -72t-68.5 -194q0 -125 68.5 -206t176.5 -131z" />
    <glyph glyph-name="uni066F.fina" unicode="&#x66f;" horiz-adv-x="1484" 
d="M1028 694q99 0 166.5 -55.5t109 -146t62 -196t24.5 -204.5h94v-92h-95q-7 -268 -172 -412.5t-472 -144.5q-621 0 -621 513q0 71 12.5 176.5t36.5 244.5l88 -18q-25 -139 -36.5 -238t-11.5 -167q0 -223 136 -320t402 -97q257 0 403.5 116t154.5 341l-6 7q-69 -1 -137 -1
h-136q-146 0 -235.5 63t-89.5 212q0 107 36 203t108 156t179 60zM1027 602q-82 0 -135.5 -48t-79 -122t-25.5 -151q0 -110 66.5 -150.5t178.5 -40.5h273q-3 77 -17.5 165t-45.5 167.5t-83.5 129.5t-131.5 50z" />
    <glyph glyph-name="uni0672.fina" unicode="&#x672;" horiz-adv-x="586" 
d="M181 1127h91v-730q0 -161 67.5 -233t245.5 -72h1v-92h-1q-404 0 -404 396v731zM414 1697q-27 8 -52 8q-59 0 -95 -33.5t-36 -83.5q0 -42 29.5 -76t88.5 -34q22 0 46.5 5t49.5 12l37 12l17 -58l-208 -66q-36 -12 -65 -12q-36 0 -73 19q-13 8 -24.5 13t-23.5 5
q-22 0 -34.5 -16.5t-22.5 -39.5l-55 26q19 40 42.5 65.5t65.5 25.5q31 0 51.5 -14t49 -21.5t83.5 11.5l-1 10q-57 8 -86 47t-29 85q0 74 53.5 127.5t135.5 53.5q31 0 70 -11l30 -7l-14 -59z" />
    <glyph glyph-name="uni0673.fina" unicode="&#x673;" horiz-adv-x="586" 
d="M437 -228q-27 8 -52 8q-59 0 -95 -33.5t-36 -83.5q0 -42 29.5 -76t88.5 -34q22 0 46.5 5t49.5 12l37 12l17 -58l-208 -66q-36 -12 -65 -12q-36 0 -73 19q-13 8 -24.5 13t-23.5 5q-22 0 -34.5 -16.5t-22.5 -39.5l-55 26q19 40 42.5 65.5t65.5 25.5q31 0 51.5 -14t49 -21.5
t83.5 11.5l-1 10q-57 8 -86 47t-29 85q0 74 53.5 127.5t135.5 53.5q31 0 70 -11l30 -7l-14 -59zM181 1278h91v-881q0 -161 67.5 -233t245.5 -72h1v-92h-1q-404 0 -404 396v882z" />
    <glyph glyph-name="uni0675.fina" unicode="&#x675;" horiz-adv-x="988" 
d="M183 1278h90v-881q0 -161 67 -233t245 -72h404v-92h-404q-402 0 -402 396v882zM758 1416l-21 -54q-40 19 -82 19q-61 0 -100.5 -35t-39.5 -91q0 -51 34 -79.5t90 -28.5q40 0 89 15l99 31l18 -57l-452 -144l-18 60l186 54v10q-46 16 -74 54t-28 87q0 78 57 131.5t141 53.5
q27 0 52 -7.5t49 -18.5z" />
    <glyph glyph-name="uni0676.fina" unicode="&#x676;" horiz-adv-x="923" 
d="M865 1357l-21 -54q-40 19 -82 19q-61 0 -100.5 -35t-39.5 -91q0 -51 34 -79.5t90 -28.5q40 0 89 15l99 31l18 -57l-452 -144l-18 60l186 54v10q-46 16 -74 54t-28 87q0 78 57 131.5t141 53.5q27 0 52 -7.5t49 -18.5zM748 -6l-6 7q-69 -1 -137 -1h-136q-146 0 -235.5 64
t-89.5 212q0 104 35.5 200t107 157t180.5 61q100 0 167.5 -56.5t109 -147t61.5 -195.5t24 -203h94v-92h-96q-13 -194 -199 -324t-499 -206l-30 88q299 68 466 178t183 258zM744 90q-3 77 -17.5 165t-45.5 167.5t-83.5 129.5t-131.5 50q-82 0 -135 -48t-78.5 -121.5
t-25.5 -150.5q0 -111 66 -151.5t178 -40.5h273z" />
    <glyph glyph-name="uni0677.fina" unicode="&#x677;" horiz-adv-x="923" 
d="M296 1452q62 0 99 -46t37 -120q0 -89 -55.5 -156.5t-152 -117t-220.5 -84.5l-18 58q71 19 152 53.5t137 72.5q-53 16 -106 52t-53 106q0 43 24 84.5t65 69.5t91 28zM290 1393q-44 0 -80.5 -37t-36.5 -85q0 -53 50.5 -78.5t98.5 -36.5q48 59 48 127q0 44 -19.5 77
t-60.5 33zM865 1357l-21 -54q-40 19 -82 19q-61 0 -100.5 -35t-39.5 -91q0 -51 34 -79.5t90 -28.5q40 0 89 15l99 31l18 -57l-452 -144l-18 60l186 54v10q-46 16 -74 54t-28 87q0 78 57 131.5t141 53.5q27 0 52 -7.5t49 -18.5zM748 -6l-6 7q-69 -1 -137 -1h-136
q-146 0 -235.5 64t-89.5 212q0 104 35.5 200t107 157t180.5 61q100 0 167.5 -56.5t109 -147t61.5 -195.5t24 -203h94v-92h-96q-13 -194 -199 -324t-499 -206l-30 88q299 68 466 178t183 258zM744 90q-3 77 -17.5 165t-45.5 167.5t-83.5 129.5t-131.5 50q-82 0 -135 -48
t-78.5 -121.5t-25.5 -150.5q0 -111 66 -151.5t178 -40.5h273z" />
    <glyph glyph-name="uni0678.fina" unicode="&#x678;" horiz-adv-x="1422" 
d="M1230 743l-21 -54q-40 19 -82 19q-61 0 -100.5 -35t-39.5 -91q0 -51 34 -79.5t90 -28.5q40 0 89 15l99 31l18 -57l-452 -144l-18 60l186 54v10q-46 16 -74 54t-28 87q0 78 57 131.5t141 53.5q27 0 52 -7.5t49 -18.5zM1036 -10q159 -49 222.5 -99.5t63.5 -136.5
q0 -92 -79 -163t-218 -111.5t-319 -40.5q-299 0 -440.5 119t-141.5 372q0 76 13 195.5t35 270.5l86 -17q-46 -297 -46 -446q0 -214 114.5 -308t376.5 -94q156 0 274.5 29.5t185 81.5t66.5 121q0 48 -40.5 82t-146.5 67.5t-302 76.5l12 103h670v-92h-386v-10z" />
    <glyph glyph-name="uni067C.init" unicode="&#x67c;" horiz-adv-x="574" 
d="M0 48q76 0 120 -43.5t44 -119.5q0 -74 -44.5 -118.5t-119.5 -44.5t-119.5 44t-44.5 119t45 119t119 44zM0 0q-108 0 -108 -106q0 -107 108 -107t108 107q0 106 -108 106zM393 720q26 -99 42 -189t16 -164q0 -175 -91 -271t-302 -96h-58q-23 0 -23 46t23 46h58
q169 0 238.5 69t69.5 200q0 68 -16.5 153t-40.5 183zM-26 1117l108 108l109 -108l-109 -109zM322 1117l108 108l109 -108l-109 -109z" />
    <glyph glyph-name="uni067C.medi" unicode="&#x67c;" horiz-adv-x="850" 
d="M0 48q76 0 120 -43.5t44 -119.5q0 -74 -44.5 -118.5t-119.5 -44.5t-119.5 44t-44.5 119t45 119t119 44zM0 0q-108 0 -108 -106q0 -107 108 -107t108 107q0 106 -108 106zM472 443q0 -108 22.5 -186.5t85 -121.5t181.5 -43h89v-92h-92q-127 0 -215.5 62.5t-113.5 180.5
h-10q-24 -120 -126.5 -181.5t-235.5 -61.5h-57q-23 0 -23 46t23 46h57q135 0 204.5 43t94 122t24.5 186v116h92v-116zM44 951l108 108l109 -108l-109 -109zM392 951l108 108l109 -108l-109 -109z" />
    <glyph glyph-name="uni067C.fina" unicode="&#x67c;" horiz-adv-x="1942" 
d="M776 48q76 0 120 -43.5t44 -119.5q0 -74 -44.5 -118.5t-119.5 -44.5t-119.5 44t-44.5 119t45 119t119 44zM776 0q-108 0 -108 -106q0 -107 108 -107t108 107q0 106 -108 106zM1661 586q-11 -65 -19 -122.5t-8 -120.5q0 -71 23.5 -128t89.5 -90t194 -33h1v-92h-1
q-345 0 -377 286h-10q-88 -163 -287.5 -224.5t-483.5 -61.5q-352 0 -505.5 116.5t-153.5 329.5q0 68 15 144.5t42 154.5l84 -29q-26 -73 -40.5 -141.5t-14.5 -127.5q0 -177 139 -266t452 -89q211 0 352 29.5t227 91t131.5 157.5t64.5 228zM617 775l108 108l109 -108
l-109 -109zM965 775l108 108l109 -108l-109 -109z" />
    <glyph glyph-name="uni067D.init" unicode="&#x67d;" horiz-adv-x="574" 
d="M298 1411l108 108l109 -108l-109 -109zM-50 1411l108 108l109 -108l-109 -109zM125 1114l108 108l109 -108l-109 -109zM393 720q26 -99 42 -189t16 -164q0 -175 -91 -271t-302 -96h-58q-23 0 -23 46t23 46h58q169 0 238.5 69t69.5 200q0 68 -16.5 153t-40.5 183z" />
    <glyph glyph-name="uni067D.medi" unicode="&#x67d;" horiz-adv-x="850" 
d="M386 1249l108 108l109 -108l-109 -109zM38 1249l108 108l109 -108l-109 -109zM213 952l108 108l109 -108l-109 -109zM472 443q0 -108 22.5 -186.5t85 -121.5t181.5 -43h89v-92h-92q-127 0 -215.5 62.5t-113.5 180.5h-10q-24 -120 -126.5 -181.5t-235.5 -61.5h-57
q-23 0 -23 46t23 46h57q135 0 204.5 43t94 122t24.5 186v116h92v-116z" />
    <glyph glyph-name="uni067D.fina" unicode="&#x67d;" horiz-adv-x="1942" 
d="M964 1071l108 108l109 -108l-109 -109zM616 1071l108 108l109 -108l-109 -109zM791 774l108 108l109 -108l-109 -109zM1661 586q-11 -65 -19 -122.5t-8 -120.5q0 -71 23.5 -128t89.5 -90t194 -33h1v-92h-1q-345 0 -377 286h-10q-88 -163 -287.5 -224.5t-483.5 -61.5
q-352 0 -505.5 116.5t-153.5 329.5q0 68 15 144.5t42 154.5l84 -29q-26 -73 -40.5 -141.5t-14.5 -127.5q0 -177 139 -266t452 -89q211 0 352 29.5t227 91t131.5 157.5t64.5 228z" />
    <glyph glyph-name="uni0681.init" unicode="&#x681;" horiz-adv-x="1224" 
d="M683 1454l-21 -54q-40 19 -82 19q-61 0 -100.5 -35t-39.5 -91q0 -51 34 -79.5t90 -28.5q40 0 89 15l99 31l18 -57l-452 -144l-18 60l186 54v10q-46 16 -74 54t-28 87q0 78 57 131.5t141 53.5q27 0 52 -7.5t49 -18.5zM391 759q47 0 114.5 -21.5t199.5 -77.5
q125 -55 214.5 -87.5t181.5 -57.5v-92l-484 -267q-151 -84 -277 -120t-268 -36h-72q-23 0 -23 46t23 46h83q127 0 239 32t257 108l414 220v10q-70 18 -148.5 47t-182.5 74q-112 47 -173 66.5t-98 19.5q-68 0 -115 -47t-90 -157l-7 -15l-72 24l7 16q53 144 118 206.5
t159 62.5z" />
    <glyph glyph-name="uni0681.medi" unicode="&#x681;" horiz-adv-x="1271" 
d="M683 1454l-21 -54q-40 19 -82 19q-61 0 -100.5 -35t-39.5 -91q0 -51 34 -79.5t90 -28.5q40 0 89 15l99 31l18 -57l-452 -144l-18 60l186 54v10q-46 16 -74 54t-28 87q0 78 57 131.5t141 53.5q27 0 52 -7.5t49 -18.5zM391 759q47 0 115 -20t199 -79q125 -55 214.5 -87.5
t181.5 -57.5v-92l-255 -139v-10q77 -104 158 -143t183 -39h84v-92h-89q-115 0 -216.5 53t-193.5 189l-155 -86q-151 -83 -277 -119.5t-268 -36.5h-72q-23 0 -23 46t23 46h83q127 0 239 31.5t257 108.5l414 220v10q-70 18 -148.5 47.5t-182.5 73.5q-112 47 -173 66.5
t-98 19.5q-68 0 -114.5 -47t-90.5 -157l-7 -15l-72 24l7 16q54 143 118.5 206t158.5 63z" />
    <glyph glyph-name="uni0681.fina" unicode="&#x681;" horiz-adv-x="1326" 
d="M740 1497l-21 -54q-40 19 -82 19q-61 0 -100.5 -35t-39.5 -91q0 -51 34 -79.5t90 -28.5q40 0 89 15l99 31l18 -57l-452 -144l-18 60l186 54v10q-46 16 -74 54t-28 87q0 78 57 131.5t141 53.5q27 0 52 -7.5t49 -18.5zM444 761q51 0 122.5 -22.5t190.5 -75.5
q134 -60 224 -93.5t177 -56.5l-7 -119q-75 -10 -130.5 -19.5t-99.5 -20.5v-11q55 -133 137.5 -192t212.5 -59h55v-92h-55q-152 0 -254 80.5t-164 251.5q-195 -55 -340.5 -146t-225.5 -203.5t-80 -232.5q0 -109 66.5 -190t187.5 -125.5t285 -44.5q115 0 227 22t208 64l44 -83
q-232 -99 -481 -99q-189 0 -330 55.5t-218.5 156.5t-77.5 237q0 166 117.5 310t327.5 248.5t489 150.5v10q-65 17 -143 45.5t-193 77.5q-112 47 -174 66.5t-99 19.5q-68 0 -114.5 -46.5t-90.5 -156.5l-6 -16l-71 24l6 17q51 143 115.5 205.5t161.5 62.5z" />
    <glyph glyph-name="uni0682.init" unicode="&#x682;" horiz-adv-x="1224" 
d="M441 1498l108 108l109 -108l-109 -108zM441 1149l108 108l109 -108l-109 -109zM391 759q47 0 114.5 -21.5t199.5 -77.5q125 -55 214.5 -87.5t181.5 -57.5v-92l-484 -267q-151 -84 -277 -120t-268 -36h-72q-23 0 -23 46t23 46h83q127 0 239 32t257 108l414 220v10
q-70 18 -148.5 47t-182.5 74q-112 47 -173 66.5t-98 19.5q-68 0 -115 -47t-90 -157l-7 -15l-72 24l7 16q53 144 118 206.5t159 62.5z" />
    <glyph glyph-name="uni0682.medi" unicode="&#x682;" horiz-adv-x="1271" 
d="M441 1498l108 108l109 -108l-109 -108zM441 1149l108 108l109 -108l-109 -109zM391 759q47 0 115 -20t199 -79q125 -55 214.5 -87.5t181.5 -57.5v-92l-255 -139v-10q77 -104 158 -143t183 -39h84v-92h-89q-115 0 -216.5 53t-193.5 189l-155 -86q-151 -83 -277 -119.5
t-268 -36.5h-72q-23 0 -23 46t23 46h83q127 0 239 31.5t257 108.5l414 220v10q-70 18 -148.5 47.5t-182.5 73.5q-112 47 -173 66.5t-98 19.5q-68 0 -114.5 -47t-90.5 -157l-7 -15l-72 24l7 16q54 143 118.5 206t158.5 63z" />
    <glyph glyph-name="uni0682.fina" unicode="&#x682;" horiz-adv-x="1326" 
d="M499 1543l108 108l109 -108l-109 -108zM499 1194l108 108l109 -108l-109 -109zM444 761q51 0 122.5 -22.5t190.5 -75.5q134 -60 224 -93.5t177 -56.5l-7 -119q-75 -10 -130.5 -19.5t-99.5 -20.5v-11q55 -133 137.5 -192t212.5 -59h55v-92h-55q-152 0 -254 80.5
t-164 251.5q-195 -55 -340.5 -146t-225.5 -203.5t-80 -232.5q0 -109 66.5 -190t187.5 -125.5t285 -44.5q115 0 227 22t208 64l44 -83q-232 -99 -481 -99q-189 0 -330 55.5t-218.5 156.5t-77.5 237q0 166 117.5 310t327.5 248.5t489 150.5v10q-65 17 -143 45.5t-193 77.5
q-112 47 -174 66.5t-99 19.5q-68 0 -114.5 -46.5t-90.5 -156.5l-6 -16l-71 24l6 17q51 143 115.5 205.5t161.5 62.5z" />
    <glyph glyph-name="uni0685.init" unicode="&#x685;" horiz-adv-x="1224" 
d="M507 1410l108 108l109 -108l-109 -109zM681 1113l108 108l109 -108l-109 -109zM333 1113l108 108l109 -108l-109 -109zM391 759q47 0 114.5 -21.5t199.5 -77.5q125 -55 214.5 -87.5t181.5 -57.5v-92l-484 -267q-151 -84 -277 -120t-268 -36h-72q-23 0 -23 46t23 46h83
q127 0 239 32t257 108l414 220v10q-70 18 -148.5 47t-182.5 74q-112 47 -173 66.5t-98 19.5q-68 0 -115 -47t-90 -157l-7 -15l-72 24l7 16q53 144 118 206.5t159 62.5z" />
    <glyph glyph-name="uni0685.medi" unicode="&#x685;" horiz-adv-x="1271" 
d="M507 1410l108 108l109 -108l-109 -109zM681 1113l108 108l109 -108l-109 -109zM333 1113l108 108l109 -108l-109 -109zM391 759q47 0 115 -20t199 -79q125 -55 214.5 -87.5t181.5 -57.5v-92l-255 -139v-10q77 -104 158 -143t183 -39h84v-92h-89q-115 0 -216.5 53
t-193.5 189l-155 -86q-151 -83 -277 -119.5t-268 -36.5h-72q-23 0 -23 46t23 46h83q127 0 239 31.5t257 108.5l414 220v10q-70 18 -148.5 47.5t-182.5 73.5q-112 47 -173 66.5t-98 19.5q-68 0 -114.5 -47t-90.5 -157l-7 -15l-72 24l7 16q54 143 118.5 206t158.5 63z" />
    <glyph glyph-name="uni0685.fina" unicode="&#x685;" horiz-adv-x="1326" 
d="M565 1453l108 108l109 -108l-109 -109zM739 1156l108 108l109 -108l-109 -109zM391 1156l108 108l109 -108l-109 -109zM444 761q51 0 122.5 -22.5t190.5 -75.5q134 -60 224 -93.5t177 -56.5l-7 -119q-75 -10 -130.5 -19.5t-99.5 -20.5v-11q55 -133 137.5 -192t212.5 -59
h55v-92h-55q-152 0 -254 80.5t-164 251.5q-195 -55 -340.5 -146t-225.5 -203.5t-80 -232.5q0 -109 66.5 -190t187.5 -125.5t285 -44.5q115 0 227 22t208 64l44 -83q-232 -99 -481 -99q-189 0 -330 55.5t-218.5 156.5t-77.5 237q0 166 117.5 310t327.5 248.5t489 150.5v10
q-65 17 -143 45.5t-193 77.5q-112 47 -174 66.5t-99 19.5q-68 0 -114.5 -46.5t-90.5 -156.5l-6 -16l-71 24l6 17q51 143 115.5 205.5t161.5 62.5z" />
    <glyph glyph-name="uni0689.fina" unicode="&#x689;" horiz-adv-x="1273" 
d="M489 38q76 0 120 -43.5t44 -119.5q0 -74 -44.5 -118.5t-119.5 -44.5t-119.5 44t-44.5 119t45 119t119 44zM489 -10q-108 0 -108 -106q0 -107 108 -107t108 107q0 106 -108 106zM679 931l276 -642q50 -114 118.5 -155.5t180.5 -41.5h19v-92h-19q-127 0 -219.5 50.5
t-136.5 168.5h-10q-52 -111 -163.5 -170t-237.5 -59q-94 0 -187.5 34.5t-176.5 105.5l52 74q72 -63 153.5 -92t159.5 -29q111 0 209 53.5t156 154.5l-263 598z" />
    <glyph glyph-name="uni068A.fina" unicode="&#x68a;" horiz-adv-x="1273" 
d="M379 -368l108 108l109 -108l-109 -109zM679 931l276 -642q50 -114 118.5 -155.5t180.5 -41.5h19v-92h-19q-127 0 -219.5 50.5t-136.5 168.5h-10q-52 -111 -163.5 -170t-237.5 -59q-94 0 -187.5 34.5t-176.5 105.5l52 74q72 -63 153.5 -92t159.5 -29q111 0 209 53.5
t156 154.5l-263 598z" />
    <glyph glyph-name="uni068B.fina" unicode="&#x68b;" horiz-adv-x="1273" 
d="M470 1279v427h59v-335h10q68 75 122.5 113t109.5 38q62 0 100.5 -39.5t38.5 -101.5q0 -162 -252 -162h-328v60h140zM519 1279h139q101 0 148 23.5t47 75.5q0 38 -24.5 61.5t-64.5 23.5q-54 0 -105.5 -41t-139.5 -143zM679 931l276 -642q50 -114 118.5 -155.5t180.5 -41.5
h19v-92h-19q-127 0 -219.5 50.5t-136.5 168.5h-10q-52 -111 -163.5 -170t-237.5 -59q-94 0 -187.5 34.5t-176.5 105.5l52 74q72 -63 153.5 -92t159.5 -29q111 0 209 53.5t156 154.5l-263 598zM379 -368l108 108l109 -108l-109 -109z" />
    <glyph glyph-name="uni068F.fina" unicode="&#x68f;" horiz-adv-x="1273" 
d="M702 1630l108 108l109 -108l-109 -109zM354 1630l108 108l109 -108l-109 -109zM529 1333l108 108l109 -108l-109 -109zM679 931l276 -642q50 -114 118.5 -155.5t180.5 -41.5h19v-92h-19q-127 0 -219.5 50.5t-136.5 168.5h-10q-52 -111 -163.5 -170t-237.5 -59
q-94 0 -187.5 34.5t-176.5 105.5l52 74q72 -63 153.5 -92t159.5 -29q111 0 209 53.5t156 154.5l-263 598z" />
    <glyph glyph-name="uni0690.fina" unicode="&#x690;" horiz-adv-x="1273" 
d="M702 1680l108 108l109 -108l-109 -108zM354 1680l108 108l109 -108l-109 -108zM354 1332l108 108l109 -108l-109 -109zM702 1332l108 108l109 -108l-109 -109zM679 931l276 -642q50 -114 118.5 -155.5t180.5 -41.5h19v-92h-19q-127 0 -219.5 50.5t-136.5 168.5h-10
q-52 -111 -163.5 -170t-237.5 -59q-94 0 -187.5 34.5t-176.5 105.5l52 74q72 -63 153.5 -92t159.5 -29q111 0 209 53.5t156 154.5l-263 598z" />
    <glyph glyph-name="uni0692.fina" unicode="&#x692;" horiz-adv-x="750" 
d="M315 914h-48l-213 264l48 40l189 -237l189 237l48 -40zM229 541l85 32l61 -187q34 -105 79 -169.5t115 -94.5t180 -30h1v-92h-1q-111 0 -196.5 38t-131.5 108l-10 -4q23 -171 -27 -294t-178 -214t-339 -169l-37 84q274 100 393 214t119 277q0 90 -29 218.5t-84 282.5z
" />
    <glyph glyph-name="uni0693.fina" unicode="&#x693;" horiz-adv-x="750" 
d="M291 -316q76 0 120 -43.5t44 -119.5q0 -74 -44.5 -118.5t-119.5 -44.5t-119.5 44t-44.5 119t45 119t119 44zM291 -364q-108 0 -108 -106q0 -107 108 -107t108 107q0 106 -108 106zM229 541l85 32l61 -187q34 -105 79 -169.5t115 -94.5t180 -30h1v-92h-1q-111 0 -196.5 38
t-131.5 108l-10 -4q23 -171 -27 -294t-178 -214t-339 -169l-37 84q274 100 393 214t119 277q0 90 -29 218.5t-84 282.5z" />
    <glyph glyph-name="uni0694.fina" unicode="&#x694;" horiz-adv-x="750" 
d="M230 -713l108 108l109 -108l-109 -109zM229 541l85 32l61 -187q34 -105 79 -169.5t115 -94.5t180 -30h1v-92h-1q-111 0 -196.5 38t-131.5 108l-10 -4q23 -171 -27 -294t-178 -214t-339 -169l-37 84q274 100 393 214t119 277q0 90 -29 218.5t-84 282.5z" />
    <glyph glyph-name="uni0695.fina" unicode="&#x695;" horiz-adv-x="750" 
d="M189 -1074h-48l-213 264l48 40l189 -237l189 237l48 -40zM229 541l85 32l61 -187q34 -105 79 -169.5t115 -94.5t180 -30h1v-92h-1q-111 0 -196.5 38t-131.5 108l-10 -4q23 -171 -27 -294t-178 -214t-339 -169l-37 84q274 100 393 214t119 277q0 90 -29 218.5t-84 282.5z
" />
    <glyph glyph-name="uni0696.fina" unicode="&#x696;" horiz-adv-x="974" 
d="M53 54l108 108l109 -108l-109 -109zM455 -713l108 108l109 -108l-109 -109zM453 541l85 32l61 -187q34 -105 79 -169.5t115 -94.5t180 -30h1v-92h-1q-111 0 -196.5 38t-131.5 108l-10 -4q23 -171 -27 -294t-178 -214t-339 -169l-37 84q274 100 393 214t119 277
q0 90 -29 218.5t-84 282.5z" />
    <glyph glyph-name="uni0697.fina" unicode="&#x697;" horiz-adv-x="750" 
d="M8 1017l108 108l109 -108l-109 -109zM356 1017l108 108l109 -108l-109 -109zM229 541l85 32l61 -187q34 -105 79 -169.5t115 -94.5t180 -30h1v-92h-1q-111 0 -196.5 38t-131.5 108l-10 -4q23 -171 -27 -294t-178 -214t-339 -169l-37 84q274 100 393 214t119 277
q0 90 -29 218.5t-84 282.5z" />
    <glyph glyph-name="uni0699.fina" unicode="&#x699;" horiz-adv-x="750" 
d="M356 1299l108 108l109 -108l-109 -108zM8 1299l108 108l109 -108l-109 -108zM8 951l108 108l109 -108l-109 -109zM356 951l108 108l109 -108l-109 -109zM229 541l85 32l61 -187q34 -105 79 -169.5t115 -94.5t180 -30h1v-92h-1q-111 0 -196.5 38t-131.5 108l-10 -4
q23 -171 -27 -294t-178 -214t-339 -169l-37 84q274 100 393 214t119 277q0 90 -29 218.5t-84 282.5z" />
    <glyph glyph-name="uni069A.init" unicode="&#x69a;" horiz-adv-x="1653" 
d="M864 -369l108 108l109 -108l-109 -109zM856 1074l108 108l109 -108l-109 -109zM705 92q104 0 157.5 63t67.5 202l16 166l87 -9l-14 -151q-13 -139 46.5 -205t171.5 -66q203 0 203 245q0 36 -4 86t-10.5 99.5t-13.5 82.5l88 21q11 -55 20.5 -140t9.5 -148
q0 -338 -287 -338q-113 0 -179.5 53t-86.5 150h-10q-53 -203 -265 -203q-118 0 -186 62t-84 174h-10q-27 -106 -125.5 -171t-238.5 -65h-58q-23 0 -23 46t23 46h58q164 0 243.5 83t101.5 272l13 120l92 -8l-19 -175q-16 -142 40.5 -217t175.5 -75z" />
    <glyph glyph-name="uni069A.medi" unicode="&#x69a;" horiz-adv-x="1898" 
d="M864 -369l108 108l109 -108l-109 -109zM856 1074l108 108l109 -108l-109 -109zM1493 268q-22 -268 -257 -268q-112 0 -175.5 53t-83.5 150h-10q-55 -203 -265 -203q-119 0 -186.5 61.5t-83.5 174.5h-10q-27 -106 -125.5 -171t-238.5 -65h-58q-23 0 -23 46t23 46h58
q164 0 243.5 83t101.5 272l13 120l92 -8l-19 -175q-16 -142 40.5 -217t175.5 -75q104 0 157.5 62.5t67.5 202.5l16 166l87 -9l-14 -151q-12 -139 45.5 -205t165.5 -66q202 0 202 240q0 104 -31 251l88 18l27 -173q29 -181 116.5 -258.5t263.5 -77.5h2v-92h-2
q-168 0 -268 70.5t-125 197.5h-10z" />
    <glyph glyph-name="uni069A.fina" unicode="&#x69a;" horiz-adv-x="2742" 
d="M1685 -369l108 108l109 -108l-109 -109zM1704 1074l108 108l109 -108l-109 -109zM2337 268q-21 -268 -251 -268q-222 0 -264 203h-10q-25 -100 -95.5 -151.5t-171.5 -51.5q-70 0 -119.5 25t-84.5 69l-6 -5q22 -202 -51 -329.5t-216.5 -188t-333.5 -60.5q-284 0 -445 128
t-161 418q0 76 12.5 178t43.5 255l87 -17q-31 -155 -43 -250.5t-12 -162.5q0 -252 133.5 -354.5t382.5 -102.5q165 0 284 39t183.5 128t64.5 239q0 95 -32.5 213t-112.5 307l84 37l112 -305q29 -80 85.5 -124.5t152.5 -44.5q103 0 156.5 62.5t66.5 203.5l15 165l87 -9
l-13 -151q-13 -140 46 -205.5t171 -65.5q195 0 195 240q0 50 -8.5 115t-23.5 136l88 18l27 -173q29 -181 116.5 -258.5t263.5 -77.5h2v-92h-2q-166 0 -267 69.5t-126 198.5h-10z" />
    <glyph glyph-name="uni069B.init" unicode="&#x69b;" horiz-adv-x="1653" 
d="M1035 -368l108 108l109 -108l-109 -109zM687 -368l108 108l109 -108l-109 -109zM862 -665l108 108l109 -108l-109 -109zM705 92q104 0 157.5 63t67.5 202l16 166l87 -9l-14 -151q-13 -139 46.5 -205t171.5 -66q203 0 203 245q0 36 -4 86t-10.5 99.5t-13.5 82.5l88 21
q11 -55 20.5 -140t9.5 -148q0 -338 -287 -338q-113 0 -179.5 53t-86.5 150h-10q-53 -203 -265 -203q-118 0 -186 62t-84 174h-10q-27 -106 -125.5 -171t-238.5 -65h-58q-23 0 -23 46t23 46h58q164 0 243.5 83t101.5 272l13 120l92 -8l-19 -175q-16 -142 40.5 -217t175.5 -75
z" />
    <glyph glyph-name="uni069B.medi" unicode="&#x69b;" horiz-adv-x="1898" 
d="M1035 -368l108 108l109 -108l-109 -109zM687 -368l108 108l109 -108l-109 -109zM862 -665l108 108l109 -108l-109 -109zM1493 268q-22 -268 -257 -268q-112 0 -175.5 53t-83.5 150h-10q-55 -203 -265 -203q-119 0 -186.5 61.5t-83.5 174.5h-10q-27 -106 -125.5 -171
t-238.5 -65h-58q-23 0 -23 46t23 46h58q164 0 243.5 83t101.5 272l13 120l92 -8l-19 -175q-16 -142 40.5 -217t175.5 -75q104 0 157.5 62.5t67.5 202.5l16 166l87 -9l-14 -151q-12 -139 45.5 -205t165.5 -66q202 0 202 240q0 104 -31 251l88 18l27 -173
q29 -181 116.5 -258.5t263.5 -77.5h2v-92h-2q-168 0 -268 70.5t-125 197.5h-10z" />
    <glyph glyph-name="uni069B.fina" unicode="&#x69b;" horiz-adv-x="2742" 
d="M1876 -369l108 108l109 -108l-109 -109zM1528 -369l108 108l109 -108l-109 -109zM1703 -666l108 108l109 -108l-109 -109zM2337 268q-21 -268 -251 -268q-222 0 -264 203h-10q-25 -100 -95.5 -151.5t-171.5 -51.5q-70 0 -119.5 25t-84.5 69l-6 -5q22 -202 -51 -329.5
t-216.5 -188t-333.5 -60.5q-284 0 -445 128t-161 418q0 76 12.5 178t43.5 255l87 -17q-31 -155 -43 -250.5t-12 -162.5q0 -252 133.5 -354.5t382.5 -102.5q165 0 284 39t183.5 128t64.5 239q0 95 -32.5 213t-112.5 307l84 37l112 -305q29 -80 85.5 -124.5t152.5 -44.5
q103 0 156.5 62.5t66.5 203.5l15 165l87 -9l-13 -151q-13 -140 46 -205.5t171 -65.5q195 0 195 240q0 50 -8.5 115t-23.5 136l88 18l27 -173q29 -181 116.5 -258.5t263.5 -77.5h2v-92h-2q-166 0 -267 69.5t-126 198.5h-10z" />
    <glyph glyph-name="uni069C.init" unicode="&#x69c;" horiz-adv-x="1653" 
d="M1035 -368l108 108l109 -108l-109 -109zM687 -368l108 108l109 -108l-109 -109zM862 -665l108 108l109 -108l-109 -109zM854 1213l108 108l109 -108l-109 -109zM1028 916l108 108l109 -108l-109 -109zM680 916l108 108l109 -108l-109 -109zM705 92q104 0 157.5 63
t67.5 202l16 166l87 -9l-14 -151q-13 -139 46.5 -205t171.5 -66q203 0 203 245q0 36 -4 86t-10.5 99.5t-13.5 82.5l88 21q11 -55 20.5 -140t9.5 -148q0 -338 -287 -338q-113 0 -179.5 53t-86.5 150h-10q-53 -203 -265 -203q-118 0 -186 62t-84 174h-10q-27 -106 -125.5 -171
t-238.5 -65h-58q-23 0 -23 46t23 46h58q164 0 243.5 83t101.5 272l13 120l92 -8l-19 -175q-16 -142 40.5 -217t175.5 -75z" />
    <glyph glyph-name="uni069C.medi" unicode="&#x69c;" horiz-adv-x="1898" 
d="M1035 -368l108 108l109 -108l-109 -109zM687 -368l108 108l109 -108l-109 -109zM862 -665l108 108l109 -108l-109 -109zM854 1213l108 108l109 -108l-109 -109zM1028 916l108 108l109 -108l-109 -109zM680 916l108 108l109 -108l-109 -109zM1493 268q-22 -268 -257 -268
q-112 0 -175.5 53t-83.5 150h-10q-55 -203 -265 -203q-119 0 -186.5 61.5t-83.5 174.5h-10q-27 -106 -125.5 -171t-238.5 -65h-58q-23 0 -23 46t23 46h58q164 0 243.5 83t101.5 272l13 120l92 -8l-19 -175q-16 -142 40.5 -217t175.5 -75q104 0 157.5 62.5t67.5 202.5l16 166
l87 -9l-14 -151q-12 -139 45.5 -205t165.5 -66q202 0 202 240q0 104 -31 251l88 18l27 -173q29 -181 116.5 -258.5t263.5 -77.5h2v-92h-2q-168 0 -268 70.5t-125 197.5h-10z" />
    <glyph glyph-name="uni069C.fina" unicode="&#x69c;" horiz-adv-x="2742" 
d="M1876 -369l108 108l109 -108l-109 -109zM1528 -369l108 108l109 -108l-109 -109zM1703 -666l108 108l109 -108l-109 -109zM1682 1213l108 108l109 -108l-109 -109zM1856 916l108 108l109 -108l-109 -109zM1508 916l108 108l109 -108l-109 -109zM2337 268
q-21 -268 -251 -268q-222 0 -264 203h-10q-25 -100 -95.5 -151.5t-171.5 -51.5q-70 0 -119.5 25t-84.5 69l-6 -5q22 -202 -51 -329.5t-216.5 -188t-333.5 -60.5q-284 0 -445 128t-161 418q0 76 12.5 178t43.5 255l87 -17q-31 -155 -43 -250.5t-12 -162.5
q0 -252 133.5 -354.5t382.5 -102.5q165 0 284 39t183.5 128t64.5 239q0 95 -32.5 213t-112.5 307l84 37l112 -305q29 -80 85.5 -124.5t152.5 -44.5q103 0 156.5 62.5t66.5 203.5l15 165l87 -9l-13 -151q-13 -140 46 -205.5t171 -65.5q195 0 195 240q0 50 -8.5 115t-23.5 136
l88 18l27 -173q29 -181 116.5 -258.5t263.5 -77.5h2v-92h-2q-166 0 -267 69.5t-126 198.5h-10z" />
    <glyph glyph-name="uni069D.init" unicode="&#x69d;" horiz-adv-x="1618" 
d="M670 -369l108 108l109 -108l-109 -109zM1018 -369l108 108l109 -108l-109 -109zM364 245q-25 -121 -121.5 -183t-233.5 -62h-9q-23 0 -23 46t23 46h9q134 0 199 43t85.5 121.5t20.5 182.5v130h90v-105q1 -96 14.5 -151t39.5 -86t62 -54q130 195 245 308t216 161.5
t189 48.5q155 0 240.5 -94.5t85.5 -231.5q0 -106 -47 -176.5t-129 -112t-187.5 -59t-222.5 -17.5q-220 0 -355.5 57.5t-181.5 187.5h-9zM1165 599q-71 0 -157.5 -40.5t-189 -141t-223.5 -280.5q63 -25 144 -35t174 -10q91 0 179 10.5t159 39t113.5 82.5t42.5 141
q0 102 -64.5 168t-177.5 66z" />
    <glyph glyph-name="uni069D.medi" unicode="&#x69d;" horiz-adv-x="1696" 
d="M670 -369l108 108l109 -108l-109 -109zM1018 -369l108 108l109 -108l-109 -109zM314 569h90v-105q1 -96 14.5 -151t39.5 -86t62 -54q130 195 245 308t216 161.5t189 48.5q155 0 240.5 -94.5t85.5 -231.5q0 -64 -18.5 -113.5t-52.5 -87.5q90 -72 270 -72h1v-92h-1
q-103 0 -186 26t-142 79q-81 -59 -201.5 -82t-255.5 -23q-220 0 -355.5 57.5t-181.5 187.5h-9q-25 -121 -121.5 -183t-233.5 -62h-9q-23 0 -23 46t23 46h9q134 0 199 43t85.5 121.5t20.5 182.5v130zM1165 599q-71 0 -157.5 -40.5t-189 -141t-223.5 -280.5q63 -25 144 -35
t174 -10q91 0 179 10.5t159 39t113.5 82.5t42.5 141q0 102 -64.5 168t-177.5 66z" />
    <glyph glyph-name="uni069D.fina" unicode="&#x69d;" horiz-adv-x="2484" 
d="M1513 -369l108 108l109 -108l-109 -109zM1861 -369l108 108l109 -108l-109 -109zM1958 691q146 0 236 -90t90 -236q0 -122 -73 -198q90 -75 272 -75h1v-92h-1q-213 0 -326 106q-147 -106 -457 -106q-240 0 -385 67q6 -271 -147 -413.5t-452 -142.5q-588 0 -588 546
q0 78 13.5 182.5t42.5 250.5l87 -17q-29 -148 -42 -245.5t-13 -167.5q0 -236 121 -346.5t377 -110.5q260 0 387 108.5t127 331.5q0 87 -30.5 198t-106.5 289l85 37q58 -135 87.5 -229t40.5 -172q170 257 337 391t317 134zM1953 599q-261 0 -569 -462q107 -45 317 -45
q494 0 494 273q0 106 -66.5 170t-175.5 64z" />
    <glyph glyph-name="uni069E.init" unicode="&#x69e;" horiz-adv-x="1618" 
d="M1059 1353l108 108l109 -108l-109 -109zM1233 1056l108 108l109 -108l-109 -109zM885 1056l108 108l109 -108l-109 -109zM364 245q-25 -121 -121.5 -183t-233.5 -62h-9q-23 0 -23 46t23 46h9q134 0 199 43t85.5 121.5t20.5 182.5v130h90v-105q1 -96 14.5 -151t39.5 -86
t62 -54q130 195 245 308t216 161.5t189 48.5q155 0 240.5 -94.5t85.5 -231.5q0 -106 -47 -176.5t-129 -112t-187.5 -59t-222.5 -17.5q-220 0 -355.5 57.5t-181.5 187.5h-9zM1165 599q-71 0 -157.5 -40.5t-189 -141t-223.5 -280.5q63 -25 144 -35t174 -10q91 0 179 10.5
t159 39t113.5 82.5t42.5 141q0 102 -64.5 168t-177.5 66z" />
    <glyph glyph-name="uni069E.medi" unicode="&#x69e;" horiz-adv-x="1696" 
d="M1059 1353l108 108l109 -108l-109 -109zM1233 1056l108 108l109 -108l-109 -109zM885 1056l108 108l109 -108l-109 -109zM314 569h90v-105q1 -96 14.5 -151t39.5 -86t62 -54q130 195 245 308t216 161.5t189 48.5q155 0 240.5 -94.5t85.5 -231.5q0 -64 -18.5 -113.5
t-52.5 -87.5q90 -72 270 -72h1v-92h-1q-103 0 -186 26t-142 79q-81 -59 -201.5 -82t-255.5 -23q-220 0 -355.5 57.5t-181.5 187.5h-9q-25 -121 -121.5 -183t-233.5 -62h-9q-23 0 -23 46t23 46h9q134 0 199 43t85.5 121.5t20.5 182.5v130zM1165 599q-71 0 -157.5 -40.5
t-189 -141t-223.5 -280.5q63 -25 144 -35t174 -10q91 0 179 10.5t159 39t113.5 82.5t42.5 141q0 102 -64.5 168t-177.5 66z" />
    <glyph glyph-name="uni069E.fina" unicode="&#x69e;" horiz-adv-x="2484" 
d="M1849 1353l108 108l109 -108l-109 -109zM2023 1056l108 108l109 -108l-109 -109zM1675 1056l108 108l109 -108l-109 -109zM1958 691q146 0 236 -90t90 -236q0 -122 -73 -198q90 -75 272 -75h1v-92h-1q-213 0 -326 106q-147 -106 -457 -106q-240 0 -385 67
q6 -271 -147 -413.5t-452 -142.5q-588 0 -588 546q0 78 13.5 182.5t42.5 250.5l87 -17q-29 -148 -42 -245.5t-13 -167.5q0 -236 121 -346.5t377 -110.5q260 0 387 108.5t127 331.5q0 87 -30.5 198t-106.5 289l85 37q58 -135 87.5 -229t40.5 -172q170 257 337 391t317 134z
M1953 599q-261 0 -569 -462q107 -45 317 -45q494 0 494 273q0 106 -66.5 170t-175.5 64z" />
    <glyph glyph-name="uni069F.fina" unicode="&#x69f;" horiz-adv-x="1707" 
d="M1047 1353l108 108l109 -108l-109 -109zM1221 1056l108 108l109 -108l-109 -109zM873 1056l108 108l109 -108l-109 -109zM435 92q19 29 37 57l36 56v1073h89v-714q0 -73 -4 -136t-20 -131l9 -6q297 400 571 400q156 0 240 -93.5t84 -230.5q0 -47 -11 -92t-39 -84
q47 -47 115 -73t164 -26h1v-92h-1q-117 0 -192.5 37.5t-134.5 92.5q-64 -59 -182 -94.5t-312 -35.5h-761v92h311zM538 92h357q90 0 178 10t159.5 38t114 82t42.5 142q0 103 -65 169t-178 66q-71 0 -162.5 -41.5t-202.5 -151t-243 -314.5z" />
    <glyph glyph-name="uni06A0.init" unicode="&#x6a0;" horiz-adv-x="1089" 
d="M443 1533l108 108l109 -108l-109 -109zM617 1236l108 108l109 -108l-109 -109zM269 1236l108 108l109 -108l-109 -109zM239 419q0 -132 93 -202.5t268 -70.5q44 0 108 6t152 19l76 11l12 -91l-100 -14q-148 -23 -299 -40.5t-282.5 -27t-223.5 -9.5h-43q-23 0 -23 46
t23 46h42q168 0 327 15v12q-101 29 -160 110.5t-59 193.5q0 114 53 204t145 142t207 52q169 0 304 -106l-49 -72q-117 86 -254 86q-91 0 -162.5 -40t-113 -110t-41.5 -160z" />
    <glyph glyph-name="uni06A0.medi" unicode="&#x6a0;" horiz-adv-x="1187" 
d="M511 1476l108 108l109 -108l-109 -109zM685 1179l108 108l109 -108l-109 -109zM337 1179l108 108l109 -108l-109 -109zM611 794q95 0 182 -27t142.5 -86t55.5 -154q0 -105 -83.5 -188t-208.5 -152v-10q65 -64 138 -74.5t152 -10.5h198v-92h-212q-71 0 -130.5 8t-114.5 36
t-113 89q-95 -60 -201 -96.5t-244 -36.5h-172q-23 0 -23 46t23 46h162q121 0 213 26.5t173 67.5v10l-384 370v88q101 66 206 103t241 37zM616 702q-203 0 -359 -96v-6l370 -374q124 66 201 141t77 159q0 65 -45.5 103.5t-112 55.5t-131.5 17z" />
    <glyph glyph-name="uni06A0.fina" unicode="&#x6a0;" horiz-adv-x="1189" 
d="M541 1542l108 108l109 -108l-109 -109zM715 1245l108 108l109 -108l-109 -109zM367 1245l108 108l109 -108l-109 -109zM1019 527q0 -180 -290 -340v-10q50 -48 112 -66.5t174 -18.5h174v-92h-177q-90 0 -153 12t-112 41.5t-99 80.5q-229 -118 -330.5 -224t-101.5 -246
q0 -153 138.5 -241t378.5 -88q161 0 344 36l19 -93q-206 -40 -368 -40q-181 0 -316 51.5t-209 144.5t-74 219q0 155 109.5 283t341.5 246v10l-387 374v88q113 73 219.5 106.5t227.5 33.5q173 0 276 -72.5t103 -194.5zM933 526q0 78 -80 127t-208 49q-203 0 -360 -96v-6
l371 -374q277 146 277 300z" />
    <glyph glyph-name="uni06A1.fina" unicode="&#x6a1;" horiz-adv-x="1938" 
d="M1436 80q-112 -44 -249 -62t-278 -18q-172 0 -315.5 13.5t-249 53.5t-163 118.5t-57.5 207.5q0 83 20 166t45 157l82 -29q-23 -69 -41.5 -144t-18.5 -151q0 -125 79 -189.5t234.5 -87t384.5 -23.5q109 0 221 10t208 34l1 9q-102 53 -169 141t-67 218q0 168 94.5 260.5
t239.5 92.5q142 0 237.5 -93t95.5 -260q0 -131 -70.5 -220t-173.5 -142l1 -10q61 -20 130.5 -30t140.5 -10h140v-92h-157q-100 0 -179.5 20t-165.5 60zM1436 173q109 48 176.5 127.5t67.5 204.5q0 122 -68 194t-175 72q-109 0 -177 -72t-68 -194q0 -124 68 -203.5
t176 -128.5z" />
    <glyph glyph-name="uni06A2.init" unicode="&#x6a2;" horiz-adv-x="959" 
d="M365 -369l108 108l109 -108l-109 -109zM0 92h353q213 0 304.5 77t91.5 252q-152 -38 -284 -38q-311 0 -311 260q0 127 41 224.5t112.5 153t164.5 55.5q112 0 193.5 -80t126 -226t44.5 -346q0 -220 -122 -322t-386 -102h-328q-23 0 -23 46t23 46zM743 508
q-12 225 -84.5 351t-189.5 126q-100 0 -166 -95t-66 -240q0 -180 229 -180q56 0 127.5 10t149.5 28z" />
    <glyph glyph-name="uni06A2.medi" unicode="&#x6a2;" horiz-adv-x="968" 
d="M374 -369l108 108l109 -108l-109 -109zM150 504q0 168 94.5 260.5t239.5 92.5q143 0 238.5 -93t95.5 -260q0 -131 -71 -220t-172 -142l1 -10q58 -20 125 -30t136 -10h131v-92h-148q-98 0 -176 20t-161 60q-82 -40 -161.5 -60t-179.5 -20h-142q-23 0 -23 46t23 46h130
q142 0 265 40l1 10q-103 53 -174.5 142.5t-71.5 219.5zM484 168q108 50 176 130.5t68 206.5q0 122 -68.5 194t-175.5 72q-108 0 -176.5 -72t-68.5 -194q0 -125 68.5 -206t176.5 -131z" />
    <glyph glyph-name="uni06A2.fina" unicode="&#x6a2;" horiz-adv-x="1938" 
d="M768 -369l108 108l109 -108l-109 -109zM1436 80q-112 -44 -249 -62t-278 -18q-172 0 -315.5 13.5t-249 53.5t-163 118.5t-57.5 207.5q0 83 20 166t45 157l82 -29q-23 -69 -41.5 -144t-18.5 -151q0 -125 79 -189.5t234.5 -87t384.5 -23.5q109 0 221 10t208 34l1 9
q-102 53 -169 141t-67 218q0 168 94.5 260.5t239.5 92.5q142 0 237.5 -93t95.5 -260q0 -131 -70.5 -220t-173.5 -142l1 -10q61 -20 130.5 -30t140.5 -10h140v-92h-157q-100 0 -179.5 20t-165.5 60zM1436 173q109 48 176.5 127.5t67.5 204.5q0 122 -68 194t-175 72
q-109 0 -177 -72t-68 -194q0 -124 68 -203.5t176 -128.5z" />
    <glyph glyph-name="uni06A3.init" unicode="&#x6a3;" horiz-adv-x="959" 
d="M360 1479l108 108l109 -108l-109 -109zM365 -369l108 108l109 -108l-109 -109zM0 92h353q213 0 304.5 77t91.5 252q-152 -38 -284 -38q-311 0 -311 260q0 127 41 224.5t112.5 153t164.5 55.5q112 0 193.5 -80t126 -226t44.5 -346q0 -220 -122 -322t-386 -102h-328
q-23 0 -23 46t23 46zM743 508q-12 225 -84.5 351t-189.5 126q-100 0 -166 -95t-66 -240q0 -180 229 -180q56 0 127.5 10t149.5 28z" />
    <glyph glyph-name="uni06A3.medi" unicode="&#x6a3;" horiz-adv-x="968" 
d="M376 1268l108 108l109 -108l-109 -109zM374 -369l108 108l109 -108l-109 -109zM150 504q0 168 94.5 260.5t239.5 92.5q143 0 238.5 -93t95.5 -260q0 -131 -71 -220t-172 -142l1 -10q58 -20 125 -30t136 -10h131v-92h-148q-98 0 -176 20t-161 60q-82 -40 -161.5 -60
t-179.5 -20h-142q-23 0 -23 46t23 46h130q142 0 265 40l1 10q-103 53 -174.5 142.5t-71.5 219.5zM484 168q108 50 176 130.5t68 206.5q0 122 -68.5 194t-175.5 72q-108 0 -176.5 -72t-68.5 -194q0 -125 68.5 -206t176.5 -131z" />
    <glyph glyph-name="uni06A3.fina" unicode="&#x6a3;" horiz-adv-x="1938" 
d="M1328 1270l108 108l109 -108l-109 -109zM768 -369l108 108l109 -108l-109 -109zM1436 80q-112 -44 -249 -62t-278 -18q-172 0 -315.5 13.5t-249 53.5t-163 118.5t-57.5 207.5q0 83 20 166t45 157l82 -29q-23 -69 -41.5 -144t-18.5 -151q0 -125 79 -189.5t234.5 -87
t384.5 -23.5q109 0 221 10t208 34l1 9q-102 53 -169 141t-67 218q0 168 94.5 260.5t239.5 92.5q142 0 237.5 -93t95.5 -260q0 -131 -70.5 -220t-173.5 -142l1 -10q61 -20 130.5 -30t140.5 -10h140v-92h-157q-100 0 -179.5 20t-165.5 60zM1436 173q109 48 176.5 127.5
t67.5 204.5q0 122 -68 194t-175 72q-109 0 -177 -72t-68 -194q0 -124 68 -203.5t176 -128.5z" />
    <glyph glyph-name="uni06A5.init" unicode="&#x6a5;" horiz-adv-x="959" 
d="M537 -369l108 108l109 -108l-109 -109zM189 -369l108 108l109 -108l-109 -109zM364 -666l108 108l109 -108l-109 -109zM0 92h353q213 0 304.5 77t91.5 252q-152 -38 -284 -38q-311 0 -311 260q0 127 41 224.5t112.5 153t164.5 55.5q112 0 193.5 -80t126 -226t44.5 -346
q0 -220 -122 -322t-386 -102h-328q-23 0 -23 46t23 46zM743 508q-12 225 -84.5 351t-189.5 126q-100 0 -166 -95t-66 -240q0 -180 229 -180q56 0 127.5 10t149.5 28z" />
    <glyph glyph-name="uni06A5.medi" unicode="&#x6a5;" horiz-adv-x="968" 
d="M547 -369l108 108l109 -108l-109 -109zM199 -369l108 108l109 -108l-109 -109zM374 -666l108 108l109 -108l-109 -109zM150 504q0 168 94.5 260.5t239.5 92.5q143 0 238.5 -93t95.5 -260q0 -131 -71 -220t-172 -142l1 -10q58 -20 125 -30t136 -10h131v-92h-148
q-98 0 -176 20t-161 60q-82 -40 -161.5 -60t-179.5 -20h-142q-23 0 -23 46t23 46h130q142 0 265 40l1 10q-103 53 -174.5 142.5t-71.5 219.5zM484 168q108 50 176 130.5t68 206.5q0 122 -68.5 194t-175.5 72q-108 0 -176.5 -72t-68.5 -194q0 -125 68.5 -206t176.5 -131z" />
    <glyph glyph-name="uni06A5.fina" unicode="&#x6a5;" horiz-adv-x="1938" 
d="M941 -369l108 108l109 -108l-109 -109zM593 -369l108 108l109 -108l-109 -109zM768 -666l108 108l109 -108l-109 -109zM1436 80q-112 -44 -249 -62t-278 -18q-172 0 -315.5 13.5t-249 53.5t-163 118.5t-57.5 207.5q0 83 20 166t45 157l82 -29q-23 -69 -41.5 -144
t-18.5 -151q0 -125 79 -189.5t234.5 -87t384.5 -23.5q109 0 221 10t208 34l1 9q-102 53 -169 141t-67 218q0 168 94.5 260.5t239.5 92.5q142 0 237.5 -93t95.5 -260q0 -131 -70.5 -220t-173.5 -142l1 -10q61 -20 130.5 -30t140.5 -10h140v-92h-157q-100 0 -179.5 20
t-165.5 60zM1436 173q109 48 176.5 127.5t67.5 204.5q0 122 -68 194t-175 72q-109 0 -177 -72t-68 -194q0 -124 68 -203.5t176 -128.5z" />
    <glyph glyph-name="uni06A7.fina" unicode="&#x6a7;" horiz-adv-x="1484" 
d="M919 1107l108 108l109 -108l-109 -109zM1028 694q99 0 166.5 -55.5t109 -146t62 -196t24.5 -204.5h94v-92h-95q-7 -268 -172 -412.5t-472 -144.5q-621 0 -621 513q0 71 12.5 176.5t36.5 244.5l88 -18q-25 -139 -36.5 -238t-11.5 -167q0 -223 136 -320t402 -97
q257 0 403.5 116t154.5 341l-6 7q-69 -1 -137 -1h-136q-146 0 -235.5 63t-89.5 212q0 107 36 203t108 156t179 60zM1027 602q-82 0 -135.5 -48t-79 -122t-25.5 -151q0 -110 66.5 -150.5t178.5 -40.5h273q-3 77 -17.5 165t-45.5 167.5t-83.5 129.5t-131.5 50z" />
    <glyph glyph-name="uni06A8.fina" unicode="&#x6a8;" horiz-adv-x="1484" 
d="M919 1402l108 108l109 -108l-109 -109zM1093 1105l108 108l109 -108l-109 -109zM745 1105l108 108l109 -108l-109 -109zM1028 694q99 0 166.5 -55.5t109 -146t62 -196t24.5 -204.5h94v-92h-95q-7 -268 -172 -412.5t-472 -144.5q-621 0 -621 513q0 71 12.5 176.5
t36.5 244.5l88 -18q-25 -139 -36.5 -238t-11.5 -167q0 -223 136 -320t402 -97q257 0 403.5 116t154.5 341l-6 7q-69 -1 -137 -1h-136q-146 0 -235.5 63t-89.5 212q0 107 36 203t108 156t179 60zM1027 602q-82 0 -135.5 -48t-79 -122t-25.5 -151q0 -110 66.5 -150.5
t178.5 -40.5h273q-3 77 -17.5 165t-45.5 167.5t-83.5 129.5t-131.5 50z" />
    <glyph glyph-name="uni06AA.init" unicode="&#x6aa;" horiz-adv-x="1956" 
d="M808 1132l47 -77q-204 -120 -317 -206t-159.5 -149.5t-52.5 -116.5h1036q153 0 258 -16t159 -61.5t54 -136.5q0 -99 -64 -183t-193.5 -135t-326.5 -51h-1249q-23 0 -23 46t23 46h1267q160 0 265 37.5t157.5 98.5t52.5 131q0 89 -99 110.5t-284 21.5h-1065l-62 76
q4 80 57.5 161t178 178.5t340.5 225.5z" />
    <glyph glyph-name="uni06AA.medi" unicode="&#x6aa;" horiz-adv-x="2206" 
d="M808 1132l47 -77q-204 -120 -317 -206t-159.5 -149.5t-52.5 -116.5h1036q153 0 258 -16t159 -61.5t54 -136.5q0 -82 33 -144.5t114.5 -97.5t224.5 -35h1v-92h-1q-160 0 -267 54t-146 177h-10q-50 -101 -183 -166t-351 -65h-1248q-23 0 -23 46t23 46h1267q160 0 265 37.5
t157.5 98.5t52.5 131q0 89 -99 110.5t-284 21.5h-1065l-62 76q4 80 57.5 161t178 178.5t340.5 225.5z" />
    <glyph glyph-name="uni06AA.fina" unicode="&#x6aa;" horiz-adv-x="2352" 
d="M954 1132l47 -77q-204 -120 -317 -206t-159.5 -149.5t-52.5 -116.5h1036q153 0 258 -16t159 -61.5t54 -136.5q0 -82 33 -144.5t114.5 -97.5t224.5 -35h1v-92h-1q-159 0 -266 54.5t-146 176.5h-10q-50 -100 -183 -165.5t-351 -65.5h-1271v92h1290q159 0 264.5 37.5
t157.5 98.5t52 131q0 89 -99 110.5t-284 21.5h-1065l-62 76q5 80 58 161t177.5 178.5t340.5 225.5z" />
    <glyph glyph-name="uni06AB.init" unicode="&#x6ab;" horiz-adv-x="807" 
d="M577 1125q75 0 120 -43.5t45 -119.5q0 -74 -45 -118.5t-120 -44.5t-119.5 44t-44.5 119t45 119t119 44zM572 1076q-109 0 -109 -106q0 -107 109 -107q108 0 108 107q0 106 -108 106zM824 1248l18 -92q-237 -60 -412.5 -115.5t-300.5 -108.5l-1 -9q185 -136 299.5 -238.5
t168 -188t53.5 -170.5q0 -157 -139.5 -241.5t-400.5 -84.5h-109q-23 0 -23 46t23 46h108q221 0 336 61.5t115 177.5q0 106 -125 231.5t-394 319.5l10 110q153 66 353.5 132.5t420.5 123.5z" />
    <glyph glyph-name="uni06AB.medi" unicode="&#x6ab;" horiz-adv-x="1127" 
d="M577 1125q75 0 120 -43.5t45 -119.5q0 -74 -45 -118.5t-120 -44.5t-119.5 44t-44.5 119t45 119t119 44zM572 1076q-109 0 -109 -106q0 -107 109 -107q108 0 108 107q0 106 -108 106zM620 343q16 -178 -114 -260.5t-397 -82.5h-109q-23 0 -23 46t23 46h108q231 0 340.5 63
t109.5 175q0 61 -49.5 137.5t-162.5 178t-306 236.5l10 110q158 68 359.5 134.5t414.5 121.5l18 -92q-226 -57 -404 -112.5t-309 -111.5l-1 -9q161 -118 263.5 -205.5t169 -163.5t117.5 -162q68 -114 125.5 -179.5t131.5 -93t191 -27.5h1v-92h-1q-132 0 -224.5 33.5
t-157 108.5t-114.5 201h-10z" />
    <glyph glyph-name="uni06AB.fina" unicode="&#x6ab;" horiz-adv-x="1971" 
d="M1417 1125q75 0 120 -43.5t45 -119.5q0 -74 -45 -118.5t-120 -44.5t-119.5 44t-44.5 119t45 119t119 44zM1412 1076q-109 0 -109 -106q0 -107 109 -107q108 0 108 107q0 106 -108 106zM1464 343q16 -175 -152.5 -259t-535.5 -84q-234 0 -376.5 41t-207 131.5t-64.5 239.5
q0 123 42 307l85 -22q-42 -178 -42 -281q0 -119 55.5 -190t180.5 -102.5t335 -31.5q314 0 465 59t151 181q0 192 -518 550l10 110q158 68 359.5 134.5t415.5 121.5l17 -92q-226 -57 -403.5 -112.5t-308.5 -111.5l-1 -9q124 -92 211 -162.5t148.5 -130t106.5 -116.5t84 -123
q71 -121 131 -185.5t133.5 -89t184.5 -24.5h1v-92h-1q-133 0 -225.5 33t-156.5 108.5t-114 201.5h-10z" />
    <glyph glyph-name="uni06AC.init" unicode="&#x6ac;" horiz-adv-x="807" 
d="M199 1478l109 109l109 -109l-109 -109zM824 1248l18 -92q-237 -60 -412.5 -115.5t-300.5 -108.5l-1 -9q185 -136 299.5 -238.5t168 -188t53.5 -170.5q0 -157 -139.5 -241.5t-400.5 -84.5h-109q-23 0 -23 46t23 46h108q221 0 336 61.5t115 177.5q0 106 -125 231.5
t-394 319.5l10 110q153 66 353.5 132.5t420.5 123.5z" />
    <glyph glyph-name="uni06AC.medi" unicode="&#x6ac;" horiz-adv-x="1127" 
d="M199 1478l109 109l109 -109l-109 -109zM620 343q16 -178 -114 -260.5t-397 -82.5h-109q-23 0 -23 46t23 46h108q231 0 340.5 63t109.5 175q0 61 -49.5 137.5t-162.5 178t-306 236.5l10 110q158 68 359.5 134.5t414.5 121.5l18 -92q-226 -57 -404 -112.5t-309 -111.5
l-1 -9q161 -118 263.5 -205.5t169 -163.5t117.5 -162q68 -114 125.5 -179.5t131.5 -93t191 -27.5h1v-92h-1q-132 0 -224.5 33.5t-157 108.5t-114.5 201h-10z" />
    <glyph glyph-name="uni06AC.fina" unicode="&#x6ac;" horiz-adv-x="1838" 
d="M704 1296l108 108l109 -108l-109 -109zM683 438q-27 0 -54 2.5t-53 6.5l14 66q23 -4 49 -6t51 -2q48 0 97.5 10t82.5 33t33 63q0 38 -37 50t-89 19q-55 9 -102.5 31t-47.5 94q0 97 66.5 153t157.5 56q52 0 107 -20l-23 -62q-42 14 -83 14q-64 0 -114 -32.5t-50 -95.5
q0 -43 33.5 -55.5t80.5 -19.5q41 -5 78 -15.5t60.5 -36t23.5 -75.5q0 -61 -39.5 -100.5t-103.5 -58.5t-138 -19zM1461 438q0 -346 376 -346h1v-92h-1q-169 0 -277.5 71t-134.5 207h-10q-34 -151 -184 -214.5t-451 -63.5q-239 0 -383 34.5t-208.5 114.5t-64.5 216
q0 56 9 124.5t24 131.5l80 -19q-13 -57 -22.5 -124.5t-9.5 -114.5q0 -104 56 -163t185 -83.5t346 -24.5q223 0 349 30.5t178 105t52 206.5v844h90v-840z" />
    <glyph glyph-name="uni06AE.init" unicode="&#x6ae;" horiz-adv-x="807" 
d="M570 -369l108 108l109 -108l-109 -109zM222 -369l108 108l109 -108l-109 -109zM397 -666l108 108l109 -108l-109 -109zM824 1248l18 -92q-237 -60 -412.5 -115.5t-300.5 -108.5l-1 -9q185 -136 299.5 -238.5t168 -188t53.5 -170.5q0 -157 -139.5 -241.5t-400.5 -84.5
h-109q-23 0 -23 46t23 46h108q221 0 336 61.5t115 177.5q0 106 -125 231.5t-394 319.5l10 110q153 66 353.5 132.5t420.5 123.5z" />
    <glyph glyph-name="uni06AE.medi" unicode="&#x6ae;" horiz-adv-x="1127" 
d="M570 -369l108 108l109 -108l-109 -109zM222 -369l108 108l109 -108l-109 -109zM397 -666l108 108l109 -108l-109 -109zM620 343q16 -178 -114 -260.5t-397 -82.5h-109q-23 0 -23 46t23 46h108q231 0 340.5 63t109.5 175q0 61 -49.5 137.5t-162.5 178t-306 236.5l10 110
q158 68 359.5 134.5t414.5 121.5l18 -92q-226 -57 -404 -112.5t-309 -111.5l-1 -9q161 -118 263.5 -205.5t169 -163.5t117.5 -162q68 -114 125.5 -179.5t131.5 -93t191 -27.5h1v-92h-1q-132 0 -224.5 33.5t-157 108.5t-114.5 201h-10z" />
    <glyph glyph-name="uni06AE.fina" unicode="&#x6ae;" horiz-adv-x="1838" 
d="M827 -369l108 108l109 -108l-109 -109zM479 -369l108 108l109 -108l-109 -109zM654 -666l108 108l109 -108l-109 -109zM683 438q-27 0 -54 2.5t-53 6.5l14 66q23 -4 49 -6t51 -2q48 0 97.5 10t82.5 33t33 63q0 38 -37 50t-89 19q-55 9 -102.5 31t-47.5 94q0 97 66.5 153
t157.5 56q52 0 107 -20l-23 -62q-42 14 -83 14q-64 0 -114 -32.5t-50 -95.5q0 -43 33.5 -55.5t80.5 -19.5q41 -5 78 -15.5t60.5 -36t23.5 -75.5q0 -61 -39.5 -100.5t-103.5 -58.5t-138 -19zM1461 438q0 -346 376 -346h1v-92h-1q-169 0 -277.5 71t-134.5 207h-10
q-34 -151 -184 -214.5t-451 -63.5q-239 0 -383 34.5t-208.5 114.5t-64.5 216q0 56 9 124.5t24 131.5l80 -19q-13 -57 -22.5 -124.5t-9.5 -114.5q0 -104 56 -163t185 -83.5t346 -24.5q223 0 349 30.5t178 105t52 206.5v844h90v-840z" />
    <glyph glyph-name="uni06B0.init" unicode="&#x6b0;" horiz-adv-x="807" 
d="M577 1125q75 0 120 -43.5t45 -119.5q0 -74 -45 -118.5t-120 -44.5t-119.5 44t-44.5 119t45 119t119 44zM572 1076q-109 0 -109 -106q0 -107 109 -107q108 0 108 107q0 106 -108 106zM684 1512l12 -62q-373 -64 -671 -218l-30 56q298 155 689 224zM824 1248l18 -92
q-237 -60 -412.5 -115.5t-300.5 -108.5l-1 -9q185 -136 299.5 -238.5t168 -188t53.5 -170.5q0 -157 -139.5 -241.5t-400.5 -84.5h-109q-23 0 -23 46t23 46h108q221 0 336 61.5t115 177.5q0 106 -125 231.5t-394 319.5l10 110q153 66 353.5 132.5t420.5 123.5z" />
    <glyph glyph-name="uni06B0.medi" unicode="&#x6b0;" horiz-adv-x="1127" 
d="M577 1125q75 0 120 -43.5t45 -119.5q0 -74 -45 -118.5t-120 -44.5t-119.5 44t-44.5 119t45 119t119 44zM572 1076q-109 0 -109 -106q0 -107 109 -107q108 0 108 107q0 106 -108 106zM684 1512l12 -62q-373 -64 -671 -218l-30 56q298 155 689 224zM620 343
q16 -178 -114 -260.5t-397 -82.5h-109q-23 0 -23 46t23 46h108q231 0 340.5 63t109.5 175q0 61 -49.5 137.5t-162.5 178t-306 236.5l10 110q158 68 359.5 134.5t414.5 121.5l18 -92q-226 -57 -404 -112.5t-309 -111.5l-1 -9q161 -118 263.5 -205.5t169 -163.5t117.5 -162
q68 -114 125.5 -179.5t131.5 -93t191 -27.5h1v-92h-1q-132 0 -224.5 33.5t-157 108.5t-114.5 201h-10z" />
    <glyph glyph-name="uni06B0.fina" unicode="&#x6b0;" horiz-adv-x="1971" 
d="M1417 1125q75 0 120 -43.5t45 -119.5q0 -74 -45 -118.5t-120 -44.5t-119.5 44t-44.5 119t45 119t119 44zM1412 1076q-109 0 -109 -106q0 -107 109 -107q108 0 108 107q0 106 -108 106zM1515 1512l12 -62q-373 -64 -671 -218l-30 56q298 155 689 224zM1464 343
q16 -175 -152.5 -259t-535.5 -84q-234 0 -376.5 41t-207 131.5t-64.5 239.5q0 123 42 307l85 -22q-42 -178 -42 -281q0 -119 55.5 -190t180.5 -102.5t335 -31.5q314 0 465 59t151 181q0 192 -518 550l10 110q158 68 359.5 134.5t415.5 121.5l17 -92q-226 -57 -403.5 -112.5
t-308.5 -111.5l-1 -9q124 -92 211 -162.5t148.5 -130t106.5 -116.5t84 -123q71 -121 131 -185.5t133.5 -89t184.5 -24.5h1v-92h-1q-133 0 -225.5 33t-156.5 108.5t-114 201.5h-10z" />
    <glyph glyph-name="uni06B2.init" unicode="&#x6b2;" horiz-adv-x="807" 
d="M222 -369l108 108l109 -108l-109 -109zM570 -369l108 108l109 -108l-109 -109zM824 1248l18 -92q-237 -60 -412.5 -115.5t-300.5 -108.5l-1 -9q185 -136 299.5 -238.5t168 -188t53.5 -170.5q0 -157 -139.5 -241.5t-400.5 -84.5h-109q-23 0 -23 46t23 46h108
q221 0 336 61.5t115 177.5q0 106 -125 231.5t-394 319.5l10 110q153 66 353.5 132.5t420.5 123.5zM684 1512l12 -62q-373 -64 -671 -218l-30 56q298 155 689 224z" />
    <glyph glyph-name="uni06B2.medi" unicode="&#x6b2;" horiz-adv-x="1127" 
d="M222 -369l108 108l109 -108l-109 -109zM570 -369l108 108l109 -108l-109 -109zM620 343q16 -178 -114 -260.5t-397 -82.5h-109q-23 0 -23 46t23 46h108q231 0 340.5 63t109.5 175q0 61 -49.5 137.5t-162.5 178t-306 236.5l10 110q158 68 359.5 134.5t414.5 121.5l18 -92
q-226 -57 -404 -112.5t-309 -111.5l-1 -9q161 -118 263.5 -205.5t169 -163.5t117.5 -162q68 -114 125.5 -179.5t131.5 -93t191 -27.5h1v-92h-1q-132 0 -224.5 33.5t-157 108.5t-114.5 201h-10zM684 1512l12 -62q-373 -64 -671 -218l-30 56q298 155 689 224z" />
    <glyph glyph-name="uni06B2.fina" unicode="&#x6b2;" horiz-adv-x="1971" 
d="M484 -369l108 108l109 -108l-109 -109zM832 -369l108 108l109 -108l-109 -109zM1464 343q16 -175 -152.5 -259t-535.5 -84q-234 0 -376.5 41t-207 131.5t-64.5 239.5q0 123 42 307l85 -22q-42 -178 -42 -281q0 -119 55.5 -190t180.5 -102.5t335 -31.5q314 0 465 59
t151 181q0 192 -518 550l10 110q158 68 359.5 134.5t415.5 121.5l17 -92q-226 -57 -403.5 -112.5t-308.5 -111.5l-1 -9q124 -92 211 -162.5t148.5 -130t106.5 -116.5t84 -123q71 -121 131 -185.5t133.5 -89t184.5 -24.5h1v-92h-1q-133 0 -225.5 33t-156.5 108.5t-114 201.5
h-10zM1515 1512l12 -62q-373 -64 -671 -218l-30 56q298 155 689 224z" />
    <glyph glyph-name="uni06B4.init" unicode="&#x6b4;" horiz-adv-x="807" 
d="M824 1248l18 -92q-237 -60 -412.5 -115.5t-300.5 -108.5l-1 -9q185 -136 299.5 -238.5t168 -188t53.5 -170.5q0 -157 -139.5 -241.5t-400.5 -84.5h-109q-23 0 -23 46t23 46h108q221 0 336 61.5t115 177.5q0 106 -125 231.5t-394 319.5l10 110q153 66 353.5 132.5
t420.5 123.5zM684 1512l12 -62q-373 -64 -671 -218l-30 56q298 155 689 224zM291 1750l109 109l109 -109l-109 -109zM-27 1664l109 109l109 -109l-109 -109zM67 1974l109 109l109 -109l-109 -109z" />
    <glyph glyph-name="uni06B4.medi" unicode="&#x6b4;" horiz-adv-x="1127" 
d="M620 343q16 -178 -114 -260.5t-397 -82.5h-109q-23 0 -23 46t23 46h108q231 0 340.5 63t109.5 175q0 61 -49.5 137.5t-162.5 178t-306 236.5l10 110q158 68 359.5 134.5t414.5 121.5l18 -92q-226 -57 -404 -112.5t-309 -111.5l-1 -9q161 -118 263.5 -205.5t169 -163.5
t117.5 -162q68 -114 125.5 -179.5t131.5 -93t191 -27.5h1v-92h-1q-132 0 -224.5 33.5t-157 108.5t-114.5 201h-10zM684 1512l12 -62q-373 -64 -671 -218l-30 56q298 155 689 224zM291 1750l109 109l109 -109l-109 -109zM-27 1664l109 109l109 -109l-109 -109zM67 1974
l109 109l109 -109l-109 -109z" />
    <glyph glyph-name="uni06B4.fina" unicode="&#x6b4;" horiz-adv-x="1971" 
d="M900 1974l109 109l109 -109l-109 -109zM1124 1750l109 109l109 -109l-109 -109zM806 1664l109 109l109 -109l-109 -109zM1464 343q16 -175 -152.5 -259t-535.5 -84q-234 0 -376.5 41t-207 131.5t-64.5 239.5q0 123 42 307l85 -22q-42 -178 -42 -281q0 -119 55.5 -190
t180.5 -102.5t335 -31.5q314 0 465 59t151 181q0 192 -518 550l10 110q158 68 359.5 134.5t415.5 121.5l17 -92q-226 -57 -403.5 -112.5t-308.5 -111.5l-1 -9q124 -92 211 -162.5t148.5 -130t106.5 -116.5t84 -123q71 -121 131 -185.5t133.5 -89t184.5 -24.5h1v-92h-1
q-133 0 -225.5 33t-156.5 108.5t-114 201.5h-10zM1515 1512l12 -62q-373 -64 -671 -218l-30 56q298 155 689 224z" />
    <glyph glyph-name="uni06B5.init" unicode="&#x6b5;" horiz-adv-x="572" 
d="M369 1584h-48l-213 264l48 40l189 -237l189 237l48 -40zM0 92q121 0 185.5 36t89.5 109t25 182v859h91v-859q0 -208 -89.5 -313.5t-301.5 -105.5q-23 0 -23 46t23 46z" />
    <glyph glyph-name="uni06B5.medi" unicode="&#x6b5;" horiz-adv-x="691" 
d="M369 1584h-48l-213 264l48 40l189 -237l189 237l48 -40zM340 244q-17 -119 -106 -181.5t-234 -62.5q-23 0 -23 46t23 46q131 0 195 42t84.5 119.5t20.5 182.5v842h90v-835q0 -106 20 -185t84.5 -122.5t195.5 -43.5h1v-92h-1q-142 0 -232.5 63t-107.5 181h-10z" />
    <glyph glyph-name="uni06B5.fina" unicode="&#x6b5;" horiz-adv-x="1505" 
d="M1141 1584h-48l-213 264l48 40l189 -237l189 237l48 -40zM1505 92v-92h-2q-112 0 -202.5 47t-127.5 134l-10 -2v-136q0 -285 -137.5 -421t-406.5 -136q-232 0 -363.5 122t-131.5 344q0 92 20 196t63 220l82 -29q-39 -108 -58 -206.5t-19 -178.5q0 -375 424 -375
q224 0 330 116.5t106 358.5v1224h91v-807q0 -114 30 -199.5t103.5 -132.5t205.5 -47h3z" />
    <glyph glyph-name="uni06B6.init" unicode="&#x6b6;" horiz-adv-x="572" 
d="M224 1678l108 108l109 -108l-109 -109zM0 92q121 0 185.5 36t89.5 109t25 182v859h91v-859q0 -208 -89.5 -313.5t-301.5 -105.5q-23 0 -23 46t23 46z" />
    <glyph glyph-name="uni06B6.medi" unicode="&#x6b6;" horiz-adv-x="691" 
d="M224 1678l108 108l109 -108l-109 -109zM340 244q-17 -119 -106 -181.5t-234 -62.5q-23 0 -23 46t23 46q131 0 195 42t84.5 119.5t20.5 182.5v842h90v-835q0 -106 20 -185t84.5 -122.5t195.5 -43.5h1v-92h-1q-142 0 -232.5 63t-107.5 181h-10z" />
    <glyph glyph-name="uni06B6.fina" unicode="&#x6b6;" horiz-adv-x="1505" 
d="M1007 1678l108 108l109 -108l-109 -109zM1505 92v-92h-2q-112 0 -202.5 47t-127.5 134l-10 -2v-136q0 -285 -137.5 -421t-406.5 -136q-232 0 -363.5 122t-131.5 344q0 92 20 196t63 220l82 -29q-39 -108 -58 -206.5t-19 -178.5q0 -375 424 -375q224 0 330 116.5
t106 358.5v1224h91v-807q0 -114 30 -199.5t103.5 -132.5t205.5 -47h3z" />
    <glyph glyph-name="uni06B7.init" unicode="&#x6b7;" horiz-adv-x="572" 
d="M225 1945l108 108l109 -108l-109 -109zM399 1648l108 108l109 -108l-109 -109zM51 1648l108 108l109 -108l-109 -109zM0 92q121 0 185.5 36t89.5 109t25 182v859h91v-859q0 -208 -89.5 -313.5t-301.5 -105.5q-23 0 -23 46t23 46z" />
    <glyph glyph-name="uni06B7.medi" unicode="&#x6b7;" horiz-adv-x="691" 
d="M225 1945l108 108l109 -108l-109 -109zM399 1648l108 108l109 -108l-109 -109zM51 1648l108 108l109 -108l-109 -109zM340 244q-17 -119 -106 -181.5t-234 -62.5q-23 0 -23 46t23 46q131 0 195 42t84.5 119.5t20.5 182.5v842h90v-835q0 -106 20 -185t84.5 -122.5
t195.5 -43.5h1v-92h-1q-142 0 -232.5 63t-107.5 181h-10z" />
    <glyph glyph-name="uni06B7.fina" unicode="&#x6b7;" horiz-adv-x="1505" 
d="M1007 1945l108 108l109 -108l-109 -109zM1181 1648l108 108l109 -108l-109 -109zM833 1648l108 108l109 -108l-109 -109zM1505 92v-92h-2q-112 0 -202.5 47t-127.5 134l-10 -2v-136q0 -285 -137.5 -421t-406.5 -136q-232 0 -363.5 122t-131.5 344q0 92 20 196t63 220
l82 -29q-39 -108 -58 -206.5t-19 -178.5q0 -375 424 -375q224 0 330 116.5t106 358.5v1224h91v-807q0 -114 30 -199.5t103.5 -132.5t205.5 -47h3z" />
    <glyph glyph-name="uni06B8.init" unicode="&#x6b8;" horiz-adv-x="572" 
d="M209 -369l108 108l109 -108l-109 -109zM-139 -369l108 108l109 -108l-109 -109zM36 -666l108 108l109 -108l-109 -109zM0 92q121 0 185.5 36t89.5 109t25 182v859h91v-859q0 -208 -89.5 -313.5t-301.5 -105.5q-23 0 -23 46t23 46z" />
    <glyph glyph-name="uni06B8.medi" unicode="&#x6b8;" horiz-adv-x="691" 
d="M209 -369l108 108l109 -108l-109 -109zM-139 -369l108 108l109 -108l-109 -109zM36 -666l108 108l109 -108l-109 -109zM340 244q-17 -119 -106 -181.5t-234 -62.5q-23 0 -23 46t23 46q131 0 195 42t84.5 119.5t20.5 182.5v842h90v-835q0 -106 20 -185t84.5 -122.5
t195.5 -43.5h1v-92h-1q-142 0 -232.5 63t-107.5 181h-10z" />
    <glyph glyph-name="uni06B8.fina" unicode="&#x6b8;" horiz-adv-x="1505" 
d="M685 -789l108 108l109 -108l-109 -109zM337 -789l108 108l109 -108l-109 -109zM512 -1086l108 108l109 -108l-109 -109zM1505 92v-92h-2q-112 0 -202.5 47t-127.5 134l-10 -2v-136q0 -285 -137.5 -421t-406.5 -136q-232 0 -363.5 122t-131.5 344q0 92 20 196t63 220
l82 -29q-39 -108 -58 -206.5t-19 -178.5q0 -375 424 -375q224 0 330 116.5t106 358.5v1224h91v-807q0 -114 30 -199.5t103.5 -132.5t205.5 -47h3z" />
    <glyph glyph-name="uni06B9.init" unicode="&#x6b9;" horiz-adv-x="574" 
d="M36 -369l108 108l109 -108l-109 -109zM393 720q26 -99 42 -189t16 -164q0 -175 -91 -271t-302 -96h-58q-23 0 -23 46t23 46h58q169 0 238.5 69t69.5 200q0 68 -16.5 153t-40.5 183zM126 1114l108 108l109 -108l-109 -109z" />
    <glyph glyph-name="uni06B9.medi" unicode="&#x6b9;" horiz-adv-x="850" 
d="M36 -369l108 108l109 -108l-109 -109zM472 443q0 -108 22.5 -186.5t85 -121.5t181.5 -43h89v-92h-92q-127 0 -215.5 62.5t-113.5 180.5h-10q-24 -120 -126.5 -181.5t-235.5 -61.5h-57q-23 0 -23 46t23 46h57q135 0 204.5 43t94 122t24.5 186v116h92v-116zM211 951
l108 108l109 -108l-109 -109z" />
    <glyph glyph-name="uni06B9.fina" unicode="&#x6b9;" horiz-adv-x="1645" 
d="M633 -844l108 108l109 -108l-109 -109zM639 365l108 108l109 -108l-109 -109zM184 490l87 -17q-31 -155 -43 -250.5t-12 -162.5q0 -249 136.5 -350.5t390.5 -101.5q269 0 408 103.5t139 302.5q0 84 -36.5 205t-112.5 311l80 37l60 -152q50 -125 94.5 -195.5t105.5 -99
t162 -28.5h2v-92h-1q-187 0 -281 128l-9 -4q48 -313 -116 -460.5t-493 -147.5q-289 0 -453 126.5t-164 414.5q0 76 12.5 177.5t43.5 255.5z" />
    <glyph glyph-name="uni06BC.init" unicode="&#x6bc;" horiz-adv-x="574" 
d="M0 48q76 0 120 -43.5t44 -119.5q0 -74 -44.5 -118.5t-119.5 -44.5t-119.5 44t-44.5 119t45 119t119 44zM0 0q-108 0 -108 -106q0 -107 108 -107t108 107q0 106 -108 106zM393 720q26 -99 42 -189t16 -164q0 -175 -91 -271t-302 -96h-58q-23 0 -23 46t23 46h58
q169 0 238.5 69t69.5 200q0 68 -16.5 153t-40.5 183zM126 1114l108 108l109 -108l-109 -109z" />
    <glyph glyph-name="uni06BC.medi" unicode="&#x6bc;" horiz-adv-x="850" 
d="M0 48q76 0 120 -43.5t44 -119.5q0 -74 -44.5 -118.5t-119.5 -44.5t-119.5 44t-44.5 119t45 119t119 44zM0 0q-108 0 -108 -106q0 -107 108 -107t108 107q0 106 -108 106zM472 443q0 -108 22.5 -186.5t85 -121.5t181.5 -43h89v-92h-92q-127 0 -215.5 62.5t-113.5 180.5
h-10q-24 -120 -126.5 -181.5t-235.5 -61.5h-57q-23 0 -23 46t23 46h57q135 0 204.5 43t94 122t24.5 186v116h92v-116zM211 951l108 108l109 -108l-109 -109z" />
    <glyph glyph-name="uni06BC.fina" unicode="&#x6bc;" horiz-adv-x="1645" 
d="M742 -443q76 0 120 -43.5t44 -119.5q0 -74 -44.5 -118.5t-119.5 -44.5t-119.5 44t-44.5 119t45 119t119 44zM742 -491q-108 0 -108 -106q0 -107 108 -107t108 107q0 106 -108 106zM639 365l108 108l109 -108l-109 -109zM184 490l87 -17q-31 -155 -43 -250.5t-12 -162.5
q0 -249 136.5 -350.5t390.5 -101.5q269 0 408 103.5t139 302.5q0 84 -36.5 205t-112.5 311l80 37l60 -152q50 -125 94.5 -195.5t105.5 -99t162 -28.5h2v-92h-1q-187 0 -281 128l-9 -4q48 -313 -116 -460.5t-493 -147.5q-289 0 -453 126.5t-164 414.5q0 76 12.5 177.5
t43.5 255.5z" />
    <glyph glyph-name="uni06BD.fina" unicode="&#x6bd;" horiz-adv-x="1645" 
d="M840 372l-92 -92l-90 92l90 91zM678 126l-92 -92l-92 92l92 92zM1002 125l-92 -92l-92 92l92 92zM184 490l87 -17q-31 -155 -43 -250.5t-12 -162.5q0 -249 136.5 -350.5t390.5 -101.5q269 0 408 103.5t139 302.5q0 84 -36.5 205t-112.5 311l80 37l60 -152
q50 -125 94.5 -195.5t105.5 -99t162 -28.5h2v-92h-1q-187 0 -281 128l-9 -4q48 -313 -116 -460.5t-493 -147.5q-289 0 -453 126.5t-164 414.5q0 76 12.5 177.5t43.5 255.5z" />
    <glyph glyph-name="uni06BF.init" unicode="&#x6bf;" horiz-adv-x="1224" 
d="M441 1149l108 108l109 -108l-109 -109zM567 -315l108 108l109 -108l-109 -109zM219 -315l108 108l109 -108l-109 -109zM394 -612l108 108l109 -108l-109 -109zM391 759q47 0 114.5 -21.5t199.5 -77.5q125 -55 214.5 -87.5t181.5 -57.5v-92l-484 -267q-151 -84 -277 -120
t-268 -36h-72q-23 0 -23 46t23 46h83q127 0 239 32t257 108l414 220v10q-70 18 -148.5 47t-182.5 74q-112 47 -173 66.5t-98 19.5q-68 0 -115 -47t-90 -157l-7 -15l-72 24l7 16q53 144 118 206.5t159 62.5z" />
    <glyph glyph-name="uni06BF.medi" unicode="&#x6bf;" horiz-adv-x="1271" 
d="M441 1149l108 108l109 -108l-109 -109zM567 -315l108 108l109 -108l-109 -109zM219 -315l108 108l109 -108l-109 -109zM394 -612l108 108l109 -108l-109 -109zM391 759q47 0 115 -20t199 -79q125 -55 214.5 -87.5t181.5 -57.5v-92l-255 -139v-10q77 -104 158 -143
t183 -39h84v-92h-89q-115 0 -216.5 53t-193.5 189l-155 -86q-151 -83 -277 -119.5t-268 -36.5h-72q-23 0 -23 46t23 46h83q127 0 239 31.5t257 108.5l414 220v10q-70 18 -148.5 47.5t-182.5 73.5q-112 47 -173 66.5t-98 19.5q-68 0 -114.5 -47t-90.5 -157l-7 -15l-72 24
l7 16q54 143 118.5 206t158.5 63z" />
    <glyph glyph-name="uni06BF.fina" unicode="&#x6bf;" horiz-adv-x="1326" 
d="M566 1158l108 108l109 -108l-109 -109zM450 -141l92 92l92 -92l-92 -93zM774 -142l92 92l92 -92l-92 -92zM612 -388l92 91l90 -91l-90 -91zM444 761q51 0 122.5 -22.5t190.5 -75.5q134 -60 224 -93.5t177 -56.5l-7 -119q-75 -10 -130.5 -19.5t-99.5 -20.5v-11
q55 -133 137.5 -192t212.5 -59h55v-92h-55q-152 0 -254 80.5t-164 251.5q-195 -55 -340.5 -146t-225.5 -203.5t-80 -232.5q0 -109 66.5 -190t187.5 -125.5t285 -44.5q115 0 227 22t208 64l44 -83q-232 -99 -481 -99q-189 0 -330 55.5t-218.5 156.5t-77.5 237
q0 166 117.5 310t327.5 248.5t489 150.5v10q-65 17 -143 45.5t-193 77.5q-112 47 -174 66.5t-99 19.5q-68 0 -114.5 -46.5t-90.5 -156.5l-6 -16l-71 24l6 17q51 143 115.5 205.5t161.5 62.5z" />
    <glyph glyph-name="uni06C1.init" unicode="&#x6c1;" horiz-adv-x="1267" arabic-form="initial" 
d="M472 443q0 -186 66 -268.5t219 -82.5q156 0 229 65t73 204q0 55 -13 132t-44 204l84 23q58 -228 58 -353q0 -367 -386 -367q-134 0 -219.5 64t-109.5 179h-10q-23 -112 -121 -177.5t-241 -65.5h-57q-23 0 -23 46t23 46h57q175 0 249 80.5t74 270.5v116h92v-116zM757 -535
l10 -3q30 29 67 29q36 0 64 -29t28 -78q0 -55 -29.5 -86.5t-81.5 -31.5q-127 0 -127 183q0 182 179 313l42 -60q-79 -52 -114.5 -107t-37.5 -130z" />
    <glyph glyph-name="uni06C4.fina" unicode="&#x6c4;" horiz-adv-x="923" 
d="M316 -98q73 0 116.5 -42.5t43.5 -115.5t-43 -116.5t-117 -43.5t-118 43t-44 117q0 73 44.5 115.5t117.5 42.5zM319 -158q-109 0 -109 -107q0 -106 109 -106q108 0 108 106q0 107 -108 107zM748 -6l-6 7q-69 -1 -137 -1h-136q-146 0 -235.5 64t-89.5 212q0 104 35.5 200
t107 157t180.5 61q100 0 167.5 -56.5t109 -147t61.5 -195.5t24 -203h94v-92h-96q-13 -194 -199 -324t-499 -206l-30 88q299 68 466 178t183 258zM744 90q-3 77 -17.5 165t-45.5 167.5t-83.5 129.5t-131.5 50q-82 0 -135 -48t-78.5 -121.5t-25.5 -150.5q0 -111 66 -151.5
t178 -40.5h273z" />
    <glyph glyph-name="uni06CA.fina" unicode="&#x6ca;" horiz-adv-x="923" 
d="M184 1097l108 108l109 -108l-109 -109zM532 1097l108 108l109 -108l-109 -109zM748 -6l-6 7q-69 -1 -137 -1h-136q-146 0 -235.5 64t-89.5 212q0 104 35.5 200t107 157t180.5 61q100 0 167.5 -56.5t109 -147t61.5 -195.5t24 -203h94v-92h-96q-13 -194 -199 -324
t-499 -206l-30 88q299 68 466 178t183 258zM744 90q-3 77 -17.5 165t-45.5 167.5t-83.5 129.5t-131.5 50q-82 0 -135 -48t-78.5 -121.5t-25.5 -150.5q0 -111 66 -151.5t178 -40.5h273z" />
    <glyph glyph-name="uni06CD.fina" unicode="&#x6cd;" horiz-adv-x="1763" 
d="M1380 -10q159 -49 222.5 -99.5t63.5 -136.5q0 -92 -79 -163t-218 -111.5t-319 -40.5q-299 0 -440.5 119t-141.5 372q0 67 10 168.5t28 229.5q-75 -24 -170.5 -57.5t-163.5 -61.5l-31 83q153 59 237 86t135 27q45 0 89 -26q-46 -297 -46 -446q0 -214 114.5 -308t376.5 -94
q156 0 274.5 29.5t185 81.5t66.5 121q0 48 -40.5 82t-146.5 67.5t-302 76.5l12 103h670v-92h-386v-10z" />
    <glyph glyph-name="uni06CE.init" unicode="&#x6ce;" horiz-adv-x="574" 
d="M324 1054h-48l-213 264l48 40l189 -237l189 237l48 -40zM393 720q26 -99 42 -189t16 -164q0 -175 -91 -271t-302 -96h-58q-23 0 -23 46t23 46h58q169 0 238.5 69t69.5 200q0 68 -16.5 153t-40.5 183zM-142 -369l108 108l109 -108l-109 -109zM206 -369l108 108l109 -108
l-109 -109z" />
    <glyph glyph-name="uni06CE.medi" unicode="&#x6ce;" horiz-adv-x="850" 
d="M449 837h-48l-213 264l48 40l189 -237l189 237l48 -40zM472 443q0 -108 22.5 -186.5t85 -121.5t181.5 -43h89v-92h-92q-127 0 -215.5 62.5t-113.5 180.5h-10q-24 -120 -126.5 -181.5t-235.5 -61.5h-57q-23 0 -23 46t23 46h57q135 0 204.5 43t94 122t24.5 186v116h92v-116
zM-174 -369l108 108l109 -108l-109 -109zM174 -369l108 108l109 -108l-109 -109z" />
    <glyph glyph-name="uni06CE.fina" unicode="&#x6ce;" horiz-adv-x="1422" 
d="M859 445h-48l-213 264l48 40l189 -237l189 237l48 -40zM1036 -10q159 -49 222.5 -99.5t63.5 -136.5q0 -92 -79 -163t-218 -111.5t-319 -40.5q-299 0 -440.5 119t-141.5 372q0 76 13 195.5t35 270.5l86 -17q-46 -297 -46 -446q0 -214 114.5 -308t376.5 -94
q156 0 274.5 29.5t185 81.5t66.5 121q0 48 -40.5 82t-146.5 67.5t-302 76.5l12 103h670v-92h-386v-10z" />
    <glyph glyph-name="uni06CF.fina" unicode="&#x6cf;" horiz-adv-x="923" 
d="M359 1101l108 108l109 -108l-109 -109zM748 -6l-6 7q-69 -1 -137 -1h-136q-146 0 -235.5 64t-89.5 212q0 104 35.5 200t107 157t180.5 61q100 0 167.5 -56.5t109 -147t61.5 -195.5t24 -203h94v-92h-96q-13 -194 -199 -324t-499 -206l-30 88q299 68 466 178t183 258z
M744 90q-3 77 -17.5 165t-45.5 167.5t-83.5 129.5t-131.5 50q-82 0 -135 -48t-78.5 -121.5t-25.5 -150.5q0 -111 66 -151.5t178 -40.5h273z" />
    <glyph glyph-name="uni06D1.fina" unicode="&#x6d1;" horiz-adv-x="1422" 
d="M446 -860l108 108l109 -108l-109 -109zM794 -860l108 108l109 -108l-109 -109zM623 -1109l106 106l107 -106l-107 -107zM1036 -10q159 -49 222.5 -99.5t63.5 -136.5q0 -92 -79 -163t-218 -111.5t-319 -40.5q-299 0 -440.5 119t-141.5 372q0 76 13 195.5t35 270.5l86 -17
q-46 -297 -46 -446q0 -214 114.5 -308t376.5 -94q156 0 274.5 29.5t185 81.5t66.5 121q0 48 -40.5 82t-146.5 67.5t-302 76.5l12 103h670v-92h-386v-10z" />
    <glyph glyph-name="uni06EE.fina" unicode="&#x6ee;" horiz-adv-x="1273" 
d="M615 1521h48l213 -264l-48 -40l-189 236l-189 -236l-48 40zM679 931l276 -642q50 -114 118.5 -155.5t180.5 -41.5h19v-92h-19q-127 0 -219.5 50.5t-136.5 168.5h-10q-52 -111 -163.5 -170t-237.5 -59q-94 0 -187.5 34.5t-176.5 105.5l52 74q72 -63 153.5 -92t159.5 -29
q111 0 209 53.5t156 154.5l-263 598z" />
    <glyph glyph-name="uni06EF.fina" unicode="&#x6ef;" horiz-adv-x="750" 
d="M266 1215h48l213 -264l-48 -40l-189 236l-189 -236l-48 40zM229 541l85 32l61 -187q34 -105 79 -169.5t115 -94.5t180 -30h1v-92h-1q-111 0 -196.5 38t-131.5 108l-10 -4q23 -171 -27 -294t-178 -214t-339 -169l-37 84q274 100 393 214t119 277q0 90 -29 218.5t-84 282.5
z" />
    <glyph glyph-name="uni06FA.init" unicode="&#x6fa;" horiz-adv-x="1653" 
d="M854 1213l108 108l109 -108l-109 -109zM1028 916l108 108l109 -108l-109 -109zM680 916l108 108l109 -108l-109 -109zM705 92q104 0 157.5 63t67.5 202l16 166l87 -9l-14 -151q-13 -139 46.5 -205t171.5 -66q203 0 203 245q0 36 -4 86t-10.5 99.5t-13.5 82.5l88 21
q11 -55 20.5 -140t9.5 -148q0 -338 -287 -338q-113 0 -179.5 53t-86.5 150h-10q-53 -203 -265 -203q-118 0 -186 62t-84 174h-10q-27 -106 -125.5 -171t-238.5 -65h-58q-23 0 -23 46t23 46h58q164 0 243.5 83t101.5 272l13 120l92 -8l-19 -175q-16 -142 40.5 -217t175.5 -75
zM861 -369l108 108l109 -108l-109 -109z" />
    <glyph glyph-name="uni06FA.medi" unicode="&#x6fa;" horiz-adv-x="1898" 
d="M854 1213l108 108l109 -108l-109 -109zM1028 916l108 108l109 -108l-109 -109zM680 916l108 108l109 -108l-109 -109zM1493 268q-22 -268 -257 -268q-112 0 -175.5 53t-83.5 150h-10q-55 -203 -265 -203q-119 0 -186.5 61.5t-83.5 174.5h-10q-27 -106 -125.5 -171
t-238.5 -65h-58q-23 0 -23 46t23 46h58q164 0 243.5 83t101.5 272l13 120l92 -8l-19 -175q-16 -142 40.5 -217t175.5 -75q104 0 157.5 62.5t67.5 202.5l16 166l87 -9l-14 -151q-12 -139 45.5 -205t165.5 -66q202 0 202 240q0 104 -31 251l88 18l27 -173
q29 -181 116.5 -258.5t263.5 -77.5h2v-92h-2q-168 0 -268 70.5t-125 197.5h-10zM861 -369l108 108l109 -108l-109 -109z" />
    <glyph glyph-name="uni06FA.fina" unicode="&#x6fa;" horiz-adv-x="2742" 
d="M1682 1213l108 108l109 -108l-109 -109zM1856 916l108 108l109 -108l-109 -109zM1508 916l108 108l109 -108l-109 -109zM2337 268q-21 -268 -251 -268q-222 0 -264 203h-10q-25 -100 -95.5 -151.5t-171.5 -51.5q-70 0 -119.5 25t-84.5 69l-6 -5q22 -202 -51 -329.5
t-216.5 -188t-333.5 -60.5q-284 0 -445 128t-161 418q0 76 12.5 178t43.5 255l87 -17q-31 -155 -43 -250.5t-12 -162.5q0 -252 133.5 -354.5t382.5 -102.5q165 0 284 39t183.5 128t64.5 239q0 95 -32.5 213t-112.5 307l84 37l112 -305q29 -80 85.5 -124.5t152.5 -44.5
q103 0 156.5 62.5t66.5 203.5l15 165l87 -9l-13 -151q-13 -140 46 -205.5t171 -65.5q195 0 195 240q0 50 -8.5 115t-23.5 136l88 18l27 -173q29 -181 116.5 -258.5t263.5 -77.5h2v-92h-2q-166 0 -267 69.5t-126 198.5h-10zM1690 -369l108 108l109 -108l-109 -109z" />
    <glyph glyph-name="uni06FB.init" unicode="&#x6fb;" horiz-adv-x="1618" 
d="M839 -369l108 108l109 -108l-109 -109zM1059 1088l108 108l109 -108l-109 -109zM364 245q-25 -121 -121.5 -183t-233.5 -62h-9q-23 0 -23 46t23 46h9q134 0 199 43t85.5 121.5t20.5 182.5v130h90v-105q1 -96 14.5 -151t39.5 -86t62 -54q130 195 245 308t216 161.5
t189 48.5q155 0 240.5 -94.5t85.5 -231.5q0 -106 -47 -176.5t-129 -112t-187.5 -59t-222.5 -17.5q-220 0 -355.5 57.5t-181.5 187.5h-9zM1165 599q-71 0 -157.5 -40.5t-189 -141t-223.5 -280.5q63 -25 144 -35t174 -10q91 0 179 10.5t159 39t113.5 82.5t42.5 141
q0 102 -64.5 168t-177.5 66z" />
    <glyph glyph-name="uni06FB.medi" unicode="&#x6fb;" horiz-adv-x="1696" 
d="M839 -369l108 108l109 -108l-109 -109zM1059 1088l108 108l109 -108l-109 -109zM314 569h90v-105q1 -96 14.5 -151t39.5 -86t62 -54q130 195 245 308t216 161.5t189 48.5q155 0 240.5 -94.5t85.5 -231.5q0 -64 -18.5 -113.5t-52.5 -87.5q90 -72 270 -72h1v-92h-1
q-103 0 -186 26t-142 79q-81 -59 -201.5 -82t-255.5 -23q-220 0 -355.5 57.5t-181.5 187.5h-9q-25 -121 -121.5 -183t-233.5 -62h-9q-23 0 -23 46t23 46h9q134 0 199 43t85.5 121.5t20.5 182.5v130zM1165 599q-71 0 -157.5 -40.5t-189 -141t-223.5 -280.5q63 -25 144 -35
t174 -10q91 0 179 10.5t159 39t113.5 82.5t42.5 141q0 102 -64.5 168t-177.5 66z" />
    <glyph glyph-name="uni06FB.fina" unicode="&#x6fb;" horiz-adv-x="2484" 
d="M1692 -369l108 108l109 -108l-109 -109zM1958 691q146 0 236 -90t90 -236q0 -122 -73 -198q90 -75 272 -75h1v-92h-1q-213 0 -326 106q-147 -106 -457 -106q-240 0 -385 67q6 -271 -147 -413.5t-452 -142.5q-588 0 -588 546q0 78 13.5 182.5t42.5 250.5l87 -17
q-29 -148 -42 -245.5t-13 -167.5q0 -236 121 -346.5t377 -110.5q260 0 387 108.5t127 331.5q0 87 -30.5 198t-106.5 289l85 37q58 -135 87.5 -229t40.5 -172q170 257 337 391t317 134zM1953 599q-261 0 -569 -462q107 -45 317 -45q494 0 494 273q0 106 -66.5 170t-175.5 64z
M1849 1088l108 108l109 -108l-109 -109z" />
    <glyph glyph-name="uni06FC.init" unicode="&#x6fc;" horiz-adv-x="1089" 
d="M464 -369l108 108l109 -108l-109 -109zM443 1268l108 108l109 -108l-109 -109zM239 419q0 -132 93 -202.5t268 -70.5q44 0 108 6t152 19l76 11l12 -91l-100 -14q-148 -23 -299 -40.5t-282.5 -27t-223.5 -9.5h-43q-23 0 -23 46t23 46h42q168 0 327 15v12
q-101 29 -160 110.5t-59 193.5q0 114 53 204t145 142t207 52q169 0 304 -106l-49 -72q-117 86 -254 86q-91 0 -162.5 -40t-113 -110t-41.5 -160z" />
    <glyph glyph-name="uni06FC.medi" unicode="&#x6fc;" horiz-adv-x="1187" 
d="M507 -369l108 108l109 -108l-109 -109zM512 1211l108 108l109 -108l-109 -109zM611 794q95 0 182 -27t142.5 -86t55.5 -154q0 -105 -83.5 -188t-208.5 -152v-10q65 -64 138 -74.5t152 -10.5h198v-92h-212q-71 0 -130.5 8t-114.5 36t-113 89q-95 -60 -201 -96.5
t-244 -36.5h-172q-23 0 -23 46t23 46h162q121 0 213 26.5t173 67.5v10l-384 370v88q101 66 206 103t241 37zM616 702q-203 0 -359 -96v-6l370 -374q124 66 201 141t77 159q0 65 -45.5 103.5t-112 55.5t-131.5 17z" />
    <glyph glyph-name="uni06FC.fina" unicode="&#x6fc;" horiz-adv-x="1189" 
d="M579 -297l108 108l109 -108l-109 -109zM541 1217l108 108l109 -108l-109 -109zM1019 527q0 -180 -290 -340v-10q50 -48 112 -66.5t174 -18.5h174v-92h-177q-90 0 -153 12t-112 41.5t-99 80.5q-229 -118 -330.5 -224t-101.5 -246q0 -153 138.5 -241t378.5 -88
q161 0 344 36l19 -93q-206 -40 -368 -40q-181 0 -316 51.5t-209 144.5t-74 219q0 155 109.5 283t341.5 246v10l-387 374v88q113 73 219.5 106.5t227.5 33.5q173 0 276 -72.5t103 -194.5zM933 526q0 78 -80 127t-208 49q-203 0 -360 -96v-6l371 -374q277 146 277 300z" />
    <glyph glyph-name="uni06FF.init" unicode="&#x6ff;" horiz-adv-x="1333" 
d="M730 1513h48l213 -264l-48 -40l-189 236l-189 -236l-48 40zM0 92h36q101 0 176.5 12t154.5 40q-113 68 -174 153t-61 176q0 112 69.5 201t180.5 114v10l-182 78l36 83l486 -208q181 -75 288 -144.5t153.5 -145t46.5 -171.5q0 -142 -90.5 -221.5t-254.5 -79.5
q-191 0 -401 99q-103 -48 -196 -68t-216 -20h-52q-23 0 -23 46t23 46zM466 178q105 52 165 129.5t60 163.5q0 127 -57.5 196.5t-161.5 69.5q-69 0 -127.5 -36.5t-94 -96.5t-35.5 -132q0 -82 65.5 -159t185.5 -135zM559 146q165 -65 310 -65q258 0 258 211q0 72 -38 130
t-125 113t-235 116q65 -154 20.5 -285.5t-190.5 -219.5z" />
    <glyph glyph-name="uni06FF.medi" unicode="&#x6ff;" horiz-adv-x="983" 
d="M468 1339h48l213 -264l-48 -40l-189 236l-189 -236l-48 40zM519 767q112 0 186.5 -83t74.5 -214q0 -124 -68.5 -224t-190.5 -163t-284 -76q19 -116 88.5 -238.5t182.5 -213.5h5q71 165 124 270t98 163.5t90.5 81t102.5 22.5h55v-92h-55q-44 0 -81.5 -22.5t-77 -80
t-89.5 -162t-118 -269.5h-84q-137 111 -216.5 252.5t-100.5 281.5h-161q-23 0 -23 46t23 46h152q-14 221 31.5 371.5t133.5 227t202 76.5zM228 95q140 7 245.5 55.5t164.5 130t59 186.5q0 95 -50.5 152.5t-127.5 57.5q-91 0 -162 -66t-106.5 -195.5t-22.5 -320.5z" />
    <glyph glyph-name="uni06FF.fina" unicode="&#x6ff;" horiz-adv-x="1124" 
d="M722 1477h48l213 -264l-48 -40l-189 236l-189 -236l-48 40zM728 796l-8 150l89 5l33 -537q8 -129 34 -198.5t84 -96.5t163 -27h1v-92h-1q-139 0 -215.5 48t-112.5 145q-55 -22 -117 -32.5t-123 -10.5q-96 0 -179 27t-134 83t-51 142q0 152 145 255.5t392 138.5zM733 706
q-209 -25 -330.5 -101.5t-121.5 -189.5q0 -62 39 -101t103.5 -57t138.5 -18q112 0 209 34q-7 30 -11 62.5t-6 68.5z" />
    <glyph glyph-name="uniFB50" unicode="&#x671;" horiz-adv-x="493" arabic-form="isolated" 
d="M292 1127v-1127h-90v1127h90zM273 1523q77 82 121.5 112.5t90.5 30.5q53 0 84.5 -33.5t31.5 -87.5q0 -67 -46 -109.5t-120 -42.5q-34 0 -68.5 12.5t-87.5 43.5q-39 24 -62 33t-43 9q-36 0 -62 -27t-67 -104l-46 28q42 91 82.5 131.5t89.5 40.5q20 0 40 -7.5t62 -29.5z
M317 1499q43 -22 68.5 -31t50.5 -9q110 0 110 81q0 31 -19.5 50t-51.5 19q-30 0 -60 -21t-98 -89z" />
    <glyph glyph-name="uniFB51" unicode="&#x671;" horiz-adv-x="586" arabic-form="final" 
d="M181 1127h91v-730q0 -161 67.5 -233t245.5 -72h1v-92h-1q-404 0 -404 396v731zM273 1523q77 82 121.5 112.5t90.5 30.5q53 0 84.5 -33.5t31.5 -87.5q0 -67 -46 -109.5t-120 -42.5q-34 0 -68.5 12.5t-87.5 43.5q-39 24 -62 33t-43 9q-36 0 -62 -27t-67 -104l-46 28
q42 91 82.5 131.5t89.5 40.5q20 0 40 -7.5t62 -29.5zM317 1499q43 -22 68.5 -31t50.5 -9q110 0 110 81q0 31 -19.5 50t-51.5 19q-30 0 -60 -21t-98 -89z" />
    <glyph glyph-name="uniFB52" unicode="&#x67b;" horiz-adv-x="1754" arabic-form="isolated" 
d="M768 -369l108 108l109 -108l-109 -108zM768 -718l108 108l109 -108l-109 -109zM1582 716q23 -76 36 -149.5t13 -141.5q0 -164 -76 -256.5t-241.5 -130.5t-436.5 -38q-268 0 -434 37.5t-242.5 127.5t-76.5 246q0 64 13 140.5t35 164.5l85 -24q-21 -79 -33 -148t-12 -125
q0 -123 64 -194.5t210 -102t391 -30.5q251 0 396 31.5t207 105t62 198.5q0 119 -43 265z" />
    <glyph glyph-name="uniFB53" unicode="&#x67b;" horiz-adv-x="1942" arabic-form="final" 
d="M737 -369l108 108l109 -108l-109 -108zM737 -718l108 108l109 -108l-109 -109zM1661 586q-11 -65 -19 -122.5t-8 -120.5q0 -71 23.5 -128t89.5 -90t194 -33h1v-92h-1q-345 0 -377 286h-10q-88 -163 -287.5 -224.5t-483.5 -61.5q-352 0 -505.5 116.5t-153.5 329.5
q0 68 15 144.5t42 154.5l84 -29q-26 -73 -40.5 -141.5t-14.5 -127.5q0 -177 139 -266t452 -89q211 0 352 29.5t227 91t131.5 157.5t64.5 228z" />
    <glyph glyph-name="uniFB54" unicode="&#x67b;" horiz-adv-x="574" arabic-form="initial" 
d="M36 -369l108 108l109 -108l-109 -108zM36 -718l108 108l109 -108l-109 -109zM393 720q26 -99 42 -189t16 -164q0 -175 -91 -271t-302 -96h-58q-23 0 -23 46t23 46h58q169 0 238.5 69t69.5 200q0 68 -16.5 153t-40.5 183z" />
    <glyph glyph-name="uniFB55" unicode="&#x67b;" horiz-adv-x="850" arabic-form="medial" 
d="M36 -369l108 108l109 -108l-109 -108zM36 -718l108 108l109 -108l-109 -109zM472 443q0 -108 22.5 -186.5t85 -121.5t181.5 -43h89v-92h-92q-127 0 -215.5 62.5t-113.5 180.5h-10q-24 -120 -126.5 -181.5t-235.5 -61.5h-57q-23 0 -23 46t23 46h57q135 0 204.5 43t94 122
t24.5 186v116h92v-116z" />
    <glyph glyph-name="uniFB56" unicode="&#x67e;" horiz-adv-x="1754" arabic-form="isolated" 
d="M1582 716q23 -76 36 -149.5t13 -141.5q0 -164 -76 -256.5t-241.5 -130.5t-436.5 -38q-268 0 -434 37.5t-242.5 127.5t-76.5 246q0 64 13 140.5t35 164.5l85 -24q-21 -79 -33 -148t-12 -125q0 -123 64 -194.5t210 -102t391 -30.5q251 0 396 31.5t207 105t62 198.5
q0 119 -43 265zM941 -369l108 108l109 -108l-109 -109zM593 -369l108 108l109 -108l-109 -109zM768 -666l108 108l109 -108l-109 -109z" />
    <glyph glyph-name="uniFB57" unicode="&#x67e;" horiz-adv-x="1942" arabic-form="final" 
d="M916 -368l108 108l109 -108l-109 -109zM568 -368l108 108l109 -108l-109 -109zM743 -665l108 108l109 -108l-109 -109zM1661 586q-11 -65 -19 -122.5t-8 -120.5q0 -71 23.5 -128t89.5 -90t194 -33h1v-92h-1q-345 0 -377 286h-10q-88 -163 -287.5 -224.5t-483.5 -61.5
q-352 0 -505.5 116.5t-153.5 329.5q0 68 15 144.5t42 154.5l84 -29q-26 -73 -40.5 -141.5t-14.5 -127.5q0 -177 139 -266t452 -89q211 0 352 29.5t227 91t131.5 157.5t64.5 228z" />
    <glyph glyph-name="uniFB58" unicode="&#x67e;" horiz-adv-x="574" arabic-form="initial" 
d="M209 -368l108 108l109 -108l-109 -109zM-139 -368l108 108l109 -108l-109 -109zM36 -665l108 108l109 -108l-109 -109zM393 720q26 -99 42 -189t16 -164q0 -175 -91 -271t-302 -96h-58q-23 0 -23 46t23 46h58q169 0 238.5 69t69.5 200q0 68 -16.5 153t-40.5 183z" />
    <glyph glyph-name="uniFB59" unicode="&#x67e;" horiz-adv-x="850" arabic-form="medial" 
d="M177 -368l108 108l109 -108l-109 -109zM-171 -368l108 108l109 -108l-109 -109zM4 -665l108 108l109 -108l-109 -109zM472 443q0 -108 22.5 -186.5t85 -121.5t181.5 -43h89v-92h-92q-127 0 -215.5 62.5t-113.5 180.5h-10q-24 -120 -126.5 -181.5t-235.5 -61.5h-57
q-23 0 -23 46t23 46h57q135 0 204.5 43t94 122t24.5 186v116h92v-116z" />
    <glyph glyph-name="uniFB5A" unicode="&#x680;" horiz-adv-x="1754" arabic-form="isolated" 
d="M941 -369l108 108l109 -108l-109 -108zM593 -369l108 108l109 -108l-109 -108zM593 -717l108 108l109 -108l-109 -109zM941 -717l108 108l109 -108l-109 -109zM1582 716q23 -76 36 -149.5t13 -141.5q0 -164 -76 -256.5t-241.5 -130.5t-436.5 -38q-268 0 -434 37.5
t-242.5 127.5t-76.5 246q0 64 13 140.5t35 164.5l85 -24q-21 -79 -33 -148t-12 -125q0 -123 64 -194.5t210 -102t391 -30.5q251 0 396 31.5t207 105t62 198.5q0 119 -43 265z" />
    <glyph glyph-name="uniFB5B" unicode="&#x680;" horiz-adv-x="1942" arabic-form="final" 
d="M916 -369l108 108l109 -108l-109 -108zM568 -369l108 108l109 -108l-109 -108zM568 -717l108 108l109 -108l-109 -109zM916 -717l108 108l109 -108l-109 -109zM1661 586q-11 -65 -19 -122.5t-8 -120.5q0 -71 23.5 -128t89.5 -90t194 -33h1v-92h-1q-345 0 -377 286h-10
q-88 -163 -287.5 -224.5t-483.5 -61.5q-352 0 -505.5 116.5t-153.5 329.5q0 68 15 144.5t42 154.5l84 -29q-26 -73 -40.5 -141.5t-14.5 -127.5q0 -177 139 -266t452 -89q211 0 352 29.5t227 91t131.5 157.5t64.5 228z" />
    <glyph glyph-name="uniFB5C" unicode="&#x680;" horiz-adv-x="574" arabic-form="initial" 
d="M209 -369l108 108l109 -108l-109 -108zM-139 -369l108 108l109 -108l-109 -108zM-139 -717l108 108l109 -108l-109 -109zM209 -717l108 108l109 -108l-109 -109zM393 720q26 -99 42 -189t16 -164q0 -175 -91 -271t-302 -96h-58q-23 0 -23 46t23 46h58q169 0 238.5 69
t69.5 200q0 68 -16.5 153t-40.5 183z" />
    <glyph glyph-name="uniFB5D" unicode="&#x680;" horiz-adv-x="850" arabic-form="medial" 
d="M177 -369l108 108l109 -108l-109 -108zM-171 -369l108 108l109 -108l-109 -108zM-171 -717l108 108l109 -108l-109 -109zM177 -717l108 108l109 -108l-109 -109zM472 443q0 -108 22.5 -186.5t85 -121.5t181.5 -43h89v-92h-92q-127 0 -215.5 62.5t-113.5 180.5h-10
q-24 -120 -126.5 -181.5t-235.5 -61.5h-57q-23 0 -23 46t23 46h57q135 0 204.5 43t94 122t24.5 186v116h92v-116z" />
    <glyph glyph-name="uniFB5E" unicode="&#x67a;" horiz-adv-x="1754" arabic-form="isolated" 
d="M1582 716q23 -76 36 -149.5t13 -141.5q0 -164 -76 -256.5t-241.5 -130.5t-436.5 -38q-268 0 -434 37.5t-242.5 127.5t-76.5 246q0 64 13 140.5t35 164.5l85 -24q-21 -79 -33 -148t-12 -125q0 -123 64 -194.5t210 -102t391 -30.5q251 0 396 31.5t207 105t62 198.5
q0 119 -43 265zM768 1014l108 108l109 -108l-109 -108zM768 665l108 108l109 -108l-109 -109z" />
    <glyph glyph-name="uniFB5F" unicode="&#x67a;" horiz-adv-x="1942" arabic-form="final" 
d="M791 1124l108 108l109 -108l-109 -108zM791 775l108 108l109 -108l-109 -109zM1661 586q-11 -65 -19 -122.5t-8 -120.5q0 -71 23.5 -128t89.5 -90t194 -33h1v-92h-1q-345 0 -377 286h-10q-88 -163 -287.5 -224.5t-483.5 -61.5q-352 0 -505.5 116.5t-153.5 329.5
q0 68 15 144.5t42 154.5l84 -29q-26 -73 -40.5 -141.5t-14.5 -127.5q0 -177 139 -266t452 -89q211 0 352 29.5t227 91t131.5 157.5t64.5 228z" />
    <glyph glyph-name="uniFB60" unicode="&#x67a;" horiz-adv-x="574" arabic-form="initial" 
d="M126 1463l108 108l109 -108l-109 -108zM126 1114l108 108l109 -108l-109 -109zM393 720q26 -99 42 -189t16 -164q0 -175 -91 -271t-302 -96h-58q-23 0 -23 46t23 46h58q169 0 238.5 69t69.5 200q0 68 -16.5 153t-40.5 183z" />
    <glyph glyph-name="uniFB61" unicode="&#x67a;" horiz-adv-x="850" arabic-form="medial" 
d="M211 1300l108 108l109 -108l-109 -108zM211 951l108 108l109 -108l-109 -109zM472 443q0 -108 22.5 -186.5t85 -121.5t181.5 -43h89v-92h-92q-127 0 -215.5 62.5t-113.5 180.5h-10q-24 -120 -126.5 -181.5t-235.5 -61.5h-57q-23 0 -23 46t23 46h57q135 0 204.5 43t94 122
t24.5 186v116h92v-116z" />
    <glyph glyph-name="uniFB62" unicode="&#x67f;" horiz-adv-x="1754" arabic-form="isolated" 
d="M941 1170l108 108l109 -108l-109 -108zM593 1170l108 108l109 -108l-109 -108zM593 822l108 108l109 -108l-109 -109zM941 822l108 108l109 -108l-109 -109zM1582 716q23 -76 36 -149.5t13 -141.5q0 -164 -76 -256.5t-241.5 -130.5t-436.5 -38q-268 0 -434 37.5
t-242.5 127.5t-76.5 246q0 64 13 140.5t35 164.5l85 -24q-21 -79 -33 -148t-12 -125q0 -123 64 -194.5t210 -102t391 -30.5q251 0 396 31.5t207 105t62 198.5q0 119 -43 265z" />
    <glyph glyph-name="uniFB63" unicode="&#x67f;" horiz-adv-x="1942" arabic-form="final" 
d="M964 1123l108 108l109 -108l-109 -108zM616 1123l108 108l109 -108l-109 -108zM616 775l108 108l109 -108l-109 -109zM964 775l108 108l109 -108l-109 -109zM1661 586q-11 -65 -19 -122.5t-8 -120.5q0 -71 23.5 -128t89.5 -90t194 -33h1v-92h-1q-345 0 -377 286h-10
q-88 -163 -287.5 -224.5t-483.5 -61.5q-352 0 -505.5 116.5t-153.5 329.5q0 68 15 144.5t42 154.5l84 -29q-26 -73 -40.5 -141.5t-14.5 -127.5q0 -177 139 -266t452 -89q211 0 352 29.5t227 91t131.5 157.5t64.5 228z" />
    <glyph glyph-name="uniFB64" unicode="&#x67f;" horiz-adv-x="574" arabic-form="initial" 
d="M322 1465l108 108l109 -108l-109 -108zM-26 1465l108 108l109 -108l-109 -108zM-26 1117l108 108l109 -108l-109 -109zM322 1117l108 108l109 -108l-109 -109zM393 720q26 -99 42 -189t16 -164q0 -175 -91 -271t-302 -96h-58q-23 0 -23 46t23 46h58q169 0 238.5 69
t69.5 200q0 68 -16.5 153t-40.5 183z" />
    <glyph glyph-name="uniFB65" unicode="&#x67f;" horiz-adv-x="850" arabic-form="medial" 
d="M392 1231l108 108l109 -108l-109 -108zM44 1231l108 108l109 -108l-109 -108zM44 883l108 108l109 -108l-109 -109zM392 883l108 108l109 -108l-109 -109zM472 443q0 -108 22.5 -186.5t85 -121.5t181.5 -43h89v-92h-92q-127 0 -215.5 62.5t-113.5 180.5h-10
q-24 -120 -126.5 -181.5t-235.5 -61.5h-57q-23 0 -23 46t23 46h57q135 0 204.5 43t94 122t24.5 186v116h92v-116z" />
    <glyph glyph-name="uniFB66" unicode="&#x679;" horiz-adv-x="1754" arabic-form="isolated" 
d="M1582 716q23 -76 36 -149.5t13 -141.5q0 -164 -76 -256.5t-241.5 -130.5t-436.5 -38q-268 0 -434 37.5t-242.5 127.5t-76.5 246q0 64 13 140.5t35 164.5l85 -24q-21 -79 -33 -148t-12 -125q0 -123 64 -194.5t210 -102t391 -30.5q251 0 396 31.5t207 105t62 198.5
q0 119 -43 265zM696 756v427h59v-335h10q68 75 122.5 113t109.5 38q62 0 100.5 -39.5t38.5 -101.5q0 -162 -252 -162h-328v60h140zM745 756h139q101 0 148 23.5t47 75.5q0 38 -24.5 61.5t-64.5 23.5q-54 0 -105.5 -41t-139.5 -143z" />
    <glyph glyph-name="uniFB67" unicode="&#x679;" horiz-adv-x="1942" arabic-form="final" 
d="M764 770v427h59v-335h10q68 75 122.5 113t109.5 38q62 0 100.5 -39.5t38.5 -101.5q0 -162 -252 -162h-328v60h140zM813 770h139q101 0 148 23.5t47 75.5q0 38 -24.5 61.5t-64.5 23.5q-54 0 -105.5 -41t-139.5 -143zM1661 586q-11 -65 -19 -122.5t-8 -120.5
q0 -71 23.5 -128t89.5 -90t194 -33h1v-92h-1q-345 0 -377 286h-10q-88 -163 -287.5 -224.5t-483.5 -61.5q-352 0 -505.5 116.5t-153.5 329.5q0 68 15 144.5t42 154.5l84 -29q-26 -73 -40.5 -141.5t-14.5 -127.5q0 -177 139 -266t452 -89q211 0 352 29.5t227 91t131.5 157.5
t64.5 228z" />
    <glyph glyph-name="uniFB68" unicode="&#x679;" horiz-adv-x="574" arabic-form="initial" 
d="M106 1106v427h59v-335h10q68 75 122.5 113t109.5 38q62 0 100.5 -39.5t38.5 -101.5q0 -162 -252 -162h-328v60h140zM155 1106h139q101 0 148 23.5t47 75.5q0 38 -24.5 61.5t-64.5 23.5q-54 0 -105.5 -41t-139.5 -143zM393 720q26 -99 42 -189t16 -164q0 -175 -91 -271
t-302 -96h-58q-23 0 -23 46t23 46h58q169 0 238.5 69t69.5 200q0 68 -16.5 153t-40.5 183z" />
    <glyph glyph-name="uniFB69" unicode="&#x679;" horiz-adv-x="850" arabic-form="medial" 
d="M154 952v427h59v-335h10q68 75 122.5 113t109.5 38q62 0 100.5 -39.5t38.5 -101.5q0 -162 -252 -162h-328v60h140zM203 952h139q101 0 148 23.5t47 75.5q0 38 -24.5 61.5t-64.5 23.5q-54 0 -105.5 -41t-139.5 -143zM472 443q0 -108 22.5 -186.5t85 -121.5t181.5 -43h89
v-92h-92q-127 0 -215.5 62.5t-113.5 180.5h-10q-24 -120 -126.5 -181.5t-235.5 -61.5h-57q-23 0 -23 46t23 46h57q135 0 204.5 43t94 122t24.5 186v116h92v-116z" />
    <glyph glyph-name="uniFB6A" unicode="&#x6a4;" horiz-adv-x="1797" arabic-form="isolated" 
d="M1578 421q-76 -19 -150 -28.5t-135 -9.5q-309 0 -309 260q0 127 40.5 224.5t112.5 153t164 55.5q111 0 192.5 -80t126.5 -226t45 -346q0 -123 -39 -204.5t-129.5 -130t-245.5 -69t-388 -20.5q-273 0 -435 36.5t-233 122.5t-71 235q0 119 46 321l85 -20q-43 -193 -43 -292
q0 -120 61.5 -188t205 -95.5t390.5 -27.5q217 0 355.5 14t215.5 50t107.5 100.5t30.5 164.5zM1572 508q-12 225 -84.5 351t-189.5 126q-66 0 -119 -43.5t-83.5 -119t-30.5 -172.5q0 -180 229 -180q118 0 278 38zM1184 1785l108 108l109 -108l-109 -109zM1358 1488l108 108
l109 -108l-109 -109zM1010 1488l108 108l109 -108l-109 -109z" />
    <glyph glyph-name="uniFB6B" unicode="&#x6a4;" horiz-adv-x="1938" arabic-form="final" 
d="M1326 1550l108 108l109 -108l-109 -109zM1500 1253l108 108l109 -108l-109 -109zM1152 1253l108 108l109 -108l-109 -109zM1436 80q-112 -44 -249 -62t-278 -18q-172 0 -315.5 13.5t-249 53.5t-163 118.5t-57.5 207.5q0 83 20 166t45 157l82 -29q-23 -69 -41.5 -144
t-18.5 -151q0 -125 79 -189.5t234.5 -87t384.5 -23.5q109 0 221 10t208 34l1 9q-102 53 -169 141t-67 218q0 168 94.5 260.5t239.5 92.5q142 0 237.5 -93t95.5 -260q0 -131 -70.5 -220t-173.5 -142l1 -10q61 -20 130.5 -30t140.5 -10h140v-92h-157q-100 0 -179.5 20
t-165.5 60zM1436 173q109 48 176.5 127.5t67.5 204.5q0 122 -68 194t-175 72q-109 0 -177 -72t-68 -194q0 -124 68 -203.5t176 -128.5z" />
    <glyph glyph-name="uniFB6C" unicode="&#x6a4;" horiz-adv-x="959" arabic-form="initial" 
d="M359 1783l108 108l109 -108l-109 -109zM533 1486l108 108l109 -108l-109 -109zM185 1486l108 108l109 -108l-109 -109zM0 92h353q213 0 304.5 77t91.5 252q-152 -38 -284 -38q-311 0 -311 260q0 127 41 224.5t112.5 153t164.5 55.5q112 0 193.5 -80t126 -226t44.5 -346
q0 -220 -122 -322t-386 -102h-328q-23 0 -23 46t23 46zM743 508q-12 225 -84.5 351t-189.5 126q-100 0 -166 -95t-66 -240q0 -180 229 -180q56 0 127.5 10t149.5 28z" />
    <glyph glyph-name="uniFB6D" unicode="&#x6a4;" horiz-adv-x="968" arabic-form="medial" 
d="M375 1550l108 108l109 -108l-109 -109zM549 1253l108 108l109 -108l-109 -109zM201 1253l108 108l109 -108l-109 -109zM150 504q0 168 94.5 260.5t239.5 92.5q143 0 238.5 -93t95.5 -260q0 -131 -71 -220t-172 -142l1 -10q58 -20 125 -30t136 -10h131v-92h-148
q-98 0 -176 20t-161 60q-82 -40 -161.5 -60t-179.5 -20h-142q-23 0 -23 46t23 46h130q142 0 265 40l1 10q-103 53 -174.5 142.5t-71.5 219.5zM484 168q108 50 176 130.5t68 206.5q0 122 -68.5 194t-175.5 72q-108 0 -176.5 -72t-68.5 -194q0 -125 68.5 -206t176.5 -131z" />
    <glyph glyph-name="uniFB6E" unicode="&#x6a6;" horiz-adv-x="1797" arabic-form="isolated" 
d="M1360 1838l108 108l109 -108l-109 -108zM1012 1838l108 108l109 -108l-109 -108zM1012 1490l108 108l109 -108l-109 -109zM1360 1490l108 108l109 -108l-109 -109zM1578 421q-76 -19 -150 -28.5t-135 -9.5q-309 0 -309 260q0 127 40.5 224.5t112.5 153t164 55.5
q111 0 192.5 -80t126.5 -226t45 -346q0 -123 -39 -204.5t-129.5 -130t-245.5 -69t-388 -20.5q-273 0 -435 36.5t-233 122.5t-71 235q0 119 46 321l85 -20q-43 -193 -43 -292q0 -120 61.5 -188t205 -95.5t390.5 -27.5q217 0 355.5 14t215.5 50t107.5 100.5t30.5 164.5z
M1572 508q-12 225 -84.5 351t-189.5 126q-66 0 -119 -43.5t-83.5 -119t-30.5 -172.5q0 -180 229 -180q118 0 278 38z" />
    <glyph glyph-name="uniFB6F" unicode="&#x6a6;" horiz-adv-x="1938" arabic-form="final" 
d="M1500 1601l108 108l109 -108l-109 -108zM1152 1601l108 108l109 -108l-109 -108zM1152 1253l108 108l109 -108l-109 -109zM1500 1253l108 108l109 -108l-109 -109zM1436 80q-112 -44 -249 -62t-278 -18q-172 0 -315.5 13.5t-249 53.5t-163 118.5t-57.5 207.5q0 83 20 166
t45 157l82 -29q-23 -69 -41.5 -144t-18.5 -151q0 -125 79 -189.5t234.5 -87t384.5 -23.5q109 0 221 10t208 34l1 9q-102 53 -169 141t-67 218q0 168 94.5 260.5t239.5 92.5q142 0 237.5 -93t95.5 -260q0 -131 -70.5 -220t-173.5 -142l1 -10q61 -20 130.5 -30t140.5 -10h140
v-92h-157q-100 0 -179.5 20t-165.5 60zM1436 173q109 48 176.5 127.5t67.5 204.5q0 122 -68 194t-175 72q-109 0 -177 -72t-68 -194q0 -124 68 -203.5t176 -128.5z" />
    <glyph glyph-name="uniFB70" unicode="&#x6a6;" horiz-adv-x="959" arabic-form="initial" 
d="M533 1834l108 108l109 -108l-109 -108zM185 1834l108 108l109 -108l-109 -108zM185 1486l108 108l109 -108l-109 -109zM533 1486l108 108l109 -108l-109 -109zM0 92h353q213 0 304.5 77t91.5 252q-152 -38 -284 -38q-311 0 -311 260q0 127 41 224.5t112.5 153t164.5 55.5
q112 0 193.5 -80t126 -226t44.5 -346q0 -220 -122 -322t-386 -102h-328q-23 0 -23 46t23 46zM743 508q-12 225 -84.5 351t-189.5 126q-100 0 -166 -95t-66 -240q0 -180 229 -180q56 0 127.5 10t149.5 28z" />
    <glyph glyph-name="uniFB71" unicode="&#x6a6;" horiz-adv-x="968" arabic-form="medial" 
d="M549 1601l108 108l109 -108l-109 -108zM201 1601l108 108l109 -108l-109 -108zM201 1253l108 108l109 -108l-109 -109zM549 1253l108 108l109 -108l-109 -109zM150 504q0 168 94.5 260.5t239.5 92.5q143 0 238.5 -93t95.5 -260q0 -131 -71 -220t-172 -142l1 -10
q58 -20 125 -30t136 -10h131v-92h-148q-98 0 -176 20t-161 60q-82 -40 -161.5 -60t-179.5 -20h-142q-23 0 -23 46t23 46h130q142 0 265 40l1 10q-103 53 -174.5 142.5t-71.5 219.5zM484 168q108 50 176 130.5t68 206.5q0 122 -68.5 194t-175.5 72q-108 0 -176.5 -72
t-68.5 -194q0 -125 68.5 -206t176.5 -131z" />
    <glyph glyph-name="uniFB72" unicode="&#x684;" horiz-adv-x="1326" arabic-form="isolated" 
d="M725 -128l-92 92l92 92l92 -92zM725 -369l-92 92l92 92l92 -92zM444 801q47 0 116 -20t197 -78t219 -92t182 -58l-7 -119q-122 -16 -253.5 -51.5t-254.5 -90t-221.5 -129t-156.5 -167.5t-58 -206q0 -123 75 -202.5t197.5 -118.5t266.5 -39q112 0 224.5 21.5t210.5 64.5
l44 -83q-115 -49 -238.5 -74t-242.5 -25q-169 0 -311.5 50t-228.5 149.5t-86 249.5q0 121 55 221.5t149.5 181.5t214.5 141.5t252.5 101.5t262.5 63v10q-71 20 -151.5 49.5t-184.5 73.5q-112 47 -174 66.5t-99 19.5q-68 0 -114.5 -46.5t-90.5 -156.5l-6 -16l-71 24l6 17
q52 145 117 206.5t160 61.5z" />
    <glyph glyph-name="uniFB73" unicode="&#x684;" horiz-adv-x="1326" arabic-form="final" 
d="M696 -207l-92 92l92 92l92 -92zM696 -448l-92 92l92 92l92 -92zM444 761q51 0 122.5 -22.5t190.5 -75.5q134 -60 224 -93.5t177 -56.5l-7 -119q-75 -10 -130.5 -19.5t-99.5 -20.5v-11q55 -133 137.5 -192t212.5 -59h55v-92h-55q-152 0 -254 80.5t-164 251.5
q-195 -55 -340.5 -146t-225.5 -203.5t-80 -232.5q0 -109 66.5 -190t187.5 -125.5t285 -44.5q115 0 227 22t208 64l44 -83q-232 -99 -481 -99q-189 0 -330 55.5t-218.5 156.5t-77.5 237q0 166 117.5 310t327.5 248.5t489 150.5v10q-65 17 -143 45.5t-193 77.5
q-112 47 -174 66.5t-99 19.5q-68 0 -114.5 -46.5t-90.5 -156.5l-6 -16l-71 24l6 17q51 143 115.5 205.5t161.5 62.5z" />
    <glyph glyph-name="uniFB74" unicode="&#x684;" horiz-adv-x="1224" arabic-form="initial" 
d="M380 -369l108 108l109 -108l-109 -108zM380 -718l108 108l109 -108l-109 -109zM391 759q47 0 114.5 -21.5t199.5 -77.5q125 -55 214.5 -87.5t181.5 -57.5v-92l-484 -267q-151 -84 -277 -120t-268 -36h-72q-23 0 -23 46t23 46h83q127 0 239 32t257 108l414 220v10
q-70 18 -148.5 47t-182.5 74q-112 47 -173 66.5t-98 19.5q-68 0 -115 -47t-90 -157l-7 -15l-72 24l7 16q53 144 118 206.5t159 62.5z" />
    <glyph glyph-name="uniFB75" unicode="&#x684;" horiz-adv-x="1271" arabic-form="medial" 
d="M380 -369l108 108l109 -108l-109 -108zM380 -718l108 108l109 -108l-109 -109zM391 759q47 0 115 -20t199 -79q125 -55 214.5 -87.5t181.5 -57.5v-92l-255 -139v-10q77 -104 158 -143t183 -39h84v-92h-89q-115 0 -216.5 53t-193.5 189l-155 -86q-151 -83 -277 -119.5
t-268 -36.5h-72q-23 0 -23 46t23 46h83q127 0 239 31.5t257 108.5l414 220v10q-70 18 -148.5 47.5t-182.5 73.5q-112 47 -173 66.5t-98 19.5q-68 0 -114.5 -47t-90.5 -157l-7 -15l-72 24l7 16q54 143 118.5 206t158.5 63z" />
    <glyph glyph-name="uniFB76" unicode="&#x683;" horiz-adv-x="1326" arabic-form="isolated" 
d="M787 -170l92 92l92 -92l-92 -92zM510 -170l92 92l92 -92l-92 -92zM444 801q47 0 116 -20t197 -78t219 -92t182 -58l-7 -119q-122 -16 -253.5 -51.5t-254.5 -90t-221.5 -129t-156.5 -167.5t-58 -206q0 -123 75 -202.5t197.5 -118.5t266.5 -39q112 0 224.5 21.5t210.5 64.5
l44 -83q-115 -49 -238.5 -74t-242.5 -25q-169 0 -311.5 50t-228.5 149.5t-86 249.5q0 121 55 221.5t149.5 181.5t214.5 141.5t252.5 101.5t262.5 63v10q-71 20 -151.5 49.5t-184.5 73.5q-112 47 -174 66.5t-99 19.5q-68 0 -114.5 -46.5t-90.5 -156.5l-6 -16l-71 24l6 17
q52 145 117 206.5t160 61.5z" />
    <glyph glyph-name="uniFB77" unicode="&#x683;" horiz-adv-x="1326" arabic-form="final" 
d="M783 -214l92 92l92 -92l-92 -92zM506 -214l92 92l92 -92l-92 -92zM444 761q51 0 122.5 -22.5t190.5 -75.5q134 -60 224 -93.5t177 -56.5l-7 -119q-75 -10 -130.5 -19.5t-99.5 -20.5v-11q55 -133 137.5 -192t212.5 -59h55v-92h-55q-152 0 -254 80.5t-164 251.5
q-195 -55 -340.5 -146t-225.5 -203.5t-80 -232.5q0 -109 66.5 -190t187.5 -125.5t285 -44.5q115 0 227 22t208 64l44 -83q-232 -99 -481 -99q-189 0 -330 55.5t-218.5 156.5t-77.5 237q0 166 117.5 310t327.5 248.5t489 150.5v10q-65 17 -143 45.5t-193 77.5
q-112 47 -174 66.5t-99 19.5q-68 0 -114.5 -46.5t-90.5 -156.5l-6 -16l-71 24l6 17q51 143 115.5 205.5t161.5 62.5z" />
    <glyph glyph-name="uniFB78" unicode="&#x683;" horiz-adv-x="1224" arabic-form="initial" 
d="M219 -321l108 108l109 -108l-109 -109zM567 -321l108 108l109 -108l-109 -109zM391 759q47 0 114.5 -21.5t199.5 -77.5q125 -55 214.5 -87.5t181.5 -57.5v-92l-484 -267q-151 -84 -277 -120t-268 -36h-72q-23 0 -23 46t23 46h83q127 0 239 32t257 108l414 220v10
q-70 18 -148.5 47t-182.5 74q-112 47 -173 66.5t-98 19.5q-68 0 -115 -47t-90 -157l-7 -15l-72 24l7 16q53 144 118 206.5t159 62.5z" />
    <glyph glyph-name="uniFB79" unicode="&#x683;" horiz-adv-x="1271" arabic-form="medial" 
d="M219 -321l108 108l109 -108l-109 -109zM567 -321l108 108l109 -108l-109 -109zM391 759q47 0 115 -20t199 -79q125 -55 214.5 -87.5t181.5 -57.5v-92l-255 -139v-10q77 -104 158 -143t183 -39h84v-92h-89q-115 0 -216.5 53t-193.5 189l-155 -86q-151 -83 -277 -119.5
t-268 -36.5h-72q-23 0 -23 46t23 46h83q127 0 239 31.5t257 108.5l414 220v10q-70 18 -148.5 47.5t-182.5 73.5q-112 47 -173 66.5t-98 19.5q-68 0 -114.5 -47t-90.5 -157l-7 -15l-72 24l7 16q54 143 118.5 206t158.5 63z" />
    <glyph glyph-name="uniFB7A" unicode="&#x686;" horiz-adv-x="1420" arabic-form="isolated" 
d="M444 801q47 0 116 -20t197 -78t219 -92t182 -58l-7 -119q-122 -16 -253.5 -51.5t-254.5 -90t-221.5 -129t-156.5 -167.5t-58 -206q0 -123 75 -202.5t197.5 -118.5t266.5 -39q112 0 224.5 21.5t210.5 64.5l44 -83q-115 -49 -238.5 -74t-242.5 -25q-169 0 -311.5 50
t-228.5 149.5t-86 249.5q0 121 55 221.5t149.5 181.5t214.5 141.5t252.5 101.5t262.5 63v10q-71 20 -151.5 49.5t-184.5 73.5q-112 47 -174 66.5t-99 19.5q-68 0 -114.5 -46.5t-90.5 -156.5l-6 -16l-71 24l6 17q52 145 117 206.5t160 61.5zM470 -73l92 92l92 -92l-92 -93z
M794 -74l92 92l92 -92l-92 -92zM632 -320l92 91l90 -91l-90 -91z" />
    <glyph glyph-name="uniFB7B" unicode="&#x686;" horiz-adv-x="1326" arabic-form="final" 
d="M450 -113l92 92l92 -92l-92 -93zM774 -114l92 92l92 -92l-92 -92zM612 -360l92 91l90 -91l-90 -91zM444 761q51 0 122.5 -22.5t190.5 -75.5q134 -60 224 -93.5t177 -56.5l-7 -119q-75 -10 -130.5 -19.5t-99.5 -20.5v-11q55 -133 137.5 -192t212.5 -59h55v-92h-55
q-152 0 -254 80.5t-164 251.5q-195 -55 -340.5 -146t-225.5 -203.5t-80 -232.5q0 -109 66.5 -190t187.5 -125.5t285 -44.5q115 0 227 22t208 64l44 -83q-232 -99 -481 -99q-189 0 -330 55.5t-218.5 156.5t-77.5 237q0 166 117.5 310t327.5 248.5t489 150.5v10
q-65 17 -143 45.5t-193 77.5q-112 47 -174 66.5t-99 19.5q-68 0 -114.5 -46.5t-90.5 -156.5l-6 -16l-71 24l6 17q51 143 115.5 205.5t161.5 62.5z" />
    <glyph glyph-name="uniFB7C" unicode="&#x686;" horiz-adv-x="1224" arabic-form="initial" 
d="M567 -315l108 108l109 -108l-109 -109zM219 -315l108 108l109 -108l-109 -109zM394 -612l108 108l109 -108l-109 -109zM391 759q47 0 114.5 -21.5t199.5 -77.5q125 -55 214.5 -87.5t181.5 -57.5v-92l-484 -267q-151 -84 -277 -120t-268 -36h-72q-23 0 -23 46t23 46h83
q127 0 239 32t257 108l414 220v10q-70 18 -148.5 47t-182.5 74q-112 47 -173 66.5t-98 19.5q-68 0 -115 -47t-90 -157l-7 -15l-72 24l7 16q53 144 118 206.5t159 62.5z" />
    <glyph glyph-name="uniFB7D" unicode="&#x686;" horiz-adv-x="1271" arabic-form="medial" 
d="M567 -315l108 108l109 -108l-109 -109zM219 -315l108 108l109 -108l-109 -109zM394 -612l108 108l109 -108l-109 -109zM391 759q47 0 115 -20t199 -79q125 -55 214.5 -87.5t181.5 -57.5v-92l-255 -139v-10q77 -104 158 -143t183 -39h84v-92h-89q-115 0 -216.5 53
t-193.5 189l-155 -86q-151 -83 -277 -119.5t-268 -36.5h-72q-23 0 -23 46t23 46h83q127 0 239 31.5t257 108.5l414 220v10q-70 18 -148.5 47.5t-182.5 73.5q-112 47 -173 66.5t-98 19.5q-68 0 -114.5 -47t-90.5 -157l-7 -15l-72 24l7 16q54 143 118.5 206t158.5 63z" />
    <glyph glyph-name="uniFB7E" unicode="&#x687;" horiz-adv-x="1326" arabic-form="isolated" 
d="M509 -3l93 93l92 -93l-92 -93zM785 -3l93 93l93 -93l-93 -93zM509 -279l93 93l92 -93l-92 -93zM785 -279l93 93l93 -93l-93 -93zM444 801q47 0 116 -20t197 -78t219 -92t182 -58l-7 -119q-122 -16 -253.5 -51.5t-254.5 -90t-221.5 -129t-156.5 -167.5t-58 -206
q0 -123 75 -202.5t197.5 -118.5t266.5 -39q112 0 224.5 21.5t210.5 64.5l44 -83q-115 -49 -238.5 -74t-242.5 -25q-169 0 -311.5 50t-228.5 149.5t-86 249.5q0 121 55 221.5t149.5 181.5t214.5 141.5t252.5 101.5t262.5 63v10q-71 20 -151.5 49.5t-184.5 73.5
q-112 47 -174 66.5t-99 19.5q-68 0 -114.5 -46.5t-90.5 -156.5l-6 -16l-71 24l6 17q52 145 117 206.5t160 61.5z" />
    <glyph glyph-name="uniFB7F" unicode="&#x687;" horiz-adv-x="1326" arabic-form="final" 
d="M468 -73l93 93l92 -93l-92 -93zM744 -73l93 93l93 -93l-93 -93zM468 -349l93 93l92 -93l-92 -93zM744 -349l93 93l93 -93l-93 -93zM444 761q51 0 122.5 -22.5t190.5 -75.5q134 -60 224 -93.5t177 -56.5l-7 -119q-75 -10 -130.5 -19.5t-99.5 -20.5v-11q55 -133 137.5 -192
t212.5 -59h55v-92h-55q-152 0 -254 80.5t-164 251.5q-195 -55 -340.5 -146t-225.5 -203.5t-80 -232.5q0 -109 66.5 -190t187.5 -125.5t285 -44.5q115 0 227 22t208 64l44 -83q-232 -99 -481 -99q-189 0 -330 55.5t-218.5 156.5t-77.5 237q0 166 117.5 310t327.5 248.5
t489 150.5v10q-65 17 -143 45.5t-193 77.5q-112 47 -174 66.5t-99 19.5q-68 0 -114.5 -46.5t-90.5 -156.5l-6 -16l-71 24l6 17q51 143 115.5 205.5t161.5 62.5z" />
    <glyph glyph-name="uniFB80" unicode="&#x687;" horiz-adv-x="1224" arabic-form="initial" 
d="M567 -321l108 108l109 -108l-109 -108zM219 -321l108 108l109 -108l-109 -108zM219 -669l108 108l109 -108l-109 -109zM567 -669l108 108l109 -108l-109 -109zM391 759q47 0 114.5 -21.5t199.5 -77.5q125 -55 214.5 -87.5t181.5 -57.5v-92l-484 -267q-151 -84 -277 -120
t-268 -36h-72q-23 0 -23 46t23 46h83q127 0 239 32t257 108l414 220v10q-70 18 -148.5 47t-182.5 74q-112 47 -173 66.5t-98 19.5q-68 0 -115 -47t-90 -157l-7 -15l-72 24l7 16q53 144 118 206.5t159 62.5z" />
    <glyph glyph-name="uniFB81" unicode="&#x687;" horiz-adv-x="1271" arabic-form="medial" 
d="M567 -321l108 108l109 -108l-109 -108zM219 -321l108 108l109 -108l-109 -108zM219 -669l108 108l109 -108l-109 -109zM567 -669l108 108l109 -108l-109 -109zM391 759q47 0 115 -20t199 -79q125 -55 214.5 -87.5t181.5 -57.5v-92l-255 -139v-10q77 -104 158 -143
t183 -39h84v-92h-89q-115 0 -216.5 53t-193.5 189l-155 -86q-151 -83 -277 -119.5t-268 -36.5h-72q-23 0 -23 46t23 46h83q127 0 239 31.5t257 108.5l414 220v10q-70 18 -148.5 47.5t-182.5 73.5q-112 47 -173 66.5t-98 19.5q-68 0 -114.5 -47t-90.5 -157l-7 -15l-72 24
l7 16q54 143 118.5 206t158.5 63z" />
    <glyph glyph-name="uniFB82" unicode="&#x68d;" horiz-adv-x="1006" arabic-form="isolated" 
d="M105 -369l108 108l109 -108l-109 -109zM453 -369l108 108l109 -108l-109 -109zM883 344q0 -100 -43 -168t-115 -108.5t-160.5 -58.5t-179.5 -18q-64 0 -129 8t-133 26l21 88q66 -17 125 -24t117 -7q190 0 299 65.5t109 195.5q0 113 -85.5 242.5t-257.5 285.5l61 72
q182 -164 276.5 -313t94.5 -286z" />
    <glyph glyph-name="uniFB83" unicode="&#x68d;" horiz-adv-x="1273" arabic-form="final" 
d="M242 -369l108 108l109 -108l-109 -109zM590 -369l108 108l109 -108l-109 -109zM679 931l276 -642q50 -114 118.5 -155.5t180.5 -41.5h19v-92h-19q-127 0 -219.5 50.5t-136.5 168.5h-10q-52 -111 -163.5 -170t-237.5 -59q-94 0 -187.5 34.5t-176.5 105.5l52 74
q72 -63 153.5 -92t159.5 -29q111 0 209 53.5t156 154.5l-263 598z" />
    <glyph glyph-name="uniFB84" unicode="&#x68c;" horiz-adv-x="1006" arabic-form="isolated" 
d="M237 1332l108 108l109 -108l-109 -109zM585 1332l108 108l109 -108l-109 -109zM883 344q0 -100 -43 -168t-115 -108.5t-160.5 -58.5t-179.5 -18q-64 0 -129 8t-133 26l21 88q66 -17 125 -24t117 -7q190 0 299 65.5t109 195.5q0 113 -85.5 242.5t-257.5 285.5l61 72
q182 -164 276.5 -313t94.5 -286z" />
    <glyph glyph-name="uniFB85" unicode="&#x68c;" horiz-adv-x="1273" arabic-form="final" 
d="M355 1332l108 108l109 -108l-109 -109zM703 1332l108 108l109 -108l-109 -109zM679 931l276 -642q50 -114 118.5 -155.5t180.5 -41.5h19v-92h-19q-127 0 -219.5 50.5t-136.5 168.5h-10q-52 -111 -163.5 -170t-237.5 -59q-94 0 -187.5 34.5t-176.5 105.5l52 74
q72 -63 153.5 -92t159.5 -29q111 0 209 53.5t156 154.5l-263 598z" />
    <glyph glyph-name="uniFB86" unicode="&#x68e;" horiz-adv-x="1006" arabic-form="isolated" 
d="M411 1629l108 108l109 -108l-109 -109zM585 1332l108 108l109 -108l-109 -109zM237 1332l108 108l109 -108l-109 -109zM883 344q0 -100 -43 -168t-115 -108.5t-160.5 -58.5t-179.5 -18q-64 0 -129 8t-133 26l21 88q66 -17 125 -24t117 -7q190 0 299 65.5t109 195.5
q0 113 -85.5 242.5t-257.5 285.5l61 72q182 -164 276.5 -313t94.5 -286z" />
    <glyph glyph-name="uniFB87" unicode="&#x68e;" horiz-adv-x="1273" arabic-form="final" 
d="M529 1629l108 108l109 -108l-109 -109zM703 1332l108 108l109 -108l-109 -109zM355 1332l108 108l109 -108l-109 -109zM679 931l276 -642q50 -114 118.5 -155.5t180.5 -41.5h19v-92h-19q-127 0 -219.5 50.5t-136.5 168.5h-10q-52 -111 -163.5 -170t-237.5 -59
q-94 0 -187.5 34.5t-176.5 105.5l52 74q72 -63 153.5 -92t159.5 -29q111 0 209 53.5t156 154.5l-263 598z" />
    <glyph glyph-name="uniFB88" unicode="&#x688;" horiz-adv-x="1006" arabic-form="isolated" 
d="M323 1281v427h59v-335h10q68 75 122.5 113t109.5 38q62 0 100.5 -39.5t38.5 -101.5q0 -162 -252 -162h-328v60h140zM372 1281h139q101 0 148 23.5t47 75.5q0 38 -24.5 61.5t-64.5 23.5q-54 0 -105.5 -41t-139.5 -143zM883 344q0 -100 -43 -168t-115 -108.5t-160.5 -58.5
t-179.5 -18q-64 0 -129 8t-133 26l21 88q66 -17 125 -24t117 -7q190 0 299 65.5t109 195.5q0 113 -85.5 242.5t-257.5 285.5l61 72q182 -164 276.5 -313t94.5 -286z" />
    <glyph glyph-name="uniFB89" unicode="&#x688;" horiz-adv-x="1273" arabic-form="final" 
d="M466 1278v427h59v-335h10q68 75 122.5 113t109.5 38q62 0 100.5 -39.5t38.5 -101.5q0 -162 -252 -162h-328v60h140zM515 1278h139q101 0 148 23.5t47 75.5q0 38 -24.5 61.5t-64.5 23.5q-54 0 -105.5 -41t-139.5 -143zM679 931l276 -642q50 -114 118.5 -155.5t180.5 -41.5
h19v-92h-19q-127 0 -219.5 50.5t-136.5 168.5h-10q-52 -111 -163.5 -170t-237.5 -59q-94 0 -187.5 34.5t-176.5 105.5l52 74q72 -63 153.5 -92t159.5 -29q111 0 209 53.5t156 154.5l-263 598z" />
    <glyph glyph-name="uniFB8A" unicode="&#x698;" horiz-adv-x="566" arabic-form="isolated" 
d="M229 541l85 32q57 -163 87 -294t30 -233q0 -196 -134.5 -335t-429.5 -246l-37 84q272 99 392 213.5t120 277.5q0 92 -29.5 221t-83.5 280zM182 1248l108 108l109 -108l-109 -109zM356 951l108 108l109 -108l-109 -109zM8 951l108 108l109 -108l-109 -109z" />
    <glyph glyph-name="uniFB8B" unicode="&#x698;" horiz-adv-x="750" arabic-form="final" 
d="M182 1248l108 108l109 -108l-109 -109zM356 951l108 108l109 -108l-109 -109zM8 951l108 108l109 -108l-109 -109zM229 541l85 32l61 -187q34 -105 79 -169.5t115 -94.5t180 -30h1v-92h-1q-111 0 -196.5 38t-131.5 108l-10 -4q23 -171 -27 -294t-178 -214t-339 -169
l-37 84q274 100 393 214t119 277q0 90 -29 218.5t-84 282.5z" />
    <glyph glyph-name="uniFB8C" unicode="&#x691;" horiz-adv-x="566" arabic-form="isolated" 
d="M114 974v427h59v-335h10q68 75 122.5 113t109.5 38q62 0 100.5 -39.5t38.5 -101.5q0 -162 -252 -162h-328v60h140zM163 974h139q101 0 148 23.5t47 75.5q0 38 -24.5 61.5t-64.5 23.5q-54 0 -105.5 -41t-139.5 -143zM229 541l85 32q57 -163 87 -294t30 -233
q0 -196 -134.5 -335t-429.5 -246l-37 84q272 99 392 213.5t120 277.5q0 92 -29.5 221t-83.5 280z" />
    <glyph glyph-name="uniFB8D" unicode="&#x691;" horiz-adv-x="750" arabic-form="final" 
d="M114 974v427h59v-335h10q68 75 122.5 113t109.5 38q62 0 100.5 -39.5t38.5 -101.5q0 -162 -252 -162h-328v60h140zM163 974h139q101 0 148 23.5t47 75.5q0 38 -24.5 61.5t-64.5 23.5q-54 0 -105.5 -41t-139.5 -143zM229 541l85 32l61 -187q34 -105 79 -169.5t115 -94.5
t180 -30h1v-92h-1q-111 0 -196.5 38t-131.5 108l-10 -4q23 -171 -27 -294t-178 -214t-339 -169l-37 84q274 100 393 214t119 277q0 90 -29 218.5t-84 282.5z" />
    <glyph glyph-name="uniFB8E" unicode="&#x6a9;" horiz-adv-x="1649" arabic-form="isolated" 
d="M166 719l85 -22q-42 -177 -42 -281q0 -119 56 -190t182.5 -102.5t337.5 -31.5q300 0 458 65t158 188q0 101 -130.5 230t-388.5 307l10 110q154 66 354.5 132.5t420.5 123.5l17 -92q-236 -60 -411.5 -115.5t-300.5 -108.5l-1 -9q183 -136 298 -237.5t169 -182.5t54 -158
q0 -166 -186.5 -255.5t-530.5 -89.5q-234 0 -377.5 41t-208.5 132t-65 239q0 59 10 134.5t32 172.5z" />
    <glyph glyph-name="uniFB8F" unicode="&#x6a9;" horiz-adv-x="1971" arabic-form="final" 
d="M1464 343q16 -175 -152.5 -259t-535.5 -84q-234 0 -376.5 41t-207 131.5t-64.5 239.5q0 123 42 307l85 -22q-42 -178 -42 -281q0 -119 55.5 -190t180.5 -102.5t335 -31.5q314 0 465 59t151 181q0 192 -518 550l10 110q158 68 359.5 134.5t415.5 121.5l17 -92
q-226 -57 -403.5 -112.5t-308.5 -111.5l-1 -9q124 -92 211 -162.5t148.5 -130t106.5 -116.5t84 -123q71 -121 131 -185.5t133.5 -89t184.5 -24.5h1v-92h-1q-133 0 -225.5 33t-156.5 108.5t-114 201.5h-10z" />
    <glyph glyph-name="uniFB90" unicode="&#x6a9;" horiz-adv-x="807" arabic-form="initial" 
d="M824 1248l18 -92q-237 -60 -412.5 -115.5t-300.5 -108.5l-1 -9q185 -136 299.5 -238.5t168 -188t53.5 -170.5q0 -157 -139.5 -241.5t-400.5 -84.5h-109q-23 0 -23 46t23 46h108q221 0 336 61.5t115 177.5q0 106 -125 231.5t-394 319.5l10 110q153 66 353.5 132.5
t420.5 123.5z" />
    <glyph glyph-name="uniFB91" unicode="&#x6a9;" horiz-adv-x="1127" arabic-form="medial" 
d="M620 343q16 -178 -114 -260.5t-397 -82.5h-109q-23 0 -23 46t23 46h108q231 0 340.5 63t109.5 175q0 61 -49.5 137.5t-162.5 178t-306 236.5l10 110q158 68 359.5 134.5t414.5 121.5l18 -92q-226 -57 -404 -112.5t-309 -111.5l-1 -9q161 -118 263.5 -205.5t169 -163.5
t117.5 -162q68 -114 125.5 -179.5t131.5 -93t191 -27.5h1v-92h-1q-132 0 -224.5 33.5t-157 108.5t-114.5 201h-10z" />
    <glyph glyph-name="uniFB92" unicode="&#x6af;" horiz-adv-x="1649" arabic-form="isolated" 
d="M1515 1512l12 -62q-373 -64 -671 -218l-30 56q298 155 689 224zM166 719l85 -22q-42 -177 -42 -281q0 -119 56 -190t182.5 -102.5t337.5 -31.5q300 0 458 65t158 188q0 101 -130.5 230t-388.5 307l10 110q154 66 354.5 132.5t420.5 123.5l17 -92q-236 -60 -411.5 -115.5
t-300.5 -108.5l-1 -9q183 -136 298 -237.5t169 -182.5t54 -158q0 -166 -186.5 -255.5t-530.5 -89.5q-234 0 -377.5 41t-208.5 132t-65 239q0 59 10 134.5t32 172.5z" />
    <glyph glyph-name="uniFB93" unicode="&#x6af;" horiz-adv-x="1971" arabic-form="final" 
d="M1464 343q16 -175 -152.5 -259t-535.5 -84q-234 0 -376.5 41t-207 131.5t-64.5 239.5q0 123 42 307l85 -22q-42 -178 -42 -281q0 -119 55.5 -190t180.5 -102.5t335 -31.5q314 0 465 59t151 181q0 192 -518 550l10 110q158 68 359.5 134.5t415.5 121.5l17 -92
q-226 -57 -403.5 -112.5t-308.5 -111.5l-1 -9q124 -92 211 -162.5t148.5 -130t106.5 -116.5t84 -123q71 -121 131 -185.5t133.5 -89t184.5 -24.5h1v-92h-1q-133 0 -225.5 33t-156.5 108.5t-114 201.5h-10zM1515 1512l12 -62q-373 -64 -671 -218l-30 56q298 155 689 224z" />
    <glyph glyph-name="uniFB94" unicode="&#x6af;" horiz-adv-x="807" arabic-form="initial" 
d="M824 1248l18 -92q-237 -60 -412.5 -115.5t-300.5 -108.5l-1 -9q185 -136 299.5 -238.5t168 -188t53.5 -170.5q0 -157 -139.5 -241.5t-400.5 -84.5h-109q-23 0 -23 46t23 46h108q221 0 336 61.5t115 177.5q0 106 -125 231.5t-394 319.5l10 110q153 66 353.5 132.5
t420.5 123.5zM684 1512l12 -62q-373 -64 -671 -218l-30 56q298 155 689 224z" />
    <glyph glyph-name="uniFB95" unicode="&#x6af;" horiz-adv-x="1127" arabic-form="medial" 
d="M620 343q16 -178 -114 -260.5t-397 -82.5h-109q-23 0 -23 46t23 46h108q231 0 340.5 63t109.5 175q0 61 -49.5 137.5t-162.5 178t-306 236.5l10 110q158 68 359.5 134.5t414.5 121.5l18 -92q-226 -57 -404 -112.5t-309 -111.5l-1 -9q161 -118 263.5 -205.5t169 -163.5
t117.5 -162q68 -114 125.5 -179.5t131.5 -93t191 -27.5h1v-92h-1q-132 0 -224.5 33.5t-157 108.5t-114.5 201h-10zM684 1512l12 -62q-373 -64 -671 -218l-30 56q298 155 689 224z" />
    <glyph glyph-name="uniFB96" unicode="&#x6b3;" horiz-adv-x="1649" arabic-form="isolated" 
d="M644 -369l108 108l109 -108l-109 -108zM644 -718l108 108l109 -108l-109 -109zM1515 1512l12 -62q-373 -64 -671 -218l-30 56q298 155 689 224zM166 719l85 -22q-42 -177 -42 -281q0 -119 56 -190t182.5 -102.5t337.5 -31.5q300 0 458 65t158 188q0 101 -130.5 230
t-388.5 307l10 110q154 66 354.5 132.5t420.5 123.5l17 -92q-236 -60 -411.5 -115.5t-300.5 -108.5l-1 -9q183 -136 298 -237.5t169 -182.5t54 -158q0 -166 -186.5 -255.5t-530.5 -89.5q-234 0 -377.5 41t-208.5 132t-65 239q0 59 10 134.5t32 172.5z" />
    <glyph glyph-name="uniFB97" unicode="&#x6b3;" horiz-adv-x="1971" arabic-form="final" 
d="M643 -369l108 108l109 -108l-109 -108zM643 -718l108 108l109 -108l-109 -109zM1464 343q16 -175 -152.5 -259t-535.5 -84q-234 0 -376.5 41t-207 131.5t-64.5 239.5q0 123 42 307l85 -22q-42 -178 -42 -281q0 -119 55.5 -190t180.5 -102.5t335 -31.5q314 0 465 59
t151 181q0 192 -518 550l10 110q158 68 359.5 134.5t415.5 121.5l17 -92q-226 -57 -403.5 -112.5t-308.5 -111.5l-1 -9q124 -92 211 -162.5t148.5 -130t106.5 -116.5t84 -123q71 -121 131 -185.5t133.5 -89t184.5 -24.5h1v-92h-1q-133 0 -225.5 33t-156.5 108.5t-114 201.5
h-10zM1515 1512l12 -62q-373 -64 -671 -218l-30 56q298 155 689 224z" />
    <glyph glyph-name="uniFB98" unicode="&#x6b3;" horiz-adv-x="807" arabic-form="initial" 
d="M344 -369l108 108l109 -108l-109 -108zM344 -718l108 108l109 -108l-109 -109zM824 1248l18 -92q-237 -60 -412.5 -115.5t-300.5 -108.5l-1 -9q185 -136 299.5 -238.5t168 -188t53.5 -170.5q0 -157 -139.5 -241.5t-400.5 -84.5h-109q-23 0 -23 46t23 46h108
q221 0 336 61.5t115 177.5q0 106 -125 231.5t-394 319.5l10 110q153 66 353.5 132.5t420.5 123.5zM684 1512l12 -62q-373 -64 -671 -218l-30 56q298 155 689 224z" />
    <glyph glyph-name="uniFB99" unicode="&#x6b3;" horiz-adv-x="1127" arabic-form="medial" 
d="M479 -369l108 108l109 -108l-109 -108zM479 -718l108 108l109 -108l-109 -109zM620 343q16 -178 -114 -260.5t-397 -82.5h-109q-23 0 -23 46t23 46h108q231 0 340.5 63t109.5 175q0 61 -49.5 137.5t-162.5 178t-306 236.5l10 110q158 68 359.5 134.5t414.5 121.5l18 -92
q-226 -57 -404 -112.5t-309 -111.5l-1 -9q161 -118 263.5 -205.5t169 -163.5t117.5 -162q68 -114 125.5 -179.5t131.5 -93t191 -27.5h1v-92h-1q-132 0 -224.5 33.5t-157 108.5t-114.5 201h-10zM684 1512l12 -62q-373 -64 -671 -218l-30 56q298 155 689 224z" />
    <glyph glyph-name="uniFB9A" unicode="&#x6b1;" horiz-adv-x="1649" arabic-form="isolated" 
d="M166 719l85 -22q-42 -177 -42 -281q0 -119 56 -190t182.5 -102.5t337.5 -31.5q300 0 458 65t158 188q0 101 -130.5 230t-388.5 307l10 110q154 66 354.5 132.5t420.5 123.5l17 -92q-236 -60 -411.5 -115.5t-300.5 -108.5l-1 -9q183 -136 298 -237.5t169 -182.5t54 -158
q0 -166 -186.5 -255.5t-530.5 -89.5q-234 0 -377.5 41t-208.5 132t-65 239q0 59 10 134.5t32 172.5zM1515 1512l12 -62q-373 -64 -671 -218l-30 56q298 155 689 224zM1124 1750l109 109l109 -109l-109 -109zM806 1664l109 109l109 -109l-109 -109z" />
    <glyph glyph-name="uniFB9B" unicode="&#x6b1;" horiz-adv-x="1971" arabic-form="final" 
d="M1464 343q16 -175 -152.5 -259t-535.5 -84q-234 0 -376.5 41t-207 131.5t-64.5 239.5q0 123 42 307l85 -22q-42 -178 -42 -281q0 -119 55.5 -190t180.5 -102.5t335 -31.5q314 0 465 59t151 181q0 192 -518 550l10 110q158 68 359.5 134.5t415.5 121.5l17 -92
q-226 -57 -403.5 -112.5t-308.5 -111.5l-1 -9q124 -92 211 -162.5t148.5 -130t106.5 -116.5t84 -123q71 -121 131 -185.5t133.5 -89t184.5 -24.5h1v-92h-1q-133 0 -225.5 33t-156.5 108.5t-114 201.5h-10zM1515 1512l12 -62q-373 -64 -671 -218l-30 56q298 155 689 224z
M1124 1750l109 109l109 -109l-109 -109zM806 1664l109 109l109 -109l-109 -109z" />
    <glyph glyph-name="uniFB9C" unicode="&#x6b1;" horiz-adv-x="807" arabic-form="initial" 
d="M824 1248l18 -92q-237 -60 -412.5 -115.5t-300.5 -108.5l-1 -9q185 -136 299.5 -238.5t168 -188t53.5 -170.5q0 -157 -139.5 -241.5t-400.5 -84.5h-109q-23 0 -23 46t23 46h108q221 0 336 61.5t115 177.5q0 106 -125 231.5t-394 319.5l10 110q153 66 353.5 132.5
t420.5 123.5zM684 1512l12 -62q-373 -64 -671 -218l-30 56q298 155 689 224zM361 1750l109 109l109 -109l-109 -109zM43 1664l109 109l109 -109l-109 -109z" />
    <glyph glyph-name="uniFB9D" unicode="&#x6b1;" horiz-adv-x="1127" arabic-form="medial" 
d="M620 343q16 -178 -114 -260.5t-397 -82.5h-109q-23 0 -23 46t23 46h108q231 0 340.5 63t109.5 175q0 61 -49.5 137.5t-162.5 178t-306 236.5l10 110q158 68 359.5 134.5t414.5 121.5l18 -92q-226 -57 -404 -112.5t-309 -111.5l-1 -9q161 -118 263.5 -205.5t169 -163.5
t117.5 -162q68 -114 125.5 -179.5t131.5 -93t191 -27.5h1v-92h-1q-132 0 -224.5 33.5t-157 108.5t-114.5 201h-10zM684 1512l12 -62q-373 -64 -671 -218l-30 56q298 155 689 224zM361 1750l109 109l109 -109l-109 -109zM43 1664l109 109l109 -109l-109 -109z" />
    <glyph glyph-name="uniFB9E" unicode="&#x6ba;" horiz-adv-x="1500" arabic-form="isolated" 
d="M1149 570l85 37q74 -173 107 -296t33 -226q0 -190 -79 -308.5t-220.5 -173.5t-329.5 -55q-289 0 -453 128.5t-164 420.5q0 76 12.5 178t43.5 255l87 -17q-31 -155 -43 -250.5t-12 -162.5q0 -253 136.5 -356.5t390.5 -103.5q167 0 289 42.5t188.5 140t66.5 260.5
q0 90 -32 202t-106 285z" />
    <glyph glyph-name="uniFB9F" unicode="&#x6ba;" horiz-adv-x="1645" arabic-form="final" 
d="M184 490l87 -17q-31 -155 -43 -250.5t-12 -162.5q0 -249 136.5 -350.5t390.5 -101.5q269 0 408 103.5t139 302.5q0 84 -36.5 205t-112.5 311l80 37l60 -152q50 -125 94.5 -195.5t105.5 -99t162 -28.5h2v-92h-1q-187 0 -281 128l-9 -4q48 -313 -116 -460.5t-493 -147.5
q-289 0 -453 126.5t-164 414.5q0 76 12.5 177.5t43.5 255.5z" />
    <glyph glyph-name="uniFBA0" unicode="&#x6bb;" horiz-adv-x="1500" arabic-form="isolated" 
d="M608 330v335h51v-253h10q71 75 110.5 100t85.5 25q45 0 76.5 -34.5t31.5 -83.5q0 -139 -244 -139h-226v50h105zM649 330h80q102 0 148 21t46 66q0 31 -20.5 49.5t-52.5 18.5q-40 0 -80.5 -31t-120.5 -124zM1149 570l85 37q74 -173 107 -296t33 -226q0 -190 -79 -308.5
t-220.5 -173.5t-329.5 -55q-289 0 -453 128.5t-164 420.5q0 76 12.5 178t43.5 255l87 -17q-31 -155 -43 -250.5t-12 -162.5q0 -253 136.5 -356.5t390.5 -103.5q167 0 289 42.5t188.5 140t66.5 260.5q0 90 -32 202t-106 285z" />
    <glyph glyph-name="uniFBA1" unicode="&#x6bb;" horiz-adv-x="1645" arabic-form="final" 
d="M608 290v335h51v-253h10q71 75 110.5 100t85.5 25q45 0 76.5 -34.5t31.5 -83.5q0 -139 -244 -139h-226v50h105zM649 290h80q102 0 148 21t46 66q0 31 -20.5 49.5t-52.5 18.5q-40 0 -80.5 -31t-120.5 -124zM184 490l87 -17q-31 -155 -43 -250.5t-12 -162.5
q0 -249 136.5 -350.5t390.5 -101.5q269 0 408 103.5t139 302.5q0 84 -36.5 205t-112.5 311l80 37l60 -152q50 -125 94.5 -195.5t105.5 -99t162 -28.5h2v-92h-1q-187 0 -281 128l-9 -4q48 -313 -116 -460.5t-493 -147.5q-289 0 -453 126.5t-164 414.5q0 76 12.5 177.5
t43.5 255.5z" />
    <glyph glyph-name="uniFBA2" unicode="&#x6bb;" horiz-adv-x="574" arabic-form="initial" 
d="M73 1101v427h59v-335h10q68 75 122.5 113t109.5 38q62 0 100.5 -39.5t38.5 -101.5q0 -162 -252 -162h-328v60h140zM122 1101h139q101 0 148 23.5t47 75.5q0 38 -24.5 61.5t-64.5 23.5q-54 0 -105.5 -41t-139.5 -143zM393 720q26 -99 42 -189t16 -164q0 -175 -91 -271
t-302 -96h-58q-23 0 -23 46t23 46h58q169 0 238.5 69t69.5 200q0 68 -16.5 153t-40.5 183z" />
    <glyph glyph-name="uniFBA3" unicode="&#x6bb;" horiz-adv-x="850" arabic-form="medial" 
d="M158 939v427h59v-335h10q68 75 122.5 113t109.5 38q62 0 100.5 -39.5t38.5 -101.5q0 -162 -252 -162h-328v60h140zM207 939h139q101 0 148 23.5t47 75.5q0 38 -24.5 61.5t-64.5 23.5q-54 0 -105.5 -41t-139.5 -143zM472 443q0 -108 22.5 -186.5t85 -121.5t181.5 -43h89
v-92h-92q-127 0 -215.5 62.5t-113.5 180.5h-10q-24 -120 -126.5 -181.5t-235.5 -61.5h-57q-23 0 -23 46t23 46h57q135 0 204.5 43t94 122t24.5 186v116h92v-116z" />
    <glyph glyph-name="uniFBA4" unicode="&#x6c0;" horiz-adv-x="877" arabic-form="isolated" 
d="M438 -11q-145 0 -229.5 83t-84.5 213q0 134 76.5 260t180.5 225q-27 26 -51 47.5t-51 43.5l57 67q203 -169 310.5 -326t107.5 -314q0 -131 -85.5 -215t-230.5 -84zM438 82q113 0 168 57.5t55 152.5q0 104 -62.5 215.5t-160.5 202.5q-97 -91 -160 -202.5t-63 -215.5
q0 -95 55.5 -152.5t167.5 -57.5zM325 1154q-27 0 -54 2.5t-53 6.5l14 66q23 -4 49 -6t51 -2q48 0 97.5 10t82.5 33t33 63q0 38 -37 50t-89 19q-55 9 -102.5 31t-47.5 94q0 97 66.5 153t157.5 56q52 0 107 -20l-23 -62q-42 14 -83 14q-64 0 -114 -32.5t-50 -95.5
q0 -43 33.5 -55.5t80.5 -19.5q41 -5 78 -15.5t60.5 -36t23.5 -75.5q0 -61 -39.5 -100.5t-103.5 -58.5t-138 -19z" />
    <glyph glyph-name="uniFBA6" unicode="&#x6c1;" horiz-adv-x="877" arabic-form="isolated" 
d="M438 -11q-145 0 -229.5 83t-84.5 213q0 134 76.5 260t180.5 225q-27 26 -51 47.5t-51 43.5l57 67q203 -169 310.5 -326t107.5 -314q0 -131 -85.5 -215t-230.5 -84zM438 82q113 0 168 57.5t55 152.5q0 104 -62.5 215.5t-160.5 202.5q-97 -91 -160 -202.5t-63 -215.5
q0 -95 55.5 -152.5t167.5 -57.5z" />
    <glyph glyph-name="uniFBA7" unicode="&#x6c1;" horiz-adv-x="1214" arabic-form="final" 
d="M1214 92v-92h-1q-121 0 -218 38.5t-175 96.5t-143 117q-36 32 -68.5 60t-63.5 47q-49 32 -92 32q-47 0 -86 -46q-28 -31 -51 -79.5t-41 -107.5q-22 -73 -36.5 -150.5t-25.5 -148.5l-89 15q11 71 26 150.5t39 155.5q19 65 45 121.5t63 97.5q63 86 154 86q36 0 69.5 -11.5
t65.5 -30.5q37 -22 72.5 -52t72.5 -65q64 -58 134.5 -112t155.5 -88t192 -34h1z" />
    <glyph glyph-name="uniFBA8" unicode="&#x6c1;" horiz-adv-x="574" arabic-form="initial" 
d="M63 -535l10 -3q30 29 67 29q36 0 64 -29t28 -78q0 -55 -29.5 -86.5t-81.5 -31.5q-127 0 -127 183q0 182 179 313l42 -60q-79 -52 -114.5 -107t-37.5 -130zM393 720q26 -99 42 -189t16 -164q0 -175 -91 -271t-302 -96h-58q-23 0 -23 46t23 46h58q169 0 238.5 69t69.5 200
q0 68 -16.5 153t-40.5 183z" />
    <glyph glyph-name="uniFBA9" unicode="&#x6c1;" horiz-adv-x="1015" arabic-form="medial" 
d="M0 92q121 0 193.5 52t116.5 139t78 192l84 -26q-28 -85 -43 -174t-15 -175q0 -165 53 -311.5t162 -227.5q14 124 36 216t55 156q38 75 98 117t160 42h37v-92h-37q-81 0 -123 -30t-72 -92q-59 -115 -87 -389l-68 -37q-106 61 -175 177t-95.5 266t-5.5 313l-10 5
q-51 -98 -132.5 -155.5t-209.5 -57.5q-23 0 -23 46q0 20 6 33t17 13z" />
    <glyph glyph-name="uniFBAA" unicode="&#x6be;" horiz-adv-x="1494" arabic-form="isolated" 
d="M141 -87l-19 89q122 21 227.5 54t190.5 73q-111 66 -179 156.5t-68 187.5q0 112 70 201t180 114l1 10l-183 78l37 83l486 -208q181 -75 287.5 -144.5t153 -145t46.5 -171.5q0 -142 -90.5 -221.5t-253.5 -79.5q-107 0 -208.5 23t-189.5 64q-95 -54 -217.5 -95.5
t-270.5 -67.5zM629 174q107 63 165 139t58 158q0 127 -57.5 196.5t-161.5 69.5q-69 0 -127.5 -36t-94 -96t-35.5 -131q0 -85 70.5 -164.5t182.5 -135.5zM714 141q73 -28 153 -44t163 -16q258 0 258 211q0 72 -38 130t-125 113t-235 116q59 -151 13 -281.5t-189 -228.5z" />
    <glyph glyph-name="uniFBAB" unicode="&#x6be;" horiz-adv-x="1124" arabic-form="final" 
d="M728 796l-8 150l89 5l33 -537q8 -129 34 -198.5t84 -96.5t163 -27h1v-92h-1q-139 0 -215.5 48t-112.5 145q-55 -22 -117 -32.5t-123 -10.5q-96 0 -179 27t-134 83t-51 142q0 152 145 255.5t392 138.5zM733 706q-209 -25 -330.5 -101.5t-121.5 -189.5q0 -62 39 -101
t103.5 -57t138.5 -18q112 0 209 34q-7 30 -11 62.5t-6 68.5z" />
    <glyph glyph-name="uniFBAC" unicode="&#x6be;" horiz-adv-x="1333" arabic-form="initial" 
d="M0 92h36q101 0 176.5 12t154.5 40q-113 68 -174 153t-61 176q0 112 69.5 201t180.5 114v10l-182 78l36 83l486 -208q181 -75 288 -144.5t153.5 -145t46.5 -171.5q0 -142 -90.5 -221.5t-254.5 -79.5q-191 0 -401 99q-103 -48 -196 -68t-216 -20h-52q-23 0 -23 46t23 46z
M466 178q105 52 165 129.5t60 163.5q0 127 -57.5 196.5t-161.5 69.5q-69 0 -127.5 -36.5t-94 -96.5t-35.5 -132q0 -82 65.5 -159t185.5 -135zM559 146q165 -65 310 -65q258 0 258 211q0 72 -38 130t-125 113t-235 116q65 -154 20.5 -285.5t-190.5 -219.5z" />
    <glyph glyph-name="uniFBAD" unicode="&#x6be;" horiz-adv-x="1015" arabic-form="medial" 
d="M541 767q122 0 197 -86t75 -216q0 -109 -59 -207.5t-160 -155.5v-10h421v-92h-393v-10q104 -45 161 -126t57 -181q0 -121 -70.5 -190.5t-195.5 -69.5q-180 0 -282.5 150t-115.5 427h-176q-23 0 -23 45q0 47 23 47h174q1 207 45 358.5t126 234t196 82.5zM247 92h195
q54 0 105.5 33t93 87.5t66.5 120.5t25 132q0 95 -52.5 153.5t-135.5 58.5q-138 0 -217.5 -156.5t-79.5 -428.5zM576 -487q87 0 134 44.5t47 124.5q0 81 -44 154t-115.5 118.5t-154.5 45.5h-195q11 -239 95.5 -363t232.5 -124z" />
    <glyph glyph-name="uniFBAE" unicode="&#x6d2;" horiz-adv-x="1461" arabic-form="isolated" 
d="M449 0q-87 0 -161 22t-119 74t-45 142q0 129 86.5 233t241 165t358.5 61h191v-92h-192q-183 0 -316.5 -51.5t-206 -133.5t-72.5 -176q0 -89 67.5 -120.5t167.5 -31.5h889v-92h-889z" />
    <glyph glyph-name="uniFBAF" unicode="&#x6d2;" horiz-adv-x="1332" arabic-form="final" 
d="M449 -605q-87 0 -161 22t-119 74t-45 142q0 129 86.5 233t241 165t358.5 61h522v-92h-523q-183 0 -316.5 -51.5t-206 -133.5t-72.5 -176q0 -89 67.5 -120.5t167.5 -31.5h740v-92h-740z" />
    <glyph glyph-name="uniFBB0" unicode="&#x6d3;" horiz-adv-x="1461" arabic-form="isolated" 
d="M929 1446l-21 -54q-40 19 -82 19q-61 0 -100.5 -35t-39.5 -91q0 -51 34 -79.5t90 -28.5q40 0 89 15l99 31l18 -57l-452 -144l-18 60l186 54v10q-46 16 -74 54t-28 87q0 78 57 131.5t141 53.5q27 0 52 -7.5t49 -18.5zM449 0q-87 0 -161 22t-119 74t-45 142q0 129 86.5 233
t241 165t358.5 61h191v-92h-192q-183 0 -316.5 -51.5t-206 -133.5t-72.5 -176q0 -89 67.5 -120.5t167.5 -31.5h889v-92h-889z" />
    <glyph glyph-name="uniFBB1" unicode="&#x6d3;" horiz-adv-x="1332" arabic-form="final" 
d="M931 840l-21 -54q-40 19 -82 19q-61 0 -100.5 -35t-39.5 -91q0 -51 34 -79.5t90 -28.5q40 0 89 15l99 31l18 -57l-452 -144l-18 60l186 54v10q-46 16 -74 54t-28 87q0 78 57 131.5t141 53.5q27 0 52 -7.5t49 -18.5zM449 -605q-87 0 -161 22t-119 74t-45 142
q0 129 86.5 233t241 165t358.5 61h522v-92h-523q-183 0 -316.5 -51.5t-206 -133.5t-72.5 -176q0 -89 67.5 -120.5t167.5 -31.5h740v-92h-740z" />
    <glyph glyph-name="uniFBD3" unicode="&#x6ad;" horiz-adv-x="1641" arabic-form="isolated" 
d="M699 1559l108 108l109 -108l-109 -109zM873 1262l108 108l109 -108l-109 -109zM525 1262l108 108l109 -108l-109 -109zM683 438q-27 0 -54 2.5t-53 6.5l14 66q23 -4 49 -6t51 -2q48 0 97.5 10t82.5 33t33 63q0 38 -37 50t-89 19q-55 9 -102.5 31t-47.5 94q0 97 66.5 153
t157.5 56q52 0 107 -20l-23 -62q-42 14 -83 14q-64 0 -114 -32.5t-50 -95.5q0 -43 33.5 -55.5t80.5 -19.5q41 -5 78 -15.5t60.5 -36t23.5 -75.5q0 -61 -39.5 -100.5t-103.5 -58.5t-138 -19zM792 92q213 0 340 28t183 102t56 212v844h90v-844q0 -166 -70 -261t-221 -134
t-395 -39q-236 0 -379 34.5t-207.5 114t-64.5 215.5q0 55 9 124.5t24 132.5l80 -19q-13 -56 -22.5 -124t-9.5 -115q0 -104 56 -163t185 -83.5t346 -24.5z" />
    <glyph glyph-name="uniFBD4" unicode="&#x6ad;" horiz-adv-x="1838" arabic-form="final" 
d="M699 1559l108 108l109 -108l-109 -109zM873 1262l108 108l109 -108l-109 -109zM525 1262l108 108l109 -108l-109 -109zM683 438q-27 0 -54 2.5t-53 6.5l14 66q23 -4 49 -6t51 -2q48 0 97.5 10t82.5 33t33 63q0 38 -37 50t-89 19q-55 9 -102.5 31t-47.5 94q0 97 66.5 153
t157.5 56q52 0 107 -20l-23 -62q-42 14 -83 14q-64 0 -114 -32.5t-50 -95.5q0 -43 33.5 -55.5t80.5 -19.5q41 -5 78 -15.5t60.5 -36t23.5 -75.5q0 -61 -39.5 -100.5t-103.5 -58.5t-138 -19zM1461 438q0 -346 376 -346h1v-92h-1q-169 0 -277.5 71t-134.5 207h-10
q-34 -151 -184 -214.5t-451 -63.5q-239 0 -383 34.5t-208.5 114.5t-64.5 216q0 56 9 124.5t24 131.5l80 -19q-13 -57 -22.5 -124.5t-9.5 -114.5q0 -104 56 -163t185 -83.5t346 -24.5q223 0 349 30.5t178 105t52 206.5v844h90v-840z" />
    <glyph glyph-name="uniFBD5" unicode="&#x6ad;" horiz-adv-x="807" arabic-form="initial" 
d="M205 1726l109 109l109 -109l-109 -109zM429 1501l109 109l109 -109l-109 -109zM111 1416l109 109l109 -109l-109 -109zM824 1248l18 -92q-237 -60 -412.5 -115.5t-300.5 -108.5l-1 -9q185 -136 299.5 -238.5t168 -188t53.5 -170.5q0 -157 -139.5 -241.5t-400.5 -84.5
h-109q-23 0 -23 46t23 46h108q221 0 336 61.5t115 177.5q0 106 -125 231.5t-394 319.5l10 110q153 66 353.5 132.5t420.5 123.5z" />
    <glyph glyph-name="uniFBD6" unicode="&#x6ad;" horiz-adv-x="1127" arabic-form="medial" 
d="M205 1726l109 109l109 -109l-109 -109zM429 1501l109 109l109 -109l-109 -109zM111 1416l109 109l109 -109l-109 -109zM620 343q16 -178 -114 -260.5t-397 -82.5h-109q-23 0 -23 46t23 46h108q231 0 340.5 63t109.5 175q0 61 -49.5 137.5t-162.5 178t-306 236.5l10 110
q158 68 359.5 134.5t414.5 121.5l18 -92q-226 -57 -404 -112.5t-309 -111.5l-1 -9q161 -118 263.5 -205.5t169 -163.5t117.5 -162q68 -114 125.5 -179.5t131.5 -93t191 -27.5h1v-92h-1q-132 0 -224.5 33.5t-157 108.5t-114.5 201h-10z" />
    <glyph glyph-name="uniFBD7" unicode="&#x6c7;" horiz-adv-x="954" arabic-form="isolated" 
d="M562 1470q62 0 99 -46t37 -120q0 -89 -55.5 -156.5t-152 -117t-220.5 -84.5l-18 58q71 19 152 53.5t137 72.5q-53 16 -106 52t-53 106q0 43 24 84.5t65 69.5t91 28zM556 1411q-44 0 -80.5 -37t-36.5 -85q0 -53 50.5 -78.5t98.5 -36.5q48 59 48 127q0 44 -19.5 77
t-60.5 33zM746 19l-6 7q-56 -15 -124 -26.5t-146 -11.5q-148 0 -237 64t-89 212q0 106 35 204.5t107 162t181 63.5q105 0 175 -62t111.5 -161t59.5 -213.5t18 -219.5q0 -211 -187.5 -350t-514.5 -218l-30 88q308 70 473 186.5t174 274.5zM742 117q-4 74 -19.5 157.5
t-47 158.5t-82.5 122t-127 47q-82 0 -135 -51t-78.5 -127.5t-25.5 -153.5q0 -110 66 -150t178 -40q78 0 146.5 11.5t124.5 25.5z" />
    <glyph glyph-name="uniFBD8" unicode="&#x6c7;" horiz-adv-x="923" arabic-form="final" 
d="M562 1470q62 0 99 -46t37 -120q0 -89 -55.5 -156.5t-152 -117t-220.5 -84.5l-18 58q71 19 152 53.5t137 72.5q-53 16 -106 52t-53 106q0 43 24 84.5t65 69.5t91 28zM556 1411q-44 0 -80.5 -37t-36.5 -85q0 -53 50.5 -78.5t98.5 -36.5q48 59 48 127q0 44 -19.5 77
t-60.5 33zM748 -6l-6 7q-69 -1 -137 -1h-136q-146 0 -235.5 64t-89.5 212q0 104 35.5 200t107 157t180.5 61q100 0 167.5 -56.5t109 -147t61.5 -195.5t24 -203h94v-92h-96q-13 -194 -199 -324t-499 -206l-30 88q299 68 466 178t183 258zM744 90q-3 77 -17.5 165t-45.5 167.5
t-83.5 129.5t-131.5 50q-82 0 -135 -48t-78.5 -121.5t-25.5 -150.5q0 -111 66 -151.5t178 -40.5h273z" />
    <glyph glyph-name="uniFBD9" unicode="&#x6c6;" horiz-adv-x="954" arabic-form="isolated" 
d="M491 1017h-48l-213 264l48 40l189 -237l189 237l48 -40zM746 19l-6 7q-56 -15 -124 -26.5t-146 -11.5q-148 0 -237 64t-89 212q0 106 35 204.5t107 162t181 63.5q105 0 175 -62t111.5 -161t59.5 -213.5t18 -219.5q0 -211 -187.5 -350t-514.5 -218l-30 88
q308 70 473 186.5t174 274.5zM742 117q-4 74 -19.5 157.5t-47 158.5t-82.5 122t-127 47q-82 0 -135 -51t-78.5 -127.5t-25.5 -153.5q0 -110 66 -150t178 -40q78 0 146.5 11.5t124.5 25.5z" />
    <glyph glyph-name="uniFBDA" unicode="&#x6c6;" horiz-adv-x="923" arabic-form="final" 
d="M491 1017h-48l-213 264l48 40l189 -237l189 237l48 -40zM748 -6l-6 7q-69 -1 -137 -1h-136q-146 0 -235.5 64t-89.5 212q0 104 35.5 200t107 157t180.5 61q100 0 167.5 -56.5t109 -147t61.5 -195.5t24 -203h94v-92h-96q-13 -194 -199 -324t-499 -206l-30 88
q299 68 466 178t183 258zM744 90q-3 77 -17.5 165t-45.5 167.5t-83.5 129.5t-131.5 50q-82 0 -135 -48t-78.5 -121.5t-25.5 -150.5q0 -111 66 -151.5t178 -40.5h273z" />
    <glyph glyph-name="uniFBDB" unicode="&#x6c8;" horiz-adv-x="954" arabic-form="isolated" 
d="M436 1327h64v-336h-64v336zM746 19l-6 7q-56 -15 -124 -26.5t-146 -11.5q-148 0 -237 64t-89 212q0 106 35 204.5t107 162t181 63.5q105 0 175 -62t111.5 -161t59.5 -213.5t18 -219.5q0 -211 -187.5 -350t-514.5 -218l-30 88q308 70 473 186.5t174 274.5zM742 117
q-4 74 -19.5 157.5t-47 158.5t-82.5 122t-127 47q-82 0 -135 -51t-78.5 -127.5t-25.5 -153.5q0 -110 66 -150t178 -40q78 0 146.5 11.5t124.5 25.5z" />
    <glyph glyph-name="uniFBDC" unicode="&#x6c8;" horiz-adv-x="923" arabic-form="final" 
d="M436 1327h64v-336h-64v336zM748 -6l-6 7q-69 -1 -137 -1h-136q-146 0 -235.5 64t-89.5 212q0 104 35.5 200t107 157t180.5 61q100 0 167.5 -56.5t109 -147t61.5 -195.5t24 -203h94v-92h-96q-13 -194 -199 -324t-499 -206l-30 88q299 68 466 178t183 258zM744 90
q-3 77 -17.5 165t-45.5 167.5t-83.5 129.5t-131.5 50q-82 0 -135 -48t-78.5 -121.5t-25.5 -150.5q0 -111 66 -151.5t178 -40.5h273z" />
    <glyph glyph-name="uniFBDD" unicode="&#x677;" horiz-adv-x="954" arabic-form="isolated" 
d="M298 1452q62 0 99 -46t37 -120q0 -89 -55.5 -156.5t-152 -117t-220.5 -84.5l-18 58q71 19 152 53.5t137 72.5q-53 16 -106 52t-53 106q0 43 24 84.5t65 69.5t91 28zM292 1393q-44 0 -80.5 -37t-36.5 -85q0 -53 50.5 -78.5t98.5 -36.5q48 59 48 127q0 44 -19.5 77
t-60.5 33zM867 1357l-21 -54q-40 19 -82 19q-61 0 -100.5 -35t-39.5 -91q0 -51 34 -79.5t90 -28.5q40 0 89 15l99 31l18 -57l-452 -144l-18 60l186 54v10q-46 16 -74 54t-28 87q0 78 57 131.5t141 53.5q27 0 52 -7.5t49 -18.5zM746 19l-6 7q-56 -15 -124 -26.5t-146 -11.5
q-148 0 -237 64t-89 212q0 106 35 204.5t107 162t181 63.5q105 0 175 -62t111.5 -161t59.5 -213.5t18 -219.5q0 -211 -187.5 -350t-514.5 -218l-30 88q308 70 473 186.5t174 274.5zM742 117q-4 74 -19.5 157.5t-47 158.5t-82.5 122t-127 47q-82 0 -135 -51t-78.5 -127.5
t-25.5 -153.5q0 -110 66 -150t178 -40q78 0 146.5 11.5t124.5 25.5z" />
    <glyph glyph-name="uniFBDE" unicode="&#x6cb;" horiz-adv-x="954" arabic-form="isolated" 
d="M358 1396l108 108l109 -108l-109 -109zM532 1099l108 108l109 -108l-109 -109zM184 1099l108 108l109 -108l-109 -109zM746 19l-6 7q-56 -15 -124 -26.5t-146 -11.5q-148 0 -237 64t-89 212q0 106 35 204.5t107 162t181 63.5q105 0 175 -62t111.5 -161t59.5 -213.5
t18 -219.5q0 -211 -187.5 -350t-514.5 -218l-30 88q308 70 473 186.5t174 274.5zM742 117q-4 74 -19.5 157.5t-47 158.5t-82.5 122t-127 47q-82 0 -135 -51t-78.5 -127.5t-25.5 -153.5q0 -110 66 -150t178 -40q78 0 146.5 11.5t124.5 25.5z" />
    <glyph glyph-name="uniFBDF" unicode="&#x6cb;" horiz-adv-x="923" arabic-form="final" 
d="M358 1396l108 108l109 -108l-109 -109zM532 1099l108 108l109 -108l-109 -109zM184 1099l108 108l109 -108l-109 -109zM748 -6l-6 7q-69 -1 -137 -1h-136q-146 0 -235.5 64t-89.5 212q0 104 35.5 200t107 157t180.5 61q100 0 167.5 -56.5t109 -147t61.5 -195.5t24 -203
h94v-92h-96q-13 -194 -199 -324t-499 -206l-30 88q299 68 466 178t183 258zM744 90q-3 77 -17.5 165t-45.5 167.5t-83.5 129.5t-131.5 50q-82 0 -135 -48t-78.5 -121.5t-25.5 -150.5q0 -111 66 -151.5t178 -40.5h273z" />
    <glyph glyph-name="uniFBE0" unicode="&#x6c5;" horiz-adv-x="954" arabic-form="isolated" 
d="M713 -173v-55h-446v55h446zM746 19l-6 7q-56 -15 -124 -26.5t-146 -11.5q-148 0 -237 64t-89 212q0 106 35 204.5t107 162t181 63.5q105 0 175 -62t111.5 -161t59.5 -213.5t18 -219.5q0 -211 -187.5 -350t-514.5 -218l-30 88q308 70 473 186.5t174 274.5zM742 117
q-4 74 -19.5 157.5t-47 158.5t-82.5 122t-127 47q-82 0 -135 -51t-78.5 -127.5t-25.5 -153.5q0 -110 66 -150t178 -40q78 0 146.5 11.5t124.5 25.5z" />
    <glyph glyph-name="uniFBE1" unicode="&#x6c5;" horiz-adv-x="923" arabic-form="final" 
d="M714 -173v-55h-446v55h446zM748 -6l-6 7q-69 -1 -137 -1h-136q-146 0 -235.5 64t-89.5 212q0 104 35.5 200t107 157t180.5 61q100 0 167.5 -56.5t109 -147t61.5 -195.5t24 -203h94v-92h-96q-13 -194 -199 -324t-499 -206l-30 88q299 68 466 178t183 258zM744 90
q-3 77 -17.5 165t-45.5 167.5t-83.5 129.5t-131.5 50q-82 0 -135 -48t-78.5 -121.5t-25.5 -150.5q0 -111 66 -151.5t178 -40.5h273z" />
    <glyph glyph-name="uniFBE2" unicode="&#x6c9;" horiz-adv-x="954" arabic-form="isolated" 
d="M445 1322h48l213 -264l-48 -40l-189 236l-189 -236l-48 40zM746 19l-6 7q-56 -15 -124 -26.5t-146 -11.5q-148 0 -237 64t-89 212q0 106 35 204.5t107 162t181 63.5q105 0 175 -62t111.5 -161t59.5 -213.5t18 -219.5q0 -211 -187.5 -350t-514.5 -218l-30 88
q308 70 473 186.5t174 274.5zM742 117q-4 74 -19.5 157.5t-47 158.5t-82.5 122t-127 47q-82 0 -135 -51t-78.5 -127.5t-25.5 -153.5q0 -110 66 -150t178 -40q78 0 146.5 11.5t124.5 25.5z" />
    <glyph glyph-name="uniFBE3" unicode="&#x6c9;" horiz-adv-x="923" arabic-form="final" 
d="M445 1322h48l213 -264l-48 -40l-189 236l-189 -236l-48 40zM748 -6l-6 7q-69 -1 -137 -1h-136q-146 0 -235.5 64t-89.5 212q0 104 35.5 200t107 157t180.5 61q100 0 167.5 -56.5t109 -147t61.5 -195.5t24 -203h94v-92h-96q-13 -194 -199 -324t-499 -206l-30 88
q299 68 466 178t183 258zM744 90q-3 77 -17.5 165t-45.5 167.5t-83.5 129.5t-131.5 50q-82 0 -135 -48t-78.5 -121.5t-25.5 -150.5q0 -111 66 -151.5t178 -40.5h273z" />
    <glyph glyph-name="uniFBE4" unicode="&#x6d0;" horiz-adv-x="1477" arabic-form="isolated" 
d="M627 -736l108 108l109 -108l-109 -108zM627 -1085l108 108l109 -108l-109 -109zM1315 666l-35 -81q-53 28 -104.5 40.5t-101.5 12.5q-93 0 -169 -43t-121 -119t-45 -176q0 -78 42 -114t110.5 -48t149.5 -18q81 -5 152.5 -20t116 -57.5t44.5 -132.5q0 -108 -86.5 -189.5
t-236.5 -126.5t-341 -45q-265 0 -413.5 114t-148.5 334q0 87 10 179.5t33 222.5l88 -15q-24 -134 -33.5 -219.5t-9.5 -168.5q0 -182 121 -268.5t350 -86.5q165 0 296 33t207.5 92t76.5 137q0 59 -36 86t-93.5 35.5t-124.5 12.5q-91 6 -173.5 23.5t-134.5 70.5t-52 164
q0 125 57 222.5t153 153.5t213 56q56 0 117 -14.5t122 -46.5z" />
    <glyph glyph-name="uniFBE5" unicode="&#x6d0;" horiz-adv-x="1422" arabic-form="final" 
d="M623 -810l106 106l107 -106l-107 -106zM623 -1113l106 106l107 -106l-107 -107zM1036 -10q159 -49 222.5 -99.5t63.5 -136.5q0 -92 -79 -163t-218 -111.5t-319 -40.5q-299 0 -440.5 119t-141.5 372q0 76 13 195.5t35 270.5l86 -17q-46 -297 -46 -446q0 -214 114.5 -308
t376.5 -94q156 0 274.5 29.5t185 81.5t66.5 121q0 48 -40.5 82t-146.5 67.5t-302 76.5l12 103h670v-92h-386v-10z" />
    <glyph glyph-name="uniFBE6" unicode="&#x6d0;" horiz-adv-x="574" arabic-form="initial" 
d="M36 -369l108 108l109 -108l-109 -108zM36 -718l108 108l109 -108l-109 -109zM393 720q26 -99 42 -189t16 -164q0 -175 -91 -271t-302 -96h-58q-23 0 -23 46t23 46h58q169 0 238.5 69t69.5 200q0 68 -16.5 153t-40.5 183z" />
    <glyph glyph-name="uniFBE7" unicode="&#x6d0;" horiz-adv-x="850" arabic-form="medial" 
d="M36 -369l108 108l109 -108l-109 -108zM36 -718l108 108l109 -108l-109 -109zM472 443q0 -108 22.5 -186.5t85 -121.5t181.5 -43h89v-92h-92q-127 0 -215.5 62.5t-113.5 180.5h-10q-24 -120 -126.5 -181.5t-235.5 -61.5h-57q-23 0 -23 46t23 46h57q135 0 204.5 43t94 122
t24.5 186v116h92v-116z" />
    <glyph glyph-name="uniFBE8" unicode="&#x649;" horiz-adv-x="574" arabic-form="initial" 
d="M393 720q26 -99 42 -189t16 -164q0 -175 -91 -271t-302 -96h-58q-23 0 -23 46t23 46h58q169 0 238.5 69t69.5 200q0 68 -16.5 153t-40.5 183z" />
    <glyph glyph-name="uniFBE9" unicode="&#x649;" horiz-adv-x="850" arabic-form="medial" 
d="M472 443q0 -108 22.5 -186.5t85 -121.5t181.5 -43h89v-92h-92q-127 0 -215.5 62.5t-113.5 180.5h-10q-24 -120 -126.5 -181.5t-235.5 -61.5h-57q-23 0 -23 46t23 46h57q135 0 204.5 43t94 122t24.5 186v116h92v-116z" />
    <glyph glyph-name="uniFBFC" unicode="&#x6cc;" horiz-adv-x="1477" arabic-form="isolated" 
d="M1315 666l-35 -81q-53 28 -104.5 40.5t-101.5 12.5q-93 0 -169 -43t-121 -119t-45 -176q0 -78 42 -114t110.5 -48t149.5 -18q81 -5 152.5 -20t116 -57.5t44.5 -132.5q0 -108 -86.5 -189.5t-236.5 -126.5t-341 -45q-265 0 -413.5 114t-148.5 334q0 87 10 179.5t33 222.5
l88 -15q-24 -134 -33.5 -219.5t-9.5 -168.5q0 -182 121 -268.5t350 -86.5q165 0 296 33t207.5 92t76.5 137q0 59 -36 86t-93.5 35.5t-124.5 12.5q-91 6 -173.5 23.5t-134.5 70.5t-52 164q0 125 57 222.5t153 153.5t213 56q56 0 117 -14.5t122 -46.5z" />
    <glyph glyph-name="uniFBFD" unicode="&#x6cc;" horiz-adv-x="1422" arabic-form="final" 
d="M1036 -10q159 -49 222.5 -99.5t63.5 -136.5q0 -92 -79 -163t-218 -111.5t-319 -40.5q-299 0 -440.5 119t-141.5 372q0 76 13 195.5t35 270.5l86 -17q-46 -297 -46 -446q0 -214 114.5 -308t376.5 -94q156 0 274.5 29.5t185 81.5t66.5 121q0 48 -40.5 82t-146.5 67.5
t-302 76.5l12 103h670v-92h-386v-10z" />
    <glyph glyph-name="uniFBFE" unicode="&#x6cc;" horiz-adv-x="574" arabic-form="initial" 
d="M393 720q26 -99 42 -189t16 -164q0 -175 -91 -271t-302 -96h-58q-23 0 -23 46t23 46h58q169 0 238.5 69t69.5 200q0 68 -16.5 153t-40.5 183zM-142 -369l108 108l109 -108l-109 -109zM206 -369l108 108l109 -108l-109 -109z" />
    <glyph glyph-name="uniFBFF" unicode="&#x6cc;" horiz-adv-x="850" arabic-form="medial" 
d="M472 443q0 -108 22.5 -186.5t85 -121.5t181.5 -43h89v-92h-92q-127 0 -215.5 62.5t-113.5 180.5h-10q-24 -120 -126.5 -181.5t-235.5 -61.5h-57q-23 0 -23 46t23 46h57q135 0 204.5 43t94 122t24.5 186v116h92v-116zM-174 -369l108 108l109 -108l-109 -109zM174 -369
l108 108l109 -108l-109 -109z" />
    <glyph glyph-name="uniFCF2" unicode="&#xfcf2;" horiz-adv-x="898" arabic-form="medial" 
d="M0 92h898v-92h-898q-23 0 -23 46t23 46zM668 1193l19 -59l-453 -143l-19 60zM445 690q-11 -104 -114 -104q-118 0 -118 126q0 64 32 157l50 -17q-12 -40 -19 -72.5t-7 -57.5q0 -74 71 -74q47 0 64.5 33t17.5 120v13h54v-13q0 -87 18.5 -120t64.5 -33q70 0 70 74
q0 52 -25 130l50 17q32 -93 32 -157q0 -126 -117 -126q-103 0 -114 104h-10z" />
    <glyph glyph-name="uniFCF3" unicode="&#xfcf3;" horiz-adv-x="898" arabic-form="medial" 
d="M0 92h898v-92h-898q-23 0 -23 46t23 46zM538 1494q62 0 99 -46t37 -120q0 -89 -55.5 -156.5t-152 -117t-220.5 -84.5l-18 58q71 19 152 53.5t137 72.5q-53 16 -106 52t-53 106q0 43 24 84.5t65 69.5t91 28zM532 1435q-44 0 -80.5 -37t-36.5 -85q0 -53 50.5 -78.5
t98.5 -36.5q48 59 48 127q0 44 -19.5 77t-60.5 33zM445 690q-11 -104 -114 -104q-118 0 -118 126q0 64 32 157l50 -17q-12 -40 -19 -72.5t-7 -57.5q0 -74 71 -74q47 0 64.5 33t17.5 120v13h54v-13q0 -87 18.5 -120t64.5 -33q70 0 70 74q0 52 -25 130l50 17q32 -93 32 -157
q0 -126 -117 -126q-103 0 -114 104h-10z" />
    <glyph glyph-name="uniFCF4" unicode="&#xfcf4;" horiz-adv-x="898" arabic-form="medial" 
d="M0 92h898v-92h-898q-23 0 -23 46t23 46zM668 809l19 -59l-453 -143l-19 60zM445 1021q-11 -104 -114 -104q-118 0 -118 126q0 64 32 157l50 -17q-12 -40 -19 -72.5t-7 -57.5q0 -74 71 -74q47 0 64.5 33t17.5 120v13h54v-13q0 -87 18.5 -120t64.5 -33q70 0 70 74
q0 52 -25 130l50 17q32 -93 32 -157q0 -126 -117 -126q-103 0 -114 104h-10z" />
    <glyph glyph-name="uniFD3C" unicode="&#xfd3c;" horiz-adv-x="586" arabic-form="final" 
d="M181 1127h91v-730q0 -161 67.5 -233t245.5 -72h1v-92h-1q-404 0 -404 396v731zM453 1714l19 -59l-453 -143l-19 60zM453 1490l19 -59l-453 -143l-19 60z" />
    <glyph glyph-name="uniFD3D" unicode="&#xfd3d;" horiz-adv-x="493" arabic-form="isolated" 
d="M292 1127v-1127h-90v1127h90zM465 1714l19 -59l-453 -143l-19 60zM465 1490l19 -59l-453 -143l-19 60z" />
    <glyph glyph-name="uniFDFC" unicode="&#xfdfc;" horiz-adv-x="3187" arabic-form="isolated" 
d="M2247 720q26 -99 42 -189t16 -164q0 -175 -91 -271t-302 -96h-58q-23 0 -23 46t23 46h58q169 0 238.5 69t69.5 200q0 68 -16.5 153t-40.5 183zM1712 -369l108 108l109 -108l-109 -109zM2060 -369l108 108l109 -108l-109 -109zM2850 541l85 32q57 -163 87 -294t30 -233
q0 -196 -134.5 -335t-429.5 -246l-37 84q272 99 392 213.5t120 277.5q0 92 -29.5 221t-83.5 280zM1452 1278h91v-881q0 -161 67.5 -233t245.5 -72h1v-92h-1q-404 0 -404 396v882zM636 -421q224 0 330 116.5t106 358.5v1224h91v-1227q0 -288 -137 -426.5t-407 -138.5
q-232 0 -363.5 122t-131.5 344q0 92 20 196t63 220l82 -29q-39 -108 -58 -206.5t-19 -178.5q0 -375 424 -375z" />
    <glyph glyph-name="uniFE80" unicode="&#x621;" horiz-adv-x="911" arabic-form="isolated" 
d="M156 403q0 95 43.5 166.5t113 111.5t148.5 40q71 0 130 -26t116 -79l-40 -46q-94 84 -204 84q-64 0 -119 -32.5t-88.5 -88.5t-33.5 -127q0 -99 75.5 -153.5t194.5 -54.5q116 0 274 56l22 -61l-646 -204l-18 64l319 89v10q-124 4 -205.5 71.5t-81.5 179.5z" />
    <glyph glyph-name="uniFE81" unicode="&#x622;" horiz-adv-x="493" arabic-form="isolated" 
d="M495 1559l51 -24q-34 -88 -72.5 -123.5t-99.5 -35.5q-30 0 -61.5 13t-81.5 42q-48 28 -69 35t-41 7q-34 0 -59.5 -26.5t-66.5 -104.5l-46 29q42 91 81.5 131t88.5 40q25 0 50.5 -11t79.5 -40q60 -32 85 -40.5t47 -8.5q41 0 63.5 23.5t50.5 93.5zM292 1127v-1127h-90v1127
h90z" />
    <glyph glyph-name="uniFE82" unicode="&#x622;" horiz-adv-x="586" arabic-form="final" 
d="M181 1127h91v-730q0 -161 67.5 -233t245.5 -72h1v-92h-1q-404 0 -404 396v731zM-33 1343q77 113 161 113q26 0 51 -9t60 -33q54 -35 84 -35q56 0 112 88l51 -34q-70 -118 -160 -118q-44 0 -107 40q-58 38 -87 38q-54 0 -115 -85z" />
    <glyph glyph-name="uniFE83" unicode="&#x623;" horiz-adv-x="493" arabic-form="isolated" 
d="M292 1127v-1127h-90v1127h90zM394 1705l-21 -54q-40 19 -82 19q-61 0 -100.5 -35t-39.5 -91q0 -51 34 -79.5t90 -28.5q40 0 89 15l99 31l18 -57l-452 -144l-18 60l186 54v10q-46 16 -74 54t-28 87q0 78 57 131.5t141 53.5q27 0 52 -7.5t49 -18.5z" />
    <glyph glyph-name="uniFE84" unicode="&#x623;" horiz-adv-x="586" arabic-form="final" 
d="M181 1127h91v-730q0 -161 67.5 -233t245.5 -72h1v-92h-1q-404 0 -404 396v731zM386 1712l-21 -54q-40 19 -82 19q-61 0 -100.5 -35t-39.5 -91q0 -51 34 -79.5t90 -28.5q40 0 89 15l99 31l18 -57l-452 -144l-18 60l186 54v10q-46 16 -74 54t-28 87q0 78 57 131.5t141 53.5
q27 0 52 -7.5t49 -18.5z" />
    <glyph glyph-name="uniFE85" unicode="&#x624;" horiz-adv-x="954" arabic-form="isolated" 
d="M632 1323l-21 -54q-40 19 -82 19q-61 0 -100.5 -35t-39.5 -91q0 -51 34 -79.5t90 -28.5q40 0 89 15l99 31l18 -57l-452 -144l-18 60l186 54v10q-46 16 -74 54t-28 87q0 78 57 131.5t141 53.5q27 0 52 -7.5t49 -18.5zM746 19l-6 7q-56 -15 -124 -26.5t-146 -11.5
q-148 0 -237 64t-89 212q0 106 35 204.5t107 162t181 63.5q105 0 175 -62t111.5 -161t59.5 -213.5t18 -219.5q0 -211 -187.5 -350t-514.5 -218l-30 88q308 70 473 186.5t174 274.5zM742 117q-4 74 -19.5 157.5t-47 158.5t-82.5 122t-127 47q-82 0 -135 -51t-78.5 -127.5
t-25.5 -153.5q0 -110 66 -150t178 -40q78 0 146.5 11.5t124.5 25.5z" />
    <glyph glyph-name="uniFE86" unicode="&#x624;" horiz-adv-x="923" arabic-form="final" 
d="M630 1330l-21 -54q-40 19 -82 19q-61 0 -100.5 -35t-39.5 -91q0 -51 34 -79.5t90 -28.5q40 0 89 15l99 31l18 -57l-452 -144l-18 60l186 54v10q-46 16 -74 54t-28 87q0 78 57 131.5t141 53.5q27 0 52 -7.5t49 -18.5zM748 -6l-6 7q-69 -1 -137 -1h-136q-146 0 -235.5 64
t-89.5 212q0 104 35.5 200t107 157t180.5 61q100 0 167.5 -56.5t109 -147t61.5 -195.5t24 -203h94v-92h-96q-13 -194 -199 -324t-499 -206l-30 88q299 68 466 178t183 258zM744 90q-3 77 -17.5 165t-45.5 167.5t-83.5 129.5t-131.5 50q-82 0 -135 -48t-78.5 -121.5
t-25.5 -150.5q0 -111 66 -151.5t178 -40.5h273z" />
    <glyph glyph-name="uniFE87" unicode="&#x625;" horiz-adv-x="493" arabic-form="isolated" 
d="M380 -222l-21 -54q-40 19 -82 19q-61 0 -100.5 -35t-39.5 -91q0 -51 34 -79.5t90 -28.5q40 0 89 15l99 31l18 -57l-452 -144l-18 60l186 54v10q-46 16 -74 54t-28 87q0 78 57 131.5t141 53.5q27 0 52 -7.5t49 -18.5zM292 0h-90v1278h90v-1278z" />
    <glyph glyph-name="uniFE88" unicode="&#x625;" horiz-adv-x="586" arabic-form="final" 
d="M463 -214l-21 -54q-40 19 -82 19q-61 0 -100.5 -35t-39.5 -91q0 -51 34 -79.5t90 -28.5q40 0 89 15l99 31l18 -57l-452 -144l-18 60l186 54v10q-46 16 -74 54t-28 87q0 78 57 131.5t141 53.5q27 0 52 -7.5t49 -18.5zM181 1278h91v-881q0 -161 67.5 -233t245.5 -72h1v-92
h-1q-404 0 -404 396v882z" />
    <glyph glyph-name="uniFE89" unicode="&#x626;" horiz-adv-x="1477" arabic-form="isolated" 
d="M580 1044l-21 -54q-40 19 -82 19q-61 0 -100.5 -35t-39.5 -91q0 -51 34 -79.5t90 -28.5q40 0 89 15l99 31l18 -57l-452 -144l-18 60l186 54v10q-46 16 -74 54t-28 87q0 78 57 131.5t141 53.5q27 0 52 -7.5t49 -18.5zM1329 666l-35 -81q-53 28 -104.5 40.5t-101.5 12.5
q-93 0 -169 -43t-121 -119t-45 -176q0 -78 42 -114t110.5 -48t149.5 -18q81 -5 152.5 -20t116 -57.5t44.5 -132.5q0 -108 -86.5 -189.5t-236.5 -126.5t-341 -45q-265 0 -413.5 114t-148.5 334q0 87 10 179.5t33 222.5l88 -15q-24 -134 -33.5 -219.5t-9.5 -168.5
q0 -182 121 -268.5t350 -86.5q165 0 296 33t207.5 92t76.5 137q0 59 -36 86t-93.5 35.5t-124.5 12.5q-91 6 -173.5 23.5t-134.5 70.5t-52 164q0 125 57 222.5t153 153.5t213 56q56 0 117 -14.5t122 -46.5z" />
    <glyph glyph-name="uniFE8A" unicode="&#x626;" horiz-adv-x="1422" arabic-form="final" 
d="M933 743l-21 -54q-40 19 -82 19q-61 0 -100.5 -35t-39.5 -91q0 -51 34 -79.5t90 -28.5q40 0 89 15l99 31l18 -57l-452 -144l-18 60l186 54v10q-46 16 -74 54t-28 87q0 78 57 131.5t141 53.5q27 0 52 -7.5t49 -18.5zM1036 -10q159 -49 222.5 -99.5t63.5 -136.5
q0 -92 -79 -163t-218 -111.5t-319 -40.5q-299 0 -440.5 119t-141.5 372q0 76 13 195.5t35 270.5l86 -17q-46 -297 -46 -446q0 -214 114.5 -308t376.5 -94q156 0 274.5 29.5t185 81.5t66.5 121q0 48 -40.5 82t-146.5 67.5t-302 76.5l12 103h670v-92h-386v-10z" />
    <glyph glyph-name="uniFE8B" unicode="&#x626;" horiz-adv-x="574" arabic-form="initial" 
d="M428 1335l-21 -54q-40 19 -82 19q-61 0 -100.5 -35t-39.5 -91q0 -51 34 -79.5t90 -28.5q40 0 89 15l99 31l18 -57l-452 -144l-18 60l186 54v10q-46 16 -74 54t-28 87q0 78 57 131.5t141 53.5q27 0 52 -7.5t49 -18.5zM393 720q26 -99 42 -189t16 -164q0 -175 -91 -271
t-302 -96h-58q-23 0 -23 46t23 46h58q169 0 238.5 69t69.5 200q0 68 -16.5 153t-40.5 183z" />
    <glyph glyph-name="uniFE8C" unicode="&#x626;" horiz-adv-x="850" arabic-form="medial" 
d="M396 1172l-21 -54q-40 19 -82 19q-61 0 -100.5 -35t-39.5 -91q0 -51 34 -79.5t90 -28.5q40 0 89 15l99 31l18 -57l-452 -144l-18 60l186 54v10q-46 16 -74 54t-28 87q0 78 57 131.5t141 53.5q27 0 52 -7.5t49 -18.5zM472 443q0 -108 22.5 -186.5t85 -121.5t181.5 -43h89
v-92h-92q-127 0 -215.5 62.5t-113.5 180.5h-10q-24 -120 -126.5 -181.5t-235.5 -61.5h-57q-23 0 -23 46t23 46h57q135 0 204.5 43t94 122t24.5 186v116h92v-116z" />
    <glyph glyph-name="uniFE8D" unicode="&#x627;" horiz-adv-x="493" arabic-form="isolated" 
d="M292 0h-90v1278h90v-1278z" />
    <glyph glyph-name="uniFE8E" unicode="&#x627;" horiz-adv-x="586" arabic-form="final" 
d="M181 1278h91v-881q0 -161 67.5 -233t245.5 -72h1v-92h-1q-404 0 -404 396v882z" />
    <glyph glyph-name="uniFE8F" unicode="&#x628;" horiz-adv-x="1754" arabic-form="isolated" 
d="M768 -369l108 108l109 -108l-109 -109zM1582 716q23 -76 36 -149.5t13 -141.5q0 -164 -76 -256.5t-241.5 -130.5t-436.5 -38q-268 0 -434 37.5t-242.5 127.5t-76.5 246q0 64 13 140.5t35 164.5l85 -24q-21 -79 -33 -148t-12 -125q0 -123 64 -194.5t210 -102t391 -30.5
q251 0 396 31.5t207 105t62 198.5q0 119 -43 265z" />
    <glyph glyph-name="uniFE90" unicode="&#x628;" horiz-adv-x="1942" arabic-form="final" 
d="M1661 586q-11 -65 -19 -122.5t-8 -120.5q0 -71 23.5 -128t89.5 -90t194 -33h1v-92h-1q-345 0 -377 286h-10q-88 -163 -287.5 -224.5t-483.5 -61.5q-352 0 -505.5 116.5t-153.5 329.5q0 68 15 144.5t42 154.5l84 -29q-26 -73 -40.5 -141.5t-14.5 -127.5q0 -177 139 -266
t452 -89q211 0 352 29.5t227 91t131.5 157.5t64.5 228zM737 -369l108 108l109 -108l-109 -109z" />
    <glyph glyph-name="uniFE91" unicode="&#x628;" horiz-adv-x="574" arabic-form="initial" 
d="M393 720q26 -99 42 -189t16 -164q0 -175 -91 -271t-302 -96h-58q-23 0 -23 46t23 46h58q169 0 238.5 69t69.5 200q0 68 -16.5 153t-40.5 183zM36 -369l108 108l109 -108l-109 -109z" />
    <glyph glyph-name="uniFE92" unicode="&#x628;" horiz-adv-x="850" arabic-form="medial" 
d="M472 443q0 -108 22.5 -186.5t85 -121.5t181.5 -43h89v-92h-92q-127 0 -215.5 62.5t-113.5 180.5h-10q-24 -120 -126.5 -181.5t-235.5 -61.5h-57q-23 0 -23 46t23 46h57q135 0 204.5 43t94 122t24.5 186v116h92v-116zM36 -369l108 108l109 -108l-109 -109z" />
    <glyph glyph-name="uniFE93" unicode="&#x629;" horiz-adv-x="877" arabic-form="isolated" 
d="M141 1215l108 108l109 -108l-109 -109zM489 1215l108 108l109 -108l-109 -109zM438 -11q-145 0 -229.5 83t-84.5 213q0 134 76.5 260t180.5 225q-27 26 -51 47.5t-51 43.5l57 67q203 -169 310.5 -326t107.5 -314q0 -131 -85.5 -215t-230.5 -84zM438 82q113 0 168 57.5
t55 152.5q0 104 -62.5 215.5t-160.5 202.5q-97 -91 -160 -202.5t-63 -215.5q0 -95 55.5 -152.5t167.5 -57.5z" />
    <glyph glyph-name="uniFE94" unicode="&#x629;" horiz-adv-x="1124" arabic-form="final" 
d="M465 1296l108 108l109 -108l-109 -109zM813 1296l108 108l109 -108l-109 -109zM728 796l-8 150l89 5l33 -537q8 -129 34 -198.5t84 -96.5t163 -27h1v-92h-1q-139 0 -215.5 48t-112.5 145q-55 -22 -117 -32.5t-123 -10.5q-96 0 -179 27t-134 83t-51 142q0 152 145 255.5
t392 138.5zM733 706q-209 -25 -330.5 -101.5t-121.5 -189.5q0 -62 39 -101t103.5 -57t138.5 -18q112 0 209 34q-7 30 -11 62.5t-6 68.5z" />
    <glyph glyph-name="uniFE95" unicode="&#x62a;" horiz-adv-x="1754" arabic-form="isolated" 
d="M1582 716q23 -76 36 -149.5t13 -141.5q0 -164 -76 -256.5t-241.5 -130.5t-436.5 -38q-268 0 -434 37.5t-242.5 127.5t-76.5 246q0 64 13 140.5t35 164.5l85 -24q-21 -79 -33 -148t-12 -125q0 -123 64 -194.5t210 -102t391 -30.5q251 0 396 31.5t207 105t62 198.5
q0 119 -43 265zM593 822l108 108l109 -108l-109 -109zM941 822l108 108l109 -108l-109 -109z" />
    <glyph glyph-name="uniFE96" unicode="&#x62a;" horiz-adv-x="1942" arabic-form="final" 
d="M1661 586q-11 -65 -19 -122.5t-8 -120.5q0 -71 23.5 -128t89.5 -90t194 -33h1v-92h-1q-345 0 -377 286h-10q-88 -163 -287.5 -224.5t-483.5 -61.5q-352 0 -505.5 116.5t-153.5 329.5q0 68 15 144.5t42 154.5l84 -29q-26 -73 -40.5 -141.5t-14.5 -127.5q0 -177 139 -266
t452 -89q211 0 352 29.5t227 91t131.5 157.5t64.5 228zM617 775l108 108l109 -108l-109 -109zM965 775l108 108l109 -108l-109 -109z" />
    <glyph glyph-name="uniFE97" unicode="&#x62a;" horiz-adv-x="574" arabic-form="initial" 
d="M393 720q26 -99 42 -189t16 -164q0 -175 -91 -271t-302 -96h-58q-23 0 -23 46t23 46h58q169 0 238.5 69t69.5 200q0 68 -16.5 153t-40.5 183zM-26 1117l108 108l109 -108l-109 -109zM322 1117l108 108l109 -108l-109 -109z" />
    <glyph glyph-name="uniFE98" unicode="&#x62a;" horiz-adv-x="850" arabic-form="medial" 
d="M472 443q0 -108 22.5 -186.5t85 -121.5t181.5 -43h89v-92h-92q-127 0 -215.5 62.5t-113.5 180.5h-10q-24 -120 -126.5 -181.5t-235.5 -61.5h-57q-23 0 -23 46t23 46h57q135 0 204.5 43t94 122t24.5 186v116h92v-116zM44 951l108 108l109 -108l-109 -109zM392 951l108 108
l109 -108l-109 -109z" />
    <glyph glyph-name="uniFE99" unicode="&#x62b;" horiz-adv-x="1754" arabic-form="isolated" 
d="M1582 716q23 -76 36 -149.5t13 -141.5q0 -164 -76 -256.5t-241.5 -130.5t-436.5 -38q-268 0 -434 37.5t-242.5 127.5t-76.5 246q0 64 13 140.5t35 164.5l85 -24q-21 -79 -33 -148t-12 -125q0 -123 64 -194.5t210 -102t391 -30.5q251 0 396 31.5t207 105t62 198.5
q0 119 -43 265zM767 1119l108 108l109 -108l-109 -109zM941 822l108 108l109 -108l-109 -109zM593 822l108 108l109 -108l-109 -109z" />
    <glyph glyph-name="uniFE9A" unicode="&#x62b;" horiz-adv-x="1942" arabic-form="final" 
d="M1661 586q-11 -65 -19 -122.5t-8 -120.5q0 -71 23.5 -128t89.5 -90t194 -33h1v-92h-1q-345 0 -377 286h-10q-88 -163 -287.5 -224.5t-483.5 -61.5q-352 0 -505.5 116.5t-153.5 329.5q0 68 15 144.5t42 154.5l84 -29q-26 -73 -40.5 -141.5t-14.5 -127.5q0 -177 139 -266
t452 -89q211 0 352 29.5t227 91t131.5 157.5t64.5 228zM790 1072l108 108l109 -108l-109 -109zM964 775l108 108l109 -108l-109 -109zM616 775l108 108l109 -108l-109 -109z" />
    <glyph glyph-name="uniFE9B" unicode="&#x62b;" horiz-adv-x="574" arabic-form="initial" 
d="M393 720q26 -99 42 -189t16 -164q0 -175 -91 -271t-302 -96h-58q-23 0 -23 46t23 46h58q169 0 238.5 69t69.5 200q0 68 -16.5 153t-40.5 183zM148 1414l108 108l109 -108l-109 -109zM322 1117l108 108l109 -108l-109 -109zM-26 1117l108 108l109 -108l-109 -109z" />
    <glyph glyph-name="uniFE9C" unicode="&#x62b;" horiz-adv-x="850" arabic-form="medial" 
d="M472 443q0 -108 22.5 -186.5t85 -121.5t181.5 -43h89v-92h-92q-127 0 -215.5 62.5t-113.5 180.5h-10q-24 -120 -126.5 -181.5t-235.5 -61.5h-57q-23 0 -23 46t23 46h57q135 0 204.5 43t94 122t24.5 186v116h92v-116zM218 1180l108 108l109 -108l-109 -109zM392 883
l108 108l109 -108l-109 -109zM44 883l108 108l109 -108l-109 -109z" />
    <glyph glyph-name="uniFE9D" unicode="&#x62c;" horiz-adv-x="1326" arabic-form="isolated" 
d="M583 -142l108 108l109 -108l-109 -109zM444 801q47 0 116 -20t197 -78t219 -92t182 -58l-7 -119q-122 -16 -253.5 -51.5t-254.5 -90t-221.5 -129t-156.5 -167.5t-58 -206q0 -123 75 -202.5t197.5 -118.5t266.5 -39q112 0 224.5 21.5t210.5 64.5l44 -83
q-115 -49 -238.5 -74t-242.5 -25q-169 0 -311.5 50t-228.5 149.5t-86 249.5q0 121 55 221.5t149.5 181.5t214.5 141.5t252.5 101.5t262.5 63v10q-71 20 -151.5 49.5t-184.5 73.5q-112 47 -174 66.5t-99 19.5q-68 0 -114.5 -46.5t-90.5 -156.5l-6 -16l-71 24l6 17
q52 145 117 206.5t160 61.5z" />
    <glyph glyph-name="uniFE9E" unicode="&#x62c;" horiz-adv-x="1326" arabic-form="final" 
d="M579 -184l108 108l109 -108l-109 -109zM444 761q51 0 122.5 -22.5t190.5 -75.5q134 -60 224 -93.5t177 -56.5l-7 -119q-75 -10 -130.5 -19.5t-99.5 -20.5v-11q55 -133 137.5 -192t212.5 -59h55v-92h-55q-152 0 -254 80.5t-164 251.5q-195 -55 -340.5 -146t-225.5 -203.5
t-80 -232.5q0 -109 66.5 -190t187.5 -125.5t285 -44.5q115 0 227 22t208 64l44 -83q-232 -99 -481 -99q-189 0 -330 55.5t-218.5 156.5t-77.5 237q0 166 117.5 310t327.5 248.5t489 150.5v10q-65 17 -143 45.5t-193 77.5q-112 47 -174 66.5t-99 19.5q-68 0 -114.5 -46.5
t-90.5 -156.5l-6 -16l-71 24l6 17q51 143 115.5 205.5t161.5 62.5z" />
    <glyph glyph-name="uniFE9F" unicode="&#x62c;" horiz-adv-x="1224" arabic-form="initial" 
d="M380 -369l108 108l109 -108l-109 -109zM391 759q47 0 114.5 -21.5t199.5 -77.5q125 -55 214.5 -87.5t181.5 -57.5v-92l-484 -267q-151 -84 -277 -120t-268 -36h-72q-23 0 -23 46t23 46h83q127 0 239 32t257 108l414 220v10q-70 18 -148.5 47t-182.5 74q-112 47 -173 66.5
t-98 19.5q-68 0 -115 -47t-90 -157l-7 -15l-72 24l7 16q53 144 118 206.5t159 62.5z" />
    <glyph glyph-name="uniFEA0" unicode="&#x62c;" horiz-adv-x="1271" arabic-form="medial" 
d="M380 -369l108 108l109 -108l-109 -109zM391 759q47 0 115 -20t199 -79q125 -55 214.5 -87.5t181.5 -57.5v-92l-255 -139v-10q77 -104 158 -143t183 -39h84v-92h-89q-115 0 -216.5 53t-193.5 189l-155 -86q-151 -83 -277 -119.5t-268 -36.5h-72q-23 0 -23 46t23 46h83
q127 0 239 31.5t257 108.5l414 220v10q-70 18 -148.5 47.5t-182.5 73.5q-112 47 -173 66.5t-98 19.5q-68 0 -114.5 -47t-90.5 -157l-7 -15l-72 24l7 16q54 143 118.5 206t158.5 63z" />
    <glyph glyph-name="uniFEA1" unicode="&#x62d;" horiz-adv-x="1326" arabic-form="isolated" 
d="M444 801q47 0 116 -20t197 -78t219 -92t182 -58l-7 -119q-122 -16 -253.5 -51.5t-254.5 -90t-221.5 -129t-156.5 -167.5t-58 -206q0 -123 75 -202.5t197.5 -118.5t266.5 -39q112 0 224.5 21.5t210.5 64.5l44 -83q-115 -49 -238.5 -74t-242.5 -25q-169 0 -311.5 50
t-228.5 149.5t-86 249.5q0 121 55 221.5t149.5 181.5t214.5 141.5t252.5 101.5t262.5 63v10q-71 20 -151.5 49.5t-184.5 73.5q-112 47 -174 66.5t-99 19.5q-68 0 -114.5 -46.5t-90.5 -156.5l-6 -16l-71 24l6 17q52 145 117 206.5t160 61.5z" />
    <glyph glyph-name="uniFEA2" unicode="&#x62d;" horiz-adv-x="1326" arabic-form="final" 
d="M444 761q51 0 122.5 -22.5t190.5 -75.5q134 -60 224 -93.5t177 -56.5l-7 -119q-75 -10 -130.5 -19.5t-99.5 -20.5v-11q55 -133 137.5 -192t212.5 -59h55v-92h-55q-152 0 -254 80.5t-164 251.5q-195 -55 -340.5 -146t-225.5 -203.5t-80 -232.5q0 -109 66.5 -190
t187.5 -125.5t285 -44.5q115 0 227 22t208 64l44 -83q-232 -99 -481 -99q-189 0 -330 55.5t-218.5 156.5t-77.5 237q0 166 117.5 310t327.5 248.5t489 150.5v10q-65 17 -143 45.5t-193 77.5q-112 47 -174 66.5t-99 19.5q-68 0 -114.5 -46.5t-90.5 -156.5l-6 -16l-71 24l6 17
q51 143 115.5 205.5t161.5 62.5z" />
    <glyph glyph-name="uniFEA3" unicode="&#x62d;" horiz-adv-x="1224" arabic-form="initial" 
d="M391 759q47 0 114.5 -21.5t199.5 -77.5q125 -55 214.5 -87.5t181.5 -57.5v-92l-484 -267q-151 -84 -277 -120t-268 -36h-72q-23 0 -23 46t23 46h83q127 0 239 32t257 108l414 220v10q-70 18 -148.5 47t-182.5 74q-112 47 -173 66.5t-98 19.5q-68 0 -115 -47t-90 -157
l-7 -15l-72 24l7 16q53 144 118 206.5t159 62.5z" />
    <glyph glyph-name="uniFEA4" unicode="&#x62d;" horiz-adv-x="1271" arabic-form="medial" 
d="M391 759q47 0 115 -20t199 -79q125 -55 214.5 -87.5t181.5 -57.5v-92l-255 -139v-10q77 -104 158 -143t183 -39h84v-92h-89q-115 0 -216.5 53t-193.5 189l-155 -86q-151 -83 -277 -119.5t-268 -36.5h-72q-23 0 -23 46t23 46h83q127 0 239 31.5t257 108.5l414 220v10
q-70 18 -148.5 47.5t-182.5 73.5q-112 47 -173 66.5t-98 19.5q-68 0 -114.5 -47t-90.5 -157l-7 -15l-72 24l7 16q54 143 118.5 206t158.5 63z" />
    <glyph glyph-name="uniFEA5" unicode="&#x62e;" horiz-adv-x="1326" arabic-form="isolated" 
d="M444 801q47 0 116 -20t197 -78t219 -92t182 -58l-7 -119q-122 -16 -253.5 -51.5t-254.5 -90t-221.5 -129t-156.5 -167.5t-58 -206q0 -123 75 -202.5t197.5 -118.5t266.5 -39q112 0 224.5 21.5t210.5 64.5l44 -83q-115 -49 -238.5 -74t-242.5 -25q-169 0 -311.5 50
t-228.5 149.5t-86 249.5q0 121 55 221.5t149.5 181.5t214.5 141.5t252.5 101.5t262.5 63v10q-71 20 -151.5 49.5t-184.5 73.5q-112 47 -174 66.5t-99 19.5q-68 0 -114.5 -46.5t-90.5 -156.5l-6 -16l-71 24l6 17q52 145 117 206.5t160 61.5zM566 1198l108 108l109 -108
l-109 -109z" />
    <glyph glyph-name="uniFEA6" unicode="&#x62e;" horiz-adv-x="1326" arabic-form="final" 
d="M444 761q51 0 122.5 -22.5t190.5 -75.5q134 -60 224 -93.5t177 -56.5l-7 -119q-75 -10 -130.5 -19.5t-99.5 -20.5v-11q55 -133 137.5 -192t212.5 -59h55v-92h-55q-152 0 -254 80.5t-164 251.5q-195 -55 -340.5 -146t-225.5 -203.5t-80 -232.5q0 -109 66.5 -190
t187.5 -125.5t285 -44.5q115 0 227 22t208 64l44 -83q-232 -99 -481 -99q-189 0 -330 55.5t-218.5 156.5t-77.5 237q0 166 117.5 310t327.5 248.5t489 150.5v10q-65 17 -143 45.5t-193 77.5q-112 47 -174 66.5t-99 19.5q-68 0 -114.5 -46.5t-90.5 -156.5l-6 -16l-71 24l6 17
q51 143 115.5 205.5t161.5 62.5zM566 1158l108 108l109 -108l-109 -109z" />
    <glyph glyph-name="uniFEA7" unicode="&#x62e;" horiz-adv-x="1224" arabic-form="initial" 
d="M391 759q47 0 114.5 -21.5t199.5 -77.5q125 -55 214.5 -87.5t181.5 -57.5v-92l-484 -267q-151 -84 -277 -120t-268 -36h-72q-23 0 -23 46t23 46h83q127 0 239 32t257 108l414 220v10q-70 18 -148.5 47t-182.5 74q-112 47 -173 66.5t-98 19.5q-68 0 -115 -47t-90 -157
l-7 -15l-72 24l7 16q53 144 118 206.5t159 62.5zM441 1149l108 108l109 -108l-109 -109z" />
    <glyph glyph-name="uniFEA8" unicode="&#x62e;" horiz-adv-x="1271" arabic-form="medial" 
d="M391 759q47 0 115 -20t199 -79q125 -55 214.5 -87.5t181.5 -57.5v-92l-255 -139v-10q77 -104 158 -143t183 -39h84v-92h-89q-115 0 -216.5 53t-193.5 189l-155 -86q-151 -83 -277 -119.5t-268 -36.5h-72q-23 0 -23 46t23 46h83q127 0 239 31.5t257 108.5l414 220v10
q-70 18 -148.5 47.5t-182.5 73.5q-112 47 -173 66.5t-98 19.5q-68 0 -114.5 -47t-90.5 -157l-7 -15l-72 24l7 16q54 143 118.5 206t158.5 63zM441 1149l108 108l109 -108l-109 -109z" />
    <glyph glyph-name="uniFEA9" unicode="&#x62f;" horiz-adv-x="1006" arabic-form="isolated" 
d="M883 344q0 -100 -43 -168t-115 -108.5t-160.5 -58.5t-179.5 -18q-64 0 -129 8t-133 26l21 88q66 -17 125 -24t117 -7q190 0 299 65.5t109 195.5q0 113 -85.5 242.5t-257.5 285.5l61 72q182 -164 276.5 -313t94.5 -286z" />
    <glyph glyph-name="uniFEAA" unicode="&#x62f;" horiz-adv-x="1273" arabic-form="final" 
d="M679 931l276 -642q50 -114 118.5 -155.5t180.5 -41.5h19v-92h-19q-127 0 -219.5 50.5t-136.5 168.5h-10q-52 -111 -163.5 -170t-237.5 -59q-94 0 -187.5 34.5t-176.5 105.5l52 74q72 -63 153.5 -92t159.5 -29q111 0 209 53.5t156 154.5l-263 598z" />
    <glyph glyph-name="uniFEAB" unicode="&#x630;" horiz-adv-x="1006" arabic-form="isolated" 
d="M883 344q0 -100 -43 -168t-115 -108.5t-160.5 -58.5t-179.5 -18q-64 0 -129 8t-133 26l21 88q66 -17 125 -24t117 -7q190 0 299 65.5t109 195.5q0 113 -85.5 242.5t-257.5 285.5l61 72q182 -164 276.5 -313t94.5 -286zM411 1334l108 108l109 -108l-109 -109z" />
    <glyph glyph-name="uniFEAC" unicode="&#x630;" horiz-adv-x="1273" arabic-form="final" 
d="M530 1332l108 108l109 -108l-109 -109zM679 931l276 -642q50 -114 118.5 -155.5t180.5 -41.5h19v-92h-19q-127 0 -219.5 50.5t-136.5 168.5h-10q-52 -111 -163.5 -170t-237.5 -59q-94 0 -187.5 34.5t-176.5 105.5l52 74q72 -63 153.5 -92t159.5 -29q111 0 209 53.5
t156 154.5l-263 598z" />
    <glyph glyph-name="uniFEAD" unicode="&#x631;" horiz-adv-x="566" arabic-form="isolated" 
d="M229 541l85 32q57 -163 87 -294t30 -233q0 -196 -134.5 -335t-429.5 -246l-37 84q272 99 392 213.5t120 277.5q0 92 -29.5 221t-83.5 280z" />
    <glyph glyph-name="uniFEAE" unicode="&#x631;" horiz-adv-x="750" arabic-form="final" 
d="M229 541l85 32l61 -187q34 -105 79 -169.5t115 -94.5t180 -30h1v-92h-1q-111 0 -196.5 38t-131.5 108l-10 -4q23 -171 -27 -294t-178 -214t-339 -169l-37 84q274 100 393 214t119 277q0 90 -29 218.5t-84 282.5z" />
    <glyph glyph-name="uniFEAF" unicode="&#x632;" horiz-adv-x="566" arabic-form="isolated" 
d="M229 541l85 32q57 -163 87 -294t30 -233q0 -196 -134.5 -335t-429.5 -246l-37 84q272 99 392 213.5t120 277.5q0 92 -29.5 221t-83.5 280zM181 1019l108 108l109 -108l-109 -109z" />
    <glyph glyph-name="uniFEB0" unicode="&#x632;" horiz-adv-x="750" arabic-form="final" 
d="M181 1019l108 108l109 -108l-109 -109zM229 541l85 32l61 -187q34 -105 79 -169.5t115 -94.5t180 -30h1v-92h-1q-111 0 -196.5 38t-131.5 108l-10 -4q23 -171 -27 -294t-178 -214t-339 -169l-37 84q274 100 393 214t119 277q0 90 -29 218.5t-84 282.5z" />
    <glyph glyph-name="uniFEB1" unicode="&#x633;" horiz-adv-x="2498" arabic-form="isolated" 
d="M1545 0q-70 0 -119.5 25t-84.5 69l-6 -5q22 -202 -51 -329.5t-216.5 -188t-333.5 -60.5q-284 0 -445 128t-161 418q0 76 12.5 178t43.5 255l87 -17q-31 -155 -43 -250.5t-12 -162.5q0 -252 133.5 -354.5t382.5 -102.5q165 0 284 39t183.5 128t64.5 239q0 95 -32.5 213
t-112.5 307l84 37l112 -305q29 -79 85.5 -124t152.5 -45q103 0 156.5 62.5t66.5 203.5l15 165l87 -9l-13 -151q-13 -140 46 -205.5t171 -65.5q202 0 202 235q0 50 -8.5 127.5t-19.5 131.5l90 21q13 -60 21 -140.5t8 -140.5q0 -166 -73 -246t-214 -80q-224 0 -266 203h-10
q-25 -100 -95.5 -151.5t-171.5 -51.5z" />
    <glyph glyph-name="uniFEB2" unicode="&#x633;" horiz-adv-x="2742" arabic-form="final" 
d="M2337 268q-21 -268 -251 -268q-222 0 -264 203h-10q-25 -100 -95.5 -151.5t-171.5 -51.5q-70 0 -119.5 25t-84.5 69l-6 -5q22 -202 -51 -329.5t-216.5 -188t-333.5 -60.5q-284 0 -445 128t-161 418q0 76 12.5 178t43.5 255l87 -17q-31 -155 -43 -250.5t-12 -162.5
q0 -252 133.5 -354.5t382.5 -102.5q165 0 284 39t183.5 128t64.5 239q0 95 -32.5 213t-112.5 307l84 37l112 -305q29 -80 85.5 -124.5t152.5 -44.5q103 0 156.5 62.5t66.5 203.5l15 165l87 -9l-13 -151q-13 -140 46 -205.5t171 -65.5q195 0 195 240q0 50 -8.5 115t-23.5 136
l88 18l27 -173q29 -181 116.5 -258.5t263.5 -77.5h2v-92h-2q-166 0 -267 69.5t-126 198.5h-10z" />
    <glyph glyph-name="uniFEB3" unicode="&#x633;" horiz-adv-x="1653" arabic-form="initial" 
d="M705 92q104 0 157.5 63t67.5 202l16 166l87 -9l-14 -151q-13 -139 46.5 -205t171.5 -66q203 0 203 245q0 36 -4 86t-10.5 99.5t-13.5 82.5l88 21q11 -55 20.5 -140t9.5 -148q0 -338 -287 -338q-113 0 -179.5 53t-86.5 150h-10q-53 -203 -265 -203q-118 0 -186 62t-84 174
h-10q-27 -106 -125.5 -171t-238.5 -65h-58q-23 0 -23 46t23 46h58q164 0 243.5 83t101.5 272l13 120l92 -8l-19 -175q-16 -142 40.5 -217t175.5 -75z" />
    <glyph glyph-name="uniFEB4" unicode="&#x633;" horiz-adv-x="1898" arabic-form="medial" 
d="M1493 268q-22 -268 -257 -268q-112 0 -175.5 53t-83.5 150h-10q-55 -203 -265 -203q-119 0 -186.5 61.5t-83.5 174.5h-10q-27 -106 -125.5 -171t-238.5 -65h-58q-23 0 -23 46t23 46h58q164 0 243.5 83t101.5 272l13 120l92 -8l-19 -175q-16 -142 40.5 -217t175.5 -75
q104 0 157.5 62.5t67.5 202.5l16 166l87 -9l-14 -151q-12 -139 45.5 -205t165.5 -66q202 0 202 240q0 104 -31 251l88 18l27 -173q29 -181 116.5 -258.5t263.5 -77.5h2v-92h-2q-168 0 -268 70.5t-125 197.5h-10z" />
    <glyph glyph-name="uniFEB5" unicode="&#x634;" horiz-adv-x="2498" arabic-form="isolated" 
d="M1545 0q-70 0 -119.5 25t-84.5 69l-6 -5q22 -202 -51 -329.5t-216.5 -188t-333.5 -60.5q-284 0 -445 128t-161 418q0 76 12.5 178t43.5 255l87 -17q-31 -155 -43 -250.5t-12 -162.5q0 -252 133.5 -354.5t382.5 -102.5q165 0 284 39t183.5 128t64.5 239q0 95 -32.5 213
t-112.5 307l84 37l112 -305q29 -79 85.5 -124t152.5 -45q103 0 156.5 62.5t66.5 203.5l15 165l87 -9l-13 -151q-13 -140 46 -205.5t171 -65.5q202 0 202 235q0 50 -8.5 127.5t-19.5 131.5l90 21q13 -60 21 -140.5t8 -140.5q0 -166 -73 -246t-214 -80q-224 0 -266 203h-10
q-25 -100 -95.5 -151.5t-171.5 -51.5zM1701 1213l108 108l109 -108l-109 -109zM1875 916l108 108l109 -108l-109 -109zM1527 916l108 108l109 -108l-109 -109z" />
    <glyph glyph-name="uniFEB6" unicode="&#x634;" horiz-adv-x="2742" arabic-form="final" 
d="M1682 1213l108 108l109 -108l-109 -109zM1856 916l108 108l109 -108l-109 -109zM1508 916l108 108l109 -108l-109 -109zM2337 268q-21 -268 -251 -268q-222 0 -264 203h-10q-25 -100 -95.5 -151.5t-171.5 -51.5q-70 0 -119.5 25t-84.5 69l-6 -5q22 -202 -51 -329.5
t-216.5 -188t-333.5 -60.5q-284 0 -445 128t-161 418q0 76 12.5 178t43.5 255l87 -17q-31 -155 -43 -250.5t-12 -162.5q0 -252 133.5 -354.5t382.5 -102.5q165 0 284 39t183.5 128t64.5 239q0 95 -32.5 213t-112.5 307l84 37l112 -305q29 -80 85.5 -124.5t152.5 -44.5
q103 0 156.5 62.5t66.5 203.5l15 165l87 -9l-13 -151q-13 -140 46 -205.5t171 -65.5q195 0 195 240q0 50 -8.5 115t-23.5 136l88 18l27 -173q29 -181 116.5 -258.5t263.5 -77.5h2v-92h-2q-166 0 -267 69.5t-126 198.5h-10z" />
    <glyph glyph-name="uniFEB7" unicode="&#x634;" horiz-adv-x="1653" arabic-form="initial" 
d="M854 1213l108 108l109 -108l-109 -109zM1028 916l108 108l109 -108l-109 -109zM680 916l108 108l109 -108l-109 -109zM705 92q104 0 157.5 63t67.5 202l16 166l87 -9l-14 -151q-13 -139 46.5 -205t171.5 -66q203 0 203 245q0 36 -4 86t-10.5 99.5t-13.5 82.5l88 21
q11 -55 20.5 -140t9.5 -148q0 -338 -287 -338q-113 0 -179.5 53t-86.5 150h-10q-53 -203 -265 -203q-118 0 -186 62t-84 174h-10q-27 -106 -125.5 -171t-238.5 -65h-58q-23 0 -23 46t23 46h58q164 0 243.5 83t101.5 272l13 120l92 -8l-19 -175q-16 -142 40.5 -217t175.5 -75
z" />
    <glyph glyph-name="uniFEB8" unicode="&#x634;" horiz-adv-x="1898" arabic-form="medial" 
d="M854 1213l108 108l109 -108l-109 -109zM1028 916l108 108l109 -108l-109 -109zM680 916l108 108l109 -108l-109 -109zM1493 268q-22 -268 -257 -268q-112 0 -175.5 53t-83.5 150h-10q-55 -203 -265 -203q-119 0 -186.5 61.5t-83.5 174.5h-10q-27 -106 -125.5 -171
t-238.5 -65h-58q-23 0 -23 46t23 46h58q164 0 243.5 83t101.5 272l13 120l92 -8l-19 -175q-16 -142 40.5 -217t175.5 -75q104 0 157.5 62.5t67.5 202.5l16 166l87 -9l-14 -151q-12 -139 45.5 -205t165.5 -66q202 0 202 240q0 104 -31 251l88 18l27 -173
q29 -181 116.5 -258.5t263.5 -77.5h2v-92h-2q-168 0 -268 70.5t-125 197.5h-10z" />
    <glyph glyph-name="uniFEB9" unicode="&#x635;" horiz-adv-x="2406" arabic-form="isolated" 
d="M1958 691q146 0 236 -90t90 -236q0 -365 -584 -365q-240 0 -385 67q6 -270 -145.5 -413t-453.5 -143q-588 0 -588 546q0 77 13 181t43 252l87 -17q-28 -147 -41.5 -244.5t-13.5 -168.5q0 -236 121 -346.5t377 -110.5q260 0 387 108.5t127 331.5q0 87 -30.5 198
t-106.5 289l85 37q56 -132 86.5 -226.5t41.5 -174.5q170 257 337 391t317 134zM1953 599q-261 0 -569 -462q107 -45 317 -45q494 0 494 273q0 106 -66.5 170t-175.5 64z" />
    <glyph glyph-name="uniFEBA" unicode="&#x635;" horiz-adv-x="2484" arabic-form="final" 
d="M1958 691q146 0 236 -90t90 -236q0 -122 -73 -198q90 -75 272 -75h1v-92h-1q-213 0 -326 106q-147 -106 -457 -106q-240 0 -385 67q6 -271 -147 -413.5t-452 -142.5q-588 0 -588 546q0 78 13.5 182.5t42.5 250.5l87 -17q-29 -148 -42 -245.5t-13 -167.5
q0 -236 121 -346.5t377 -110.5q260 0 387 108.5t127 331.5q0 87 -30.5 198t-106.5 289l85 37q58 -135 87.5 -229t40.5 -172q170 257 337 391t317 134zM1953 599q-261 0 -569 -462q107 -45 317 -45q494 0 494 273q0 106 -66.5 170t-175.5 64z" />
    <glyph glyph-name="uniFEBB" unicode="&#x635;" horiz-adv-x="1618" arabic-form="initial" 
d="M364 245q-25 -121 -121.5 -183t-233.5 -62h-9q-23 0 -23 46t23 46h9q134 0 199 43t85.5 121.5t20.5 182.5v130h90v-105q1 -96 14.5 -151t39.5 -86t62 -54q130 195 245 308t216 161.5t189 48.5q155 0 240.5 -94.5t85.5 -231.5q0 -106 -47 -176.5t-129 -112t-187.5 -59
t-222.5 -17.5q-220 0 -355.5 57.5t-181.5 187.5h-9zM1165 599q-71 0 -157.5 -40.5t-189 -141t-223.5 -280.5q63 -25 144 -35t174 -10q91 0 179 10.5t159 39t113.5 82.5t42.5 141q0 102 -64.5 168t-177.5 66z" />
    <glyph glyph-name="uniFEBC" unicode="&#x635;" horiz-adv-x="1696" arabic-form="medial" 
d="M314 569h90v-105q1 -96 14.5 -151t39.5 -86t62 -54q130 195 245 308t216 161.5t189 48.5q155 0 240.5 -94.5t85.5 -231.5q0 -64 -18.5 -113.5t-52.5 -87.5q90 -72 270 -72h1v-92h-1q-103 0 -186 26t-142 79q-81 -59 -201.5 -82t-255.5 -23q-220 0 -355.5 57.5
t-181.5 187.5h-9q-25 -121 -121.5 -183t-233.5 -62h-9q-23 0 -23 46t23 46h9q134 0 199 43t85.5 121.5t20.5 182.5v130zM1165 599q-71 0 -157.5 -40.5t-189 -141t-223.5 -280.5q63 -25 144 -35t174 -10q91 0 179 10.5t159 39t113.5 82.5t42.5 141q0 102 -64.5 168t-177.5 66
z" />
    <glyph glyph-name="uniFEBD" unicode="&#x636;" horiz-adv-x="2406" arabic-form="isolated" 
d="M1958 691q146 0 236 -90t90 -236q0 -365 -584 -365q-240 0 -385 67q6 -270 -145.5 -413t-453.5 -143q-588 0 -588 546q0 77 13 181t43 252l87 -17q-28 -147 -41.5 -244.5t-13.5 -168.5q0 -236 121 -346.5t377 -110.5q260 0 387 108.5t127 331.5q0 87 -30.5 198
t-106.5 289l85 37q56 -132 86.5 -226.5t41.5 -174.5q170 257 337 391t317 134zM1953 599q-261 0 -569 -462q107 -45 317 -45q494 0 494 273q0 106 -66.5 170t-175.5 64zM1849 1088l108 108l109 -108l-109 -109z" />
    <glyph glyph-name="uniFEBE" unicode="&#x636;" horiz-adv-x="2484" arabic-form="final" 
d="M1958 691q146 0 236 -90t90 -236q0 -122 -73 -198q90 -75 272 -75h1v-92h-1q-213 0 -326 106q-147 -106 -457 -106q-240 0 -385 67q6 -271 -147 -413.5t-452 -142.5q-588 0 -588 546q0 78 13.5 182.5t42.5 250.5l87 -17q-29 -148 -42 -245.5t-13 -167.5
q0 -236 121 -346.5t377 -110.5q260 0 387 108.5t127 331.5q0 87 -30.5 198t-106.5 289l85 37q58 -135 87.5 -229t40.5 -172q170 257 337 391t317 134zM1953 599q-261 0 -569 -462q107 -45 317 -45q494 0 494 273q0 106 -66.5 170t-175.5 64zM1849 1088l108 108l109 -108
l-109 -109z" />
    <glyph glyph-name="uniFEBF" unicode="&#x636;" horiz-adv-x="1618" arabic-form="initial" 
d="M1059 1088l108 108l109 -108l-109 -109zM364 245q-25 -121 -121.5 -183t-233.5 -62h-9q-23 0 -23 46t23 46h9q134 0 199 43t85.5 121.5t20.5 182.5v130h90v-105q1 -96 14.5 -151t39.5 -86t62 -54q130 195 245 308t216 161.5t189 48.5q155 0 240.5 -94.5t85.5 -231.5
q0 -106 -47 -176.5t-129 -112t-187.5 -59t-222.5 -17.5q-220 0 -355.5 57.5t-181.5 187.5h-9zM1165 599q-71 0 -157.5 -40.5t-189 -141t-223.5 -280.5q63 -25 144 -35t174 -10q91 0 179 10.5t159 39t113.5 82.5t42.5 141q0 102 -64.5 168t-177.5 66z" />
    <glyph glyph-name="uniFEC0" unicode="&#x636;" horiz-adv-x="1696" arabic-form="medial" 
d="M1059 1088l108 108l109 -108l-109 -109zM314 569h90v-105q1 -96 14.5 -151t39.5 -86t62 -54q130 195 245 308t216 161.5t189 48.5q155 0 240.5 -94.5t85.5 -231.5q0 -64 -18.5 -113.5t-52.5 -87.5q90 -72 270 -72h1v-92h-1q-103 0 -186 26t-142 79q-81 -59 -201.5 -82
t-255.5 -23q-220 0 -355.5 57.5t-181.5 187.5h-9q-25 -121 -121.5 -183t-233.5 -62h-9q-23 0 -23 46t23 46h9q134 0 199 43t85.5 121.5t20.5 182.5v130zM1165 599q-71 0 -157.5 -40.5t-189 -141t-223.5 -280.5q63 -25 144 -35t174 -10q91 0 179 10.5t159 39t113.5 82.5
t42.5 141q0 102 -64.5 168t-177.5 66z" />
    <glyph glyph-name="uniFEC1" unicode="&#x637;" horiz-adv-x="1600" arabic-form="isolated" 
d="M435 92q19 29 37 57l36 56v1073h89v-714q0 -73 -4 -136t-20 -131l9 -6q297 400 571 400q156 0 240 -93.5t84 -230.5q0 -99 -50.5 -182.5t-179 -134t-362.5 -50.5h-761v92h311zM538 92h357q90 0 178 10t159.5 38t114 82t42.5 142q0 103 -65 169t-178 66
q-71 0 -162.5 -41.5t-202.5 -151t-243 -314.5z" />
    <glyph glyph-name="uniFEC2" unicode="&#x637;" horiz-adv-x="1707" arabic-form="final" 
d="M435 92q19 29 37 57l36 56v1073h89v-714q0 -73 -4 -136t-20 -131l9 -6q297 400 571 400q156 0 240 -93.5t84 -230.5q0 -47 -11 -92t-39 -84q47 -47 115 -73t164 -26h1v-92h-1q-117 0 -192.5 37.5t-134.5 92.5q-64 -59 -182 -94.5t-312 -35.5h-761v92h311zM538 92h357
q90 0 178 10t159.5 38t114 82t42.5 142q0 103 -65 169t-178 66q-71 0 -162.5 -41.5t-202.5 -151t-243 -314.5z" />
    <glyph glyph-name="uniFEC3" unicode="&#x637;" horiz-adv-x="1337" arabic-form="initial" 
d="M0 0q-23 0 -23 46t23 46h174q19 29 36.5 57t35.5 56v1073h89v-714q0 -74 -5 -137t-20 -130l9 -6q297 400 571 400q155 0 240 -93t85 -231q0 -99 -51 -182.5t-179.5 -134t-362.5 -50.5h-622zM276 92h356q91 0 179 10t159.5 38t114 82t42.5 142q0 103 -65 169t-178 66
q-72 0 -163 -41.5t-202 -151t-243 -314.5z" />
    <glyph glyph-name="uniFEC4" unicode="&#x637;" horiz-adv-x="1446" arabic-form="medial" 
d="M0 0q-23 0 -23 46t23 46h174q19 29 36.5 57t35.5 56v1073h89v-714q0 -73 -4.5 -136t-20.5 -131l9 -6q297 400 571 400q156 0 240.5 -93.5t84.5 -230.5q0 -46 -11.5 -91t-38.5 -84q47 -48 115.5 -74t164.5 -26h1v-92h-1q-118 0 -193 37.5t-134 93.5q-64 -59 -183 -95
t-313 -36h-622zM276 92h356q91 0 179 10t159.5 38t114 82t42.5 142q0 103 -65 169t-178 66q-72 0 -163 -41.5t-202 -151t-243 -314.5z" />
    <glyph glyph-name="uniFEC5" unicode="&#x638;" horiz-adv-x="1600" arabic-form="isolated" 
d="M435 92q19 29 37 57l36 56v1073h89v-714q0 -73 -4 -136t-20 -131l9 -6q297 400 571 400q156 0 240 -93.5t84 -230.5q0 -99 -50.5 -182.5t-179 -134t-362.5 -50.5h-761v92h311zM538 92h357q90 0 178 10t159.5 38t114 82t42.5 142q0 103 -65 169t-178 66
q-71 0 -162.5 -41.5t-202.5 -151t-243 -314.5zM1040 1088l108 108l109 -108l-109 -109z" />
    <glyph glyph-name="uniFEC6" unicode="&#x638;" horiz-adv-x="1707" arabic-form="final" 
d="M1040 1088l108 108l109 -108l-109 -109zM435 92q19 29 37 57l36 56v1073h89v-714q0 -73 -4 -136t-20 -131l9 -6q297 400 571 400q156 0 240 -93.5t84 -230.5q0 -47 -11 -92t-39 -84q47 -47 115 -73t164 -26h1v-92h-1q-117 0 -192.5 37.5t-134.5 92.5q-64 -59 -182 -94.5
t-312 -35.5h-761v92h311zM538 92h357q90 0 178 10t159.5 38t114 82t42.5 142q0 103 -65 169t-178 66q-71 0 -162.5 -41.5t-202.5 -151t-243 -314.5z" />
    <glyph glyph-name="uniFEC7" unicode="&#x638;" horiz-adv-x="1337" arabic-form="initial" 
d="M779 1088l108 108l109 -108l-109 -109zM0 0q-23 0 -23 46t23 46h174q19 29 36.5 57t35.5 56v1073h89v-714q0 -74 -5 -137t-20 -130l9 -6q297 400 571 400q155 0 240 -93t85 -231q0 -99 -51 -182.5t-179.5 -134t-362.5 -50.5h-622zM276 92h356q91 0 179 10t159.5 38
t114 82t42.5 142q0 103 -65 169t-178 66q-72 0 -163 -41.5t-202 -151t-243 -314.5z" />
    <glyph glyph-name="uniFEC8" unicode="&#x638;" horiz-adv-x="1446" arabic-form="medial" 
d="M779 1088l108 108l109 -108l-109 -109zM0 0q-23 0 -23 46t23 46h174q19 29 36.5 57t35.5 56v1073h89v-714q0 -73 -4.5 -136t-20.5 -131l9 -6q297 400 571 400q156 0 240.5 -93.5t84.5 -230.5q0 -46 -11.5 -91t-38.5 -84q47 -48 115.5 -74t164.5 -26h1v-92h-1
q-118 0 -193 37.5t-134 93.5q-64 -59 -183 -95t-313 -36h-622zM276 92h356q91 0 179 10t159.5 38t114 82t42.5 142q0 103 -65 169t-178 66q-72 0 -163 -41.5t-202 -151t-243 -314.5z" />
    <glyph glyph-name="uniFEC9" unicode="&#x639;" horiz-adv-x="1175" arabic-form="isolated" 
d="M966 984l-51 -69q-113 114 -254 114q-86 0 -157 -41.5t-112.5 -111t-41.5 -154.5q0 -130 110.5 -197.5t323.5 -67.5q50 0 113.5 3.5t128.5 9.5l-3 -93q-243 -6 -425.5 -81.5t-284 -204.5t-101.5 -296q0 -182 143 -281.5t405 -99.5q122 0 234.5 21.5t199.5 59.5l34 -87
q-103 -44 -224 -67t-246 -23q-295 0 -464.5 124t-169.5 341q0 142 63 264t176.5 210.5t266.5 127.5l1 10q-174 17 -270.5 103t-96.5 226q0 110 52.5 199.5t141 143t196.5 53.5q182 0 312 -136z" />
    <glyph glyph-name="uniFECA" unicode="&#x639;" horiz-adv-x="1189" arabic-form="final" 
d="M1019 527q0 -180 -290 -340v-10q50 -48 112 -66.5t174 -18.5h174v-92h-177q-90 0 -153 12t-112 41.5t-99 80.5q-229 -118 -330.5 -224t-101.5 -246q0 -153 138.5 -241t378.5 -88q161 0 344 36l19 -93q-206 -40 -368 -40q-181 0 -316 51.5t-209 144.5t-74 219
q0 155 109.5 283t341.5 246v10l-387 374v88q113 73 219.5 106.5t227.5 33.5q173 0 276 -72.5t103 -194.5zM933 526q0 78 -80 127t-208 49q-203 0 -360 -96v-6l371 -374q277 146 277 300z" />
    <glyph glyph-name="uniFECB" unicode="&#x639;" horiz-adv-x="1089" arabic-form="initial" 
d="M239 419q0 -132 93 -202.5t268 -70.5q44 0 108 6t152 19l76 11l12 -91l-100 -14q-148 -23 -299 -40.5t-282.5 -27t-223.5 -9.5h-43q-23 0 -23 46t23 46h42q168 0 327 15v12q-101 29 -160 110.5t-59 193.5q0 114 53 204t145 142t207 52q169 0 304 -106l-49 -72
q-117 86 -254 86q-91 0 -162.5 -40t-113 -110t-41.5 -160z" />
    <glyph glyph-name="uniFECC" unicode="&#x639;" horiz-adv-x="1187" arabic-form="medial" 
d="M611 794q95 0 182 -27t142.5 -86t55.5 -154q0 -105 -83.5 -188t-208.5 -152v-10q65 -64 138 -74.5t152 -10.5h198v-92h-212q-71 0 -130.5 8t-114.5 36t-113 89q-95 -60 -201 -96.5t-244 -36.5h-172q-23 0 -23 46t23 46h162q121 0 213 26.5t173 67.5v10l-384 370v88
q101 66 206 103t241 37zM616 702q-203 0 -359 -96v-6l370 -374q124 66 201 141t77 159q0 65 -45.5 103.5t-112 55.5t-131.5 17z" />
    <glyph glyph-name="uniFECD" unicode="&#x63a;" horiz-adv-x="1175" arabic-form="isolated" 
d="M966 984l-51 -69q-113 114 -254 114q-86 0 -157 -41.5t-112.5 -111t-41.5 -154.5q0 -130 110.5 -197.5t323.5 -67.5q50 0 113.5 3.5t128.5 9.5l-3 -93q-243 -6 -425.5 -81.5t-284 -204.5t-101.5 -296q0 -182 143 -281.5t405 -99.5q122 0 234.5 21.5t199.5 59.5l34 -87
q-103 -44 -224 -67t-246 -23q-295 0 -464.5 124t-169.5 341q0 142 63 264t176.5 210.5t266.5 127.5l1 10q-174 17 -270.5 103t-96.5 226q0 110 52.5 199.5t141 143t196.5 53.5q182 0 312 -136zM519 1540l108 108l109 -108l-109 -109z" />
    <glyph glyph-name="uniFECE" unicode="&#x63a;" horiz-adv-x="1189" arabic-form="final" 
d="M541 1217l108 108l109 -108l-109 -109zM1019 527q0 -180 -290 -340v-10q50 -48 112 -66.5t174 -18.5h174v-92h-177q-90 0 -153 12t-112 41.5t-99 80.5q-229 -118 -330.5 -224t-101.5 -246q0 -153 138.5 -241t378.5 -88q161 0 344 36l19 -93q-206 -40 -368 -40
q-181 0 -316 51.5t-209 144.5t-74 219q0 155 109.5 283t341.5 246v10l-387 374v88q113 73 219.5 106.5t227.5 33.5q173 0 276 -72.5t103 -194.5zM933 526q0 78 -80 127t-208 49q-203 0 -360 -96v-6l371 -374q277 146 277 300z" />
    <glyph glyph-name="uniFECF" unicode="&#x63a;" horiz-adv-x="1089" arabic-form="initial" 
d="M443 1268l108 108l109 -108l-109 -109zM239 419q0 -132 93 -202.5t268 -70.5q44 0 108 6t152 19l76 11l12 -91l-100 -14q-148 -23 -299 -40.5t-282.5 -27t-223.5 -9.5h-43q-23 0 -23 46t23 46h42q168 0 327 15v12q-101 29 -160 110.5t-59 193.5q0 114 53 204t145 142
t207 52q169 0 304 -106l-49 -72q-117 86 -254 86q-91 0 -162.5 -40t-113 -110t-41.5 -160z" />
    <glyph glyph-name="uniFED0" unicode="&#x63a;" horiz-adv-x="1187" arabic-form="medial" 
d="M512 1211l108 108l109 -108l-109 -109zM611 794q95 0 182 -27t142.5 -86t55.5 -154q0 -105 -83.5 -188t-208.5 -152v-10q65 -64 138 -74.5t152 -10.5h198v-92h-212q-71 0 -130.5 8t-114.5 36t-113 89q-95 -60 -201 -96.5t-244 -36.5h-172q-23 0 -23 46t23 46h162
q121 0 213 26.5t173 67.5v10l-384 370v88q101 66 206 103t241 37zM616 702q-203 0 -359 -96v-6l370 -374q124 66 201 141t77 159q0 65 -45.5 103.5t-112 55.5t-131.5 17z" />
    <glyph glyph-name="uniFED1" unicode="&#x641;" horiz-adv-x="1797" arabic-form="isolated" 
d="M1187 1480l108 108l109 -108l-109 -109zM1578 421q-76 -19 -150 -28.5t-135 -9.5q-309 0 -309 260q0 127 40.5 224.5t112.5 153t164 55.5q111 0 192.5 -80t126.5 -226t45 -346q0 -123 -39 -204.5t-129.5 -130t-245.5 -69t-388 -20.5q-273 0 -435 36.5t-233 122.5t-71 235
q0 119 46 321l85 -20q-43 -193 -43 -292q0 -120 61.5 -188t205 -95.5t390.5 -27.5q217 0 355.5 14t215.5 50t107.5 100.5t30.5 164.5zM1572 508q-12 225 -84.5 351t-189.5 126q-66 0 -119 -43.5t-83.5 -119t-30.5 -172.5q0 -180 229 -180q118 0 278 38z" />
    <glyph glyph-name="uniFED2" unicode="&#x641;" horiz-adv-x="1938" arabic-form="final" 
d="M1328 1270l108 108l109 -108l-109 -109zM1436 80q-112 -44 -249 -62t-278 -18q-172 0 -315.5 13.5t-249 53.5t-163 118.5t-57.5 207.5q0 83 20 166t45 157l82 -29q-23 -69 -41.5 -144t-18.5 -151q0 -125 79 -189.5t234.5 -87t384.5 -23.5q109 0 221 10t208 34l1 9
q-102 53 -169 141t-67 218q0 168 94.5 260.5t239.5 92.5q142 0 237.5 -93t95.5 -260q0 -131 -70.5 -220t-173.5 -142l1 -10q61 -20 130.5 -30t140.5 -10h140v-92h-157q-100 0 -179.5 20t-165.5 60zM1436 173q109 48 176.5 127.5t67.5 204.5q0 122 -68 194t-175 72
q-109 0 -177 -72t-68 -194q0 -124 68 -203.5t176 -128.5z" />
    <glyph glyph-name="uniFED3" unicode="&#x641;" horiz-adv-x="959" arabic-form="initial" 
d="M360 1479l108 108l109 -108l-109 -109zM0 92h353q213 0 304.5 77t91.5 252q-152 -38 -284 -38q-311 0 -311 260q0 127 41 224.5t112.5 153t164.5 55.5q112 0 193.5 -80t126 -226t44.5 -346q0 -220 -122 -322t-386 -102h-328q-23 0 -23 46t23 46zM743 508
q-12 225 -84.5 351t-189.5 126q-100 0 -166 -95t-66 -240q0 -180 229 -180q56 0 127.5 10t149.5 28z" />
    <glyph glyph-name="uniFED4" unicode="&#x641;" horiz-adv-x="968" arabic-form="medial" 
d="M376 1268l108 108l109 -108l-109 -109zM150 504q0 168 94.5 260.5t239.5 92.5q143 0 238.5 -93t95.5 -260q0 -131 -71 -220t-172 -142l1 -10q58 -20 125 -30t136 -10h131v-92h-148q-98 0 -176 20t-161 60q-82 -40 -161.5 -60t-179.5 -20h-142q-23 0 -23 46t23 46h130
q142 0 265 40l1 10q-103 53 -174.5 142.5t-71.5 219.5zM484 168q108 50 176 130.5t68 206.5q0 122 -68.5 194t-175.5 72q-108 0 -176.5 -72t-68.5 -194q0 -125 68.5 -206t176.5 -131z" />
    <glyph glyph-name="uniFED5" unicode="&#x642;" horiz-adv-x="1510" arabic-form="isolated" 
d="M741 1169l108 108l109 -108l-109 -109zM1089 1169l108 108l109 -108l-109 -109zM1025 758q102 0 172 -59t112 -154t61 -207t19 -219q0 -297 -156.5 -454.5t-491.5 -157.5q-617 0 -617 513q0 72 12.5 177t36.5 244l88 -18q-25 -139 -36.5 -238t-11.5 -167
q0 -220 133.5 -319.5t398.5 -99.5q278 0 415 123t144 361l-6 7q-56 -16 -125.5 -27t-146.5 -11q-147 0 -236 64t-89 212q0 108 36 206.5t108 161t180 62.5zM1299 181q-4 74 -19 157.5t-46 158.5t-82.5 122t-127.5 47q-82 0 -135.5 -50.5t-79 -127t-25.5 -154.5
q0 -109 65.5 -149t178.5 -40q79 0 147 10.5t124 25.5z" />
    <glyph glyph-name="uniFED6" unicode="&#x642;" horiz-adv-x="1484" arabic-form="final" 
d="M745 1105l108 108l109 -108l-109 -109zM1093 1105l108 108l109 -108l-109 -109zM1028 694q99 0 166.5 -55.5t109 -146t62 -196t24.5 -204.5h94v-92h-95q-7 -268 -172 -412.5t-472 -144.5q-621 0 -621 513q0 71 12.5 176.5t36.5 244.5l88 -18q-25 -139 -36.5 -238
t-11.5 -167q0 -223 136 -320t402 -97q257 0 403.5 116t154.5 341l-6 7q-69 -1 -137 -1h-136q-146 0 -235.5 63t-89.5 212q0 107 36 203t108 156t179 60zM1027 602q-82 0 -135.5 -48t-79 -122t-25.5 -151q0 -110 66.5 -150.5t178.5 -40.5h273q-3 77 -17.5 165t-45.5 167.5
t-83.5 129.5t-131.5 50z" />
    <glyph glyph-name="uniFED7" unicode="&#x642;" horiz-adv-x="959" arabic-form="initial" 
d="M185 1479l108 108l109 -108l-109 -109zM533 1479l108 108l109 -108l-109 -109zM0 92h353q213 0 304.5 77t91.5 252q-152 -38 -284 -38q-311 0 -311 260q0 127 41 224.5t112.5 153t164.5 55.5q112 0 193.5 -80t126 -226t44.5 -346q0 -220 -122 -322t-386 -102h-328
q-23 0 -23 46t23 46zM743 508q-12 225 -84.5 351t-189.5 126q-100 0 -166 -95t-66 -240q0 -180 229 -180q56 0 127.5 10t149.5 28z" />
    <glyph glyph-name="uniFED8" unicode="&#x642;" horiz-adv-x="968" arabic-form="medial" 
d="M201 1230l108 108l109 -108l-109 -109zM549 1230l108 108l109 -108l-109 -109zM150 504q0 168 94.5 260.5t239.5 92.5q143 0 238.5 -93t95.5 -260q0 -131 -71 -220t-172 -142l1 -10q58 -20 125 -30t136 -10h131v-92h-148q-98 0 -176 20t-161 60q-82 -40 -161.5 -60
t-179.5 -20h-142q-23 0 -23 46t23 46h130q142 0 265 40l1 10q-103 53 -174.5 142.5t-71.5 219.5zM484 168q108 50 176 130.5t68 206.5q0 122 -68.5 194t-175.5 72q-108 0 -176.5 -72t-68.5 -194q0 -125 68.5 -206t176.5 -131z" />
    <glyph glyph-name="uniFED9" unicode="&#x643;" horiz-adv-x="1641" arabic-form="isolated" 
d="M683 438q-27 0 -54 2.5t-53 6.5l14 66q23 -4 49 -6t51 -2q48 0 97.5 10t82.5 33t33 63q0 38 -37 50t-89 19q-55 9 -102.5 31t-47.5 94q0 97 66.5 153t157.5 56q52 0 107 -20l-23 -62q-42 14 -83 14q-64 0 -114 -32.5t-50 -95.5q0 -43 33.5 -55.5t80.5 -19.5
q41 -5 78 -15.5t60.5 -36t23.5 -75.5q0 -61 -39.5 -100.5t-103.5 -58.5t-138 -19zM792 92q213 0 340 28t183 102t56 212v844h90v-844q0 -166 -70 -261t-221 -134t-395 -39q-236 0 -379 34.5t-207.5 114t-64.5 215.5q0 55 9 124.5t24 132.5l80 -19q-13 -56 -22.5 -124
t-9.5 -115q0 -104 56 -163t185 -83.5t346 -24.5z" />
    </font>
</defs>
</svg>
