<?xml version="1.0" standalone="no"?>
<!DOCTYPE svg PUBLIC "-//W3C//DTD SVG 1.1//EN" "http://www.w3.org/Graphics/SVG/1.1/DTD/svg11.dtd" >
<svg xmlns="http://www.w3.org/2000/svg" xmlns:xlink="http://www.w3.org/1999/xlink" version="1.1">
<metadata>
Created by FontForge 20170731 at Wed Jun  1 20:38:01 2022
 By Aleksey,,,
Copyright 2022 The Estedad Project Authors (https://github.com/aminabedi68/Estedad)
</metadata>
<defs>
<font id="Estedad-FD-Medium" horiz-adv-x="0" >
  <font-face 
    font-family="Estedad-FD Medium"
    font-weight="500"
    font-stretch="normal"
    units-per-em="2048"
    panose-1="0 0 0 0 0 0 0 0 0 0"
    ascent="1638"
    descent="-410"
    x-height="1052"
    cap-height="1406"
    bbox="-656 -1300 4300 2477"
    underline-thickness="150"
    underline-position="-975"
    unicode-range="U+0020-FEFC"
  />
<missing-glyph horiz-adv-x="1024" 
d="M102 -410v2048h820v-2048h-820zM204 -308h616v1844h-616v-1844z" />
    <glyph glyph-name="uni0622" unicode="&#x627;&#x653;" horiz-adv-x="528" 
d="M500 1647l84 -44q-36 -97 -81 -141.5t-110 -44.5q-54 0 -138 50q-44 26 -66 34t-42 8q-33 0 -58.5 -25t-62.5 -95l-81 51q84 190 193 190q44 0 129 -48q53 -29 78 -39.5t46 -10.5q36 0 58.5 23.5t50.5 91.5zM362 1193v-1193h-194v1193h194z" />
    <glyph glyph-name="uni0623" unicode="&#x627;&#x654;" horiz-adv-x="528" 
d="M362 1193v-1193h-194v1193h194zM417 1814l-28 -89q-38 15 -73 15q-55 0 -90 -30t-35 -78q0 -43 30 -68t78 -25q36 0 76 13l104 33l29 -96l-459 -146l-29 98l169 48v10q-88 37 -88 140q0 84 60 140.5t152 56.5q26 0 51 -6t53 -16z" />
    <glyph glyph-name="uni0624" unicode="&#x648;&#x654;" horiz-adv-x="959" 
d="M629 1440l-28 -89q-38 15 -73 15q-55 0 -90 -30t-35 -78q0 -43 30 -68t78 -25q36 0 76 13l104 33l29 -96l-459 -146l-29 98l169 48v10q-88 37 -88 140q0 84 60 140.5t152 56.5q26 0 51 -6t53 -16zM679 12l-7 10q-46 -13 -101.5 -21.5t-115.5 -8.5q-160 0 -251 78.5
t-91 240.5q0 122 39 232t117.5 180t198.5 70q110 0 186.5 -61t123.5 -162.5t68.5 -224.5t21.5 -246q0 -234 -183 -389.5t-523 -250.5l-82 185q254 59 412 154t187 214zM681 216q-3 61 -15 126t-37 121t-66 91t-100 35q-63 0 -105 -38t-62.5 -96t-20.5 -118q0 -83 50.5 -115
t136.5 -32q62 0 117 8t102 18z" />
    <glyph glyph-name="uni0625" unicode="&#x627;&#x655;" horiz-adv-x="528" 
d="M405 -208l-28 -89q-38 15 -73 15q-55 0 -90 -30t-35 -78q0 -43 30 -68t78 -25q36 0 76 13l104 33l29 -96l-459 -146l-29 98l169 48v10q-88 37 -88 140q0 84 60 140.5t152 56.5q26 0 51 -6t53 -16zM362 0h-194v1347h194v-1347z" />
    <glyph glyph-name="uni0626" unicode="&#x649;&#x654;" horiz-adv-x="1532" 
d="M563 1171l-28 -89q-38 15 -73 15q-55 0 -90 -30t-35 -78q0 -43 30 -68t78 -25q36 0 76 13l104 33l29 -96l-459 -146l-29 98l169 48v10q-88 37 -88 140q0 84 60 140.5t152 56.5q26 0 51 -6t53 -16zM1403 810l-65 -174q-106 48 -207 48q-85 0 -154 -36.5t-109.5 -101
t-40.5 -147.5q0 -92 78.5 -117t226.5 -36q90 -7 160 -30t110 -73t40 -142q0 -135 -91 -236.5t-251 -158t-369 -56.5q-297 0 -459 131.5t-162 378.5q0 168 45 436l187 -34q-24 -137 -34.5 -225t-10.5 -163q0 -322 437 -322q147 0 267 28t190.5 76.5t70.5 109.5q0 44 -30 64.5
t-79.5 28t-108.5 11.5q-115 8 -204 35.5t-139.5 91t-50.5 179.5q0 142 66 254.5t177 178.5t247 66q127 0 263 -65z" />
    <glyph glyph-name="uni06C0" unicode="&#x647;&#x654;" horiz-adv-x="910" 
d="M453 -11q-170 0 -265 93.5t-95 232.5q0 136 72 258.5t176 225.5q-51 50 -102 92l120 143q126 -103 230.5 -217t167 -236t62.5 -251q0 -99 -45.5 -176t-128 -121t-192.5 -44zM453 193q92 0 134.5 45t42.5 113q0 77 -47 165t-130 164q-82 -76 -130 -164.5t-48 -164.5
q0 -68 42 -113t136 -45zM338 1232q-54 0 -118 11l24 104q26 -5 54 -7.5t54 -2.5q68 0 126.5 18.5t58.5 63.5q0 28 -30 38.5t-82 18.5q-66 12 -110 38.5t-44 94.5q0 105 70 169t171 64q55 0 112 -18l-34 -99q-20 5 -41 8.5t-42 3.5q-57 0 -99.5 -27t-42.5 -77q0 -34 30 -46
t87 -22q63 -10 106.5 -36t43.5 -96q0 -99 -85.5 -150t-208.5 -51z" />
    <glyph glyph-name="uniFBA5" unicode="&#xfeea;&#x654;" horiz-adv-x="1156" arabic-form="final" 
d="M692 885l-9 160l194 11l35 -577q7 -107 30.5 -167.5t74 -84.5t138.5 -24h1v-203h-1q-141 0 -228.5 48.5t-136.5 146.5q-111 -47 -234 -47q-111 0 -200.5 33t-142 97.5t-52.5 157.5q0 172 140.5 289t390.5 160zM705 697q-169 -17 -269.5 -76.5t-100.5 -148.5
q0 -71 68 -104t165 -33q92 0 167 23q-6 29 -9 53.5t-5 52.5zM272 1072q-54 0 -118 11l24 104q26 -5 54 -7.5t54 -2.5q68 0 126.5 18.5t58.5 63.5q0 28 -30 38.5t-82 18.5q-66 12 -110 38.5t-44 94.5q0 105 70 169t171 64q55 0 112 -18l-34 -99q-20 5 -41 8.5t-42 3.5
q-57 0 -99.5 -27t-42.5 -77q0 -34 30 -46t87 -22q63 -10 106.5 -36t43.5 -96q0 -99 -85.5 -150t-208.5 -51z" />
    <glyph glyph-name="uniFDF2" unicode="&#x627;&#x644;&#x644;&#x647;" horiz-adv-x="3001" arabic-form="isolated" 
d="M2835 0h-194v1347h194v-1347zM1867 203q106 0 161.5 25.5t75.5 82t20 148.5v888h195v-888q0 -225 -109 -342t-343 -117q-16 0 -25 22t-9 80q0 57 9 79t25 22zM1460 2134h103v-376h-103v376zM1501 1470q-19 -95 -114 -95q-62 0 -97.5 37.5t-35.5 103.5q0 44 8.5 83
t24.5 86l80 -27q-10 -31 -18 -63t-8 -56q0 -62 57 -62q36 0 52.5 27.5t16.5 96.5v24h78v-24q0 -69 16 -96.5t52 -27.5q57 0 57 62q0 24 -7 56t-18 63l80 27q16 -47 24.5 -86t8.5 -83q0 -66 -35.5 -103.5t-97.5 -37.5q-96 0 -114 95h-10zM1505 238q-25 -109 -115.5 -173.5
t-233.5 -64.5q-16 0 -24.5 22t-8.5 80q0 57 8.5 79t24.5 22q113 0 167.5 29t72 88.5t17.5 148.5v732h194v-722q0 -88 19 -150t74.5 -94t164.5 -32h1v-203h-1q-145 0 -235 65t-115 173h-10zM692 885l-9 160l194 11l35 -577q7 -107 30.5 -167.5t74 -84.5t138.5 -24h1v-203h-1
q-141 0 -228.5 48.5t-136.5 146.5q-111 -47 -234 -47q-111 0 -200.5 33t-142 97.5t-52.5 157.5q0 172 140.5 289t390.5 160zM705 697q-169 -17 -269.5 -76.5t-100.5 -148.5q0 -71 68 -104t165 -33q92 0 167 23q-6 29 -9 53.5t-5 52.5z" />
    <glyph glyph-name="uniFE71" unicode="&#x640;&#x64b;" horiz-adv-x="885" arabic-form="medial" 
d="M665 1181l31 -100l-459 -147l-31 101zM665 930l31 -100l-459 -147l-31 101zM0 203h885v-203h-885q-17 0 -25 22t-8 80q0 59 8 80t25 21z" />
    <glyph glyph-name="uniFE77" unicode="&#x640;&#x64e;" horiz-adv-x="885" arabic-form="medial" 
d="M665 930l31 -100l-459 -147l-31 101zM0 203h885v-203h-885q-17 0 -25 22t-8 80q0 59 8 80t25 21z" />
    <glyph glyph-name="uniFE79" unicode="&#x640;&#x64f;" horiz-adv-x="885" arabic-form="medial" 
d="M536 1287q67 0 107 -47.5t40 -126.5q0 -86 -56.5 -158.5t-155.5 -127.5t-227 -90l-28 96q56 15 125.5 43.5t125.5 62.5q-49 19 -89 57.5t-40 100.5q0 47 27 90.5t72 71.5t99 28zM524 1191q-36 0 -68 -29.5t-32 -65.5q0 -39 37.5 -61.5t83.5 -35.5q41 47 41 109
q0 34 -15.5 58.5t-46.5 24.5zM0 203h885v-203h-885q-17 0 -25 22t-8 80q0 59 8 80t25 21z" />
    <glyph glyph-name="uniFE7B" unicode="&#x640;&#x650;" horiz-adv-x="885" arabic-form="medial" 
d="M658 -291l31 -100l-459 -147l-31 101zM0 203h885v-203h-885q-17 0 -25 22t-8 80q0 59 8 80t25 21z" />
    <glyph glyph-name="uniFE7D" unicode="&#x640;&#x651;" horiz-adv-x="885" arabic-form="medial" 
d="M0 203h885v-203h-885q-17 0 -25 22t-8 80q0 59 8 80t25 21zM441 755q-19 -95 -114 -95q-62 0 -97.5 37.5t-35.5 103.5q0 44 8.5 83t24.5 86l80 -27q-10 -31 -18 -63t-8 -56q0 -62 57 -62q36 0 52.5 27.5t16.5 96.5v24h78v-24q0 -69 16 -96.5t52 -27.5q57 0 57 62
q0 24 -7 56t-18 63l80 27q16 -47 24.5 -86t8.5 -83q0 -66 -35.5 -103.5t-97.5 -37.5q-96 0 -114 95h-10z" />
    <glyph glyph-name="uniFE7F" unicode="&#x640;&#x652;" horiz-adv-x="885" arabic-form="medial" 
d="M434 995q74 0 121 -46t47 -120t-47 -121t-121 -47t-121 47t-47 121t47 120t121 46zM434 911q-40 0 -64 -21.5t-24 -60.5t24 -62t64 -23q39 0 63.5 24t24.5 61q0 38 -23.5 60t-64.5 22zM0 203h885v-203h-885q-17 0 -25 22t-8 80q0 59 8 80t25 21z" />
    <glyph glyph-name="uniFEF5" unicode="&#xfedf;&#xfe82;" horiz-adv-x="1220" arabic-form="isolated" 
d="M-11 1539q79 139 181 139q26 0 52 -8t58 -28q62 -37 90 -37q49 0 100 88l86 -48q-69 -145 -177 -145q-50 0 -110 36q-59 35 -88 35q-28 0 -53.5 -21t-54.5 -64zM737 793q148 144 148 383v171h194v-171q0 -157 -53 -281t-167 -232q111 -107 165.5 -197.5t54.5 -173.5
q0 -143 -133 -222.5t-348 -79.5q-198 0 -432 76v285l456 322l-515 526l138 140zM727 573l-362 -265v-83q63 -15 131.5 -23.5t133.5 -8.5q130 0 201.5 35t71.5 84q0 40 -43 105.5t-133 155.5z" />
    <glyph glyph-name="uniFEF6" unicode="&#xfee0;&#xfe82;" horiz-adv-x="1423" arabic-form="final" 
d="M-11 1609q79 139 181 139q26 0 52 -8t58 -28q62 -37 90 -37q49 0 100 88l86 -48q-69 -145 -177 -145q-50 0 -110 36q-59 35 -88 35q-28 0 -53.5 -21t-54.5 -64zM139 1316l182 54q57 -139 94.5 -274t61 -288t36.5 -348l-191 -22q-14 256 -58.5 468t-124.5 410zM967 1347
h194v-897q0 -137 61 -192t200 -55h1v-203h-1q-368 0 -411 339l-1 42q-141 -193 -362.5 -287t-559.5 -94v203q217 0 378 38t282.5 119t218.5 210v777z" />
    <glyph glyph-name="uniFEF7" unicode="&#xfedf;&#xfe84;" horiz-adv-x="1220" arabic-form="isolated" 
d="M477 1905l-28 -89q-38 15 -73 15q-55 0 -90 -30t-35 -78q0 -43 30 -68t78 -25q36 0 76 13l104 33l29 -96l-459 -146l-29 98l169 48v10q-88 37 -88 140q0 84 60 140.5t152 56.5q26 0 51 -6t53 -16zM737 793q148 144 148 383v171h194v-171q0 -157 -53 -281t-167 -232
q111 -107 165.5 -197.5t54.5 -173.5q0 -143 -133 -222.5t-348 -79.5q-198 0 -432 76v285l456 322l-515 526l138 140zM727 573l-362 -265v-83q63 -15 131.5 -23.5t133.5 -8.5q130 0 201.5 35t71.5 84q0 40 -43 105.5t-133 155.5z" />
    <glyph glyph-name="uniFEF8" unicode="&#xfee0;&#xfe84;" horiz-adv-x="1423" arabic-form="final" 
d="M477 1975l-28 -89q-38 15 -73 15q-55 0 -90 -30t-35 -78q0 -43 30 -68t78 -25q36 0 76 13l104 33l29 -96l-459 -146l-29 98l169 48v10q-88 37 -88 140q0 84 60 140.5t152 56.5q26 0 51 -6t53 -16zM139 1316l182 54q57 -139 94.5 -274t61 -288t36.5 -348l-191 -22
q-14 256 -58.5 468t-124.5 410zM967 1347h194v-897q0 -137 61 -192t200 -55h1v-203h-1q-368 0 -411 339l-1 42q-141 -193 -362.5 -287t-559.5 -94v203q217 0 378 38t282.5 119t218.5 210v777z" />
    <glyph glyph-name="uniFEF9" unicode="&#xfedf;&#xfe88;" horiz-adv-x="1220" arabic-form="isolated" 
d="M476 -153l-28 -89q-38 15 -73 15q-55 0 -90 -30t-35 -78q0 -43 30 -68t78 -25q36 0 76 13l104 33l29 -96l-459 -146l-29 98l169 48v10q-88 37 -88 140q0 84 60 140.5t152 56.5q26 0 51 -6t53 -16zM737 793q148 144 148 383v171h194v-171q0 -157 -53 -281t-167 -232
q111 -107 165.5 -197.5t54.5 -173.5q0 -143 -133 -222.5t-348 -79.5q-198 0 -432 76v285l456 322l-515 526l138 140zM727 573l-362 -265v-83q63 -15 131.5 -23.5t133.5 -8.5q130 0 201.5 35t71.5 84q0 40 -43 105.5t-133 155.5z" />
    <glyph glyph-name="uniFEFA" unicode="&#xfee0;&#xfe88;" horiz-adv-x="1423" arabic-form="final" 
d="M476 -203l-28 -89q-38 15 -73 15q-55 0 -90 -30t-35 -78q0 -43 30 -68t78 -25q36 0 76 13l104 33l29 -96l-459 -146l-29 98l169 48v10q-88 37 -88 140q0 84 60 140.5t152 56.5q26 0 51 -6t53 -16zM139 1316l182 54q57 -139 94.5 -274t61 -288t36.5 -348l-191 -22
q-14 256 -58.5 468t-124.5 410zM967 1347h194v-897q0 -137 61 -192t200 -55h1v-203h-1q-368 0 -411 339l-1 42q-141 -193 -362.5 -287t-559.5 -94v203q217 0 378 38t282.5 119t218.5 210v777z" />
    <glyph glyph-name="uniFEFB" unicode="&#xfedf;&#xfe8e;" horiz-adv-x="1220" arabic-form="isolated" 
d="M737 793q148 144 148 383v171h194v-171q0 -157 -53 -281t-167 -232q111 -107 165.5 -197.5t54.5 -173.5q0 -143 -133 -222.5t-348 -79.5q-198 0 -432 76v285l456 322l-515 526l138 140zM727 573l-362 -265v-83q63 -15 131.5 -23.5t133.5 -8.5q130 0 201.5 35t71.5 84
q0 40 -43 105.5t-133 155.5z" />
    <glyph glyph-name="uniFEFC" unicode="&#xfee0;&#xfe8e;" horiz-adv-x="1423" arabic-form="final" 
d="M139 1316l182 54q57 -139 94.5 -274t61 -288t36.5 -348l-191 -22q-14 256 -58.5 468t-124.5 410zM967 1347h194v-897q0 -137 61 -192t200 -55h1v-203h-1q-368 0 -411 339l-1 42q-141 -193 -362.5 -287t-559.5 -94v203q217 0 378 38t282.5 119t218.5 210v777z" />
    <glyph glyph-name="uniFEDF_uniFB51.rlig" unicode="&#xfedf;&#xfb51;" horiz-adv-x="1220" 
d="M259 1717q74 89 124 123.5t104 34.5q62 0 96.5 -38t34.5 -104q0 -85 -55 -140.5t-141 -55.5q-62 0 -154 53q-36 22 -58.5 30.5t-42.5 8.5q-34 0 -59.5 -24.5t-63.5 -95.5l-80 52q84 189 193 189q21 0 43 -7t59 -26zM324 1682q34 -16 56 -22.5t46 -6.5q106 0 106 69
q0 26 -17.5 42.5t-46.5 16.5q-31 0 -61 -20.5t-83 -78.5zM737 793q148 144 148 383v171h194v-171q0 -157 -53 -281t-167 -232q111 -107 165.5 -197.5t54.5 -173.5q0 -143 -133 -222.5t-348 -79.5q-198 0 -432 76v285l456 322l-515 526l138 140zM727 573l-362 -265v-83
q63 -15 131.5 -23.5t133.5 -8.5q130 0 201.5 35t71.5 84q0 40 -43 105.5t-133 155.5z" />
    <glyph glyph-name="uniFEE0_uniFB51.rlig" unicode="&#xfee0;&#xfb51;" horiz-adv-x="1423" 
d="M259 1787q74 89 124 123.5t104 34.5q62 0 96.5 -38t34.5 -104q0 -85 -55 -140.5t-141 -55.5q-62 0 -154 53q-36 22 -58.5 30.5t-42.5 8.5q-34 0 -59.5 -24.5t-63.5 -95.5l-80 52q84 189 193 189q21 0 43 -7t59 -26zM324 1752q34 -16 56 -22.5t46 -6.5q106 0 106 69
q0 26 -17.5 42.5t-46.5 16.5q-31 0 -61 -20.5t-83 -78.5zM139 1316l182 54q57 -139 94.5 -274t61 -288t36.5 -348l-191 -22q-14 256 -58.5 468t-124.5 410zM967 1347h194v-897q0 -137 61 -192t200 -55h1v-203h-1q-368 0 -411 339l-1 42q-141 -193 -362.5 -287t-559.5 -94
v203q217 0 378 38t282.5 119t218.5 210v777z" />
    <glyph glyph-name="uni0620.init" unicode="&#x620;" horiz-adv-x="590" 
d="M145 -200q74 0 121 -46t47 -120t-47 -121t-121 -47t-121 47t-47 121t47 120t121 46zM145 -284q-40 0 -64 -21.5t-24 -60.5t24 -62t64 -23q39 0 63.5 24t24.5 61q0 38 -23.5 60t-64.5 22zM437 792q29 -110 45.5 -207t16.5 -174q0 -200 -109.5 -305.5t-342.5 -105.5h-47
q-33 0 -33 102q0 101 33 101h47q141 0 202 56t61 168q0 56 -15 136.5t-39 178.5z" />
    <glyph glyph-name="uni0620.medi" unicode="&#x620;" horiz-adv-x="837" 
d="M132 -200q74 0 121 -46t47 -120t-47 -121t-121 -47t-121 47t-47 121t47 120t121 46zM132 -284q-40 0 -64 -21.5t-24 -60.5t24 -62t64 -23q39 0 63.5 24t24.5 61q0 38 -23.5 60t-64.5 22zM518 494q0 -99 19 -163.5t73.5 -96t162.5 -31.5h64v-203h-67q-127 0 -220.5 61
t-125.5 173h-10q-32 -112 -135.5 -173t-231.5 -61h-47q-33 0 -33 102q0 101 33 101h47q116 0 175.5 32t80 96.5t20.5 162.5v144h195v-144z" />
    <glyph glyph-name="uni0620.fina" unicode="&#x620;" horiz-adv-x="1486" 
d="M743 -765q74 0 121 -46t47 -120t-47 -121t-121 -47t-121 47t-47 121t47 120t121 46zM743 -849q-40 0 -64 -21.5t-24 -60.5t24 -62t64 -23q39 0 63.5 24t24.5 61q0 38 -23.5 60t-64.5 22zM1188 -10q110 -50 154 -99t44 -122q0 -100 -86 -181t-233 -128t-331 -47
q-327 0 -484.5 134.5t-157.5 414.5q0 98 13 229t37 280l180 -35q-23 -141 -35 -259t-12 -201q0 -191 107.5 -275t351.5 -84q200 0 325 52t125 136q0 39 -38 67t-135.5 55t-275.5 62l28 214h721v-203h-298v-10z" />
    <glyph glyph-name="uni063B.init" unicode="&#x63b;" horiz-adv-x="852" 
d="M368 1596l126 126l127 -126l-127 -127zM50 1501l126 126l127 -126l-127 -127zM871 1362l30 -201q-220 -53 -376.5 -99.5t-275.5 -93.5l-1 -8q169 -129 272 -227t150.5 -180.5t47.5 -167.5q0 -185 -153 -285t-437 -100h-128q-17 0 -25 23.5t-8 78.5q0 54 8 77.5t25 23.5
h124q400 0 400 193q0 57 -50.5 125t-160.5 160t-290 221l16 185q181 83 390.5 153t441.5 122z" />
    <glyph glyph-name="uni063B.medi" unicode="&#x63b;" horiz-adv-x="1132" 
d="M368 1596l126 126l127 -126l-127 -127zM50 1501l126 126l127 -126l-127 -127zM649 322q-22 -170 -148 -246t-373 -76h-128q-17 0 -25 23.5t-8 77.5q0 55 8 78.5t25 23.5h124q203 0 299 50t96 141q0 52 -48 120.5t-156.5 163.5t-291.5 224l16 185q184 84 394 154t438 121
l30 -201q-214 -51 -372 -98t-280 -95l-1 -8q131 -98 215.5 -171.5t143 -142.5t110.5 -154q66 -110 121.5 -173.5t123.5 -89.5t169 -26h1v-203h-1q-180 0 -288 74t-184 248h-10z" />
    <glyph glyph-name="uni063B.fina" unicode="&#x63b;" horiz-adv-x="1966" 
d="M1198 1596l126 126l127 -126l-127 -127zM880 1501l126 126l127 -126l-127 -127zM1483 321q-19 -164 -187.5 -242.5t-503.5 -78.5q-248 0 -402 46.5t-224.5 148t-70.5 265.5q0 134 43 337l178 -41q-18 -88 -28 -160t-10 -117q0 -101 50 -162t163 -87.5t302 -26.5
q559 0 559 196q0 78 -121.5 201.5t-374.5 301.5l16 185q183 84 393.5 154t438.5 121l29 -201q-213 -51 -371 -98t-280 -95l-1 -8q134 -102 218 -175.5t141.5 -141.5t109.5 -153q68 -114 125 -176t125 -86.5t165 -24.5h1v-203h-1q-181 0 -289 73.5t-183 247.5h-10z" />
    <glyph glyph-name="uni063C.init" unicode="&#x63c;" horiz-adv-x="852" 
d="M552 -353l144 144l145 -144l-145 -145zM203 -353l144 144l145 -144l-145 -145zM379 -667l143 144l145 -144l-145 -145zM871 1362l30 -201q-220 -53 -376.5 -99.5t-275.5 -93.5l-1 -8q169 -129 272 -227t150.5 -180.5t47.5 -167.5q0 -185 -153 -285t-437 -100h-128
q-17 0 -25 23.5t-8 78.5q0 54 8 77.5t25 23.5h124q400 0 400 193q0 57 -50.5 125t-160.5 160t-290 221l16 185q181 83 390.5 153t441.5 122z" />
    <glyph glyph-name="uni063C.medi" unicode="&#x63c;" horiz-adv-x="1132" 
d="M552 -353l144 144l145 -144l-145 -145zM203 -353l144 144l145 -144l-145 -145zM379 -667l143 144l145 -144l-145 -145zM649 322q-22 -170 -148 -246t-373 -76h-128q-17 0 -25 23.5t-8 77.5q0 55 8 78.5t25 23.5h124q203 0 299 50t96 141q0 52 -48 120.5t-156.5 163.5
t-291.5 224l16 185q184 84 394 154t438 121l30 -201q-214 -51 -372 -98t-280 -95l-1 -8q131 -98 215.5 -171.5t143 -142.5t110.5 -154q66 -110 121.5 -173.5t123.5 -89.5t169 -26h1v-203h-1q-180 0 -288 74t-184 248h-10z" />
    <glyph glyph-name="uni063C.fina" unicode="&#x63c;" horiz-adv-x="1966" 
d="M819 -353l144 144l145 -144l-145 -145zM470 -353l144 144l145 -144l-145 -145zM646 -667l143 144l145 -144l-145 -145zM1483 321q-19 -164 -187.5 -242.5t-503.5 -78.5q-248 0 -402 46.5t-224.5 148t-70.5 265.5q0 134 43 337l178 -41q-18 -88 -28 -160t-10 -117
q0 -101 50 -162t163 -87.5t302 -26.5q559 0 559 196q0 78 -121.5 201.5t-374.5 301.5l16 185q183 84 393.5 154t438.5 121l29 -201q-213 -51 -371 -98t-280 -95l-1 -8q134 -102 218 -175.5t141.5 -141.5t109.5 -153q68 -114 125 -176t125 -86.5t165 -24.5h1v-203h-1
q-181 0 -289 73.5t-183 247.5h-10z" />
    <glyph glyph-name="uni063D.init" unicode="&#x63d;" horiz-adv-x="590" 
d="M243 1382h90l211 -272l-83 -65l-173 228l-173 -228l-83 65zM437 792q29 -110 45.5 -207t16.5 -174q0 -200 -109.5 -305.5t-342.5 -105.5h-47q-33 0 -33 102q0 101 33 101h47q141 0 202 56t61 168q0 56 -15 136.5t-39 178.5zM-189 -354l144 144l145 -144l-145 -145z
M160 -354l144 144l145 -144l-145 -145z" />
    <glyph glyph-name="uni063D.medi" unicode="&#x63d;" horiz-adv-x="837" 
d="M246 1190h90l211 -272l-83 -65l-173 228l-173 -228l-83 65zM518 494q0 -99 19 -163.5t73.5 -96t162.5 -31.5h64v-203h-67q-127 0 -220.5 61t-125.5 173h-10q-32 -112 -135.5 -173t-231.5 -61h-47q-33 0 -33 102q0 101 33 101h47q116 0 175.5 32t80 96.5t20.5 162.5v144
h195v-144zM-221 -354l144 144l145 -144l-145 -145zM128 -354l144 144l145 -144l-145 -145z" />
    <glyph glyph-name="uni063D.fina" unicode="&#x63d;" horiz-adv-x="1486" 
d="M842 815h90l211 -272l-83 -65l-173 228l-173 -228l-83 65zM1188 -10q110 -50 154 -99t44 -122q0 -100 -86 -181t-233 -128t-331 -47q-327 0 -484.5 134.5t-157.5 414.5q0 98 13 229t37 280l180 -35q-23 -141 -35 -259t-12 -201q0 -191 107.5 -275t351.5 -84q200 0 325 52
t125 136q0 39 -38 67t-135.5 55t-275.5 62l28 214h721v-203h-298v-10z" />
    <glyph glyph-name="uni063E.init" unicode="&#x63e;" horiz-adv-x="590" 
d="M-67 1145l144 144l145 -144l-145 -145zM282 1145l144 144l145 -144l-145 -145zM437 792q29 -110 45.5 -207t16.5 -174q0 -200 -109.5 -305.5t-342.5 -105.5h-47q-33 0 -33 102q0 101 33 101h47q141 0 202 56t61 168q0 56 -15 136.5t-39 178.5zM-189 -354l144 144
l145 -144l-145 -145zM160 -354l144 144l145 -144l-145 -145z" />
    <glyph glyph-name="uni063E.medi" unicode="&#x63e;" horiz-adv-x="837" 
d="M2 1013l144 144l145 -144l-145 -145zM351 1013l144 144l145 -144l-145 -145zM518 494q0 -99 19 -163.5t73.5 -96t162.5 -31.5h64v-203h-67q-127 0 -220.5 61t-125.5 173h-10q-32 -112 -135.5 -173t-231.5 -61h-47q-33 0 -33 102q0 101 33 101h47q116 0 175.5 32t80 96.5
t20.5 162.5v144h195v-144zM-221 -354l144 144l145 -144l-145 -145zM128 -354l144 144l145 -144l-145 -145z" />
    <glyph glyph-name="uni063E.fina" unicode="&#x63e;" horiz-adv-x="1486" 
d="M571 636l144 144l145 -144l-145 -145zM920 636l144 144l145 -144l-145 -145zM1188 -10q110 -50 154 -99t44 -122q0 -100 -86 -181t-233 -128t-331 -47q-327 0 -484.5 134.5t-157.5 414.5q0 98 13 229t37 280l180 -35q-23 -141 -35 -259t-12 -201q0 -191 107.5 -275
t351.5 -84q200 0 325 52t125 136q0 39 -38 67t-135.5 55t-275.5 62l28 214h721v-203h-298v-10z" />
    <glyph glyph-name="uni063F.init" unicode="&#x63f;" horiz-adv-x="590" 
d="M108 1459l143 144l145 -144l-145 -144zM282 1145l144 144l145 -144l-145 -145zM-67 1145l144 144l145 -144l-145 -145zM437 792q29 -110 45.5 -207t16.5 -174q0 -200 -109.5 -305.5t-342.5 -105.5h-47q-33 0 -33 102q0 101 33 101h47q141 0 202 56t61 168q0 56 -15 136.5
t-39 178.5zM-189 -354l144 144l145 -144l-145 -145zM160 -354l144 144l145 -144l-145 -145z" />
    <glyph glyph-name="uni063F.medi" unicode="&#x63f;" horiz-adv-x="837" 
d="M177 1327l143 144l145 -144l-145 -144zM351 1013l144 144l145 -144l-145 -145zM2 1013l144 144l145 -144l-145 -145zM518 494q0 -99 19 -163.5t73.5 -96t162.5 -31.5h64v-203h-67q-127 0 -220.5 61t-125.5 173h-10q-32 -112 -135.5 -173t-231.5 -61h-47q-33 0 -33 102
q0 101 33 101h47q116 0 175.5 32t80 96.5t20.5 162.5v144h195v-144zM-221 -354l144 144l145 -144l-145 -145zM128 -354l144 144l145 -144l-145 -145z" />
    <glyph glyph-name="uni063F.fina" unicode="&#x63f;" horiz-adv-x="1486" 
d="M746 950l143 144l145 -144l-145 -144zM920 636l144 144l145 -144l-145 -145zM571 636l144 144l145 -144l-145 -145zM1188 -10q110 -50 154 -99t44 -122q0 -100 -86 -181t-233 -128t-331 -47q-327 0 -484.5 134.5t-157.5 414.5q0 98 13 229t37 280l180 -35
q-23 -141 -35 -259t-12 -201q0 -191 107.5 -275t351.5 -84q200 0 325 52t125 136q0 39 -38 67t-135.5 55t-275.5 62l28 214h721v-203h-298v-10z" />
    <glyph glyph-name="uni06A1.init" unicode="&#x66f;" horiz-adv-x="960" 
d="M0 203h340q196 0 274 57.5t78 195.5q-138 -34 -256 -34q-330 0 -330 290q0 145 44 254t123.5 170t184.5 61q125 0 216.5 -87t141.5 -246t50 -376q0 -253 -130 -370.5t-411 -117.5h-325q-33 0 -33 102q0 101 33 101zM666 628q-12 176 -68.5 273t-147.5 97
q-80 0 -131.5 -73t-51.5 -187q0 -138 180 -138q90 0 219 28z" />
    <glyph glyph-name="uni06A1.medi" unicode="&#x66f;" horiz-adv-x="1005" 
d="M120 560q0 121 50.5 210t137 137.5t194.5 48.5q107 0 193.5 -49t137.5 -137.5t51 -208.5q0 -110 -55 -191t-140 -133l3 -9q88 -25 197 -25h116v-203h-135q-116 0 -202.5 27t-168.5 76q-81 -49 -167.5 -76t-201.5 -27h-130q-34 0 -34 102q0 101 34 101h104q113 0 210 25
l3 9q-85 52 -141 132t-56 191zM501 280q86 43 139 109t53 163q0 90 -53.5 147t-137.5 57q-85 0 -138.5 -56.5t-53.5 -147.5q0 -94 53.5 -161t137.5 -111z" />
    <glyph glyph-name="uni066F.fina" unicode="&#x66f;" horiz-adv-x="1519" 
d="M1050 793q98 0 169 -49.5t118 -134t73 -190t35 -216.5h74v-203h-80q-25 -265 -201 -408t-481 -143q-328 0 -495.5 140t-167.5 417q0 148 53 459l189 -38q-25 -140 -36.5 -239t-11.5 -170q0 -191 120.5 -278t356.5 -87q214 0 344.5 87t153.5 255l-7 11q-108 -6 -221 -6
q-157 0 -248.5 77t-91.5 241q0 130 41.5 237.5t121 172.5t192.5 65zM1046 589q-63 0 -105 -36t-63 -92.5t-21 -116.5q0 -83 51 -115.5t136 -32.5q113 0 221 3q-2 62 -14 130t-37 127t-66 96t-102 37z" />
    <glyph glyph-name="uni0672.fina" unicode="&#x672;" horiz-adv-x="617" 
d="M151 1193h195v-743q0 -133 59.5 -190t210.5 -57h1v-203h-1q-226 0 -345.5 111.5t-119.5 334.5v747zM431 1744q-24 7 -46 7q-52 0 -82 -27.5t-30 -69.5q0 -37 24.5 -63t73.5 -26q32 0 90 16l47 14l29 -96l-218 -69q-35 -10 -62 -10q-37 0 -77 17q-13 6 -23.5 10t-20.5 4
q-19 0 -30.5 -14.5t-24.5 -43.5l-92 43q29 59 57 88t72 29q24 0 40.5 -9t38.5 -14.5t60 4.5l1 8q-42 14 -63.5 49t-21.5 76q0 74 58.5 128.5t146.5 54.5q19 0 37 -2t40 -8l37 -10l-23 -94z" />
    <glyph glyph-name="uni0673.fina" unicode="&#x673;" horiz-adv-x="617" 
d="M445 -279q-24 7 -46 7q-52 0 -82 -27.5t-30 -69.5q0 -37 24.5 -63t73.5 -26q32 0 90 16l47 14l29 -96l-218 -69q-35 -10 -62 -10q-37 0 -77 17q-13 6 -23.5 10t-20.5 4q-19 0 -30.5 -14.5t-24.5 -43.5l-92 43q29 59 57 88t72 29q24 0 40.5 -9t38.5 -14.5t60 4.5l1 8
q-42 14 -63.5 49t-21.5 76q0 74 58.5 128.5t146.5 54.5q19 0 37 -2t40 -8l37 -10l-23 -94zM151 1347h195v-897q0 -133 59.5 -190t210.5 -57h1v-203h-1q-226 0 -345.5 111.5t-119.5 334.5v901z" />
    <glyph glyph-name="uni0675.fina" unicode="&#x675;" horiz-adv-x="1028" 
d="M156 1347h194v-897q0 -133 57.5 -190t208.5 -57h413v-203h-413q-226 0 -343 111.5t-117 334.5v901zM837 1457l-28 -89q-38 15 -73 15q-55 0 -90 -30t-35 -78q0 -43 30 -68t78 -25q36 0 76 13l104 33l29 -96l-459 -146l-29 98l169 48v10q-88 37 -88 140q0 84 60 140.5
t152 56.5q26 0 51 -6t53 -16z" />
    <glyph glyph-name="uni0676.fina" unicode="&#x676;" horiz-adv-x="936" 
d="M870 1462l-28 -89q-38 15 -73 15q-55 0 -90 -30t-35 -78q0 -43 30 -68t78 -25q36 0 76 13l104 33l29 -96l-459 -146l-29 98l169 48v10q-88 37 -88 140q0 84 60 140.5t152 56.5q26 0 51 -6t53 -16zM680 -5l-6 11q-56 -4 -112 -5t-109 -1q-158 0 -249 77.5t-91 240.5
q0 121 39 229.5t118 177t198 68.5q101 0 172 -51.5t117.5 -137t71.5 -190t33 -211.5h74v-203h-80q-28 -193 -208.5 -325t-485.5 -216l-82 185q247 57 406.5 148t193.5 203zM683 199q-2 62 -14 130t-37 127t-66.5 96t-102.5 37q-63 0 -105 -36t-62.5 -92t-20.5 -116
q0 -84 51 -116.5t136 -32.5q54 0 109.5 0.5t111.5 2.5z" />
    <glyph glyph-name="uni0677.fina" unicode="&#x677;" horiz-adv-x="936" 
d="M307 1529q67 0 107 -47.5t40 -126.5q0 -86 -56.5 -158.5t-155.5 -127.5t-227 -90l-28 96q56 15 125.5 43.5t125.5 62.5q-49 19 -89 57.5t-40 100.5q0 47 27 90.5t72 71.5t99 28zM295 1433q-36 0 -68 -29.5t-32 -65.5q0 -39 37.5 -61.5t83.5 -35.5q41 47 41 109
q0 34 -15.5 58.5t-46.5 24.5zM870 1462l-28 -89q-38 15 -73 15q-55 0 -90 -30t-35 -78q0 -43 30 -68t78 -25q36 0 76 13l104 33l29 -96l-459 -146l-29 98l169 48v10q-88 37 -88 140q0 84 60 140.5t152 56.5q26 0 51 -6t53 -16zM680 -5l-6 11q-56 -4 -112 -5t-109 -1
q-158 0 -249 77.5t-91 240.5q0 121 39 229.5t118 177t198 68.5q101 0 172 -51.5t117.5 -137t71.5 -190t33 -211.5h74v-203h-80q-28 -193 -208.5 -325t-485.5 -216l-82 185q247 57 406.5 148t193.5 203zM683 199q-2 62 -14 130t-37 127t-66.5 96t-102.5 37q-63 0 -105 -36
t-62.5 -92t-20.5 -116q0 -84 51 -116.5t136 -32.5q54 0 109.5 0.5t111.5 2.5z" />
    <glyph glyph-name="uni0678.fina" unicode="&#x678;" horiz-adv-x="1486" 
d="M1273 877l-28 -89q-38 15 -73 15q-55 0 -90 -30t-35 -78q0 -43 30 -68t78 -25q36 0 76 13l104 33l29 -96l-459 -146l-29 98l169 48v10q-88 37 -88 140q0 84 60 140.5t152 56.5q26 0 51 -6t53 -16zM1188 -10q110 -50 154 -99t44 -122q0 -100 -86 -181t-233 -128t-331 -47
q-327 0 -484.5 134.5t-157.5 414.5q0 98 13 229t37 280l180 -35q-23 -141 -35 -259t-12 -201q0 -191 107.5 -275t351.5 -84q200 0 325 52t125 136q0 39 -38 67t-135.5 55t-275.5 62l28 214h721v-203h-298v-10z" />
    <glyph glyph-name="uni067C.init" unicode="&#x67c;" horiz-adv-x="590" 
d="M0 80q82 0 131 -49t49 -132q0 -78 -49.5 -128t-130.5 -50q-79 0 -129.5 48.5t-50.5 129.5q0 80 51 130.5t129 50.5zM0 0q-96 0 -96 -90q0 -43 26 -67t70 -24t70 24t26 67t-26 66.5t-70 23.5zM437 792q29 -110 45.5 -207t16.5 -174q0 -200 -109.5 -305.5t-342.5 -105.5
h-47q-33 0 -33 102q0 101 33 101h47q141 0 202 56t61 168q0 56 -15 136.5t-39 178.5zM-67 1145l144 144l145 -144l-145 -145zM282 1145l144 144l145 -144l-145 -145z" />
    <glyph glyph-name="uni067C.medi" unicode="&#x67c;" horiz-adv-x="837" 
d="M0 80q82 0 131 -49t49 -132q0 -78 -49.5 -128t-130.5 -50q-79 0 -129.5 48.5t-50.5 129.5q0 80 51 130.5t129 50.5zM0 0q-96 0 -96 -90q0 -43 26 -67t70 -24t70 24t26 67t-26 66.5t-70 23.5zM518 494q0 -99 19 -163.5t73.5 -96t162.5 -31.5h64v-203h-67q-127 0 -220.5 61
t-125.5 173h-10q-32 -112 -135.5 -173t-231.5 -61h-47q-33 0 -33 102q0 101 33 101h47q116 0 175.5 32t80 96.5t20.5 162.5v144h195v-144zM2 1013l144 144l145 -144l-145 -145zM351 1013l144 144l145 -144l-145 -145z" />
    <glyph glyph-name="uni067C.fina" unicode="&#x67c;" horiz-adv-x="1954" 
d="M787 80q82 0 131 -49t49 -132q0 -78 -49.5 -128t-130.5 -50q-79 0 -129.5 48.5t-50.5 129.5q0 80 51 130.5t129 50.5zM787 0q-96 0 -96 -90q0 -43 26 -67t70 -24t70 24t26 67t-26 66.5t-70 23.5zM1725 666q-13 -76 -21.5 -136t-8.5 -112q0 -95 53 -155t205 -60h1v-203h-1
q-163 0 -266.5 66.5t-137.5 210.5h-10q-98 -158 -290.5 -217.5t-461.5 -59.5q-361 0 -527.5 127.5t-166.5 370.5q0 149 58 334l172 -50q-49 -155 -49 -264q0 -162 127 -238.5t417 -76.5q250 0 398.5 50t224 158.5t106.5 283.5zM591 817l144 144l145 -144l-145 -145zM940 817
l144 144l145 -144l-145 -145z" />
    <glyph glyph-name="uni067D.init" unicode="&#x67d;" horiz-adv-x="590" 
d="M266 1472l144 144l145 -144l-145 -145zM-83 1472l144 144l145 -144l-145 -145zM93 1158l143 144l145 -144l-145 -145zM437 792q29 -110 45.5 -207t16.5 -174q0 -200 -109.5 -305.5t-342.5 -105.5h-47q-33 0 -33 102q0 101 33 101h47q141 0 202 56t61 168q0 56 -15 136.5
t-39 178.5z" />
    <glyph glyph-name="uni067D.medi" unicode="&#x67d;" horiz-adv-x="837" 
d="M345 1328l144 144l145 -144l-145 -145zM-4 1328l144 144l145 -144l-145 -145zM172 1014l143 144l145 -144l-145 -145zM518 494q0 -99 19 -163.5t73.5 -96t162.5 -31.5h64v-203h-67q-127 0 -220.5 61t-125.5 173h-10q-32 -112 -135.5 -173t-231.5 -61h-47q-33 0 -33 102
q0 101 33 101h47q116 0 175.5 32t80 96.5t20.5 162.5v144h195v-144z" />
    <glyph glyph-name="uni067D.fina" unicode="&#x67d;" horiz-adv-x="1954" 
d="M939 1131l144 144l145 -144l-145 -145zM590 1131l144 144l145 -144l-145 -145zM766 817l143 144l145 -144l-145 -145zM1725 666q-13 -76 -21.5 -136t-8.5 -112q0 -95 53 -155t205 -60h1v-203h-1q-163 0 -266.5 66.5t-137.5 210.5h-10q-98 -158 -290.5 -217.5
t-461.5 -59.5q-361 0 -527.5 127.5t-166.5 370.5q0 149 58 334l172 -50q-49 -155 -49 -264q0 -162 127 -238.5t417 -76.5q250 0 398.5 50t224 158.5t106.5 283.5z" />
    <glyph glyph-name="uni0681.init" unicode="&#x681;" horiz-adv-x="1288" 
d="M756 1599l-28 -89q-38 15 -73 15q-55 0 -90 -30t-35 -78q0 -43 30 -68t78 -25q36 0 76 13l104 33l29 -96l-459 -146l-29 98l169 48v10q-88 37 -88 140q0 84 60 140.5t152 56.5q26 0 51 -6t53 -16zM431 885q52 0 125.5 -23.5t215.5 -85.5q137 -59 233.5 -93t190.5 -57
v-168l-496 -284q-160 -93 -297 -133.5t-290 -40.5h-113q-17 0 -25 23.5t-8 78.5q0 54 8 77.5t25 23.5h149q80 0 150.5 12.5t147 41t173.5 77.5l329 172v10q-58 15 -124.5 39t-153.5 61q-98 39 -152.5 55.5t-88.5 16.5q-66 0 -109 -42t-81 -141l-8 -19l-144 46l7 19
q57 178 137 256t199 78z" />
    <glyph glyph-name="uni0681.medi" unicode="&#x681;" horiz-adv-x="1337" 
d="M756 1599l-28 -89q-38 15 -73 15q-55 0 -90 -30t-35 -78q0 -43 30 -68t78 -25q36 0 76 13l104 33l29 -96l-459 -146l-29 98l169 48v10q-88 37 -88 140q0 84 60 140.5t152 56.5q26 0 51 -6t53 -16zM431 885q52 0 125.5 -23t215.5 -86q137 -59 233.5 -93t190.5 -57v-168
l-223 -121v-10q67 -71 144.5 -97.5t161.5 -26.5h58v-203h-61q-127 0 -237.5 57t-202.5 193l-136 -76q-160 -93 -297 -133.5t-290 -40.5h-113q-17 0 -25 23.5t-8 78.5q0 54 8 77.5t25 23.5h149q80 0 150.5 12.5t147 41t173.5 77.5l329 172v10q-58 15 -124.5 39t-153.5 61
q-98 39 -152.5 55.5t-88.5 16.5q-66 0 -109 -42t-81 -141l-8 -19l-144 46l7 19q58 177 137.5 255.5t198.5 78.5z" />
    <glyph glyph-name="uni0681.fina" unicode="&#x681;" horiz-adv-x="1397" 
d="M804 1645l-28 -89q-38 15 -73 15q-55 0 -90 -30t-35 -78q0 -43 30 -68t78 -25q36 0 76 13l104 33l29 -96l-459 -146l-29 98l169 48v10q-88 37 -88 140q0 84 60 140.5t152 56.5q26 0 51 -6t53 -16zM467 909q56 0 133 -23.5t204 -80.5q160 -71 258.5 -108t183.5 -58
l-22 -220q-55 -7 -98.5 -14t-78.5 -15v-10q46 -94 115 -135.5t175 -41.5h60v-203h-38q-169 0 -274 86.5t-158 266.5q-188 -41 -334.5 -123t-230.5 -188.5t-84 -221.5q0 -145 135.5 -232t364.5 -87q124 0 242.5 24.5t218.5 70.5l88 -177q-272 -126 -550 -126
q-208 0 -362.5 63t-240 177.5t-85.5 267.5q0 173 112.5 321.5t315.5 255t473 151.5v10q-56 14 -122 38t-161 63q-100 40 -154 56.5t-87 16.5q-66 0 -109.5 -42t-81.5 -141l-7 -19l-143 44l6 21q57 176 136 254.5t200 78.5z" />
    <glyph glyph-name="uni0682.init" unicode="&#x682;" horiz-adv-x="1288" 
d="M467 1622l144 145l144 -145l-144 -144zM467 1273l144 144l144 -144l-144 -145zM431 885q52 0 125.5 -23.5t215.5 -85.5q137 -59 233.5 -93t190.5 -57v-168l-496 -284q-160 -93 -297 -133.5t-290 -40.5h-113q-17 0 -25 23.5t-8 78.5q0 54 8 77.5t25 23.5h149
q80 0 150.5 12.5t147 41t173.5 77.5l329 172v10q-58 15 -124.5 39t-153.5 61q-98 39 -152.5 55.5t-88.5 16.5q-66 0 -109 -42t-81 -141l-8 -19l-144 46l7 19q57 178 137 256t199 78z" />
    <glyph glyph-name="uni0682.medi" unicode="&#x682;" horiz-adv-x="1337" 
d="M467 1622l144 145l144 -145l-144 -144zM467 1273l144 144l144 -144l-144 -145zM431 885q52 0 125.5 -23t215.5 -86q137 -59 233.5 -93t190.5 -57v-168l-223 -121v-10q67 -71 144.5 -97.5t161.5 -26.5h58v-203h-61q-127 0 -237.5 57t-202.5 193l-136 -76
q-160 -93 -297 -133.5t-290 -40.5h-113q-17 0 -25 23.5t-8 78.5q0 54 8 77.5t25 23.5h149q80 0 150.5 12.5t147 41t173.5 77.5l329 172v10q-58 15 -124.5 39t-153.5 61q-98 39 -152.5 55.5t-88.5 16.5q-66 0 -109 -42t-81 -141l-8 -19l-144 46l7 19q58 177 137.5 255.5
t198.5 78.5z" />
    <glyph glyph-name="uni0682.fina" unicode="&#x682;" horiz-adv-x="1397" 
d="M516 1674l144 145l144 -145l-144 -144zM516 1325l144 144l144 -144l-144 -145zM467 909q56 0 133 -23.5t204 -80.5q160 -71 258.5 -108t183.5 -58l-22 -220q-55 -7 -98.5 -14t-78.5 -15v-10q46 -94 115 -135.5t175 -41.5h60v-203h-38q-169 0 -274 86.5t-158 266.5
q-188 -41 -334.5 -123t-230.5 -188.5t-84 -221.5q0 -145 135.5 -232t364.5 -87q124 0 242.5 24.5t218.5 70.5l88 -177q-272 -126 -550 -126q-208 0 -362.5 63t-240 177.5t-85.5 267.5q0 173 112.5 321.5t315.5 255t473 151.5v10q-56 14 -122 38t-161 63q-100 40 -154 56.5
t-87 16.5q-66 0 -109.5 -42t-81.5 -141l-7 -19l-143 44l6 21q57 176 136 254.5t200 78.5z" />
    <glyph glyph-name="uni0685.init" unicode="&#x685;" horiz-adv-x="1288" 
d="M508 1565l143 144l145 -144l-145 -144zM682 1251l144 144l145 -144l-145 -145zM333 1251l144 144l145 -144l-145 -145zM431 885q52 0 125.5 -23.5t215.5 -85.5q137 -59 233.5 -93t190.5 -57v-168l-496 -284q-160 -93 -297 -133.5t-290 -40.5h-113q-17 0 -25 23.5t-8 78.5
q0 54 8 77.5t25 23.5h149q80 0 150.5 12.5t147 41t173.5 77.5l329 172v10q-58 15 -124.5 39t-153.5 61q-98 39 -152.5 55.5t-88.5 16.5q-66 0 -109 -42t-81 -141l-8 -19l-144 46l7 19q57 178 137 256t199 78z" />
    <glyph glyph-name="uni0685.medi" unicode="&#x685;" horiz-adv-x="1337" 
d="M508 1565l143 144l145 -144l-145 -144zM682 1251l144 144l145 -144l-145 -145zM333 1251l144 144l145 -144l-145 -145zM431 885q52 0 125.5 -23t215.5 -86q137 -59 233.5 -93t190.5 -57v-168l-223 -121v-10q67 -71 144.5 -97.5t161.5 -26.5h58v-203h-61q-127 0 -237.5 57
t-202.5 193l-136 -76q-160 -93 -297 -133.5t-290 -40.5h-113q-17 0 -25 23.5t-8 78.5q0 54 8 77.5t25 23.5h149q80 0 150.5 12.5t147 41t173.5 77.5l329 172v10q-58 15 -124.5 39t-153.5 61q-98 39 -152.5 55.5t-88.5 16.5q-66 0 -109 -42t-81 -141l-8 -19l-144 46l7 19
q58 177 137.5 255.5t198.5 78.5z" />
    <glyph glyph-name="uni0685.fina" unicode="&#x685;" horiz-adv-x="1397" 
d="M557 1607l143 144l145 -144l-145 -144zM731 1293l144 144l145 -144l-145 -145zM382 1293l144 144l145 -144l-145 -145zM467 909q56 0 133 -23.5t204 -80.5q160 -71 258.5 -108t183.5 -58l-22 -220q-55 -7 -98.5 -14t-78.5 -15v-10q46 -94 115 -135.5t175 -41.5h60v-203
h-38q-169 0 -274 86.5t-158 266.5q-188 -41 -334.5 -123t-230.5 -188.5t-84 -221.5q0 -145 135.5 -232t364.5 -87q124 0 242.5 24.5t218.5 70.5l88 -177q-272 -126 -550 -126q-208 0 -362.5 63t-240 177.5t-85.5 267.5q0 173 112.5 321.5t315.5 255t473 151.5v10
q-56 14 -122 38t-161 63q-100 40 -154 56.5t-87 16.5q-66 0 -109.5 -42t-81.5 -141l-7 -19l-143 44l6 21q57 176 136 254.5t200 78.5z" />
    <glyph glyph-name="uni0689.fina" unicode="&#x689;" horiz-adv-x="1290" 
d="M481 70q82 0 131 -49t49 -132q0 -78 -49.5 -128t-130.5 -50q-79 0 -129.5 48.5t-50.5 129.5q0 80 51 130.5t129 50.5zM481 -10q-96 0 -96 -90q0 -43 26 -67t70 -24t70 24t26 67t-26 66.5t-70 23.5zM736 1027l267 -625q35 -81 71.5 -124t85 -59t117.5 -16h13v-203h-13
q-136 0 -228 52.5t-141 174.5h-10q-48 -113 -163 -175t-256 -62q-100 0 -201 35.5t-190 107.5l93 161q71 -51 148.5 -76t147.5 -25q101 0 189 41.5t144 120.5l-258 584z" />
    <glyph glyph-name="uni068A.fina" unicode="&#x68a;" horiz-adv-x="1290" 
d="M332 -353l144 144l144 -144l-144 -145zM736 1027l267 -625q35 -81 71.5 -124t85 -59t117.5 -16h13v-203h-13q-136 0 -228 52.5t-141 174.5h-10q-48 -113 -163 -175t-256 -62q-100 0 -201 35.5t-190 107.5l93 161q71 -51 148.5 -76t147.5 -25q101 0 189 41.5t144 120.5
l-258 584z" />
    <glyph glyph-name="uni068B.fina" unicode="&#x68b;" horiz-adv-x="1290" 
d="M448 1368v411h93v-296h10q66 67 116 98t101 31q62 0 100.5 -44t38.5 -104q0 -97 -68 -145t-195 -48h-321v97h125zM529 1368h115q92 0 135 19t43 62q0 31 -20 49.5t-55 18.5q-46 0 -94 -33.5t-124 -115.5zM736 1027l267 -625q35 -81 71.5 -124t85 -59t117.5 -16h13v-203
h-13q-136 0 -228 52.5t-141 174.5h-10q-48 -113 -163 -175t-256 -62q-100 0 -201 35.5t-190 107.5l93 161q71 -51 148.5 -76t147.5 -25q101 0 189 41.5t144 120.5l-258 584zM332 -353l144 144l144 -144l-144 -145z" />
    <glyph glyph-name="uni068F.fina" unicode="&#x68f;" horiz-adv-x="1290" 
d="M651 1730l144 144l145 -144l-145 -145zM302 1730l144 144l145 -144l-145 -145zM478 1416l143 144l145 -144l-145 -145zM736 1027l267 -625q35 -81 71.5 -124t85 -59t117.5 -16h13v-203h-13q-136 0 -228 52.5t-141 174.5h-10q-48 -113 -163 -175t-256 -62
q-100 0 -201 35.5t-190 107.5l93 161q71 -51 148.5 -76t147.5 -25q101 0 189 41.5t144 120.5l-258 584z" />
    <glyph glyph-name="uni0690.fina" unicode="&#x690;" horiz-adv-x="1290" 
d="M651 1764l144 144l145 -144l-145 -145zM302 1764l144 144l145 -144l-145 -145zM302 1415l144 144l145 -144l-145 -145zM651 1415l144 144l145 -144l-145 -145zM736 1027l267 -625q35 -81 71.5 -124t85 -59t117.5 -16h13v-203h-13q-136 0 -228 52.5t-141 174.5h-10
q-48 -113 -163 -175t-256 -62q-100 0 -201 35.5t-190 107.5l93 161q71 -51 148.5 -76t147.5 -25q101 0 189 41.5t144 120.5l-258 584z" />
    <glyph glyph-name="uni0692.fina" unicode="&#x692;" horiz-adv-x="773" 
d="M347 958h-90l-211 272l83 65l173 -228l173 228l83 -65zM193 608l182 64l66 -203q32 -99 71.5 -157.5t100.5 -83.5t159 -25h1v-203h-1q-194 0 -285 129l-10 -3q17 -246 -131.5 -401.5t-459.5 -268.5l-86 183q272 95 388.5 201.5t116.5 260.5q0 88 -29.5 220t-82.5 287z
" />
    <glyph glyph-name="uni0693.fina" unicode="&#x693;" horiz-adv-x="773" 
d="M348 -263q82 0 131 -49t49 -132q0 -78 -49.5 -128t-130.5 -50q-79 0 -129.5 48.5t-50.5 129.5q0 80 51 130.5t129 50.5zM348 -343q-96 0 -96 -90q0 -43 26 -67t70 -24t70 24t26 67t-26 66.5t-70 23.5zM193 608l182 64l66 -203q32 -99 71.5 -157.5t100.5 -83.5t159 -25h1
v-203h-1q-194 0 -285 129l-10 -3q17 -246 -131.5 -401.5t-459.5 -268.5l-86 183q272 95 388.5 201.5t116.5 260.5q0 88 -29.5 220t-82.5 287z" />
    <glyph glyph-name="uni0694.fina" unicode="&#x694;" horiz-adv-x="773" 
d="M304 -623l144 144l144 -144l-144 -145zM193 608l182 64l66 -203q32 -99 71.5 -157.5t100.5 -83.5t159 -25h1v-203h-1q-194 0 -285 129l-10 -3q17 -246 -131.5 -401.5t-459.5 -268.5l-86 183q272 95 388.5 201.5t116.5 260.5q0 88 -29.5 220t-82.5 287z" />
    <glyph glyph-name="uni0695.fina" unicode="&#x695;" horiz-adv-x="773" 
d="M273 -1047h-90l-211 272l83 65l173 -228l173 228l83 -65zM193 608l182 64l66 -203q32 -99 71.5 -157.5t100.5 -83.5t159 -25h1v-203h-1q-194 0 -285 129l-10 -3q17 -246 -131.5 -401.5t-459.5 -268.5l-86 183q272 95 388.5 201.5t116.5 260.5q0 88 -29.5 220t-82.5 287z
" />
    <glyph glyph-name="uni0696.fina" unicode="&#x696;" horiz-adv-x="1043" 
d="M38 114l144 144l144 -144l-144 -145zM575 -623l144 144l144 -144l-144 -145zM464 608l182 64l66 -203q32 -99 71.5 -157.5t100.5 -83.5t159 -25h1v-203h-1q-194 0 -285 129l-10 -3q17 -246 -131.5 -401.5t-459.5 -268.5l-86 183q272 95 388.5 201.5t116.5 260.5
q0 88 -29.5 220t-82.5 287z" />
    <glyph glyph-name="uni0697.fina" unicode="&#x697;" horiz-adv-x="773" 
d="M-21 1062l144 144l145 -144l-145 -145zM328 1062l144 144l145 -144l-145 -145zM193 608l182 64l66 -203q32 -99 71.5 -157.5t100.5 -83.5t159 -25h1v-203h-1q-194 0 -285 129l-10 -3q17 -246 -131.5 -401.5t-459.5 -268.5l-86 183q272 95 388.5 201.5t116.5 260.5
q0 88 -29.5 220t-82.5 287z" />
    <glyph glyph-name="uni0699.fina" unicode="&#x699;" horiz-adv-x="773" 
d="M328 1370l144 144l145 -144l-145 -145zM-21 1370l144 144l145 -144l-145 -145zM-21 1021l144 144l145 -144l-145 -145zM328 1021l144 144l145 -144l-145 -145zM193 608l182 64l66 -203q32 -99 71.5 -157.5t100.5 -83.5t159 -25h1v-203h-1q-194 0 -285 129l-10 -3
q17 -246 -131.5 -401.5t-459.5 -268.5l-86 183q272 95 388.5 201.5t116.5 260.5q0 88 -29.5 220t-82.5 287z" />
    <glyph glyph-name="uni069A.init" unicode="&#x69a;" horiz-adv-x="1669" 
d="M819 -354l144 144l144 -144l-144 -145zM817 1116l144 144l144 -144l-144 -145zM697 203q86 0 126 50.5t50 156.5l17 186l173 -13l-14 -179q-10 -100 36 -150.5t135 -50.5q165 0 165 189q0 30 -4.5 79.5t-11.5 103t-15 94.5l188 45q14 -70 25 -159t11 -160
q0 -200 -84 -297.5t-244 -97.5q-122 0 -190.5 57.5t-90.5 153.5h-10q-50 -211 -273 -211q-121 0 -188.5 60t-88.5 169h-10q-36 -103 -128 -166t-224 -63h-47q-33 0 -33 103q0 100 33 100h47q138 0 203 65.5t81 211.5l16 165l194 -14l-19 -212q-11 -102 34.5 -159t140.5 -57z
" />
    <glyph glyph-name="uni069A.medi" unicode="&#x69a;" horiz-adv-x="1886" 
d="M819 -354l144 144l144 -144l-144 -145zM817 1116l144 144l144 -144l-144 -145zM1508 256q-18 -127 -82 -191.5t-183 -64.5q-120 0 -186 57.5t-88 153.5h-10q-51 -211 -272 -211q-122 0 -189 60t-89 169h-10q-36 -103 -128 -166t-224 -63h-47q-33 0 -33 103q0 100 33 100
h47q138 0 203 65.5t81 211.5l16 165l194 -14l-19 -212q-11 -102 34.5 -159t140.5 -57q86 0 126 50t50 157l17 186l173 -13l-14 -179q-9 -101 35.5 -151t130.5 -50q167 0 167 186q0 40 -9.5 113.5t-24.5 150.5l188 38l24 -164q19 -124 55.5 -194.5t101 -100t167.5 -29.5h2
v-203h-2q-161 0 -249.5 67.5t-116.5 188.5h-10z" />
    <glyph glyph-name="uni069A.fina" unicode="&#x69a;" horiz-adv-x="2762" 
d="M1693 -354l144 144l144 -144l-144 -145zM1692 1116l144 144l144 -144l-144 -145zM2385 256q-37 -256 -262 -256q-109 0 -181 52.5t-96 158.5h-10q-25 -103 -89 -157t-158 -54q-106 0 -173 69l-6 -4q0 -184 -83 -305.5t-229.5 -181.5t-338.5 -60q-320 0 -490 143t-170 453
q0 86 14.5 196t45.5 257l184 -40q-31 -156 -43.5 -247t-12.5 -156q0 -219 118.5 -311.5t348.5 -92.5q232 0 359 81t127 270q0 89 -33 204t-115 305l181 85l115 -314q28 -73 72.5 -110.5t121.5 -37.5q83 0 124 49t51 161l15 183l171 -13l-14 -179q-9 -103 37.5 -152
t134.5 -49q157 0 157 186q0 41 -10 114.5t-24 149.5l187 38l26 -164q21 -126 56.5 -196.5t99 -99t167.5 -28.5h2v-203h-2q-306 0 -365 256h-10z" />
    <glyph glyph-name="uni069B.init" unicode="&#x69b;" horiz-adv-x="1669" 
d="M991 -353l144 144l145 -144l-145 -145zM642 -353l144 144l145 -144l-145 -145zM818 -667l143 144l145 -144l-145 -145zM697 203q86 0 126 50.5t50 156.5l17 186l173 -13l-14 -179q-10 -100 36 -150.5t135 -50.5q165 0 165 189q0 30 -4.5 79.5t-11.5 103t-15 94.5l188 45
q14 -70 25 -159t11 -160q0 -200 -84 -297.5t-244 -97.5q-122 0 -190.5 57.5t-90.5 153.5h-10q-50 -211 -273 -211q-121 0 -188.5 60t-88.5 169h-10q-36 -103 -128 -166t-224 -63h-47q-33 0 -33 103q0 100 33 100h47q138 0 203 65.5t81 211.5l16 165l194 -14l-19 -212
q-11 -102 34.5 -159t140.5 -57z" />
    <glyph glyph-name="uni069B.medi" unicode="&#x69b;" horiz-adv-x="1886" 
d="M991 -353l144 144l145 -144l-145 -145zM642 -353l144 144l145 -144l-145 -145zM818 -667l143 144l145 -144l-145 -145zM1508 256q-18 -127 -82 -191.5t-183 -64.5q-120 0 -186 57.5t-88 153.5h-10q-51 -211 -272 -211q-122 0 -189 60t-89 169h-10q-36 -103 -128 -166
t-224 -63h-47q-33 0 -33 103q0 100 33 100h47q138 0 203 65.5t81 211.5l16 165l194 -14l-19 -212q-11 -102 34.5 -159t140.5 -57q86 0 126 50t50 157l17 186l173 -13l-14 -179q-9 -101 35.5 -151t130.5 -50q167 0 167 186q0 40 -9.5 113.5t-24.5 150.5l188 38l24 -164
q19 -124 55.5 -194.5t101 -100t167.5 -29.5h2v-203h-2q-161 0 -249.5 67.5t-116.5 188.5h-10z" />
    <glyph glyph-name="uni069B.fina" unicode="&#x69b;" horiz-adv-x="2762" 
d="M1926 -354l144 144l145 -144l-145 -145zM1577 -354l144 144l145 -144l-145 -145zM1753 -668l143 144l145 -144l-145 -145zM2385 256q-37 -256 -262 -256q-109 0 -181 52.5t-96 158.5h-10q-25 -103 -89 -157t-158 -54q-106 0 -173 69l-6 -4q0 -184 -83 -305.5
t-229.5 -181.5t-338.5 -60q-320 0 -490 143t-170 453q0 86 14.5 196t45.5 257l184 -40q-31 -156 -43.5 -247t-12.5 -156q0 -219 118.5 -311.5t348.5 -92.5q232 0 359 81t127 270q0 89 -33 204t-115 305l181 85l115 -314q28 -73 72.5 -110.5t121.5 -37.5q83 0 124 49t51 161
l15 183l171 -13l-14 -179q-9 -103 37.5 -152t134.5 -49q157 0 157 186q0 41 -10 114.5t-24 149.5l187 38l26 -164q21 -126 56.5 -196.5t99 -99t167.5 -28.5h2v-203h-2q-306 0 -365 256h-10z" />
    <glyph glyph-name="uni069C.init" unicode="&#x69c;" horiz-adv-x="1669" 
d="M991 -353l144 144l145 -144l-145 -145zM642 -353l144 144l145 -144l-145 -145zM818 -667l143 144l145 -144l-145 -145zM808 1302l143 144l145 -144l-145 -144zM982 988l144 144l145 -144l-145 -145zM633 988l144 144l145 -144l-145 -145zM697 203q86 0 126 50.5t50 156.5
l17 186l173 -13l-14 -179q-10 -100 36 -150.5t135 -50.5q165 0 165 189q0 30 -4.5 79.5t-11.5 103t-15 94.5l188 45q14 -70 25 -159t11 -160q0 -200 -84 -297.5t-244 -97.5q-122 0 -190.5 57.5t-90.5 153.5h-10q-50 -211 -273 -211q-121 0 -188.5 60t-88.5 169h-10
q-36 -103 -128 -166t-224 -63h-47q-33 0 -33 103q0 100 33 100h47q138 0 203 65.5t81 211.5l16 165l194 -14l-19 -212q-11 -102 34.5 -159t140.5 -57z" />
    <glyph glyph-name="uni069C.medi" unicode="&#x69c;" horiz-adv-x="1886" 
d="M991 -353l144 144l145 -144l-145 -145zM642 -353l144 144l145 -144l-145 -145zM818 -667l143 144l145 -144l-145 -145zM808 1302l143 144l145 -144l-145 -144zM982 988l144 144l145 -144l-145 -145zM633 988l144 144l145 -144l-145 -145zM1508 256q-18 -127 -82 -191.5
t-183 -64.5q-120 0 -186 57.5t-88 153.5h-10q-51 -211 -272 -211q-122 0 -189 60t-89 169h-10q-36 -103 -128 -166t-224 -63h-47q-33 0 -33 103q0 100 33 100h47q138 0 203 65.5t81 211.5l16 165l194 -14l-19 -212q-11 -102 34.5 -159t140.5 -57q86 0 126 50t50 157l17 186
l173 -13l-14 -179q-9 -101 35.5 -151t130.5 -50q167 0 167 186q0 40 -9.5 113.5t-24.5 150.5l188 38l24 -164q19 -124 55.5 -194.5t101 -100t167.5 -29.5h2v-203h-2q-161 0 -249.5 67.5t-116.5 188.5h-10z" />
    <glyph glyph-name="uni069C.fina" unicode="&#x69c;" horiz-adv-x="2762" 
d="M1926 -354l144 144l145 -144l-145 -145zM1577 -354l144 144l145 -144l-145 -145zM1753 -668l143 144l145 -144l-145 -145zM1667 1302l143 144l145 -144l-145 -144zM1841 988l144 144l145 -144l-145 -145zM1492 988l144 144l145 -144l-145 -145zM2385 256
q-37 -256 -262 -256q-109 0 -181 52.5t-96 158.5h-10q-25 -103 -89 -157t-158 -54q-106 0 -173 69l-6 -4q0 -184 -83 -305.5t-229.5 -181.5t-338.5 -60q-320 0 -490 143t-170 453q0 86 14.5 196t45.5 257l184 -40q-31 -156 -43.5 -247t-12.5 -156q0 -219 118.5 -311.5
t348.5 -92.5q232 0 359 81t127 270q0 89 -33 204t-115 305l181 85l115 -314q28 -73 72.5 -110.5t121.5 -37.5q83 0 124 49t51 161l15 183l171 -13l-14 -179q-9 -103 37.5 -152t134.5 -49q157 0 157 186q0 41 -10 114.5t-24 149.5l187 38l26 -164q21 -126 56.5 -196.5t99 -99
t167.5 -28.5h2v-203h-2q-306 0 -365 256h-10z" />
    <glyph glyph-name="uni069D.init" unicode="&#x69d;" horiz-adv-x="1633" 
d="M654 -354l144 144l145 -144l-145 -145zM1003 -354l144 144l145 -144l-145 -145zM394 240q-34 -119 -136.5 -179.5t-250.5 -60.5h-7q-33 0 -33 102q0 101 33 101h7q111 0 167.5 32.5t76.5 93.5t20 147v172h194v-152q4 -92 26 -129t59 -60q184 268 341.5 379t296.5 111
q108 0 187.5 -50.5t123 -136.5t43.5 -195q0 -142 -81 -234t-217 -136.5t-300 -44.5q-217 0 -351.5 56.5t-189.5 183.5h-9zM1166 597q-97 0 -217.5 -78.5t-254.5 -277.5q53 -21 119.5 -29.5t142.5 -8.5q104 0 196 18t150 64.5t58 132.5q0 78 -52.5 128.5t-141.5 50.5z" />
    <glyph glyph-name="uni069D.medi" unicode="&#x69d;" horiz-adv-x="1694" 
d="M654 -354l144 144l145 -144l-145 -145zM1003 -354l144 144l145 -144l-145 -145zM271 648h194v-152q4 -92 26 -129t59 -60q184 268 341.5 379t296.5 111q108 0 187.5 -50.5t123 -136.5t43.5 -195q0 -50 -13.5 -91.5t-36.5 -75.5q74 -45 201 -45h1v-203h-1q-201 0 -307 112
q-81 -59 -196 -85.5t-246 -26.5q-217 0 -351.5 56.5t-189.5 183.5h-9q-34 -119 -136.5 -179.5t-250.5 -60.5h-7q-33 0 -33 102q0 101 33 101h7q111 0 167.5 32.5t76.5 93.5t20 147v172zM1166 597q-97 0 -217.5 -78.5t-254.5 -277.5q53 -21 119.5 -29.5t142.5 -8.5
q104 0 196 18t150 64.5t58 132.5q0 78 -52.5 128.5t-141.5 50.5z" />
    <glyph glyph-name="uni069D.fina" unicode="&#x69d;" horiz-adv-x="2536" 
d="M1563 -354l144 144l145 -144l-145 -145zM1912 -354l144 144l145 -144l-145 -145zM2033 797q103 0 182 -48t123.5 -134t44.5 -200q0 -96 -51 -164q71 -48 203 -48h1v-203h-1q-193 0 -303 111q-73 -53 -182 -82t-252 -29q-242 0 -394 86q-7 -272 -177.5 -420t-478.5 -148
q-649 0 -649 596q0 175 60 453l184 -40q-31 -151 -43.5 -243t-12.5 -160q0 -209 110.5 -306.5t345.5 -97.5q474 0 474 374q0 84 -31.5 194t-110.5 292l181 86q51 -117 81 -207t44 -167q160 245 326.5 375t325.5 130zM2007 597q-112 0 -233.5 -92t-238.5 -264q97 -38 262 -38
q201 0 302.5 56t101.5 159q0 81 -53.5 130t-140.5 49z" />
    <glyph glyph-name="uni069E.init" unicode="&#x69e;" horiz-adv-x="1633" 
d="M1034 1469l143 144l145 -144l-145 -144zM1208 1155l144 144l145 -144l-145 -145zM859 1155l144 144l145 -144l-145 -145zM394 240q-34 -119 -136.5 -179.5t-250.5 -60.5h-7q-33 0 -33 102q0 101 33 101h7q111 0 167.5 32.5t76.5 93.5t20 147v172h194v-152q4 -92 26 -129
t59 -60q184 268 341.5 379t296.5 111q108 0 187.5 -50.5t123 -136.5t43.5 -195q0 -142 -81 -234t-217 -136.5t-300 -44.5q-217 0 -351.5 56.5t-189.5 183.5h-9zM1166 597q-97 0 -217.5 -78.5t-254.5 -277.5q53 -21 119.5 -29.5t142.5 -8.5q104 0 196 18t150 64.5t58 132.5
q0 78 -52.5 128.5t-141.5 50.5z" />
    <glyph glyph-name="uni069E.medi" unicode="&#x69e;" horiz-adv-x="1694" 
d="M1034 1469l143 144l145 -144l-145 -144zM1208 1155l144 144l145 -144l-145 -145zM859 1155l144 144l145 -144l-145 -145zM271 648h194v-152q4 -92 26 -129t59 -60q184 268 341.5 379t296.5 111q108 0 187.5 -50.5t123 -136.5t43.5 -195q0 -50 -13.5 -91.5t-36.5 -75.5
q74 -45 201 -45h1v-203h-1q-201 0 -307 112q-81 -59 -196 -85.5t-246 -26.5q-217 0 -351.5 56.5t-189.5 183.5h-9q-34 -119 -136.5 -179.5t-250.5 -60.5h-7q-33 0 -33 102q0 101 33 101h7q111 0 167.5 32.5t76.5 93.5t20 147v172zM1166 597q-97 0 -217.5 -78.5
t-254.5 -277.5q53 -21 119.5 -29.5t142.5 -8.5q104 0 196 18t150 64.5t58 132.5q0 78 -52.5 128.5t-141.5 50.5z" />
    <glyph glyph-name="uni069E.fina" unicode="&#x69e;" horiz-adv-x="2536" 
d="M1887 1469l143 144l145 -144l-145 -144zM2061 1155l144 144l145 -144l-145 -145zM1712 1155l144 144l145 -144l-145 -145zM2033 797q103 0 182 -48t123.5 -134t44.5 -200q0 -96 -51 -164q71 -48 203 -48h1v-203h-1q-193 0 -303 111q-73 -53 -182 -82t-252 -29
q-242 0 -394 86q-7 -272 -177.5 -420t-478.5 -148q-649 0 -649 596q0 175 60 453l184 -40q-31 -151 -43.5 -243t-12.5 -160q0 -209 110.5 -306.5t345.5 -97.5q474 0 474 374q0 84 -31.5 194t-110.5 292l181 86q51 -117 81 -207t44 -167q160 245 326.5 375t325.5 130z
M2007 597q-112 0 -233.5 -92t-238.5 -264q97 -38 262 -38q201 0 302.5 56t101.5 159q0 81 -53.5 130t-140.5 49z" />
    <glyph glyph-name="uni069F.fina" unicode="&#x69f;" horiz-adv-x="1667" 
d="M1025 1469l143 144l145 -144l-145 -144zM1199 1155l144 144l145 -144l-145 -145zM850 1155l144 144l145 -144l-145 -145zM388 203q13 20 25.5 39.5t25.5 38.5v1066h194v-630q0 -74 -9.5 -140.5t-33.5 -137.5l9 -7q286 365 549 365q110 0 188.5 -48.5t120.5 -132.5
t42 -191q0 -41 -8.5 -80.5t-28.5 -74.5q38 -32 87.5 -49.5t116.5 -17.5h1v-203h-1q-104 0 -175 35t-124 93q-71 -60 -191.5 -94t-301.5 -34h-781v203h295zM606 203h309q103 0 195 16.5t150 62t58 133.5q0 79 -54.5 130.5t-143.5 51.5q-62 0 -138.5 -33.5t-170 -118.5
t-205.5 -242z" />
    <glyph glyph-name="uni06A0.init" unicode="&#x6a0;" horiz-adv-x="1091" 
d="M416 1645l143 144l145 -144l-145 -144zM590 1331l144 144l145 -144l-145 -145zM241 1331l144 144l145 -144l-145 -145zM305 472q0 -217 302 -217q40 0 93 4t122 14l130 18l22 -198l-233 -28q-211 -30 -400 -47.5t-301 -17.5h-40q-33 0 -33 102q0 101 33 101h33
q61 0 122.5 2.5t117.5 7.5v14q-73 33 -114.5 102t-41.5 163q0 122 58.5 218.5t160.5 152.5t231 56q191 0 336 -120l-91 -151q-122 73 -244 73q-115 0 -189 -70t-74 -179z" />
    <glyph glyph-name="uni06A0.medi" unicode="&#x6a0;" horiz-adv-x="1185" 
d="M483 1600l143 144l145 -144l-145 -144zM657 1286l144 144l145 -144l-145 -145zM308 1286l144 144l145 -144l-145 -145zM618 907q112 0 206.5 -36t152 -106.5t57.5 -173.5q0 -94 -66 -172t-170 -146v-10q56 -44 116.5 -52t127.5 -8h143v-203h-168q-113 0 -201.5 27.5
t-180.5 117.5q-104 -67 -223 -106t-263 -39h-149q-33 0 -33 102q0 101 33 101h139q104 0 190 19t155 48v10l-348 322v136q105 80 224 124.5t258 44.5zM629 710q-159 0 -282 -71v-4l292 -298q101 57 160 116.5t59 122.5q0 48 -34 77.5t-86.5 43t-108.5 13.5z" />
    <glyph glyph-name="uni06A0.fina" unicode="&#x6a0;" horiz-adv-x="1209" 
d="M519 1643l143 144l145 -144l-145 -144zM693 1329l144 144l145 -144l-145 -145zM344 1329l144 144l145 -144l-145 -145zM1072 591q0 -168 -234 -316v-10q43 -34 95.5 -48t137.5 -14h138v-203h-120q-133 0 -224 34t-184 118q-199 -98 -298 -197t-99 -225
q0 -129 130.5 -203.5t355.5 -74.5q163 0 336 38l44 -197q-206 -49 -383 -49q-203 0 -354 57.5t-234 162t-83 244.5q0 323 444 545v10l-366 339v136q224 169 481 169q187 0 302 -87.5t115 -228.5zM896 576q0 60 -62.5 97t-166.5 37q-159 0 -283 -71v-4l294 -298
q218 123 218 239z" />
    <glyph glyph-name="uni06A1.fina" unicode="&#x6a1;" horiz-adv-x="1945" 
d="M1439 103q-111 -52 -250.5 -77.5t-294.5 -25.5q-249 0 -428.5 36.5t-276 132t-96.5 271.5q0 86 22.5 184t53.5 192l171 -56q-23 -72 -42 -151.5t-19 -142.5q0 -105 67 -161.5t203.5 -78t344.5 -23.5q90 -1 181 5.5t173 21.5l2 9q-85 52 -137.5 131t-52.5 190
q0 121 50.5 210t137 137.5t194.5 48.5q107 0 193 -49t137 -137.5t51 -208.5q0 -110 -54.5 -191t-139.5 -133l3 -9q90 -25 202 -25h111v-203h-129q-118 0 -206 27t-171 76zM1441 283q86 41 139 106.5t53 162.5q0 90 -53.5 147t-137.5 57q-85 0 -138.5 -56.5t-53.5 -147.5
q0 -94 53.5 -160t137.5 -109z" />
    <glyph glyph-name="uni06A2.init" unicode="&#x6a2;" horiz-adv-x="960" 
d="M313 -354l144 144l144 -144l-144 -145zM0 203h340q196 0 274 57.5t78 195.5q-138 -34 -256 -34q-330 0 -330 290q0 145 44 254t123.5 170t184.5 61q125 0 216.5 -87t141.5 -246t50 -376q0 -253 -130 -370.5t-411 -117.5h-325q-33 0 -33 102q0 101 33 101zM666 628
q-12 176 -68.5 273t-147.5 97q-80 0 -131.5 -73t-51.5 -187q0 -138 180 -138q90 0 219 28z" />
    <glyph glyph-name="uni06A2.medi" unicode="&#x6a2;" horiz-adv-x="1005" 
d="M354 -354l144 144l144 -144l-144 -145zM120 560q0 121 50.5 210t137 137.5t194.5 48.5q107 0 193.5 -49t137.5 -137.5t51 -208.5q0 -110 -55 -191t-140 -133l3 -9q88 -25 197 -25h116v-203h-135q-116 0 -202.5 27t-168.5 76q-81 -49 -167.5 -76t-201.5 -27h-130
q-34 0 -34 102q0 101 34 101h104q113 0 210 25l3 9q-85 52 -141 132t-56 191zM501 280q86 43 139 109t53 163q0 90 -53.5 147t-137.5 57q-85 0 -138.5 -56.5t-53.5 -147.5q0 -94 53.5 -161t137.5 -111z" />
    <glyph glyph-name="uni06A2.fina" unicode="&#x6a2;" horiz-adv-x="1945" 
d="M745 -354l144 144l144 -144l-144 -145zM1439 103q-111 -52 -250.5 -77.5t-294.5 -25.5q-249 0 -428.5 36.5t-276 132t-96.5 271.5q0 86 22.5 184t53.5 192l171 -56q-23 -72 -42 -151.5t-19 -142.5q0 -105 67 -161.5t203.5 -78t344.5 -23.5q90 -1 181 5.5t173 21.5l2 9
q-85 52 -137.5 131t-52.5 190q0 121 50.5 210t137 137.5t194.5 48.5q107 0 193 -49t137 -137.5t51 -208.5q0 -110 -54.5 -191t-139.5 -133l3 -9q90 -25 202 -25h111v-203h-129q-118 0 -206 27t-171 76zM1441 283q86 41 139 106.5t53 162.5q0 90 -53.5 147t-137.5 57
q-85 0 -138.5 -56.5t-53.5 -147.5q0 -94 53.5 -160t137.5 -109z" />
    <glyph glyph-name="uni06A3.init" unicode="&#x6a3;" horiz-adv-x="960" 
d="M310 1585l144 144l144 -144l-144 -145zM313 -354l144 144l144 -144l-144 -145zM0 203h340q196 0 274 57.5t78 195.5q-138 -34 -256 -34q-330 0 -330 290q0 145 44 254t123.5 170t184.5 61q125 0 216.5 -87t141.5 -246t50 -376q0 -253 -130 -370.5t-411 -117.5h-325
q-33 0 -33 102q0 101 33 101zM666 628q-12 176 -68.5 273t-147.5 97q-80 0 -131.5 -73t-51.5 -187q0 -138 180 -138q90 0 219 28z" />
    <glyph glyph-name="uni06A3.medi" unicode="&#x6a3;" horiz-adv-x="1005" 
d="M357 1359l144 144l144 -144l-144 -145zM354 -354l144 144l144 -144l-144 -145zM120 560q0 121 50.5 210t137 137.5t194.5 48.5q107 0 193.5 -49t137.5 -137.5t51 -208.5q0 -110 -55 -191t-140 -133l3 -9q88 -25 197 -25h116v-203h-135q-116 0 -202.5 27t-168.5 76
q-81 -49 -167.5 -76t-201.5 -27h-130q-34 0 -34 102q0 101 34 101h104q113 0 210 25l3 9q-85 52 -141 132t-56 191zM501 280q86 43 139 109t53 163q0 90 -53.5 147t-137.5 57q-85 0 -138.5 -56.5t-53.5 -147.5q0 -94 53.5 -161t137.5 -111z" />
    <glyph glyph-name="uni06A3.fina" unicode="&#x6a3;" horiz-adv-x="1945" 
d="M1298 1368l144 144l144 -144l-144 -145zM745 -354l144 144l144 -144l-144 -145zM1439 103q-111 -52 -250.5 -77.5t-294.5 -25.5q-249 0 -428.5 36.5t-276 132t-96.5 271.5q0 86 22.5 184t53.5 192l171 -56q-23 -72 -42 -151.5t-19 -142.5q0 -105 67 -161.5t203.5 -78
t344.5 -23.5q90 -1 181 5.5t173 21.5l2 9q-85 52 -137.5 131t-52.5 190q0 121 50.5 210t137 137.5t194.5 48.5q107 0 193 -49t137 -137.5t51 -208.5q0 -110 -54.5 -191t-139.5 -133l3 -9q90 -25 202 -25h111v-203h-129q-118 0 -206 27t-171 76zM1441 283q86 41 139 106.5
t53 162.5q0 90 -53.5 147t-137.5 57q-85 0 -138.5 -56.5t-53.5 -147.5q0 -94 53.5 -160t137.5 -109z" />
    <glyph glyph-name="uni06A5.init" unicode="&#x6a5;" horiz-adv-x="960" 
d="M484 -354l144 144l145 -144l-145 -145zM135 -354l144 144l145 -144l-145 -145zM311 -668l143 144l145 -144l-145 -145zM0 203h340q196 0 274 57.5t78 195.5q-138 -34 -256 -34q-330 0 -330 290q0 145 44 254t123.5 170t184.5 61q125 0 216.5 -87t141.5 -246t50 -376
q0 -253 -130 -370.5t-411 -117.5h-325q-33 0 -33 102q0 101 33 101zM666 628q-12 176 -68.5 273t-147.5 97q-80 0 -131.5 -73t-51.5 -187q0 -138 180 -138q90 0 219 28z" />
    <glyph glyph-name="uni06A5.medi" unicode="&#x6a5;" horiz-adv-x="1005" 
d="M527 -354l144 144l145 -144l-145 -145zM178 -354l144 144l145 -144l-145 -145zM354 -668l143 144l145 -144l-145 -145zM120 560q0 121 50.5 210t137 137.5t194.5 48.5q107 0 193.5 -49t137.5 -137.5t51 -208.5q0 -110 -55 -191t-140 -133l3 -9q88 -25 197 -25h116v-203
h-135q-116 0 -202.5 27t-168.5 76q-81 -49 -167.5 -76t-201.5 -27h-130q-34 0 -34 102q0 101 34 101h104q113 0 210 25l3 9q-85 52 -141 132t-56 191zM501 280q86 43 139 109t53 163q0 90 -53.5 147t-137.5 57q-85 0 -138.5 -56.5t-53.5 -147.5q0 -94 53.5 -161t137.5 -111z
" />
    <glyph glyph-name="uni06A5.fina" unicode="&#x6a5;" horiz-adv-x="1945" 
d="M916 -354l144 144l145 -144l-145 -145zM567 -354l144 144l145 -144l-145 -145zM743 -668l143 144l145 -144l-145 -145zM1439 103q-111 -52 -250.5 -77.5t-294.5 -25.5q-249 0 -428.5 36.5t-276 132t-96.5 271.5q0 86 22.5 184t53.5 192l171 -56q-23 -72 -42 -151.5
t-19 -142.5q0 -105 67 -161.5t203.5 -78t344.5 -23.5q90 -1 181 5.5t173 21.5l2 9q-85 52 -137.5 131t-52.5 190q0 121 50.5 210t137 137.5t194.5 48.5q107 0 193 -49t137 -137.5t51 -208.5q0 -110 -54.5 -191t-139.5 -133l3 -9q90 -25 202 -25h111v-203h-129
q-118 0 -206 27t-171 76zM1441 283q86 41 139 106.5t53 162.5q0 90 -53.5 147t-137.5 57q-85 0 -138.5 -56.5t-53.5 -147.5q0 -94 53.5 -160t137.5 -109z" />
    <glyph glyph-name="uni06A7.fina" unicode="&#x6a7;" horiz-adv-x="1519" 
d="M905 1183l144 144l144 -144l-144 -145zM1050 793q98 0 169 -49.5t118 -134t73 -190t35 -216.5h74v-203h-80q-25 -265 -201 -408t-481 -143q-328 0 -495.5 140t-167.5 417q0 148 53 459l189 -38q-25 -140 -36.5 -239t-11.5 -170q0 -191 120.5 -278t356.5 -87
q214 0 344.5 87t153.5 255l-7 11q-108 -6 -221 -6q-157 0 -248.5 77t-91.5 241q0 130 41.5 237.5t121 172.5t192.5 65zM1046 589q-63 0 -105 -36t-63 -92.5t-21 -116.5q0 -83 51 -115.5t136 -32.5q113 0 221 3q-2 62 -14 130t-37 127t-66 96t-102 37z" />
    <glyph glyph-name="uni06A8.fina" unicode="&#x6a8;" horiz-adv-x="1519" 
d="M905 1489l143 144l145 -144l-145 -144zM1079 1175l144 144l145 -144l-145 -145zM730 1175l144 144l145 -144l-145 -145zM1050 793q98 0 169 -49.5t118 -134t73 -190t35 -216.5h74v-203h-80q-25 -265 -201 -408t-481 -143q-328 0 -495.5 140t-167.5 417q0 148 53 459
l189 -38q-25 -140 -36.5 -239t-11.5 -170q0 -191 120.5 -278t356.5 -87q214 0 344.5 87t153.5 255l-7 11q-108 -6 -221 -6q-157 0 -248.5 77t-91.5 241q0 130 41.5 237.5t121 172.5t192.5 65zM1046 589q-63 0 -105 -36t-63 -92.5t-21 -116.5q0 -83 51 -115.5t136 -32.5
q113 0 221 3q-2 62 -14 130t-37 127t-66 96t-102 37z" />
    <glyph glyph-name="uni06AA.init" unicode="&#x6aa;" horiz-adv-x="1956" 
d="M873 1308l105 -169q-184 -106 -294 -182.5t-167.5 -133.5t-83.5 -106h910q263 0 392.5 -59t129.5 -220q0 -124 -73.5 -223.5t-215 -157t-346.5 -57.5h-1230q-33 0 -33 102q0 101 33 101h1281q184 0 283.5 62t99.5 143q0 66 -72.5 86t-203.5 20h-1057l-125 176
q18 92 88.5 184.5t210.5 198t368 235.5z" />
    <glyph glyph-name="uni06AA.medi" unicode="&#x6aa;" horiz-adv-x="2178" 
d="M873 1308l105 -169q-184 -106 -294 -182.5t-167.5 -133.5t-83.5 -106h910q262 0 392 -59t130 -220q0 -77 26.5 -129.5t94.5 -79t191 -26.5h1v-203h-1q-148 0 -253 52.5t-151 173.5h-10q-64 -109 -201 -167.5t-337 -58.5h-1225q-33 0 -33 102q0 101 33 101h1281
q184 0 283.5 62t99.5 143q0 66 -72.5 86t-203.5 20h-1057l-125 176q18 92 88.5 184.5t210.5 198t368 235.5z" />
    <glyph glyph-name="uni06AA.fina" unicode="&#x6aa;" horiz-adv-x="2370" 
d="M1065 1308l104 -169q-184 -106 -294 -182.5t-167 -133.5t-83 -106h910q263 0 392.5 -59t129.5 -220q0 -77 26.5 -129.5t94.5 -79t191 -26.5h1v-203h-1q-147 0 -252.5 53t-151.5 173h-10q-61 -105 -199 -165.5t-338 -60.5h-1325v203h1381q183 0 282 62t99 143q0 66 -72 86
t-203 20h-1056l-127 176q19 92 89 184.5t210.5 198t368.5 235.5z" />
    <glyph glyph-name="uni06AB.init" unicode="&#x6ab;" horiz-adv-x="852" 
d="M663 1176q82 0 132.5 -49t50.5 -132q0 -78 -51.5 -128t-131.5 -50q-79 0 -128 48.5t-49 129.5q0 80 49.5 130.5t127.5 50.5zM661 1095q-96 0 -96 -90q0 -43 26 -67t70 -24t69.5 24t25.5 67t-25.5 66.5t-69.5 23.5zM871 1362l30 -201q-220 -53 -376.5 -99.5t-275.5 -93.5
l-1 -8q169 -129 272 -227t150.5 -180.5t47.5 -167.5q0 -185 -153 -285t-437 -100h-128q-17 0 -25 23.5t-8 78.5q0 54 8 77.5t25 23.5h124q400 0 400 193q0 57 -50.5 125t-160.5 160t-290 221l16 185q181 83 390.5 153t441.5 122z" />
    <glyph glyph-name="uni06AB.medi" unicode="&#x6ab;" horiz-adv-x="1132" 
d="M663 1176q82 0 132.5 -49t50.5 -132q0 -78 -51.5 -128t-131.5 -50q-79 0 -128 48.5t-49 129.5q0 80 49.5 130.5t127.5 50.5zM661 1095q-96 0 -96 -90q0 -43 26 -67t70 -24t69.5 24t25.5 67t-25.5 66.5t-69.5 23.5zM649 322q-22 -170 -148 -246t-373 -76h-128
q-17 0 -25 23.5t-8 77.5q0 55 8 78.5t25 23.5h124q203 0 299 50t96 141q0 52 -48 120.5t-156.5 163.5t-291.5 224l16 185q184 84 394 154t438 121l30 -201q-214 -51 -372 -98t-280 -95l-1 -8q131 -98 215.5 -171.5t143 -142.5t110.5 -154q66 -110 121.5 -173.5t123.5 -89.5
t169 -26h1v-203h-1q-180 0 -288 74t-184 248h-10z" />
    <glyph glyph-name="uni06AB.fina" unicode="&#x6ab;" horiz-adv-x="1966" 
d="M1487 1174q82 0 132.5 -49t50.5 -132q0 -78 -51.5 -128t-131.5 -50q-79 0 -128 48.5t-49 129.5q0 80 49.5 130.5t127.5 50.5zM1485 1093q-96 0 -96 -90q0 -43 26 -67t70 -24t69.5 24t25.5 67t-25.5 66.5t-69.5 23.5zM1483 321q-19 -164 -187.5 -242.5t-503.5 -78.5
q-248 0 -402 46.5t-224.5 148t-70.5 265.5q0 134 43 337l178 -41q-18 -88 -28 -160t-10 -117q0 -101 50 -162t163 -87.5t302 -26.5q559 0 559 196q0 78 -121.5 201.5t-374.5 301.5l16 185q183 84 393.5 154t438.5 121l29 -201q-213 -51 -371 -98t-280 -95l-1 -8
q134 -102 218 -175.5t141.5 -141.5t109.5 -153q68 -114 125 -176t125 -86.5t165 -24.5h1v-203h-1q-181 0 -289 73.5t-183 247.5h-10z" />
    <glyph glyph-name="uni06AC.init" unicode="&#x6ac;" horiz-adv-x="852" 
d="M220 1566l126 126l127 -126l-127 -127zM871 1362l30 -201q-220 -53 -376.5 -99.5t-275.5 -93.5l-1 -8q169 -129 272 -227t150.5 -180.5t47.5 -167.5q0 -185 -153 -285t-437 -100h-128q-17 0 -25 23.5t-8 78.5q0 54 8 77.5t25 23.5h124q400 0 400 193q0 57 -50.5 125
t-160.5 160t-290 221l16 185q181 83 390.5 153t441.5 122z" />
    <glyph glyph-name="uni06AC.medi" unicode="&#x6ac;" horiz-adv-x="1132" 
d="M220 1566l126 126l127 -126l-127 -127zM649 322q-22 -170 -148 -246t-373 -76h-128q-17 0 -25 23.5t-8 77.5q0 55 8 78.5t25 23.5h124q203 0 299 50t96 141q0 52 -48 120.5t-156.5 163.5t-291.5 224l16 185q184 84 394 154t438 121l30 -201q-214 -51 -372 -98t-280 -95
l-1 -8q131 -98 215.5 -171.5t143 -142.5t110.5 -154q66 -110 121.5 -173.5t123.5 -89.5t169 -26h1v-203h-1q-180 0 -288 74t-184 248h-10z" />
    <glyph glyph-name="uni06AC.fina" unicode="&#x6ac;" horiz-adv-x="1842" 
d="M672 1377l144 144l144 -144l-144 -145zM686 484q-54 0 -118 11l24 104q26 -5 54 -7.5t54 -2.5q68 0 126.5 18.5t58.5 63.5q0 28 -30 38.5t-82 18.5q-66 12 -110 38.5t-44 94.5q0 105 70 169t171 64q55 0 112 -18l-34 -99q-20 5 -41 8.5t-42 3.5q-57 0 -99.5 -27
t-42.5 -77q0 -34 30 -46t87 -22q63 -10 106.5 -36t43.5 -96q0 -99 -85.5 -150t-208.5 -51zM1526 523q0 -175 73.5 -247.5t241.5 -72.5h1v-203h-1q-163 0 -268 64t-135 192h-10q-45 -140 -196.5 -198t-432.5 -58q-254 0 -409.5 42.5t-226 137t-70.5 251.5q0 59 10 135.5
t27 150.5l175 -39q-13 -63 -22 -130.5t-9 -108.5q0 -91 49 -142.5t164 -72.5t313 -21q207 0 323 28t162.5 97t46.5 192v824h194v-821z" />
    <glyph glyph-name="uni06AE.init" unicode="&#x6ae;" horiz-adv-x="852" 
d="M552 -354l144 144l145 -144l-145 -145zM203 -354l144 144l145 -144l-145 -145zM379 -668l143 144l145 -144l-145 -145zM871 1362l30 -201q-220 -53 -376.5 -99.5t-275.5 -93.5l-1 -8q169 -129 272 -227t150.5 -180.5t47.5 -167.5q0 -185 -153 -285t-437 -100h-128
q-17 0 -25 23.5t-8 78.5q0 54 8 77.5t25 23.5h124q400 0 400 193q0 57 -50.5 125t-160.5 160t-290 221l16 185q181 83 390.5 153t441.5 122z" />
    <glyph glyph-name="uni06AE.medi" unicode="&#x6ae;" horiz-adv-x="1132" 
d="M552 -354l144 144l145 -144l-145 -145zM203 -354l144 144l145 -144l-145 -145zM379 -668l143 144l145 -144l-145 -145zM649 322q-22 -170 -148 -246t-373 -76h-128q-17 0 -25 23.5t-8 77.5q0 55 8 78.5t25 23.5h124q203 0 299 50t96 141q0 52 -48 120.5t-156.5 163.5
t-291.5 224l16 185q184 84 394 154t438 121l30 -201q-214 -51 -372 -98t-280 -95l-1 -8q131 -98 215.5 -171.5t143 -142.5t110.5 -154q66 -110 121.5 -173.5t123.5 -89.5t169 -26h1v-203h-1q-180 0 -288 74t-184 248h-10z" />
    <glyph glyph-name="uni06AE.fina" unicode="&#x6ae;" horiz-adv-x="1842" 
d="M802 -354l144 144l145 -144l-145 -145zM453 -354l144 144l145 -144l-145 -145zM629 -668l143 144l145 -144l-145 -145zM686 484q-54 0 -118 11l24 104q26 -5 54 -7.5t54 -2.5q68 0 126.5 18.5t58.5 63.5q0 28 -30 38.5t-82 18.5q-66 12 -110 38.5t-44 94.5q0 105 70 169
t171 64q55 0 112 -18l-34 -99q-20 5 -41 8.5t-42 3.5q-57 0 -99.5 -27t-42.5 -77q0 -34 30 -46t87 -22q63 -10 106.5 -36t43.5 -96q0 -99 -85.5 -150t-208.5 -51zM1526 523q0 -175 73.5 -247.5t241.5 -72.5h1v-203h-1q-163 0 -268 64t-135 192h-10q-45 -140 -196.5 -198
t-432.5 -58q-254 0 -409.5 42.5t-226 137t-70.5 251.5q0 59 10 135.5t27 150.5l175 -39q-13 -63 -22 -130.5t-9 -108.5q0 -91 49 -142.5t164 -72.5t313 -21q207 0 323 28t162.5 97t46.5 192v824h194v-821z" />
    <glyph glyph-name="uni06B0.init" unicode="&#x6b0;" horiz-adv-x="852" 
d="M663 1176q82 0 132.5 -49t50.5 -132q0 -78 -51.5 -128t-131.5 -50q-79 0 -128 48.5t-49 129.5q0 80 49.5 130.5t127.5 50.5zM661 1095q-96 0 -96 -90q0 -43 26 -67t70 -24t69.5 24t25.5 67t-25.5 66.5t-69.5 23.5zM709 1643l20 -107q-358 -63 -686 -228l-51 97
q167 84 348.5 144.5t368.5 93.5zM871 1362l30 -201q-220 -53 -376.5 -99.5t-275.5 -93.5l-1 -8q169 -129 272 -227t150.5 -180.5t47.5 -167.5q0 -185 -153 -285t-437 -100h-128q-17 0 -25 23.5t-8 78.5q0 54 8 77.5t25 23.5h124q400 0 400 193q0 57 -50.5 125t-160.5 160
t-290 221l16 185q181 83 390.5 153t441.5 122z" />
    <glyph glyph-name="uni06B0.medi" unicode="&#x6b0;" horiz-adv-x="1132" 
d="M663 1176q82 0 132.5 -49t50.5 -132q0 -78 -51.5 -128t-131.5 -50q-79 0 -128 48.5t-49 129.5q0 80 49.5 130.5t127.5 50.5zM661 1095q-96 0 -96 -90q0 -43 26 -67t70 -24t69.5 24t25.5 67t-25.5 66.5t-69.5 23.5zM709 1643l20 -107q-358 -63 -686 -228l-51 97
q167 84 348.5 144.5t368.5 93.5zM649 322q-22 -170 -148 -246t-373 -76h-128q-17 0 -25 23.5t-8 77.5q0 55 8 78.5t25 23.5h124q203 0 299 50t96 141q0 52 -48 120.5t-156.5 163.5t-291.5 224l16 185q184 84 394 154t438 121l30 -201q-214 -51 -372 -98t-280 -95l-1 -8
q131 -98 215.5 -171.5t143 -142.5t110.5 -154q66 -110 121.5 -173.5t123.5 -89.5t169 -26h1v-203h-1q-180 0 -288 74t-184 248h-10z" />
    <glyph glyph-name="uni06B0.fina" unicode="&#x6b0;" horiz-adv-x="1966" 
d="M1487 1174q82 0 132.5 -49t50.5 -132q0 -78 -51.5 -128t-131.5 -50q-79 0 -128 48.5t-49 129.5q0 80 49.5 130.5t127.5 50.5zM1485 1093q-96 0 -96 -90q0 -43 26 -67t70 -24t69.5 24t25.5 67t-25.5 66.5t-69.5 23.5zM1528 1643l20 -107q-358 -63 -686 -228l-51 97
q167 84 348.5 144.5t368.5 93.5zM1483 321q-19 -164 -187.5 -242.5t-503.5 -78.5q-248 0 -402 46.5t-224.5 148t-70.5 265.5q0 134 43 337l178 -41q-18 -88 -28 -160t-10 -117q0 -101 50 -162t163 -87.5t302 -26.5q559 0 559 196q0 78 -121.5 201.5t-374.5 301.5l16 185
q183 84 393.5 154t438.5 121l29 -201q-213 -51 -371 -98t-280 -95l-1 -8q134 -102 218 -175.5t141.5 -141.5t109.5 -153q68 -114 125 -176t125 -86.5t165 -24.5h1v-203h-1q-181 0 -289 73.5t-183 247.5h-10z" />
    <glyph glyph-name="uni06B2.init" unicode="&#x6b2;" horiz-adv-x="852" 
d="M203 -354l144 144l145 -144l-145 -145zM552 -354l144 144l145 -144l-145 -145zM871 1362l30 -201q-220 -53 -376.5 -99.5t-275.5 -93.5l-1 -8q169 -129 272 -227t150.5 -180.5t47.5 -167.5q0 -185 -153 -285t-437 -100h-128q-17 0 -25 23.5t-8 78.5q0 54 8 77.5t25 23.5
h124q400 0 400 193q0 57 -50.5 125t-160.5 160t-290 221l16 185q181 83 390.5 153t441.5 122zM709 1643l20 -107q-358 -63 -686 -228l-51 97q167 84 348.5 144.5t368.5 93.5z" />
    <glyph glyph-name="uni06B2.medi" unicode="&#x6b2;" horiz-adv-x="1132" 
d="M203 -354l144 144l145 -144l-145 -145zM552 -354l144 144l145 -144l-145 -145zM649 322q-22 -170 -148 -246t-373 -76h-128q-17 0 -25 23.5t-8 77.5q0 55 8 78.5t25 23.5h124q203 0 299 50t96 141q0 52 -48 120.5t-156.5 163.5t-291.5 224l16 185q184 84 394 154t438 121
l30 -201q-214 -51 -372 -98t-280 -95l-1 -8q131 -98 215.5 -171.5t143 -142.5t110.5 -154q66 -110 121.5 -173.5t123.5 -89.5t169 -26h1v-203h-1q-180 0 -288 74t-184 248h-10zM709 1643l20 -107q-358 -63 -686 -228l-51 97q167 84 348.5 144.5t368.5 93.5z" />
    <glyph glyph-name="uni06B2.fina" unicode="&#x6b2;" horiz-adv-x="1966" 
d="M473 -354l144 144l145 -144l-145 -145zM822 -354l144 144l145 -144l-145 -145zM1483 321q-19 -164 -187.5 -242.5t-503.5 -78.5q-248 0 -402 46.5t-224.5 148t-70.5 265.5q0 134 43 337l178 -41q-18 -88 -28 -160t-10 -117q0 -101 50 -162t163 -87.5t302 -26.5
q559 0 559 196q0 78 -121.5 201.5t-374.5 301.5l16 185q183 84 393.5 154t438.5 121l29 -201q-213 -51 -371 -98t-280 -95l-1 -8q134 -102 218 -175.5t141.5 -141.5t109.5 -153q68 -114 125 -176t125 -86.5t165 -24.5h1v-203h-1q-181 0 -289 73.5t-183 247.5h-10zM1528 1643
l20 -107q-358 -63 -686 -228l-51 97q167 84 348.5 144.5t368.5 93.5z" />
    <glyph glyph-name="uni06B4.init" unicode="&#x6b4;" horiz-adv-x="852" 
d="M871 1362l30 -201q-220 -53 -376.5 -99.5t-275.5 -93.5l-1 -8q169 -129 272 -227t150.5 -180.5t47.5 -167.5q0 -185 -153 -285t-437 -100h-128q-17 0 -25 23.5t-8 78.5q0 54 8 77.5t25 23.5h124q400 0 400 193q0 57 -50.5 125t-160.5 160t-290 221l16 185
q181 83 390.5 153t441.5 122zM709 1643l20 -107q-358 -63 -686 -228l-51 97q167 84 348.5 144.5t368.5 93.5zM290 1864l126 126l127 -126l-127 -127zM-28 1768l126 126l127 -126l-127 -127zM66 2078l126 126l127 -126l-127 -127z" />
    <glyph glyph-name="uni06B4.medi" unicode="&#x6b4;" horiz-adv-x="1132" 
d="M649 322q-22 -170 -148 -246t-373 -76h-128q-17 0 -25 23.5t-8 77.5q0 55 8 78.5t25 23.5h124q203 0 299 50t96 141q0 52 -48 120.5t-156.5 163.5t-291.5 224l16 185q184 84 394 154t438 121l30 -201q-214 -51 -372 -98t-280 -95l-1 -8q131 -98 215.5 -171.5t143 -142.5
t110.5 -154q66 -110 121.5 -173.5t123.5 -89.5t169 -26h1v-203h-1q-180 0 -288 74t-184 248h-10zM709 1643l20 -107q-358 -63 -686 -228l-51 97q167 84 348.5 144.5t368.5 93.5zM290 1864l126 126l127 -126l-127 -127zM-28 1768l126 126l127 -126l-127 -127zM66 2078
l126 126l127 -126l-127 -127z" />
    <glyph glyph-name="uni06B4.fina" unicode="&#x6b4;" horiz-adv-x="1966" 
d="M895 2078l126 126l127 -126l-127 -127zM1119 1864l126 126l127 -126l-127 -127zM801 1768l126 126l127 -126l-127 -127zM1483 321q-19 -164 -187.5 -242.5t-503.5 -78.5q-248 0 -402 46.5t-224.5 148t-70.5 265.5q0 134 43 337l178 -41q-18 -88 -28 -160t-10 -117
q0 -101 50 -162t163 -87.5t302 -26.5q559 0 559 196q0 78 -121.5 201.5t-374.5 301.5l16 185q183 84 393.5 154t438.5 121l29 -201q-213 -51 -371 -98t-280 -95l-1 -8q134 -102 218 -175.5t141.5 -141.5t109.5 -153q68 -114 125 -176t125 -86.5t165 -24.5h1v-203h-1
q-181 0 -289 73.5t-183 247.5h-10zM1528 1643l20 -107q-358 -63 -686 -228l-51 97q167 84 348.5 144.5t368.5 93.5z" />
    <glyph glyph-name="uni06B5.init" unicode="&#x6b5;" horiz-adv-x="605" 
d="M401 1598h-90l-211 272l83 65l173 -228l173 228l83 -65zM0 203q106 0 161.5 25.5t75.5 82t20 148.5v888h195v-888q0 -225 -109 -342t-343 -117q-16 0 -25 22t-9 80q0 57 9 79t25 22z" />
    <glyph glyph-name="uni06B5.medi" unicode="&#x6b5;" horiz-adv-x="710" 
d="M401 1598h-90l-211 272l83 65l173 -228l173 228l83 -65zM349 238q-25 -109 -115.5 -173.5t-233.5 -64.5q-16 0 -24.5 22t-8.5 80q0 57 8.5 79t24.5 22q113 0 167.5 29t72 88.5t17.5 148.5v878h194v-868q0 -88 19 -150t74.5 -94t164.5 -32h1v-203h-1q-145 0 -235 65
t-115 173h-10z" />
    <glyph glyph-name="uni06B5.fina" unicode="&#x6b5;" horiz-adv-x="1545" 
d="M1189 1598h-90l-211 272l83 65l173 -228l173 228l83 -65zM1545 203v-203h-6q-98 0 -174 40.5t-110 116.5l-11 -2v-96q0 -275 -161 -421.5t-448 -146.5q-259 0 -400.5 136.5t-141.5 388.5q0 83 17.5 182.5t56.5 233.5l175 -49q-33 -106 -48.5 -195.5t-15.5 -159.5
q0 -333 378 -333q202 0 298 101t96 312v1239h194v-844q0 -145 59.5 -222.5t228.5 -77.5h13z" />
    <glyph glyph-name="uni06B6.init" unicode="&#x6b6;" horiz-adv-x="605" 
d="M203 1734l144 144l144 -144l-144 -145zM0 203q106 0 161.5 25.5t75.5 82t20 148.5v888h195v-888q0 -225 -109 -342t-343 -117q-16 0 -25 22t-9 80q0 57 9 79t25 22z" />
    <glyph glyph-name="uni06B6.medi" unicode="&#x6b6;" horiz-adv-x="710" 
d="M203 1734l144 144l144 -144l-144 -145zM349 238q-25 -109 -115.5 -173.5t-233.5 -64.5q-16 0 -24.5 22t-8.5 80q0 57 8.5 79t24.5 22q113 0 167.5 29t72 88.5t17.5 148.5v878h194v-868q0 -88 19 -150t74.5 -94t164.5 -32h1v-203h-1q-145 0 -235 65t-115 173h-10z" />
    <glyph glyph-name="uni06B6.fina" unicode="&#x6b6;" horiz-adv-x="1545" 
d="M999 1734l144 144l144 -144l-144 -145zM1545 203v-203h-6q-98 0 -174 40.5t-110 116.5l-11 -2v-96q0 -275 -161 -421.5t-448 -146.5q-259 0 -400.5 136.5t-141.5 388.5q0 83 17.5 182.5t56.5 233.5l175 -49q-33 -106 -48.5 -195.5t-15.5 -159.5q0 -333 378 -333
q202 0 298 101t96 312v1239h194v-844q0 -145 59.5 -222.5t228.5 -77.5h13z" />
    <glyph glyph-name="uni06B7.init" unicode="&#x6b7;" horiz-adv-x="605" 
d="M204 2029l143 144l145 -144l-145 -144zM378 1715l144 144l145 -144l-145 -145zM29 1715l144 144l145 -144l-145 -145zM0 203q106 0 161.5 25.5t75.5 82t20 148.5v888h195v-888q0 -225 -109 -342t-343 -117q-16 0 -25 22t-9 80q0 57 9 79t25 22z" />
    <glyph glyph-name="uni06B7.medi" unicode="&#x6b7;" horiz-adv-x="710" 
d="M204 2029l143 144l145 -144l-145 -144zM378 1715l144 144l145 -144l-145 -145zM29 1715l144 144l145 -144l-145 -145zM349 238q-25 -109 -115.5 -173.5t-233.5 -64.5q-16 0 -24.5 22t-8.5 80q0 57 8.5 79t24.5 22q113 0 167.5 29t72 88.5t17.5 148.5v878h194v-868
q0 -88 19 -150t74.5 -94t164.5 -32h1v-203h-1q-145 0 -235 65t-115 173h-10z" />
    <glyph glyph-name="uni06B7.fina" unicode="&#x6b7;" horiz-adv-x="1545" 
d="M998 2029l143 144l145 -144l-145 -144zM1172 1715l144 144l145 -144l-145 -145zM823 1715l144 144l145 -144l-145 -145zM1545 203v-203h-6q-98 0 -174 40.5t-110 116.5l-11 -2v-96q0 -275 -161 -421.5t-448 -146.5q-259 0 -400.5 136.5t-141.5 388.5q0 83 17.5 182.5
t56.5 233.5l175 -49q-33 -106 -48.5 -195.5t-15.5 -159.5q0 -333 378 -333q202 0 298 101t96 312v1239h194v-844q0 -145 59.5 -222.5t228.5 -77.5h13z" />
    <glyph glyph-name="uni06B8.init" unicode="&#x6b8;" horiz-adv-x="605" 
d="M170 -354l144 144l145 -144l-145 -145zM-179 -354l144 144l145 -144l-145 -145zM-3 -668l143 144l145 -144l-145 -145zM0 203q106 0 161.5 25.5t75.5 82t20 148.5v888h195v-888q0 -225 -109 -342t-343 -117q-16 0 -25 22t-9 80q0 57 9 79t25 22z" />
    <glyph glyph-name="uni06B8.medi" unicode="&#x6b8;" horiz-adv-x="710" 
d="M170 -354l144 144l145 -144l-145 -145zM-179 -354l144 144l145 -144l-145 -145zM-3 -668l143 144l145 -144l-145 -145zM349 238q-25 -109 -115.5 -173.5t-233.5 -64.5q-16 0 -24.5 22t-8.5 80q0 57 8.5 79t24.5 22q113 0 167.5 29t72 88.5t17.5 148.5v878h194v-868
q0 -88 19 -150t74.5 -94t164.5 -32h1v-203h-1q-145 0 -235 65t-115 173h-10z" />
    <glyph glyph-name="uni06B8.fina" unicode="&#x6b8;" horiz-adv-x="1545" 
d="M670 -795l144 144l145 -144l-145 -145zM321 -795l144 144l145 -144l-145 -145zM497 -1109l143 144l145 -144l-145 -145zM1545 203v-203h-6q-98 0 -174 40.5t-110 116.5l-11 -2v-96q0 -275 -161 -421.5t-448 -146.5q-259 0 -400.5 136.5t-141.5 388.5q0 83 17.5 182.5
t56.5 233.5l175 -49q-33 -106 -48.5 -195.5t-15.5 -159.5q0 -333 378 -333q202 0 298 101t96 312v1239h194v-844q0 -145 59.5 -222.5t228.5 -77.5h13z" />
    <glyph glyph-name="uni06B9.init" unicode="&#x6b9;" horiz-adv-x="590" 
d="M-2 -354l144 144l144 -144l-144 -145zM437 792q29 -110 45.5 -207t16.5 -174q0 -200 -109.5 -305.5t-342.5 -105.5h-47q-33 0 -33 102q0 101 33 101h47q141 0 202 56t61 168q0 56 -15 136.5t-39 178.5zM93 1159l144 144l144 -144l-144 -145z" />
    <glyph glyph-name="uni06B9.medi" unicode="&#x6b9;" horiz-adv-x="837" 
d="M-2 -354l144 144l144 -144l-144 -145zM518 494q0 -99 19 -163.5t73.5 -96t162.5 -31.5h64v-203h-67q-127 0 -220.5 61t-125.5 173h-10q-32 -112 -135.5 -173t-231.5 -61h-47q-33 0 -33 102q0 101 33 101h47q116 0 175.5 32t80 96.5t20.5 162.5v144h195v-144zM171 1013
l144 144l144 -144l-144 -145z" />
    <glyph glyph-name="uni06B9.fina" unicode="&#x6b9;" horiz-adv-x="1709" 
d="M633 -846l144 144l144 -144l-144 -145zM631 386l144 144l144 -144l-144 -145zM159 567l184 -40q-31 -155 -43.5 -246t-12.5 -156q0 -223 123 -316.5t362 -93.5q507 0 507 359q0 83 -35.5 199.5t-115.5 306.5l178 86l79 -203q41 -102 79 -158.5t92.5 -79t143.5 -22.5h9
v-203h-3q-155 0 -251 117l-9 -3q23 -292 -157 -447t-512 -155q-328 0 -503 144t-175 458q0 86 14 195.5t46 257.5z" />
    <glyph glyph-name="uni06BC.init" unicode="&#x6bc;" horiz-adv-x="590" 
d="M0 80q82 0 131 -49t49 -132q0 -78 -49.5 -128t-130.5 -50q-79 0 -129.5 48.5t-50.5 129.5q0 80 51 130.5t129 50.5zM0 0q-96 0 -96 -90q0 -43 26 -67t70 -24t70 24t26 67t-26 66.5t-70 23.5zM437 792q29 -110 45.5 -207t16.5 -174q0 -200 -109.5 -305.5t-342.5 -105.5
h-47q-33 0 -33 102q0 101 33 101h47q141 0 202 56t61 168q0 56 -15 136.5t-39 178.5zM93 1159l144 144l144 -144l-144 -145z" />
    <glyph glyph-name="uni06BC.medi" unicode="&#x6bc;" horiz-adv-x="837" 
d="M0 80q82 0 131 -49t49 -132q0 -78 -49.5 -128t-130.5 -50q-79 0 -129.5 48.5t-50.5 129.5q0 80 51 130.5t129 50.5zM0 0q-96 0 -96 -90q0 -43 26 -67t70 -24t70 24t26 67t-26 66.5t-70 23.5zM518 494q0 -99 19 -163.5t73.5 -96t162.5 -31.5h64v-203h-67q-127 0 -220.5 61
t-125.5 173h-10q-32 -112 -135.5 -173t-231.5 -61h-47q-33 0 -33 102q0 101 33 101h47q116 0 175.5 32t80 96.5t20.5 162.5v144h195v-144zM171 1013l144 144l144 -144l-144 -145z" />
    <glyph glyph-name="uni06BC.fina" unicode="&#x6bc;" horiz-adv-x="1709" 
d="M777 -413q82 0 131 -49t49 -132q0 -78 -49.5 -128t-130.5 -50q-79 0 -129.5 48.5t-50.5 129.5q0 80 51 130.5t129 50.5zM777 -493q-96 0 -96 -90q0 -43 26 -67t70 -24t70 24t26 67t-26 66.5t-70 23.5zM631 386l144 144l144 -144l-144 -145zM159 567l184 -40
q-31 -155 -43.5 -246t-12.5 -156q0 -223 123 -316.5t362 -93.5q507 0 507 359q0 83 -35.5 199.5t-115.5 306.5l178 86l79 -203q41 -102 79 -158.5t92.5 -79t143.5 -22.5h9v-203h-3q-155 0 -251 117l-9 -3q23 -292 -157 -447t-512 -155q-328 0 -503 144t-175 458
q0 86 14 195.5t46 257.5z" />
    <glyph glyph-name="uni06BD.fina" unicode="&#x6bd;" horiz-adv-x="1709" 
d="M888 406l-110 -109l-109 109l109 110zM739 169l-113 -114l-113 114l113 114zM1043 168l-114 -114l-113 114l113 114zM159 567l184 -40q-31 -155 -43.5 -246t-12.5 -156q0 -223 123 -316.5t362 -93.5q507 0 507 359q0 83 -35.5 199.5t-115.5 306.5l178 86l79 -203
q41 -102 79 -158.5t92.5 -79t143.5 -22.5h9v-203h-3q-155 0 -251 117l-9 -3q23 -292 -157 -447t-512 -155q-328 0 -503 144t-175 458q0 86 14 195.5t46 257.5z" />
    <glyph glyph-name="uni06BF.init" unicode="&#x6bf;" horiz-adv-x="1288" 
d="M467 1273l144 144l144 -144l-144 -145zM587 -300l144 144l145 -144l-145 -145zM238 -300l144 144l145 -144l-145 -145zM414 -614l143 144l145 -144l-145 -145zM431 885q52 0 125.5 -23.5t215.5 -85.5q137 -59 233.5 -93t190.5 -57v-168l-496 -284q-160 -93 -297 -133.5
t-290 -40.5h-113q-17 0 -25 23.5t-8 78.5q0 54 8 77.5t25 23.5h149q80 0 150.5 12.5t147 41t173.5 77.5l329 172v10q-58 15 -124.5 39t-153.5 61q-98 39 -152.5 55.5t-88.5 16.5q-66 0 -109 -42t-81 -141l-8 -19l-144 46l7 19q57 178 137 256t199 78z" />
    <glyph glyph-name="uni06BF.medi" unicode="&#x6bf;" horiz-adv-x="1337" 
d="M467 1273l144 144l144 -144l-144 -145zM587 -300l144 144l145 -144l-145 -145zM238 -300l144 144l145 -144l-145 -145zM414 -614l143 144l145 -144l-145 -145zM431 885q52 0 125.5 -23t215.5 -86q137 -59 233.5 -93t190.5 -57v-168l-223 -121v-10q67 -71 144.5 -97.5
t161.5 -26.5h58v-203h-61q-127 0 -237.5 57t-202.5 193l-136 -76q-160 -93 -297 -133.5t-290 -40.5h-113q-17 0 -25 23.5t-8 78.5q0 54 8 77.5t25 23.5h149q80 0 150.5 12.5t147 41t173.5 77.5l329 172v10q-58 15 -124.5 39t-153.5 61q-98 39 -152.5 55.5t-88.5 16.5
q-66 0 -109 -42t-81 -141l-8 -19l-144 46l7 19q58 177 137.5 255.5t198.5 78.5z" />
    <glyph glyph-name="uni06BF.fina" unicode="&#x6bf;" horiz-adv-x="1397" 
d="M558 1303l144 144l144 -144l-144 -145zM497 -61l113 114l113 -114l-113 -114zM800 -61l113 113l114 -113l-114 -114zM652 -299l110 109l108 -109l-108 -110zM467 909q56 0 133 -23.5t204 -80.5q160 -71 258.5 -108t183.5 -58l-22 -220q-55 -7 -98.5 -14t-78.5 -15v-10
q46 -94 115 -135.5t175 -41.5h60v-203h-38q-169 0 -274 86.5t-158 266.5q-188 -41 -334.5 -123t-230.5 -188.5t-84 -221.5q0 -145 135.5 -232t364.5 -87q124 0 242.5 24.5t218.5 70.5l88 -177q-272 -126 -550 -126q-208 0 -362.5 63t-240 177.5t-85.5 267.5
q0 173 112.5 321.5t315.5 255t473 151.5v10q-56 14 -122 38t-161 63q-100 40 -154 56.5t-87 16.5q-66 0 -109.5 -42t-81.5 -141l-7 -19l-143 44l6 21q57 176 136 254.5t200 78.5z" />
    <glyph glyph-name="uni06C1.init" unicode="&#x6c1;" horiz-adv-x="1292" arabic-form="initial" 
d="M518 494q0 -157 54.5 -224t187.5 -67q130 0 191 54t61 170q0 89 -54 315l181 50q61 -243 61 -381q0 -206 -109 -308.5t-320 -102.5q-139 0 -227 62t-120 172h-10q-31 -106 -131 -170t-236 -64h-47q-17 0 -25 23.5t-8 78.5q0 54 8 77.5t25 23.5h47q105 0 165.5 26.5
t85.5 90.5t25 174v144h195v-144zM789 -508l14 -3q34 26 70 26q41 0 73.5 -35t32.5 -91q0 -65 -37 -103.5t-100 -38.5q-75 0 -116.5 54t-41.5 151q0 206 191 353l67 -79q-74 -52 -110 -107.5t-43 -126.5z" />
    <glyph glyph-name="uni06C4.fina" unicode="&#x6c4;" horiz-adv-x="936" 
d="M262 -34q72 0 116.5 -44t44.5 -118q0 -73 -44.5 -120t-116.5 -47q-76 0 -122 45.5t-46 121.5q0 72 47 117t121 45zM264 -117q-96 0 -96 -89q0 -43 26 -67.5t70 -24.5t69.5 24.5t25.5 67.5q0 89 -95 89zM680 -5l-6 11q-56 -4 -112 -5t-109 -1q-158 0 -249 77.5t-91 240.5
q0 121 39 229.5t118 177t198 68.5q101 0 172 -51.5t117.5 -137t71.5 -190t33 -211.5h74v-203h-80q-28 -193 -208.5 -325t-485.5 -216l-82 185q247 57 406.5 148t193.5 203zM683 199q-2 62 -14 130t-37 127t-66.5 96t-102.5 37q-63 0 -105 -36t-62.5 -92t-20.5 -116
q0 -84 51 -116.5t136 -32.5q54 0 109.5 0.5t111.5 2.5z" />
    <glyph glyph-name="uni06CA.fina" unicode="&#x6ca;" horiz-adv-x="936" 
d="M154 1169l144 144l145 -144l-145 -145zM503 1169l144 144l145 -144l-145 -145zM680 -5l-6 11q-56 -4 -112 -5t-109 -1q-158 0 -249 77.5t-91 240.5q0 121 39 229.5t118 177t198 68.5q101 0 172 -51.5t117.5 -137t71.5 -190t33 -211.5h74v-203h-80q-28 -193 -208.5 -325
t-485.5 -216l-82 185q247 57 406.5 148t193.5 203zM683 199q-2 62 -14 130t-37 127t-66.5 96t-102.5 37q-63 0 -105 -36t-62.5 -92t-20.5 -116q0 -84 51 -116.5t136 -32.5q54 0 109.5 0.5t111.5 2.5z" />
    <glyph glyph-name="uni06CD.fina" unicode="&#x6cd;" horiz-adv-x="1832" 
d="M1551 -10q110 -50 154 -99t44 -122q0 -100 -86 -181t-233 -128t-331 -47q-327 0 -484.5 134.5t-157.5 414.5q0 148 29 368q-84 -26 -184.5 -61.5t-169.5 -63.5l-59 161q171 65 273.5 94.5t170.5 29.5q81 0 170 -54q-23 -141 -35 -259t-12 -201q0 -191 107.5 -275
t351.5 -84q200 0 325 52t125 136q0 39 -38 67t-135.5 55t-275.5 62l28 214h721v-203h-298v-10z" />
    <glyph glyph-name="uni06CE.init" unicode="&#x6ce;" horiz-adv-x="590" 
d="M347 1033h-90l-211 272l83 65l173 -228l173 228l83 -65zM437 792q29 -110 45.5 -207t16.5 -174q0 -200 -109.5 -305.5t-342.5 -105.5h-47q-33 0 -33 102q0 101 33 101h47q141 0 202 56t61 168q0 56 -15 136.5t-39 178.5zM-189 -354l144 144l145 -144l-145 -145zM160 -354
l144 144l145 -144l-145 -145z" />
    <glyph glyph-name="uni06CE.medi" unicode="&#x6ce;" horiz-adv-x="837" 
d="M464 851h-90l-211 272l83 65l173 -228l173 228l83 -65zM518 494q0 -99 19 -163.5t73.5 -96t162.5 -31.5h64v-203h-67q-127 0 -220.5 61t-125.5 173h-10q-32 -112 -135.5 -173t-231.5 -61h-47q-33 0 -33 102q0 101 33 101h47q116 0 175.5 32t80 96.5t20.5 162.5v144h195
v-144zM-221 -354l144 144l145 -144l-145 -145zM128 -354l144 144l145 -144l-145 -145z" />
    <glyph glyph-name="uni06CE.fina" unicode="&#x6ce;" horiz-adv-x="1486" 
d="M939 525h-90l-211 272l83 65l173 -228l173 228l83 -65zM1188 -10q110 -50 154 -99t44 -122q0 -100 -86 -181t-233 -128t-331 -47q-327 0 -484.5 134.5t-157.5 414.5q0 98 13 229t37 280l180 -35q-23 -141 -35 -259t-12 -201q0 -191 107.5 -275t351.5 -84q200 0 325 52
t125 136q0 39 -38 67t-135.5 55t-275.5 62l28 214h721v-203h-298v-10z" />
    <glyph glyph-name="uni06CF.fina" unicode="&#x6cf;" horiz-adv-x="936" 
d="M330 1190l144 144l144 -144l-144 -145zM680 -5l-6 11q-56 -4 -112 -5t-109 -1q-158 0 -249 77.5t-91 240.5q0 121 39 229.5t118 177t198 68.5q101 0 172 -51.5t117.5 -137t71.5 -190t33 -211.5h74v-203h-80q-28 -193 -208.5 -325t-485.5 -216l-82 185q247 57 406.5 148
t193.5 203zM683 199q-2 62 -14 130t-37 127t-66.5 96t-102.5 37q-63 0 -105 -36t-62.5 -92t-20.5 -116q0 -84 51 -116.5t136 -32.5q54 0 109.5 0.5t111.5 2.5z" />
    <glyph glyph-name="uni06D1.fina" unicode="&#x6d1;" horiz-adv-x="1486" 
d="M428 -891l144 144l145 -144l-145 -145zM777 -891l144 144l145 -144l-145 -145zM612 -1164l135 135l136 -135l-136 -136zM1188 -10q110 -50 154 -99t44 -122q0 -100 -86 -181t-233 -128t-331 -47q-327 0 -484.5 134.5t-157.5 414.5q0 98 13 229t37 280l180 -35
q-23 -141 -35 -259t-12 -201q0 -191 107.5 -275t351.5 -84q200 0 325 52t125 136q0 39 -38 67t-135.5 55t-275.5 62l28 214h721v-203h-298v-10z" />
    <glyph glyph-name="uni06EE.fina" unicode="&#x6ee;" horiz-adv-x="1290" 
d="M578 1585h90l211 -272l-83 -65l-173 228l-173 -228l-83 65zM736 1027l267 -625q35 -81 71.5 -124t85 -59t117.5 -16h13v-203h-13q-136 0 -228 52.5t-141 174.5h-10q-48 -113 -163 -175t-256 -62q-100 0 -201 35.5t-190 107.5l93 161q71 -51 148.5 -76t147.5 -25
q101 0 189 41.5t144 120.5l-258 584z" />
    <glyph glyph-name="uni06EF.fina" unicode="&#x6ef;" horiz-adv-x="773" 
d="M252 1276h90l211 -272l-83 -65l-173 228l-173 -228l-83 65zM193 608l182 64l66 -203q32 -99 71.5 -157.5t100.5 -83.5t159 -25h1v-203h-1q-194 0 -285 129l-10 -3q17 -246 -131.5 -401.5t-459.5 -268.5l-86 183q272 95 388.5 201.5t116.5 260.5q0 88 -29.5 220t-82.5 287
z" />
    <glyph glyph-name="uni06FA.init" unicode="&#x6fa;" horiz-adv-x="1669" 
d="M808 1302l143 144l145 -144l-145 -144zM982 988l144 144l145 -144l-145 -145zM633 988l144 144l145 -144l-145 -145zM697 203q86 0 126 50.5t50 156.5l17 186l173 -13l-14 -179q-10 -100 36 -150.5t135 -50.5q165 0 165 189q0 30 -4.5 79.5t-11.5 103t-15 94.5l188 45
q14 -70 25 -159t11 -160q0 -200 -84 -297.5t-244 -97.5q-122 0 -190.5 57.5t-90.5 153.5h-10q-50 -211 -273 -211q-121 0 -188.5 60t-88.5 169h-10q-36 -103 -128 -166t-224 -63h-47q-33 0 -33 103q0 100 33 100h47q138 0 203 65.5t81 211.5l16 165l194 -14l-19 -212
q-11 -102 34.5 -159t140.5 -57zM817 -354l144 144l144 -144l-144 -145z" />
    <glyph glyph-name="uni06FA.medi" unicode="&#x6fa;" horiz-adv-x="1886" 
d="M808 1302l143 144l145 -144l-145 -144zM982 988l144 144l145 -144l-145 -145zM633 988l144 144l145 -144l-145 -145zM1508 256q-18 -127 -82 -191.5t-183 -64.5q-120 0 -186 57.5t-88 153.5h-10q-51 -211 -272 -211q-122 0 -189 60t-89 169h-10q-36 -103 -128 -166
t-224 -63h-47q-33 0 -33 103q0 100 33 100h47q138 0 203 65.5t81 211.5l16 165l194 -14l-19 -212q-11 -102 34.5 -159t140.5 -57q86 0 126 50t50 157l17 186l173 -13l-14 -179q-9 -101 35.5 -151t130.5 -50q167 0 167 186q0 40 -9.5 113.5t-24.5 150.5l188 38l24 -164
q19 -124 55.5 -194.5t101 -100t167.5 -29.5h2v-203h-2q-161 0 -249.5 67.5t-116.5 188.5h-10zM817 -354l144 144l144 -144l-144 -145z" />
    <glyph glyph-name="uni06FA.fina" unicode="&#x6fa;" horiz-adv-x="2762" 
d="M1667 1302l143 144l145 -144l-145 -144zM1841 988l144 144l145 -144l-145 -145zM1492 988l144 144l145 -144l-145 -145zM2385 256q-37 -256 -262 -256q-109 0 -181 52.5t-96 158.5h-10q-25 -103 -89 -157t-158 -54q-106 0 -173 69l-6 -4q0 -184 -83 -305.5t-229.5 -181.5
t-338.5 -60q-320 0 -490 143t-170 453q0 86 14.5 196t45.5 257l184 -40q-31 -156 -43.5 -247t-12.5 -156q0 -219 118.5 -311.5t348.5 -92.5q232 0 359 81t127 270q0 89 -33 204t-115 305l181 85l115 -314q28 -73 72.5 -110.5t121.5 -37.5q83 0 124 49t51 161l15 183l171 -13
l-14 -179q-9 -103 37.5 -152t134.5 -49q157 0 157 186q0 41 -10 114.5t-24 149.5l187 38l26 -164q21 -126 56.5 -196.5t99 -99t167.5 -28.5h2v-203h-2q-306 0 -365 256h-10zM1697 -354l144 144l144 -144l-144 -145z" />
    <glyph glyph-name="uni06FB.init" unicode="&#x6fb;" horiz-adv-x="1633" 
d="M827 -354l144 144l144 -144l-144 -145zM1034 1183l144 144l144 -144l-144 -145zM394 240q-34 -119 -136.5 -179.5t-250.5 -60.5h-7q-33 0 -33 102q0 101 33 101h7q111 0 167.5 32.5t76.5 93.5t20 147v172h194v-152q4 -92 26 -129t59 -60q184 268 341.5 379t296.5 111
q108 0 187.5 -50.5t123 -136.5t43.5 -195q0 -142 -81 -234t-217 -136.5t-300 -44.5q-217 0 -351.5 56.5t-189.5 183.5h-9zM1166 597q-97 0 -217.5 -78.5t-254.5 -277.5q53 -21 119.5 -29.5t142.5 -8.5q104 0 196 18t150 64.5t58 132.5q0 78 -52.5 128.5t-141.5 50.5z" />
    <glyph glyph-name="uni06FB.medi" unicode="&#x6fb;" horiz-adv-x="1694" 
d="M827 -354l144 144l144 -144l-144 -145zM1034 1183l144 144l144 -144l-144 -145zM271 648h194v-152q4 -92 26 -129t59 -60q184 268 341.5 379t296.5 111q108 0 187.5 -50.5t123 -136.5t43.5 -195q0 -50 -13.5 -91.5t-36.5 -75.5q74 -45 201 -45h1v-203h-1q-201 0 -307 112
q-81 -59 -196 -85.5t-246 -26.5q-217 0 -351.5 56.5t-189.5 183.5h-9q-34 -119 -136.5 -179.5t-250.5 -60.5h-7q-33 0 -33 102q0 101 33 101h7q111 0 167.5 32.5t76.5 93.5t20 147v172zM1166 597q-97 0 -217.5 -78.5t-254.5 -277.5q53 -21 119.5 -29.5t142.5 -8.5
q104 0 196 18t150 64.5t58 132.5q0 78 -52.5 128.5t-141.5 50.5z" />
    <glyph glyph-name="uni06FB.fina" unicode="&#x6fb;" horiz-adv-x="2536" 
d="M1741 -354l144 144l144 -144l-144 -145zM2033 797q103 0 182 -48t123.5 -134t44.5 -200q0 -96 -51 -164q71 -48 203 -48h1v-203h-1q-193 0 -303 111q-73 -53 -182 -82t-252 -29q-242 0 -394 86q-7 -272 -177.5 -420t-478.5 -148q-649 0 -649 596q0 175 60 453l184 -40
q-31 -151 -43.5 -243t-12.5 -160q0 -209 110.5 -306.5t345.5 -97.5q474 0 474 374q0 84 -31.5 194t-110.5 292l181 86q51 -117 81 -207t44 -167q160 245 326.5 375t325.5 130zM2007 597q-112 0 -233.5 -92t-238.5 -264q97 -38 262 -38q201 0 302.5 56t101.5 159
q0 81 -53.5 130t-140.5 49zM1887 1183l144 144l144 -144l-144 -145z" />
    <glyph glyph-name="uni06FC.init" unicode="&#x6fc;" horiz-adv-x="1091" 
d="M430 -354l144 144l144 -144l-144 -145zM417 1359l144 144l144 -144l-144 -145zM305 472q0 -217 302 -217q40 0 93 4t122 14l130 18l22 -198l-233 -28q-211 -30 -400 -47.5t-301 -17.5h-40q-33 0 -33 102q0 101 33 101h33q61 0 122.5 2.5t117.5 7.5v14q-73 33 -114.5 102
t-41.5 163q0 122 58.5 218.5t160.5 152.5t231 56q191 0 336 -120l-91 -151q-122 73 -244 73q-115 0 -189 -70t-74 -179z" />
    <glyph glyph-name="uni06FC.medi" unicode="&#x6fc;" horiz-adv-x="1185" 
d="M484 -354l144 144l144 -144l-144 -145zM483 1314l144 144l144 -144l-144 -145zM618 907q112 0 206.5 -36t152 -106.5t57.5 -173.5q0 -94 -66 -172t-170 -146v-10q56 -44 116.5 -52t127.5 -8h143v-203h-168q-113 0 -201.5 27.5t-180.5 117.5q-104 -67 -223 -106t-263 -39
h-149q-33 0 -33 102q0 101 33 101h139q104 0 190 19t155 48v10l-348 322v136q105 80 224 124.5t258 44.5zM629 710q-159 0 -282 -71v-4l292 -298q101 57 160 116.5t59 122.5q0 48 -34 77.5t-86.5 43t-108.5 13.5z" />
    <glyph glyph-name="uni06FC.fina" unicode="&#x6fc;" horiz-adv-x="1209" 
d="M569 -226l144 144l144 -144l-144 -145zM520 1319l144 144l144 -144l-144 -145zM1072 591q0 -168 -234 -316v-10q43 -34 95.5 -48t137.5 -14h138v-203h-120q-133 0 -224 34t-184 118q-199 -98 -298 -197t-99 -225q0 -129 130.5 -203.5t355.5 -74.5q163 0 336 38l44 -197
q-206 -49 -383 -49q-203 0 -354 57.5t-234 162t-83 244.5q0 323 444 545v10l-366 339v136q224 169 481 169q187 0 302 -87.5t115 -228.5zM896 576q0 60 -62.5 97t-166.5 37q-159 0 -283 -71v-4l294 -298q218 123 218 239z" />
    <glyph glyph-name="uni06FF.init" unicode="&#x6ff;" horiz-adv-x="1378" 
d="M770 1557h90l211 -272l-83 -65l-173 228l-173 -228l-83 65zM0 203h59q73 0 127.5 7.5t110.5 25.5q-170 134 -170 286q0 98 56 180t153 112l2 10l-170 73l80 177l537 -230q183 -77 292 -151t157.5 -159t48.5 -194q0 -163 -102.5 -257t-279.5 -94q-208 0 -417 118
q-94 -55 -192 -81t-217 -26h-75q-33 0 -33 102q0 101 33 101zM492 279q89 44 138 108.5t49 137.5q0 98 -48.5 154t-131.5 56t-144 -63.5t-61 -152.5q0 -64 52 -127t146 -113zM670 242q62 -23 125.5 -36.5t118.5 -13.5q206 0 206 157q0 85 -72.5 149.5t-248.5 136.5
q41 -121 7.5 -221.5t-136.5 -171.5z" />
    <glyph glyph-name="uni06FF.medi" unicode="&#x6ff;" horiz-adv-x="1028" 
d="M454 1398h90l211 -272l-83 -65l-173 228l-173 -228l-83 65zM515 866q133 0 219 -92.5t86 -241.5q0 -119 -64.5 -222.5t-182 -177t-275.5 -104.5q24 -100 79.5 -195.5t141.5 -166.5h5q82 167 141.5 272.5t109.5 163t100.5 79.5t114.5 22h38v-203h-38q-48 0 -88.5 -22.5
t-82.5 -79.5t-93 -160t-121 -264h-146q-133 112 -211 247.5t-107 278.5h-141q-33 0 -33 102q0 101 33 101h123q-8 224 42.5 371t143 219.5t206.5 72.5zM281 212q169 13 273 95.5t104 203.5q0 74 -40 119t-102 45q-106 0 -177 -113.5t-58 -349.5z" />
    <glyph glyph-name="uni06FF.fina" unicode="&#x6ff;" horiz-adv-x="1156" 
d="M713 1565h90l211 -272l-83 -65l-173 228l-173 -228l-83 65zM692 885l-9 160l194 11l35 -577q7 -107 30.5 -167.5t74 -84.5t138.5 -24h1v-203h-1q-141 0 -228.5 48.5t-136.5 146.5q-111 -47 -234 -47q-111 0 -200.5 33t-142 97.5t-52.5 157.5q0 172 140.5 289t390.5 160z
M705 697q-169 -17 -269.5 -76.5t-100.5 -148.5q0 -71 68 -104t165 -33q92 0 167 23q-6 29 -9 53.5t-5 52.5z" />
    <glyph glyph-name="uniFB50" unicode="&#x671;" horiz-adv-x="528" arabic-form="isolated" 
d="M362 1193v-1193h-194v1193h194zM285 1617q74 89 124 123.5t104 34.5q62 0 96.5 -38t34.5 -104q0 -85 -55 -140.5t-141 -55.5q-62 0 -154 53q-36 22 -58.5 30.5t-42.5 8.5q-34 0 -59.5 -24.5t-63.5 -95.5l-80 52q84 189 193 189q21 0 43 -7t59 -26zM350 1582
q34 -16 56 -22.5t46 -6.5q106 0 106 69q0 26 -17.5 42.5t-46.5 16.5q-31 0 -61 -20.5t-83 -78.5z" />
    <glyph glyph-name="uniFB51" unicode="&#x671;" horiz-adv-x="617" arabic-form="final" 
d="M151 1193h195v-743q0 -133 59.5 -190t210.5 -57h1v-203h-1q-226 0 -345.5 111.5t-119.5 334.5v747zM285 1617q74 89 124 123.5t104 34.5q62 0 96.5 -38t34.5 -104q0 -85 -55 -140.5t-141 -55.5q-62 0 -154 53q-36 22 -58.5 30.5t-42.5 8.5q-34 0 -59.5 -24.5t-63.5 -95.5
l-80 52q84 189 193 189q21 0 43 -7t59 -26zM350 1582q34 -16 56 -22.5t46 -6.5q106 0 106 69q0 26 -17.5 42.5t-46.5 16.5q-31 0 -61 -20.5t-83 -78.5z" />
    <glyph glyph-name="uniFB52" unicode="&#x67b;" horiz-adv-x="1779" arabic-form="isolated" 
d="M745 -354l144 145l144 -145l-144 -144zM745 -703l144 144l144 -144l-144 -145zM1638 798q23 -83 36.5 -166t13.5 -155q0 -180 -80.5 -284t-256 -148.5t-461.5 -44.5q-284 0 -460 44t-256.5 146.5t-80.5 277.5q0 69 13.5 154.5t35.5 175.5l176 -41q-17 -73 -28.5 -144
t-11.5 -123q0 -114 58 -176t192 -86.5t362 -24.5q231 0 365 25.5t190.5 89t56.5 178.5q0 54 -10.5 123t-27.5 138z" />
    <glyph glyph-name="uniFB53" unicode="&#x67b;" horiz-adv-x="1954" arabic-form="final" 
d="M718 -354l144 145l144 -145l-144 -144zM718 -703l144 144l144 -144l-144 -145zM1725 666q-13 -76 -21.5 -136t-8.5 -112q0 -95 53 -155t205 -60h1v-203h-1q-163 0 -266.5 66.5t-137.5 210.5h-10q-98 -158 -290.5 -217.5t-461.5 -59.5q-361 0 -527.5 127.5t-166.5 370.5
q0 149 58 334l172 -50q-49 -155 -49 -264q0 -162 127 -238.5t417 -76.5q250 0 398.5 50t224 158.5t106.5 283.5z" />
    <glyph glyph-name="uniFB54" unicode="&#x67b;" horiz-adv-x="590" arabic-form="initial" 
d="M-2 -354l144 145l144 -145l-144 -144zM-2 -703l144 144l144 -144l-144 -145zM437 792q29 -110 45.5 -207t16.5 -174q0 -200 -109.5 -305.5t-342.5 -105.5h-47q-33 0 -33 102q0 101 33 101h47q141 0 202 56t61 168q0 56 -15 136.5t-39 178.5z" />
    <glyph glyph-name="uniFB55" unicode="&#x67b;" horiz-adv-x="837" arabic-form="medial" 
d="M-2 -354l144 145l144 -145l-144 -144zM-2 -703l144 144l144 -144l-144 -145zM518 494q0 -99 19 -163.5t73.5 -96t162.5 -31.5h64v-203h-67q-127 0 -220.5 61t-125.5 173h-10q-32 -112 -135.5 -173t-231.5 -61h-47q-33 0 -33 102q0 101 33 101h47q116 0 175.5 32t80 96.5
t20.5 162.5v144h195v-144z" />
    <glyph glyph-name="uniFB56" unicode="&#x67e;" horiz-adv-x="1779" arabic-form="isolated" 
d="M1638 798q23 -83 36.5 -166t13.5 -155q0 -180 -80.5 -284t-256 -148.5t-461.5 -44.5q-284 0 -460 44t-256.5 146.5t-80.5 277.5q0 69 13.5 154.5t35.5 175.5l176 -41q-17 -73 -28.5 -144t-11.5 -123q0 -114 58 -176t192 -86.5t362 -24.5q231 0 365 25.5t190.5 89
t56.5 178.5q0 54 -10.5 123t-27.5 138zM917 -354l144 144l145 -144l-145 -145zM568 -354l144 144l145 -144l-145 -145zM744 -668l143 144l145 -144l-145 -145z" />
    <glyph glyph-name="uniFB57" unicode="&#x67e;" horiz-adv-x="1954" arabic-form="final" 
d="M873 -353l144 144l145 -144l-145 -145zM524 -353l144 144l145 -144l-145 -145zM700 -667l143 144l145 -144l-145 -145zM1725 666q-13 -76 -21.5 -136t-8.5 -112q0 -95 53 -155t205 -60h1v-203h-1q-163 0 -266.5 66.5t-137.5 210.5h-10q-98 -158 -290.5 -217.5
t-461.5 -59.5q-361 0 -527.5 127.5t-166.5 370.5q0 149 58 334l172 -50q-49 -155 -49 -264q0 -162 127 -238.5t417 -76.5q250 0 398.5 50t224 158.5t106.5 283.5z" />
    <glyph glyph-name="uniFB58" unicode="&#x67e;" horiz-adv-x="590" arabic-form="initial" 
d="M170 -353l144 144l145 -144l-145 -145zM-179 -353l144 144l145 -144l-145 -145zM-3 -667l143 144l145 -144l-145 -145zM437 792q29 -110 45.5 -207t16.5 -174q0 -200 -109.5 -305.5t-342.5 -105.5h-47q-33 0 -33 102q0 101 33 101h47q141 0 202 56t61 168q0 56 -15 136.5
t-39 178.5z" />
    <glyph glyph-name="uniFB59" unicode="&#x67e;" horiz-adv-x="837" arabic-form="medial" 
d="M138 -353l144 144l145 -144l-145 -145zM-211 -353l144 144l145 -144l-145 -145zM-35 -667l143 144l145 -144l-145 -145zM518 494q0 -99 19 -163.5t73.5 -96t162.5 -31.5h64v-203h-67q-127 0 -220.5 61t-125.5 173h-10q-32 -112 -135.5 -173t-231.5 -61h-47q-33 0 -33 102
q0 101 33 101h47q116 0 175.5 32t80 96.5t20.5 162.5v144h195v-144z" />
    <glyph glyph-name="uniFB5A" unicode="&#x680;" horiz-adv-x="1779" arabic-form="isolated" 
d="M917 -354l144 144l145 -144l-145 -145zM568 -354l144 144l145 -144l-145 -145zM568 -703l144 144l145 -144l-145 -145zM917 -703l144 144l145 -144l-145 -145zM1638 798q23 -83 36.5 -166t13.5 -155q0 -180 -80.5 -284t-256 -148.5t-461.5 -44.5q-284 0 -460 44
t-256.5 146.5t-80.5 277.5q0 69 13.5 154.5t35.5 175.5l176 -41q-17 -73 -28.5 -144t-11.5 -123q0 -114 58 -176t192 -86.5t362 -24.5q231 0 365 25.5t190.5 89t56.5 178.5q0 54 -10.5 123t-27.5 138z" />
    <glyph glyph-name="uniFB5B" unicode="&#x680;" horiz-adv-x="1954" arabic-form="final" 
d="M873 -354l144 144l145 -144l-145 -145zM524 -354l144 144l145 -144l-145 -145zM524 -703l144 144l145 -144l-145 -145zM873 -703l144 144l145 -144l-145 -145zM1725 666q-13 -76 -21.5 -136t-8.5 -112q0 -95 53 -155t205 -60h1v-203h-1q-163 0 -266.5 66.5t-137.5 210.5
h-10q-98 -158 -290.5 -217.5t-461.5 -59.5q-361 0 -527.5 127.5t-166.5 370.5q0 149 58 334l172 -50q-49 -155 -49 -264q0 -162 127 -238.5t417 -76.5q250 0 398.5 50t224 158.5t106.5 283.5z" />
    <glyph glyph-name="uniFB5C" unicode="&#x680;" horiz-adv-x="590" arabic-form="initial" 
d="M170 -354l144 144l145 -144l-145 -145zM-179 -354l144 144l145 -144l-145 -145zM-179 -703l144 144l145 -144l-145 -145zM170 -703l144 144l145 -144l-145 -145zM437 792q29 -110 45.5 -207t16.5 -174q0 -200 -109.5 -305.5t-342.5 -105.5h-47q-33 0 -33 102
q0 101 33 101h47q141 0 202 56t61 168q0 56 -15 136.5t-39 178.5z" />
    <glyph glyph-name="uniFB5D" unicode="&#x680;" horiz-adv-x="837" arabic-form="medial" 
d="M138 -354l144 144l145 -144l-145 -145zM-211 -354l144 144l145 -144l-145 -145zM-211 -703l144 144l145 -144l-145 -145zM138 -703l144 144l145 -144l-145 -145zM518 494q0 -99 19 -163.5t73.5 -96t162.5 -31.5h64v-203h-67q-127 0 -220.5 61t-125.5 173h-10
q-32 -112 -135.5 -173t-231.5 -61h-47q-33 0 -33 102q0 101 33 101h47q116 0 175.5 32t80 96.5t20.5 162.5v144h195v-144z" />
    <glyph glyph-name="uniFB5E" unicode="&#x67a;" horiz-adv-x="1779" arabic-form="isolated" 
d="M1638 798q23 -83 36.5 -166t13.5 -155q0 -180 -80.5 -284t-256 -148.5t-461.5 -44.5q-284 0 -460 44t-256.5 146.5t-80.5 277.5q0 69 13.5 154.5t35.5 175.5l176 -41q-17 -73 -28.5 -144t-11.5 -123q0 -114 58 -176t192 -86.5t362 -24.5q231 0 365 25.5t190.5 89
t56.5 178.5q0 54 -10.5 123t-27.5 138zM746 1114l144 145l144 -145l-144 -144zM746 765l144 144l144 -144l-144 -145z" />
    <glyph glyph-name="uniFB5F" unicode="&#x67a;" horiz-adv-x="1954" arabic-form="final" 
d="M765 1166l144 145l144 -145l-144 -144zM765 817l144 144l144 -144l-144 -145zM1725 666q-13 -76 -21.5 -136t-8.5 -112q0 -95 53 -155t205 -60h1v-203h-1q-163 0 -266.5 66.5t-137.5 210.5h-10q-98 -158 -290.5 -217.5t-461.5 -59.5q-361 0 -527.5 127.5t-166.5 370.5
q0 149 58 334l172 -50q-49 -155 -49 -264q0 -162 127 -238.5t417 -76.5q250 0 398.5 50t224 158.5t106.5 283.5z" />
    <glyph glyph-name="uniFB60" unicode="&#x67a;" horiz-adv-x="590" arabic-form="initial" 
d="M93 1508l144 145l144 -145l-144 -144zM93 1159l144 144l144 -144l-144 -145zM437 792q29 -110 45.5 -207t16.5 -174q0 -200 -109.5 -305.5t-342.5 -105.5h-47q-33 0 -33 102q0 101 33 101h47q141 0 202 56t61 168q0 56 -15 136.5t-39 178.5z" />
    <glyph glyph-name="uniFB61" unicode="&#x67a;" horiz-adv-x="837" arabic-form="medial" 
d="M171 1362l144 145l144 -145l-144 -144zM171 1013l144 144l144 -144l-144 -145zM518 494q0 -99 19 -163.5t73.5 -96t162.5 -31.5h64v-203h-67q-127 0 -220.5 61t-125.5 173h-10q-32 -112 -135.5 -173t-231.5 -61h-47q-33 0 -33 102q0 101 33 101h47q116 0 175.5 32
t80 96.5t20.5 162.5v144h195v-144z" />
    <glyph glyph-name="uniFB62" unicode="&#x67f;" horiz-adv-x="1779" arabic-form="isolated" 
d="M919 1213l144 144l145 -144l-145 -145zM570 1213l144 144l145 -144l-145 -145zM570 864l144 144l145 -144l-145 -145zM919 864l144 144l145 -144l-145 -145zM1638 798q23 -83 36.5 -166t13.5 -155q0 -180 -80.5 -284t-256 -148.5t-461.5 -44.5q-284 0 -460 44
t-256.5 146.5t-80.5 277.5q0 69 13.5 154.5t35.5 175.5l176 -41q-17 -73 -28.5 -144t-11.5 -123q0 -114 58 -176t192 -86.5t362 -24.5q231 0 365 25.5t190.5 89t56.5 178.5q0 54 -10.5 123t-27.5 138z" />
    <glyph glyph-name="uniFB63" unicode="&#x67f;" horiz-adv-x="1954" arabic-form="final" 
d="M939 1167l144 144l145 -144l-145 -145zM590 1167l144 144l145 -144l-145 -145zM590 818l144 144l145 -144l-145 -145zM939 818l144 144l145 -144l-145 -145zM1725 666q-13 -76 -21.5 -136t-8.5 -112q0 -95 53 -155t205 -60h1v-203h-1q-163 0 -266.5 66.5t-137.5 210.5
h-10q-98 -158 -290.5 -217.5t-461.5 -59.5q-361 0 -527.5 127.5t-166.5 370.5q0 149 58 334l172 -50q-49 -155 -49 -264q0 -162 127 -238.5t417 -76.5q250 0 398.5 50t224 158.5t106.5 283.5z" />
    <glyph glyph-name="uniFB64" unicode="&#x67f;" horiz-adv-x="590" arabic-form="initial" 
d="M282 1494l144 144l145 -144l-145 -145zM-67 1494l144 144l145 -144l-145 -145zM-67 1145l144 144l145 -144l-145 -145zM282 1145l144 144l145 -144l-145 -145zM437 792q29 -110 45.5 -207t16.5 -174q0 -200 -109.5 -305.5t-342.5 -105.5h-47q-33 0 -33 102q0 101 33 101
h47q141 0 202 56t61 168q0 56 -15 136.5t-39 178.5z" />
    <glyph glyph-name="uniFB65" unicode="&#x67f;" horiz-adv-x="837" arabic-form="medial" 
d="M351 1319l144 144l145 -144l-145 -145zM2 1319l144 144l145 -144l-145 -145zM2 970l144 144l145 -144l-145 -145zM351 970l144 144l145 -144l-145 -145zM518 494q0 -99 19 -163.5t73.5 -96t162.5 -31.5h64v-203h-67q-127 0 -220.5 61t-125.5 173h-10
q-32 -112 -135.5 -173t-231.5 -61h-47q-33 0 -33 102q0 101 33 101h47q116 0 175.5 32t80 96.5t20.5 162.5v144h195v-144z" />
    <glyph glyph-name="uniFB66" unicode="&#x679;" horiz-adv-x="1779" arabic-form="isolated" 
d="M1638 798q23 -83 36.5 -166t13.5 -155q0 -180 -80.5 -284t-256 -148.5t-461.5 -44.5q-284 0 -460 44t-256.5 146.5t-80.5 277.5q0 69 13.5 154.5t35.5 175.5l176 -41q-17 -73 -28.5 -144t-11.5 -123q0 -114 58 -176t192 -86.5t362 -24.5q231 0 365 25.5t190.5 89
t56.5 178.5q0 54 -10.5 123t-27.5 138zM697 799v411h93v-296h10q66 67 116 98t101 31q62 0 100.5 -44t38.5 -104q0 -97 -68 -145t-195 -48h-321v97h125zM778 799h115q92 0 135 19t43 62q0 31 -20 49.5t-55 18.5q-46 0 -94 -33.5t-124 -115.5z" />
    <glyph glyph-name="uniFB67" unicode="&#x679;" horiz-adv-x="1954" arabic-form="final" 
d="M752 813v411h93v-296h10q66 67 116 98t101 31q62 0 100.5 -44t38.5 -104q0 -97 -68 -145t-195 -48h-321v97h125zM833 813h115q92 0 135 19t43 62q0 31 -20 49.5t-55 18.5q-46 0 -94 -33.5t-124 -115.5zM1725 666q-13 -76 -21.5 -136t-8.5 -112q0 -95 53 -155t205 -60h1
v-203h-1q-163 0 -266.5 66.5t-137.5 210.5h-10q-98 -158 -290.5 -217.5t-461.5 -59.5q-361 0 -527.5 127.5t-166.5 370.5q0 149 58 334l172 -50q-49 -155 -49 -264q0 -162 127 -238.5t417 -76.5q250 0 398.5 50t224 158.5t106.5 283.5z" />
    <glyph glyph-name="uniFB68" unicode="&#x679;" horiz-adv-x="590" arabic-form="initial" 
d="M85 1152v411h93v-296h10q66 67 116 98t101 31q62 0 100.5 -44t38.5 -104q0 -97 -68 -145t-195 -48h-321v97h125zM166 1152h115q92 0 135 19t43 62q0 31 -20 49.5t-55 18.5q-46 0 -94 -33.5t-124 -115.5zM437 792q29 -110 45.5 -207t16.5 -174q0 -200 -109.5 -305.5
t-342.5 -105.5h-47q-33 0 -33 102q0 101 33 101h47q141 0 202 56t61 168q0 56 -15 136.5t-39 178.5z" />
    <glyph glyph-name="uniFB69" unicode="&#x679;" horiz-adv-x="837" arabic-form="medial" 
d="M140 1012v411h93v-296h10q66 67 116 98t101 31q62 0 100.5 -44t38.5 -104q0 -97 -68 -145t-195 -48h-321v97h125zM221 1012h115q92 0 135 19t43 62q0 31 -20 49.5t-55 18.5q-46 0 -94 -33.5t-124 -115.5zM518 494q0 -99 19 -163.5t73.5 -96t162.5 -31.5h64v-203h-67
q-127 0 -220.5 61t-125.5 173h-10q-32 -112 -135.5 -173t-231.5 -61h-47q-33 0 -33 102q0 101 33 101h47q116 0 175.5 32t80 96.5t20.5 162.5v144h195v-144z" />
    <glyph glyph-name="uniFB6A" unicode="&#x6a4;" horiz-adv-x="1819" arabic-form="isolated" 
d="M1543 456q-68 -17 -134 -25.5t-122 -8.5q-329 0 -329 290q0 145 44.5 254t123.5 170t184 61q125 0 216.5 -87t141.5 -246t50 -376q0 -138 -42.5 -232t-138.5 -150t-257.5 -81t-400.5 -25q-286 0 -459 43.5t-250 142.5t-77 266q0 65 11.5 150t33.5 185l178 -39
q-38 -187 -38 -274q0 -105 56.5 -164t191 -83t369.5 -24q202 0 329.5 10.5t196.5 37.5t95.5 76.5t26.5 128.5zM1518 628q-11 176 -67.5 273t-147.5 97q-81 0 -132.5 -73.5t-51.5 -186.5q0 -138 180 -138q93 0 219 28zM1145 1900l143 144l145 -144l-145 -144zM1319 1586
l144 144l145 -144l-145 -145zM970 1586l144 144l145 -144l-145 -145z" />
    <glyph glyph-name="uniFB6B" unicode="&#x6a4;" horiz-adv-x="1945" arabic-form="final" 
d="M1296 1641l143 144l145 -144l-145 -144zM1470 1327l144 144l145 -144l-145 -145zM1121 1327l144 144l145 -144l-145 -145zM1439 103q-111 -52 -250.5 -77.5t-294.5 -25.5q-249 0 -428.5 36.5t-276 132t-96.5 271.5q0 86 22.5 184t53.5 192l171 -56q-23 -72 -42 -151.5
t-19 -142.5q0 -105 67 -161.5t203.5 -78t344.5 -23.5q90 -1 181 5.5t173 21.5l2 9q-85 52 -137.5 131t-52.5 190q0 121 50.5 210t137 137.5t194.5 48.5q107 0 193 -49t137 -137.5t51 -208.5q0 -110 -54.5 -191t-139.5 -133l3 -9q90 -25 202 -25h111v-203h-129
q-118 0 -206 27t-171 76zM1441 283q86 41 139 106.5t53 162.5q0 90 -53.5 147t-137.5 57q-85 0 -138.5 -56.5t-53.5 -147.5q0 -94 53.5 -160t137.5 -109z" />
    <glyph glyph-name="uniFB6C" unicode="&#x6a4;" horiz-adv-x="960" arabic-form="initial" 
d="M309 1889l143 144l145 -144l-145 -144zM483 1575l144 144l145 -144l-145 -145zM134 1575l144 144l145 -144l-145 -145zM0 203h340q196 0 274 57.5t78 195.5q-138 -34 -256 -34q-330 0 -330 290q0 145 44 254t123.5 170t184.5 61q125 0 216.5 -87t141.5 -246t50 -376
q0 -253 -130 -370.5t-411 -117.5h-325q-33 0 -33 102q0 101 33 101zM666 628q-12 176 -68.5 273t-147.5 97q-80 0 -131.5 -73t-51.5 -187q0 -138 180 -138q90 0 219 28z" />
    <glyph glyph-name="uniFB6D" unicode="&#x6a4;" horiz-adv-x="1005" arabic-form="medial" 
d="M357 1641l143 144l145 -144l-145 -144zM531 1327l144 144l145 -144l-145 -145zM182 1327l144 144l145 -144l-145 -145zM120 560q0 121 50.5 210t137 137.5t194.5 48.5q107 0 193.5 -49t137.5 -137.5t51 -208.5q0 -110 -55 -191t-140 -133l3 -9q88 -25 197 -25h116v-203
h-135q-116 0 -202.5 27t-168.5 76q-81 -49 -167.5 -76t-201.5 -27h-130q-34 0 -34 102q0 101 34 101h104q113 0 210 25l3 9q-85 52 -141 132t-56 191zM501 280q86 43 139 109t53 163q0 90 -53.5 147t-137.5 57q-85 0 -138.5 -56.5t-53.5 -147.5q0 -94 53.5 -161t137.5 -111z
" />
    <glyph glyph-name="uniFB6E" unicode="&#x6a6;" horiz-adv-x="1819" arabic-form="isolated" 
d="M1331 1939l144 144l145 -144l-145 -145zM982 1939l144 144l145 -144l-145 -145zM982 1590l144 144l145 -144l-145 -145zM1331 1590l144 144l145 -144l-145 -145zM1543 456q-68 -17 -134 -25.5t-122 -8.5q-329 0 -329 290q0 145 44.5 254t123.5 170t184 61
q125 0 216.5 -87t141.5 -246t50 -376q0 -138 -42.5 -232t-138.5 -150t-257.5 -81t-400.5 -25q-286 0 -459 43.5t-250 142.5t-77 266q0 65 11.5 150t33.5 185l178 -39q-38 -187 -38 -274q0 -105 56.5 -164t191 -83t369.5 -24q202 0 329.5 10.5t196.5 37.5t95.5 76.5
t26.5 128.5zM1518 628q-11 176 -67.5 273t-147.5 97q-81 0 -132.5 -73.5t-51.5 -186.5q0 -138 180 -138q93 0 219 28z" />
    <glyph glyph-name="uniFB6F" unicode="&#x6a6;" horiz-adv-x="1945" arabic-form="final" 
d="M1470 1676l144 144l145 -144l-145 -145zM1121 1676l144 144l145 -144l-145 -145zM1121 1327l144 144l145 -144l-145 -145zM1470 1327l144 144l145 -144l-145 -145zM1439 103q-111 -52 -250.5 -77.5t-294.5 -25.5q-249 0 -428.5 36.5t-276 132t-96.5 271.5q0 86 22.5 184
t53.5 192l171 -56q-23 -72 -42 -151.5t-19 -142.5q0 -105 67 -161.5t203.5 -78t344.5 -23.5q90 -1 181 5.5t173 21.5l2 9q-85 52 -137.5 131t-52.5 190q0 121 50.5 210t137 137.5t194.5 48.5q107 0 193 -49t137 -137.5t51 -208.5q0 -110 -54.5 -191t-139.5 -133l3 -9
q90 -25 202 -25h111v-203h-129q-118 0 -206 27t-171 76zM1441 283q86 41 139 106.5t53 162.5q0 90 -53.5 147t-137.5 57q-85 0 -138.5 -56.5t-53.5 -147.5q0 -94 53.5 -160t137.5 -109z" />
    <glyph glyph-name="uniFB70" unicode="&#x6a6;" horiz-adv-x="960" arabic-form="initial" 
d="M483 1924l144 144l145 -144l-145 -145zM134 1924l144 144l145 -144l-145 -145zM134 1575l144 144l145 -144l-145 -145zM483 1575l144 144l145 -144l-145 -145zM0 203h340q196 0 274 57.5t78 195.5q-138 -34 -256 -34q-330 0 -330 290q0 145 44 254t123.5 170t184.5 61
q125 0 216.5 -87t141.5 -246t50 -376q0 -253 -130 -370.5t-411 -117.5h-325q-33 0 -33 102q0 101 33 101zM666 628q-12 176 -68.5 273t-147.5 97q-80 0 -131.5 -73t-51.5 -187q0 -138 180 -138q90 0 219 28z" />
    <glyph glyph-name="uniFB71" unicode="&#x6a6;" horiz-adv-x="1005" arabic-form="medial" 
d="M531 1676l144 144l145 -144l-145 -145zM182 1676l144 144l145 -144l-145 -145zM182 1327l144 144l145 -144l-145 -145zM531 1327l144 144l145 -144l-145 -145zM120 560q0 121 50.5 210t137 137.5t194.5 48.5q107 0 193.5 -49t137.5 -137.5t51 -208.5q0 -110 -55 -191
t-140 -133l3 -9q88 -25 197 -25h116v-203h-135q-116 0 -202.5 27t-168.5 76q-81 -49 -167.5 -76t-201.5 -27h-130q-34 0 -34 102q0 101 34 101h104q113 0 210 25l3 9q-85 52 -141 132t-56 191zM501 280q86 43 139 109t53 163q0 90 -53.5 147t-137.5 57q-85 0 -138.5 -56.5
t-53.5 -147.5q0 -94 53.5 -161t137.5 -111z" />
    <glyph glyph-name="uniFB72" unicode="&#x684;" horiz-adv-x="1389" arabic-form="isolated" 
d="M789 -64l-105 105l105 105l105 -105zM789 -305l-105 105l105 105l105 -105zM467 949q54 0 129.5 -22.5t207.5 -81.5q156 -70 255 -107t187 -59l-22 -220q-124 -13 -256 -45.5t-255 -84t-221 -121.5t-156 -157t-58 -191q0 -105 67 -176t180.5 -107t252.5 -36
q122 0 241 24.5t220 70.5l88 -177q-272 -126 -550 -126q-195 0 -350.5 59.5t-246.5 173t-91 275.5q0 147 75 268t203 213.5t289 155t334 91.5v10q-60 16 -127 40t-156 61q-100 40 -154 56.5t-87 16.5q-66 0 -109.5 -42t-81.5 -141l-7 -19l-143 44l6 21q58 178 137 255.5
t199 77.5z" />
    <glyph glyph-name="uniFB73" unicode="&#x684;" horiz-adv-x="1397" arabic-form="final" 
d="M760 -134l-105 105l105 105l105 -105zM760 -375l-105 105l105 105l105 -105zM467 909q56 0 133 -23.5t204 -80.5q160 -71 258.5 -108t183.5 -58l-22 -220q-55 -7 -98.5 -14t-78.5 -15v-10q46 -94 115 -135.5t175 -41.5h60v-203h-38q-169 0 -274 86.5t-158 266.5
q-188 -41 -334.5 -123t-230.5 -188.5t-84 -221.5q0 -145 135.5 -232t364.5 -87q124 0 242.5 24.5t218.5 70.5l88 -177q-272 -126 -550 -126q-208 0 -362.5 63t-240 177.5t-85.5 267.5q0 173 112.5 321.5t315.5 255t473 151.5v10q-56 14 -122 38t-161 63q-100 40 -154 56.5
t-87 16.5q-66 0 -109.5 -42t-81.5 -141l-7 -19l-143 44l6 21q57 176 136 254.5t200 78.5z" />
    <glyph glyph-name="uniFB74" unicode="&#x684;" horiz-adv-x="1288" arabic-form="initial" 
d="M400 -354l144 145l144 -145l-144 -144zM400 -703l144 144l144 -144l-144 -145zM431 885q52 0 125.5 -23.5t215.5 -85.5q137 -59 233.5 -93t190.5 -57v-168l-496 -284q-160 -93 -297 -133.5t-290 -40.5h-113q-17 0 -25 23.5t-8 78.5q0 54 8 77.5t25 23.5h149
q80 0 150.5 12.5t147 41t173.5 77.5l329 172v10q-58 15 -124.5 39t-153.5 61q-98 39 -152.5 55.5t-88.5 16.5q-66 0 -109 -42t-81 -141l-8 -19l-144 46l7 19q57 178 137 256t199 78z" />
    <glyph glyph-name="uniFB75" unicode="&#x684;" horiz-adv-x="1337" arabic-form="medial" 
d="M400 -354l144 145l144 -145l-144 -144zM400 -703l144 144l144 -144l-144 -145zM431 885q52 0 125.5 -23t215.5 -86q137 -59 233.5 -93t190.5 -57v-168l-223 -121v-10q67 -71 144.5 -97.5t161.5 -26.5h58v-203h-61q-127 0 -237.5 57t-202.5 193l-136 -76
q-160 -93 -297 -133.5t-290 -40.5h-113q-17 0 -25 23.5t-8 78.5q0 54 8 77.5t25 23.5h149q80 0 150.5 12.5t147 41t173.5 77.5l329 172v10q-58 15 -124.5 39t-153.5 61q-98 39 -152.5 55.5t-88.5 16.5q-66 0 -109 -42t-81 -141l-8 -19l-144 46l7 19q58 177 137.5 255.5
t198.5 78.5z" />
    <glyph glyph-name="uniFB76" unicode="&#x683;" horiz-adv-x="1389" arabic-form="isolated" 
d="M830 -91l105 105l105 -105l-105 -105zM566 -91l105 105l105 -105l-105 -105zM467 949q54 0 129.5 -22.5t207.5 -81.5q156 -70 255 -107t187 -59l-22 -220q-124 -13 -256 -45.5t-255 -84t-221 -121.5t-156 -157t-58 -191q0 -105 67 -176t180.5 -107t252.5 -36
q122 0 241 24.5t220 70.5l88 -177q-272 -126 -550 -126q-195 0 -350.5 59.5t-246.5 173t-91 275.5q0 147 75 268t203 213.5t289 155t334 91.5v10q-60 16 -127 40t-156 61q-100 40 -154 56.5t-87 16.5q-66 0 -109.5 -42t-81.5 -141l-7 -19l-143 44l6 21q58 178 137 255.5
t199 77.5z" />
    <glyph glyph-name="uniFB77" unicode="&#x683;" horiz-adv-x="1397" arabic-form="final" 
d="M814 -149l105 105l105 -105l-105 -105zM550 -149l105 105l105 -105l-105 -105zM467 909q56 0 133 -23.5t204 -80.5q160 -71 258.5 -108t183.5 -58l-22 -220q-55 -7 -98.5 -14t-78.5 -15v-10q46 -94 115 -135.5t175 -41.5h60v-203h-38q-169 0 -274 86.5t-158 266.5
q-188 -41 -334.5 -123t-230.5 -188.5t-84 -221.5q0 -145 135.5 -232t364.5 -87q124 0 242.5 24.5t218.5 70.5l88 -177q-272 -126 -550 -126q-208 0 -362.5 63t-240 177.5t-85.5 267.5q0 173 112.5 321.5t315.5 255t473 151.5v10q-56 14 -122 38t-161 63q-100 40 -154 56.5
t-87 16.5q-66 0 -109.5 -42t-81.5 -141l-7 -19l-143 44l6 21q57 176 136 254.5t200 78.5z" />
    <glyph glyph-name="uniFB78" unicode="&#x683;" horiz-adv-x="1288" arabic-form="initial" 
d="M238 -324l144 144l145 -144l-145 -145zM587 -324l144 144l145 -144l-145 -145zM431 885q52 0 125.5 -23.5t215.5 -85.5q137 -59 233.5 -93t190.5 -57v-168l-496 -284q-160 -93 -297 -133.5t-290 -40.5h-113q-17 0 -25 23.5t-8 78.5q0 54 8 77.5t25 23.5h149
q80 0 150.5 12.5t147 41t173.5 77.5l329 172v10q-58 15 -124.5 39t-153.5 61q-98 39 -152.5 55.5t-88.5 16.5q-66 0 -109 -42t-81 -141l-8 -19l-144 46l7 19q57 178 137 256t199 78z" />
    <glyph glyph-name="uniFB79" unicode="&#x683;" horiz-adv-x="1337" arabic-form="medial" 
d="M238 -324l144 144l145 -144l-145 -145zM587 -324l144 144l145 -144l-145 -145zM431 885q52 0 125.5 -23t215.5 -86q137 -59 233.5 -93t190.5 -57v-168l-223 -121v-10q67 -71 144.5 -97.5t161.5 -26.5h58v-203h-61q-127 0 -237.5 57t-202.5 193l-136 -76
q-160 -93 -297 -133.5t-290 -40.5h-113q-17 0 -25 23.5t-8 78.5q0 54 8 77.5t25 23.5h149q80 0 150.5 12.5t147 41t173.5 77.5l329 172v10q-58 15 -124.5 39t-153.5 61q-98 39 -152.5 55.5t-88.5 16.5q-66 0 -109 -42t-81 -141l-8 -19l-144 46l7 19q58 177 137.5 255.5
t198.5 78.5z" />
    <glyph glyph-name="uniFB7A" unicode="&#x686;" horiz-adv-x="1449" arabic-form="isolated" 
d="M467 949q54 0 129.5 -22.5t207.5 -81.5q156 -70 255 -107t187 -59l-22 -220q-124 -13 -256 -45.5t-255 -84t-221 -121.5t-156 -157t-58 -191q0 -105 67 -176t180.5 -107t252.5 -36q122 0 241 24.5t220 70.5l88 -177q-272 -126 -550 -126q-195 0 -350.5 59.5t-246.5 173
t-91 275.5q0 147 75 268t203 213.5t289 155t334 91.5v10q-60 16 -127 40t-156 61q-100 40 -154 56.5t-87 16.5q-66 0 -109.5 -42t-81.5 -141l-7 -19l-143 44l6 21q58 178 137 255.5t199 77.5zM521 -3l113 114l113 -114l-113 -114zM824 -3l113 113l114 -113l-114 -114z
M676 -241l110 109l108 -109l-108 -110z" />
    <glyph glyph-name="uniFB7B" unicode="&#x686;" horiz-adv-x="1397" arabic-form="final" 
d="M497 -44l113 114l113 -114l-113 -114zM800 -44l113 113l114 -113l-114 -114zM652 -282l110 109l108 -109l-108 -110zM467 909q56 0 133 -23.5t204 -80.5q160 -71 258.5 -108t183.5 -58l-22 -220q-55 -7 -98.5 -14t-78.5 -15v-10q46 -94 115 -135.5t175 -41.5h60v-203h-38
q-169 0 -274 86.5t-158 266.5q-188 -41 -334.5 -123t-230.5 -188.5t-84 -221.5q0 -145 135.5 -232t364.5 -87q124 0 242.5 24.5t218.5 70.5l88 -177q-272 -126 -550 -126q-208 0 -362.5 63t-240 177.5t-85.5 267.5q0 173 112.5 321.5t315.5 255t473 151.5v10q-56 14 -122 38
t-161 63q-100 40 -154 56.5t-87 16.5q-66 0 -109.5 -42t-81.5 -141l-7 -19l-143 44l6 21q57 176 136 254.5t200 78.5z" />
    <glyph glyph-name="uniFB7C" unicode="&#x686;" horiz-adv-x="1288" arabic-form="initial" 
d="M587 -300l144 144l145 -144l-145 -145zM238 -300l144 144l145 -144l-145 -145zM414 -614l143 144l145 -144l-145 -145zM431 885q52 0 125.5 -23.5t215.5 -85.5q137 -59 233.5 -93t190.5 -57v-168l-496 -284q-160 -93 -297 -133.5t-290 -40.5h-113q-17 0 -25 23.5t-8 78.5
q0 54 8 77.5t25 23.5h149q80 0 150.5 12.5t147 41t173.5 77.5l329 172v10q-58 15 -124.5 39t-153.5 61q-98 39 -152.5 55.5t-88.5 16.5q-66 0 -109 -42t-81 -141l-8 -19l-144 46l7 19q57 178 137 256t199 78z" />
    <glyph glyph-name="uniFB7D" unicode="&#x686;" horiz-adv-x="1337" arabic-form="medial" 
d="M587 -300l144 144l145 -144l-145 -145zM238 -300l144 144l145 -144l-145 -145zM414 -614l143 144l145 -144l-145 -145zM431 885q52 0 125.5 -23t215.5 -86q137 -59 233.5 -93t190.5 -57v-168l-223 -121v-10q67 -71 144.5 -97.5t161.5 -26.5h58v-203h-61q-127 0 -237.5 57
t-202.5 193l-136 -76q-160 -93 -297 -133.5t-290 -40.5h-113q-17 0 -25 23.5t-8 78.5q0 54 8 77.5t25 23.5h149q80 0 150.5 12.5t147 41t173.5 77.5l329 172v10q-58 15 -124.5 39t-153.5 61q-98 39 -152.5 55.5t-88.5 16.5q-66 0 -109 -42t-81 -141l-8 -19l-144 46l7 19
q58 177 137.5 255.5t198.5 78.5z" />
    <glyph glyph-name="uniFB7E" unicode="&#x687;" horiz-adv-x="1389" arabic-form="isolated" 
d="M563 55l109 110l110 -110l-110 -110zM824 55l109 110l110 -110l-110 -109zM563 -204l109 109l110 -109l-110 -110zM824 -204l109 109l110 -109l-110 -110zM467 949q54 0 129.5 -22.5t207.5 -81.5q156 -70 255 -107t187 -59l-22 -220q-124 -13 -256 -45.5t-255 -84
t-221 -121.5t-156 -157t-58 -191q0 -105 67 -176t180.5 -107t252.5 -36q122 0 241 24.5t220 70.5l88 -177q-272 -126 -550 -126q-195 0 -350.5 59.5t-246.5 173t-91 275.5q0 147 75 268t203 213.5t289 155t334 91.5v10q-60 16 -127 40t-156 61q-100 40 -154 56.5t-87 16.5
q-66 0 -109.5 -42t-81.5 -141l-7 -19l-143 44l6 21q58 178 137 255.5t199 77.5z" />
    <glyph glyph-name="uniFB7F" unicode="&#x687;" horiz-adv-x="1397" arabic-form="final" 
d="M518 -14l109 110l110 -110l-110 -110zM779 -14l109 110l110 -110l-110 -109zM518 -273l109 109l110 -109l-110 -110zM779 -273l109 109l110 -109l-110 -110zM467 909q56 0 133 -23.5t204 -80.5q160 -71 258.5 -108t183.5 -58l-22 -220q-55 -7 -98.5 -14t-78.5 -15v-10
q46 -94 115 -135.5t175 -41.5h60v-203h-38q-169 0 -274 86.5t-158 266.5q-188 -41 -334.5 -123t-230.5 -188.5t-84 -221.5q0 -145 135.5 -232t364.5 -87q124 0 242.5 24.5t218.5 70.5l88 -177q-272 -126 -550 -126q-208 0 -362.5 63t-240 177.5t-85.5 267.5
q0 173 112.5 321.5t315.5 255t473 151.5v10q-56 14 -122 38t-161 63q-100 40 -154 56.5t-87 16.5q-66 0 -109.5 -42t-81.5 -141l-7 -19l-143 44l6 21q57 176 136 254.5t200 78.5z" />
    <glyph glyph-name="uniFB80" unicode="&#x687;" horiz-adv-x="1288" arabic-form="initial" 
d="M587 -324l144 144l145 -144l-145 -145zM238 -324l144 144l145 -144l-145 -145zM238 -673l144 144l145 -144l-145 -145zM587 -673l144 144l145 -144l-145 -145zM431 885q52 0 125.5 -23.5t215.5 -85.5q137 -59 233.5 -93t190.5 -57v-168l-496 -284q-160 -93 -297 -133.5
t-290 -40.5h-113q-17 0 -25 23.5t-8 78.5q0 54 8 77.5t25 23.5h149q80 0 150.5 12.5t147 41t173.5 77.5l329 172v10q-58 15 -124.5 39t-153.5 61q-98 39 -152.5 55.5t-88.5 16.5q-66 0 -109 -42t-81 -141l-8 -19l-144 46l7 19q57 178 137 256t199 78z" />
    <glyph glyph-name="uniFB81" unicode="&#x687;" horiz-adv-x="1337" arabic-form="medial" 
d="M587 -324l144 144l145 -144l-145 -145zM238 -324l144 144l145 -144l-145 -145zM238 -673l144 144l145 -144l-145 -145zM587 -673l144 144l145 -144l-145 -145zM431 885q52 0 125.5 -23t215.5 -86q137 -59 233.5 -93t190.5 -57v-168l-223 -121v-10q67 -71 144.5 -97.5
t161.5 -26.5h58v-203h-61q-127 0 -237.5 57t-202.5 193l-136 -76q-160 -93 -297 -133.5t-290 -40.5h-113q-17 0 -25 23.5t-8 78.5q0 54 8 77.5t25 23.5h149q80 0 150.5 12.5t147 41t173.5 77.5l329 172v10q-58 15 -124.5 39t-153.5 61q-98 39 -152.5 55.5t-88.5 16.5
q-66 0 -109 -42t-81 -141l-8 -19l-144 46l7 19q58 177 137.5 255.5t198.5 78.5z" />
    <glyph glyph-name="uniFB82" unicode="&#x68d;" horiz-adv-x="1017" arabic-form="isolated" 
d="M86 -354l144 144l145 -144l-145 -145zM435 -354l144 144l145 -144l-145 -145zM925 391q0 -139 -73 -227t-194 -129.5t-265 -41.5q-71 0 -147.5 10t-157.5 31l45 191q71 -16 134.5 -23.5t121.5 -7.5q161 0 252.5 50.5t91.5 149.5q0 93 -89.5 222t-249.5 271l130 154
q200 -178 300.5 -338.5t100.5 -311.5z" />
    <glyph glyph-name="uniFB83" unicode="&#x68d;" horiz-adv-x="1290" arabic-form="final" 
d="M183 -354l144 144l145 -144l-145 -145zM532 -354l144 144l145 -144l-145 -145zM736 1027l267 -625q35 -81 71.5 -124t85 -59t117.5 -16h13v-203h-13q-136 0 -228 52.5t-141 174.5h-10q-48 -113 -163 -175t-256 -62q-100 0 -201 35.5t-190 107.5l93 161q71 -51 148.5 -76
t147.5 -25q101 0 189 41.5t144 120.5l-258 584z" />
    <glyph glyph-name="uniFB84" unicode="&#x68c;" horiz-adv-x="1017" arabic-form="isolated" 
d="M204 1415l144 144l145 -144l-145 -145zM553 1415l144 144l145 -144l-145 -145zM925 391q0 -139 -73 -227t-194 -129.5t-265 -41.5q-71 0 -147.5 10t-157.5 31l45 191q71 -16 134.5 -23.5t121.5 -7.5q161 0 252.5 50.5t91.5 149.5q0 93 -89.5 222t-249.5 271l130 154
q200 -178 300.5 -338.5t100.5 -311.5z" />
    <glyph glyph-name="uniFB85" unicode="&#x68c;" horiz-adv-x="1290" arabic-form="final" 
d="M300 1415l144 144l145 -144l-145 -145zM649 1415l144 144l145 -144l-145 -145zM736 1027l267 -625q35 -81 71.5 -124t85 -59t117.5 -16h13v-203h-13q-136 0 -228 52.5t-141 174.5h-10q-48 -113 -163 -175t-256 -62q-100 0 -201 35.5t-190 107.5l93 161q71 -51 148.5 -76
t147.5 -25q101 0 189 41.5t144 120.5l-258 584z" />
    <glyph glyph-name="uniFB86" unicode="&#x68e;" horiz-adv-x="1017" arabic-form="isolated" 
d="M379 1729l143 144l145 -144l-145 -144zM553 1415l144 144l145 -144l-145 -145zM204 1415l144 144l145 -144l-145 -145zM925 391q0 -139 -73 -227t-194 -129.5t-265 -41.5q-71 0 -147.5 10t-157.5 31l45 191q71 -16 134.5 -23.5t121.5 -7.5q161 0 252.5 50.5t91.5 149.5
q0 93 -89.5 222t-249.5 271l130 154q200 -178 300.5 -338.5t100.5 -311.5z" />
    <glyph glyph-name="uniFB87" unicode="&#x68e;" horiz-adv-x="1290" arabic-form="final" 
d="M475 1729l143 144l145 -144l-145 -144zM649 1415l144 144l145 -144l-145 -145zM300 1415l144 144l145 -144l-145 -145zM736 1027l267 -625q35 -81 71.5 -124t85 -59t117.5 -16h13v-203h-13q-136 0 -228 52.5t-141 174.5h-10q-48 -113 -163 -175t-256 -62
q-100 0 -201 35.5t-190 107.5l93 161q71 -51 148.5 -76t147.5 -25q101 0 189 41.5t144 120.5l-258 584z" />
    <glyph glyph-name="uniFB88" unicode="&#x688;" horiz-adv-x="1017" arabic-form="isolated" 
d="M323 1378v411h93v-296h10q66 67 116 98t101 31q62 0 100.5 -44t38.5 -104q0 -97 -68 -145t-195 -48h-321v97h125zM404 1378h115q92 0 135 19t43 62q0 31 -20 49.5t-55 18.5q-46 0 -94 -33.5t-124 -115.5zM925 391q0 -139 -73 -227t-194 -129.5t-265 -41.5
q-71 0 -147.5 10t-157.5 31l45 191q71 -16 134.5 -23.5t121.5 -7.5q161 0 252.5 50.5t91.5 149.5q0 93 -89.5 222t-249.5 271l130 154q200 -178 300.5 -338.5t100.5 -311.5z" />
    <glyph glyph-name="uniFB89" unicode="&#x688;" horiz-adv-x="1290" arabic-form="final" 
d="M433 1366v411h93v-296h10q66 67 116 98t101 31q62 0 100.5 -44t38.5 -104q0 -97 -68 -145t-195 -48h-321v97h125zM514 1366h115q92 0 135 19t43 62q0 31 -20 49.5t-55 18.5q-46 0 -94 -33.5t-124 -115.5zM736 1027l267 -625q35 -81 71.5 -124t85 -59t117.5 -16h13v-203
h-13q-136 0 -228 52.5t-141 174.5h-10q-48 -113 -163 -175t-256 -62q-100 0 -201 35.5t-190 107.5l93 161q71 -51 148.5 -76t147.5 -25q101 0 189 41.5t144 120.5l-258 584z" />
    <glyph glyph-name="uniFB8A" unicode="&#x698;" horiz-adv-x="603" arabic-form="isolated" 
d="M193 608l182 64q56 -166 88.5 -308.5t32.5 -257.5q0 -224 -146.5 -379.5t-463.5 -270.5l-86 183q263 92 384 198t121 264q0 92 -30.5 227t-81.5 280zM154 1335l143 144l145 -144l-145 -144zM328 1021l144 144l145 -144l-145 -145zM-21 1021l144 144l145 -144l-145 -145z
" />
    <glyph glyph-name="uniFB8B" unicode="&#x698;" horiz-adv-x="773" arabic-form="final" 
d="M154 1335l143 144l145 -144l-145 -144zM328 1021l144 144l145 -144l-145 -145zM-21 1021l144 144l145 -144l-145 -145zM193 608l182 64l66 -203q32 -99 71.5 -157.5t100.5 -83.5t159 -25h1v-203h-1q-194 0 -285 129l-10 -3q17 -246 -131.5 -401.5t-459.5 -268.5l-86 183
q272 95 388.5 201.5t116.5 260.5q0 88 -29.5 220t-82.5 287z" />
    <glyph glyph-name="uniFB8C" unicode="&#x691;" horiz-adv-x="603" arabic-form="isolated" 
d="M120 1056v411h93v-296h10q66 67 116 98t101 31q62 0 100.5 -44t38.5 -104q0 -97 -68 -145t-195 -48h-321v97h125zM201 1056h115q92 0 135 19t43 62q0 31 -20 49.5t-55 18.5q-46 0 -94 -33.5t-124 -115.5zM193 608l182 64q56 -166 88.5 -308.5t32.5 -257.5
q0 -224 -146.5 -379.5t-463.5 -270.5l-86 183q263 92 384 198t121 264q0 92 -30.5 227t-81.5 280z" />
    <glyph glyph-name="uniFB8D" unicode="&#x691;" horiz-adv-x="773" arabic-form="final" 
d="M120 1056v411h93v-296h10q66 67 116 98t101 31q62 0 100.5 -44t38.5 -104q0 -97 -68 -145t-195 -48h-321v97h125zM201 1056h115q92 0 135 19t43 62q0 31 -20 49.5t-55 18.5q-46 0 -94 -33.5t-124 -115.5zM193 608l182 64l66 -203q32 -99 71.5 -157.5t100.5 -83.5t159 -25
h1v-203h-1q-194 0 -285 129l-10 -3q17 -246 -131.5 -401.5t-459.5 -268.5l-86 183q272 95 388.5 201.5t116.5 260.5q0 88 -29.5 220t-82.5 287z" />
    <glyph glyph-name="uniFB8E" unicode="&#x6a9;" horiz-adv-x="1685" arabic-form="isolated" 
d="M136 797l178 -41q-38 -173 -38 -277q0 -101 50.5 -162t164 -87.5t302.5 -26.5q269 0 416.5 53t147.5 151q0 81 -119.5 196t-381.5 299l16 185q180 83 390 153t442 122l29 -201q-220 -53 -376 -99.5t-275 -93.5l-1 -8q168 -129 271.5 -226.5t151 -178t47.5 -160.5
q0 -189 -199 -292t-565 -103q-369 0 -531.5 108t-162.5 352q0 129 43 337z" />
    <glyph glyph-name="uniFB8F" unicode="&#x6a9;" horiz-adv-x="1966" arabic-form="final" 
d="M1483 321q-19 -164 -187.5 -242.5t-503.5 -78.5q-248 0 -402 46.5t-224.5 148t-70.5 265.5q0 134 43 337l178 -41q-18 -88 -28 -160t-10 -117q0 -101 50 -162t163 -87.5t302 -26.5q559 0 559 196q0 78 -121.5 201.5t-374.5 301.5l16 185q183 84 393.5 154t438.5 121
l29 -201q-213 -51 -371 -98t-280 -95l-1 -8q134 -102 218 -175.5t141.5 -141.5t109.5 -153q68 -114 125 -176t125 -86.5t165 -24.5h1v-203h-1q-181 0 -289 73.5t-183 247.5h-10z" />
    <glyph glyph-name="uniFB90" unicode="&#x6a9;" horiz-adv-x="852" arabic-form="initial" 
d="M871 1362l30 -201q-220 -53 -376.5 -99.5t-275.5 -93.5l-1 -8q169 -129 272 -227t150.5 -180.5t47.5 -167.5q0 -185 -153 -285t-437 -100h-128q-17 0 -25 23.5t-8 78.5q0 54 8 77.5t25 23.5h124q400 0 400 193q0 57 -50.5 125t-160.5 160t-290 221l16 185
q181 83 390.5 153t441.5 122z" />
    <glyph glyph-name="uniFB91" unicode="&#x6a9;" horiz-adv-x="1132" arabic-form="medial" 
d="M649 322q-22 -170 -148 -246t-373 -76h-128q-17 0 -25 23.5t-8 77.5q0 55 8 78.5t25 23.5h124q203 0 299 50t96 141q0 52 -48 120.5t-156.5 163.5t-291.5 224l16 185q184 84 394 154t438 121l30 -201q-214 -51 -372 -98t-280 -95l-1 -8q131 -98 215.5 -171.5t143 -142.5
t110.5 -154q66 -110 121.5 -173.5t123.5 -89.5t169 -26h1v-203h-1q-180 0 -288 74t-184 248h-10z" />
    <glyph glyph-name="uniFB92" unicode="&#x6af;" horiz-adv-x="1685" arabic-form="isolated" 
d="M1528 1643l20 -107q-358 -63 -686 -228l-51 97q167 84 348.5 144.5t368.5 93.5zM136 797l178 -41q-38 -173 -38 -277q0 -101 50.5 -162t164 -87.5t302.5 -26.5q269 0 416.5 53t147.5 151q0 81 -119.5 196t-381.5 299l16 185q180 83 390 153t442 122l29 -201
q-220 -53 -376 -99.5t-275 -93.5l-1 -8q168 -129 271.5 -226.5t151 -178t47.5 -160.5q0 -189 -199 -292t-565 -103q-369 0 -531.5 108t-162.5 352q0 129 43 337z" />
    <glyph glyph-name="uniFB93" unicode="&#x6af;" horiz-adv-x="1966" arabic-form="final" 
d="M1483 321q-19 -164 -187.5 -242.5t-503.5 -78.5q-248 0 -402 46.5t-224.5 148t-70.5 265.5q0 134 43 337l178 -41q-18 -88 -28 -160t-10 -117q0 -101 50 -162t163 -87.5t302 -26.5q559 0 559 196q0 78 -121.5 201.5t-374.5 301.5l16 185q183 84 393.5 154t438.5 121
l29 -201q-213 -51 -371 -98t-280 -95l-1 -8q134 -102 218 -175.5t141.5 -141.5t109.5 -153q68 -114 125 -176t125 -86.5t165 -24.5h1v-203h-1q-181 0 -289 73.5t-183 247.5h-10zM1528 1643l20 -107q-358 -63 -686 -228l-51 97q167 84 348.5 144.5t368.5 93.5z" />
    <glyph glyph-name="uniFB94" unicode="&#x6af;" horiz-adv-x="852" arabic-form="initial" 
d="M871 1362l30 -201q-220 -53 -376.5 -99.5t-275.5 -93.5l-1 -8q169 -129 272 -227t150.5 -180.5t47.5 -167.5q0 -185 -153 -285t-437 -100h-128q-17 0 -25 23.5t-8 78.5q0 54 8 77.5t25 23.5h124q400 0 400 193q0 57 -50.5 125t-160.5 160t-290 221l16 185
q181 83 390.5 153t441.5 122zM709 1643l20 -107q-358 -63 -686 -228l-51 97q167 84 348.5 144.5t368.5 93.5z" />
    <glyph glyph-name="uniFB95" unicode="&#x6af;" horiz-adv-x="1132" arabic-form="medial" 
d="M649 322q-22 -170 -148 -246t-373 -76h-128q-17 0 -25 23.5t-8 77.5q0 55 8 78.5t25 23.5h124q203 0 299 50t96 141q0 52 -48 120.5t-156.5 163.5t-291.5 224l16 185q184 84 394 154t438 121l30 -201q-214 -51 -372 -98t-280 -95l-1 -8q131 -98 215.5 -171.5t143 -142.5
t110.5 -154q66 -110 121.5 -173.5t123.5 -89.5t169 -26h1v-203h-1q-180 0 -288 74t-184 248h-10zM709 1643l20 -107q-358 -63 -686 -228l-51 97q167 84 348.5 144.5t368.5 93.5z" />
    <glyph glyph-name="uniFB96" unicode="&#x6b3;" horiz-adv-x="1685" arabic-form="isolated" 
d="M639 -354l144 145l144 -145l-144 -144zM639 -703l144 144l144 -144l-144 -145zM1528 1643l20 -107q-358 -63 -686 -228l-51 97q167 84 348.5 144.5t368.5 93.5zM136 797l178 -41q-38 -173 -38 -277q0 -101 50.5 -162t164 -87.5t302.5 -26.5q269 0 416.5 53t147.5 151
q0 81 -119.5 196t-381.5 299l16 185q180 83 390 153t442 122l29 -201q-220 -53 -376 -99.5t-275 -93.5l-1 -8q168 -129 271.5 -226.5t151 -178t47.5 -160.5q0 -189 -199 -292t-565 -103q-369 0 -531.5 108t-162.5 352q0 129 43 337z" />
    <glyph glyph-name="uniFB97" unicode="&#x6b3;" horiz-adv-x="1966" arabic-form="final" 
d="M636 -354l144 145l144 -145l-144 -144zM636 -703l144 144l144 -144l-144 -145zM1483 321q-19 -164 -187.5 -242.5t-503.5 -78.5q-248 0 -402 46.5t-224.5 148t-70.5 265.5q0 134 43 337l178 -41q-18 -88 -28 -160t-10 -117q0 -101 50 -162t163 -87.5t302 -26.5
q559 0 559 196q0 78 -121.5 201.5t-374.5 301.5l16 185q183 84 393.5 154t438.5 121l29 -201q-213 -51 -371 -98t-280 -95l-1 -8q134 -102 218 -175.5t141.5 -141.5t109.5 -153q68 -114 125 -176t125 -86.5t165 -24.5h1v-203h-1q-181 0 -289 73.5t-183 247.5h-10zM1528 1643
l20 -107q-358 -63 -686 -228l-51 97q167 84 348.5 144.5t368.5 93.5z" />
    <glyph glyph-name="uniFB98" unicode="&#x6b3;" horiz-adv-x="852" arabic-form="initial" 
d="M341 -354l144 145l144 -145l-144 -144zM341 -703l144 144l144 -144l-144 -145zM871 1362l30 -201q-220 -53 -376.5 -99.5t-275.5 -93.5l-1 -8q169 -129 272 -227t150.5 -180.5t47.5 -167.5q0 -185 -153 -285t-437 -100h-128q-17 0 -25 23.5t-8 78.5q0 54 8 77.5t25 23.5
h124q400 0 400 193q0 57 -50.5 125t-160.5 160t-290 221l16 185q181 83 390.5 153t441.5 122zM709 1643l20 -107q-358 -63 -686 -228l-51 97q167 84 348.5 144.5t368.5 93.5z" />
    <glyph glyph-name="uniFB99" unicode="&#x6b3;" horiz-adv-x="1132" arabic-form="medial" 
d="M426 -354l144 145l144 -145l-144 -144zM426 -703l144 144l144 -144l-144 -145zM649 322q-22 -170 -148 -246t-373 -76h-128q-17 0 -25 23.5t-8 77.5q0 55 8 78.5t25 23.5h124q203 0 299 50t96 141q0 52 -48 120.5t-156.5 163.5t-291.5 224l16 185q184 84 394 154t438 121
l30 -201q-214 -51 -372 -98t-280 -95l-1 -8q131 -98 215.5 -171.5t143 -142.5t110.5 -154q66 -110 121.5 -173.5t123.5 -89.5t169 -26h1v-203h-1q-180 0 -288 74t-184 248h-10zM709 1643l20 -107q-358 -63 -686 -228l-51 97q167 84 348.5 144.5t368.5 93.5z" />
    <glyph glyph-name="uniFB9A" unicode="&#x6b1;" horiz-adv-x="1685" arabic-form="isolated" 
d="M136 797l178 -41q-38 -173 -38 -277q0 -101 50.5 -162t164 -87.5t302.5 -26.5q269 0 416.5 53t147.5 151q0 81 -119.5 196t-381.5 299l16 185q180 83 390 153t442 122l29 -201q-220 -53 -376 -99.5t-275 -93.5l-1 -8q168 -129 271.5 -226.5t151 -178t47.5 -160.5
q0 -189 -199 -292t-565 -103q-369 0 -531.5 108t-162.5 352q0 129 43 337zM1528 1643l20 -107q-358 -63 -686 -228l-51 97q167 84 348.5 144.5t368.5 93.5zM1119 1864l126 126l127 -126l-127 -127zM801 1768l126 126l127 -126l-127 -127z" />
    <glyph glyph-name="uniFB9B" unicode="&#x6b1;" horiz-adv-x="1966" arabic-form="final" 
d="M1483 321q-19 -164 -187.5 -242.5t-503.5 -78.5q-248 0 -402 46.5t-224.5 148t-70.5 265.5q0 134 43 337l178 -41q-18 -88 -28 -160t-10 -117q0 -101 50 -162t163 -87.5t302 -26.5q559 0 559 196q0 78 -121.5 201.5t-374.5 301.5l16 185q183 84 393.5 154t438.5 121
l29 -201q-213 -51 -371 -98t-280 -95l-1 -8q134 -102 218 -175.5t141.5 -141.5t109.5 -153q68 -114 125 -176t125 -86.5t165 -24.5h1v-203h-1q-181 0 -289 73.5t-183 247.5h-10zM1528 1643l20 -107q-358 -63 -686 -228l-51 97q167 84 348.5 144.5t368.5 93.5zM1119 1864
l126 126l127 -126l-127 -127zM801 1768l126 126l127 -126l-127 -127z" />
    <glyph glyph-name="uniFB9C" unicode="&#x6b1;" horiz-adv-x="852" arabic-form="initial" 
d="M871 1362l30 -201q-220 -53 -376.5 -99.5t-275.5 -93.5l-1 -8q169 -129 272 -227t150.5 -180.5t47.5 -167.5q0 -185 -153 -285t-437 -100h-128q-17 0 -25 23.5t-8 78.5q0 54 8 77.5t25 23.5h124q400 0 400 193q0 57 -50.5 125t-160.5 160t-290 221l16 185
q181 83 390.5 153t441.5 122zM709 1643l20 -107q-358 -63 -686 -228l-51 97q167 84 348.5 144.5t368.5 93.5zM360 1864l126 126l127 -126l-127 -127zM42 1768l126 126l127 -126l-127 -127z" />
    <glyph glyph-name="uniFB9D" unicode="&#x6b1;" horiz-adv-x="1132" arabic-form="medial" 
d="M649 322q-22 -170 -148 -246t-373 -76h-128q-17 0 -25 23.5t-8 77.5q0 55 8 78.5t25 23.5h124q203 0 299 50t96 141q0 52 -48 120.5t-156.5 163.5t-291.5 224l16 185q184 84 394 154t438 121l30 -201q-214 -51 -372 -98t-280 -95l-1 -8q131 -98 215.5 -171.5t143 -142.5
t110.5 -154q66 -110 121.5 -173.5t123.5 -89.5t169 -26h1v-203h-1q-180 0 -288 74t-184 248h-10zM709 1643l20 -107q-358 -63 -686 -228l-51 97q167 84 348.5 144.5t368.5 93.5zM360 1864l126 126l127 -126l-127 -127zM42 1768l126 126l127 -126l-127 -127z" />
    <glyph glyph-name="uniFB9E" unicode="&#x6ba;" horiz-adv-x="1561" arabic-form="isolated" 
d="M1134 620l181 86q77 -175 113.5 -312t36.5 -245q0 -201 -85.5 -334.5t-240 -200.5t-362.5 -67q-328 0 -503 145.5t-175 461.5q0 86 14.5 196t45.5 257l184 -40q-31 -156 -43.5 -247t-12.5 -156q0 -224 122.5 -319t362.5 -95q239 0 371.5 88t132.5 296q0 86 -32.5 196.5
t-109.5 289.5z" />
    <glyph glyph-name="uniFB9F" unicode="&#x6ba;" horiz-adv-x="1709" arabic-form="final" 
d="M159 567l184 -40q-31 -155 -43.5 -246t-12.5 -156q0 -223 123 -316.5t362 -93.5q507 0 507 359q0 83 -35.5 199.5t-115.5 306.5l178 86l79 -203q41 -102 79 -158.5t92.5 -79t143.5 -22.5h9v-203h-3q-155 0 -251 117l-9 -3q23 -292 -157 -447t-512 -155q-328 0 -503 144
t-175 458q0 86 14 195.5t46 257.5z" />
    <glyph glyph-name="uniFBA0" unicode="&#x6bb;" horiz-adv-x="1561" arabic-form="isolated" 
d="M628 397v319h70v-231h9q64 65 101.5 88t80.5 23q45 0 76.5 -36t31.5 -88q0 -147 -229 -147h-235v72h95zM692 397h76q84 0 122.5 16.5t38.5 53.5q0 26 -17 41.5t-45 15.5q-34 0 -71 -26.5t-104 -100.5zM1134 620l181 86q77 -175 113.5 -312t36.5 -245q0 -201 -85.5 -334.5
t-240 -200.5t-362.5 -67q-328 0 -503 145.5t-175 461.5q0 86 14.5 196t45.5 257l184 -40q-31 -156 -43.5 -247t-12.5 -156q0 -224 122.5 -319t362.5 -95q239 0 371.5 88t132.5 296q0 86 -32.5 196.5t-109.5 289.5z" />
    <glyph glyph-name="uniFBA1" unicode="&#x6bb;" horiz-adv-x="1709" arabic-form="final" 
d="M628 357v319h70v-231h9q64 65 101.5 88t80.5 23q45 0 76.5 -36t31.5 -88q0 -147 -229 -147h-235v72h95zM692 357h76q84 0 122.5 16.5t38.5 53.5q0 26 -17 41.5t-45 15.5q-34 0 -71 -26.5t-104 -100.5zM159 567l184 -40q-31 -155 -43.5 -246t-12.5 -156q0 -223 123 -316.5
t362 -93.5q507 0 507 359q0 83 -35.5 199.5t-115.5 306.5l178 86l79 -203q41 -102 79 -158.5t92.5 -79t143.5 -22.5h9v-203h-3q-155 0 -251 117l-9 -3q23 -292 -157 -447t-512 -155q-328 0 -503 144t-175 458q0 86 14 195.5t46 257.5z" />
    <glyph glyph-name="uniFBA2" unicode="&#x6bb;" horiz-adv-x="590" arabic-form="initial" 
d="M66 1141v411h93v-296h10q66 67 116 98t101 31q62 0 100.5 -44t38.5 -104q0 -97 -68 -145t-195 -48h-321v97h125zM147 1141h115q92 0 135 19t43 62q0 31 -20 49.5t-55 18.5q-46 0 -94 -33.5t-124 -115.5zM437 792q29 -110 45.5 -207t16.5 -174q0 -200 -109.5 -305.5
t-342.5 -105.5h-47q-33 0 -33 102q0 101 33 101h47q141 0 202 56t61 168q0 56 -15 136.5t-39 178.5z" />
    <glyph glyph-name="uniFBA3" unicode="&#x6bb;" horiz-adv-x="837" arabic-form="medial" 
d="M143 997v411h93v-296h10q66 67 116 98t101 31q62 0 100.5 -44t38.5 -104q0 -97 -68 -145t-195 -48h-321v97h125zM224 997h115q92 0 135 19t43 62q0 31 -20 49.5t-55 18.5q-46 0 -94 -33.5t-124 -115.5zM518 494q0 -99 19 -163.5t73.5 -96t162.5 -31.5h64v-203h-67
q-127 0 -220.5 61t-125.5 173h-10q-32 -112 -135.5 -173t-231.5 -61h-47q-33 0 -33 102q0 101 33 101h47q116 0 175.5 32t80 96.5t20.5 162.5v144h195v-144z" />
    <glyph glyph-name="uniFBA4" unicode="&#x6c0;" horiz-adv-x="910" arabic-form="isolated" 
d="M453 -11q-170 0 -265 93.5t-95 232.5q0 136 72 258.5t176 225.5q-51 50 -102 92l120 143q126 -103 230.5 -217t167 -236t62.5 -251q0 -99 -45.5 -176t-128 -121t-192.5 -44zM453 193q92 0 134.5 45t42.5 113q0 77 -47 165t-130 164q-82 -76 -130 -164.5t-48 -164.5
q0 -68 42 -113t136 -45zM338 1232q-54 0 -118 11l24 104q26 -5 54 -7.5t54 -2.5q68 0 126.5 18.5t58.5 63.5q0 28 -30 38.5t-82 18.5q-66 12 -110 38.5t-44 94.5q0 105 70 169t171 64q55 0 112 -18l-34 -99q-20 5 -41 8.5t-42 3.5q-57 0 -99.5 -27t-42.5 -77q0 -34 30 -46
t87 -22q63 -10 106.5 -36t43.5 -96q0 -99 -85.5 -150t-208.5 -51z" />
    <glyph glyph-name="uniFBA6" unicode="&#x6c1;" horiz-adv-x="910" arabic-form="isolated" 
d="M453 -11q-170 0 -265 93.5t-95 232.5q0 136 72 258.5t176 225.5q-51 50 -102 92l120 143q126 -103 230.5 -217t167 -236t62.5 -251q0 -99 -45.5 -176t-128 -121t-192.5 -44zM453 193q92 0 134.5 45t42.5 113q0 77 -47 165t-130 164q-82 -76 -130 -164.5t-48 -164.5
q0 -68 42 -113t136 -45z" />
    <glyph glyph-name="uniFBA7" unicode="&#x6c1;" horiz-adv-x="1245" arabic-form="final" 
d="M1245 203v-203h-1q-170 0 -305 73.5t-246 171.5q-33 29 -63 55.5t-59 48.5q-44 34 -81 34q-24 0 -42.5 -14.5t-36.5 -49.5q-21 -31 -39 -78.5t-33 -104.5q-18 -67 -31 -139.5t-24 -141.5l-191 31q11 70 24 143.5t32 143.5q18 70 42 131t55 109q87 182 233 182
q43 0 83.5 -13.5t82.5 -39.5q36 -22 72.5 -52.5t75.5 -66.5q104 -96 209.5 -158t241.5 -62h1z" />
    <glyph glyph-name="uniFBA8" unicode="&#x6c1;" horiz-adv-x="590" arabic-form="initial" 
d="M87 -508l14 -3q34 26 70 26q41 0 73.5 -35t32.5 -91q0 -65 -37 -103.5t-100 -38.5q-75 0 -116.5 54t-41.5 151q0 206 191 353l67 -79q-74 -52 -110 -107.5t-43 -126.5zM437 792q29 -110 45.5 -207t16.5 -174q0 -200 -109.5 -305.5t-342.5 -105.5h-47q-33 0 -33 102
q0 101 33 101h47q141 0 202 56t61 168q0 56 -15 136.5t-39 178.5z" />
    <glyph glyph-name="uniFBA9" unicode="&#x6c1;" horiz-adv-x="1048" arabic-form="medial" 
d="M0 203q108 0 177.5 47t116 134.5t85.5 209.5l172 -53q-35 -105 -54 -205.5t-19 -190.5q0 -130 39.5 -252.5t120.5 -210.5q42 255 130 381q44 67 105 103.5t148 36.5h27v-203h-27q-62 0 -99.5 -22.5t-65.5 -68.5q-74 -100 -111 -400l-123 -63q-150 100 -223.5 293
t-64.5 443l-9 5q-55 -88 -133.5 -137.5t-191.5 -49.5q-33 0 -33 101q0 102 33 102z" />
    <glyph glyph-name="uniFBAA" unicode="&#x6be;" horiz-adv-x="1510" arabic-form="isolated" 
d="M144 -103l-49 197q105 18 197.5 44.5t169.5 59.5q-92 67 -147.5 151.5t-55.5 172.5q0 98 56 180t153 112l2 10l-170 73l80 177l537 -230q183 -77 292 -151t157 -159t48 -194q0 -163 -102.5 -257t-278.5 -94q-105 0 -206.5 24t-192.5 66q-100 -63 -224 -110t-266 -72z
M637 283q83 53 128.5 114.5t45.5 127.5q0 98 -48.5 154t-131.5 56q-85 0 -145 -61t-60 -147q0 -69 58.5 -133t152.5 -111zM796 233q58 -19 121 -30t129 -11q205 0 205 157q0 85 -72 149.5t-249 136.5q38 -115 2.5 -217t-136.5 -185z" />
    <glyph glyph-name="uniFBAB" unicode="&#x6be;" horiz-adv-x="1156" arabic-form="final" 
d="M692 885l-9 160l194 11l35 -577q7 -107 30.5 -167.5t74 -84.5t138.5 -24h1v-203h-1q-141 0 -228.5 48.5t-136.5 146.5q-111 -47 -234 -47q-111 0 -200.5 33t-142 97.5t-52.5 157.5q0 172 140.5 289t390.5 160zM705 697q-169 -17 -269.5 -76.5t-100.5 -148.5
q0 -71 68 -104t165 -33q92 0 167 23q-6 29 -9 53.5t-5 52.5z" />
    <glyph glyph-name="uniFBAC" unicode="&#x6be;" horiz-adv-x="1378" arabic-form="initial" 
d="M0 203h59q73 0 127.5 7.5t110.5 25.5q-170 134 -170 286q0 98 56 180t153 112l2 10l-170 73l80 177l537 -230q183 -77 292 -151t157.5 -159t48.5 -194q0 -163 -102.5 -257t-279.5 -94q-208 0 -417 118q-94 -55 -192 -81t-217 -26h-75q-33 0 -33 102q0 101 33 101z
M492 279q89 44 138 108.5t49 137.5q0 98 -48.5 154t-131.5 56t-144 -63.5t-61 -152.5q0 -64 52 -127t146 -113zM670 242q62 -23 125.5 -36.5t118.5 -13.5q206 0 206 157q0 85 -72.5 149.5t-248.5 136.5q41 -121 7.5 -221.5t-136.5 -171.5z" />
    <glyph glyph-name="uniFBAD" unicode="&#x6be;" horiz-adv-x="1048" arabic-form="medial" 
d="M557 871q143 0 220.5 -91t77.5 -222q0 -98 -49.5 -191t-147.5 -154v-10h390v-203h-357v-10q98 -53 145 -126.5t47 -156.5q0 -133 -78.5 -208.5t-218.5 -75.5q-187 0 -296 148t-130 429h-160q-33 0 -33 100q0 103 33 103h156q9 317 112.5 492.5t288.5 175.5zM302 203h136
q75 0 134.5 46t94.5 116.5t35 143.5q0 76 -42 120t-105 44q-114 0 -183.5 -124.5t-69.5 -345.5zM580 -380q68 0 105 33t37 95q0 64 -36.5 121.5t-100.5 94t-147 36.5h-135q8 -187 80.5 -283.5t196.5 -96.5z" />
    <glyph glyph-name="uniFBAE" unicode="&#x6d2;" horiz-adv-x="1479" arabic-form="isolated" 
d="M470 0q-102 0 -188 28t-137.5 92.5t-51.5 172.5q0 151 94 266.5t261.5 181.5t385.5 66h230v-202h-231q-172 0 -294 -40t-186.5 -105.5t-64.5 -142.5q0 -63 50.5 -88.5t129.5 -25.5h919v-203h-917z" />
    <glyph glyph-name="uniFBAF" unicode="&#x6d2;" horiz-adv-x="1328" arabic-form="final" 
d="M470 -605q-102 0 -188 28t-137.5 92.5t-51.5 172.5q0 151 94 267t261.5 182t385.5 66h494v-203h-495q-172 0 -294 -40t-186.5 -105.5t-64.5 -142.5q0 -63 50.5 -89t129.5 -26h710v-202h-708z" />
    <glyph glyph-name="uniFBB0" unicode="&#x6d3;" horiz-adv-x="1479" arabic-form="isolated" 
d="M954 1520l-28 -89q-38 15 -73 15q-55 0 -90 -30t-35 -78q0 -43 30 -68t78 -25q36 0 76 13l104 33l29 -96l-459 -146l-29 98l169 48v10q-88 37 -88 140q0 84 60 140.5t152 56.5q26 0 51 -6t53 -16zM470 0q-102 0 -188 28t-137.5 92.5t-51.5 172.5q0 151 94 266.5
t261.5 181.5t385.5 66h230v-202h-231q-172 0 -294 -40t-186.5 -105.5t-64.5 -142.5q0 -63 50.5 -88.5t129.5 -25.5h919v-203h-917z" />
    <glyph glyph-name="uniFBB1" unicode="&#x6d3;" horiz-adv-x="1328" arabic-form="final" 
d="M962 912l-28 -89q-38 15 -73 15q-55 0 -90 -30t-35 -78q0 -43 30 -68t78 -25q36 0 76 13l104 33l29 -96l-459 -146l-29 98l169 48v10q-88 37 -88 140q0 84 60 140.5t152 56.5q26 0 51 -6t53 -16zM470 -605q-102 0 -188 28t-137.5 92.5t-51.5 172.5q0 151 94 267
t261.5 182t385.5 66h494v-203h-495q-172 0 -294 -40t-186.5 -105.5t-64.5 -142.5q0 -63 50.5 -89t129.5 -26h710v-202h-708z" />
    <glyph glyph-name="uniFBD3" unicode="&#x6ad;" horiz-adv-x="1676" arabic-form="isolated" 
d="M651 1659l143 144l145 -144l-145 -144zM825 1345l144 144l145 -144l-145 -145zM476 1345l144 144l145 -144l-145 -145zM686 484q-54 0 -118 11l24 104q26 -5 54 -7.5t54 -2.5q68 0 126.5 18.5t58.5 63.5q0 28 -30 38.5t-82 18.5q-66 12 -110 38.5t-44 94.5q0 105 70 169
t171 64q55 0 112 -18l-34 -99q-20 5 -41 8.5t-42 3.5q-57 0 -99.5 -27t-42.5 -77q0 -34 30 -46t87 -22q63 -10 106.5 -36t43.5 -96q0 -99 -85.5 -150t-208.5 -51zM798 203q198 0 315 25t168 93.5t51 198.5v824h194v-824q0 -192 -80.5 -306t-246 -164t-420.5 -50
q-242 0 -393.5 42.5t-222 137.5t-70.5 252q0 62 10.5 138.5t26.5 146.5l175 -39q-12 -57 -21.5 -126t-9.5 -112q0 -91 48 -143t162.5 -73t313.5 -21z" />
    <glyph glyph-name="uniFBD4" unicode="&#x6ad;" horiz-adv-x="1842" arabic-form="final" 
d="M651 1659l143 144l145 -144l-145 -144zM825 1345l144 144l145 -144l-145 -145zM476 1345l144 144l145 -144l-145 -145zM686 484q-54 0 -118 11l24 104q26 -5 54 -7.5t54 -2.5q68 0 126.5 18.5t58.5 63.5q0 28 -30 38.5t-82 18.5q-66 12 -110 38.5t-44 94.5q0 105 70 169
t171 64q55 0 112 -18l-34 -99q-20 5 -41 8.5t-42 3.5q-57 0 -99.5 -27t-42.5 -77q0 -34 30 -46t87 -22q63 -10 106.5 -36t43.5 -96q0 -99 -85.5 -150t-208.5 -51zM1526 523q0 -175 73.5 -247.5t241.5 -72.5h1v-203h-1q-163 0 -268 64t-135 192h-10q-45 -140 -196.5 -198
t-432.5 -58q-254 0 -409.5 42.5t-226 137t-70.5 251.5q0 59 10 135.5t27 150.5l175 -39q-13 -63 -22 -130.5t-9 -108.5q0 -91 49 -142.5t164 -72.5t313 -21q207 0 323 28t162.5 97t46.5 192v824h194v-821z" />
    <glyph glyph-name="uniFBD5" unicode="&#x6ad;" horiz-adv-x="852" arabic-form="initial" 
d="M214 1811l126 126l127 -126l-127 -127zM438 1596l126 126l127 -126l-127 -127zM120 1501l126 126l127 -126l-127 -127zM871 1362l30 -201q-220 -53 -376.5 -99.5t-275.5 -93.5l-1 -8q169 -129 272 -227t150.5 -180.5t47.5 -167.5q0 -185 -153 -285t-437 -100h-128
q-17 0 -25 23.5t-8 78.5q0 54 8 77.5t25 23.5h124q400 0 400 193q0 57 -50.5 125t-160.5 160t-290 221l16 185q181 83 390.5 153t441.5 122z" />
    <glyph glyph-name="uniFBD6" unicode="&#x6ad;" horiz-adv-x="1132" arabic-form="medial" 
d="M214 1811l126 126l127 -126l-127 -127zM438 1596l126 126l127 -126l-127 -127zM120 1501l126 126l127 -126l-127 -127zM649 322q-22 -170 -148 -246t-373 -76h-128q-17 0 -25 23.5t-8 77.5q0 55 8 78.5t25 23.5h124q203 0 299 50t96 141q0 52 -48 120.5t-156.5 163.5
t-291.5 224l16 185q184 84 394 154t438 121l30 -201q-214 -51 -372 -98t-280 -95l-1 -8q131 -98 215.5 -171.5t143 -142.5t110.5 -154q66 -110 121.5 -173.5t123.5 -89.5t169 -26h1v-203h-1q-180 0 -288 74t-184 248h-10z" />
    <glyph glyph-name="uniFBD7" unicode="&#x6c7;" horiz-adv-x="959" arabic-form="isolated" 
d="M561 1540q67 0 107 -47.5t40 -126.5q0 -86 -56.5 -158.5t-155.5 -127.5t-227 -90l-28 96q56 15 125.5 43.5t125.5 62.5q-49 19 -89 57.5t-40 100.5q0 47 27 90.5t72 71.5t99 28zM549 1444q-36 0 -68 -29.5t-32 -65.5q0 -39 37.5 -61.5t83.5 -35.5q41 47 41 109
q0 34 -15.5 58.5t-46.5 24.5zM679 12l-7 10q-46 -13 -101.5 -21.5t-115.5 -8.5q-160 0 -251 78.5t-91 240.5q0 122 39 232t117.5 180t198.5 70q110 0 186.5 -61t123.5 -162.5t68.5 -224.5t21.5 -246q0 -234 -183 -389.5t-523 -250.5l-82 185q254 59 412 154t187 214z
M681 216q-3 61 -15 126t-37 121t-66 91t-100 35q-63 0 -105 -38t-62.5 -96t-20.5 -118q0 -83 50.5 -115t136.5 -32q62 0 117 8t102 18z" />
    <glyph glyph-name="uniFBD8" unicode="&#x6c7;" horiz-adv-x="936" arabic-form="final" 
d="M561 1540q67 0 107 -47.5t40 -126.5q0 -86 -56.5 -158.5t-155.5 -127.5t-227 -90l-28 96q56 15 125.5 43.5t125.5 62.5q-49 19 -89 57.5t-40 100.5q0 47 27 90.5t72 71.5t99 28zM549 1444q-36 0 -68 -29.5t-32 -65.5q0 -39 37.5 -61.5t83.5 -35.5q41 47 41 109
q0 34 -15.5 58.5t-46.5 24.5zM680 -5l-6 11q-56 -4 -112 -5t-109 -1q-158 0 -249 77.5t-91 240.5q0 121 39 229.5t118 177t198 68.5q101 0 172 -51.5t117.5 -137t71.5 -190t33 -211.5h74v-203h-80q-28 -193 -208.5 -325t-485.5 -216l-82 185q247 57 406.5 148t193.5 203z
M683 199q-2 62 -14 130t-37 127t-66.5 96t-102.5 37q-63 0 -105 -36t-62.5 -92t-20.5 -116q0 -84 51 -116.5t136 -32.5q54 0 109.5 0.5t111.5 2.5z" />
    <glyph glyph-name="uniFBD9" unicode="&#x6c6;" horiz-adv-x="959" arabic-form="isolated" 
d="M510 1050h-90l-211 272l83 65l173 -228l173 228l83 -65zM679 12l-7 10q-46 -13 -101.5 -21.5t-115.5 -8.5q-160 0 -251 78.5t-91 240.5q0 122 39 232t117.5 180t198.5 70q110 0 186.5 -61t123.5 -162.5t68.5 -224.5t21.5 -246q0 -234 -183 -389.5t-523 -250.5l-82 185
q254 59 412 154t187 214zM681 216q-3 61 -15 126t-37 121t-66 91t-100 35q-63 0 -105 -38t-62.5 -96t-20.5 -118q0 -83 50.5 -115t136.5 -32q62 0 117 8t102 18z" />
    <glyph glyph-name="uniFBDA" unicode="&#x6c6;" horiz-adv-x="936" arabic-form="final" 
d="M510 1050h-90l-211 272l83 65l173 -228l173 228l83 -65zM680 -5l-6 11q-56 -4 -112 -5t-109 -1q-158 0 -249 77.5t-91 240.5q0 121 39 229.5t118 177t198 68.5q101 0 172 -51.5t117.5 -137t71.5 -190t33 -211.5h74v-203h-80q-28 -193 -208.5 -325t-485.5 -216l-82 185
q247 57 406.5 148t193.5 203zM683 199q-2 62 -14 130t-37 127t-66.5 96t-102.5 37q-63 0 -105 -36t-62.5 -92t-20.5 -116q0 -84 51 -116.5t136 -32.5q54 0 109.5 0.5t111.5 2.5z" />
    <glyph glyph-name="uniFBDB" unicode="&#x6c8;" horiz-adv-x="959" arabic-form="isolated" 
d="M420 1407h103v-376h-103v376zM679 12l-7 10q-46 -13 -101.5 -21.5t-115.5 -8.5q-160 0 -251 78.5t-91 240.5q0 122 39 232t117.5 180t198.5 70q110 0 186.5 -61t123.5 -162.5t68.5 -224.5t21.5 -246q0 -234 -183 -389.5t-523 -250.5l-82 185q254 59 412 154t187 214z
M681 216q-3 61 -15 126t-37 121t-66 91t-100 35q-63 0 -105 -38t-62.5 -96t-20.5 -118q0 -83 50.5 -115t136.5 -32q62 0 117 8t102 18z" />
    <glyph glyph-name="uniFBDC" unicode="&#x6c8;" horiz-adv-x="936" arabic-form="final" 
d="M420 1407h103v-376h-103v376zM680 -5l-6 11q-56 -4 -112 -5t-109 -1q-158 0 -249 77.5t-91 240.5q0 121 39 229.5t118 177t198 68.5q101 0 172 -51.5t117.5 -137t71.5 -190t33 -211.5h74v-203h-80q-28 -193 -208.5 -325t-485.5 -216l-82 185q247 57 406.5 148t193.5 203z
M683 199q-2 62 -14 130t-37 127t-66.5 96t-102.5 37q-63 0 -105 -36t-62.5 -92t-20.5 -116q0 -84 51 -116.5t136 -32.5q54 0 109.5 0.5t111.5 2.5z" />
    <glyph glyph-name="uniFBDD" unicode="&#x677;" horiz-adv-x="959" arabic-form="isolated" 
d="M316 1529q67 0 107 -47.5t40 -126.5q0 -86 -56.5 -158.5t-155.5 -127.5t-227 -90l-28 96q56 15 125.5 43.5t125.5 62.5q-49 19 -89 57.5t-40 100.5q0 47 27 90.5t72 71.5t99 28zM304 1433q-36 0 -68 -29.5t-32 -65.5q0 -39 37.5 -61.5t83.5 -35.5q41 47 41 109
q0 34 -15.5 58.5t-46.5 24.5zM879 1462l-28 -89q-38 15 -73 15q-55 0 -90 -30t-35 -78q0 -43 30 -68t78 -25q36 0 76 13l104 33l29 -96l-459 -146l-29 98l169 48v10q-88 37 -88 140q0 84 60 140.5t152 56.5q26 0 51 -6t53 -16zM679 12l-7 10q-46 -13 -101.5 -21.5
t-115.5 -8.5q-160 0 -251 78.5t-91 240.5q0 122 39 232t117.5 180t198.5 70q110 0 186.5 -61t123.5 -162.5t68.5 -224.5t21.5 -246q0 -234 -183 -389.5t-523 -250.5l-82 185q254 59 412 154t187 214zM681 216q-3 61 -15 126t-37 121t-66 91t-100 35q-63 0 -105 -38
t-62.5 -96t-20.5 -118q0 -83 50.5 -115t136.5 -32q62 0 117 8t102 18z" />
    <glyph glyph-name="uniFBDE" unicode="&#x6cb;" horiz-adv-x="959" arabic-form="isolated" 
d="M329 1495l143 144l145 -144l-145 -144zM503 1181l144 144l145 -144l-145 -145zM154 1181l144 144l145 -144l-145 -145zM679 12l-7 10q-46 -13 -101.5 -21.5t-115.5 -8.5q-160 0 -251 78.5t-91 240.5q0 122 39 232t117.5 180t198.5 70q110 0 186.5 -61t123.5 -162.5
t68.5 -224.5t21.5 -246q0 -234 -183 -389.5t-523 -250.5l-82 185q254 59 412 154t187 214zM681 216q-3 61 -15 126t-37 121t-66 91t-100 35q-63 0 -105 -38t-62.5 -96t-20.5 -118q0 -83 50.5 -115t136.5 -32q62 0 117 8t102 18z" />
    <glyph glyph-name="uniFBDF" unicode="&#x6cb;" horiz-adv-x="936" arabic-form="final" 
d="M329 1495l143 144l145 -144l-145 -144zM503 1181l144 144l145 -144l-145 -145zM154 1181l144 144l145 -144l-145 -145zM680 -5l-6 11q-56 -4 -112 -5t-109 -1q-158 0 -249 77.5t-91 240.5q0 121 39 229.5t118 177t198 68.5q101 0 172 -51.5t117.5 -137t71.5 -190
t33 -211.5h74v-203h-80q-28 -193 -208.5 -325t-485.5 -216l-82 185q247 57 406.5 148t193.5 203zM683 199q-2 62 -14 130t-37 127t-66.5 96t-102.5 37q-63 0 -105 -36t-62.5 -92t-20.5 -116q0 -84 51 -116.5t136 -32.5q54 0 109.5 0.5t111.5 2.5z" />
    <glyph glyph-name="uniFBE0" unicode="&#x6c5;" horiz-adv-x="959" arabic-form="isolated" 
d="M736 -119v-90h-558v90h558zM679 12l-7 10q-46 -13 -101.5 -21.5t-115.5 -8.5q-160 0 -251 78.5t-91 240.5q0 122 39 232t117.5 180t198.5 70q110 0 186.5 -61t123.5 -162.5t68.5 -224.5t21.5 -246q0 -234 -183 -389.5t-523 -250.5l-82 185q254 59 412 154t187 214z
M681 216q-3 61 -15 126t-37 121t-66 91t-100 35q-63 0 -105 -38t-62.5 -96t-20.5 -118q0 -83 50.5 -115t136.5 -32q62 0 117 8t102 18z" />
    <glyph glyph-name="uniFBE1" unicode="&#x6c5;" horiz-adv-x="936" arabic-form="final" 
d="M737 -119v-90h-558v90h558zM680 -5l-6 11q-56 -4 -112 -5t-109 -1q-158 0 -249 77.5t-91 240.5q0 121 39 229.5t118 177t198 68.5q101 0 172 -51.5t117.5 -137t71.5 -190t33 -211.5h74v-203h-80q-28 -193 -208.5 -325t-485.5 -216l-82 185q247 57 406.5 148t193.5 203z
M683 199q-2 62 -14 130t-37 127t-66.5 96t-102.5 37q-63 0 -105 -36t-62.5 -92t-20.5 -116q0 -84 51 -116.5t136 -32.5q54 0 109.5 0.5t111.5 2.5z" />
    <glyph glyph-name="uniFBE2" unicode="&#x6c9;" horiz-adv-x="959" arabic-form="isolated" 
d="M430 1381h90l211 -272l-83 -65l-173 228l-173 -228l-83 65zM679 12l-7 10q-46 -13 -101.5 -21.5t-115.5 -8.5q-160 0 -251 78.5t-91 240.5q0 122 39 232t117.5 180t198.5 70q110 0 186.5 -61t123.5 -162.5t68.5 -224.5t21.5 -246q0 -234 -183 -389.5t-523 -250.5l-82 185
q254 59 412 154t187 214zM681 216q-3 61 -15 126t-37 121t-66 91t-100 35q-63 0 -105 -38t-62.5 -96t-20.5 -118q0 -83 50.5 -115t136.5 -32q62 0 117 8t102 18z" />
    <glyph glyph-name="uniFBE3" unicode="&#x6c9;" horiz-adv-x="936" arabic-form="final" 
d="M430 1381h90l211 -272l-83 -65l-173 228l-173 -228l-83 65zM680 -5l-6 11q-56 -4 -112 -5t-109 -1q-158 0 -249 77.5t-91 240.5q0 121 39 229.5t118 177t198 68.5q101 0 172 -51.5t117.5 -137t71.5 -190t33 -211.5h74v-203h-80q-28 -193 -208.5 -325t-485.5 -216l-82 185
q247 57 406.5 148t193.5 203zM683 199q-2 62 -14 130t-37 127t-66.5 96t-102.5 37q-63 0 -105 -36t-62.5 -92t-20.5 -116q0 -84 51 -116.5t136 -32.5q54 0 109.5 0.5t111.5 2.5z" />
    <glyph glyph-name="uniFBE4" unicode="&#x6d0;" horiz-adv-x="1532" arabic-form="isolated" 
d="M631 -761l144 145l144 -145l-144 -144zM631 -1110l144 144l144 -144l-144 -145zM1394 810l-65 -174q-106 48 -207 48q-85 0 -154 -36.5t-109.5 -101t-40.5 -147.5q0 -92 78.5 -117t226.5 -36q90 -7 160 -30t110 -73t40 -142q0 -135 -91 -236.5t-251 -158t-369 -56.5
q-297 0 -459 131.5t-162 378.5q0 168 45 436l187 -34q-24 -137 -34.5 -225t-10.5 -163q0 -322 437 -322q147 0 267 28t190.5 76.5t70.5 109.5q0 44 -30 64.5t-79.5 28t-108.5 11.5q-115 8 -204 35.5t-139.5 91t-50.5 179.5q0 142 66 254.5t177 178.5t247 66q127 0 263 -65z
" />
    <glyph glyph-name="uniFBE5" unicode="&#x6d0;" horiz-adv-x="1486" arabic-form="final" 
d="M613 -841l135 136l135 -136l-135 -135zM613 -1158l135 135l135 -135l-135 -136zM1188 -10q110 -50 154 -99t44 -122q0 -100 -86 -181t-233 -128t-331 -47q-327 0 -484.5 134.5t-157.5 414.5q0 98 13 229t37 280l180 -35q-23 -141 -35 -259t-12 -201q0 -191 107.5 -275
t351.5 -84q200 0 325 52t125 136q0 39 -38 67t-135.5 55t-275.5 62l28 214h721v-203h-298v-10z" />
    <glyph glyph-name="uniFBE6" unicode="&#x6d0;" horiz-adv-x="590" arabic-form="initial" 
d="M-2 -354l144 145l144 -145l-144 -144zM-2 -703l144 144l144 -144l-144 -145zM437 792q29 -110 45.5 -207t16.5 -174q0 -200 -109.5 -305.5t-342.5 -105.5h-47q-33 0 -33 102q0 101 33 101h47q141 0 202 56t61 168q0 56 -15 136.5t-39 178.5z" />
    <glyph glyph-name="uniFBE7" unicode="&#x6d0;" horiz-adv-x="837" arabic-form="medial" 
d="M-2 -354l144 145l144 -145l-144 -144zM-2 -703l144 144l144 -144l-144 -145zM518 494q0 -99 19 -163.5t73.5 -96t162.5 -31.5h64v-203h-67q-127 0 -220.5 61t-125.5 173h-10q-32 -112 -135.5 -173t-231.5 -61h-47q-33 0 -33 102q0 101 33 101h47q116 0 175.5 32t80 96.5
t20.5 162.5v144h195v-144z" />
    <glyph glyph-name="uniFBE8" unicode="&#x649;" horiz-adv-x="590" arabic-form="initial" 
d="M437 792q29 -110 45.5 -207t16.5 -174q0 -200 -109.5 -305.5t-342.5 -105.5h-47q-33 0 -33 102q0 101 33 101h47q141 0 202 56t61 168q0 56 -15 136.5t-39 178.5z" />
    <glyph glyph-name="uniFBE9" unicode="&#x649;" horiz-adv-x="837" arabic-form="medial" 
d="M518 494q0 -99 19 -163.5t73.5 -96t162.5 -31.5h64v-203h-67q-127 0 -220.5 61t-125.5 173h-10q-32 -112 -135.5 -173t-231.5 -61h-47q-33 0 -33 102q0 101 33 101h47q116 0 175.5 32t80 96.5t20.5 162.5v144h195v-144z" />
    <glyph glyph-name="uniFBFC" unicode="&#x6cc;" horiz-adv-x="1532" arabic-form="isolated" 
d="M1394 810l-65 -174q-106 48 -207 48q-85 0 -154 -36.5t-109.5 -101t-40.5 -147.5q0 -92 78.5 -117t226.5 -36q90 -7 160 -30t110 -73t40 -142q0 -135 -91 -236.5t-251 -158t-369 -56.5q-297 0 -459 131.5t-162 378.5q0 168 45 436l187 -34q-24 -137 -34.5 -225
t-10.5 -163q0 -322 437 -322q147 0 267 28t190.5 76.5t70.5 109.5q0 44 -30 64.5t-79.5 28t-108.5 11.5q-115 8 -204 35.5t-139.5 91t-50.5 179.5q0 142 66 254.5t177 178.5t247 66q127 0 263 -65z" />
    <glyph glyph-name="uniFBFD" unicode="&#x6cc;" horiz-adv-x="1486" arabic-form="final" 
d="M1188 -10q110 -50 154 -99t44 -122q0 -100 -86 -181t-233 -128t-331 -47q-327 0 -484.5 134.5t-157.5 414.5q0 98 13 229t37 280l180 -35q-23 -141 -35 -259t-12 -201q0 -191 107.5 -275t351.5 -84q200 0 325 52t125 136q0 39 -38 67t-135.5 55t-275.5 62l28 214h721
v-203h-298v-10z" />
    <glyph glyph-name="uniFBFE" unicode="&#x6cc;" horiz-adv-x="590" arabic-form="initial" 
d="M437 792q29 -110 45.5 -207t16.5 -174q0 -200 -109.5 -305.5t-342.5 -105.5h-47q-33 0 -33 102q0 101 33 101h47q141 0 202 56t61 168q0 56 -15 136.5t-39 178.5zM-189 -354l144 144l145 -144l-145 -145zM160 -354l144 144l145 -144l-145 -145z" />
    <glyph glyph-name="uniFBFF" unicode="&#x6cc;" horiz-adv-x="837" arabic-form="medial" 
d="M518 494q0 -99 19 -163.5t73.5 -96t162.5 -31.5h64v-203h-67q-127 0 -220.5 61t-125.5 173h-10q-32 -112 -135.5 -173t-231.5 -61h-47q-33 0 -33 102q0 101 33 101h47q116 0 175.5 32t80 96.5t20.5 162.5v144h195v-144zM-221 -354l144 144l145 -144l-145 -145zM128 -354
l144 144l145 -144l-145 -145z" />
    <glyph glyph-name="uniFCF2" unicode="&#xfcf2;" horiz-adv-x="885" arabic-form="medial" 
d="M0 203h885v-203h-885q-17 0 -25 22t-8 80q0 59 8 80t25 21zM665 1252l31 -100l-459 -147l-31 101zM441 697q-19 -95 -114 -95q-62 0 -97.5 37.5t-35.5 103.5q0 44 8.5 83t24.5 86l80 -27q-10 -31 -18 -63t-8 -56q0 -62 57 -62q36 0 52.5 27.5t16.5 96.5v24h78v-24
q0 -69 16 -96.5t52 -27.5q57 0 57 62q0 24 -7 56t-18 63l80 27q16 -47 24.5 -86t8.5 -83q0 -66 -35.5 -103.5t-97.5 -37.5q-96 0 -114 95h-10z" />
    <glyph glyph-name="uniFCF3" unicode="&#xfcf3;" horiz-adv-x="885" arabic-form="medial" 
d="M0 203h885v-203h-885q-17 0 -25 22t-8 80q0 59 8 80t25 21zM536 1535q67 0 107 -47.5t40 -126.5q0 -86 -56.5 -158.5t-155.5 -127.5t-227 -90l-28 96q56 15 125.5 43.5t125.5 62.5q-49 19 -89 57.5t-40 100.5q0 47 27 90.5t72 71.5t99 28zM524 1439q-36 0 -68 -29.5
t-32 -65.5q0 -39 37.5 -61.5t83.5 -35.5q41 47 41 109q0 34 -15.5 58.5t-46.5 24.5zM441 697q-19 -95 -114 -95q-62 0 -97.5 37.5t-35.5 103.5q0 44 8.5 83t24.5 86l80 -27q-10 -31 -18 -63t-8 -56q0 -62 57 -62q36 0 52.5 27.5t16.5 96.5v24h78v-24q0 -69 16 -96.5
t52 -27.5q57 0 57 62q0 24 -7 56t-18 63l80 27q16 -47 24.5 -86t8.5 -83q0 -66 -35.5 -103.5t-97.5 -37.5q-96 0 -114 95h-10z" />
    <glyph glyph-name="uniFCF4" unicode="&#xfcf4;" horiz-adv-x="885" arabic-form="medial" 
d="M0 203h885v-203h-885q-17 0 -25 22t-8 80q0 59 8 80t25 21zM665 852l31 -100l-459 -147l-31 101zM441 1028q-19 -95 -114 -95q-62 0 -97.5 37.5t-35.5 103.5q0 44 8.5 83t24.5 86l80 -27q-10 -31 -18 -63t-8 -56q0 -62 57 -62q36 0 52.5 27.5t16.5 96.5v24h78v-24
q0 -69 16 -96.5t52 -27.5q57 0 57 62q0 24 -7 56t-18 63l80 27q16 -47 24.5 -86t8.5 -83q0 -66 -35.5 -103.5t-97.5 -37.5q-96 0 -114 95h-10z" />
    <glyph glyph-name="uniFD3C" unicode="&#xfd3c;" horiz-adv-x="617" arabic-form="final" 
d="M151 1193h195v-743q0 -133 59.5 -190t210.5 -57h1v-203h-1q-226 0 -345.5 111.5t-119.5 334.5v747zM472 1844l31 -100l-459 -147l-31 101zM472 1593l31 -100l-459 -147l-31 101z" />
    <glyph glyph-name="uniFD3D" unicode="&#xfd3d;" horiz-adv-x="528" arabic-form="isolated" 
d="M362 1193v-1193h-194v1193h194zM480 1844l31 -100l-459 -147l-31 101zM480 1593l31 -100l-459 -147l-31 101z" />
    <glyph glyph-name="uniFDFC" unicode="&#xfdfc;" horiz-adv-x="3343" arabic-form="isolated" 
d="M2383 792q29 -110 45.5 -207t16.5 -174q0 -200 -109.5 -305.5t-342.5 -105.5h-47q-33 0 -33 102q0 101 33 101h47q141 0 202 56t61 168q0 56 -15 136.5t-39 178.5zM1757 -354l144 144l145 -144l-145 -145zM2106 -354l144 144l145 -144l-145 -145zM2934 608l182 64
q56 -166 88.5 -308.5t32.5 -257.5q0 -224 -146.5 -379.5t-463.5 -270.5l-86 183q263 92 384 198t121 264q0 92 -30.5 227t-81.5 280zM1490 1347h195v-897q0 -133 59.5 -190t210.5 -57h1v-203h-1q-226 0 -345.5 111.5t-119.5 334.5v901zM656 -305q202 0 298 101t96 312v1239
h194v-1252q0 -293 -159.5 -448.5t-449.5 -155.5q-259 0 -400.5 136.5t-141.5 388.5q0 83 17.5 182.5t56.5 233.5l175 -49q-33 -106 -48.5 -195.5t-15.5 -159.5q0 -333 378 -333z" />
    <glyph glyph-name="uniFE80" unicode="&#x621;" horiz-adv-x="894" arabic-form="isolated" 
d="M140 440q0 107 46.5 182.5t120 116t154.5 40.5q74 0 138.5 -28.5t122.5 -79.5l-64 -89q-43 34 -90 52t-100 18q-85 0 -147.5 -59t-62.5 -150q0 -81 63 -129t169 -48q112 0 271 52l42 -115l-674 -212l-36 119l275 75v10q-97 14 -162.5 80t-65.5 165z" />
    <glyph glyph-name="uniFE81" unicode="&#x622;" horiz-adv-x="528" arabic-form="isolated" 
d="M500 1647l84 -44q-36 -97 -81 -141.5t-110 -44.5q-54 0 -138 50q-44 26 -66 34t-42 8q-33 0 -58.5 -25t-62.5 -95l-81 51q84 190 193 190q44 0 129 -48q53 -29 78 -39.5t46 -10.5q36 0 58.5 23.5t50.5 91.5zM362 1193v-1193h-194v1193h194z" />
    <glyph glyph-name="uniFE82" unicode="&#x622;" horiz-adv-x="617" arabic-form="final" 
d="M151 1193h195v-743q0 -133 59.5 -190t210.5 -57h1v-203h-1q-226 0 -345.5 111.5t-119.5 334.5v747zM-34 1430q79 139 181 139q26 0 52 -8t58 -28q62 -37 90 -37q49 0 100 88l86 -48q-69 -145 -177 -145q-50 0 -110 36q-59 35 -88 35q-28 0 -53.5 -21t-54.5 -64z" />
    <glyph glyph-name="uniFE83" unicode="&#x623;" horiz-adv-x="528" arabic-form="isolated" 
d="M362 1193v-1193h-194v1193h194zM417 1814l-28 -89q-38 15 -73 15q-55 0 -90 -30t-35 -78q0 -43 30 -68t78 -25q36 0 76 13l104 33l29 -96l-459 -146l-29 98l169 48v10q-88 37 -88 140q0 84 60 140.5t152 56.5q26 0 51 -6t53 -16z" />
    <glyph glyph-name="uniFE84" unicode="&#x623;" horiz-adv-x="617" arabic-form="final" 
d="M151 1193h195v-743q0 -133 59.5 -190t210.5 -57h1v-203h-1q-226 0 -345.5 111.5t-119.5 334.5v747zM417 1819l-28 -89q-38 15 -73 15q-55 0 -90 -30t-35 -78q0 -43 30 -68t78 -25q36 0 76 13l104 33l29 -96l-459 -146l-29 98l169 48v10q-88 37 -88 140q0 84 60 140.5
t152 56.5q26 0 51 -6t53 -16z" />
    <glyph glyph-name="uniFE85" unicode="&#x624;" horiz-adv-x="959" arabic-form="isolated" 
d="M638 1440l-28 -89q-38 15 -73 15q-55 0 -90 -30t-35 -78q0 -43 30 -68t78 -25q36 0 76 13l104 33l29 -96l-459 -146l-29 98l169 48v10q-88 37 -88 140q0 84 60 140.5t152 56.5q26 0 51 -6t53 -16zM679 12l-7 10q-46 -13 -101.5 -21.5t-115.5 -8.5q-160 0 -251 78.5
t-91 240.5q0 122 39 232t117.5 180t198.5 70q110 0 186.5 -61t123.5 -162.5t68.5 -224.5t21.5 -246q0 -234 -183 -389.5t-523 -250.5l-82 185q254 59 412 154t187 214zM681 216q-3 61 -15 126t-37 121t-66 91t-100 35q-63 0 -105 -38t-62.5 -96t-20.5 -118q0 -83 50.5 -115
t136.5 -32q62 0 117 8t102 18z" />
    <glyph glyph-name="uniFE86" unicode="&#x624;" horiz-adv-x="936" arabic-form="final" 
d="M629 1445l-28 -89q-38 15 -73 15q-55 0 -90 -30t-35 -78q0 -43 30 -68t78 -25q36 0 76 13l104 33l29 -96l-459 -146l-29 98l169 48v10q-88 37 -88 140q0 84 60 140.5t152 56.5q26 0 51 -6t53 -16zM680 -5l-6 11q-56 -4 -112 -5t-109 -1q-158 0 -249 77.5t-91 240.5
q0 121 39 229.5t118 177t198 68.5q101 0 172 -51.5t117.5 -137t71.5 -190t33 -211.5h74v-203h-80q-28 -193 -208.5 -325t-485.5 -216l-82 185q247 57 406.5 148t193.5 203zM683 199q-2 62 -14 130t-37 127t-66.5 96t-102.5 37q-63 0 -105 -36t-62.5 -92t-20.5 -116
q0 -84 51 -116.5t136 -32.5q54 0 109.5 0.5t111.5 2.5z" />
    <glyph glyph-name="uniFE87" unicode="&#x625;" horiz-adv-x="528" arabic-form="isolated" 
d="M405 -208l-28 -89q-38 15 -73 15q-55 0 -90 -30t-35 -78q0 -43 30 -68t78 -25q36 0 76 13l104 33l29 -96l-459 -146l-29 98l169 48v10q-88 37 -88 140q0 84 60 140.5t152 56.5q26 0 51 -6t53 -16zM362 0h-194v1347h194v-1347z" />
    <glyph glyph-name="uniFE88" unicode="&#x625;" horiz-adv-x="617" arabic-form="final" 
d="M484 -203l-28 -89q-38 15 -73 15q-55 0 -90 -30t-35 -78q0 -43 30 -68t78 -25q36 0 76 13l104 33l29 -96l-459 -146l-29 98l169 48v10q-88 37 -88 140q0 84 60 140.5t152 56.5q26 0 51 -6t53 -16zM151 1347h195v-897q0 -133 59.5 -190t210.5 -57h1v-203h-1
q-226 0 -345.5 111.5t-119.5 334.5v901z" />
    <glyph glyph-name="uniFE89" unicode="&#x626;" horiz-adv-x="1532" arabic-form="isolated" 
d="M563 1171l-28 -89q-38 15 -73 15q-55 0 -90 -30t-35 -78q0 -43 30 -68t78 -25q36 0 76 13l104 33l29 -96l-459 -146l-29 98l169 48v10q-88 37 -88 140q0 84 60 140.5t152 56.5q26 0 51 -6t53 -16zM1403 810l-65 -174q-106 48 -207 48q-85 0 -154 -36.5t-109.5 -101
t-40.5 -147.5q0 -92 78.5 -117t226.5 -36q90 -7 160 -30t110 -73t40 -142q0 -135 -91 -236.5t-251 -158t-369 -56.5q-297 0 -459 131.5t-162 378.5q0 168 45 436l187 -34q-24 -137 -34.5 -225t-10.5 -163q0 -322 437 -322q147 0 267 28t190.5 76.5t70.5 109.5q0 44 -30 64.5
t-79.5 28t-108.5 11.5q-115 8 -204 35.5t-139.5 91t-50.5 179.5q0 142 66 254.5t177 178.5t247 66q127 0 263 -65z" />
    <glyph glyph-name="uniFE8A" unicode="&#x626;" horiz-adv-x="1486" arabic-form="final" 
d="M991 877l-28 -89q-38 15 -73 15q-55 0 -90 -30t-35 -78q0 -43 30 -68t78 -25q36 0 76 13l104 33l29 -96l-459 -146l-29 98l169 48v10q-88 37 -88 140q0 84 60 140.5t152 56.5q26 0 51 -6t53 -16zM1188 -10q110 -50 154 -99t44 -122q0 -100 -86 -181t-233 -128t-331 -47
q-327 0 -484.5 134.5t-157.5 414.5q0 98 13 229t37 280l180 -35q-23 -141 -35 -259t-12 -201q0 -191 107.5 -275t351.5 -84q200 0 325 52t125 136q0 39 -38 67t-135.5 55t-275.5 62l28 214h721v-203h-298v-10z" />
    <glyph glyph-name="uniFE8B" unicode="&#x626;" horiz-adv-x="590" arabic-form="initial" 
d="M440 1422l-28 -89q-38 15 -73 15q-55 0 -90 -30t-35 -78q0 -43 30 -68t78 -25q36 0 76 13l104 33l29 -96l-459 -146l-29 98l169 48v10q-88 37 -88 140q0 84 60 140.5t152 56.5q26 0 51 -6t53 -16zM437 792q29 -110 45.5 -207t16.5 -174q0 -200 -109.5 -305.5
t-342.5 -105.5h-47q-33 0 -33 102q0 101 33 101h47q141 0 202 56t61 168q0 56 -15 136.5t-39 178.5z" />
    <glyph glyph-name="uniFE8C" unicode="&#x626;" horiz-adv-x="837" arabic-form="medial" 
d="M402 1274l-28 -89q-38 15 -73 15q-55 0 -90 -30t-35 -78q0 -43 30 -68t78 -25q36 0 76 13l104 33l29 -96l-459 -146l-29 98l169 48v10q-88 37 -88 140q0 84 60 140.5t152 56.5q26 0 51 -6t53 -16zM518 494q0 -99 19 -163.5t73.5 -96t162.5 -31.5h64v-203h-67
q-127 0 -220.5 61t-125.5 173h-10q-32 -112 -135.5 -173t-231.5 -61h-47q-33 0 -33 102q0 101 33 101h47q116 0 175.5 32t80 96.5t20.5 162.5v144h195v-144z" />
    <glyph glyph-name="uniFE8D" unicode="&#x627;" horiz-adv-x="528" arabic-form="isolated" 
d="M362 0h-194v1347h194v-1347z" />
    <glyph glyph-name="uniFE8E" unicode="&#x627;" horiz-adv-x="617" arabic-form="final" 
d="M151 1347h195v-897q0 -133 59.5 -190t210.5 -57h1v-203h-1q-226 0 -345.5 111.5t-119.5 334.5v901z" />
    <glyph glyph-name="uniFE8F" unicode="&#x628;" horiz-adv-x="1779" arabic-form="isolated" 
d="M745 -354l144 144l144 -144l-144 -145zM1638 798q23 -83 36.5 -166t13.5 -155q0 -180 -80.5 -284t-256 -148.5t-461.5 -44.5q-284 0 -460 44t-256.5 146.5t-80.5 277.5q0 69 13.5 154.5t35.5 175.5l176 -41q-17 -73 -28.5 -144t-11.5 -123q0 -114 58 -176t192 -86.5
t362 -24.5q231 0 365 25.5t190.5 89t56.5 178.5q0 54 -10.5 123t-27.5 138z" />
    <glyph glyph-name="uniFE90" unicode="&#x628;" horiz-adv-x="1954" arabic-form="final" 
d="M1725 666q-13 -76 -21.5 -136t-8.5 -112q0 -95 53 -155t205 -60h1v-203h-1q-163 0 -266.5 66.5t-137.5 210.5h-10q-98 -158 -290.5 -217.5t-461.5 -59.5q-361 0 -527.5 127.5t-166.5 370.5q0 149 58 334l172 -50q-49 -155 -49 -264q0 -162 127 -238.5t417 -76.5
q250 0 398.5 50t224 158.5t106.5 283.5zM718 -354l144 144l144 -144l-144 -145z" />
    <glyph glyph-name="uniFE91" unicode="&#x628;" horiz-adv-x="590" arabic-form="initial" 
d="M437 792q29 -110 45.5 -207t16.5 -174q0 -200 -109.5 -305.5t-342.5 -105.5h-47q-33 0 -33 102q0 101 33 101h47q141 0 202 56t61 168q0 56 -15 136.5t-39 178.5zM-2 -354l144 144l144 -144l-144 -145z" />
    <glyph glyph-name="uniFE92" unicode="&#x628;" horiz-adv-x="837" arabic-form="medial" 
d="M518 494q0 -99 19 -163.5t73.5 -96t162.5 -31.5h64v-203h-67q-127 0 -220.5 61t-125.5 173h-10q-32 -112 -135.5 -173t-231.5 -61h-47q-33 0 -33 102q0 101 33 101h47q116 0 175.5 32t80 96.5t20.5 162.5v144h195v-144zM-2 -354l144 144l144 -144l-144 -145z" />
    <glyph glyph-name="uniFE93" unicode="&#x629;" horiz-adv-x="910" arabic-form="isolated" 
d="M108 1310l144 144l145 -144l-145 -145zM457 1310l144 144l145 -144l-145 -145zM453 -11q-170 0 -265 93.5t-95 232.5q0 136 72 258.5t176 225.5q-51 50 -102 92l120 143q126 -103 230.5 -217t167 -236t62.5 -251q0 -99 -45.5 -176t-128 -121t-192.5 -44zM453 193
q92 0 134.5 45t42.5 113q0 77 -47 165t-130 164q-82 -76 -130 -164.5t-48 -164.5q0 -68 42 -113t136 -45z" />
    <glyph glyph-name="uniFE94" unicode="&#x629;" horiz-adv-x="1156" arabic-form="final" 
d="M442 1398l144 144l145 -144l-145 -145zM791 1398l144 144l145 -144l-145 -145zM692 885l-9 160l194 11l35 -577q7 -107 30.5 -167.5t74 -84.5t138.5 -24h1v-203h-1q-141 0 -228.5 48.5t-136.5 146.5q-111 -47 -234 -47q-111 0 -200.5 33t-142 97.5t-52.5 157.5
q0 172 140.5 289t390.5 160zM705 697q-169 -17 -269.5 -76.5t-100.5 -148.5q0 -71 68 -104t165 -33q92 0 167 23q-6 29 -9 53.5t-5 52.5z" />
    <glyph glyph-name="uniFE95" unicode="&#x62a;" horiz-adv-x="1779" arabic-form="isolated" 
d="M1638 798q23 -83 36.5 -166t13.5 -155q0 -180 -80.5 -284t-256 -148.5t-461.5 -44.5q-284 0 -460 44t-256.5 146.5t-80.5 277.5q0 69 13.5 154.5t35.5 175.5l176 -41q-17 -73 -28.5 -144t-11.5 -123q0 -114 58 -176t192 -86.5t362 -24.5q231 0 365 25.5t190.5 89
t56.5 178.5q0 54 -10.5 123t-27.5 138zM570 864l144 144l145 -144l-145 -145zM919 864l144 144l145 -144l-145 -145z" />
    <glyph glyph-name="uniFE96" unicode="&#x62a;" horiz-adv-x="1954" arabic-form="final" 
d="M1725 666q-13 -76 -21.5 -136t-8.5 -112q0 -95 53 -155t205 -60h1v-203h-1q-163 0 -266.5 66.5t-137.5 210.5h-10q-98 -158 -290.5 -217.5t-461.5 -59.5q-361 0 -527.5 127.5t-166.5 370.5q0 149 58 334l172 -50q-49 -155 -49 -264q0 -162 127 -238.5t417 -76.5
q250 0 398.5 50t224 158.5t106.5 283.5zM591 817l144 144l145 -144l-145 -145zM940 817l144 144l145 -144l-145 -145z" />
    <glyph glyph-name="uniFE97" unicode="&#x62a;" horiz-adv-x="590" arabic-form="initial" 
d="M437 792q29 -110 45.5 -207t16.5 -174q0 -200 -109.5 -305.5t-342.5 -105.5h-47q-33 0 -33 102q0 101 33 101h47q141 0 202 56t61 168q0 56 -15 136.5t-39 178.5zM-67 1145l144 144l145 -144l-145 -145zM282 1145l144 144l145 -144l-145 -145z" />
    <glyph glyph-name="uniFE98" unicode="&#x62a;" horiz-adv-x="837" arabic-form="medial" 
d="M518 494q0 -99 19 -163.5t73.5 -96t162.5 -31.5h64v-203h-67q-127 0 -220.5 61t-125.5 173h-10q-32 -112 -135.5 -173t-231.5 -61h-47q-33 0 -33 102q0 101 33 101h47q116 0 175.5 32t80 96.5t20.5 162.5v144h195v-144zM2 1013l144 144l145 -144l-145 -145zM351 1013
l144 144l145 -144l-145 -145z" />
    <glyph glyph-name="uniFE99" unicode="&#x62b;" horiz-adv-x="1779" arabic-form="isolated" 
d="M1638 798q23 -83 36.5 -166t13.5 -155q0 -180 -80.5 -284t-256 -148.5t-461.5 -44.5q-284 0 -460 44t-256.5 146.5t-80.5 277.5q0 69 13.5 154.5t35.5 175.5l176 -41q-17 -73 -28.5 -144t-11.5 -123q0 -114 58 -176t192 -86.5t362 -24.5q231 0 365 25.5t190.5 89
t56.5 178.5q0 54 -10.5 123t-27.5 138zM745 1178l143 144l145 -144l-145 -144zM919 864l144 144l145 -144l-145 -145zM570 864l144 144l145 -144l-145 -145z" />
    <glyph glyph-name="uniFE9A" unicode="&#x62b;" horiz-adv-x="1954" arabic-form="final" 
d="M1725 666q-13 -76 -21.5 -136t-8.5 -112q0 -95 53 -155t205 -60h1v-203h-1q-163 0 -266.5 66.5t-137.5 210.5h-10q-98 -158 -290.5 -217.5t-461.5 -59.5q-361 0 -527.5 127.5t-166.5 370.5q0 149 58 334l172 -50q-49 -155 -49 -264q0 -162 127 -238.5t417 -76.5
q250 0 398.5 50t224 158.5t106.5 283.5zM765 1132l143 144l145 -144l-145 -144zM939 818l144 144l145 -144l-145 -145zM590 818l144 144l145 -144l-145 -145z" />
    <glyph glyph-name="uniFE9B" unicode="&#x62b;" horiz-adv-x="590" arabic-form="initial" 
d="M437 792q29 -110 45.5 -207t16.5 -174q0 -200 -109.5 -305.5t-342.5 -105.5h-47q-33 0 -33 102q0 101 33 101h47q141 0 202 56t61 168q0 56 -15 136.5t-39 178.5zM108 1459l143 144l145 -144l-145 -144zM282 1145l144 144l145 -144l-145 -145zM-67 1145l144 144l145 -144
l-145 -145z" />
    <glyph glyph-name="uniFE9C" unicode="&#x62b;" horiz-adv-x="837" arabic-form="medial" 
d="M518 494q0 -99 19 -163.5t73.5 -96t162.5 -31.5h64v-203h-67q-127 0 -220.5 61t-125.5 173h-10q-32 -112 -135.5 -173t-231.5 -61h-47q-33 0 -33 102q0 101 33 101h47q116 0 175.5 32t80 96.5t20.5 162.5v144h195v-144zM177 1284l143 144l145 -144l-145 -144zM351 970
l144 144l145 -144l-145 -145zM2 970l144 144l145 -144l-145 -145z" />
    <glyph glyph-name="uniFE9D" unicode="&#x62c;" horiz-adv-x="1389" arabic-form="isolated" 
d="M608 -73l144 144l144 -144l-144 -145zM467 949q54 0 129.5 -22.5t207.5 -81.5q156 -70 255 -107t187 -59l-22 -220q-124 -13 -256 -45.5t-255 -84t-221 -121.5t-156 -157t-58 -191q0 -105 67 -176t180.5 -107t252.5 -36q122 0 241 24.5t220 70.5l88 -177
q-272 -126 -550 -126q-195 0 -350.5 59.5t-246.5 173t-91 275.5q0 147 75 268t203 213.5t289 155t334 91.5v10q-60 16 -127 40t-156 61q-100 40 -154 56.5t-87 16.5q-66 0 -109.5 -42t-81.5 -141l-7 -19l-143 44l6 21q58 178 137 255.5t199 77.5z" />
    <glyph glyph-name="uniFE9E" unicode="&#x62c;" horiz-adv-x="1397" arabic-form="final" 
d="M590 -123l144 144l144 -144l-144 -145zM467 909q56 0 133 -23.5t204 -80.5q160 -71 258.5 -108t183.5 -58l-22 -220q-55 -7 -98.5 -14t-78.5 -15v-10q46 -94 115 -135.5t175 -41.5h60v-203h-38q-169 0 -274 86.5t-158 266.5q-188 -41 -334.5 -123t-230.5 -188.5
t-84 -221.5q0 -145 135.5 -232t364.5 -87q124 0 242.5 24.5t218.5 70.5l88 -177q-272 -126 -550 -126q-208 0 -362.5 63t-240 177.5t-85.5 267.5q0 173 112.5 321.5t315.5 255t473 151.5v10q-56 14 -122 38t-161 63q-100 40 -154 56.5t-87 16.5q-66 0 -109.5 -42t-81.5 -141
l-7 -19l-143 44l6 21q57 176 136 254.5t200 78.5z" />
    <glyph glyph-name="uniFE9F" unicode="&#x62c;" horiz-adv-x="1288" arabic-form="initial" 
d="M400 -354l144 144l144 -144l-144 -145zM431 885q52 0 125.5 -23.5t215.5 -85.5q137 -59 233.5 -93t190.5 -57v-168l-496 -284q-160 -93 -297 -133.5t-290 -40.5h-113q-17 0 -25 23.5t-8 78.5q0 54 8 77.5t25 23.5h149q80 0 150.5 12.5t147 41t173.5 77.5l329 172v10
q-58 15 -124.5 39t-153.5 61q-98 39 -152.5 55.5t-88.5 16.5q-66 0 -109 -42t-81 -141l-8 -19l-144 46l7 19q57 178 137 256t199 78z" />
    <glyph glyph-name="uniFEA0" unicode="&#x62c;" horiz-adv-x="1337" arabic-form="medial" 
d="M400 -354l144 144l144 -144l-144 -145zM431 885q52 0 125.5 -23t215.5 -86q137 -59 233.5 -93t190.5 -57v-168l-223 -121v-10q67 -71 144.5 -97.5t161.5 -26.5h58v-203h-61q-127 0 -237.5 57t-202.5 193l-136 -76q-160 -93 -297 -133.5t-290 -40.5h-113q-17 0 -25 23.5
t-8 78.5q0 54 8 77.5t25 23.5h149q80 0 150.5 12.5t147 41t173.5 77.5l329 172v10q-58 15 -124.5 39t-153.5 61q-98 39 -152.5 55.5t-88.5 16.5q-66 0 -109 -42t-81 -141l-8 -19l-144 46l7 19q58 177 137.5 255.5t198.5 78.5z" />
    <glyph glyph-name="uniFEA1" unicode="&#x62d;" horiz-adv-x="1389" arabic-form="isolated" 
d="M467 949q54 0 129.5 -22.5t207.5 -81.5q156 -70 255 -107t187 -59l-22 -220q-124 -13 -256 -45.5t-255 -84t-221 -121.5t-156 -157t-58 -191q0 -105 67 -176t180.5 -107t252.5 -36q122 0 241 24.5t220 70.5l88 -177q-272 -126 -550 -126q-195 0 -350.5 59.5t-246.5 173
t-91 275.5q0 147 75 268t203 213.5t289 155t334 91.5v10q-60 16 -127 40t-156 61q-100 40 -154 56.5t-87 16.5q-66 0 -109.5 -42t-81.5 -141l-7 -19l-143 44l6 21q58 178 137 255.5t199 77.5z" />
    <glyph glyph-name="uniFEA2" unicode="&#x62d;" horiz-adv-x="1397" arabic-form="final" 
d="M467 909q56 0 133 -23.5t204 -80.5q160 -71 258.5 -108t183.5 -58l-22 -220q-55 -7 -98.5 -14t-78.5 -15v-10q46 -94 115 -135.5t175 -41.5h60v-203h-38q-169 0 -274 86.5t-158 266.5q-188 -41 -334.5 -123t-230.5 -188.5t-84 -221.5q0 -145 135.5 -232t364.5 -87
q124 0 242.5 24.5t218.5 70.5l88 -177q-272 -126 -550 -126q-208 0 -362.5 63t-240 177.5t-85.5 267.5q0 173 112.5 321.5t315.5 255t473 151.5v10q-56 14 -122 38t-161 63q-100 40 -154 56.5t-87 16.5q-66 0 -109.5 -42t-81.5 -141l-7 -19l-143 44l6 21q57 176 136 254.5
t200 78.5z" />
    <glyph glyph-name="uniFEA3" unicode="&#x62d;" horiz-adv-x="1288" arabic-form="initial" 
d="M431 885q52 0 125.5 -23.5t215.5 -85.5q137 -59 233.5 -93t190.5 -57v-168l-496 -284q-160 -93 -297 -133.5t-290 -40.5h-113q-17 0 -25 23.5t-8 78.5q0 54 8 77.5t25 23.5h149q80 0 150.5 12.5t147 41t173.5 77.5l329 172v10q-58 15 -124.5 39t-153.5 61
q-98 39 -152.5 55.5t-88.5 16.5q-66 0 -109 -42t-81 -141l-8 -19l-144 46l7 19q57 178 137 256t199 78z" />
    <glyph glyph-name="uniFEA4" unicode="&#x62d;" horiz-adv-x="1337" arabic-form="medial" 
d="M431 885q52 0 125.5 -23t215.5 -86q137 -59 233.5 -93t190.5 -57v-168l-223 -121v-10q67 -71 144.5 -97.5t161.5 -26.5h58v-203h-61q-127 0 -237.5 57t-202.5 193l-136 -76q-160 -93 -297 -133.5t-290 -40.5h-113q-17 0 -25 23.5t-8 78.5q0 54 8 77.5t25 23.5h149
q80 0 150.5 12.5t147 41t173.5 77.5l329 172v10q-58 15 -124.5 39t-153.5 61q-98 39 -152.5 55.5t-88.5 16.5q-66 0 -109 -42t-81 -141l-8 -19l-144 46l7 19q58 177 137.5 255.5t198.5 78.5z" />
    <glyph glyph-name="uniFEA5" unicode="&#x62e;" horiz-adv-x="1389" arabic-form="isolated" 
d="M467 949q54 0 129.5 -22.5t207.5 -81.5q156 -70 255 -107t187 -59l-22 -220q-124 -13 -256 -45.5t-255 -84t-221 -121.5t-156 -157t-58 -191q0 -105 67 -176t180.5 -107t252.5 -36q122 0 241 24.5t220 70.5l88 -177q-272 -126 -550 -126q-195 0 -350.5 59.5t-246.5 173
t-91 275.5q0 147 75 268t203 213.5t289 155t334 91.5v10q-60 16 -127 40t-156 61q-100 40 -154 56.5t-87 16.5q-66 0 -109.5 -42t-81.5 -141l-7 -19l-143 44l6 21q58 178 137 255.5t199 77.5zM558 1343l144 144l144 -144l-144 -145z" />
    <glyph glyph-name="uniFEA6" unicode="&#x62e;" horiz-adv-x="1397" arabic-form="final" 
d="M467 909q56 0 133 -23.5t204 -80.5q160 -71 258.5 -108t183.5 -58l-22 -220q-55 -7 -98.5 -14t-78.5 -15v-10q46 -94 115 -135.5t175 -41.5h60v-203h-38q-169 0 -274 86.5t-158 266.5q-188 -41 -334.5 -123t-230.5 -188.5t-84 -221.5q0 -145 135.5 -232t364.5 -87
q124 0 242.5 24.5t218.5 70.5l88 -177q-272 -126 -550 -126q-208 0 -362.5 63t-240 177.5t-85.5 267.5q0 173 112.5 321.5t315.5 255t473 151.5v10q-56 14 -122 38t-161 63q-100 40 -154 56.5t-87 16.5q-66 0 -109.5 -42t-81.5 -141l-7 -19l-143 44l6 21q57 176 136 254.5
t200 78.5zM558 1303l144 144l144 -144l-144 -145z" />
    <glyph glyph-name="uniFEA7" unicode="&#x62e;" horiz-adv-x="1288" arabic-form="initial" 
d="M431 885q52 0 125.5 -23.5t215.5 -85.5q137 -59 233.5 -93t190.5 -57v-168l-496 -284q-160 -93 -297 -133.5t-290 -40.5h-113q-17 0 -25 23.5t-8 78.5q0 54 8 77.5t25 23.5h149q80 0 150.5 12.5t147 41t173.5 77.5l329 172v10q-58 15 -124.5 39t-153.5 61
q-98 39 -152.5 55.5t-88.5 16.5q-66 0 -109 -42t-81 -141l-8 -19l-144 46l7 19q57 178 137 256t199 78zM467 1273l144 144l144 -144l-144 -145z" />
    <glyph glyph-name="uniFEA8" unicode="&#x62e;" horiz-adv-x="1337" arabic-form="medial" 
d="M431 885q52 0 125.5 -23t215.5 -86q137 -59 233.5 -93t190.5 -57v-168l-223 -121v-10q67 -71 144.5 -97.5t161.5 -26.5h58v-203h-61q-127 0 -237.5 57t-202.5 193l-136 -76q-160 -93 -297 -133.5t-290 -40.5h-113q-17 0 -25 23.5t-8 78.5q0 54 8 77.5t25 23.5h149
q80 0 150.5 12.5t147 41t173.5 77.5l329 172v10q-58 15 -124.5 39t-153.5 61q-98 39 -152.5 55.5t-88.5 16.5q-66 0 -109 -42t-81 -141l-8 -19l-144 46l7 19q58 177 137.5 255.5t198.5 78.5zM467 1273l144 144l144 -144l-144 -145z" />
    <glyph glyph-name="uniFEA9" unicode="&#x62f;" horiz-adv-x="1017" arabic-form="isolated" 
d="M925 391q0 -139 -73 -227t-194 -129.5t-265 -41.5q-71 0 -147.5 10t-157.5 31l45 191q71 -16 134.5 -23.5t121.5 -7.5q161 0 252.5 50.5t91.5 149.5q0 93 -89.5 222t-249.5 271l130 154q200 -178 300.5 -338.5t100.5 -311.5z" />
    <glyph glyph-name="uniFEAA" unicode="&#x62f;" horiz-adv-x="1290" arabic-form="final" 
d="M736 1027l267 -625q35 -81 71.5 -124t85 -59t117.5 -16h13v-203h-13q-136 0 -228 52.5t-141 174.5h-10q-48 -113 -163 -175t-256 -62q-100 0 -201 35.5t-190 107.5l93 161q71 -51 148.5 -76t147.5 -25q101 0 189 41.5t144 120.5l-258 584z" />
    <glyph glyph-name="uniFEAB" unicode="&#x630;" horiz-adv-x="1017" arabic-form="isolated" 
d="M925 391q0 -139 -73 -227t-194 -129.5t-265 -41.5q-71 0 -147.5 10t-157.5 31l45 191q71 -16 134.5 -23.5t121.5 -7.5q161 0 252.5 50.5t91.5 149.5q0 93 -89.5 222t-249.5 271l130 154q200 -178 300.5 -338.5t100.5 -311.5zM379 1424l144 144l144 -144l-144 -145z" />
    <glyph glyph-name="uniFEAC" unicode="&#x630;" horiz-adv-x="1290" arabic-form="final" 
d="M478 1415l144 144l144 -144l-144 -145zM736 1027l267 -625q35 -81 71.5 -124t85 -59t117.5 -16h13v-203h-13q-136 0 -228 52.5t-141 174.5h-10q-48 -113 -163 -175t-256 -62q-100 0 -201 35.5t-190 107.5l93 161q71 -51 148.5 -76t147.5 -25q101 0 189 41.5t144 120.5
l-258 584z" />
    <glyph glyph-name="uniFEAD" unicode="&#x631;" horiz-adv-x="603" arabic-form="isolated" 
d="M193 608l182 64q56 -166 88.5 -308.5t32.5 -257.5q0 -224 -146.5 -379.5t-463.5 -270.5l-86 183q263 92 384 198t121 264q0 92 -30.5 227t-81.5 280z" />
    <glyph glyph-name="uniFEAE" unicode="&#x631;" horiz-adv-x="773" arabic-form="final" 
d="M193 608l182 64l66 -203q32 -99 71.5 -157.5t100.5 -83.5t159 -25h1v-203h-1q-194 0 -285 129l-10 -3q17 -246 -131.5 -401.5t-459.5 -268.5l-86 183q272 95 388.5 201.5t116.5 260.5q0 88 -29.5 220t-82.5 287z" />
    <glyph glyph-name="uniFEAF" unicode="&#x632;" horiz-adv-x="603" arabic-form="isolated" 
d="M193 608l182 64q56 -166 88.5 -308.5t32.5 -257.5q0 -224 -146.5 -379.5t-463.5 -270.5l-86 183q263 92 384 198t121 264q0 92 -30.5 227t-81.5 280zM148 1068l144 144l144 -144l-144 -145z" />
    <glyph glyph-name="uniFEB0" unicode="&#x632;" horiz-adv-x="773" arabic-form="final" 
d="M148 1068l144 144l144 -144l-144 -145zM193 608l182 64l66 -203q32 -99 71.5 -157.5t100.5 -83.5t159 -25h1v-203h-1q-194 0 -285 129l-10 -3q17 -246 -131.5 -401.5t-459.5 -268.5l-86 183q272 95 388.5 201.5t116.5 260.5q0 88 -29.5 220t-82.5 287z" />
    <glyph glyph-name="uniFEB1" unicode="&#x633;" horiz-adv-x="2546" arabic-form="isolated" 
d="M1589 0q-106 0 -173 69l-6 -4q0 -184 -83 -305.5t-229.5 -181.5t-338.5 -60q-320 0 -490 143t-170 453q0 86 14.5 196t45.5 257l184 -40q-31 -156 -43.5 -247t-12.5 -156q0 -219 118.5 -311.5t348.5 -92.5q232 0 359 81t127 270q0 89 -33 204t-115 305l181 85l115 -314
q26 -70 71.5 -109t122.5 -39q83 0 124 49t51 161l15 183l171 -13l-14 -179q-9 -103 37.5 -152t134.5 -49q161 0 161 182q0 40 -9.5 121t-22.5 148l190 45q16 -78 25 -162t9 -150q0 -197 -81 -292t-242 -95q-236 0 -285 211h-10q-52 -211 -247 -211z" />
    <glyph glyph-name="uniFEB2" unicode="&#x633;" horiz-adv-x="2762" arabic-form="final" 
d="M2385 256q-37 -256 -262 -256q-109 0 -181 52.5t-96 158.5h-10q-25 -103 -89 -157t-158 -54q-106 0 -173 69l-6 -4q0 -184 -83 -305.5t-229.5 -181.5t-338.5 -60q-320 0 -490 143t-170 453q0 86 14.5 196t45.5 257l184 -40q-31 -156 -43.5 -247t-12.5 -156
q0 -219 118.5 -311.5t348.5 -92.5q232 0 359 81t127 270q0 89 -33 204t-115 305l181 85l115 -314q28 -73 72.5 -110.5t121.5 -37.5q83 0 124 49t51 161l15 183l171 -13l-14 -179q-9 -103 37.5 -152t134.5 -49q157 0 157 186q0 41 -10 114.5t-24 149.5l187 38l26 -164
q21 -126 56.5 -196.5t99 -99t167.5 -28.5h2v-203h-2q-306 0 -365 256h-10z" />
    <glyph glyph-name="uniFEB3" unicode="&#x633;" horiz-adv-x="1669" arabic-form="initial" 
d="M697 203q86 0 126 50.5t50 156.5l17 186l173 -13l-14 -179q-10 -100 36 -150.5t135 -50.5q165 0 165 189q0 30 -4.5 79.5t-11.5 103t-15 94.5l188 45q14 -70 25 -159t11 -160q0 -200 -84 -297.5t-244 -97.5q-122 0 -190.5 57.5t-90.5 153.5h-10q-50 -211 -273 -211
q-121 0 -188.5 60t-88.5 169h-10q-36 -103 -128 -166t-224 -63h-47q-33 0 -33 103q0 100 33 100h47q138 0 203 65.5t81 211.5l16 165l194 -14l-19 -212q-11 -102 34.5 -159t140.5 -57z" />
    <glyph glyph-name="uniFEB4" unicode="&#x633;" horiz-adv-x="1886" arabic-form="medial" 
d="M1508 256q-18 -127 -82 -191.5t-183 -64.5q-120 0 -186 57.5t-88 153.5h-10q-51 -211 -272 -211q-122 0 -189 60t-89 169h-10q-36 -103 -128 -166t-224 -63h-47q-33 0 -33 103q0 100 33 100h47q138 0 203 65.5t81 211.5l16 165l194 -14l-19 -212q-11 -102 34.5 -159
t140.5 -57q86 0 126 50t50 157l17 186l173 -13l-14 -179q-9 -101 35.5 -151t130.5 -50q167 0 167 186q0 40 -9.5 113.5t-24.5 150.5l188 38l24 -164q19 -124 55.5 -194.5t101 -100t167.5 -29.5h2v-203h-2q-161 0 -249.5 67.5t-116.5 188.5h-10z" />
    <glyph glyph-name="uniFEB5" unicode="&#x634;" horiz-adv-x="2546" arabic-form="isolated" 
d="M1589 0q-106 0 -173 69l-6 -4q0 -184 -83 -305.5t-229.5 -181.5t-338.5 -60q-320 0 -490 143t-170 453q0 86 14.5 196t45.5 257l184 -40q-31 -156 -43.5 -247t-12.5 -156q0 -219 118.5 -311.5t348.5 -92.5q232 0 359 81t127 270q0 89 -33 204t-115 305l181 85l115 -314
q26 -70 71.5 -109t122.5 -39q83 0 124 49t51 161l15 183l171 -13l-14 -179q-9 -103 37.5 -152t134.5 -49q161 0 161 182q0 40 -9.5 121t-22.5 148l190 45q16 -78 25 -162t9 -150q0 -197 -81 -292t-242 -95q-236 0 -285 211h-10q-52 -211 -247 -211zM1680 1302l143 144
l145 -144l-145 -144zM1854 988l144 144l145 -144l-145 -145zM1505 988l144 144l145 -144l-145 -145z" />
    <glyph glyph-name="uniFEB6" unicode="&#x634;" horiz-adv-x="2762" arabic-form="final" 
d="M1667 1302l143 144l145 -144l-145 -144zM1841 988l144 144l145 -144l-145 -145zM1492 988l144 144l145 -144l-145 -145zM2385 256q-37 -256 -262 -256q-109 0 -181 52.5t-96 158.5h-10q-25 -103 -89 -157t-158 -54q-106 0 -173 69l-6 -4q0 -184 -83 -305.5t-229.5 -181.5
t-338.5 -60q-320 0 -490 143t-170 453q0 86 14.5 196t45.5 257l184 -40q-31 -156 -43.5 -247t-12.5 -156q0 -219 118.5 -311.5t348.5 -92.5q232 0 359 81t127 270q0 89 -33 204t-115 305l181 85l115 -314q28 -73 72.5 -110.5t121.5 -37.5q83 0 124 49t51 161l15 183l171 -13
l-14 -179q-9 -103 37.5 -152t134.5 -49q157 0 157 186q0 41 -10 114.5t-24 149.5l187 38l26 -164q21 -126 56.5 -196.5t99 -99t167.5 -28.5h2v-203h-2q-306 0 -365 256h-10z" />
    <glyph glyph-name="uniFEB7" unicode="&#x634;" horiz-adv-x="1669" arabic-form="initial" 
d="M808 1302l143 144l145 -144l-145 -144zM982 988l144 144l145 -144l-145 -145zM633 988l144 144l145 -144l-145 -145zM697 203q86 0 126 50.5t50 156.5l17 186l173 -13l-14 -179q-10 -100 36 -150.5t135 -50.5q165 0 165 189q0 30 -4.5 79.5t-11.5 103t-15 94.5l188 45
q14 -70 25 -159t11 -160q0 -200 -84 -297.5t-244 -97.5q-122 0 -190.5 57.5t-90.5 153.5h-10q-50 -211 -273 -211q-121 0 -188.5 60t-88.5 169h-10q-36 -103 -128 -166t-224 -63h-47q-33 0 -33 103q0 100 33 100h47q138 0 203 65.5t81 211.5l16 165l194 -14l-19 -212
q-11 -102 34.5 -159t140.5 -57z" />
    <glyph glyph-name="uniFEB8" unicode="&#x634;" horiz-adv-x="1886" arabic-form="medial" 
d="M808 1302l143 144l145 -144l-145 -144zM982 988l144 144l145 -144l-145 -145zM633 988l144 144l145 -144l-145 -145zM1508 256q-18 -127 -82 -191.5t-183 -64.5q-120 0 -186 57.5t-88 153.5h-10q-51 -211 -272 -211q-122 0 -189 60t-89 169h-10q-36 -103 -128 -166
t-224 -63h-47q-33 0 -33 103q0 100 33 100h47q138 0 203 65.5t81 211.5l16 165l194 -14l-19 -212q-11 -102 34.5 -159t140.5 -57q86 0 126 50t50 157l17 186l173 -13l-14 -179q-9 -101 35.5 -151t130.5 -50q167 0 167 186q0 40 -9.5 113.5t-24.5 150.5l188 38l24 -164
q19 -124 55.5 -194.5t101 -100t167.5 -29.5h2v-203h-2q-161 0 -249.5 67.5t-116.5 188.5h-10z" />
    <glyph glyph-name="uniFEB9" unicode="&#x635;" horiz-adv-x="2474" arabic-form="isolated" 
d="M2033 797q103 0 182 -48t123.5 -134t44.5 -200q0 -192 -152 -303.5t-433 -111.5q-242 0 -394 86q-7 -271 -177 -419.5t-479 -148.5q-649 0 -649 596q0 88 14.5 198.5t45.5 254.5l184 -40q-30 -150 -43 -242.5t-13 -160.5q0 -209 110.5 -306.5t345.5 -97.5q474 0 474 374
q0 84 -31.5 193.5t-110.5 292.5l181 86q98 -225 125 -374q160 245 326.5 375t325.5 130zM2007 597q-112 0 -233.5 -92t-238.5 -264q97 -38 262 -38q201 0 302.5 56t101.5 159q0 81 -53.5 130t-140.5 49z" />
    <glyph glyph-name="uniFEBA" unicode="&#x635;" horiz-adv-x="2536" arabic-form="final" 
d="M2033 797q103 0 182 -48t123.5 -134t44.5 -200q0 -96 -51 -164q71 -48 203 -48h1v-203h-1q-193 0 -303 111q-73 -53 -182 -82t-252 -29q-242 0 -394 86q-7 -272 -177.5 -420t-478.5 -148q-649 0 -649 596q0 175 60 453l184 -40q-31 -151 -43.5 -243t-12.5 -160
q0 -209 110.5 -306.5t345.5 -97.5q474 0 474 374q0 84 -31.5 194t-110.5 292l181 86q51 -117 81 -207t44 -167q160 245 326.5 375t325.5 130zM2007 597q-112 0 -233.5 -92t-238.5 -264q97 -38 262 -38q201 0 302.5 56t101.5 159q0 81 -53.5 130t-140.5 49z" />
    <glyph glyph-name="uniFEBB" unicode="&#x635;" horiz-adv-x="1633" arabic-form="initial" 
d="M394 240q-34 -119 -136.5 -179.5t-250.5 -60.5h-7q-33 0 -33 102q0 101 33 101h7q111 0 167.5 32.5t76.5 93.5t20 147v172h194v-152q4 -92 26 -129t59 -60q184 268 341.5 379t296.5 111q108 0 187.5 -50.5t123 -136.5t43.5 -195q0 -142 -81 -234t-217 -136.5t-300 -44.5
q-217 0 -351.5 56.5t-189.5 183.5h-9zM1166 597q-97 0 -217.5 -78.5t-254.5 -277.5q53 -21 119.5 -29.5t142.5 -8.5q104 0 196 18t150 64.5t58 132.5q0 78 -52.5 128.5t-141.5 50.5z" />
    <glyph glyph-name="uniFEBC" unicode="&#x635;" horiz-adv-x="1694" arabic-form="medial" 
d="M271 648h194v-152q4 -92 26 -129t59 -60q184 268 341.5 379t296.5 111q108 0 187.5 -50.5t123 -136.5t43.5 -195q0 -50 -13.5 -91.5t-36.5 -75.5q74 -45 201 -45h1v-203h-1q-201 0 -307 112q-81 -59 -196 -85.5t-246 -26.5q-217 0 -351.5 56.5t-189.5 183.5h-9
q-34 -119 -136.5 -179.5t-250.5 -60.5h-7q-33 0 -33 102q0 101 33 101h7q111 0 167.5 32.5t76.5 93.5t20 147v172zM1166 597q-97 0 -217.5 -78.5t-254.5 -277.5q53 -21 119.5 -29.5t142.5 -8.5q104 0 196 18t150 64.5t58 132.5q0 78 -52.5 128.5t-141.5 50.5z" />
    <glyph glyph-name="uniFEBD" unicode="&#x636;" horiz-adv-x="2474" arabic-form="isolated" 
d="M2033 797q103 0 182 -48t123.5 -134t44.5 -200q0 -192 -152 -303.5t-433 -111.5q-242 0 -394 86q-7 -271 -177 -419.5t-479 -148.5q-649 0 -649 596q0 88 14.5 198.5t45.5 254.5l184 -40q-30 -150 -43 -242.5t-13 -160.5q0 -209 110.5 -306.5t345.5 -97.5q474 0 474 374
q0 84 -31.5 193.5t-110.5 292.5l181 86q98 -225 125 -374q160 245 326.5 375t325.5 130zM2007 597q-112 0 -233.5 -92t-238.5 -264q97 -38 262 -38q201 0 302.5 56t101.5 159q0 81 -53.5 130t-140.5 49zM1887 1183l144 144l144 -144l-144 -145z" />
    <glyph glyph-name="uniFEBE" unicode="&#x636;" horiz-adv-x="2536" arabic-form="final" 
d="M2033 797q103 0 182 -48t123.5 -134t44.5 -200q0 -96 -51 -164q71 -48 203 -48h1v-203h-1q-193 0 -303 111q-73 -53 -182 -82t-252 -29q-242 0 -394 86q-7 -272 -177.5 -420t-478.5 -148q-649 0 -649 596q0 175 60 453l184 -40q-31 -151 -43.5 -243t-12.5 -160
q0 -209 110.5 -306.5t345.5 -97.5q474 0 474 374q0 84 -31.5 194t-110.5 292l181 86q51 -117 81 -207t44 -167q160 245 326.5 375t325.5 130zM2007 597q-112 0 -233.5 -92t-238.5 -264q97 -38 262 -38q201 0 302.5 56t101.5 159q0 81 -53.5 130t-140.5 49zM1887 1183
l144 144l144 -144l-144 -145z" />
    <glyph glyph-name="uniFEBF" unicode="&#x636;" horiz-adv-x="1633" arabic-form="initial" 
d="M1034 1183l144 144l144 -144l-144 -145zM394 240q-34 -119 -136.5 -179.5t-250.5 -60.5h-7q-33 0 -33 102q0 101 33 101h7q111 0 167.5 32.5t76.5 93.5t20 147v172h194v-152q4 -92 26 -129t59 -60q184 268 341.5 379t296.5 111q108 0 187.5 -50.5t123 -136.5t43.5 -195
q0 -142 -81 -234t-217 -136.5t-300 -44.5q-217 0 -351.5 56.5t-189.5 183.5h-9zM1166 597q-97 0 -217.5 -78.5t-254.5 -277.5q53 -21 119.5 -29.5t142.5 -8.5q104 0 196 18t150 64.5t58 132.5q0 78 -52.5 128.5t-141.5 50.5z" />
    <glyph glyph-name="uniFEC0" unicode="&#x636;" horiz-adv-x="1694" arabic-form="medial" 
d="M1034 1183l144 144l144 -144l-144 -145zM271 648h194v-152q4 -92 26 -129t59 -60q184 268 341.5 379t296.5 111q108 0 187.5 -50.5t123 -136.5t43.5 -195q0 -50 -13.5 -91.5t-36.5 -75.5q74 -45 201 -45h1v-203h-1q-201 0 -307 112q-81 -59 -196 -85.5t-246 -26.5
q-217 0 -351.5 56.5t-189.5 183.5h-9q-34 -119 -136.5 -179.5t-250.5 -60.5h-7q-33 0 -33 102q0 101 33 101h7q111 0 167.5 32.5t76.5 93.5t20 147v172zM1166 597q-97 0 -217.5 -78.5t-254.5 -277.5q53 -21 119.5 -29.5t142.5 -8.5q104 0 196 18t150 64.5t58 132.5
q0 78 -52.5 128.5t-141.5 50.5z" />
    <glyph glyph-name="uniFEC1" unicode="&#x637;" horiz-adv-x="1590" arabic-form="isolated" 
d="M388 203q13 20 25.5 39.5t25.5 38.5v1066h194v-630q0 -74 -9.5 -140.5t-33.5 -137.5l9 -7q286 365 549 365q110 0 188.5 -48.5t120.5 -132.5t42 -191q0 -125 -62 -221t-199.5 -150t-363.5 -54h-781v203h295zM606 203h309q103 0 195 16.5t150 62t58 133.5
q0 79 -54.5 130.5t-143.5 51.5q-62 0 -138.5 -33.5t-170 -118.5t-205.5 -242z" />
    <glyph glyph-name="uniFEC2" unicode="&#x637;" horiz-adv-x="1667" arabic-form="final" 
d="M388 203q13 20 25.5 39.5t25.5 38.5v1066h194v-630q0 -74 -9.5 -140.5t-33.5 -137.5l9 -7q286 365 549 365q110 0 188.5 -48.5t120.5 -132.5t42 -191q0 -41 -8.5 -80.5t-28.5 -74.5q38 -32 87.5 -49.5t116.5 -17.5h1v-203h-1q-104 0 -175 35t-124 93q-71 -60 -191.5 -94
t-301.5 -34h-781v203h295zM606 203h309q103 0 195 16.5t150 62t58 133.5q0 79 -54.5 130.5t-143.5 51.5q-62 0 -138.5 -33.5t-170 -118.5t-205.5 -242z" />
    <glyph glyph-name="uniFEC3" unicode="&#x637;" horiz-adv-x="1346" arabic-form="initial" 
d="M0 0q-17 0 -25 22t-8 80q0 59 8 80t25 21h145q14 20 26 39.5t25 38.5v1066h194v-630q0 -80 -11.5 -146.5t-32.5 -131.5l9 -7q138 177 277 271t272 94q161 0 256 -104t95 -268q0 -125 -62 -221t-199 -150t-363 -54h-631zM362 203h310q102 0 194 16.5t150 62t58 133.5
q0 79 -54 130.5t-143 51.5q-62 0 -139 -33t-170 -118.5t-206 -242.5z" />
    <glyph glyph-name="uniFEC4" unicode="&#x637;" horiz-adv-x="1423" arabic-form="medial" 
d="M0 0q-33 0 -33 102q0 101 33 101h145q14 20 26 39.5t25 38.5v1066h194v-630q0 -74 -10 -140.5t-34 -137.5l9 -7q286 365 549 365q110 0 188.5 -48.5t120.5 -132.5t42 -191q0 -40 -8 -79.5t-28 -75.5q36 -32 86 -49.5t117 -17.5h1v-203h-1q-104 0 -174.5 35.5t-123.5 93.5
q-72 -60 -192 -94.5t-301 -34.5h-631zM362 203h310q102 0 194 16.5t150 62t58 133.5q0 79 -54 130.5t-143 51.5q-62 0 -139 -33t-170 -118.5t-206 -242.5z" />
    <glyph glyph-name="uniFEC5" unicode="&#x638;" horiz-adv-x="1590" arabic-form="isolated" 
d="M388 203q13 20 25.5 39.5t25.5 38.5v1066h194v-630q0 -74 -9.5 -140.5t-33.5 -137.5l9 -7q286 365 549 365q110 0 188.5 -48.5t120.5 -132.5t42 -191q0 -125 -62 -221t-199.5 -150t-363.5 -54h-781v203h295zM606 203h309q103 0 195 16.5t150 62t58 133.5
q0 79 -54.5 130.5t-143.5 51.5q-62 0 -138.5 -33.5t-170 -118.5t-205.5 -242zM993 1183l144 144l144 -144l-144 -145z" />
    <glyph glyph-name="uniFEC6" unicode="&#x638;" horiz-adv-x="1667" arabic-form="final" 
d="M993 1183l144 144l144 -144l-144 -145zM388 203q13 20 25.5 39.5t25.5 38.5v1066h194v-630q0 -74 -9.5 -140.5t-33.5 -137.5l9 -7q286 365 549 365q110 0 188.5 -48.5t120.5 -132.5t42 -191q0 -41 -8.5 -80.5t-28.5 -74.5q38 -32 87.5 -49.5t116.5 -17.5h1v-203h-1
q-104 0 -175 35t-124 93q-71 -60 -191.5 -94t-301.5 -34h-781v203h295zM606 203h309q103 0 195 16.5t150 62t58 133.5q0 79 -54.5 130.5t-143.5 51.5q-62 0 -138.5 -33.5t-170 -118.5t-205.5 -242z" />
    <glyph glyph-name="uniFEC7" unicode="&#x638;" horiz-adv-x="1346" arabic-form="initial" 
d="M750 1183l144 144l144 -144l-144 -145zM0 0q-17 0 -25 22t-8 80q0 59 8 80t25 21h145q14 20 26 39.5t25 38.5v1066h194v-630q0 -80 -11.5 -146.5t-32.5 -131.5l9 -7q138 177 277 271t272 94q161 0 256 -104t95 -268q0 -125 -62 -221t-199 -150t-363 -54h-631zM362 203
h310q102 0 194 16.5t150 62t58 133.5q0 79 -54 130.5t-143 51.5q-62 0 -139 -33t-170 -118.5t-206 -242.5z" />
    <glyph glyph-name="uniFEC8" unicode="&#x638;" horiz-adv-x="1423" arabic-form="medial" 
d="M750 1183l144 144l144 -144l-144 -145zM0 0q-33 0 -33 102q0 101 33 101h145q14 20 26 39.5t25 38.5v1066h194v-630q0 -74 -10 -140.5t-34 -137.5l9 -7q286 365 549 365q110 0 188.5 -48.5t120.5 -132.5t42 -191q0 -40 -8 -79.5t-28 -75.5q36 -32 86 -49.5t117 -17.5h1
v-203h-1q-104 0 -174.5 35.5t-123.5 93.5q-72 -60 -192 -94.5t-301 -34.5h-631zM362 203h310q102 0 194 16.5t150 62t58 133.5q0 79 -54 130.5t-143 51.5q-62 0 -139 -33t-170 -118.5t-206 -242.5z" />
    <glyph glyph-name="uniFEC9" unicode="&#x639;" horiz-adv-x="1197" arabic-form="isolated" 
d="M1016 1076l-92 -155q-121 96 -247 96q-75 0 -136 -33t-96.5 -89t-35.5 -125q0 -219 401 -219q53 0 118 3.5t133 9.5l-2 -195q-231 -7 -406.5 -74t-273.5 -180t-98 -258q0 -157 130 -242t368 -85q114 0 227 20t204 55l67 -185q-233 -97 -505 -97q-209 0 -361.5 61.5
t-235 174.5t-82.5 269q0 196 119.5 353.5t326.5 233.5v10q-152 35 -232 120.5t-80 217.5q0 126 59.5 228.5t160.5 163t224 60.5q192 0 345 -139z" />
    <glyph glyph-name="uniFECA" unicode="&#x639;" horiz-adv-x="1209" arabic-form="final" 
d="M1072 591q0 -168 -234 -316v-10q43 -34 95.5 -48t137.5 -14h138v-203h-120q-133 0 -224 34t-184 118q-199 -98 -298 -197t-99 -225q0 -129 130.5 -203.5t355.5 -74.5q163 0 336 38l44 -197q-206 -49 -383 -49q-203 0 -354 57.5t-234 162t-83 244.5q0 323 444 545v10
l-366 339v136q224 169 481 169q187 0 302 -87.5t115 -228.5zM896 576q0 60 -62.5 97t-166.5 37q-159 0 -283 -71v-4l294 -298q218 123 218 239z" />
    <glyph glyph-name="uniFECB" unicode="&#x639;" horiz-adv-x="1091" arabic-form="initial" 
d="M305 472q0 -217 302 -217q40 0 93 4t122 14l130 18l22 -198l-233 -28q-211 -30 -400 -47.5t-301 -17.5h-40q-33 0 -33 102q0 101 33 101h33q61 0 122.5 2.5t117.5 7.5v14q-73 33 -114.5 102t-41.5 163q0 122 58.5 218.5t160.5 152.5t231 56q191 0 336 -120l-91 -151
q-122 73 -244 73q-115 0 -189 -70t-74 -179z" />
    <glyph glyph-name="uniFECC" unicode="&#x639;" horiz-adv-x="1185" arabic-form="medial" 
d="M618 907q112 0 206.5 -36t152 -106.5t57.5 -173.5q0 -94 -66 -172t-170 -146v-10q56 -44 116.5 -52t127.5 -8h143v-203h-168q-113 0 -201.5 27.5t-180.5 117.5q-104 -67 -223 -106t-263 -39h-149q-33 0 -33 102q0 101 33 101h139q104 0 190 19t155 48v10l-348 322v136
q105 80 224 124.5t258 44.5zM629 710q-159 0 -282 -71v-4l292 -298q101 57 160 116.5t59 122.5q0 48 -34 77.5t-86.5 43t-108.5 13.5z" />
    <glyph glyph-name="uniFECD" unicode="&#x63a;" horiz-adv-x="1197" arabic-form="isolated" 
d="M1016 1076l-92 -155q-121 96 -247 96q-75 0 -136 -33t-96.5 -89t-35.5 -125q0 -219 401 -219q53 0 118 3.5t133 9.5l-2 -195q-231 -7 -406.5 -74t-273.5 -180t-98 -258q0 -157 130 -242t368 -85q114 0 227 20t204 55l67 -185q-233 -97 -505 -97q-209 0 -361.5 61.5
t-235 174.5t-82.5 269q0 196 119.5 353.5t326.5 233.5v10q-152 35 -232 120.5t-80 217.5q0 126 59.5 228.5t160.5 163t224 60.5q192 0 345 -139zM504 1635l144 144l144 -144l-144 -145z" />
    <glyph glyph-name="uniFECE" unicode="&#x63a;" horiz-adv-x="1209" arabic-form="final" 
d="M520 1319l144 144l144 -144l-144 -145zM1072 591q0 -168 -234 -316v-10q43 -34 95.5 -48t137.5 -14h138v-203h-120q-133 0 -224 34t-184 118q-199 -98 -298 -197t-99 -225q0 -129 130.5 -203.5t355.5 -74.5q163 0 336 38l44 -197q-206 -49 -383 -49q-203 0 -354 57.5
t-234 162t-83 244.5q0 323 444 545v10l-366 339v136q224 169 481 169q187 0 302 -87.5t115 -228.5zM896 576q0 60 -62.5 97t-166.5 37q-159 0 -283 -71v-4l294 -298q218 123 218 239z" />
    <glyph glyph-name="uniFECF" unicode="&#x63a;" horiz-adv-x="1091" arabic-form="initial" 
d="M417 1359l144 144l144 -144l-144 -145zM305 472q0 -217 302 -217q40 0 93 4t122 14l130 18l22 -198l-233 -28q-211 -30 -400 -47.5t-301 -17.5h-40q-33 0 -33 102q0 101 33 101h33q61 0 122.5 2.5t117.5 7.5v14q-73 33 -114.5 102t-41.5 163q0 122 58.5 218.5
t160.5 152.5t231 56q191 0 336 -120l-91 -151q-122 73 -244 73q-115 0 -189 -70t-74 -179z" />
    <glyph glyph-name="uniFED0" unicode="&#x63a;" horiz-adv-x="1185" arabic-form="medial" 
d="M483 1314l144 144l144 -144l-144 -145zM618 907q112 0 206.5 -36t152 -106.5t57.5 -173.5q0 -94 -66 -172t-170 -146v-10q56 -44 116.5 -52t127.5 -8h143v-203h-168q-113 0 -201.5 27.5t-180.5 117.5q-104 -67 -223 -106t-263 -39h-149q-33 0 -33 102q0 101 33 101h139
q104 0 190 19t155 48v10l-348 322v136q105 80 224 124.5t258 44.5zM629 710q-159 0 -282 -71v-4l292 -298q101 57 160 116.5t59 122.5q0 48 -34 77.5t-86.5 43t-108.5 13.5z" />
    <glyph glyph-name="uniFED1" unicode="&#x641;" horiz-adv-x="1819" arabic-form="isolated" 
d="M1158 1591l144 144l144 -144l-144 -145zM1543 456q-68 -17 -134 -25.5t-122 -8.5q-329 0 -329 290q0 145 44.5 254t123.5 170t184 61q125 0 216.5 -87t141.5 -246t50 -376q0 -138 -42.5 -232t-138.5 -150t-257.5 -81t-400.5 -25q-286 0 -459 43.5t-250 142.5t-77 266
q0 65 11.5 150t33.5 185l178 -39q-38 -187 -38 -274q0 -105 56.5 -164t191 -83t369.5 -24q202 0 329.5 10.5t196.5 37.5t95.5 76.5t26.5 128.5zM1518 628q-11 176 -67.5 273t-147.5 97q-81 0 -132.5 -73.5t-51.5 -186.5q0 -138 180 -138q93 0 219 28z" />
    <glyph glyph-name="uniFED2" unicode="&#x641;" horiz-adv-x="1945" arabic-form="final" 
d="M1298 1368l144 144l144 -144l-144 -145zM1439 103q-111 -52 -250.5 -77.5t-294.5 -25.5q-249 0 -428.5 36.5t-276 132t-96.5 271.5q0 86 22.5 184t53.5 192l171 -56q-23 -72 -42 -151.5t-19 -142.5q0 -105 67 -161.5t203.5 -78t344.5 -23.5q90 -1 181 5.5t173 21.5l2 9
q-85 52 -137.5 131t-52.5 190q0 121 50.5 210t137 137.5t194.5 48.5q107 0 193 -49t137 -137.5t51 -208.5q0 -110 -54.5 -191t-139.5 -133l3 -9q90 -25 202 -25h111v-203h-129q-118 0 -206 27t-171 76zM1441 283q86 41 139 106.5t53 162.5q0 90 -53.5 147t-137.5 57
q-85 0 -138.5 -56.5t-53.5 -147.5q0 -94 53.5 -160t137.5 -109z" />
    <glyph glyph-name="uniFED3" unicode="&#x641;" horiz-adv-x="960" arabic-form="initial" 
d="M310 1585l144 144l144 -144l-144 -145zM0 203h340q196 0 274 57.5t78 195.5q-138 -34 -256 -34q-330 0 -330 290q0 145 44 254t123.5 170t184.5 61q125 0 216.5 -87t141.5 -246t50 -376q0 -253 -130 -370.5t-411 -117.5h-325q-33 0 -33 102q0 101 33 101zM666 628
q-12 176 -68.5 273t-147.5 97q-80 0 -131.5 -73t-51.5 -187q0 -138 180 -138q90 0 219 28z" />
    <glyph glyph-name="uniFED4" unicode="&#x641;" horiz-adv-x="1005" arabic-form="medial" 
d="M357 1359l144 144l144 -144l-144 -145zM120 560q0 121 50.5 210t137 137.5t194.5 48.5q107 0 193.5 -49t137.5 -137.5t51 -208.5q0 -110 -55 -191t-140 -133l3 -9q88 -25 197 -25h116v-203h-135q-116 0 -202.5 27t-168.5 76q-81 -49 -167.5 -76t-201.5 -27h-130
q-34 0 -34 102q0 101 34 101h104q113 0 210 25l3 9q-85 52 -141 132t-56 191zM501 280q86 43 139 109t53 163q0 90 -53.5 147t-137.5 57q-85 0 -138.5 -56.5t-53.5 -147.5q0 -94 53.5 -161t137.5 -111z" />
    <glyph glyph-name="uniFED5" unicode="&#x642;" horiz-adv-x="1538" arabic-form="isolated" 
d="M728 1232l144 144l145 -144l-145 -145zM1077 1232l144 144l145 -144l-145 -145zM1048 850q105 0 180.5 -57t124.5 -154t72 -219t23 -253q0 -316 -174.5 -488.5t-520.5 -172.5q-326 0 -492.5 141t-166.5 416q0 150 53 459l189 -38q-25 -140 -36.5 -239t-11.5 -170
q0 -189 119 -277.5t354 -88.5q453 0 499 360l-8 10q-45 -13 -102 -21.5t-118 -8.5q-157 0 -248 78t-91 241q0 130 41 239.5t120.5 176t193.5 66.5zM1261 274q-3 60 -15 125t-37 121t-66 91t-100 35q-63 0 -105 -38t-62.5 -95.5t-20.5 -118.5q0 -83 50 -115t136 -32
q64 0 119 8t101 19z" />
    <glyph glyph-name="uniFED6" unicode="&#x642;" horiz-adv-x="1519" arabic-form="final" 
d="M730 1175l144 144l145 -144l-145 -145zM1079 1175l144 144l145 -144l-145 -145zM1050 793q98 0 169 -49.5t118 -134t73 -190t35 -216.5h74v-203h-80q-25 -265 -201 -408t-481 -143q-328 0 -495.5 140t-167.5 417q0 148 53 459l189 -38q-25 -140 -36.5 -239t-11.5 -170
q0 -191 120.5 -278t356.5 -87q214 0 344.5 87t153.5 255l-7 11q-108 -6 -221 -6q-157 0 -248.5 77t-91.5 241q0 130 41.5 237.5t121 172.5t192.5 65zM1046 589q-63 0 -105 -36t-63 -92.5t-21 -116.5q0 -83 51 -115.5t136 -32.5q113 0 221 3q-2 62 -14 130t-37 127t-66 96
t-102 37z" />
    <glyph glyph-name="uniFED7" unicode="&#x642;" horiz-adv-x="960" arabic-form="initial" 
d="M135 1573l144 144l145 -144l-145 -145zM484 1573l144 144l145 -144l-145 -145zM0 203h340q196 0 274 57.5t78 195.5q-138 -34 -256 -34q-330 0 -330 290q0 145 44 254t123.5 170t184.5 61q125 0 216.5 -87t141.5 -246t50 -376q0 -253 -130 -370.5t-411 -117.5h-325
q-33 0 -33 102q0 101 33 101zM666 628q-12 176 -68.5 273t-147.5 97q-80 0 -131.5 -73t-51.5 -187q0 -138 180 -138q90 0 219 28z" />
    <glyph glyph-name="uniFED8" unicode="&#x642;" horiz-adv-x="1005" arabic-form="medial" 
d="M182 1314l144 144l145 -144l-145 -145zM531 1314l144 144l145 -144l-145 -145zM120 560q0 121 50.5 210t137 137.5t194.5 48.5q107 0 193.5 -49t137.5 -137.5t51 -208.5q0 -110 -55 -191t-140 -133l3 -9q88 -25 197 -25h116v-203h-135q-116 0 -202.5 27t-168.5 76
q-81 -49 -167.5 -76t-201.5 -27h-130q-34 0 -34 102q0 101 34 101h104q113 0 210 25l3 9q-85 52 -141 132t-56 191zM501 280q86 43 139 109t53 163q0 90 -53.5 147t-137.5 57q-85 0 -138.5 -56.5t-53.5 -147.5q0 -94 53.5 -161t137.5 -111z" />
    </font>
</defs>
</svg>
