<?xml version="1.0" standalone="no"?>
<!DOCTYPE svg PUBLIC "-//W3C//DTD SVG 1.1//EN" "http://www.w3.org/Graphics/SVG/1.1/DTD/svg11.dtd" >
<svg xmlns="http://www.w3.org/2000/svg" xmlns:xlink="http://www.w3.org/1999/xlink" version="1.1">
<metadata>
Created by FontForge 20170731 at Wed Jun  1 20:37:45 2022
 By Aleksey,,,
Copyright 2022 The Estedad Project Authors (https://github.com/aminabedi68/Estedad)
</metadata>
<defs>
<font id="Estedad-Light" horiz-adv-x="0" >
  <font-face 
    font-family="Estedad Light"
    font-weight="300"
    font-stretch="normal"
    units-per-em="2048"
    panose-1="0 0 0 0 0 0 0 0 0 0"
    ascent="1638"
    descent="-410"
    x-height="1019"
    cap-height="1366"
    bbox="-621 -1242 4300 2432"
    underline-thickness="150"
    underline-position="-975"
    unicode-range="U+0020-FEFC"
  />
<missing-glyph horiz-adv-x="1024" 
d="M102 -410v2048h820v-2048h-820zM204 -308h616v1844h-616v-1844z" />
    <glyph glyph-name="uni0622" unicode="&#x627;&#x653;" horiz-adv-x="504" 
d="M497 1586l61 -30q-34 -91 -75 -129.5t-103 -38.5q-30 0 -61.5 13t-80.5 41q-46 27 -67.5 34.5t-41.5 7.5q-34 0 -59.5 -25.5t-65.5 -101.5l-56 35q42 93 84 135t93 42q26 0 52 -10.5t77 -38.5q59 -32 83.5 -41t46.5 -9q39 0 62 23.5t51 92.5zM314 1147v-1147h-122v1147
h122z" />
    <glyph glyph-name="uni0623" unicode="&#x627;&#x654;" horiz-adv-x="504" 
d="M314 1147v-1147h-122v1147h122zM402 1739l-24 -64q-18 8 -37.5 12.5t-41.5 4.5q-59 0 -97 -33.5t-38 -86.5q0 -49 32.5 -76t86.5 -27q40 0 85 14l100 31l22 -69l-454 -144l-22 71l181 52v10q-44 17 -70.5 54.5t-26.5 86.5q0 80 57.5 134.5t144.5 54.5q26 0 51.5 -7
t50.5 -18z" />
    <glyph glyph-name="uni0624" unicode="&#x648;&#x654;" horiz-adv-x="956" 
d="M630 1359l-24 -64q-18 8 -37.5 12.5t-41.5 4.5q-59 0 -97 -33.5t-38 -86.5q0 -49 32.5 -76t86.5 -27q40 0 85 14l100 31l22 -69l-454 -144l-22 71l181 52v10q-44 17 -70.5 54.5t-26.5 86.5q0 80 57.5 134.5t144.5 54.5q26 0 51.5 -7t50.5 -18zM725 17l-6 8
q-53 -14 -117 -25t-137 -11q-151 0 -241 69t-90 221q0 111 36.5 213t110.5 167.5t186 65.5q107 0 179 -61.5t115.5 -161.5t62.5 -217t19 -228q0 -218 -186 -362.5t-518 -227.5l-46 118q292 66 454.5 176t177.5 256zM723 147q-3 70 -17.5 148t-44 147t-77.5 112.5t-119 43.5
q-76 0 -125.5 -47t-73.5 -117.5t-24 -142.5q0 -102 61 -139.5t165 -37.5q73 0 137.5 10t117.5 23z" />
    <glyph glyph-name="uni0625" unicode="&#x627;&#x655;" horiz-adv-x="504" 
d="M388 -218l-24 -64q-18 8 -37.5 12.5t-41.5 4.5q-59 0 -97 -33.5t-38 -86.5q0 -49 32.5 -76t86.5 -27q40 0 85 14l100 31l22 -69l-454 -144l-22 71l181 52v10q-44 17 -70.5 54.5t-26.5 86.5q0 80 57.5 134.5t144.5 54.5q26 0 51.5 -7t50.5 -18zM314 0h-122v1299h122v-1299
z" />
    <glyph glyph-name="uni0626" unicode="&#x649;&#x654;" horiz-adv-x="1494" 
d="M575 1083l-24 -64q-18 8 -37.5 12.5t-41.5 4.5q-59 0 -97 -33.5t-38 -86.5q0 -49 32.5 -76t86.5 -27q40 0 85 14l100 31l22 -69l-454 -144l-22 71l181 52v10q-44 17 -70.5 54.5t-26.5 86.5q0 80 57.5 134.5t144.5 54.5q26 0 51.5 -7t50.5 -18zM1352 711l-44 -110
q-103 51 -206 51q-91 0 -165 -41t-117.5 -113t-43.5 -167q0 -73 40 -107t108.5 -46t155.5 -19q83 -6 154 -23t114.5 -62.5t43.5 -135.5q0 -117 -88 -204t-241.5 -135.5t-349.5 -48.5q-275 0 -427.5 119t-152.5 348q0 85 10.5 183.5t32.5 228.5l119 -21q-24 -135 -34 -221
t-10 -167q0 -176 117.5 -260t343.5 -84q159 0 287 31t202.5 87t74.5 129q0 54 -34 79t-89.5 33.5t-119.5 11.5q-98 7 -183 27.5t-136.5 76.5t-51.5 169q0 130 60 232.5t160.5 161.5t223.5 59q58 0 120.5 -15t125.5 -47z" />
    <glyph glyph-name="uni06C0" unicode="&#x647;&#x654;" horiz-adv-x="887" 
d="M443 -11q-154 0 -241.5 86t-87.5 219q0 134 75 259.5t179 225.5q-26 25 -50 47t-51 44l76 91q199 -164 315 -327.5t116 -332.5q0 -136 -90 -224t-241 -88zM443 116q106 0 157 53.5t51 140.5q0 95 -57.5 199.5t-150.5 190.5q-92 -85 -150.5 -190t-58.5 -200
q0 -87 51.5 -140.5t157.5 -53.5zM330 1178q-27 0 -55.5 2.5t-55.5 6.5l17 78q47 -9 102 -9q48 0 95 9.5t78 31t31 58.5q0 35 -34.5 47t-86.5 19q-59 10 -105 33.5t-46 93.5q0 99 67.5 158t161.5 59q52 0 109 -20l-27 -73q-44 13 -83 13q-61 0 -109 -30.5t-48 -89.5
q0 -40 32.5 -53t82.5 -21q62 -8 110.5 -31t48.5 -97q0 -62 -39.5 -103.5t-104.5 -61.5t-141 -20z" />
    <glyph glyph-name="uniFBA5" unicode="&#xfeea;&#x654;" horiz-adv-x="1134" arabic-form="final" 
d="M717 823l-9 154l122 7l34 -550q7 -122 32 -189t81.5 -93t155.5 -26h1v-126h-1q-139 0 -219 48t-121 145q-111 -44 -238 -44q-101 0 -186 29t-136 88t-51 147q0 158 143 265.5t392 144.5zM724 703q-196 -23 -311 -93.5t-115 -176.5q0 -87 79.5 -125.5t186.5 -38.5
q103 0 195 30q-6 30 -9.5 60t-5.5 64zM273 1016q-27 0 -55.5 2.5t-55.5 6.5l17 78q47 -9 102 -9q48 0 95 9.5t78 31t31 58.5q0 35 -34.5 47t-86.5 19q-59 10 -105 33.5t-46 93.5q0 99 67.5 158t161.5 59q52 0 109 -20l-27 -73q-44 13 -83 13q-61 0 -109 -30.5t-48 -89.5
q0 -40 32.5 -53t82.5 -21q62 -8 110.5 -31t48.5 -97q0 -62 -39.5 -103.5t-104.5 -61.5t-141 -20z" />
    <glyph glyph-name="uniFDF2" unicode="&#x627;&#x644;&#x644;&#x647;" horiz-adv-x="2918" arabic-form="isolated" 
d="M2728 0h-122v1299h122v-1299zM1832 126q116 0 178 33t85.5 101t23.5 172v867h123v-867q0 -214 -96 -323t-314 -109q-26 0 -26 63t26 63zM1445 2068h76v-349h-76v349zM1476 1440q-14 -101 -114 -101q-122 0 -122 130q0 71 31 161l60 -20q-12 -37 -19.5 -69.5t-7.5 -56.5
q0 -71 67 -71q44 0 61.5 31.5t17.5 112.5v16h61v-16q0 -81 17.5 -112.5t60.5 -31.5q66 0 66 71q0 48 -24 126l59 20q16 -46 24 -84.5t8 -76.5q0 -130 -122 -130q-101 0 -114 101h-10zM1477 242q-20 -116 -109.5 -179t-233.5 -63q-26 0 -26 63t26 63q126 0 187 38.5t80.5 110
t19.5 171.5v711h122v-703q0 -100 20 -174t81.5 -114t185.5 -40h1v-126h-1q-143 0 -233.5 63.5t-109.5 178.5h-10zM717 823l-9 154l122 7l34 -550q7 -122 32 -189t81.5 -93t155.5 -26h1v-126h-1q-139 0 -219 48t-121 145q-111 -44 -238 -44q-101 0 -186 29t-136 88t-51 147
q0 158 143 265.5t392 144.5zM724 703q-196 -23 -311 -93.5t-115 -176.5q0 -87 79.5 -125.5t186.5 -38.5q103 0 195 30q-6 30 -9.5 60t-5.5 64z" />
    <glyph glyph-name="uniFE71" unicode="&#x640;&#x64b;" horiz-adv-x="894" arabic-form="medial" 
d="M667 1144l23 -71l-455 -145l-23 73zM667 912l23 -71l-455 -145l-23 73zM0 126h894v-126h-894q-26 0 -26 63t26 63z" />
    <glyph glyph-name="uniFE77" unicode="&#x640;&#x64e;" horiz-adv-x="894" arabic-form="medial" 
d="M667 912l23 -71l-455 -145l-23 73zM0 126h894v-126h-894q-26 0 -26 63t26 63z" />
    <glyph glyph-name="uniFE79" unicode="&#x640;&#x64f;" horiz-adv-x="894" arabic-form="medial" 
d="M537 1282q64 0 102 -47t38 -122q0 -88 -56 -157.5t-153.5 -120.5t-222.5 -86l-21 70q66 18 143.5 50.5t134.5 69.5q-52 17 -101 54t-49 104q0 44 25 86.5t67 70.5t93 28zM529 1211q-41 0 -76 -34.5t-35 -78.5q0 -49 46.5 -74t93.5 -36q46 55 46 121q0 41 -18.5 71.5
t-56.5 30.5zM0 126h894v-126h-894q-26 0 -26 63t26 63z" />
    <glyph glyph-name="uniFE7B" unicode="&#x640;&#x650;" horiz-adv-x="894" arabic-form="medial" 
d="M660 -309l23 -71l-455 -145l-23 73zM0 126h894v-126h-894q-26 0 -26 63t26 63z" />
    <glyph glyph-name="uniFE7D" unicode="&#x640;&#x651;" horiz-adv-x="894" arabic-form="medial" 
d="M0 126h894v-126h-894q-26 0 -26 63t26 63zM444 773q-14 -101 -114 -101q-122 0 -122 130q0 71 31 161l60 -20q-12 -37 -19.5 -69.5t-7.5 -56.5q0 -71 67 -71q44 0 61.5 31.5t17.5 112.5v16h61v-16q0 -81 17.5 -112.5t60.5 -31.5q66 0 66 71q0 48 -24 126l59 20
q16 -46 24 -84.5t8 -76.5q0 -130 -122 -130q-101 0 -114 101h-10z" />
    <glyph glyph-name="uniFE7F" unicode="&#x640;&#x652;" horiz-adv-x="894" arabic-form="medial" 
d="M434 994q71 0 116 -44t45 -116q0 -73 -44.5 -117t-116.5 -44t-116.5 44t-44.5 117q0 71 44.5 115.5t116.5 44.5zM434 928q-97 0 -97 -94q0 -45 25.5 -71t71.5 -26q44 0 70.5 27t26.5 70q0 44 -25.5 69t-71.5 25zM0 126h894v-126h-894q-26 0 -26 63t26 63z" />
    <glyph glyph-name="uniFEF5" unicode="&#xfedf;&#xfe82;" horiz-adv-x="1190" arabic-form="isolated" 
d="M-11 1502q78 121 167 121q26 0 51.5 -8.5t59.5 -31.5q57 -36 86 -36q53 0 108 88l62 -38q-70 -127 -166 -127q-45 0 -107 39q-58 37 -88 37q-52 0 -112 -85zM724 712q92 88 134 193t42 244v150h123v-150q0 -160 -54 -285.5t-169 -232.5q112 -113 167.5 -205.5
t55.5 -172.5q0 -126 -123 -194.5t-317 -68.5q-97 0 -200.5 17t-212.5 48v245l480 339l-530 559l87 87zM717 572l-422 -308v-112q155 -35 303 -35q152 0 231.5 42t79.5 103q0 50 -46 127t-146 183z" />
    <glyph glyph-name="uniFEF6" unicode="&#xfee0;&#xfe82;" horiz-adv-x="1427" arabic-form="final" 
d="M-11 1572q78 121 167 121q26 0 51.5 -8.5t59.5 -31.5q57 -36 86 -36q53 0 108 88l62 -38q-70 -127 -166 -127q-45 0 -107 39q-58 37 -88 37q-52 0 -112 -85zM165 1286l113 37q65 -152 107 -297t64.5 -301t28.5 -340l-121 -11q-7 257 -52.5 475t-139.5 437zM1009 1299h122
v-885q0 -159 67.5 -223.5t227.5 -64.5h1v-126h-1q-376 0 -397 362v58q-146 -212 -373 -316t-556 -104v126q216 0 381.5 44.5t294 138.5t233.5 243v747z" />
    <glyph glyph-name="uniFEF7" unicode="&#xfedf;&#xfe84;" horiz-adv-x="1190" arabic-form="isolated" 
d="M486 1845l-24 -64q-18 8 -37.5 12.5t-41.5 4.5q-59 0 -97 -33.5t-38 -86.5q0 -49 32.5 -76t86.5 -27q40 0 85 14l100 31l22 -69l-454 -144l-22 71l181 52v10q-44 17 -70.5 54.5t-26.5 86.5q0 80 57.5 134.5t144.5 54.5q26 0 51.5 -7t50.5 -18zM724 712q92 88 134 193
t42 244v150h123v-150q0 -160 -54 -285.5t-169 -232.5q112 -113 167.5 -205.5t55.5 -172.5q0 -126 -123 -194.5t-317 -68.5q-97 0 -200.5 17t-212.5 48v245l480 339l-530 559l87 87zM717 572l-422 -308v-112q155 -35 303 -35q152 0 231.5 42t79.5 103q0 50 -46 127t-146 183z
" />
    <glyph glyph-name="uniFEF8" unicode="&#xfee0;&#xfe84;" horiz-adv-x="1427" arabic-form="final" 
d="M486 1915l-24 -64q-18 8 -37.5 12.5t-41.5 4.5q-59 0 -97 -33.5t-38 -86.5q0 -49 32.5 -76t86.5 -27q40 0 85 14l100 31l22 -69l-454 -144l-22 71l181 52v10q-44 17 -70.5 54.5t-26.5 86.5q0 80 57.5 134.5t144.5 54.5q26 0 51.5 -7t50.5 -18zM165 1286l113 37
q65 -152 107 -297t64.5 -301t28.5 -340l-121 -11q-7 257 -52.5 475t-139.5 437zM1009 1299h122v-885q0 -159 67.5 -223.5t227.5 -64.5h1v-126h-1q-376 0 -397 362v58q-146 -212 -373 -316t-556 -104v126q216 0 381.5 44.5t294 138.5t233.5 243v747z" />
    <glyph glyph-name="uniFEF9" unicode="&#xfedf;&#xfe88;" horiz-adv-x="1190" arabic-form="isolated" 
d="M480 -161l-24 -64q-18 8 -37.5 12.5t-41.5 4.5q-59 0 -97 -33.5t-38 -86.5q0 -49 32.5 -76t86.5 -27q40 0 85 14l100 31l22 -69l-454 -144l-22 71l181 52v10q-44 17 -70.5 54.5t-26.5 86.5q0 80 57.5 134.5t144.5 54.5q26 0 51.5 -7t50.5 -18zM724 712q92 88 134 193
t42 244v150h123v-150q0 -160 -54 -285.5t-169 -232.5q112 -113 167.5 -205.5t55.5 -172.5q0 -126 -123 -194.5t-317 -68.5q-97 0 -200.5 17t-212.5 48v245l480 339l-530 559l87 87zM717 572l-422 -308v-112q155 -35 303 -35q152 0 231.5 42t79.5 103q0 50 -46 127t-146 183z
" />
    <glyph glyph-name="uniFEFA" unicode="&#xfee0;&#xfe88;" horiz-adv-x="1427" arabic-form="final" 
d="M480 -211l-24 -64q-18 8 -37.5 12.5t-41.5 4.5q-59 0 -97 -33.5t-38 -86.5q0 -49 32.5 -76t86.5 -27q40 0 85 14l100 31l22 -69l-454 -144l-22 71l181 52v10q-44 17 -70.5 54.5t-26.5 86.5q0 80 57.5 134.5t144.5 54.5q26 0 51.5 -7t50.5 -18zM165 1286l113 37
q65 -152 107 -297t64.5 -301t28.5 -340l-121 -11q-7 257 -52.5 475t-139.5 437zM1009 1299h122v-885q0 -159 67.5 -223.5t227.5 -64.5h1v-126h-1q-376 0 -397 362v58q-146 -212 -373 -316t-556 -104v126q216 0 381.5 44.5t294 138.5t233.5 243v747z" />
    <glyph glyph-name="uniFEFB" unicode="&#xfedf;&#xfe8e;" horiz-adv-x="1190" arabic-form="isolated" 
d="M724 712q92 88 134 193t42 244v150h123v-150q0 -160 -54 -285.5t-169 -232.5q112 -113 167.5 -205.5t55.5 -172.5q0 -126 -123 -194.5t-317 -68.5q-97 0 -200.5 17t-212.5 48v245l480 339l-530 559l87 87zM717 572l-422 -308v-112q155 -35 303 -35q152 0 231.5 42
t79.5 103q0 50 -46 127t-146 183z" />
    <glyph glyph-name="uniFEFC" unicode="&#xfee0;&#xfe8e;" horiz-adv-x="1427" arabic-form="final" 
d="M165 1286l113 37q65 -152 107 -297t64.5 -301t28.5 -340l-121 -11q-7 257 -52.5 475t-139.5 437zM1009 1299h122v-885q0 -159 67.5 -223.5t227.5 -64.5h1v-126h-1q-376 0 -397 362v58q-146 -212 -373 -316t-556 -104v126q216 0 381.5 44.5t294 138.5t233.5 243v747z" />
    <glyph glyph-name="uniFEDF_uniFB51.rlig" unicode="&#xfedf;&#xfb51;" horiz-adv-x="1190" 
d="M244 1652q76 85 122.5 116.5t94.5 31.5q56 0 89 -34.5t33 -92.5q0 -73 -49 -119.5t-127 -46.5q-34 0 -68.5 12.5t-86.5 43.5q-39 23 -61.5 31.5t-43.5 8.5q-34 0 -60.5 -26t-65.5 -101l-57 35q43 93 85 135t94 42q20 0 40.5 -7t60.5 -29zM295 1626q40 -21 64.5 -29
t49.5 -8q108 0 108 77q0 30 -18.5 48t-49.5 18q-30 0 -60.5 -20.5t-93.5 -85.5zM724 712q92 88 134 193t42 244v150h123v-150q0 -160 -54 -285.5t-169 -232.5q112 -113 167.5 -205.5t55.5 -172.5q0 -126 -123 -194.5t-317 -68.5q-97 0 -200.5 17t-212.5 48v245l480 339
l-530 559l87 87zM717 572l-422 -308v-112q155 -35 303 -35q152 0 231.5 42t79.5 103q0 50 -46 127t-146 183z" />
    <glyph glyph-name="uniFEE0_uniFB51.rlig" unicode="&#xfee0;&#xfb51;" horiz-adv-x="1427" 
d="M244 1722q76 85 122.5 116.5t94.5 31.5q56 0 89 -34.5t33 -92.5q0 -73 -49 -119.5t-127 -46.5q-34 0 -68.5 12.5t-86.5 43.5q-39 23 -61.5 31.5t-43.5 8.5q-34 0 -60.5 -26t-65.5 -101l-57 35q43 93 85 135t94 42q20 0 40.5 -7t60.5 -29zM295 1696q40 -21 64.5 -29
t49.5 -8q108 0 108 77q0 30 -18.5 48t-49.5 18q-30 0 -60.5 -20.5t-93.5 -85.5zM165 1286l113 37q65 -152 107 -297t64.5 -301t28.5 -340l-121 -11q-7 257 -52.5 475t-139.5 437zM1009 1299h122v-885q0 -159 67.5 -223.5t227.5 -64.5h1v-126h-1q-376 0 -397 362v58
q-146 -212 -373 -316t-556 -104v126q216 0 381.5 44.5t294 138.5t233.5 243v747z" />
    <glyph glyph-name="uni0620.init" unicode="&#x620;" horiz-adv-x="579" 
d="M160 -227q71 0 116 -44t45 -116q0 -73 -44.5 -117t-116.5 -44t-116.5 44t-44.5 117q0 71 44.5 115.5t116.5 44.5zM160 -293q-97 0 -97 -94q0 -45 25.5 -71t71.5 -26q44 0 70.5 27t26.5 70q0 44 -25.5 69t-71.5 25zM407 742q26 -103 42.5 -194.5t16.5 -167.5
q0 -182 -96.5 -281t-314.5 -99h-55q-26 0 -26 63t26 63h55q160 0 227 65.5t67 189.5q0 65 -16.5 148.5t-40.5 181.5z" />
    <glyph glyph-name="uni0620.medi" unicode="&#x620;" horiz-adv-x="846" 
d="M153 -227q71 0 116 -44t45 -116q0 -73 -44.5 -117t-116.5 -44t-116.5 44t-44.5 117q0 71 44.5 115.5t116.5 44.5zM153 -293q-97 0 -97 -94q0 -45 25.5 -71t71.5 -26q44 0 70.5 27t26.5 70q0 44 -25.5 69t-71.5 25zM486 459q0 -105 21.5 -179.5t81.5 -114t176 -39.5h81
v-126h-85q-127 0 -216.5 62t-116.5 178h-10q-27 -117 -130 -178.5t-234 -61.5h-54q-26 0 -26 63t26 63h54q129 0 195.5 39.5t90 114.5t23.5 179v125h123v-125z" />
    <glyph glyph-name="uni0620.fina" unicode="&#x620;" horiz-adv-x="1442" 
d="M728 -768q71 0 116 -44t45 -116q0 -73 -44.5 -117t-116.5 -44t-116.5 44t-44.5 117q0 71 44.5 115.5t116.5 44.5zM728 -834q-97 0 -97 -94q0 -45 25.5 -71t71.5 -26q44 0 70.5 27t26.5 70q0 44 -25.5 69t-71.5 25zM1083 -10q144 -49 201.5 -99.5t57.5 -131.5
q0 -94 -81.5 -168.5t-223 -117t-322.5 -42.5q-307 0 -453.5 123.5t-146.5 385.5q0 83 12.5 205.5t35.5 273.5l115 -23q-46 -293 -46 -450q0 -207 112.5 -298t368.5 -91q149 0 262 27.5t176.5 77t63.5 114.5q0 45 -39.5 77t-142.5 63.5t-294 72.5l17 137h686v-126h-359v-10z
" />
    <glyph glyph-name="uni063B.init" unicode="&#x63b;" horiz-adv-x="821" 
d="M361 1530l115 115l114 -115l-114 -114zM43 1442l115 115l114 -115l-114 -114zM839 1284l21 -127q-232 -58 -401 -110.5t-293 -103.5v-9q180 -134 291 -235t162 -185.5t51 -169.5q0 -166 -143.5 -255t-411.5 -89h-115q-26 0 -26 63t26 63h113q214 0 324.5 57.5
t110.5 167.5q0 67 -53.5 141.5t-166.5 170.5t-293 225l11 133q162 72 365.5 139.5t427.5 123.5z" />
    <glyph glyph-name="uni063B.medi" unicode="&#x63b;" horiz-adv-x="1129" 
d="M361 1530l115 115l114 -115l-114 -114zM43 1442l115 115l114 -115l-114 -114zM629 337q4 -175 -124.5 -256t-389.5 -81h-115q-26 0 -26 63t26 63h113q222 0 327.5 59t105.5 165q0 58 -49 132t-160.5 173.5t-301.5 232.5l11 133q167 74 371 141.5t422 121.5l21 -127
q-222 -55 -393.5 -108t-300.5 -106v-9q151 -111 248 -194.5t161 -157.5t115 -159q67 -113 124 -178t129.5 -92t184.5 -27h1v-126h-1q-129 0 -219.5 33t-155 107t-114.5 197h-10z" />
    <glyph glyph-name="uni063B.fina" unicode="&#x63b;" horiz-adv-x="1969" 
d="M1194 1530l115 115l114 -115l-114 -114zM876 1442l115 115l114 -115l-114 -114zM1470 336q5 -172 -163.5 -254t-525.5 -82q-238 0 -384 43t-212.5 137t-66.5 247q0 127 42 316l114 -28q-41 -179 -41 -279q0 -114 53.5 -182t175.5 -98t325 -30q598 0 598 227
q0 181 -511 535l12 133q166 74 370.5 141.5t421.5 121.5l21 -127q-440 -109 -693 -214l-1 -9q117 -87 199 -154t140.5 -124t102.5 -113t83 -121q70 -119 129.5 -183t131 -88.5t177.5 -24.5h1v-126h-1q-129 0 -220 33t-154.5 106.5t-113.5 196.5h-10z" />
    <glyph glyph-name="uni063C.init" unicode="&#x63c;" horiz-adv-x="821" 
d="M569 -364l120 120l119 -120l-119 -119zM221 -364l119 120l120 -120l-120 -119zM396 -666l119 120l120 -120l-120 -119zM839 1284l21 -127q-232 -58 -401 -110.5t-293 -103.5v-9q180 -134 291 -235t162 -185.5t51 -169.5q0 -166 -143.5 -255t-411.5 -89h-115q-26 0 -26 63
t26 63h113q214 0 324.5 57.5t110.5 167.5q0 67 -53.5 141.5t-166.5 170.5t-293 225l11 133q162 72 365.5 139.5t427.5 123.5z" />
    <glyph glyph-name="uni063C.medi" unicode="&#x63c;" horiz-adv-x="1129" 
d="M569 -364l120 120l119 -120l-119 -119zM221 -364l119 120l120 -120l-120 -119zM396 -666l119 120l120 -120l-120 -119zM629 337q4 -175 -124.5 -256t-389.5 -81h-115q-26 0 -26 63t26 63h113q222 0 327.5 59t105.5 165q0 58 -49 132t-160.5 173.5t-301.5 232.5l11 133
q167 74 371 141.5t422 121.5l21 -127q-222 -55 -393.5 -108t-300.5 -106v-9q151 -111 248 -194.5t161 -157.5t115 -159q67 -113 124 -178t129.5 -92t184.5 -27h1v-126h-1q-129 0 -219.5 33t-155 107t-114.5 197h-10z" />
    <glyph glyph-name="uni063C.fina" unicode="&#x63c;" horiz-adv-x="1969" 
d="M827 -364l120 120l119 -120l-119 -119zM479 -364l119 120l120 -120l-120 -119zM654 -666l119 120l120 -120l-120 -119zM1470 336q5 -172 -163.5 -254t-525.5 -82q-238 0 -384 43t-212.5 137t-66.5 247q0 127 42 316l114 -28q-41 -179 -41 -279q0 -114 53.5 -182
t175.5 -98t325 -30q598 0 598 227q0 181 -511 535l12 133q166 74 370.5 141.5t421.5 121.5l21 -127q-440 -109 -693 -214l-1 -9q117 -87 199 -154t140.5 -124t102.5 -113t83 -121q70 -119 129.5 -183t131 -88.5t177.5 -24.5h1v-126h-1q-129 0 -220 33t-154.5 106.5
t-113.5 196.5h-10z" />
    <glyph glyph-name="uni063D.init" unicode="&#x63d;" horiz-adv-x="579" 
d="M258 1354h60l213 -266l-59 -48l-184 234l-184 -234l-59 48zM407 742q26 -103 42.5 -194.5t16.5 -167.5q0 -182 -96.5 -281t-314.5 -99h-55q-26 0 -26 63t26 63h55q160 0 227 65.5t67 189.5q0 65 -16.5 148.5t-40.5 181.5zM-156 -365l119 120l120 -120l-120 -119z
M192 -365l120 120l119 -120l-119 -119z" />
    <glyph glyph-name="uni063D.medi" unicode="&#x63d;" horiz-adv-x="846" 
d="M261 1146h60l213 -266l-59 -48l-184 234l-184 -234l-59 48zM486 459q0 -105 21.5 -179.5t81.5 -114t176 -39.5h81v-126h-85q-127 0 -216.5 62t-116.5 178h-10q-27 -117 -130 -178.5t-234 -61.5h-54q-26 0 -26 63t26 63h54q129 0 195.5 39.5t90 114.5t23.5 179v125h123
v-125zM-188 -365l119 120l120 -120l-120 -119zM160 -365l120 120l119 -120l-119 -119z" />
    <glyph glyph-name="uni063D.fina" unicode="&#x63d;" horiz-adv-x="1442" 
d="M805 754h60l213 -266l-59 -48l-184 234l-184 -234l-59 48zM1083 -10q144 -49 201.5 -99.5t57.5 -131.5q0 -94 -81.5 -168.5t-223 -117t-322.5 -42.5q-307 0 -453.5 123.5t-146.5 385.5q0 83 12.5 205.5t35.5 273.5l115 -23q-46 -293 -46 -450q0 -207 112.5 -298
t368.5 -91q149 0 262 27.5t176.5 77t63.5 114.5q0 45 -39.5 77t-142.5 63.5t-294 72.5l17 137h686v-126h-359v-10z" />
    <glyph glyph-name="uni063E.init" unicode="&#x63e;" horiz-adv-x="579" 
d="M-38 1125l119 120l120 -120l-120 -119zM310 1125l120 120l119 -120l-119 -119zM407 742q26 -103 42.5 -194.5t16.5 -167.5q0 -182 -96.5 -281t-314.5 -99h-55q-26 0 -26 63t26 63h55q160 0 227 65.5t67 189.5q0 65 -16.5 148.5t-40.5 181.5zM-156 -365l119 120l120 -120
l-120 -119zM192 -365l120 120l119 -120l-119 -119z" />
    <glyph glyph-name="uni063E.medi" unicode="&#x63e;" horiz-adv-x="846" 
d="M31 970l119 120l120 -120l-120 -119zM379 970l120 120l119 -120l-119 -119zM486 459q0 -105 21.5 -179.5t81.5 -114t176 -39.5h81v-126h-85q-127 0 -216.5 62t-116.5 178h-10q-27 -117 -130 -178.5t-234 -61.5h-54q-26 0 -26 63t26 63h54q129 0 195.5 39.5t90 114.5
t23.5 179v125h123v-125zM-188 -365l119 120l120 -120l-120 -119zM160 -365l120 120l119 -120l-119 -119z" />
    <glyph glyph-name="uni063E.fina" unicode="&#x63e;" horiz-adv-x="1442" 
d="M545 570l119 120l120 -120l-120 -119zM893 570l120 120l119 -120l-119 -119zM1083 -10q144 -49 201.5 -99.5t57.5 -131.5q0 -94 -81.5 -168.5t-223 -117t-322.5 -42.5q-307 0 -453.5 123.5t-146.5 385.5q0 83 12.5 205.5t35.5 273.5l115 -23q-46 -293 -46 -450
q0 -207 112.5 -298t368.5 -91q149 0 262 27.5t176.5 77t63.5 114.5q0 45 -39.5 77t-142.5 63.5t-294 72.5l17 137h686v-126h-359v-10z" />
    <glyph glyph-name="uni063F.init" unicode="&#x63f;" horiz-adv-x="579" 
d="M136 1428l119 119l120 -119l-120 -120zM310 1125l120 120l119 -120l-119 -119zM-38 1125l119 120l120 -120l-120 -119zM407 742q26 -103 42.5 -194.5t16.5 -167.5q0 -182 -96.5 -281t-314.5 -99h-55q-26 0 -26 63t26 63h55q160 0 227 65.5t67 189.5q0 65 -16.5 148.5
t-40.5 181.5zM-156 -365l119 120l120 -120l-120 -119zM192 -365l120 120l119 -120l-119 -119z" />
    <glyph glyph-name="uni063F.medi" unicode="&#x63f;" horiz-adv-x="846" 
d="M205 1273l119 119l120 -119l-120 -120zM379 970l120 120l119 -120l-119 -119zM31 970l119 120l120 -120l-120 -119zM486 459q0 -105 21.5 -179.5t81.5 -114t176 -39.5h81v-126h-85q-127 0 -216.5 62t-116.5 178h-10q-27 -117 -130 -178.5t-234 -61.5h-54q-26 0 -26 63
t26 63h54q129 0 195.5 39.5t90 114.5t23.5 179v125h123v-125zM-188 -365l119 120l120 -120l-120 -119zM160 -365l120 120l119 -120l-119 -119z" />
    <glyph glyph-name="uni063F.fina" unicode="&#x63f;" horiz-adv-x="1442" 
d="M719 873l119 119l120 -119l-120 -120zM893 570l120 120l119 -120l-119 -119zM545 570l119 120l120 -120l-120 -119zM1083 -10q144 -49 201.5 -99.5t57.5 -131.5q0 -94 -81.5 -168.5t-223 -117t-322.5 -42.5q-307 0 -453.5 123.5t-146.5 385.5q0 83 12.5 205.5t35.5 273.5
l115 -23q-46 -293 -46 -450q0 -207 112.5 -298t368.5 -91q149 0 262 27.5t176.5 77t63.5 114.5q0 45 -39.5 77t-142.5 63.5t-294 72.5l17 137h686v-126h-359v-10z" />
    <glyph glyph-name="uni06A1.init" unicode="&#x66f;" horiz-adv-x="960" 
d="M0 126h349q207 0 295 71t88 235q-145 -37 -276 -37q-317 0 -317 269q0 133 42 234t116 158t171 57q116 0 200.5 -82t130.5 -232t46 -355q0 -231 -124.5 -337.5t-393.5 -106.5h-327q-26 0 -26 63t26 63zM719 546q-12 209 -79.5 326t-176.5 117q-94 0 -155.5 -88
t-61.5 -223q0 -167 214 -167q110 0 259 35z" />
    <glyph glyph-name="uni06A1.medi" unicode="&#x66f;" horiz-adv-x="980" 
d="M141 521q0 173 99.5 270t249.5 97q98 0 177 -44t125 -126t46 -196q0 -124 -65.5 -210.5t-161.5 -139.5l1 -10q108 -36 241 -36h127v-126h-145q-103 0 -183.5 22t-163.5 65q-82 -43 -163.5 -65t-186.5 -22h-138q-26 0 -26 63t26 63h122q131 0 248 36l1 10
q-97 53 -163.5 139t-66.5 210zM489 203q101 47 164.5 123.5t63.5 192.5q0 112 -63.5 179.5t-163.5 67.5q-101 0 -165 -67t-64 -180q0 -115 64 -191.5t164 -124.5z" />
    <glyph glyph-name="uni066F.fina" unicode="&#x66f;" horiz-adv-x="1495" 
d="M1035 725q99 0 167.5 -54t111.5 -142.5t65 -194t28 -208.5h88v-126h-91q-13 -268 -181 -411.5t-474 -143.5q-634 0 -634 527q0 73 12.5 180t37.5 252l119 -24q-25 -139 -36.5 -238.5t-11.5 -167.5q0 -213 131.5 -307t387.5 -94q245 0 386 107t153 314l-5 9
q-129 -3 -257 -3q-150 0 -240 67t-90 221q0 115 38 214.5t112 161t183 61.5zM1033 598q-76 0 -126 -44.5t-74 -112.5t-24 -140q0 -103 61.5 -140.5t165.5 -37.5h129t128 1q-3 72 -17 154t-43 155t-78 119t-122 46z" />
    <glyph glyph-name="uni0672.fina" unicode="&#x672;" horiz-adv-x="596" 
d="M172 1147h123v-733q0 -153 65 -220.5t235 -67.5h1v-126h-1q-423 0 -423 412v735zM420 1712q-25 7 -51 7q-56 0 -90.5 -31.5t-34.5 -78.5q0 -40 28 -71.5t84 -31.5q21 0 45 4.5t49 11.5l40 13l21 -70l-211 -67q-33 -11 -64 -11q-39 0 -75 18q-13 7 -24 12t-22 5
q-21 0 -33 -16t-23 -40l-67 30q22 47 47 73.5t68 26.5q29 0 48 -12.5t45 -19.5t76 9v9q-52 10 -78.5 47.5t-26.5 82.5q0 75 54.5 128.5t139.5 53.5q36 0 72 -11l32 -8l-17 -70z" />
    <glyph glyph-name="uni0673.fina" unicode="&#x673;" horiz-adv-x="596" 
d="M440 -244q-25 7 -51 7q-56 0 -90.5 -31.5t-34.5 -78.5q0 -40 28 -71.5t84 -31.5q21 0 45 4.5t49 11.5l40 13l21 -70l-211 -67q-33 -11 -64 -11q-39 0 -75 18q-13 7 -24 12t-22 5q-21 0 -33 -16t-23 -40l-67 30q22 47 47 73.5t68 26.5q29 0 48 -12.5t45 -19.5t76 9v9
q-52 10 -78.5 47.5t-26.5 82.5q0 75 54.5 128.5t139.5 53.5q36 0 72 -11l32 -8l-17 -70zM172 1299h123v-885q0 -153 65 -220.5t235 -67.5h1v-126h-1q-423 0 -423 412v887z" />
    <glyph glyph-name="uni0675.fina" unicode="&#x675;" horiz-adv-x="1000" 
d="M175 1299h122v-885q0 -153 64 -220.5t234 -67.5h406v-126h-406q-420 0 -420 412v887zM783 1428l-24 -64q-18 8 -37.5 12.5t-41.5 4.5q-59 0 -97 -33.5t-38 -86.5q0 -49 32.5 -76t86.5 -27q40 0 85 14l100 31l22 -69l-454 -144l-22 71l181 52v10q-44 17 -70.5 54.5
t-26.5 86.5q0 80 57.5 134.5t144.5 54.5q26 0 51.5 -7t50.5 -18z" />
    <glyph glyph-name="uni0676.fina" unicode="&#x676;" horiz-adv-x="927" 
d="M867 1389l-24 -64q-18 8 -37.5 12.5t-41.5 4.5q-59 0 -97 -33.5t-38 -86.5q0 -49 32.5 -76t86.5 -27q40 0 85 14l100 31l22 -69l-454 -144l-22 71l181 52v10q-44 17 -70.5 54.5t-26.5 86.5q0 80 57.5 134.5t144.5 54.5q26 0 51.5 -7t50.5 -18zM727 -6l-6 9
q-130 -3 -257 -3q-150 0 -240 68t-90 221q0 109 36.5 209t110.5 163.5t186 63.5q100 0 169 -55t112 -144t64.5 -194t26.5 -206h88v-126h-91q-18 -193 -202 -324t-495 -209l-46 118q282 64 447 168t187 241zM725 124q-3 72 -16.5 154t-43 155t-78.5 119t-122 46
q-76 0 -125.5 -44t-73.5 -112t-24 -140q0 -103 61.5 -141t164.5 -38h128.5t128.5 1z" />
    <glyph glyph-name="uni0677.fina" unicode="&#x677;" horiz-adv-x="927" 
d="M299 1476q64 0 102 -47t38 -122q0 -88 -56 -157.5t-153.5 -120.5t-222.5 -86l-21 70q66 18 143.5 50.5t134.5 69.5q-52 17 -101 54t-49 104q0 44 25 86.5t67 70.5t93 28zM291 1405q-41 0 -76 -34.5t-35 -78.5q0 -49 46.5 -74t93.5 -36q46 55 46 121q0 41 -18.5 71.5
t-56.5 30.5zM867 1389l-24 -64q-18 8 -37.5 12.5t-41.5 4.5q-59 0 -97 -33.5t-38 -86.5q0 -49 32.5 -76t86.5 -27q40 0 85 14l100 31l22 -69l-454 -144l-22 71l181 52v10q-44 17 -70.5 54.5t-26.5 86.5q0 80 57.5 134.5t144.5 54.5q26 0 51.5 -7t50.5 -18zM727 -6l-6 9
q-130 -3 -257 -3q-150 0 -240 68t-90 221q0 109 36.5 209t110.5 163.5t186 63.5q100 0 169 -55t112 -144t64.5 -194t26.5 -206h88v-126h-91q-18 -193 -202 -324t-495 -209l-46 118q282 64 447 168t187 241zM725 124q-3 72 -16.5 154t-43 155t-78.5 119t-122 46
q-76 0 -125.5 -44t-73.5 -112t-24 -140q0 -103 61.5 -141t164.5 -38h128.5t128.5 1z" />
    <glyph glyph-name="uni0678.fina" unicode="&#x678;" horiz-adv-x="1442" 
d="M1244 784l-24 -64q-18 8 -37.5 12.5t-41.5 4.5q-59 0 -97 -33.5t-38 -86.5q0 -49 32.5 -76t86.5 -27q40 0 85 14l100 31l22 -69l-454 -144l-22 71l181 52v10q-44 17 -70.5 54.5t-26.5 86.5q0 80 57.5 134.5t144.5 54.5q26 0 51.5 -7t50.5 -18zM1083 -10
q144 -49 201.5 -99.5t57.5 -131.5q0 -94 -81.5 -168.5t-223 -117t-322.5 -42.5q-307 0 -453.5 123.5t-146.5 385.5q0 83 12.5 205.5t35.5 273.5l115 -23q-46 -293 -46 -450q0 -207 112.5 -298t368.5 -91q149 0 262 27.5t176.5 77t63.5 114.5q0 45 -39.5 77t-142.5 63.5
t-294 72.5l17 137h686v-126h-359v-10z" />
    <glyph glyph-name="uni067C.init" unicode="&#x67c;" horiz-adv-x="579" 
d="M0 59q77 0 123 -46t46 -123q0 -76 -46 -122t-123 -46q-76 0 -122.5 45.5t-46.5 122.5t46.5 123t122.5 46zM0 0q-104 0 -104 -101q0 -102 104 -102t104 102q0 101 -104 101zM407 742q26 -103 42.5 -194.5t16.5 -167.5q0 -182 -96.5 -281t-314.5 -99h-55q-26 0 -26 63
t26 63h55q160 0 227 65.5t67 189.5q0 65 -16.5 148.5t-40.5 181.5zM-38 1125l119 120l120 -120l-120 -119zM310 1125l120 120l119 -120l-119 -119z" />
    <glyph glyph-name="uni067C.medi" unicode="&#x67c;" horiz-adv-x="846" 
d="M0 59q77 0 123 -46t46 -123q0 -76 -46 -122t-123 -46q-76 0 -122.5 45.5t-46.5 122.5t46.5 123t122.5 46zM0 0q-104 0 -104 -101q0 -102 104 -102t104 102q0 101 -104 101zM486 459q0 -105 21.5 -179.5t81.5 -114t176 -39.5h81v-126h-85q-127 0 -216.5 62t-116.5 178h-10
q-27 -117 -130 -178.5t-234 -61.5h-54q-26 0 -26 63t26 63h54q129 0 195.5 39.5t90 114.5t23.5 179v125h123v-125zM31 970l119 120l120 -120l-120 -119zM379 970l120 120l119 -120l-119 -119z" />
    <glyph glyph-name="uni067C.fina" unicode="&#x67c;" horiz-adv-x="1945" 
d="M780 59q77 0 123 -46t46 -123q0 -76 -46 -122t-123 -46q-76 0 -122.5 45.5t-46.5 122.5t46.5 123t122.5 46zM780 0q-104 0 -104 -101q0 -102 104 -102t104 102q0 101 -104 101zM1681 611q-12 -68 -20 -126.5t-8 -118.5q0 -68 23 -122.5t86 -86t182 -31.5h1v-126h-1
q-343 0 -384 283h-10q-91 -161 -289 -222t-477 -61q-355 0 -512.5 120t-157.5 342q0 69 15 148.5t43 161.5l111 -35q-53 -154 -53 -268q0 -172 135.5 -257.5t440.5 -85.5q204 0 341.5 29t222.5 90t131 156t66 227zM609 787l119 120l120 -120l-120 -119zM957 787l120 120
l119 -120l-119 -119z" />
    <glyph glyph-name="uni067D.init" unicode="&#x67d;" horiz-adv-x="579" 
d="M288 1429l120 120l119 -120l-119 -119zM-60 1429l119 120l120 -120l-120 -119zM115 1127l119 120l120 -120l-120 -119zM407 742q26 -103 42.5 -194.5t16.5 -167.5q0 -182 -96.5 -281t-314.5 -99h-55q-26 0 -26 63t26 63h55q160 0 227 65.5t67 189.5q0 65 -16.5 148.5
t-40.5 181.5z" />
    <glyph glyph-name="uni067D.medi" unicode="&#x67d;" horiz-adv-x="846" 
d="M373 1273l120 120l119 -120l-119 -119zM25 1273l119 120l120 -120l-120 -119zM200 971l119 120l120 -120l-120 -119zM486 459q0 -105 21.5 -179.5t81.5 -114t176 -39.5h81v-126h-85q-127 0 -216.5 62t-116.5 178h-10q-27 -117 -130 -178.5t-234 -61.5h-54q-26 0 -26 63
t26 63h54q129 0 195.5 39.5t90 114.5t23.5 179v125h123v-125z" />
    <glyph glyph-name="uni067D.fina" unicode="&#x67d;" horiz-adv-x="1945" 
d="M956 1089l120 120l119 -120l-119 -119zM608 1089l119 120l120 -120l-120 -119zM783 787l119 120l120 -120l-120 -119zM1681 611q-12 -68 -20 -126.5t-8 -118.5q0 -68 23 -122.5t86 -86t182 -31.5h1v-126h-1q-343 0 -384 283h-10q-91 -161 -289 -222t-477 -61
q-355 0 -512.5 120t-157.5 342q0 69 15 148.5t43 161.5l111 -35q-53 -154 -53 -268q0 -172 135.5 -257.5t440.5 -85.5q204 0 341.5 29t222.5 90t131 156t66 227z" />
    <glyph glyph-name="uni0681.init" unicode="&#x681;" horiz-adv-x="1244" 
d="M706 1499l-24 -64q-18 8 -37.5 12.5t-41.5 4.5q-59 0 -97 -33.5t-38 -86.5q0 -49 32.5 -76t86.5 -27q40 0 85 14l100 31l22 -69l-454 -144l-22 71l181 52v10q-44 17 -70.5 54.5t-26.5 86.5q0 80 57.5 134.5t144.5 54.5q26 0 51.5 -7t50.5 -18zM404 798q48 0 117.5 -22
t204.5 -80q128 -56 220 -89t184 -57v-116l-487 -273q-154 -86 -283.5 -123.5t-275.5 -37.5h-84q-26 0 -26 63t26 63h104q124 0 233.5 31t254.5 106l388 205v10q-67 18 -142 45t-173 70q-108 44 -167 63t-95 19q-67 0 -113 -45t-88 -152l-6 -17l-94 31l6 17q55 154 124 221.5
t172 67.5z" />
    <glyph glyph-name="uni0681.medi" unicode="&#x681;" horiz-adv-x="1291" 
d="M706 1499l-24 -64q-18 8 -37.5 12.5t-41.5 4.5q-59 0 -97 -33.5t-38 -86.5q0 -49 32.5 -76t86.5 -27q40 0 85 14l100 31l22 -69l-454 -144l-22 71l181 52v10q-44 17 -70.5 54.5t-26.5 86.5q0 80 57.5 134.5t144.5 54.5q26 0 51.5 -7t50.5 -18zM404 798q48 0 118 -21
t204 -81q128 -56 220 -89t184 -57v-116l-245 -134v-10q74 -94 154 -129t176 -35h76v-126h-80q-118 0 -222.5 54t-196.5 190l-149 -83q-154 -86 -283.5 -123.5t-275.5 -37.5h-84q-26 0 -26 63t26 63h104q124 0 233.5 30.5t254.5 106.5l388 205v10q-125 34 -315 115
q-108 44 -167 63t-95 19q-67 0 -113 -45t-88 -152l-6 -17l-94 31l6 17q56 154 124.5 221.5t171.5 67.5z" />
    <glyph glyph-name="uni0681.fina" unicode="&#x681;" horiz-adv-x="1348" 
d="M760 1543l-24 -64q-18 8 -37.5 12.5t-41.5 4.5q-59 0 -97 -33.5t-38 -86.5q0 -49 32.5 -76t86.5 -27q40 0 85 14l100 31l22 -69l-454 -144l-22 71l181 52v10q-44 17 -70.5 54.5t-26.5 86.5q0 80 57.5 134.5t144.5 54.5q26 0 51.5 -7t50.5 -18zM451 807q53 0 126.5 -22.5
t194.5 -77.5q142 -63 234.5 -97.5t178.5 -57.5l-11 -150q-69 -9 -121 -17.5t-93 -19.5v-10q52 -121 130.5 -175t201.5 -54h56v-126h-50q-157 0 -260 82.5t-162 255.5q-193 -51 -338.5 -139t-227 -198t-81.5 -229q0 -105 65 -183.5t183.5 -121.5t278.5 -43q242 0 443 89
l57 -112q-243 -107 -502 -107q-195 0 -340 58t-225 163t-80 246q0 168 116 313.5t324 250.5t484 151v10q-63 17 -137 43.5t-183 72.5q-109 45 -168 63.5t-95 18.5q-67 0 -113 -45t-87 -152l-7 -17l-94 31l7 18q53 153 122 220.5t173 67.5z" />
    <glyph glyph-name="uni0682.init" unicode="&#x682;" horiz-adv-x="1244" 
d="M449 1537l119 119l120 -119l-120 -120zM449 1187l119 120l120 -120l-120 -119zM404 798q48 0 117.5 -22t204.5 -80q128 -56 220 -89t184 -57v-116l-487 -273q-154 -86 -283.5 -123.5t-275.5 -37.5h-84q-26 0 -26 63t26 63h104q124 0 233.5 31t254.5 106l388 205v10
q-67 18 -142 45t-173 70q-108 44 -167 63t-95 19q-67 0 -113 -45t-88 -152l-6 -17l-94 31l6 17q55 154 124 221.5t172 67.5z" />
    <glyph glyph-name="uni0682.medi" unicode="&#x682;" horiz-adv-x="1291" 
d="M449 1537l119 119l120 -119l-120 -120zM449 1187l119 120l120 -120l-120 -119zM404 798q48 0 118 -21t204 -81q128 -56 220 -89t184 -57v-116l-245 -134v-10q74 -94 154 -129t176 -35h76v-126h-80q-118 0 -222.5 54t-196.5 190l-149 -83q-154 -86 -283.5 -123.5
t-275.5 -37.5h-84q-26 0 -26 63t26 63h104q124 0 233.5 30.5t254.5 106.5l388 205v10q-125 34 -315 115q-108 44 -167 63t-95 19q-67 0 -113 -45t-88 -152l-6 -17l-94 31l6 17q56 154 124.5 221.5t171.5 67.5z" />
    <glyph glyph-name="uni0682.fina" unicode="&#x682;" horiz-adv-x="1348" 
d="M504 1584l119 119l120 -119l-120 -120zM504 1234l119 120l120 -120l-120 -119zM451 807q53 0 126.5 -22.5t194.5 -77.5q142 -63 234.5 -97.5t178.5 -57.5l-11 -150q-69 -9 -121 -17.5t-93 -19.5v-10q52 -121 130.5 -175t201.5 -54h56v-126h-50q-157 0 -260 82.5
t-162 255.5q-193 -51 -338.5 -139t-227 -198t-81.5 -229q0 -105 65 -183.5t183.5 -121.5t278.5 -43q242 0 443 89l57 -112q-243 -107 -502 -107q-195 0 -340 58t-225 163t-80 246q0 168 116 313.5t324 250.5t484 151v10q-63 17 -137 43.5t-183 72.5q-109 45 -168 63.5
t-95 18.5q-67 0 -113 -45t-87 -152l-7 -17l-94 31l7 18q53 153 122 220.5t173 67.5z" />
    <glyph glyph-name="uni0685.init" unicode="&#x685;" horiz-adv-x="1244" 
d="M507 1458l119 119l120 -119l-120 -120zM681 1155l120 120l119 -120l-119 -119zM333 1155l119 120l120 -120l-120 -119zM404 798q48 0 117.5 -22t204.5 -80q128 -56 220 -89t184 -57v-116l-487 -273q-154 -86 -283.5 -123.5t-275.5 -37.5h-84q-26 0 -26 63t26 63h104
q124 0 233.5 31t254.5 106l388 205v10q-67 18 -142 45t-173 70q-108 44 -167 63t-95 19q-67 0 -113 -45t-88 -152l-6 -17l-94 31l6 17q55 154 124 221.5t172 67.5z" />
    <glyph glyph-name="uni0685.medi" unicode="&#x685;" horiz-adv-x="1291" 
d="M507 1458l119 119l120 -119l-120 -120zM681 1155l120 120l119 -120l-119 -119zM333 1155l119 120l120 -120l-120 -119zM404 798q48 0 118 -21t204 -81q128 -56 220 -89t184 -57v-116l-245 -134v-10q74 -94 154 -129t176 -35h76v-126h-80q-118 0 -222.5 54t-196.5 190
l-149 -83q-154 -86 -283.5 -123.5t-275.5 -37.5h-84q-26 0 -26 63t26 63h104q124 0 233.5 30.5t254.5 106.5l388 205v10q-125 34 -315 115q-108 44 -167 63t-95 19q-67 0 -113 -45t-88 -152l-6 -17l-94 31l6 17q56 154 124.5 221.5t171.5 67.5z" />
    <glyph glyph-name="uni0685.fina" unicode="&#x685;" horiz-adv-x="1348" 
d="M562 1501l119 119l120 -119l-120 -120zM736 1198l120 120l119 -120l-119 -119zM388 1198l119 120l120 -120l-120 -119zM451 807q53 0 126.5 -22.5t194.5 -77.5q142 -63 234.5 -97.5t178.5 -57.5l-11 -150q-69 -9 -121 -17.5t-93 -19.5v-10q52 -121 130.5 -175t201.5 -54
h56v-126h-50q-157 0 -260 82.5t-162 255.5q-193 -51 -338.5 -139t-227 -198t-81.5 -229q0 -105 65 -183.5t183.5 -121.5t278.5 -43q242 0 443 89l57 -112q-243 -107 -502 -107q-195 0 -340 58t-225 163t-80 246q0 168 116 313.5t324 250.5t484 151v10q-63 17 -137 43.5
t-183 72.5q-109 45 -168 63.5t-95 18.5q-67 0 -113 -45t-87 -152l-7 -17l-94 31l7 18q53 153 122 220.5t173 67.5z" />
    <glyph glyph-name="uni0689.fina" unicode="&#x689;" horiz-adv-x="1278" 
d="M487 49q77 0 123 -46t46 -123q0 -76 -46 -122t-123 -46q-76 0 -122.5 45.5t-46.5 122.5t46.5 123t122.5 46zM487 -10q-104 0 -104 -101q0 -102 104 -102t104 102q0 101 -104 101zM697 961l273 -636q50 -117 116 -158t175 -41h17v-126h-17q-129 0 -222 51t-138 171h-10
q-50 -112 -163 -172t-244 -60q-95 0 -191 34.5t-181 106.5l65 101q72 -59 151.5 -87t155.5 -28q108 0 203 50t153 144l-262 593z" />
    <glyph glyph-name="uni068A.fina" unicode="&#x68a;" horiz-adv-x="1278" 
d="M365 -364l119 120l120 -120l-120 -119zM697 961l273 -636q50 -117 116 -158t175 -41h17v-126h-17q-129 0 -222 51t-138 171h-10q-50 -112 -163 -172t-244 -60q-95 0 -191 34.5t-181 106.5l65 101q72 -59 151.5 -87t155.5 -28q108 0 203 50t153 144l-262 593z" />
    <glyph glyph-name="uni068B.fina" unicode="&#x68b;" horiz-adv-x="1278" 
d="M463 1306v422h69v-323h10q68 73 121 108.5t106 35.5q62 0 101 -40.5t39 -102.5q0 -171 -256 -171h-326v71h136zM521 1306h132q98 0 144 22t46 72q0 36 -23.5 57.5t-61.5 21.5q-51 0 -101.5 -38.5t-135.5 -134.5zM697 961l273 -636q50 -117 116 -158t175 -41h17v-126h-17
q-129 0 -222 51t-138 171h-10q-50 -112 -163 -172t-244 -60q-95 0 -191 34.5t-181 106.5l65 101q72 -59 151.5 -87t155.5 -28q108 0 203 50t153 144l-262 593zM365 -364l119 120l120 -120l-120 -119z" />
    <glyph glyph-name="uni068F.fina" unicode="&#x68f;" horiz-adv-x="1278" 
d="M686 1661l120 120l119 -120l-119 -119zM338 1661l119 120l120 -120l-120 -119zM513 1359l119 120l120 -120l-120 -119zM697 961l273 -636q50 -117 116 -158t175 -41h17v-126h-17q-129 0 -222 51t-138 171h-10q-50 -112 -163 -172t-244 -60q-95 0 -191 34.5t-181 106.5
l65 101q72 -59 151.5 -87t155.5 -28q108 0 203 50t153 144l-262 593z" />
    <glyph glyph-name="uni0690.fina" unicode="&#x690;" horiz-adv-x="1278" 
d="M686 1706l120 119l119 -119l-119 -120zM338 1706l119 119l120 -119l-120 -120zM338 1357l119 120l120 -120l-120 -119zM686 1357l120 120l119 -120l-119 -119zM697 961l273 -636q50 -117 116 -158t175 -41h17v-126h-17q-129 0 -222 51t-138 171h-10q-50 -112 -163 -172
t-244 -60q-95 0 -191 34.5t-181 106.5l65 101q72 -59 151.5 -87t155.5 -28q108 0 203 50t153 144l-262 593z" />
    <glyph glyph-name="uni0692.fina" unicode="&#x692;" horiz-adv-x="757" 
d="M324 928h-60l-213 266l59 48l184 -234l184 234l59 -48zM218 562l115 42l63 -192q33 -103 76 -166t110.5 -91.5t173.5 -28.5h1v-126h-1q-105 0 -187.5 37t-126.5 104l-10 -4q19 -169 -35 -292t-184 -214.5t-340 -168.5l-52 115q273 98 391 210t118 272q0 89 -29 219
t-83 284z" />
    <glyph glyph-name="uni0693.fina" unicode="&#x693;" horiz-adv-x="757" 
d="M309 -299q77 0 123 -46t46 -123q0 -76 -46 -122t-123 -46q-76 0 -122.5 45.5t-46.5 122.5t46.5 123t122.5 46zM309 -358q-104 0 -104 -101q0 -102 104 -102t104 102q0 101 -104 101zM218 562l115 42l63 -192q33 -103 76 -166t110.5 -91.5t173.5 -28.5h1v-126h-1
q-105 0 -187.5 37t-126.5 104l-10 -4q19 -169 -35 -292t-184 -214.5t-340 -168.5l-52 115q273 98 391 210t118 272q0 89 -29 219t-83 284z" />
    <glyph glyph-name="uni0694.fina" unicode="&#x694;" horiz-adv-x="757" 
d="M253 -685l119 120l120 -120l-120 -119zM218 562l115 42l63 -192q33 -103 76 -166t110.5 -91.5t173.5 -28.5h1v-126h-1q-105 0 -187.5 37t-126.5 104l-10 -4q19 -169 -35 -292t-184 -214.5t-340 -168.5l-52 115q273 98 391 210t118 272q0 89 -29 219t-83 284z" />
    <glyph glyph-name="uni0695.fina" unicode="&#x695;" horiz-adv-x="757" 
d="M215 -1066h-60l-213 266l59 48l184 -234l184 234l59 -48zM218 562l115 42l63 -192q33 -103 76 -166t110.5 -91.5t173.5 -28.5h1v-126h-1q-105 0 -187.5 37t-126.5 104l-10 -4q19 -169 -35 -292t-184 -214.5t-340 -168.5l-52 115q273 98 391 210t118 272q0 89 -29 219
t-83 284z" />
    <glyph glyph-name="uni0696.fina" unicode="&#x696;" horiz-adv-x="995" 
d="M48 72l119 120l120 -120l-120 -119zM492 -685l119 120l120 -120l-120 -119zM457 562l115 42l63 -192q33 -103 76 -166t110.5 -91.5t173.5 -28.5h1v-126h-1q-105 0 -187.5 37t-126.5 104l-10 -4q19 -169 -35 -292t-184 -214.5t-340 -168.5l-52 115q273 98 391 210t118 272
q0 89 -29 219t-83 284z" />
    <glyph glyph-name="uni0697.fina" unicode="&#x697;" horiz-adv-x="757" 
d="M-1 1031l119 120l120 -120l-120 -119zM347 1031l120 120l119 -120l-119 -119zM218 562l115 42l63 -192q33 -103 76 -166t110.5 -91.5t173.5 -28.5h1v-126h-1q-105 0 -187.5 37t-126.5 104l-10 -4q19 -169 -35 -292t-184 -214.5t-340 -168.5l-52 115q273 98 391 210
t118 272q0 89 -29 219t-83 284z" />
    <glyph glyph-name="uni0699.fina" unicode="&#x699;" horiz-adv-x="757" 
d="M347 1321l120 119l119 -119l-119 -120zM-1 1321l119 119l120 -119l-120 -120zM-1 972l119 120l120 -120l-120 -119zM347 972l120 120l119 -120l-119 -119zM218 562l115 42l63 -192q33 -103 76 -166t110.5 -91.5t173.5 -28.5h1v-126h-1q-105 0 -187.5 37t-126.5 104
l-10 -4q19 -169 -35 -292t-184 -214.5t-340 -168.5l-52 115q273 98 391 210t118 272q0 89 -29 219t-83 284z" />
    <glyph glyph-name="uni069A.init" unicode="&#x69a;" horiz-adv-x="1658" 
d="M850 -365l119 120l120 -120l-120 -119zM844 1086l119 120l120 -120l-120 -119zM703 126q98 0 147 59t62 189l17 172l113 -11l-13 -160q-12 -127 42.5 -188t160.5 -61q191 0 191 228q0 34 -4.5 84t-11 100.5t-13.5 86.5l119 29q12 -61 22 -147t10 -151q0 -356 -300 -356
q-115 0 -183 54.5t-88 150.5h-10q-52 -205 -267 -205q-119 0 -187 61t-85 173h-10q-30 -105 -126.5 -169.5t-233.5 -64.5h-55q-26 0 -26 64q0 62 26 62h55q156 0 231 78t95 253l14 135l123 -11l-19 -186q-14 -129 39 -199t165 -70z" />
    <glyph glyph-name="uni069A.medi" unicode="&#x69a;" horiz-adv-x="1894" 
d="M850 -365l119 120l120 -120l-120 -119zM844 1086l119 120l120 -120l-120 -119zM1497 264q-25 -264 -259 -264q-114 0 -179 54.5t-85 150.5h-10q-53 -205 -266 -205q-121 0 -188 61t-85 173h-10q-30 -105 -126.5 -169.5t-233.5 -64.5h-55q-26 0 -26 64q0 62 26 62h55
q156 0 230.5 78t95.5 253l14 135l123 -11l-19 -186q-14 -129 39 -199t165 -70q98 0 147 59t62 189l17 172l113 -11l-13 -160q-12 -127 41.5 -188t154.5 -61q192 0 192 224q0 47 -9 114.5t-24 140.5l120 24l26 -170q28 -182 110.5 -257.5t251.5 -75.5h2v-126h-2
q-166 0 -262.5 69.5t-122.5 194.5h-10z" />
    <glyph glyph-name="uni069A.fina" unicode="&#x69a;" horiz-adv-x="2748" 
d="M1688 -365l119 120l120 -120l-120 -119zM1700 1086l119 120l120 -120l-120 -119zM2352 264q-27 -264 -255 -264q-223 0 -268 205h-10q-25 -101 -93 -153t-168 -52q-64 0 -111.5 22.5t-82.5 63.5l-6 -5q16 -196 -60 -321.5t-220.5 -186t-335.5 -60.5q-295 0 -459 132.5
t-164 429.5q0 79 13 183.5t44 255.5l117 -25q-31 -154 -43 -248.5t-12 -160.5q0 -241 129 -341t372 -100q242 0 380 87.5t138 301.5q0 93 -33 210t-113 307l114 52l113 -308q29 -78 81.5 -120.5t142.5 -42.5q97 0 146.5 58.5t61.5 190.5l15 171l113 -11l-13 -160
q-12 -128 43 -188.5t160 -60.5q183 0 183 224q0 47 -9 114.5t-23 140.5l119 24l26 -170q29 -184 110.5 -258.5t251.5 -74.5h2v-126h-2q-163 0 -260.5 68t-123.5 196h-10z" />
    <glyph glyph-name="uni069B.init" unicode="&#x69b;" horiz-adv-x="1658" 
d="M1021 -364l120 120l119 -120l-119 -119zM673 -364l119 120l120 -120l-120 -119zM848 -666l119 120l120 -120l-120 -119zM703 126q98 0 147 59t62 189l17 172l113 -11l-13 -160q-12 -127 42.5 -188t160.5 -61q191 0 191 228q0 34 -4.5 84t-11 100.5t-13.5 86.5l119 29
q12 -61 22 -147t10 -151q0 -356 -300 -356q-115 0 -183 54.5t-88 150.5h-10q-52 -205 -267 -205q-119 0 -187 61t-85 173h-10q-30 -105 -126.5 -169.5t-233.5 -64.5h-55q-26 0 -26 64q0 62 26 62h55q156 0 231 78t95 253l14 135l123 -11l-19 -186q-14 -129 39 -199t165 -70z
" />
    <glyph glyph-name="uni069B.medi" unicode="&#x69b;" horiz-adv-x="1894" 
d="M1021 -364l120 120l119 -120l-119 -119zM673 -364l119 120l120 -120l-120 -119zM848 -666l119 120l120 -120l-120 -119zM1497 264q-25 -264 -259 -264q-114 0 -179 54.5t-85 150.5h-10q-53 -205 -266 -205q-121 0 -188 61t-85 173h-10q-30 -105 -126.5 -169.5
t-233.5 -64.5h-55q-26 0 -26 64q0 62 26 62h55q156 0 230.5 78t95.5 253l14 135l123 -11l-19 -186q-14 -129 39 -199t165 -70q98 0 147 59t62 189l17 172l113 -11l-13 -160q-12 -127 41.5 -188t154.5 -61q192 0 192 224q0 47 -9 114.5t-24 140.5l120 24l26 -170
q28 -182 110.5 -257.5t251.5 -75.5h2v-126h-2q-166 0 -262.5 69.5t-122.5 194.5h-10z" />
    <glyph glyph-name="uni069B.fina" unicode="&#x69b;" horiz-adv-x="2748" 
d="M1891 -365l120 120l119 -120l-119 -119zM1543 -365l119 120l120 -120l-120 -119zM1718 -667l119 120l120 -120l-120 -119zM2352 264q-27 -264 -255 -264q-223 0 -268 205h-10q-25 -101 -93 -153t-168 -52q-64 0 -111.5 22.5t-82.5 63.5l-6 -5q16 -196 -60 -321.5
t-220.5 -186t-335.5 -60.5q-295 0 -459 132.5t-164 429.5q0 79 13 183.5t44 255.5l117 -25q-31 -154 -43 -248.5t-12 -160.5q0 -241 129 -341t372 -100q242 0 380 87.5t138 301.5q0 93 -33 210t-113 307l114 52l113 -308q29 -78 81.5 -120.5t142.5 -42.5q97 0 146.5 58.5
t61.5 190.5l15 171l113 -11l-13 -160q-12 -128 43 -188.5t160 -60.5q183 0 183 224q0 47 -9 114.5t-23 140.5l119 24l26 -170q29 -184 110.5 -258.5t251.5 -74.5h2v-126h-2q-163 0 -260.5 68t-123.5 196h-10z" />
    <glyph glyph-name="uni069C.init" unicode="&#x69c;" horiz-adv-x="1658" 
d="M1021 -364l120 120l119 -120l-119 -119zM673 -364l119 120l120 -120l-120 -119zM848 -666l119 120l120 -120l-120 -119zM839 1241l119 119l120 -119l-120 -120zM1013 938l120 120l119 -120l-119 -119zM665 938l119 120l120 -120l-120 -119zM703 126q98 0 147 59t62 189
l17 172l113 -11l-13 -160q-12 -127 42.5 -188t160.5 -61q191 0 191 228q0 34 -4.5 84t-11 100.5t-13.5 86.5l119 29q12 -61 22 -147t10 -151q0 -356 -300 -356q-115 0 -183 54.5t-88 150.5h-10q-52 -205 -267 -205q-119 0 -187 61t-85 173h-10q-30 -105 -126.5 -169.5
t-233.5 -64.5h-55q-26 0 -26 64q0 62 26 62h55q156 0 231 78t95 253l14 135l123 -11l-19 -186q-14 -129 39 -199t165 -70z" />
    <glyph glyph-name="uni069C.medi" unicode="&#x69c;" horiz-adv-x="1894" 
d="M1021 -364l120 120l119 -120l-119 -119zM673 -364l119 120l120 -120l-120 -119zM848 -666l119 120l120 -120l-120 -119zM839 1241l119 119l120 -119l-120 -120zM1013 938l120 120l119 -120l-119 -119zM665 938l119 120l120 -120l-120 -119zM1497 264q-25 -264 -259 -264
q-114 0 -179 54.5t-85 150.5h-10q-53 -205 -266 -205q-121 0 -188 61t-85 173h-10q-30 -105 -126.5 -169.5t-233.5 -64.5h-55q-26 0 -26 64q0 62 26 62h55q156 0 230.5 78t95.5 253l14 135l123 -11l-19 -186q-14 -129 39 -199t165 -70q98 0 147 59t62 189l17 172l113 -11
l-13 -160q-12 -127 41.5 -188t154.5 -61q192 0 192 224q0 47 -9 114.5t-24 140.5l120 24l26 -170q28 -182 110.5 -257.5t251.5 -75.5h2v-126h-2q-166 0 -262.5 69.5t-122.5 194.5h-10z" />
    <glyph glyph-name="uni069C.fina" unicode="&#x69c;" horiz-adv-x="2748" 
d="M1891 -365l120 120l119 -120l-119 -119zM1543 -365l119 120l120 -120l-120 -119zM1718 -667l119 120l120 -120l-120 -119zM1677 1241l119 119l120 -119l-120 -120zM1851 938l120 120l119 -120l-119 -119zM1503 938l119 120l120 -120l-120 -119zM2352 264
q-27 -264 -255 -264q-223 0 -268 205h-10q-25 -101 -93 -153t-168 -52q-64 0 -111.5 22.5t-82.5 63.5l-6 -5q16 -196 -60 -321.5t-220.5 -186t-335.5 -60.5q-295 0 -459 132.5t-164 429.5q0 79 13 183.5t44 255.5l117 -25q-31 -154 -43 -248.5t-12 -160.5q0 -241 129 -341
t372 -100q242 0 380 87.5t138 301.5q0 93 -33 210t-113 307l114 52l113 -308q29 -78 81.5 -120.5t142.5 -42.5q97 0 146.5 58.5t61.5 190.5l15 171l113 -11l-13 -160q-12 -128 43 -188.5t160 -60.5q183 0 183 224q0 47 -9 114.5t-23 140.5l119 24l26 -170
q29 -184 110.5 -258.5t251.5 -74.5h2v-126h-2q-163 0 -260.5 68t-123.5 196h-10z" />
    <glyph glyph-name="uni069D.init" unicode="&#x69d;" horiz-adv-x="1623" 
d="M665 -365l119 120l120 -120l-120 -119zM1013 -365l120 120l119 -120l-119 -119zM374 243q-28 -121 -126.5 -182t-238.5 -61h-9q-26 0 -26 63t26 63h9q126 0 188.5 40t83 113t20.5 171v144h122v-120q1 -85 14 -134.5t37 -76.5t56 -48q127 190 240.5 301t215 159.5
t190.5 48.5q105 0 179.5 -45.5t114.5 -123.5t40 -175q0 -141 -81.5 -224.5t-215.5 -119.5t-293 -36q-219 0 -354 57t-184 186h-8zM1165 599q-69 0 -152 -38.5t-179.5 -132.5t-207.5 -259q60 -24 136.5 -33.5t163.5 -9.5t170 10t150.5 37.5t107 77.5t39.5 130
q0 95 -60.5 156.5t-167.5 61.5z" />
    <glyph glyph-name="uni069D.medi" unicode="&#x69d;" horiz-adv-x="1696" 
d="M665 -365l119 120l120 -120l-120 -119zM1013 -365l120 120l119 -120l-119 -119zM301 594h122v-120q1 -85 14 -134.5t37 -76.5t56 -48q127 190 240.5 301t215 159.5t190.5 48.5q105 0 179.5 -45.5t114.5 -123.5t40 -175q0 -115 -64 -190q85 -64 249 -64h1v-126h-1
q-209 0 -322 107q-82 -59 -200.5 -83t-252.5 -24q-218 0 -353.5 57t-184.5 186h-8q-28 -121 -126.5 -182t-238.5 -61h-9q-26 0 -26 63t26 63h9q126 0 188.5 40t83 113t20.5 171v144zM1165 599q-69 0 -152 -38.5t-179.5 -132.5t-207.5 -259q60 -24 136.5 -33.5t163.5 -9.5
t170 10t150.5 37.5t107 77.5t39.5 130q0 95 -60.5 156.5t-167.5 61.5z" />
    <glyph glyph-name="uni069D.fina" unicode="&#x69d;" horiz-adv-x="2500" 
d="M1529 -365l119 120l120 -120l-120 -119zM1877 -365l120 120l119 -120l-119 -119zM1982 724q149 0 240.5 -95t91.5 -249q0 -114 -66 -187q86 -67 251 -67h1v-126h-1q-206 0 -319 107q-148 -107 -450 -107q-238 0 -387 72q2 -271 -156.5 -415t-460.5 -144q-607 0 -607 562
q0 155 57 439l117 -25q-29 -149 -42 -244.5t-13 -164.5q0 -228 117.5 -334.5t367.5 -106.5q254 0 378 103.5t124 316.5q0 86 -31 197t-108 289l115 53q56 -130 85 -222.5t42 -170.5q167 254 334 386.5t320 132.5zM1970 599q-124 0 -260.5 -109t-279.5 -321q107 -43 301 -43
q466 0 466 255q0 98 -62.5 158t-164.5 60z" />
    <glyph glyph-name="uni069E.init" unicode="&#x69e;" horiz-adv-x="1623" 
d="M1051 1389l119 119l120 -119l-120 -120zM1225 1086l120 120l119 -120l-119 -119zM877 1086l119 120l120 -120l-120 -119zM374 243q-28 -121 -126.5 -182t-238.5 -61h-9q-26 0 -26 63t26 63h9q126 0 188.5 40t83 113t20.5 171v144h122v-120q1 -85 14 -134.5t37 -76.5
t56 -48q127 190 240.5 301t215 159.5t190.5 48.5q105 0 179.5 -45.5t114.5 -123.5t40 -175q0 -141 -81.5 -224.5t-215.5 -119.5t-293 -36q-219 0 -354 57t-184 186h-8zM1165 599q-69 0 -152 -38.5t-179.5 -132.5t-207.5 -259q60 -24 136.5 -33.5t163.5 -9.5t170 10
t150.5 37.5t107 77.5t39.5 130q0 95 -60.5 156.5t-167.5 61.5z" />
    <glyph glyph-name="uni069E.medi" unicode="&#x69e;" horiz-adv-x="1696" 
d="M1051 1389l119 119l120 -119l-120 -120zM1225 1086l120 120l119 -120l-119 -119zM877 1086l119 120l120 -120l-120 -119zM301 594h122v-120q1 -85 14 -134.5t37 -76.5t56 -48q127 190 240.5 301t215 159.5t190.5 48.5q105 0 179.5 -45.5t114.5 -123.5t40 -175
q0 -115 -64 -190q85 -64 249 -64h1v-126h-1q-209 0 -322 107q-82 -59 -200.5 -83t-252.5 -24q-218 0 -353.5 57t-184.5 186h-8q-28 -121 -126.5 -182t-238.5 -61h-9q-26 0 -26 63t26 63h9q126 0 188.5 40t83 113t20.5 171v144zM1165 599q-69 0 -152 -38.5t-179.5 -132.5
t-207.5 -259q60 -24 136.5 -33.5t163.5 -9.5t170 10t150.5 37.5t107 77.5t39.5 130q0 95 -60.5 156.5t-167.5 61.5z" />
    <glyph glyph-name="uni069E.fina" unicode="&#x69e;" horiz-adv-x="2500" 
d="M1860 1389l119 119l120 -119l-120 -120zM2034 1086l120 120l119 -120l-119 -119zM1686 1086l119 120l120 -120l-120 -119zM1982 724q149 0 240.5 -95t91.5 -249q0 -114 -66 -187q86 -67 251 -67h1v-126h-1q-206 0 -319 107q-148 -107 -450 -107q-238 0 -387 72
q2 -271 -156.5 -415t-460.5 -144q-607 0 -607 562q0 155 57 439l117 -25q-29 -149 -42 -244.5t-13 -164.5q0 -228 117.5 -334.5t367.5 -106.5q254 0 378 103.5t124 316.5q0 86 -31 197t-108 289l115 53q56 -130 85 -222.5t42 -170.5q167 254 334 386.5t320 132.5zM1970 599
q-124 0 -260.5 -109t-279.5 -321q107 -43 301 -43q466 0 466 255q0 98 -62.5 158t-164.5 60z" />
    <glyph glyph-name="uni069F.fina" unicode="&#x69f;" horiz-adv-x="1695" 
d="M1040 1389l119 119l120 -119l-120 -120zM1214 1086l120 120l119 -120l-119 -119zM866 1086l119 120l120 -120l-120 -119zM421 126q17 27 33.5 52.5t32.5 50.5v1070h121v-688q0 -73 -5.5 -137t-24.5 -133l9 -6q295 389 564 389q159 0 246 -97t87 -242q0 -46 -10 -89
t-36 -81q44 -42 106 -65.5t150 -23.5h1v-126h-1q-113 0 -187.5 36.5t-130.5 92.5q-67 -59 -186 -94t-308 -35h-768v126h307zM559 126h342q86 0 169 9.5t150 36t107 77t40 131.5q0 95 -61.5 157t-167.5 62q-68 0 -155 -39t-192.5 -141.5t-231.5 -292.5z" />
    <glyph glyph-name="uni06A0.init" unicode="&#x6a0;" horiz-adv-x="1090" 
d="M435 1568l119 119l120 -119l-120 -120zM609 1265l120 120l119 -120l-119 -119zM261 1265l119 120l120 -120l-120 -119zM259 435q0 -124 88.5 -189.5t254.5 -65.5q42 0 103 5t143 17l93 14l15 -125l-141 -18q-146 -22 -291.5 -38.5t-270.5 -25.5t-211 -9h-42q-26 0 -26 63
t26 63h39q78 0 153 3.5t148 10.5v13q-93 30 -146.5 107.5t-53.5 183.5q0 117 55 209t149.5 145t214.5 53q175 0 313 -110l-61 -96q-121 82 -251 82q-86 0 -154.5 -38t-107.5 -103.5t-39 -150.5z" />
    <glyph glyph-name="uni06A0.medi" unicode="&#x6a0;" horiz-adv-x="1187" 
d="M502 1515l119 119l120 -119l-120 -120zM676 1212l120 120l119 -120l-119 -119zM328 1212l119 120l120 -120l-120 -119zM613 829q101 0 190 -30t145 -92t56 -160q0 -101 -77.5 -183t-196.5 -150v-10q62 -58 131 -68t145 -10h181v-126h-199q-109 0 -193 23t-173 114
q-97 -62 -207 -99.5t-250 -37.5h-165q-26 0 -26 63t26 63h155q116 0 206 24.5t167 61.5v10l-373 355v103q102 70 212 109.5t246 39.5zM620 705q-189 0 -335 -89v-5l346 -350q116 62 187.5 132.5t71.5 147.5q0 60 -41.5 96t-104 52t-124.5 16z" />
    <glyph glyph-name="uni06A0.fina" unicode="&#x6a0;" horiz-adv-x="1195" 
d="M534 1574l119 119l120 -119l-120 -120zM708 1271l120 120l119 -120l-119 -119zM360 1271l119 120l120 -120l-120 -119zM1035 547q0 -177 -272 -332v-10q47 -44 107 -61.5t163 -17.5h162v-126h-159q-134 0 -216 30t-162 109q-219 -111 -320 -215t-101 -240
q0 -145 136.5 -229t371.5 -84q81 0 166.5 9.5t174.5 27.5l27 -125q-206 -43 -373 -43q-188 0 -327.5 53t-216.5 150t-77 227q0 158 110 288.5t339 245.5v10l-381 363v103q219 149 457 149q178 0 284.5 -77t106.5 -205zM922 541q0 73 -75 118.5t-195 45.5q-190 0 -336 -89v-5
l347 -350q259 139 259 280z" />
    <glyph glyph-name="uni06A1.fina" unicode="&#x6a1;" horiz-adv-x="1940" 
d="M1437 87q-112 -47 -249.5 -67t-283.5 -20q-177 0 -322 15.5t-249.5 58t-161.5 123t-57 210.5q0 84 21 172t48 168l109 -38q-23 -70 -41.5 -146t-18.5 -148q0 -118 75.5 -180t225 -85t371.5 -24q103 0 209 9t197 30l1 9q-96 53 -158.5 138t-62.5 209q0 173 99 270t249 97
q99 0 178 -44t125 -126t46 -196q0 -124 -66 -210.5t-163 -139.5l2 -10q56 -18 120 -27t130 -9h130v-126h-148q-106 0 -188 22t-167 65zM1438 207q101 47 164.5 121.5t63.5 190.5q0 112 -64 179.5t-164 67.5q-101 0 -164.5 -67t-63.5 -180q0 -114 64 -189.5t164 -122.5z" />
    <glyph glyph-name="uni06A2.init" unicode="&#x6a2;" horiz-adv-x="960" 
d="M349 -365l119 120l120 -120l-120 -119zM0 126h349q207 0 295 71t88 235q-145 -37 -276 -37q-317 0 -317 269q0 133 42 234t116 158t171 57q116 0 200.5 -82t130.5 -232t46 -355q0 -231 -124.5 -337.5t-393.5 -106.5h-327q-26 0 -26 63t26 63zM719 546q-12 209 -79.5 326
t-176.5 117q-94 0 -155.5 -88t-61.5 -223q0 -167 214 -167q110 0 259 35z" />
    <glyph glyph-name="uni06A2.medi" unicode="&#x6a2;" horiz-adv-x="980" 
d="M368 -365l119 120l120 -120l-120 -119zM141 521q0 173 99.5 270t249.5 97q98 0 177 -44t125 -126t46 -196q0 -124 -65.5 -210.5t-161.5 -139.5l1 -10q108 -36 241 -36h127v-126h-145q-103 0 -183.5 22t-163.5 65q-82 -43 -163.5 -65t-186.5 -22h-138q-26 0 -26 63t26 63
h122q131 0 248 36l1 10q-97 53 -163.5 139t-66.5 210zM489 203q101 47 164.5 123.5t63.5 192.5q0 112 -63.5 179.5t-163.5 67.5q-101 0 -165 -67t-64 -180q0 -115 64 -191.5t164 -124.5z" />
    <glyph glyph-name="uni06A2.fina" unicode="&#x6a2;" horiz-adv-x="1940" 
d="M761 -365l119 120l120 -120l-120 -119zM1437 87q-112 -47 -249.5 -67t-283.5 -20q-177 0 -322 15.5t-249.5 58t-161.5 123t-57 210.5q0 84 21 172t48 168l109 -38q-23 -70 -41.5 -146t-18.5 -148q0 -118 75.5 -180t225 -85t371.5 -24q103 0 209 9t197 30l1 9
q-96 53 -158.5 138t-62.5 209q0 173 99 270t249 97q99 0 178 -44t125 -126t46 -196q0 -124 -66 -210.5t-163 -139.5l2 -10q56 -18 120 -27t130 -9h130v-126h-148q-106 0 -188 22t-167 65zM1438 207q101 47 164.5 121.5t63.5 190.5q0 112 -64 179.5t-164 67.5
q-101 0 -164.5 -67t-63.5 -180q0 -114 64 -189.5t164 -122.5z" />
    <glyph glyph-name="uni06A3.init" unicode="&#x6a3;" horiz-adv-x="960" 
d="M344 1511l119 120l120 -120l-120 -119zM349 -365l119 120l120 -120l-120 -119zM0 126h349q207 0 295 71t88 235q-145 -37 -276 -37q-317 0 -317 269q0 133 42 234t116 158t171 57q116 0 200.5 -82t130.5 -232t46 -355q0 -231 -124.5 -337.5t-393.5 -106.5h-327
q-26 0 -26 63t26 63zM719 546q-12 209 -79.5 326t-176.5 117q-94 0 -155.5 -88t-61.5 -223q0 -167 214 -167q110 0 259 35z" />
    <glyph glyph-name="uni06A3.medi" unicode="&#x6a3;" horiz-adv-x="980" 
d="M370 1296l119 120l120 -120l-120 -119zM368 -365l119 120l120 -120l-120 -119zM141 521q0 173 99.5 270t249.5 97q98 0 177 -44t125 -126t46 -196q0 -124 -65.5 -210.5t-161.5 -139.5l1 -10q108 -36 241 -36h127v-126h-145q-103 0 -183.5 22t-163.5 65
q-82 -43 -163.5 -65t-186.5 -22h-138q-26 0 -26 63t26 63h122q131 0 248 36l1 10q-97 53 -163.5 139t-66.5 210zM489 203q101 47 164.5 123.5t63.5 192.5q0 112 -63.5 179.5t-163.5 67.5q-101 0 -165 -67t-64 -180q0 -115 64 -191.5t164 -124.5z" />
    <glyph glyph-name="uni06A3.fina" unicode="&#x6a3;" horiz-adv-x="1940" 
d="M1319 1300l119 120l120 -120l-120 -119zM761 -365l119 120l120 -120l-120 -119zM1437 87q-112 -47 -249.5 -67t-283.5 -20q-177 0 -322 15.5t-249.5 58t-161.5 123t-57 210.5q0 84 21 172t48 168l109 -38q-23 -70 -41.5 -146t-18.5 -148q0 -118 75.5 -180t225 -85
t371.5 -24q103 0 209 9t197 30l1 9q-96 53 -158.5 138t-62.5 209q0 173 99 270t249 97q99 0 178 -44t125 -126t46 -196q0 -124 -66 -210.5t-163 -139.5l2 -10q56 -18 120 -27t130 -9h130v-126h-148q-106 0 -188 22t-167 65zM1438 207q101 47 164.5 121.5t63.5 190.5
q0 112 -64 179.5t-164 67.5q-101 0 -164.5 -67t-63.5 -180q0 -114 64 -189.5t164 -122.5z" />
    <glyph glyph-name="uni06A5.init" unicode="&#x6a5;" horiz-adv-x="960" 
d="M521 -365l120 120l119 -120l-119 -119zM173 -365l119 120l120 -120l-120 -119zM348 -667l119 120l120 -120l-120 -119zM0 126h349q207 0 295 71t88 235q-145 -37 -276 -37q-317 0 -317 269q0 133 42 234t116 158t171 57q116 0 200.5 -82t130.5 -232t46 -355
q0 -231 -124.5 -337.5t-393.5 -106.5h-327q-26 0 -26 63t26 63zM719 546q-12 209 -79.5 326t-176.5 117q-94 0 -155.5 -88t-61.5 -223q0 -167 214 -167q110 0 259 35z" />
    <glyph glyph-name="uni06A5.medi" unicode="&#x6a5;" horiz-adv-x="980" 
d="M541 -365l120 120l119 -120l-119 -119zM193 -365l119 120l120 -120l-120 -119zM368 -667l119 120l120 -120l-120 -119zM141 521q0 173 99.5 270t249.5 97q98 0 177 -44t125 -126t46 -196q0 -124 -65.5 -210.5t-161.5 -139.5l1 -10q108 -36 241 -36h127v-126h-145
q-103 0 -183.5 22t-163.5 65q-82 -43 -163.5 -65t-186.5 -22h-138q-26 0 -26 63t26 63h122q131 0 248 36l1 10q-97 53 -163.5 139t-66.5 210zM489 203q101 47 164.5 123.5t63.5 192.5q0 112 -63.5 179.5t-163.5 67.5q-101 0 -165 -67t-64 -180q0 -115 64 -191.5t164 -124.5z
" />
    <glyph glyph-name="uni06A5.fina" unicode="&#x6a5;" horiz-adv-x="1940" 
d="M933 -365l120 120l119 -120l-119 -119zM585 -365l119 120l120 -120l-120 -119zM760 -667l119 120l120 -120l-120 -119zM1437 87q-112 -47 -249.5 -67t-283.5 -20q-177 0 -322 15.5t-249.5 58t-161.5 123t-57 210.5q0 84 21 172t48 168l109 -38q-23 -70 -41.5 -146
t-18.5 -148q0 -118 75.5 -180t225 -85t371.5 -24q103 0 209 9t197 30l1 9q-96 53 -158.5 138t-62.5 209q0 173 99 270t249 97q99 0 178 -44t125 -126t46 -196q0 -124 -66 -210.5t-163 -139.5l2 -10q56 -18 120 -27t130 -9h130v-126h-148q-106 0 -188 22t-167 65zM1438 207
q101 47 164.5 121.5t63.5 190.5q0 112 -64 179.5t-164 67.5q-101 0 -164.5 -67t-63.5 -180q0 -114 64 -189.5t164 -122.5z" />
    <glyph glyph-name="uni06A7.fina" unicode="&#x6a7;" horiz-adv-x="1495" 
d="M915 1130l119 120l120 -120l-120 -119zM1035 725q99 0 167.5 -54t111.5 -142.5t65 -194t28 -208.5h88v-126h-91q-13 -268 -181 -411.5t-474 -143.5q-634 0 -634 527q0 73 12.5 180t37.5 252l119 -24q-25 -139 -36.5 -238.5t-11.5 -167.5q0 -213 131.5 -307t387.5 -94
q245 0 386 107t153 314l-5 9q-129 -3 -257 -3q-150 0 -240 67t-90 221q0 115 38 214.5t112 161t183 61.5zM1033 598q-76 0 -126 -44.5t-74 -112.5t-24 -140q0 -103 61.5 -140.5t165.5 -37.5h129t128 1q-3 72 -17 154t-43 155t-78 119t-122 46z" />
    <glyph glyph-name="uni06A8.fina" unicode="&#x6a8;" horiz-adv-x="1495" 
d="M914 1429l119 119l120 -119l-120 -120zM1088 1126l120 120l119 -120l-119 -119zM740 1126l119 120l120 -120l-120 -119zM1035 725q99 0 167.5 -54t111.5 -142.5t65 -194t28 -208.5h88v-126h-91q-13 -268 -181 -411.5t-474 -143.5q-634 0 -634 527q0 73 12.5 180t37.5 252
l119 -24q-25 -139 -36.5 -238.5t-11.5 -167.5q0 -213 131.5 -307t387.5 -94q245 0 386 107t153 314l-5 9q-129 -3 -257 -3q-150 0 -240 67t-90 221q0 115 38 214.5t112 161t183 61.5zM1033 598q-76 0 -126 -44.5t-74 -112.5t-24 -140q0 -103 61.5 -140.5t165.5 -37.5h129
t128 1q-3 72 -17 154t-43 155t-78 119t-122 46z" />
    <glyph glyph-name="uni06AA.init" unicode="&#x6aa;" horiz-adv-x="1956" 
d="M828 1187l65 -106q-197 -115 -309.5 -198t-162.5 -145t-62 -114h997q239 0 363 -45t124 -189q0 -107 -67 -196t-200.5 -141.5t-332.5 -52.5h-1243q-26 0 -26 63t26 63h1271q222 0 334 75.5t112 172.5q0 83 -90.5 103.5t-258.5 20.5h-1062l-82 107q9 84 67.5 168.5
t187.5 184.5t349 229z" />
    <glyph glyph-name="uni06AA.medi" unicode="&#x6aa;" horiz-adv-x="2197" 
d="M828 1187l65 -106q-197 -115 -309.5 -198t-162.5 -145t-62 -114h997q239 0 363 -45t124 -189q0 -80 31 -139.5t108 -92t214 -32.5h1v-126h-1q-156 0 -262.5 54t-147.5 175h-10q-55 -103 -189 -166t-346 -63h-1241q-26 0 -26 63t26 63h1271q222 0 334 75.5t112 172.5
q0 83 -90 103.5t-259 20.5h-1062l-82 107q9 84 67.5 168.5t187.5 184.5t349 229z" />
    <glyph glyph-name="uni06AA.fina" unicode="&#x6aa;" horiz-adv-x="2358" 
d="M989 1187l64 -106q-198 -115 -310 -198t-161.5 -145t-62.5 -114h997q240 0 363.5 -45t123.5 -189q0 -80 31 -139.5t108.5 -92t214.5 -32.5h1v-126h-1q-156 0 -262.5 54t-147.5 175h-10q-53 -102 -188 -165.5t-347 -63.5h-1288v126h1319q221 0 333 75.5t112 172.5
q0 83 -91 103.5t-259 20.5h-1062l-82 107q9 84 67.5 168.5t188 184.5t349.5 229z" />
    <glyph glyph-name="uni06AB.init" unicode="&#x6ab;" horiz-adv-x="821" 
d="M604 1142q77 0 123.5 -46t46.5 -123q0 -76 -46.5 -122t-123.5 -46q-76 0 -122 45.5t-46 122.5t46 123t122 46zM600 1082q-105 0 -105 -101q0 -102 105 -102q104 0 104 102q0 101 -104 101zM839 1284l21 -127q-232 -58 -401 -110.5t-293 -103.5v-9q180 -134 291 -235
t162 -185.5t51 -169.5q0 -166 -143.5 -255t-411.5 -89h-115q-26 0 -26 63t26 63h113q214 0 324.5 57.5t110.5 167.5q0 67 -53.5 141.5t-166.5 170.5t-293 225l11 133q162 72 365.5 139.5t427.5 123.5z" />
    <glyph glyph-name="uni06AB.medi" unicode="&#x6ab;" horiz-adv-x="1129" 
d="M604 1142q77 0 123.5 -46t46.5 -123q0 -76 -46.5 -122t-123.5 -46q-76 0 -122 45.5t-46 122.5t46 123t122 46zM600 1082q-105 0 -105 -101q0 -102 105 -102q104 0 104 102q0 101 -104 101zM629 337q4 -175 -124.5 -256t-389.5 -81h-115q-26 0 -26 63t26 63h113
q222 0 327.5 59t105.5 165q0 58 -49 132t-160.5 173.5t-301.5 232.5l11 133q167 74 371 141.5t422 121.5l21 -127q-222 -55 -393.5 -108t-300.5 -106v-9q151 -111 248 -194.5t161 -157.5t115 -159q67 -113 124 -178t129.5 -92t184.5 -27h1v-126h-1q-129 0 -219.5 33
t-155 107t-114.5 197h-10z" />
    <glyph glyph-name="uni06AB.fina" unicode="&#x6ab;" horiz-adv-x="1969" 
d="M1439 1141q77 0 123.5 -46t46.5 -123q0 -76 -46.5 -122t-123.5 -46q-76 0 -122 45.5t-46 122.5t46 123t122 46zM1435 1081q-105 0 -105 -101q0 -102 105 -102q104 0 104 102q0 101 -104 101zM1470 336q5 -172 -163.5 -254t-525.5 -82q-238 0 -384 43t-212.5 137
t-66.5 247q0 127 42 316l114 -28q-41 -179 -41 -279q0 -114 53.5 -182t175.5 -98t325 -30q598 0 598 227q0 181 -511 535l12 133q166 74 370.5 141.5t421.5 121.5l21 -127q-440 -109 -693 -214l-1 -9q117 -87 199 -154t140.5 -124t102.5 -113t83 -121q70 -119 129.5 -183
t131 -88.5t177.5 -24.5h1v-126h-1q-129 0 -220 33t-154.5 106.5t-113.5 196.5h-10z" />
    <glyph glyph-name="uni06AC.init" unicode="&#x6ac;" horiz-adv-x="821" 
d="M205 1505l115 115l114 -115l-114 -114zM839 1284l21 -127q-232 -58 -401 -110.5t-293 -103.5v-9q180 -134 291 -235t162 -185.5t51 -169.5q0 -166 -143.5 -255t-411.5 -89h-115q-26 0 -26 63t26 63h113q214 0 324.5 57.5t110.5 167.5q0 67 -53.5 141.5t-166.5 170.5
t-293 225l11 133q162 72 365.5 139.5t427.5 123.5z" />
    <glyph glyph-name="uni06AC.medi" unicode="&#x6ac;" horiz-adv-x="1129" 
d="M205 1505l115 115l114 -115l-114 -114zM629 337q4 -175 -124.5 -256t-389.5 -81h-115q-26 0 -26 63t26 63h113q222 0 327.5 59t105.5 165q0 58 -49 132t-160.5 173.5t-301.5 232.5l11 133q167 74 371 141.5t422 121.5l21 -127q-222 -55 -393.5 -108t-300.5 -106v-9
q151 -111 248 -194.5t161 -157.5t115 -159q67 -113 124 -178t129.5 -92t184.5 -27h1v-126h-1q-129 0 -219.5 33t-155 107t-114.5 197h-10z" />
    <glyph glyph-name="uni06AC.fina" unicode="&#x6ac;" horiz-adv-x="1839" 
d="M694 1320l119 120l120 -120l-120 -119zM685 453q-27 0 -55.5 2.5t-55.5 6.5l17 78q47 -9 102 -9q48 0 95 9.5t78 31t31 58.5q0 35 -34.5 47t-86.5 19q-59 10 -105 33.5t-46 93.5q0 99 67.5 158t161.5 59q52 0 109 -20l-27 -73q-44 13 -83 13q-61 0 -109 -30.5t-48 -89.5
q0 -40 32.5 -53t82.5 -21q62 -8 110.5 -31t48.5 -97q0 -62 -39.5 -103.5t-104.5 -61.5t-141 -20zM1481 465q0 -173 88.5 -256t268.5 -83h1v-126h-1q-166 0 -274 69t-135 202h-10q-37 -148 -188 -209.5t-446 -61.5q-243 0 -390.5 37t-214 122t-66.5 227q0 56 9.5 127
t25.5 138l109 -25q-13 -59 -22.5 -127t-9.5 -112q0 -100 54 -157t179 -80.5t336 -23.5q218 0 341 30t173 102.5t50 201.5v839h122v-834z" />
    <glyph glyph-name="uni06AE.init" unicode="&#x6ae;" horiz-adv-x="821" 
d="M564 -365l120 120l119 -120l-119 -119zM216 -365l119 120l120 -120l-120 -119zM391 -667l119 120l120 -120l-120 -119zM839 1284l21 -127q-232 -58 -401 -110.5t-293 -103.5v-9q180 -134 291 -235t162 -185.5t51 -169.5q0 -166 -143.5 -255t-411.5 -89h-115q-26 0 -26 63
t26 63h113q214 0 324.5 57.5t110.5 167.5q0 67 -53.5 141.5t-166.5 170.5t-293 225l11 133q162 72 365.5 139.5t427.5 123.5z" />
    <glyph glyph-name="uni06AE.medi" unicode="&#x6ae;" horiz-adv-x="1129" 
d="M564 -365l120 120l119 -120l-119 -119zM216 -365l119 120l120 -120l-120 -119zM391 -667l119 120l120 -120l-120 -119zM629 337q4 -175 -124.5 -256t-389.5 -81h-115q-26 0 -26 63t26 63h113q222 0 327.5 59t105.5 165q0 58 -49 132t-160.5 173.5t-301.5 232.5l11 133
q167 74 371 141.5t422 121.5l21 -127q-222 -55 -393.5 -108t-300.5 -106v-9q151 -111 248 -194.5t161 -157.5t115 -159q67 -113 124 -178t129.5 -92t184.5 -27h1v-126h-1q-129 0 -219.5 33t-155 107t-114.5 197h-10z" />
    <glyph glyph-name="uni06AE.fina" unicode="&#x6ae;" horiz-adv-x="1839" 
d="M819 -365l120 120l119 -120l-119 -119zM471 -365l119 120l120 -120l-120 -119zM646 -667l119 120l120 -120l-120 -119zM685 453q-27 0 -55.5 2.5t-55.5 6.5l17 78q47 -9 102 -9q48 0 95 9.5t78 31t31 58.5q0 35 -34.5 47t-86.5 19q-59 10 -105 33.5t-46 93.5
q0 99 67.5 158t161.5 59q52 0 109 -20l-27 -73q-44 13 -83 13q-61 0 -109 -30.5t-48 -89.5q0 -40 32.5 -53t82.5 -21q62 -8 110.5 -31t48.5 -97q0 -62 -39.5 -103.5t-104.5 -61.5t-141 -20zM1481 465q0 -173 88.5 -256t268.5 -83h1v-126h-1q-166 0 -274 69t-135 202h-10
q-37 -148 -188 -209.5t-446 -61.5q-243 0 -390.5 37t-214 122t-66.5 227q0 56 9.5 127t25.5 138l109 -25q-13 -59 -22.5 -127t-9.5 -112q0 -100 54 -157t179 -80.5t336 -23.5q218 0 341 30t173 102.5t50 201.5v839h122v-834z" />
    <glyph glyph-name="uni06B0.init" unicode="&#x6b0;" horiz-adv-x="821" 
d="M604 1142q77 0 123.5 -46t46.5 -123q0 -76 -46.5 -122t-123.5 -46q-76 0 -122 45.5t-46 122.5t46 123t122 46zM600 1082q-105 0 -105 -101q0 -102 105 -102q104 0 104 102q0 101 -104 101zM692 1553l14 -76q-184 -31 -353.5 -87t-322.5 -134l-36 69q314 161 698 228z
M839 1284l21 -127q-232 -58 -401 -110.5t-293 -103.5v-9q180 -134 291 -235t162 -185.5t51 -169.5q0 -166 -143.5 -255t-411.5 -89h-115q-26 0 -26 63t26 63h113q214 0 324.5 57.5t110.5 167.5q0 67 -53.5 141.5t-166.5 170.5t-293 225l11 133q162 72 365.5 139.5
t427.5 123.5z" />
    <glyph glyph-name="uni06B0.medi" unicode="&#x6b0;" horiz-adv-x="1129" 
d="M604 1142q77 0 123.5 -46t46.5 -123q0 -76 -46.5 -122t-123.5 -46q-76 0 -122 45.5t-46 122.5t46 123t122 46zM600 1082q-105 0 -105 -101q0 -102 105 -102q104 0 104 102q0 101 -104 101zM692 1553l14 -76q-184 -31 -353.5 -87t-322.5 -134l-36 69q314 161 698 228z
M629 337q4 -175 -124.5 -256t-389.5 -81h-115q-26 0 -26 63t26 63h113q222 0 327.5 59t105.5 165q0 58 -49 132t-160.5 173.5t-301.5 232.5l11 133q167 74 371 141.5t422 121.5l21 -127q-222 -55 -393.5 -108t-300.5 -106v-9q151 -111 248 -194.5t161 -157.5t115 -159
q67 -113 124 -178t129.5 -92t184.5 -27h1v-126h-1q-129 0 -219.5 33t-155 107t-114.5 197h-10z" />
    <glyph glyph-name="uni06B0.fina" unicode="&#x6b0;" horiz-adv-x="1969" 
d="M1439 1141q77 0 123.5 -46t46.5 -123q0 -76 -46.5 -122t-123.5 -46q-76 0 -122 45.5t-46 122.5t46 123t122 46zM1435 1081q-105 0 -105 -101q0 -102 105 -102q104 0 104 102q0 101 -104 101zM1520 1553l14 -76q-184 -31 -353.5 -87t-322.5 -134l-36 69q314 161 698 228z
M1470 336q5 -172 -163.5 -254t-525.5 -82q-238 0 -384 43t-212.5 137t-66.5 247q0 127 42 316l114 -28q-41 -179 -41 -279q0 -114 53.5 -182t175.5 -98t325 -30q598 0 598 227q0 181 -511 535l12 133q166 74 370.5 141.5t421.5 121.5l21 -127q-440 -109 -693 -214l-1 -9
q117 -87 199 -154t140.5 -124t102.5 -113t83 -121q70 -119 129.5 -183t131 -88.5t177.5 -24.5h1v-126h-1q-129 0 -220 33t-154.5 106.5t-113.5 196.5h-10z" />
    <glyph glyph-name="uni06B2.init" unicode="&#x6b2;" horiz-adv-x="821" 
d="M216 -365l119 120l120 -120l-120 -119zM564 -365l120 120l119 -120l-119 -119zM839 1284l21 -127q-232 -58 -401 -110.5t-293 -103.5v-9q180 -134 291 -235t162 -185.5t51 -169.5q0 -166 -143.5 -255t-411.5 -89h-115q-26 0 -26 63t26 63h113q214 0 324.5 57.5
t110.5 167.5q0 67 -53.5 141.5t-166.5 170.5t-293 225l11 133q162 72 365.5 139.5t427.5 123.5zM692 1553l14 -76q-184 -31 -353.5 -87t-322.5 -134l-36 69q314 161 698 228z" />
    <glyph glyph-name="uni06B2.medi" unicode="&#x6b2;" horiz-adv-x="1129" 
d="M216 -365l119 120l120 -120l-120 -119zM564 -365l120 120l119 -120l-119 -119zM629 337q4 -175 -124.5 -256t-389.5 -81h-115q-26 0 -26 63t26 63h113q222 0 327.5 59t105.5 165q0 58 -49 132t-160.5 173.5t-301.5 232.5l11 133q167 74 371 141.5t422 121.5l21 -127
q-222 -55 -393.5 -108t-300.5 -106v-9q151 -111 248 -194.5t161 -157.5t115 -159q67 -113 124 -178t129.5 -92t184.5 -27h1v-126h-1q-129 0 -219.5 33t-155 107t-114.5 197h-10zM692 1553l14 -76q-184 -31 -353.5 -87t-322.5 -134l-36 69q314 161 698 228z" />
    <glyph glyph-name="uni06B2.fina" unicode="&#x6b2;" horiz-adv-x="1969" 
d="M481 -365l119 120l120 -120l-120 -119zM829 -365l120 120l119 -120l-119 -119zM1470 336q5 -172 -163.5 -254t-525.5 -82q-238 0 -384 43t-212.5 137t-66.5 247q0 127 42 316l114 -28q-41 -179 -41 -279q0 -114 53.5 -182t175.5 -98t325 -30q598 0 598 227
q0 181 -511 535l12 133q166 74 370.5 141.5t421.5 121.5l21 -127q-440 -109 -693 -214l-1 -9q117 -87 199 -154t140.5 -124t102.5 -113t83 -121q70 -119 129.5 -183t131 -88.5t177.5 -24.5h1v-126h-1q-129 0 -220 33t-154.5 106.5t-113.5 196.5h-10zM1520 1553l14 -76
q-184 -31 -353.5 -87t-322.5 -134l-36 69q314 161 698 228z" />
    <glyph glyph-name="uni06B4.init" unicode="&#x6b4;" horiz-adv-x="821" 
d="M839 1284l21 -127q-232 -58 -401 -110.5t-293 -103.5v-9q180 -134 291 -235t162 -185.5t51 -169.5q0 -166 -143.5 -255t-411.5 -89h-115q-26 0 -26 63t26 63h113q214 0 324.5 57.5t110.5 167.5q0 67 -53.5 141.5t-166.5 170.5t-293 225l11 133q162 72 365.5 139.5
t427.5 123.5zM692 1553l14 -76q-184 -31 -353.5 -87t-322.5 -134l-36 69q314 161 698 228zM290 1785l115 115l114 -115l-114 -114zM-28 1696l115 115l114 -115l-114 -114zM66 2006l115 115l114 -115l-114 -114z" />
    <glyph glyph-name="uni06B4.medi" unicode="&#x6b4;" horiz-adv-x="1129" 
d="M629 337q4 -175 -124.5 -256t-389.5 -81h-115q-26 0 -26 63t26 63h113q222 0 327.5 59t105.5 165q0 58 -49 132t-160.5 173.5t-301.5 232.5l11 133q167 74 371 141.5t422 121.5l21 -127q-222 -55 -393.5 -108t-300.5 -106v-9q151 -111 248 -194.5t161 -157.5t115 -159
q67 -113 124 -178t129.5 -92t184.5 -27h1v-126h-1q-129 0 -219.5 33t-155 107t-114.5 197h-10zM692 1553l14 -76q-184 -31 -353.5 -87t-322.5 -134l-36 69q314 161 698 228zM290 1785l115 115l114 -115l-114 -114zM-28 1696l115 115l114 -115l-114 -114zM66 2006l115 115
l114 -115l-114 -114z" />
    <glyph glyph-name="uni06B4.fina" unicode="&#x6b4;" horiz-adv-x="1969" 
d="M898 2006l115 115l114 -115l-114 -114zM1122 1785l115 115l114 -115l-114 -114zM804 1696l115 115l114 -115l-114 -114zM1470 336q5 -172 -163.5 -254t-525.5 -82q-238 0 -384 43t-212.5 137t-66.5 247q0 127 42 316l114 -28q-41 -179 -41 -279q0 -114 53.5 -182
t175.5 -98t325 -30q598 0 598 227q0 181 -511 535l12 133q166 74 370.5 141.5t421.5 121.5l21 -127q-440 -109 -693 -214l-1 -9q117 -87 199 -154t140.5 -124t102.5 -113t83 -121q70 -119 129.5 -183t131 -88.5t177.5 -24.5h1v-126h-1q-129 0 -220 33t-154.5 106.5
t-113.5 196.5h-10zM1520 1553l14 -76q-184 -31 -353.5 -87t-322.5 -134l-36 69q314 161 698 228z" />
    <glyph glyph-name="uni06B5.init" unicode="&#x6b5;" horiz-adv-x="582" 
d="M378 1588h-60l-213 266l59 48l184 -234l184 234l59 -48zM0 126q116 0 178 33t85.5 101t23.5 172v867h123v-867q0 -214 -96 -323t-314 -109q-26 0 -26 63t26 63z" />
    <glyph glyph-name="uni06B5.medi" unicode="&#x6b5;" horiz-adv-x="697" 
d="M378 1588h-60l-213 266l59 48l184 -234l184 234l59 -48zM343 242q-20 -116 -109.5 -179t-233.5 -63q-26 0 -26 63t26 63q126 0 187 38.5t80.5 110t19.5 171.5v853h122v-845q0 -100 20 -174t81.5 -114t185.5 -40h1v-126h-1q-143 0 -233.5 63.5t-109.5 178.5h-10z" />
    <glyph glyph-name="uni06B5.fina" unicode="&#x6b5;" horiz-adv-x="1518" 
d="M1155 1588h-60l-213 266l59 48l184 -234l184 234l59 -48zM1518 126v-126h-4q-108 0 -193.5 45t-122.5 129l-10 -2v-124q0 -282 -144.5 -421t-419.5 -139q-241 0 -375.5 126t-134.5 358q0 89 19.5 191.5t61.5 224.5l111 -35q-37 -107 -55 -203t-18 -173q0 -362 409 -362
q217 0 320 111.5t103 344.5v1228h123v-818q0 -109 28.5 -188.5t98.5 -123t196 -43.5h7z" />
    <glyph glyph-name="uni06B6.init" unicode="&#x6b6;" horiz-adv-x="582" 
d="M218 1695l119 120l120 -120l-120 -119zM0 126q116 0 178 33t85.5 101t23.5 172v867h123v-867q0 -214 -96 -323t-314 -109q-26 0 -26 63t26 63z" />
    <glyph glyph-name="uni06B6.medi" unicode="&#x6b6;" horiz-adv-x="697" 
d="M218 1695l119 120l120 -120l-120 -119zM343 242q-20 -116 -109.5 -179t-233.5 -63q-26 0 -26 63t26 63q126 0 187 38.5t80.5 110t19.5 171.5v853h122v-845q0 -100 20 -174t81.5 -114t185.5 -40h1v-126h-1q-143 0 -233.5 63.5t-109.5 178.5h-10z" />
    <glyph glyph-name="uni06B6.fina" unicode="&#x6b6;" horiz-adv-x="1518" 
d="M1005 1695l119 120l120 -120l-120 -119zM1518 126v-126h-4q-108 0 -193.5 45t-122.5 129l-10 -2v-124q0 -282 -144.5 -421t-419.5 -139q-241 0 -375.5 126t-134.5 358q0 89 19.5 191.5t61.5 224.5l111 -35q-37 -107 -55 -203t-18 -173q0 -362 409 -362q217 0 320 111.5
t103 344.5v1228h123v-818q0 -109 28.5 -188.5t98.5 -123t196 -43.5h7z" />
    <glyph glyph-name="uni06B7.init" unicode="&#x6b7;" horiz-adv-x="582" 
d="M218 1971l119 119l120 -119l-120 -120zM392 1668l120 120l119 -120l-119 -119zM44 1668l119 120l120 -120l-120 -119zM0 126q116 0 178 33t85.5 101t23.5 172v867h123v-867q0 -214 -96 -323t-314 -109q-26 0 -26 63t26 63z" />
    <glyph glyph-name="uni06B7.medi" unicode="&#x6b7;" horiz-adv-x="697" 
d="M218 1971l119 119l120 -119l-120 -120zM392 1668l120 120l119 -120l-119 -119zM44 1668l119 120l120 -120l-120 -119zM343 242q-20 -116 -109.5 -179t-233.5 -63q-26 0 -26 63t26 63q126 0 187 38.5t80.5 110t19.5 171.5v853h122v-845q0 -100 20 -174t81.5 -114
t185.5 -40h1v-126h-1q-143 0 -233.5 63.5t-109.5 178.5h-10z" />
    <glyph glyph-name="uni06B7.fina" unicode="&#x6b7;" horiz-adv-x="1518" 
d="M1004 1971l119 119l120 -119l-120 -120zM1178 1668l120 120l119 -120l-119 -119zM830 1668l119 120l120 -120l-120 -119zM1518 126v-126h-4q-108 0 -193.5 45t-122.5 129l-10 -2v-124q0 -282 -144.5 -421t-419.5 -139q-241 0 -375.5 126t-134.5 358q0 89 19.5 191.5
t61.5 224.5l111 -35q-37 -107 -55 -203t-18 -173q0 -362 409 -362q217 0 320 111.5t103 344.5v1228h123v-818q0 -109 28.5 -188.5t98.5 -123t196 -43.5h7z" />
    <glyph glyph-name="uni06B8.init" unicode="&#x6b8;" horiz-adv-x="582" 
d="M196 -365l120 120l119 -120l-119 -119zM-152 -365l119 120l120 -120l-120 -119zM23 -667l119 120l120 -120l-120 -119zM0 126q116 0 178 33t85.5 101t23.5 172v867h123v-867q0 -214 -96 -323t-314 -109q-26 0 -26 63t26 63z" />
    <glyph glyph-name="uni06B8.medi" unicode="&#x6b8;" horiz-adv-x="697" 
d="M196 -365l120 120l119 -120l-119 -119zM-152 -365l119 120l120 -120l-120 -119zM23 -667l119 120l120 -120l-120 -119zM343 242q-20 -116 -109.5 -179t-233.5 -63q-26 0 -26 63t26 63q126 0 187 38.5t80.5 110t19.5 171.5v853h122v-845q0 -100 20 -174t81.5 -114
t185.5 -40h1v-126h-1q-143 0 -233.5 63.5t-109.5 178.5h-10z" />
    <glyph glyph-name="uni06B8.fina" unicode="&#x6b8;" horiz-adv-x="1518" 
d="M680 -791l120 120l119 -120l-119 -119zM332 -791l119 120l120 -120l-120 -119zM507 -1093l119 120l120 -120l-120 -119zM1518 126v-126h-4q-108 0 -193.5 45t-122.5 129l-10 -2v-124q0 -282 -144.5 -421t-419.5 -139q-241 0 -375.5 126t-134.5 358q0 89 19.5 191.5
t61.5 224.5l111 -35q-37 -107 -55 -203t-18 -173q0 -362 409 -362q217 0 320 111.5t103 344.5v1228h123v-818q0 -109 28.5 -188.5t98.5 -123t196 -43.5h7z" />
    <glyph glyph-name="uni06B9.init" unicode="&#x6b9;" horiz-adv-x="579" 
d="M24 -365l119 120l120 -120l-120 -119zM407 742q26 -103 42.5 -194.5t16.5 -167.5q0 -182 -96.5 -281t-314.5 -99h-55q-26 0 -26 63t26 63h55q160 0 227 65.5t67 189.5q0 65 -16.5 148.5t-40.5 181.5zM116 1127l119 120l120 -120l-120 -119z" />
    <glyph glyph-name="uni06B9.medi" unicode="&#x6b9;" horiz-adv-x="846" 
d="M24 -365l119 120l120 -120l-120 -119zM486 459q0 -105 21.5 -179.5t81.5 -114t176 -39.5h81v-126h-85q-127 0 -216.5 62t-116.5 178h-10q-27 -117 -130 -178.5t-234 -61.5h-54q-26 0 -26 63t26 63h54q129 0 195.5 39.5t90 114.5t23.5 179v125h123v-125zM199 970l119 120
l120 -120l-120 -119z" />
    <glyph glyph-name="uni06B9.fina" unicode="&#x6b9;" horiz-adv-x="1665" 
d="M633 -845l119 120l120 -120l-120 -119zM637 371l119 120l120 -120l-120 -119zM176 514l117 -25q-31 -154 -43 -248t-12 -161q0 -241 132 -340t382 -99q263 0 398.5 99.5t135.5 292.5q0 83 -36 202.5t-113 309.5l110 53l66 -168q47 -118 89.5 -184t101.5 -93t156 -27h5
v-126h-2q-177 0 -271 125l-10 -4q41 -307 -128 -456.5t-499 -149.5q-301 0 -468.5 132t-167.5 428q0 79 13 183.5t44 255.5z" />
    <glyph glyph-name="uni06BC.init" unicode="&#x6bc;" horiz-adv-x="579" 
d="M0 59q77 0 123 -46t46 -123q0 -76 -46 -122t-123 -46q-76 0 -122.5 45.5t-46.5 122.5t46.5 123t122.5 46zM0 0q-104 0 -104 -101q0 -102 104 -102t104 102q0 101 -104 101zM407 742q26 -103 42.5 -194.5t16.5 -167.5q0 -182 -96.5 -281t-314.5 -99h-55q-26 0 -26 63
t26 63h55q160 0 227 65.5t67 189.5q0 65 -16.5 148.5t-40.5 181.5zM116 1127l119 120l120 -120l-120 -119z" />
    <glyph glyph-name="uni06BC.medi" unicode="&#x6bc;" horiz-adv-x="846" 
d="M0 59q77 0 123 -46t46 -123q0 -76 -46 -122t-123 -46q-76 0 -122.5 45.5t-46.5 122.5t46.5 123t122.5 46zM0 0q-104 0 -104 -101q0 -102 104 -102t104 102q0 101 -104 101zM486 459q0 -105 21.5 -179.5t81.5 -114t176 -39.5h81v-126h-85q-127 0 -216.5 62t-116.5 178h-10
q-27 -117 -130 -178.5t-234 -61.5h-54q-26 0 -26 63t26 63h54q129 0 195.5 39.5t90 114.5t23.5 179v125h123v-125zM199 970l119 120l120 -120l-120 -119z" />
    <glyph glyph-name="uni06BC.fina" unicode="&#x6bc;" horiz-adv-x="1665" 
d="M753 -433q77 0 123 -46t46 -123q0 -76 -46 -122t-123 -46q-76 0 -122.5 45.5t-46.5 122.5t46.5 123t122.5 46zM753 -492q-104 0 -104 -101q0 -102 104 -102t104 102q0 101 -104 101zM637 371l119 120l120 -120l-120 -119zM176 514l117 -25q-31 -154 -43 -248t-12 -161
q0 -241 132 -340t382 -99q263 0 398.5 99.5t135.5 292.5q0 83 -36 202.5t-113 309.5l110 53l66 -168q47 -118 89.5 -184t101.5 -93t156 -27h5v-126h-2q-177 0 -271 125l-10 -4q41 -307 -128 -456.5t-499 -149.5q-301 0 -468.5 132t-167.5 428q0 79 13 183.5t44 255.5z" />
    <glyph glyph-name="uni06BD.fina" unicode="&#x6bd;" horiz-adv-x="1665" 
d="M855 382l-98 -96l-96 96l96 97zM697 139l-99 -99l-98 99l98 99zM1015 138l-99 -98l-99 98l99 99zM176 514l117 -25q-31 -154 -43 -248t-12 -161q0 -241 132 -340t382 -99q263 0 398.5 99.5t135.5 292.5q0 83 -36 202.5t-113 309.5l110 53l66 -168q47 -118 89.5 -184
t101.5 -93t156 -27h5v-126h-2q-177 0 -271 125l-10 -4q41 -307 -128 -456.5t-499 -149.5q-301 0 -468.5 132t-167.5 428q0 79 13 183.5t44 255.5z" />
    <glyph glyph-name="uni06BF.init" unicode="&#x6bf;" horiz-adv-x="1244" 
d="M449 1187l119 120l120 -120l-120 -119zM573 -311l120 120l119 -120l-119 -119zM225 -311l119 120l120 -120l-120 -119zM400 -613l119 120l120 -120l-120 -119zM404 798q48 0 117.5 -22t204.5 -80q128 -56 220 -89t184 -57v-116l-487 -273q-154 -86 -283.5 -123.5
t-275.5 -37.5h-84q-26 0 -26 63t26 63h104q124 0 233.5 31t254.5 106l388 205v10q-67 18 -142 45t-173 70q-108 44 -167 63t-95 19q-67 0 -113 -45t-88 -152l-6 -17l-94 31l6 17q55 154 124 221.5t172 67.5z" />
    <glyph glyph-name="uni06BF.medi" unicode="&#x6bf;" horiz-adv-x="1291" 
d="M449 1187l119 120l120 -120l-120 -119zM573 -311l120 120l119 -120l-119 -119zM225 -311l119 120l120 -120l-120 -119zM400 -613l119 120l120 -120l-120 -119zM404 798q48 0 118 -21t204 -81q128 -56 220 -89t184 -57v-116l-245 -134v-10q74 -94 154 -129t176 -35h76
v-126h-80q-118 0 -222.5 54t-196.5 190l-149 -83q-154 -86 -283.5 -123.5t-275.5 -37.5h-84q-26 0 -26 63t26 63h104q124 0 233.5 30.5t254.5 106.5l388 205v10q-125 34 -315 115q-108 44 -167 63t-95 19q-67 0 -113 -45t-88 -152l-6 -17l-94 31l6 17q56 154 124.5 221.5
t171.5 67.5z" />
    <glyph glyph-name="uni06BF.fina" unicode="&#x6bf;" horiz-adv-x="1348" 
d="M563 1202l119 120l120 -120l-120 -119zM465 -116l99 99l98 -99l-98 -99zM782 -116l99 98l99 -98l-99 -99zM625 -359l97 96l96 -96l-96 -97zM451 807q53 0 126.5 -22.5t194.5 -77.5q142 -63 234.5 -97.5t178.5 -57.5l-11 -150q-69 -9 -121 -17.5t-93 -19.5v-10
q52 -121 130.5 -175t201.5 -54h56v-126h-50q-157 0 -260 82.5t-162 255.5q-193 -51 -338.5 -139t-227 -198t-81.5 -229q0 -105 65 -183.5t183.5 -121.5t278.5 -43q242 0 443 89l57 -112q-243 -107 -502 -107q-195 0 -340 58t-225 163t-80 246q0 168 116 313.5t324 250.5
t484 151v10q-63 17 -137 43.5t-183 72.5q-109 45 -168 63.5t-95 18.5q-67 0 -113 -45t-87 -152l-7 -17l-94 31l7 18q53 153 122 220.5t173 67.5z" />
    <glyph glyph-name="uni06C1.init" unicode="&#x6c1;" horiz-adv-x="1275" arabic-form="initial" 
d="M486 459q0 -177 63 -255t209 -78q148 0 217.5 61.5t69.5 193.5q0 53 -13.5 129.5t-43.5 200.5l115 31q59 -233 59 -362q0 -380 -400 -380q-136 0 -222 63.5t-112 176.5h-10q-26 -110 -124.5 -175t-239.5 -65h-54q-26 0 -26 63t26 63h54q170 0 239.5 75.5t69.5 257.5v125
h123v-125zM767 -527l11 -2q31 28 68 28q38 0 67 -31t29 -82q0 -58 -31.5 -92t-87.5 -34q-66 0 -101.5 49.5t-35.5 140.5q0 189 183 326l50 -67q-78 -52 -113.5 -107t-38.5 -129z" />
    <glyph glyph-name="uni06C4.fina" unicode="&#x6c4;" horiz-adv-x="927" 
d="M299 -78q73 0 116.5 -43t43.5 -116t-43.5 -117.5t-116.5 -44.5q-74 0 -118.5 43.5t-44.5 118.5q0 73 45 116t118 43zM302 -145q-105 0 -105 -101q0 -102 105 -102q104 0 104 102q0 101 -104 101zM727 -6l-6 9q-130 -3 -257 -3q-150 0 -240 68t-90 221q0 109 36.5 209
t110.5 163.5t186 63.5q100 0 169 -55t112 -144t64.5 -194t26.5 -206h88v-126h-91q-18 -193 -202 -324t-495 -209l-46 118q282 64 447 168t187 241zM725 124q-3 72 -16.5 154t-43 155t-78.5 119t-122 46q-76 0 -125.5 -44t-73.5 -112t-24 -140q0 -103 61.5 -141t164.5 -38
h128.5t128.5 1z" />
    <glyph glyph-name="uni06CA.fina" unicode="&#x6ca;" horiz-adv-x="927" 
d="M175 1119l119 120l120 -120l-120 -119zM523 1119l120 120l119 -120l-119 -119zM727 -6l-6 9q-130 -3 -257 -3q-150 0 -240 68t-90 221q0 109 36.5 209t110.5 163.5t186 63.5q100 0 169 -55t112 -144t64.5 -194t26.5 -206h88v-126h-91q-18 -193 -202 -324t-495 -209
l-46 118q282 64 447 168t187 241zM725 124q-3 72 -16.5 154t-43 155t-78.5 119t-122 46q-76 0 -125.5 -44t-73.5 -112t-24 -140q0 -103 61.5 -141t164.5 -38h128.5t128.5 1z" />
    <glyph glyph-name="uni06CD.fina" unicode="&#x6cd;" horiz-adv-x="1784" 
d="M629 396l-1 -1q-46 -292 -46 -449q0 -207 112.5 -298t368.5 -91q149 0 262 27.5t176.5 77t63.5 114.5q0 45 -39.5 77t-142.5 63.5t-294 72.5l17 137h686v-126h-359v-10q144 -49 201.5 -99.5t57.5 -131.5q0 -94 -81.5 -168.5t-223 -117t-322.5 -42.5q-307 0 -453.5 123.5
t-146.5 385.5q0 141 35 389q-79 -26 -176 -59.5t-165 -61.5l-39 107q159 61 248.5 89t145.5 28q57 0 115 -36z" />
    <glyph glyph-name="uni06CE.init" unicode="&#x6ce;" horiz-adv-x="579" 
d="M331 1047h-60l-213 266l59 48l184 -234l184 234l59 -48zM407 742q26 -103 42.5 -194.5t16.5 -167.5q0 -182 -96.5 -281t-314.5 -99h-55q-26 0 -26 63t26 63h55q160 0 227 65.5t67 189.5q0 65 -16.5 148.5t-40.5 181.5zM-156 -365l119 120l120 -120l-120 -119zM192 -365
l120 120l119 -120l-119 -119z" />
    <glyph glyph-name="uni06CE.medi" unicode="&#x6ce;" horiz-adv-x="846" 
d="M453 841h-60l-213 266l59 48l184 -234l184 234l59 -48zM486 459q0 -105 21.5 -179.5t81.5 -114t176 -39.5h81v-126h-85q-127 0 -216.5 62t-116.5 178h-10q-27 -117 -130 -178.5t-234 -61.5h-54q-26 0 -26 63t26 63h54q129 0 195.5 39.5t90 114.5t23.5 179v125h123v-125z
M-188 -365l119 120l120 -120l-120 -119zM160 -365l120 120l119 -120l-119 -119z" />
    <glyph glyph-name="uni06CE.fina" unicode="&#x6ce;" horiz-adv-x="1442" 
d="M883 470h-60l-213 266l59 48l184 -234l184 234l59 -48zM1083 -10q144 -49 201.5 -99.5t57.5 -131.5q0 -94 -81.5 -168.5t-223 -117t-322.5 -42.5q-307 0 -453.5 123.5t-146.5 385.5q0 83 12.5 205.5t35.5 273.5l115 -23q-46 -293 -46 -450q0 -207 112.5 -298t368.5 -91
q149 0 262 27.5t176.5 77t63.5 114.5q0 45 -39.5 77t-142.5 63.5t-294 72.5l17 137h686v-126h-359v-10z" />
    <glyph glyph-name="uni06CF.fina" unicode="&#x6cf;" horiz-adv-x="927" 
d="M350 1128l119 120l120 -120l-120 -119zM727 -6l-6 9q-130 -3 -257 -3q-150 0 -240 68t-90 221q0 109 36.5 209t110.5 163.5t186 63.5q100 0 169 -55t112 -144t64.5 -194t26.5 -206h88v-126h-91q-18 -193 -202 -324t-495 -209l-46 118q282 64 447 168t187 241zM725 124
q-3 72 -16.5 154t-43 155t-78.5 119t-122 46q-76 0 -125.5 -44t-73.5 -112t-24 -140q0 -103 61.5 -141t164.5 -38h128.5t128.5 1z" />
    <glyph glyph-name="uni06D1.fina" unicode="&#x6d1;" horiz-adv-x="1442" 
d="M441 -870l119 120l120 -120l-120 -119zM789 -870l120 120l119 -120l-119 -119zM620 -1126l115 115l116 -115l-116 -115zM1083 -10q144 -49 201.5 -99.5t57.5 -131.5q0 -94 -81.5 -168.5t-223 -117t-322.5 -42.5q-307 0 -453.5 123.5t-146.5 385.5q0 83 12.5 205.5
t35.5 273.5l115 -23q-46 -293 -46 -450q0 -207 112.5 -298t368.5 -91q149 0 262 27.5t176.5 77t63.5 114.5q0 45 -39.5 77t-142.5 63.5t-294 72.5l17 137h686v-126h-359v-10z" />
    <glyph glyph-name="uni06EE.fina" unicode="&#x6ee;" horiz-adv-x="1278" 
d="M604 1540h60l213 -266l-59 -48l-184 234l-184 -234l-59 48zM697 961l273 -636q50 -117 116 -158t175 -41h17v-126h-17q-129 0 -222 51t-138 171h-10q-50 -112 -163 -172t-244 -60q-95 0 -191 34.5t-181 106.5l65 101q72 -59 151.5 -87t155.5 -28q108 0 203 50t153 144
l-262 593z" />
    <glyph glyph-name="uni06EF.fina" unicode="&#x6ef;" horiz-adv-x="757" 
d="M262 1234h60l213 -266l-59 -48l-184 234l-184 -234l-59 48zM218 562l115 42l63 -192q33 -103 76 -166t110.5 -91.5t173.5 -28.5h1v-126h-1q-105 0 -187.5 37t-126.5 104l-10 -4q19 -169 -35 -292t-184 -214.5t-340 -168.5l-52 115q273 98 391 210t118 272q0 89 -29 219
t-83 284z" />
    <glyph glyph-name="uni06FA.init" unicode="&#x6fa;" horiz-adv-x="1658" 
d="M839 1241l119 119l120 -119l-120 -120zM1013 938l120 120l119 -120l-119 -119zM665 938l119 120l120 -120l-120 -119zM703 126q98 0 147 59t62 189l17 172l113 -11l-13 -160q-12 -127 42.5 -188t160.5 -61q191 0 191 228q0 34 -4.5 84t-11 100.5t-13.5 86.5l119 29
q12 -61 22 -147t10 -151q0 -356 -300 -356q-115 0 -183 54.5t-88 150.5h-10q-52 -205 -267 -205q-119 0 -187 61t-85 173h-10q-30 -105 -126.5 -169.5t-233.5 -64.5h-55q-26 0 -26 64q0 62 26 62h55q156 0 231 78t95 253l14 135l123 -11l-19 -186q-14 -129 39 -199t165 -70z
M848 -365l119 120l120 -120l-120 -119z" />
    <glyph glyph-name="uni06FA.medi" unicode="&#x6fa;" horiz-adv-x="1894" 
d="M839 1241l119 119l120 -119l-120 -120zM1013 938l120 120l119 -120l-119 -119zM665 938l119 120l120 -120l-120 -119zM1497 264q-25 -264 -259 -264q-114 0 -179 54.5t-85 150.5h-10q-53 -205 -266 -205q-121 0 -188 61t-85 173h-10q-30 -105 -126.5 -169.5t-233.5 -64.5
h-55q-26 0 -26 64q0 62 26 62h55q156 0 230.5 78t95.5 253l14 135l123 -11l-19 -186q-14 -129 39 -199t165 -70q98 0 147 59t62 189l17 172l113 -11l-13 -160q-12 -127 41.5 -188t154.5 -61q192 0 192 224q0 47 -9 114.5t-24 140.5l120 24l26 -170q28 -182 110.5 -257.5
t251.5 -75.5h2v-126h-2q-166 0 -262.5 69.5t-122.5 194.5h-10zM848 -365l119 120l120 -120l-120 -119z" />
    <glyph glyph-name="uni06FA.fina" unicode="&#x6fa;" horiz-adv-x="2748" 
d="M1677 1241l119 119l120 -119l-120 -120zM1851 938l120 120l119 -120l-119 -119zM1503 938l119 120l120 -120l-120 -119zM2352 264q-27 -264 -255 -264q-223 0 -268 205h-10q-25 -101 -93 -153t-168 -52q-64 0 -111.5 22.5t-82.5 63.5l-6 -5q16 -196 -60 -321.5
t-220.5 -186t-335.5 -60.5q-295 0 -459 132.5t-164 429.5q0 79 13 183.5t44 255.5l117 -25q-31 -154 -43 -248.5t-12 -160.5q0 -241 129 -341t372 -100q242 0 380 87.5t138 301.5q0 93 -33 210t-113 307l114 52l113 -308q29 -78 81.5 -120.5t142.5 -42.5q97 0 146.5 58.5
t61.5 190.5l15 171l113 -11l-13 -160q-12 -128 43 -188.5t160 -60.5q183 0 183 224q0 47 -9 114.5t-23 140.5l119 24l26 -170q29 -184 110.5 -258.5t251.5 -74.5h2v-126h-2q-163 0 -260.5 68t-123.5 196h-10zM1692 -365l119 120l120 -120l-120 -119z" />
    <glyph glyph-name="uni06FB.init" unicode="&#x6fb;" horiz-adv-x="1623" 
d="M835 -365l119 120l120 -120l-120 -119zM1051 1117l119 120l120 -120l-120 -119zM374 243q-28 -121 -126.5 -182t-238.5 -61h-9q-26 0 -26 63t26 63h9q126 0 188.5 40t83 113t20.5 171v144h122v-120q1 -85 14 -134.5t37 -76.5t56 -48q127 190 240.5 301t215 159.5
t190.5 48.5q105 0 179.5 -45.5t114.5 -123.5t40 -175q0 -141 -81.5 -224.5t-215.5 -119.5t-293 -36q-219 0 -354 57t-184 186h-8zM1165 599q-69 0 -152 -38.5t-179.5 -132.5t-207.5 -259q60 -24 136.5 -33.5t163.5 -9.5t170 10t150.5 37.5t107 77.5t39.5 130
q0 95 -60.5 156.5t-167.5 61.5z" />
    <glyph glyph-name="uni06FB.medi" unicode="&#x6fb;" horiz-adv-x="1696" 
d="M835 -365l119 120l120 -120l-120 -119zM1051 1117l119 120l120 -120l-120 -119zM301 594h122v-120q1 -85 14 -134.5t37 -76.5t56 -48q127 190 240.5 301t215 159.5t190.5 48.5q105 0 179.5 -45.5t114.5 -123.5t40 -175q0 -115 -64 -190q85 -64 249 -64h1v-126h-1
q-209 0 -322 107q-82 -59 -200.5 -83t-252.5 -24q-218 0 -353.5 57t-184.5 186h-8q-28 -121 -126.5 -182t-238.5 -61h-9q-26 0 -26 63t26 63h9q126 0 188.5 40t83 113t20.5 171v144zM1165 599q-69 0 -152 -38.5t-179.5 -132.5t-207.5 -259q60 -24 136.5 -33.5t163.5 -9.5
t170 10t150.5 37.5t107 77.5t39.5 130q0 95 -60.5 156.5t-167.5 61.5z" />
    <glyph glyph-name="uni06FB.fina" unicode="&#x6fb;" horiz-adv-x="2500" 
d="M1707 -365l119 120l120 -120l-120 -119zM1982 724q149 0 240.5 -95t91.5 -249q0 -114 -66 -187q86 -67 251 -67h1v-126h-1q-206 0 -319 107q-148 -107 -450 -107q-238 0 -387 72q2 -271 -156.5 -415t-460.5 -144q-607 0 -607 562q0 155 57 439l117 -25
q-29 -149 -42 -244.5t-13 -164.5q0 -228 117.5 -334.5t367.5 -106.5q254 0 378 103.5t124 316.5q0 86 -31 197t-108 289l115 53q56 -130 85 -222.5t42 -170.5q167 254 334 386.5t320 132.5zM1970 599q-124 0 -260.5 -109t-279.5 -321q107 -43 301 -43q466 0 466 255
q0 98 -62.5 158t-164.5 60zM1860 1117l119 120l120 -120l-120 -119z" />
    <glyph glyph-name="uni06FC.init" unicode="&#x6fc;" horiz-adv-x="1090" 
d="M453 -365l119 120l120 -120l-120 -119zM435 1296l119 120l120 -120l-120 -119zM259 435q0 -124 88.5 -189.5t254.5 -65.5q42 0 103 5t143 17l93 14l15 -125l-141 -18q-146 -22 -291.5 -38.5t-270.5 -25.5t-211 -9h-42q-26 0 -26 63t26 63h39q78 0 153 3.5t148 10.5v13
q-93 30 -146.5 107.5t-53.5 183.5q0 117 55 209t149.5 145t214.5 53q175 0 313 -110l-61 -96q-121 82 -251 82q-86 0 -154.5 -38t-107.5 -103.5t-39 -150.5z" />
    <glyph glyph-name="uni06FC.medi" unicode="&#x6fc;" horiz-adv-x="1187" 
d="M500 -365l119 120l120 -120l-120 -119zM503 1242l119 120l120 -120l-120 -119zM613 829q101 0 190 -30t145 -92t56 -160q0 -101 -77.5 -183t-196.5 -150v-10q62 -58 131 -68t145 -10h181v-126h-199q-109 0 -193 23t-173 114q-97 -62 -207 -99.5t-250 -37.5h-165
q-26 0 -26 63t26 63h155q116 0 206 24.5t167 61.5v10l-373 355v103q102 70 212 109.5t246 39.5zM620 705q-189 0 -335 -89v-5l346 -350q116 62 187.5 132.5t71.5 147.5q0 60 -41.5 96t-104 52t-124.5 16z" />
    <glyph glyph-name="uni06FC.fina" unicode="&#x6fc;" horiz-adv-x="1195" 
d="M576 -276l119 120l120 -120l-120 -119zM534 1248l119 120l120 -120l-120 -119zM1035 547q0 -177 -272 -332v-10q47 -44 107 -61.5t163 -17.5h162v-126h-159q-134 0 -216 30t-162 109q-219 -111 -320 -215t-101 -240q0 -145 136.5 -229t371.5 -84q81 0 166.5 9.5
t174.5 27.5l27 -125q-206 -43 -373 -43q-188 0 -327.5 53t-216.5 150t-77 227q0 158 110 288.5t339 245.5v10l-381 363v103q219 149 457 149q178 0 284.5 -77t106.5 -205zM922 541q0 73 -75 118.5t-195 45.5q-190 0 -336 -89v-5l347 -350q259 139 259 280z" />
    <glyph glyph-name="uni06FF.init" unicode="&#x6ff;" horiz-adv-x="1347" 
d="M743 1527h60l213 -266l-59 -48l-184 234l-184 -234l-59 48zM0 126h43q92 0 161 11t141 36q-103 68 -159 149t-56 166q0 108 66 194.5t172 113.5l1 10l-179 77l50 112l502 -215q182 -76 289 -146.5t154 -149t47 -178.5q0 -148 -94.5 -232.5t-261.5 -84.5
q-94 0 -198.5 26.5t-207.5 78.5q-100 -50 -194.5 -72t-216.5 -22h-59q-26 0 -26 63t26 63zM474 209q101 50 157 123t56 155q0 119 -54.5 184t-152.5 65q-65 0 -119.5 -34t-87.5 -90.5t-33 -124.5q0 -76 61 -149t173 -129zM594 176q153 -60 289 -60q242 0 242 194
q0 101 -83.5 175.5t-290.5 160.5q58 -144 17 -265.5t-174 -204.5z" />
    <glyph glyph-name="uni06FF.medi" unicode="&#x6ff;" horiz-adv-x="997" 
d="M464 1357h60l213 -266l-59 -48l-184 234l-184 -234l-59 48zM518 797q119 0 197 -85.5t78 -222.5q0 -123 -67 -224t-188 -166.5t-282 -84.5q20 -112 85.5 -225.5t170.5 -198.5h5q74 166 129 271t101.5 162.5t93.5 80t106 22.5h50v-126h-50q-45 0 -83.5 -22.5t-78.5 -80
t-90 -161.5t-119 -268h-104q-136 112 -215 251.5t-102 280.5h-155q-26 0 -26 63t26 63h143q-12 222 35 371.5t136.5 224.5t203.5 75zM244 131q132 7 231 53.5t154.5 122.5t55.5 173q0 89 -47.5 143t-119.5 54q-127 0 -209 -137.5t-65 -408.5z" />
    <glyph glyph-name="uni06FF.fina" unicode="&#x6ff;" horiz-adv-x="1134" 
d="M719 1504h60l213 -266l-59 -48l-184 234l-184 -234l-59 48zM717 823l-9 154l122 7l34 -550q7 -122 32 -189t81.5 -93t155.5 -26h1v-126h-1q-139 0 -219 48t-121 145q-111 -44 -238 -44q-101 0 -186 29t-136 88t-51 147q0 158 143 265.5t392 144.5zM724 703
q-196 -23 -311 -93.5t-115 -176.5q0 -87 79.5 -125.5t186.5 -38.5q103 0 195 30q-6 30 -9.5 60t-5.5 64z" />
    <glyph glyph-name="uniFB50" unicode="&#x671;" horiz-adv-x="504" arabic-form="isolated" 
d="M314 1147v-1147h-122v1147h122zM276 1552q76 85 122.5 116.5t94.5 31.5q56 0 89 -34.5t33 -92.5q0 -73 -49 -119.5t-127 -46.5q-34 0 -68.5 12.5t-86.5 43.5q-39 23 -61.5 31.5t-43.5 8.5q-34 0 -60.5 -26t-65.5 -101l-57 35q43 93 85 135t94 42q20 0 40.5 -7t60.5 -29z
M327 1526q40 -21 64.5 -29t49.5 -8q108 0 108 77q0 30 -18.5 48t-49.5 18q-30 0 -60.5 -20.5t-93.5 -85.5z" />
    <glyph glyph-name="uniFB51" unicode="&#x671;" horiz-adv-x="596" arabic-form="final" 
d="M172 1147h123v-733q0 -153 65 -220.5t235 -67.5h1v-126h-1q-423 0 -423 412v735zM276 1552q76 85 122.5 116.5t94.5 31.5q56 0 89 -34.5t33 -92.5q0 -73 -49 -119.5t-127 -46.5q-34 0 -68.5 12.5t-86.5 43.5q-39 23 -61.5 31.5t-43.5 8.5q-34 0 -60.5 -26t-65.5 -101
l-57 35q43 93 85 135t94 42q20 0 40.5 -7t60.5 -29zM327 1526q40 -21 64.5 -29t49.5 -8q108 0 108 77q0 30 -18.5 48t-49.5 18q-30 0 -60.5 -20.5t-93.5 -85.5z" />
    <glyph glyph-name="uniFB52" unicode="&#x67b;" horiz-adv-x="1762" arabic-form="isolated" 
d="M761 -363l119 119l120 -119l-120 -120zM761 -713l119 120l120 -120l-120 -119zM1599 741q23 -78 36.5 -154t13.5 -146q0 -169 -77 -265t-246 -136t-445 -40q-273 0 -442 39.5t-247 133t-78 256.5q0 65 13 144.5t35 167.5l114 -29q-20 -77 -32 -146.5t-12 -124.5
q0 -120 62.5 -189t204.5 -97.5t382 -28.5q245 0 386.5 30t202 100.5t60.5 191.5q0 118 -42 264z" />
    <glyph glyph-name="uniFB53" unicode="&#x67b;" horiz-adv-x="1945" arabic-form="final" 
d="M731 -364l119 119l120 -119l-120 -120zM731 -714l119 120l120 -120l-120 -119zM1681 611q-12 -68 -20 -126.5t-8 -118.5q0 -68 23 -122.5t86 -86t182 -31.5h1v-126h-1q-343 0 -384 283h-10q-91 -161 -289 -222t-477 -61q-355 0 -512.5 120t-157.5 342q0 69 15 148.5
t43 161.5l111 -35q-53 -154 -53 -268q0 -172 135.5 -257.5t440.5 -85.5q204 0 341.5 29t222.5 90t131 156t66 227z" />
    <glyph glyph-name="uniFB54" unicode="&#x67b;" horiz-adv-x="579" arabic-form="initial" 
d="M24 -364l119 119l120 -119l-120 -120zM24 -714l119 120l120 -120l-120 -119zM407 742q26 -103 42.5 -194.5t16.5 -167.5q0 -182 -96.5 -281t-314.5 -99h-55q-26 0 -26 63t26 63h55q160 0 227 65.5t67 189.5q0 65 -16.5 148.5t-40.5 181.5z" />
    <glyph glyph-name="uniFB55" unicode="&#x67b;" horiz-adv-x="846" arabic-form="medial" 
d="M24 -364l119 119l120 -119l-120 -120zM24 -714l119 120l120 -120l-120 -119zM486 459q0 -105 21.5 -179.5t81.5 -114t176 -39.5h81v-126h-85q-127 0 -216.5 62t-116.5 178h-10q-27 -117 -130 -178.5t-234 -61.5h-54q-26 0 -26 63t26 63h54q129 0 195.5 39.5t90 114.5
t23.5 179v125h123v-125z" />
    <glyph glyph-name="uniFB56" unicode="&#x67e;" horiz-adv-x="1762" arabic-form="isolated" 
d="M1599 741q23 -78 36.5 -154t13.5 -146q0 -169 -77 -265t-246 -136t-445 -40q-273 0 -442 39.5t-247 133t-78 256.5q0 65 13 144.5t35 167.5l114 -29q-20 -77 -32 -146.5t-12 -124.5q0 -120 62.5 -189t204.5 -97.5t382 -28.5q245 0 386.5 30t202 100.5t60.5 191.5
q0 118 -42 264zM934 -365l120 120l119 -120l-119 -119zM586 -365l119 120l120 -120l-120 -119zM761 -667l119 120l120 -120l-120 -119z" />
    <glyph glyph-name="uniFB57" unicode="&#x67e;" horiz-adv-x="1945" arabic-form="final" 
d="M902 -364l120 120l119 -120l-119 -119zM554 -364l119 120l120 -120l-120 -119zM729 -666l119 120l120 -120l-120 -119zM1681 611q-12 -68 -20 -126.5t-8 -118.5q0 -68 23 -122.5t86 -86t182 -31.5h1v-126h-1q-343 0 -384 283h-10q-91 -161 -289 -222t-477 -61
q-355 0 -512.5 120t-157.5 342q0 69 15 148.5t43 161.5l111 -35q-53 -154 -53 -268q0 -172 135.5 -257.5t440.5 -85.5q204 0 341.5 29t222.5 90t131 156t66 227z" />
    <glyph glyph-name="uniFB58" unicode="&#x67e;" horiz-adv-x="579" arabic-form="initial" 
d="M196 -364l120 120l119 -120l-119 -119zM-152 -364l119 120l120 -120l-120 -119zM23 -666l119 120l120 -120l-120 -119zM407 742q26 -103 42.5 -194.5t16.5 -167.5q0 -182 -96.5 -281t-314.5 -99h-55q-26 0 -26 63t26 63h55q160 0 227 65.5t67 189.5q0 65 -16.5 148.5
t-40.5 181.5z" />
    <glyph glyph-name="uniFB59" unicode="&#x67e;" horiz-adv-x="846" arabic-form="medial" 
d="M165 -364l120 120l119 -120l-119 -119zM-183 -364l119 120l120 -120l-120 -119zM-8 -666l119 120l120 -120l-120 -119zM486 459q0 -105 21.5 -179.5t81.5 -114t176 -39.5h81v-126h-85q-127 0 -216.5 62t-116.5 178h-10q-27 -117 -130 -178.5t-234 -61.5h-54q-26 0 -26 63
t26 63h54q129 0 195.5 39.5t90 114.5t23.5 179v125h123v-125z" />
    <glyph glyph-name="uniFB5A" unicode="&#x680;" horiz-adv-x="1762" arabic-form="isolated" 
d="M934 -364l120 119l119 -119l-119 -120zM586 -364l119 119l120 -119l-120 -120zM586 -713l119 120l120 -120l-120 -119zM934 -713l120 120l119 -120l-119 -119zM1599 741q23 -78 36.5 -154t13.5 -146q0 -169 -77 -265t-246 -136t-445 -40q-273 0 -442 39.5t-247 133
t-78 256.5q0 65 13 144.5t35 167.5l114 -29q-20 -77 -32 -146.5t-12 -124.5q0 -120 62.5 -189t204.5 -97.5t382 -28.5q245 0 386.5 30t202 100.5t60.5 191.5q0 118 -42 264z" />
    <glyph glyph-name="uniFB5B" unicode="&#x680;" horiz-adv-x="1945" arabic-form="final" 
d="M902 -364l120 119l119 -119l-119 -120zM554 -364l119 119l120 -119l-120 -120zM554 -713l119 120l120 -120l-120 -119zM902 -713l120 120l119 -120l-119 -119zM1681 611q-12 -68 -20 -126.5t-8 -118.5q0 -68 23 -122.5t86 -86t182 -31.5h1v-126h-1q-343 0 -384 283h-10
q-91 -161 -289 -222t-477 -61q-355 0 -512.5 120t-157.5 342q0 69 15 148.5t43 161.5l111 -35q-53 -154 -53 -268q0 -172 135.5 -257.5t440.5 -85.5q204 0 341.5 29t222.5 90t131 156t66 227z" />
    <glyph glyph-name="uniFB5C" unicode="&#x680;" horiz-adv-x="579" arabic-form="initial" 
d="M196 -364l120 119l119 -119l-119 -120zM-152 -364l119 119l120 -119l-120 -120zM-152 -713l119 120l120 -120l-120 -119zM196 -713l120 120l119 -120l-119 -119zM407 742q26 -103 42.5 -194.5t16.5 -167.5q0 -182 -96.5 -281t-314.5 -99h-55q-26 0 -26 63t26 63h55
q160 0 227 65.5t67 189.5q0 65 -16.5 148.5t-40.5 181.5z" />
    <glyph glyph-name="uniFB5D" unicode="&#x680;" horiz-adv-x="846" arabic-form="medial" 
d="M165 -364l120 119l119 -119l-119 -120zM-183 -364l119 119l120 -119l-120 -120zM-183 -713l119 120l120 -120l-120 -119zM165 -713l120 120l119 -120l-119 -119zM486 459q0 -105 21.5 -179.5t81.5 -114t176 -39.5h81v-126h-85q-127 0 -216.5 62t-116.5 178h-10
q-27 -117 -130 -178.5t-234 -61.5h-54q-26 0 -26 63t26 63h54q129 0 195.5 39.5t90 114.5t23.5 179v125h123v-125z" />
    <glyph glyph-name="uniFB5E" unicode="&#x67a;" horiz-adv-x="1762" arabic-form="isolated" 
d="M1599 741q23 -78 36.5 -154t13.5 -146q0 -169 -77 -265t-246 -136t-445 -40q-273 0 -442 39.5t-247 133t-78 256.5q0 65 13 144.5t35 167.5l114 -29q-20 -77 -32 -146.5t-12 -124.5q0 -120 62.5 -189t204.5 -97.5t382 -28.5q245 0 386.5 30t202 100.5t60.5 191.5
q0 118 -42 264zM761 1046l119 119l120 -119l-120 -120zM761 696l119 120l120 -120l-120 -119z" />
    <glyph glyph-name="uniFB5F" unicode="&#x67a;" horiz-adv-x="1945" arabic-form="final" 
d="M783 1137l119 119l120 -119l-120 -120zM783 787l119 120l120 -120l-120 -119zM1681 611q-12 -68 -20 -126.5t-8 -118.5q0 -68 23 -122.5t86 -86t182 -31.5h1v-126h-1q-343 0 -384 283h-10q-91 -161 -289 -222t-477 -61q-355 0 -512.5 120t-157.5 342q0 69 15 148.5
t43 161.5l111 -35q-53 -154 -53 -268q0 -172 135.5 -257.5t440.5 -85.5q204 0 341.5 29t222.5 90t131 156t66 227z" />
    <glyph glyph-name="uniFB60" unicode="&#x67a;" horiz-adv-x="579" arabic-form="initial" 
d="M116 1477l119 119l120 -119l-120 -120zM116 1127l119 120l120 -120l-120 -119zM407 742q26 -103 42.5 -194.5t16.5 -167.5q0 -182 -96.5 -281t-314.5 -99h-55q-26 0 -26 63t26 63h55q160 0 227 65.5t67 189.5q0 65 -16.5 148.5t-40.5 181.5z" />
    <glyph glyph-name="uniFB61" unicode="&#x67a;" horiz-adv-x="846" arabic-form="medial" 
d="M199 1320l119 119l120 -119l-120 -120zM199 970l119 120l120 -120l-120 -119zM486 459q0 -105 21.5 -179.5t81.5 -114t176 -39.5h81v-126h-85q-127 0 -216.5 62t-116.5 178h-10q-27 -117 -130 -178.5t-234 -61.5h-54q-26 0 -26 63t26 63h54q129 0 195.5 39.5t90 114.5
t23.5 179v125h123v-125z" />
    <glyph glyph-name="uniFB62" unicode="&#x67f;" horiz-adv-x="1762" arabic-form="isolated" 
d="M934 1184l120 119l119 -119l-119 -120zM586 1184l119 119l120 -119l-120 -120zM586 835l119 120l120 -120l-120 -119zM934 835l120 120l119 -120l-119 -119zM1599 741q23 -78 36.5 -154t13.5 -146q0 -169 -77 -265t-246 -136t-445 -40q-273 0 -442 39.5t-247 133
t-78 256.5q0 65 13 144.5t35 167.5l114 -29q-20 -77 -32 -146.5t-12 -124.5q0 -120 62.5 -189t204.5 -97.5t382 -28.5q245 0 386.5 30t202 100.5t60.5 191.5q0 118 -42 264z" />
    <glyph glyph-name="uniFB63" unicode="&#x67f;" horiz-adv-x="1945" arabic-form="final" 
d="M956 1137l120 119l119 -119l-119 -120zM608 1137l119 119l120 -119l-120 -120zM608 788l119 120l120 -120l-120 -119zM956 788l120 120l119 -120l-119 -119zM1681 611q-12 -68 -20 -126.5t-8 -118.5q0 -68 23 -122.5t86 -86t182 -31.5h1v-126h-1q-343 0 -384 283h-10
q-91 -161 -289 -222t-477 -61q-355 0 -512.5 120t-157.5 342q0 69 15 148.5t43 161.5l111 -35q-53 -154 -53 -268q0 -172 135.5 -257.5t440.5 -85.5q204 0 341.5 29t222.5 90t131 156t66 227z" />
    <glyph glyph-name="uniFB64" unicode="&#x67f;" horiz-adv-x="579" arabic-form="initial" 
d="M310 1474l120 119l119 -119l-119 -120zM-38 1474l119 119l120 -119l-120 -120zM-38 1125l119 120l120 -120l-120 -119zM310 1125l120 120l119 -120l-119 -119zM407 742q26 -103 42.5 -194.5t16.5 -167.5q0 -182 -96.5 -281t-314.5 -99h-55q-26 0 -26 63t26 63h55
q160 0 227 65.5t67 189.5q0 65 -16.5 148.5t-40.5 181.5z" />
    <glyph glyph-name="uniFB65" unicode="&#x67f;" horiz-adv-x="846" arabic-form="medial" 
d="M379 1259l120 119l119 -119l-119 -120zM31 1259l119 119l120 -119l-120 -120zM31 910l119 120l120 -120l-120 -119zM379 910l120 120l119 -120l-119 -119zM486 459q0 -105 21.5 -179.5t81.5 -114t176 -39.5h81v-126h-85q-127 0 -216.5 62t-116.5 178h-10
q-27 -117 -130 -178.5t-234 -61.5h-54q-26 0 -26 63t26 63h54q129 0 195.5 39.5t90 114.5t23.5 179v125h123v-125z" />
    <glyph glyph-name="uniFB66" unicode="&#x679;" horiz-adv-x="1762" arabic-form="isolated" 
d="M1599 741q23 -78 36.5 -154t13.5 -146q0 -169 -77 -265t-246 -136t-445 -40q-273 0 -442 39.5t-247 133t-78 256.5q0 65 13 144.5t35 167.5l114 -29q-20 -77 -32 -146.5t-12 -124.5q0 -120 62.5 -189t204.5 -97.5t382 -28.5q245 0 386.5 30t202 100.5t60.5 191.5
q0 118 -42 264zM697 769v422h69v-323h10q68 73 121 108.5t106 35.5q62 0 101 -40.5t39 -102.5q0 -171 -256 -171h-326v71h136zM755 769h132q98 0 144 22t46 72q0 36 -23.5 57.5t-61.5 21.5q-51 0 -101.5 -38.5t-135.5 -134.5z" />
    <glyph glyph-name="uniFB67" unicode="&#x679;" horiz-adv-x="1945" arabic-form="final" 
d="M760 783v422h69v-323h10q68 73 121 108.5t106 35.5q62 0 101 -40.5t39 -102.5q0 -171 -256 -171h-326v71h136zM818 783h132q98 0 144 22t46 72q0 36 -23.5 57.5t-61.5 21.5q-51 0 -101.5 -38.5t-135.5 -134.5zM1681 611q-12 -68 -20 -126.5t-8 -118.5q0 -68 23 -122.5
t86 -86t182 -31.5h1v-126h-1q-343 0 -384 283h-10q-91 -161 -289 -222t-477 -61q-355 0 -512.5 120t-157.5 342q0 69 15 148.5t43 161.5l111 -35q-53 -154 -53 -268q0 -172 135.5 -257.5t440.5 -85.5q204 0 341.5 29t222.5 90t131 156t66 227z" />
    <glyph glyph-name="uniFB68" unicode="&#x679;" horiz-adv-x="579" arabic-form="initial" 
d="M100 1120v422h69v-323h10q68 73 121 108.5t106 35.5q62 0 101 -40.5t39 -102.5q0 -171 -256 -171h-326v71h136zM158 1120h132q98 0 144 22t46 72q0 36 -23.5 57.5t-61.5 21.5q-51 0 -101.5 -38.5t-135.5 -134.5zM407 742q26 -103 42.5 -194.5t16.5 -167.5
q0 -182 -96.5 -281t-314.5 -99h-55q-26 0 -26 63t26 63h55q160 0 227 65.5t67 189.5q0 65 -16.5 148.5t-40.5 181.5z" />
    <glyph glyph-name="uniFB69" unicode="&#x679;" horiz-adv-x="846" arabic-form="medial" 
d="M150 970v422h69v-323h10q68 73 121 108.5t106 35.5q62 0 101 -40.5t39 -102.5q0 -171 -256 -171h-326v71h136zM208 970h132q98 0 144 22t46 72q0 36 -23.5 57.5t-61.5 21.5q-51 0 -101.5 -38.5t-135.5 -134.5zM486 459q0 -105 21.5 -179.5t81.5 -114t176 -39.5h81v-126
h-85q-127 0 -216.5 62t-116.5 178h-10q-27 -117 -130 -178.5t-234 -61.5h-54q-26 0 -26 63t26 63h54q129 0 195.5 39.5t90 114.5t23.5 179v125h123v-125z" />
    <glyph glyph-name="uniFB6A" unicode="&#x6a4;" horiz-adv-x="1804" arabic-form="isolated" 
d="M1567 432q-151 -37 -276 -37q-315 0 -315 269q0 133 42 234t116 158t170 57q116 0 200.5 -82t130.5 -232t46 -355q0 -127 -40 -213t-132.5 -136.5t-249.5 -72.5t-391 -22q-277 0 -442.5 38.5t-238.5 129t-73 244.5q0 62 12 143t34 182l114 -26q-42 -190 -42 -286
q0 -116 60 -181t201 -91.5t384 -26.5q212 0 347.5 13t210 46t103.5 93t29 154zM1555 546q-12 209 -79 326t-176 117q-94 0 -156 -88.5t-62 -222.5q0 -167 214 -167q111 0 259 35zM1172 1821l119 119l120 -119l-120 -120zM1346 1518l120 120l119 -120l-119 -119zM998 1518
l119 120l120 -120l-120 -119z" />
    <glyph glyph-name="uniFB6B" unicode="&#x6a4;" horiz-adv-x="1940" arabic-form="final" 
d="M1317 1579l119 119l120 -119l-120 -120zM1491 1276l120 120l119 -120l-119 -119zM1143 1276l119 120l120 -120l-120 -119zM1437 87q-112 -47 -249.5 -67t-283.5 -20q-177 0 -322 15.5t-249.5 58t-161.5 123t-57 210.5q0 84 21 172t48 168l109 -38q-23 -70 -41.5 -146
t-18.5 -148q0 -118 75.5 -180t225 -85t371.5 -24q103 0 209 9t197 30l1 9q-96 53 -158.5 138t-62.5 209q0 173 99 270t249 97q99 0 178 -44t125 -126t46 -196q0 -124 -66 -210.5t-163 -139.5l2 -10q56 -18 120 -27t130 -9h130v-126h-148q-106 0 -188 22t-167 65zM1438 207
q101 47 164.5 121.5t63.5 190.5q0 112 -64 179.5t-164 67.5q-101 0 -164.5 -67t-63.5 -180q0 -114 64 -189.5t164 -122.5z" />
    <glyph glyph-name="uniFB6C" unicode="&#x6a4;" horiz-adv-x="960" arabic-form="initial" 
d="M344 1816l119 119l120 -119l-120 -120zM518 1513l120 120l119 -120l-119 -119zM170 1513l119 120l120 -120l-120 -119zM0 126h349q207 0 295 71t88 235q-145 -37 -276 -37q-317 0 -317 269q0 133 42 234t116 158t171 57q116 0 200.5 -82t130.5 -232t46 -355
q0 -231 -124.5 -337.5t-393.5 -106.5h-327q-26 0 -26 63t26 63zM719 546q-12 209 -79.5 326t-176.5 117q-94 0 -155.5 -88t-61.5 -223q0 -167 214 -167q110 0 259 35z" />
    <glyph glyph-name="uniFB6D" unicode="&#x6a4;" horiz-adv-x="980" arabic-form="medial" 
d="M369 1579l119 119l120 -119l-120 -120zM543 1276l120 120l119 -120l-119 -119zM195 1276l119 120l120 -120l-120 -119zM141 521q0 173 99.5 270t249.5 97q98 0 177 -44t125 -126t46 -196q0 -124 -65.5 -210.5t-161.5 -139.5l1 -10q108 -36 241 -36h127v-126h-145
q-103 0 -183.5 22t-163.5 65q-82 -43 -163.5 -65t-186.5 -22h-138q-26 0 -26 63t26 63h122q131 0 248 36l1 10q-97 53 -163.5 139t-66.5 210zM489 203q101 47 164.5 123.5t63.5 192.5q0 112 -63.5 179.5t-163.5 67.5q-101 0 -165 -67t-64 -180q0 -115 64 -191.5t164 -124.5z
" />
    <glyph glyph-name="uniFB6E" unicode="&#x6a6;" horiz-adv-x="1804" arabic-form="isolated" 
d="M1351 1870l120 119l119 -119l-119 -120zM1003 1870l119 119l120 -119l-120 -120zM1003 1521l119 120l120 -120l-120 -119zM1351 1521l120 120l119 -120l-119 -119zM1567 432q-151 -37 -276 -37q-315 0 -315 269q0 133 42 234t116 158t170 57q116 0 200.5 -82t130.5 -232
t46 -355q0 -127 -40 -213t-132.5 -136.5t-249.5 -72.5t-391 -22q-277 0 -442.5 38.5t-238.5 129t-73 244.5q0 62 12 143t34 182l114 -26q-42 -190 -42 -286q0 -116 60 -181t201 -91.5t384 -26.5q212 0 347.5 13t210 46t103.5 93t29 154zM1555 546q-12 209 -79 326t-176 117
q-94 0 -156 -88.5t-62 -222.5q0 -167 214 -167q111 0 259 35z" />
    <glyph glyph-name="uniFB6F" unicode="&#x6a6;" horiz-adv-x="1940" arabic-form="final" 
d="M1491 1625l120 119l119 -119l-119 -120zM1143 1625l119 119l120 -119l-120 -120zM1143 1276l119 120l120 -120l-120 -119zM1491 1276l120 120l119 -120l-119 -119zM1437 87q-112 -47 -249.5 -67t-283.5 -20q-177 0 -322 15.5t-249.5 58t-161.5 123t-57 210.5q0 84 21 172
t48 168l109 -38q-23 -70 -41.5 -146t-18.5 -148q0 -118 75.5 -180t225 -85t371.5 -24q103 0 209 9t197 30l1 9q-96 53 -158.5 138t-62.5 209q0 173 99 270t249 97q99 0 178 -44t125 -126t46 -196q0 -124 -66 -210.5t-163 -139.5l2 -10q56 -18 120 -27t130 -9h130v-126h-148
q-106 0 -188 22t-167 65zM1438 207q101 47 164.5 121.5t63.5 190.5q0 112 -64 179.5t-164 67.5q-101 0 -164.5 -67t-63.5 -180q0 -114 64 -189.5t164 -122.5z" />
    <glyph glyph-name="uniFB70" unicode="&#x6a6;" horiz-adv-x="960" arabic-form="initial" 
d="M518 1862l120 119l119 -119l-119 -120zM170 1862l119 119l120 -119l-120 -120zM170 1513l119 120l120 -120l-120 -119zM518 1513l120 120l119 -120l-119 -119zM0 126h349q207 0 295 71t88 235q-145 -37 -276 -37q-317 0 -317 269q0 133 42 234t116 158t171 57
q116 0 200.5 -82t130.5 -232t46 -355q0 -231 -124.5 -337.5t-393.5 -106.5h-327q-26 0 -26 63t26 63zM719 546q-12 209 -79.5 326t-176.5 117q-94 0 -155.5 -88t-61.5 -223q0 -167 214 -167q110 0 259 35z" />
    <glyph glyph-name="uniFB71" unicode="&#x6a6;" horiz-adv-x="980" arabic-form="medial" 
d="M543 1625l120 119l119 -119l-119 -120zM195 1625l119 119l120 -119l-120 -120zM195 1276l119 120l120 -120l-120 -119zM543 1276l120 120l119 -120l-119 -119zM141 521q0 173 99.5 270t249.5 97q98 0 177 -44t125 -126t46 -196q0 -124 -65.5 -210.5t-161.5 -139.5l1 -10
q108 -36 241 -36h127v-126h-145q-103 0 -183.5 22t-163.5 65q-82 -43 -163.5 -65t-186.5 -22h-138q-26 0 -26 63t26 63h122q131 0 248 36l1 10q-97 53 -163.5 139t-66.5 210zM489 203q101 47 164.5 123.5t63.5 192.5q0 112 -63.5 179.5t-163.5 67.5q-101 0 -165 -67
t-64 -180q0 -115 64 -191.5t164 -124.5z" />
    <glyph glyph-name="uniFB72" unicode="&#x684;" horiz-adv-x="1346" arabic-form="isolated" 
d="M745 -108l-96 96l96 96l96 -96zM745 -349l-96 96l96 96l96 -96zM451 847q49 0 120 -20.5t201 -79.5q137 -61 230 -96.5t183 -58.5l-11 -150q-123 -15 -254.5 -49.5t-254.5 -88.5t-221.5 -126.5t-156.5 -164t-58 -201.5q0 -117 72 -194.5t192 -115.5t263 -38q115 0 229 23
t214 66l57 -112q-121 -53 -249 -80t-253 -27q-177 0 -323.5 52.5t-234 156.5t-87.5 258q0 150 81 270t215.5 209.5t298.5 148.5t329 87v10q-68 18 -144 46t-176 70q-109 45 -168 63.5t-95 18.5q-67 0 -113 -45t-87 -152l-7 -17l-94 31l7 18q53 155 122.5 221.5t172.5 66.5z
" />
    <glyph glyph-name="uniFB73" unicode="&#x684;" horiz-adv-x="1348" arabic-form="final" 
d="M716 -185l-96 96l96 96l96 -96zM716 -426l-96 96l96 96l96 -96zM451 807q53 0 126.5 -22.5t194.5 -77.5q142 -63 234.5 -97.5t178.5 -57.5l-11 -150q-69 -9 -121 -17.5t-93 -19.5v-10q52 -121 130.5 -175t201.5 -54h56v-126h-50q-157 0 -260 82.5t-162 255.5
q-193 -51 -338.5 -139t-227 -198t-81.5 -229q0 -105 65 -183.5t183.5 -121.5t278.5 -43q242 0 443 89l57 -112q-243 -107 -502 -107q-195 0 -340 58t-225 163t-80 246q0 168 116 313.5t324 250.5t484 151v10q-63 17 -137 43.5t-183 72.5q-109 45 -168 63.5t-95 18.5
q-67 0 -113 -45t-87 -152l-7 -17l-94 31l7 18q53 153 122 220.5t173 67.5z" />
    <glyph glyph-name="uniFB74" unicode="&#x684;" horiz-adv-x="1244" arabic-form="initial" 
d="M386 -364l119 119l120 -119l-120 -120zM386 -714l119 120l120 -120l-120 -119zM404 798q48 0 117.5 -22t204.5 -80q128 -56 220 -89t184 -57v-116l-487 -273q-154 -86 -283.5 -123.5t-275.5 -37.5h-84q-26 0 -26 63t26 63h104q124 0 233.5 31t254.5 106l388 205v10
q-67 18 -142 45t-173 70q-108 44 -167 63t-95 19q-67 0 -113 -45t-88 -152l-6 -17l-94 31l6 17q55 154 124 221.5t172 67.5z" />
    <glyph glyph-name="uniFB75" unicode="&#x684;" horiz-adv-x="1291" arabic-form="medial" 
d="M386 -364l119 119l120 -119l-120 -120zM386 -714l119 120l120 -120l-120 -119zM404 798q48 0 118 -21t204 -81q128 -56 220 -89t184 -57v-116l-245 -134v-10q74 -94 154 -129t176 -35h76v-126h-80q-118 0 -222.5 54t-196.5 190l-149 -83q-154 -86 -283.5 -123.5
t-275.5 -37.5h-84q-26 0 -26 63t26 63h104q124 0 233.5 30.5t254.5 106.5l388 205v10q-125 34 -315 115q-108 44 -167 63t-95 19q-67 0 -113 -45t-88 -152l-6 -17l-94 31l6 17q56 154 124.5 221.5t171.5 67.5z" />
    <glyph glyph-name="uniFB76" unicode="&#x683;" horiz-adv-x="1346" arabic-form="isolated" 
d="M800 -145l96 96l96 -96l-96 -96zM527 -145l96 96l96 -96l-96 -96zM451 847q49 0 120 -20.5t201 -79.5q137 -61 230 -96.5t183 -58.5l-11 -150q-123 -15 -254.5 -49.5t-254.5 -88.5t-221.5 -126.5t-156.5 -164t-58 -201.5q0 -117 72 -194.5t192 -115.5t263 -38
q115 0 229 23t214 66l57 -112q-121 -53 -249 -80t-253 -27q-177 0 -323.5 52.5t-234 156.5t-87.5 258q0 150 81 270t215.5 209.5t298.5 148.5t329 87v10q-68 18 -144 46t-176 70q-109 45 -168 63.5t-95 18.5q-67 0 -113 -45t-87 -152l-7 -17l-94 31l7 18q53 155 122.5 221.5
t172.5 66.5z" />
    <glyph glyph-name="uniFB77" unicode="&#x683;" horiz-adv-x="1348" arabic-form="final" 
d="M793 -194l96 96l96 -96l-96 -96zM520 -194l96 96l96 -96l-96 -96zM451 807q53 0 126.5 -22.5t194.5 -77.5q142 -63 234.5 -97.5t178.5 -57.5l-11 -150q-69 -9 -121 -17.5t-93 -19.5v-10q52 -121 130.5 -175t201.5 -54h56v-126h-50q-157 0 -260 82.5t-162 255.5
q-193 -51 -338.5 -139t-227 -198t-81.5 -229q0 -105 65 -183.5t183.5 -121.5t278.5 -43q242 0 443 89l57 -112q-243 -107 -502 -107q-195 0 -340 58t-225 163t-80 246q0 168 116 313.5t324 250.5t484 151v10q-63 17 -137 43.5t-183 72.5q-109 45 -168 63.5t-95 18.5
q-67 0 -113 -45t-87 -152l-7 -17l-94 31l7 18q53 153 122 220.5t173 67.5z" />
    <glyph glyph-name="uniFB78" unicode="&#x683;" horiz-adv-x="1244" arabic-form="initial" 
d="M225 -322l119 120l120 -120l-120 -119zM573 -322l120 120l119 -120l-119 -119zM404 798q48 0 117.5 -22t204.5 -80q128 -56 220 -89t184 -57v-116l-487 -273q-154 -86 -283.5 -123.5t-275.5 -37.5h-84q-26 0 -26 63t26 63h104q124 0 233.5 31t254.5 106l388 205v10
q-67 18 -142 45t-173 70q-108 44 -167 63t-95 19q-67 0 -113 -45t-88 -152l-6 -17l-94 31l6 17q55 154 124 221.5t172 67.5z" />
    <glyph glyph-name="uniFB79" unicode="&#x683;" horiz-adv-x="1291" arabic-form="medial" 
d="M225 -322l119 120l120 -120l-120 -119zM573 -322l120 120l119 -120l-119 -119zM404 798q48 0 118 -21t204 -81q128 -56 220 -89t184 -57v-116l-245 -134v-10q74 -94 154 -129t176 -35h76v-126h-80q-118 0 -222.5 54t-196.5 190l-149 -83q-154 -86 -283.5 -123.5
t-275.5 -37.5h-84q-26 0 -26 63t26 63h104q124 0 233.5 30.5t254.5 106.5l388 205v10q-125 34 -315 115q-108 44 -167 63t-95 19q-67 0 -113 -45t-88 -152l-6 -17l-94 31l6 17q56 154 124.5 221.5t171.5 67.5z" />
    <glyph glyph-name="uniFB7A" unicode="&#x686;" horiz-adv-x="1429" arabic-form="isolated" 
d="M451 847q49 0 120 -20.5t201 -79.5q137 -61 230 -96.5t183 -58.5l-11 -150q-123 -15 -254.5 -49.5t-254.5 -88.5t-221.5 -126.5t-156.5 -164t-58 -201.5q0 -117 72 -194.5t192 -115.5t263 -38q115 0 229 23t214 66l57 -112q-121 -53 -249 -80t-253 -27
q-177 0 -323.5 52.5t-234 156.5t-87.5 258q0 150 81 270t215.5 209.5t298.5 148.5t329 87v10q-68 18 -144 46t-176 70q-109 45 -168 63.5t-95 18.5q-67 0 -113 -45t-87 -152l-7 -17l-94 31l7 18q53 155 122.5 221.5t172.5 66.5zM486 -52l99 99l98 -99l-98 -99zM803 -52
l99 98l99 -98l-99 -99zM646 -295l97 96l96 -96l-96 -97z" />
    <glyph glyph-name="uniFB7B" unicode="&#x686;" horiz-adv-x="1348" arabic-form="final" 
d="M465 -92l99 99l98 -99l-98 -99zM782 -92l99 98l99 -98l-99 -99zM625 -335l97 96l96 -96l-96 -97zM451 807q53 0 126.5 -22.5t194.5 -77.5q142 -63 234.5 -97.5t178.5 -57.5l-11 -150q-69 -9 -121 -17.5t-93 -19.5v-10q52 -121 130.5 -175t201.5 -54h56v-126h-50
q-157 0 -260 82.5t-162 255.5q-193 -51 -338.5 -139t-227 -198t-81.5 -229q0 -105 65 -183.5t183.5 -121.5t278.5 -43q242 0 443 89l57 -112q-243 -107 -502 -107q-195 0 -340 58t-225 163t-80 246q0 168 116 313.5t324 250.5t484 151v10q-63 17 -137 43.5t-183 72.5
q-109 45 -168 63.5t-95 18.5q-67 0 -113 -45t-87 -152l-7 -17l-94 31l7 18q53 153 122 220.5t173 67.5z" />
    <glyph glyph-name="uniFB7C" unicode="&#x686;" horiz-adv-x="1244" arabic-form="initial" 
d="M573 -311l120 120l119 -120l-119 -119zM225 -311l119 120l120 -120l-120 -119zM400 -613l119 120l120 -120l-120 -119zM404 798q48 0 117.5 -22t204.5 -80q128 -56 220 -89t184 -57v-116l-487 -273q-154 -86 -283.5 -123.5t-275.5 -37.5h-84q-26 0 -26 63t26 63h104
q124 0 233.5 31t254.5 106l388 205v10q-67 18 -142 45t-173 70q-108 44 -167 63t-95 19q-67 0 -113 -45t-88 -152l-6 -17l-94 31l6 17q55 154 124 221.5t172 67.5z" />
    <glyph glyph-name="uniFB7D" unicode="&#x686;" horiz-adv-x="1291" arabic-form="medial" 
d="M573 -311l120 120l119 -120l-119 -119zM225 -311l119 120l120 -120l-120 -119zM400 -613l119 120l120 -120l-120 -119zM404 798q48 0 118 -21t204 -81q128 -56 220 -89t184 -57v-116l-245 -134v-10q74 -94 154 -129t176 -35h76v-126h-80q-118 0 -222.5 54t-196.5 190
l-149 -83q-154 -86 -283.5 -123.5t-275.5 -37.5h-84q-26 0 -26 63t26 63h104q124 0 233.5 30.5t254.5 106.5l388 205v10q-125 34 -315 115q-108 44 -167 63t-95 19q-67 0 -113 -45t-88 -152l-6 -17l-94 31l6 17q56 154 124.5 221.5t171.5 67.5z" />
    <glyph glyph-name="uniFB7E" unicode="&#x687;" horiz-adv-x="1346" arabic-form="isolated" 
d="M526 15l98 98l98 -98l-98 -98zM798 15l98 98l98 -98l-98 -98zM526 -256l98 98l98 -98l-98 -98zM798 -256l98 98l98 -98l-98 -98zM451 847q49 0 120 -20.5t201 -79.5q137 -61 230 -96.5t183 -58.5l-11 -150q-123 -15 -254.5 -49.5t-254.5 -88.5t-221.5 -126.5t-156.5 -164
t-58 -201.5q0 -117 72 -194.5t192 -115.5t263 -38q115 0 229 23t214 66l57 -112q-121 -53 -249 -80t-253 -27q-177 0 -323.5 52.5t-234 156.5t-87.5 258q0 150 81 270t215.5 209.5t298.5 148.5t329 87v10q-68 18 -144 46t-176 70q-109 45 -168 63.5t-95 18.5q-67 0 -113 -45
t-87 -152l-7 -17l-94 31l7 18q53 155 122.5 221.5t172.5 66.5z" />
    <glyph glyph-name="uniFB7F" unicode="&#x687;" horiz-adv-x="1348" arabic-form="final" 
d="M483 -55l98 98l98 -98l-98 -98zM755 -55l98 98l98 -98l-98 -98zM483 -326l98 98l98 -98l-98 -98zM755 -326l98 98l98 -98l-98 -98zM451 807q53 0 126.5 -22.5t194.5 -77.5q142 -63 234.5 -97.5t178.5 -57.5l-11 -150q-69 -9 -121 -17.5t-93 -19.5v-10q52 -121 130.5 -175
t201.5 -54h56v-126h-50q-157 0 -260 82.5t-162 255.5q-193 -51 -338.5 -139t-227 -198t-81.5 -229q0 -105 65 -183.5t183.5 -121.5t278.5 -43q242 0 443 89l57 -112q-243 -107 -502 -107q-195 0 -340 58t-225 163t-80 246q0 168 116 313.5t324 250.5t484 151v10
q-63 17 -137 43.5t-183 72.5q-109 45 -168 63.5t-95 18.5q-67 0 -113 -45t-87 -152l-7 -17l-94 31l7 18q53 153 122 220.5t173 67.5z" />
    <glyph glyph-name="uniFB80" unicode="&#x687;" horiz-adv-x="1244" arabic-form="initial" 
d="M573 -322l120 119l119 -119l-119 -120zM225 -322l119 119l120 -119l-120 -120zM225 -671l119 120l120 -120l-120 -119zM573 -671l120 120l119 -120l-119 -119zM404 798q48 0 117.5 -22t204.5 -80q128 -56 220 -89t184 -57v-116l-487 -273q-154 -86 -283.5 -123.5
t-275.5 -37.5h-84q-26 0 -26 63t26 63h104q124 0 233.5 31t254.5 106l388 205v10q-67 18 -142 45t-173 70q-108 44 -167 63t-95 19q-67 0 -113 -45t-88 -152l-6 -17l-94 31l6 17q55 154 124 221.5t172 67.5z" />
    <glyph glyph-name="uniFB81" unicode="&#x687;" horiz-adv-x="1291" arabic-form="medial" 
d="M573 -322l120 119l119 -119l-119 -120zM225 -322l119 119l120 -119l-120 -120zM225 -671l119 120l120 -120l-120 -119zM573 -671l120 120l119 -120l-119 -119zM404 798q48 0 118 -21t204 -81q128 -56 220 -89t184 -57v-116l-245 -134v-10q74 -94 154 -129t176 -35h76
v-126h-80q-118 0 -222.5 54t-196.5 190l-149 -83q-154 -86 -283.5 -123.5t-275.5 -37.5h-84q-26 0 -26 63t26 63h104q124 0 233.5 30.5t254.5 106.5l388 205v10q-125 34 -315 115q-108 44 -167 63t-95 19q-67 0 -113 -45t-88 -152l-6 -17l-94 31l6 17q56 154 124.5 221.5
t171.5 67.5z" />
    <glyph glyph-name="uniFB82" unicode="&#x68d;" horiz-adv-x="1009" arabic-form="isolated" 
d="M99 -365l119 120l120 -120l-120 -119zM447 -365l120 120l119 -120l-119 -119zM896 359q0 -135 -73.5 -215.5t-190 -116.5t-245.5 -36q-133 0 -275 37l29 120q68 -17 128 -24t118 -7q181 0 284.5 60.5t103.5 181.5q0 107 -87 236t-255 281l83 97q188 -169 284 -321
t96 -293z" />
    <glyph glyph-name="uniFB83" unicode="&#x68d;" horiz-adv-x="1278" arabic-form="final" 
d="M224 -365l119 120l120 -120l-120 -119zM572 -365l120 120l119 -120l-119 -119zM697 961l273 -636q50 -117 116 -158t175 -41h17v-126h-17q-129 0 -222 51t-138 171h-10q-50 -112 -163 -172t-244 -60q-95 0 -191 34.5t-181 106.5l65 101q72 -59 151.5 -87t155.5 -28
q108 0 203 50t153 144l-262 593z" />
    <glyph glyph-name="uniFB84" unicode="&#x68c;" horiz-adv-x="1009" arabic-form="isolated" 
d="M227 1357l119 120l120 -120l-120 -119zM575 1357l120 120l119 -120l-119 -119zM896 359q0 -135 -73.5 -215.5t-190 -116.5t-245.5 -36q-133 0 -275 37l29 120q68 -17 128 -24t118 -7q181 0 284.5 60.5t103.5 181.5q0 107 -87 236t-255 281l83 97q188 -169 284 -321
t96 -293z" />
    <glyph glyph-name="uniFB85" unicode="&#x68c;" horiz-adv-x="1278" arabic-form="final" 
d="M338 1357l119 120l120 -120l-120 -119zM686 1357l120 120l119 -120l-119 -119zM697 961l273 -636q50 -117 116 -158t175 -41h17v-126h-17q-129 0 -222 51t-138 171h-10q-50 -112 -163 -172t-244 -60q-95 0 -191 34.5t-181 106.5l65 101q72 -59 151.5 -87t155.5 -28
q108 0 203 50t153 144l-262 593z" />
    <glyph glyph-name="uniFB86" unicode="&#x68e;" horiz-adv-x="1009" arabic-form="isolated" 
d="M401 1660l119 119l120 -119l-120 -120zM575 1357l120 120l119 -120l-119 -119zM227 1357l119 120l120 -120l-120 -119zM896 359q0 -135 -73.5 -215.5t-190 -116.5t-245.5 -36q-133 0 -275 37l29 120q68 -17 128 -24t118 -7q181 0 284.5 60.5t103.5 181.5q0 107 -87 236
t-255 281l83 97q188 -169 284 -321t96 -293z" />
    <glyph glyph-name="uniFB87" unicode="&#x68e;" horiz-adv-x="1278" arabic-form="final" 
d="M512 1660l119 119l120 -119l-120 -120zM686 1357l120 120l119 -120l-119 -119zM338 1357l119 120l120 -120l-120 -119zM697 961l273 -636q50 -117 116 -158t175 -41h17v-126h-17q-129 0 -222 51t-138 171h-10q-50 -112 -163 -172t-244 -60q-95 0 -191 34.5t-181 106.5
l65 101q72 -59 151.5 -87t155.5 -28q108 0 203 50t153 144l-262 593z" />
    <glyph glyph-name="uniFB88" unicode="&#x688;" horiz-adv-x="1009" arabic-form="isolated" 
d="M323 1311v422h69v-323h10q68 73 121 108.5t106 35.5q62 0 101 -40.5t39 -102.5q0 -171 -256 -171h-326v71h136zM381 1311h132q98 0 144 22t46 72q0 36 -23.5 57.5t-61.5 21.5q-51 0 -101.5 -38.5t-135.5 -134.5zM896 359q0 -135 -73.5 -215.5t-190 -116.5t-245.5 -36
q-133 0 -275 37l29 120q68 -17 128 -24t118 -7q181 0 284.5 60.5t103.5 181.5q0 107 -87 236t-255 281l83 97q188 -169 284 -321t96 -293z" />
    <glyph glyph-name="uniFB89" unicode="&#x688;" horiz-adv-x="1278" arabic-form="final" 
d="M456 1305v422h69v-323h10q68 73 121 108.5t106 35.5q62 0 101 -40.5t39 -102.5q0 -171 -256 -171h-326v71h136zM514 1305h132q98 0 144 22t46 72q0 36 -23.5 57.5t-61.5 21.5q-51 0 -101.5 -38.5t-135.5 -134.5zM697 961l273 -636q50 -117 116 -158t175 -41h17v-126h-17
q-129 0 -222 51t-138 171h-10q-50 -112 -163 -172t-244 -60q-95 0 -191 34.5t-181 106.5l65 101q72 -59 151.5 -87t155.5 -28q108 0 203 50t153 144l-262 593z" />
    <glyph glyph-name="uniFB8A" unicode="&#x698;" horiz-adv-x="577" arabic-form="isolated" 
d="M218 562l115 42q57 -163 87.5 -298t30.5 -241q0 -205 -138 -349t-440 -254l-52 115q269 97 389 208.5t120 273.5q0 92 -29.5 222.5t-82.5 280.5zM173 1275l119 119l120 -119l-120 -120zM347 972l120 120l119 -120l-119 -119zM-1 972l119 120l120 -120l-120 -119z" />
    <glyph glyph-name="uniFB8B" unicode="&#x698;" horiz-adv-x="757" arabic-form="final" 
d="M173 1275l119 119l120 -119l-120 -120zM347 972l120 120l119 -120l-119 -119zM-1 972l119 120l120 -120l-120 -119zM218 562l115 42l63 -192q33 -103 76 -166t110.5 -91.5t173.5 -28.5h1v-126h-1q-105 0 -187.5 37t-126.5 104l-10 -4q19 -169 -35 -292t-184 -214.5
t-340 -168.5l-52 115q273 98 391 210t118 272q0 89 -29 219t-83 284z" />
    <glyph glyph-name="uniFB8C" unicode="&#x691;" horiz-adv-x="577" arabic-form="isolated" 
d="M116 999v422h69v-323h10q68 73 121 108.5t106 35.5q62 0 101 -40.5t39 -102.5q0 -171 -256 -171h-326v71h136zM174 999h132q98 0 144 22t46 72q0 36 -23.5 57.5t-61.5 21.5q-51 0 -101.5 -38.5t-135.5 -134.5zM218 562l115 42q57 -163 87.5 -298t30.5 -241
q0 -205 -138 -349t-440 -254l-52 115q269 97 389 208.5t120 273.5q0 92 -29.5 222.5t-82.5 280.5z" />
    <glyph glyph-name="uniFB8D" unicode="&#x691;" horiz-adv-x="757" arabic-form="final" 
d="M116 999v422h69v-323h10q68 73 121 108.5t106 35.5q62 0 101 -40.5t39 -102.5q0 -171 -256 -171h-326v71h136zM174 999h132q98 0 144 22t46 72q0 36 -23.5 57.5t-61.5 21.5q-51 0 -101.5 -38.5t-135.5 -134.5zM218 562l115 42l63 -192q33 -103 76 -166t110.5 -91.5
t173.5 -28.5h1v-126h-1q-105 0 -187.5 37t-126.5 104l-10 -4q19 -169 -35 -292t-184 -214.5t-340 -168.5l-52 115q273 98 391 210t118 272q0 89 -29 219t-83 284z" />
    <glyph glyph-name="uniFB8E" unicode="&#x6a9;" horiz-adv-x="1660" arabic-form="isolated" 
d="M157 743l114 -28q-41 -175 -41 -279q0 -113 54 -181.5t176.5 -98.5t326.5 -30q291 0 446 61.5t155 176.5q0 95 -127.5 219.5t-386.5 304.5l12 133q161 72 365 139.5t427 123.5l21 -127q-231 -58 -400.5 -110.5t-292.5 -103.5l-1 -9q178 -134 289.5 -234t163.5 -181
t52 -159q0 -172 -190.5 -266t-540.5 -94q-238 0 -384.5 43t-213.5 137t-67 247q0 120 43 316z" />
    <glyph glyph-name="uniFB8F" unicode="&#x6a9;" horiz-adv-x="1969" arabic-form="final" 
d="M1470 336q5 -172 -163.5 -254t-525.5 -82q-238 0 -384 43t-212.5 137t-66.5 247q0 127 42 316l114 -28q-41 -179 -41 -279q0 -114 53.5 -182t175.5 -98t325 -30q598 0 598 227q0 181 -511 535l12 133q166 74 370.5 141.5t421.5 121.5l21 -127q-440 -109 -693 -214l-1 -9
q117 -87 199 -154t140.5 -124t102.5 -113t83 -121q70 -119 129.5 -183t131 -88.5t177.5 -24.5h1v-126h-1q-129 0 -220 33t-154.5 106.5t-113.5 196.5h-10z" />
    <glyph glyph-name="uniFB90" unicode="&#x6a9;" horiz-adv-x="821" arabic-form="initial" 
d="M839 1284l21 -127q-232 -58 -401 -110.5t-293 -103.5v-9q180 -134 291 -235t162 -185.5t51 -169.5q0 -166 -143.5 -255t-411.5 -89h-115q-26 0 -26 63t26 63h113q214 0 324.5 57.5t110.5 167.5q0 67 -53.5 141.5t-166.5 170.5t-293 225l11 133q162 72 365.5 139.5
t427.5 123.5z" />
    <glyph glyph-name="uniFB91" unicode="&#x6a9;" horiz-adv-x="1129" arabic-form="medial" 
d="M629 337q4 -175 -124.5 -256t-389.5 -81h-115q-26 0 -26 63t26 63h113q222 0 327.5 59t105.5 165q0 58 -49 132t-160.5 173.5t-301.5 232.5l11 133q167 74 371 141.5t422 121.5l21 -127q-222 -55 -393.5 -108t-300.5 -106v-9q151 -111 248 -194.5t161 -157.5t115 -159
q67 -113 124 -178t129.5 -92t184.5 -27h1v-126h-1q-129 0 -219.5 33t-155 107t-114.5 197h-10z" />
    <glyph glyph-name="uniFB92" unicode="&#x6af;" horiz-adv-x="1660" arabic-form="isolated" 
d="M1520 1553l14 -76q-184 -31 -353.5 -87t-322.5 -134l-36 69q314 161 698 228zM157 743l114 -28q-41 -175 -41 -279q0 -113 54 -181.5t176.5 -98.5t326.5 -30q291 0 446 61.5t155 176.5q0 95 -127.5 219.5t-386.5 304.5l12 133q161 72 365 139.5t427 123.5l21 -127
q-231 -58 -400.5 -110.5t-292.5 -103.5l-1 -9q178 -134 289.5 -234t163.5 -181t52 -159q0 -172 -190.5 -266t-540.5 -94q-238 0 -384.5 43t-213.5 137t-67 247q0 120 43 316z" />
    <glyph glyph-name="uniFB93" unicode="&#x6af;" horiz-adv-x="1969" arabic-form="final" 
d="M1470 336q5 -172 -163.5 -254t-525.5 -82q-238 0 -384 43t-212.5 137t-66.5 247q0 127 42 316l114 -28q-41 -179 -41 -279q0 -114 53.5 -182t175.5 -98t325 -30q598 0 598 227q0 181 -511 535l12 133q166 74 370.5 141.5t421.5 121.5l21 -127q-440 -109 -693 -214l-1 -9
q117 -87 199 -154t140.5 -124t102.5 -113t83 -121q70 -119 129.5 -183t131 -88.5t177.5 -24.5h1v-126h-1q-129 0 -220 33t-154.5 106.5t-113.5 196.5h-10zM1520 1553l14 -76q-184 -31 -353.5 -87t-322.5 -134l-36 69q314 161 698 228z" />
    <glyph glyph-name="uniFB94" unicode="&#x6af;" horiz-adv-x="821" arabic-form="initial" 
d="M839 1284l21 -127q-232 -58 -401 -110.5t-293 -103.5v-9q180 -134 291 -235t162 -185.5t51 -169.5q0 -166 -143.5 -255t-411.5 -89h-115q-26 0 -26 63t26 63h113q214 0 324.5 57.5t110.5 167.5q0 67 -53.5 141.5t-166.5 170.5t-293 225l11 133q162 72 365.5 139.5
t427.5 123.5zM692 1553l14 -76q-184 -31 -353.5 -87t-322.5 -134l-36 69q314 161 698 228z" />
    <glyph glyph-name="uniFB95" unicode="&#x6af;" horiz-adv-x="1129" arabic-form="medial" 
d="M629 337q4 -175 -124.5 -256t-389.5 -81h-115q-26 0 -26 63t26 63h113q222 0 327.5 59t105.5 165q0 58 -49 132t-160.5 173.5t-301.5 232.5l11 133q167 74 371 141.5t422 121.5l21 -127q-222 -55 -393.5 -108t-300.5 -106v-9q151 -111 248 -194.5t161 -157.5t115 -159
q67 -113 124 -178t129.5 -92t184.5 -27h1v-126h-1q-129 0 -219.5 33t-155 107t-114.5 197h-10zM692 1553l14 -76q-184 -31 -353.5 -87t-322.5 -134l-36 69q314 161 698 228z" />
    <glyph glyph-name="uniFB96" unicode="&#x6b3;" horiz-adv-x="1660" arabic-form="isolated" 
d="M642 -363l119 119l120 -119l-120 -120zM642 -713l119 120l120 -120l-120 -119zM1520 1553l14 -76q-184 -31 -353.5 -87t-322.5 -134l-36 69q314 161 698 228zM157 743l114 -28q-41 -175 -41 -279q0 -113 54 -181.5t176.5 -98.5t326.5 -30q291 0 446 61.5t155 176.5
q0 95 -127.5 219.5t-386.5 304.5l12 133q161 72 365 139.5t427 123.5l21 -127q-231 -58 -400.5 -110.5t-292.5 -103.5l-1 -9q178 -134 289.5 -234t163.5 -181t52 -159q0 -172 -190.5 -266t-540.5 -94q-238 0 -384.5 43t-213.5 137t-67 247q0 120 43 316z" />
    <glyph glyph-name="uniFB97" unicode="&#x6b3;" horiz-adv-x="1969" arabic-form="final" 
d="M641 -364l119 119l120 -119l-120 -120zM641 -714l119 120l120 -120l-120 -119zM1470 336q5 -172 -163.5 -254t-525.5 -82q-238 0 -384 43t-212.5 137t-66.5 247q0 127 42 316l114 -28q-41 -179 -41 -279q0 -114 53.5 -182t175.5 -98t325 -30q598 0 598 227
q0 181 -511 535l12 133q166 74 370.5 141.5t421.5 121.5l21 -127q-440 -109 -693 -214l-1 -9q117 -87 199 -154t140.5 -124t102.5 -113t83 -121q70 -119 129.5 -183t131 -88.5t177.5 -24.5h1v-126h-1q-129 0 -220 33t-154.5 106.5t-113.5 196.5h-10zM1520 1553l14 -76
q-184 -31 -353.5 -87t-322.5 -134l-36 69q314 161 698 228z" />
    <glyph glyph-name="uniFB98" unicode="&#x6b3;" horiz-adv-x="821" arabic-form="initial" 
d="M343 -364l119 119l120 -119l-120 -120zM343 -714l119 120l120 -120l-120 -119zM839 1284l21 -127q-232 -58 -401 -110.5t-293 -103.5v-9q180 -134 291 -235t162 -185.5t51 -169.5q0 -166 -143.5 -255t-411.5 -89h-115q-26 0 -26 63t26 63h113q214 0 324.5 57.5
t110.5 167.5q0 67 -53.5 141.5t-166.5 170.5t-293 225l11 133q162 72 365.5 139.5t427.5 123.5zM692 1553l14 -76q-184 -31 -353.5 -87t-322.5 -134l-36 69q314 161 698 228z" />
    <glyph glyph-name="uniFB99" unicode="&#x6b3;" horiz-adv-x="1129" arabic-form="medial" 
d="M463 -364l119 119l120 -119l-120 -120zM463 -714l119 120l120 -120l-120 -119zM629 337q4 -175 -124.5 -256t-389.5 -81h-115q-26 0 -26 63t26 63h113q222 0 327.5 59t105.5 165q0 58 -49 132t-160.5 173.5t-301.5 232.5l11 133q167 74 371 141.5t422 121.5l21 -127
q-222 -55 -393.5 -108t-300.5 -106v-9q151 -111 248 -194.5t161 -157.5t115 -159q67 -113 124 -178t129.5 -92t184.5 -27h1v-126h-1q-129 0 -219.5 33t-155 107t-114.5 197h-10zM692 1553l14 -76q-184 -31 -353.5 -87t-322.5 -134l-36 69q314 161 698 228z" />
    <glyph glyph-name="uniFB9A" unicode="&#x6b1;" horiz-adv-x="1660" arabic-form="isolated" 
d="M157 743l114 -28q-41 -175 -41 -279q0 -113 54 -181.5t176.5 -98.5t326.5 -30q291 0 446 61.5t155 176.5q0 95 -127.5 219.5t-386.5 304.5l12 133q161 72 365 139.5t427 123.5l21 -127q-231 -58 -400.5 -110.5t-292.5 -103.5l-1 -9q178 -134 289.5 -234t163.5 -181
t52 -159q0 -172 -190.5 -266t-540.5 -94q-238 0 -384.5 43t-213.5 137t-67 247q0 120 43 316zM1520 1553l14 -76q-184 -31 -353.5 -87t-322.5 -134l-36 69q314 161 698 228zM1122 1785l115 115l114 -115l-114 -114zM804 1696l115 115l114 -115l-114 -114z" />
    <glyph glyph-name="uniFB9B" unicode="&#x6b1;" horiz-adv-x="1969" arabic-form="final" 
d="M1470 336q5 -172 -163.5 -254t-525.5 -82q-238 0 -384 43t-212.5 137t-66.5 247q0 127 42 316l114 -28q-41 -179 -41 -279q0 -114 53.5 -182t175.5 -98t325 -30q598 0 598 227q0 181 -511 535l12 133q166 74 370.5 141.5t421.5 121.5l21 -127q-440 -109 -693 -214l-1 -9
q117 -87 199 -154t140.5 -124t102.5 -113t83 -121q70 -119 129.5 -183t131 -88.5t177.5 -24.5h1v-126h-1q-129 0 -220 33t-154.5 106.5t-113.5 196.5h-10zM1520 1553l14 -76q-184 -31 -353.5 -87t-322.5 -134l-36 69q314 161 698 228zM1122 1785l115 115l114 -115l-114 -114
zM804 1696l115 115l114 -115l-114 -114z" />
    <glyph glyph-name="uniFB9C" unicode="&#x6b1;" horiz-adv-x="821" arabic-form="initial" 
d="M839 1284l21 -127q-232 -58 -401 -110.5t-293 -103.5v-9q180 -134 291 -235t162 -185.5t51 -169.5q0 -166 -143.5 -255t-411.5 -89h-115q-26 0 -26 63t26 63h113q214 0 324.5 57.5t110.5 167.5q0 67 -53.5 141.5t-166.5 170.5t-293 225l11 133q162 72 365.5 139.5
t427.5 123.5zM692 1553l14 -76q-184 -31 -353.5 -87t-322.5 -134l-36 69q314 161 698 228zM360 1785l115 115l114 -115l-114 -114zM42 1696l115 115l114 -115l-114 -114z" />
    <glyph glyph-name="uniFB9D" unicode="&#x6b1;" horiz-adv-x="1129" arabic-form="medial" 
d="M629 337q4 -175 -124.5 -256t-389.5 -81h-115q-26 0 -26 63t26 63h113q222 0 327.5 59t105.5 165q0 58 -49 132t-160.5 173.5t-301.5 232.5l11 133q167 74 371 141.5t422 121.5l21 -127q-222 -55 -393.5 -108t-300.5 -106v-9q151 -111 248 -194.5t161 -157.5t115 -159
q67 -113 124 -178t129.5 -92t184.5 -27h1v-126h-1q-129 0 -219.5 33t-155 107t-114.5 197h-10zM692 1553l14 -76q-184 -31 -353.5 -87t-322.5 -134l-36 69q314 161 698 228zM360 1785l115 115l114 -115l-114 -114zM42 1696l115 115l114 -115l-114 -114z" />
    <glyph glyph-name="uniFB9E" unicode="&#x6ba;" horiz-adv-x="1519" arabic-form="isolated" 
d="M1145 585l114 53q76 -174 110 -301.5t34 -231.5q0 -193 -81.5 -316.5t-227 -182.5t-339.5 -59q-301 0 -468.5 134.5t-167.5 433.5q0 79 13 183.5t44 255.5l117 -25q-31 -154 -43 -248.5t-12 -160.5q0 -244 132 -345t382 -101q165 0 284 41.5t183.5 134.5t64.5 249
q0 89 -32.5 200t-106.5 286z" />
    <glyph glyph-name="uniFB9F" unicode="&#x6ba;" horiz-adv-x="1665" arabic-form="final" 
d="M176 514l117 -25q-31 -154 -43 -248t-12 -161q0 -241 132 -340t382 -99q263 0 398.5 99.5t135.5 292.5q0 83 -36 202.5t-113 309.5l110 53l66 -168q47 -118 89.5 -184t101.5 -93t156 -27h5v-126h-2q-177 0 -271 125l-10 -4q41 -307 -128 -456.5t-499 -149.5
q-301 0 -468.5 132t-167.5 428q0 79 13 183.5t44 255.5z" />
    <glyph glyph-name="uniFBA0" unicode="&#x6bb;" horiz-adv-x="1519" arabic-form="isolated" 
d="M614 351v330h57v-246h9q69 71 108 95.5t84 24.5t76.5 -35t31.5 -85q0 -141 -239 -141h-229v57h102zM662 351h79q96 0 140 19.5t44 61.5q0 29 -19.5 47t-50.5 18q-38 0 -77 -29.5t-116 -116.5zM1145 585l114 53q76 -174 110 -301.5t34 -231.5q0 -193 -81.5 -316.5
t-227 -182.5t-339.5 -59q-301 0 -468.5 134.5t-167.5 433.5q0 79 13 183.5t44 255.5l117 -25q-31 -154 -43 -248.5t-12 -160.5q0 -244 132 -345t382 -101q165 0 284 41.5t183.5 134.5t64.5 249q0 89 -32.5 200t-106.5 286z" />
    <glyph glyph-name="uniFBA1" unicode="&#x6bb;" horiz-adv-x="1665" arabic-form="final" 
d="M614 311v330h57v-246h9q69 71 108 95.5t84 24.5t76.5 -35t31.5 -85q0 -141 -239 -141h-229v57h102zM662 311h79q96 0 140 19.5t44 61.5q0 29 -19.5 47t-50.5 18q-38 0 -77 -29.5t-116 -116.5zM176 514l117 -25q-31 -154 -43 -248t-12 -161q0 -241 132 -340t382 -99
q263 0 398.5 99.5t135.5 292.5q0 83 -36 202.5t-113 309.5l110 53l66 -168q47 -118 89.5 -184t101.5 -93t156 -27h5v-126h-2q-177 0 -271 125l-10 -4q41 -307 -128 -456.5t-499 -149.5q-301 0 -468.5 132t-167.5 428q0 79 13 183.5t44 255.5z" />
    <glyph glyph-name="uniFBA2" unicode="&#x6bb;" horiz-adv-x="579" arabic-form="initial" 
d="M71 1113v422h69v-323h10q68 73 121 108.5t106 35.5q62 0 101 -40.5t39 -102.5q0 -171 -256 -171h-326v71h136zM129 1113h132q98 0 144 22t46 72q0 36 -23.5 57.5t-61.5 21.5q-51 0 -101.5 -38.5t-135.5 -134.5zM407 742q26 -103 42.5 -194.5t16.5 -167.5
q0 -182 -96.5 -281t-314.5 -99h-55q-26 0 -26 63t26 63h55q160 0 227 65.5t67 189.5q0 65 -16.5 148.5t-40.5 181.5z" />
    <glyph glyph-name="uniFBA3" unicode="&#x6bb;" horiz-adv-x="846" arabic-form="medial" 
d="M153 957v422h69v-323h10q68 73 121 108.5t106 35.5q62 0 101 -40.5t39 -102.5q0 -171 -256 -171h-326v71h136zM211 957h132q98 0 144 22t46 72q0 36 -23.5 57.5t-61.5 21.5q-51 0 -101.5 -38.5t-135.5 -134.5zM486 459q0 -105 21.5 -179.5t81.5 -114t176 -39.5h81v-126
h-85q-127 0 -216.5 62t-116.5 178h-10q-27 -117 -130 -178.5t-234 -61.5h-54q-26 0 -26 63t26 63h54q129 0 195.5 39.5t90 114.5t23.5 179v125h123v-125z" />
    <glyph glyph-name="uniFBA4" unicode="&#x6c0;" horiz-adv-x="887" arabic-form="isolated" 
d="M443 -11q-154 0 -241.5 86t-87.5 219q0 134 75 259.5t179 225.5q-26 25 -50 47t-51 44l76 91q199 -164 315 -327.5t116 -332.5q0 -136 -90 -224t-241 -88zM443 116q106 0 157 53.5t51 140.5q0 95 -57.5 199.5t-150.5 190.5q-92 -85 -150.5 -190t-58.5 -200
q0 -87 51.5 -140.5t157.5 -53.5zM330 1178q-27 0 -55.5 2.5t-55.5 6.5l17 78q47 -9 102 -9q48 0 95 9.5t78 31t31 58.5q0 35 -34.5 47t-86.5 19q-59 10 -105 33.5t-46 93.5q0 99 67.5 158t161.5 59q52 0 109 -20l-27 -73q-44 13 -83 13q-61 0 -109 -30.5t-48 -89.5
q0 -40 32.5 -53t82.5 -21q62 -8 110.5 -31t48.5 -97q0 -62 -39.5 -103.5t-104.5 -61.5t-141 -20z" />
    <glyph glyph-name="uniFBA6" unicode="&#x6c1;" horiz-adv-x="887" arabic-form="isolated" 
d="M443 -11q-154 0 -241.5 86t-87.5 219q0 134 75 259.5t179 225.5q-26 25 -50 47t-51 44l76 91q199 -164 315 -327.5t116 -332.5q0 -136 -90 -224t-241 -88zM443 116q106 0 157 53.5t51 140.5q0 95 -57.5 199.5t-150.5 190.5q-92 -85 -150.5 -190t-58.5 -200
q0 -87 51.5 -140.5t157.5 -53.5z" />
    <glyph glyph-name="uniFBA7" unicode="&#x6c1;" horiz-adv-x="1224" arabic-form="final" 
d="M1224 126v-126h-1q-119 0 -216.5 37t-177 94.5t-147.5 118.5q-35 32 -67 59t-62 47q-47 32 -88 32q-48 0 -85 -51q-25 -31 -46.5 -79t-38.5 -107q-21 -70 -35 -146.5t-25 -146.5l-121 20q11 71 25.5 148t36.5 152q20 66 45 124t60 101q70 116 179 116q38 0 73.5 -12
t70.5 -34q37 -22 73 -52t73 -65q66 -60 136 -112.5t152.5 -85t184.5 -32.5h1z" />
    <glyph glyph-name="uniFBA8" unicode="&#x6c1;" horiz-adv-x="579" arabic-form="initial" 
d="M71 -527l11 -2q31 28 68 28q38 0 67 -31t29 -82q0 -58 -31.5 -92t-87.5 -34q-66 0 -101.5 49.5t-35.5 140.5q0 189 183 326l50 -67q-78 -52 -113.5 -107t-38.5 -129zM407 742q26 -103 42.5 -194.5t16.5 -167.5q0 -182 -96.5 -281t-314.5 -99h-55q-26 0 -26 63t26 63h55
q160 0 227 65.5t67 189.5q0 65 -16.5 148.5t-40.5 181.5z" />
    <glyph glyph-name="uniFBA9" unicode="&#x6c1;" horiz-adv-x="1025" arabic-form="medial" 
d="M0 126q117 0 188.5 50.5t116 138t80.5 197.5l112 -34q-63 -189 -63 -364q0 -154 49 -293t149 -223q17 125 41.5 218t61.5 157q39 73 99.5 113t156.5 40h34v-126h-34q-75 0 -115.5 -28t-69.5 -84q-64 -111 -95 -393l-85 -45q-104 63 -172 176.5t-96 261.5t-12 312l-9 5
q-52 -95 -132.5 -150t-204.5 -55q-26 0 -26 63t26 63z" />
    <glyph glyph-name="uniFBAA" unicode="&#x6be;" horiz-adv-x="1499" arabic-form="isolated" 
d="M142 -92l-28 123q116 20 217.5 51t183.5 68q-105 67 -169 155.5t-64 182.5q0 108 66 194.5t172 113.5l1 10l-179 77l50 112l502 -215q182 -76 289.5 -146.5t154.5 -149t47 -178.5q0 -148 -94.5 -232.5t-261.5 -84.5q-106 0 -208 23.5t-191 64.5q-97 -57 -219.5 -100
t-268.5 -69zM631 208q100 60 154 131.5t54 147.5q0 118 -54.5 183.5t-152.5 65.5q-65 0 -120 -33.5t-87.5 -89.5t-32.5 -123q0 -79 66.5 -154t172.5 -128zM740 169q140 -53 295 -53q242 0 242 194q0 67 -36 121.5t-117.5 106t-220.5 108.5q53 -140 9.5 -261.5t-172.5 -215.5
z" />
    <glyph glyph-name="uniFBAB" unicode="&#x6be;" horiz-adv-x="1134" arabic-form="final" 
d="M717 823l-9 154l122 7l34 -550q7 -122 32 -189t81.5 -93t155.5 -26h1v-126h-1q-139 0 -219 48t-121 145q-111 -44 -238 -44q-101 0 -186 29t-136 88t-51 147q0 158 143 265.5t392 144.5zM724 703q-196 -23 -311 -93.5t-115 -176.5q0 -87 79.5 -125.5t186.5 -38.5
q103 0 195 30q-6 30 -9.5 60t-5.5 64z" />
    <glyph glyph-name="uniFBAC" unicode="&#x6be;" horiz-adv-x="1347" arabic-form="initial" 
d="M0 126h43q92 0 161 11t141 36q-103 68 -159 149t-56 166q0 108 66 194.5t172 113.5l1 10l-179 77l50 112l502 -215q182 -76 289 -146.5t154 -149t47 -178.5q0 -148 -94.5 -232.5t-261.5 -84.5q-94 0 -198.5 26.5t-207.5 78.5q-100 -50 -194.5 -72t-216.5 -22h-59
q-26 0 -26 63t26 63zM474 209q101 50 157 123t56 155q0 119 -54.5 184t-152.5 65q-65 0 -119.5 -34t-87.5 -90.5t-33 -124.5q0 -76 61 -149t173 -129zM594 176q153 -60 289 -60q242 0 242 194q0 101 -83.5 175.5t-290.5 160.5q58 -144 17 -265.5t-174 -204.5z" />
    <glyph glyph-name="uniFBAD" unicode="&#x6be;" horiz-adv-x="1025" arabic-form="medial" 
d="M546 799q128 0 204 -87.5t76 -217.5q0 -106 -56 -202.5t-156 -155.5v-10h411v-126h-382v-10q103 -47 157 -125.5t54 -173.5q0 -124 -73.5 -196t-202.5 -72q-182 0 -287 149t-120 428h-171q-26 0 -26 62q0 64 26 64h168q5 313 104 493t274 180zM264 126h177
q72 0 136.5 53.5t105 134.5t40.5 164q0 89 -49 143.5t-126 54.5q-130 0 -207 -147t-77 -403zM577 -454q81 0 125 41t44 116q0 76 -42 143.5t-111 110.5t-152 43h-176q10 -223 91 -338.5t221 -115.5z" />
    <glyph glyph-name="uniFBAE" unicode="&#x6d2;" horiz-adv-x="1467" arabic-form="isolated" 
d="M455 0q-92 0 -169.5 24t-124.5 79.5t-47 151.5q0 136 89 243.5t247.5 170t366.5 62.5h204v-126h-205q-180 0 -310 -48t-199.5 -125t-69.5 -165q0 -81 62.5 -111t154.5 -30h899v-126h-898z" />
    <glyph glyph-name="uniFBAF" unicode="&#x6d2;" horiz-adv-x="1331" arabic-form="final" 
d="M455 -605q-92 0 -169.5 24t-124.5 79.5t-47 151.5q0 135 89 243t247.5 170.5t366.5 62.5h514v-126h-515q-180 0 -310 -48t-199.5 -125t-69.5 -165q0 -81 62.5 -111t154.5 -30h732v-126h-731z" />
    <glyph glyph-name="uniFBB0" unicode="&#x6d3;" horiz-adv-x="1467" arabic-form="isolated" 
d="M937 1469l-24 -64q-18 8 -37.5 12.5t-41.5 4.5q-59 0 -97 -33.5t-38 -86.5q0 -49 32.5 -76t86.5 -27q40 0 85 14l100 31l22 -69l-454 -144l-22 71l181 52v10q-44 17 -70.5 54.5t-26.5 86.5q0 80 57.5 134.5t144.5 54.5q26 0 51.5 -7t50.5 -18zM455 0q-92 0 -169.5 24
t-124.5 79.5t-47 151.5q0 136 89 243.5t247.5 170t366.5 62.5h204v-126h-205q-180 0 -310 -48t-199.5 -125t-69.5 -165q0 -81 62.5 -111t154.5 -30h899v-126h-898z" />
    <glyph glyph-name="uniFBB1" unicode="&#x6d3;" horiz-adv-x="1331" arabic-form="final" 
d="M941 862l-24 -64q-18 8 -37.5 12.5t-41.5 4.5q-59 0 -97 -33.5t-38 -86.5q0 -49 32.5 -76t86.5 -27q40 0 85 14l100 31l22 -69l-454 -144l-22 71l181 52v10q-44 17 -70.5 54.5t-26.5 86.5q0 80 57.5 134.5t144.5 54.5q26 0 51.5 -7t50.5 -18zM455 -605q-92 0 -169.5 24
t-124.5 79.5t-47 151.5q0 135 89 243t247.5 170.5t366.5 62.5h514v-126h-515q-180 0 -310 -48t-199.5 -125t-69.5 -165q0 -81 62.5 -111t154.5 -30h732v-126h-731z" />
    <glyph glyph-name="uniFBD3" unicode="&#x6ad;" horiz-adv-x="1652" arabic-form="isolated" 
d="M684 1590l119 119l120 -119l-120 -120zM858 1287l120 120l119 -120l-119 -119zM510 1287l119 120l120 -120l-120 -119zM685 453q-27 0 -55.5 2.5t-55.5 6.5l17 78q47 -9 102 -9q48 0 95 9.5t78 31t31 58.5q0 35 -34.5 47t-86.5 19q-59 10 -105 33.5t-46 93.5
q0 99 67.5 158t161.5 59q52 0 109 -20l-27 -73q-44 13 -83 13q-61 0 -109 -30.5t-48 -89.5q0 -40 32.5 -53t82.5 -21q62 -8 110.5 -31t48.5 -97q0 -62 -39.5 -103.5t-104.5 -61.5t-141 -20zM794 126q209 0 332.5 27t178 99.5t54.5 207.5v839h122v-839q0 -174 -73.5 -274.5
t-229 -143t-402.5 -42.5q-238 0 -383.5 37t-212 121.5t-66.5 226.5q0 57 9.5 129t25.5 137l109 -25q-13 -57 -22.5 -125t-9.5 -114q0 -100 53.5 -157t178 -80.5t336.5 -23.5z" />
    <glyph glyph-name="uniFBD4" unicode="&#x6ad;" horiz-adv-x="1839" arabic-form="final" 
d="M684 1590l119 119l120 -119l-120 -120zM858 1287l120 120l119 -120l-119 -119zM510 1287l119 120l120 -120l-120 -119zM685 453q-27 0 -55.5 2.5t-55.5 6.5l17 78q47 -9 102 -9q48 0 95 9.5t78 31t31 58.5q0 35 -34.5 47t-86.5 19q-59 10 -105 33.5t-46 93.5
q0 99 67.5 158t161.5 59q52 0 109 -20l-27 -73q-44 13 -83 13q-61 0 -109 -30.5t-48 -89.5q0 -40 32.5 -53t82.5 -21q62 -8 110.5 -31t48.5 -97q0 -62 -39.5 -103.5t-104.5 -61.5t-141 -20zM1481 465q0 -173 88.5 -256t268.5 -83h1v-126h-1q-166 0 -274 69t-135 202h-10
q-37 -148 -188 -209.5t-446 -61.5q-243 0 -390.5 37t-214 122t-66.5 227q0 56 9.5 127t25.5 138l109 -25q-13 -59 -22.5 -127t-9.5 -112q0 -100 54 -157t179 -80.5t336 -23.5q218 0 341 30t173 102.5t50 201.5v839h122v-834z" />
    <glyph glyph-name="uniFBD5" unicode="&#x6ad;" horiz-adv-x="821" arabic-form="initial" 
d="M207 1752l115 115l114 -115l-114 -114zM431 1530l115 115l114 -115l-114 -114zM113 1442l115 115l114 -115l-114 -114zM839 1284l21 -127q-232 -58 -401 -110.5t-293 -103.5v-9q180 -134 291 -235t162 -185.5t51 -169.5q0 -166 -143.5 -255t-411.5 -89h-115q-26 0 -26 63
t26 63h113q214 0 324.5 57.5t110.5 167.5q0 67 -53.5 141.5t-166.5 170.5t-293 225l11 133q162 72 365.5 139.5t427.5 123.5z" />
    <glyph glyph-name="uniFBD6" unicode="&#x6ad;" horiz-adv-x="1129" arabic-form="medial" 
d="M207 1752l115 115l114 -115l-114 -114zM431 1530l115 115l114 -115l-114 -114zM113 1442l115 115l114 -115l-114 -114zM629 337q4 -175 -124.5 -256t-389.5 -81h-115q-26 0 -26 63t26 63h113q222 0 327.5 59t105.5 165q0 58 -49 132t-160.5 173.5t-301.5 232.5l11 133
q167 74 371 141.5t422 121.5l21 -127q-222 -55 -393.5 -108t-300.5 -106v-9q151 -111 248 -194.5t161 -157.5t115 -159q67 -113 124 -178t129.5 -92t184.5 -27h1v-126h-1q-129 0 -219.5 33t-155 107t-114.5 197h-10z" />
    <glyph glyph-name="uniFBD7" unicode="&#x6c7;" horiz-adv-x="956" arabic-form="isolated" 
d="M561 1492q64 0 102 -47t38 -122q0 -88 -56 -157.5t-153.5 -120.5t-222.5 -86l-21 70q66 18 143.5 50.5t134.5 69.5q-52 17 -101 54t-49 104q0 44 25 86.5t67 70.5t93 28zM553 1421q-41 0 -76 -34.5t-35 -78.5q0 -49 46.5 -74t93.5 -36q46 55 46 121q0 41 -18.5 71.5
t-56.5 30.5zM725 17l-6 8q-53 -14 -117 -25t-137 -11q-151 0 -241 69t-90 221q0 111 36.5 213t110.5 167.5t186 65.5q107 0 179 -61.5t115.5 -161.5t62.5 -217t19 -228q0 -218 -186 -362.5t-518 -227.5l-46 118q292 66 454.5 176t177.5 256zM723 147q-3 70 -17.5 148
t-44 147t-77.5 112.5t-119 43.5q-76 0 -125.5 -47t-73.5 -117.5t-24 -142.5q0 -102 61 -139.5t165 -37.5q73 0 137.5 10t117.5 23z" />
    <glyph glyph-name="uniFBD8" unicode="&#x6c7;" horiz-adv-x="927" arabic-form="final" 
d="M561 1492q64 0 102 -47t38 -122q0 -88 -56 -157.5t-153.5 -120.5t-222.5 -86l-21 70q66 18 143.5 50.5t134.5 69.5q-52 17 -101 54t-49 104q0 44 25 86.5t67 70.5t93 28zM553 1421q-41 0 -76 -34.5t-35 -78.5q0 -49 46.5 -74t93.5 -36q46 55 46 121q0 41 -18.5 71.5
t-56.5 30.5zM727 -6l-6 9q-130 -3 -257 -3q-150 0 -240 68t-90 221q0 109 36.5 209t110.5 163.5t186 63.5q100 0 169 -55t112 -144t64.5 -194t26.5 -206h88v-126h-91q-18 -193 -202 -324t-495 -209l-46 118q282 64 447 168t187 241zM725 124q-3 72 -16.5 154t-43 155
t-78.5 119t-122 46q-76 0 -125.5 -44t-73.5 -112t-24 -140q0 -103 61.5 -141t164.5 -38h128.5t128.5 1z" />
    <glyph glyph-name="uniFBD9" unicode="&#x6c6;" horiz-adv-x="956" arabic-form="isolated" 
d="M496 1027h-60l-213 266l59 48l184 -234l184 234l59 -48zM725 17l-6 8q-53 -14 -117 -25t-137 -11q-151 0 -241 69t-90 221q0 111 36.5 213t110.5 167.5t186 65.5q107 0 179 -61.5t115.5 -161.5t62.5 -217t19 -228q0 -218 -186 -362.5t-518 -227.5l-46 118
q292 66 454.5 176t177.5 256zM723 147q-3 70 -17.5 148t-44 147t-77.5 112.5t-119 43.5q-76 0 -125.5 -47t-73.5 -117.5t-24 -142.5q0 -102 61 -139.5t165 -37.5q73 0 137.5 10t117.5 23z" />
    <glyph glyph-name="uniFBDA" unicode="&#x6c6;" horiz-adv-x="927" arabic-form="final" 
d="M496 1027h-60l-213 266l59 48l184 -234l184 234l59 -48zM727 -6l-6 9q-130 -3 -257 -3q-150 0 -240 68t-90 221q0 109 36.5 209t110.5 163.5t186 63.5q100 0 169 -55t112 -144t64.5 -194t26.5 -206h88v-126h-91q-18 -193 -202 -324t-495 -209l-46 118q282 64 447 168
t187 241zM725 124q-3 72 -16.5 154t-43 155t-78.5 119t-122 46q-76 0 -125.5 -44t-73.5 -112t-24 -140q0 -103 61.5 -141t164.5 -38h128.5t128.5 1z" />
    <glyph glyph-name="uniFBDB" unicode="&#x6c8;" horiz-adv-x="956" arabic-form="isolated" 
d="M431 1352h76v-349h-76v349zM725 17l-6 8q-53 -14 -117 -25t-137 -11q-151 0 -241 69t-90 221q0 111 36.5 213t110.5 167.5t186 65.5q107 0 179 -61.5t115.5 -161.5t62.5 -217t19 -228q0 -218 -186 -362.5t-518 -227.5l-46 118q292 66 454.5 176t177.5 256zM723 147
q-3 70 -17.5 148t-44 147t-77.5 112.5t-119 43.5q-76 0 -125.5 -47t-73.5 -117.5t-24 -142.5q0 -102 61 -139.5t165 -37.5q73 0 137.5 10t117.5 23z" />
    <glyph glyph-name="uniFBDC" unicode="&#x6c8;" horiz-adv-x="927" arabic-form="final" 
d="M431 1352h76v-349h-76v349zM727 -6l-6 9q-130 -3 -257 -3q-150 0 -240 68t-90 221q0 109 36.5 209t110.5 163.5t186 63.5q100 0 169 -55t112 -144t64.5 -194t26.5 -206h88v-126h-91q-18 -193 -202 -324t-495 -209l-46 118q282 64 447 168t187 241zM725 124
q-3 72 -16.5 154t-43 155t-78.5 119t-122 46q-76 0 -125.5 -44t-73.5 -112t-24 -140q0 -103 61.5 -141t164.5 -38h128.5t128.5 1z" />
    <glyph glyph-name="uniFBDD" unicode="&#x677;" horiz-adv-x="956" arabic-form="isolated" 
d="M303 1476q64 0 102 -47t38 -122q0 -88 -56 -157.5t-153.5 -120.5t-222.5 -86l-21 70q66 18 143.5 50.5t134.5 69.5q-52 17 -101 54t-49 104q0 44 25 86.5t67 70.5t93 28zM295 1405q-41 0 -76 -34.5t-35 -78.5q0 -49 46.5 -74t93.5 -36q46 55 46 121q0 41 -18.5 71.5
t-56.5 30.5zM871 1389l-24 -64q-18 8 -37.5 12.5t-41.5 4.5q-59 0 -97 -33.5t-38 -86.5q0 -49 32.5 -76t86.5 -27q40 0 85 14l100 31l22 -69l-454 -144l-22 71l181 52v10q-44 17 -70.5 54.5t-26.5 86.5q0 80 57.5 134.5t144.5 54.5q26 0 51.5 -7t50.5 -18zM725 17l-6 8
q-53 -14 -117 -25t-137 -11q-151 0 -241 69t-90 221q0 111 36.5 213t110.5 167.5t186 65.5q107 0 179 -61.5t115.5 -161.5t62.5 -217t19 -228q0 -218 -186 -362.5t-518 -227.5l-46 118q292 66 454.5 176t177.5 256zM723 147q-3 70 -17.5 148t-44 147t-77.5 112.5t-119 43.5
q-76 0 -125.5 -47t-73.5 -117.5t-24 -142.5q0 -102 61 -139.5t165 -37.5q73 0 137.5 10t117.5 23z" />
    <glyph glyph-name="uniFBDE" unicode="&#x6cb;" horiz-adv-x="956" arabic-form="isolated" 
d="M349 1427l119 119l120 -119l-120 -120zM523 1124l120 120l119 -120l-119 -119zM175 1124l119 120l120 -120l-120 -119zM725 17l-6 8q-53 -14 -117 -25t-137 -11q-151 0 -241 69t-90 221q0 111 36.5 213t110.5 167.5t186 65.5q107 0 179 -61.5t115.5 -161.5t62.5 -217
t19 -228q0 -218 -186 -362.5t-518 -227.5l-46 118q292 66 454.5 176t177.5 256zM723 147q-3 70 -17.5 148t-44 147t-77.5 112.5t-119 43.5q-76 0 -125.5 -47t-73.5 -117.5t-24 -142.5q0 -102 61 -139.5t165 -37.5q73 0 137.5 10t117.5 23z" />
    <glyph glyph-name="uniFBDF" unicode="&#x6cb;" horiz-adv-x="927" arabic-form="final" 
d="M349 1427l119 119l120 -119l-120 -120zM523 1124l120 120l119 -120l-119 -119zM175 1124l119 120l120 -120l-120 -119zM727 -6l-6 9q-130 -3 -257 -3q-150 0 -240 68t-90 221q0 109 36.5 209t110.5 163.5t186 63.5q100 0 169 -55t112 -144t64.5 -194t26.5 -206h88v-126
h-91q-18 -193 -202 -324t-495 -209l-46 118q282 64 447 168t187 241zM725 124q-3 72 -16.5 154t-43 155t-78.5 119t-122 46q-76 0 -125.5 -44t-73.5 -112t-24 -140q0 -103 61.5 -141t164.5 -38h128.5t128.5 1z" />
    <glyph glyph-name="uniFBE0" unicode="&#x6c5;" horiz-adv-x="956" arabic-form="isolated" 
d="M721 -157v-66h-481v66h481zM725 17l-6 8q-53 -14 -117 -25t-137 -11q-151 0 -241 69t-90 221q0 111 36.5 213t110.5 167.5t186 65.5q107 0 179 -61.5t115.5 -161.5t62.5 -217t19 -228q0 -218 -186 -362.5t-518 -227.5l-46 118q292 66 454.5 176t177.5 256zM723 147
q-3 70 -17.5 148t-44 147t-77.5 112.5t-119 43.5q-76 0 -125.5 -47t-73.5 -117.5t-24 -142.5q0 -102 61 -139.5t165 -37.5q73 0 137.5 10t117.5 23z" />
    <glyph glyph-name="uniFBE1" unicode="&#x6c5;" horiz-adv-x="927" arabic-form="final" 
d="M721 -157v-66h-481v66h481zM727 -6l-6 9q-130 -3 -257 -3q-150 0 -240 68t-90 221q0 109 36.5 209t110.5 163.5t186 63.5q100 0 169 -55t112 -144t64.5 -194t26.5 -206h88v-126h-91q-18 -193 -202 -324t-495 -209l-46 118q282 64 447 168t187 241zM725 124
q-3 72 -16.5 154t-43 155t-78.5 119t-122 46q-76 0 -125.5 -44t-73.5 -112t-24 -140q0 -103 61.5 -141t164.5 -38h128.5t128.5 1z" />
    <glyph glyph-name="uniFBE2" unicode="&#x6c9;" horiz-adv-x="956" arabic-form="isolated" 
d="M441 1340h60l213 -266l-59 -48l-184 234l-184 -234l-59 48zM725 17l-6 8q-53 -14 -117 -25t-137 -11q-151 0 -241 69t-90 221q0 111 36.5 213t110.5 167.5t186 65.5q107 0 179 -61.5t115.5 -161.5t62.5 -217t19 -228q0 -218 -186 -362.5t-518 -227.5l-46 118
q292 66 454.5 176t177.5 256zM723 147q-3 70 -17.5 148t-44 147t-77.5 112.5t-119 43.5q-76 0 -125.5 -47t-73.5 -117.5t-24 -142.5q0 -102 61 -139.5t165 -37.5q73 0 137.5 10t117.5 23z" />
    <glyph glyph-name="uniFBE3" unicode="&#x6c9;" horiz-adv-x="927" arabic-form="final" 
d="M441 1340h60l213 -266l-59 -48l-184 234l-184 -234l-59 48zM727 -6l-6 9q-130 -3 -257 -3q-150 0 -240 68t-90 221q0 109 36.5 209t110.5 163.5t186 63.5q100 0 169 -55t112 -144t64.5 -194t26.5 -206h88v-126h-91q-18 -193 -202 -324t-495 -209l-46 118q282 64 447 168
t187 241zM725 124q-3 72 -16.5 154t-43 155t-78.5 119t-122 46q-76 0 -125.5 -44t-73.5 -112t-24 -140q0 -103 61.5 -141t164.5 -38h128.5t128.5 1z" />
    <glyph glyph-name="uniFBE4" unicode="&#x6d0;" horiz-adv-x="1494" arabic-form="isolated" 
d="M628 -743l119 119l120 -119l-120 -120zM628 -1093l119 120l120 -120l-120 -119zM1339 711l-44 -110q-103 51 -206 51q-91 0 -165 -41t-117.5 -113t-43.5 -167q0 -73 40 -107t108.5 -46t155.5 -19q83 -6 154 -23t114.5 -62.5t43.5 -135.5q0 -117 -88 -204t-241.5 -135.5
t-349.5 -48.5q-275 0 -427.5 119t-152.5 348q0 85 10.5 183.5t32.5 228.5l119 -21q-24 -135 -34 -221t-10 -167q0 -176 117.5 -260t343.5 -84q159 0 287 31t202.5 87t74.5 129q0 54 -34 79t-89.5 33.5t-119.5 11.5q-98 7 -183 27.5t-136.5 76.5t-51.5 169q0 130 60 232.5
t160.5 161.5t223.5 59q58 0 120.5 -15t125.5 -47z" />
    <glyph glyph-name="uniFBE5" unicode="&#x6d0;" horiz-adv-x="1442" arabic-form="final" 
d="M620 -819l115 115l116 -115l-116 -116zM620 -1127l115 116l116 -116l-116 -115zM1083 -10q144 -49 201.5 -99.5t57.5 -131.5q0 -94 -81.5 -168.5t-223 -117t-322.5 -42.5q-307 0 -453.5 123.5t-146.5 385.5q0 83 12.5 205.5t35.5 273.5l115 -23q-46 -293 -46 -450
q0 -207 112.5 -298t368.5 -91q149 0 262 27.5t176.5 77t63.5 114.5q0 45 -39.5 77t-142.5 63.5t-294 72.5l17 137h686v-126h-359v-10z" />
    <glyph glyph-name="uniFBE6" unicode="&#x6d0;" horiz-adv-x="579" arabic-form="initial" 
d="M24 -364l119 119l120 -119l-120 -120zM24 -714l119 120l120 -120l-120 -119zM407 742q26 -103 42.5 -194.5t16.5 -167.5q0 -182 -96.5 -281t-314.5 -99h-55q-26 0 -26 63t26 63h55q160 0 227 65.5t67 189.5q0 65 -16.5 148.5t-40.5 181.5z" />
    <glyph glyph-name="uniFBE7" unicode="&#x6d0;" horiz-adv-x="846" arabic-form="medial" 
d="M24 -364l119 119l120 -119l-120 -120zM24 -714l119 120l120 -120l-120 -119zM486 459q0 -105 21.5 -179.5t81.5 -114t176 -39.5h81v-126h-85q-127 0 -216.5 62t-116.5 178h-10q-27 -117 -130 -178.5t-234 -61.5h-54q-26 0 -26 63t26 63h54q129 0 195.5 39.5t90 114.5
t23.5 179v125h123v-125z" />
    <glyph glyph-name="uniFBE8" unicode="&#x649;" horiz-adv-x="579" arabic-form="initial" 
d="M407 742q26 -103 42.5 -194.5t16.5 -167.5q0 -182 -96.5 -281t-314.5 -99h-55q-26 0 -26 63t26 63h55q160 0 227 65.5t67 189.5q0 65 -16.5 148.5t-40.5 181.5z" />
    <glyph glyph-name="uniFBE9" unicode="&#x649;" horiz-adv-x="846" arabic-form="medial" 
d="M486 459q0 -105 21.5 -179.5t81.5 -114t176 -39.5h81v-126h-85q-127 0 -216.5 62t-116.5 178h-10q-27 -117 -130 -178.5t-234 -61.5h-54q-26 0 -26 63t26 63h54q129 0 195.5 39.5t90 114.5t23.5 179v125h123v-125z" />
    <glyph glyph-name="uniFBFC" unicode="&#x6cc;" horiz-adv-x="1494" arabic-form="isolated" 
d="M1339 711l-44 -110q-103 51 -206 51q-91 0 -165 -41t-117.5 -113t-43.5 -167q0 -73 40 -107t108.5 -46t155.5 -19q83 -6 154 -23t114.5 -62.5t43.5 -135.5q0 -117 -88 -204t-241.5 -135.5t-349.5 -48.5q-275 0 -427.5 119t-152.5 348q0 85 10.5 183.5t32.5 228.5l119 -21
q-24 -135 -34 -221t-10 -167q0 -176 117.5 -260t343.5 -84q159 0 287 31t202.5 87t74.5 129q0 54 -34 79t-89.5 33.5t-119.5 11.5q-98 7 -183 27.5t-136.5 76.5t-51.5 169q0 130 60 232.5t160.5 161.5t223.5 59q58 0 120.5 -15t125.5 -47z" />
    <glyph glyph-name="uniFBFD" unicode="&#x6cc;" horiz-adv-x="1442" arabic-form="final" 
d="M1083 -10q144 -49 201.5 -99.5t57.5 -131.5q0 -94 -81.5 -168.5t-223 -117t-322.5 -42.5q-307 0 -453.5 123.5t-146.5 385.5q0 83 12.5 205.5t35.5 273.5l115 -23q-46 -293 -46 -450q0 -207 112.5 -298t368.5 -91q149 0 262 27.5t176.5 77t63.5 114.5q0 45 -39.5 77
t-142.5 63.5t-294 72.5l17 137h686v-126h-359v-10z" />
    <glyph glyph-name="uniFBFE" unicode="&#x6cc;" horiz-adv-x="579" arabic-form="initial" 
d="M407 742q26 -103 42.5 -194.5t16.5 -167.5q0 -182 -96.5 -281t-314.5 -99h-55q-26 0 -26 63t26 63h55q160 0 227 65.5t67 189.5q0 65 -16.5 148.5t-40.5 181.5zM-156 -365l119 120l120 -120l-120 -119zM192 -365l120 120l119 -120l-119 -119z" />
    <glyph glyph-name="uniFBFF" unicode="&#x6cc;" horiz-adv-x="846" arabic-form="medial" 
d="M486 459q0 -105 21.5 -179.5t81.5 -114t176 -39.5h81v-126h-85q-127 0 -216.5 62t-116.5 178h-10q-27 -117 -130 -178.5t-234 -61.5h-54q-26 0 -26 63t26 63h54q129 0 195.5 39.5t90 114.5t23.5 179v125h123v-125zM-188 -365l119 120l120 -120l-120 -119zM160 -365
l120 120l119 -120l-119 -119z" />
    <glyph glyph-name="uniFCF2" unicode="&#xfcf2;" horiz-adv-x="894" arabic-form="medial" 
d="M0 126h894v-126h-894q-26 0 -26 63t26 63zM667 1211l23 -71l-455 -145l-23 73zM444 692q-14 -101 -114 -101q-122 0 -122 130q0 71 31 161l60 -20q-12 -37 -19.5 -69.5t-7.5 -56.5q0 -71 67 -71q44 0 61.5 31.5t17.5 112.5v16h61v-16q0 -81 17.5 -112.5t60.5 -31.5
q66 0 66 71q0 48 -24 126l59 20q16 -46 24 -84.5t8 -76.5q0 -130 -122 -130q-101 0 -114 101h-10z" />
    <glyph glyph-name="uniFCF3" unicode="&#xfcf3;" horiz-adv-x="894" arabic-form="medial" 
d="M0 126h894v-126h-894q-26 0 -26 63t26 63zM537 1507q64 0 102 -47t38 -122q0 -88 -56 -157.5t-153.5 -120.5t-222.5 -86l-21 70q66 18 143.5 50.5t134.5 69.5q-52 17 -101 54t-49 104q0 44 25 86.5t67 70.5t93 28zM529 1436q-41 0 -76 -34.5t-35 -78.5q0 -49 46.5 -74
t93.5 -36q46 55 46 121q0 41 -18.5 71.5t-56.5 30.5zM444 692q-14 -101 -114 -101q-122 0 -122 130q0 71 31 161l60 -20q-12 -37 -19.5 -69.5t-7.5 -56.5q0 -71 67 -71q44 0 61.5 31.5t17.5 112.5v16h61v-16q0 -81 17.5 -112.5t60.5 -31.5q66 0 66 71q0 48 -24 126l59 20
q16 -46 24 -84.5t8 -76.5q0 -130 -122 -130q-101 0 -114 101h-10z" />
    <glyph glyph-name="uniFCF4" unicode="&#xfcf4;" horiz-adv-x="894" arabic-form="medial" 
d="M0 126h894v-126h-894q-26 0 -26 63t26 63zM667 822l23 -71l-455 -145l-23 73zM444 1023q-14 -101 -114 -101q-122 0 -122 130q0 71 31 161l60 -20q-12 -37 -19.5 -69.5t-7.5 -56.5q0 -71 67 -71q44 0 61.5 31.5t17.5 112.5v16h61v-16q0 -81 17.5 -112.5t60.5 -31.5
q66 0 66 71q0 48 -24 126l59 20q16 -46 24 -84.5t8 -76.5q0 -130 -122 -130q-101 0 -114 101h-10z" />
    <glyph glyph-name="uniFD3C" unicode="&#xfd3c;" horiz-adv-x="596" arabic-form="final" 
d="M172 1147h123v-733q0 -153 65 -220.5t235 -67.5h1v-126h-1q-423 0 -423 412v735zM459 1754l23 -71l-455 -145l-23 73zM459 1522l23 -71l-455 -145l-23 73z" />
    <glyph glyph-name="uniFD3D" unicode="&#xfd3d;" horiz-adv-x="504" arabic-form="isolated" 
d="M314 1147v-1147h-122v1147h122zM469 1754l23 -71l-455 -145l-23 73zM469 1522l23 -71l-455 -145l-23 73z" />
    <glyph glyph-name="uniFDFC" unicode="&#xfdfc;" horiz-adv-x="3235" arabic-form="isolated" 
d="M2289 742q26 -103 42.5 -194.5t16.5 -167.5q0 -182 -96.5 -281t-314.5 -99h-55q-26 0 -26 63t26 63h55q160 0 227 65.5t67 189.5q0 65 -16.5 148.5t-40.5 181.5zM1726 -365l119 120l120 -120l-120 -119zM2074 -365l120 120l119 -120l-119 -119zM2876 562l115 42
q57 -163 87.5 -298t30.5 -241q0 -205 -138 -349t-440 -254l-52 115q269 97 389 208.5t120 273.5q0 92 -29.5 222.5t-82.5 280.5zM1464 1299h123v-885q0 -153 65 -220.5t235 -67.5h1v-126h-1q-423 0 -423 412v887zM642 -385q217 0 320 111.5t103 344.5v1228h123v-1235
q0 -289 -144 -432.5t-420 -143.5q-241 0 -375.5 126t-134.5 358q0 89 19.5 191.5t61.5 224.5l111 -35q-37 -107 -55 -203t-18 -173q0 -362 409 -362z" />
    <glyph glyph-name="uniFE80" unicode="&#x621;" horiz-adv-x="906" arabic-form="isolated" 
d="M151 414q0 99 44 172t115 113t151 40q71 0 132 -27t119 -79l-48 -59q-92 79 -199 79q-94 0 -163 -67t-69 -169q0 -93 72 -145.5t187 -52.5t273 55l28 -78l-655 -206l-24 81l305 85v10q-115 6 -191.5 73t-76.5 175z" />
    <glyph glyph-name="uniFE81" unicode="&#x622;" horiz-adv-x="504" arabic-form="isolated" 
d="M497 1586l61 -30q-34 -91 -75 -129.5t-103 -38.5q-30 0 -61.5 13t-80.5 41q-46 27 -67.5 34.5t-41.5 7.5q-34 0 -59.5 -25.5t-65.5 -101.5l-56 35q42 93 84 135t93 42q26 0 52 -10.5t77 -38.5q59 -32 83.5 -41t46.5 -9q39 0 62 23.5t51 92.5zM314 1147v-1147h-122v1147
h122z" />
    <glyph glyph-name="uniFE82" unicode="&#x622;" horiz-adv-x="596" arabic-form="final" 
d="M172 1147h123v-733q0 -153 65 -220.5t235 -67.5h1v-126h-1q-423 0 -423 412v735zM-33 1371q78 121 167 121q26 0 51.5 -8.5t59.5 -31.5q57 -36 86 -36q53 0 108 88l62 -38q-70 -127 -166 -127q-45 0 -107 39q-58 37 -88 37q-52 0 -112 -85z" />
    <glyph glyph-name="uniFE83" unicode="&#x623;" horiz-adv-x="504" arabic-form="isolated" 
d="M314 1147v-1147h-122v1147h122zM402 1739l-24 -64q-18 8 -37.5 12.5t-41.5 4.5q-59 0 -97 -33.5t-38 -86.5q0 -49 32.5 -76t86.5 -27q40 0 85 14l100 31l22 -69l-454 -144l-22 71l181 52v10q-44 17 -70.5 54.5t-26.5 86.5q0 80 57.5 134.5t144.5 54.5q26 0 51.5 -7
t50.5 -18z" />
    <glyph glyph-name="uniFE84" unicode="&#x623;" horiz-adv-x="596" arabic-form="final" 
d="M172 1147h123v-733q0 -153 65 -220.5t235 -67.5h1v-126h-1q-423 0 -423 412v735zM396 1745l-24 -64q-18 8 -37.5 12.5t-41.5 4.5q-59 0 -97 -33.5t-38 -86.5q0 -49 32.5 -76t86.5 -27q40 0 85 14l100 31l22 -69l-454 -144l-22 71l181 52v10q-44 17 -70.5 54.5t-26.5 86.5
q0 80 57.5 134.5t144.5 54.5q26 0 51.5 -7t50.5 -18z" />
    <glyph glyph-name="uniFE85" unicode="&#x624;" horiz-adv-x="956" arabic-form="isolated" 
d="M634 1359l-24 -64q-18 8 -37.5 12.5t-41.5 4.5q-59 0 -97 -33.5t-38 -86.5q0 -49 32.5 -76t86.5 -27q40 0 85 14l100 31l22 -69l-454 -144l-22 71l181 52v10q-44 17 -70.5 54.5t-26.5 86.5q0 80 57.5 134.5t144.5 54.5q26 0 51.5 -7t50.5 -18zM725 17l-6 8
q-53 -14 -117 -25t-137 -11q-151 0 -241 69t-90 221q0 111 36.5 213t110.5 167.5t186 65.5q107 0 179 -61.5t115.5 -161.5t62.5 -217t19 -228q0 -218 -186 -362.5t-518 -227.5l-46 118q292 66 454.5 176t177.5 256zM723 147q-3 70 -17.5 148t-44 147t-77.5 112.5t-119 43.5
q-76 0 -125.5 -47t-73.5 -117.5t-24 -142.5q0 -102 61 -139.5t165 -37.5q73 0 137.5 10t117.5 23z" />
    <glyph glyph-name="uniFE86" unicode="&#x624;" horiz-adv-x="927" arabic-form="final" 
d="M630 1366l-24 -64q-18 8 -37.5 12.5t-41.5 4.5q-59 0 -97 -33.5t-38 -86.5q0 -49 32.5 -76t86.5 -27q40 0 85 14l100 31l22 -69l-454 -144l-22 71l181 52v10q-44 17 -70.5 54.5t-26.5 86.5q0 80 57.5 134.5t144.5 54.5q26 0 51.5 -7t50.5 -18zM727 -6l-6 9
q-130 -3 -257 -3q-150 0 -240 68t-90 221q0 109 36.5 209t110.5 163.5t186 63.5q100 0 169 -55t112 -144t64.5 -194t26.5 -206h88v-126h-91q-18 -193 -202 -324t-495 -209l-46 118q282 64 447 168t187 241zM725 124q-3 72 -16.5 154t-43 155t-78.5 119t-122 46
q-76 0 -125.5 -44t-73.5 -112t-24 -140q0 -103 61.5 -141t164.5 -38h128.5t128.5 1z" />
    <glyph glyph-name="uniFE87" unicode="&#x625;" horiz-adv-x="504" arabic-form="isolated" 
d="M388 -218l-24 -64q-18 8 -37.5 12.5t-41.5 4.5q-59 0 -97 -33.5t-38 -86.5q0 -49 32.5 -76t86.5 -27q40 0 85 14l100 31l22 -69l-454 -144l-22 71l181 52v10q-44 17 -70.5 54.5t-26.5 86.5q0 80 57.5 134.5t144.5 54.5q26 0 51.5 -7t50.5 -18zM314 0h-122v1299h122v-1299
z" />
    <glyph glyph-name="uniFE88" unicode="&#x625;" horiz-adv-x="596" arabic-form="final" 
d="M470 -211l-24 -64q-18 8 -37.5 12.5t-41.5 4.5q-59 0 -97 -33.5t-38 -86.5q0 -49 32.5 -76t86.5 -27q40 0 85 14l100 31l22 -69l-454 -144l-22 71l181 52v10q-44 17 -70.5 54.5t-26.5 86.5q0 80 57.5 134.5t144.5 54.5q26 0 51.5 -7t50.5 -18zM172 1299h123v-885
q0 -153 65 -220.5t235 -67.5h1v-126h-1q-423 0 -423 412v887z" />
    <glyph glyph-name="uniFE89" unicode="&#x626;" horiz-adv-x="1494" arabic-form="isolated" 
d="M575 1083l-24 -64q-18 8 -37.5 12.5t-41.5 4.5q-59 0 -97 -33.5t-38 -86.5q0 -49 32.5 -76t86.5 -27q40 0 85 14l100 31l22 -69l-454 -144l-22 71l181 52v10q-44 17 -70.5 54.5t-26.5 86.5q0 80 57.5 134.5t144.5 54.5q26 0 51.5 -7t50.5 -18zM1352 711l-44 -110
q-103 51 -206 51q-91 0 -165 -41t-117.5 -113t-43.5 -167q0 -73 40 -107t108.5 -46t155.5 -19q83 -6 154 -23t114.5 -62.5t43.5 -135.5q0 -117 -88 -204t-241.5 -135.5t-349.5 -48.5q-275 0 -427.5 119t-152.5 348q0 85 10.5 183.5t32.5 228.5l119 -21q-24 -135 -34 -221
t-10 -167q0 -176 117.5 -260t343.5 -84q159 0 287 31t202.5 87t74.5 129q0 54 -34 79t-89.5 33.5t-119.5 11.5q-98 7 -183 27.5t-136.5 76.5t-51.5 169q0 130 60 232.5t160.5 161.5t223.5 59q58 0 120.5 -15t125.5 -47z" />
    <glyph glyph-name="uniFE8A" unicode="&#x626;" horiz-adv-x="1442" arabic-form="final" 
d="M952 784l-24 -64q-18 8 -37.5 12.5t-41.5 4.5q-59 0 -97 -33.5t-38 -86.5q0 -49 32.5 -76t86.5 -27q40 0 85 14l100 31l22 -69l-454 -144l-22 71l181 52v10q-44 17 -70.5 54.5t-26.5 86.5q0 80 57.5 134.5t144.5 54.5q26 0 51.5 -7t50.5 -18zM1083 -10
q144 -49 201.5 -99.5t57.5 -131.5q0 -94 -81.5 -168.5t-223 -117t-322.5 -42.5q-307 0 -453.5 123.5t-146.5 385.5q0 83 12.5 205.5t35.5 273.5l115 -23q-46 -293 -46 -450q0 -207 112.5 -298t368.5 -91q149 0 262 27.5t176.5 77t63.5 114.5q0 45 -39.5 77t-142.5 63.5
t-294 72.5l17 137h686v-126h-359v-10z" />
    <glyph glyph-name="uniFE8B" unicode="&#x626;" horiz-adv-x="579" arabic-form="initial" 
d="M432 1362l-24 -64q-18 8 -37.5 12.5t-41.5 4.5q-59 0 -97 -33.5t-38 -86.5q0 -49 32.5 -76t86.5 -27q40 0 85 14l100 31l22 -69l-454 -144l-22 71l181 52v10q-44 17 -70.5 54.5t-26.5 86.5q0 80 57.5 134.5t144.5 54.5q26 0 51.5 -7t50.5 -18zM407 742
q26 -103 42.5 -194.5t16.5 -167.5q0 -182 -96.5 -281t-314.5 -99h-55q-26 0 -26 63t26 63h55q160 0 227 65.5t67 189.5q0 65 -16.5 148.5t-40.5 181.5z" />
    <glyph glyph-name="uniFE8C" unicode="&#x626;" horiz-adv-x="846" arabic-form="medial" 
d="M398 1203l-24 -64q-18 8 -37.5 12.5t-41.5 4.5q-59 0 -97 -33.5t-38 -86.5q0 -49 32.5 -76t86.5 -27q40 0 85 14l100 31l22 -69l-454 -144l-22 71l181 52v10q-44 17 -70.5 54.5t-26.5 86.5q0 80 57.5 134.5t144.5 54.5q26 0 51.5 -7t50.5 -18zM486 459
q0 -105 21.5 -179.5t81.5 -114t176 -39.5h81v-126h-85q-127 0 -216.5 62t-116.5 178h-10q-27 -117 -130 -178.5t-234 -61.5h-54q-26 0 -26 63t26 63h54q129 0 195.5 39.5t90 114.5t23.5 179v125h123v-125z" />
    <glyph glyph-name="uniFE8D" unicode="&#x627;" horiz-adv-x="504" arabic-form="isolated" 
d="M314 0h-122v1299h122v-1299z" />
    <glyph glyph-name="uniFE8E" unicode="&#x627;" horiz-adv-x="596" arabic-form="final" 
d="M172 1299h123v-885q0 -153 65 -220.5t235 -67.5h1v-126h-1q-423 0 -423 412v887z" />
    <glyph glyph-name="uniFE8F" unicode="&#x628;" horiz-adv-x="1762" arabic-form="isolated" 
d="M761 -365l119 120l120 -120l-120 -119zM1599 741q23 -78 36.5 -154t13.5 -146q0 -169 -77 -265t-246 -136t-445 -40q-273 0 -442 39.5t-247 133t-78 256.5q0 65 13 144.5t35 167.5l114 -29q-20 -77 -32 -146.5t-12 -124.5q0 -120 62.5 -189t204.5 -97.5t382 -28.5
q245 0 386.5 30t202 100.5t60.5 191.5q0 118 -42 264z" />
    <glyph glyph-name="uniFE90" unicode="&#x628;" horiz-adv-x="1945" arabic-form="final" 
d="M1681 611q-12 -68 -20 -126.5t-8 -118.5q0 -68 23 -122.5t86 -86t182 -31.5h1v-126h-1q-343 0 -384 283h-10q-91 -161 -289 -222t-477 -61q-355 0 -512.5 120t-157.5 342q0 69 15 148.5t43 161.5l111 -35q-53 -154 -53 -268q0 -172 135.5 -257.5t440.5 -85.5
q204 0 341.5 29t222.5 90t131 156t66 227zM731 -365l119 120l120 -120l-120 -119z" />
    <glyph glyph-name="uniFE91" unicode="&#x628;" horiz-adv-x="579" arabic-form="initial" 
d="M407 742q26 -103 42.5 -194.5t16.5 -167.5q0 -182 -96.5 -281t-314.5 -99h-55q-26 0 -26 63t26 63h55q160 0 227 65.5t67 189.5q0 65 -16.5 148.5t-40.5 181.5zM24 -365l119 120l120 -120l-120 -119z" />
    <glyph glyph-name="uniFE92" unicode="&#x628;" horiz-adv-x="846" arabic-form="medial" 
d="M486 459q0 -105 21.5 -179.5t81.5 -114t176 -39.5h81v-126h-85q-127 0 -216.5 62t-116.5 178h-10q-27 -117 -130 -178.5t-234 -61.5h-54q-26 0 -26 63t26 63h54q129 0 195.5 39.5t90 114.5t23.5 179v125h123v-125zM24 -365l119 120l120 -120l-120 -119z" />
    <glyph glyph-name="uniFE93" unicode="&#x629;" horiz-adv-x="887" arabic-form="isolated" 
d="M131 1244l119 120l120 -120l-120 -119zM479 1244l120 120l119 -120l-119 -119zM443 -11q-154 0 -241.5 86t-87.5 219q0 134 75 259.5t179 225.5q-26 25 -50 47t-51 44l76 91q199 -164 315 -327.5t116 -332.5q0 -136 -90 -224t-241 -88zM443 116q106 0 157 53.5t51 140.5
q0 95 -57.5 199.5t-150.5 190.5q-92 -85 -150.5 -190t-58.5 -200q0 -87 51.5 -140.5t157.5 -53.5z" />
    <glyph glyph-name="uniFE94" unicode="&#x629;" horiz-adv-x="1134" arabic-form="final" 
d="M458 1327l119 120l120 -120l-120 -119zM806 1327l120 120l119 -120l-119 -119zM717 823l-9 154l122 7l34 -550q7 -122 32 -189t81.5 -93t155.5 -26h1v-126h-1q-139 0 -219 48t-121 145q-111 -44 -238 -44q-101 0 -186 29t-136 88t-51 147q0 158 143 265.5t392 144.5z
M724 703q-196 -23 -311 -93.5t-115 -176.5q0 -87 79.5 -125.5t186.5 -38.5q103 0 195 30q-6 30 -9.5 60t-5.5 64z" />
    <glyph glyph-name="uniFE95" unicode="&#x62a;" horiz-adv-x="1762" arabic-form="isolated" 
d="M1599 741q23 -78 36.5 -154t13.5 -146q0 -169 -77 -265t-246 -136t-445 -40q-273 0 -442 39.5t-247 133t-78 256.5q0 65 13 144.5t35 167.5l114 -29q-20 -77 -32 -146.5t-12 -124.5q0 -120 62.5 -189t204.5 -97.5t382 -28.5q245 0 386.5 30t202 100.5t60.5 191.5
q0 118 -42 264zM586 835l119 120l120 -120l-120 -119zM934 835l120 120l119 -120l-119 -119z" />
    <glyph glyph-name="uniFE96" unicode="&#x62a;" horiz-adv-x="1945" arabic-form="final" 
d="M1681 611q-12 -68 -20 -126.5t-8 -118.5q0 -68 23 -122.5t86 -86t182 -31.5h1v-126h-1q-343 0 -384 283h-10q-91 -161 -289 -222t-477 -61q-355 0 -512.5 120t-157.5 342q0 69 15 148.5t43 161.5l111 -35q-53 -154 -53 -268q0 -172 135.5 -257.5t440.5 -85.5
q204 0 341.5 29t222.5 90t131 156t66 227zM609 787l119 120l120 -120l-120 -119zM957 787l120 120l119 -120l-119 -119z" />
    <glyph glyph-name="uniFE97" unicode="&#x62a;" horiz-adv-x="579" arabic-form="initial" 
d="M407 742q26 -103 42.5 -194.5t16.5 -167.5q0 -182 -96.5 -281t-314.5 -99h-55q-26 0 -26 63t26 63h55q160 0 227 65.5t67 189.5q0 65 -16.5 148.5t-40.5 181.5zM-38 1125l119 120l120 -120l-120 -119zM310 1125l120 120l119 -120l-119 -119z" />
    <glyph glyph-name="uniFE98" unicode="&#x62a;" horiz-adv-x="846" arabic-form="medial" 
d="M486 459q0 -105 21.5 -179.5t81.5 -114t176 -39.5h81v-126h-85q-127 0 -216.5 62t-116.5 178h-10q-27 -117 -130 -178.5t-234 -61.5h-54q-26 0 -26 63t26 63h54q129 0 195.5 39.5t90 114.5t23.5 179v125h123v-125zM31 970l119 120l120 -120l-120 -119zM379 970l120 120
l119 -120l-119 -119z" />
    <glyph glyph-name="uniFE99" unicode="&#x62b;" horiz-adv-x="1762" arabic-form="isolated" 
d="M1599 741q23 -78 36.5 -154t13.5 -146q0 -169 -77 -265t-246 -136t-445 -40q-273 0 -442 39.5t-247 133t-78 256.5q0 65 13 144.5t35 167.5l114 -29q-20 -77 -32 -146.5t-12 -124.5q0 -120 62.5 -189t204.5 -97.5t382 -28.5q245 0 386.5 30t202 100.5t60.5 191.5
q0 118 -42 264zM760 1138l119 119l120 -119l-120 -120zM934 835l120 120l119 -120l-119 -119zM586 835l119 120l120 -120l-120 -119z" />
    <glyph glyph-name="uniFE9A" unicode="&#x62b;" horiz-adv-x="1945" arabic-form="final" 
d="M1681 611q-12 -68 -20 -126.5t-8 -118.5q0 -68 23 -122.5t86 -86t182 -31.5h1v-126h-1q-343 0 -384 283h-10q-91 -161 -289 -222t-477 -61q-355 0 -512.5 120t-157.5 342q0 69 15 148.5t43 161.5l111 -35q-53 -154 -53 -268q0 -172 135.5 -257.5t440.5 -85.5
q204 0 341.5 29t222.5 90t131 156t66 227zM782 1091l119 119l120 -119l-120 -120zM956 788l120 120l119 -120l-119 -119zM608 788l119 120l120 -120l-120 -119z" />
    <glyph glyph-name="uniFE9B" unicode="&#x62b;" horiz-adv-x="579" arabic-form="initial" 
d="M407 742q26 -103 42.5 -194.5t16.5 -167.5q0 -182 -96.5 -281t-314.5 -99h-55q-26 0 -26 63t26 63h55q160 0 227 65.5t67 189.5q0 65 -16.5 148.5t-40.5 181.5zM136 1428l119 119l120 -119l-120 -120zM310 1125l120 120l119 -120l-119 -119zM-38 1125l119 120l120 -120
l-120 -119z" />
    <glyph glyph-name="uniFE9C" unicode="&#x62b;" horiz-adv-x="846" arabic-form="medial" 
d="M486 459q0 -105 21.5 -179.5t81.5 -114t176 -39.5h81v-126h-85q-127 0 -216.5 62t-116.5 178h-10q-27 -117 -130 -178.5t-234 -61.5h-54q-26 0 -26 63t26 63h54q129 0 195.5 39.5t90 114.5t23.5 179v125h123v-125zM205 1213l119 119l120 -119l-120 -120zM379 910l120 120
l119 -120l-119 -119zM31 910l119 120l120 -120l-120 -119z" />
    <glyph glyph-name="uniFE9D" unicode="&#x62c;" horiz-adv-x="1346" arabic-form="isolated" 
d="M591 -121l119 120l120 -120l-120 -119zM451 847q49 0 120 -20.5t201 -79.5q137 -61 230 -96.5t183 -58.5l-11 -150q-123 -15 -254.5 -49.5t-254.5 -88.5t-221.5 -126.5t-156.5 -164t-58 -201.5q0 -117 72 -194.5t192 -115.5t263 -38q115 0 229 23t214 66l57 -112
q-121 -53 -249 -80t-253 -27q-177 0 -323.5 52.5t-234 156.5t-87.5 258q0 150 81 270t215.5 209.5t298.5 148.5t329 87v10q-68 18 -144 46t-176 70q-109 45 -168 63.5t-95 18.5q-67 0 -113 -45t-87 -152l-7 -17l-94 31l7 18q53 155 122.5 221.5t172.5 66.5z" />
    <glyph glyph-name="uniFE9E" unicode="&#x62c;" horiz-adv-x="1348" arabic-form="final" 
d="M582 -166l119 120l120 -120l-120 -119zM451 807q53 0 126.5 -22.5t194.5 -77.5q142 -63 234.5 -97.5t178.5 -57.5l-11 -150q-69 -9 -121 -17.5t-93 -19.5v-10q52 -121 130.5 -175t201.5 -54h56v-126h-50q-157 0 -260 82.5t-162 255.5q-193 -51 -338.5 -139t-227 -198
t-81.5 -229q0 -105 65 -183.5t183.5 -121.5t278.5 -43q242 0 443 89l57 -112q-243 -107 -502 -107q-195 0 -340 58t-225 163t-80 246q0 168 116 313.5t324 250.5t484 151v10q-63 17 -137 43.5t-183 72.5q-109 45 -168 63.5t-95 18.5q-67 0 -113 -45t-87 -152l-7 -17l-94 31
l7 18q53 153 122 220.5t173 67.5z" />
    <glyph glyph-name="uniFE9F" unicode="&#x62c;" horiz-adv-x="1244" arabic-form="initial" 
d="M386 -365l119 120l120 -120l-120 -119zM404 798q48 0 117.5 -22t204.5 -80q128 -56 220 -89t184 -57v-116l-487 -273q-154 -86 -283.5 -123.5t-275.5 -37.5h-84q-26 0 -26 63t26 63h104q124 0 233.5 31t254.5 106l388 205v10q-67 18 -142 45t-173 70q-108 44 -167 63
t-95 19q-67 0 -113 -45t-88 -152l-6 -17l-94 31l6 17q55 154 124 221.5t172 67.5z" />
    <glyph glyph-name="uniFEA0" unicode="&#x62c;" horiz-adv-x="1291" arabic-form="medial" 
d="M386 -365l119 120l120 -120l-120 -119zM404 798q48 0 118 -21t204 -81q128 -56 220 -89t184 -57v-116l-245 -134v-10q74 -94 154 -129t176 -35h76v-126h-80q-118 0 -222.5 54t-196.5 190l-149 -83q-154 -86 -283.5 -123.5t-275.5 -37.5h-84q-26 0 -26 63t26 63h104
q124 0 233.5 30.5t254.5 106.5l388 205v10q-125 34 -315 115q-108 44 -167 63t-95 19q-67 0 -113 -45t-88 -152l-6 -17l-94 31l6 17q56 154 124.5 221.5t171.5 67.5z" />
    <glyph glyph-name="uniFEA1" unicode="&#x62d;" horiz-adv-x="1346" arabic-form="isolated" 
d="M451 847q49 0 120 -20.5t201 -79.5q137 -61 230 -96.5t183 -58.5l-11 -150q-123 -15 -254.5 -49.5t-254.5 -88.5t-221.5 -126.5t-156.5 -164t-58 -201.5q0 -117 72 -194.5t192 -115.5t263 -38q115 0 229 23t214 66l57 -112q-121 -53 -249 -80t-253 -27
q-177 0 -323.5 52.5t-234 156.5t-87.5 258q0 150 81 270t215.5 209.5t298.5 148.5t329 87v10q-68 18 -144 46t-176 70q-109 45 -168 63.5t-95 18.5q-67 0 -113 -45t-87 -152l-7 -17l-94 31l7 18q53 155 122.5 221.5t172.5 66.5z" />
    <glyph glyph-name="uniFEA2" unicode="&#x62d;" horiz-adv-x="1348" arabic-form="final" 
d="M451 807q53 0 126.5 -22.5t194.5 -77.5q142 -63 234.5 -97.5t178.5 -57.5l-11 -150q-69 -9 -121 -17.5t-93 -19.5v-10q52 -121 130.5 -175t201.5 -54h56v-126h-50q-157 0 -260 82.5t-162 255.5q-193 -51 -338.5 -139t-227 -198t-81.5 -229q0 -105 65 -183.5t183.5 -121.5
t278.5 -43q242 0 443 89l57 -112q-243 -107 -502 -107q-195 0 -340 58t-225 163t-80 246q0 168 116 313.5t324 250.5t484 151v10q-63 17 -137 43.5t-183 72.5q-109 45 -168 63.5t-95 18.5q-67 0 -113 -45t-87 -152l-7 -17l-94 31l7 18q53 153 122 220.5t173 67.5z" />
    <glyph glyph-name="uniFEA3" unicode="&#x62d;" horiz-adv-x="1244" arabic-form="initial" 
d="M404 798q48 0 117.5 -22t204.5 -80q128 -56 220 -89t184 -57v-116l-487 -273q-154 -86 -283.5 -123.5t-275.5 -37.5h-84q-26 0 -26 63t26 63h104q124 0 233.5 31t254.5 106l388 205v10q-67 18 -142 45t-173 70q-108 44 -167 63t-95 19q-67 0 -113 -45t-88 -152l-6 -17
l-94 31l6 17q55 154 124 221.5t172 67.5z" />
    <glyph glyph-name="uniFEA4" unicode="&#x62d;" horiz-adv-x="1291" arabic-form="medial" 
d="M404 798q48 0 118 -21t204 -81q128 -56 220 -89t184 -57v-116l-245 -134v-10q74 -94 154 -129t176 -35h76v-126h-80q-118 0 -222.5 54t-196.5 190l-149 -83q-154 -86 -283.5 -123.5t-275.5 -37.5h-84q-26 0 -26 63t26 63h104q124 0 233.5 30.5t254.5 106.5l388 205v10
q-125 34 -315 115q-108 44 -167 63t-95 19q-67 0 -113 -45t-88 -152l-6 -17l-94 31l6 17q56 154 124.5 221.5t171.5 67.5z" />
    <glyph glyph-name="uniFEA5" unicode="&#x62e;" horiz-adv-x="1346" arabic-form="isolated" 
d="M451 847q49 0 120 -20.5t201 -79.5q137 -61 230 -96.5t183 -58.5l-11 -150q-123 -15 -254.5 -49.5t-254.5 -88.5t-221.5 -126.5t-156.5 -164t-58 -201.5q0 -117 72 -194.5t192 -115.5t263 -38q115 0 229 23t214 66l57 -112q-121 -53 -249 -80t-253 -27
q-177 0 -323.5 52.5t-234 156.5t-87.5 258q0 150 81 270t215.5 209.5t298.5 148.5t329 87v10q-68 18 -144 46t-176 70q-109 45 -168 63.5t-95 18.5q-67 0 -113 -45t-87 -152l-7 -17l-94 31l7 18q53 155 122.5 221.5t172.5 66.5zM563 1242l119 120l120 -120l-120 -119z" />
    <glyph glyph-name="uniFEA6" unicode="&#x62e;" horiz-adv-x="1348" arabic-form="final" 
d="M451 807q53 0 126.5 -22.5t194.5 -77.5q142 -63 234.5 -97.5t178.5 -57.5l-11 -150q-69 -9 -121 -17.5t-93 -19.5v-10q52 -121 130.5 -175t201.5 -54h56v-126h-50q-157 0 -260 82.5t-162 255.5q-193 -51 -338.5 -139t-227 -198t-81.5 -229q0 -105 65 -183.5t183.5 -121.5
t278.5 -43q242 0 443 89l57 -112q-243 -107 -502 -107q-195 0 -340 58t-225 163t-80 246q0 168 116 313.5t324 250.5t484 151v10q-63 17 -137 43.5t-183 72.5q-109 45 -168 63.5t-95 18.5q-67 0 -113 -45t-87 -152l-7 -17l-94 31l7 18q53 153 122 220.5t173 67.5zM563 1202
l119 120l120 -120l-120 -119z" />
    <glyph glyph-name="uniFEA7" unicode="&#x62e;" horiz-adv-x="1244" arabic-form="initial" 
d="M404 798q48 0 117.5 -22t204.5 -80q128 -56 220 -89t184 -57v-116l-487 -273q-154 -86 -283.5 -123.5t-275.5 -37.5h-84q-26 0 -26 63t26 63h104q124 0 233.5 31t254.5 106l388 205v10q-67 18 -142 45t-173 70q-108 44 -167 63t-95 19q-67 0 -113 -45t-88 -152l-6 -17
l-94 31l6 17q55 154 124 221.5t172 67.5zM449 1187l119 120l120 -120l-120 -119z" />
    <glyph glyph-name="uniFEA8" unicode="&#x62e;" horiz-adv-x="1291" arabic-form="medial" 
d="M404 798q48 0 118 -21t204 -81q128 -56 220 -89t184 -57v-116l-245 -134v-10q74 -94 154 -129t176 -35h76v-126h-80q-118 0 -222.5 54t-196.5 190l-149 -83q-154 -86 -283.5 -123.5t-275.5 -37.5h-84q-26 0 -26 63t26 63h104q124 0 233.5 30.5t254.5 106.5l388 205v10
q-125 34 -315 115q-108 44 -167 63t-95 19q-67 0 -113 -45t-88 -152l-6 -17l-94 31l6 17q56 154 124.5 221.5t171.5 67.5zM449 1187l119 120l120 -120l-120 -119z" />
    <glyph glyph-name="uniFEA9" unicode="&#x62f;" horiz-adv-x="1009" arabic-form="isolated" 
d="M896 359q0 -135 -73.5 -215.5t-190 -116.5t-245.5 -36q-133 0 -275 37l29 120q68 -17 128 -24t118 -7q181 0 284.5 60.5t103.5 181.5q0 107 -87 236t-255 281l83 97q188 -169 284 -321t96 -293z" />
    <glyph glyph-name="uniFEAA" unicode="&#x62f;" horiz-adv-x="1278" arabic-form="final" 
d="M697 961l273 -636q50 -117 116 -158t175 -41h17v-126h-17q-129 0 -222 51t-138 171h-10q-50 -112 -163 -172t-244 -60q-95 0 -191 34.5t-181 106.5l65 101q72 -59 151.5 -87t155.5 -28q108 0 203 50t153 144l-262 593z" />
    <glyph glyph-name="uniFEAB" unicode="&#x630;" horiz-adv-x="1009" arabic-form="isolated" 
d="M896 359q0 -135 -73.5 -215.5t-190 -116.5t-245.5 -36q-133 0 -275 37l29 120q68 -17 128 -24t118 -7q181 0 284.5 60.5t103.5 181.5q0 107 -87 236t-255 281l83 97q188 -169 284 -321t96 -293zM401 1362l119 120l120 -120l-120 -119z" />
    <glyph glyph-name="uniFEAC" unicode="&#x630;" horiz-adv-x="1278" arabic-form="final" 
d="M514 1357l119 120l120 -120l-120 -119zM697 961l273 -636q50 -117 116 -158t175 -41h17v-126h-17q-129 0 -222 51t-138 171h-10q-50 -112 -163 -172t-244 -60q-95 0 -191 34.5t-181 106.5l65 101q72 -59 151.5 -87t155.5 -28q108 0 203 50t153 144l-262 593z" />
    <glyph glyph-name="uniFEAD" unicode="&#x631;" horiz-adv-x="577" arabic-form="isolated" 
d="M218 562l115 42q57 -163 87.5 -298t30.5 -241q0 -205 -138 -349t-440 -254l-52 115q269 97 389 208.5t120 273.5q0 92 -29.5 222.5t-82.5 280.5z" />
    <glyph glyph-name="uniFEAE" unicode="&#x631;" horiz-adv-x="757" arabic-form="final" 
d="M218 562l115 42l63 -192q33 -103 76 -166t110.5 -91.5t173.5 -28.5h1v-126h-1q-105 0 -187.5 37t-126.5 104l-10 -4q19 -169 -35 -292t-184 -214.5t-340 -168.5l-52 115q273 98 391 210t118 272q0 89 -29 219t-83 284z" />
    <glyph glyph-name="uniFEAF" unicode="&#x632;" horiz-adv-x="577" arabic-form="isolated" 
d="M218 562l115 42q57 -163 87.5 -298t30.5 -241q0 -205 -138 -349t-440 -254l-52 115q269 97 389 208.5t120 273.5q0 92 -29.5 222.5t-82.5 280.5zM170 1033l119 120l120 -120l-120 -119z" />
    <glyph glyph-name="uniFEB0" unicode="&#x632;" horiz-adv-x="757" arabic-form="final" 
d="M170 1033l119 120l120 -120l-120 -119zM218 562l115 42l63 -192q33 -103 76 -166t110.5 -91.5t173.5 -28.5h1v-126h-1q-105 0 -187.5 37t-126.5 104l-10 -4q19 -169 -35 -292t-184 -214.5t-340 -168.5l-52 115q273 98 391 210t118 272q0 89 -29 219t-83 284z" />
    <glyph glyph-name="uniFEB1" unicode="&#x633;" horiz-adv-x="2513" arabic-form="isolated" 
d="M1558 0q-64 0 -111.5 22.5t-82.5 63.5l-6 -5q16 -196 -60 -321.5t-220.5 -186t-335.5 -60.5q-295 0 -459 132.5t-164 429.5q0 79 13 183.5t44 255.5l117 -25q-31 -154 -43 -248.5t-12 -160.5q0 -241 129 -341t372 -100q242 0 380 87.5t138 301.5q0 93 -33 210t-113 307
l114 52l113 -308q28 -76 81 -119.5t143 -43.5q97 0 146.5 58.5t61.5 190.5l15 171l113 -11l-13 -160q-12 -128 43 -188.5t160 -60.5q189 0 189 219q0 47 -8.5 125.5t-20.5 136.5l121 29q14 -66 22.5 -147.5t8.5 -143.5q0 -176 -75.5 -260.5t-222.5 -84.5q-227 0 -273 205
h-10q-25 -101 -93 -153t-168 -52z" />
    <glyph glyph-name="uniFEB2" unicode="&#x633;" horiz-adv-x="2748" arabic-form="final" 
d="M2352 264q-27 -264 -255 -264q-223 0 -268 205h-10q-25 -101 -93 -153t-168 -52q-64 0 -111.5 22.5t-82.5 63.5l-6 -5q16 -196 -60 -321.5t-220.5 -186t-335.5 -60.5q-295 0 -459 132.5t-164 429.5q0 79 13 183.5t44 255.5l117 -25q-31 -154 -43 -248.5t-12 -160.5
q0 -241 129 -341t372 -100q242 0 380 87.5t138 301.5q0 93 -33 210t-113 307l114 52l113 -308q29 -78 81.5 -120.5t142.5 -42.5q97 0 146.5 58.5t61.5 190.5l15 171l113 -11l-13 -160q-12 -128 43 -188.5t160 -60.5q183 0 183 224q0 47 -9 114.5t-23 140.5l119 24l26 -170
q29 -184 110.5 -258.5t251.5 -74.5h2v-126h-2q-163 0 -260.5 68t-123.5 196h-10z" />
    <glyph glyph-name="uniFEB3" unicode="&#x633;" horiz-adv-x="1658" arabic-form="initial" 
d="M703 126q98 0 147 59t62 189l17 172l113 -11l-13 -160q-12 -127 42.5 -188t160.5 -61q191 0 191 228q0 34 -4.5 84t-11 100.5t-13.5 86.5l119 29q12 -61 22 -147t10 -151q0 -356 -300 -356q-115 0 -183 54.5t-88 150.5h-10q-52 -205 -267 -205q-119 0 -187 61t-85 173
h-10q-30 -105 -126.5 -169.5t-233.5 -64.5h-55q-26 0 -26 64q0 62 26 62h55q156 0 231 78t95 253l14 135l123 -11l-19 -186q-14 -129 39 -199t165 -70z" />
    <glyph glyph-name="uniFEB4" unicode="&#x633;" horiz-adv-x="1894" arabic-form="medial" 
d="M1497 264q-25 -264 -259 -264q-114 0 -179 54.5t-85 150.5h-10q-53 -205 -266 -205q-121 0 -188 61t-85 173h-10q-30 -105 -126.5 -169.5t-233.5 -64.5h-55q-26 0 -26 64q0 62 26 62h55q156 0 230.5 78t95.5 253l14 135l123 -11l-19 -186q-14 -129 39 -199t165 -70
q98 0 147 59t62 189l17 172l113 -11l-13 -160q-12 -127 41.5 -188t154.5 -61q192 0 192 224q0 47 -9 114.5t-24 140.5l120 24l26 -170q28 -182 110.5 -257.5t251.5 -75.5h2v-126h-2q-166 0 -262.5 69.5t-122.5 194.5h-10z" />
    <glyph glyph-name="uniFEB5" unicode="&#x634;" horiz-adv-x="2513" arabic-form="isolated" 
d="M1558 0q-64 0 -111.5 22.5t-82.5 63.5l-6 -5q16 -196 -60 -321.5t-220.5 -186t-335.5 -60.5q-295 0 -459 132.5t-164 429.5q0 79 13 183.5t44 255.5l117 -25q-31 -154 -43 -248.5t-12 -160.5q0 -241 129 -341t372 -100q242 0 380 87.5t138 301.5q0 93 -33 210t-113 307
l114 52l113 -308q28 -76 81 -119.5t143 -43.5q97 0 146.5 58.5t61.5 190.5l15 171l113 -11l-13 -160q-12 -128 43 -188.5t160 -60.5q189 0 189 219q0 47 -8.5 125.5t-20.5 136.5l121 29q14 -66 22.5 -147.5t8.5 -143.5q0 -176 -75.5 -260.5t-222.5 -84.5q-227 0 -273 205
h-10q-25 -101 -93 -153t-168 -52zM1695 1241l119 119l120 -119l-120 -120zM1869 938l120 120l119 -120l-119 -119zM1521 938l119 120l120 -120l-120 -119z" />
    <glyph glyph-name="uniFEB6" unicode="&#x634;" horiz-adv-x="2748" arabic-form="final" 
d="M1677 1241l119 119l120 -119l-120 -120zM1851 938l120 120l119 -120l-119 -119zM1503 938l119 120l120 -120l-120 -119zM2352 264q-27 -264 -255 -264q-223 0 -268 205h-10q-25 -101 -93 -153t-168 -52q-64 0 -111.5 22.5t-82.5 63.5l-6 -5q16 -196 -60 -321.5
t-220.5 -186t-335.5 -60.5q-295 0 -459 132.5t-164 429.5q0 79 13 183.5t44 255.5l117 -25q-31 -154 -43 -248.5t-12 -160.5q0 -241 129 -341t372 -100q242 0 380 87.5t138 301.5q0 93 -33 210t-113 307l114 52l113 -308q29 -78 81.5 -120.5t142.5 -42.5q97 0 146.5 58.5
t61.5 190.5l15 171l113 -11l-13 -160q-12 -128 43 -188.5t160 -60.5q183 0 183 224q0 47 -9 114.5t-23 140.5l119 24l26 -170q29 -184 110.5 -258.5t251.5 -74.5h2v-126h-2q-163 0 -260.5 68t-123.5 196h-10z" />
    <glyph glyph-name="uniFEB7" unicode="&#x634;" horiz-adv-x="1658" arabic-form="initial" 
d="M839 1241l119 119l120 -119l-120 -120zM1013 938l120 120l119 -120l-119 -119zM665 938l119 120l120 -120l-120 -119zM703 126q98 0 147 59t62 189l17 172l113 -11l-13 -160q-12 -127 42.5 -188t160.5 -61q191 0 191 228q0 34 -4.5 84t-11 100.5t-13.5 86.5l119 29
q12 -61 22 -147t10 -151q0 -356 -300 -356q-115 0 -183 54.5t-88 150.5h-10q-52 -205 -267 -205q-119 0 -187 61t-85 173h-10q-30 -105 -126.5 -169.5t-233.5 -64.5h-55q-26 0 -26 64q0 62 26 62h55q156 0 231 78t95 253l14 135l123 -11l-19 -186q-14 -129 39 -199t165 -70z
" />
    <glyph glyph-name="uniFEB8" unicode="&#x634;" horiz-adv-x="1894" arabic-form="medial" 
d="M839 1241l119 119l120 -119l-120 -120zM1013 938l120 120l119 -120l-119 -119zM665 938l119 120l120 -120l-120 -119zM1497 264q-25 -264 -259 -264q-114 0 -179 54.5t-85 150.5h-10q-53 -205 -266 -205q-121 0 -188 61t-85 173h-10q-30 -105 -126.5 -169.5t-233.5 -64.5
h-55q-26 0 -26 64q0 62 26 62h55q156 0 230.5 78t95.5 253l14 135l123 -11l-19 -186q-14 -129 39 -199t165 -70q98 0 147 59t62 189l17 172l113 -11l-13 -160q-12 -127 41.5 -188t154.5 -61q192 0 192 224q0 47 -9 114.5t-24 140.5l120 24l26 -170q28 -182 110.5 -257.5
t251.5 -75.5h2v-126h-2q-166 0 -262.5 69.5t-122.5 194.5h-10z" />
    <glyph glyph-name="uniFEB9" unicode="&#x635;" horiz-adv-x="2427" arabic-form="isolated" 
d="M1982 724q149 0 240.5 -95t91.5 -249q0 -183 -148.5 -281.5t-435.5 -98.5q-238 0 -387 72q2 -270 -155.5 -414.5t-461.5 -144.5q-607 0 -607 562q0 80 13.5 186t43.5 253l117 -25q-28 -147 -41.5 -243t-13.5 -166q0 -228 117.5 -334.5t367.5 -106.5q254 0 378 103.5
t124 316.5q0 86 -31 196.5t-108 289.5l115 53q54 -127 84 -220.5t43 -172.5q167 254 334 386.5t320 132.5zM1970 599q-124 0 -260.5 -109t-279.5 -321q107 -43 301 -43q466 0 466 255q0 98 -62.5 158t-164.5 60z" />
    <glyph glyph-name="uniFEBA" unicode="&#x635;" horiz-adv-x="2500" arabic-form="final" 
d="M1982 724q149 0 240.5 -95t91.5 -249q0 -114 -66 -187q86 -67 251 -67h1v-126h-1q-206 0 -319 107q-148 -107 -450 -107q-238 0 -387 72q2 -271 -156.5 -415t-460.5 -144q-607 0 -607 562q0 155 57 439l117 -25q-29 -149 -42 -244.5t-13 -164.5q0 -228 117.5 -334.5
t367.5 -106.5q254 0 378 103.5t124 316.5q0 86 -31 197t-108 289l115 53q56 -130 85 -222.5t42 -170.5q167 254 334 386.5t320 132.5zM1970 599q-124 0 -260.5 -109t-279.5 -321q107 -43 301 -43q466 0 466 255q0 98 -62.5 158t-164.5 60z" />
    <glyph glyph-name="uniFEBB" unicode="&#x635;" horiz-adv-x="1623" arabic-form="initial" 
d="M374 243q-28 -121 -126.5 -182t-238.5 -61h-9q-26 0 -26 63t26 63h9q126 0 188.5 40t83 113t20.5 171v144h122v-120q1 -85 14 -134.5t37 -76.5t56 -48q127 190 240.5 301t215 159.5t190.5 48.5q105 0 179.5 -45.5t114.5 -123.5t40 -175q0 -141 -81.5 -224.5
t-215.5 -119.5t-293 -36q-219 0 -354 57t-184 186h-8zM1165 599q-69 0 -152 -38.5t-179.5 -132.5t-207.5 -259q60 -24 136.5 -33.5t163.5 -9.5t170 10t150.5 37.5t107 77.5t39.5 130q0 95 -60.5 156.5t-167.5 61.5z" />
    <glyph glyph-name="uniFEBC" unicode="&#x635;" horiz-adv-x="1696" arabic-form="medial" 
d="M301 594h122v-120q1 -85 14 -134.5t37 -76.5t56 -48q127 190 240.5 301t215 159.5t190.5 48.5q105 0 179.5 -45.5t114.5 -123.5t40 -175q0 -115 -64 -190q85 -64 249 -64h1v-126h-1q-209 0 -322 107q-82 -59 -200.5 -83t-252.5 -24q-218 0 -353.5 57t-184.5 186h-8
q-28 -121 -126.5 -182t-238.5 -61h-9q-26 0 -26 63t26 63h9q126 0 188.5 40t83 113t20.5 171v144zM1165 599q-69 0 -152 -38.5t-179.5 -132.5t-207.5 -259q60 -24 136.5 -33.5t163.5 -9.5t170 10t150.5 37.5t107 77.5t39.5 130q0 95 -60.5 156.5t-167.5 61.5z" />
    <glyph glyph-name="uniFEBD" unicode="&#x636;" horiz-adv-x="2427" arabic-form="isolated" 
d="M1982 724q149 0 240.5 -95t91.5 -249q0 -183 -148.5 -281.5t-435.5 -98.5q-238 0 -387 72q2 -270 -155.5 -414.5t-461.5 -144.5q-607 0 -607 562q0 80 13.5 186t43.5 253l117 -25q-28 -147 -41.5 -243t-13.5 -166q0 -228 117.5 -334.5t367.5 -106.5q254 0 378 103.5
t124 316.5q0 86 -31 196.5t-108 289.5l115 53q54 -127 84 -220.5t43 -172.5q167 254 334 386.5t320 132.5zM1970 599q-124 0 -260.5 -109t-279.5 -321q107 -43 301 -43q466 0 466 255q0 98 -62.5 158t-164.5 60zM1860 1117l119 120l120 -120l-120 -119z" />
    <glyph glyph-name="uniFEBE" unicode="&#x636;" horiz-adv-x="2500" arabic-form="final" 
d="M1982 724q149 0 240.5 -95t91.5 -249q0 -114 -66 -187q86 -67 251 -67h1v-126h-1q-206 0 -319 107q-148 -107 -450 -107q-238 0 -387 72q2 -271 -156.5 -415t-460.5 -144q-607 0 -607 562q0 155 57 439l117 -25q-29 -149 -42 -244.5t-13 -164.5q0 -228 117.5 -334.5
t367.5 -106.5q254 0 378 103.5t124 316.5q0 86 -31 197t-108 289l115 53q56 -130 85 -222.5t42 -170.5q167 254 334 386.5t320 132.5zM1970 599q-124 0 -260.5 -109t-279.5 -321q107 -43 301 -43q466 0 466 255q0 98 -62.5 158t-164.5 60zM1860 1117l119 120l120 -120
l-120 -119z" />
    <glyph glyph-name="uniFEBF" unicode="&#x636;" horiz-adv-x="1623" arabic-form="initial" 
d="M1051 1117l119 120l120 -120l-120 -119zM374 243q-28 -121 -126.5 -182t-238.5 -61h-9q-26 0 -26 63t26 63h9q126 0 188.5 40t83 113t20.5 171v144h122v-120q1 -85 14 -134.5t37 -76.5t56 -48q127 190 240.5 301t215 159.5t190.5 48.5q105 0 179.5 -45.5t114.5 -123.5
t40 -175q0 -141 -81.5 -224.5t-215.5 -119.5t-293 -36q-219 0 -354 57t-184 186h-8zM1165 599q-69 0 -152 -38.5t-179.5 -132.5t-207.5 -259q60 -24 136.5 -33.5t163.5 -9.5t170 10t150.5 37.5t107 77.5t39.5 130q0 95 -60.5 156.5t-167.5 61.5z" />
    <glyph glyph-name="uniFEC0" unicode="&#x636;" horiz-adv-x="1696" arabic-form="medial" 
d="M1051 1117l119 120l120 -120l-120 -119zM301 594h122v-120q1 -85 14 -134.5t37 -76.5t56 -48q127 190 240.5 301t215 159.5t190.5 48.5q105 0 179.5 -45.5t114.5 -123.5t40 -175q0 -115 -64 -190q85 -64 249 -64h1v-126h-1q-209 0 -322 107q-82 -59 -200.5 -83
t-252.5 -24q-218 0 -353.5 57t-184.5 186h-8q-28 -121 -126.5 -182t-238.5 -61h-9q-26 0 -26 63t26 63h9q126 0 188.5 40t83 113t20.5 171v144zM1165 599q-69 0 -152 -38.5t-179.5 -132.5t-207.5 -259q60 -24 136.5 -33.5t163.5 -9.5t170 10t150.5 37.5t107 77.5t39.5 130
q0 95 -60.5 156.5t-167.5 61.5z" />
    <glyph glyph-name="uniFEC1" unicode="&#x637;" horiz-adv-x="1597" arabic-form="isolated" 
d="M421 126q17 27 33.5 52.5t32.5 50.5v1070h121v-688q0 -73 -5.5 -137t-24.5 -133l9 -6q295 389 564 389q159 0 246 -97t87 -242q0 -107 -54 -194.5t-185.5 -139t-362.5 -51.5h-768v126h307zM559 126h342q86 0 169 9.5t150 36t107 77t40 131.5q0 95 -61.5 157t-167.5 62
q-68 0 -155 -39t-192.5 -141.5t-231.5 -292.5z" />
    <glyph glyph-name="uniFEC2" unicode="&#x637;" horiz-adv-x="1695" arabic-form="final" 
d="M421 126q17 27 33.5 52.5t32.5 50.5v1070h121v-688q0 -73 -5.5 -137t-24.5 -133l9 -6q295 389 564 389q159 0 246 -97t87 -242q0 -46 -10 -89t-36 -81q44 -42 106 -65.5t150 -23.5h1v-126h-1q-113 0 -187.5 36.5t-130.5 92.5q-67 -59 -186 -94t-308 -35h-768v126h307z
M559 126h342q86 0 169 9.5t150 36t107 77t40 131.5q0 95 -61.5 157t-167.5 62q-68 0 -155 -39t-192.5 -141.5t-231.5 -292.5z" />
    <glyph glyph-name="uniFEC3" unicode="&#x637;" horiz-adv-x="1340" arabic-form="initial" 
d="M0 0q-26 0 -26 63t26 63h165q17 27 33 52.5t32 50.5v1070h122v-688q0 -145 -31 -270l9 -6q144 191 286 290t278 99q157 0 245 -96.5t88 -242.5q0 -107 -54 -194.5t-185.5 -139t-362.5 -51.5h-625zM303 126h342q86 0 169 9.5t150 36t106.5 77t39.5 131.5q0 95 -61.5 157
t-166.5 62q-69 0 -155.5 -39t-192 -141.5t-231.5 -292.5z" />
    <glyph glyph-name="uniFEC4" unicode="&#x637;" horiz-adv-x="1439" arabic-form="medial" 
d="M0 0q-26 0 -26 63t26 63h165q17 27 33 52.5t32 50.5v1070h122v-688q0 -73 -6 -137t-25 -133l9 -6q295 389 564 389q159 0 246 -97t87 -242q0 -44 -10 -87.5t-35 -81.5q43 -43 106 -66.5t150 -23.5h1v-126h-1q-113 0 -187.5 36.5t-130.5 93.5q-67 -59 -186 -94.5
t-309 -35.5h-625zM303 126h342q86 0 169 9.5t150 36t106.5 77t39.5 131.5q0 95 -61.5 157t-166.5 62q-69 0 -155.5 -39t-192 -141.5t-231.5 -292.5z" />
    <glyph glyph-name="uniFEC5" unicode="&#x638;" horiz-adv-x="1597" arabic-form="isolated" 
d="M421 126q17 27 33.5 52.5t32.5 50.5v1070h121v-688q0 -73 -5.5 -137t-24.5 -133l9 -6q295 389 564 389q159 0 246 -97t87 -242q0 -107 -54 -194.5t-185.5 -139t-362.5 -51.5h-768v126h307zM559 126h342q86 0 169 9.5t150 36t107 77t40 131.5q0 95 -61.5 157t-167.5 62
q-68 0 -155 -39t-192.5 -141.5t-231.5 -292.5zM1026 1117l119 120l120 -120l-120 -119z" />
    <glyph glyph-name="uniFEC6" unicode="&#x638;" horiz-adv-x="1695" arabic-form="final" 
d="M1026 1117l119 120l120 -120l-120 -119zM421 126q17 27 33.5 52.5t32.5 50.5v1070h121v-688q0 -73 -5.5 -137t-24.5 -133l9 -6q295 389 564 389q159 0 246 -97t87 -242q0 -46 -10 -89t-36 -81q44 -42 106 -65.5t150 -23.5h1v-126h-1q-113 0 -187.5 36.5t-130.5 92.5
q-67 -59 -186 -94t-308 -35h-768v126h307zM559 126h342q86 0 169 9.5t150 36t107 77t40 131.5q0 95 -61.5 157t-167.5 62q-68 0 -155 -39t-192.5 -141.5t-231.5 -292.5z" />
    <glyph glyph-name="uniFEC7" unicode="&#x638;" horiz-adv-x="1340" arabic-form="initial" 
d="M770 1117l119 120l120 -120l-120 -119zM0 0q-26 0 -26 63t26 63h165q17 27 33 52.5t32 50.5v1070h122v-688q0 -145 -31 -270l9 -6q144 191 286 290t278 99q157 0 245 -96.5t88 -242.5q0 -107 -54 -194.5t-185.5 -139t-362.5 -51.5h-625zM303 126h342q86 0 169 9.5t150 36
t106.5 77t39.5 131.5q0 95 -61.5 157t-166.5 62q-69 0 -155.5 -39t-192 -141.5t-231.5 -292.5z" />
    <glyph glyph-name="uniFEC8" unicode="&#x638;" horiz-adv-x="1439" arabic-form="medial" 
d="M770 1117l119 120l120 -120l-120 -119zM0 0q-26 0 -26 63t26 63h165q17 27 33 52.5t32 50.5v1070h122v-688q0 -73 -6 -137t-25 -133l9 -6q295 389 564 389q159 0 246 -97t87 -242q0 -44 -10 -87.5t-35 -81.5q43 -43 106 -66.5t150 -23.5h1v-126h-1q-113 0 -187.5 36.5
t-130.5 93.5q-67 -59 -186 -94.5t-309 -35.5h-625zM303 126h342q86 0 169 9.5t150 36t106.5 77t39.5 131.5q0 95 -61.5 157t-166.5 62q-69 0 -155.5 -39t-192 -141.5t-231.5 -292.5z" />
    <glyph glyph-name="uniFEC9" unicode="&#x639;" horiz-adv-x="1182" arabic-form="isolated" 
d="M981 1013l-63 -96q-115 108 -252 108q-83 0 -150.5 -38.5t-107.5 -104t-40 -145.5q0 -123 108 -187t316 -64q51 0 115 3.5t130 9.5l-3 -125q-239 -6 -419.5 -79t-281 -197t-100.5 -284q0 -174 139.5 -269t393.5 -95q119 0 232 21t201 58l44 -118q-219 -92 -481 -92
q-200 0 -345.5 58t-224 165t-78.5 255q0 138 60 258t169.5 208.5t257.5 130.5l1 10q-167 23 -258.5 109t-91.5 223q0 115 55 208.5t147.5 149.5t204.5 56q185 0 322 -137z" />
    <glyph glyph-name="uniFECA" unicode="&#x639;" horiz-adv-x="1195" arabic-form="final" 
d="M1035 547q0 -177 -272 -332v-10q47 -44 107 -61.5t163 -17.5h162v-126h-159q-134 0 -216 30t-162 109q-219 -111 -320 -215t-101 -240q0 -145 136.5 -229t371.5 -84q81 0 166.5 9.5t174.5 27.5l27 -125q-206 -43 -373 -43q-188 0 -327.5 53t-216.5 150t-77 227
q0 158 110 288.5t339 245.5v10l-381 363v103q219 149 457 149q178 0 284.5 -77t106.5 -205zM922 541q0 73 -75 118.5t-195 45.5q-190 0 -336 -89v-5l347 -350q259 139 259 280z" />
    <glyph glyph-name="uniFECB" unicode="&#x639;" horiz-adv-x="1090" arabic-form="initial" 
d="M259 435q0 -124 88.5 -189.5t254.5 -65.5q42 0 103 5t143 17l93 14l15 -125l-141 -18q-146 -22 -291.5 -38.5t-270.5 -25.5t-211 -9h-42q-26 0 -26 63t26 63h39q78 0 153 3.5t148 10.5v13q-93 30 -146.5 107.5t-53.5 183.5q0 117 55 209t149.5 145t214.5 53
q175 0 313 -110l-61 -96q-121 82 -251 82q-86 0 -154.5 -38t-107.5 -103.5t-39 -150.5z" />
    <glyph glyph-name="uniFECC" unicode="&#x639;" horiz-adv-x="1187" arabic-form="medial" 
d="M613 829q101 0 190 -30t145 -92t56 -160q0 -101 -77.5 -183t-196.5 -150v-10q62 -58 131 -68t145 -10h181v-126h-199q-109 0 -193 23t-173 114q-97 -62 -207 -99.5t-250 -37.5h-165q-26 0 -26 63t26 63h155q116 0 206 24.5t167 61.5v10l-373 355v103q102 70 212 109.5
t246 39.5zM620 705q-189 0 -335 -89v-5l346 -350q116 62 187.5 132.5t71.5 147.5q0 60 -41.5 96t-104 52t-124.5 16z" />
    <glyph glyph-name="uniFECD" unicode="&#x63a;" horiz-adv-x="1182" arabic-form="isolated" 
d="M981 1013l-63 -96q-115 108 -252 108q-83 0 -150.5 -38.5t-107.5 -104t-40 -145.5q0 -123 108 -187t316 -64q51 0 115 3.5t130 9.5l-3 -125q-239 -6 -419.5 -79t-281 -197t-100.5 -284q0 -174 139.5 -269t393.5 -95q119 0 232 21t201 58l44 -118q-219 -92 -481 -92
q-200 0 -345.5 58t-224 165t-78.5 255q0 138 60 258t169.5 208.5t257.5 130.5l1 10q-167 23 -258.5 109t-91.5 223q0 115 55 208.5t147.5 149.5t204.5 56q185 0 322 -137zM514 1569l119 120l120 -120l-120 -119z" />
    <glyph glyph-name="uniFECE" unicode="&#x63a;" horiz-adv-x="1195" arabic-form="final" 
d="M534 1248l119 120l120 -120l-120 -119zM1035 547q0 -177 -272 -332v-10q47 -44 107 -61.5t163 -17.5h162v-126h-159q-134 0 -216 30t-162 109q-219 -111 -320 -215t-101 -240q0 -145 136.5 -229t371.5 -84q81 0 166.5 9.5t174.5 27.5l27 -125q-206 -43 -373 -43
q-188 0 -327.5 53t-216.5 150t-77 227q0 158 110 288.5t339 245.5v10l-381 363v103q219 149 457 149q178 0 284.5 -77t106.5 -205zM922 541q0 73 -75 118.5t-195 45.5q-190 0 -336 -89v-5l347 -350q259 139 259 280z" />
    <glyph glyph-name="uniFECF" unicode="&#x63a;" horiz-adv-x="1090" arabic-form="initial" 
d="M435 1296l119 120l120 -120l-120 -119zM259 435q0 -124 88.5 -189.5t254.5 -65.5q42 0 103 5t143 17l93 14l15 -125l-141 -18q-146 -22 -291.5 -38.5t-270.5 -25.5t-211 -9h-42q-26 0 -26 63t26 63h39q78 0 153 3.5t148 10.5v13q-93 30 -146.5 107.5t-53.5 183.5
q0 117 55 209t149.5 145t214.5 53q175 0 313 -110l-61 -96q-121 82 -251 82q-86 0 -154.5 -38t-107.5 -103.5t-39 -150.5z" />
    <glyph glyph-name="uniFED0" unicode="&#x63a;" horiz-adv-x="1187" arabic-form="medial" 
d="M503 1242l119 120l120 -120l-120 -119zM613 829q101 0 190 -30t145 -92t56 -160q0 -101 -77.5 -183t-196.5 -150v-10q62 -58 131 -68t145 -10h181v-126h-199q-109 0 -193 23t-173 114q-97 -62 -207 -99.5t-250 -37.5h-165q-26 0 -26 63t26 63h155q116 0 206 24.5
t167 61.5v10l-373 355v103q102 70 212 109.5t246 39.5zM620 705q-189 0 -335 -89v-5l346 -350q116 62 187.5 132.5t71.5 147.5q0 60 -41.5 96t-104 52t-124.5 16z" />
    <glyph glyph-name="uniFED1" unicode="&#x641;" horiz-adv-x="1804" arabic-form="isolated" 
d="M1178 1514l119 120l120 -120l-120 -119zM1567 432q-151 -37 -276 -37q-315 0 -315 269q0 133 42 234t116 158t170 57q116 0 200.5 -82t130.5 -232t46 -355q0 -127 -40 -213t-132.5 -136.5t-249.5 -72.5t-391 -22q-277 0 -442.5 38.5t-238.5 129t-73 244.5q0 62 12 143
t34 182l114 -26q-42 -190 -42 -286q0 -116 60 -181t201 -91.5t384 -26.5q212 0 347.5 13t210 46t103.5 93t29 154zM1555 546q-12 209 -79 326t-176 117q-94 0 -156 -88.5t-62 -222.5q0 -167 214 -167q111 0 259 35z" />
    <glyph glyph-name="uniFED2" unicode="&#x641;" horiz-adv-x="1940" arabic-form="final" 
d="M1319 1300l119 120l120 -120l-120 -119zM1437 87q-112 -47 -249.5 -67t-283.5 -20q-177 0 -322 15.5t-249.5 58t-161.5 123t-57 210.5q0 84 21 172t48 168l109 -38q-23 -70 -41.5 -146t-18.5 -148q0 -118 75.5 -180t225 -85t371.5 -24q103 0 209 9t197 30l1 9
q-96 53 -158.5 138t-62.5 209q0 173 99 270t249 97q99 0 178 -44t125 -126t46 -196q0 -124 -66 -210.5t-163 -139.5l2 -10q56 -18 120 -27t130 -9h130v-126h-148q-106 0 -188 22t-167 65zM1438 207q101 47 164.5 121.5t63.5 190.5q0 112 -64 179.5t-164 67.5
q-101 0 -164.5 -67t-63.5 -180q0 -114 64 -189.5t164 -122.5z" />
    <glyph glyph-name="uniFED3" unicode="&#x641;" horiz-adv-x="960" arabic-form="initial" 
d="M344 1511l119 120l120 -120l-120 -119zM0 126h349q207 0 295 71t88 235q-145 -37 -276 -37q-317 0 -317 269q0 133 42 234t116 158t171 57q116 0 200.5 -82t130.5 -232t46 -355q0 -231 -124.5 -337.5t-393.5 -106.5h-327q-26 0 -26 63t26 63zM719 546q-12 209 -79.5 326
t-176.5 117q-94 0 -155.5 -88t-61.5 -223q0 -167 214 -167q110 0 259 35z" />
    <glyph glyph-name="uniFED4" unicode="&#x641;" horiz-adv-x="980" arabic-form="medial" 
d="M370 1296l119 120l120 -120l-120 -119zM141 521q0 173 99.5 270t249.5 97q98 0 177 -44t125 -126t46 -196q0 -124 -65.5 -210.5t-161.5 -139.5l1 -10q108 -36 241 -36h127v-126h-145q-103 0 -183.5 22t-163.5 65q-82 -43 -163.5 -65t-186.5 -22h-138q-26 0 -26 63t26 63
h122q131 0 248 36l1 10q-97 53 -163.5 139t-66.5 210zM489 203q101 47 164.5 123.5t63.5 192.5q0 112 -63.5 179.5t-163.5 67.5q-101 0 -165 -67t-64 -180q0 -115 64 -191.5t164 -124.5z" />
    <glyph glyph-name="uniFED5" unicode="&#x642;" horiz-adv-x="1519" arabic-form="isolated" 
d="M737 1188l119 120l120 -120l-120 -119zM1085 1188l120 120l119 -120l-119 -119zM1032 787q103 0 174.5 -58.5t116 -154t64.5 -211t20 -229.5q0 -303 -162 -465t-500 -162q-630 0 -630 527q0 73 12.5 180t37.5 252l119 -24q-25 -139 -36.5 -238.5t-11.5 -167.5
q0 -211 129 -307t385 -96q263 0 395.5 113t144.5 333l-6 8q-52 -15 -118.5 -25.5t-137.5 -10.5q-151 0 -240 68t-89 222q0 115 37.5 216.5t112 165.5t183.5 64zM1287 210q-3 69 -17.5 147.5t-43.5 147t-77.5 112t-119.5 43.5q-76 0 -125.5 -46.5t-73.5 -117.5t-24 -143
q0 -102 60.5 -139.5t165.5 -37.5q74 0 138 10.5t117 23.5z" />
    <glyph glyph-name="uniFED6" unicode="&#x642;" horiz-adv-x="1495" arabic-form="final" 
d="M740 1126l119 120l120 -120l-120 -119zM1088 1126l120 120l119 -120l-119 -119zM1035 725q99 0 167.5 -54t111.5 -142.5t65 -194t28 -208.5h88v-126h-91q-13 -268 -181 -411.5t-474 -143.5q-634 0 -634 527q0 73 12.5 180t37.5 252l119 -24q-25 -139 -36.5 -238.5
t-11.5 -167.5q0 -213 131.5 -307t387.5 -94q245 0 386 107t153 314l-5 9q-129 -3 -257 -3q-150 0 -240 67t-90 221q0 115 38 214.5t112 161t183 61.5zM1033 598q-76 0 -126 -44.5t-74 -112.5t-24 -140q0 -103 61.5 -140.5t165.5 -37.5h129t128 1q-3 72 -17 154t-43 155
t-78 119t-122 46z" />
    <glyph glyph-name="uniFED7" unicode="&#x642;" horiz-adv-x="960" arabic-form="initial" 
d="M170 1508l119 120l120 -120l-120 -119zM518 1508l120 120l119 -120l-119 -119zM0 126h349q207 0 295 71t88 235q-145 -37 -276 -37q-317 0 -317 269q0 133 42 234t116 158t171 57q116 0 200.5 -82t130.5 -232t46 -355q0 -231 -124.5 -337.5t-393.5 -106.5h-327
q-26 0 -26 63t26 63zM719 546q-12 209 -79.5 326t-176.5 117q-94 0 -155.5 -88t-61.5 -223q0 -167 214 -167q110 0 259 35z" />
    <glyph glyph-name="uniFED8" unicode="&#x642;" horiz-adv-x="980" arabic-form="medial" 
d="M195 1255l119 120l120 -120l-120 -119zM543 1255l120 120l119 -120l-119 -119zM141 521q0 173 99.5 270t249.5 97q98 0 177 -44t125 -126t46 -196q0 -124 -65.5 -210.5t-161.5 -139.5l1 -10q108 -36 241 -36h127v-126h-145q-103 0 -183.5 22t-163.5 65
q-82 -43 -163.5 -65t-186.5 -22h-138q-26 0 -26 63t26 63h122q131 0 248 36l1 10q-97 53 -163.5 139t-66.5 210zM489 203q101 47 164.5 123.5t63.5 192.5q0 112 -63.5 179.5t-163.5 67.5q-101 0 -165 -67t-64 -180q0 -115 64 -191.5t164 -124.5z" />
    <glyph glyph-name="uniFED9" unicode="&#x643;" horiz-adv-x="1652" arabic-form="isolated" 
d="M685 453q-27 0 -55.5 2.5t-55.5 6.5l17 78q47 -9 102 -9q48 0 95 9.5t78 31t31 58.5q0 35 -34.5 47t-86.5 19q-59 10 -105 33.5t-46 93.5q0 99 67.5 158t161.5 59q52 0 109 -20l-27 -73q-44 13 -83 13q-61 0 -109 -30.5t-48 -89.5q0 -40 32.5 -53t82.5 -21
q62 -8 110.5 -31t48.5 -97q0 -62 -39.5 -103.5t-104.5 -61.5t-141 -20zM794 126q209 0 332.5 27t178 99.5t54.5 207.5v839h122v-839q0 -174 -73.5 -274.5t-229 -143t-402.5 -42.5q-238 0 -383.5 37t-212 121.5t-66.5 226.5q0 57 9.5 129t25.5 137l109 -25
q-13 -57 -22.5 -125t-9.5 -114q0 -100 53.5 -157t178 -80.5t336.5 -23.5z" />
    <glyph glyph-name="uniFEDA" unicode="&#x643;" horiz-adv-x="1839" arabic-form="final" 
d="M685 453q-27 0 -55.5 2.5t-55.5 6.5l17 78q47 -9 102 -9q48 0 95 9.5t78 31t31 58.5q0 35 -34.5 47t-86.5 19q-59 10 -105 33.5t-46 93.5q0 99 67.5 158t161.5 59q52 0 109 -20l-27 -73q-44 13 -83 13q-61 0 -109 -30.5t-48 -89.5q0 -40 32.5 -53t82.5 -21
q62 -8 110.5 -31t48.5 -97q0 -62 -39.5 -103.5t-104.5 -61.5t-141 -20zM1481 465q0 -173 88.5 -256t268.5 -83h1v-126h-1q-166 0 -274 69t-135 202h-10q-37 -148 -188 -209.5t-446 -61.5q-243 0 -390.5 37t-214 122t-66.5 227q0 56 9.5 127t25.5 138l109 -25
q-13 -59 -22.5 -127t-9.5 -112q0 -100 54 -157t179 -80.5t336 -23.5q218 0 341 30t173 102.5t50 201.5v839h122v-834z" />
    <glyph glyph-name="uniFEDB" unicode="&#x643;" horiz-adv-x="821" arabic-form="initial" 
d="M839 1284l21 -127q-232 -58 -401 -110.5t-293 -103.5v-9q180 -134 291 -235t162 -185.5t51 -169.5q0 -166 -143.5 -255t-411.5 -89h-115q-26 0 -26 63t26 63h113q214 0 324.5 57.5t110.5 167.5q0 67 -53.5 141.5t-166.5 170.5t-293 225l11 133q162 72 365.5 139.5
t427.5 123.5z" />
    </font>
</defs>
</svg>
