<?xml version="1.0" standalone="no"?>
<!DOCTYPE svg PUBLIC "-//W3C//DTD SVG 1.1//EN" "http://www.w3.org/Graphics/SVG/1.1/DTD/svg11.dtd" >
<svg xmlns="http://www.w3.org/2000/svg" xmlns:xlink="http://www.w3.org/1999/xlink" version="1.1">
<metadata>
Created by FontForge 20170731 at Wed Jun  1 20:37:46 2022
 By Aleksey,,,
Copyright 2022 The Estedad Project Authors (https://github.com/aminabedi68/Estedad)
</metadata>
<defs>
<font id="Estedad-Regular" horiz-adv-x="0" >
  <font-face 
    font-family="Estedad Regular"
    font-weight="400"
    font-stretch="normal"
    units-per-em="2048"
    panose-1="0 0 0 0 0 0 0 0 0 0"
    ascent="1638"
    descent="-410"
    x-height="1035"
    cap-height="1385"
    bbox="-637 -1269 4300 2453"
    underline-thickness="150"
    underline-position="-975"
    unicode-range="U+0020-FEFC"
  />
<missing-glyph horiz-adv-x="1024" 
d="M102 -410v2048h820v-2048h-820zM204 -308h616v1844h-616v-1844z" />
    <glyph glyph-name="uni0622" unicode="&#x627;&#x653;" horiz-adv-x="516" 
d="M498 1615l73 -36q-36 -94 -79 -135.5t-106 -41.5q-30 0 -61.5 12.5t-78.5 39.5q-45 26 -66.5 34t-41.5 8q-34 0 -59.5 -25.5t-64.5 -98.5l-67 43q43 95 87 139t97 44q26 0 53 -10.5t76 -37.5q56 -31 81 -40.5t46 -9.5q38 0 60.5 23.5t50.5 91.5zM337 1169v-1169h-157
v1169h157z" />
    <glyph glyph-name="uni0623" unicode="&#x627;&#x654;" horiz-adv-x="516" 
d="M337 1169v-1169h-157v1169h157zM409 1775l-25 -76q-38 16 -77 16q-57 0 -93.5 -32t-36.5 -82q0 -46 31.5 -72t82.5 -26q37 0 80 13l103 32l25 -81l-457 -146l-25 84l176 51v10q-93 35 -93 140q0 82 58.5 137.5t147.5 55.5q26 0 51.5 -6.5t51.5 -17.5z" />
    <glyph glyph-name="uni0624" unicode="&#x648;&#x654;" horiz-adv-x="957" 
d="M629 1398l-25 -76q-38 16 -77 16q-57 0 -93.5 -32t-36.5 -82q0 -46 31.5 -72t82.5 -26q37 0 80 13l103 32l25 -81l-457 -146l-25 84l176 51v10q-93 35 -93 140q0 82 58.5 137.5t147.5 55.5q26 0 51.5 -6.5t51.5 -17.5zM703 14l-6 10q-50 -14 -110 -23.5t-126 -9.5
q-156 0 -246.5 73t-90.5 230q0 116 37.5 222.5t114 174t192.5 67.5q108 0 182 -61.5t119.5 -162.5t65.5 -220.5t20 -236.5q0 -226 -185 -375.5t-520 -238.5l-63 150q274 62 434 165t182 236zM703 180q-3 65 -16.5 137t-41 134.5t-72 102t-109.5 39.5q-70 0 -115.5 -42.5
t-68 -107t-22.5 -130.5q0 -93 56 -128t151 -35q68 0 127.5 9t110.5 21z" />
    <glyph glyph-name="uni0625" unicode="&#x627;&#x655;" horiz-adv-x="516" 
d="M395 -213l-25 -76q-38 16 -77 16q-57 0 -93.5 -32t-36.5 -82q0 -46 31.5 -72t82.5 -26q37 0 80 13l103 32l25 -81l-457 -146l-25 84l176 51v10q-93 35 -93 140q0 82 58.5 137.5t147.5 55.5q26 0 51.5 -6.5t51.5 -17.5zM337 0h-157v1322h157v-1322z" />
    <glyph glyph-name="uni0626" unicode="&#x649;&#x654;" horiz-adv-x="1512" 
d="M569 1125l-25 -76q-38 16 -77 16q-57 0 -93.5 -32t-36.5 -82q0 -46 31.5 -72t82.5 -26q37 0 80 13l103 32l25 -81l-457 -146l-25 84l176 51v10q-93 35 -93 140q0 82 58.5 137.5t147.5 55.5q26 0 51.5 -6.5t51.5 -17.5zM1377 759l-55 -141q-104 49 -207 49
q-88 0 -159.5 -39t-113.5 -107t-42 -157q0 -68 37.5 -100t105.5 -44t161 -20q87 -6 157.5 -26t112.5 -67.5t42 -138.5q0 -126 -89.5 -220t-246.5 -146t-359 -52q-285 0 -442 125t-157 362q0 83 11 188.5t33 235.5l152 -27q-25 -136 -35 -223t-10 -165q0 -171 113 -252.5
t336 -81.5q154 0 277.5 29.5t196.5 82t73 119.5q0 50 -32 72.5t-84.5 30.5t-114.5 12q-106 8 -193 31.5t-138 83t-51 174.5q0 136 62.5 243t168.5 169.5t235 62.5q123 0 255 -63z" />
    <glyph glyph-name="uni06C0" unicode="&#x647;&#x654;" horiz-adv-x="898" 
d="M447 -11q-161 0 -252 89.5t-91 225.5q0 135 74 259.5t177 225.5q-53 50 -101 91l97 116q129 -107 229.5 -218t157.5 -226.5t57 -236.5q0 -142 -95 -234t-253 -92zM447 153q100 0 147 49.5t47 127.5q0 86 -52.5 182.5t-141.5 178.5q-87 -81 -140.5 -178t-53.5 -183
q0 -78 47 -127.5t147 -49.5zM333 1204q-27 0 -55.5 3t-57.5 7l20 91q24 -5 51.5 -7.5t53.5 -2.5q46 0 91 9t74.5 29t29.5 53q0 32 -32.5 43t-85.5 19q-61 11 -106 35.5t-45 94.5q0 102 68.5 163t165.5 61q56 0 110 -19l-30 -86q-38 13 -82 13q-60 0 -105.5 -29t-45.5 -83
q0 -37 31.5 -49.5t84.5 -21.5q62 -9 108.5 -33.5t46.5 -96.5q0 -96 -85.5 -144.5t-204.5 -48.5z" />
    <glyph glyph-name="uniFBA5" unicode="&#xfeea;&#x654;" horiz-adv-x="1144" arabic-form="final" 
d="M705 853l-9 156l157 9l34 -562q7 -115 31 -179t77.5 -89t147.5 -25h1v-163h-1q-140 0 -223.5 48.5t-127.5 145.5q-113 -45 -236 -45q-106 0 -193.5 31t-139 92t-51.5 152q0 164 142 276.5t391 152.5zM715 700q-184 -20 -291.5 -85.5t-107.5 -163.5q0 -79 74 -114.5
t176 -35.5q98 0 182 26q-6 29 -9.5 57t-5.5 59zM271 1043q-27 0 -55.5 3t-57.5 7l20 91q24 -5 51.5 -7.5t53.5 -2.5q46 0 91 9t74.5 29t29.5 53q0 32 -32.5 43t-85.5 19q-61 11 -106 35.5t-45 94.5q0 102 68.5 163t165.5 61q56 0 110 -19l-30 -86q-38 13 -82 13
q-60 0 -105.5 -29t-45.5 -83q0 -37 31.5 -49.5t84.5 -21.5q62 -9 108.5 -33.5t46.5 -96.5q0 -96 -85.5 -144.5t-204.5 -48.5z" />
    <glyph glyph-name="uniFDF2" unicode="&#x627;&#x644;&#x644;&#x647;" horiz-adv-x="2958" arabic-form="isolated" 
d="M2779 0h-157v1322h157v-1322zM1849 163q111 0 170 29.5t81 91.5t22 160v878h157v-878q0 -218 -102 -331t-328 -113q-15 0 -22.5 18.5t-7.5 63.5q0 44 7.5 62.5t22.5 18.5zM1452 2099h88v-362h-88v362zM1487 1455q-16 -99 -114 -99q-60 0 -93.5 35.5t-33.5 99.5q0 41 8 80
t24 85l70 -23q-11 -34 -19 -66.5t-8 -56.5q0 -66 63 -66q40 0 56.5 29.5t16.5 104.5v20h70v-20q0 -75 16.5 -104.5t56.5 -29.5q62 0 62 66q0 24 -7 56.5t-18 66.5l69 23q16 -46 24.5 -85t8.5 -80q0 -64 -33.5 -99.5t-94.5 -35.5q-98 0 -114 99h-10zM1490 240
q-22 -112 -112.5 -176t-233.5 -64q-15 0 -22 18.5t-7 63.5q0 44 7 62.5t22 18.5q120 0 178 34t76.5 99.5t18.5 160.5v721h156v-712q0 -95 19.5 -163t78 -104t175.5 -36h1v-163h-1q-144 0 -234.5 64t-111.5 176h-10zM705 853l-9 156l157 9l34 -562q7 -115 31 -179t77.5 -89
t147.5 -25h1v-163h-1q-140 0 -223.5 48.5t-127.5 145.5q-113 -45 -236 -45q-106 0 -193.5 31t-139 92t-51.5 152q0 164 142 276.5t391 152.5zM715 700q-184 -20 -291.5 -85.5t-107.5 -163.5q0 -79 74 -114.5t176 -35.5q98 0 182 26q-6 29 -9.5 57t-5.5 59z" />
    <glyph glyph-name="uniFE71" unicode="&#x640;&#x64b;" horiz-adv-x="889" arabic-form="medial" 
d="M666 1161l27 -85l-457 -145l-27 86zM666 920l27 -85l-457 -145l-27 86zM0 163h889v-163h-889q-16 0 -22.5 18t-6.5 64t6.5 63.5t22.5 17.5z" />
    <glyph glyph-name="uniFE77" unicode="&#x640;&#x64e;" horiz-adv-x="889" arabic-form="medial" 
d="M666 920l27 -85l-457 -145l-27 86zM0 163h889v-163h-889q-16 0 -22.5 18t-6.5 64t6.5 63.5t22.5 17.5z" />
    <glyph glyph-name="uniFE79" unicode="&#x640;&#x64f;" horiz-adv-x="889" arabic-form="medial" 
d="M537 1284q65 0 104 -47t39 -124q0 -87 -56 -158t-154.5 -124t-224.5 -88l-25 83q62 17 135.5 47.5t129.5 65.5q-51 18 -95.5 55.5t-44.5 102.5q0 46 26 88.5t69.5 70.5t96.5 28zM527 1202q-39 0 -72.5 -32.5t-33.5 -72.5q0 -44 42.5 -68t88.5 -36q44 52 44 116
q0 38 -17.5 65.5t-51.5 27.5zM0 163h889v-163h-889q-16 0 -22.5 18t-6.5 64t6.5 63.5t22.5 17.5z" />
    <glyph glyph-name="uniFE7B" unicode="&#x640;&#x650;" horiz-adv-x="889" arabic-form="medial" 
d="M659 -301l27 -85l-457 -145l-27 86zM0 163h889v-163h-889q-16 0 -22.5 18t-6.5 64t6.5 63.5t22.5 17.5z" />
    <glyph glyph-name="uniFE7D" unicode="&#x640;&#x651;" horiz-adv-x="889" arabic-form="medial" 
d="M0 163h889v-163h-889q-16 0 -22.5 18t-6.5 64t6.5 63.5t22.5 17.5zM442 765q-16 -99 -114 -99q-60 0 -93.5 35.5t-33.5 99.5q0 41 8 80t24 85l70 -23q-11 -34 -19 -66.5t-8 -56.5q0 -66 63 -66q40 0 56.5 29.5t16.5 104.5v20h70v-20q0 -75 16.5 -104.5t56.5 -29.5
q62 0 62 66q0 24 -7 56.5t-18 66.5l69 23q16 -46 24.5 -85t8.5 -80q0 -64 -33.5 -99.5t-94.5 -35.5q-98 0 -114 99h-10z" />
    <glyph glyph-name="uniFE7F" unicode="&#x640;&#x652;" horiz-adv-x="889" arabic-form="medial" 
d="M434 994q72 0 118 -44.5t46 -117.5t-45 -119t-119 -46q-73 0 -118.5 46t-45.5 119q0 72 45.5 117t118.5 45zM434 920q-93 0 -93 -88q0 -42 25 -67t68 -25q42 0 67.5 25.5t25.5 66.5t-24.5 64.5t-68.5 23.5zM0 163h889v-163h-889q-16 0 -22.5 18t-6.5 64t6.5 63.5
t22.5 17.5z" />
    <glyph glyph-name="uniFEF5" unicode="&#xfedf;&#xfe82;" horiz-adv-x="1204" arabic-form="isolated" 
d="M-11 1520q80 130 174 130q26 0 51.5 -8.5t58.5 -30.5q60 -36 88 -36q53 0 105 88l73 -43q-70 -136 -171 -136q-46 0 -109 38q-55 35 -87 35q-52 0 -111 -84zM730 750q163 159 163 412v160h157v-160q0 -159 -54 -283.5t-168 -232.5q112 -110 167 -201t55 -174
q0 -133 -128 -207t-332 -74q-196 0 -422 70v265l468 330l-522 543l111 113zM721 573l-393 -288v-98q141 -33 286 -33q140 0 216 38.5t76 93.5q0 45 -44.5 117t-140.5 170z" />
    <glyph glyph-name="uniFEF6" unicode="&#xfee0;&#xfe82;" horiz-adv-x="1425" arabic-form="final" 
d="M-11 1590q80 130 174 130q26 0 51.5 -8.5t58.5 -30.5q60 -36 88 -36q53 0 105 88l73 -43q-70 -136 -171 -136q-46 0 -109 38q-55 35 -87 35q-52 0 -111 -84zM153 1300l146 45q61 -145 101 -285.5t62.5 -295t32.5 -343.5l-154 -16q-11 257 -56 472t-132 423zM989 1322h156
v-891q0 -148 65 -208t214 -60h1v-163h-1q-371 0 -404 351v51q-144 -204 -368.5 -303t-557.5 -99v163q216 0 379.5 41.5t289 129.5t226.5 227v761z" />
    <glyph glyph-name="uniFEF7" unicode="&#xfedf;&#xfe84;" horiz-adv-x="1204" arabic-form="isolated" 
d="M481 1874l-25 -76q-38 16 -77 16q-57 0 -93.5 -32t-36.5 -82q0 -46 31.5 -72t82.5 -26q37 0 80 13l103 32l25 -81l-457 -146l-25 84l176 51v10q-93 35 -93 140q0 82 58.5 137.5t147.5 55.5q26 0 51.5 -6.5t51.5 -17.5zM730 750q163 159 163 412v160h157v-160
q0 -159 -54 -283.5t-168 -232.5q112 -110 167 -201t55 -174q0 -133 -128 -207t-332 -74q-196 0 -422 70v265l468 330l-522 543l111 113zM721 573l-393 -288v-98q141 -33 286 -33q140 0 216 38.5t76 93.5q0 45 -44.5 117t-140.5 170z" />
    <glyph glyph-name="uniFEF8" unicode="&#xfee0;&#xfe84;" horiz-adv-x="1425" arabic-form="final" 
d="M481 1944l-25 -76q-38 16 -77 16q-57 0 -93.5 -32t-36.5 -82q0 -46 31.5 -72t82.5 -26q37 0 80 13l103 32l25 -81l-457 -146l-25 84l176 51v10q-93 35 -93 140q0 82 58.5 137.5t147.5 55.5q26 0 51.5 -6.5t51.5 -17.5zM153 1300l146 45q61 -145 101 -285.5t62.5 -295
t32.5 -343.5l-154 -16q-11 257 -56 472t-132 423zM989 1322h156v-891q0 -148 65 -208t214 -60h1v-163h-1q-371 0 -404 351v51q-144 -204 -368.5 -303t-557.5 -99v163q216 0 379.5 41.5t289 129.5t226.5 227v761z" />
    <glyph glyph-name="uniFEF9" unicode="&#xfedf;&#xfe88;" horiz-adv-x="1204" arabic-form="isolated" 
d="M478 -157l-25 -76q-38 16 -77 16q-57 0 -93.5 -32t-36.5 -82q0 -46 31.5 -72t82.5 -26q37 0 80 13l103 32l25 -81l-457 -146l-25 84l176 51v10q-93 35 -93 140q0 82 58.5 137.5t147.5 55.5q26 0 51.5 -6.5t51.5 -17.5zM730 750q163 159 163 412v160h157v-160
q0 -159 -54 -283.5t-168 -232.5q112 -110 167 -201t55 -174q0 -133 -128 -207t-332 -74q-196 0 -422 70v265l468 330l-522 543l111 113zM721 573l-393 -288v-98q141 -33 286 -33q140 0 216 38.5t76 93.5q0 45 -44.5 117t-140.5 170z" />
    <glyph glyph-name="uniFEFA" unicode="&#xfee0;&#xfe88;" horiz-adv-x="1425" arabic-form="final" 
d="M478 -207l-25 -76q-38 16 -77 16q-57 0 -93.5 -32t-36.5 -82q0 -46 31.5 -72t82.5 -26q37 0 80 13l103 32l25 -81l-457 -146l-25 84l176 51v10q-93 35 -93 140q0 82 58.5 137.5t147.5 55.5q26 0 51.5 -6.5t51.5 -17.5zM153 1300l146 45q61 -145 101 -285.5t62.5 -295
t32.5 -343.5l-154 -16q-11 257 -56 472t-132 423zM989 1322h156v-891q0 -148 65 -208t214 -60h1v-163h-1q-371 0 -404 351v51q-144 -204 -368.5 -303t-557.5 -99v163q216 0 379.5 41.5t289 129.5t226.5 227v761z" />
    <glyph glyph-name="uniFEFB" unicode="&#xfedf;&#xfe8e;" horiz-adv-x="1204" arabic-form="isolated" 
d="M730 750q163 159 163 412v160h157v-160q0 -159 -54 -283.5t-168 -232.5q112 -110 167 -201t55 -174q0 -133 -128 -207t-332 -74q-196 0 -422 70v265l468 330l-522 543l111 113zM721 573l-393 -288v-98q141 -33 286 -33q140 0 216 38.5t76 93.5q0 45 -44.5 117t-140.5 170
z" />
    <glyph glyph-name="uniFEFC" unicode="&#xfee0;&#xfe8e;" horiz-adv-x="1425" arabic-form="final" 
d="M153 1300l146 45q61 -145 101 -285.5t62.5 -295t32.5 -343.5l-154 -16q-11 257 -56 472t-132 423zM989 1322h156v-891q0 -148 65 -208t214 -60h1v-163h-1q-371 0 -404 351v51q-144 -204 -368.5 -303t-557.5 -99v163q216 0 379.5 41.5t289 129.5t226.5 227v761z" />
    <glyph glyph-name="uniFEDF_uniFB51.rlig" unicode="&#xfedf;&#xfb51;" horiz-adv-x="1204" 
d="M251 1683q75 87 123 120t99 33q59 0 92.5 -36t33.5 -98q0 -79 -51.5 -129.5t-133.5 -50.5q-34 0 -69 12t-85 42q-38 23 -60.5 31.5t-43.5 8.5q-34 0 -60 -25.5t-64 -98.5l-68 43q43 95 87 139t98 44q20 0 42 -7.5t60 -27.5zM309 1653q37 -19 60.5 -26t47.5 -7
q107 0 107 73q0 28 -18.5 45t-47.5 17q-31 0 -60.5 -20.5t-88.5 -81.5zM730 750q163 159 163 412v160h157v-160q0 -159 -54 -283.5t-168 -232.5q112 -110 167 -201t55 -174q0 -133 -128 -207t-332 -74q-196 0 -422 70v265l468 330l-522 543l111 113zM721 573l-393 -288v-98
q141 -33 286 -33q140 0 216 38.5t76 93.5q0 45 -44.5 117t-140.5 170z" />
    <glyph glyph-name="uniFEE0_uniFB51.rlig" unicode="&#xfee0;&#xfb51;" horiz-adv-x="1425" 
d="M251 1753q75 87 123 120t99 33q59 0 92.5 -36t33.5 -98q0 -79 -51.5 -129.5t-133.5 -50.5q-34 0 -69 12t-85 42q-38 23 -60.5 31.5t-43.5 8.5q-34 0 -60 -25.5t-64 -98.5l-68 43q43 95 87 139t98 44q20 0 42 -7.5t60 -27.5zM309 1723q37 -19 60.5 -26t47.5 -7
q107 0 107 73q0 28 -18.5 45t-47.5 17q-31 0 -60.5 -20.5t-88.5 -81.5zM153 1300l146 45q61 -145 101 -285.5t62.5 -295t32.5 -343.5l-154 -16q-11 257 -56 472t-132 423zM989 1322h156v-891q0 -148 65 -208t214 -60h1v-163h-1q-371 0 -404 351v51q-144 -204 -368.5 -303
t-557.5 -99v163q216 0 379.5 41.5t289 129.5t226.5 227v761z" />
    <glyph glyph-name="uni0620.init" unicode="&#x620;" horiz-adv-x="584" 
d="M153 -214q72 0 118 -44.5t46 -117.5t-45 -119t-119 -46q-73 0 -118.5 46t-45.5 119q0 72 45.5 117t118.5 45zM153 -288q-93 0 -93 -88q0 -42 25 -67t68 -25q42 0 67.5 25.5t25.5 66.5t-24.5 64.5t-68.5 23.5zM421 766q27 -106 43.5 -200.5t16.5 -170.5
q0 -191 -102.5 -293t-327.5 -102h-51q-29 0 -29 82q0 81 29 81h51q151 0 215 61t64 179q0 60 -15.5 142.5t-39.5 180.5z" />
    <glyph glyph-name="uni0620.medi" unicode="&#x620;" horiz-adv-x="842" 
d="M143 -214q72 0 118 -44.5t46 -117.5t-45 -119t-119 -46q-73 0 -118.5 46t-45.5 119q0 72 45.5 117t118.5 45zM143 -288q-93 0 -93 -88q0 -42 25 -67t68 -25q42 0 67.5 25.5t25.5 66.5t-24.5 64.5t-68.5 23.5zM501 475q0 -102 20 -171.5t78 -105t170 -35.5h73v-163h-77
q-127 0 -218 61.5t-121 175.5h-10q-29 -115 -132 -176t-233 -61h-51q-29 0 -29 82q0 81 29 81h51q123 0 186 36t85 105.5t22 170.5v135h157v-135z" />
    <glyph glyph-name="uni0620.fina" unicode="&#x620;" horiz-adv-x="1463" 
d="M735 -767q72 0 118 -44.5t46 -117.5t-45 -119t-119 -46q-73 0 -118.5 46t-45.5 119q0 72 45.5 117t118.5 45zM735 -841q-93 0 -93 -88q0 -42 25 -67t68 -25q42 0 67.5 25.5t25.5 66.5t-24.5 64.5t-68.5 23.5zM1133 -10q128 -49 179 -99.5t51 -127.5q0 -97 -83.5 -174
t-227.5 -122t-327 -45q-317 0 -468.5 129t-151.5 399q0 91 13 217.5t36 276.5l146 -29q-22 -142 -34.5 -259t-12.5 -195q0 -199 110.5 -287t360.5 -88q142 0 249 26t167.5 72t60.5 106q0 42 -39 72t-139 59.5t-285 67.5l23 174h702v-163h-330v-10z" />
    <glyph glyph-name="uni063B.init" unicode="&#x63b;" horiz-adv-x="836" 
d="M364 1561l120 120l120 -120l-120 -120zM46 1470l120 120l120 -120l-120 -120zM854 1321l26 -162q-226 -55 -389.5 -105t-284.5 -99l-1 -8q175 -132 282 -231.5t156.5 -183t49.5 -168.5q0 -175 -148.5 -269.5t-423.5 -94.5h-121q-29 0 -29 82q0 81 29 81h118
q418 0 418 209q0 62 -52 133.5t-163.5 166t-291.5 223.5l14 158q171 77 377 145.5t434 122.5z" />
    <glyph glyph-name="uni063B.medi" unicode="&#x63b;" horiz-adv-x="1131" 
d="M364 1561l120 120l120 -120l-120 -120zM46 1470l120 120l120 -120l-120 -120zM639 330q-9 -173 -136.5 -251.5t-381.5 -78.5h-121q-29 0 -29 81q0 82 29 82h118q212 0 313.5 54.5t101.5 153.5q0 55 -48.5 126.5t-159 169t-296.5 228.5l14 158q174 78 381 147t430 121
l26 -162q-432 -105 -674 -204l-1 -8q141 -105 232 -184t152.5 -150.5t113.5 -156.5q66 -112 122.5 -176t126.5 -90.5t178 -26.5h1v-163h-1q-187 0 -296.5 75t-184.5 255h-10z" />
    <glyph glyph-name="uni063B.fina" unicode="&#x63b;" horiz-adv-x="1968" 
d="M1196 1561l120 120l120 -120l-120 -120zM878 1470l120 120l120 -120l-120 -120zM1476 329q-7 -169 -175 -249t-515 -80q-243 0 -392.5 44.5t-218 142.5t-68.5 256q0 128 43 326l144 -34q-39 -177 -39 -279q0 -107 51.5 -171.5t169 -93t314.5 -28.5q580 0 580 212
q0 168 -504 520l13 158q175 78 382 147t429 121l26 -162q-428 -104 -674 -204v-8q109 -82 186 -145.5t132.5 -118.5t98 -109.5t81.5 -119.5q69 -116 127.5 -179.5t128 -87.5t171.5 -24h1v-163h-1q-188 0 -297 74.5t-184 254.5h-10z" />
    <glyph glyph-name="uni063C.init" unicode="&#x63c;" horiz-adv-x="836" 
d="M561 -358l131 131l132 -131l-132 -132zM213 -358l131 131l131 -131l-131 -132zM388 -666l131 131l132 -131l-132 -132zM854 1321l26 -162q-226 -55 -389.5 -105t-284.5 -99l-1 -8q175 -132 282 -231.5t156.5 -183t49.5 -168.5q0 -175 -148.5 -269.5t-423.5 -94.5h-121
q-29 0 -29 82q0 81 29 81h118q418 0 418 209q0 62 -52 133.5t-163.5 166t-291.5 223.5l14 158q171 77 377 145.5t434 122.5z" />
    <glyph glyph-name="uni063C.medi" unicode="&#x63c;" horiz-adv-x="1131" 
d="M561 -358l131 131l132 -131l-132 -132zM213 -358l131 131l131 -131l-131 -132zM388 -666l131 131l132 -131l-132 -132zM639 330q-9 -173 -136.5 -251.5t-381.5 -78.5h-121q-29 0 -29 81q0 82 29 82h118q212 0 313.5 54.5t101.5 153.5q0 55 -48.5 126.5t-159 169
t-296.5 228.5l14 158q174 78 381 147t430 121l26 -162q-432 -105 -674 -204l-1 -8q141 -105 232 -184t152.5 -150.5t113.5 -156.5q66 -112 122.5 -176t126.5 -90.5t178 -26.5h1v-163h-1q-187 0 -296.5 75t-184.5 255h-10z" />
    <glyph glyph-name="uni063C.fina" unicode="&#x63c;" horiz-adv-x="1968" 
d="M823 -358l131 131l132 -131l-132 -132zM475 -358l131 131l131 -131l-131 -132zM650 -666l131 131l132 -131l-132 -132zM1476 329q-7 -169 -175 -249t-515 -80q-243 0 -392.5 44.5t-218 142.5t-68.5 256q0 128 43 326l144 -34q-39 -177 -39 -279q0 -107 51.5 -171.5
t169 -93t314.5 -28.5q580 0 580 212q0 168 -504 520l13 158q175 78 382 147t429 121l26 -162q-428 -104 -674 -204v-8q109 -82 186 -145.5t132.5 -118.5t98 -109.5t81.5 -119.5q69 -116 127.5 -179.5t128 -87.5t171.5 -24h1v-163h-1q-188 0 -297 74.5t-184 254.5h-10z" />
    <glyph glyph-name="uni063D.init" unicode="&#x63d;" horiz-adv-x="584" 
d="M251 1368h74l212 -269l-70 -56l-179 231l-179 -231l-70 56zM421 766q27 -106 43.5 -200.5t16.5 -170.5q0 -191 -102.5 -293t-327.5 -102h-51q-29 0 -29 82q0 81 29 81h51q151 0 215 61t64 179q0 60 -15.5 142.5t-39.5 180.5zM-172 -359l131 131l131 -131l-131 -132z
M176 -359l131 131l132 -131l-132 -132z" />
    <glyph glyph-name="uni063D.medi" unicode="&#x63d;" horiz-adv-x="842" 
d="M254 1167h74l212 -269l-70 -56l-179 231l-179 -231l-70 56zM501 475q0 -102 20 -171.5t78 -105t170 -35.5h73v-163h-77q-127 0 -218 61.5t-121 175.5h-10q-29 -115 -132 -176t-233 -61h-51q-29 0 -29 82q0 81 29 81h51q123 0 186 36t85 105.5t22 170.5v135h157v-135z
M-203 -359l131 131l131 -131l-131 -132zM145 -359l131 131l132 -131l-132 -132z" />
    <glyph glyph-name="uni063D.fina" unicode="&#x63d;" horiz-adv-x="1463" 
d="M823 783h74l212 -269l-70 -56l-179 231l-179 -231l-70 56zM1133 -10q128 -49 179 -99.5t51 -127.5q0 -97 -83.5 -174t-227.5 -122t-327 -45q-317 0 -468.5 129t-151.5 399q0 91 13 217.5t36 276.5l146 -29q-22 -142 -34.5 -259t-12.5 -195q0 -199 110.5 -287t360.5 -88
q142 0 249 26t167.5 72t60.5 106q0 42 -39 72t-139 59.5t-285 67.5l23 174h702v-163h-330v-10z" />
    <glyph glyph-name="uni063E.init" unicode="&#x63e;" horiz-adv-x="584" 
d="M-52 1135l131 131l131 -131l-131 -132zM296 1135l131 131l132 -131l-132 -132zM421 766q27 -106 43.5 -200.5t16.5 -170.5q0 -191 -102.5 -293t-327.5 -102h-51q-29 0 -29 82q0 81 29 81h51q151 0 215 61t64 179q0 60 -15.5 142.5t-39.5 180.5zM-172 -359l131 131
l131 -131l-131 -132zM176 -359l131 131l132 -131l-132 -132z" />
    <glyph glyph-name="uni063E.medi" unicode="&#x63e;" horiz-adv-x="842" 
d="M18 991l131 131l131 -131l-131 -132zM366 991l131 131l132 -131l-132 -132zM501 475q0 -102 20 -171.5t78 -105t170 -35.5h73v-163h-77q-127 0 -218 61.5t-121 175.5h-10q-29 -115 -132 -176t-233 -61h-51q-29 0 -29 82q0 81 29 81h51q123 0 186 36t85 105.5t22 170.5
v135h157v-135zM-203 -359l131 131l131 -131l-131 -132zM145 -359l131 131l132 -131l-132 -132z" />
    <glyph glyph-name="uni063E.fina" unicode="&#x63e;" horiz-adv-x="1463" 
d="M558 602l131 131l131 -131l-131 -132zM906 602l131 131l132 -131l-132 -132zM1133 -10q128 -49 179 -99.5t51 -127.5q0 -97 -83.5 -174t-227.5 -122t-327 -45q-317 0 -468.5 129t-151.5 399q0 91 13 217.5t36 276.5l146 -29q-22 -142 -34.5 -259t-12.5 -195
q0 -199 110.5 -287t360.5 -88q142 0 249 26t167.5 72t60.5 106q0 42 -39 72t-139 59.5t-285 67.5l23 174h702v-163h-330v-10z" />
    <glyph glyph-name="uni063F.init" unicode="&#x63f;" horiz-adv-x="584" 
d="M122 1442l131 132l132 -132l-132 -131zM296 1135l131 131l132 -131l-132 -132zM-52 1135l131 131l131 -131l-131 -132zM421 766q27 -106 43.5 -200.5t16.5 -170.5q0 -191 -102.5 -293t-327.5 -102h-51q-29 0 -29 82q0 81 29 81h51q151 0 215 61t64 179q0 60 -15.5 142.5
t-39.5 180.5zM-172 -359l131 131l131 -131l-131 -132zM176 -359l131 131l132 -131l-132 -132z" />
    <glyph glyph-name="uni063F.medi" unicode="&#x63f;" horiz-adv-x="842" 
d="M192 1298l131 132l132 -132l-132 -131zM366 991l131 131l132 -131l-132 -132zM18 991l131 131l131 -131l-131 -132zM501 475q0 -102 20 -171.5t78 -105t170 -35.5h73v-163h-77q-127 0 -218 61.5t-121 175.5h-10q-29 -115 -132 -176t-233 -61h-51q-29 0 -29 82q0 81 29 81
h51q123 0 186 36t85 105.5t22 170.5v135h157v-135zM-203 -359l131 131l131 -131l-131 -132zM145 -359l131 131l132 -131l-132 -132z" />
    <glyph glyph-name="uni063F.fina" unicode="&#x63f;" horiz-adv-x="1463" 
d="M732 909l131 132l132 -132l-132 -131zM906 602l131 131l132 -131l-132 -132zM558 602l131 131l131 -131l-131 -132zM1133 -10q128 -49 179 -99.5t51 -127.5q0 -97 -83.5 -174t-227.5 -122t-327 -45q-317 0 -468.5 129t-151.5 399q0 91 13 217.5t36 276.5l146 -29
q-22 -142 -34.5 -259t-12.5 -195q0 -199 110.5 -287t360.5 -88q142 0 249 26t167.5 72t60.5 106q0 42 -39 72t-139 59.5t-285 67.5l23 174h702v-163h-330v-10z" />
    <glyph glyph-name="uni06A1.init" unicode="&#x66f;" horiz-adv-x="960" 
d="M0 163h344q203 0 286 64.5t83 216.5q-144 -36 -267 -36q-322 0 -322 279q0 139 42.5 243.5t119 163.5t177.5 59q120 0 208 -84.5t136 -238.5t48 -365q0 -241 -127 -353t-402 -112h-326q-29 0 -29 82q0 81 29 81zM694 585q-12 194 -74.5 301t-162.5 107
q-88 0 -144.5 -80.5t-56.5 -205.5q0 -153 198 -153q99 0 240 31z" />
    <glyph glyph-name="uni06A1.medi" unicode="&#x66f;" horiz-adv-x="992" 
d="M131 540q0 118 48 203t130.5 131t186.5 46q102 0 184.5 -46t131 -131t48.5 -202q0 -118 -60.5 -201.5t-151.5 -136.5l2 -9q99 -31 220 -31h122v-163h-140q-109 0 -192.5 24t-166.5 70q-81 -46 -165 -70t-194 -24h-134q-30 0 -30 82q0 81 30 81h113q124 0 230 31l2 9
q-91 52 -152.5 135.5t-61.5 201.5zM495 240q94 45 152.5 116t58.5 179q0 101 -59 163.5t-151 62.5q-94 0 -152.5 -62t-58.5 -164q0 -106 58.5 -177.5t151.5 -117.5z" />
    <glyph glyph-name="uni066F.fina" unicode="&#x66f;" horiz-adv-x="1506" 
d="M1042 758q98 0 168 -52t115 -138.5t69 -192t31 -212.5h81v-163h-85q-19 -266 -191 -409.5t-477 -143.5q-320 0 -484 135t-164 406q0 144 51 445l153 -31q-25 -139 -36.5 -238.5t-11.5 -168.5q0 -202 126 -293t373 -91q230 0 366 97.5t153 286.5l-6 9q-59 -1 -119.5 -2.5
t-119.5 -1.5q-154 0 -244.5 72t-90.5 231q0 121 39.5 224.5t116 167t187.5 63.5zM1039 593q-70 0 -116 -40.5t-68.5 -102.5t-22.5 -129q0 -93 56.5 -128t151.5 -35q61 0 121 0.5t119 1.5q-3 67 -15.5 142.5t-40 141.5t-72.5 107.5t-113 41.5z" />
    <glyph glyph-name="uni0672.fina" unicode="&#x672;" horiz-adv-x="606" 
d="M162 1169h157v-738q0 -143 62.5 -205.5t223.5 -62.5h1v-163h-1q-217 0 -330 107t-113 321v741zM425 1728q-13 3 -25 5t-23 2q-55 0 -87.5 -30t-32.5 -74q0 -39 26.5 -68t79.5 -29q20 0 43 5t49 12l44 13l24 -83l-214 -67q-33 -11 -63 -11q-39 0 -76 18q-13 6 -23.5 10.5
t-21.5 4.5q-20 0 -32.5 -15.5t-23.5 -41.5l-79 36q26 53 52.5 80.5t69.5 27.5q26 0 44.5 -11t42.5 -17t68 7l1 9q-48 11 -72 48t-24 80q0 74 56.5 128t142.5 54q35 0 74 -10l35 -9l-20 -82z" />
    <glyph glyph-name="uni0673.fina" unicode="&#x673;" horiz-adv-x="606" 
d="M442 -260q-13 3 -25 5t-23 2q-55 0 -87.5 -30t-32.5 -74q0 -39 26.5 -68t79.5 -29q20 0 43 5t49 12l44 13l24 -83l-214 -67q-33 -11 -63 -11q-39 0 -76 18q-13 6 -23.5 10.5t-21.5 4.5q-20 0 -32.5 -15.5t-23.5 -41.5l-79 36q26 53 52.5 80.5t69.5 27.5q26 0 44.5 -11
t42.5 -17t68 7l1 9q-48 11 -72 48t-24 80q0 74 56.5 128t142.5 54q35 0 74 -10l35 -9l-20 -82zM162 1322h157v-891q0 -143 62.5 -205.5t223.5 -62.5h1v-163h-1q-217 0 -330 107t-113 321v894z" />
    <glyph glyph-name="uni0675.fina" unicode="&#x675;" horiz-adv-x="1014" 
d="M166 1322h157v-891q0 -143 60.5 -205.5t221.5 -62.5h409v-163h-409q-439 0 -439 428v894zM808 1442l-25 -76q-38 16 -77 16q-57 0 -93.5 -32t-36.5 -82q0 -46 31.5 -72t82.5 -26q37 0 80 13l103 32l25 -81l-457 -146l-25 84l176 51v10q-93 35 -93 140q0 82 58.5 137.5
t147.5 55.5q26 0 51.5 -6.5t51.5 -17.5z" />
    <glyph glyph-name="uni0676.fina" unicode="&#x676;" horiz-adv-x="932" 
d="M868 1424l-25 -76q-38 16 -77 16q-57 0 -93.5 -32t-36.5 -82q0 -46 31.5 -72t82.5 -26q37 0 80 13l103 32l25 -81l-457 -146l-25 84l176 51v10q-93 35 -93 140q0 82 58.5 137.5t147.5 55.5q26 0 51.5 -6.5t51.5 -17.5zM705 -5l-7 9q-61 -2 -120.5 -3t-118.5 -1
q-154 0 -244.5 73t-90.5 230q0 115 37.5 219t114 170t192.5 66q100 0 170 -53t114.5 -141t67.5 -192.5t30 -208.5h82v-163h-87q-22 -193 -204.5 -324.5t-490.5 -212.5l-63 150q266 61 428 158.5t190 223.5zM705 160q-3 67 -15.5 142.5t-40 141.5t-72.5 107.5t-113 41.5
q-70 0 -115.5 -40t-68 -102t-22.5 -129q0 -93 56 -128.5t151 -35.5q59 0 119 0.5t121 1.5z" />
    <glyph glyph-name="uni0677.fina" unicode="&#x677;" horiz-adv-x="932" 
d="M304 1501q65 0 104 -47t39 -124q0 -87 -56 -158t-154.5 -124t-224.5 -88l-25 83q62 17 135.5 47.5t129.5 65.5q-51 18 -95.5 55.5t-44.5 102.5q0 46 26 88.5t69.5 70.5t96.5 28zM294 1419q-39 0 -72.5 -32.5t-33.5 -72.5q0 -44 42.5 -68t88.5 -36q44 52 44 116
q0 38 -17.5 65.5t-51.5 27.5zM868 1424l-25 -76q-38 16 -77 16q-57 0 -93.5 -32t-36.5 -82q0 -46 31.5 -72t82.5 -26q37 0 80 13l103 32l25 -81l-457 -146l-25 84l176 51v10q-93 35 -93 140q0 82 58.5 137.5t147.5 55.5q26 0 51.5 -6.5t51.5 -17.5zM705 -5l-7 9
q-61 -2 -120.5 -3t-118.5 -1q-154 0 -244.5 73t-90.5 230q0 115 37.5 219t114 170t192.5 66q100 0 170 -53t114.5 -141t67.5 -192.5t30 -208.5h82v-163h-87q-22 -193 -204.5 -324.5t-490.5 -212.5l-63 150q266 61 428 158.5t190 223.5zM705 160q-3 67 -15.5 142.5t-40 141.5
t-72.5 107.5t-113 41.5q-70 0 -115.5 -40t-68 -102t-22.5 -129q0 -93 56 -128.5t151 -35.5q59 0 119 0.5t121 1.5z" />
    <glyph glyph-name="uni0678.fina" unicode="&#x678;" horiz-adv-x="1463" 
d="M1258 828l-25 -76q-38 16 -77 16q-57 0 -93.5 -32t-36.5 -82q0 -46 31.5 -72t82.5 -26q37 0 80 13l103 32l25 -81l-457 -146l-25 84l176 51v10q-93 35 -93 140q0 82 58.5 137.5t147.5 55.5q26 0 51.5 -6.5t51.5 -17.5zM1133 -10q128 -49 179 -99.5t51 -127.5
q0 -97 -83.5 -174t-227.5 -122t-327 -45q-317 0 -468.5 129t-151.5 399q0 91 13 217.5t36 276.5l146 -29q-22 -142 -34.5 -259t-12.5 -195q0 -199 110.5 -287t360.5 -88q142 0 249 26t167.5 72t60.5 106q0 42 -39 72t-139 59.5t-285 67.5l23 174h702v-163h-330v-10z" />
    <glyph glyph-name="uni067C.init" unicode="&#x67c;" horiz-adv-x="584" 
d="M0 69q80 0 127 -47t47 -127q0 -77 -47.5 -125t-126.5 -48q-77 0 -125.5 47t-48.5 126q0 78 49 126t125 48zM0 0q-100 0 -100 -95q0 -97 100 -97q47 0 73.5 25.5t26.5 71.5q0 95 -100 95zM421 766q27 -106 43.5 -200.5t16.5 -170.5q0 -191 -102.5 -293t-327.5 -102h-51
q-29 0 -29 82q0 81 29 81h51q151 0 215 61t64 179q0 60 -15.5 142.5t-39.5 180.5zM-52 1135l131 131l131 -131l-131 -132zM296 1135l131 131l132 -131l-132 -132z" />
    <glyph glyph-name="uni067C.medi" unicode="&#x67c;" horiz-adv-x="842" 
d="M0 69q80 0 127 -47t47 -127q0 -77 -47.5 -125t-126.5 -48q-77 0 -125.5 47t-48.5 126q0 78 49 126t125 48zM0 0q-100 0 -100 -95q0 -97 100 -97q47 0 73.5 25.5t26.5 71.5q0 95 -100 95zM501 475q0 -102 20 -171.5t78 -105t170 -35.5h73v-163h-77q-127 0 -218 61.5
t-121 175.5h-10q-29 -115 -132 -176t-233 -61h-51q-29 0 -29 82q0 81 29 81h51q123 0 186 36t85 105.5t22 170.5v135h157v-135zM18 991l131 131l131 -131l-131 -132zM366 991l131 131l132 -131l-132 -132z" />
    <glyph glyph-name="uni067C.fina" unicode="&#x67c;" horiz-adv-x="1949" 
d="M783 69q80 0 127 -47t47 -127q0 -77 -47.5 -125t-126.5 -48q-77 0 -125.5 47t-48.5 126q0 78 49 126t125 48zM783 0q-100 0 -100 -95q0 -97 100 -97q47 0 73.5 25.5t26.5 71.5q0 95 -100 95zM1702 637q-13 -72 -21 -131t-8 -115q0 -66 22.5 -117.5t82.5 -81t170 -29.5h1
v-163h-1q-166 0 -266 68.5t-128 211.5h-10q-94 -160 -289 -220t-470 -60q-358 0 -519.5 123.5t-161.5 355.5q0 71 15 153.5t43 168.5l140 -43q-24 -73 -37.5 -142t-13.5 -124q0 -166 131.5 -247.5t429.5 -81.5q261 0 413.5 51t227.5 161t104 285zM601 802l131 131l131 -131
l-131 -132zM949 802l131 131l132 -131l-132 -132z" />
    <glyph glyph-name="uni067D.init" unicode="&#x67d;" horiz-adv-x="584" 
d="M277 1450l131 131l132 -131l-132 -132zM-71 1450l131 131l131 -131l-131 -132zM104 1142l131 131l132 -131l-132 -132zM421 766q27 -106 43.5 -200.5t16.5 -170.5q0 -191 -102.5 -293t-327.5 -102h-51q-29 0 -29 82q0 81 29 81h51q151 0 215 61t64 179q0 60 -15.5 142.5
t-39.5 180.5z" />
    <glyph glyph-name="uni067D.medi" unicode="&#x67d;" horiz-adv-x="842" 
d="M360 1300l131 131l132 -131l-132 -132zM12 1300l131 131l131 -131l-131 -132zM187 992l131 131l132 -131l-132 -132zM501 475q0 -102 20 -171.5t78 -105t170 -35.5h73v-163h-77q-127 0 -218 61.5t-121 175.5h-10q-29 -115 -132 -176t-233 -61h-51q-29 0 -29 82
q0 81 29 81h51q123 0 186 36t85 105.5t22 170.5v135h157v-135z" />
    <glyph glyph-name="uni067D.fina" unicode="&#x67d;" horiz-adv-x="1949" 
d="M948 1110l131 131l132 -131l-132 -132zM600 1110l131 131l131 -131l-131 -132zM775 802l131 131l132 -131l-132 -132zM1702 637q-13 -72 -21 -131t-8 -115q0 -66 22.5 -117.5t82.5 -81t170 -29.5h1v-163h-1q-166 0 -266 68.5t-128 211.5h-10q-94 -160 -289 -220t-470 -60
q-358 0 -519.5 123.5t-161.5 355.5q0 71 15 153.5t43 168.5l140 -43q-24 -73 -37.5 -142t-13.5 -124q0 -166 131.5 -247.5t429.5 -81.5q261 0 413.5 51t227.5 161t104 285z" />
    <glyph glyph-name="uni0681.init" unicode="&#x681;" horiz-adv-x="1265" 
d="M729 1547l-25 -76q-38 16 -77 16q-57 0 -93.5 -32t-36.5 -82q0 -46 31.5 -72t82.5 -26q37 0 80 13l103 32l25 -81l-457 -146l-25 84l176 51v10q-93 35 -93 140q0 82 58.5 137.5t147.5 55.5q26 0 51.5 -6.5t51.5 -17.5zM417 839q50 0 121 -22.5t210 -82.5
q133 -58 226.5 -91t187.5 -57v-141l-492 -278q-157 -89 -290 -128t-282 -39h-98q-29 0 -29 82q0 81 29 81h125q82 0 154.5 13t150.5 42.5t175 78.5l360 189v10q-62 17 -133 42.5t-164 65.5q-103 42 -160 59.5t-92 17.5q-67 0 -111.5 -43.5t-84.5 -146.5l-7 -18l-118 38l7 18
q56 165 130 237.5t185 72.5z" />
    <glyph glyph-name="uni0681.medi" unicode="&#x681;" horiz-adv-x="1313" 
d="M729 1547l-25 -76q-38 16 -77 16q-57 0 -93.5 -32t-36.5 -82q0 -46 31.5 -72t82.5 -26q37 0 80 13l103 32l25 -81l-457 -146l-25 84l176 51v10q-93 35 -93 140q0 82 58.5 137.5t147.5 55.5q26 0 51.5 -6.5t51.5 -17.5zM417 839q50 0 121.5 -21.5t209.5 -83.5
q133 -58 226.5 -91t187.5 -57v-141l-235 -127v-10q71 -83 149.5 -114t168.5 -31h68v-163h-71q-123 0 -230 55.5t-199 191.5l-143 -80q-157 -89 -290 -128t-282 -39h-98q-29 0 -29 82q0 81 29 81h125q82 0 154.5 12.5t150.5 42t175 79.5l360 189v10q-62 17 -133 43t-164 65
q-103 42 -160 59.5t-92 17.5q-67 0 -111 -43.5t-85 -146.5l-7 -18l-118 38l7 18q56 165 130 237.5t185 72.5z" />
    <glyph glyph-name="uni0681.fina" unicode="&#x681;" horiz-adv-x="1372" 
d="M781 1592l-25 -76q-38 16 -77 16q-57 0 -93.5 -32t-36.5 -82q0 -46 31.5 -72t82.5 -26q37 0 80 13l103 32l25 -81l-457 -146l-25 84l176 51v10q-93 35 -93 140q0 82 58.5 137.5t147.5 55.5q26 0 51.5 -6.5t51.5 -17.5zM458 856q55 0 130 -23t199 -79q150 -67 246 -103
t181 -57l-16 -184q-63 -7 -110.5 -15.5t-85.5 -17.5v-10q49 -108 123 -156t188 -48h59v-163h-45q-162 0 -266.5 84.5t-160.5 260.5q-190 -46 -336.5 -131t-229 -193.5t-82.5 -225.5q0 -152 139.5 -243t374.5 -91q250 0 452 91l72 -142q-259 -117 -525 -117
q-201 0 -350.5 60.5t-232.5 170t-83 256.5q0 170 114.5 317t320 253t478.5 152v10q-59 15 -129.5 40t-172.5 68q-104 43 -160.5 60.5t-91.5 17.5q-67 0 -111.5 -43.5t-84.5 -146.5l-7 -18l-117 37l6 19q55 164 128.5 237t185.5 73z" />
    <glyph glyph-name="uni0682.init" unicode="&#x682;" horiz-adv-x="1265" 
d="M458 1578l131 131l132 -131l-132 -132zM458 1229l131 131l132 -131l-132 -132zM417 839q50 0 121 -22.5t210 -82.5q133 -58 226.5 -91t187.5 -57v-141l-492 -278q-157 -89 -290 -128t-282 -39h-98q-29 0 -29 82q0 81 29 81h125q82 0 154.5 13t150.5 42.5t175 78.5
l360 189v10q-62 17 -133 42.5t-164 65.5q-103 42 -160 59.5t-92 17.5q-67 0 -111.5 -43.5t-84.5 -146.5l-7 -18l-118 38l7 18q56 165 130 237.5t185 72.5z" />
    <glyph glyph-name="uni0682.medi" unicode="&#x682;" horiz-adv-x="1313" 
d="M458 1578l131 131l132 -131l-132 -132zM458 1229l131 131l132 -131l-132 -132zM417 839q50 0 121.5 -21.5t209.5 -83.5q133 -58 226.5 -91t187.5 -57v-141l-235 -127v-10q71 -83 149.5 -114t168.5 -31h68v-163h-71q-123 0 -230 55.5t-199 191.5l-143 -80
q-157 -89 -290 -128t-282 -39h-98q-29 0 -29 82q0 81 29 81h125q82 0 154.5 12.5t150.5 42t175 79.5l360 189v10q-62 17 -133 43t-164 65q-103 42 -160 59.5t-92 17.5q-67 0 -111 -43.5t-85 -146.5l-7 -18l-118 38l7 18q56 165 130 237.5t185 72.5z" />
    <glyph glyph-name="uni0682.fina" unicode="&#x682;" horiz-adv-x="1372" 
d="M509 1627l131 131l132 -131l-132 -132zM509 1278l131 131l132 -131l-132 -132zM458 856q55 0 130 -23t199 -79q150 -67 246 -103t181 -57l-16 -184q-63 -7 -110.5 -15.5t-85.5 -17.5v-10q49 -108 123 -156t188 -48h59v-163h-45q-162 0 -266.5 84.5t-160.5 260.5
q-190 -46 -336.5 -131t-229 -193.5t-82.5 -225.5q0 -152 139.5 -243t374.5 -91q250 0 452 91l72 -142q-259 -117 -525 -117q-201 0 -350.5 60.5t-232.5 170t-83 256.5q0 170 114.5 317t320 253t478.5 152v10q-59 15 -129.5 40t-172.5 68q-104 43 -160.5 60.5t-91.5 17.5
q-67 0 -111.5 -43.5t-84.5 -146.5l-7 -18l-117 37l6 19q55 164 128.5 237t185.5 73z" />
    <glyph glyph-name="uni0685.init" unicode="&#x685;" horiz-adv-x="1265" 
d="M508 1508l131 132l132 -132l-132 -131zM682 1201l131 131l132 -131l-132 -132zM334 1201l131 131l131 -131l-131 -132zM417 839q50 0 121 -22.5t210 -82.5q133 -58 226.5 -91t187.5 -57v-141l-492 -278q-157 -89 -290 -128t-282 -39h-98q-29 0 -29 82q0 81 29 81h125
q82 0 154.5 13t150.5 42.5t175 78.5l360 189v10q-62 17 -133 42.5t-164 65.5q-103 42 -160 59.5t-92 17.5q-67 0 -111.5 -43.5t-84.5 -146.5l-7 -18l-118 38l7 18q56 165 130 237.5t185 72.5z" />
    <glyph glyph-name="uni0685.medi" unicode="&#x685;" horiz-adv-x="1313" 
d="M508 1508l131 132l132 -132l-132 -131zM682 1201l131 131l132 -131l-132 -132zM334 1201l131 131l131 -131l-131 -132zM417 839q50 0 121.5 -21.5t209.5 -83.5q133 -58 226.5 -91t187.5 -57v-141l-235 -127v-10q71 -83 149.5 -114t168.5 -31h68v-163h-71
q-123 0 -230 55.5t-199 191.5l-143 -80q-157 -89 -290 -128t-282 -39h-98q-29 0 -29 82q0 81 29 81h125q82 0 154.5 12.5t150.5 42t175 79.5l360 189v10q-62 17 -133 43t-164 65q-103 42 -160 59.5t-92 17.5q-67 0 -111 -43.5t-85 -146.5l-7 -18l-118 38l7 18
q56 165 130 237.5t185 72.5z" />
    <glyph glyph-name="uni0685.fina" unicode="&#x685;" horiz-adv-x="1372" 
d="M559 1551l131 132l132 -132l-132 -131zM733 1244l131 131l132 -131l-132 -132zM385 1244l131 131l131 -131l-131 -132zM458 856q55 0 130 -23t199 -79q150 -67 246 -103t181 -57l-16 -184q-63 -7 -110.5 -15.5t-85.5 -17.5v-10q49 -108 123 -156t188 -48h59v-163h-45
q-162 0 -266.5 84.5t-160.5 260.5q-190 -46 -336.5 -131t-229 -193.5t-82.5 -225.5q0 -152 139.5 -243t374.5 -91q250 0 452 91l72 -142q-259 -117 -525 -117q-201 0 -350.5 60.5t-232.5 170t-83 256.5q0 170 114.5 317t320 253t478.5 152v10q-59 15 -129.5 40t-172.5 68
q-104 43 -160.5 60.5t-91.5 17.5q-67 0 -111.5 -43.5t-84.5 -146.5l-7 -18l-117 37l6 19q55 164 128.5 237t185.5 73z" />
    <glyph glyph-name="uni0689.fina" unicode="&#x689;" horiz-adv-x="1284" 
d="M484 59q80 0 127 -47t47 -127q0 -77 -47.5 -125t-126.5 -48q-77 0 -125.5 47t-48.5 126q0 78 49 126t125 48zM484 -10q-100 0 -100 -95q0 -97 100 -97q47 0 73.5 25.5t26.5 71.5q0 95 -100 95zM715 992l271 -630q51 -119 113.5 -159t168.5 -40h16v-163h-16
q-132 0 -224.5 51.5t-139.5 172.5h-10q-49 -112 -162.5 -173t-249.5 -61q-98 0 -196.5 35t-184.5 107l78 130q71 -55 150 -81.5t152 -26.5q104 0 196 45.5t149 132.5l-261 589z" />
    <glyph glyph-name="uni068A.fina" unicode="&#x68a;" horiz-adv-x="1284" 
d="M349 -358l131 131l132 -131l-132 -132zM715 992l271 -630q51 -119 113.5 -159t168.5 -40h16v-163h-16q-132 0 -224.5 51.5t-139.5 172.5h-10q-49 -112 -162.5 -173t-249.5 -61q-98 0 -196.5 35t-184.5 107l78 130q71 -55 150 -81.5t152 -26.5q104 0 196 45.5t149 132.5
l-261 589z" />
    <glyph glyph-name="uni068B.fina" unicode="&#x68b;" horiz-adv-x="1284" 
d="M456 1336v417h81v-310h10q67 69 118.5 102.5t103.5 33.5q62 0 100.5 -42t38.5 -103q0 -91 -66.5 -136.5t-192.5 -45.5h-323v84h130zM526 1336h123q95 0 139.5 20.5t44.5 67.5q0 33 -21.5 53.5t-58.5 20.5q-49 0 -98 -36.5t-129 -125.5zM715 992l271 -630
q51 -119 113.5 -159t168.5 -40h16v-163h-16q-132 0 -224.5 51.5t-139.5 172.5h-10q-49 -112 -162.5 -173t-249.5 -61q-98 0 -196.5 35t-184.5 107l78 130q71 -55 150 -81.5t152 -26.5q104 0 196 45.5t149 132.5l-261 589zM349 -358l131 131l132 -131l-132 -132z" />
    <glyph glyph-name="uni068F.fina" unicode="&#x68f;" horiz-adv-x="1284" 
d="M669 1694l131 131l132 -131l-132 -132zM321 1694l131 131l131 -131l-131 -132zM496 1386l131 131l132 -131l-132 -132zM715 992l271 -630q51 -119 113.5 -159t168.5 -40h16v-163h-16q-132 0 -224.5 51.5t-139.5 172.5h-10q-49 -112 -162.5 -173t-249.5 -61
q-98 0 -196.5 35t-184.5 107l78 130q71 -55 150 -81.5t152 -26.5q104 0 196 45.5t149 132.5l-261 589z" />
    <glyph glyph-name="uni0690.fina" unicode="&#x690;" horiz-adv-x="1284" 
d="M669 1734l131 132l132 -132l-132 -131zM321 1734l131 132l131 -132l-131 -131zM321 1386l131 131l131 -131l-131 -132zM669 1386l131 131l132 -131l-132 -132zM715 992l271 -630q51 -119 113.5 -159t168.5 -40h16v-163h-16q-132 0 -224.5 51.5t-139.5 172.5h-10
q-49 -112 -162.5 -173t-249.5 -61q-98 0 -196.5 35t-184.5 107l78 130q71 -55 150 -81.5t152 -26.5q104 0 196 45.5t149 132.5l-261 589z" />
    <glyph glyph-name="uni0692.fina" unicode="&#x692;" horiz-adv-x="765" 
d="M335 942h-74l-212 269l70 56l179 -231l179 231l70 -56zM206 584l147 52l64 -197q33 -101 74.5 -162t105.5 -87.5t166 -26.5h2v-163h-2q-99 0 -177.5 35.5t-122.5 99.5l-10 -3q16 -167 -42 -289.5t-190.5 -215t-341.5 -168.5l-68 148q272 97 389.5 206t117.5 266
q0 89 -29.5 220t-82.5 285z" />
    <glyph glyph-name="uni0693.fina" unicode="&#x693;" horiz-adv-x="765" 
d="M327 -282q80 0 127 -47t47 -127q0 -77 -47.5 -125t-126.5 -48q-77 0 -125.5 47t-48.5 126q0 78 49 126t125 48zM327 -351q-100 0 -100 -95q0 -97 100 -97q47 0 73.5 25.5t26.5 71.5q0 95 -100 95zM206 584l147 52l64 -197q33 -101 74.5 -162t105.5 -87.5t166 -26.5h2
v-163h-2q-99 0 -177.5 35.5t-122.5 99.5l-10 -3q16 -167 -42 -289.5t-190.5 -215t-341.5 -168.5l-68 148q272 97 389.5 206t117.5 266q0 89 -29.5 220t-82.5 285z" />
    <glyph glyph-name="uni0694.fina" unicode="&#x694;" horiz-adv-x="765" 
d="M277 -655l131 131l132 -131l-132 -132zM206 584l147 52l64 -197q33 -101 74.5 -162t105.5 -87.5t166 -26.5h2v-163h-2q-99 0 -177.5 35.5t-122.5 99.5l-10 -3q16 -167 -42 -289.5t-190.5 -215t-341.5 -168.5l-68 148q272 97 389.5 206t117.5 266q0 89 -29.5 220
t-82.5 285z" />
    <glyph glyph-name="uni0695.fina" unicode="&#x695;" horiz-adv-x="765" 
d="M242 -1056h-74l-212 269l70 56l179 -231l179 231l70 -56zM206 584l147 52l64 -197q33 -101 74.5 -162t105.5 -87.5t166 -26.5h2v-163h-2q-99 0 -177.5 35.5t-122.5 99.5l-10 -3q16 -167 -42 -289.5t-190.5 -215t-341.5 -168.5l-68 148q272 97 389.5 206t117.5 266
q0 89 -29.5 220t-82.5 285z" />
    <glyph glyph-name="uni0696.fina" unicode="&#x696;" horiz-adv-x="1018" 
d="M43 92l131 131l132 -131l-132 -132zM532 -655l131 131l132 -131l-132 -132zM460 584l147 52l64 -197q33 -101 74.5 -162t105.5 -87.5t166 -26.5h2v-163h-2q-99 0 -177.5 35.5t-122.5 99.5l-10 -3q16 -167 -42 -289.5t-190.5 -215t-341.5 -168.5l-68 148q272 97 389.5 206
t117.5 266q0 89 -29.5 220t-82.5 285z" />
    <glyph glyph-name="uni0697.fina" unicode="&#x697;" horiz-adv-x="765" 
d="M-10 1046l131 131l131 -131l-131 -132zM338 1046l131 131l132 -131l-132 -132zM206 584l147 52l64 -197q33 -101 74.5 -162t105.5 -87.5t166 -26.5h2v-163h-2q-99 0 -177.5 35.5t-122.5 99.5l-10 -3q16 -167 -42 -289.5t-190.5 -215t-341.5 -168.5l-68 148
q272 97 389.5 206t117.5 266q0 89 -29.5 220t-82.5 285z" />
    <glyph glyph-name="uni0699.fina" unicode="&#x699;" horiz-adv-x="765" 
d="M338 1344l131 132l132 -132l-132 -131zM-10 1344l131 132l131 -132l-131 -131zM-10 996l131 131l131 -131l-131 -132zM338 996l131 131l132 -131l-132 -132zM206 584l147 52l64 -197q33 -101 74.5 -162t105.5 -87.5t166 -26.5h2v-163h-2q-99 0 -177.5 35.5t-122.5 99.5
l-10 -3q16 -167 -42 -289.5t-190.5 -215t-341.5 -168.5l-68 148q272 97 389.5 206t117.5 266q0 89 -29.5 220t-82.5 285z" />
    <glyph glyph-name="uni069A.init" unicode="&#x69a;" horiz-adv-x="1663" 
d="M835 -359l131 131l132 -131l-132 -132zM831 1101l131 131l132 -131l-132 -132zM700 163q92 0 137 55t57 173l16 179l142 -12l-14 -169q-10 -114 40.5 -170t147.5 -56q179 0 179 209q0 32 -4.5 82t-11 102t-14.5 90l152 37q14 -65 23.5 -153t9.5 -156q0 -374 -312 -374
q-119 0 -187 56t-89 152h-10q-51 -208 -270 -208q-120 0 -187.5 60.5t-86.5 171.5h-10q-33 -104 -127.5 -168t-229.5 -64h-51q-29 0 -29 83q0 80 29 80h51q148 0 218 72t88 233l15 149l157 -12l-19 -198q-13 -116 36.5 -180t153.5 -64z" />
    <glyph glyph-name="uni069A.medi" unicode="&#x69a;" horiz-adv-x="1890" 
d="M835 -359l131 131l132 -131l-132 -132zM831 1101l131 131l132 -131l-132 -132zM1503 260q-16 -130 -80 -195t-183 -65q-117 0 -182 56t-86 152h-10q-53 -208 -270 -208q-121 0 -188 60.5t-86 171.5h-10q-33 -104 -127.5 -168t-229.5 -64h-51q-29 0 -29 83q0 80 29 80h51
q148 0 217.5 72t88.5 233l15 149l157 -12l-19 -198q-13 -116 36.5 -180t153.5 -64q92 0 137 54.5t57 173.5l16 179l142 -12l-14 -169q-10 -115 39.5 -170.5t143.5 -55.5q179 0 179 206q0 43 -9 113.5t-24 145.5l152 31l25 -167q19 -123 58 -195t108.5 -103t177.5 -31h2v-163
h-2q-163 0 -256 68.5t-119 191.5h-10z" />
    <glyph glyph-name="uni069A.fina" unicode="&#x69a;" horiz-adv-x="2754" 
d="M1690 -359l131 131l132 -131l-132 -132zM1696 1101l131 131l132 -131l-132 -132zM2367 260q-30 -260 -257 -260q-109 0 -179.5 52.5t-93.5 155.5h-10q-25 -102 -91 -155t-163 -53q-115 0 -184 78l-6 -5q8 -190 -71 -314t-224.5 -184t-337.5 -60q-307 0 -474 137.5
t-167 440.5q0 83 14 190t45 257l149 -33q-31 -155 -43 -247.5t-12 -158.5q0 -231 123.5 -327t360.5 -96t370 84.5t133 286.5q0 91 -33 206.5t-114 305.5l146 69l114 -311q28 -76 77 -116t133 -40q89 0 135 54t57 176l15 177l140 -12l-13 -169q-10 -116 40.5 -171t147.5 -55
q171 0 171 206q0 44 -9.5 114.5t-23.5 144.5l151 31l27 -167q20 -124 58.5 -196t107 -102.5t177.5 -30.5h1v-163h-1q-318 0 -376 260h-10z" />
    <glyph glyph-name="uni069B.init" unicode="&#x69b;" horiz-adv-x="1663" 
d="M1006 -358l131 131l132 -131l-132 -132zM658 -358l131 131l131 -131l-131 -132zM833 -666l131 131l132 -131l-132 -132zM700 163q92 0 137 55t57 173l16 179l142 -12l-14 -169q-10 -114 40.5 -170t147.5 -56q179 0 179 209q0 32 -4.5 82t-11 102t-14.5 90l152 37
q14 -65 23.5 -153t9.5 -156q0 -374 -312 -374q-119 0 -187 56t-89 152h-10q-51 -208 -270 -208q-120 0 -187.5 60.5t-86.5 171.5h-10q-33 -104 -127.5 -168t-229.5 -64h-51q-29 0 -29 83q0 80 29 80h51q148 0 218 72t88 233l15 149l157 -12l-19 -198q-13 -116 36.5 -180
t153.5 -64z" />
    <glyph glyph-name="uni069B.medi" unicode="&#x69b;" horiz-adv-x="1890" 
d="M1006 -358l131 131l132 -131l-132 -132zM658 -358l131 131l131 -131l-131 -132zM833 -666l131 131l132 -131l-132 -132zM1503 260q-16 -130 -80 -195t-183 -65q-117 0 -182 56t-86 152h-10q-53 -208 -270 -208q-121 0 -188 60.5t-86 171.5h-10q-33 -104 -127.5 -168
t-229.5 -64h-51q-29 0 -29 83q0 80 29 80h51q148 0 217.5 72t88.5 233l15 149l157 -12l-19 -198q-13 -116 36.5 -180t153.5 -64q92 0 137 54.5t57 173.5l16 179l142 -12l-14 -169q-10 -115 39.5 -170.5t143.5 -55.5q179 0 179 206q0 43 -9 113.5t-24 145.5l152 31l25 -167
q19 -123 58 -195t108.5 -103t177.5 -31h2v-163h-2q-163 0 -256 68.5t-119 191.5h-10z" />
    <glyph glyph-name="uni069B.fina" unicode="&#x69b;" horiz-adv-x="2754" 
d="M1908 -359l131 131l132 -131l-132 -132zM1560 -359l131 131l131 -131l-131 -132zM1735 -667l131 131l132 -131l-132 -132zM2367 260q-30 -260 -257 -260q-109 0 -179.5 52.5t-93.5 155.5h-10q-25 -102 -91 -155t-163 -53q-115 0 -184 78l-6 -5q8 -190 -71 -314
t-224.5 -184t-337.5 -60q-307 0 -474 137.5t-167 440.5q0 83 14 190t45 257l149 -33q-31 -155 -43 -247.5t-12 -158.5q0 -231 123.5 -327t360.5 -96t370 84.5t133 286.5q0 91 -33 206.5t-114 305.5l146 69l114 -311q28 -76 77 -116t133 -40q89 0 135 54t57 176l15 177
l140 -12l-13 -169q-10 -116 40.5 -171t147.5 -55q171 0 171 206q0 44 -9.5 114.5t-23.5 144.5l151 31l27 -167q20 -124 58.5 -196t107 -102.5t177.5 -30.5h1v-163h-1q-318 0 -376 260h-10z" />
    <glyph glyph-name="uni069C.init" unicode="&#x69c;" horiz-adv-x="1663" 
d="M1006 -358l131 131l132 -131l-132 -132zM658 -358l131 131l131 -131l-131 -132zM833 -666l131 131l132 -131l-132 -132zM824 1270l131 132l132 -132l-132 -131zM998 963l131 131l132 -131l-132 -132zM650 963l131 131l131 -131l-131 -132zM700 163q92 0 137 55t57 173
l16 179l142 -12l-14 -169q-10 -114 40.5 -170t147.5 -56q179 0 179 209q0 32 -4.5 82t-11 102t-14.5 90l152 37q14 -65 23.5 -153t9.5 -156q0 -374 -312 -374q-119 0 -187 56t-89 152h-10q-51 -208 -270 -208q-120 0 -187.5 60.5t-86.5 171.5h-10q-33 -104 -127.5 -168
t-229.5 -64h-51q-29 0 -29 83q0 80 29 80h51q148 0 218 72t88 233l15 149l157 -12l-19 -198q-13 -116 36.5 -180t153.5 -64z" />
    <glyph glyph-name="uni069C.medi" unicode="&#x69c;" horiz-adv-x="1890" 
d="M1006 -358l131 131l132 -131l-132 -132zM658 -358l131 131l131 -131l-131 -132zM833 -666l131 131l132 -131l-132 -132zM824 1270l131 132l132 -132l-132 -131zM998 963l131 131l132 -131l-132 -132zM650 963l131 131l131 -131l-131 -132zM1503 260q-16 -130 -80 -195
t-183 -65q-117 0 -182 56t-86 152h-10q-53 -208 -270 -208q-121 0 -188 60.5t-86 171.5h-10q-33 -104 -127.5 -168t-229.5 -64h-51q-29 0 -29 83q0 80 29 80h51q148 0 217.5 72t88.5 233l15 149l157 -12l-19 -198q-13 -116 36.5 -180t153.5 -64q92 0 137 54.5t57 173.5
l16 179l142 -12l-14 -169q-10 -115 39.5 -170.5t143.5 -55.5q179 0 179 206q0 43 -9 113.5t-24 145.5l152 31l25 -167q19 -123 58 -195t108.5 -103t177.5 -31h2v-163h-2q-163 0 -256 68.5t-119 191.5h-10z" />
    <glyph glyph-name="uni069C.fina" unicode="&#x69c;" horiz-adv-x="2754" 
d="M1908 -359l131 131l132 -131l-132 -132zM1560 -359l131 131l131 -131l-131 -132zM1735 -667l131 131l132 -131l-132 -132zM1672 1270l131 132l132 -132l-132 -131zM1846 963l131 131l132 -131l-132 -132zM1498 963l131 131l131 -131l-131 -132zM2367 260
q-30 -260 -257 -260q-109 0 -179.5 52.5t-93.5 155.5h-10q-25 -102 -91 -155t-163 -53q-115 0 -184 78l-6 -5q8 -190 -71 -314t-224.5 -184t-337.5 -60q-307 0 -474 137.5t-167 440.5q0 83 14 190t45 257l149 -33q-31 -155 -43 -247.5t-12 -158.5q0 -231 123.5 -327
t360.5 -96t370 84.5t133 286.5q0 91 -33 206.5t-114 305.5l146 69l114 -311q28 -76 77 -116t133 -40q89 0 135 54t57 176l15 177l140 -12l-13 -169q-10 -116 40.5 -171t147.5 -55q171 0 171 206q0 44 -9.5 114.5t-23.5 144.5l151 31l27 -167q20 -124 58.5 -196t107 -102.5
t177.5 -30.5h1v-163h-1q-318 0 -376 260h-10z" />
    <glyph glyph-name="uni069D.init" unicode="&#x69d;" horiz-adv-x="1627" 
d="M660 -359l131 131l131 -131l-131 -132zM1008 -359l131 131l132 -131l-132 -132zM383 241q-31 -119 -131 -180t-244 -61h-8q-29 0 -29 82q0 81 29 81h8q119 0 178.5 36.5t79.5 104t20 159.5v157h157v-136q2 -110 27.5 -154t68.5 -71q188 276 347.5 388t295.5 112
q106 0 183 -48t118.5 -129.5t41.5 -184.5q0 -142 -81 -229.5t-216 -127.5t-296 -40q-219 0 -353.5 57t-186.5 184h-9zM1166 598q-100 0 -228 -85.5t-280 -309.5q57 -22 129 -31t154 -9q110 0 209.5 18.5t163 69.5t63.5 148q0 87 -56.5 143t-154.5 56z" />
    <glyph glyph-name="uni069D.medi" unicode="&#x69d;" horiz-adv-x="1695" 
d="M660 -359l131 131l131 -131l-131 -132zM1008 -359l131 131l132 -131l-132 -132zM286 620h157v-136q2 -110 27.5 -154t68.5 -71q188 276 347.5 388t295.5 112q106 0 183 -48t118.5 -129.5t41.5 -184.5q0 -55 -15 -99.5t-42 -79.5q79 -55 226 -55h1v-163h-1
q-205 0 -315 109q-81 -59 -198 -84t-249 -25q-218 0 -353 57t-187 184h-9q-31 -119 -131 -180t-244 -61h-8q-29 0 -29 82q0 81 29 81h8q119 0 178.5 36.5t79.5 104t20 159.5v157zM1166 598q-100 0 -228 -85.5t-280 -309.5q57 -22 129 -31t154 -9q110 0 209.5 18.5t163 69.5
t63.5 148q0 87 -56.5 143t-154.5 56z" />
    <glyph glyph-name="uni069D.fina" unicode="&#x69d;" horiz-adv-x="2517" 
d="M1545 -359l131 131l131 -131l-131 -132zM1893 -359l131 131l132 -131l-132 -132zM2006 759q152 0 246.5 -100.5t94.5 -261.5q0 -106 -59 -177q81 -57 228 -57h1v-163h-1q-199 0 -311 109q-149 -109 -442 -109q-241 0 -391 79q-2 -272 -166.5 -418t-469.5 -146
q-627 0 -627 578q0 162 59 447l149 -33q-30 -150 -42.5 -244t-12.5 -162q0 -219 113.5 -321t356.5 -102q248 0 368.5 98t120.5 299q0 86 -31.5 196t-108.5 291l146 69q53 -124 83 -215.5t44 -168.5q163 249 329.5 380.5t322.5 131.5zM1988 598q-118 0 -247.5 -101
t-260.5 -294q101 -40 282 -40q437 0 437 236q0 89 -58 144t-153 55z" />
    <glyph glyph-name="uni069E.init" unicode="&#x69e;" horiz-adv-x="1627" 
d="M1043 1426l131 132l132 -132l-132 -131zM1217 1119l131 131l132 -131l-132 -132zM869 1119l131 131l131 -131l-131 -132zM383 241q-31 -119 -131 -180t-244 -61h-8q-29 0 -29 82q0 81 29 81h8q119 0 178.5 36.5t79.5 104t20 159.5v157h157v-136q2 -110 27.5 -154
t68.5 -71q188 276 347.5 388t295.5 112q106 0 183 -48t118.5 -129.5t41.5 -184.5q0 -142 -81 -229.5t-216 -127.5t-296 -40q-219 0 -353.5 57t-186.5 184h-9zM1166 598q-100 0 -228 -85.5t-280 -309.5q57 -22 129 -31t154 -9q110 0 209.5 18.5t163 69.5t63.5 148
q0 87 -56.5 143t-154.5 56z" />
    <glyph glyph-name="uni069E.medi" unicode="&#x69e;" horiz-adv-x="1695" 
d="M1043 1426l131 132l132 -132l-132 -131zM1217 1119l131 131l132 -131l-132 -132zM869 1119l131 131l131 -131l-131 -132zM286 620h157v-136q2 -110 27.5 -154t68.5 -71q188 276 347.5 388t295.5 112q106 0 183 -48t118.5 -129.5t41.5 -184.5q0 -55 -15 -99.5t-42 -79.5
q79 -55 226 -55h1v-163h-1q-205 0 -315 109q-81 -59 -198 -84t-249 -25q-218 0 -353 57t-187 184h-9q-31 -119 -131 -180t-244 -61h-8q-29 0 -29 82q0 81 29 81h8q119 0 178.5 36.5t79.5 104t20 159.5v157zM1166 598q-100 0 -228 -85.5t-280 -309.5q57 -22 129 -31t154 -9
q110 0 209.5 18.5t163 69.5t63.5 148q0 87 -56.5 143t-154.5 56z" />
    <glyph glyph-name="uni069E.fina" unicode="&#x69e;" horiz-adv-x="2517" 
d="M1873 1426l131 132l132 -132l-132 -131zM2047 1119l131 131l132 -131l-132 -132zM1699 1119l131 131l131 -131l-131 -132zM2006 759q152 0 246.5 -100.5t94.5 -261.5q0 -106 -59 -177q81 -57 228 -57h1v-163h-1q-199 0 -311 109q-149 -109 -442 -109q-241 0 -391 79
q-2 -272 -166.5 -418t-469.5 -146q-627 0 -627 578q0 162 59 447l149 -33q-30 -150 -42.5 -244t-12.5 -162q0 -219 113.5 -321t356.5 -102q248 0 368.5 98t120.5 299q0 86 -31.5 196t-108.5 291l146 69q53 -124 83 -215.5t44 -168.5q163 249 329.5 380.5t322.5 131.5z
M1988 598q-118 0 -247.5 -101t-260.5 -294q101 -40 282 -40q437 0 437 236q0 89 -58 144t-153 55z" />
    <glyph glyph-name="uni069F.fina" unicode="&#x69f;" horiz-adv-x="1681" 
d="M1033 1426l131 132l132 -132l-132 -131zM1207 1119l131 131l132 -131l-132 -132zM859 1119l131 131l131 -131l-131 -132zM405 163q15 24 29.5 46.5t29.5 44.5v1068h156v-660q0 -73 -7.5 -138.5t-28.5 -135.5l9 -7q290 378 557 378q161 0 251 -101.5t90 -253.5
q0 -43 -9 -84t-32 -79q40 -37 96.5 -57.5t133.5 -20.5h1v-163h-1q-109 0 -181 36t-127 93q-69 -60 -189 -94.5t-305 -34.5h-774v163h301zM582 163h326q109 0 209 17t163.5 67.5t63.5 148.5q0 88 -58 145t-156 57q-66 0 -148 -36t-181.5 -130.5t-218.5 -268.5z" />
    <glyph glyph-name="uni06A0.init" unicode="&#x6a0;" horiz-adv-x="1091" 
d="M426 1604l131 132l132 -132l-132 -131zM600 1297l131 131l132 -131l-132 -132zM252 1297l131 131l131 -131l-131 -132zM281 453q0 -115 83 -176t240 -61q41 0 98 5t133 15l111 16l19 -160l-185 -23q-144 -21 -283 -36.5t-257 -24t-199 -8.5h-41q-29 0 -29 82q0 81 29 81
h36q142 0 272 12v13q-84 32 -131.5 105t-47.5 174q0 119 56.5 213.5t155 149t222.5 54.5q183 0 324 -116l-75 -122q-121 78 -248 78q-123 0 -203 -76.5t-80 -194.5z" />
    <glyph glyph-name="uni06A0.medi" unicode="&#x6a0;" horiz-adv-x="1186" 
d="M493 1555l131 132l132 -132l-132 -131zM667 1248l131 131l132 -131l-132 -132zM319 1248l131 131l131 -131l-131 -132zM615 866q106 0 198 -33t148.5 -99t56.5 -166q0 -97 -71.5 -177.5t-183.5 -148.5v-10q59 -51 123.5 -60t136.5 -9h163v-163h-184q-111 0 -197 25
t-177 116q-100 -64 -214 -102.5t-256 -38.5h-158q-29 0 -29 82q0 81 29 81h147q110 0 198.5 21.5t161.5 54.5v10l-361 340v118q103 75 217.5 117t251.5 42zM625 707q-175 0 -311 -80v-5l321 -325q109 60 174.5 125.5t65.5 135.5q0 54 -38 87t-95.5 47.5t-116.5 14.5z" />
    <glyph glyph-name="uni06A0.fina" unicode="&#x6a0;" horiz-adv-x="1202" 
d="M527 1606l131 132l132 -132l-132 -131zM701 1299l131 131l132 -131l-132 -132zM353 1299l131 131l131 -131l-131 -132zM1053 568q0 -172 -254 -324v-10q45 -40 101.5 -55.5t150.5 -15.5h151v-163h-140q-134 0 -220.5 32t-172.5 113q-209 -105 -309 -206.5t-100 -232.5
q0 -137 133.5 -216.5t363.5 -79.5q161 0 339 38l35 -160q-208 -46 -378 -46q-195 0 -340 55.5t-225 155.5t-80 235q0 314 447 540v10l-374 351v118q221 159 469 159q182 0 292.5 -82t110.5 -216zM909 558q0 67 -68.5 108t-181.5 41q-176 0 -310 -80v-5l321 -325
q239 131 239 261z" />
    <glyph glyph-name="uni06A1.fina" unicode="&#x6a1;" horiz-adv-x="1943" 
d="M1438 94q-112 -49 -250.5 -71.5t-287.5 -22.5q-242 0 -421 33t-277 124t-98 266q0 85 21.5 177.5t50.5 179.5l139 -47q-23 -70 -42 -148t-19 -146q0 -112 71.5 -171t215 -81t359.5 -24q96 -1 195 7t185 26l2 9q-91 53 -149 135t-58 200t48 203t130.5 131t186.5 46
q102 0 184.5 -46t131 -131t48.5 -202q0 -118 -60.5 -201.5t-151.5 -136.5l2 -9q51 -16 109 -23.5t118 -7.5h122v-163h-140q-111 0 -196 24t-169 70zM1439 243q95 44 153 114.5t58 177.5q0 101 -59 163.5t-151 62.5q-94 0 -152.5 -62t-58.5 -164q0 -104 59 -175t151 -117z
" />
    <glyph glyph-name="uni06A2.init" unicode="&#x6a2;" horiz-adv-x="960" 
d="M332 -359l131 131l132 -131l-132 -132zM0 163h344q203 0 286 64.5t83 216.5q-144 -36 -267 -36q-322 0 -322 279q0 139 42.5 243.5t119 163.5t177.5 59q120 0 208 -84.5t136 -238.5t48 -365q0 -241 -127 -353t-402 -112h-326q-29 0 -29 82q0 81 29 81zM694 585
q-12 194 -74.5 301t-162.5 107q-88 0 -144.5 -80.5t-56.5 -205.5q0 -153 198 -153q99 0 240 31z" />
    <glyph glyph-name="uni06A2.medi" unicode="&#x6a2;" horiz-adv-x="992" 
d="M361 -359l131 131l132 -131l-132 -132zM131 540q0 118 48 203t130.5 131t186.5 46q102 0 184.5 -46t131 -131t48.5 -202q0 -118 -60.5 -201.5t-151.5 -136.5l2 -9q99 -31 220 -31h122v-163h-140q-109 0 -192.5 24t-166.5 70q-81 -46 -165 -70t-194 -24h-134q-30 0 -30 82
q0 81 30 81h113q124 0 230 31l2 9q-91 52 -152.5 135.5t-61.5 201.5zM495 240q94 45 152.5 116t58.5 179q0 101 -59 163.5t-151 62.5q-94 0 -152.5 -62t-58.5 -164q0 -106 58.5 -177.5t151.5 -117.5z" />
    <glyph glyph-name="uni06A2.fina" unicode="&#x6a2;" horiz-adv-x="1943" 
d="M753 -359l131 131l132 -131l-132 -132zM1438 94q-112 -49 -250.5 -71.5t-287.5 -22.5q-242 0 -421 33t-277 124t-98 266q0 85 21.5 177.5t50.5 179.5l139 -47q-23 -70 -42 -148t-19 -146q0 -112 71.5 -171t215 -81t359.5 -24q96 -1 195 7t185 26l2 9q-91 53 -149 135
t-58 200t48 203t130.5 131t186.5 46q102 0 184.5 -46t131 -131t48.5 -202q0 -118 -60.5 -201.5t-151.5 -136.5l2 -9q51 -16 109 -23.5t118 -7.5h122v-163h-140q-111 0 -196 24t-169 70zM1439 243q95 44 153 114.5t58 177.5q0 101 -59 163.5t-151 62.5q-94 0 -152.5 -62
t-58.5 -164q0 -104 59 -175t151 -117z" />
    <glyph glyph-name="uni06A3.init" unicode="&#x6a3;" horiz-adv-x="960" 
d="M328 1547l131 131l132 -131l-132 -132zM332 -359l131 131l132 -131l-132 -132zM0 163h344q203 0 286 64.5t83 216.5q-144 -36 -267 -36q-322 0 -322 279q0 139 42.5 243.5t119 163.5t177.5 59q120 0 208 -84.5t136 -238.5t48 -365q0 -241 -127 -353t-402 -112h-326
q-29 0 -29 82q0 81 29 81zM694 585q-12 194 -74.5 301t-162.5 107q-88 0 -144.5 -80.5t-56.5 -205.5q0 -153 198 -153q99 0 240 31z" />
    <glyph glyph-name="uni06A3.medi" unicode="&#x6a3;" horiz-adv-x="992" 
d="M364 1327l131 131l132 -131l-132 -132zM361 -359l131 131l132 -131l-132 -132zM131 540q0 118 48 203t130.5 131t186.5 46q102 0 184.5 -46t131 -131t48.5 -202q0 -118 -60.5 -201.5t-151.5 -136.5l2 -9q99 -31 220 -31h122v-163h-140q-109 0 -192.5 24t-166.5 70
q-81 -46 -165 -70t-194 -24h-134q-30 0 -30 82q0 81 30 81h113q124 0 230 31l2 9q-91 52 -152.5 135.5t-61.5 201.5zM495 240q94 45 152.5 116t58.5 179q0 101 -59 163.5t-151 62.5q-94 0 -152.5 -62t-58.5 -164q0 -106 58.5 -177.5t151.5 -117.5z" />
    <glyph glyph-name="uni06A3.fina" unicode="&#x6a3;" horiz-adv-x="1943" 
d="M1309 1333l131 131l132 -131l-132 -132zM753 -359l131 131l132 -131l-132 -132zM1438 94q-112 -49 -250.5 -71.5t-287.5 -22.5q-242 0 -421 33t-277 124t-98 266q0 85 21.5 177.5t50.5 179.5l139 -47q-23 -70 -42 -148t-19 -146q0 -112 71.5 -171t215 -81t359.5 -24
q96 -1 195 7t185 26l2 9q-91 53 -149 135t-58 200t48 203t130.5 131t186.5 46q102 0 184.5 -46t131 -131t48.5 -202q0 -118 -60.5 -201.5t-151.5 -136.5l2 -9q51 -16 109 -23.5t118 -7.5h122v-163h-140q-111 0 -196 24t-169 70zM1439 243q95 44 153 114.5t58 177.5
q0 101 -59 163.5t-151 62.5q-94 0 -152.5 -62t-58.5 -164q0 -104 59 -175t151 -117z" />
    <glyph glyph-name="uni06A5.init" unicode="&#x6a5;" horiz-adv-x="960" 
d="M503 -359l131 131l132 -131l-132 -132zM155 -359l131 131l131 -131l-131 -132zM330 -667l131 131l132 -131l-132 -132zM0 163h344q203 0 286 64.5t83 216.5q-144 -36 -267 -36q-322 0 -322 279q0 139 42.5 243.5t119 163.5t177.5 59q120 0 208 -84.5t136 -238.5t48 -365
q0 -241 -127 -353t-402 -112h-326q-29 0 -29 82q0 81 29 81zM694 585q-12 194 -74.5 301t-162.5 107q-88 0 -144.5 -80.5t-56.5 -205.5q0 -153 198 -153q99 0 240 31z" />
    <glyph glyph-name="uni06A5.medi" unicode="&#x6a5;" horiz-adv-x="992" 
d="M534 -359l131 131l132 -131l-132 -132zM186 -359l131 131l131 -131l-131 -132zM361 -667l131 131l132 -131l-132 -132zM131 540q0 118 48 203t130.5 131t186.5 46q102 0 184.5 -46t131 -131t48.5 -202q0 -118 -60.5 -201.5t-151.5 -136.5l2 -9q99 -31 220 -31h122v-163
h-140q-109 0 -192.5 24t-166.5 70q-81 -46 -165 -70t-194 -24h-134q-30 0 -30 82q0 81 30 81h113q124 0 230 31l2 9q-91 52 -152.5 135.5t-61.5 201.5zM495 240q94 45 152.5 116t58.5 179q0 101 -59 163.5t-151 62.5q-94 0 -152.5 -62t-58.5 -164q0 -106 58.5 -177.5
t151.5 -117.5z" />
    <glyph glyph-name="uni06A5.fina" unicode="&#x6a5;" horiz-adv-x="1943" 
d="M925 -359l131 131l132 -131l-132 -132zM577 -359l131 131l131 -131l-131 -132zM752 -667l131 131l132 -131l-132 -132zM1438 94q-112 -49 -250.5 -71.5t-287.5 -22.5q-242 0 -421 33t-277 124t-98 266q0 85 21.5 177.5t50.5 179.5l139 -47q-23 -70 -42 -148t-19 -146
q0 -112 71.5 -171t215 -81t359.5 -24q96 -1 195 7t185 26l2 9q-91 53 -149 135t-58 200t48 203t130.5 131t186.5 46q102 0 184.5 -46t131 -131t48.5 -202q0 -118 -60.5 -201.5t-151.5 -136.5l2 -9q51 -16 109 -23.5t118 -7.5h122v-163h-140q-111 0 -196 24t-169 70z
M1439 243q95 44 153 114.5t58 177.5q0 101 -59 163.5t-151 62.5q-94 0 -152.5 -62t-58.5 -164q0 -104 59 -175t151 -117z" />
    <glyph glyph-name="uni06A7.fina" unicode="&#x6a7;" horiz-adv-x="1506" 
d="M910 1156l131 131l132 -131l-132 -132zM1042 758q98 0 168 -52t115 -138.5t69 -192t31 -212.5h81v-163h-85q-19 -266 -191 -409.5t-477 -143.5q-320 0 -484 135t-164 406q0 144 51 445l153 -31q-25 -139 -36.5 -238.5t-11.5 -168.5q0 -202 126 -293t373 -91
q230 0 366 97.5t153 286.5l-6 9q-59 -1 -119.5 -2.5t-119.5 -1.5q-154 0 -244.5 72t-90.5 231q0 121 39.5 224.5t116 167t187.5 63.5zM1039 593q-70 0 -116 -40.5t-68.5 -102.5t-22.5 -129q0 -93 56.5 -128t151.5 -35q61 0 121 0.5t119 1.5q-3 67 -15.5 142.5t-40 141.5
t-72.5 107.5t-113 41.5z" />
    <glyph glyph-name="uni06A8.fina" unicode="&#x6a8;" horiz-adv-x="1506" 
d="M910 1457l131 132l132 -132l-132 -131zM1084 1150l131 131l132 -131l-132 -132zM736 1150l131 131l131 -131l-131 -132zM1042 758q98 0 168 -52t115 -138.5t69 -192t31 -212.5h81v-163h-85q-19 -266 -191 -409.5t-477 -143.5q-320 0 -484 135t-164 406q0 144 51 445
l153 -31q-25 -139 -36.5 -238.5t-11.5 -168.5q0 -202 126 -293t373 -91q230 0 366 97.5t153 286.5l-6 9q-59 -1 -119.5 -2.5t-119.5 -1.5q-154 0 -244.5 72t-90.5 231q0 121 39.5 224.5t116 167t187.5 63.5zM1039 593q-70 0 -116 -40.5t-68.5 -102.5t-22.5 -129
q0 -93 56.5 -128t151.5 -35q61 0 121 0.5t119 1.5q-3 67 -15.5 142.5t-40 141.5t-72.5 107.5t-113 41.5z" />
    <glyph glyph-name="uni06AA.init" unicode="&#x6aa;" horiz-adv-x="1956" 
d="M849 1245l85 -137q-191 -111 -302.5 -190.5t-165 -139t-72.5 -110.5h956q251 0 377.5 -51.5t126.5 -203.5q0 -115 -70.5 -209t-207.5 -149t-339 -55h-1237q-29 0 -29 82q0 81 29 81h1276q203 0 309.5 68.5t106.5 158.5q0 75 -82 95t-233 20h-1059l-103 141q14 88 78 176
t198.5 190.5t357.5 232.5z" />
    <glyph glyph-name="uni06AA.medi" unicode="&#x6aa;" horiz-adv-x="2188" 
d="M849 1245l85 -137q-191 -111 -302.5 -190.5t-165 -139t-72.5 -110.5h956q250 0 377 -51.5t127 -203.5q0 -79 29 -135t101.5 -85.5t202.5 -29.5h1v-163h-1q-152 0 -257.5 53.5t-149.5 174.5h-10q-59 -106 -194.5 -167t-341.5 -61h-1234q-29 0 -29 82q0 81 29 81h1276
q204 0 310 68.5t106 158.5q0 75 -82 95t-233 20h-1059l-103 141q14 88 78 176t198.5 190.5t357.5 232.5z" />
    <glyph glyph-name="uni06AA.fina" unicode="&#x6aa;" horiz-adv-x="2364" 
d="M1025 1245l83 -137q-191 -111 -301.5 -190.5t-164 -139t-72.5 -110.5h955q251 0 377.5 -51.5t126.5 -203.5q0 -79 29 -135t101.5 -85.5t203.5 -29.5h1v-163h-1q-151 0 -257.5 53.5t-150.5 174.5h-10q-56 -103 -193 -165.5t-343 -62.5h-1305v163h1348q203 0 309 68.5
t106 158.5q0 75 -82 95t-232 20h-1059l-104 141q14 88 78.5 176t199 190.5t357.5 232.5z" />
    <glyph glyph-name="uni06AB.init" unicode="&#x6ab;" horiz-adv-x="836" 
d="M632 1158q80 0 128 -47t48 -127q0 -77 -48.5 -125t-127.5 -48q-77 0 -124.5 47t-47.5 126q0 78 47.5 126t124.5 48zM629 1088q-101 0 -101 -95q0 -97 101 -97q47 0 73.5 25.5t26.5 71.5t-26.5 70.5t-73.5 24.5zM854 1321l26 -162q-226 -55 -389.5 -105t-284.5 -99l-1 -8
q175 -132 282 -231.5t156.5 -183t49.5 -168.5q0 -175 -148.5 -269.5t-423.5 -94.5h-121q-29 0 -29 82q0 81 29 81h118q418 0 418 209q0 62 -52 133.5t-163.5 166t-291.5 223.5l14 158q171 77 377 145.5t434 122.5z" />
    <glyph glyph-name="uni06AB.medi" unicode="&#x6ab;" horiz-adv-x="1131" 
d="M632 1158q80 0 128 -47t48 -127q0 -77 -48.5 -125t-127.5 -48q-77 0 -124.5 47t-47.5 126q0 78 47.5 126t124.5 48zM629 1088q-101 0 -101 -95q0 -97 101 -97q47 0 73.5 25.5t26.5 71.5t-26.5 70.5t-73.5 24.5zM639 330q-9 -173 -136.5 -251.5t-381.5 -78.5h-121
q-29 0 -29 81q0 82 29 82h118q212 0 313.5 54.5t101.5 153.5q0 55 -48.5 126.5t-159 169t-296.5 228.5l14 158q174 78 381 147t430 121l26 -162q-432 -105 -674 -204l-1 -8q141 -105 232 -184t152.5 -150.5t113.5 -156.5q66 -112 122.5 -176t126.5 -90.5t178 -26.5h1v-163
h-1q-187 0 -296.5 75t-184.5 255h-10z" />
    <glyph glyph-name="uni06AB.fina" unicode="&#x6ab;" horiz-adv-x="1968" 
d="M1462 1157q80 0 128 -47t48 -127q0 -77 -48.5 -125t-127.5 -48q-77 0 -124.5 47t-47.5 126q0 78 47.5 126t124.5 48zM1459 1087q-101 0 -101 -95q0 -97 101 -97q47 0 73.5 25.5t26.5 71.5t-26.5 70.5t-73.5 24.5zM1476 329q-7 -169 -175 -249t-515 -80
q-243 0 -392.5 44.5t-218 142.5t-68.5 256q0 128 43 326l144 -34q-39 -177 -39 -279q0 -107 51.5 -171.5t169 -93t314.5 -28.5q580 0 580 212q0 168 -504 520l13 158q175 78 382 147t429 121l26 -162q-428 -104 -674 -204v-8q109 -82 186 -145.5t132.5 -118.5t98 -109.5
t81.5 -119.5q69 -116 127.5 -179.5t128 -87.5t171.5 -24h1v-163h-1q-188 0 -297 74.5t-184 254.5h-10z" />
    <glyph glyph-name="uni06AC.init" unicode="&#x6ac;" horiz-adv-x="836" 
d="M212 1534l120 120l120 -120l-120 -120zM854 1321l26 -162q-226 -55 -389.5 -105t-284.5 -99l-1 -8q175 -132 282 -231.5t156.5 -183t49.5 -168.5q0 -175 -148.5 -269.5t-423.5 -94.5h-121q-29 0 -29 82q0 81 29 81h118q418 0 418 209q0 62 -52 133.5t-163.5 166
t-291.5 223.5l14 158q171 77 377 145.5t434 122.5z" />
    <glyph glyph-name="uni06AC.medi" unicode="&#x6ac;" horiz-adv-x="1131" 
d="M212 1534l120 120l120 -120l-120 -120zM639 330q-9 -173 -136.5 -251.5t-381.5 -78.5h-121q-29 0 -29 81q0 82 29 82h118q212 0 313.5 54.5t101.5 153.5q0 55 -48.5 126.5t-159 169t-296.5 228.5l14 158q174 78 381 147t430 121l26 -162q-432 -105 -674 -204l-1 -8
q141 -105 232 -184t152.5 -150.5t113.5 -156.5q66 -112 122.5 -176t126.5 -90.5t178 -26.5h1v-163h-1q-187 0 -296.5 75t-184.5 255h-10z" />
    <glyph glyph-name="uni06AC.fina" unicode="&#x6ac;" horiz-adv-x="1841" 
d="M683 1348l131 131l132 -131l-132 -132zM685 467q-27 0 -55.5 3t-57.5 7l20 91q24 -5 51.5 -7.5t53.5 -2.5q46 0 91 9t74.5 29t29.5 53q0 32 -32.5 43t-85.5 19q-61 11 -106 35.5t-45 94.5q0 102 68.5 163t165.5 61q56 0 110 -19l-30 -86q-38 13 -82 13q-60 0 -105.5 -29
t-45.5 -83q0 -37 31.5 -49.5t84.5 -21.5q62 -9 108.5 -33.5t46.5 -96.5q0 -96 -85.5 -144.5t-204.5 -48.5zM1503 492q0 -173 81 -251t256 -78h1v-163h-1q-165 0 -271.5 66.5t-135.5 197.5h-10q-40 -144 -191.5 -204t-439.5 -60q-248 0 -399.5 39.5t-220 129.5t-68.5 239
q0 57 10 130.5t26 143.5l141 -31q-14 -61 -23 -128.5t-9 -110.5q0 -95 51.5 -149.5t171.5 -77t325 -22.5q213 0 332.5 29t168 100t48.5 197v831h157v-828z" />
    <glyph glyph-name="uni06AE.init" unicode="&#x6ae;" horiz-adv-x="836" 
d="M558 -359l131 131l132 -131l-132 -132zM210 -359l131 131l131 -131l-131 -132zM385 -667l131 131l132 -131l-132 -132zM854 1321l26 -162q-226 -55 -389.5 -105t-284.5 -99l-1 -8q175 -132 282 -231.5t156.5 -183t49.5 -168.5q0 -175 -148.5 -269.5t-423.5 -94.5h-121
q-29 0 -29 82q0 81 29 81h118q418 0 418 209q0 62 -52 133.5t-163.5 166t-291.5 223.5l14 158q171 77 377 145.5t434 122.5z" />
    <glyph glyph-name="uni06AE.medi" unicode="&#x6ae;" horiz-adv-x="1131" 
d="M558 -359l131 131l132 -131l-132 -132zM210 -359l131 131l131 -131l-131 -132zM385 -667l131 131l132 -131l-132 -132zM639 330q-9 -173 -136.5 -251.5t-381.5 -78.5h-121q-29 0 -29 81q0 82 29 82h118q212 0 313.5 54.5t101.5 153.5q0 55 -48.5 126.5t-159 169
t-296.5 228.5l14 158q174 78 381 147t430 121l26 -162q-432 -105 -674 -204l-1 -8q141 -105 232 -184t152.5 -150.5t113.5 -156.5q66 -112 122.5 -176t126.5 -90.5t178 -26.5h1v-163h-1q-187 0 -296.5 75t-184.5 255h-10z" />
    <glyph glyph-name="uni06AE.fina" unicode="&#x6ae;" horiz-adv-x="1841" 
d="M811 -359l131 131l132 -131l-132 -132zM463 -359l131 131l131 -131l-131 -132zM638 -667l131 131l132 -131l-132 -132zM685 467q-27 0 -55.5 3t-57.5 7l20 91q24 -5 51.5 -7.5t53.5 -2.5q46 0 91 9t74.5 29t29.5 53q0 32 -32.5 43t-85.5 19q-61 11 -106 35.5t-45 94.5
q0 102 68.5 163t165.5 61q56 0 110 -19l-30 -86q-38 13 -82 13q-60 0 -105.5 -29t-45.5 -83q0 -37 31.5 -49.5t84.5 -21.5q62 -9 108.5 -33.5t46.5 -96.5q0 -96 -85.5 -144.5t-204.5 -48.5zM1503 492q0 -173 81 -251t256 -78h1v-163h-1q-165 0 -271.5 66.5t-135.5 197.5h-10
q-40 -144 -191.5 -204t-439.5 -60q-248 0 -399.5 39.5t-220 129.5t-68.5 239q0 57 10 130.5t26 143.5l141 -31q-14 -61 -23 -128.5t-9 -110.5q0 -95 51.5 -149.5t171.5 -77t325 -22.5q213 0 332.5 29t168 100t48.5 197v831h157v-828z" />
    <glyph glyph-name="uni06B0.init" unicode="&#x6b0;" horiz-adv-x="836" 
d="M632 1158q80 0 128 -47t48 -127q0 -77 -48.5 -125t-127.5 -48q-77 0 -124.5 47t-47.5 126q0 78 47.5 126t124.5 48zM629 1088q-101 0 -101 -95q0 -97 101 -97q47 0 73.5 25.5t26.5 71.5t-26.5 70.5t-73.5 24.5zM701 1596l16 -91q-364 -63 -680 -225l-43 83
q324 165 707 233zM854 1321l26 -162q-226 -55 -389.5 -105t-284.5 -99l-1 -8q175 -132 282 -231.5t156.5 -183t49.5 -168.5q0 -175 -148.5 -269.5t-423.5 -94.5h-121q-29 0 -29 82q0 81 29 81h118q418 0 418 209q0 62 -52 133.5t-163.5 166t-291.5 223.5l14 158
q171 77 377 145.5t434 122.5z" />
    <glyph glyph-name="uni06B0.medi" unicode="&#x6b0;" horiz-adv-x="1131" 
d="M632 1158q80 0 128 -47t48 -127q0 -77 -48.5 -125t-127.5 -48q-77 0 -124.5 47t-47.5 126q0 78 47.5 126t124.5 48zM629 1088q-101 0 -101 -95q0 -97 101 -97q47 0 73.5 25.5t26.5 71.5t-26.5 70.5t-73.5 24.5zM701 1596l16 -91q-364 -63 -680 -225l-43 83
q324 165 707 233zM639 330q-9 -173 -136.5 -251.5t-381.5 -78.5h-121q-29 0 -29 81q0 82 29 82h118q212 0 313.5 54.5t101.5 153.5q0 55 -48.5 126.5t-159 169t-296.5 228.5l14 158q174 78 381 147t430 121l26 -162q-432 -105 -674 -204l-1 -8q141 -105 232 -184
t152.5 -150.5t113.5 -156.5q66 -112 122.5 -176t126.5 -90.5t178 -26.5h1v-163h-1q-187 0 -296.5 75t-184.5 255h-10z" />
    <glyph glyph-name="uni06B0.fina" unicode="&#x6b0;" horiz-adv-x="1968" 
d="M1462 1157q80 0 128 -47t48 -127q0 -77 -48.5 -125t-127.5 -48q-77 0 -124.5 47t-47.5 126q0 78 47.5 126t124.5 48zM1459 1087q-101 0 -101 -95q0 -97 101 -97q47 0 73.5 25.5t26.5 71.5t-26.5 70.5t-73.5 24.5zM1524 1596l16 -91q-364 -63 -680 -225l-43 83
q324 165 707 233zM1476 329q-7 -169 -175 -249t-515 -80q-243 0 -392.5 44.5t-218 142.5t-68.5 256q0 128 43 326l144 -34q-39 -177 -39 -279q0 -107 51.5 -171.5t169 -93t314.5 -28.5q580 0 580 212q0 168 -504 520l13 158q175 78 382 147t429 121l26 -162
q-428 -104 -674 -204v-8q109 -82 186 -145.5t132.5 -118.5t98 -109.5t81.5 -119.5q69 -116 127.5 -179.5t128 -87.5t171.5 -24h1v-163h-1q-188 0 -297 74.5t-184 254.5h-10z" />
    <glyph glyph-name="uni06B2.init" unicode="&#x6b2;" horiz-adv-x="836" 
d="M210 -359l131 131l131 -131l-131 -132zM558 -359l131 131l132 -131l-132 -132zM854 1321l26 -162q-226 -55 -389.5 -105t-284.5 -99l-1 -8q175 -132 282 -231.5t156.5 -183t49.5 -168.5q0 -175 -148.5 -269.5t-423.5 -94.5h-121q-29 0 -29 82q0 81 29 81h118
q418 0 418 209q0 62 -52 133.5t-163.5 166t-291.5 223.5l14 158q171 77 377 145.5t434 122.5zM701 1596l16 -91q-364 -63 -680 -225l-43 83q324 165 707 233z" />
    <glyph glyph-name="uni06B2.medi" unicode="&#x6b2;" horiz-adv-x="1131" 
d="M210 -359l131 131l131 -131l-131 -132zM558 -359l131 131l132 -131l-132 -132zM639 330q-9 -173 -136.5 -251.5t-381.5 -78.5h-121q-29 0 -29 81q0 82 29 82h118q212 0 313.5 54.5t101.5 153.5q0 55 -48.5 126.5t-159 169t-296.5 228.5l14 158q174 78 381 147t430 121
l26 -162q-432 -105 -674 -204l-1 -8q141 -105 232 -184t152.5 -150.5t113.5 -156.5q66 -112 122.5 -176t126.5 -90.5t178 -26.5h1v-163h-1q-187 0 -296.5 75t-184.5 255h-10zM701 1596l16 -91q-364 -63 -680 -225l-43 83q324 165 707 233z" />
    <glyph glyph-name="uni06B2.fina" unicode="&#x6b2;" horiz-adv-x="1968" 
d="M478 -359l131 131l131 -131l-131 -132zM826 -359l131 131l132 -131l-132 -132zM1476 329q-7 -169 -175 -249t-515 -80q-243 0 -392.5 44.5t-218 142.5t-68.5 256q0 128 43 326l144 -34q-39 -177 -39 -279q0 -107 51.5 -171.5t169 -93t314.5 -28.5q580 0 580 212
q0 168 -504 520l13 158q175 78 382 147t429 121l26 -162q-428 -104 -674 -204v-8q109 -82 186 -145.5t132.5 -118.5t98 -109.5t81.5 -119.5q69 -116 127.5 -179.5t128 -87.5t171.5 -24h1v-163h-1q-188 0 -297 74.5t-184 254.5h-10zM1524 1596l16 -91q-364 -63 -680 -225
l-43 83q324 165 707 233z" />
    <glyph glyph-name="uni06B4.init" unicode="&#x6b4;" horiz-adv-x="836" 
d="M854 1321l26 -162q-226 -55 -389.5 -105t-284.5 -99l-1 -8q175 -132 282 -231.5t156.5 -183t49.5 -168.5q0 -175 -148.5 -269.5t-423.5 -94.5h-121q-29 0 -29 82q0 81 29 81h118q418 0 418 209q0 62 -52 133.5t-163.5 166t-291.5 223.5l14 158q171 77 377 145.5
t434 122.5zM701 1596l16 -91q-364 -63 -680 -225l-43 83q324 165 707 233zM290 1822l120 120l120 -120l-120 -120zM-28 1730l120 120l120 -120l-120 -120zM66 2040l120 120l120 -120l-120 -120z" />
    <glyph glyph-name="uni06B4.medi" unicode="&#x6b4;" horiz-adv-x="1131" 
d="M639 330q-9 -173 -136.5 -251.5t-381.5 -78.5h-121q-29 0 -29 81q0 82 29 82h118q212 0 313.5 54.5t101.5 153.5q0 55 -48.5 126.5t-159 169t-296.5 228.5l14 158q174 78 381 147t430 121l26 -162q-432 -105 -674 -204l-1 -8q141 -105 232 -184t152.5 -150.5
t113.5 -156.5q66 -112 122.5 -176t126.5 -90.5t178 -26.5h1v-163h-1q-187 0 -296.5 75t-184.5 255h-10zM701 1596l16 -91q-364 -63 -680 -225l-43 83q324 165 707 233zM290 1822l120 120l120 -120l-120 -120zM-28 1730l120 120l120 -120l-120 -120zM66 2040l120 120
l120 -120l-120 -120z" />
    <glyph glyph-name="uni06B4.fina" unicode="&#x6b4;" horiz-adv-x="1968" 
d="M897 2040l120 120l120 -120l-120 -120zM1121 1822l120 120l120 -120l-120 -120zM803 1730l120 120l120 -120l-120 -120zM1476 329q-7 -169 -175 -249t-515 -80q-243 0 -392.5 44.5t-218 142.5t-68.5 256q0 128 43 326l144 -34q-39 -177 -39 -279q0 -107 51.5 -171.5
t169 -93t314.5 -28.5q580 0 580 212q0 168 -504 520l13 158q175 78 382 147t429 121l26 -162q-428 -104 -674 -204v-8q109 -82 186 -145.5t132.5 -118.5t98 -109.5t81.5 -119.5q69 -116 127.5 -179.5t128 -87.5t171.5 -24h1v-163h-1q-188 0 -297 74.5t-184 254.5h-10z
M1524 1596l16 -91q-364 -63 -680 -225l-43 83q324 165 707 233z" />
    <glyph glyph-name="uni06B5.init" unicode="&#x6b5;" horiz-adv-x="593" 
d="M389 1593h-74l-212 269l70 56l179 -231l179 231l70 -56zM0 163q111 0 170 29.5t81 91.5t22 160v878h157v-878q0 -218 -102 -331t-328 -113q-15 0 -22.5 18.5t-7.5 63.5q0 44 7.5 62.5t22.5 18.5z" />
    <glyph glyph-name="uni06B5.medi" unicode="&#x6b5;" horiz-adv-x="703" 
d="M389 1593h-74l-212 269l70 56l179 -231l179 231l70 -56zM346 240q-22 -112 -112.5 -176t-233.5 -64q-15 0 -22 18.5t-7 63.5q0 44 7 62.5t22 18.5q120 0 178 34t76.5 99.5t18.5 160.5v865h156v-856q0 -95 19.5 -163t78 -104t175.5 -36h1v-163h-1q-144 0 -234.5 64
t-111.5 176h-10z" />
    <glyph glyph-name="uni06B5.fina" unicode="&#x6b5;" horiz-adv-x="1531" 
d="M1171 1593h-74l-212 269l70 56l179 -231l179 231l70 -56zM1531 163v-163h-5q-103 0 -184.5 43t-116.5 123l-10 -2v-111q0 -278 -152.5 -420.5t-433.5 -142.5q-249 0 -387 131t-138 372q0 86 18.5 187.5t59.5 228.5l141 -42q-35 -106 -52 -199t-17 -166q0 -349 394 -349
q210 0 310 106.5t100 329.5v1233h157v-831q0 -102 26.5 -175.5t93 -113t186.5 -39.5h10z" />
    <glyph glyph-name="uni06B6.init" unicode="&#x6b6;" horiz-adv-x="593" 
d="M211 1714l131 131l132 -131l-132 -132zM0 163q111 0 170 29.5t81 91.5t22 160v878h157v-878q0 -218 -102 -331t-328 -113q-15 0 -22.5 18.5t-7.5 63.5q0 44 7.5 62.5t22.5 18.5z" />
    <glyph glyph-name="uni06B6.medi" unicode="&#x6b6;" horiz-adv-x="703" 
d="M211 1714l131 131l132 -131l-132 -132zM346 240q-22 -112 -112.5 -176t-233.5 -64q-15 0 -22 18.5t-7 63.5q0 44 7 62.5t22 18.5q120 0 178 34t76.5 99.5t18.5 160.5v865h156v-856q0 -95 19.5 -163t78 -104t175.5 -36h1v-163h-1q-144 0 -234.5 64t-111.5 176h-10z" />
    <glyph glyph-name="uni06B6.fina" unicode="&#x6b6;" horiz-adv-x="1531" 
d="M1002 1714l131 131l132 -131l-132 -132zM1531 163v-163h-5q-103 0 -184.5 43t-116.5 123l-10 -2v-111q0 -278 -152.5 -420.5t-433.5 -142.5q-249 0 -387 131t-138 372q0 86 18.5 187.5t59.5 228.5l141 -42q-35 -106 -52 -199t-17 -166q0 -349 394 -349q210 0 310 106.5
t100 329.5v1233h157v-831q0 -102 26.5 -175.5t93 -113t186.5 -39.5h10z" />
    <glyph glyph-name="uni06B7.init" unicode="&#x6b7;" horiz-adv-x="593" 
d="M212 1998l131 132l132 -132l-132 -131zM386 1691l131 131l132 -131l-132 -132zM38 1691l131 131l131 -131l-131 -132zM0 163q111 0 170 29.5t81 91.5t22 160v878h157v-878q0 -218 -102 -331t-328 -113q-15 0 -22.5 18.5t-7.5 63.5q0 44 7.5 62.5t22.5 18.5z" />
    <glyph glyph-name="uni06B7.medi" unicode="&#x6b7;" horiz-adv-x="703" 
d="M212 1998l131 132l132 -132l-132 -131zM386 1691l131 131l132 -131l-132 -132zM38 1691l131 131l131 -131l-131 -132zM346 240q-22 -112 -112.5 -176t-233.5 -64q-15 0 -22 18.5t-7 63.5q0 44 7 62.5t22 18.5q120 0 178 34t76.5 99.5t18.5 160.5v865h156v-856
q0 -95 19.5 -163t78 -104t175.5 -36h1v-163h-1q-144 0 -234.5 64t-111.5 176h-10z" />
    <glyph glyph-name="uni06B7.fina" unicode="&#x6b7;" horiz-adv-x="1531" 
d="M1001 1998l131 132l132 -132l-132 -131zM1175 1691l131 131l132 -131l-132 -132zM827 1691l131 131l131 -131l-131 -132zM1531 163v-163h-5q-103 0 -184.5 43t-116.5 123l-10 -2v-111q0 -278 -152.5 -420.5t-433.5 -142.5q-249 0 -387 131t-138 372q0 86 18.5 187.5
t59.5 228.5l141 -42q-35 -106 -52 -199t-17 -166q0 -349 394 -349q210 0 310 106.5t100 329.5v1233h157v-831q0 -102 26.5 -175.5t93 -113t186.5 -39.5h10z" />
    <glyph glyph-name="uni06B8.init" unicode="&#x6b8;" horiz-adv-x="593" 
d="M183 -359l131 131l132 -131l-132 -132zM-165 -359l131 131l131 -131l-131 -132zM10 -667l131 131l132 -131l-132 -132zM0 163q111 0 170 29.5t81 91.5t22 160v878h157v-878q0 -218 -102 -331t-328 -113q-15 0 -22.5 18.5t-7.5 63.5q0 44 7.5 62.5t22.5 18.5z" />
    <glyph glyph-name="uni06B8.medi" unicode="&#x6b8;" horiz-adv-x="703" 
d="M183 -359l131 131l132 -131l-132 -132zM-165 -359l131 131l131 -131l-131 -132zM10 -667l131 131l132 -131l-132 -132zM346 240q-22 -112 -112.5 -176t-233.5 -64q-15 0 -22 18.5t-7 63.5q0 44 7 62.5t22 18.5q120 0 178 34t76.5 99.5t18.5 160.5v865h156v-856
q0 -95 19.5 -163t78 -104t175.5 -36h1v-163h-1q-144 0 -234.5 64t-111.5 176h-10z" />
    <glyph glyph-name="uni06B8.fina" unicode="&#x6b8;" horiz-adv-x="1531" 
d="M675 -792l131 131l132 -131l-132 -132zM327 -792l131 131l131 -131l-131 -132zM502 -1100l131 131l132 -131l-132 -132zM1531 163v-163h-5q-103 0 -184.5 43t-116.5 123l-10 -2v-111q0 -278 -152.5 -420.5t-433.5 -142.5q-249 0 -387 131t-138 372q0 86 18.5 187.5
t59.5 228.5l141 -42q-35 -106 -52 -199t-17 -166q0 -349 394 -349q210 0 310 106.5t100 329.5v1233h157v-831q0 -102 26.5 -175.5t93 -113t186.5 -39.5h10z" />
    <glyph glyph-name="uni06B9.init" unicode="&#x6b9;" horiz-adv-x="584" 
d="M12 -359l131 131l132 -131l-132 -132zM421 766q27 -106 43.5 -200.5t16.5 -170.5q0 -191 -102.5 -293t-327.5 -102h-51q-29 0 -29 82q0 81 29 81h51q151 0 215 61t64 179q0 60 -15.5 142.5t-39.5 180.5zM105 1143l131 131l132 -131l-132 -132z" />
    <glyph glyph-name="uni06B9.medi" unicode="&#x6b9;" horiz-adv-x="842" 
d="M12 -359l131 131l132 -131l-132 -132zM501 475q0 -102 20 -171.5t78 -105t170 -35.5h73v-163h-77q-127 0 -218 61.5t-121 175.5h-10q-29 -115 -132 -176t-233 -61h-51q-29 0 -29 82q0 81 29 81h51q123 0 186 36t85 105.5t22 170.5v135h157v-135zM186 991l131 131
l132 -131l-132 -132z" />
    <glyph glyph-name="uni06B9.fina" unicode="&#x6b9;" horiz-adv-x="1686" 
d="M633 -845l131 131l132 -131l-132 -132zM634 379l131 131l132 -131l-132 -132zM168 540l149 -33q-31 -154 -43 -247t-12 -159q0 -232 128 -328.5t372 -96.5q521 0 521 377q0 83 -36 201t-114 308l142 69l73 -186q44 -110 84 -171.5t97 -86t150 -24.5h7v-163h-2
q-167 0 -262 121l-9 -3q32 -300 -142 -452t-506 -152q-313 0 -484.5 137.5t-171.5 441.5q0 83 14 189.5t45 257.5z" />
    <glyph glyph-name="uni06BC.init" unicode="&#x6bc;" horiz-adv-x="584" 
d="M0 69q80 0 127 -47t47 -127q0 -77 -47.5 -125t-126.5 -48q-77 0 -125.5 47t-48.5 126q0 78 49 126t125 48zM0 0q-100 0 -100 -95q0 -97 100 -97q47 0 73.5 25.5t26.5 71.5q0 95 -100 95zM421 766q27 -106 43.5 -200.5t16.5 -170.5q0 -191 -102.5 -293t-327.5 -102h-51
q-29 0 -29 82q0 81 29 81h51q151 0 215 61t64 179q0 60 -15.5 142.5t-39.5 180.5zM105 1143l131 131l132 -131l-132 -132z" />
    <glyph glyph-name="uni06BC.medi" unicode="&#x6bc;" horiz-adv-x="842" 
d="M0 69q80 0 127 -47t47 -127q0 -77 -47.5 -125t-126.5 -48q-77 0 -125.5 47t-48.5 126q0 78 49 126t125 48zM0 0q-100 0 -100 -95q0 -97 100 -97q47 0 73.5 25.5t26.5 71.5q0 95 -100 95zM501 475q0 -102 20 -171.5t78 -105t170 -35.5h73v-163h-77q-127 0 -218 61.5
t-121 175.5h-10q-29 -115 -132 -176t-233 -61h-51q-29 0 -29 82q0 81 29 81h51q123 0 186 36t85 105.5t22 170.5v135h157v-135zM186 991l131 131l132 -131l-132 -132z" />
    <glyph glyph-name="uni06BC.fina" unicode="&#x6bc;" horiz-adv-x="1686" 
d="M764 -424q80 0 127 -47t47 -127q0 -77 -47.5 -125t-126.5 -48q-77 0 -125.5 47t-48.5 126q0 78 49 126t125 48zM764 -493q-100 0 -100 -95q0 -97 100 -97q47 0 73.5 25.5t26.5 71.5q0 95 -100 95zM634 379l131 131l132 -131l-132 -132zM168 540l149 -33
q-31 -154 -43 -247t-12 -159q0 -232 128 -328.5t372 -96.5q521 0 521 377q0 83 -36 201t-114 308l142 69l73 -186q44 -110 84 -171.5t97 -86t150 -24.5h7v-163h-2q-167 0 -262 121l-9 -3q32 -300 -142 -452t-506 -152q-313 0 -484.5 137.5t-171.5 441.5q0 83 14 189.5
t45 257.5z" />
    <glyph glyph-name="uni06BD.fina" unicode="&#x6bd;" horiz-adv-x="1686" 
d="M871 394l-104 -103l-102 103l102 103zM718 154l-106 -106l-106 106l106 106zM1028 153l-106 -106l-105 106l105 106zM168 540l149 -33q-31 -154 -43 -247t-12 -159q0 -232 128 -328.5t372 -96.5q521 0 521 377q0 83 -36 201t-114 308l142 69l73 -186q44 -110 84 -171.5
t97 -86t150 -24.5h7v-163h-2q-167 0 -262 121l-9 -3q32 -300 -142 -452t-506 -152q-313 0 -484.5 137.5t-171.5 441.5q0 83 14 189.5t45 257.5z" />
    <glyph glyph-name="uni06BF.init" unicode="&#x6bf;" horiz-adv-x="1265" 
d="M458 1229l131 131l132 -131l-132 -132zM580 -305l131 131l132 -131l-132 -132zM232 -305l131 131l131 -131l-131 -132zM407 -613l131 131l132 -131l-132 -132zM417 839q50 0 121 -22.5t210 -82.5q133 -58 226.5 -91t187.5 -57v-141l-492 -278q-157 -89 -290 -128
t-282 -39h-98q-29 0 -29 82q0 81 29 81h125q82 0 154.5 13t150.5 42.5t175 78.5l360 189v10q-62 17 -133 42.5t-164 65.5q-103 42 -160 59.5t-92 17.5q-67 0 -111.5 -43.5t-84.5 -146.5l-7 -18l-118 38l7 18q56 165 130 237.5t185 72.5z" />
    <glyph glyph-name="uni06BF.medi" unicode="&#x6bf;" horiz-adv-x="1313" 
d="M458 1229l131 131l132 -131l-132 -132zM580 -305l131 131l132 -131l-132 -132zM232 -305l131 131l131 -131l-131 -132zM407 -613l131 131l132 -131l-132 -132zM417 839q50 0 121.5 -21.5t209.5 -83.5q133 -58 226.5 -91t187.5 -57v-141l-235 -127v-10q71 -83 149.5 -114
t168.5 -31h68v-163h-71q-123 0 -230 55.5t-199 191.5l-143 -80q-157 -89 -290 -128t-282 -39h-98q-29 0 -29 82q0 81 29 81h125q82 0 154.5 12.5t150.5 42t175 79.5l360 189v10q-62 17 -133 43t-164 65q-103 42 -160 59.5t-92 17.5q-67 0 -111 -43.5t-85 -146.5l-7 -18
l-118 38l7 18q56 165 130 237.5t185 72.5z" />
    <glyph glyph-name="uni06BF.fina" unicode="&#x6bf;" horiz-adv-x="1372" 
d="M561 1251l131 131l132 -131l-132 -132zM480 -90l106 106l106 -106l-106 -106zM791 -91l106 106l105 -106l-105 -106zM638 -331l103 103l102 -103l-102 -103zM458 856q55 0 130 -23t199 -79q150 -67 246 -103t181 -57l-16 -184q-63 -7 -110.5 -15.5t-85.5 -17.5v-10
q49 -108 123 -156t188 -48h59v-163h-45q-162 0 -266.5 84.5t-160.5 260.5q-190 -46 -336.5 -131t-229 -193.5t-82.5 -225.5q0 -152 139.5 -243t374.5 -91q250 0 452 91l72 -142q-259 -117 -525 -117q-201 0 -350.5 60.5t-232.5 170t-83 256.5q0 170 114.5 317t320 253
t478.5 152v10q-59 15 -129.5 40t-172.5 68q-104 43 -160.5 60.5t-91.5 17.5q-67 0 -111.5 -43.5t-84.5 -146.5l-7 -18l-117 37l6 19q55 164 128.5 237t185.5 73z" />
    <glyph glyph-name="uni06C1.init" unicode="&#x6c1;" horiz-adv-x="1283" arabic-form="initial" 
d="M501 475q0 -166 59 -239t199 -73t205 58t65 182q0 50 -13 126.5t-42 196.5l146 40q60 -236 60 -371q0 -395 -414 -395q-137 0 -224 62.5t-116 174.5h-10q-28 -108 -127.5 -172.5t-237.5 -64.5h-51q-29 0 -29 82q0 81 29 81h51q164 0 228.5 69t64.5 243v135h157v-135z
M778 -518l12 -3q32 27 69 27q39 0 70 -33t31 -86q0 -62 -34.5 -98t-93.5 -36q-70 0 -108.5 52t-38.5 146q0 197 187 338l58 -72q-76 -52 -111.5 -107.5t-40.5 -127.5z" />
    <glyph glyph-name="uni06C4.fina" unicode="&#x6c4;" horiz-adv-x="932" 
d="M281 -57q73 0 117 -43.5t44 -117.5q0 -73 -44 -118.5t-117 -45.5q-74 0 -119.5 44.5t-45.5 119.5q0 73 46 117t119 44zM284 -132q-101 0 -101 -95q0 -46 27.5 -71.5t73.5 -25.5q47 0 73.5 25.5t26.5 71.5t-26.5 70.5t-73.5 24.5zM705 -5l-7 9q-61 -2 -120.5 -3t-118.5 -1
q-154 0 -244.5 73t-90.5 230q0 115 37.5 219t114 170t192.5 66q100 0 170 -53t114.5 -141t67.5 -192.5t30 -208.5h82v-163h-87q-22 -193 -204.5 -324.5t-490.5 -212.5l-63 150q266 61 428 158.5t190 223.5zM705 160q-3 67 -15.5 142.5t-40 141.5t-72.5 107.5t-113 41.5
q-70 0 -115.5 -40t-68 -102t-22.5 -129q0 -93 56 -128.5t151 -35.5q59 0 119 0.5t121 1.5z" />
    <glyph glyph-name="uni06CA.fina" unicode="&#x6ca;" horiz-adv-x="932" 
d="M166 1144l131 131l131 -131l-131 -132zM514 1144l131 131l132 -131l-132 -132zM705 -5l-7 9q-61 -2 -120.5 -3t-118.5 -1q-154 0 -244.5 73t-90.5 230q0 115 37.5 219t114 170t192.5 66q100 0 170 -53t114.5 -141t67.5 -192.5t30 -208.5h82v-163h-87
q-22 -193 -204.5 -324.5t-490.5 -212.5l-63 150q266 61 428 158.5t190 223.5zM705 160q-3 67 -15.5 142.5t-40 141.5t-72.5 107.5t-113 41.5q-70 0 -115.5 -40t-68 -102t-22.5 -129q0 -93 56 -128.5t151 -35.5q59 0 119 0.5t121 1.5z" />
    <glyph glyph-name="uni06CD.fina" unicode="&#x6cd;" horiz-adv-x="1807" 
d="M1489 -10q128 -49 179 -99.5t51 -127.5q0 -97 -83.5 -174t-227.5 -122t-327 -45q-317 0 -468.5 129t-151.5 399q0 73 8.5 169.5t23.5 210.5q-81 -26 -180 -60.5t-167 -62.5l-49 133q165 62 261 91t158 29q37 0 70 -11t70 -34q-22 -142 -34.5 -259t-12.5 -195
q0 -199 110.5 -287t360.5 -88q142 0 249 26t167.5 72t60.5 106q0 42 -39 72t-139 59.5t-285 67.5l23 174h702v-163h-330v-10z" />
    <glyph glyph-name="uni06CE.init" unicode="&#x6ce;" horiz-adv-x="584" 
d="M339 1041h-74l-212 269l70 56l179 -231l179 231l70 -56zM421 766q27 -106 43.5 -200.5t16.5 -170.5q0 -191 -102.5 -293t-327.5 -102h-51q-29 0 -29 82q0 81 29 81h51q151 0 215 61t64 179q0 60 -15.5 142.5t-39.5 180.5zM-172 -359l131 131l131 -131l-131 -132z
M176 -359l131 131l132 -131l-132 -132z" />
    <glyph glyph-name="uni06CE.medi" unicode="&#x6ce;" horiz-adv-x="842" 
d="M458 846h-74l-212 269l70 56l179 -231l179 231l70 -56zM501 475q0 -102 20 -171.5t78 -105t170 -35.5h73v-163h-77q-127 0 -218 61.5t-121 175.5h-10q-29 -115 -132 -176t-233 -61h-51q-29 0 -29 82q0 81 29 81h51q123 0 186 36t85 105.5t22 170.5v135h157v-135z
M-203 -359l131 131l131 -131l-131 -132zM145 -359l131 131l132 -131l-132 -132z" />
    <glyph glyph-name="uni06CE.fina" unicode="&#x6ce;" horiz-adv-x="1463" 
d="M910 497h-74l-212 269l70 56l179 -231l179 231l70 -56zM1133 -10q128 -49 179 -99.5t51 -127.5q0 -97 -83.5 -174t-227.5 -122t-327 -45q-317 0 -468.5 129t-151.5 399q0 91 13 217.5t36 276.5l146 -29q-22 -142 -34.5 -259t-12.5 -195q0 -199 110.5 -287t360.5 -88
q142 0 249 26t167.5 72t60.5 106q0 42 -39 72t-139 59.5t-285 67.5l23 174h702v-163h-330v-10z" />
    <glyph glyph-name="uni06CF.fina" unicode="&#x6cf;" horiz-adv-x="932" 
d="M341 1158l131 131l132 -131l-132 -132zM705 -5l-7 9q-61 -2 -120.5 -3t-118.5 -1q-154 0 -244.5 73t-90.5 230q0 115 37.5 219t114 170t192.5 66q100 0 170 -53t114.5 -141t67.5 -192.5t30 -208.5h82v-163h-87q-22 -193 -204.5 -324.5t-490.5 -212.5l-63 150
q266 61 428 158.5t190 223.5zM705 160q-3 67 -15.5 142.5t-40 141.5t-72.5 107.5t-113 41.5q-70 0 -115.5 -40t-68 -102t-22.5 -129q0 -93 56 -128.5t151 -35.5q59 0 119 0.5t121 1.5z" />
    <glyph glyph-name="uni06D1.fina" unicode="&#x6d1;" horiz-adv-x="1463" 
d="M435 -879l131 131l131 -131l-131 -132zM783 -879l131 131l132 -131l-132 -132zM616 -1144l125 125l125 -125l-125 -125zM1133 -10q128 -49 179 -99.5t51 -127.5q0 -97 -83.5 -174t-227.5 -122t-327 -45q-317 0 -468.5 129t-151.5 399q0 91 13 217.5t36 276.5l146 -29
q-22 -142 -34.5 -259t-12.5 -195q0 -199 110.5 -287t360.5 -88q142 0 249 26t167.5 72t60.5 106q0 42 -39 72t-139 59.5t-285 67.5l23 174h702v-163h-330v-10z" />
    <glyph glyph-name="uni06EE.fina" unicode="&#x6ee;" horiz-adv-x="1284" 
d="M592 1562h74l212 -269l-70 -56l-179 231l-179 -231l-70 56zM715 992l271 -630q51 -119 113.5 -159t168.5 -40h16v-163h-16q-132 0 -224.5 51.5t-139.5 172.5h-10q-49 -112 -162.5 -173t-249.5 -61q-98 0 -196.5 35t-184.5 107l78 130q71 -55 150 -81.5t152 -26.5
q104 0 196 45.5t149 132.5l-261 589z" />
    <glyph glyph-name="uni06EF.fina" unicode="&#x6ef;" horiz-adv-x="765" 
d="M257 1254h74l212 -269l-70 -56l-179 231l-179 -231l-70 56zM206 584l147 52l64 -197q33 -101 74.5 -162t105.5 -87.5t166 -26.5h2v-163h-2q-99 0 -177.5 35.5t-122.5 99.5l-10 -3q16 -167 -42 -289.5t-190.5 -215t-341.5 -168.5l-68 148q272 97 389.5 206t117.5 266
q0 89 -29.5 220t-82.5 285z" />
    <glyph glyph-name="uni06FA.init" unicode="&#x6fa;" horiz-adv-x="1663" 
d="M824 1270l131 132l132 -132l-132 -131zM998 963l131 131l132 -131l-132 -132zM650 963l131 131l131 -131l-131 -132zM700 163q92 0 137 55t57 173l16 179l142 -12l-14 -169q-10 -114 40.5 -170t147.5 -56q179 0 179 209q0 32 -4.5 82t-11 102t-14.5 90l152 37
q14 -65 23.5 -153t9.5 -156q0 -374 -312 -374q-119 0 -187 56t-89 152h-10q-51 -208 -270 -208q-120 0 -187.5 60.5t-86.5 171.5h-10q-33 -104 -127.5 -168t-229.5 -64h-51q-29 0 -29 83q0 80 29 80h51q148 0 218 72t88 233l15 149l157 -12l-19 -198q-13 -116 36.5 -180
t153.5 -64zM833 -359l131 131l132 -131l-132 -132z" />
    <glyph glyph-name="uni06FA.medi" unicode="&#x6fa;" horiz-adv-x="1890" 
d="M824 1270l131 132l132 -132l-132 -131zM998 963l131 131l132 -131l-132 -132zM650 963l131 131l131 -131l-131 -132zM1503 260q-16 -130 -80 -195t-183 -65q-117 0 -182 56t-86 152h-10q-53 -208 -270 -208q-121 0 -188 60.5t-86 171.5h-10q-33 -104 -127.5 -168
t-229.5 -64h-51q-29 0 -29 83q0 80 29 80h51q148 0 217.5 72t88.5 233l15 149l157 -12l-19 -198q-13 -116 36.5 -180t153.5 -64q92 0 137 54.5t57 173.5l16 179l142 -12l-14 -169q-10 -115 39.5 -170.5t143.5 -55.5q179 0 179 206q0 43 -9 113.5t-24 145.5l152 31l25 -167
q19 -123 58 -195t108.5 -103t177.5 -31h2v-163h-2q-163 0 -256 68.5t-119 191.5h-10zM833 -359l131 131l132 -131l-132 -132z" />
    <glyph glyph-name="uni06FA.fina" unicode="&#x6fa;" horiz-adv-x="2754" 
d="M1672 1270l131 132l132 -132l-132 -131zM1846 963l131 131l132 -131l-132 -132zM1498 963l131 131l131 -131l-131 -132zM2367 260q-30 -260 -257 -260q-109 0 -179.5 52.5t-93.5 155.5h-10q-25 -102 -91 -155t-163 -53q-115 0 -184 78l-6 -5q8 -190 -71 -314t-224.5 -184
t-337.5 -60q-307 0 -474 137.5t-167 440.5q0 83 14 190t45 257l149 -33q-31 -155 -43 -247.5t-12 -158.5q0 -231 123.5 -327t360.5 -96t370 84.5t133 286.5q0 91 -33 206.5t-114 305.5l146 69l114 -311q28 -76 77 -116t133 -40q89 0 135 54t57 176l15 177l140 -12l-13 -169
q-10 -116 40.5 -171t147.5 -55q171 0 171 206q0 44 -9.5 114.5t-23.5 144.5l151 31l27 -167q20 -124 58.5 -196t107 -102.5t177.5 -30.5h1v-163h-1q-318 0 -376 260h-10zM1694 -359l131 131l132 -131l-132 -132z" />
    <glyph glyph-name="uni06FB.init" unicode="&#x6fb;" horiz-adv-x="1627" 
d="M831 -359l131 131l132 -131l-132 -132zM1043 1149l131 131l132 -131l-132 -132zM383 241q-31 -119 -131 -180t-244 -61h-8q-29 0 -29 82q0 81 29 81h8q119 0 178.5 36.5t79.5 104t20 159.5v157h157v-136q2 -110 27.5 -154t68.5 -71q188 276 347.5 388t295.5 112
q106 0 183 -48t118.5 -129.5t41.5 -184.5q0 -142 -81 -229.5t-216 -127.5t-296 -40q-219 0 -353.5 57t-186.5 184h-9zM1166 598q-100 0 -228 -85.5t-280 -309.5q57 -22 129 -31t154 -9q110 0 209.5 18.5t163 69.5t63.5 148q0 87 -56.5 143t-154.5 56z" />
    <glyph glyph-name="uni06FB.medi" unicode="&#x6fb;" horiz-adv-x="1695" 
d="M831 -359l131 131l132 -131l-132 -132zM1043 1149l131 131l132 -131l-132 -132zM286 620h157v-136q2 -110 27.5 -154t68.5 -71q188 276 347.5 388t295.5 112q106 0 183 -48t118.5 -129.5t41.5 -184.5q0 -55 -15 -99.5t-42 -79.5q79 -55 226 -55h1v-163h-1
q-205 0 -315 109q-81 -59 -198 -84t-249 -25q-218 0 -353 57t-187 184h-9q-31 -119 -131 -180t-244 -61h-8q-29 0 -29 82q0 81 29 81h8q119 0 178.5 36.5t79.5 104t20 159.5v157zM1166 598q-100 0 -228 -85.5t-280 -309.5q57 -22 129 -31t154 -9q110 0 209.5 18.5t163 69.5
t63.5 148q0 87 -56.5 143t-154.5 56z" />
    <glyph glyph-name="uni06FB.fina" unicode="&#x6fb;" horiz-adv-x="2517" 
d="M1723 -359l131 131l132 -131l-132 -132zM2006 759q152 0 246.5 -100.5t94.5 -261.5q0 -106 -59 -177q81 -57 228 -57h1v-163h-1q-199 0 -311 109q-149 -109 -442 -109q-241 0 -391 79q-2 -272 -166.5 -418t-469.5 -146q-627 0 -627 578q0 162 59 447l149 -33
q-30 -150 -42.5 -244t-12.5 -162q0 -219 113.5 -321t356.5 -102q248 0 368.5 98t120.5 299q0 86 -31.5 196t-108.5 291l146 69q53 -124 83 -215.5t44 -168.5q163 249 329.5 380.5t322.5 131.5zM1988 598q-118 0 -247.5 -101t-260.5 -294q101 -40 282 -40q437 0 437 236
q0 89 -58 144t-153 55zM1873 1149l131 131l132 -131l-132 -132z" />
    <glyph glyph-name="uni06FC.init" unicode="&#x6fc;" horiz-adv-x="1091" 
d="M442 -359l131 131l132 -131l-132 -132zM426 1326l131 131l132 -131l-132 -132zM281 453q0 -115 83 -176t240 -61q41 0 98 5t133 15l111 16l19 -160l-185 -23q-144 -21 -283 -36.5t-257 -24t-199 -8.5h-41q-29 0 -29 82q0 81 29 81h36q142 0 272 12v13q-84 32 -131.5 105
t-47.5 174q0 119 56.5 213.5t155 149t222.5 54.5q183 0 324 -116l-75 -122q-121 78 -248 78q-123 0 -203 -76.5t-80 -194.5z" />
    <glyph glyph-name="uni06FC.medi" unicode="&#x6fc;" horiz-adv-x="1186" 
d="M492 -359l131 131l132 -131l-132 -132zM493 1277l131 131l132 -131l-132 -132zM615 866q106 0 198 -33t148.5 -99t56.5 -166q0 -97 -71.5 -177.5t-183.5 -148.5v-10q59 -51 123.5 -60t136.5 -9h163v-163h-184q-111 0 -197 25t-177 116q-100 -64 -214 -102.5t-256 -38.5
h-158q-29 0 -29 82q0 81 29 81h147q110 0 198.5 21.5t161.5 54.5v10l-361 340v118q103 75 217.5 117t251.5 42zM625 707q-175 0 -311 -80v-5l321 -325q109 60 174.5 125.5t65.5 135.5q0 54 -38 87t-95.5 47.5t-116.5 14.5z" />
    <glyph glyph-name="uni06FC.fina" unicode="&#x6fc;" horiz-adv-x="1202" 
d="M573 -252l131 131l132 -131l-132 -132zM527 1282l131 131l132 -131l-132 -132zM1053 568q0 -172 -254 -324v-10q45 -40 101.5 -55.5t150.5 -15.5h151v-163h-140q-134 0 -220.5 32t-172.5 113q-209 -105 -309 -206.5t-100 -232.5q0 -137 133.5 -216.5t363.5 -79.5
q161 0 339 38l35 -160q-208 -46 -378 -46q-195 0 -340 55.5t-225 155.5t-80 235q0 314 447 540v10l-374 351v118q221 159 469 159q182 0 292.5 -82t110.5 -216zM909 558q0 67 -68.5 108t-181.5 41q-176 0 -310 -80v-5l321 -325q239 131 239 261z" />
    <glyph glyph-name="uni06FF.init" unicode="&#x6ff;" horiz-adv-x="1362" 
d="M756 1541h74l212 -269l-70 -56l-179 231l-179 -231l-70 56zM0 163h50q83 0 145.5 9t126.5 31q-193 137 -193 301q0 104 61 188.5t163 112.5l1 10l-174 75l64 143l518 -223q182 -76 290.5 -148.5t156 -154t47.5 -185.5q0 -155 -98 -244t-270 -89q-201 0 -411 111
q-98 -52 -194 -76t-216 -24h-67q-29 0 -29 82q0 81 29 81zM482 242q95 48 148 117t53 146q0 109 -51.5 169.5t-142.5 60.5q-60 0 -111 -32t-81.5 -84.5t-30.5 -116.5q0 -70 56.5 -138.5t159.5 -121.5zM630 207q68 -25 138 -40t130 -15q224 0 224 177q0 93 -78 163t-270 149
q50 -133 12.5 -244.5t-156.5 -189.5z" />
    <glyph glyph-name="uni06FF.medi" unicode="&#x6ff;" horiz-adv-x="1012" 
d="M459 1377h74l212 -269l-70 -56l-179 231l-179 -231l-70 56zM517 830q125 0 207 -89t82 -231q0 -121 -66 -223t-185 -171.5t-279 -94.5q22 -106 82.5 -211t156.5 -184h5q78 167 135.5 272t105 163t97 80t110.5 22h44v-163h-44q-46 0 -85.5 -22.5t-81 -79.5t-92 -161
t-119.5 -266h-124q-134 112 -213 249.5t-105 279.5h-148q-29 0 -29 82q0 81 29 81h134q-11 223 38 371t140 222t205 74zM262 170q184 11 297 101t113 224q0 81 -44 131t-111 50q-118 0 -194.5 -126t-60.5 -380z" />
    <glyph glyph-name="uni06FF.fina" unicode="&#x6ff;" horiz-adv-x="1144" 
d="M716 1534h74l212 -269l-70 -56l-179 231l-179 -231l-70 56zM705 853l-9 156l157 9l34 -562q7 -115 31 -179t77.5 -89t147.5 -25h1v-163h-1q-140 0 -223.5 48.5t-127.5 145.5q-113 -45 -236 -45q-106 0 -193.5 31t-139 92t-51.5 152q0 164 142 276.5t391 152.5zM715 700
q-184 -20 -291.5 -85.5t-107.5 -163.5q0 -79 74 -114.5t176 -35.5q98 0 182 26q-6 29 -9.5 57t-5.5 59z" />
    <glyph glyph-name="uniFB50" unicode="&#x671;" horiz-adv-x="516" arabic-form="isolated" 
d="M337 1169v-1169h-157v1169h157zM280 1583q75 87 123 120t99 33q59 0 92.5 -36t33.5 -98q0 -79 -51.5 -129.5t-133.5 -50.5q-34 0 -69 12t-85 42q-38 23 -60.5 31.5t-43.5 8.5q-34 0 -60 -25.5t-64 -98.5l-68 43q43 95 87 139t98 44q20 0 42 -7.5t60 -27.5zM338 1553
q37 -19 60.5 -26t47.5 -7q107 0 107 73q0 28 -18.5 45t-47.5 17q-31 0 -60.5 -20.5t-88.5 -81.5z" />
    <glyph glyph-name="uniFB51" unicode="&#x671;" horiz-adv-x="606" arabic-form="final" 
d="M162 1169h157v-738q0 -143 62.5 -205.5t223.5 -62.5h1v-163h-1q-217 0 -330 107t-113 321v741zM280 1583q75 87 123 120t99 33q59 0 92.5 -36t33.5 -98q0 -79 -51.5 -129.5t-133.5 -50.5q-34 0 -69 12t-85 42q-38 23 -60.5 31.5t-43.5 8.5q-34 0 -60 -25.5t-64 -98.5
l-68 43q43 95 87 139t98 44q20 0 42 -7.5t60 -27.5zM338 1553q37 -19 60.5 -26t47.5 -7q107 0 107 73q0 28 -18.5 45t-47.5 17q-31 0 -60.5 -20.5t-88.5 -81.5z" />
    <glyph glyph-name="uniFB52" unicode="&#x67b;" horiz-adv-x="1770" arabic-form="isolated" 
d="M753 -359l131 131l132 -131l-132 -132zM753 -708l131 131l132 -131l-132 -132zM1618 769q23 -81 36 -160.5t13 -150.5q0 -174 -78.5 -274t-250.5 -142t-453 -42q-278 0 -450.5 41.5t-251.5 139.5t-79 266q0 68 13.5 150t35.5 172l143 -36q-19 -75 -30.5 -145t-11.5 -123
q0 -118 60 -183.5t198.5 -92t372.5 -26.5q238 0 376 27.5t197 95t59 185.5q0 117 -41 262z" />
    <glyph glyph-name="uniFB53" unicode="&#x67b;" horiz-adv-x="1949" arabic-form="final" 
d="M725 -359l131 131l132 -131l-132 -132zM725 -708l131 131l132 -131l-132 -132zM1702 637q-13 -72 -21 -131t-8 -115q0 -66 22.5 -117.5t82.5 -81t170 -29.5h1v-163h-1q-166 0 -266 68.5t-128 211.5h-10q-94 -160 -289 -220t-470 -60q-358 0 -519.5 123.5t-161.5 355.5
q0 71 15 153.5t43 168.5l140 -43q-24 -73 -37.5 -142t-13.5 -124q0 -166 131.5 -247.5t429.5 -81.5q261 0 413.5 51t227.5 161t104 285z" />
    <glyph glyph-name="uniFB54" unicode="&#x67b;" horiz-adv-x="584" arabic-form="initial" 
d="M12 -359l131 131l132 -131l-132 -132zM12 -708l131 131l132 -131l-132 -132zM421 766q27 -106 43.5 -200.5t16.5 -170.5q0 -191 -102.5 -293t-327.5 -102h-51q-29 0 -29 82q0 81 29 81h51q151 0 215 61t64 179q0 60 -15.5 142.5t-39.5 180.5z" />
    <glyph glyph-name="uniFB55" unicode="&#x67b;" horiz-adv-x="842" arabic-form="medial" 
d="M12 -359l131 131l132 -131l-132 -132zM12 -708l131 131l132 -131l-132 -132zM501 475q0 -102 20 -171.5t78 -105t170 -35.5h73v-163h-77q-127 0 -218 61.5t-121 175.5h-10q-29 -115 -132 -176t-233 -61h-51q-29 0 -29 82q0 81 29 81h51q123 0 186 36t85 105.5t22 170.5
v135h157v-135z" />
    <glyph glyph-name="uniFB56" unicode="&#x67e;" horiz-adv-x="1770" arabic-form="isolated" 
d="M1618 769q23 -81 36 -160.5t13 -150.5q0 -174 -78.5 -274t-250.5 -142t-453 -42q-278 0 -450.5 41.5t-251.5 139.5t-79 266q0 68 13.5 150t35.5 172l143 -36q-19 -75 -30.5 -145t-11.5 -123q0 -118 60 -183.5t198.5 -92t372.5 -26.5q238 0 376 27.5t197 95t59 185.5
q0 117 -41 262zM926 -359l131 131l132 -131l-132 -132zM578 -359l131 131l131 -131l-131 -132zM753 -667l131 131l132 -131l-132 -132z" />
    <glyph glyph-name="uniFB57" unicode="&#x67e;" horiz-adv-x="1949" arabic-form="final" 
d="M888 -358l131 131l132 -131l-132 -132zM540 -358l131 131l131 -131l-131 -132zM715 -666l131 131l132 -131l-132 -132zM1702 637q-13 -72 -21 -131t-8 -115q0 -66 22.5 -117.5t82.5 -81t170 -29.5h1v-163h-1q-166 0 -266 68.5t-128 211.5h-10q-94 -160 -289 -220
t-470 -60q-358 0 -519.5 123.5t-161.5 355.5q0 71 15 153.5t43 168.5l140 -43q-24 -73 -37.5 -142t-13.5 -124q0 -166 131.5 -247.5t429.5 -81.5q261 0 413.5 51t227.5 161t104 285z" />
    <glyph glyph-name="uniFB58" unicode="&#x67e;" horiz-adv-x="584" arabic-form="initial" 
d="M183 -358l131 131l132 -131l-132 -132zM-165 -358l131 131l131 -131l-131 -132zM10 -666l131 131l132 -131l-132 -132zM421 766q27 -106 43.5 -200.5t16.5 -170.5q0 -191 -102.5 -293t-327.5 -102h-51q-29 0 -29 82q0 81 29 81h51q151 0 215 61t64 179q0 60 -15.5 142.5
t-39.5 180.5z" />
    <glyph glyph-name="uniFB59" unicode="&#x67e;" horiz-adv-x="842" arabic-form="medial" 
d="M152 -358l131 131l132 -131l-132 -132zM-196 -358l131 131l131 -131l-131 -132zM-21 -666l131 131l132 -131l-132 -132zM501 475q0 -102 20 -171.5t78 -105t170 -35.5h73v-163h-77q-127 0 -218 61.5t-121 175.5h-10q-29 -115 -132 -176t-233 -61h-51q-29 0 -29 82
q0 81 29 81h51q123 0 186 36t85 105.5t22 170.5v135h157v-135z" />
    <glyph glyph-name="uniFB5A" unicode="&#x680;" horiz-adv-x="1770" arabic-form="isolated" 
d="M926 -360l131 132l132 -132l-132 -131zM578 -360l131 132l131 -132l-131 -131zM578 -708l131 131l131 -131l-131 -132zM926 -708l131 131l132 -131l-132 -132zM1618 769q23 -81 36 -160.5t13 -150.5q0 -174 -78.5 -274t-250.5 -142t-453 -42q-278 0 -450.5 41.5
t-251.5 139.5t-79 266q0 68 13.5 150t35.5 172l143 -36q-19 -75 -30.5 -145t-11.5 -123q0 -118 60 -183.5t198.5 -92t372.5 -26.5q238 0 376 27.5t197 95t59 185.5q0 117 -41 262z" />
    <glyph glyph-name="uniFB5B" unicode="&#x680;" horiz-adv-x="1949" arabic-form="final" 
d="M888 -360l131 132l132 -132l-132 -131zM540 -360l131 132l131 -132l-131 -131zM540 -708l131 131l131 -131l-131 -132zM888 -708l131 131l132 -131l-132 -132zM1702 637q-13 -72 -21 -131t-8 -115q0 -66 22.5 -117.5t82.5 -81t170 -29.5h1v-163h-1q-166 0 -266 68.5
t-128 211.5h-10q-94 -160 -289 -220t-470 -60q-358 0 -519.5 123.5t-161.5 355.5q0 71 15 153.5t43 168.5l140 -43q-24 -73 -37.5 -142t-13.5 -124q0 -166 131.5 -247.5t429.5 -81.5q261 0 413.5 51t227.5 161t104 285z" />
    <glyph glyph-name="uniFB5C" unicode="&#x680;" horiz-adv-x="584" arabic-form="initial" 
d="M183 -360l131 132l132 -132l-132 -131zM-165 -360l131 132l131 -132l-131 -131zM-165 -708l131 131l131 -131l-131 -132zM183 -708l131 131l132 -131l-132 -132zM421 766q27 -106 43.5 -200.5t16.5 -170.5q0 -191 -102.5 -293t-327.5 -102h-51q-29 0 -29 82q0 81 29 81
h51q151 0 215 61t64 179q0 60 -15.5 142.5t-39.5 180.5z" />
    <glyph glyph-name="uniFB5D" unicode="&#x680;" horiz-adv-x="842" arabic-form="medial" 
d="M152 -360l131 132l132 -132l-132 -131zM-196 -360l131 132l131 -132l-131 -131zM-196 -708l131 131l131 -131l-131 -132zM152 -708l131 131l132 -131l-132 -132zM501 475q0 -102 20 -171.5t78 -105t170 -35.5h73v-163h-77q-127 0 -218 61.5t-121 175.5h-10
q-29 -115 -132 -176t-233 -61h-51q-29 0 -29 82q0 81 29 81h51q123 0 186 36t85 105.5t22 170.5v135h157v-135z" />
    <glyph glyph-name="uniFB5E" unicode="&#x67a;" horiz-adv-x="1770" arabic-form="isolated" 
d="M1618 769q23 -81 36 -160.5t13 -150.5q0 -174 -78.5 -274t-250.5 -142t-453 -42q-278 0 -450.5 41.5t-251.5 139.5t-79 266q0 68 13.5 150t35.5 172l143 -36q-19 -75 -30.5 -145t-11.5 -123q0 -118 60 -183.5t198.5 -92t372.5 -26.5q238 0 376 27.5t197 95t59 185.5
q0 117 -41 262zM754 1078l131 131l132 -131l-132 -132zM754 729l131 131l132 -131l-132 -132z" />
    <glyph glyph-name="uniFB5F" unicode="&#x67a;" horiz-adv-x="1949" arabic-form="final" 
d="M775 1151l131 131l132 -131l-132 -132zM775 802l131 131l132 -131l-132 -132zM1702 637q-13 -72 -21 -131t-8 -115q0 -66 22.5 -117.5t82.5 -81t170 -29.5h1v-163h-1q-166 0 -266 68.5t-128 211.5h-10q-94 -160 -289 -220t-470 -60q-358 0 -519.5 123.5t-161.5 355.5
q0 71 15 153.5t43 168.5l140 -43q-24 -73 -37.5 -142t-13.5 -124q0 -166 131.5 -247.5t429.5 -81.5q261 0 413.5 51t227.5 161t104 285z" />
    <glyph glyph-name="uniFB60" unicode="&#x67a;" horiz-adv-x="584" arabic-form="initial" 
d="M105 1492l131 131l132 -131l-132 -132zM105 1143l131 131l132 -131l-132 -132zM421 766q27 -106 43.5 -200.5t16.5 -170.5q0 -191 -102.5 -293t-327.5 -102h-51q-29 0 -29 82q0 81 29 81h51q151 0 215 61t64 179q0 60 -15.5 142.5t-39.5 180.5z" />
    <glyph glyph-name="uniFB61" unicode="&#x67a;" horiz-adv-x="842" arabic-form="medial" 
d="M186 1340l131 131l132 -131l-132 -132zM186 991l131 131l132 -131l-132 -132zM501 475q0 -102 20 -171.5t78 -105t170 -35.5h73v-163h-77q-127 0 -218 61.5t-121 175.5h-10q-29 -115 -132 -176t-233 -61h-51q-29 0 -29 82q0 81 29 81h51q123 0 186 36t85 105.5t22 170.5
v135h157v-135z" />
    <glyph glyph-name="uniFB62" unicode="&#x67f;" horiz-adv-x="1770" arabic-form="isolated" 
d="M927 1197l131 132l132 -132l-132 -131zM579 1197l131 132l131 -132l-131 -131zM579 849l131 131l131 -131l-131 -132zM927 849l131 131l132 -131l-132 -132zM1618 769q23 -81 36 -160.5t13 -150.5q0 -174 -78.5 -274t-250.5 -142t-453 -42q-278 0 -450.5 41.5
t-251.5 139.5t-79 266q0 68 13.5 150t35.5 172l143 -36q-19 -75 -30.5 -145t-11.5 -123q0 -118 60 -183.5t198.5 -92t372.5 -26.5q238 0 376 27.5t197 95t59 185.5q0 117 -41 262z" />
    <glyph glyph-name="uniFB63" unicode="&#x67f;" horiz-adv-x="1949" arabic-form="final" 
d="M948 1151l131 132l132 -132l-132 -131zM600 1151l131 132l131 -132l-131 -131zM600 803l131 131l131 -131l-131 -132zM948 803l131 131l132 -131l-132 -132zM1702 637q-13 -72 -21 -131t-8 -115q0 -66 22.5 -117.5t82.5 -81t170 -29.5h1v-163h-1q-166 0 -266 68.5
t-128 211.5h-10q-94 -160 -289 -220t-470 -60q-358 0 -519.5 123.5t-161.5 355.5q0 71 15 153.5t43 168.5l140 -43q-24 -73 -37.5 -142t-13.5 -124q0 -166 131.5 -247.5t429.5 -81.5q261 0 413.5 51t227.5 161t104 285z" />
    <glyph glyph-name="uniFB64" unicode="&#x67f;" horiz-adv-x="584" arabic-form="initial" 
d="M296 1483l131 132l132 -132l-132 -131zM-52 1483l131 132l131 -132l-131 -131zM-52 1135l131 131l131 -131l-131 -132zM296 1135l131 131l132 -131l-132 -132zM421 766q27 -106 43.5 -200.5t16.5 -170.5q0 -191 -102.5 -293t-327.5 -102h-51q-29 0 -29 82q0 81 29 81h51
q151 0 215 61t64 179q0 60 -15.5 142.5t-39.5 180.5z" />
    <glyph glyph-name="uniFB65" unicode="&#x67f;" horiz-adv-x="842" arabic-form="medial" 
d="M366 1287l131 132l132 -132l-132 -131zM18 1287l131 132l131 -132l-131 -131zM18 939l131 131l131 -131l-131 -132zM366 939l131 131l132 -131l-132 -132zM501 475q0 -102 20 -171.5t78 -105t170 -35.5h73v-163h-77q-127 0 -218 61.5t-121 175.5h-10q-29 -115 -132 -176
t-233 -61h-51q-29 0 -29 82q0 81 29 81h51q123 0 186 36t85 105.5t22 170.5v135h157v-135z" />
    <glyph glyph-name="uniFB66" unicode="&#x679;" horiz-adv-x="1770" arabic-form="isolated" 
d="M1618 769q23 -81 36 -160.5t13 -150.5q0 -174 -78.5 -274t-250.5 -142t-453 -42q-278 0 -450.5 41.5t-251.5 139.5t-79 266q0 68 13.5 150t35.5 172l143 -36q-19 -75 -30.5 -145t-11.5 -123q0 -118 60 -183.5t198.5 -92t372.5 -26.5q238 0 376 27.5t197 95t59 185.5
q0 117 -41 262zM697 783v417h81v-310h10q67 69 118.5 102.5t103.5 33.5q62 0 100.5 -42t38.5 -103q0 -91 -66.5 -136.5t-192.5 -45.5h-323v84h130zM767 783h123q95 0 139.5 20.5t44.5 67.5q0 33 -21.5 53.5t-58.5 20.5q-49 0 -98 -36.5t-129 -125.5z" />
    <glyph glyph-name="uniFB67" unicode="&#x679;" horiz-adv-x="1949" arabic-form="final" 
d="M756 798v417h81v-310h10q67 69 118.5 102.5t103.5 33.5q62 0 100.5 -42t38.5 -103q0 -91 -66.5 -136.5t-192.5 -45.5h-323v84h130zM826 798h123q95 0 139.5 20.5t44.5 67.5q0 33 -21.5 53.5t-58.5 20.5q-49 0 -98 -36.5t-129 -125.5zM1702 637q-13 -72 -21 -131t-8 -115
q0 -66 22.5 -117.5t82.5 -81t170 -29.5h1v-163h-1q-166 0 -266 68.5t-128 211.5h-10q-94 -160 -289 -220t-470 -60q-358 0 -519.5 123.5t-161.5 355.5q0 71 15 153.5t43 168.5l140 -43q-24 -73 -37.5 -142t-13.5 -124q0 -166 131.5 -247.5t429.5 -81.5q261 0 413.5 51
t227.5 161t104 285z" />
    <glyph glyph-name="uniFB68" unicode="&#x679;" horiz-adv-x="584" arabic-form="initial" 
d="M93 1135v417h81v-310h10q67 69 118.5 102.5t103.5 33.5q62 0 100.5 -42t38.5 -103q0 -91 -66.5 -136.5t-192.5 -45.5h-323v84h130zM163 1135h123q95 0 139.5 20.5t44.5 67.5q0 33 -21.5 53.5t-58.5 20.5q-49 0 -98 -36.5t-129 -125.5zM421 766q27 -106 43.5 -200.5
t16.5 -170.5q0 -191 -102.5 -293t-327.5 -102h-51q-29 0 -29 82q0 81 29 81h51q151 0 215 61t64 179q0 60 -15.5 142.5t-39.5 180.5z" />
    <glyph glyph-name="uniFB69" unicode="&#x679;" horiz-adv-x="842" arabic-form="medial" 
d="M145 991v417h81v-310h10q67 69 118.5 102.5t103.5 33.5q62 0 100.5 -42t38.5 -103q0 -91 -66.5 -136.5t-192.5 -45.5h-323v84h130zM215 991h123q95 0 139.5 20.5t44.5 67.5q0 33 -21.5 53.5t-58.5 20.5q-49 0 -98 -36.5t-129 -125.5zM501 475q0 -102 20 -171.5t78 -105
t170 -35.5h73v-163h-77q-127 0 -218 61.5t-121 175.5h-10q-29 -115 -132 -176t-233 -61h-51q-29 0 -29 82q0 81 29 81h51q123 0 186 36t85 105.5t22 170.5v135h157v-135z" />
    <glyph glyph-name="uniFB6A" unicode="&#x6a4;" horiz-adv-x="1811" arabic-form="isolated" 
d="M1556 444q-71 -18 -140 -27t-127 -9q-322 0 -322 279q0 139 43 243.5t120 163.5t177 59q120 0 208 -84.5t136 -238.5t48 -365q0 -133 -41 -222.5t-135.5 -143t-254 -76.5t-395.5 -23q-281 0 -450 41t-244 135.5t-75 254.5q0 125 46 330l144 -32q-40 -185 -40 -281
q0 -111 58 -173t196 -87t377 -25q208 0 339.5 12t203.5 42t100 85t28 142zM1537 585q-11 194 -73 301t-163 107q-88 0 -144.5 -81t-56.5 -205q0 -153 197 -153q102 0 240 31zM1159 1858l131 132l132 -132l-132 -131zM1333 1551l131 131l132 -131l-132 -132zM985 1551
l131 131l131 -131l-131 -132z" />
    <glyph glyph-name="uniFB6B" unicode="&#x6a4;" horiz-adv-x="1943" arabic-form="final" 
d="M1307 1608l131 132l132 -132l-132 -131zM1481 1301l131 131l132 -131l-132 -132zM1133 1301l131 131l131 -131l-131 -132zM1438 94q-112 -49 -250.5 -71.5t-287.5 -22.5q-242 0 -421 33t-277 124t-98 266q0 85 21.5 177.5t50.5 179.5l139 -47q-23 -70 -42 -148t-19 -146
q0 -112 71.5 -171t215 -81t359.5 -24q96 -1 195 7t185 26l2 9q-91 53 -149 135t-58 200t48 203t130.5 131t186.5 46q102 0 184.5 -46t131 -131t48.5 -202q0 -118 -60.5 -201.5t-151.5 -136.5l2 -9q51 -16 109 -23.5t118 -7.5h122v-163h-140q-111 0 -196 24t-169 70z
M1439 243q95 44 153 114.5t58 177.5q0 101 -59 163.5t-151 62.5q-94 0 -152.5 -62t-58.5 -164q0 -104 59 -175t151 -117z" />
    <glyph glyph-name="uniFB6C" unicode="&#x6a4;" horiz-adv-x="960" arabic-form="initial" 
d="M327 1850l131 132l132 -132l-132 -131zM501 1543l131 131l132 -131l-132 -132zM153 1543l131 131l131 -131l-131 -132zM0 163h344q203 0 286 64.5t83 216.5q-144 -36 -267 -36q-322 0 -322 279q0 139 42.5 243.5t119 163.5t177.5 59q120 0 208 -84.5t136 -238.5t48 -365
q0 -241 -127 -353t-402 -112h-326q-29 0 -29 82q0 81 29 81zM694 585q-12 194 -74.5 301t-162.5 107q-88 0 -144.5 -80.5t-56.5 -205.5q0 -153 198 -153q99 0 240 31z" />
    <glyph glyph-name="uniFB6D" unicode="&#x6a4;" horiz-adv-x="992" arabic-form="medial" 
d="M363 1608l131 132l132 -132l-132 -131zM537 1301l131 131l132 -131l-132 -132zM189 1301l131 131l131 -131l-131 -132zM131 540q0 118 48 203t130.5 131t186.5 46q102 0 184.5 -46t131 -131t48.5 -202q0 -118 -60.5 -201.5t-151.5 -136.5l2 -9q99 -31 220 -31h122v-163
h-140q-109 0 -192.5 24t-166.5 70q-81 -46 -165 -70t-194 -24h-134q-30 0 -30 82q0 81 30 81h113q124 0 230 31l2 9q-91 52 -152.5 135.5t-61.5 201.5zM495 240q94 45 152.5 116t58.5 179q0 101 -59 163.5t-151 62.5q-94 0 -152.5 -62t-58.5 -164q0 -106 58.5 -177.5
t151.5 -117.5z" />
    <glyph glyph-name="uniFB6E" unicode="&#x6a6;" horiz-adv-x="1811" arabic-form="isolated" 
d="M1342 1902l131 132l132 -132l-132 -131zM994 1902l131 132l131 -132l-131 -131zM994 1554l131 131l131 -131l-131 -132zM1342 1554l131 131l132 -131l-132 -132zM1556 444q-71 -18 -140 -27t-127 -9q-322 0 -322 279q0 139 43 243.5t120 163.5t177 59q120 0 208 -84.5
t136 -238.5t48 -365q0 -133 -41 -222.5t-135.5 -143t-254 -76.5t-395.5 -23q-281 0 -450 41t-244 135.5t-75 254.5q0 125 46 330l144 -32q-40 -185 -40 -281q0 -111 58 -173t196 -87t377 -25q208 0 339.5 12t203.5 42t100 85t28 142zM1537 585q-11 194 -73 301t-163 107
q-88 0 -144.5 -81t-56.5 -205q0 -153 197 -153q102 0 240 31z" />
    <glyph glyph-name="uniFB6F" unicode="&#x6a6;" horiz-adv-x="1943" arabic-form="final" 
d="M1481 1649l131 132l132 -132l-132 -131zM1133 1649l131 132l131 -132l-131 -131zM1133 1301l131 131l131 -131l-131 -132zM1481 1301l131 131l132 -131l-132 -132zM1438 94q-112 -49 -250.5 -71.5t-287.5 -22.5q-242 0 -421 33t-277 124t-98 266q0 85 21.5 177.5
t50.5 179.5l139 -47q-23 -70 -42 -148t-19 -146q0 -112 71.5 -171t215 -81t359.5 -24q96 -1 195 7t185 26l2 9q-91 53 -149 135t-58 200t48 203t130.5 131t186.5 46q102 0 184.5 -46t131 -131t48.5 -202q0 -118 -60.5 -201.5t-151.5 -136.5l2 -9q51 -16 109 -23.5t118 -7.5
h122v-163h-140q-111 0 -196 24t-169 70zM1439 243q95 44 153 114.5t58 177.5q0 101 -59 163.5t-151 62.5q-94 0 -152.5 -62t-58.5 -164q0 -104 59 -175t151 -117z" />
    <glyph glyph-name="uniFB70" unicode="&#x6a6;" horiz-adv-x="960" arabic-form="initial" 
d="M501 1891l131 132l132 -132l-132 -131zM153 1891l131 132l131 -132l-131 -131zM153 1543l131 131l131 -131l-131 -132zM501 1543l131 131l132 -131l-132 -132zM0 163h344q203 0 286 64.5t83 216.5q-144 -36 -267 -36q-322 0 -322 279q0 139 42.5 243.5t119 163.5
t177.5 59q120 0 208 -84.5t136 -238.5t48 -365q0 -241 -127 -353t-402 -112h-326q-29 0 -29 82q0 81 29 81zM694 585q-12 194 -74.5 301t-162.5 107q-88 0 -144.5 -80.5t-56.5 -205.5q0 -153 198 -153q99 0 240 31z" />
    <glyph glyph-name="uniFB71" unicode="&#x6a6;" horiz-adv-x="992" arabic-form="medial" 
d="M537 1649l131 132l132 -132l-132 -131zM189 1649l131 132l131 -132l-131 -131zM189 1301l131 131l131 -131l-131 -132zM537 1301l131 131l132 -131l-132 -132zM131 540q0 118 48 203t130.5 131t186.5 46q102 0 184.5 -46t131 -131t48.5 -202q0 -118 -60.5 -201.5
t-151.5 -136.5l2 -9q99 -31 220 -31h122v-163h-140q-109 0 -192.5 24t-166.5 70q-81 -46 -165 -70t-194 -24h-134q-30 0 -30 82q0 81 30 81h113q124 0 230 31l2 9q-91 52 -152.5 135.5t-61.5 201.5zM495 240q94 45 152.5 116t58.5 179q0 101 -59 163.5t-151 62.5
q-94 0 -152.5 -62t-58.5 -164q0 -106 58.5 -177.5t151.5 -117.5z" />
    <glyph glyph-name="uniFB72" unicode="&#x684;" horiz-adv-x="1366" arabic-form="isolated" 
d="M766 -87l-100 101l100 100l100 -100zM766 -328l-100 101l100 100l100 -100zM458 896q52 0 125.5 -21.5t203.5 -80.5q146 -65 242.5 -101t184.5 -59l-16 -184q-123 -14 -255 -47.5t-255 -86.5t-221.5 -124t-156.5 -160.5t-58 -196.5q0 -112 70 -186t186.5 -111t257.5 -37
q245 0 452 91l72 -142q-127 -58 -261 -87.5t-264 -29.5q-186 0 -337 56t-240 164.5t-89 266.5q0 149 78 269.5t209.5 211.5t294 152t331.5 89v10q-64 17 -135.5 43t-166.5 65q-104 43 -160.5 60.5t-91.5 17.5q-67 0 -111.5 -43.5t-84.5 -146.5l-7 -18l-117 37l6 19
q56 166 130 238t184 72z" />
    <glyph glyph-name="uniFB73" unicode="&#x684;" horiz-adv-x="1372" arabic-form="final" 
d="M737 -161l-100 101l100 100l100 -100zM737 -402l-100 101l100 100l100 -100zM458 856q55 0 130 -23t199 -79q150 -67 246 -103t181 -57l-16 -184q-63 -7 -110.5 -15.5t-85.5 -17.5v-10q49 -108 123 -156t188 -48h59v-163h-45q-162 0 -266.5 84.5t-160.5 260.5
q-190 -46 -336.5 -131t-229 -193.5t-82.5 -225.5q0 -152 139.5 -243t374.5 -91q250 0 452 91l72 -142q-259 -117 -525 -117q-201 0 -350.5 60.5t-232.5 170t-83 256.5q0 170 114.5 317t320 253t478.5 152v10q-59 15 -129.5 40t-172.5 68q-104 43 -160.5 60.5t-91.5 17.5
q-67 0 -111.5 -43.5t-84.5 -146.5l-7 -18l-117 37l6 19q55 164 128.5 237t185.5 73z" />
    <glyph glyph-name="uniFB74" unicode="&#x684;" horiz-adv-x="1265" arabic-form="initial" 
d="M392 -359l131 131l132 -131l-132 -132zM392 -708l131 131l132 -131l-132 -132zM417 839q50 0 121 -22.5t210 -82.5q133 -58 226.5 -91t187.5 -57v-141l-492 -278q-157 -89 -290 -128t-282 -39h-98q-29 0 -29 82q0 81 29 81h125q82 0 154.5 13t150.5 42.5t175 78.5
l360 189v10q-62 17 -133 42.5t-164 65.5q-103 42 -160 59.5t-92 17.5q-67 0 -111.5 -43.5t-84.5 -146.5l-7 -18l-118 38l7 18q56 165 130 237.5t185 72.5z" />
    <glyph glyph-name="uniFB75" unicode="&#x684;" horiz-adv-x="1313" arabic-form="medial" 
d="M392 -359l131 131l132 -131l-132 -132zM392 -708l131 131l132 -131l-132 -132zM417 839q50 0 121.5 -21.5t209.5 -83.5q133 -58 226.5 -91t187.5 -57v-141l-235 -127v-10q71 -83 149.5 -114t168.5 -31h68v-163h-71q-123 0 -230 55.5t-199 191.5l-143 -80
q-157 -89 -290 -128t-282 -39h-98q-29 0 -29 82q0 81 29 81h125q82 0 154.5 12.5t150.5 42t175 79.5l360 189v10q-62 17 -133 43t-164 65q-103 42 -160 59.5t-92 17.5q-67 0 -111 -43.5t-85 -146.5l-7 -18l-118 38l7 18q56 165 130 237.5t185 72.5z" />
    <glyph glyph-name="uniFB76" unicode="&#x683;" horiz-adv-x="1366" arabic-form="isolated" 
d="M815 -118l100 100l100 -100l-100 -101zM546 -118l100 100l100 -100l-100 -101zM458 896q52 0 125.5 -21.5t203.5 -80.5q146 -65 242.5 -101t184.5 -59l-16 -184q-123 -14 -255 -47.5t-255 -86.5t-221.5 -124t-156.5 -160.5t-58 -196.5q0 -112 70 -186t186.5 -111
t257.5 -37q245 0 452 91l72 -142q-127 -58 -261 -87.5t-264 -29.5q-186 0 -337 56t-240 164.5t-89 266.5q0 149 78 269.5t209.5 211.5t294 152t331.5 89v10q-64 17 -135.5 43t-166.5 65q-104 43 -160.5 60.5t-91.5 17.5q-67 0 -111.5 -43.5t-84.5 -146.5l-7 -18l-117 37
l6 19q56 166 130 238t184 72z" />
    <glyph glyph-name="uniFB77" unicode="&#x683;" horiz-adv-x="1372" arabic-form="final" 
d="M804 -172l100 100l100 -100l-100 -101zM535 -172l100 100l100 -100l-100 -101zM458 856q55 0 130 -23t199 -79q150 -67 246 -103t181 -57l-16 -184q-63 -7 -110.5 -15.5t-85.5 -17.5v-10q49 -108 123 -156t188 -48h59v-163h-45q-162 0 -266.5 84.5t-160.5 260.5
q-190 -46 -336.5 -131t-229 -193.5t-82.5 -225.5q0 -152 139.5 -243t374.5 -91q250 0 452 91l72 -142q-259 -117 -525 -117q-201 0 -350.5 60.5t-232.5 170t-83 256.5q0 170 114.5 317t320 253t478.5 152v10q-59 15 -129.5 40t-172.5 68q-104 43 -160.5 60.5t-91.5 17.5
q-67 0 -111.5 -43.5t-84.5 -146.5l-7 -18l-117 37l6 19q55 164 128.5 237t185.5 73z" />
    <glyph glyph-name="uniFB78" unicode="&#x683;" horiz-adv-x="1265" arabic-form="initial" 
d="M232 -323l131 131l131 -131l-131 -132zM580 -323l131 131l132 -131l-132 -132zM417 839q50 0 121 -22.5t210 -82.5q133 -58 226.5 -91t187.5 -57v-141l-492 -278q-157 -89 -290 -128t-282 -39h-98q-29 0 -29 82q0 81 29 81h125q82 0 154.5 13t150.5 42.5t175 78.5
l360 189v10q-62 17 -133 42.5t-164 65.5q-103 42 -160 59.5t-92 17.5q-67 0 -111.5 -43.5t-84.5 -146.5l-7 -18l-118 38l7 18q56 165 130 237.5t185 72.5z" />
    <glyph glyph-name="uniFB79" unicode="&#x683;" horiz-adv-x="1313" arabic-form="medial" 
d="M232 -323l131 131l131 -131l-131 -132zM580 -323l131 131l132 -131l-132 -132zM417 839q50 0 121.5 -21.5t209.5 -83.5q133 -58 226.5 -91t187.5 -57v-141l-235 -127v-10q71 -83 149.5 -114t168.5 -31h68v-163h-71q-123 0 -230 55.5t-199 191.5l-143 -80
q-157 -89 -290 -128t-282 -39h-98q-29 0 -29 82q0 81 29 81h125q82 0 154.5 12.5t150.5 42t175 79.5l360 189v10q-62 17 -133 43t-164 65q-103 42 -160 59.5t-92 17.5q-67 0 -111 -43.5t-85 -146.5l-7 -18l-118 38l7 18q56 165 130 237.5t185 72.5z" />
    <glyph glyph-name="uniFB7A" unicode="&#x686;" horiz-adv-x="1438" arabic-form="isolated" 
d="M458 896q52 0 125.5 -21.5t203.5 -80.5q146 -65 242.5 -101t184.5 -59l-16 -184q-123 -14 -255 -47.5t-255 -86.5t-221.5 -124t-156.5 -160.5t-58 -196.5q0 -112 70 -186t186.5 -111t257.5 -37q245 0 452 91l72 -142q-127 -58 -261 -87.5t-264 -29.5q-186 0 -337 56
t-240 164.5t-89 266.5q0 149 78 269.5t209.5 211.5t294 152t331.5 89v10q-64 17 -135.5 43t-166.5 65q-104 43 -160.5 60.5t-91.5 17.5q-67 0 -111.5 -43.5t-84.5 -146.5l-7 -18l-117 37l6 19q56 166 130 238t184 72zM502 -29l106 106l106 -106l-106 -106zM813 -30l106 106
l105 -106l-105 -106zM660 -270l103 103l102 -103l-102 -103z" />
    <glyph glyph-name="uniFB7B" unicode="&#x686;" horiz-adv-x="1372" arabic-form="final" 
d="M480 -69l106 106l106 -106l-106 -106zM791 -70l106 106l105 -106l-105 -106zM638 -310l103 103l102 -103l-102 -103zM458 856q55 0 130 -23t199 -79q150 -67 246 -103t181 -57l-16 -184q-63 -7 -110.5 -15.5t-85.5 -17.5v-10q49 -108 123 -156t188 -48h59v-163h-45
q-162 0 -266.5 84.5t-160.5 260.5q-190 -46 -336.5 -131t-229 -193.5t-82.5 -225.5q0 -152 139.5 -243t374.5 -91q250 0 452 91l72 -142q-259 -117 -525 -117q-201 0 -350.5 60.5t-232.5 170t-83 256.5q0 170 114.5 317t320 253t478.5 152v10q-59 15 -129.5 40t-172.5 68
q-104 43 -160.5 60.5t-91.5 17.5q-67 0 -111.5 -43.5t-84.5 -146.5l-7 -18l-117 37l6 19q55 164 128.5 237t185.5 73z" />
    <glyph glyph-name="uniFB7C" unicode="&#x686;" horiz-adv-x="1265" arabic-form="initial" 
d="M580 -305l131 131l132 -131l-132 -132zM232 -305l131 131l131 -131l-131 -132zM407 -613l131 131l132 -131l-132 -132zM417 839q50 0 121 -22.5t210 -82.5q133 -58 226.5 -91t187.5 -57v-141l-492 -278q-157 -89 -290 -128t-282 -39h-98q-29 0 -29 82q0 81 29 81h125
q82 0 154.5 13t150.5 42.5t175 78.5l360 189v10q-62 17 -133 42.5t-164 65.5q-103 42 -160 59.5t-92 17.5q-67 0 -111.5 -43.5t-84.5 -146.5l-7 -18l-118 38l7 18q56 165 130 237.5t185 72.5z" />
    <glyph glyph-name="uniFB7D" unicode="&#x686;" horiz-adv-x="1313" arabic-form="medial" 
d="M580 -305l131 131l132 -131l-132 -132zM232 -305l131 131l131 -131l-131 -132zM407 -613l131 131l132 -131l-132 -132zM417 839q50 0 121.5 -21.5t209.5 -83.5q133 -58 226.5 -91t187.5 -57v-141l-235 -127v-10q71 -83 149.5 -114t168.5 -31h68v-163h-71
q-123 0 -230 55.5t-199 191.5l-143 -80q-157 -89 -290 -128t-282 -39h-98q-29 0 -29 82q0 81 29 81h125q82 0 154.5 12.5t150.5 42t175 79.5l360 189v10q-62 17 -133 43t-164 65q-103 42 -160 59.5t-92 17.5q-67 0 -111 -43.5t-85 -146.5l-7 -18l-118 38l7 18
q56 165 130 237.5t185 72.5z" />
    <glyph glyph-name="uniFB7E" unicode="&#x687;" horiz-adv-x="1366" arabic-form="isolated" 
d="M544 34l103 104l104 -104l-104 -104zM811 34l103 104l103 -104l-103 -103zM544 -231l103 103l104 -103l-104 -104zM811 -231l103 103l103 -103l-103 -104zM458 896q52 0 125.5 -21.5t203.5 -80.5q146 -65 242.5 -101t184.5 -59l-16 -184q-123 -14 -255 -47.5t-255 -86.5
t-221.5 -124t-156.5 -160.5t-58 -196.5q0 -112 70 -186t186.5 -111t257.5 -37q245 0 452 91l72 -142q-127 -58 -261 -87.5t-264 -29.5q-186 0 -337 56t-240 164.5t-89 266.5q0 149 78 269.5t209.5 211.5t294 152t331.5 89v10q-64 17 -135.5 43t-166.5 65
q-104 43 -160.5 60.5t-91.5 17.5q-67 0 -111.5 -43.5t-84.5 -146.5l-7 -18l-117 37l6 19q56 166 130 238t184 72z" />
    <glyph glyph-name="uniFB7F" unicode="&#x687;" horiz-adv-x="1372" arabic-form="final" 
d="M500 -35l103 104l104 -104l-104 -104zM767 -35l103 104l103 -104l-103 -103zM500 -300l103 103l104 -103l-104 -104zM767 -300l103 103l103 -103l-103 -104zM458 856q55 0 130 -23t199 -79q150 -67 246 -103t181 -57l-16 -184q-63 -7 -110.5 -15.5t-85.5 -17.5v-10
q49 -108 123 -156t188 -48h59v-163h-45q-162 0 -266.5 84.5t-160.5 260.5q-190 -46 -336.5 -131t-229 -193.5t-82.5 -225.5q0 -152 139.5 -243t374.5 -91q250 0 452 91l72 -142q-259 -117 -525 -117q-201 0 -350.5 60.5t-232.5 170t-83 256.5q0 170 114.5 317t320 253
t478.5 152v10q-59 15 -129.5 40t-172.5 68q-104 43 -160.5 60.5t-91.5 17.5q-67 0 -111.5 -43.5t-84.5 -146.5l-7 -18l-117 37l6 19q55 164 128.5 237t185.5 73z" />
    <glyph glyph-name="uniFB80" unicode="&#x687;" horiz-adv-x="1265" arabic-form="initial" 
d="M580 -324l131 132l132 -132l-132 -131zM232 -324l131 132l131 -132l-131 -131zM232 -672l131 131l131 -131l-131 -132zM580 -672l131 131l132 -131l-132 -132zM417 839q50 0 121 -22.5t210 -82.5q133 -58 226.5 -91t187.5 -57v-141l-492 -278q-157 -89 -290 -128
t-282 -39h-98q-29 0 -29 82q0 81 29 81h125q82 0 154.5 13t150.5 42.5t175 78.5l360 189v10q-62 17 -133 42.5t-164 65.5q-103 42 -160 59.5t-92 17.5q-67 0 -111.5 -43.5t-84.5 -146.5l-7 -18l-118 38l7 18q56 165 130 237.5t185 72.5z" />
    <glyph glyph-name="uniFB81" unicode="&#x687;" horiz-adv-x="1313" arabic-form="medial" 
d="M580 -324l131 132l132 -132l-132 -131zM232 -324l131 132l131 -132l-131 -131zM232 -672l131 131l131 -131l-131 -132zM580 -672l131 131l132 -131l-132 -132zM417 839q50 0 121.5 -21.5t209.5 -83.5q133 -58 226.5 -91t187.5 -57v-141l-235 -127v-10q71 -83 149.5 -114
t168.5 -31h68v-163h-71q-123 0 -230 55.5t-199 191.5l-143 -80q-157 -89 -290 -128t-282 -39h-98q-29 0 -29 82q0 81 29 81h125q82 0 154.5 12.5t150.5 42t175 79.5l360 189v10q-62 17 -133 43t-164 65q-103 42 -160 59.5t-92 17.5q-67 0 -111 -43.5t-85 -146.5l-7 -18
l-118 38l7 18q56 165 130 237.5t185 72.5z" />
    <glyph glyph-name="uniFB82" unicode="&#x68d;" horiz-adv-x="1013" arabic-form="isolated" 
d="M93 -359l131 131l131 -131l-131 -132zM441 -359l131 131l132 -131l-132 -132zM910 374q0 -137 -73.5 -221t-192 -122.5t-254.5 -38.5q-68 0 -140.5 9.5t-148.5 29.5l36 154q70 -17 131.5 -24t119.5 -7q172 0 269.5 55.5t97.5 165.5q0 101 -88 230t-252 276l105 125
q194 -173 292 -329.5t98 -302.5z" />
    <glyph glyph-name="uniFB83" unicode="&#x68d;" horiz-adv-x="1284" arabic-form="final" 
d="M205 -359l131 131l131 -131l-131 -132zM553 -359l131 131l132 -131l-132 -132zM715 992l271 -630q51 -119 113.5 -159t168.5 -40h16v-163h-16q-132 0 -224.5 51.5t-139.5 172.5h-10q-49 -112 -162.5 -173t-249.5 -61q-98 0 -196.5 35t-184.5 107l78 130q71 -55 150 -81.5
t152 -26.5q104 0 196 45.5t149 132.5l-261 589z" />
    <glyph glyph-name="uniFB84" unicode="&#x68c;" horiz-adv-x="1013" arabic-form="isolated" 
d="M216 1386l131 131l131 -131l-131 -132zM564 1386l131 131l132 -131l-132 -132zM910 374q0 -137 -73.5 -221t-192 -122.5t-254.5 -38.5q-68 0 -140.5 9.5t-148.5 29.5l36 154q70 -17 131.5 -24t119.5 -7q172 0 269.5 55.5t97.5 165.5q0 101 -88 230t-252 276l105 125
q194 -173 292 -329.5t98 -302.5z" />
    <glyph glyph-name="uniFB85" unicode="&#x68c;" horiz-adv-x="1284" arabic-form="final" 
d="M321 1386l131 131l131 -131l-131 -132zM669 1386l131 131l132 -131l-132 -132zM715 992l271 -630q51 -119 113.5 -159t168.5 -40h16v-163h-16q-132 0 -224.5 51.5t-139.5 172.5h-10q-49 -112 -162.5 -173t-249.5 -61q-98 0 -196.5 35t-184.5 107l78 130q71 -55 150 -81.5
t152 -26.5q104 0 196 45.5t149 132.5l-261 589z" />
    <glyph glyph-name="uniFB86" unicode="&#x68e;" horiz-adv-x="1013" arabic-form="isolated" 
d="M390 1693l131 132l132 -132l-132 -131zM564 1386l131 131l132 -131l-132 -132zM216 1386l131 131l131 -131l-131 -132zM910 374q0 -137 -73.5 -221t-192 -122.5t-254.5 -38.5q-68 0 -140.5 9.5t-148.5 29.5l36 154q70 -17 131.5 -24t119.5 -7q172 0 269.5 55.5
t97.5 165.5q0 101 -88 230t-252 276l105 125q194 -173 292 -329.5t98 -302.5z" />
    <glyph glyph-name="uniFB87" unicode="&#x68e;" horiz-adv-x="1284" arabic-form="final" 
d="M495 1693l131 132l132 -132l-132 -131zM669 1386l131 131l132 -131l-132 -132zM321 1386l131 131l131 -131l-131 -132zM715 992l271 -630q51 -119 113.5 -159t168.5 -40h16v-163h-16q-132 0 -224.5 51.5t-139.5 172.5h-10q-49 -112 -162.5 -173t-249.5 -61
q-98 0 -196.5 35t-184.5 107l78 130q71 -55 150 -81.5t152 -26.5q104 0 196 45.5t149 132.5l-261 589z" />
    <glyph glyph-name="uniFB88" unicode="&#x688;" horiz-adv-x="1013" arabic-form="isolated" 
d="M323 1344v417h81v-310h10q67 69 118.5 102.5t103.5 33.5q62 0 100.5 -42t38.5 -103q0 -91 -66.5 -136.5t-192.5 -45.5h-323v84h130zM393 1344h123q95 0 139.5 20.5t44.5 67.5q0 33 -21.5 53.5t-58.5 20.5q-49 0 -98 -36.5t-129 -125.5zM910 374q0 -137 -73.5 -221
t-192 -122.5t-254.5 -38.5q-68 0 -140.5 9.5t-148.5 29.5l36 154q70 -17 131.5 -24t119.5 -7q172 0 269.5 55.5t97.5 165.5q0 101 -88 230t-252 276l105 125q194 -173 292 -329.5t98 -302.5z" />
    <glyph glyph-name="uniFB89" unicode="&#x688;" horiz-adv-x="1284" arabic-form="final" 
d="M445 1334v417h81v-310h10q67 69 118.5 102.5t103.5 33.5q62 0 100.5 -42t38.5 -103q0 -91 -66.5 -136.5t-192.5 -45.5h-323v84h130zM515 1334h123q95 0 139.5 20.5t44.5 67.5q0 33 -21.5 53.5t-58.5 20.5q-49 0 -98 -36.5t-129 -125.5zM715 992l271 -630
q51 -119 113.5 -159t168.5 -40h16v-163h-16q-132 0 -224.5 51.5t-139.5 172.5h-10q-49 -112 -162.5 -173t-249.5 -61q-98 0 -196.5 35t-184.5 107l78 130q71 -55 150 -81.5t152 -26.5q104 0 196 45.5t149 132.5l-261 589z" />
    <glyph glyph-name="uniFB8A" unicode="&#x698;" horiz-adv-x="590" arabic-form="isolated" 
d="M206 584l147 52q56 -164 88 -303t32 -249q0 -214 -142 -363t-452 -262l-68 148q266 95 386.5 203.5t120.5 268.5q0 92 -30 224.5t-82 280.5zM164 1303l131 132l132 -132l-132 -131zM338 996l131 131l132 -131l-132 -132zM-10 996l131 131l131 -131l-131 -132z" />
    <glyph glyph-name="uniFB8B" unicode="&#x698;" horiz-adv-x="765" arabic-form="final" 
d="M164 1303l131 132l132 -132l-132 -131zM338 996l131 131l132 -131l-132 -132zM-10 996l131 131l131 -131l-131 -132zM206 584l147 52l64 -197q33 -101 74.5 -162t105.5 -87.5t166 -26.5h2v-163h-2q-99 0 -177.5 35.5t-122.5 99.5l-10 -3q16 -167 -42 -289.5t-190.5 -215
t-341.5 -168.5l-68 148q272 97 389.5 206t117.5 266q0 89 -29.5 220t-82.5 285z" />
    <glyph glyph-name="uniFB8C" unicode="&#x691;" horiz-adv-x="590" arabic-form="isolated" 
d="M117 1027v417h81v-310h10q67 69 118.5 102.5t103.5 33.5q62 0 100.5 -42t38.5 -103q0 -91 -66.5 -136.5t-192.5 -45.5h-323v84h130zM187 1027h123q95 0 139.5 20.5t44.5 67.5q0 33 -21.5 53.5t-58.5 20.5q-49 0 -98 -36.5t-129 -125.5zM206 584l147 52q56 -164 88 -303
t32 -249q0 -214 -142 -363t-452 -262l-68 148q266 95 386.5 203.5t120.5 268.5q0 92 -30 224.5t-82 280.5z" />
    <glyph glyph-name="uniFB8D" unicode="&#x691;" horiz-adv-x="765" arabic-form="final" 
d="M117 1027v417h81v-310h10q67 69 118.5 102.5t103.5 33.5q62 0 100.5 -42t38.5 -103q0 -91 -66.5 -136.5t-192.5 -45.5h-323v84h130zM187 1027h123q95 0 139.5 20.5t44.5 67.5q0 33 -21.5 53.5t-58.5 20.5q-49 0 -98 -36.5t-129 -125.5zM206 584l147 52l64 -197
q33 -101 74.5 -162t105.5 -87.5t166 -26.5h2v-163h-2q-99 0 -177.5 35.5t-122.5 99.5l-10 -3q16 -167 -42 -289.5t-190.5 -215t-341.5 -168.5l-68 148q272 97 389.5 206t117.5 266q0 89 -29.5 220t-82.5 285z" />
    <glyph glyph-name="uniFB8E" unicode="&#x6a9;" horiz-adv-x="1672" arabic-form="isolated" 
d="M147 769l144 -34q-39 -175 -39 -279q0 -107 52 -171.5t170.5 -93t315.5 -28.5q281 0 432 57.5t151 164.5q0 88 -123.5 208t-383.5 302l13 158q171 77 377.5 145.5t433.5 122.5l26 -162q-226 -55 -389.5 -105t-284.5 -99v-8q173 -132 280.5 -231t157.5 -179.5t50 -159.5
q0 -181 -194.5 -279t-552.5 -98q-242 0 -391.5 45t-218.5 142.5t-69 255.5q0 124 43 326z" />
    <glyph glyph-name="uniFB8F" unicode="&#x6a9;" horiz-adv-x="1968" arabic-form="final" 
d="M1476 329q-7 -169 -175 -249t-515 -80q-243 0 -392.5 44.5t-218 142.5t-68.5 256q0 128 43 326l144 -34q-39 -177 -39 -279q0 -107 51.5 -171.5t169 -93t314.5 -28.5q580 0 580 212q0 168 -504 520l13 158q175 78 382 147t429 121l26 -162q-428 -104 -674 -204v-8
q109 -82 186 -145.5t132.5 -118.5t98 -109.5t81.5 -119.5q69 -116 127.5 -179.5t128 -87.5t171.5 -24h1v-163h-1q-188 0 -297 74.5t-184 254.5h-10z" />
    <glyph glyph-name="uniFB90" unicode="&#x6a9;" horiz-adv-x="836" arabic-form="initial" 
d="M854 1321l26 -162q-226 -55 -389.5 -105t-284.5 -99l-1 -8q175 -132 282 -231.5t156.5 -183t49.5 -168.5q0 -175 -148.5 -269.5t-423.5 -94.5h-121q-29 0 -29 82q0 81 29 81h118q418 0 418 209q0 62 -52 133.5t-163.5 166t-291.5 223.5l14 158q171 77 377 145.5
t434 122.5z" />
    <glyph glyph-name="uniFB91" unicode="&#x6a9;" horiz-adv-x="1131" arabic-form="medial" 
d="M639 330q-9 -173 -136.5 -251.5t-381.5 -78.5h-121q-29 0 -29 81q0 82 29 82h118q212 0 313.5 54.5t101.5 153.5q0 55 -48.5 126.5t-159 169t-296.5 228.5l14 158q174 78 381 147t430 121l26 -162q-432 -105 -674 -204l-1 -8q141 -105 232 -184t152.5 -150.5
t113.5 -156.5q66 -112 122.5 -176t126.5 -90.5t178 -26.5h1v-163h-1q-187 0 -296.5 75t-184.5 255h-10z" />
    <glyph glyph-name="uniFB92" unicode="&#x6af;" horiz-adv-x="1672" arabic-form="isolated" 
d="M1524 1596l16 -91q-364 -63 -680 -225l-43 83q324 165 707 233zM147 769l144 -34q-39 -175 -39 -279q0 -107 52 -171.5t170.5 -93t315.5 -28.5q281 0 432 57.5t151 164.5q0 88 -123.5 208t-383.5 302l13 158q171 77 377.5 145.5t433.5 122.5l26 -162
q-226 -55 -389.5 -105t-284.5 -99v-8q173 -132 280.5 -231t157.5 -179.5t50 -159.5q0 -181 -194.5 -279t-552.5 -98q-242 0 -391.5 45t-218.5 142.5t-69 255.5q0 124 43 326z" />
    <glyph glyph-name="uniFB93" unicode="&#x6af;" horiz-adv-x="1968" arabic-form="final" 
d="M1476 329q-7 -169 -175 -249t-515 -80q-243 0 -392.5 44.5t-218 142.5t-68.5 256q0 128 43 326l144 -34q-39 -177 -39 -279q0 -107 51.5 -171.5t169 -93t314.5 -28.5q580 0 580 212q0 168 -504 520l13 158q175 78 382 147t429 121l26 -162q-428 -104 -674 -204v-8
q109 -82 186 -145.5t132.5 -118.5t98 -109.5t81.5 -119.5q69 -116 127.5 -179.5t128 -87.5t171.5 -24h1v-163h-1q-188 0 -297 74.5t-184 254.5h-10zM1524 1596l16 -91q-364 -63 -680 -225l-43 83q324 165 707 233z" />
    <glyph glyph-name="uniFB94" unicode="&#x6af;" horiz-adv-x="836" arabic-form="initial" 
d="M854 1321l26 -162q-226 -55 -389.5 -105t-284.5 -99l-1 -8q175 -132 282 -231.5t156.5 -183t49.5 -168.5q0 -175 -148.5 -269.5t-423.5 -94.5h-121q-29 0 -29 82q0 81 29 81h118q418 0 418 209q0 62 -52 133.5t-163.5 166t-291.5 223.5l14 158q171 77 377 145.5
t434 122.5zM701 1596l16 -91q-364 -63 -680 -225l-43 83q324 165 707 233z" />
    <glyph glyph-name="uniFB95" unicode="&#x6af;" horiz-adv-x="1131" arabic-form="medial" 
d="M639 330q-9 -173 -136.5 -251.5t-381.5 -78.5h-121q-29 0 -29 81q0 82 29 82h118q212 0 313.5 54.5t101.5 153.5q0 55 -48.5 126.5t-159 169t-296.5 228.5l14 158q174 78 381 147t430 121l26 -162q-432 -105 -674 -204l-1 -8q141 -105 232 -184t152.5 -150.5
t113.5 -156.5q66 -112 122.5 -176t126.5 -90.5t178 -26.5h1v-163h-1q-187 0 -296.5 75t-184.5 255h-10zM701 1596l16 -91q-364 -63 -680 -225l-43 83q324 165 707 233z" />
    <glyph glyph-name="uniFB96" unicode="&#x6b3;" horiz-adv-x="1672" arabic-form="isolated" 
d="M640 -359l131 131l132 -131l-132 -132zM640 -708l131 131l132 -131l-132 -132zM1524 1596l16 -91q-364 -63 -680 -225l-43 83q324 165 707 233zM147 769l144 -34q-39 -175 -39 -279q0 -107 52 -171.5t170.5 -93t315.5 -28.5q281 0 432 57.5t151 164.5q0 88 -123.5 208
t-383.5 302l13 158q171 77 377.5 145.5t433.5 122.5l26 -162q-226 -55 -389.5 -105t-284.5 -99v-8q173 -132 280.5 -231t157.5 -179.5t50 -159.5q0 -181 -194.5 -279t-552.5 -98q-242 0 -391.5 45t-218.5 142.5t-69 255.5q0 124 43 326z" />
    <glyph glyph-name="uniFB97" unicode="&#x6b3;" horiz-adv-x="1968" arabic-form="final" 
d="M639 -359l131 131l132 -131l-132 -132zM639 -708l131 131l132 -131l-132 -132zM1476 329q-7 -169 -175 -249t-515 -80q-243 0 -392.5 44.5t-218 142.5t-68.5 256q0 128 43 326l144 -34q-39 -177 -39 -279q0 -107 51.5 -171.5t169 -93t314.5 -28.5q580 0 580 212
q0 168 -504 520l13 158q175 78 382 147t429 121l26 -162q-428 -104 -674 -204v-8q109 -82 186 -145.5t132.5 -118.5t98 -109.5t81.5 -119.5q69 -116 127.5 -179.5t128 -87.5t171.5 -24h1v-163h-1q-188 0 -297 74.5t-184 254.5h-10zM1524 1596l16 -91q-364 -63 -680 -225
l-43 83q324 165 707 233z" />
    <glyph glyph-name="uniFB98" unicode="&#x6b3;" horiz-adv-x="836" arabic-form="initial" 
d="M342 -359l131 131l132 -131l-132 -132zM342 -708l131 131l132 -131l-132 -132zM854 1321l26 -162q-226 -55 -389.5 -105t-284.5 -99l-1 -8q175 -132 282 -231.5t156.5 -183t49.5 -168.5q0 -175 -148.5 -269.5t-423.5 -94.5h-121q-29 0 -29 82q0 81 29 81h118
q418 0 418 209q0 62 -52 133.5t-163.5 166t-291.5 223.5l14 158q171 77 377 145.5t434 122.5zM701 1596l16 -91q-364 -63 -680 -225l-43 83q324 165 707 233z" />
    <glyph glyph-name="uniFB99" unicode="&#x6b3;" horiz-adv-x="1131" arabic-form="medial" 
d="M445 -359l131 131l132 -131l-132 -132zM445 -708l131 131l132 -131l-132 -132zM639 330q-9 -173 -136.5 -251.5t-381.5 -78.5h-121q-29 0 -29 81q0 82 29 82h118q212 0 313.5 54.5t101.5 153.5q0 55 -48.5 126.5t-159 169t-296.5 228.5l14 158q174 78 381 147t430 121
l26 -162q-432 -105 -674 -204l-1 -8q141 -105 232 -184t152.5 -150.5t113.5 -156.5q66 -112 122.5 -176t126.5 -90.5t178 -26.5h1v-163h-1q-187 0 -296.5 75t-184.5 255h-10zM701 1596l16 -91q-364 -63 -680 -225l-43 83q324 165 707 233z" />
    <glyph glyph-name="uniFB9A" unicode="&#x6b1;" horiz-adv-x="1672" arabic-form="isolated" 
d="M147 769l144 -34q-39 -175 -39 -279q0 -107 52 -171.5t170.5 -93t315.5 -28.5q281 0 432 57.5t151 164.5q0 88 -123.5 208t-383.5 302l13 158q171 77 377.5 145.5t433.5 122.5l26 -162q-226 -55 -389.5 -105t-284.5 -99v-8q173 -132 280.5 -231t157.5 -179.5t50 -159.5
q0 -181 -194.5 -279t-552.5 -98q-242 0 -391.5 45t-218.5 142.5t-69 255.5q0 124 43 326zM1524 1596l16 -91q-364 -63 -680 -225l-43 83q324 165 707 233zM1121 1822l120 120l120 -120l-120 -120zM803 1730l120 120l120 -120l-120 -120z" />
    <glyph glyph-name="uniFB9B" unicode="&#x6b1;" horiz-adv-x="1968" arabic-form="final" 
d="M1476 329q-7 -169 -175 -249t-515 -80q-243 0 -392.5 44.5t-218 142.5t-68.5 256q0 128 43 326l144 -34q-39 -177 -39 -279q0 -107 51.5 -171.5t169 -93t314.5 -28.5q580 0 580 212q0 168 -504 520l13 158q175 78 382 147t429 121l26 -162q-428 -104 -674 -204v-8
q109 -82 186 -145.5t132.5 -118.5t98 -109.5t81.5 -119.5q69 -116 127.5 -179.5t128 -87.5t171.5 -24h1v-163h-1q-188 0 -297 74.5t-184 254.5h-10zM1524 1596l16 -91q-364 -63 -680 -225l-43 83q324 165 707 233zM1121 1822l120 120l120 -120l-120 -120zM803 1730l120 120
l120 -120l-120 -120z" />
    <glyph glyph-name="uniFB9C" unicode="&#x6b1;" horiz-adv-x="836" arabic-form="initial" 
d="M854 1321l26 -162q-226 -55 -389.5 -105t-284.5 -99l-1 -8q175 -132 282 -231.5t156.5 -183t49.5 -168.5q0 -175 -148.5 -269.5t-423.5 -94.5h-121q-29 0 -29 82q0 81 29 81h118q418 0 418 209q0 62 -52 133.5t-163.5 166t-291.5 223.5l14 158q171 77 377 145.5
t434 122.5zM701 1596l16 -91q-364 -63 -680 -225l-43 83q324 165 707 233zM360 1822l120 120l120 -120l-120 -120zM42 1730l120 120l120 -120l-120 -120z" />
    <glyph glyph-name="uniFB9D" unicode="&#x6b1;" horiz-adv-x="1131" arabic-form="medial" 
d="M639 330q-9 -173 -136.5 -251.5t-381.5 -78.5h-121q-29 0 -29 81q0 82 29 82h118q212 0 313.5 54.5t101.5 153.5q0 55 -48.5 126.5t-159 169t-296.5 228.5l14 158q174 78 381 147t430 121l26 -162q-432 -105 -674 -204l-1 -8q141 -105 232 -184t152.5 -150.5
t113.5 -156.5q66 -112 122.5 -176t126.5 -90.5t178 -26.5h1v-163h-1q-187 0 -296.5 75t-184.5 255h-10zM701 1596l16 -91q-364 -63 -680 -225l-43 83q324 165 707 233zM360 1822l120 120l120 -120l-120 -120zM42 1730l120 120l120 -120l-120 -120z" />
    <glyph glyph-name="uniFB9E" unicode="&#x6ba;" horiz-adv-x="1539" arabic-form="isolated" 
d="M1139 602l147 69q76 -175 111.5 -307t35.5 -238q0 -197 -83.5 -325.5t-233.5 -191t-351 -62.5q-314 0 -485 139.5t-171 446.5q0 83 14 190t45 257l149 -33q-31 -155 -43 -247.5t-12 -158.5q0 -235 127.5 -333t372.5 -98q243 0 380.5 92.5t137.5 312.5q0 88 -32 199
t-109 288z" />
    <glyph glyph-name="uniFB9F" unicode="&#x6ba;" horiz-adv-x="1686" arabic-form="final" 
d="M168 540l149 -33q-31 -154 -43 -247t-12 -159q0 -232 128 -328.5t372 -96.5q521 0 521 377q0 83 -36 201t-114 308l142 69l73 -186q44 -110 84 -171.5t97 -86t150 -24.5h7v-163h-2q-167 0 -262 121l-9 -3q32 -300 -142 -452t-506 -152q-313 0 -484.5 137.5t-171.5 441.5
q0 83 14 189.5t45 257.5z" />
    <glyph glyph-name="uniFBA0" unicode="&#x6bb;" horiz-adv-x="1539" arabic-form="isolated" 
d="M620 373v325h64v-239h9q67 68 105 92t82 24q45 0 76.5 -35.5t31.5 -86.5q0 -144 -234 -144h-232v64h98zM676 373h78q91 0 132 18t41 58q0 27 -18.5 44t-47.5 17q-37 0 -75 -28t-110 -109zM1139 602l147 69q76 -175 111.5 -307t35.5 -238q0 -197 -83.5 -325.5t-233.5 -191
t-351 -62.5q-314 0 -485 139.5t-171 446.5q0 83 14 190t45 257l149 -33q-31 -155 -43 -247.5t-12 -158.5q0 -235 127.5 -333t372.5 -98q243 0 380.5 92.5t137.5 312.5q0 88 -32 199t-109 288z" />
    <glyph glyph-name="uniFBA1" unicode="&#x6bb;" horiz-adv-x="1686" arabic-form="final" 
d="M620 333v325h64v-239h9q67 68 105 92t82 24q45 0 76.5 -35.5t31.5 -86.5q0 -144 -234 -144h-232v64h98zM676 333h78q91 0 132 18t41 58q0 27 -18.5 44t-47.5 17q-37 0 -75 -28t-110 -109zM168 540l149 -33q-31 -154 -43 -247t-12 -159q0 -232 128 -328.5t372 -96.5
q521 0 521 377q0 83 -36 201t-114 308l142 69l73 -186q44 -110 84 -171.5t97 -86t150 -24.5h7v-163h-2q-167 0 -262 121l-9 -3q32 -300 -142 -452t-506 -152q-313 0 -484.5 137.5t-171.5 441.5q0 83 14 189.5t45 257.5z" />
    <glyph glyph-name="uniFBA2" unicode="&#x6bb;" horiz-adv-x="584" arabic-form="initial" 
d="M68 1127v417h81v-310h10q67 69 118.5 102.5t103.5 33.5q62 0 100.5 -42t38.5 -103q0 -91 -66.5 -136.5t-192.5 -45.5h-323v84h130zM138 1127h123q95 0 139.5 20.5t44.5 67.5q0 33 -21.5 53.5t-58.5 20.5q-49 0 -98 -36.5t-129 -125.5zM421 766q27 -106 43.5 -200.5
t16.5 -170.5q0 -191 -102.5 -293t-327.5 -102h-51q-29 0 -29 82q0 81 29 81h51q151 0 215 61t64 179q0 60 -15.5 142.5t-39.5 180.5z" />
    <glyph glyph-name="uniFBA3" unicode="&#x6bb;" horiz-adv-x="842" arabic-form="medial" 
d="M148 977v417h81v-310h10q67 69 118.5 102.5t103.5 33.5q62 0 100.5 -42t38.5 -103q0 -91 -66.5 -136.5t-192.5 -45.5h-323v84h130zM218 977h123q95 0 139.5 20.5t44.5 67.5q0 33 -21.5 53.5t-58.5 20.5q-49 0 -98 -36.5t-129 -125.5zM501 475q0 -102 20 -171.5t78 -105
t170 -35.5h73v-163h-77q-127 0 -218 61.5t-121 175.5h-10q-29 -115 -132 -176t-233 -61h-51q-29 0 -29 82q0 81 29 81h51q123 0 186 36t85 105.5t22 170.5v135h157v-135z" />
    <glyph glyph-name="uniFBA4" unicode="&#x6c0;" horiz-adv-x="898" arabic-form="isolated" 
d="M447 -11q-161 0 -252 89.5t-91 225.5q0 135 74 259.5t177 225.5q-53 50 -101 91l97 116q129 -107 229.5 -218t157.5 -226.5t57 -236.5q0 -142 -95 -234t-253 -92zM447 153q100 0 147 49.5t47 127.5q0 86 -52.5 182.5t-141.5 178.5q-87 -81 -140.5 -178t-53.5 -183
q0 -78 47 -127.5t147 -49.5zM333 1204q-27 0 -55.5 3t-57.5 7l20 91q24 -5 51.5 -7.5t53.5 -2.5q46 0 91 9t74.5 29t29.5 53q0 32 -32.5 43t-85.5 19q-61 11 -106 35.5t-45 94.5q0 102 68.5 163t165.5 61q56 0 110 -19l-30 -86q-38 13 -82 13q-60 0 -105.5 -29t-45.5 -83
q0 -37 31.5 -49.5t84.5 -21.5q62 -9 108.5 -33.5t46.5 -96.5q0 -96 -85.5 -144.5t-204.5 -48.5z" />
    <glyph glyph-name="uniFBA6" unicode="&#x6c1;" horiz-adv-x="898" arabic-form="isolated" 
d="M447 -11q-161 0 -252 89.5t-91 225.5q0 135 74 259.5t177 225.5q-53 50 -101 91l97 116q129 -107 229.5 -218t157.5 -226.5t57 -236.5q0 -142 -95 -234t-253 -92zM447 153q100 0 147 49.5t47 127.5q0 86 -52.5 182.5t-141.5 178.5q-87 -81 -140.5 -178t-53.5 -183
q0 -78 47 -127.5t147 -49.5z" />
    <glyph glyph-name="uniFBA7" unicode="&#x6c1;" horiz-adv-x="1234" arabic-form="final" 
d="M1234 163v-163h-1q-116 0 -213.5 35.5t-179.5 92t-153 119.5q-34 31 -65 57.5t-60 48.5q-46 33 -85 33q-47 0 -82 -58q-23 -31 -42.5 -78.5t-36.5 -105.5q-19 -69 -32.5 -143.5t-24.5 -144.5l-155 26q11 70 25 145.5t35 147.5q18 68 42.5 128t58.5 105q77 148 204 148
q41 0 79 -13.5t76 -36.5q36 -22 72 -52.5t75 -65.5q101 -93 209 -159t253 -66h1z" />
    <glyph glyph-name="uniFBA8" unicode="&#x6c1;" horiz-adv-x="584" arabic-form="initial" 
d="M79 -518l12 -3q32 27 69 27q39 0 70 -33t31 -86q0 -62 -34.5 -98t-93.5 -36q-70 0 -108.5 52t-38.5 146q0 197 187 338l58 -72q-76 -52 -111.5 -107.5t-40.5 -127.5zM421 766q27 -106 43.5 -200.5t16.5 -170.5q0 -191 -102.5 -293t-327.5 -102h-51q-29 0 -29 82
q0 81 29 81h51q151 0 215 61t64 179q0 60 -15.5 142.5t-39.5 180.5z" />
    <glyph glyph-name="uniFBA9" unicode="&#x6c1;" horiz-adv-x="1036" arabic-form="medial" 
d="M0 163q113 0 183 49t116 136.5t83 202.5l141 -43q-68 -202 -68 -379q0 -143 44.5 -274t135.5 -217q19 126 47 220t69 158q41 70 102 108.5t152 38.5h31v-163h-31q-68 0 -107 -25.5t-68 -76.5q-69 -105 -103 -397l-103 -53q-154 97 -227 296t-57 448l-9 4
q-54 -92 -133 -144t-198 -52q-29 0 -29 81q0 82 29 82z" />
    <glyph glyph-name="uniFBAA" unicode="&#x6be;" horiz-adv-x="1504" arabic-form="isolated" 
d="M143 -97l-38 158q111 20 208 48.5t177 63.5q-99 67 -159 153.5t-60 177.5q0 104 61 188.5t163 112.5l1 10l-174 75l64 143l519 -223q182 -76 290.5 -148.5t156 -154t47.5 -185.5q0 -155 -98 -244t-270 -89q-106 0 -207.5 23.5t-191.5 65.5q-98 -60 -222 -105t-267 -70z
M634 244q92 56 142 123t50 138q0 109 -51.5 169.5t-142.5 60.5q-61 0 -112 -31t-81.5 -82.5t-30.5 -113.5q0 -75 63 -144.5t163 -119.5zM766 200q64 -22 133 -35t141 -13q225 0 225 177q0 93 -78 163t-271 149q45 -128 5.5 -240.5t-155.5 -200.5z" />
    <glyph glyph-name="uniFBAB" unicode="&#x6be;" horiz-adv-x="1144" arabic-form="final" 
d="M705 853l-9 156l157 9l34 -562q7 -115 31 -179t77.5 -89t147.5 -25h1v-163h-1q-140 0 -223.5 48.5t-127.5 145.5q-113 -45 -236 -45q-106 0 -193.5 31t-139 92t-51.5 152q0 164 142 276.5t391 152.5zM715 700q-184 -20 -291.5 -85.5t-107.5 -163.5q0 -79 74 -114.5
t176 -35.5q98 0 182 26q-6 29 -9.5 57t-5.5 59z" />
    <glyph glyph-name="uniFBAC" unicode="&#x6be;" horiz-adv-x="1362" arabic-form="initial" 
d="M0 163h50q83 0 145.5 9t126.5 31q-193 137 -193 301q0 104 61 188.5t163 112.5l1 10l-174 75l64 143l518 -223q182 -76 290.5 -148.5t156 -154t47.5 -185.5q0 -155 -98 -244t-270 -89q-201 0 -411 111q-98 -52 -194 -76t-216 -24h-67q-29 0 -29 82q0 81 29 81zM482 242
q95 48 148 117t53 146q0 109 -51.5 169.5t-142.5 60.5q-60 0 -111 -32t-81.5 -84.5t-30.5 -116.5q0 -70 56.5 -138.5t159.5 -121.5zM630 207q68 -25 138 -40t130 -15q224 0 224 177q0 93 -78 163t-270 149q50 -133 12.5 -244.5t-156.5 -189.5z" />
    <glyph glyph-name="uniFBAD" unicode="&#x6be;" horiz-adv-x="1036" arabic-form="medial" 
d="M551 833q135 0 212 -89t77 -220q0 -102 -53 -197t-152 -154v-10h401v-163h-370v-10q101 -50 151.5 -126t50.5 -165q0 -129 -76 -202.5t-210 -73.5q-184 0 -291 148.5t-125 428.5h-166q-29 0 -29 80q0 83 29 83h162q7 314 108 492t281 178zM282 163h158q73 0 135 50
t100 126t38 154q0 83 -45.5 132.5t-116.5 49.5q-122 0 -195.5 -136.5t-73.5 -375.5zM578 -419q74 0 115 37.5t41 105.5q0 70 -39 133t-105.5 103t-149.5 40h-157q9 -205 86 -312t209 -107z" />
    <glyph glyph-name="uniFBAE" unicode="&#x6d2;" horiz-adv-x="1473" arabic-form="isolated" 
d="M462 0q-97 0 -178.5 26t-130.5 85.5t-49 161.5q0 143 91.5 255t254 176t375.5 64h216v-163h-217q-176 0 -302 -44t-193 -115.5t-67 -154.5q0 -73 56.5 -100.5t142.5 -27.5h909v-163h-908z" />
    <glyph glyph-name="uniFBAF" unicode="&#x6d2;" horiz-adv-x="1329" arabic-form="final" 
d="M462 -605q-97 0 -178.5 26t-130.5 85.5t-49 161.5q0 143 91.5 255t254 176t375.5 64h504v-163h-505q-176 0 -302 -44t-193 -115.5t-67 -154.5q0 -73 56.5 -100.5t142.5 -27.5h721v-163h-720z" />
    <glyph glyph-name="uniFBB0" unicode="&#x6d3;" horiz-adv-x="1473" arabic-form="isolated" 
d="M944 1493l-25 -76q-38 16 -77 16q-57 0 -93.5 -32t-36.5 -82q0 -46 31.5 -72t82.5 -26q37 0 80 13l103 32l25 -81l-457 -146l-25 84l176 51v10q-93 35 -93 140q0 82 58.5 137.5t147.5 55.5q26 0 51.5 -6.5t51.5 -17.5zM462 0q-97 0 -178.5 26t-130.5 85.5t-49 161.5
q0 143 91.5 255t254 176t375.5 64h216v-163h-217q-176 0 -302 -44t-193 -115.5t-67 -154.5q0 -73 56.5 -100.5t142.5 -27.5h909v-163h-908z" />
    <glyph glyph-name="uniFBB1" unicode="&#x6d3;" horiz-adv-x="1329" arabic-form="final" 
d="M950 886l-25 -76q-38 16 -77 16q-57 0 -93.5 -32t-36.5 -82q0 -46 31.5 -72t82.5 -26q37 0 80 13l103 32l25 -81l-457 -146l-25 84l176 51v10q-93 35 -93 140q0 82 58.5 137.5t147.5 55.5q26 0 51.5 -6.5t51.5 -17.5zM462 -605q-97 0 -178.5 26t-130.5 85.5t-49 161.5
q0 143 91.5 255t254 176t375.5 64h504v-163h-505q-176 0 -302 -44t-193 -115.5t-67 -154.5q0 -73 56.5 -100.5t142.5 -27.5h721v-163h-720z" />
    <glyph glyph-name="uniFBD3" unicode="&#x6ad;" horiz-adv-x="1664" arabic-form="isolated" 
d="M668 1622l131 132l132 -132l-132 -131zM842 1315l131 131l132 -131l-132 -132zM494 1315l131 131l131 -131l-131 -132zM685 467q-27 0 -55.5 3t-57.5 7l20 91q24 -5 51.5 -7.5t53.5 -2.5q46 0 91 9t74.5 29t29.5 53q0 32 -32.5 43t-85.5 19q-61 11 -106 35.5t-45 94.5
q0 102 68.5 163t165.5 61q56 0 110 -19l-30 -86q-38 13 -82 13q-60 0 -105.5 -29t-45.5 -83q0 -37 31.5 -49.5t84.5 -21.5q62 -9 108.5 -33.5t46.5 -96.5q0 -96 -85.5 -144.5t-204.5 -48.5zM796 163q204 0 324.5 26t173 96.5t52.5 203.5v831h157v-831q0 -183 -77 -290
t-237 -153t-411 -46q-240 0 -388.5 39.5t-217 129t-68.5 238.5q0 60 10 134t26 141l141 -31q-13 -57 -22.5 -126t-9.5 -113q0 -95 51 -149.5t170.5 -77t325.5 -22.5z" />
    <glyph glyph-name="uniFBD4" unicode="&#x6ad;" horiz-adv-x="1841" arabic-form="final" 
d="M668 1622l131 132l132 -132l-132 -131zM842 1315l131 131l132 -131l-132 -132zM494 1315l131 131l131 -131l-131 -132zM685 467q-27 0 -55.5 3t-57.5 7l20 91q24 -5 51.5 -7.5t53.5 -2.5q46 0 91 9t74.5 29t29.5 53q0 32 -32.5 43t-85.5 19q-61 11 -106 35.5t-45 94.5
q0 102 68.5 163t165.5 61q56 0 110 -19l-30 -86q-38 13 -82 13q-60 0 -105.5 -29t-45.5 -83q0 -37 31.5 -49.5t84.5 -21.5q62 -9 108.5 -33.5t46.5 -96.5q0 -96 -85.5 -144.5t-204.5 -48.5zM1503 492q0 -173 81 -251t256 -78h1v-163h-1q-165 0 -271.5 66.5t-135.5 197.5h-10
q-40 -144 -191.5 -204t-439.5 -60q-248 0 -399.5 39.5t-220 129.5t-68.5 239q0 57 10 130.5t26 143.5l141 -31q-14 -61 -23 -128.5t-9 -110.5q0 -95 51.5 -149.5t171.5 -77t325 -22.5q213 0 332.5 29t168 100t48.5 197v831h157v-828z" />
    <glyph glyph-name="uniFBD5" unicode="&#x6ad;" horiz-adv-x="836" arabic-form="initial" 
d="M210 1780l120 120l120 -120l-120 -120zM434 1561l120 120l120 -120l-120 -120zM116 1470l120 120l120 -120l-120 -120zM854 1321l26 -162q-226 -55 -389.5 -105t-284.5 -99l-1 -8q175 -132 282 -231.5t156.5 -183t49.5 -168.5q0 -175 -148.5 -269.5t-423.5 -94.5h-121
q-29 0 -29 82q0 81 29 81h118q418 0 418 209q0 62 -52 133.5t-163.5 166t-291.5 223.5l14 158q171 77 377 145.5t434 122.5z" />
    <glyph glyph-name="uniFBD6" unicode="&#x6ad;" horiz-adv-x="1131" arabic-form="medial" 
d="M210 1780l120 120l120 -120l-120 -120zM434 1561l120 120l120 -120l-120 -120zM116 1470l120 120l120 -120l-120 -120zM639 330q-9 -173 -136.5 -251.5t-381.5 -78.5h-121q-29 0 -29 81q0 82 29 82h118q212 0 313.5 54.5t101.5 153.5q0 55 -48.5 126.5t-159 169
t-296.5 228.5l14 158q174 78 381 147t430 121l26 -162q-432 -105 -674 -204l-1 -8q141 -105 232 -184t152.5 -150.5t113.5 -156.5q66 -112 122.5 -176t126.5 -90.5t178 -26.5h1v-163h-1q-187 0 -296.5 75t-184.5 255h-10z" />
    <glyph glyph-name="uniFBD7" unicode="&#x6c7;" horiz-adv-x="957" arabic-form="isolated" 
d="M562 1515q65 0 104 -47t39 -124q0 -87 -56 -158t-154.5 -124t-224.5 -88l-25 83q62 17 135.5 47.5t129.5 65.5q-51 18 -95.5 55.5t-44.5 102.5q0 46 26 88.5t69.5 70.5t96.5 28zM552 1433q-39 0 -72.5 -32.5t-33.5 -72.5q0 -44 42.5 -68t88.5 -36q44 52 44 116
q0 38 -17.5 65.5t-51.5 27.5zM703 14l-6 10q-50 -14 -110 -23.5t-126 -9.5q-156 0 -246.5 73t-90.5 230q0 116 37.5 222.5t114 174t192.5 67.5q108 0 182 -61.5t119.5 -162.5t65.5 -220.5t20 -236.5q0 -226 -185 -375.5t-520 -238.5l-63 150q274 62 434 165t182 236z
M703 180q-3 65 -16.5 137t-41 134.5t-72 102t-109.5 39.5q-70 0 -115.5 -42.5t-68 -107t-22.5 -130.5q0 -93 56 -128t151 -35q68 0 127.5 9t110.5 21z" />
    <glyph glyph-name="uniFBD8" unicode="&#x6c7;" horiz-adv-x="932" arabic-form="final" 
d="M562 1515q65 0 104 -47t39 -124q0 -87 -56 -158t-154.5 -124t-224.5 -88l-25 83q62 17 135.5 47.5t129.5 65.5q-51 18 -95.5 55.5t-44.5 102.5q0 46 26 88.5t69.5 70.5t96.5 28zM552 1433q-39 0 -72.5 -32.5t-33.5 -72.5q0 -44 42.5 -68t88.5 -36q44 52 44 116
q0 38 -17.5 65.5t-51.5 27.5zM705 -5l-7 9q-61 -2 -120.5 -3t-118.5 -1q-154 0 -244.5 73t-90.5 230q0 115 37.5 219t114 170t192.5 66q100 0 170 -53t114.5 -141t67.5 -192.5t30 -208.5h82v-163h-87q-22 -193 -204.5 -324.5t-490.5 -212.5l-63 150q266 61 428 158.5
t190 223.5zM705 160q-3 67 -15.5 142.5t-40 141.5t-72.5 107.5t-113 41.5q-70 0 -115.5 -40t-68 -102t-22.5 -129q0 -93 56 -128.5t151 -35.5q59 0 119 0.5t121 1.5z" />
    <glyph glyph-name="uniFBD9" unicode="&#x6c6;" horiz-adv-x="957" arabic-form="isolated" 
d="M503 1038h-74l-212 269l70 56l179 -231l179 231l70 -56zM703 14l-6 10q-50 -14 -110 -23.5t-126 -9.5q-156 0 -246.5 73t-90.5 230q0 116 37.5 222.5t114 174t192.5 67.5q108 0 182 -61.5t119.5 -162.5t65.5 -220.5t20 -236.5q0 -226 -185 -375.5t-520 -238.5l-63 150
q274 62 434 165t182 236zM703 180q-3 65 -16.5 137t-41 134.5t-72 102t-109.5 39.5q-70 0 -115.5 -42.5t-68 -107t-22.5 -130.5q0 -93 56 -128t151 -35q68 0 127.5 9t110.5 21z" />
    <glyph glyph-name="uniFBDA" unicode="&#x6c6;" horiz-adv-x="932" arabic-form="final" 
d="M503 1038h-74l-212 269l70 56l179 -231l179 231l70 -56zM705 -5l-7 9q-61 -2 -120.5 -3t-118.5 -1q-154 0 -244.5 73t-90.5 230q0 115 37.5 219t114 170t192.5 66q100 0 170 -53t114.5 -141t67.5 -192.5t30 -208.5h82v-163h-87q-22 -193 -204.5 -324.5t-490.5 -212.5
l-63 150q266 61 428 158.5t190 223.5zM705 160q-3 67 -15.5 142.5t-40 141.5t-72.5 107.5t-113 41.5q-70 0 -115.5 -40t-68 -102t-22.5 -129q0 -93 56 -128.5t151 -35.5q59 0 119 0.5t121 1.5z" />
    <glyph glyph-name="uniFBDB" unicode="&#x6c8;" horiz-adv-x="957" arabic-form="isolated" 
d="M426 1378h88v-362h-88v362zM703 14l-6 10q-50 -14 -110 -23.5t-126 -9.5q-156 0 -246.5 73t-90.5 230q0 116 37.5 222.5t114 174t192.5 67.5q108 0 182 -61.5t119.5 -162.5t65.5 -220.5t20 -236.5q0 -226 -185 -375.5t-520 -238.5l-63 150q274 62 434 165t182 236z
M703 180q-3 65 -16.5 137t-41 134.5t-72 102t-109.5 39.5q-70 0 -115.5 -42.5t-68 -107t-22.5 -130.5q0 -93 56 -128t151 -35q68 0 127.5 9t110.5 21z" />
    <glyph glyph-name="uniFBDC" unicode="&#x6c8;" horiz-adv-x="932" arabic-form="final" 
d="M426 1378h88v-362h-88v362zM705 -5l-7 9q-61 -2 -120.5 -3t-118.5 -1q-154 0 -244.5 73t-90.5 230q0 115 37.5 219t114 170t192.5 66q100 0 170 -53t114.5 -141t67.5 -192.5t30 -208.5h82v-163h-87q-22 -193 -204.5 -324.5t-490.5 -212.5l-63 150q266 61 428 158.5
t190 223.5zM705 160q-3 67 -15.5 142.5t-40 141.5t-72.5 107.5t-113 41.5q-70 0 -115.5 -40t-68 -102t-22.5 -129q0 -93 56 -128.5t151 -35.5q59 0 119 0.5t121 1.5z" />
    <glyph glyph-name="uniFBDD" unicode="&#x677;" horiz-adv-x="957" arabic-form="isolated" 
d="M310 1501q65 0 104 -47t39 -124q0 -87 -56 -158t-154.5 -124t-224.5 -88l-25 83q62 17 135.5 47.5t129.5 65.5q-51 18 -95.5 55.5t-44.5 102.5q0 46 26 88.5t69.5 70.5t96.5 28zM300 1419q-39 0 -72.5 -32.5t-33.5 -72.5q0 -44 42.5 -68t88.5 -36q44 52 44 116
q0 38 -17.5 65.5t-51.5 27.5zM874 1424l-25 -76q-38 16 -77 16q-57 0 -93.5 -32t-36.5 -82q0 -46 31.5 -72t82.5 -26q37 0 80 13l103 32l25 -81l-457 -146l-25 84l176 51v10q-93 35 -93 140q0 82 58.5 137.5t147.5 55.5q26 0 51.5 -6.5t51.5 -17.5zM703 14l-6 10
q-50 -14 -110 -23.5t-126 -9.5q-156 0 -246.5 73t-90.5 230q0 116 37.5 222.5t114 174t192.5 67.5q108 0 182 -61.5t119.5 -162.5t65.5 -220.5t20 -236.5q0 -226 -185 -375.5t-520 -238.5l-63 150q274 62 434 165t182 236zM703 180q-3 65 -16.5 137t-41 134.5t-72 102
t-109.5 39.5q-70 0 -115.5 -42.5t-68 -107t-22.5 -130.5q0 -93 56 -128t151 -35q68 0 127.5 9t110.5 21z" />
    <glyph glyph-name="uniFBDE" unicode="&#x6cb;" horiz-adv-x="957" arabic-form="isolated" 
d="M340 1459l131 132l132 -132l-132 -131zM514 1152l131 131l132 -131l-132 -132zM166 1152l131 131l131 -131l-131 -132zM703 14l-6 10q-50 -14 -110 -23.5t-126 -9.5q-156 0 -246.5 73t-90.5 230q0 116 37.5 222.5t114 174t192.5 67.5q108 0 182 -61.5t119.5 -162.5
t65.5 -220.5t20 -236.5q0 -226 -185 -375.5t-520 -238.5l-63 150q274 62 434 165t182 236zM703 180q-3 65 -16.5 137t-41 134.5t-72 102t-109.5 39.5q-70 0 -115.5 -42.5t-68 -107t-22.5 -130.5q0 -93 56 -128t151 -35q68 0 127.5 9t110.5 21z" />
    <glyph glyph-name="uniFBDF" unicode="&#x6cb;" horiz-adv-x="932" arabic-form="final" 
d="M340 1459l131 132l132 -132l-132 -131zM514 1152l131 131l132 -131l-132 -132zM166 1152l131 131l131 -131l-131 -132zM705 -5l-7 9q-61 -2 -120.5 -3t-118.5 -1q-154 0 -244.5 73t-90.5 230q0 115 37.5 219t114 170t192.5 66q100 0 170 -53t114.5 -141t67.5 -192.5
t30 -208.5h82v-163h-87q-22 -193 -204.5 -324.5t-490.5 -212.5l-63 150q266 61 428 158.5t190 223.5zM705 160q-3 67 -15.5 142.5t-40 141.5t-72.5 107.5t-113 41.5q-70 0 -115.5 -40t-68 -102t-22.5 -129q0 -93 56 -128.5t151 -35.5q59 0 119 0.5t121 1.5z" />
    <glyph glyph-name="uniFBE0" unicode="&#x6c5;" horiz-adv-x="957" arabic-form="isolated" 
d="M728 -139v-77h-517v77h517zM703 14l-6 10q-50 -14 -110 -23.5t-126 -9.5q-156 0 -246.5 73t-90.5 230q0 116 37.5 222.5t114 174t192.5 67.5q108 0 182 -61.5t119.5 -162.5t65.5 -220.5t20 -236.5q0 -226 -185 -375.5t-520 -238.5l-63 150q274 62 434 165t182 236z
M703 180q-3 65 -16.5 137t-41 134.5t-72 102t-109.5 39.5q-70 0 -115.5 -42.5t-68 -107t-22.5 -130.5q0 -93 56 -128t151 -35q68 0 127.5 9t110.5 21z" />
    <glyph glyph-name="uniFBE1" unicode="&#x6c5;" horiz-adv-x="932" arabic-form="final" 
d="M728 -139v-77h-517v77h517zM705 -5l-7 9q-61 -2 -120.5 -3t-118.5 -1q-154 0 -244.5 73t-90.5 230q0 115 37.5 219t114 170t192.5 66q100 0 170 -53t114.5 -141t67.5 -192.5t30 -208.5h82v-163h-87q-22 -193 -204.5 -324.5t-490.5 -212.5l-63 150q266 61 428 158.5
t190 223.5zM705 160q-3 67 -15.5 142.5t-40 141.5t-72.5 107.5t-113 41.5q-70 0 -115.5 -40t-68 -102t-22.5 -129q0 -93 56 -128.5t151 -35.5q59 0 119 0.5t121 1.5z" />
    <glyph glyph-name="uniFBE2" unicode="&#x6c9;" horiz-adv-x="957" arabic-form="isolated" 
d="M436 1360h74l212 -269l-70 -56l-179 231l-179 -231l-70 56zM703 14l-6 10q-50 -14 -110 -23.5t-126 -9.5q-156 0 -246.5 73t-90.5 230q0 116 37.5 222.5t114 174t192.5 67.5q108 0 182 -61.5t119.5 -162.5t65.5 -220.5t20 -236.5q0 -226 -185 -375.5t-520 -238.5l-63 150
q274 62 434 165t182 236zM703 180q-3 65 -16.5 137t-41 134.5t-72 102t-109.5 39.5q-70 0 -115.5 -42.5t-68 -107t-22.5 -130.5q0 -93 56 -128t151 -35q68 0 127.5 9t110.5 21z" />
    <glyph glyph-name="uniFBE3" unicode="&#x6c9;" horiz-adv-x="932" arabic-form="final" 
d="M436 1360h74l212 -269l-70 -56l-179 231l-179 -231l-70 56zM705 -5l-7 9q-61 -2 -120.5 -3t-118.5 -1q-154 0 -244.5 73t-90.5 230q0 115 37.5 219t114 170t192.5 66q100 0 170 -53t114.5 -141t67.5 -192.5t30 -208.5h82v-163h-87q-22 -193 -204.5 -324.5t-490.5 -212.5
l-63 150q266 61 428 158.5t190 223.5zM705 160q-3 67 -15.5 142.5t-40 141.5t-72.5 107.5t-113 41.5q-70 0 -115.5 -40t-68 -102t-22.5 -129q0 -93 56 -128.5t151 -35.5q59 0 119 0.5t121 1.5z" />
    <glyph glyph-name="uniFBE4" unicode="&#x6d0;" horiz-adv-x="1512" arabic-form="isolated" 
d="M629 -752l131 131l132 -131l-132 -132zM629 -1101l131 131l132 -131l-132 -132zM1366 759l-55 -141q-104 49 -207 49q-88 0 -159.5 -39t-113.5 -107t-42 -157q0 -68 37.5 -100t105.5 -44t161 -20q87 -6 157.5 -26t112.5 -67.5t42 -138.5q0 -126 -89.5 -220t-246.5 -146
t-359 -52q-285 0 -442 125t-157 362q0 83 11 188.5t33 235.5l152 -27q-25 -136 -35 -223t-10 -165q0 -171 113 -252.5t336 -81.5q154 0 277.5 29.5t196.5 82t73 119.5q0 50 -32 72.5t-84.5 30.5t-114.5 12q-106 8 -193 31.5t-138 83t-51 174.5q0 136 62.5 243t168.5 169.5
t235 62.5q123 0 255 -63z" />
    <glyph glyph-name="uniFBE5" unicode="&#x6d0;" horiz-adv-x="1463" arabic-form="final" 
d="M616 -830l125 125l125 -125l-125 -125zM616 -1142l125 125l125 -125l-125 -125zM1133 -10q128 -49 179 -99.5t51 -127.5q0 -97 -83.5 -174t-227.5 -122t-327 -45q-317 0 -468.5 129t-151.5 399q0 91 13 217.5t36 276.5l146 -29q-22 -142 -34.5 -259t-12.5 -195
q0 -199 110.5 -287t360.5 -88q142 0 249 26t167.5 72t60.5 106q0 42 -39 72t-139 59.5t-285 67.5l23 174h702v-163h-330v-10z" />
    <glyph glyph-name="uniFBE6" unicode="&#x6d0;" horiz-adv-x="584" arabic-form="initial" 
d="M12 -359l131 131l132 -131l-132 -132zM12 -708l131 131l132 -131l-132 -132zM421 766q27 -106 43.5 -200.5t16.5 -170.5q0 -191 -102.5 -293t-327.5 -102h-51q-29 0 -29 82q0 81 29 81h51q151 0 215 61t64 179q0 60 -15.5 142.5t-39.5 180.5z" />
    <glyph glyph-name="uniFBE7" unicode="&#x6d0;" horiz-adv-x="842" arabic-form="medial" 
d="M12 -359l131 131l132 -131l-132 -132zM12 -708l131 131l132 -131l-132 -132zM501 475q0 -102 20 -171.5t78 -105t170 -35.5h73v-163h-77q-127 0 -218 61.5t-121 175.5h-10q-29 -115 -132 -176t-233 -61h-51q-29 0 -29 82q0 81 29 81h51q123 0 186 36t85 105.5t22 170.5
v135h157v-135z" />
    <glyph glyph-name="uniFBE8" unicode="&#x649;" horiz-adv-x="584" arabic-form="initial" 
d="M421 766q27 -106 43.5 -200.5t16.5 -170.5q0 -191 -102.5 -293t-327.5 -102h-51q-29 0 -29 82q0 81 29 81h51q151 0 215 61t64 179q0 60 -15.5 142.5t-39.5 180.5z" />
    <glyph glyph-name="uniFBE9" unicode="&#x649;" horiz-adv-x="842" arabic-form="medial" 
d="M501 475q0 -102 20 -171.5t78 -105t170 -35.5h73v-163h-77q-127 0 -218 61.5t-121 175.5h-10q-29 -115 -132 -176t-233 -61h-51q-29 0 -29 82q0 81 29 81h51q123 0 186 36t85 105.5t22 170.5v135h157v-135z" />
    <glyph glyph-name="uniFBFC" unicode="&#x6cc;" horiz-adv-x="1512" arabic-form="isolated" 
d="M1366 759l-55 -141q-104 49 -207 49q-88 0 -159.5 -39t-113.5 -107t-42 -157q0 -68 37.5 -100t105.5 -44t161 -20q87 -6 157.5 -26t112.5 -67.5t42 -138.5q0 -126 -89.5 -220t-246.5 -146t-359 -52q-285 0 -442 125t-157 362q0 83 11 188.5t33 235.5l152 -27
q-25 -136 -35 -223t-10 -165q0 -171 113 -252.5t336 -81.5q154 0 277.5 29.5t196.5 82t73 119.5q0 50 -32 72.5t-84.5 30.5t-114.5 12q-106 8 -193 31.5t-138 83t-51 174.5q0 136 62.5 243t168.5 169.5t235 62.5q123 0 255 -63z" />
    <glyph glyph-name="uniFBFD" unicode="&#x6cc;" horiz-adv-x="1463" arabic-form="final" 
d="M1133 -10q128 -49 179 -99.5t51 -127.5q0 -97 -83.5 -174t-227.5 -122t-327 -45q-317 0 -468.5 129t-151.5 399q0 91 13 217.5t36 276.5l146 -29q-22 -142 -34.5 -259t-12.5 -195q0 -199 110.5 -287t360.5 -88q142 0 249 26t167.5 72t60.5 106q0 42 -39 72t-139 59.5
t-285 67.5l23 174h702v-163h-330v-10z" />
    <glyph glyph-name="uniFBFE" unicode="&#x6cc;" horiz-adv-x="584" arabic-form="initial" 
d="M421 766q27 -106 43.5 -200.5t16.5 -170.5q0 -191 -102.5 -293t-327.5 -102h-51q-29 0 -29 82q0 81 29 81h51q151 0 215 61t64 179q0 60 -15.5 142.5t-39.5 180.5zM-172 -359l131 131l131 -131l-131 -132zM176 -359l131 131l132 -131l-132 -132z" />
    <glyph glyph-name="uniFBFF" unicode="&#x6cc;" horiz-adv-x="842" arabic-form="medial" 
d="M501 475q0 -102 20 -171.5t78 -105t170 -35.5h73v-163h-77q-127 0 -218 61.5t-121 175.5h-10q-29 -115 -132 -176t-233 -61h-51q-29 0 -29 82q0 81 29 81h51q123 0 186 36t85 105.5t22 170.5v135h157v-135zM-203 -359l131 131l131 -131l-131 -132zM145 -359l131 131
l132 -131l-132 -132z" />
    <glyph glyph-name="uniFCF2" unicode="&#xfcf2;" horiz-adv-x="889" arabic-form="medial" 
d="M0 163h889v-163h-889q-16 0 -22.5 18t-6.5 64t6.5 63.5t22.5 17.5zM666 1230l27 -85l-457 -145l-27 86zM442 695q-16 -99 -114 -99q-60 0 -93.5 35.5t-33.5 99.5q0 41 8 80t24 85l70 -23q-11 -34 -19 -66.5t-8 -56.5q0 -66 63 -66q40 0 56.5 29.5t16.5 104.5v20h70v-20
q0 -75 16.5 -104.5t56.5 -29.5q62 0 62 66q0 24 -7 56.5t-18 66.5l69 23q16 -46 24.5 -85t8.5 -80q0 -64 -33.5 -99.5t-94.5 -35.5q-98 0 -114 99h-10z" />
    <glyph glyph-name="uniFCF3" unicode="&#xfcf3;" horiz-adv-x="889" arabic-form="medial" 
d="M0 163h889v-163h-889q-16 0 -22.5 18t-6.5 64t6.5 63.5t22.5 17.5zM537 1520q65 0 104 -47t39 -124q0 -87 -56 -158t-154.5 -124t-224.5 -88l-25 83q62 17 135.5 47.5t129.5 65.5q-51 18 -95.5 55.5t-44.5 102.5q0 46 26 88.5t69.5 70.5t96.5 28zM527 1438
q-39 0 -72.5 -32.5t-33.5 -72.5q0 -44 42.5 -68t88.5 -36q44 52 44 116q0 38 -17.5 65.5t-51.5 27.5zM442 695q-16 -99 -114 -99q-60 0 -93.5 35.5t-33.5 99.5q0 41 8 80t24 85l70 -23q-11 -34 -19 -66.5t-8 -56.5q0 -66 63 -66q40 0 56.5 29.5t16.5 104.5v20h70v-20
q0 -75 16.5 -104.5t56.5 -29.5q62 0 62 66q0 24 -7 56.5t-18 66.5l69 23q16 -46 24.5 -85t8.5 -80q0 -64 -33.5 -99.5t-94.5 -35.5q-98 0 -114 99h-10z" />
    <glyph glyph-name="uniFCF4" unicode="&#xfcf4;" horiz-adv-x="889" arabic-form="medial" 
d="M0 163h889v-163h-889q-16 0 -22.5 18t-6.5 64t6.5 63.5t22.5 17.5zM666 836l27 -85l-457 -145l-27 86zM442 1026q-16 -99 -114 -99q-60 0 -93.5 35.5t-33.5 99.5q0 41 8 80t24 85l70 -23q-11 -34 -19 -66.5t-8 -56.5q0 -66 63 -66q40 0 56.5 29.5t16.5 104.5v20h70v-20
q0 -75 16.5 -104.5t56.5 -29.5q62 0 62 66q0 24 -7 56.5t-18 66.5l69 23q16 -46 24.5 -85t8.5 -80q0 -64 -33.5 -99.5t-94.5 -35.5q-98 0 -114 99h-10z" />
    <glyph glyph-name="uniFD3C" unicode="&#xfd3c;" horiz-adv-x="606" arabic-form="final" 
d="M162 1169h157v-738q0 -143 62.5 -205.5t223.5 -62.5h1v-163h-1q-217 0 -330 107t-113 321v741zM465 1797l27 -85l-457 -145l-27 86zM465 1556l27 -85l-457 -145l-27 86z" />
    <glyph glyph-name="uniFD3D" unicode="&#xfd3d;" horiz-adv-x="516" arabic-form="isolated" 
d="M337 1169v-1169h-157v1169h157zM474 1797l27 -85l-457 -145l-27 86zM474 1556l27 -85l-457 -145l-27 86z" />
    <glyph glyph-name="uniFDFC" unicode="&#xfdfc;" horiz-adv-x="3287" arabic-form="isolated" 
d="M2334 766q27 -106 43.5 -200.5t16.5 -170.5q0 -191 -102.5 -293t-327.5 -102h-51q-29 0 -29 82q0 81 29 81h51q151 0 215 61t64 179q0 60 -15.5 142.5t-39.5 180.5zM1741 -359l131 131l131 -131l-131 -132zM2089 -359l131 131l132 -131l-132 -132zM2904 584l147 52
q56 -164 88 -303t32 -249q0 -214 -142 -363t-452 -262l-68 148q266 95 386.5 203.5t120.5 268.5q0 92 -30 224.5t-82 280.5zM1476 1322h157v-891q0 -143 62.5 -205.5t223.5 -62.5h1v-163h-1q-217 0 -330 107t-113 321v894zM648 -347q210 0 310 106.5t100 329.5v1233h157
v-1243q0 -292 -151.5 -440.5t-434.5 -148.5q-249 0 -387 131t-138 372q0 86 18.5 187.5t59.5 228.5l141 -42q-35 -106 -52 -199t-17 -166q0 -349 394 -349z" />
    <glyph glyph-name="uniFE80" unicode="&#x621;" horiz-adv-x="900" arabic-form="isolated" 
d="M146 427q0 102 45 176.5t117.5 114.5t152.5 40q73 0 135.5 -27.5t120.5 -79.5l-56 -73q-45 37 -92 56t-102 19q-90 0 -156 -63.5t-66 -159.5q0 -88 67.5 -138t178.5 -50q117 0 272 53l34 -96l-664 -208l-29 98l291 81v10q-107 10 -178 76.5t-71 170.5z" />
    <glyph glyph-name="uniFE81" unicode="&#x622;" horiz-adv-x="516" arabic-form="isolated" 
d="M498 1615l73 -36q-36 -94 -79 -135.5t-106 -41.5q-30 0 -61.5 12.5t-78.5 39.5q-45 26 -66.5 34t-41.5 8q-34 0 -59.5 -25.5t-64.5 -98.5l-67 43q43 95 87 139t97 44q26 0 53 -10.5t76 -37.5q56 -31 81 -40.5t46 -9.5q38 0 60.5 23.5t50.5 91.5zM337 1169v-1169h-157
v1169h157z" />
    <glyph glyph-name="uniFE82" unicode="&#x622;" horiz-adv-x="606" arabic-form="final" 
d="M162 1169h157v-738q0 -143 62.5 -205.5t223.5 -62.5h1v-163h-1q-217 0 -330 107t-113 321v741zM-34 1400q80 130 174 130q26 0 51.5 -8.5t58.5 -30.5q60 -36 88 -36q53 0 105 88l73 -43q-70 -136 -171 -136q-46 0 -109 38q-55 35 -87 35q-52 0 -111 -84z" />
    <glyph glyph-name="uniFE83" unicode="&#x623;" horiz-adv-x="516" arabic-form="isolated" 
d="M337 1169v-1169h-157v1169h157zM409 1775l-25 -76q-38 16 -77 16q-57 0 -93.5 -32t-36.5 -82q0 -46 31.5 -72t82.5 -26q37 0 80 13l103 32l25 -81l-457 -146l-25 84l176 51v10q-93 35 -93 140q0 82 58.5 137.5t147.5 55.5q26 0 51.5 -6.5t51.5 -17.5z" />
    <glyph glyph-name="uniFE84" unicode="&#x623;" horiz-adv-x="606" arabic-form="final" 
d="M162 1169h157v-738q0 -143 62.5 -205.5t223.5 -62.5h1v-163h-1q-217 0 -330 107t-113 321v741zM406 1781l-25 -76q-38 16 -77 16q-57 0 -93.5 -32t-36.5 -82q0 -46 31.5 -72t82.5 -26q37 0 80 13l103 32l25 -81l-457 -146l-25 84l176 51v10q-93 35 -93 140
q0 82 58.5 137.5t147.5 55.5q26 0 51.5 -6.5t51.5 -17.5z" />
    <glyph glyph-name="uniFE85" unicode="&#x624;" horiz-adv-x="957" arabic-form="isolated" 
d="M636 1398l-25 -76q-38 16 -77 16q-57 0 -93.5 -32t-36.5 -82q0 -46 31.5 -72t82.5 -26q37 0 80 13l103 32l25 -81l-457 -146l-25 84l176 51v10q-93 35 -93 140q0 82 58.5 137.5t147.5 55.5q26 0 51.5 -6.5t51.5 -17.5zM703 14l-6 10q-50 -14 -110 -23.5t-126 -9.5
q-156 0 -246.5 73t-90.5 230q0 116 37.5 222.5t114 174t192.5 67.5q108 0 182 -61.5t119.5 -162.5t65.5 -220.5t20 -236.5q0 -226 -185 -375.5t-520 -238.5l-63 150q274 62 434 165t182 236zM703 180q-3 65 -16.5 137t-41 134.5t-72 102t-109.5 39.5q-70 0 -115.5 -42.5
t-68 -107t-22.5 -130.5q0 -93 56 -128t151 -35q68 0 127.5 9t110.5 21z" />
    <glyph glyph-name="uniFE86" unicode="&#x624;" horiz-adv-x="932" arabic-form="final" 
d="M629 1403l-25 -76q-38 16 -77 16q-57 0 -93.5 -32t-36.5 -82q0 -46 31.5 -72t82.5 -26q37 0 80 13l103 32l25 -81l-457 -146l-25 84l176 51v10q-93 35 -93 140q0 82 58.5 137.5t147.5 55.5q26 0 51.5 -6.5t51.5 -17.5zM705 -5l-7 9q-61 -2 -120.5 -3t-118.5 -1
q-154 0 -244.5 73t-90.5 230q0 115 37.5 219t114 170t192.5 66q100 0 170 -53t114.5 -141t67.5 -192.5t30 -208.5h82v-163h-87q-22 -193 -204.5 -324.5t-490.5 -212.5l-63 150q266 61 428 158.5t190 223.5zM705 160q-3 67 -15.5 142.5t-40 141.5t-72.5 107.5t-113 41.5
q-70 0 -115.5 -40t-68 -102t-22.5 -129q0 -93 56 -128.5t151 -35.5q59 0 119 0.5t121 1.5z" />
    <glyph glyph-name="uniFE87" unicode="&#x625;" horiz-adv-x="516" arabic-form="isolated" 
d="M395 -213l-25 -76q-38 16 -77 16q-57 0 -93.5 -32t-36.5 -82q0 -46 31.5 -72t82.5 -26q37 0 80 13l103 32l25 -81l-457 -146l-25 84l176 51v10q-93 35 -93 140q0 82 58.5 137.5t147.5 55.5q26 0 51.5 -6.5t51.5 -17.5zM337 0h-157v1322h157v-1322z" />
    <glyph glyph-name="uniFE88" unicode="&#x625;" horiz-adv-x="606" arabic-form="final" 
d="M476 -207l-25 -76q-38 16 -77 16q-57 0 -93.5 -32t-36.5 -82q0 -46 31.5 -72t82.5 -26q37 0 80 13l103 32l25 -81l-457 -146l-25 84l176 51v10q-93 35 -93 140q0 82 58.5 137.5t147.5 55.5q26 0 51.5 -6.5t51.5 -17.5zM162 1322h157v-891q0 -143 62.5 -205.5t223.5 -62.5
h1v-163h-1q-217 0 -330 107t-113 321v894z" />
    <glyph glyph-name="uniFE89" unicode="&#x626;" horiz-adv-x="1512" arabic-form="isolated" 
d="M569 1125l-25 -76q-38 16 -77 16q-57 0 -93.5 -32t-36.5 -82q0 -46 31.5 -72t82.5 -26q37 0 80 13l103 32l25 -81l-457 -146l-25 84l176 51v10q-93 35 -93 140q0 82 58.5 137.5t147.5 55.5q26 0 51.5 -6.5t51.5 -17.5zM1377 759l-55 -141q-104 49 -207 49
q-88 0 -159.5 -39t-113.5 -107t-42 -157q0 -68 37.5 -100t105.5 -44t161 -20q87 -6 157.5 -26t112.5 -67.5t42 -138.5q0 -126 -89.5 -220t-246.5 -146t-359 -52q-285 0 -442 125t-157 362q0 83 11 188.5t33 235.5l152 -27q-25 -136 -35 -223t-10 -165q0 -171 113 -252.5
t336 -81.5q154 0 277.5 29.5t196.5 82t73 119.5q0 50 -32 72.5t-84.5 30.5t-114.5 12q-106 8 -193 31.5t-138 83t-51 174.5q0 136 62.5 243t168.5 169.5t235 62.5q123 0 255 -63z" />
    <glyph glyph-name="uniFE8A" unicode="&#x626;" horiz-adv-x="1463" arabic-form="final" 
d="M970 829l-25 -76q-38 16 -77 16q-57 0 -93.5 -32t-36.5 -82q0 -46 31.5 -72t82.5 -26q37 0 80 13l103 32l25 -81l-457 -146l-25 84l176 51v10q-93 35 -93 140q0 82 58.5 137.5t147.5 55.5q26 0 51.5 -6.5t51.5 -17.5zM1133 -10q128 -49 179 -99.5t51 -127.5
q0 -97 -83.5 -174t-227.5 -122t-327 -45q-317 0 -468.5 129t-151.5 399q0 91 13 217.5t36 276.5l146 -29q-22 -142 -34.5 -259t-12.5 -195q0 -199 110.5 -287t360.5 -88q142 0 249 26t167.5 72t60.5 106q0 42 -39 72t-139 59.5t-285 67.5l23 174h702v-163h-330v-10z" />
    <glyph glyph-name="uniFE8B" unicode="&#x626;" horiz-adv-x="584" arabic-form="initial" 
d="M435 1390l-25 -76q-38 16 -77 16q-57 0 -93.5 -32t-36.5 -82q0 -46 31.5 -72t82.5 -26q37 0 80 13l103 32l25 -81l-457 -146l-25 84l176 51v10q-93 35 -93 140q0 82 58.5 137.5t147.5 55.5q26 0 51.5 -6.5t51.5 -17.5zM421 766q27 -106 43.5 -200.5t16.5 -170.5
q0 -191 -102.5 -293t-327.5 -102h-51q-29 0 -29 82q0 81 29 81h51q151 0 215 61t64 179q0 60 -15.5 142.5t-39.5 180.5z" />
    <glyph glyph-name="uniFE8C" unicode="&#x626;" horiz-adv-x="842" arabic-form="medial" 
d="M400 1237l-25 -76q-38 16 -77 16q-57 0 -93.5 -32t-36.5 -82q0 -46 31.5 -72t82.5 -26q37 0 80 13l103 32l25 -81l-457 -146l-25 84l176 51v10q-93 35 -93 140q0 82 58.5 137.5t147.5 55.5q26 0 51.5 -6.5t51.5 -17.5zM501 475q0 -102 20 -171.5t78 -105t170 -35.5h73
v-163h-77q-127 0 -218 61.5t-121 175.5h-10q-29 -115 -132 -176t-233 -61h-51q-29 0 -29 82q0 81 29 81h51q123 0 186 36t85 105.5t22 170.5v135h157v-135z" />
    <glyph glyph-name="uniFE8D" unicode="&#x627;" horiz-adv-x="516" arabic-form="isolated" 
d="M337 0h-157v1322h157v-1322z" />
    <glyph glyph-name="uniFE8E" unicode="&#x627;" horiz-adv-x="606" arabic-form="final" 
d="M162 1322h157v-891q0 -143 62.5 -205.5t223.5 -62.5h1v-163h-1q-217 0 -330 107t-113 321v894z" />
    <glyph glyph-name="uniFE8F" unicode="&#x628;" horiz-adv-x="1770" arabic-form="isolated" 
d="M753 -359l131 131l132 -131l-132 -132zM1618 769q23 -81 36 -160.5t13 -150.5q0 -174 -78.5 -274t-250.5 -142t-453 -42q-278 0 -450.5 41.5t-251.5 139.5t-79 266q0 68 13.5 150t35.5 172l143 -36q-19 -75 -30.5 -145t-11.5 -123q0 -118 60 -183.5t198.5 -92
t372.5 -26.5q238 0 376 27.5t197 95t59 185.5q0 117 -41 262z" />
    <glyph glyph-name="uniFE90" unicode="&#x628;" horiz-adv-x="1949" arabic-form="final" 
d="M1702 637q-13 -72 -21 -131t-8 -115q0 -66 22.5 -117.5t82.5 -81t170 -29.5h1v-163h-1q-166 0 -266 68.5t-128 211.5h-10q-94 -160 -289 -220t-470 -60q-358 0 -519.5 123.5t-161.5 355.5q0 71 15 153.5t43 168.5l140 -43q-24 -73 -37.5 -142t-13.5 -124
q0 -166 131.5 -247.5t429.5 -81.5q261 0 413.5 51t227.5 161t104 285zM725 -359l131 131l132 -131l-132 -132z" />
    <glyph glyph-name="uniFE91" unicode="&#x628;" horiz-adv-x="584" arabic-form="initial" 
d="M421 766q27 -106 43.5 -200.5t16.5 -170.5q0 -191 -102.5 -293t-327.5 -102h-51q-29 0 -29 82q0 81 29 81h51q151 0 215 61t64 179q0 60 -15.5 142.5t-39.5 180.5zM12 -359l131 131l132 -131l-132 -132z" />
    <glyph glyph-name="uniFE92" unicode="&#x628;" horiz-adv-x="842" arabic-form="medial" 
d="M501 475q0 -102 20 -171.5t78 -105t170 -35.5h73v-163h-77q-127 0 -218 61.5t-121 175.5h-10q-29 -115 -132 -176t-233 -61h-51q-29 0 -29 82q0 81 29 81h51q123 0 186 36t85 105.5t22 170.5v135h157v-135zM12 -359l131 131l132 -131l-132 -132z" />
    <glyph glyph-name="uniFE93" unicode="&#x629;" horiz-adv-x="898" arabic-form="isolated" 
d="M120 1276l131 131l131 -131l-131 -132zM468 1276l131 131l132 -131l-132 -132zM447 -11q-161 0 -252 89.5t-91 225.5q0 135 74 259.5t177 225.5q-53 50 -101 91l97 116q129 -107 229.5 -218t157.5 -226.5t57 -236.5q0 -142 -95 -234t-253 -92zM447 153q100 0 147 49.5
t47 127.5q0 86 -52.5 182.5t-141.5 178.5q-87 -81 -140.5 -178t-53.5 -183q0 -78 47 -127.5t147 -49.5z" />
    <glyph glyph-name="uniFE94" unicode="&#x629;" horiz-adv-x="1144" arabic-form="final" 
d="M451 1361l131 131l131 -131l-131 -132zM799 1361l131 131l132 -131l-132 -132zM705 853l-9 156l157 9l34 -562q7 -115 31 -179t77.5 -89t147.5 -25h1v-163h-1q-140 0 -223.5 48.5t-127.5 145.5q-113 -45 -236 -45q-106 0 -193.5 31t-139 92t-51.5 152q0 164 142 276.5
t391 152.5zM715 700q-184 -20 -291.5 -85.5t-107.5 -163.5q0 -79 74 -114.5t176 -35.5q98 0 182 26q-6 29 -9.5 57t-5.5 59z" />
    <glyph glyph-name="uniFE95" unicode="&#x62a;" horiz-adv-x="1770" arabic-form="isolated" 
d="M1618 769q23 -81 36 -160.5t13 -150.5q0 -174 -78.5 -274t-250.5 -142t-453 -42q-278 0 -450.5 41.5t-251.5 139.5t-79 266q0 68 13.5 150t35.5 172l143 -36q-19 -75 -30.5 -145t-11.5 -123q0 -118 60 -183.5t198.5 -92t372.5 -26.5q238 0 376 27.5t197 95t59 185.5
q0 117 -41 262zM579 849l131 131l131 -131l-131 -132zM927 849l131 131l132 -131l-132 -132z" />
    <glyph glyph-name="uniFE96" unicode="&#x62a;" horiz-adv-x="1949" arabic-form="final" 
d="M1702 637q-13 -72 -21 -131t-8 -115q0 -66 22.5 -117.5t82.5 -81t170 -29.5h1v-163h-1q-166 0 -266 68.5t-128 211.5h-10q-94 -160 -289 -220t-470 -60q-358 0 -519.5 123.5t-161.5 355.5q0 71 15 153.5t43 168.5l140 -43q-24 -73 -37.5 -142t-13.5 -124
q0 -166 131.5 -247.5t429.5 -81.5q261 0 413.5 51t227.5 161t104 285zM601 802l131 131l131 -131l-131 -132zM949 802l131 131l132 -131l-132 -132z" />
    <glyph glyph-name="uniFE97" unicode="&#x62a;" horiz-adv-x="584" arabic-form="initial" 
d="M421 766q27 -106 43.5 -200.5t16.5 -170.5q0 -191 -102.5 -293t-327.5 -102h-51q-29 0 -29 82q0 81 29 81h51q151 0 215 61t64 179q0 60 -15.5 142.5t-39.5 180.5zM-52 1135l131 131l131 -131l-131 -132zM296 1135l131 131l132 -131l-132 -132z" />
    <glyph glyph-name="uniFE98" unicode="&#x62a;" horiz-adv-x="842" arabic-form="medial" 
d="M501 475q0 -102 20 -171.5t78 -105t170 -35.5h73v-163h-77q-127 0 -218 61.5t-121 175.5h-10q-29 -115 -132 -176t-233 -61h-51q-29 0 -29 82q0 81 29 81h51q123 0 186 36t85 105.5t22 170.5v135h157v-135zM18 991l131 131l131 -131l-131 -132zM366 991l131 131l132 -131
l-132 -132z" />
    <glyph glyph-name="uniFE99" unicode="&#x62b;" horiz-adv-x="1770" arabic-form="isolated" 
d="M1618 769q23 -81 36 -160.5t13 -150.5q0 -174 -78.5 -274t-250.5 -142t-453 -42q-278 0 -450.5 41.5t-251.5 139.5t-79 266q0 68 13.5 150t35.5 172l143 -36q-19 -75 -30.5 -145t-11.5 -123q0 -118 60 -183.5t198.5 -92t372.5 -26.5q238 0 376 27.5t197 95t59 185.5
q0 117 -41 262zM753 1156l131 132l132 -132l-132 -131zM927 849l131 131l132 -131l-132 -132zM579 849l131 131l131 -131l-131 -132z" />
    <glyph glyph-name="uniFE9A" unicode="&#x62b;" horiz-adv-x="1949" arabic-form="final" 
d="M1702 637q-13 -72 -21 -131t-8 -115q0 -66 22.5 -117.5t82.5 -81t170 -29.5h1v-163h-1q-166 0 -266 68.5t-128 211.5h-10q-94 -160 -289 -220t-470 -60q-358 0 -519.5 123.5t-161.5 355.5q0 71 15 153.5t43 168.5l140 -43q-24 -73 -37.5 -142t-13.5 -124
q0 -166 131.5 -247.5t429.5 -81.5q261 0 413.5 51t227.5 161t104 285zM774 1110l131 132l132 -132l-132 -131zM948 803l131 131l132 -131l-132 -132zM600 803l131 131l131 -131l-131 -132z" />
    <glyph glyph-name="uniFE9B" unicode="&#x62b;" horiz-adv-x="584" arabic-form="initial" 
d="M421 766q27 -106 43.5 -200.5t16.5 -170.5q0 -191 -102.5 -293t-327.5 -102h-51q-29 0 -29 82q0 81 29 81h51q151 0 215 61t64 179q0 60 -15.5 142.5t-39.5 180.5zM122 1442l131 132l132 -132l-132 -131zM296 1135l131 131l132 -131l-132 -132zM-52 1135l131 131
l131 -131l-131 -132z" />
    <glyph glyph-name="uniFE9C" unicode="&#x62b;" horiz-adv-x="842" arabic-form="medial" 
d="M501 475q0 -102 20 -171.5t78 -105t170 -35.5h73v-163h-77q-127 0 -218 61.5t-121 175.5h-10q-29 -115 -132 -176t-233 -61h-51q-29 0 -29 82q0 81 29 81h51q123 0 186 36t85 105.5t22 170.5v135h157v-135zM192 1246l131 132l132 -132l-132 -131zM366 939l131 131
l132 -131l-132 -132zM18 939l131 131l131 -131l-131 -132z" />
    <glyph glyph-name="uniFE9D" unicode="&#x62c;" horiz-adv-x="1366" arabic-form="isolated" 
d="M599 -97l131 131l132 -131l-132 -132zM458 896q52 0 125.5 -21.5t203.5 -80.5q146 -65 242.5 -101t184.5 -59l-16 -184q-123 -14 -255 -47.5t-255 -86.5t-221.5 -124t-156.5 -160.5t-58 -196.5q0 -112 70 -186t186.5 -111t257.5 -37q245 0 452 91l72 -142
q-127 -58 -261 -87.5t-264 -29.5q-186 0 -337 56t-240 164.5t-89 266.5q0 149 78 269.5t209.5 211.5t294 152t331.5 89v10q-64 17 -135.5 43t-166.5 65q-104 43 -160.5 60.5t-91.5 17.5q-67 0 -111.5 -43.5t-84.5 -146.5l-7 -18l-117 37l6 19q56 166 130 238t184 72z" />
    <glyph glyph-name="uniFE9E" unicode="&#x62c;" horiz-adv-x="1372" arabic-form="final" 
d="M586 -145l131 131l132 -131l-132 -132zM458 856q55 0 130 -23t199 -79q150 -67 246 -103t181 -57l-16 -184q-63 -7 -110.5 -15.5t-85.5 -17.5v-10q49 -108 123 -156t188 -48h59v-163h-45q-162 0 -266.5 84.5t-160.5 260.5q-190 -46 -336.5 -131t-229 -193.5t-82.5 -225.5
q0 -152 139.5 -243t374.5 -91q250 0 452 91l72 -142q-259 -117 -525 -117q-201 0 -350.5 60.5t-232.5 170t-83 256.5q0 170 114.5 317t320 253t478.5 152v10q-59 15 -129.5 40t-172.5 68q-104 43 -160.5 60.5t-91.5 17.5q-67 0 -111.5 -43.5t-84.5 -146.5l-7 -18l-117 37
l6 19q55 164 128.5 237t185.5 73z" />
    <glyph glyph-name="uniFE9F" unicode="&#x62c;" horiz-adv-x="1265" arabic-form="initial" 
d="M392 -359l131 131l132 -131l-132 -132zM417 839q50 0 121 -22.5t210 -82.5q133 -58 226.5 -91t187.5 -57v-141l-492 -278q-157 -89 -290 -128t-282 -39h-98q-29 0 -29 82q0 81 29 81h125q82 0 154.5 13t150.5 42.5t175 78.5l360 189v10q-62 17 -133 42.5t-164 65.5
q-103 42 -160 59.5t-92 17.5q-67 0 -111.5 -43.5t-84.5 -146.5l-7 -18l-118 38l7 18q56 165 130 237.5t185 72.5z" />
    <glyph glyph-name="uniFEA0" unicode="&#x62c;" horiz-adv-x="1313" arabic-form="medial" 
d="M392 -359l131 131l132 -131l-132 -132zM417 839q50 0 121.5 -21.5t209.5 -83.5q133 -58 226.5 -91t187.5 -57v-141l-235 -127v-10q71 -83 149.5 -114t168.5 -31h68v-163h-71q-123 0 -230 55.5t-199 191.5l-143 -80q-157 -89 -290 -128t-282 -39h-98q-29 0 -29 82
q0 81 29 81h125q82 0 154.5 12.5t150.5 42t175 79.5l360 189v10q-62 17 -133 43t-164 65q-103 42 -160 59.5t-92 17.5q-67 0 -111 -43.5t-85 -146.5l-7 -18l-118 38l7 18q56 165 130 237.5t185 72.5z" />
    <glyph glyph-name="uniFEA1" unicode="&#x62d;" horiz-adv-x="1366" arabic-form="isolated" 
d="M458 896q52 0 125.5 -21.5t203.5 -80.5q146 -65 242.5 -101t184.5 -59l-16 -184q-123 -14 -255 -47.5t-255 -86.5t-221.5 -124t-156.5 -160.5t-58 -196.5q0 -112 70 -186t186.5 -111t257.5 -37q245 0 452 91l72 -142q-127 -58 -261 -87.5t-264 -29.5q-186 0 -337 56
t-240 164.5t-89 266.5q0 149 78 269.5t209.5 211.5t294 152t331.5 89v10q-64 17 -135.5 43t-166.5 65q-104 43 -160.5 60.5t-91.5 17.5q-67 0 -111.5 -43.5t-84.5 -146.5l-7 -18l-117 37l6 19q56 166 130 238t184 72z" />
    <glyph glyph-name="uniFEA2" unicode="&#x62d;" horiz-adv-x="1372" arabic-form="final" 
d="M458 856q55 0 130 -23t199 -79q150 -67 246 -103t181 -57l-16 -184q-63 -7 -110.5 -15.5t-85.5 -17.5v-10q49 -108 123 -156t188 -48h59v-163h-45q-162 0 -266.5 84.5t-160.5 260.5q-190 -46 -336.5 -131t-229 -193.5t-82.5 -225.5q0 -152 139.5 -243t374.5 -91
q250 0 452 91l72 -142q-259 -117 -525 -117q-201 0 -350.5 60.5t-232.5 170t-83 256.5q0 170 114.5 317t320 253t478.5 152v10q-59 15 -129.5 40t-172.5 68q-104 43 -160.5 60.5t-91.5 17.5q-67 0 -111.5 -43.5t-84.5 -146.5l-7 -18l-117 37l6 19q55 164 128.5 237t185.5 73
z" />
    <glyph glyph-name="uniFEA3" unicode="&#x62d;" horiz-adv-x="1265" arabic-form="initial" 
d="M417 839q50 0 121 -22.5t210 -82.5q133 -58 226.5 -91t187.5 -57v-141l-492 -278q-157 -89 -290 -128t-282 -39h-98q-29 0 -29 82q0 81 29 81h125q82 0 154.5 13t150.5 42.5t175 78.5l360 189v10q-62 17 -133 42.5t-164 65.5q-103 42 -160 59.5t-92 17.5
q-67 0 -111.5 -43.5t-84.5 -146.5l-7 -18l-118 38l7 18q56 165 130 237.5t185 72.5z" />
    <glyph glyph-name="uniFEA4" unicode="&#x62d;" horiz-adv-x="1313" arabic-form="medial" 
d="M417 839q50 0 121.5 -21.5t209.5 -83.5q133 -58 226.5 -91t187.5 -57v-141l-235 -127v-10q71 -83 149.5 -114t168.5 -31h68v-163h-71q-123 0 -230 55.5t-199 191.5l-143 -80q-157 -89 -290 -128t-282 -39h-98q-29 0 -29 82q0 81 29 81h125q82 0 154.5 12.5t150.5 42
t175 79.5l360 189v10q-62 17 -133 43t-164 65q-103 42 -160 59.5t-92 17.5q-67 0 -111 -43.5t-85 -146.5l-7 -18l-118 38l7 18q56 165 130 237.5t185 72.5z" />
    <glyph glyph-name="uniFEA5" unicode="&#x62e;" horiz-adv-x="1366" arabic-form="isolated" 
d="M458 896q52 0 125.5 -21.5t203.5 -80.5q146 -65 242.5 -101t184.5 -59l-16 -184q-123 -14 -255 -47.5t-255 -86.5t-221.5 -124t-156.5 -160.5t-58 -196.5q0 -112 70 -186t186.5 -111t257.5 -37q245 0 452 91l72 -142q-127 -58 -261 -87.5t-264 -29.5q-186 0 -337 56
t-240 164.5t-89 266.5q0 149 78 269.5t209.5 211.5t294 152t331.5 89v10q-64 17 -135.5 43t-166.5 65q-104 43 -160.5 60.5t-91.5 17.5q-67 0 -111.5 -43.5t-84.5 -146.5l-7 -18l-117 37l6 19q56 166 130 238t184 72zM561 1291l131 131l132 -131l-132 -132z" />
    <glyph glyph-name="uniFEA6" unicode="&#x62e;" horiz-adv-x="1372" arabic-form="final" 
d="M458 856q55 0 130 -23t199 -79q150 -67 246 -103t181 -57l-16 -184q-63 -7 -110.5 -15.5t-85.5 -17.5v-10q49 -108 123 -156t188 -48h59v-163h-45q-162 0 -266.5 84.5t-160.5 260.5q-190 -46 -336.5 -131t-229 -193.5t-82.5 -225.5q0 -152 139.5 -243t374.5 -91
q250 0 452 91l72 -142q-259 -117 -525 -117q-201 0 -350.5 60.5t-232.5 170t-83 256.5q0 170 114.5 317t320 253t478.5 152v10q-59 15 -129.5 40t-172.5 68q-104 43 -160.5 60.5t-91.5 17.5q-67 0 -111.5 -43.5t-84.5 -146.5l-7 -18l-117 37l6 19q55 164 128.5 237t185.5 73
zM561 1251l131 131l132 -131l-132 -132z" />
    <glyph glyph-name="uniFEA7" unicode="&#x62e;" horiz-adv-x="1265" arabic-form="initial" 
d="M417 839q50 0 121 -22.5t210 -82.5q133 -58 226.5 -91t187.5 -57v-141l-492 -278q-157 -89 -290 -128t-282 -39h-98q-29 0 -29 82q0 81 29 81h125q82 0 154.5 13t150.5 42.5t175 78.5l360 189v10q-62 17 -133 42.5t-164 65.5q-103 42 -160 59.5t-92 17.5
q-67 0 -111.5 -43.5t-84.5 -146.5l-7 -18l-118 38l7 18q56 165 130 237.5t185 72.5zM458 1229l131 131l132 -131l-132 -132z" />
    <glyph glyph-name="uniFEA8" unicode="&#x62e;" horiz-adv-x="1313" arabic-form="medial" 
d="M417 839q50 0 121.5 -21.5t209.5 -83.5q133 -58 226.5 -91t187.5 -57v-141l-235 -127v-10q71 -83 149.5 -114t168.5 -31h68v-163h-71q-123 0 -230 55.5t-199 191.5l-143 -80q-157 -89 -290 -128t-282 -39h-98q-29 0 -29 82q0 81 29 81h125q82 0 154.5 12.5t150.5 42
t175 79.5l360 189v10q-62 17 -133 43t-164 65q-103 42 -160 59.5t-92 17.5q-67 0 -111 -43.5t-85 -146.5l-7 -18l-118 38l7 18q56 165 130 237.5t185 72.5zM458 1229l131 131l132 -131l-132 -132z" />
    <glyph glyph-name="uniFEA9" unicode="&#x62f;" horiz-adv-x="1013" arabic-form="isolated" 
d="M910 374q0 -137 -73.5 -221t-192 -122.5t-254.5 -38.5q-68 0 -140.5 9.5t-148.5 29.5l36 154q70 -17 131.5 -24t119.5 -7q172 0 269.5 55.5t97.5 165.5q0 101 -88 230t-252 276l105 125q194 -173 292 -329.5t98 -302.5z" />
    <glyph glyph-name="uniFEAA" unicode="&#x62f;" horiz-adv-x="1284" arabic-form="final" 
d="M715 992l271 -630q51 -119 113.5 -159t168.5 -40h16v-163h-16q-132 0 -224.5 51.5t-139.5 172.5h-10q-49 -112 -162.5 -173t-249.5 -61q-98 0 -196.5 35t-184.5 107l78 130q71 -55 150 -81.5t152 -26.5q104 0 196 45.5t149 132.5l-261 589z" />
    <glyph glyph-name="uniFEAB" unicode="&#x630;" horiz-adv-x="1013" arabic-form="isolated" 
d="M910 374q0 -137 -73.5 -221t-192 -122.5t-254.5 -38.5q-68 0 -140.5 9.5t-148.5 29.5l36 154q70 -17 131.5 -24t119.5 -7q172 0 269.5 55.5t97.5 165.5q0 101 -88 230t-252 276l105 125q194 -173 292 -329.5t98 -302.5zM391 1392l131 131l132 -131l-132 -132z" />
    <glyph glyph-name="uniFEAC" unicode="&#x630;" horiz-adv-x="1284" arabic-form="final" 
d="M497 1386l131 131l132 -131l-132 -132zM715 992l271 -630q51 -119 113.5 -159t168.5 -40h16v-163h-16q-132 0 -224.5 51.5t-139.5 172.5h-10q-49 -112 -162.5 -173t-249.5 -61q-98 0 -196.5 35t-184.5 107l78 130q71 -55 150 -81.5t152 -26.5q104 0 196 45.5t149 132.5
l-261 589z" />
    <glyph glyph-name="uniFEAD" unicode="&#x631;" horiz-adv-x="590" arabic-form="isolated" 
d="M206 584l147 52q56 -164 88 -303t32 -249q0 -214 -142 -363t-452 -262l-68 148q266 95 386.5 203.5t120.5 268.5q0 92 -30 224.5t-82 280.5z" />
    <glyph glyph-name="uniFEAE" unicode="&#x631;" horiz-adv-x="765" arabic-form="final" 
d="M206 584l147 52l64 -197q33 -101 74.5 -162t105.5 -87.5t166 -26.5h2v-163h-2q-99 0 -177.5 35.5t-122.5 99.5l-10 -3q16 -167 -42 -289.5t-190.5 -215t-341.5 -168.5l-68 148q272 97 389.5 206t117.5 266q0 89 -29.5 220t-82.5 285z" />
    <glyph glyph-name="uniFEAF" unicode="&#x632;" horiz-adv-x="590" arabic-form="isolated" 
d="M206 584l147 52q56 -164 88 -303t32 -249q0 -214 -142 -363t-452 -262l-68 148q266 95 386.5 203.5t120.5 268.5q0 92 -30 224.5t-82 280.5zM160 1051l131 131l132 -131l-132 -132z" />
    <glyph glyph-name="uniFEB0" unicode="&#x632;" horiz-adv-x="765" arabic-form="final" 
d="M160 1051l131 131l132 -131l-132 -132zM206 584l147 52l64 -197q33 -101 74.5 -162t105.5 -87.5t166 -26.5h2v-163h-2q-99 0 -177.5 35.5t-122.5 99.5l-10 -3q16 -167 -42 -289.5t-190.5 -215t-341.5 -168.5l-68 148q272 97 389.5 206t117.5 266q0 89 -29.5 220
t-82.5 285z" />
    <glyph glyph-name="uniFEB1" unicode="&#x633;" horiz-adv-x="2529" arabic-form="isolated" 
d="M1573 0q-115 0 -184 78l-6 -5q8 -190 -71 -314t-224.5 -184t-337.5 -60q-307 0 -474 137.5t-167 440.5q0 83 14 190t45 257l149 -33q-31 -155 -43 -247.5t-12 -158.5q0 -231 123.5 -327t360.5 -96t370 84.5t133 286.5q0 91 -33 206.5t-114 305.5l146 69l114 -311
q27 -73 76.5 -114.5t133.5 -41.5q89 0 135 54t57 176l15 177l140 -12l-13 -169q-10 -116 40.5 -171t147.5 -55q176 0 176 201q0 44 -9 123.5t-21 141.5l153 37q15 -71 24 -154t9 -147q0 -186 -78 -275.5t-232 -89.5q-232 0 -279 208h-10q-25 -102 -91 -155t-163 -53z" />
    <glyph glyph-name="uniFEB2" unicode="&#x633;" horiz-adv-x="2754" arabic-form="final" 
d="M2367 260q-30 -260 -257 -260q-109 0 -179.5 52.5t-93.5 155.5h-10q-25 -102 -91 -155t-163 -53q-115 0 -184 78l-6 -5q8 -190 -71 -314t-224.5 -184t-337.5 -60q-307 0 -474 137.5t-167 440.5q0 83 14 190t45 257l149 -33q-31 -155 -43 -247.5t-12 -158.5
q0 -231 123.5 -327t360.5 -96t370 84.5t133 286.5q0 91 -33 206.5t-114 305.5l146 69l114 -311q28 -76 77 -116t133 -40q89 0 135 54t57 176l15 177l140 -12l-13 -169q-10 -116 40.5 -171t147.5 -55q171 0 171 206q0 44 -9.5 114.5t-23.5 144.5l151 31l27 -167
q20 -124 58.5 -196t107 -102.5t177.5 -30.5h1v-163h-1q-318 0 -376 260h-10z" />
    <glyph glyph-name="uniFEB3" unicode="&#x633;" horiz-adv-x="1663" arabic-form="initial" 
d="M700 163q92 0 137 55t57 173l16 179l142 -12l-14 -169q-10 -114 40.5 -170t147.5 -56q179 0 179 209q0 32 -4.5 82t-11 102t-14.5 90l152 37q14 -65 23.5 -153t9.5 -156q0 -374 -312 -374q-119 0 -187 56t-89 152h-10q-51 -208 -270 -208q-120 0 -187.5 60.5t-86.5 171.5
h-10q-33 -104 -127.5 -168t-229.5 -64h-51q-29 0 -29 83q0 80 29 80h51q148 0 218 72t88 233l15 149l157 -12l-19 -198q-13 -116 36.5 -180t153.5 -64z" />
    <glyph glyph-name="uniFEB4" unicode="&#x633;" horiz-adv-x="1890" arabic-form="medial" 
d="M1503 260q-16 -130 -80 -195t-183 -65q-117 0 -182 56t-86 152h-10q-53 -208 -270 -208q-121 0 -188 60.5t-86 171.5h-10q-33 -104 -127.5 -168t-229.5 -64h-51q-29 0 -29 83q0 80 29 80h51q148 0 217.5 72t88.5 233l15 149l157 -12l-19 -198q-13 -116 36.5 -180
t153.5 -64q92 0 137 54.5t57 173.5l16 179l142 -12l-14 -169q-10 -115 39.5 -170.5t143.5 -55.5q179 0 179 206q0 43 -9 113.5t-24 145.5l152 31l25 -167q19 -123 58 -195t108.5 -103t177.5 -31h2v-163h-2q-163 0 -256 68.5t-119 191.5h-10z" />
    <glyph glyph-name="uniFEB5" unicode="&#x634;" horiz-adv-x="2529" arabic-form="isolated" 
d="M1573 0q-115 0 -184 78l-6 -5q8 -190 -71 -314t-224.5 -184t-337.5 -60q-307 0 -474 137.5t-167 440.5q0 83 14 190t45 257l149 -33q-31 -155 -43 -247.5t-12 -158.5q0 -231 123.5 -327t360.5 -96t370 84.5t133 286.5q0 91 -33 206.5t-114 305.5l146 69l114 -311
q27 -73 76.5 -114.5t133.5 -41.5q89 0 135 54t57 176l15 177l140 -12l-13 -169q-10 -116 40.5 -171t147.5 -55q176 0 176 201q0 44 -9 123.5t-21 141.5l153 37q15 -71 24 -154t9 -147q0 -186 -78 -275.5t-232 -89.5q-232 0 -279 208h-10q-25 -102 -91 -155t-163 -53z
M1687 1270l131 132l132 -132l-132 -131zM1861 963l131 131l132 -131l-132 -132zM1513 963l131 131l131 -131l-131 -132z" />
    <glyph glyph-name="uniFEB6" unicode="&#x634;" horiz-adv-x="2754" arabic-form="final" 
d="M1672 1270l131 132l132 -132l-132 -131zM1846 963l131 131l132 -131l-132 -132zM1498 963l131 131l131 -131l-131 -132zM2367 260q-30 -260 -257 -260q-109 0 -179.5 52.5t-93.5 155.5h-10q-25 -102 -91 -155t-163 -53q-115 0 -184 78l-6 -5q8 -190 -71 -314t-224.5 -184
t-337.5 -60q-307 0 -474 137.5t-167 440.5q0 83 14 190t45 257l149 -33q-31 -155 -43 -247.5t-12 -158.5q0 -231 123.5 -327t360.5 -96t370 84.5t133 286.5q0 91 -33 206.5t-114 305.5l146 69l114 -311q28 -76 77 -116t133 -40q89 0 135 54t57 176l15 177l140 -12l-13 -169
q-10 -116 40.5 -171t147.5 -55q171 0 171 206q0 44 -9.5 114.5t-23.5 144.5l151 31l27 -167q20 -124 58.5 -196t107 -102.5t177.5 -30.5h1v-163h-1q-318 0 -376 260h-10z" />
    <glyph glyph-name="uniFEB7" unicode="&#x634;" horiz-adv-x="1663" arabic-form="initial" 
d="M824 1270l131 132l132 -132l-132 -131zM998 963l131 131l132 -131l-132 -132zM650 963l131 131l131 -131l-131 -132zM700 163q92 0 137 55t57 173l16 179l142 -12l-14 -169q-10 -114 40.5 -170t147.5 -56q179 0 179 209q0 32 -4.5 82t-11 102t-14.5 90l152 37
q14 -65 23.5 -153t9.5 -156q0 -374 -312 -374q-119 0 -187 56t-89 152h-10q-51 -208 -270 -208q-120 0 -187.5 60.5t-86.5 171.5h-10q-33 -104 -127.5 -168t-229.5 -64h-51q-29 0 -29 83q0 80 29 80h51q148 0 218 72t88 233l15 149l157 -12l-19 -198q-13 -116 36.5 -180
t153.5 -64z" />
    <glyph glyph-name="uniFEB8" unicode="&#x634;" horiz-adv-x="1890" arabic-form="medial" 
d="M824 1270l131 132l132 -132l-132 -131zM998 963l131 131l132 -131l-132 -132zM650 963l131 131l131 -131l-131 -132zM1503 260q-16 -130 -80 -195t-183 -65q-117 0 -182 56t-86 152h-10q-53 -208 -270 -208q-121 0 -188 60.5t-86 171.5h-10q-33 -104 -127.5 -168
t-229.5 -64h-51q-29 0 -29 83q0 80 29 80h51q148 0 217.5 72t88.5 233l15 149l157 -12l-19 -198q-13 -116 36.5 -180t153.5 -64q92 0 137 54.5t57 173.5l16 179l142 -12l-14 -169q-10 -115 39.5 -170.5t143.5 -55.5q179 0 179 206q0 43 -9 113.5t-24 145.5l152 31l25 -167
q19 -123 58 -195t108.5 -103t177.5 -31h2v-163h-2q-163 0 -256 68.5t-119 191.5h-10z" />
    <glyph glyph-name="uniFEB9" unicode="&#x635;" horiz-adv-x="2449" arabic-form="isolated" 
d="M2006 759q152 0 246.5 -100.5t94.5 -261.5q0 -187 -150 -292t-434 -105q-241 0 -391 79q-2 -271 -165.5 -417.5t-470.5 -146.5q-627 0 -627 578q0 85 14 193t45 254l149 -33q-29 -148 -42 -242.5t-13 -163.5q0 -219 113.5 -321t356.5 -102q248 0 368.5 98t120.5 299
q0 86 -31.5 196t-108.5 291l146 69q53 -121 83 -213.5t44 -170.5q163 249 329.5 380.5t322.5 131.5zM1988 598q-118 0 -247.5 -101t-260.5 -294q101 -40 282 -40q437 0 437 236q0 89 -58 144t-153 55z" />
    <glyph glyph-name="uniFEBA" unicode="&#x635;" horiz-adv-x="2517" arabic-form="final" 
d="M2006 759q152 0 246.5 -100.5t94.5 -261.5q0 -106 -59 -177q81 -57 228 -57h1v-163h-1q-199 0 -311 109q-149 -109 -442 -109q-241 0 -391 79q-2 -272 -166.5 -418t-469.5 -146q-627 0 -627 578q0 162 59 447l149 -33q-30 -150 -42.5 -244t-12.5 -162q0 -219 113.5 -321
t356.5 -102q248 0 368.5 98t120.5 299q0 86 -31.5 196t-108.5 291l146 69q53 -124 83 -215.5t44 -168.5q163 249 329.5 380.5t322.5 131.5zM1988 598q-118 0 -247.5 -101t-260.5 -294q101 -40 282 -40q437 0 437 236q0 89 -58 144t-153 55z" />
    <glyph glyph-name="uniFEBB" unicode="&#x635;" horiz-adv-x="1627" arabic-form="initial" 
d="M383 241q-31 -119 -131 -180t-244 -61h-8q-29 0 -29 82q0 81 29 81h8q119 0 178.5 36.5t79.5 104t20 159.5v157h157v-136q2 -110 27.5 -154t68.5 -71q188 276 347.5 388t295.5 112q106 0 183 -48t118.5 -129.5t41.5 -184.5q0 -142 -81 -229.5t-216 -127.5t-296 -40
q-219 0 -353.5 57t-186.5 184h-9zM1166 598q-100 0 -228 -85.5t-280 -309.5q57 -22 129 -31t154 -9q110 0 209.5 18.5t163 69.5t63.5 148q0 87 -56.5 143t-154.5 56z" />
    <glyph glyph-name="uniFEBC" unicode="&#x635;" horiz-adv-x="1695" arabic-form="medial" 
d="M286 620h157v-136q2 -110 27.5 -154t68.5 -71q188 276 347.5 388t295.5 112q106 0 183 -48t118.5 -129.5t41.5 -184.5q0 -55 -15 -99.5t-42 -79.5q79 -55 226 -55h1v-163h-1q-205 0 -315 109q-81 -59 -198 -84t-249 -25q-218 0 -353 57t-187 184h-9q-31 -119 -131 -180
t-244 -61h-8q-29 0 -29 82q0 81 29 81h8q119 0 178.5 36.5t79.5 104t20 159.5v157zM1166 598q-100 0 -228 -85.5t-280 -309.5q57 -22 129 -31t154 -9q110 0 209.5 18.5t163 69.5t63.5 148q0 87 -56.5 143t-154.5 56z" />
    <glyph glyph-name="uniFEBD" unicode="&#x636;" horiz-adv-x="2449" arabic-form="isolated" 
d="M2006 759q152 0 246.5 -100.5t94.5 -261.5q0 -187 -150 -292t-434 -105q-241 0 -391 79q-2 -271 -165.5 -417.5t-470.5 -146.5q-627 0 -627 578q0 85 14 193t45 254l149 -33q-29 -148 -42 -242.5t-13 -163.5q0 -219 113.5 -321t356.5 -102q248 0 368.5 98t120.5 299
q0 86 -31.5 196t-108.5 291l146 69q53 -121 83 -213.5t44 -170.5q163 249 329.5 380.5t322.5 131.5zM1988 598q-118 0 -247.5 -101t-260.5 -294q101 -40 282 -40q437 0 437 236q0 89 -58 144t-153 55zM1873 1149l131 131l132 -131l-132 -132z" />
    <glyph glyph-name="uniFEBE" unicode="&#x636;" horiz-adv-x="2517" arabic-form="final" 
d="M2006 759q152 0 246.5 -100.5t94.5 -261.5q0 -106 -59 -177q81 -57 228 -57h1v-163h-1q-199 0 -311 109q-149 -109 -442 -109q-241 0 -391 79q-2 -272 -166.5 -418t-469.5 -146q-627 0 -627 578q0 162 59 447l149 -33q-30 -150 -42.5 -244t-12.5 -162q0 -219 113.5 -321
t356.5 -102q248 0 368.5 98t120.5 299q0 86 -31.5 196t-108.5 291l146 69q53 -124 83 -215.5t44 -168.5q163 249 329.5 380.5t322.5 131.5zM1988 598q-118 0 -247.5 -101t-260.5 -294q101 -40 282 -40q437 0 437 236q0 89 -58 144t-153 55zM1873 1149l131 131l132 -131
l-132 -132z" />
    <glyph glyph-name="uniFEBF" unicode="&#x636;" horiz-adv-x="1627" arabic-form="initial" 
d="M1043 1149l131 131l132 -131l-132 -132zM383 241q-31 -119 -131 -180t-244 -61h-8q-29 0 -29 82q0 81 29 81h8q119 0 178.5 36.5t79.5 104t20 159.5v157h157v-136q2 -110 27.5 -154t68.5 -71q188 276 347.5 388t295.5 112q106 0 183 -48t118.5 -129.5t41.5 -184.5
q0 -142 -81 -229.5t-216 -127.5t-296 -40q-219 0 -353.5 57t-186.5 184h-9zM1166 598q-100 0 -228 -85.5t-280 -309.5q57 -22 129 -31t154 -9q110 0 209.5 18.5t163 69.5t63.5 148q0 87 -56.5 143t-154.5 56z" />
    <glyph glyph-name="uniFEC0" unicode="&#x636;" horiz-adv-x="1695" arabic-form="medial" 
d="M1043 1149l131 131l132 -131l-132 -132zM286 620h157v-136q2 -110 27.5 -154t68.5 -71q188 276 347.5 388t295.5 112q106 0 183 -48t118.5 -129.5t41.5 -184.5q0 -55 -15 -99.5t-42 -79.5q79 -55 226 -55h1v-163h-1q-205 0 -315 109q-81 -59 -198 -84t-249 -25
q-218 0 -353 57t-187 184h-9q-31 -119 -131 -180t-244 -61h-8q-29 0 -29 82q0 81 29 81h8q119 0 178.5 36.5t79.5 104t20 159.5v157zM1166 598q-100 0 -228 -85.5t-280 -309.5q57 -22 129 -31t154 -9q110 0 209.5 18.5t163 69.5t63.5 148q0 87 -56.5 143t-154.5 56z" />
    <glyph glyph-name="uniFEC1" unicode="&#x637;" horiz-adv-x="1594" arabic-form="isolated" 
d="M405 163q15 24 29.5 46.5t29.5 44.5v1068h156v-660q0 -73 -7.5 -138.5t-28.5 -135.5l9 -7q290 378 557 378q161 0 251 -101.5t90 -253.5q0 -116 -58 -207.5t-192 -144t-363 -52.5h-774v163h301zM582 163h326q109 0 209 17t163.5 67.5t63.5 148.5q0 88 -58 145t-156 57
q-66 0 -148 -36t-181.5 -130.5t-218.5 -268.5z" />
    <glyph glyph-name="uniFEC2" unicode="&#x637;" horiz-adv-x="1681" arabic-form="final" 
d="M405 163q15 24 29.5 46.5t29.5 44.5v1068h156v-660q0 -73 -7.5 -138.5t-28.5 -135.5l9 -7q290 378 557 378q161 0 251 -101.5t90 -253.5q0 -43 -9 -84t-32 -79q40 -37 96.5 -57.5t133.5 -20.5h1v-163h-1q-109 0 -181 36t-127 93q-69 -60 -189 -94.5t-305 -34.5h-774v163
h301zM582 163h326q109 0 209 17t163.5 67.5t63.5 148.5q0 88 -58 145t-156 57q-66 0 -148 -36t-181.5 -130.5t-218.5 -268.5z" />
    <glyph glyph-name="uniFEC3" unicode="&#x637;" horiz-adv-x="1343" arabic-form="initial" 
d="M0 0q-16 0 -22.5 18t-6.5 64t6.5 63.5t22.5 17.5h156q15 24 29 46.5t29 44.5v1068h156v-660q0 -78 -9 -143t-28 -131l9 -7q141 185 281.5 281.5t275.5 96.5q158 0 249.5 -100t91.5 -255q0 -116 -58 -207.5t-191.5 -144t-362.5 -52.5h-628zM331 163h326q109 0 209 17
t163.5 67.5t63.5 148.5q0 88 -58 145t-156 57q-65 0 -147 -36t-181.5 -130.5t-219.5 -268.5z" />
    <glyph glyph-name="uniFEC4" unicode="&#x637;" horiz-adv-x="1432" arabic-form="medial" 
d="M0 0q-29 0 -29 82q0 81 29 81h156q15 24 29 46.5t29 44.5v1068h156v-660q0 -73 -8 -138.5t-29 -135.5l9 -7q290 378 557 378q161 0 251 -101.5t90 -253.5q0 -43 -9 -83.5t-31 -78.5q40 -37 96.5 -58t134.5 -21h1v-163h-1q-109 0 -181.5 36t-127.5 93q-69 -59 -189 -94
t-305 -35h-628zM331 163h326q109 0 209 17t163.5 67.5t63.5 148.5q0 88 -58 145t-156 57q-65 0 -147 -36t-181.5 -130.5t-219.5 -268.5z" />
    <glyph glyph-name="uniFEC5" unicode="&#x638;" horiz-adv-x="1594" arabic-form="isolated" 
d="M405 163q15 24 29.5 46.5t29.5 44.5v1068h156v-660q0 -73 -7.5 -138.5t-28.5 -135.5l9 -7q290 378 557 378q161 0 251 -101.5t90 -253.5q0 -116 -58 -207.5t-192 -144t-363 -52.5h-774v163h301zM582 163h326q109 0 209 17t163.5 67.5t63.5 148.5q0 88 -58 145t-156 57
q-66 0 -148 -36t-181.5 -130.5t-218.5 -268.5zM1010 1149l131 131l132 -131l-132 -132z" />
    <glyph glyph-name="uniFEC6" unicode="&#x638;" horiz-adv-x="1681" arabic-form="final" 
d="M1010 1149l131 131l132 -131l-132 -132zM405 163q15 24 29.5 46.5t29.5 44.5v1068h156v-660q0 -73 -7.5 -138.5t-28.5 -135.5l9 -7q290 378 557 378q161 0 251 -101.5t90 -253.5q0 -43 -9 -84t-32 -79q40 -37 96.5 -57.5t133.5 -20.5h1v-163h-1q-109 0 -181 36t-127 93
q-69 -60 -189 -94.5t-305 -34.5h-774v163h301zM582 163h326q109 0 209 17t163.5 67.5t63.5 148.5q0 88 -58 145t-156 57q-66 0 -148 -36t-181.5 -130.5t-218.5 -268.5z" />
    <glyph glyph-name="uniFEC7" unicode="&#x638;" horiz-adv-x="1343" arabic-form="initial" 
d="M761 1149l131 131l132 -131l-132 -132zM0 0q-16 0 -22.5 18t-6.5 64t6.5 63.5t22.5 17.5h156q15 24 29 46.5t29 44.5v1068h156v-660q0 -78 -9 -143t-28 -131l9 -7q141 185 281.5 281.5t275.5 96.5q158 0 249.5 -100t91.5 -255q0 -116 -58 -207.5t-191.5 -144
t-362.5 -52.5h-628zM331 163h326q109 0 209 17t163.5 67.5t63.5 148.5q0 88 -58 145t-156 57q-65 0 -147 -36t-181.5 -130.5t-219.5 -268.5z" />
    <glyph glyph-name="uniFEC8" unicode="&#x638;" horiz-adv-x="1432" arabic-form="medial" 
d="M761 1149l131 131l132 -131l-132 -132zM0 0q-29 0 -29 82q0 81 29 81h156q15 24 29 46.5t29 44.5v1068h156v-660q0 -73 -8 -138.5t-29 -135.5l9 -7q290 378 557 378q161 0 251 -101.5t90 -253.5q0 -43 -9 -83.5t-31 -78.5q40 -37 96.5 -58t134.5 -21h1v-163h-1
q-109 0 -181.5 36t-127.5 93q-69 -59 -189 -94t-305 -35h-628zM331 163h326q109 0 209 17t163.5 67.5t63.5 148.5q0 88 -58 145t-156 57q-65 0 -147 -36t-181.5 -130.5t-219.5 -268.5z" />
    <glyph glyph-name="uniFEC9" unicode="&#x639;" horiz-adv-x="1189" arabic-form="isolated" 
d="M998 1043l-77 -124q-118 102 -250 102q-79 0 -143 -36t-102 -97t-38 -136q0 -235 413 -235q52 0 116 3.5t131 9.5l-2 -158q-235 -6 -413 -76.5t-277.5 -189t-99.5 -271.5q0 -166 135 -256.5t381 -90.5q117 0 229.5 20.5t202.5 56.5l56 -150q-230 -94 -493 -94
q-205 0 -353.5 59.5t-229 169.5t-80.5 262q0 135 57 252t162 205.5t248 134.5l1 10q-160 29 -246 114.5t-86 220.5q0 120 57 218t153.5 156t214.5 58q189 0 333 -138z" />
    <glyph glyph-name="uniFECA" unicode="&#x639;" horiz-adv-x="1202" arabic-form="final" 
d="M1053 568q0 -172 -254 -324v-10q45 -40 101.5 -55.5t150.5 -15.5h151v-163h-140q-134 0 -220.5 32t-172.5 113q-209 -105 -309 -206.5t-100 -232.5q0 -137 133.5 -216.5t363.5 -79.5q161 0 339 38l35 -160q-208 -46 -378 -46q-195 0 -340 55.5t-225 155.5t-80 235
q0 314 447 540v10l-374 351v118q221 159 469 159q182 0 292.5 -82t110.5 -216zM909 558q0 67 -68.5 108t-181.5 41q-176 0 -310 -80v-5l321 -325q239 131 239 261z" />
    <glyph glyph-name="uniFECB" unicode="&#x639;" horiz-adv-x="1091" arabic-form="initial" 
d="M281 453q0 -115 83 -176t240 -61q41 0 98 5t133 15l111 16l19 -160l-185 -23q-144 -21 -283 -36.5t-257 -24t-199 -8.5h-41q-29 0 -29 82q0 81 29 81h36q142 0 272 12v13q-84 32 -131.5 105t-47.5 174q0 119 56.5 213.5t155 149t222.5 54.5q183 0 324 -116l-75 -122
q-121 78 -248 78q-123 0 -203 -76.5t-80 -194.5z" />
    <glyph glyph-name="uniFECC" unicode="&#x639;" horiz-adv-x="1186" arabic-form="medial" 
d="M615 866q106 0 198 -33t148.5 -99t56.5 -166q0 -97 -71.5 -177.5t-183.5 -148.5v-10q59 -51 123.5 -60t136.5 -9h163v-163h-184q-111 0 -197 25t-177 116q-100 -64 -214 -102.5t-256 -38.5h-158q-29 0 -29 82q0 81 29 81h147q110 0 198.5 21.5t161.5 54.5v10l-361 340
v118q103 75 217.5 117t251.5 42zM625 707q-175 0 -311 -80v-5l321 -325q109 60 174.5 125.5t65.5 135.5q0 54 -38 87t-95.5 47.5t-116.5 14.5z" />
    <glyph glyph-name="uniFECD" unicode="&#x63a;" horiz-adv-x="1189" arabic-form="isolated" 
d="M998 1043l-77 -124q-118 102 -250 102q-79 0 -143 -36t-102 -97t-38 -136q0 -235 413 -235q52 0 116 3.5t131 9.5l-2 -158q-235 -6 -413 -76.5t-277.5 -189t-99.5 -271.5q0 -166 135 -256.5t381 -90.5q117 0 229.5 20.5t202.5 56.5l56 -150q-230 -94 -493 -94
q-205 0 -353.5 59.5t-229 169.5t-80.5 262q0 135 57 252t162 205.5t248 134.5l1 10q-160 29 -246 114.5t-86 220.5q0 120 57 218t153.5 156t214.5 58q189 0 333 -138zM509 1601l131 131l132 -131l-132 -132z" />
    <glyph glyph-name="uniFECE" unicode="&#x63a;" horiz-adv-x="1202" arabic-form="final" 
d="M527 1282l131 131l132 -131l-132 -132zM1053 568q0 -172 -254 -324v-10q45 -40 101.5 -55.5t150.5 -15.5h151v-163h-140q-134 0 -220.5 32t-172.5 113q-209 -105 -309 -206.5t-100 -232.5q0 -137 133.5 -216.5t363.5 -79.5q161 0 339 38l35 -160q-208 -46 -378 -46
q-195 0 -340 55.5t-225 155.5t-80 235q0 314 447 540v10l-374 351v118q221 159 469 159q182 0 292.5 -82t110.5 -216zM909 558q0 67 -68.5 108t-181.5 41q-176 0 -310 -80v-5l321 -325q239 131 239 261z" />
    <glyph glyph-name="uniFECF" unicode="&#x63a;" horiz-adv-x="1091" arabic-form="initial" 
d="M426 1326l131 131l132 -131l-132 -132zM281 453q0 -115 83 -176t240 -61q41 0 98 5t133 15l111 16l19 -160l-185 -23q-144 -21 -283 -36.5t-257 -24t-199 -8.5h-41q-29 0 -29 82q0 81 29 81h36q142 0 272 12v13q-84 32 -131.5 105t-47.5 174q0 119 56.5 213.5t155 149
t222.5 54.5q183 0 324 -116l-75 -122q-121 78 -248 78q-123 0 -203 -76.5t-80 -194.5z" />
    <glyph glyph-name="uniFED0" unicode="&#x63a;" horiz-adv-x="1186" arabic-form="medial" 
d="M493 1277l131 131l132 -131l-132 -132zM615 866q106 0 198 -33t148.5 -99t56.5 -166q0 -97 -71.5 -177.5t-183.5 -148.5v-10q59 -51 123.5 -60t136.5 -9h163v-163h-184q-111 0 -197 25t-177 116q-100 -64 -214 -102.5t-256 -38.5h-158q-29 0 -29 82q0 81 29 81h147
q110 0 198.5 21.5t161.5 54.5v10l-361 340v118q103 75 217.5 117t251.5 42zM625 707q-175 0 -311 -80v-5l321 -325q109 60 174.5 125.5t65.5 135.5q0 54 -38 87t-95.5 47.5t-116.5 14.5z" />
    <glyph glyph-name="uniFED1" unicode="&#x641;" horiz-adv-x="1811" arabic-form="isolated" 
d="M1169 1552l131 131l132 -131l-132 -132zM1556 444q-71 -18 -140 -27t-127 -9q-322 0 -322 279q0 139 43 243.5t120 163.5t177 59q120 0 208 -84.5t136 -238.5t48 -365q0 -133 -41 -222.5t-135.5 -143t-254 -76.5t-395.5 -23q-281 0 -450 41t-244 135.5t-75 254.5
q0 125 46 330l144 -32q-40 -185 -40 -281q0 -111 58 -173t196 -87t377 -25q208 0 339.5 12t203.5 42t100 85t28 142zM1537 585q-11 194 -73 301t-163 107q-88 0 -144.5 -81t-56.5 -205q0 -153 197 -153q102 0 240 31z" />
    <glyph glyph-name="uniFED2" unicode="&#x641;" horiz-adv-x="1943" arabic-form="final" 
d="M1309 1333l131 131l132 -131l-132 -132zM1438 94q-112 -49 -250.5 -71.5t-287.5 -22.5q-242 0 -421 33t-277 124t-98 266q0 85 21.5 177.5t50.5 179.5l139 -47q-23 -70 -42 -148t-19 -146q0 -112 71.5 -171t215 -81t359.5 -24q96 -1 195 7t185 26l2 9q-91 53 -149 135
t-58 200t48 203t130.5 131t186.5 46q102 0 184.5 -46t131 -131t48.5 -202q0 -118 -60.5 -201.5t-151.5 -136.5l2 -9q51 -16 109 -23.5t118 -7.5h122v-163h-140q-111 0 -196 24t-169 70zM1439 243q95 44 153 114.5t58 177.5q0 101 -59 163.5t-151 62.5q-94 0 -152.5 -62
t-58.5 -164q0 -104 59 -175t151 -117z" />
    <glyph glyph-name="uniFED3" unicode="&#x641;" horiz-adv-x="960" arabic-form="initial" 
d="M328 1547l131 131l132 -131l-132 -132zM0 163h344q203 0 286 64.5t83 216.5q-144 -36 -267 -36q-322 0 -322 279q0 139 42.5 243.5t119 163.5t177.5 59q120 0 208 -84.5t136 -238.5t48 -365q0 -241 -127 -353t-402 -112h-326q-29 0 -29 82q0 81 29 81zM694 585
q-12 194 -74.5 301t-162.5 107q-88 0 -144.5 -80.5t-56.5 -205.5q0 -153 198 -153q99 0 240 31z" />
    <glyph glyph-name="uniFED4" unicode="&#x641;" horiz-adv-x="992" arabic-form="medial" 
d="M364 1327l131 131l132 -131l-132 -132zM131 540q0 118 48 203t130.5 131t186.5 46q102 0 184.5 -46t131 -131t48.5 -202q0 -118 -60.5 -201.5t-151.5 -136.5l2 -9q99 -31 220 -31h122v-163h-140q-109 0 -192.5 24t-166.5 70q-81 -46 -165 -70t-194 -24h-134q-30 0 -30 82
q0 81 30 81h113q124 0 230 31l2 9q-91 52 -152.5 135.5t-61.5 201.5zM495 240q94 45 152.5 116t58.5 179q0 101 -59 163.5t-151 62.5q-94 0 -152.5 -62t-58.5 -164q0 -106 58.5 -177.5t151.5 -117.5z" />
    <glyph glyph-name="uniFED5" unicode="&#x642;" horiz-adv-x="1528" arabic-form="isolated" 
d="M733 1210l131 131l131 -131l-131 -132zM1081 1210l131 131l132 -131l-132 -132zM1039 817q104 0 178 -57.5t120.5 -154t68 -215t21.5 -240.5q0 -309 -168 -476.5t-510 -167.5q-319 0 -481.5 137t-162.5 405q0 144 51 445l153 -31q-25 -139 -36.5 -238.5t-11.5 -169.5
q0 -199 124.5 -291.5t369.5 -92.5q247 0 375.5 102.5t145.5 301.5l-7 9q-49 -13 -110.5 -23t-128.5 -10q-154 0 -244 73t-90 231q0 122 39.5 227.5t116 170.5t187.5 65zM1274 241q-3 65 -16 136.5t-40.5 134t-72 102t-109.5 39.5q-70 0 -116 -42.5t-68.5 -107t-22.5 -130.5
q0 -93 56 -128t152 -35q68 0 128 9t109 22z" />
    <glyph glyph-name="uniFED6" unicode="&#x642;" horiz-adv-x="1506" arabic-form="final" 
d="M736 1150l131 131l131 -131l-131 -132zM1084 1150l131 131l132 -131l-132 -132zM1042 758q98 0 168 -52t115 -138.5t69 -192t31 -212.5h81v-163h-85q-19 -266 -191 -409.5t-477 -143.5q-320 0 -484 135t-164 406q0 144 51 445l153 -31q-25 -139 -36.5 -238.5
t-11.5 -168.5q0 -202 126 -293t373 -91q230 0 366 97.5t153 286.5l-6 9q-59 -1 -119.5 -2.5t-119.5 -1.5q-154 0 -244.5 72t-90.5 231q0 121 39.5 224.5t116 167t187.5 63.5zM1039 593q-70 0 -116 -40.5t-68.5 -102.5t-22.5 -129q0 -93 56.5 -128t151.5 -35q61 0 121 0.5
t119 1.5q-3 67 -15.5 142.5t-40 141.5t-72.5 107.5t-113 41.5z" />
    <glyph glyph-name="uniFED7" unicode="&#x642;" horiz-adv-x="960" arabic-form="initial" 
d="M154 1539l131 131l131 -131l-131 -132zM502 1539l131 131l132 -131l-132 -132zM0 163h344q203 0 286 64.5t83 216.5q-144 -36 -267 -36q-322 0 -322 279q0 139 42.5 243.5t119 163.5t177.5 59q120 0 208 -84.5t136 -238.5t48 -365q0 -241 -127 -353t-402 -112h-326
q-29 0 -29 82q0 81 29 81zM694 585q-12 194 -74.5 301t-162.5 107q-88 0 -144.5 -80.5t-56.5 -205.5q0 -153 198 -153q99 0 240 31z" />
    <glyph glyph-name="uniFED8" unicode="&#x642;" horiz-adv-x="992" arabic-form="medial" 
d="M189 1284l131 131l131 -131l-131 -132zM537 1284l131 131l132 -131l-132 -132zM131 540q0 118 48 203t130.5 131t186.5 46q102 0 184.5 -46t131 -131t48.5 -202q0 -118 -60.5 -201.5t-151.5 -136.5l2 -9q99 -31 220 -31h122v-163h-140q-109 0 -192.5 24t-166.5 70
q-81 -46 -165 -70t-194 -24h-134q-30 0 -30 82q0 81 30 81h113q124 0 230 31l2 9q-91 52 -152.5 135.5t-61.5 201.5zM495 240q94 45 152.5 116t58.5 179q0 101 -59 163.5t-151 62.5q-94 0 -152.5 -62t-58.5 -164q0 -106 58.5 -177.5t151.5 -117.5z" />
    </font>
</defs>
</svg>
