<?xml version="1.0" standalone="no"?>
<!DOCTYPE svg PUBLIC "-//W3C//DTD SVG 1.1//EN" "http://www.w3.org/Graphics/SVG/1.1/DTD/svg11.dtd" >
<svg xmlns="http://www.w3.org/2000/svg" xmlns:xlink="http://www.w3.org/1999/xlink" version="1.1">
<metadata>
Created by FontForge 20170731 at Wed Jun  1 20:37:45 2022
 By Aleksey,,,
Copyright 2022 The Estedad Project Authors (https://github.com/aminabedi68/Estedad)
</metadata>
<defs>
<font id="Estedad-ExtraBold" horiz-adv-x="0" >
  <font-face 
    font-family="Estedad ExtraBold"
    font-weight="800"
    font-stretch="normal"
    units-per-em="2048"
    panose-1="0 0 0 0 0 0 0 0 0 0"
    ascent="1638"
    descent="-410"
    x-height="1113"
    cap-height="1478"
    bbox="-721 -1405 4300 2558"
    underline-thickness="150"
    underline-position="-975"
    unicode-range="U+0020-FEFC"
  />
<missing-glyph horiz-adv-x="1024" 
d="M102 -410v2048h820v-2048h-820zM204 -308h616v1844h-616v-1844z" />
    <glyph glyph-name="uni0622" unicode="&#x627;&#x653;" horiz-adv-x="573" 
d="M506 1756l126 -67q-77 -221 -215 -221q-57 0 -132 45q-39 23 -62 31.5t-42 8.5q-33 0 -58 -23t-59 -83l-123 80q91 212 221 212q55 0 126 -43q45 -26 71 -38.5t45 -12.5q30 0 51.5 23.5t50.5 87.5zM449 1275v-1275h-323v1275h323z" />
    <glyph glyph-name="uni0623" unicode="&#x627;&#x654;" horiz-adv-x="573" 
d="M449 1275v-1275h-323v1275h323zM445 1952l-37 -133q-33 10 -60 10q-46 0 -76.5 -23.5t-30.5 -61.5q0 -32 25.5 -53t63.5 -21q14 0 28.5 2t30.5 7l109 36l43 -144l-465 -150l-43 146l146 42v10q-70 38 -70 138q0 92 64 152t164 60q24 0 50.5 -4.5t57.5 -12.5z" />
    <glyph glyph-name="uni0624" unicode="&#x648;&#x654;" horiz-adv-x="965" 
d="M626 1587l-37 -133q-33 10 -60 10q-46 0 -76.5 -23.5t-30.5 -61.5q0 -32 25.5 -53t63.5 -21q14 0 28.5 2t30.5 7l109 36l43 -144l-465 -150l-43 146l146 42v10q-70 38 -70 138q0 92 64 152t164 60q24 0 50.5 -4.5t57.5 -12.5zM596 3l-9 15q-33 -10 -72.5 -15.5
t-77.5 -5.5q-175 0 -269.5 96t-94.5 276q0 141 43.5 266t131.5 203t221 78q118 0 202 -60t137.5 -164t79 -236.5t25.5 -278.5q0 -264 -177 -440.5t-532 -290.5l-147 306q123 30 232.5 70.5t190 87t116.5 93.5zM605 339q-2 90 -35.5 161.5t-110.5 71.5q-58 0 -90.5 -46.5
t-32.5 -105.5q0 -49 31 -71.5t84 -22.5q40 0 78.5 4t75.5 9z" />
    <glyph glyph-name="uni0625" unicode="&#x627;&#x655;" horiz-adv-x="573" 
d="M434 -191l-37 -133q-33 10 -60 10q-46 0 -76.5 -23.5t-30.5 -61.5q0 -32 25.5 -53t63.5 -21q14 0 28.5 2t30.5 7l109 36l43 -144l-465 -150l-43 146l146 42v10q-70 38 -70 138q0 92 64 152t164 60q24 0 50.5 -4.5t57.5 -12.5zM449 0h-323v1434h323v-1434z" />
    <glyph glyph-name="uni0626" unicode="&#x649;&#x654;" horiz-adv-x="1600" 
d="M542 1330l-37 -133q-33 10 -60 10q-46 0 -76.5 -23.5t-30.5 -61.5q0 -32 25.5 -53t63.5 -21q14 0 28.5 2t30.5 7l109 36l43 -144l-465 -150l-43 146l146 42v10q-70 38 -70 138q0 92 64 152t164 60q24 0 50.5 -4.5t57.5 -12.5zM1496 990l-103 -292q-107 43 -209 43
q-112 0 -188.5 -62t-76.5 -157q0 -41 26.5 -63t93.5 -34t188 -23q152 -13 230.5 -80t78.5 -208q0 -169 -96.5 -295.5t-270.5 -196.5t-405 -70q-337 0 -516 153.5t-179 433.5q0 50 6.5 129t18 170.5t24.5 177.5l311 -56q-25 -141 -36.5 -232.5t-11.5 -156.5q0 -142 92.5 -211
t301.5 -69q125 0 230.5 21.5t169.5 56.5t64 75q0 38 -49 49.5t-123 16.5q-220 17 -328.5 100.5t-108.5 266.5q0 122 44 227.5t122.5 185.5t182.5 124.5t223 44.5q138 0 294 -69z" />
    <glyph glyph-name="uni06C0" unicode="&#x647;&#x654;" horiz-adv-x="952" 
d="M471 -11q-133 0 -226.5 49t-142.5 131.5t-49 182.5q0 140 67.5 258.5t170.5 225.5q-22 23 -49 47t-53 46l199 238q86 -70 176 -156.5t166 -186.5t123 -211t47 -231q0 -112 -54.5 -201t-151 -140.5t-223.5 -51.5zM471 331q68 0 93.5 29.5t25.5 63.5q0 44 -28.5 102.5
t-90.5 116.5q-62 -58 -92 -117.5t-30 -101.5q0 -34 26 -63.5t96 -29.5zM352 1328q-27 0 -59.5 3.5t-70.5 9.5l35 153q63 -13 119 -13q63 0 106.5 13.5t43.5 38.5q0 17 -21 24.5t-74 17.5q-79 15 -119 48t-40 94q0 117 74 190.5t189 73.5q54 0 118 -16l-48 -145q-19 5 -40 8
t-42 3q-48 0 -81.5 -21t-33.5 -55q0 -22 25.5 -33t95.5 -25q66 -12 100 -43.5t34 -94.5q0 -108 -85.5 -169.5t-225.5 -61.5z" />
    <glyph glyph-name="uniFBA5" unicode="&#xfeea;&#x654;" horiz-adv-x="1195" arabic-form="final" 
d="M648 996l-10 172l324 19l37 -626q8 -121 51.5 -170.5t143.5 -49.5h1v-341h-1q-282 0 -410 197q-50 -23 -111.5 -36.5t-115.5 -13.5q-195 0 -314.5 89t-119.5 243q0 198 135.5 331t389.5 186zM671 686q-121 -7 -194.5 -46t-73.5 -98q0 -43 47 -65.5t126 -22.5q35 0 62.5 3
t51.5 8q-8 45 -9 74zM270 1174q-27 0 -59.5 3.5t-70.5 9.5l35 153q63 -13 119 -13q63 0 106.5 13.5t43.5 38.5q0 17 -21 24.5t-74 17.5q-79 15 -119 48t-40 94q0 117 74 190.5t189 73.5q54 0 118 -16l-48 -145q-19 5 -40 8t-42 3q-48 0 -81.5 -21t-33.5 -55q0 -22 25.5 -33
t95.5 -25q66 -12 100 -43.5t34 -94.5q0 -108 -85.5 -169.5t-225.5 -61.5z" />
    <glyph glyph-name="uniFDF2" unicode="&#x627;&#xfedf;&#xfee0;&#xfeea;" horiz-adv-x="3152" arabic-form="isolated" 
d="M3028 0h-323v1434h323v-1434zM1932 341q88 0 131 12.5t57 48.5t14 106v926h326v-926q0 -245 -133 -376.5t-395 -131.5q-21 0 -34 34.5t-13 137.5q0 102 13 135.5t34 33.5zM1485 2251h152v-426h-152v426zM1546 1525q-13 -38 -43 -61t-71 -23q-69 0 -110.5 43.5
t-41.5 116.5q0 54 9 94t25 89l117 -38q-8 -22 -16.5 -52.5t-8.5 -53.5q0 -48 41 -48q50 0 50 87v40h109v-40q0 -87 50 -87q39 0 39 48q0 23 -7.5 53.5t-16.5 52.5l118 38q16 -49 24.5 -89t8.5 -94q0 -73 -41.5 -116.5t-110.5 -43.5q-40 0 -70.5 23t-43.5 61h-10zM1555 229
q-34 -96 -126 -162.5t-234 -66.5q-21 0 -33.5 34.5t-12.5 137.5q0 102 12.5 135.5t33.5 33.5q90 0 133 13t56 49.5t13 106.5v772h325v-757q0 -102 42.5 -143t163.5 -41h1v-341h-1q-148 0 -238 67.5t-125 161.5h-10zM648 996l-10 172l324 19l37 -626q8 -121 51.5 -170.5
t143.5 -49.5h1v-341h-1q-282 0 -410 197q-50 -23 -111.5 -36.5t-115.5 -13.5q-195 0 -314.5 89t-119.5 243q0 198 135.5 331t389.5 186zM671 686q-121 -7 -194.5 -46t-73.5 -98q0 -43 47 -65.5t126 -22.5q35 0 62.5 3t51.5 8q-8 45 -9 74z" />
    <glyph glyph-name="uniFE71" unicode="&#x640;&#x64b;" horiz-adv-x="868" arabic-form="medial" 
d="M661 1247l46 -152l-466 -151l-46 154zM661 962l46 -152l-466 -151l-46 154zM0 341h868v-341h-868q-22 0 -34 34.5t-12 137.5t12 136t34 33z" />
    <glyph glyph-name="uniFE77" unicode="&#x640;&#x64e;" horiz-adv-x="868" arabic-form="medial" 
d="M661 962l46 -152l-466 -151l-46 154zM0 341h868v-341h-868q-22 0 -34 34.5t-12 137.5t12 136t34 33z" />
    <glyph glyph-name="uniFE79" unicode="&#x640;&#x64f;" horiz-adv-x="868" arabic-form="medial" 
d="M535 1297q72 0 115.5 -49t43.5 -134q0 -83 -58 -161t-160.5 -140.5t-235.5 -97.5l-38 144q38 10 92.5 31t109.5 49q-44 23 -67.5 64.5t-23.5 92.5q0 53 31 99t82 74t109 28zM514 1156q-25 0 -52.5 -21t-27.5 -41q0 -42 87 -76q32 32 32 89q0 21 -11 35t-28 14zM0 341h868
v-341h-868q-22 0 -34 34.5t-12 137.5t12 136t34 33z" />
    <glyph glyph-name="uniFE7B" unicode="&#x640;&#x650;" horiz-adv-x="868" arabic-form="medial" 
d="M654 -259l46 -152l-466 -151l-46 154zM0 341h868v-341h-868q-22 0 -34 34.5t-12 137.5t12 136t34 33z" />
    <glyph glyph-name="uniFE7D" unicode="&#x640;&#x651;" horiz-adv-x="868" arabic-form="medial" 
d="M0 341h868v-341h-868q-22 0 -34 34.5t-12 137.5t12 136t34 33zM436 723q-13 -38 -43 -61t-71 -23q-69 0 -110.5 43.5t-41.5 116.5q0 54 9 94t25 89l117 -38q-8 -22 -16.5 -52.5t-8.5 -53.5q0 -48 41 -48q50 0 50 87v40h109v-40q0 -87 50 -87q39 0 39 48q0 23 -7.5 53.5
t-16.5 52.5l118 38q16 -49 24.5 -89t8.5 -94q0 -73 -41.5 -116.5t-110.5 -43.5q-40 0 -70.5 23t-43.5 61h-10z" />
    <glyph glyph-name="uniFE7F" unicode="&#x640;&#x652;" horiz-adv-x="868" arabic-form="medial" 
d="M434 999q77 0 129.5 -50.5t52.5 -128.5t-52 -129.5t-130 -51.5t-130 51.5t-52 129.5q0 77 52 128t130 51zM434 881q-31 0 -52 -16.5t-21 -44.5q0 -27 21.5 -45t51.5 -18q29 0 51 18.5t22 44.5t-21 43.5t-52 17.5zM0 341h868v-341h-868q-22 0 -34 34.5t-12 137.5t12 136
t34 33z" />
    <glyph glyph-name="uniFEF5" unicode="&#xfedf;&#xfe82;" horiz-adv-x="1276" arabic-form="isolated" 
d="M-9 1607q78 171 204 171q26 0 53.5 -6.5t55.5 -22.5q34 -18 58 -28t40 -10q26 0 43.5 20.5t41.5 67.5l128 -67q-65 -179 -197 -179q-52 0 -112 31q-28 14 -50.5 22.5t-40.5 8.5q-28 0 -49.5 -20t-49.5 -64zM761 940q95 100 95 286v208h326v-208q0 -153 -52 -273.5
t-163 -230.5q110 -98 162.5 -184.5t52.5 -175.5q0 -174 -150.5 -273.5t-407.5 -99.5q-106 0 -215 23t-249 75v357l411 291l-485 465l228 239zM745 575l-253 -187v-30q39 -11 91.5 -18.5t103.5 -7.5q90 0 147.5 21t57.5 49q0 46 -147 173z" />
    <glyph glyph-name="uniFEF6" unicode="&#xfee0;&#xfe82;" horiz-adv-x="1416" arabic-form="final" 
d="M-9 1677q78 171 204 171q26 0 53.5 -6.5t55.5 -22.5q34 -18 58 -28t40 -10q26 0 43.5 20.5t41.5 67.5l128 -67q-65 -179 -197 -179q-52 0 -112 31q-28 14 -50.5 22.5t-40.5 8.5q-28 0 -49.5 -20t-49.5 -64zM93 1372l306 83q31 -87 55.5 -172.5t45 -183.5t39.5 -220
t39 -283l-320 -42q-28 253 -69 455t-96 363zM891 1434h325v-918q0 -99 49.5 -137t149.5 -38h1v-341h-1q-350 0 -438 297l-2 14q-87 -106 -208.5 -175t-293 -102.5t-407.5 -33.5v341q218 0 371.5 27t262 85t191.5 150v831z" />
    <glyph glyph-name="uniFEF7" unicode="&#xfedf;&#xfe84;" horiz-adv-x="1276" arabic-form="isolated" 
d="M460 2013l-37 -133q-33 10 -60 10q-46 0 -76.5 -23.5t-30.5 -61.5q0 -32 25.5 -53t63.5 -21q14 0 28.5 2t30.5 7l109 36l43 -144l-465 -150l-43 146l146 42v10q-70 38 -70 138q0 92 64 152t164 60q24 0 50.5 -4.5t57.5 -12.5zM761 940q95 100 95 286v208h326v-208
q0 -153 -52 -273.5t-163 -230.5q110 -98 162.5 -184.5t52.5 -175.5q0 -174 -150.5 -273.5t-407.5 -99.5q-106 0 -215 23t-249 75v357l411 291l-485 465l228 239zM745 575l-253 -187v-30q39 -11 91.5 -18.5t103.5 -7.5q90 0 147.5 21t57.5 49q0 46 -147 173z" />
    <glyph glyph-name="uniFEF8" unicode="&#xfee0;&#xfe84;" horiz-adv-x="1416" arabic-form="final" 
d="M460 2083l-37 -133q-33 10 -60 10q-46 0 -76.5 -23.5t-30.5 -61.5q0 -32 25.5 -53t63.5 -21q14 0 28.5 2t30.5 7l109 36l43 -144l-465 -150l-43 146l146 42v10q-70 38 -70 138q0 92 64 152t164 60q24 0 50.5 -4.5t57.5 -12.5zM93 1372l306 83q31 -87 55.5 -172.5
t45 -183.5t39.5 -220t39 -283l-320 -42q-28 253 -69 455t-96 363zM891 1434h325v-918q0 -99 49.5 -137t149.5 -38h1v-341h-1q-350 0 -438 297l-2 14q-87 -106 -208.5 -175t-293 -102.5t-407.5 -33.5v341q218 0 371.5 27t262 85t191.5 150v831z" />
    <glyph glyph-name="uniFEF9" unicode="&#xfedf;&#xfe88;" horiz-adv-x="1276" arabic-form="isolated" 
d="M468 -139l-37 -133q-33 10 -60 10q-46 0 -76.5 -23.5t-30.5 -61.5q0 -32 25.5 -53t63.5 -21q14 0 28.5 2t30.5 7l109 36l43 -144l-465 -150l-43 146l146 42v10q-70 38 -70 138q0 92 64 152t164 60q24 0 50.5 -4.5t57.5 -12.5zM761 940q95 100 95 286v208h326v-208
q0 -153 -52 -273.5t-163 -230.5q110 -98 162.5 -184.5t52.5 -175.5q0 -174 -150.5 -273.5t-407.5 -99.5q-106 0 -215 23t-249 75v357l411 291l-485 465l228 239zM745 575l-253 -187v-30q39 -11 91.5 -18.5t103.5 -7.5q90 0 147.5 21t57.5 49q0 46 -147 173z" />
    <glyph glyph-name="uniFEFA" unicode="&#xfee0;&#xfe88;" horiz-adv-x="1416" arabic-form="final" 
d="M468 -189l-37 -133q-33 10 -60 10q-46 0 -76.5 -23.5t-30.5 -61.5q0 -32 25.5 -53t63.5 -21q14 0 28.5 2t30.5 7l109 36l43 -144l-465 -150l-43 146l146 42v10q-70 38 -70 138q0 92 64 152t164 60q24 0 50.5 -4.5t57.5 -12.5zM93 1372l306 83q31 -87 55.5 -172.5
t45 -183.5t39.5 -220t39 -283l-320 -42q-28 253 -69 455t-96 363zM891 1434h325v-918q0 -99 49.5 -137t149.5 -38h1v-341h-1q-350 0 -438 297l-2 14q-87 -106 -208.5 -175t-293 -102.5t-407.5 -33.5v341q218 0 371.5 27t262 85t191.5 150v831z" />
    <glyph glyph-name="uniFEFB" unicode="&#xfedf;&#xfe8e;" horiz-adv-x="1276" arabic-form="isolated" 
d="M761 940q95 100 95 286v208h326v-208q0 -153 -52 -273.5t-163 -230.5q110 -98 162.5 -184.5t52.5 -175.5q0 -174 -150.5 -273.5t-407.5 -99.5q-106 0 -215 23t-249 75v357l411 291l-485 465l228 239zM745 575l-253 -187v-30q39 -11 91.5 -18.5t103.5 -7.5q90 0 147.5 21
t57.5 49q0 46 -147 173z" />
    <glyph glyph-name="uniFEFC" unicode="&#xfee0;&#xfe8e;" horiz-adv-x="1416" arabic-form="final" 
d="M93 1372l306 83q31 -87 55.5 -172.5t45 -183.5t39.5 -220t39 -283l-320 -42q-28 253 -69 455t-96 363zM891 1434h325v-918q0 -99 49.5 -137t149.5 -38h1v-341h-1q-350 0 -438 297l-2 14q-87 -106 -208.5 -175t-293 -102.5t-407.5 -33.5v341q218 0 371.5 27t262 85
t191.5 150v831z" />
    <glyph glyph-name="uniFEDF_uniFB51.rlig" unicode="&#xfedf;&#xfb51;" horiz-adv-x="1276" 
d="M284 1834q72 98 128 138t120 40q72 0 111 -44t39 -124q0 -109 -66 -180.5t-167 -71.5q-68 0 -151 50q-61 36 -97 36q-31 0 -56 -23t-60 -84l-123 80q92 212 220 212q47 0 102 -29zM376 1786q39 -16 79 -16q102 0 102 55q0 45 -56 45q-58 0 -125 -84zM761 940
q95 100 95 286v208h326v-208q0 -153 -52 -273.5t-163 -230.5q110 -98 162.5 -184.5t52.5 -175.5q0 -174 -150.5 -273.5t-407.5 -99.5q-106 0 -215 23t-249 75v357l411 291l-485 465l228 239zM745 575l-253 -187v-30q39 -11 91.5 -18.5t103.5 -7.5q90 0 147.5 21t57.5 49
q0 46 -147 173z" />
    <glyph glyph-name="uniFEE0_uniFB51.rlig" unicode="&#xfee0;&#xfb51;" horiz-adv-x="1416" 
d="M284 1904q72 98 128 138t120 40q72 0 111 -44t39 -124q0 -109 -66 -180.5t-167 -71.5q-68 0 -151 50q-61 36 -97 36q-31 0 -56 -23t-60 -84l-123 80q92 212 220 212q47 0 102 -29zM376 1856q39 -16 79 -16q102 0 102 55q0 45 -56 45q-58 0 -125 -84zM93 1372l306 83
q31 -87 55.5 -172.5t45 -183.5t39.5 -220t39 -283l-320 -42q-28 253 -69 455t-96 363zM891 1434h325v-918q0 -99 49.5 -137t149.5 -38h1v-341h-1q-350 0 -438 297l-2 14q-87 -106 -208.5 -175t-293 -102.5t-407.5 -33.5v341q218 0 371.5 27t262 85t191.5 150v831z" />
    <glyph glyph-name="uni0620.init" unicode="&#x620;" horiz-adv-x="610" 
d="M119 -149q77 0 129.5 -50.5t52.5 -128.5t-52 -129.5t-130 -51.5t-130 51.5t-52 129.5q0 77 52 128t130 51zM119 -267q-31 0 -52 -16.5t-21 -44.5q0 -27 21.5 -45t51.5 -18q29 0 51 18.5t22 44.5t-21 43.5t-52 17.5zM493 882q31 -124 48 -230.5t17 -185.5
q0 -466 -524 -466h-34q-46 0 -46 172q0 169 46 169h34q106 0 156 40t50 128q0 41 -13.5 116.5t-37.5 173.5z" />
    <glyph glyph-name="uni0620.medi" unicode="&#x620;" horiz-adv-x="821" 
d="M92 -149q77 0 129.5 -50.5t52.5 -128.5t-52 -129.5t-130 -51.5t-130 51.5t-52 129.5q0 77 52 128t130 51zM92 -267q-31 0 -52 -16.5t-21 -44.5q0 -27 21.5 -45t51.5 -18q29 0 51 18.5t22 44.5t-21 43.5t-52 17.5zM575 558q0 -88 14.5 -135t59.5 -64.5t138 -17.5h34v-341
h-36q-127 0 -226 60t-142 163h-10q-42 -103 -145.5 -163t-227.5 -60h-34q-25 0 -35.5 40.5t-10.5 131.5q0 90 10.5 129.5t35.5 39.5h34q93 0 139.5 18t62 65t15.5 134v180h324v-180z" />
    <glyph glyph-name="uni0620.fina" unicode="&#x620;" horiz-adv-x="1566" 
d="M770 -757q77 0 129.5 -50.5t52.5 -128.5t-52 -129.5t-130 -51.5t-130 51.5t-52 129.5q0 77 52 128t130 51zM770 -875q-31 0 -52 -16.5t-21 -44.5q0 -27 21.5 -45t51.5 -18q29 0 51 18.5t22 44.5t-21 43.5t-52 17.5zM1379 -10q47 -52 67 -98.5t20 -104.5q0 -83 -54 -156.5
t-149.5 -129.5t-221 -88t-267.5 -32q-362 0 -539.5 153t-177.5 467q0 127 13.5 272t38.5 293l297 -58q-23 -136 -35.5 -258t-12.5 -221q0 -161 98.5 -233t321.5 -72q156 0 255 37.5t99 96.5q0 27 -34.5 47.5t-121.5 40t-243 43.5l49 352h784v-341h-187v-10z" />
    <glyph glyph-name="uni063B.init" unicode="&#x63b;" horiz-adv-x="908" 
d="M378 1713l149 149l148 -149l-148 -148zM60 1605l149 149l148 -149l-148 -148zM929 1506l45 -339q-199 -44 -332 -80t-244 -75v-5q149 -120 238 -212.5t128.5 -172.5t39.5 -164q0 -218 -170.5 -338t-482.5 -120h-151q-24 0 -35 39.5t-11 132.5q0 92 11 130.5t35 38.5h143
q174 0 255 33t81 103q0 41 -44.5 96t-149 140t-284.5 215l24 277q215 105 436 178.5t468 122.5z" />
    <glyph glyph-name="uni063B.medi" unicode="&#x63b;" horiz-adv-x="1139" 
d="M378 1713l149 149l148 -149l-148 -148zM60 1605l149 149l148 -149l-148 -148zM686 296q-47 -108 -115.5 -173t-170 -94t-249.5 -29h-151q-24 0 -35 39.5t-11 130.5q0 92 11 131.5t35 39.5h143q328 0 328 133q0 42 -46.5 100.5t-150 144.5t-273.5 209l24 277
q216 105 437.5 179t466.5 122l45 -339q-197 -43 -330 -79t-246 -76v-5q93 -74 154.5 -130.5t110.5 -115.5t103 -143q63 -105 116.5 -165.5t114 -86t141.5 -25.5h1v-341h-1q-156 0 -260.5 70t-181.5 226h-10z" />
    <glyph glyph-name="uni063B.fina" unicode="&#x63b;" horiz-adv-x="1960" 
d="M1204 1713l149 149l148 -149l-148 -148zM886 1605l149 149l148 -149l-148 -148zM1507 294q-64 -151 -232 -222.5t-464 -71.5q-398 0 -577 123.5t-179 397.5q0 72 11.5 169t32.5 204l294 -64q-15 -86 -24 -162t-9 -111q0 -119 99 -167.5t345 -48.5q237 0 363 36.5
t126 104.5q0 57 -112 163t-358 283l23 277q215 105 436.5 179t467.5 122l45 -339q-197 -43 -330.5 -79t-245.5 -76l1 -5q95 -76 157 -134t110 -117.5t100 -140.5q63 -106 117 -165.5t114 -84t141 -24.5h1v-341h-1q-157 1 -261 70t-181 224h-10z" />
    <glyph glyph-name="uni063C.init" unicode="&#x63c;" horiz-adv-x="908" 
d="M170 -335l189 190l175 -175l175 175l190 -190l-190 -189l-175 175l-175 -175zM346 -670l189 189l190 -189l-190 -190zM929 1506l45 -339q-199 -44 -332 -80t-244 -75v-5q149 -120 238 -212.5t128.5 -172.5t39.5 -164q0 -218 -170.5 -338t-482.5 -120h-151q-24 0 -35 39.5
t-11 132.5q0 92 11 130.5t35 38.5h143q174 0 255 33t81 103q0 41 -44.5 96t-149 140t-284.5 215l24 277q215 105 436 178.5t468 122.5z" />
    <glyph glyph-name="uni063C.medi" unicode="&#x63c;" horiz-adv-x="1139" 
d="M170 -335l189 190l175 -175l175 175l190 -190l-190 -189l-175 175l-175 -175zM346 -670l189 189l190 -189l-190 -190zM686 296q-47 -108 -115.5 -173t-170 -94t-249.5 -29h-151q-24 0 -35 39.5t-11 130.5q0 92 11 131.5t35 39.5h143q328 0 328 133q0 42 -46.5 100.5
t-150 144.5t-273.5 209l24 277q216 105 437.5 179t466.5 122l45 -339q-197 -43 -330 -79t-246 -76v-5q93 -74 154.5 -130.5t110.5 -115.5t103 -143q63 -105 116.5 -165.5t114 -86t141.5 -25.5h1v-341h-1q-156 0 -260.5 70t-181.5 226h-10z" />
    <glyph glyph-name="uni063C.fina" unicode="&#x63c;" horiz-adv-x="1960" 
d="M453 -335l189 190l175 -175l175 175l190 -190l-190 -189l-175 175l-175 -175zM629 -670l189 189l190 -189l-190 -190zM1507 294q-64 -151 -232 -222.5t-464 -71.5q-398 0 -577 123.5t-179 397.5q0 72 11.5 169t32.5 204l294 -64q-15 -86 -24 -162t-9 -111
q0 -119 99 -167.5t345 -48.5q237 0 363 36.5t126 104.5q0 57 -112 163t-358 283l23 277q215 105 436.5 179t467.5 122l45 -339q-197 -43 -330.5 -79t-245.5 -76l1 -5q95 -76 157 -134t110 -117.5t100 -140.5q63 -106 117 -165.5t114 -84t141 -24.5h1v-341h-1q-157 1 -261 70
t-181 224h-10z" />
    <glyph glyph-name="uni063D.init" unicode="&#x63d;" horiz-adv-x="610" 
d="M217 1433h142l209 -282l-128 -96l-152 217l-152 -217l-128 96zM493 882q31 -124 48 -230.5t17 -185.5q0 -466 -524 -466h-34q-46 0 -46 172q0 169 46 169h34q106 0 156 40t50 128q0 41 -13.5 116.5t-37.5 173.5zM-249 -336l189 190l175 -175l175 175l190 -190l-190 -189
l-175 175l-175 -175z" />
    <glyph glyph-name="uni063D.medi" unicode="&#x63d;" horiz-adv-x="821" 
d="M221 1270h142l209 -282l-128 -96l-152 217l-152 -217l-128 96zM575 558q0 -88 14.5 -135t59.5 -64.5t138 -17.5h34v-341h-36q-127 0 -226 60t-142 163h-10q-42 -103 -145.5 -163t-227.5 -60h-34q-25 0 -35.5 40.5t-10.5 131.5q0 90 10.5 129.5t35.5 39.5h34
q93 0 139.5 18t62 65t15.5 134v180h324v-180zM-280 -336l189 190l175 -175l175 175l190 -190l-190 -189l-175 175l-175 -175z" />
    <glyph glyph-name="uni063D.fina" unicode="&#x63d;" horiz-adv-x="1566" 
d="M911 925h142l209 -282l-128 -96l-152 217l-152 -217l-128 96zM1379 -10q47 -52 67 -98.5t20 -104.5q0 -83 -54 -156.5t-149.5 -129.5t-221 -88t-267.5 -32q-362 0 -539.5 153t-177.5 467q0 127 13.5 272t38.5 293l297 -58q-23 -136 -35.5 -258t-12.5 -221
q0 -161 98.5 -233t321.5 -72q156 0 255 37.5t99 96.5q0 27 -34.5 47.5t-121.5 40t-243 43.5l49 352h784v-341h-187v-10z" />
    <glyph glyph-name="uni063E.init" unicode="&#x63e;" horiz-adv-x="610" 
d="M-118 1178l189 190l175 -175l175 175l190 -190l-190 -189l-175 175l-175 -175zM493 882q31 -124 48 -230.5t17 -185.5q0 -466 -524 -466h-34q-46 0 -46 172q0 169 46 169h34q106 0 156 40t50 128q0 41 -13.5 116.5t-37.5 173.5zM-249 -336l189 190l175 -175l175 175
l190 -190l-190 -189l-175 175l-175 -175z" />
    <glyph glyph-name="uni063E.medi" unicode="&#x63e;" horiz-adv-x="821" 
d="M-51 1090l189 190l175 -175l175 175l190 -190l-190 -189l-175 175l-175 -175zM575 558q0 -88 14.5 -135t59.5 -64.5t138 -17.5h34v-341h-36q-127 0 -226 60t-142 163h-10q-42 -103 -145.5 -163t-227.5 -60h-34q-25 0 -35.5 40.5t-10.5 131.5q0 90 10.5 129.5t35.5 39.5
h34q93 0 139.5 18t62 65t15.5 134v180h324v-180zM-280 -336l189 190l175 -175l175 175l190 -190l-190 -189l-175 175l-175 -175z" />
    <glyph glyph-name="uni063E.fina" unicode="&#x63e;" horiz-adv-x="1566" 
d="M617 754l189 190l175 -175l175 175l190 -190l-190 -189l-175 175l-175 -175zM1379 -10q47 -52 67 -98.5t20 -104.5q0 -83 -54 -156.5t-149.5 -129.5t-221 -88t-267.5 -32q-362 0 -539.5 153t-177.5 467q0 127 13.5 272t38.5 293l297 -58q-23 -136 -35.5 -258t-12.5 -221
q0 -161 98.5 -233t321.5 -72q156 0 255 37.5t99 96.5q0 27 -34.5 47.5t-121.5 40t-243 43.5l49 352h784v-341h-187v-10z" />
    <glyph glyph-name="uni063F.init" unicode="&#x63f;" horiz-adv-x="610" 
d="M57 1514l189 189l190 -189l-190 -189zM-118 1178l189 190l175 -175l175 175l190 -190l-190 -189l-175 175l-175 -175zM493 882q31 -124 48 -230.5t17 -185.5q0 -466 -524 -466h-34q-46 0 -46 172q0 169 46 169h34q106 0 156 40t50 128q0 41 -13.5 116.5t-37.5 173.5z
M-249 -336l189 190l175 -175l175 175l190 -190l-190 -189l-175 175l-175 -175z" />
    <glyph glyph-name="uni063F.medi" unicode="&#x63f;" horiz-adv-x="821" 
d="M124 1426l189 189l190 -189l-190 -189zM-51 1090l189 190l175 -175l175 175l190 -190l-190 -189l-175 175l-175 -175zM575 558q0 -88 14.5 -135t59.5 -64.5t138 -17.5h34v-341h-36q-127 0 -226 60t-142 163h-10q-42 -103 -145.5 -163t-227.5 -60h-34q-25 0 -35.5 40.5
t-10.5 131.5q0 90 10.5 129.5t35.5 39.5h34q93 0 139.5 18t62 65t15.5 134v180h324v-180zM-280 -336l189 190l175 -175l175 175l190 -190l-190 -189l-175 175l-175 -175z" />
    <glyph glyph-name="uni063F.fina" unicode="&#x63f;" horiz-adv-x="1566" 
d="M792 1090l189 189l190 -189l-190 -189zM617 754l189 190l175 -175l175 175l190 -190l-190 -189l-175 175l-175 -175zM1379 -10q47 -52 67 -98.5t20 -104.5q0 -83 -54 -156.5t-149.5 -129.5t-221 -88t-267.5 -32q-362 0 -539.5 153t-177.5 467q0 127 13.5 272t38.5 293
l297 -58q-23 -136 -35.5 -258t-12.5 -221q0 -161 98.5 -233t321.5 -72q156 0 255 37.5t99 96.5q0 27 -34.5 47.5t-121.5 40t-243 43.5l49 352h784v-341h-187v-10z" />
    <glyph glyph-name="uni06A1.init" unicode="&#x66f;" horiz-adv-x="962" 
d="M0 341h323q117 0 181.5 14.5t90 49.5t25.5 96q-124 -31 -220 -31q-181 0 -267 80t-86 248q0 253 106.5 401.5t287.5 148.5q141 0 245 -96t160.5 -271t56.5 -413q0 -294 -140 -431t-442 -137h-321q-24 0 -35 40.5t-11 131.5q0 90 11 129.5t35 39.5zM570 778
q-23 236 -143 236q-55 0 -88.5 -45.5t-33.5 -119.5q0 -86 119 -86q61 0 146 15z" />
    <glyph glyph-name="uni06A1.medi" unicode="&#x66f;" horiz-adv-x="1050" 
d="M83 630q0 132 59.5 233t159.5 158.5t222 57.5q121 0 221.5 -57.5t160.5 -157.5t60 -230q0 -85 -35.5 -156.5t-97.5 -122.5l5 -8l56 -4t59 -2h97v-341h-116q-139 0 -237.5 35.5t-178.5 96.5q-78 -61 -174 -96.5t-230 -35.5h-114q-25 0 -36 41t-11 131q0 89 11 129t36 40
h73q37 0 71.5 2t68.5 4l4 9q-63 50 -98.5 119.5t-35.5 154.5zM523 419q59 35 93 82t34 111q0 50 -35 87.5t-91 37.5q-57 0 -91.5 -36.5t-34.5 -88.5q0 -58 35 -107.5t90 -85.5z" />
    <glyph glyph-name="uni066F.fina" unicode="&#x66f;" horiz-adv-x="1563" 
d="M1077 916q129 0 219.5 -73.5t144.5 -203t72 -298.5h50v-341h-60q-48 -259 -239 -401.5t-493 -142.5q-352 0 -533 155t-181 457q0 84 14 204.5t45 301.5l314 -62q-26 -142 -38 -241t-12 -174q0 -298 402 -298q161 0 271.5 50t151.5 147l-9 15q-74 -11 -154 -11
q-170 0 -265 94t-95 277q0 158 48.5 281t137.5 193.5t209 70.5zM1069 572q-59 0 -91.5 -45t-32.5 -104q0 -50 31 -71.5t83 -21.5q41 0 80 0.5t76 4.5q-1 60 -15.5 114t-46.5 88.5t-84 34.5z" />
    <glyph glyph-name="uni0672.fina" unicode="&#x672;" horiz-adv-x="657" 
d="M113 1275h325v-759q0 -98 49.5 -136.5t168.5 -38.5h1v-341h-1q-254 0 -398.5 128t-144.5 380v767zM450 1803q-12 2 -20.5 3.5t-17.5 1.5q-42 0 -65.5 -19.5t-23.5 -51.5q0 -65 73 -65q26 0 83 16l60 17l43 -144l-230 -72q-30 -9 -58 -9q-19 0 -38 3t-44 12q-24 10 -40 10
q-15 0 -25 -13t-26 -48l-138 63q41 84 75 118t80 34q23 0 40.5 -7.5t42.5 -6.5l4 6q-25 21 -36 50.5t-11 63.5q0 75 65 131.5t159 56.5q20 0 39.5 -2t44.5 -8l47 -12l-34 -138z" />
    <glyph glyph-name="uni0673.fina" unicode="&#x673;" horiz-adv-x="657" 
d="M454 -341q-12 2 -20.5 3.5t-17.5 1.5q-42 0 -65.5 -19.5t-23.5 -51.5q0 -65 73 -65q26 0 83 16l60 17l43 -144l-230 -72q-30 -9 -58 -9q-19 0 -38 3t-44 12q-24 10 -40 10q-15 0 -25 -13t-26 -48l-138 63q41 84 75 118t80 34q23 0 40.5 -7.5t42.5 -6.5l4 6
q-25 21 -36 50.5t-11 63.5q0 75 65 131.5t159 56.5q20 0 39.5 -2t44.5 -8l47 -12l-34 -138zM113 1434h325v-918q0 -98 49.5 -136.5t168.5 -38.5h1v-341h-1q-254 0 -398.5 128t-144.5 380v926z" />
    <glyph glyph-name="uni0675.fina" unicode="&#x675;" horiz-adv-x="1079" 
d="M122 1434h325v-918q0 -98 45 -136.5t164 -38.5h423v-341h-423q-254 0 -394 128t-140 380v926zM934 1508l-37 -133q-33 10 -60 10q-46 0 -76.5 -23.5t-30.5 -61.5q0 -32 25.5 -53t63.5 -21q14 0 28.5 2t30.5 7l109 36l43 -144l-465 -150l-43 146l146 42v10q-70 38 -70 138
q0 92 64 152t164 60q24 0 50.5 -4.5t57.5 -12.5z" />
    <glyph glyph-name="uni0676.fina" unicode="&#x676;" horiz-adv-x="953" 
d="M875 1592l-37 -133q-33 10 -60 10q-46 0 -76.5 -23.5t-30.5 -61.5q0 -32 25.5 -53t63.5 -21q14 0 28.5 2t30.5 7l109 36l43 -144l-465 -150l-43 146l146 42v10q-70 38 -70 138q0 92 64 152t164 60q24 0 50.5 -4.5t57.5 -12.5zM596 -4l-8 15q-38 -6 -79 -8.5t-76 -2.5
q-172 0 -266 95t-94 276q0 141 43.5 265.5t131.5 202t221 77.5q136 0 226 -77.5t141 -208t68 -289.5h49v-341h-62q-46 -190 -219 -325t-468 -229l-147 306q121 29 230 68.5t190.5 85t118.5 90.5zM606 335q-1 60 -16 114t-46.5 88.5t-84.5 34.5q-58 0 -90.5 -45t-32.5 -104
q0 -50 31 -71.5t84 -21.5q37 0 76.5 0.5t78.5 4.5z" />
    <glyph glyph-name="uni0677.fina" unicode="&#x677;" horiz-adv-x="953" 
d="M323 1625q72 0 115.5 -49t43.5 -134q0 -83 -58 -161t-160.5 -140.5t-235.5 -97.5l-38 144q38 10 92.5 31t109.5 49q-44 23 -67.5 64.5t-23.5 92.5q0 53 31 99t82 74t109 28zM302 1484q-25 0 -52.5 -21t-27.5 -41q0 -42 87 -76q32 32 32 89q0 21 -11 35t-28 14zM875 1592
l-37 -133q-33 10 -60 10q-46 0 -76.5 -23.5t-30.5 -61.5q0 -32 25.5 -53t63.5 -21q14 0 28.5 2t30.5 7l109 36l43 -144l-465 -150l-43 146l146 42v10q-70 38 -70 138q0 92 64 152t164 60q24 0 50.5 -4.5t57.5 -12.5zM596 -4l-8 15q-38 -6 -79 -8.5t-76 -2.5q-172 0 -266 95
t-94 276q0 141 43.5 265.5t131.5 202t221 77.5q136 0 226 -77.5t141 -208t68 -289.5h49v-341h-62q-46 -190 -219 -325t-468 -229l-147 306q121 29 230 68.5t190.5 85t118.5 90.5zM606 335q-1 60 -16 114t-46.5 88.5t-84.5 34.5q-58 0 -90.5 -45t-32.5 -104q0 -50 31 -71.5
t84 -21.5q37 0 76.5 0.5t78.5 4.5z" />
    <glyph glyph-name="uni0678.fina" unicode="&#x678;" horiz-adv-x="1566" 
d="M1326 1045l-37 -133q-33 10 -60 10q-46 0 -76.5 -23.5t-30.5 -61.5q0 -32 25.5 -53t63.5 -21q14 0 28.5 2t30.5 7l109 36l43 -144l-465 -150l-43 146l146 42v10q-70 38 -70 138q0 92 64 152t164 60q24 0 50.5 -4.5t57.5 -12.5zM1379 -10q47 -52 67 -98.5t20 -104.5
q0 -83 -54 -156.5t-149.5 -129.5t-221 -88t-267.5 -32q-362 0 -539.5 153t-177.5 467q0 127 13.5 272t38.5 293l297 -58q-23 -136 -35.5 -258t-12.5 -221q0 -161 98.5 -233t321.5 -72q156 0 255 37.5t99 96.5q0 27 -34.5 47.5t-121.5 40t-243 43.5l49 352h784v-341h-187v-10
z" />
    <glyph glyph-name="uni067C.init" unicode="&#x67c;" horiz-adv-x="610" 
d="M0 121q91 0 145 -56t54 -148q0 -82 -55.5 -140t-143.5 -58q-83 0 -141 55t-58 143q0 86 58.5 145t140.5 59zM0 0q-36 0 -58 -18.5t-22 -50.5t23 -52t57 -20t57 20t23 52t-22.5 50.5t-57.5 18.5zM493 882q31 -124 48 -230.5t17 -185.5q0 -466 -524 -466h-34q-46 0 -46 172
q0 169 46 169h34q106 0 156 40t50 128q0 41 -13.5 116.5t-37.5 173.5zM-118 1178l189 190l175 -175l175 175l190 -190l-190 -189l-175 175l-175 -175z" />
    <glyph glyph-name="uni067C.medi" unicode="&#x67c;" horiz-adv-x="821" 
d="M0 121q91 0 145 -56t54 -148q0 -82 -55.5 -140t-143.5 -58q-83 0 -141 55t-58 143q0 86 58.5 145t140.5 59zM0 0q-36 0 -58 -18.5t-22 -50.5t23 -52t57 -20t57 20t23 52t-22.5 50.5t-57.5 18.5zM575 558q0 -88 14.5 -135t59.5 -64.5t138 -17.5h34v-341h-36
q-127 0 -226 60t-142 163h-10q-42 -103 -145.5 -163t-227.5 -60h-34q-25 0 -35.5 40.5t-10.5 131.5q0 90 10.5 129.5t35.5 39.5h34q93 0 139.5 18t62 65t15.5 134v180h324v-180zM-51 1090l189 190l175 -175l175 175l190 -190l-190 -189l-175 175l-175 -175z" />
    <glyph glyph-name="uni067C.fina" unicode="&#x67c;" horiz-adv-x="1969" 
d="M801 121q91 0 145 -56t54 -148q0 -82 -55.5 -140t-143.5 -58q-83 0 -141 55t-58 143q0 86 58.5 145t140.5 59zM801 0q-36 0 -58 -18.5t-22 -50.5t23 -52t57 -20t57 20t23 52t-22.5 50.5t-57.5 18.5zM1805 767q-16 -89 -24.5 -153.5t-8.5 -103.5q0 -79 47 -124t149 -45h1
v-341h-1q-151 0 -266.5 60t-172.5 206h-10q-110 -153 -293.5 -209.5t-434.5 -56.5q-738 0 -738 562q0 159 60 379l282 -76q-19 -74 -30 -144.5t-11 -112.5q0 -144 111.5 -205.5t374.5 -61.5q211 0 345 47t210.5 151t114.5 276zM557 871l189 190l175 -175l175 175l190 -190
l-190 -189l-175 175l-175 -175z" />
    <glyph glyph-name="uni067D.init" unicode="&#x67d;" horiz-adv-x="610" 
d="M-124 1548l189 190l175 -175l175 175l190 -190l-190 -189l-175 175l-175 -175zM52 1213l189 189l190 -189l-190 -190zM493 882q31 -124 48 -230.5t17 -185.5q0 -466 -524 -466h-34q-46 0 -46 172q0 169 46 169h34q106 0 156 40t50 128q0 41 -13.5 116.5t-37.5 173.5z" />
    <glyph glyph-name="uni067D.medi" unicode="&#x67d;" horiz-adv-x="821" 
d="M-56 1426l189 190l175 -175l175 175l190 -190l-190 -189l-175 175l-175 -175zM120 1091l189 189l190 -189l-190 -190zM575 558q0 -88 14.5 -135t59.5 -64.5t138 -17.5h34v-341h-36q-127 0 -226 60t-142 163h-10q-42 -103 -145.5 -163t-227.5 -60h-34q-25 0 -35.5 40.5
t-10.5 131.5q0 90 10.5 129.5t35.5 39.5h34q93 0 139.5 18t62 65t15.5 134v180h324v-180z" />
    <glyph glyph-name="uni067D.fina" unicode="&#x67d;" horiz-adv-x="1969" 
d="M557 1205l189 190l175 -175l175 175l190 -190l-190 -189l-175 175l-175 -175zM733 870l189 189l190 -189l-190 -190zM1805 767q-16 -89 -24.5 -153.5t-8.5 -103.5q0 -79 47 -124t149 -45h1v-341h-1q-151 0 -266.5 60t-172.5 206h-10q-110 -153 -293.5 -209.5
t-434.5 -56.5q-738 0 -738 562q0 159 60 379l282 -76q-19 -74 -30 -144.5t-11 -112.5q0 -144 111.5 -205.5t374.5 -61.5q211 0 345 47t210.5 151t114.5 276z" />
    <glyph glyph-name="uni0681.init" unicode="&#x681;" horiz-adv-x="1368" 
d="M846 1781l-37 -133q-33 10 -60 10q-46 0 -76.5 -23.5t-30.5 -61.5q0 -32 25.5 -53t63.5 -21q14 0 28.5 2t30.5 7l109 36l43 -144l-465 -150l-43 146l146 42v10q-70 38 -70 138q0 92 64 152t164 60q24 0 50.5 -4.5t57.5 -12.5zM481 1041q58 0 138.5 -25.5t235.5 -93.5
q155 -64 259.5 -100t201.5 -57v-263l-513 -307q-172 -103 -322 -149t-317 -46h-164q-24 0 -35 39.5t-11 132.5q0 92 11 130.5t35 38.5h232q74 0 137 11t134.5 37.5t168.5 72.5l223 111v10q-45 11 -95.5 29t-118.5 45q-80 29 -126.5 42t-75.5 13q-64 0 -102 -36t-70 -121
l-8 -23l-235 71l7 24q62 220 161 317t249 97z" />
    <glyph glyph-name="uni0681.medi" unicode="&#x681;" horiz-adv-x="1419" 
d="M846 1781l-37 -133q-33 10 -60 10q-46 0 -76.5 -23.5t-30.5 -61.5q0 -32 25.5 -53t63.5 -21q14 0 28.5 2t30.5 7l109 36l43 -144l-465 -150l-43 146l146 42v10q-70 38 -70 138q0 92 64 152t164 60q24 0 50.5 -4.5t57.5 -12.5zM481 1041q58 0 139 -25.5t235 -93.5
q155 -64 259.5 -100t201.5 -57v-263l-184 -100v-10q53 -29 127 -40t135 -11h25v-341h-26q-144 0 -264.5 63t-213.5 199l-112 -67q-172 -103 -322 -149t-317 -46h-164q-24 0 -35 39.5t-11 132.5q0 92 11 130.5t35 38.5h232q74 0 137 11t134.5 37.5t168.5 72.5l223 111v10
q-45 11 -95.5 29t-118.5 45q-80 29 -126.5 42t-75.5 13q-64 0 -102 -36t-70 -121l-8 -23l-235 71l7 24q62 220 161 317t249 97z" />
    <glyph glyph-name="uni0681.fina" unicode="&#x681;" horiz-adv-x="1485" 
d="M882 1831l-37 -133q-33 10 -60 10q-46 0 -76.5 -23.5t-30.5 -61.5q0 -32 25.5 -53t63.5 -21q14 0 28.5 2t30.5 7l109 36l43 -144l-465 -150l-43 146l146 42v10q-70 38 -70 138q0 92 64 152t164 60q24 0 50.5 -4.5t57.5 -12.5zM496 1095q63 0 147 -25.5t220 -86.5
q128 -57 217.5 -94t155 -59t121.5 -34l-41 -345q-66 -6 -112 -15v-11q68 -84 216 -84h65v-341h-17q-371 0 -449 379q-135 -17 -253 -62t-207.5 -109.5t-140.5 -141.5t-51 -158q0 -123 122.5 -196t327.5 -73q135 0 262.5 28t230.5 79l145 -293q-319 -161 -636 -161
q-231 0 -403.5 72.5t-268 203t-95.5 305.5q0 182 107 336t300.5 263t452.5 154v10q-83 20 -216 74q-82 30 -127.5 42.5t-74.5 12.5q-64 0 -102.5 -35.5t-69.5 -121.5l-8 -24l-234 71l7 25q65 219 161.5 317t247.5 98z" />
    <glyph glyph-name="uni0682.init" unicode="&#x682;" horiz-adv-x="1368" 
d="M499 1428l174 175l-174 175l188 189l190 -189l-175 -175l175 -175l-190 -189zM481 1041q58 0 138.5 -25.5t235.5 -93.5q155 -64 259.5 -100t201.5 -57v-263l-513 -307q-172 -103 -322 -149t-317 -46h-164q-24 0 -35 39.5t-11 132.5q0 92 11 130.5t35 38.5h232
q74 0 137 11t134.5 37.5t168.5 72.5l223 111v10q-45 11 -95.5 29t-118.5 45q-80 29 -126.5 42t-75.5 13q-64 0 -102 -36t-70 -121l-8 -23l-235 71l7 24q62 220 161 317t249 97z" />
    <glyph glyph-name="uni0682.medi" unicode="&#x682;" horiz-adv-x="1419" 
d="M499 1428l174 175l-174 175l188 189l190 -189l-175 -175l175 -175l-190 -189zM481 1041q58 0 139 -25.5t235 -93.5q155 -64 259.5 -100t201.5 -57v-263l-184 -100v-10q53 -29 127 -40t135 -11h25v-341h-26q-144 0 -264.5 63t-213.5 199l-112 -67q-172 -103 -322 -149
t-317 -46h-164q-24 0 -35 39.5t-11 132.5q0 92 11 130.5t35 38.5h232q74 0 137 11t134.5 37.5t168.5 72.5l223 111v10q-45 11 -95.5 29t-118.5 45q-80 29 -126.5 42t-75.5 13q-64 0 -102 -36t-70 -121l-8 -23l-235 71l7 24q62 220 161 317t249 97z" />
    <glyph glyph-name="uni0682.fina" unicode="&#x682;" horiz-adv-x="1485" 
d="M536 1489l174 175l-174 175l188 189l190 -189l-175 -175l175 -175l-190 -189zM496 1095q63 0 147 -25.5t220 -86.5q128 -57 217.5 -94t155 -59t121.5 -34l-41 -345q-66 -6 -112 -15v-11q68 -84 216 -84h65v-341h-17q-371 0 -449 379q-135 -17 -253 -62t-207.5 -109.5
t-140.5 -141.5t-51 -158q0 -123 122.5 -196t327.5 -73q135 0 262.5 28t230.5 79l145 -293q-319 -161 -636 -161q-231 0 -403.5 72.5t-268 203t-95.5 305.5q0 182 107 336t300.5 263t452.5 154v10q-83 20 -216 74q-82 30 -127.5 42.5t-74.5 12.5q-64 0 -102.5 -35.5
t-69.5 -121.5l-8 -24l-234 71l7 25q65 219 161.5 317t247.5 98z" />
    <glyph glyph-name="uni0685.init" unicode="&#x685;" horiz-adv-x="1368" 
d="M508 1759l189 189l190 -189l-190 -189zM333 1423l189 190l175 -175l175 175l190 -190l-190 -189l-175 175l-175 -175zM481 1041q58 0 138.5 -25.5t235.5 -93.5q155 -64 259.5 -100t201.5 -57v-263l-513 -307q-172 -103 -322 -149t-317 -46h-164q-24 0 -35 39.5t-11 132.5
q0 92 11 130.5t35 38.5h232q74 0 137 11t134.5 37.5t168.5 72.5l223 111v10q-45 11 -95.5 29t-118.5 45q-80 29 -126.5 42t-75.5 13q-64 0 -102 -36t-70 -121l-8 -23l-235 71l7 24q62 220 161 317t249 97z" />
    <glyph glyph-name="uni0685.medi" unicode="&#x685;" horiz-adv-x="1419" 
d="M508 1759l189 189l190 -189l-190 -189zM333 1423l189 190l175 -175l175 175l190 -190l-190 -189l-175 175l-175 -175zM481 1041q58 0 139 -25.5t235 -93.5q155 -64 259.5 -100t201.5 -57v-263l-184 -100v-10q53 -29 127 -40t135 -11h25v-341h-26q-144 0 -264.5 63
t-213.5 199l-112 -67q-172 -103 -322 -149t-317 -46h-164q-24 0 -35 39.5t-11 132.5q0 92 11 130.5t35 38.5h232q74 0 137 11t134.5 37.5t168.5 72.5l223 111v10q-45 11 -95.5 29t-118.5 45q-80 29 -126.5 42t-75.5 13q-64 0 -102 -36t-70 -121l-8 -23l-235 71l7 24
q62 220 161 317t249 97z" />
    <glyph glyph-name="uni0685.fina" unicode="&#x685;" horiz-adv-x="1485" 
d="M546 1801l189 189l190 -189l-190 -189zM371 1465l189 190l175 -175l175 175l190 -190l-190 -189l-175 175l-175 -175zM496 1095q63 0 147 -25.5t220 -86.5q128 -57 217.5 -94t155 -59t121.5 -34l-41 -345q-66 -6 -112 -15v-11q68 -84 216 -84h65v-341h-17
q-371 0 -449 379q-135 -17 -253 -62t-207.5 -109.5t-140.5 -141.5t-51 -158q0 -123 122.5 -196t327.5 -73q135 0 262.5 28t230.5 79l145 -293q-319 -161 -636 -161q-231 0 -403.5 72.5t-268 203t-95.5 305.5q0 182 107 336t300.5 263t452.5 154v10q-83 20 -216 74
q-82 30 -127.5 42.5t-74.5 12.5q-64 0 -102.5 -35.5t-69.5 -121.5l-8 -24l-234 71l7 25q65 219 161.5 317t247.5 98z" />
    <glyph glyph-name="uni0689.fina" unicode="&#x689;" horiz-adv-x="1312" 
d="M469 111q91 0 145 -56t54 -148q0 -82 -55.5 -140t-143.5 -58q-83 0 -141 55t-58 143q0 86 58.5 145t140.5 59zM469 -10q-36 0 -58 -18.5t-22 -50.5t23 -52t57 -20t57 20t23 52t-22.5 50.5t-57.5 18.5zM806 1148l257 -605q37 -87 68 -130t71 -57.5t104 -14.5h6v-341h-6
q-147 0 -238.5 54.5t-146.5 181.5h-10q-44 -115 -163.5 -180.5t-277.5 -65.5q-226 0 -425 147l143 270q71 -37 142.5 -56t132.5 -19q87 0 163.5 26.5t128.5 76.5l-251 567z" />
    <glyph glyph-name="uni068A.fina" unicode="&#x68a;" horiz-adv-x="1312" 
d="M274 -335l188 190l190 -190l-190 -189zM806 1148l257 -605q37 -87 68 -130t71 -57.5t104 -14.5h6v-341h-6q-147 0 -238.5 54.5t-146.5 181.5h-10q-44 -115 -163.5 -180.5t-277.5 -65.5q-226 0 -425 147l143 270q71 -37 142.5 -56t132.5 -19q87 0 163.5 26.5t128.5 76.5
l-251 567z" />
    <glyph glyph-name="uni068B.fina" unicode="&#x68b;" horiz-adv-x="1312" 
d="M421 1481v390h136v-248h10q62 56 106.5 79t90.5 23q62 0 101.5 -49t39.5 -108q0 -116 -74 -174t-205 -58h-310v145h105zM543 1481h83q159 0 159 57q0 20 -16 34t-42 14q-37 0 -80.5 -24.5t-103.5 -80.5zM806 1148l257 -605q37 -87 68 -130t71 -57.5t104 -14.5h6v-341h-6
q-147 0 -238.5 54.5t-146.5 181.5h-10q-44 -115 -163.5 -180.5t-277.5 -65.5q-226 0 -425 147l143 270q71 -37 142.5 -56t132.5 -19q87 0 163.5 26.5t128.5 76.5l-251 567zM274 -335l188 190l190 -190l-190 -189z" />
    <glyph glyph-name="uni068F.fina" unicode="&#x68f;" horiz-adv-x="1312" 
d="M236 1855l189 190l175 -175l175 175l190 -190l-190 -189l-175 175l-175 -175zM412 1520l189 189l190 -189l-190 -190zM806 1148l257 -605q37 -87 68 -130t71 -57.5t104 -14.5h6v-341h-6q-147 0 -238.5 54.5t-146.5 181.5h-10q-44 -115 -163.5 -180.5t-277.5 -65.5
q-226 0 -425 147l143 270q71 -37 142.5 -56t132.5 -19q87 0 163.5 26.5t128.5 76.5l-251 567z" />
    <glyph glyph-name="uni0690.fina" unicode="&#x690;" horiz-adv-x="1312" 
d="M236 1519l175 175l-175 175l189 189l175 -175l175 175l190 -189l-175 -175l175 -175l-190 -189l-175 175l-175 -175zM440 1694l160 -160l161 160l-161 161zM806 1148l257 -605q37 -87 68 -130t71 -57.5t104 -14.5h6v-341h-6q-147 0 -238.5 54.5t-146.5 181.5h-10
q-44 -115 -163.5 -180.5t-277.5 -65.5q-226 0 -425 147l143 270q71 -37 142.5 -56t132.5 -19q87 0 163.5 26.5t128.5 76.5l-251 567z" />
    <glyph glyph-name="uni0692.fina" unicode="&#x692;" horiz-adv-x="802" 
d="M386 1013h-142l-209 282l128 96l152 -217l152 217l128 -96zM147 692l305 105l72 -224q30 -93 61.5 -143.5t81.5 -69.5t134 -19h1v-341h-1q-147 0 -231 108l-10 -3q-6 -232 -176.5 -392t-473.5 -267l-147 306q180 60 289 122t158.5 135.5t49.5 169.5q0 83 -30.5 219.5
t-82.5 293.5z" />
    <glyph glyph-name="uni0693.fina" unicode="&#x693;" horiz-adv-x="802" 
d="M418 -196q91 0 145 -56t54 -148q0 -82 -55.5 -140t-143.5 -58q-83 0 -141 55t-58 143q0 86 58.5 145t140.5 59zM418 -317q-36 0 -58 -18.5t-22 -50.5t23 -52t57 -20t57 20t23 52t-22.5 50.5t-57.5 18.5zM147 692l305 105l72 -224q30 -93 61.5 -143.5t81.5 -69.5t134 -19
h1v-341h-1q-147 0 -231 108l-10 -3q-6 -232 -176.5 -392t-473.5 -267l-147 306q180 60 289 122t158.5 135.5t49.5 169.5q0 83 -30.5 219.5t-82.5 293.5z" />
    <glyph glyph-name="uni0694.fina" unicode="&#x694;" horiz-adv-x="802" 
d="M395 -511l188 190l190 -190l-190 -189zM147 692l305 105l72 -224q30 -93 61.5 -143.5t81.5 -69.5t134 -19h1v-341h-1q-147 0 -231 108l-10 -3q-6 -232 -176.5 -392t-473.5 -267l-147 306q180 60 289 122t158.5 135.5t49.5 169.5q0 83 -30.5 219.5t-82.5 293.5z" />
    <glyph glyph-name="uni0695.fina" unicode="&#x695;" horiz-adv-x="802" 
d="M377 -1014h-142l-209 282l128 96l152 -217l152 217l128 -96zM147 692l305 105l72 -224q30 -93 61.5 -143.5t81.5 -69.5t134 -19h1v-341h-1q-147 0 -231 108l-10 -3q-6 -232 -176.5 -392t-473.5 -267l-147 306q180 60 289 122t158.5 135.5t49.5 169.5q0 83 -30.5 219.5
t-82.5 293.5z" />
    <glyph glyph-name="uni0696.fina" unicode="&#x696;" horiz-adv-x="1130" 
d="M20 188l188 190l190 -190l-190 -189zM725 -511l188 190l190 -190l-190 -189zM476 692l305 105l72 -224q30 -93 61.5 -143.5t81.5 -69.5t134 -19h1v-341h-1q-147 0 -231 108l-10 -3q-6 -232 -176.5 -392t-473.5 -267l-147 306q180 60 289 122t158.5 135.5t49.5 169.5
q0 83 -30.5 219.5t-82.5 293.5z" />
    <glyph glyph-name="uni0697.fina" unicode="&#x697;" horiz-adv-x="802" 
d="M-57 1118l189 190l175 -175l175 175l190 -190l-190 -189l-175 175l-175 -175zM147 692l305 105l72 -224q30 -93 61.5 -143.5t81.5 -69.5t134 -19h1v-341h-1q-147 0 -231 108l-10 -3q-6 -232 -176.5 -392t-473.5 -267l-147 306q180 60 289 122t158.5 135.5t49.5 169.5
q0 83 -30.5 219.5t-82.5 293.5z" />
    <glyph glyph-name="uni0699.fina" unicode="&#x699;" horiz-adv-x="802" 
d="M-57 1107l175 175l-175 175l189 189l175 -175l175 175l190 -189l-175 -175l175 -175l-190 -189l-175 175l-175 -175zM147 1282l160 -160l161 160l-161 161zM147 692l305 105l72 -224q30 -93 61.5 -143.5t81.5 -69.5t134 -19h1v-341h-1q-147 0 -231 108l-10 -3
q-6 -232 -176.5 -392t-473.5 -267l-147 306q180 60 289 122t158.5 135.5t49.5 169.5q0 83 -30.5 219.5t-82.5 293.5z" />
    <glyph glyph-name="uni069A.init" unicode="&#x69a;" horiz-adv-x="1690" 
d="M762 -336l188 190l190 -190l-190 -189zM769 1170l188 190l190 -190l-190 -189zM685 341q63 0 87 35t31 101l17 211l280 -18l-14 -215q-5 -52 24 -83t88 -31q60 0 89.5 32.5t29.5 87.5q0 23 -5 71.5t-13 107t-17 110.5l313 75q17 -88 29.5 -182.5t12.5 -177.5
q0 -240 -97.5 -352.5t-280.5 -112.5q-133 0 -204 63t-95 160h-10q-48 -223 -283 -223q-124 0 -191.5 57t-95.5 163h-10q-47 -99 -130.5 -159.5t-205.5 -60.5h-34q-24 0 -35 41.5t-11 132.5q0 89 11 128t35 39h34q105 0 151.5 44t55.5 136l19 222l323 -22l-21 -257
q-5 -52 27 -87.5t96 -35.5z" />
    <glyph glyph-name="uni069A.medi" unicode="&#x69a;" horiz-adv-x="1871" 
d="M762 -336l188 190l190 -190l-190 -189zM769 1170l188 190l190 -190l-190 -189zM1528 241q-27 -114 -92 -177.5t-184 -63.5q-130 0 -199 63t-93 160h-10q-48 -223 -283 -223q-126 0 -192 57t-95 163h-10q-47 -99 -130.5 -159.5t-205.5 -60.5h-34q-24 0 -35 41.5t-11 132.5
q0 89 11 128t35 39h34q105 0 151.5 44t55.5 136l19 222l323 -22l-21 -257q-5 -52 27 -87.5t96 -35.5q63 0 87.5 35t30.5 101l17 211l280 -18l-14 -215q-5 -52 23.5 -83t87.5 -31q62 0 92 32t30 87q0 18 -5.5 63t-13.5 103t-18 114l311 64l23 -154q19 -128 45 -195
t74.5 -90.5t134.5 -23.5h1v-341h-1q-154 0 -227.5 64.5t-104.5 176.5h-10z" />
    <glyph glyph-name="uni069A.fina" unicode="&#x69a;" horiz-adv-x="2786" 
d="M1703 -336l188 190l190 -190l-190 -189zM1676 1170l188 190l190 -190l-190 -189zM2444 241q-57 -241 -274 -241q-109 0 -187.5 53.5t-106.5 169.5h-10q-24 -106 -80.5 -164.5t-142.5 -58.5q-33 0 -68 9.5t-64 28.5l-6 -4q-41 -243 -231.5 -375.5t-483.5 -132.5
q-364 0 -545.5 161.5t-181.5 496.5q0 101 15.5 220.5t48.5 259.5l306 -70q-33 -156 -45 -241t-12 -148q0 -178 99 -258t306 -80q214 0 321.5 68t107.5 213q0 55 -14.5 121t-47.5 156.5t-90 218.5l302 144l120 -324q24 -65 54 -94t85 -29q56 0 81.5 32.5t31.5 108.5l15 206
l277 -18l-14 -215q-4 -56 26.5 -85t87.5 -29q111 0 111 119q0 19 -5.5 64.5t-13.5 103.5t-18 112l311 64l25 -154q22 -132 46.5 -198.5t71.5 -88.5t134 -22v-341q-142 0 -219.5 58.5t-112.5 182.5h-10z" />
    <glyph glyph-name="uni069B.init" unicode="&#x69b;" horiz-adv-x="1690" 
d="M585 -335l189 190l175 -175l175 175l190 -190l-190 -189l-175 175l-175 -175zM761 -670l189 189l190 -189l-190 -190zM685 341q63 0 87 35t31 101l17 211l280 -18l-14 -215q-5 -52 24 -83t88 -31q60 0 89.5 32.5t29.5 87.5q0 23 -5 71.5t-13 107t-17 110.5l313 75
q17 -88 29.5 -182.5t12.5 -177.5q0 -240 -97.5 -352.5t-280.5 -112.5q-133 0 -204 63t-95 160h-10q-48 -223 -283 -223q-124 0 -191.5 57t-95.5 163h-10q-47 -99 -130.5 -159.5t-205.5 -60.5h-34q-24 0 -35 41.5t-11 132.5q0 89 11 128t35 39h34q105 0 151.5 44t55.5 136
l19 222l323 -22l-21 -257q-5 -52 27 -87.5t96 -35.5z" />
    <glyph glyph-name="uni069B.medi" unicode="&#x69b;" horiz-adv-x="1871" 
d="M585 -335l189 190l175 -175l175 175l190 -190l-190 -189l-175 175l-175 -175zM761 -670l189 189l190 -189l-190 -190zM1528 241q-27 -114 -92 -177.5t-184 -63.5q-130 0 -199 63t-93 160h-10q-48 -223 -283 -223q-126 0 -192 57t-95 163h-10q-47 -99 -130.5 -159.5
t-205.5 -60.5h-34q-24 0 -35 41.5t-11 132.5q0 89 11 128t35 39h34q105 0 151.5 44t55.5 136l19 222l323 -22l-21 -257q-5 -52 27 -87.5t96 -35.5q63 0 87.5 35t30.5 101l17 211l280 -18l-14 -215q-5 -52 23.5 -83t87.5 -31q62 0 92 32t30 87q0 18 -5.5 63t-13.5 103
t-18 114l311 64l23 -154q19 -128 45 -195t74.5 -90.5t134.5 -23.5h1v-341h-1q-154 0 -227.5 64.5t-104.5 176.5h-10z" />
    <glyph glyph-name="uni069B.fina" unicode="&#x69b;" horiz-adv-x="2786" 
d="M1638 -336l189 190l175 -175l175 175l190 -190l-190 -189l-175 175l-175 -175zM1814 -671l189 189l190 -189l-190 -190zM2444 241q-57 -241 -274 -241q-109 0 -187.5 53.5t-106.5 169.5h-10q-24 -106 -80.5 -164.5t-142.5 -58.5q-33 0 -68 9.5t-64 28.5l-6 -4
q-41 -243 -231.5 -375.5t-483.5 -132.5q-364 0 -545.5 161.5t-181.5 496.5q0 101 15.5 220.5t48.5 259.5l306 -70q-33 -156 -45 -241t-12 -148q0 -178 99 -258t306 -80q214 0 321.5 68t107.5 213q0 55 -14.5 121t-47.5 156.5t-90 218.5l302 144l120 -324q24 -65 54 -94
t85 -29q56 0 81.5 32.5t31.5 108.5l15 206l277 -18l-14 -215q-4 -56 26.5 -85t87.5 -29q111 0 111 119q0 19 -5.5 64.5t-13.5 103.5t-18 112l311 64l25 -154q22 -132 46.5 -198.5t71.5 -88.5t134 -22v-341q-142 0 -219.5 58.5t-112.5 182.5h-10z" />
    <glyph glyph-name="uni069C.init" unicode="&#x69c;" horiz-adv-x="1690" 
d="M585 -335l189 190l175 -175l175 175l190 -190l-190 -189l-175 175l-175 -175zM761 -670l189 189l190 -189l-190 -190zM749 1414l189 189l190 -189l-190 -189zM574 1078l189 190l175 -175l175 175l190 -190l-190 -189l-175 175l-175 -175zM685 341q63 0 87 35t31 101
l17 211l280 -18l-14 -215q-5 -52 24 -83t88 -31q60 0 89.5 32.5t29.5 87.5q0 23 -5 71.5t-13 107t-17 110.5l313 75q17 -88 29.5 -182.5t12.5 -177.5q0 -240 -97.5 -352.5t-280.5 -112.5q-133 0 -204 63t-95 160h-10q-48 -223 -283 -223q-124 0 -191.5 57t-95.5 163h-10
q-47 -99 -130.5 -159.5t-205.5 -60.5h-34q-24 0 -35 41.5t-11 132.5q0 89 11 128t35 39h34q105 0 151.5 44t55.5 136l19 222l323 -22l-21 -257q-5 -52 27 -87.5t96 -35.5z" />
    <glyph glyph-name="uni069C.medi" unicode="&#x69c;" horiz-adv-x="1871" 
d="M585 -335l189 190l175 -175l175 175l190 -190l-190 -189l-175 175l-175 -175zM761 -670l189 189l190 -189l-190 -190zM749 1414l189 189l190 -189l-190 -189zM574 1078l189 190l175 -175l175 175l190 -190l-190 -189l-175 175l-175 -175zM1528 241q-27 -114 -92 -177.5
t-184 -63.5q-130 0 -199 63t-93 160h-10q-48 -223 -283 -223q-126 0 -192 57t-95 163h-10q-47 -99 -130.5 -159.5t-205.5 -60.5h-34q-24 0 -35 41.5t-11 132.5q0 89 11 128t35 39h34q105 0 151.5 44t55.5 136l19 222l323 -22l-21 -257q-5 -52 27 -87.5t96 -35.5
q63 0 87.5 35t30.5 101l17 211l280 -18l-14 -215q-5 -52 23.5 -83t87.5 -31q62 0 92 32t30 87q0 18 -5.5 63t-13.5 103t-18 114l311 64l23 -154q19 -128 45 -195t74.5 -90.5t134.5 -23.5h1v-341h-1q-154 0 -227.5 64.5t-104.5 176.5h-10z" />
    <glyph glyph-name="uni069C.fina" unicode="&#x69c;" horiz-adv-x="2786" 
d="M1638 -336l189 190l175 -175l175 175l190 -190l-190 -189l-175 175l-175 -175zM1814 -671l189 189l190 -189l-190 -190zM1647 1414l189 189l190 -189l-190 -189zM1472 1078l189 190l175 -175l175 175l190 -190l-190 -189l-175 175l-175 -175zM2444 241
q-57 -241 -274 -241q-109 0 -187.5 53.5t-106.5 169.5h-10q-24 -106 -80.5 -164.5t-142.5 -58.5q-33 0 -68 9.5t-64 28.5l-6 -4q-41 -243 -231.5 -375.5t-483.5 -132.5q-364 0 -545.5 161.5t-181.5 496.5q0 101 15.5 220.5t48.5 259.5l306 -70q-33 -156 -45 -241t-12 -148
q0 -178 99 -258t306 -80q214 0 321.5 68t107.5 213q0 55 -14.5 121t-47.5 156.5t-90 218.5l302 144l120 -324q24 -65 54 -94t85 -29q56 0 81.5 32.5t31.5 108.5l15 206l277 -18l-14 -215q-4 -56 26.5 -85t87.5 -29q111 0 111 119q0 19 -5.5 64.5t-13.5 103.5t-18 112l311 64
l25 -154q22 -132 46.5 -198.5t71.5 -88.5t134 -22v-341q-142 0 -219.5 58.5t-112.5 182.5h-10z" />
    <glyph glyph-name="uni069D.init" unicode="&#x69d;" horiz-adv-x="1651" 
d="M635 -336l189 190l175 -175l175 175l190 -190l-190 -189l-175 175l-175 -175zM431 233q-46 -115 -155.5 -174t-270.5 -59h-5q-25 0 -35.5 40t-10.5 132q0 90 10.5 129.5t35.5 39.5h5q122 0 167.5 44t45.5 138v225h324v-213q7 -27 18.5 -39.5t26.5 -21.5
q171 238 323.5 346.5t299.5 108.5q114 0 202 -58.5t137.5 -160.5t49.5 -231q0 -145 -80.5 -252.5t-219 -167t-313.5 -59.5q-214 0 -346.5 56t-199.5 177h-9zM1167 595q-83 0 -178 -56.5t-172 -167.5q80 -30 192 -30q122 0 206.5 35.5t84.5 106.5q0 50 -36.5 81t-96.5 31z
" />
    <glyph glyph-name="uni069D.medi" unicode="&#x69d;" horiz-adv-x="1691" 
d="M635 -336l189 190l175 -175l175 175l190 -190l-190 -189l-175 175l-175 -175zM218 748h324v-213q7 -27 18.5 -39.5t26.5 -21.5q171 238 323.5 346.5t299.5 108.5q114 0 202 -58.5t137.5 -160.5t49.5 -231q0 -34 -6.5 -65t-17.5 -60q26 -6 55 -9.5t60 -3.5h1v-341h-1
q-184 0 -280 120q-166 -120 -424 -120q-214 0 -346.5 56t-199.5 177h-9q-46 -115 -155.5 -174t-270.5 -59h-5q-25 0 -35.5 40t-10.5 132q0 90 10.5 129.5t35.5 39.5h5q122 0 167.5 44t45.5 138v225zM1167 595q-83 0 -178 -56.5t-172 -167.5q80 -30 192 -30q122 0 206.5 35.5
t84.5 106.5q0 50 -36.5 81t-96.5 31z" />
    <glyph glyph-name="uni069D.fina" unicode="&#x69d;" horiz-adv-x="2601" 
d="M1624 -336l189 190l175 -175l175 175l190 -190l-190 -189l-175 175l-175 -175zM2126 929q111 0 196.5 -57t134.5 -158.5t49 -234.5q0 -69 -23 -124q53 -14 117 -14h1v-341h-1q-88 0 -153 28t-120 90q-75 -55 -178 -86.5t-229 -31.5q-241 0 -404 110q-25 -274 -217.5 -429
t-511.5 -155q-365 0 -544.5 162.5t-179.5 495.5q0 102 15.5 222t48.5 258l306 -70q-32 -154 -44.5 -239t-12.5 -150q0 -175 97 -256.5t305 -81.5q426 0 426 291q0 54 -14 118t-47 153t-89 215l303 145q42 -94 72 -178.5t49 -160.5q146 230 312 354.5t336 124.5zM2075 595
q-89 0 -184.5 -62t-166.5 -162q79 -30 194 -30q140 0 215.5 40.5t75.5 101.5q0 50 -37 81t-97 31z" />
    <glyph glyph-name="uni069E.init" unicode="&#x69e;" horiz-adv-x="1651" 
d="M1002 1614l189 189l190 -189l-190 -189zM827 1278l189 190l175 -175l175 175l190 -190l-190 -189l-175 175l-175 -175zM431 233q-46 -115 -155.5 -174t-270.5 -59h-5q-25 0 -35.5 40t-10.5 132q0 90 10.5 129.5t35.5 39.5h5q122 0 167.5 44t45.5 138v225h324v-213
q7 -27 18.5 -39.5t26.5 -21.5q171 238 323.5 346.5t299.5 108.5q114 0 202 -58.5t137.5 -160.5t49.5 -231q0 -145 -80.5 -252.5t-219 -167t-313.5 -59.5q-214 0 -346.5 56t-199.5 177h-9zM1167 595q-83 0 -178 -56.5t-172 -167.5q80 -30 192 -30q122 0 206.5 35.5
t84.5 106.5q0 50 -36.5 81t-96.5 31z" />
    <glyph glyph-name="uni069E.medi" unicode="&#x69e;" horiz-adv-x="1691" 
d="M1002 1614l189 189l190 -189l-190 -189zM827 1278l189 190l175 -175l175 175l190 -190l-190 -189l-175 175l-175 -175zM218 748h324v-213q7 -27 18.5 -39.5t26.5 -21.5q171 238 323.5 346.5t299.5 108.5q114 0 202 -58.5t137.5 -160.5t49.5 -231q0 -34 -6.5 -65
t-17.5 -60q26 -6 55 -9.5t60 -3.5h1v-341h-1q-184 0 -280 120q-166 -120 -424 -120q-214 0 -346.5 56t-199.5 177h-9q-46 -115 -155.5 -174t-270.5 -59h-5q-25 0 -35.5 40t-10.5 132q0 90 10.5 129.5t35.5 39.5h5q122 0 167.5 44t45.5 138v225zM1167 595q-83 0 -178 -56.5
t-172 -167.5q80 -30 192 -30q122 0 206.5 35.5t84.5 106.5q0 50 -36.5 81t-96.5 31z" />
    <glyph glyph-name="uni069E.fina" unicode="&#x69e;" horiz-adv-x="2601" 
d="M1932 1614l189 189l190 -189l-190 -189zM1757 1278l189 190l175 -175l175 175l190 -190l-190 -189l-175 175l-175 -175zM2126 929q111 0 196.5 -57t134.5 -158.5t49 -234.5q0 -69 -23 -124q53 -14 117 -14h1v-341h-1q-88 0 -153 28t-120 90q-75 -55 -178 -86.5
t-229 -31.5q-241 0 -404 110q-25 -274 -217.5 -429t-511.5 -155q-365 0 -544.5 162.5t-179.5 495.5q0 102 15.5 222t48.5 258l306 -70q-32 -154 -44.5 -239t-12.5 -150q0 -175 97 -256.5t305 -81.5q426 0 426 291q0 54 -14 118t-47 153t-89 215l303 145q42 -94 72 -178.5
t49 -160.5q146 230 312 354.5t336 124.5zM2075 595q-89 0 -184.5 -62t-166.5 -162q79 -30 194 -30q140 0 215.5 40.5t75.5 101.5q0 50 -37 81t-97 31z" />
    <glyph glyph-name="uni069F.fina" unicode="&#x69f;" horiz-adv-x="1616" 
d="M995 1614l189 189l190 -189l-190 -189zM820 1278l189 190l175 -175l175 175l190 -190l-190 -189l-175 175l-175 -175zM329 341q6 9 12 17.5t12 17.5v1058h324v-526q0 -149 -65 -292l9 -8q271 321 521 321q116 0 202 -55t133.5 -152.5t47.5 -224.5q0 -34 -4 -65.5
t-14 -63.5q26 -13 51 -20t57 -7h1v-341h-1q-88 0 -152 33t-111 94q-82 -62 -204 -94.5t-287 -32.5h-808v341h276zM692 341h249q119 0 203 30t84 108q0 49 -40.5 82.5t-99.5 33.5q-76 0 -171 -54t-225 -200z" />
    <glyph glyph-name="uni06A0.init" unicode="&#x6a0;" horiz-adv-x="1093" 
d="M381 1785l189 189l190 -189l-190 -189zM206 1449l189 190l175 -175l175 175l190 -190l-190 -189l-175 175l-175 -175zM387 537q0 -146 229 -146q74 0 158 10l199 26l34 -331l-399 -46q-197 -24 -344.5 -37t-227.5 -13h-36q-24 0 -35 40.5t-11 131.5q0 90 11 129.5
t35 39.5h22q31 0 67 1t64 2v19q-78 73 -78 215q0 133 65.5 237.5t180.5 165t261 60.5q223 0 375 -138l-143 -249q-120 55 -230 55q-88 0 -142.5 -47.5t-54.5 -124.5z" />
    <glyph glyph-name="uni06A0.medi" unicode="&#x6a0;" horiz-adv-x="1182" 
d="M445 1756l189 189l190 -189l-190 -189zM270 1420l189 190l175 -175l175 175l190 -190l-190 -189l-175 175l-175 -175zM626 1048q133 0 237.5 -47t165 -132t60.5 -198q0 -79 -44.5 -151.5t-123.5 -138.5v-10q46 -19 91 -24.5t97 -5.5h73v-341h-112q-121 0 -218 36.5
t-196 124.5q-115 -78 -249.5 -119.5t-286.5 -41.5h-120q-25 0 -35.5 40.5t-10.5 131.5q0 90 10.5 129.5t35.5 39.5h110q83 0 161.5 10t132.5 23v10l-302 262v196q110 98 245 152t279 54zM646 719q-49 0 -97 -9t-90 -29v-2l196 -203q71 46 108 86t37 77q0 41 -44 60.5
t-110 19.5z" />
    <glyph glyph-name="uni06A0.fina" unicode="&#x6a0;" horiz-adv-x="1235" 
d="M491 1769l189 189l190 -189l-190 -189zM316 1433l189 190l175 -175l175 175l190 -190l-190 -189l-175 175l-175 -175zM1137 671q0 -152 -163 -285v-10q64 -35 167 -35h94v-341h-49q-130 0 -238.5 41t-224.5 132q-161 -72 -257.5 -161.5t-96.5 -199.5q0 -97 120.5 -155.5
t325.5 -58.5q83 0 165.5 11t161.5 30l75 -327q-205 -61 -401 -61q-229 0 -400.5 65.5t-266.5 184t-95 276.5q0 173 114 317.5t322 246.5v10l-340 295v196q113 100 248.5 153t276.5 53q136 0 240 -48t163 -133t59 -196zM849 639q0 37 -41 58.5t-112 21.5q-104 0 -189 -38v-2
l200 -203q142 93 142 163z" />
    <glyph glyph-name="uni06A1.fina" unicode="&#x6a1;" horiz-adv-x="1954" 
d="M1443 132q-109 -62 -253 -97t-314 -35q-412 0 -617.5 113t-205.5 386q0 90 25 206t65 237l284 -92q-23 -74 -43 -158.5t-20 -133.5q0 -121 118.5 -166t393.5 -51q66 -1 131 1t128 6l5 9q-64 50 -98.5 119t-34.5 154q0 132 59.5 233t159.5 158.5t222 57.5
q121 0 221.5 -57.5t160.5 -157.5t60 -230q0 -85 -35.5 -156.5t-97.5 -122.5l5 -8q29 -2 57.5 -4t59.5 -2h75v-341h-94q-139 0 -238 35.5t-179 96.5zM1447 420q59 34 93 81.5t34 110.5q0 50 -35 87.5t-91 37.5q-57 0 -91.5 -36.5t-34.5 -88.5q0 -58 35 -107t90 -85z" />
    <glyph glyph-name="uni06A2.init" unicode="&#x6a2;" horiz-adv-x="962" 
d="M248 -336l188 190l190 -190l-190 -189zM0 341h323q117 0 181.5 14.5t90 49.5t25.5 96q-124 -31 -220 -31q-181 0 -267 80t-86 248q0 253 106.5 401.5t287.5 148.5q141 0 245 -96t160.5 -271t56.5 -413q0 -294 -140 -431t-442 -137h-321q-24 0 -35 40.5t-11 131.5
q0 90 11 129.5t35 39.5zM570 778q-23 236 -143 236q-55 0 -88.5 -45.5t-33.5 -119.5q0 -86 119 -86q61 0 146 15z" />
    <glyph glyph-name="uni06A2.medi" unicode="&#x6a2;" horiz-adv-x="1050" 
d="M328 -336l188 190l190 -190l-190 -189zM83 630q0 132 59.5 233t159.5 158.5t222 57.5q121 0 221.5 -57.5t160.5 -157.5t60 -230q0 -85 -35.5 -156.5t-97.5 -122.5l5 -8l56 -4t59 -2h97v-341h-116q-139 0 -237.5 35.5t-178.5 96.5q-78 -61 -174 -96.5t-230 -35.5h-114
q-25 0 -36 41t-11 131q0 89 11 129t36 40h73q37 0 71.5 2t68.5 4l4 9q-63 50 -98.5 119.5t-35.5 154.5zM523 419q59 35 93 82t34 111q0 50 -35 87.5t-91 37.5q-57 0 -91.5 -36.5t-34.5 -88.5q0 -58 35 -107.5t90 -85.5z" />
    <glyph glyph-name="uni06A2.fina" unicode="&#x6a2;" horiz-adv-x="1954" 
d="M715 -336l188 190l190 -190l-190 -189zM1443 132q-109 -62 -253 -97t-314 -35q-412 0 -617.5 113t-205.5 386q0 90 25 206t65 237l284 -92q-23 -74 -43 -158.5t-20 -133.5q0 -121 118.5 -166t393.5 -51q66 -1 131 1t128 6l5 9q-64 50 -98.5 119t-34.5 154q0 132 59.5 233
t159.5 158.5t222 57.5q121 0 221.5 -57.5t160.5 -157.5t60 -230q0 -85 -35.5 -156.5t-97.5 -122.5l5 -8q29 -2 57.5 -4t59.5 -2h75v-341h-94q-139 0 -238 35.5t-179 96.5zM1447 420q59 34 93 81.5t34 110.5q0 50 -35 87.5t-91 37.5q-57 0 -91.5 -36.5t-34.5 -88.5
q0 -58 35 -107t90 -85z" />
    <glyph glyph-name="uni06A3.init" unicode="&#x6a3;" horiz-adv-x="962" 
d="M248 1717l188 190l190 -190l-190 -189zM248 -336l188 190l190 -190l-190 -189zM0 341h323q117 0 181.5 14.5t90 49.5t25.5 96q-124 -31 -220 -31q-181 0 -267 80t-86 248q0 253 106.5 401.5t287.5 148.5q141 0 245 -96t160.5 -271t56.5 -413q0 -294 -140 -431t-442 -137
h-321q-24 0 -35 40.5t-11 131.5q0 90 11 129.5t35 39.5zM570 778q-23 236 -143 236q-55 0 -88.5 -45.5t-33.5 -119.5q0 -86 119 -86q61 0 146 15z" />
    <glyph glyph-name="uni06A3.medi" unicode="&#x6a3;" horiz-adv-x="1050" 
d="M334 1472l188 190l190 -190l-190 -189zM328 -336l188 190l190 -190l-190 -189zM83 630q0 132 59.5 233t159.5 158.5t222 57.5q121 0 221.5 -57.5t160.5 -157.5t60 -230q0 -85 -35.5 -156.5t-97.5 -122.5l5 -8l56 -4t59 -2h97v-341h-116q-139 0 -237.5 35.5t-178.5 96.5
q-78 -61 -174 -96.5t-230 -35.5h-114q-25 0 -36 41t-11 131q0 89 11 129t36 40h73q37 0 71.5 2t68.5 4l4 9q-63 50 -98.5 119.5t-35.5 154.5zM523 419q59 35 93 82t34 111q0 50 -35 87.5t-91 37.5q-57 0 -91.5 -36.5t-34.5 -88.5q0 -58 35 -107.5t90 -85.5z" />
    <glyph glyph-name="uni06A3.fina" unicode="&#x6a3;" horiz-adv-x="1954" 
d="M1260 1489l188 190l190 -190l-190 -189zM715 -336l188 190l190 -190l-190 -189zM1443 132q-109 -62 -253 -97t-314 -35q-412 0 -617.5 113t-205.5 386q0 90 25 206t65 237l284 -92q-23 -74 -43 -158.5t-20 -133.5q0 -121 118.5 -166t393.5 -51q66 -1 131 1t128 6l5 9
q-64 50 -98.5 119t-34.5 154q0 132 59.5 233t159.5 158.5t222 57.5q121 0 221.5 -57.5t160.5 -157.5t60 -230q0 -85 -35.5 -156.5t-97.5 -122.5l5 -8q29 -2 57.5 -4t59.5 -2h75v-341h-94q-139 0 -238 35.5t-179 96.5zM1447 420q59 34 93 81.5t34 110.5q0 50 -35 87.5
t-91 37.5q-57 0 -91.5 -36.5t-34.5 -88.5q0 -58 35 -107t90 -85z" />
    <glyph glyph-name="uni06A5.init" unicode="&#x6a5;" horiz-adv-x="962" 
d="M67 -336l189 190l175 -175l175 175l190 -190l-190 -189l-175 175l-175 -175zM243 -671l189 189l190 -189l-190 -190zM0 341h323q117 0 181.5 14.5t90 49.5t25.5 96q-124 -31 -220 -31q-181 0 -267 80t-86 248q0 253 106.5 401.5t287.5 148.5q141 0 245 -96t160.5 -271
t56.5 -413q0 -294 -140 -431t-442 -137h-321q-24 0 -35 40.5t-11 131.5q0 90 11 129.5t35 39.5zM570 778q-23 236 -143 236q-55 0 -88.5 -45.5t-33.5 -119.5q0 -86 119 -86q61 0 146 15z" />
    <glyph glyph-name="uni06A5.medi" unicode="&#x6a5;" horiz-adv-x="1050" 
d="M152 -336l189 190l175 -175l175 175l190 -190l-190 -189l-175 175l-175 -175zM328 -671l189 189l190 -189l-190 -190zM83 630q0 132 59.5 233t159.5 158.5t222 57.5q121 0 221.5 -57.5t160.5 -157.5t60 -230q0 -85 -35.5 -156.5t-97.5 -122.5l5 -8l56 -4t59 -2h97v-341
h-116q-139 0 -237.5 35.5t-178.5 96.5q-78 -61 -174 -96.5t-230 -35.5h-114q-25 0 -36 41t-11 131q0 89 11 129t36 40h73q37 0 71.5 2t68.5 4l4 9q-63 50 -98.5 119.5t-35.5 154.5zM523 419q59 35 93 82t34 111q0 50 -35 87.5t-91 37.5q-57 0 -91.5 -36.5t-34.5 -88.5
q0 -58 35 -107.5t90 -85.5z" />
    <glyph glyph-name="uni06A5.fina" unicode="&#x6a5;" horiz-adv-x="1954" 
d="M535 -336l189 190l175 -175l175 175l190 -190l-190 -189l-175 175l-175 -175zM711 -671l189 189l190 -189l-190 -190zM1443 132q-109 -62 -253 -97t-314 -35q-412 0 -617.5 113t-205.5 386q0 90 25 206t65 237l284 -92q-23 -74 -43 -158.5t-20 -133.5q0 -121 118.5 -166
t393.5 -51q66 -1 131 1t128 6l5 9q-64 50 -98.5 119t-34.5 154q0 132 59.5 233t159.5 158.5t222 57.5q121 0 221.5 -57.5t160.5 -157.5t60 -230q0 -85 -35.5 -156.5t-97.5 -122.5l5 -8q29 -2 57.5 -4t59.5 -2h75v-341h-94q-139 0 -238 35.5t-179 96.5zM1447 420
q59 34 93 81.5t34 110.5q0 50 -35 87.5t-91 37.5q-57 0 -91.5 -36.5t-34.5 -88.5q0 -58 35 -107t90 -85z" />
    <glyph glyph-name="uni06A7.fina" unicode="&#x6a7;" horiz-adv-x="1563" 
d="M888 1278l188 190l190 -190l-190 -189zM1077 916q129 0 219.5 -73.5t144.5 -203t72 -298.5h50v-341h-60q-48 -259 -239 -401.5t-493 -142.5q-352 0 -533 155t-181 457q0 84 14 204.5t45 301.5l314 -62q-26 -142 -38 -241t-12 -174q0 -298 402 -298q161 0 271.5 50
t151.5 147l-9 15q-74 -11 -154 -11q-170 0 -265 94t-95 277q0 158 48.5 281t137.5 193.5t209 70.5zM1069 572q-59 0 -91.5 -45t-32.5 -104q0 -50 31 -71.5t83 -21.5q41 0 80 0.5t76 4.5q-1 60 -15.5 114t-46.5 88.5t-84 34.5z" />
    <glyph glyph-name="uni06A8.fina" unicode="&#x6a8;" horiz-adv-x="1563" 
d="M887 1597l189 189l190 -189l-190 -189zM712 1261l189 190l175 -175l175 175l190 -190l-190 -189l-175 175l-175 -175zM1077 916q129 0 219.5 -73.5t144.5 -203t72 -298.5h50v-341h-60q-48 -259 -239 -401.5t-493 -142.5q-352 0 -533 155t-181 457q0 84 14 204.5t45 301.5
l314 -62q-26 -142 -38 -241t-12 -174q0 -298 402 -298q161 0 271.5 50t151.5 147l-9 15q-74 -11 -154 -11q-170 0 -265 94t-95 277q0 158 48.5 281t137.5 193.5t209 70.5zM1069 572q-59 0 -91.5 -45t-32.5 -104q0 -50 31 -71.5t83 -21.5q41 0 80 0.5t76 4.5q-1 60 -15.5 114
t-46.5 88.5t-84 34.5z" />
    <glyph glyph-name="uni06AA.init" unicode="&#x6aa;" horiz-adv-x="1957" 
d="M954 1529l177 -286q-159 -88 -265 -152t-177 -113t-123 -94h753q304 0 445 -83.5t141 -276.5q0 -155 -85.5 -273.5t-242 -184.5t-371.5 -66h-1206q-25 0 -35.5 40.5t-10.5 131.5q0 90 10.5 129.5t35.5 39.5h1299q114 0 190.5 38.5t76.5 89.5q0 38 -39 56t-104 18h-1045
l-206 300q36 108 127.5 214t252 222t402.5 250z" />
    <glyph glyph-name="uni06AA.medi" unicode="&#x6aa;" horiz-adv-x="2144" 
d="M954 1529l177 -286q-159 -88 -265 -152t-177 -113t-123 -94h753q304 0 445 -83.5t141 -276.5q0 -71 18.5 -111t70 -56t149.5 -16h1v-341h-1q-133 0 -236.5 51t-157.5 169h-10q-82 -118 -224 -169t-319 -51h-1196q-25 0 -35.5 40.5t-10.5 131.5q0 90 10.5 129.5t35.5 39.5
h1299q114 0 190.5 38.5t76.5 89.5q0 38 -39 56t-104 18h-1045l-206 300q36 108 127.5 214t252 222t402.5 250z" />
    <glyph glyph-name="uni06AA.fina" unicode="&#x6aa;" horiz-adv-x="2393" 
d="M1204 1529l176 -286q-158 -88 -264.5 -152t-177 -113t-122.5 -94h753q304 0 444.5 -83.5t140.5 -276.5q0 -71 18.5 -111t70 -56t149.5 -16h1v-341h-1q-133 0 -237 51t-158 169h-10q-74 -111 -219 -165.5t-321 -54.5h-1394v341h1496q114 0 190 38.5t76 89.5q0 38 -39 56
t-104 18h-1042l-209 300q36 108 128 214t252.5 222t402.5 250z" />
    <glyph glyph-name="uni06AB.init" unicode="&#x6ab;" horiz-adv-x="908" 
d="M770 1240q91 0 148 -56t57 -148q0 -82 -58.5 -140t-146.5 -58q-83 0 -137.5 55t-54.5 143q0 86 55 145t137 59zM773 1118q-36 0 -58.5 -18.5t-22.5 -50.5t23.5 -52t57.5 -20t56 20t22 52t-21.5 50.5t-56.5 18.5zM929 1506l45 -339q-199 -44 -332 -80t-244 -75v-5
q149 -120 238 -212.5t128.5 -172.5t39.5 -164q0 -218 -170.5 -338t-482.5 -120h-151q-24 0 -35 39.5t-11 132.5q0 92 11 130.5t35 38.5h143q174 0 255 33t81 103q0 41 -44.5 96t-149 140t-284.5 215l24 277q215 105 436 178.5t468 122.5z" />
    <glyph glyph-name="uni06AB.medi" unicode="&#x6ab;" horiz-adv-x="1139" 
d="M770 1240q91 0 148 -56t57 -148q0 -82 -58.5 -140t-146.5 -58q-83 0 -137.5 55t-54.5 143q0 86 55 145t137 59zM773 1118q-36 0 -58.5 -18.5t-22.5 -50.5t23.5 -52t57.5 -20t56 20t22 52t-21.5 50.5t-56.5 18.5zM686 296q-47 -108 -115.5 -173t-170 -94t-249.5 -29h-151
q-24 0 -35 39.5t-11 130.5q0 92 11 131.5t35 39.5h143q328 0 328 133q0 42 -46.5 100.5t-150 144.5t-273.5 209l24 277q216 105 437.5 179t466.5 122l45 -339q-197 -43 -330 -79t-246 -76v-5q93 -74 154.5 -130.5t110.5 -115.5t103 -143q63 -105 116.5 -165.5t114 -86
t141.5 -25.5h1v-341h-1q-156 0 -260.5 70t-181.5 226h-10z" />
    <glyph glyph-name="uni06AB.fina" unicode="&#x6ab;" horiz-adv-x="1960" 
d="M1574 1236q91 0 148 -56t57 -148q0 -82 -58.5 -140t-146.5 -58q-83 0 -137.5 55t-54.5 143q0 86 55 145t137 59zM1577 1114q-36 0 -58.5 -18.5t-22.5 -50.5t23.5 -52t57.5 -20t56 20t22 52t-21.5 50.5t-56.5 18.5zM1507 294q-64 -151 -232 -222.5t-464 -71.5
q-398 0 -577 123.5t-179 397.5q0 72 11.5 169t32.5 204l294 -64q-15 -86 -24 -162t-9 -111q0 -119 99 -167.5t345 -48.5q237 0 363 36.5t126 104.5q0 57 -112 163t-358 283l23 277q215 105 436.5 179t467.5 122l45 -339q-197 -43 -330.5 -79t-245.5 -76l1 -5
q95 -76 157 -134t110 -117.5t100 -140.5q63 -106 117 -165.5t114 -84t141 -24.5h1v-341h-1q-157 1 -261 70t-181 224h-10z" />
    <glyph glyph-name="uni06AC.init" unicode="&#x6ac;" horiz-adv-x="908" 
d="M245 1674l149 149l148 -149l-148 -148zM929 1506l45 -339q-199 -44 -332 -80t-244 -75v-5q149 -120 238 -212.5t128.5 -172.5t39.5 -164q0 -218 -170.5 -338t-482.5 -120h-151q-24 0 -35 39.5t-11 132.5q0 92 11 130.5t35 38.5h143q174 0 255 33t81 103q0 41 -44.5 96
t-149 140t-284.5 215l24 277q215 105 436 178.5t468 122.5z" />
    <glyph glyph-name="uni06AC.medi" unicode="&#x6ac;" horiz-adv-x="1139" 
d="M245 1674l149 149l148 -149l-148 -148zM686 296q-47 -108 -115.5 -173t-170 -94t-249.5 -29h-151q-24 0 -35 39.5t-11 130.5q0 92 11 131.5t35 39.5h143q328 0 328 133q0 42 -46.5 100.5t-150 144.5t-273.5 209l24 277q216 105 437.5 179t466.5 122l45 -339
q-197 -43 -330 -79t-246 -76v-5q93 -74 154.5 -130.5t110.5 -115.5t103 -143q63 -105 116.5 -165.5t114 -86t141.5 -25.5h1v-341h-1q-156 0 -260.5 70t-181.5 226h-10z" />
    <glyph glyph-name="uni06AC.fina" unicode="&#x6ac;" horiz-adv-x="1847" 
d="M632 1478l188 190l190 -190l-190 -189zM689 540q-27 0 -59.5 3.5t-70.5 9.5l35 153q63 -13 119 -13q63 0 106.5 13.5t43.5 38.5q0 17 -21 24.5t-74 17.5q-79 15 -119 48t-40 94q0 117 74 190.5t189 73.5q54 0 118 -16l-48 -145q-19 5 -40 8t-42 3q-48 0 -81.5 -21
t-33.5 -55q0 -22 25.5 -33t95.5 -25q66 -12 100 -43.5t34 -94.5q0 -108 -85.5 -169.5t-225.5 -61.5zM1608 628q0 -118 19 -180t70.5 -84.5t148.5 -22.5h1v-341h-1q-156 0 -257 55t-135 175h-10q-58 -127 -211.5 -178.5t-409.5 -51.5q-273 0 -442.5 52.5t-248.5 165.5
t-79 296q0 65 11.5 150t31.5 174l294 -65q-13 -70 -21.5 -137.5t-8.5 -101.5q0 -74 40 -116.5t138 -59.5t271 -17q188 0 291 24.5t143.5 86.5t40.5 175v800h324v-799z" />
    <glyph glyph-name="uni06AE.init" unicode="&#x6ae;" horiz-adv-x="908" 
d="M180 -336l189 190l175 -175l175 175l190 -190l-190 -189l-175 175l-175 -175zM356 -671l189 189l190 -189l-190 -190zM929 1506l45 -339q-199 -44 -332 -80t-244 -75v-5q149 -120 238 -212.5t128.5 -172.5t39.5 -164q0 -218 -170.5 -338t-482.5 -120h-151q-24 0 -35 39.5
t-11 132.5q0 92 11 130.5t35 38.5h143q174 0 255 33t81 103q0 41 -44.5 96t-149 140t-284.5 215l24 277q215 105 436 178.5t468 122.5z" />
    <glyph glyph-name="uni06AE.medi" unicode="&#x6ae;" horiz-adv-x="1139" 
d="M180 -336l189 190l175 -175l175 175l190 -190l-190 -189l-175 175l-175 -175zM356 -671l189 189l190 -189l-190 -190zM686 296q-47 -108 -115.5 -173t-170 -94t-249.5 -29h-151q-24 0 -35 39.5t-11 130.5q0 92 11 131.5t35 39.5h143q328 0 328 133q0 42 -46.5 100.5
t-150 144.5t-273.5 209l24 277q216 105 437.5 179t466.5 122l45 -339q-197 -43 -330 -79t-246 -76v-5q93 -74 154.5 -130.5t110.5 -115.5t103 -143q63 -105 116.5 -165.5t114 -86t141.5 -25.5h1v-341h-1q-156 0 -260.5 70t-181.5 226h-10z" />
    <glyph glyph-name="uni06AE.fina" unicode="&#x6ae;" horiz-adv-x="1847" 
d="M420 -336l189 190l175 -175l175 175l190 -190l-190 -189l-175 175l-175 -175zM596 -671l189 189l190 -189l-190 -190zM689 540q-27 0 -59.5 3.5t-70.5 9.5l35 153q63 -13 119 -13q63 0 106.5 13.5t43.5 38.5q0 17 -21 24.5t-74 17.5q-79 15 -119 48t-40 94
q0 117 74 190.5t189 73.5q54 0 118 -16l-48 -145q-19 5 -40 8t-42 3q-48 0 -81.5 -21t-33.5 -55q0 -22 25.5 -33t95.5 -25q66 -12 100 -43.5t34 -94.5q0 -108 -85.5 -169.5t-225.5 -61.5zM1608 628q0 -118 19 -180t70.5 -84.5t148.5 -22.5h1v-341h-1q-156 0 -257 55
t-135 175h-10q-58 -127 -211.5 -178.5t-409.5 -51.5q-273 0 -442.5 52.5t-248.5 165.5t-79 296q0 65 11.5 150t31.5 174l294 -65q-13 -70 -21.5 -137.5t-8.5 -101.5q0 -74 40 -116.5t138 -59.5t271 -17q188 0 291 24.5t143.5 86.5t40.5 175v800h324v-799z" />
    <glyph glyph-name="uni06B0.init" unicode="&#x6b0;" horiz-adv-x="908" 
d="M770 1240q91 0 148 -56t57 -148q0 -82 -58.5 -140t-146.5 -58q-83 0 -137.5 55t-54.5 143q0 86 55 145t137 59zM773 1118q-36 0 -58.5 -18.5t-22.5 -50.5t23.5 -52t57.5 -20t56 20t22 52t-21.5 50.5t-56.5 18.5zM740 1807l30 -163q-168 -31 -348 -93.5t-357 -148.5
l-77 148q190 93 383 159t369 98zM929 1506l45 -339q-199 -44 -332 -80t-244 -75v-5q149 -120 238 -212.5t128.5 -172.5t39.5 -164q0 -218 -170.5 -338t-482.5 -120h-151q-24 0 -35 39.5t-11 132.5q0 92 11 130.5t35 38.5h143q174 0 255 33t81 103q0 41 -44.5 96t-149 140
t-284.5 215l24 277q215 105 436 178.5t468 122.5z" />
    <glyph glyph-name="uni06B0.medi" unicode="&#x6b0;" horiz-adv-x="1139" 
d="M770 1240q91 0 148 -56t57 -148q0 -82 -58.5 -140t-146.5 -58q-83 0 -137.5 55t-54.5 143q0 86 55 145t137 59zM773 1118q-36 0 -58.5 -18.5t-22.5 -50.5t23.5 -52t57.5 -20t56 20t22 52t-21.5 50.5t-56.5 18.5zM740 1807l30 -163q-168 -31 -348 -93.5t-357 -148.5
l-77 148q190 93 383 159t369 98zM686 296q-47 -108 -115.5 -173t-170 -94t-249.5 -29h-151q-24 0 -35 39.5t-11 130.5q0 92 11 131.5t35 39.5h143q328 0 328 133q0 42 -46.5 100.5t-150 144.5t-273.5 209l24 277q216 105 437.5 179t466.5 122l45 -339q-197 -43 -330 -79
t-246 -76v-5q93 -74 154.5 -130.5t110.5 -115.5t103 -143q63 -105 116.5 -165.5t114 -86t141.5 -25.5h1v-341h-1q-156 0 -260.5 70t-181.5 226h-10z" />
    <glyph glyph-name="uni06B0.fina" unicode="&#x6b0;" horiz-adv-x="1960" 
d="M1574 1236q91 0 148 -56t57 -148q0 -82 -58.5 -140t-146.5 -58q-83 0 -137.5 55t-54.5 143q0 86 55 145t137 59zM1577 1114q-36 0 -58.5 -18.5t-22.5 -50.5t23.5 -52t57.5 -20t56 20t22 52t-21.5 50.5t-56.5 18.5zM1544 1807l30 -163q-168 -31 -348 -93.5t-357 -148.5
l-77 148q190 93 383 159t369 98zM1507 294q-64 -151 -232 -222.5t-464 -71.5q-398 0 -577 123.5t-179 397.5q0 72 11.5 169t32.5 204l294 -64q-15 -86 -24 -162t-9 -111q0 -119 99 -167.5t345 -48.5q237 0 363 36.5t126 104.5q0 57 -112 163t-358 283l23 277
q215 105 436.5 179t467.5 122l45 -339q-197 -43 -330.5 -79t-245.5 -76l1 -5q95 -76 157 -134t110 -117.5t100 -140.5q63 -106 117 -165.5t114 -84t141 -24.5h1v-341h-1q-157 1 -261 70t-181 224h-10z" />
    <glyph glyph-name="uni06B2.init" unicode="&#x6b2;" horiz-adv-x="908" 
d="M180 -336l189 190l175 -175l175 175l190 -190l-190 -189l-175 175l-175 -175zM929 1506l45 -339q-199 -44 -332 -80t-244 -75v-5q149 -120 238 -212.5t128.5 -172.5t39.5 -164q0 -218 -170.5 -338t-482.5 -120h-151q-24 0 -35 39.5t-11 132.5q0 92 11 130.5t35 38.5h143
q174 0 255 33t81 103q0 41 -44.5 96t-149 140t-284.5 215l24 277q215 105 436 178.5t468 122.5zM740 1807l30 -163q-168 -31 -348 -93.5t-357 -148.5l-77 148q190 93 383 159t369 98z" />
    <glyph glyph-name="uni06B2.medi" unicode="&#x6b2;" horiz-adv-x="1139" 
d="M180 -336l189 190l175 -175l175 175l190 -190l-190 -189l-175 175l-175 -175zM686 296q-47 -108 -115.5 -173t-170 -94t-249.5 -29h-151q-24 0 -35 39.5t-11 130.5q0 92 11 131.5t35 39.5h143q328 0 328 133q0 42 -46.5 100.5t-150 144.5t-273.5 209l24 277
q216 105 437.5 179t466.5 122l45 -339q-197 -43 -330 -79t-246 -76v-5q93 -74 154.5 -130.5t110.5 -115.5t103 -143q63 -105 116.5 -165.5t114 -86t141.5 -25.5h1v-341h-1q-156 0 -260.5 70t-181.5 226h-10zM740 1807l30 -163q-168 -31 -348 -93.5t-357 -148.5l-77 148
q190 93 383 159t369 98z" />
    <glyph glyph-name="uni06B2.fina" unicode="&#x6b2;" horiz-adv-x="1960" 
d="M460 -336l189 190l175 -175l175 175l190 -190l-190 -189l-175 175l-175 -175zM1507 294q-64 -151 -232 -222.5t-464 -71.5q-398 0 -577 123.5t-179 397.5q0 72 11.5 169t32.5 204l294 -64q-15 -86 -24 -162t-9 -111q0 -119 99 -167.5t345 -48.5q237 0 363 36.5t126 104.5
q0 57 -112 163t-358 283l23 277q215 105 436.5 179t467.5 122l45 -339q-197 -43 -330.5 -79t-245.5 -76l1 -5q95 -76 157 -134t110 -117.5t100 -140.5q63 -106 117 -165.5t114 -84t141 -24.5h1v-341h-1q-157 1 -261 70t-181 224h-10zM1544 1807l30 -163q-168 -31 -348 -93.5
t-357 -148.5l-77 148q190 93 383 159t369 98z" />
    <glyph glyph-name="uni06B4.init" unicode="&#x6b4;" horiz-adv-x="908" 
d="M929 1506l45 -339q-199 -44 -332 -80t-244 -75v-5q149 -120 238 -212.5t128.5 -172.5t39.5 -164q0 -218 -170.5 -338t-482.5 -120h-151q-24 0 -35 39.5t-11 132.5q0 92 11 130.5t35 38.5h143q174 0 255 33t81 103q0 41 -44.5 96t-149 140t-284.5 215l24 277
q215 105 436 178.5t468 122.5zM740 1807l30 -163q-168 -31 -348 -93.5t-357 -148.5l-77 148q190 93 383 159t369 98zM288 2006l149 149l148 -149l-148 -148zM-30 1897l149 149l148 -149l-148 -148zM64 2207l149 149l148 -149l-148 -148z" />
    <glyph glyph-name="uni06B4.medi" unicode="&#x6b4;" horiz-adv-x="1139" 
d="M686 296q-47 -108 -115.5 -173t-170 -94t-249.5 -29h-151q-24 0 -35 39.5t-11 130.5q0 92 11 131.5t35 39.5h143q328 0 328 133q0 42 -46.5 100.5t-150 144.5t-273.5 209l24 277q216 105 437.5 179t466.5 122l45 -339q-197 -43 -330 -79t-246 -76v-5q93 -74 154.5 -130.5
t110.5 -115.5t103 -143q63 -105 116.5 -165.5t114 -86t141.5 -25.5h1v-341h-1q-156 0 -260.5 70t-181.5 226h-10zM740 1807l30 -163q-168 -31 -348 -93.5t-357 -148.5l-77 148q190 93 383 159t369 98zM288 2006l149 149l148 -149l-148 -148zM-30 1897l149 149l148 -149
l-148 -148zM64 2207l149 149l148 -149l-148 -148z" />
    <glyph glyph-name="uni06B4.fina" unicode="&#x6b4;" horiz-adv-x="1960" 
d="M887 2207l149 149l148 -149l-148 -148zM1111 2006l149 149l148 -149l-148 -148zM793 1897l149 149l148 -149l-148 -148zM1507 294q-64 -151 -232 -222.5t-464 -71.5q-398 0 -577 123.5t-179 397.5q0 72 11.5 169t32.5 204l294 -64q-15 -86 -24 -162t-9 -111
q0 -119 99 -167.5t345 -48.5q237 0 363 36.5t126 104.5q0 57 -112 163t-358 283l23 277q215 105 436.5 179t467.5 122l45 -339q-197 -43 -330.5 -79t-245.5 -76l1 -5q95 -76 157 -134t110 -117.5t100 -140.5q63 -106 117 -165.5t114 -84t141 -24.5h1v-341h-1q-157 1 -261 70
t-181 224h-10zM1544 1807l30 -163q-168 -31 -348 -93.5t-357 -148.5l-77 148q190 93 383 159t369 98z" />
    <glyph glyph-name="uni06B5.init" unicode="&#x6b5;" horiz-adv-x="647" 
d="M440 1615h-142l-209 282l128 96l152 -217l152 217l128 -96zM0 341q88 0 131 12.5t57 48.5t14 106v926h326v-926q0 -245 -133 -376.5t-395 -131.5q-21 0 -34 34.5t-13 137.5q0 102 13 135.5t34 33.5z" />
    <glyph glyph-name="uni06B5.medi" unicode="&#x6b5;" horiz-adv-x="734" 
d="M440 1615h-142l-209 282l128 96l152 -217l152 217l128 -96zM360 229q-34 -96 -126 -162.5t-234 -66.5q-21 0 -33.5 34.5t-12.5 137.5q0 102 12.5 135.5t33.5 33.5q90 0 133 13t56 49.5t13 106.5v924h325v-909q0 -102 42.5 -143t163.5 -41h1v-341h-1q-148 0 -238 67.5
t-125 161.5h-10z" />
    <glyph glyph-name="uni06B5.fina" unicode="&#x6b5;" horiz-adv-x="1595" 
d="M1250 1615h-142l-209 282l128 96l152 -217l152 217l128 -96zM1595 341v-341h-12q-165 0 -225 127l-11 -2v-45q0 -176 -87 -307t-243 -203t-363 -72q-291 0 -446 154t-155 444q0 72 14.5 166t49.5 250l292 -73q-48 -204 -48 -318q0 -146 77 -214t242 -68q175 0 258 82.5
t83 254.5v1258h326v-892q0 -111 44.5 -156t177.5 -45h26z" />
    <glyph glyph-name="uni06B6.init" unicode="&#x6b6;" horiz-adv-x="647" 
d="M178 1803l188 190l190 -190l-190 -189zM0 341q88 0 131 12.5t57 48.5t14 106v926h326v-926q0 -245 -133 -376.5t-395 -131.5q-21 0 -34 34.5t-13 137.5q0 102 13 135.5t34 33.5z" />
    <glyph glyph-name="uni06B6.medi" unicode="&#x6b6;" horiz-adv-x="734" 
d="M178 1803l188 190l190 -190l-190 -189zM360 229q-34 -96 -126 -162.5t-234 -66.5q-21 0 -33.5 34.5t-12.5 137.5q0 102 12.5 135.5t33.5 33.5q90 0 133 13t56 49.5t13 106.5v924h325v-909q0 -102 42.5 -143t163.5 -41h1v-341h-1q-148 0 -238 67.5t-125 161.5h-10z" />
    <glyph glyph-name="uni06B6.fina" unicode="&#x6b6;" horiz-adv-x="1595" 
d="M988 1803l188 190l190 -190l-190 -189zM1595 341v-341h-12q-165 0 -225 127l-11 -2v-45q0 -176 -87 -307t-243 -203t-363 -72q-291 0 -446 154t-155 444q0 72 14.5 166t49.5 250l292 -73q-48 -204 -48 -318q0 -146 77 -214t242 -68q175 0 258 82.5t83 254.5v1258h326
v-892q0 -111 44.5 -156t177.5 -45h26z" />
    <glyph glyph-name="uni06B7.init" unicode="&#x6b7;" horiz-adv-x="647" 
d="M177 2134l189 189l190 -189l-190 -189zM2 1798l189 190l175 -175l175 175l190 -190l-190 -189l-175 175l-175 -175zM0 341q88 0 131 12.5t57 48.5t14 106v926h326v-926q0 -245 -133 -376.5t-395 -131.5q-21 0 -34 34.5t-13 137.5q0 102 13 135.5t34 33.5z" />
    <glyph glyph-name="uni06B7.medi" unicode="&#x6b7;" horiz-adv-x="734" 
d="M177 2134l189 189l190 -189l-190 -189zM2 1798l189 190l175 -175l175 175l190 -190l-190 -189l-175 175l-175 -175zM360 229q-34 -96 -126 -162.5t-234 -66.5q-21 0 -33.5 34.5t-12.5 137.5q0 102 12.5 135.5t33.5 33.5q90 0 133 13t56 49.5t13 106.5v924h325v-909
q0 -102 42.5 -143t163.5 -41h1v-341h-1q-148 0 -238 67.5t-125 161.5h-10z" />
    <glyph glyph-name="uni06B7.fina" unicode="&#x6b7;" horiz-adv-x="1595" 
d="M985 2134l189 189l190 -189l-190 -189zM810 1798l189 190l175 -175l175 175l190 -190l-190 -189l-175 175l-175 -175zM1595 341v-341h-12q-165 0 -225 127l-11 -2v-45q0 -176 -87 -307t-243 -203t-363 -72q-291 0 -446 154t-155 444q0 72 14.5 166t49.5 250l292 -73
q-48 -204 -48 -318q0 -146 77 -214t242 -68q175 0 258 82.5t83 254.5v1258h326v-892q0 -111 44.5 -156t177.5 -45h26z" />
    <glyph glyph-name="uni06B8.init" unicode="&#x6b8;" horiz-adv-x="647" 
d="M-230 -336l189 190l175 -175l175 175l190 -190l-190 -189l-175 175l-175 -175zM-54 -671l189 189l190 -189l-190 -190zM0 341q88 0 131 12.5t57 48.5t14 106v926h326v-926q0 -245 -133 -376.5t-395 -131.5q-21 0 -34 34.5t-13 137.5q0 102 13 135.5t34 33.5z" />
    <glyph glyph-name="uni06B8.medi" unicode="&#x6b8;" horiz-adv-x="734" 
d="M-230 -336l189 190l175 -175l175 175l190 -190l-190 -189l-175 175l-175 -175zM-54 -671l189 189l190 -189l-190 -190zM360 229q-34 -96 -126 -162.5t-234 -66.5q-21 0 -33.5 34.5t-12.5 137.5q0 102 12.5 135.5t33.5 33.5q90 0 133 13t56 49.5t13 106.5v924h325v-909
q0 -102 42.5 -143t163.5 -41h1v-341h-1q-148 0 -238 67.5t-125 161.5h-10z" />
    <glyph glyph-name="uni06B8.fina" unicode="&#x6b8;" horiz-adv-x="1595" 
d="M302 -803l189 190l175 -175l175 175l190 -190l-190 -189l-175 175l-175 -175zM478 -1138l189 189l190 -189l-190 -190zM1595 341v-341h-12q-165 0 -225 127l-11 -2v-45q0 -176 -87 -307t-243 -203t-363 -72q-291 0 -446 154t-155 444q0 72 14.5 166t49.5 250l292 -73
q-48 -204 -48 -318q0 -146 77 -214t242 -68q175 0 258 82.5t83 254.5v1258h326v-892q0 -111 44.5 -156t177.5 -45h26z" />
    <glyph glyph-name="uni06B9.init" unicode="&#x6b9;" horiz-adv-x="610" 
d="M-49 -336l188 190l190 -190l-190 -189zM493 882q31 -124 48 -230.5t17 -185.5q0 -466 -524 -466h-34q-46 0 -46 172q0 169 46 169h34q106 0 156 40t50 128q0 41 -13.5 116.5t-37.5 173.5zM52 1214l188 190l190 -190l-190 -189z" />
    <glyph glyph-name="uni06B9.medi" unicode="&#x6b9;" horiz-adv-x="821" 
d="M-49 -336l188 190l190 -190l-190 -189zM575 558q0 -88 14.5 -135t59.5 -64.5t138 -17.5h34v-341h-36q-127 0 -226 60t-142 163h-10q-42 -103 -145.5 -163t-227.5 -60h-34q-25 0 -35.5 40.5t-10.5 131.5q0 90 10.5 129.5t35.5 39.5h34q93 0 139.5 18t62 65t15.5 134v180
h324v-180zM121 1090l188 190l190 -190l-190 -189z" />
    <glyph glyph-name="uni06B9.fina" unicode="&#x6b9;" horiz-adv-x="1789" 
d="M633 -850l188 190l190 -190l-190 -189zM620 412l188 190l190 -190l-190 -189zM127 664l306 -70q-34 -155 -45.5 -240t-11.5 -148q0 -190 106.5 -274t326.5 -84q456 0 456 301q0 80 -35 191.5t-118 303.5l300 145l104 -267q29 -72 59 -111t76 -54.5t121 -15.5h17v-341h-5
q-117 0 -214 104l-8 -3q-6 -177 -98 -310.5t-257 -208t-391 -74.5q-375 0 -564 164.5t-189 511.5q0 101 15 219.5t49 260.5z" />
    <glyph glyph-name="uni06BC.init" unicode="&#x6bc;" horiz-adv-x="610" 
d="M0 121q91 0 145 -56t54 -148q0 -82 -55.5 -140t-143.5 -58q-83 0 -141 55t-58 143q0 86 58.5 145t140.5 59zM0 0q-36 0 -58 -18.5t-22 -50.5t23 -52t57 -20t57 20t23 52t-22.5 50.5t-57.5 18.5zM493 882q31 -124 48 -230.5t17 -185.5q0 -466 -524 -466h-34q-46 0 -46 172
q0 169 46 169h34q106 0 156 40t50 128q0 41 -13.5 116.5t-37.5 173.5zM52 1214l188 190l190 -190l-190 -189z" />
    <glyph glyph-name="uni06BC.medi" unicode="&#x6bc;" horiz-adv-x="821" 
d="M0 121q91 0 145 -56t54 -148q0 -82 -55.5 -140t-143.5 -58q-83 0 -141 55t-58 143q0 86 58.5 145t140.5 59zM0 0q-36 0 -58 -18.5t-22 -50.5t23 -52t57 -20t57 20t23 52t-22.5 50.5t-57.5 18.5zM575 558q0 -88 14.5 -135t59.5 -64.5t138 -17.5h34v-341h-36
q-127 0 -226 60t-142 163h-10q-42 -103 -145.5 -163t-227.5 -60h-34q-25 0 -35.5 40.5t-10.5 131.5q0 90 10.5 129.5t35.5 39.5h34q93 0 139.5 18t62 65t15.5 134v180h324v-180zM121 1090l188 190l190 -190l-190 -189z" />
    <glyph glyph-name="uni06BC.fina" unicode="&#x6bc;" horiz-adv-x="1789" 
d="M821 -375q91 0 145 -56t54 -148q0 -82 -55.5 -140t-143.5 -58q-83 0 -141 55t-58 143q0 86 58.5 145t140.5 59zM821 -496q-36 0 -58 -18.5t-22 -50.5t23 -52t57 -20t57 20t23 52t-22.5 50.5t-57.5 18.5zM620 412l188 190l190 -190l-190 -189zM127 664l306 -70
q-34 -155 -45.5 -240t-11.5 -148q0 -190 106.5 -274t326.5 -84q456 0 456 301q0 80 -35 191.5t-118 303.5l300 145l104 -267q29 -72 59 -111t76 -54.5t121 -15.5h17v-341h-5q-117 0 -214 104l-8 -3q-6 -177 -98 -310.5t-257 -208t-391 -74.5q-375 0 -564 164.5t-189 511.5
q0 101 15 219.5t49 260.5z" />
    <glyph glyph-name="uni06BD.fina" unicode="&#x6bd;" horiz-adv-x="1789" 
d="M947 449l-132 -131l-131 131l131 133zM1093 222l-140 -141l-139 139l-138 -138l-140 140l140 141l139 -139l138 139zM127 664l306 -70q-34 -155 -45.5 -240t-11.5 -148q0 -190 106.5 -274t326.5 -84q456 0 456 301q0 80 -35 191.5t-118 303.5l300 145l104 -267
q29 -72 59 -111t76 -54.5t121 -15.5h17v-341h-5q-117 0 -214 104l-8 -3q-6 -177 -98 -310.5t-257 -208t-391 -74.5q-375 0 -564 164.5t-189 511.5q0 101 15 219.5t49 260.5z" />
    <glyph glyph-name="uni06BF.init" unicode="&#x6bf;" horiz-adv-x="1368" 
d="M499 1428l188 190l190 -190l-190 -189zM260 -282l189 190l175 -175l175 175l190 -190l-190 -189l-175 175l-175 -175zM436 -617l189 189l190 -189l-190 -190zM481 1041q58 0 138.5 -25.5t235.5 -93.5q155 -64 259.5 -100t201.5 -57v-263l-513 -307q-172 -103 -322 -149
t-317 -46h-164q-24 0 -35 39.5t-11 132.5q0 92 11 130.5t35 38.5h232q74 0 137 11t134.5 37.5t168.5 72.5l223 111v10q-45 11 -95.5 29t-118.5 45q-80 29 -126.5 42t-75.5 13q-64 0 -102 -36t-70 -121l-8 -23l-235 71l7 24q62 220 161 317t249 97z" />
    <glyph glyph-name="uni06BF.medi" unicode="&#x6bf;" horiz-adv-x="1419" 
d="M499 1428l188 190l190 -190l-190 -189zM260 -282l189 190l175 -175l175 175l190 -190l-190 -189l-175 175l-175 -175zM436 -617l189 189l190 -189l-190 -190zM481 1041q58 0 139 -25.5t235 -93.5q155 -64 259.5 -100t201.5 -57v-263l-184 -100v-10q53 -29 127 -40
t135 -11h25v-341h-26q-144 0 -264.5 63t-213.5 199l-112 -67q-172 -103 -322 -149t-317 -46h-164q-24 0 -35 39.5t-11 132.5q0 92 11 130.5t35 38.5h232q74 0 137 11t134.5 37.5t168.5 72.5l223 111v10q-45 11 -95.5 29t-118.5 45q-80 29 -126.5 42t-75.5 13q-64 0 -102 -36
t-70 -121l-8 -23l-235 71l7 24q62 220 161 317t249 97z" />
    <glyph glyph-name="uni06BF.fina" unicode="&#x6bf;" horiz-adv-x="1485" 
d="M548 1483l188 190l190 -190l-190 -189zM556 40l140 140l139 -139l139 139l139 -141l-139 -141l-140 140l-138 -140zM702 -188l133 132l131 -132l-131 -133zM496 1095q63 0 147 -25.5t220 -86.5q128 -57 217.5 -94t155 -59t121.5 -34l-41 -345q-66 -6 -112 -15v-11
q68 -84 216 -84h65v-341h-17q-371 0 -449 379q-135 -17 -253 -62t-207.5 -109.5t-140.5 -141.5t-51 -158q0 -123 122.5 -196t327.5 -73q135 0 262.5 28t230.5 79l145 -293q-319 -161 -636 -161q-231 0 -403.5 72.5t-268 203t-95.5 305.5q0 182 107 336t300.5 263t452.5 154
v10q-83 20 -216 74q-82 30 -127.5 42.5t-74.5 12.5q-64 0 -102.5 -35.5t-69.5 -121.5l-8 -24l-234 71l7 25q65 219 161.5 317t247.5 98z" />
    <glyph glyph-name="uni06C1.init" unicode="&#x6c1;" horiz-adv-x="1323" arabic-form="initial" 
d="M575 558q0 -120 40.5 -168.5t148.5 -48.5q98 0 143 40.5t45 127.5q0 38 -12 112.5t-38 177.5l304 83q64 -259 64 -416q0 -231 -126 -348.5t-357 -117.5q-145 0 -236.5 60t-133.5 163h-10q-41 -101 -144 -162t-229 -61h-34q-24 0 -35 39.5t-11 132.5q0 92 11 130.5
t35 38.5h34q91 0 137.5 16.5t63 63.5t16.5 137v180h324v-180zM831 -473l17 -4q39 22 75 22q48 0 85.5 -42t37.5 -107q0 -78 -46 -125.5t-122 -47.5q-92 0 -145.5 63t-53.5 171q0 111 54.5 217.5t151.5 185.5l100 -102q-129 -105 -154 -231z" />
    <glyph glyph-name="uni06C4.fina" unicode="&#x6c4;" horiz-adv-x="953" 
d="M195 45q72 0 118 -46t46 -120q0 -73 -46.5 -124t-117.5 -51q-77 0 -125.5 49t-48.5 126q0 71 50 118.5t124 47.5zM197 -65q-36 0 -58.5 -18t-22.5 -50q0 -33 23.5 -53t57.5 -20t56 20.5t22 52.5t-21.5 50t-56.5 18zM596 -4l-8 15q-38 -6 -79 -8.5t-76 -2.5
q-172 0 -266 95t-94 276q0 141 43.5 265.5t131.5 202t221 77.5q136 0 226 -77.5t141 -208t68 -289.5h49v-341h-62q-46 -190 -219 -325t-468 -229l-147 306q121 29 230 68.5t190.5 85t118.5 90.5zM606 335q-1 60 -16 114t-46.5 88.5t-84.5 34.5q-58 0 -90.5 -45t-32.5 -104
q0 -50 31 -71.5t84 -21.5q37 0 76.5 0.5t78.5 4.5z" />
    <glyph glyph-name="uni06CA.fina" unicode="&#x6ca;" horiz-adv-x="953" 
d="M116 1259l189 190l175 -175l175 175l190 -190l-190 -189l-175 175l-175 -175zM596 -4l-8 15q-38 -6 -79 -8.5t-76 -2.5q-172 0 -266 95t-94 276q0 141 43.5 265.5t131.5 202t221 77.5q136 0 226 -77.5t141 -208t68 -289.5h49v-341h-62q-46 -190 -219 -325t-468 -229
l-147 306q121 29 230 68.5t190.5 85t118.5 90.5zM606 335q-1 60 -16 114t-46.5 88.5t-84.5 34.5q-58 0 -90.5 -45t-32.5 -104q0 -50 31 -71.5t84 -21.5q37 0 76.5 0.5t78.5 4.5z" />
    <glyph glyph-name="uni06CD.fina" unicode="&#x6cd;" horiz-adv-x="1919" 
d="M1766 -10q47 -52 67 -98.5t20 -104.5q0 -83 -54 -156.5t-149.5 -129.5t-221 -88t-267.5 -32q-362 0 -539.5 153t-177.5 467q0 155 19 333q-94 -29 -201.5 -66t-178.5 -67l-96 258q194 73 319.5 105t215.5 32q125 0 270 -88h1q-23 -136 -35.5 -258t-12.5 -221
q0 -161 98.5 -233t321.5 -72q156 0 255 37.5t99 96.5q0 27 -34.5 47.5t-121.5 40t-243 43.5l49 352h784v-341h-187v-10z" />
    <glyph glyph-name="uni06CE.init" unicode="&#x6ce;" horiz-adv-x="610" 
d="M375 1008h-142l-209 282l128 96l152 -217l152 217l128 -96zM493 882q31 -124 48 -230.5t17 -185.5q0 -466 -524 -466h-34q-46 0 -46 172q0 169 46 169h34q106 0 156 40t50 128q0 41 -13.5 116.5t-37.5 173.5zM-249 -336l189 190l175 -175l175 175l190 -190l-190 -189
l-175 175l-175 -175z" />
    <glyph glyph-name="uni06CE.medi" unicode="&#x6ce;" horiz-adv-x="821" 
d="M481 867h-142l-209 282l128 96l152 -217l152 217l128 -96zM575 558q0 -88 14.5 -135t59.5 -64.5t138 -17.5h34v-341h-36q-127 0 -226 60t-142 163h-10q-42 -103 -145.5 -163t-227.5 -60h-34q-25 0 -35.5 40.5t-10.5 131.5q0 90 10.5 129.5t35.5 39.5h34q93 0 139.5 18
t62 65t15.5 134v180h324v-180zM-280 -336l189 190l175 -175l175 175l190 -190l-190 -189l-175 175l-175 -175z" />
    <glyph glyph-name="uni06CE.fina" unicode="&#x6ce;" horiz-adv-x="1566" 
d="M1039 624h-142l-209 282l128 96l152 -217l152 217l128 -96zM1379 -10q47 -52 67 -98.5t20 -104.5q0 -83 -54 -156.5t-149.5 -129.5t-221 -88t-267.5 -32q-362 0 -539.5 153t-177.5 467q0 127 13.5 272t38.5 293l297 -58q-23 -136 -35.5 -258t-12.5 -221q0 -161 98.5 -233
t321.5 -72q156 0 255 37.5t99 96.5q0 27 -34.5 47.5t-121.5 40t-243 43.5l49 352h784v-341h-187v-10z" />
    <glyph glyph-name="uni06CF.fina" unicode="&#x6cf;" horiz-adv-x="953" 
d="M293 1301l188 190l190 -190l-190 -189zM596 -4l-8 15q-38 -6 -79 -8.5t-76 -2.5q-172 0 -266 95t-94 276q0 141 43.5 265.5t131.5 202t221 77.5q136 0 226 -77.5t141 -208t68 -289.5h49v-341h-62q-46 -190 -219 -325t-468 -229l-147 306q121 29 230 68.5t190.5 85
t118.5 90.5zM606 335q-1 60 -16 114t-46.5 88.5t-84.5 34.5q-58 0 -90.5 -45t-32.5 -104q0 -50 31 -71.5t84 -21.5q37 0 76.5 0.5t78.5 4.5z" />
    <glyph glyph-name="uni06D1.fina" unicode="&#x6d1;" horiz-adv-x="1566" 
d="M406 -930l189 190l175 -175l175 175l190 -190l-190 -189l-175 175l-175 -175zM600 -1233l171 172l172 -172l-172 -172zM1379 -10q47 -52 67 -98.5t20 -104.5q0 -83 -54 -156.5t-149.5 -129.5t-221 -88t-267.5 -32q-362 0 -539.5 153t-177.5 467q0 127 13.5 272t38.5 293
l297 -58q-23 -136 -35.5 -258t-12.5 -221q0 -161 98.5 -233t321.5 -72q156 0 255 37.5t99 96.5q0 27 -34.5 47.5t-121.5 40t-243 43.5l49 352h784v-341h-187v-10z" />
    <glyph glyph-name="uni06EE.fina" unicode="&#x6ee;" horiz-adv-x="1312" 
d="M531 1666h142l209 -282l-128 -96l-152 217l-152 -217l-128 96zM806 1148l257 -605q37 -87 68 -130t71 -57.5t104 -14.5h6v-341h-6q-147 0 -238.5 54.5t-146.5 181.5h-10q-44 -115 -163.5 -180.5t-277.5 -65.5q-226 0 -425 147l143 270q71 -37 142.5 -56t132.5 -19
q87 0 163.5 26.5t128.5 76.5l-251 567z" />
    <glyph glyph-name="uni06EF.fina" unicode="&#x6ef;" horiz-adv-x="802" 
d="M234 1351h142l209 -282l-128 -96l-152 217l-152 -217l-128 96zM147 692l305 105l72 -224q30 -93 61.5 -143.5t81.5 -69.5t134 -19h1v-341h-1q-147 0 -231 108l-10 -3q-6 -232 -176.5 -392t-473.5 -267l-147 306q180 60 289 122t158.5 135.5t49.5 169.5q0 83 -30.5 219.5
t-82.5 293.5z" />
    <glyph glyph-name="uni06FA.init" unicode="&#x6fa;" horiz-adv-x="1690" 
d="M749 1414l189 189l190 -189l-190 -189zM574 1078l189 190l175 -175l175 175l190 -190l-190 -189l-175 175l-175 -175zM685 341q63 0 87 35t31 101l17 211l280 -18l-14 -215q-5 -52 24 -83t88 -31q60 0 89.5 32.5t29.5 87.5q0 23 -5 71.5t-13 107t-17 110.5l313 75
q17 -88 29.5 -182.5t12.5 -177.5q0 -240 -97.5 -352.5t-280.5 -112.5q-133 0 -204 63t-95 160h-10q-48 -223 -283 -223q-124 0 -191.5 57t-95.5 163h-10q-47 -99 -130.5 -159.5t-205.5 -60.5h-34q-24 0 -35 41.5t-11 132.5q0 89 11 128t35 39h34q105 0 151.5 44t55.5 136
l19 222l323 -22l-21 -257q-5 -52 27 -87.5t96 -35.5zM762 -336l188 190l190 -190l-190 -189z" />
    <glyph glyph-name="uni06FA.medi" unicode="&#x6fa;" horiz-adv-x="1871" 
d="M749 1414l189 189l190 -189l-190 -189zM574 1078l189 190l175 -175l175 175l190 -190l-190 -189l-175 175l-175 -175zM1528 241q-27 -114 -92 -177.5t-184 -63.5q-130 0 -199 63t-93 160h-10q-48 -223 -283 -223q-126 0 -192 57t-95 163h-10q-47 -99 -130.5 -159.5
t-205.5 -60.5h-34q-24 0 -35 41.5t-11 132.5q0 89 11 128t35 39h34q105 0 151.5 44t55.5 136l19 222l323 -22l-21 -257q-5 -52 27 -87.5t96 -35.5q63 0 87.5 35t30.5 101l17 211l280 -18l-14 -215q-5 -52 23.5 -83t87.5 -31q62 0 92 32t30 87q0 18 -5.5 63t-13.5 103
t-18 114l311 64l23 -154q19 -128 45 -195t74.5 -90.5t134.5 -23.5h1v-341h-1q-154 0 -227.5 64.5t-104.5 176.5h-10zM762 -336l188 190l190 -190l-190 -189z" />
    <glyph glyph-name="uni06FA.fina" unicode="&#x6fa;" horiz-adv-x="2786" 
d="M1647 1414l189 189l190 -189l-190 -189zM1472 1078l189 190l175 -175l175 175l190 -190l-190 -189l-175 175l-175 -175zM2444 241q-57 -241 -274 -241q-109 0 -187.5 53.5t-106.5 169.5h-10q-24 -106 -80.5 -164.5t-142.5 -58.5q-33 0 -68 9.5t-64 28.5l-6 -4
q-41 -243 -231.5 -375.5t-483.5 -132.5q-364 0 -545.5 161.5t-181.5 496.5q0 101 15.5 220.5t48.5 259.5l306 -70q-33 -156 -45 -241t-12 -148q0 -178 99 -258t306 -80q214 0 321.5 68t107.5 213q0 55 -14.5 121t-47.5 156.5t-90 218.5l302 144l120 -324q24 -65 54 -94
t85 -29q56 0 81.5 32.5t31.5 108.5l15 206l277 -18l-14 -215q-4 -56 26.5 -85t87.5 -29q111 0 111 119q0 19 -5.5 64.5t-13.5 103.5t-18 112l311 64l25 -154q22 -132 46.5 -198.5t71.5 -88.5t134 -22v-341q-142 0 -219.5 58.5t-112.5 182.5h-10zM1706 -336l188 190l190 -190
l-190 -189z" />
    <glyph glyph-name="uni06FB.init" unicode="&#x6fb;" horiz-adv-x="1651" 
d="M811 -336l188 190l190 -190l-190 -189zM1004 1300l188 190l190 -190l-190 -189zM431 233q-46 -115 -155.5 -174t-270.5 -59h-5q-25 0 -35.5 40t-10.5 132q0 90 10.5 129.5t35.5 39.5h5q122 0 167.5 44t45.5 138v225h324v-213q7 -27 18.5 -39.5t26.5 -21.5
q171 238 323.5 346.5t299.5 108.5q114 0 202 -58.5t137.5 -160.5t49.5 -231q0 -145 -80.5 -252.5t-219 -167t-313.5 -59.5q-214 0 -346.5 56t-199.5 177h-9zM1167 595q-83 0 -178 -56.5t-172 -167.5q80 -30 192 -30q122 0 206.5 35.5t84.5 106.5q0 50 -36.5 81t-96.5 31z
" />
    <glyph glyph-name="uni06FB.medi" unicode="&#x6fb;" horiz-adv-x="1691" 
d="M811 -336l188 190l190 -190l-190 -189zM1004 1300l188 190l190 -190l-190 -189zM218 748h324v-213q7 -27 18.5 -39.5t26.5 -21.5q171 238 323.5 346.5t299.5 108.5q114 0 202 -58.5t137.5 -160.5t49.5 -231q0 -34 -6.5 -65t-17.5 -60q26 -6 55 -9.5t60 -3.5h1v-341h-1
q-184 0 -280 120q-166 -120 -424 -120q-214 0 -346.5 56t-199.5 177h-9q-46 -115 -155.5 -174t-270.5 -59h-5q-25 0 -35.5 40t-10.5 132q0 90 10.5 129.5t35.5 39.5h5q122 0 167.5 44t45.5 138v225zM1167 595q-83 0 -178 -56.5t-172 -167.5q80 -30 192 -30q122 0 206.5 35.5
t84.5 106.5q0 50 -36.5 81t-96.5 31z" />
    <glyph glyph-name="uni06FB.fina" unicode="&#x6fb;" horiz-adv-x="2601" 
d="M1802 -336l188 190l190 -190l-190 -189zM2126 929q111 0 196.5 -57t134.5 -158.5t49 -234.5q0 -69 -23 -124q53 -14 117 -14h1v-341h-1q-88 0 -153 28t-120 90q-75 -55 -178 -86.5t-229 -31.5q-241 0 -404 110q-25 -274 -217.5 -429t-511.5 -155q-365 0 -544.5 162.5
t-179.5 495.5q0 102 15.5 222t48.5 258l306 -70q-32 -154 -44.5 -239t-12.5 -150q0 -175 97 -256.5t305 -81.5q426 0 426 291q0 54 -14 118t-47 153t-89 215l303 145q42 -94 72 -178.5t49 -160.5q146 230 312 354.5t336 124.5zM2075 595q-89 0 -184.5 -62t-166.5 -162
q79 -30 194 -30q140 0 215.5 40.5t75.5 101.5q0 50 -37 81t-97 31zM1934 1300l188 190l190 -190l-190 -189z" />
    <glyph glyph-name="uni06FC.init" unicode="&#x6fc;" horiz-adv-x="1093" 
d="M386 -336l188 190l190 -190l-190 -189zM384 1471l188 190l190 -190l-190 -189zM387 537q0 -146 229 -146q74 0 158 10l199 26l34 -331l-399 -46q-197 -24 -344.5 -37t-227.5 -13h-36q-24 0 -35 40.5t-11 131.5q0 90 11 129.5t35 39.5h22q31 0 67 1t64 2v19
q-78 73 -78 215q0 133 65.5 237.5t180.5 165t261 60.5q223 0 375 -138l-143 -249q-120 55 -230 55q-88 0 -142.5 -47.5t-54.5 -124.5z" />
    <glyph glyph-name="uni06FC.medi" unicode="&#x6fc;" horiz-adv-x="1182" 
d="M454 -336l188 190l190 -190l-190 -189zM448 1442l188 190l190 -190l-190 -189zM626 1048q133 0 237.5 -47t165 -132t60.5 -198q0 -79 -44.5 -151.5t-123.5 -138.5v-10q46 -19 91 -24.5t97 -5.5h73v-341h-112q-121 0 -218 36.5t-196 124.5q-115 -78 -249.5 -119.5
t-286.5 -41.5h-120q-25 0 -35.5 40.5t-10.5 131.5q0 90 10.5 129.5t35.5 39.5h110q83 0 161.5 10t132.5 23v10l-302 262v196q110 98 245 152t279 54zM646 719q-49 0 -97 -9t-90 -29v-2l196 -203q71 46 108 86t37 77q0 41 -44 60.5t-110 19.5z" />
    <glyph glyph-name="uni06FC.fina" unicode="&#x6fc;" horiz-adv-x="1235" 
d="M556 -138l188 190l190 -190l-190 -189zM493 1446l188 190l190 -190l-190 -189zM1137 671q0 -152 -163 -285v-10q64 -35 167 -35h94v-341h-49q-130 0 -238.5 41t-224.5 132q-161 -72 -257.5 -161.5t-96.5 -199.5q0 -97 120.5 -155.5t325.5 -58.5q83 0 165.5 11t161.5 30
l75 -327q-205 -61 -401 -61q-229 0 -400.5 65.5t-266.5 184t-95 276.5q0 173 114 317.5t322 246.5v10l-340 295v196q113 100 248.5 153t276.5 53q136 0 240 -48t163 -133t59 -196zM849 639q0 37 -41 58.5t-112 21.5q-104 0 -189 -38v-2l200 -203q142 93 142 163z" />
    <glyph glyph-name="uni06FF.init" unicode="&#x6ff;" horiz-adv-x="1434" 
d="M821 1612h142l209 -282l-128 -96l-152 217l-152 -217l-128 96zM0 341h88q69 0 122 10q-89 124 -89 232q0 82 39 155t119 107l4 10l-154 69l133 294l602 -258q185 -78 296.5 -158.5t162 -177t50.5 -222.5q0 -187 -117 -300t-311 -113q-115 0 -221.5 34.5t-213.5 107.5
q-85 -63 -189 -97t-217 -34h-104q-24 0 -35 40t-11 132q0 90 11 129.5t35 39.5zM524 404q141 73 141 188q0 63 -37.5 102t-94.5 39q-58 0 -98.5 -45.5t-40.5 -111.5q0 -87 130 -172zM809 363q43 -15 83 -23.5t78 -8.5q141 0 141 89q0 57 -53 102.5t-172 91.5
q22 -151 -77 -251z" />
    <glyph glyph-name="uni06FF.medi" unicode="&#x6ff;" horiz-adv-x="1085" 
d="M436 1472h142l209 -282l-128 -96l-152 217l-152 -217l-128 96zM511 989q106 0 187 -47.5t126.5 -132.5t45.5 -199q0 -113 -60 -220t-171 -194t-263 -141q29 -82 66.5 -142.5t90.5 -107.5h5q95 170 163.5 275.5t124.5 162t112.5 77.5t128.5 21h18v-341h-18
q-52 0 -96.5 -22.5t-89 -78.5t-98 -156.5t-124.5 -256.5h-225q-126 111 -203 239t-116 275h-115q-24 0 -35 40.5t-11 131.5q0 90 11 129.5t35 39.5h88q-2 228 55.5 371t154.5 210t213 67zM346 359q117 16 190.5 73t73.5 133q0 49 -27 78.5t-71 29.5q-69 0 -118.5 -69.5
t-47.5 -244.5z" />
    <glyph glyph-name="uni06FF.fina" unicode="&#x6ff;" horiz-adv-x="1195" 
d="M702 1677h142l209 -282l-128 -96l-152 217l-152 -217l-128 96zM648 996l-10 172l324 19l37 -626q8 -121 51.5 -170.5t143.5 -49.5h1v-341h-1q-282 0 -410 197q-50 -23 -111.5 -36.5t-115.5 -13.5q-195 0 -314.5 89t-119.5 243q0 198 135.5 331t389.5 186zM671 686
q-121 -7 -194.5 -46t-73.5 -98q0 -43 47 -65.5t126 -22.5q35 0 62.5 3t51.5 8q-8 45 -9 74z" />
    <glyph glyph-name="uniFB50" unicode="&#x671;" horiz-adv-x="573" arabic-form="isolated" 
d="M449 1275v-1275h-323v1275h323zM299 1734q72 98 128 138t120 40q72 0 111 -44t39 -124q0 -109 -66 -180.5t-167 -71.5q-68 0 -151 50q-61 36 -97 36q-31 0 -56 -23t-60 -84l-123 80q92 212 220 212q47 0 102 -29zM391 1686q39 -16 79 -16q102 0 102 55q0 45 -56 45
q-58 0 -125 -84z" />
    <glyph glyph-name="uniFB51" unicode="&#x671;" horiz-adv-x="657" arabic-form="final" 
d="M113 1275h325v-759q0 -98 49.5 -136.5t168.5 -38.5h1v-341h-1q-254 0 -398.5 128t-144.5 380v767zM299 1734q72 98 128 138t120 40q72 0 111 -44t39 -124q0 -109 -66 -180.5t-167 -71.5q-68 0 -151 50q-61 36 -97 36q-31 0 -56 -23t-60 -84l-123 80q92 212 220 212
q47 0 102 -29zM391 1686q39 -16 79 -16q102 0 102 55q0 45 -56 45q-58 0 -125 -84z" />
    <glyph glyph-name="uniFB52" unicode="&#x67b;" horiz-adv-x="1811" arabic-form="isolated" 
d="M715 -685l174 175l-174 175l188 189l190 -189l-175 -175l175 -175l-190 -189zM1708 901q23 -93 36.5 -188t13.5 -172q0 -200 -86 -318.5t-273.5 -170.5t-492.5 -52q-304 0 -492 52t-274.5 170t-86.5 316q0 77 15 173t37 190l289 -63q-13 -66 -23.5 -139t-10.5 -120
q0 -102 50.5 -153t169.5 -68t326 -17q208 0 327 17.5t169 69t50 154.5q0 47 -9.5 119t-23.5 137z" />
    <glyph glyph-name="uniFB53" unicode="&#x67b;" horiz-adv-x="1969" arabic-form="final" 
d="M693 -686l174 175l-174 175l188 189l190 -189l-175 -175l175 -175l-190 -189zM1805 767q-16 -89 -24.5 -153.5t-8.5 -103.5q0 -79 47 -124t149 -45h1v-341h-1q-151 0 -266.5 60t-172.5 206h-10q-110 -153 -293.5 -209.5t-434.5 -56.5q-738 0 -738 562q0 159 60 379
l282 -76q-19 -74 -30 -144.5t-11 -112.5q0 -144 111.5 -205.5t374.5 -61.5q211 0 345 47t210.5 151t114.5 276z" />
    <glyph glyph-name="uniFB54" unicode="&#x67b;" horiz-adv-x="610" arabic-form="initial" 
d="M-49 -686l174 175l-174 175l188 189l190 -189l-175 -175l175 -175l-190 -189zM493 882q31 -124 48 -230.5t17 -185.5q0 -466 -524 -466h-34q-46 0 -46 172q0 169 46 169h34q106 0 156 40t50 128q0 41 -13.5 116.5t-37.5 173.5z" />
    <glyph glyph-name="uniFB55" unicode="&#x67b;" horiz-adv-x="821" arabic-form="medial" 
d="M-49 -686l174 175l-174 175l188 189l190 -189l-175 -175l175 -175l-190 -189zM575 558q0 -88 14.5 -135t59.5 -64.5t138 -17.5h34v-341h-36q-127 0 -226 60t-142 163h-10q-42 -103 -145.5 -163t-227.5 -60h-34q-25 0 -35.5 40.5t-10.5 131.5q0 90 10.5 129.5t35.5 39.5
h34q93 0 139.5 18t62 65t15.5 134v180h324v-180z" />
    <glyph glyph-name="uniFB56" unicode="&#x67e;" horiz-adv-x="1811" arabic-form="isolated" 
d="M1708 901q23 -93 36.5 -188t13.5 -172q0 -200 -86 -318.5t-273.5 -170.5t-492.5 -52q-304 0 -492 52t-274.5 170t-86.5 316q0 77 15 173t37 190l289 -63q-13 -66 -23.5 -139t-10.5 -120q0 -102 50.5 -153t169.5 -68t326 -17q208 0 327 17.5t169 69t50 154.5
q0 47 -9.5 119t-23.5 137zM538 -336l189 190l175 -175l175 175l190 -190l-190 -189l-175 175l-175 -175zM714 -671l189 189l190 -189l-190 -190z" />
    <glyph glyph-name="uniFB57" unicode="&#x67e;" horiz-adv-x="1969" arabic-form="final" 
d="M468 -335l189 190l175 -175l175 175l190 -190l-190 -189l-175 175l-175 -175zM644 -670l189 189l190 -189l-190 -190zM1805 767q-16 -89 -24.5 -153.5t-8.5 -103.5q0 -79 47 -124t149 -45h1v-341h-1q-151 0 -266.5 60t-172.5 206h-10q-110 -153 -293.5 -209.5
t-434.5 -56.5q-738 0 -738 562q0 159 60 379l282 -76q-19 -74 -30 -144.5t-11 -112.5q0 -144 111.5 -205.5t374.5 -61.5q211 0 345 47t210.5 151t114.5 276z" />
    <glyph glyph-name="uniFB58" unicode="&#x67e;" horiz-adv-x="610" arabic-form="initial" 
d="M-230 -335l189 190l175 -175l175 175l190 -190l-190 -189l-175 175l-175 -175zM-54 -670l189 189l190 -189l-190 -190zM493 882q31 -124 48 -230.5t17 -185.5q0 -466 -524 -466h-34q-46 0 -46 172q0 169 46 169h34q106 0 156 40t50 128q0 41 -13.5 116.5t-37.5 173.5z
" />
    <glyph glyph-name="uniFB59" unicode="&#x67e;" horiz-adv-x="821" arabic-form="medial" 
d="M-260 -335l189 190l175 -175l175 175l190 -190l-190 -189l-175 175l-175 -175zM-84 -670l189 189l190 -189l-190 -190zM575 558q0 -88 14.5 -135t59.5 -64.5t138 -17.5h34v-341h-36q-127 0 -226 60t-142 163h-10q-42 -103 -145.5 -163t-227.5 -60h-34q-25 0 -35.5 40.5
t-10.5 131.5q0 90 10.5 129.5t35.5 39.5h34q93 0 139.5 18t62 65t15.5 134v180h324v-180z" />
    <glyph glyph-name="uniFB5A" unicode="&#x680;" horiz-adv-x="1811" arabic-form="isolated" 
d="M538 -687l175 175l-175 175l189 189l175 -175l175 175l190 -189l-175 -175l175 -175l-190 -189l-175 175l-175 -175zM742 -512l160 -160l161 160l-161 161zM1708 901q23 -93 36.5 -188t13.5 -172q0 -200 -86 -318.5t-273.5 -170.5t-492.5 -52q-304 0 -492 52t-274.5 170
t-86.5 316q0 77 15 173t37 190l289 -63q-13 -66 -23.5 -139t-10.5 -120q0 -102 50.5 -153t169.5 -68t326 -17q208 0 327 17.5t169 69t50 154.5q0 47 -9.5 119t-23.5 137z" />
    <glyph glyph-name="uniFB5B" unicode="&#x680;" horiz-adv-x="1969" arabic-form="final" 
d="M468 -687l175 175l-175 175l189 189l175 -175l175 175l190 -189l-175 -175l175 -175l-190 -189l-175 175l-175 -175zM672 -512l160 -160l161 160l-161 161zM1805 767q-16 -89 -24.5 -153.5t-8.5 -103.5q0 -79 47 -124t149 -45h1v-341h-1q-151 0 -266.5 60t-172.5 206h-10
q-110 -153 -293.5 -209.5t-434.5 -56.5q-738 0 -738 562q0 159 60 379l282 -76q-19 -74 -30 -144.5t-11 -112.5q0 -144 111.5 -205.5t374.5 -61.5q211 0 345 47t210.5 151t114.5 276z" />
    <glyph glyph-name="uniFB5C" unicode="&#x680;" horiz-adv-x="610" arabic-form="initial" 
d="M-230 -687l175 175l-175 175l189 189l175 -175l175 175l190 -189l-175 -175l175 -175l-190 -189l-175 175l-175 -175zM-26 -512l160 -160l161 160l-161 161zM493 882q31 -124 48 -230.5t17 -185.5q0 -466 -524 -466h-34q-46 0 -46 172q0 169 46 169h34q106 0 156 40
t50 128q0 41 -13.5 116.5t-37.5 173.5z" />
    <glyph glyph-name="uniFB5D" unicode="&#x680;" horiz-adv-x="821" arabic-form="medial" 
d="M-260 -687l175 175l-175 175l189 189l175 -175l175 175l190 -189l-175 -175l175 -175l-190 -189l-175 175l-175 -175zM-56 -512l160 -160l161 160l-161 161zM575 558q0 -88 14.5 -135t59.5 -64.5t138 -17.5h34v-341h-36q-127 0 -226 60t-142 163h-10
q-42 -103 -145.5 -163t-227.5 -60h-34q-25 0 -35.5 40.5t-10.5 131.5q0 90 10.5 129.5t35.5 39.5h34q93 0 139.5 18t62 65t15.5 134v180h324v-180z" />
    <glyph glyph-name="uniFB5E" unicode="&#x67a;" horiz-adv-x="1811" arabic-form="isolated" 
d="M1708 901q23 -93 36.5 -188t13.5 -172q0 -200 -86 -318.5t-273.5 -170.5t-492.5 -52q-304 0 -492 52t-274.5 170t-86.5 316q0 77 15 173t37 190l289 -63q-13 -66 -23.5 -139t-10.5 -120q0 -102 50.5 -153t169.5 -68t326 -17q208 0 327 17.5t169 69t50 154.5
q0 47 -9.5 119t-23.5 137zM718 890l174 175l-174 175l188 189l190 -189l-175 -175l175 -175l-190 -189z" />
    <glyph glyph-name="uniFB5F" unicode="&#x67a;" horiz-adv-x="1969" arabic-form="final" 
d="M732 871l174 175l-174 175l188 189l190 -189l-175 -175l175 -175l-190 -189zM1805 767q-16 -89 -24.5 -153.5t-8.5 -103.5q0 -79 47 -124t149 -45h1v-341h-1q-151 0 -266.5 60t-172.5 206h-10q-110 -153 -293.5 -209.5t-434.5 -56.5q-738 0 -738 562q0 159 60 379
l282 -76q-19 -74 -30 -144.5t-11 -112.5q0 -144 111.5 -205.5t374.5 -61.5q211 0 345 47t210.5 151t114.5 276z" />
    <glyph glyph-name="uniFB60" unicode="&#x67a;" horiz-adv-x="610" arabic-form="initial" 
d="M52 1214l174 175l-174 175l188 189l190 -189l-175 -175l175 -175l-190 -189zM493 882q31 -124 48 -230.5t17 -185.5q0 -466 -524 -466h-34q-46 0 -46 172q0 169 46 169h34q106 0 156 40t50 128q0 41 -13.5 116.5t-37.5 173.5z" />
    <glyph glyph-name="uniFB61" unicode="&#x67a;" horiz-adv-x="821" arabic-form="medial" 
d="M121 1090l174 175l-174 175l188 189l190 -189l-175 -175l175 -175l-190 -189zM575 558q0 -88 14.5 -135t59.5 -64.5t138 -17.5h34v-341h-36q-127 0 -226 60t-142 163h-10q-42 -103 -145.5 -163t-227.5 -60h-34q-25 0 -35.5 40.5t-10.5 131.5q0 90 10.5 129.5t35.5 39.5
h34q93 0 139.5 18t62 65t15.5 134v180h324v-180z" />
    <glyph glyph-name="uniFB62" unicode="&#x67f;" horiz-adv-x="1811" arabic-form="isolated" 
d="M541 915l175 175l-175 175l189 189l175 -175l175 175l190 -189l-175 -175l175 -175l-190 -189l-175 175l-175 -175zM745 1090l160 -160l161 160l-161 161zM1708 901q23 -93 36.5 -188t13.5 -172q0 -200 -86 -318.5t-273.5 -170.5t-492.5 -52q-304 0 -492 52t-274.5 170
t-86.5 316q0 77 15 173t37 190l289 -63q-13 -66 -23.5 -139t-10.5 -120q0 -102 50.5 -153t169.5 -68t326 -17q208 0 327 17.5t169 69t50 154.5q0 47 -9.5 119t-23.5 137z" />
    <glyph glyph-name="uniFB63" unicode="&#x67f;" horiz-adv-x="1969" arabic-form="final" 
d="M557 871l175 175l-175 175l189 189l175 -175l175 175l190 -189l-175 -175l175 -175l-190 -189l-175 175l-175 -175zM761 1046l160 -160l161 160l-161 161zM1805 767q-16 -89 -24.5 -153.5t-8.5 -103.5q0 -79 47 -124t149 -45h1v-341h-1q-151 0 -266.5 60t-172.5 206h-10
q-110 -153 -293.5 -209.5t-434.5 -56.5q-738 0 -738 562q0 159 60 379l282 -76q-19 -74 -30 -144.5t-11 -112.5q0 -144 111.5 -205.5t374.5 -61.5q211 0 345 47t210.5 151t114.5 276z" />
    <glyph glyph-name="uniFB64" unicode="&#x67f;" horiz-adv-x="610" arabic-form="initial" 
d="M-118 1178l175 175l-175 175l189 189l175 -175l175 175l190 -189l-175 -175l175 -175l-190 -189l-175 175l-175 -175zM86 1353l160 -160l161 160l-161 161zM493 882q31 -124 48 -230.5t17 -185.5q0 -466 -524 -466h-34q-46 0 -46 172q0 169 46 169h34q106 0 156 40
t50 128q0 41 -13.5 116.5t-37.5 173.5z" />
    <glyph glyph-name="uniFB65" unicode="&#x67f;" horiz-adv-x="821" arabic-form="medial" 
d="M-51 1079l175 175l-175 175l189 189l175 -175l175 175l190 -189l-175 -175l175 -175l-190 -189l-175 175l-175 -175zM153 1254l160 -160l161 160l-161 161zM575 558q0 -88 14.5 -135t59.5 -64.5t138 -17.5h34v-341h-36q-127 0 -226 60t-142 163h-10q-42 -103 -145.5 -163
t-227.5 -60h-34q-25 0 -35.5 40.5t-10.5 131.5q0 90 10.5 129.5t35.5 39.5h34q93 0 139.5 18t62 65t15.5 134v180h324v-180z" />
    <glyph glyph-name="uniFB66" unicode="&#x679;" horiz-adv-x="1811" arabic-form="isolated" 
d="M1708 901q23 -93 36.5 -188t13.5 -172q0 -200 -86 -318.5t-273.5 -170.5t-492.5 -52q-304 0 -492 52t-274.5 170t-86.5 316q0 77 15 173t37 190l289 -63q-13 -66 -23.5 -139t-10.5 -120q0 -102 50.5 -153t169.5 -68t326 -17q208 0 327 17.5t169 69t50 154.5
q0 47 -9.5 119t-23.5 137zM699 854v390h136v-248h10q62 56 106.5 79t90.5 23q62 0 101.5 -49t39.5 -108q0 -116 -74 -174t-205 -58h-310v145h105zM821 854h83q159 0 159 57q0 20 -16 34t-42 14q-37 0 -80.5 -24.5t-103.5 -80.5z" />
    <glyph glyph-name="uniFB67" unicode="&#x679;" horiz-adv-x="1969" arabic-form="final" 
d="M738 868v390h136v-248h10q62 56 106.5 79t90.5 23q62 0 101.5 -49t39.5 -108q0 -116 -74 -174t-205 -58h-310v145h105zM860 868h83q159 0 159 57q0 20 -16 34t-42 14q-37 0 -80.5 -24.5t-103.5 -80.5zM1805 767q-16 -89 -24.5 -153.5t-8.5 -103.5q0 -79 47 -124t149 -45
h1v-341h-1q-151 0 -266.5 60t-172.5 206h-10q-110 -153 -293.5 -209.5t-434.5 -56.5q-738 0 -738 562q0 159 60 379l282 -76q-19 -74 -30 -144.5t-11 -112.5q0 -144 111.5 -205.5t374.5 -61.5q211 0 345 47t210.5 151t114.5 276z" />
    <glyph glyph-name="uniFB68" unicode="&#x679;" horiz-adv-x="610" arabic-form="initial" 
d="M60 1210v390h136v-248h10q62 56 106.5 79t90.5 23q62 0 101.5 -49t39.5 -108q0 -116 -74 -174t-205 -58h-310v145h105zM182 1210h83q159 0 159 57q0 20 -16 34t-42 14q-37 0 -80.5 -24.5t-103.5 -80.5zM493 882q31 -124 48 -230.5t17 -185.5q0 -466 -524 -466h-34
q-46 0 -46 172q0 169 46 169h34q106 0 156 40t50 128q0 41 -13.5 116.5t-37.5 173.5z" />
    <glyph glyph-name="uniFB69" unicode="&#x679;" horiz-adv-x="821" arabic-form="medial" 
d="M123 1089v390h136v-248h10q62 56 106.5 79t90.5 23q62 0 101.5 -49t39.5 -108q0 -116 -74 -174t-205 -58h-310v145h105zM245 1089h83q159 0 159 57q0 20 -16 34t-42 14q-37 0 -80.5 -24.5t-103.5 -80.5zM575 558q0 -88 14.5 -135t59.5 -64.5t138 -17.5h34v-341h-36
q-127 0 -226 60t-142 163h-10q-42 -103 -145.5 -163t-227.5 -60h-34q-25 0 -35.5 40.5t-10.5 131.5q0 90 10.5 129.5t35.5 39.5h34q93 0 139.5 18t62 65t15.5 134v180h324v-180z" />
    <glyph glyph-name="uniFB6A" unicode="&#x6a4;" horiz-adv-x="1845" arabic-form="isolated" 
d="M1500 501q-115 -31 -220 -31q-181 0 -267 80t-86 248q0 169 48.5 292t137.5 190.5t209 67.5q141 0 244.5 -96t160 -271t56.5 -413q0 -209 -84.5 -334t-278 -179.5t-520.5 -54.5q-304 0 -490.5 52.5t-271.5 168t-85 304.5q0 68 13 161t33 191l294 -64q-33 -178 -33 -252
q0 -86 50.5 -134t174 -67t342.5 -19q184 0 297.5 5.5t173 22t81 48.5t21.5 84zM1451 778q-23 236 -142 236q-57 0 -90 -46t-33 -119q0 -86 119 -86q33 0 70 4t76 11zM1096 2044l189 189l190 -189l-190 -189zM921 1708l189 190l175 -175l175 175l190 -190l-190 -189l-175 175
l-175 -175z" />
    <glyph glyph-name="uniFB6B" unicode="&#x6a4;" horiz-adv-x="1954" arabic-form="final" 
d="M1257 1755l189 189l190 -189l-190 -189zM1082 1419l189 190l175 -175l175 175l190 -190l-190 -189l-175 175l-175 -175zM1443 132q-109 -62 -253 -97t-314 -35q-412 0 -617.5 113t-205.5 386q0 90 25 206t65 237l284 -92q-23 -74 -43 -158.5t-20 -133.5
q0 -121 118.5 -166t393.5 -51q66 -1 131 1t128 6l5 9q-64 50 -98.5 119t-34.5 154q0 132 59.5 233t159.5 158.5t222 57.5q121 0 221.5 -57.5t160.5 -157.5t60 -230q0 -85 -35.5 -156.5t-97.5 -122.5l5 -8q29 -2 57.5 -4t59.5 -2h75v-341h-94q-139 0 -238 35.5t-179 96.5z
M1447 420q59 34 93 81.5t34 110.5q0 50 -35 87.5t-91 37.5q-57 0 -91.5 -36.5t-34.5 -88.5q0 -58 35 -107t90 -85z" />
    <glyph glyph-name="uniFB6C" unicode="&#x6a4;" horiz-adv-x="962" arabic-form="initial" 
d="M246 2022l189 189l190 -189l-190 -189zM71 1686l189 190l175 -175l175 175l190 -190l-190 -189l-175 175l-175 -175zM0 341h323q117 0 181.5 14.5t90 49.5t25.5 96q-124 -31 -220 -31q-181 0 -267 80t-86 248q0 253 106.5 401.5t287.5 148.5q141 0 245 -96t160.5 -271
t56.5 -413q0 -294 -140 -431t-442 -137h-321q-24 0 -35 40.5t-11 131.5q0 90 11 129.5t35 39.5zM570 778q-23 236 -143 236q-55 0 -88.5 -45.5t-33.5 -119.5q0 -86 119 -86q61 0 146 15z" />
    <glyph glyph-name="uniFB6D" unicode="&#x6a4;" horiz-adv-x="1050" arabic-form="medial" 
d="M333 1755l189 189l190 -189l-190 -189zM158 1419l189 190l175 -175l175 175l190 -190l-190 -189l-175 175l-175 -175zM83 630q0 132 59.5 233t159.5 158.5t222 57.5q121 0 221.5 -57.5t160.5 -157.5t60 -230q0 -85 -35.5 -156.5t-97.5 -122.5l5 -8l56 -4t59 -2h97v-341
h-116q-139 0 -237.5 35.5t-178.5 96.5q-78 -61 -174 -96.5t-230 -35.5h-114q-25 0 -36 41t-11 131q0 89 11 129t36 40h73q37 0 71.5 2t68.5 4l4 9q-63 50 -98.5 119.5t-35.5 154.5zM523 419q59 35 93 82t34 111q0 50 -35 87.5t-91 37.5q-57 0 -91.5 -36.5t-34.5 -88.5
q0 -58 35 -107.5t90 -85.5z" />
    <glyph glyph-name="uniFB6E" unicode="&#x6a6;" horiz-adv-x="1845" arabic-form="isolated" 
d="M944 1715l175 175l-175 175l189 189l175 -175l175 175l190 -189l-175 -175l175 -175l-190 -189l-175 175l-175 -175zM1148 1890l160 -160l161 160l-161 161zM1500 501q-115 -31 -220 -31q-181 0 -267 80t-86 248q0 169 48.5 292t137.5 190.5t209 67.5q141 0 244.5 -96
t160 -271t56.5 -413q0 -209 -84.5 -334t-278 -179.5t-520.5 -54.5q-304 0 -490.5 52.5t-271.5 168t-85 304.5q0 68 13 161t33 191l294 -64q-33 -178 -33 -252q0 -86 50.5 -134t174 -67t342.5 -19q184 0 297.5 5.5t173 22t81 48.5t21.5 84zM1451 778q-23 236 -142 236
q-57 0 -90 -46t-33 -119q0 -86 119 -86q33 0 70 4t76 11z" />
    <glyph glyph-name="uniFB6F" unicode="&#x6a6;" horiz-adv-x="1954" arabic-form="final" 
d="M1082 1419l175 175l-175 175l189 189l175 -175l175 175l190 -189l-175 -175l175 -175l-190 -189l-175 175l-175 -175zM1286 1594l160 -160l161 160l-161 161zM1443 132q-109 -62 -253 -97t-314 -35q-412 0 -617.5 113t-205.5 386q0 90 25 206t65 237l284 -92
q-23 -74 -43 -158.5t-20 -133.5q0 -121 118.5 -166t393.5 -51q66 -1 131 1t128 6l5 9q-64 50 -98.5 119t-34.5 154q0 132 59.5 233t159.5 158.5t222 57.5q121 0 221.5 -57.5t160.5 -157.5t60 -230q0 -85 -35.5 -156.5t-97.5 -122.5l5 -8q29 -2 57.5 -4t59.5 -2h75v-341h-94
q-139 0 -238 35.5t-179 96.5zM1447 420q59 34 93 81.5t34 110.5q0 50 -35 87.5t-91 37.5q-57 0 -91.5 -36.5t-34.5 -88.5q0 -58 35 -107t90 -85z" />
    <glyph glyph-name="uniFB70" unicode="&#x6a6;" horiz-adv-x="962" arabic-form="initial" 
d="M71 1686l175 175l-175 175l189 189l175 -175l175 175l190 -189l-175 -175l175 -175l-190 -189l-175 175l-175 -175zM275 1861l160 -160l161 160l-161 161zM0 341h323q117 0 181.5 14.5t90 49.5t25.5 96q-124 -31 -220 -31q-181 0 -267 80t-86 248q0 253 106.5 401.5
t287.5 148.5q141 0 245 -96t160.5 -271t56.5 -413q0 -294 -140 -431t-442 -137h-321q-24 0 -35 40.5t-11 131.5q0 90 11 129.5t35 39.5zM570 778q-23 236 -143 236q-55 0 -88.5 -45.5t-33.5 -119.5q0 -86 119 -86q61 0 146 15z" />
    <glyph glyph-name="uniFB71" unicode="&#x6a6;" horiz-adv-x="1050" arabic-form="medial" 
d="M158 1419l175 175l-175 175l189 189l175 -175l175 175l190 -189l-175 -175l175 -175l-190 -189l-175 175l-175 -175zM362 1594l160 -160l161 160l-161 161zM83 630q0 132 59.5 233t159.5 158.5t222 57.5q121 0 221.5 -57.5t160.5 -157.5t60 -230q0 -85 -35.5 -156.5
t-97.5 -122.5l5 -8l56 -4t59 -2h97v-341h-116q-139 0 -237.5 35.5t-178.5 96.5q-78 -61 -174 -96.5t-230 -35.5h-114q-25 0 -36 41t-11 131q0 89 11 129t36 40h73q37 0 71.5 2t68.5 4l4 9q-63 50 -98.5 119.5t-35.5 154.5zM523 419q59 35 93 82t34 111q0 50 -35 87.5
t-91 37.5q-57 0 -91.5 -36.5t-34.5 -88.5q0 -58 35 -107.5t90 -85.5z" />
    <glyph glyph-name="uniFB72" unicode="&#x684;" horiz-adv-x="1467" arabic-form="isolated" 
d="M868 -225l-121 121l121 121l-121 120l121 121l121 -121l-120 -120l120 -121zM496 1135q62 0 146 -25t221 -87q127 -57 216.5 -94t155.5 -58.5t122 -34.5l-41 -345q-125 -9 -258 -38.5t-256.5 -77t-221.5 -112t-155.5 -144t-57.5 -171.5q0 -127 125 -198t325 -71
q277 0 493 107l145 -293q-319 -161 -636 -161q-227 0 -400 71.5t-270 202t-97 307.5q0 189 111.5 343t306 260.5t442.5 149.5v10q-45 11 -96.5 28.5t-119.5 45.5q-82 30 -127.5 42.5t-74.5 12.5q-64 0 -102.5 -35.5t-69.5 -121.5l-8 -24l-234 71l7 25q65 219 161.5 317
t247.5 98z" />
    <glyph glyph-name="uniFB73" unicode="&#x684;" horiz-adv-x="1485" arabic-form="final" 
d="M841 -284l-121 121l121 121l-121 120l121 121l121 -121l-120 -120l120 -121zM496 1095q63 0 147 -25.5t220 -86.5q128 -57 217.5 -94t155 -59t121.5 -34l-41 -345q-66 -6 -112 -15v-11q68 -84 216 -84h65v-341h-17q-371 0 -449 379q-135 -17 -253 -62t-207.5 -109.5
t-140.5 -141.5t-51 -158q0 -123 122.5 -196t327.5 -73q135 0 262.5 28t230.5 79l145 -293q-319 -161 -636 -161q-231 0 -403.5 72.5t-268 203t-95.5 305.5q0 182 107 336t300.5 263t452.5 154v10q-83 20 -216 74q-82 30 -127.5 42.5t-74.5 12.5q-64 0 -102.5 -35.5
t-69.5 -121.5l-8 -24l-234 71l7 25q65 219 161.5 317t247.5 98z" />
    <glyph glyph-name="uniFB74" unicode="&#x684;" horiz-adv-x="1368" arabic-form="initial" 
d="M425 -686l174 175l-174 175l188 189l190 -189l-175 -175l175 -175l-190 -189zM481 1041q58 0 138.5 -25.5t235.5 -93.5q155 -64 259.5 -100t201.5 -57v-263l-513 -307q-172 -103 -322 -149t-317 -46h-164q-24 0 -35 39.5t-11 132.5q0 92 11 130.5t35 38.5h232
q74 0 137 11t134.5 37.5t168.5 72.5l223 111v10q-45 11 -95.5 29t-118.5 45q-80 29 -126.5 42t-75.5 13q-64 0 -102 -36t-70 -121l-8 -23l-235 71l7 24q62 220 161 317t249 97z" />
    <glyph glyph-name="uniFB75" unicode="&#x684;" horiz-adv-x="1419" arabic-form="medial" 
d="M425 -686l174 175l-174 175l188 189l190 -189l-175 -175l175 -175l-190 -189zM481 1041q58 0 139 -25.5t235 -93.5q155 -64 259.5 -100t201.5 -57v-263l-184 -100v-10q53 -29 127 -40t135 -11h25v-341h-26q-144 0 -264.5 63t-213.5 199l-112 -67q-172 -103 -322 -149
t-317 -46h-164q-24 0 -35 39.5t-11 132.5q0 92 11 130.5t35 38.5h232q74 0 137 11t134.5 37.5t168.5 72.5l223 111v10q-45 11 -95.5 29t-118.5 45q-80 29 -126.5 42t-75.5 13q-64 0 -102 -36t-70 -121l-8 -23l-235 71l7 24q62 220 161 317t249 97z" />
    <glyph glyph-name="uniFB76" unicode="&#x683;" horiz-adv-x="1467" arabic-form="isolated" 
d="M885 9l121 121l120 -121l-120 -121zM637 9l121 121l121 -121l-121 -121zM496 1135q62 0 146 -25t221 -87q127 -57 216.5 -94t155.5 -58.5t122 -34.5l-41 -345q-125 -9 -258 -38.5t-256.5 -77t-221.5 -112t-155.5 -144t-57.5 -171.5q0 -127 125 -198t325 -71
q277 0 493 107l145 -293q-319 -161 -636 -161q-227 0 -400 71.5t-270 202t-97 307.5q0 189 111.5 343t306 260.5t442.5 149.5v10q-45 11 -96.5 28.5t-119.5 45.5q-82 30 -127.5 42.5t-74.5 12.5q-64 0 -102.5 -35.5t-69.5 -121.5l-8 -24l-234 71l7 25q65 219 161.5 317
t247.5 98z" />
    <glyph glyph-name="uniFB77" unicode="&#x683;" horiz-adv-x="1485" arabic-form="final" 
d="M853 -67l121 121l120 -121l-120 -121zM605 -67l121 121l121 -121l-121 -121zM496 1095q63 0 147 -25.5t220 -86.5q128 -57 217.5 -94t155 -59t121.5 -34l-41 -345q-66 -6 -112 -15v-11q68 -84 216 -84h65v-341h-17q-371 0 -449 379q-135 -17 -253 -62t-207.5 -109.5
t-140.5 -141.5t-51 -158q0 -123 122.5 -196t327.5 -73q135 0 262.5 28t230.5 79l145 -293q-319 -161 -636 -161q-231 0 -403.5 72.5t-268 203t-95.5 305.5q0 182 107 336t300.5 263t452.5 154v10q-83 20 -216 74q-82 30 -127.5 42.5t-74.5 12.5q-64 0 -102.5 -35.5
t-69.5 -121.5l-8 -24l-234 71l7 25q65 219 161.5 317t247.5 98z" />
    <glyph glyph-name="uniFB78" unicode="&#x683;" horiz-adv-x="1368" arabic-form="initial" 
d="M260 -329l189 190l175 -175l175 175l190 -190l-190 -189l-175 175l-175 -175zM481 1041q58 0 138.5 -25.5t235.5 -93.5q155 -64 259.5 -100t201.5 -57v-263l-513 -307q-172 -103 -322 -149t-317 -46h-164q-24 0 -35 39.5t-11 132.5q0 92 11 130.5t35 38.5h232
q74 0 137 11t134.5 37.5t168.5 72.5l223 111v10q-45 11 -95.5 29t-118.5 45q-80 29 -126.5 42t-75.5 13q-64 0 -102 -36t-70 -121l-8 -23l-235 71l7 24q62 220 161 317t249 97z" />
    <glyph glyph-name="uniFB79" unicode="&#x683;" horiz-adv-x="1419" arabic-form="medial" 
d="M260 -329l189 190l175 -175l175 175l190 -190l-190 -189l-175 175l-175 -175zM481 1041q58 0 139 -25.5t235 -93.5q155 -64 259.5 -100t201.5 -57v-263l-184 -100v-10q53 -29 127 -40t135 -11h25v-341h-26q-144 0 -264.5 63t-213.5 199l-112 -67q-172 -103 -322 -149
t-317 -46h-164q-24 0 -35 39.5t-11 132.5q0 92 11 130.5t35 38.5h232q74 0 137 11t134.5 37.5t168.5 72.5l223 111v10q-45 11 -95.5 29t-118.5 45q-80 29 -126.5 42t-75.5 13q-64 0 -102 -36t-70 -121l-8 -23l-235 71l7 24q62 220 161 317t249 97z" />
    <glyph glyph-name="uniFB7A" unicode="&#x686;" horiz-adv-x="1484" arabic-form="isolated" 
d="M496 1135q62 0 146 -25t221 -87q127 -57 216.5 -94t155.5 -58.5t122 -34.5l-41 -345q-125 -9 -258 -38.5t-256.5 -77t-221.5 -112t-155.5 -144t-57.5 -171.5q0 -127 125 -198t325 -71q277 0 493 107l145 -293q-319 -161 -636 -161q-227 0 -400 71.5t-270 202t-97 307.5
q0 189 111.5 343t306 260.5t442.5 149.5v10q-45 11 -96.5 28.5t-119.5 45.5q-82 30 -127.5 42.5t-74.5 12.5q-64 0 -102.5 -35.5t-69.5 -121.5l-8 -24l-234 71l7 25q65 219 161.5 317t247.5 98zM583 86l140 140l139 -139l139 139l139 -141l-139 -141l-140 140l-138 -140z
M729 -142l133 132l131 -132l-131 -133z" />
    <glyph glyph-name="uniFB7B" unicode="&#x686;" horiz-adv-x="1485" arabic-form="final" 
d="M556 45l140 140l139 -139l139 139l139 -141l-139 -141l-140 140l-138 -140zM702 -183l133 132l131 -132l-131 -133zM496 1095q63 0 147 -25.5t220 -86.5q128 -57 217.5 -94t155 -59t121.5 -34l-41 -345q-66 -6 -112 -15v-11q68 -84 216 -84h65v-341h-17q-371 0 -449 379
q-135 -17 -253 -62t-207.5 -109.5t-140.5 -141.5t-51 -158q0 -123 122.5 -196t327.5 -73q135 0 262.5 28t230.5 79l145 -293q-319 -161 -636 -161q-231 0 -403.5 72.5t-268 203t-95.5 305.5q0 182 107 336t300.5 263t452.5 154v10q-83 20 -216 74q-82 30 -127.5 42.5
t-74.5 12.5q-64 0 -102.5 -35.5t-69.5 -121.5l-8 -24l-234 71l7 25q65 219 161.5 317t247.5 98z" />
    <glyph glyph-name="uniFB7C" unicode="&#x686;" horiz-adv-x="1368" arabic-form="initial" 
d="M260 -282l189 190l175 -175l175 175l190 -190l-190 -189l-175 175l-175 -175zM436 -617l189 189l190 -189l-190 -190zM481 1041q58 0 138.5 -25.5t235.5 -93.5q155 -64 259.5 -100t201.5 -57v-263l-513 -307q-172 -103 -322 -149t-317 -46h-164q-24 0 -35 39.5t-11 132.5
q0 92 11 130.5t35 38.5h232q74 0 137 11t134.5 37.5t168.5 72.5l223 111v10q-45 11 -95.5 29t-118.5 45q-80 29 -126.5 42t-75.5 13q-64 0 -102 -36t-70 -121l-8 -23l-235 71l7 24q62 220 161 317t249 97z" />
    <glyph glyph-name="uniFB7D" unicode="&#x686;" horiz-adv-x="1419" arabic-form="medial" 
d="M260 -282l189 190l175 -175l175 175l190 -190l-190 -189l-175 175l-175 -175zM436 -617l189 189l190 -189l-190 -190zM481 1041q58 0 139 -25.5t235 -93.5q155 -64 259.5 -100t201.5 -57v-263l-184 -100v-10q53 -29 127 -40t135 -11h25v-341h-26q-144 0 -264.5 63
t-213.5 199l-112 -67q-172 -103 -322 -149t-317 -46h-164q-24 0 -35 39.5t-11 132.5q0 92 11 130.5t35 38.5h232q74 0 137 11t134.5 37.5t168.5 72.5l223 111v10q-45 11 -95.5 29t-118.5 45q-80 29 -126.5 42t-75.5 13q-64 0 -102 -36t-70 -121l-8 -23l-235 71l7 24
q62 220 161 317t249 97z" />
    <glyph glyph-name="uniFB7E" unicode="&#x687;" horiz-adv-x="1467" arabic-form="isolated" 
d="M631 -110l119 119l-119 119l130 131l122 -122l121 122l130 -131l-119 -119l119 -119l-130 -131l-121 122l-122 -122zM773 9l110 -110l110 110l-110 110zM496 1135q62 0 146 -25t221 -87q127 -57 216.5 -94t155.5 -58.5t122 -34.5l-41 -345q-125 -9 -258 -38.5t-256.5 -77
t-221.5 -112t-155.5 -144t-57.5 -171.5q0 -127 125 -198t325 -71q277 0 493 107l145 -293q-319 -161 -636 -161q-227 0 -400 71.5t-270 202t-97 307.5q0 189 111.5 343t306 260.5t442.5 149.5v10q-45 11 -96.5 28.5t-119.5 45.5q-82 30 -127.5 42.5t-74.5 12.5
q-64 0 -102.5 -35.5t-69.5 -121.5l-8 -24l-234 71l7 25q65 219 161.5 317t247.5 98z" />
    <glyph glyph-name="uniFB7F" unicode="&#x687;" horiz-adv-x="1485" arabic-form="final" 
d="M581 -178l119 119l-119 119l130 131l122 -122l121 122l130 -131l-119 -119l119 -119l-130 -131l-121 122l-122 -122zM723 -59l110 -110l110 110l-110 110zM496 1095q63 0 147 -25.5t220 -86.5q128 -57 217.5 -94t155 -59t121.5 -34l-41 -345q-66 -6 -112 -15v-11
q68 -84 216 -84h65v-341h-17q-371 0 -449 379q-135 -17 -253 -62t-207.5 -109.5t-140.5 -141.5t-51 -158q0 -123 122.5 -196t327.5 -73q135 0 262.5 28t230.5 79l145 -293q-319 -161 -636 -161q-231 0 -403.5 72.5t-268 203t-95.5 305.5q0 182 107 336t300.5 263t452.5 154
v10q-83 20 -216 74q-82 30 -127.5 42.5t-74.5 12.5q-64 0 -102.5 -35.5t-69.5 -121.5l-8 -24l-234 71l7 25q65 219 161.5 317t247.5 98z" />
    <glyph glyph-name="uniFB80" unicode="&#x687;" horiz-adv-x="1368" arabic-form="initial" 
d="M260 -679l175 175l-175 175l189 189l175 -175l175 175l190 -189l-175 -175l175 -175l-190 -189l-175 175l-175 -175zM464 -504l160 -160l161 160l-161 161zM481 1041q58 0 138.5 -25.5t235.5 -93.5q155 -64 259.5 -100t201.5 -57v-263l-513 -307q-172 -103 -322 -149
t-317 -46h-164q-24 0 -35 39.5t-11 132.5q0 92 11 130.5t35 38.5h232q74 0 137 11t134.5 37.5t168.5 72.5l223 111v10q-45 11 -95.5 29t-118.5 45q-80 29 -126.5 42t-75.5 13q-64 0 -102 -36t-70 -121l-8 -23l-235 71l7 24q62 220 161 317t249 97z" />
    <glyph glyph-name="uniFB81" unicode="&#x687;" horiz-adv-x="1419" arabic-form="medial" 
d="M260 -679l175 175l-175 175l189 189l175 -175l175 175l190 -189l-175 -175l175 -175l-190 -189l-175 175l-175 -175zM464 -504l160 -160l161 160l-161 161zM481 1041q58 0 139 -25.5t235 -93.5q155 -64 259.5 -100t201.5 -57v-263l-184 -100v-10q53 -29 127 -40t135 -11
h25v-341h-26q-144 0 -264.5 63t-213.5 199l-112 -67q-172 -103 -322 -149t-317 -46h-164q-24 0 -35 39.5t-11 132.5q0 92 11 130.5t35 38.5h232q74 0 137 11t134.5 37.5t168.5 72.5l223 111v10q-45 11 -95.5 29t-118.5 45q-80 29 -126.5 42t-75.5 13q-64 0 -102 -36
t-70 -121l-8 -23l-235 71l7 24q62 220 161 317t249 97z" />
    <glyph glyph-name="uniFB82" unicode="&#x68d;" horiz-adv-x="1030" arabic-form="isolated" 
d="M62 -336l189 190l175 -175l175 175l190 -190l-190 -189l-175 175l-175 -175zM977 448q0 -145 -71.5 -246t-200 -154t-300.5 -53q-164 0 -360 49l75 320q154 -31 273 -31q125 0 195 32t70 93q0 46 -43.5 119.5t-119 160t-171.5 170.5l214 255q223 -196 331 -370.5
t108 -344.5z" />
    <glyph glyph-name="uniFB83" unicode="&#x68d;" horiz-adv-x="1312" arabic-form="final" 
d="M109 -336l189 190l175 -175l175 175l190 -190l-190 -189l-175 175l-175 -175zM806 1148l257 -605q37 -87 68 -130t71 -57.5t104 -14.5h6v-341h-6q-147 0 -238.5 54.5t-146.5 181.5h-10q-44 -115 -163.5 -180.5t-277.5 -65.5q-226 0 -425 147l143 270q71 -37 142.5 -56
t132.5 -19q87 0 163.5 26.5t128.5 76.5l-251 567z" />
    <glyph glyph-name="uniFB84" unicode="&#x68c;" horiz-adv-x="1030" arabic-form="isolated" 
d="M164 1519l189 190l175 -175l175 175l190 -190l-190 -189l-175 175l-175 -175zM977 448q0 -145 -71.5 -246t-200 -154t-300.5 -53q-164 0 -360 49l75 320q154 -31 273 -31q125 0 195 32t70 93q0 46 -43.5 119.5t-119 160t-171.5 170.5l214 255q223 -196 331 -370.5
t108 -344.5z" />
    <glyph glyph-name="uniFB85" unicode="&#x68c;" horiz-adv-x="1312" arabic-form="final" 
d="M232 1519l189 190l175 -175l175 175l190 -190l-190 -189l-175 175l-175 -175zM806 1148l257 -605q37 -87 68 -130t71 -57.5t104 -14.5h6v-341h-6q-147 0 -238.5 54.5t-146.5 181.5h-10q-44 -115 -163.5 -180.5t-277.5 -65.5q-226 0 -425 147l143 270q71 -37 142.5 -56
t132.5 -19q87 0 163.5 26.5t128.5 76.5l-251 567z" />
    <glyph glyph-name="uniFB86" unicode="&#x68e;" horiz-adv-x="1030" arabic-form="isolated" 
d="M339 1855l189 189l190 -189l-190 -189zM164 1519l189 190l175 -175l175 175l190 -190l-190 -189l-175 175l-175 -175zM977 448q0 -145 -71.5 -246t-200 -154t-300.5 -53q-164 0 -360 49l75 320q154 -31 273 -31q125 0 195 32t70 93q0 46 -43.5 119.5t-119 160
t-171.5 170.5l214 255q223 -196 331 -370.5t108 -344.5z" />
    <glyph glyph-name="uniFB87" unicode="&#x68e;" horiz-adv-x="1312" arabic-form="final" 
d="M407 1855l189 189l190 -189l-190 -189zM232 1519l189 190l175 -175l175 175l190 -190l-190 -189l-175 175l-175 -175zM806 1148l257 -605q37 -87 68 -130t71 -57.5t104 -14.5h6v-341h-6q-147 0 -238.5 54.5t-146.5 181.5h-10q-44 -115 -163.5 -180.5t-277.5 -65.5
q-226 0 -425 147l143 270q71 -37 142.5 -56t132.5 -19q87 0 163.5 26.5t128.5 76.5l-251 567z" />
    <glyph glyph-name="uniFB88" unicode="&#x688;" horiz-adv-x="1030" arabic-form="isolated" 
d="M324 1501v390h136v-248h10q62 56 106.5 79t90.5 23q62 0 101.5 -49t39.5 -108q0 -116 -74 -174t-205 -58h-310v145h105zM446 1501h83q159 0 159 57q0 20 -16 34t-42 14q-37 0 -80.5 -24.5t-103.5 -80.5zM977 448q0 -145 -71.5 -246t-200 -154t-300.5 -53q-164 0 -360 49
l75 320q154 -31 273 -31q125 0 195 32t70 93q0 46 -43.5 119.5t-119 160t-171.5 170.5l214 255q223 -196 331 -370.5t108 -344.5z" />
    <glyph glyph-name="uniFB89" unicode="&#x688;" horiz-adv-x="1312" arabic-form="final" 
d="M392 1476v390h136v-248h10q62 56 106.5 79t90.5 23q62 0 101.5 -49t39.5 -108q0 -116 -74 -174t-205 -58h-310v145h105zM514 1476h83q159 0 159 57q0 20 -16 34t-42 14q-37 0 -80.5 -24.5t-103.5 -80.5zM806 1148l257 -605q37 -87 68 -130t71 -57.5t104 -14.5h6v-341h-6
q-147 0 -238.5 54.5t-146.5 181.5h-10q-44 -115 -163.5 -180.5t-277.5 -65.5q-226 0 -425 147l143 270q71 -37 142.5 -56t132.5 -19q87 0 163.5 26.5t128.5 76.5l-251 567z" />
    <glyph glyph-name="uniFB8A" unicode="&#x698;" horiz-adv-x="650" arabic-form="isolated" 
d="M147 692l305 105q55 -170 90.5 -328t35.5 -289q0 -258 -161 -434t-507 -300l-147 306q253 83 375 178.5t122 248.5q0 61 -15 146t-40.5 180.5t-57.5 186.5zM118 1443l189 189l190 -189l-190 -189zM-57 1107l189 190l175 -175l175 175l190 -190l-190 -189l-175 175
l-175 -175z" />
    <glyph glyph-name="uniFB8B" unicode="&#x698;" horiz-adv-x="802" arabic-form="final" 
d="M118 1443l189 189l190 -189l-190 -189zM-57 1107l189 190l175 -175l175 175l190 -190l-190 -189l-175 175l-175 -175zM147 692l305 105l72 -224q30 -93 61.5 -143.5t81.5 -69.5t134 -19h1v-341h-1q-147 0 -231 108l-10 -3q-6 -232 -176.5 -392t-473.5 -267l-147 306
q180 60 289 122t158.5 135.5t49.5 169.5q0 83 -30.5 219.5t-82.5 293.5z" />
    <glyph glyph-name="uniFB8C" unicode="&#x691;" horiz-adv-x="650" arabic-form="isolated" 
d="M128 1160v390h136v-248h10q62 56 106.5 79t90.5 23q62 0 101.5 -49t39.5 -108q0 -116 -74 -174t-205 -58h-310v145h105zM250 1160h83q159 0 159 57q0 20 -16 34t-42 14q-37 0 -80.5 -24.5t-103.5 -80.5zM147 692l305 105q55 -170 90.5 -328t35.5 -289q0 -258 -161 -434
t-507 -300l-147 306q253 83 375 178.5t122 248.5q0 61 -15 146t-40.5 180.5t-57.5 186.5z" />
    <glyph glyph-name="uniFB8D" unicode="&#x691;" horiz-adv-x="802" arabic-form="final" 
d="M128 1160v390h136v-248h10q62 56 106.5 79t90.5 23q62 0 101.5 -49t39.5 -108q0 -116 -74 -174t-205 -58h-310v145h105zM250 1160h83q159 0 159 57q0 20 -16 34t-42 14q-37 0 -80.5 -24.5t-103.5 -80.5zM147 692l305 105l72 -224q30 -93 61.5 -143.5t81.5 -69.5t134 -19
h1v-341h-1q-147 0 -231 108l-10 -3q-6 -232 -176.5 -392t-473.5 -267l-147 306q180 60 289 122t158.5 135.5t49.5 169.5q0 83 -30.5 219.5t-82.5 293.5z" />
    <glyph glyph-name="uniFB8E" unicode="&#x6a9;" horiz-adv-x="1729" arabic-form="isolated" 
d="M98 894l294 -64q-13 -73 -22.5 -152t-9.5 -120q0 -119 100 -168t345 -49q230 0 363.5 38.5t133.5 105.5q0 37 -46 91.5t-150.5 139t-282.5 212.5l23 277q215 105 436 178.5t468 122.5l45 -339q-199 -44 -332 -80t-244 -75l1 -5q149 -121 238 -213.5t128 -172t39 -162.5
q0 -220 -214.5 -339.5t-608.5 -119.5q-391 0 -570 124.5t-179 396.5q0 136 45 373z" />
    <glyph glyph-name="uniFB8F" unicode="&#x6a9;" horiz-adv-x="1960" arabic-form="final" 
d="M1507 294q-64 -151 -232 -222.5t-464 -71.5q-398 0 -577 123.5t-179 397.5q0 72 11.5 169t32.5 204l294 -64q-15 -86 -24 -162t-9 -111q0 -119 99 -167.5t345 -48.5q237 0 363 36.5t126 104.5q0 57 -112 163t-358 283l23 277q215 105 436.5 179t467.5 122l45 -339
q-197 -43 -330.5 -79t-245.5 -76l1 -5q95 -76 157 -134t110 -117.5t100 -140.5q63 -106 117 -165.5t114 -84t141 -24.5h1v-341h-1q-157 1 -261 70t-181 224h-10z" />
    <glyph glyph-name="uniFB90" unicode="&#x6a9;" horiz-adv-x="908" arabic-form="initial" 
d="M929 1506l45 -339q-199 -44 -332 -80t-244 -75v-5q149 -120 238 -212.5t128.5 -172.5t39.5 -164q0 -218 -170.5 -338t-482.5 -120h-151q-24 0 -35 39.5t-11 132.5q0 92 11 130.5t35 38.5h143q174 0 255 33t81 103q0 41 -44.5 96t-149 140t-284.5 215l24 277
q215 105 436 178.5t468 122.5z" />
    <glyph glyph-name="uniFB91" unicode="&#x6a9;" horiz-adv-x="1139" arabic-form="medial" 
d="M686 296q-47 -108 -115.5 -173t-170 -94t-249.5 -29h-151q-24 0 -35 39.5t-11 130.5q0 92 11 131.5t35 39.5h143q328 0 328 133q0 42 -46.5 100.5t-150 144.5t-273.5 209l24 277q216 105 437.5 179t466.5 122l45 -339q-197 -43 -330 -79t-246 -76v-5q93 -74 154.5 -130.5
t110.5 -115.5t103 -143q63 -105 116.5 -165.5t114 -86t141.5 -25.5h1v-341h-1q-156 0 -260.5 70t-181.5 226h-10z" />
    <glyph glyph-name="uniFB92" unicode="&#x6af;" horiz-adv-x="1729" arabic-form="isolated" 
d="M1544 1807l30 -163q-168 -31 -348 -93.5t-357 -148.5l-77 148q190 93 383 159t369 98zM98 894l294 -64q-13 -73 -22.5 -152t-9.5 -120q0 -119 100 -168t345 -49q230 0 363.5 38.5t133.5 105.5q0 37 -46 91.5t-150.5 139t-282.5 212.5l23 277q215 105 436 178.5t468 122.5
l45 -339q-199 -44 -332 -80t-244 -75l1 -5q149 -121 238 -213.5t128 -172t39 -162.5q0 -220 -214.5 -339.5t-608.5 -119.5q-391 0 -570 124.5t-179 396.5q0 136 45 373z" />
    <glyph glyph-name="uniFB93" unicode="&#x6af;" horiz-adv-x="1960" arabic-form="final" 
d="M1507 294q-64 -151 -232 -222.5t-464 -71.5q-398 0 -577 123.5t-179 397.5q0 72 11.5 169t32.5 204l294 -64q-15 -86 -24 -162t-9 -111q0 -119 99 -167.5t345 -48.5q237 0 363 36.5t126 104.5q0 57 -112 163t-358 283l23 277q215 105 436.5 179t467.5 122l45 -339
q-197 -43 -330.5 -79t-245.5 -76l1 -5q95 -76 157 -134t110 -117.5t100 -140.5q63 -106 117 -165.5t114 -84t141 -24.5h1v-341h-1q-157 1 -261 70t-181 224h-10zM1544 1807l30 -163q-168 -31 -348 -93.5t-357 -148.5l-77 148q190 93 383 159t369 98z" />
    <glyph glyph-name="uniFB94" unicode="&#x6af;" horiz-adv-x="908" arabic-form="initial" 
d="M929 1506l45 -339q-199 -44 -332 -80t-244 -75v-5q149 -120 238 -212.5t128.5 -172.5t39.5 -164q0 -218 -170.5 -338t-482.5 -120h-151q-24 0 -35 39.5t-11 132.5q0 92 11 130.5t35 38.5h143q174 0 255 33t81 103q0 41 -44.5 96t-149 140t-284.5 215l24 277
q215 105 436 178.5t468 122.5zM740 1807l30 -163q-168 -31 -348 -93.5t-357 -148.5l-77 148q190 93 383 159t369 98z" />
    <glyph glyph-name="uniFB95" unicode="&#x6af;" horiz-adv-x="1139" arabic-form="medial" 
d="M686 296q-47 -108 -115.5 -173t-170 -94t-249.5 -29h-151q-24 0 -35 39.5t-11 130.5q0 92 11 131.5t35 39.5h143q328 0 328 133q0 42 -46.5 100.5t-150 144.5t-273.5 209l24 277q216 105 437.5 179t466.5 122l45 -339q-197 -43 -330 -79t-246 -76v-5q93 -74 154.5 -130.5
t110.5 -115.5t103 -143q63 -105 116.5 -165.5t114 -86t141.5 -25.5h1v-341h-1q-156 0 -260.5 70t-181.5 226h-10zM740 1807l30 -163q-168 -31 -348 -93.5t-357 -148.5l-77 148q190 93 383 159t369 98z" />
    <glyph glyph-name="uniFB96" unicode="&#x6b3;" horiz-adv-x="1729" arabic-form="isolated" 
d="M633 -685l174 175l-174 175l188 189l190 -189l-175 -175l175 -175l-190 -189zM1544 1807l30 -163q-168 -31 -348 -93.5t-357 -148.5l-77 148q190 93 383 159t369 98zM98 894l294 -64q-13 -73 -22.5 -152t-9.5 -120q0 -119 100 -168t345 -49q230 0 363.5 38.5t133.5 105.5
q0 37 -46 91.5t-150.5 139t-282.5 212.5l23 277q215 105 436 178.5t468 122.5l45 -339q-199 -44 -332 -80t-244 -75l1 -5q149 -121 238 -213.5t128 -172t39 -162.5q0 -220 -214.5 -339.5t-608.5 -119.5q-391 0 -570 124.5t-179 396.5q0 136 45 373z" />
    <glyph glyph-name="uniFB97" unicode="&#x6b3;" horiz-adv-x="1960" arabic-form="final" 
d="M628 -686l174 175l-174 175l188 189l190 -189l-175 -175l175 -175l-190 -189zM1507 294q-64 -151 -232 -222.5t-464 -71.5q-398 0 -577 123.5t-179 397.5q0 72 11.5 169t32.5 204l294 -64q-15 -86 -24 -162t-9 -111q0 -119 99 -167.5t345 -48.5q237 0 363 36.5t126 104.5
q0 57 -112 163t-358 283l23 277q215 105 436.5 179t467.5 122l45 -339q-197 -43 -330.5 -79t-245.5 -76l1 -5q95 -76 157 -134t110 -117.5t100 -140.5q63 -106 117 -165.5t114 -84t141 -24.5h1v-341h-1q-157 1 -261 70t-181 224h-10zM1544 1807l30 -163q-168 -31 -348 -93.5
t-357 -148.5l-77 148q190 93 383 159t369 98z" />
    <glyph glyph-name="uniFB98" unicode="&#x6b3;" horiz-adv-x="908" arabic-form="initial" 
d="M336 -686l174 175l-174 175l188 189l190 -189l-175 -175l175 -175l-190 -189zM929 1506l45 -339q-199 -44 -332 -80t-244 -75v-5q149 -120 238 -212.5t128.5 -172.5t39.5 -164q0 -218 -170.5 -338t-482.5 -120h-151q-24 0 -35 39.5t-11 132.5q0 92 11 130.5t35 38.5h143
q174 0 255 33t81 103q0 41 -44.5 96t-149 140t-284.5 215l24 277q215 105 436 178.5t468 122.5zM740 1807l30 -163q-168 -31 -348 -93.5t-357 -148.5l-77 148q190 93 383 159t369 98z" />
    <glyph glyph-name="uniFB99" unicode="&#x6b3;" horiz-adv-x="1139" arabic-form="medial" 
d="M359 -686l174 175l-174 175l188 189l190 -189l-175 -175l175 -175l-190 -189zM686 296q-47 -108 -115.5 -173t-170 -94t-249.5 -29h-151q-24 0 -35 39.5t-11 130.5q0 92 11 131.5t35 39.5h143q328 0 328 133q0 42 -46.5 100.5t-150 144.5t-273.5 209l24 277
q216 105 437.5 179t466.5 122l45 -339q-197 -43 -330 -79t-246 -76v-5q93 -74 154.5 -130.5t110.5 -115.5t103 -143q63 -105 116.5 -165.5t114 -86t141.5 -25.5h1v-341h-1q-156 0 -260.5 70t-181.5 226h-10zM740 1807l30 -163q-168 -31 -348 -93.5t-357 -148.5l-77 148
q190 93 383 159t369 98z" />
    <glyph glyph-name="uniFB9A" unicode="&#x6b1;" horiz-adv-x="1729" arabic-form="isolated" 
d="M98 894l294 -64q-13 -73 -22.5 -152t-9.5 -120q0 -119 100 -168t345 -49q230 0 363.5 38.5t133.5 105.5q0 37 -46 91.5t-150.5 139t-282.5 212.5l23 277q215 105 436 178.5t468 122.5l45 -339q-199 -44 -332 -80t-244 -75l1 -5q149 -121 238 -213.5t128 -172t39 -162.5
q0 -220 -214.5 -339.5t-608.5 -119.5q-391 0 -570 124.5t-179 396.5q0 136 45 373zM1544 1807l30 -163q-168 -31 -348 -93.5t-357 -148.5l-77 148q190 93 383 159t369 98zM1111 2006l149 149l148 -149l-148 -148zM793 1897l149 149l148 -149l-148 -148z" />
    <glyph glyph-name="uniFB9B" unicode="&#x6b1;" horiz-adv-x="1960" arabic-form="final" 
d="M1507 294q-64 -151 -232 -222.5t-464 -71.5q-398 0 -577 123.5t-179 397.5q0 72 11.5 169t32.5 204l294 -64q-15 -86 -24 -162t-9 -111q0 -119 99 -167.5t345 -48.5q237 0 363 36.5t126 104.5q0 57 -112 163t-358 283l23 277q215 105 436.5 179t467.5 122l45 -339
q-197 -43 -330.5 -79t-245.5 -76l1 -5q95 -76 157 -134t110 -117.5t100 -140.5q63 -106 117 -165.5t114 -84t141 -24.5h1v-341h-1q-157 1 -261 70t-181 224h-10zM1544 1807l30 -163q-168 -31 -348 -93.5t-357 -148.5l-77 148q190 93 383 159t369 98zM1111 2006l149 149
l148 -149l-148 -148zM793 1897l149 149l148 -149l-148 -148z" />
    <glyph glyph-name="uniFB9C" unicode="&#x6b1;" horiz-adv-x="908" arabic-form="initial" 
d="M929 1506l45 -339q-199 -44 -332 -80t-244 -75v-5q149 -120 238 -212.5t128.5 -172.5t39.5 -164q0 -218 -170.5 -338t-482.5 -120h-151q-24 0 -35 39.5t-11 132.5q0 92 11 130.5t35 38.5h143q174 0 255 33t81 103q0 41 -44.5 96t-149 140t-284.5 215l24 277
q215 105 436 178.5t468 122.5zM740 1807l30 -163q-168 -31 -348 -93.5t-357 -148.5l-77 148q190 93 383 159t369 98zM358 2006l149 149l148 -149l-148 -148zM40 1897l149 149l148 -149l-148 -148z" />
    <glyph glyph-name="uniFB9D" unicode="&#x6b1;" horiz-adv-x="1139" arabic-form="medial" 
d="M686 296q-47 -108 -115.5 -173t-170 -94t-249.5 -29h-151q-24 0 -35 39.5t-11 130.5q0 92 11 131.5t35 39.5h143q328 0 328 133q0 42 -46.5 100.5t-150 144.5t-273.5 209l24 277q216 105 437.5 179t466.5 122l45 -339q-197 -43 -330 -79t-246 -76v-5q93 -74 154.5 -130.5
t110.5 -115.5t103 -143q63 -105 116.5 -165.5t114 -86t141.5 -25.5h1v-341h-1q-156 0 -260.5 70t-181.5 226h-10zM740 1807l30 -163q-168 -31 -348 -93.5t-357 -148.5l-77 148q190 93 383 159t369 98zM358 2006l149 149l148 -149l-148 -148zM40 1897l149 149l148 -149
l-148 -148z" />
    <glyph glyph-name="uniFB9E" unicode="&#x6ba;" horiz-adv-x="1636" arabic-form="isolated" 
d="M1114 684l302 145q80 -178 121.5 -332.5t41.5 -267.5q0 -215 -93.5 -368t-264.5 -234.5t-405 -81.5q-376 0 -564.5 167t-188.5 512q0 101 15.5 220.5t48.5 259.5l306 -70q-33 -156 -45 -241t-12 -148q0 -189 105.5 -273t326.5 -84q226 0 340.5 74.5t114.5 235.5
q0 54 -14 118.5t-46.5 153.5t-88.5 214z" />
    <glyph glyph-name="uniFB9F" unicode="&#x6ba;" horiz-adv-x="1789" arabic-form="final" 
d="M127 664l306 -70q-34 -155 -45.5 -240t-11.5 -148q0 -190 106.5 -274t326.5 -84q456 0 456 301q0 80 -35 191.5t-118 303.5l300 145l104 -267q29 -72 59 -111t76 -54.5t121 -15.5h17v-341h-5q-117 0 -214 104l-8 -3q-6 -177 -98 -310.5t-257 -208t-391 -74.5
q-375 0 -564 164.5t-189 511.5q0 101 15 219.5t49 260.5z" />
    <glyph glyph-name="uniFBA0" unicode="&#x6bb;" horiz-adv-x="1636" arabic-form="isolated" 
d="M652 480v300h94v-205h8q55 53 91 73.5t73 20.5q47 0 78 -37t31 -92q0 -76 -55 -117.5t-155 -41.5h-247v99h82zM746 480h71q118 0 118 50q0 41 -47 41q-29 0 -61 -20.5t-81 -70.5zM1114 684l302 145q80 -178 121.5 -332.5t41.5 -267.5q0 -215 -93.5 -368t-264.5 -234.5
t-405 -81.5q-376 0 -564.5 167t-188.5 512q0 101 15.5 220.5t48.5 259.5l306 -70q-33 -156 -45 -241t-12 -148q0 -189 105.5 -273t326.5 -84q226 0 340.5 74.5t114.5 235.5q0 54 -14 118.5t-46.5 153.5t-88.5 214z" />
    <glyph glyph-name="uniFBA1" unicode="&#x6bb;" horiz-adv-x="1789" arabic-form="final" 
d="M652 440v300h94v-205h8q55 53 91 73.5t73 20.5q47 0 78 -37t31 -92q0 -76 -55 -117.5t-155 -41.5h-247v99h82zM746 440h71q118 0 118 50q0 41 -47 41q-29 0 -61 -20.5t-81 -70.5zM127 664l306 -70q-34 -155 -45.5 -240t-11.5 -148q0 -190 106.5 -274t326.5 -84
q456 0 456 301q0 80 -35 191.5t-118 303.5l300 145l104 -267q29 -72 59 -111t76 -54.5t121 -15.5h17v-341h-5q-117 0 -214 104l-8 -3q-6 -177 -98 -310.5t-257 -208t-391 -74.5q-375 0 -564 164.5t-189 511.5q0 101 15 219.5t49 260.5z" />
    <glyph glyph-name="uniFBA2" unicode="&#x6bb;" horiz-adv-x="610" arabic-form="initial" 
d="M58 1193v390h136v-248h10q62 56 106.5 79t90.5 23q62 0 101.5 -49t39.5 -108q0 -116 -74 -174t-205 -58h-310v145h105zM180 1193h83q159 0 159 57q0 20 -16 34t-42 14q-37 0 -80.5 -24.5t-103.5 -80.5zM493 882q31 -124 48 -230.5t17 -185.5q0 -466 -524 -466h-34
q-46 0 -46 172q0 169 46 169h34q106 0 156 40t50 128q0 41 -13.5 116.5t-37.5 173.5z" />
    <glyph glyph-name="uniFBA3" unicode="&#x6bb;" horiz-adv-x="821" arabic-form="medial" 
d="M125 1071v390h136v-248h10q62 56 106.5 79t90.5 23q62 0 101.5 -49t39.5 -108q0 -116 -74 -174t-205 -58h-310v145h105zM247 1071h83q159 0 159 57q0 20 -16 34t-42 14q-37 0 -80.5 -24.5t-103.5 -80.5zM575 558q0 -88 14.5 -135t59.5 -64.5t138 -17.5h34v-341h-36
q-127 0 -226 60t-142 163h-10q-42 -103 -145.5 -163t-227.5 -60h-34q-25 0 -35.5 40.5t-10.5 131.5q0 90 10.5 129.5t35.5 39.5h34q93 0 139.5 18t62 65t15.5 134v180h324v-180z" />
    <glyph glyph-name="uniFBA4" unicode="&#x6c0;" horiz-adv-x="952" arabic-form="isolated" 
d="M471 -11q-133 0 -226.5 49t-142.5 131.5t-49 182.5q0 140 67.5 258.5t170.5 225.5q-22 23 -49 47t-53 46l199 238q86 -70 176 -156.5t166 -186.5t123 -211t47 -231q0 -112 -54.5 -201t-151 -140.5t-223.5 -51.5zM471 331q68 0 93.5 29.5t25.5 63.5q0 44 -28.5 102.5
t-90.5 116.5q-62 -58 -92 -117.5t-30 -101.5q0 -34 26 -63.5t96 -29.5zM352 1328q-27 0 -59.5 3.5t-70.5 9.5l35 153q63 -13 119 -13q63 0 106.5 13.5t43.5 38.5q0 17 -21 24.5t-74 17.5q-79 15 -119 48t-40 94q0 117 74 190.5t189 73.5q54 0 118 -16l-48 -145q-19 5 -40 8
t-42 3q-48 0 -81.5 -21t-33.5 -55q0 -22 25.5 -33t95.5 -25q66 -12 100 -43.5t34 -94.5q0 -108 -85.5 -169.5t-225.5 -61.5z" />
    <glyph glyph-name="uniFBA6" unicode="&#x6c1;" horiz-adv-x="952" arabic-form="isolated" 
d="M471 -11q-133 0 -226.5 49t-142.5 131.5t-49 182.5q0 140 67.5 258.5t170.5 225.5q-22 23 -49 47t-53 46l199 238q86 -70 176 -156.5t166 -186.5t123 -211t47 -231q0 -112 -54.5 -201t-151 -140.5t-223.5 -51.5zM471 331q68 0 93.5 29.5t25.5 63.5q0 44 -28.5 102.5
t-90.5 116.5q-62 -58 -92 -117.5t-30 -101.5q0 -34 26 -63.5t96 -29.5z" />
    <glyph glyph-name="uniFBA7" unicode="&#x6c1;" horiz-adv-x="1285" arabic-form="final" 
d="M1285 341v-341h-1q-155 0 -298 63t-272 173q-29 24 -57 49.5t-55 50.5q-38 38 -67 38q-22 0 -37.5 -18.5t-31.5 -67.5q-11 -34 -23.5 -79.5t-23.5 -98.5q-26 -124 -46 -260l-320 52q11 68 22.5 134.5t24.5 127.5q17 77 37 144t45 122q119 304 332 304q98 0 204 -69
q74 -47 152 -121q115 -106 211.5 -154.5t202.5 -48.5h1z" />
    <glyph glyph-name="uniFBA8" unicode="&#x6c1;" horiz-adv-x="610" arabic-form="initial" 
d="M118 -473l17 -4q39 22 75 22q48 0 85.5 -42t37.5 -107q0 -78 -46 -125.5t-122 -47.5q-92 0 -145.5 63t-53.5 171q0 111 54.5 217.5t151.5 185.5l100 -102q-129 -105 -154 -231zM493 882q31 -124 48 -230.5t17 -185.5q0 -466 -524 -466h-34q-46 0 -46 172q0 169 46 169h34
q106 0 156 40t50 128q0 41 -13.5 116.5t-37.5 173.5z" />
    <glyph glyph-name="uniFBA9" unicode="&#x6c1;" horiz-adv-x="1090" arabic-form="medial" 
d="M0 341q138 0 218.5 93.5t149.5 307.5l283 -86q-93 -264 -93 -455q0 -176 91 -368q59 264 179 391q105 117 248 117h14v-341h-14q-79 0 -128 -51q-49 -46 -83.5 -145t-58.5 -271l-191 -96q-139 110 -211.5 283t-91.5 430l-9 5q-122 -155 -303 -155q-24 0 -35 39.5
t-11 130.5t11 131t35 40z" />
    <glyph glyph-name="uniFBAA" unicode="&#x6be;" horiz-adv-x="1529" arabic-form="isolated" 
d="M148 -122l-88 331q173 30 304 75q-68 68 -108 145t-40 154q0 82 39 155t119 107l3 10l-154 69l134 294l602 -258q185 -78 296.5 -158.5t162 -177t50.5 -222.5q0 -187 -117 -300t-311 -113q-102 0 -204 25t-195 69q-106 -74 -232.5 -128t-260.5 -77zM649 419
q110 81 110 173q0 62 -36.5 101.5t-95.5 39.5t-99 -40t-40 -101q0 -48 44 -93t117 -80zM897 349q40 -8 82.5 -13t85.5 -5q140 0 140 89q0 56 -52.5 102t-172.5 92q21 -139 -83 -265z" />
    <glyph glyph-name="uniFBAB" unicode="&#x6be;" horiz-adv-x="1195" arabic-form="final" 
d="M648 996l-10 172l324 19l37 -626q8 -121 51.5 -170.5t143.5 -49.5h1v-341h-1q-282 0 -410 197q-50 -23 -111.5 -36.5t-115.5 -13.5q-195 0 -314.5 89t-119.5 243q0 198 135.5 331t389.5 186zM671 686q-121 -7 -194.5 -46t-73.5 -98q0 -43 47 -65.5t126 -22.5q35 0 62.5 3
t51.5 8q-8 45 -9 74z" />
    <glyph glyph-name="uniFBAC" unicode="&#x6be;" horiz-adv-x="1434" arabic-form="initial" 
d="M0 341h88q69 0 122 10q-89 124 -89 232q0 82 39 155t119 107l4 10l-154 69l133 294l602 -258q185 -78 296.5 -158.5t162 -177t50.5 -222.5q0 -187 -117 -300t-311 -113q-115 0 -221.5 34.5t-213.5 107.5q-85 -63 -189 -97t-217 -34h-104q-24 0 -35 40t-11 132
q0 90 11 129.5t35 39.5zM524 404q141 73 141 188q0 63 -37.5 102t-94.5 39q-58 0 -98.5 -45.5t-40.5 -111.5q0 -87 130 -172zM809 363q43 -15 83 -23.5t78 -8.5q141 0 141 89q0 57 -53 102.5t-172 91.5q22 -151 -77 -251z" />
    <glyph glyph-name="uniFBAD" unicode="&#x6be;" horiz-adv-x="1090" arabic-form="medial" 
d="M578 1001q112 0 185 -45t108.5 -119t35.5 -163q0 -85 -38.5 -171t-131.5 -152v-10h353v-341h-312v-10q90 -63 124.5 -127t34.5 -125q0 -148 -89 -231.5t-246 -83.5q-399 0 -461 577h-141q-25 0 -35.5 39t-10.5 130q0 92 10.5 132t35.5 40h134q17 326 129.5 493t314.5 167
zM371 341h63q78 0 129 33t76.5 84.5t25.5 104.5t-29 79.5t-67 26.5q-84 0 -140.5 -85t-57.5 -243zM584 -247q93 0 93 78q0 62 -60 115.5t-184 53.5h-61q5 -121 62.5 -184t149.5 -63z" />
    <glyph glyph-name="uniFBAE" unicode="&#x6d2;" horiz-adv-x="1501" arabic-form="isolated" 
d="M496 0q-121 0 -222 36t-161 115.5t-60 210.5q0 178 104 309t287.5 203t419.5 72h278v-341h-279q-238 0 -360 -56t-122 -140q0 -31 29 -49.5t82 -18.5h957v-341h-953z" />
    <glyph glyph-name="uniFBAF" unicode="&#x6d2;" horiz-adv-x="1323" arabic-form="final" 
d="M496 -605q-121 0 -222 36t-161 115.5t-60 210.5q0 178 104 309t287.5 203t419.5 72h459v-341h-460q-238 0 -360 -56t-122 -140q0 -31 29 -49.5t82 -18.5h673v-341h-669z" />
    <glyph glyph-name="uniFBB0" unicode="&#x6d3;" horiz-adv-x="1501" arabic-form="isolated" 
d="M983 1614l-37 -133q-33 10 -60 10q-46 0 -76.5 -23.5t-30.5 -61.5q0 -32 25.5 -53t63.5 -21q14 0 28.5 2t30.5 7l109 36l43 -144l-465 -150l-43 146l146 42v10q-70 38 -70 138q0 92 64 152t164 60q24 0 50.5 -4.5t57.5 -12.5zM496 0q-121 0 -222 36t-161 115.5t-60 210.5
q0 178 104 309t287.5 203t419.5 72h278v-341h-279q-238 0 -360 -56t-122 -140q0 -31 29 -49.5t82 -18.5h957v-341h-953z" />
    <glyph glyph-name="uniFBB1" unicode="&#x6d3;" horiz-adv-x="1323" arabic-form="final" 
d="M999 1002l-37 -133q-33 10 -60 10q-46 0 -76.5 -23.5t-30.5 -61.5q0 -32 25.5 -53t63.5 -21q14 0 28.5 2t30.5 7l109 36l43 -144l-465 -150l-43 146l146 42v10q-70 38 -70 138q0 92 64 152t164 60q24 0 50.5 -4.5t57.5 -12.5zM496 -605q-121 0 -222 36t-161 115.5
t-60 210.5q0 178 104 309t287.5 203t419.5 72h459v-341h-460q-238 0 -360 -56t-122 -140q0 -31 29 -49.5t82 -18.5h673v-341h-669z" />
    <glyph glyph-name="uniFBD3" unicode="&#x6ad;" horiz-adv-x="1721" arabic-form="isolated" 
d="M589 1784l189 189l190 -189l-190 -189zM414 1448l189 190l175 -175l175 175l190 -190l-190 -189l-175 175l-175 -175zM689 540q-27 0 -59.5 3.5t-70.5 9.5l35 153q63 -13 119 -13q63 0 106.5 13.5t43.5 38.5q0 17 -21 24.5t-74 17.5q-79 15 -119 48t-40 94
q0 117 74 190.5t189 73.5q54 0 118 -16l-48 -145q-19 5 -40 8t-42 3q-48 0 -81.5 -21t-33.5 -55q0 -22 25.5 -33t95.5 -25q66 -12 100 -43.5t34 -94.5q0 -108 -85.5 -169.5t-225.5 -61.5zM805 341q180 0 284.5 21.5t149.5 83t45 181.5v800h324v-800q0 -337 -210 -482
t-614 -145q-375 0 -553 121t-178 395q0 72 12.5 157.5t30.5 164.5l294 -65q-10 -59 -20 -129.5t-10 -108.5q0 -75 38.5 -117.5t135 -59.5t271.5 -17z" />
    <glyph glyph-name="uniFBD4" unicode="&#x6ad;" horiz-adv-x="1847" arabic-form="final" 
d="M589 1784l189 189l190 -189l-190 -189zM414 1448l189 190l175 -175l175 175l190 -190l-190 -189l-175 175l-175 -175zM689 540q-27 0 -59.5 3.5t-70.5 9.5l35 153q63 -13 119 -13q63 0 106.5 13.5t43.5 38.5q0 17 -21 24.5t-74 17.5q-79 15 -119 48t-40 94
q0 117 74 190.5t189 73.5q54 0 118 -16l-48 -145q-19 5 -40 8t-42 3q-48 0 -81.5 -21t-33.5 -55q0 -22 25.5 -33t95.5 -25q66 -12 100 -43.5t34 -94.5q0 -108 -85.5 -169.5t-225.5 -61.5zM1608 628q0 -118 19 -180t70.5 -84.5t148.5 -22.5h1v-341h-1q-156 0 -257 55
t-135 175h-10q-58 -127 -211.5 -178.5t-409.5 -51.5q-273 0 -442.5 52.5t-248.5 165.5t-79 296q0 65 11.5 150t31.5 174l294 -65q-13 -70 -21.5 -137.5t-8.5 -101.5q0 -74 40 -116.5t138 -59.5t271 -17q188 0 291 24.5t143.5 86.5t40.5 175v800h324v-799z" />
    <glyph glyph-name="uniFBD5" unicode="&#x6ad;" horiz-adv-x="908" arabic-form="initial" 
d="M224 1915l149 149l148 -149l-148 -148zM448 1713l149 149l148 -149l-148 -148zM130 1605l149 149l148 -149l-148 -148zM929 1506l45 -339q-199 -44 -332 -80t-244 -75v-5q149 -120 238 -212.5t128.5 -172.5t39.5 -164q0 -218 -170.5 -338t-482.5 -120h-151
q-24 0 -35 39.5t-11 132.5q0 92 11 130.5t35 38.5h143q174 0 255 33t81 103q0 41 -44.5 96t-149 140t-284.5 215l24 277q215 105 436 178.5t468 122.5z" />
    <glyph glyph-name="uniFBD6" unicode="&#x6ad;" horiz-adv-x="1139" arabic-form="medial" 
d="M224 1915l149 149l148 -149l-148 -148zM448 1713l149 149l148 -149l-148 -148zM130 1605l149 149l148 -149l-148 -148zM686 296q-47 -108 -115.5 -173t-170 -94t-249.5 -29h-151q-24 0 -35 39.5t-11 130.5q0 92 11 131.5t35 39.5h143q328 0 328 133q0 42 -46.5 100.5
t-150 144.5t-273.5 209l24 277q216 105 437.5 179t466.5 122l45 -339q-197 -43 -330 -79t-246 -76v-5q93 -74 154.5 -130.5t110.5 -115.5t103 -143q63 -105 116.5 -165.5t114 -86t141.5 -25.5h1v-341h-1q-156 0 -260.5 70t-181.5 226h-10z" />
    <glyph glyph-name="uniFBD7" unicode="&#x6c7;" horiz-adv-x="965" arabic-form="isolated" 
d="M561 1627q72 0 115.5 -49t43.5 -134q0 -83 -58 -161t-160.5 -140.5t-235.5 -97.5l-38 144q38 10 92.5 31t109.5 49q-44 23 -67.5 64.5t-23.5 92.5q0 53 31 99t82 74t109 28zM540 1486q-25 0 -52.5 -21t-27.5 -41q0 -42 87 -76q32 32 32 89q0 21 -11 35t-28 14zM596 3
l-9 15q-33 -10 -72.5 -15.5t-77.5 -5.5q-175 0 -269.5 96t-94.5 276q0 141 43.5 266t131.5 203t221 78q118 0 202 -60t137.5 -164t79 -236.5t25.5 -278.5q0 -264 -177 -440.5t-532 -290.5l-147 306q123 30 232.5 70.5t190 87t116.5 93.5zM605 339q-2 90 -35.5 161.5
t-110.5 71.5q-58 0 -90.5 -46.5t-32.5 -105.5q0 -49 31 -71.5t84 -22.5q40 0 78.5 4t75.5 9z" />
    <glyph glyph-name="uniFBD8" unicode="&#x6c7;" horiz-adv-x="953" arabic-form="final" 
d="M561 1627q72 0 115.5 -49t43.5 -134q0 -83 -58 -161t-160.5 -140.5t-235.5 -97.5l-38 144q38 10 92.5 31t109.5 49q-44 23 -67.5 64.5t-23.5 92.5q0 53 31 99t82 74t109 28zM540 1486q-25 0 -52.5 -21t-27.5 -41q0 -42 87 -76q32 32 32 89q0 21 -11 35t-28 14zM596 -4
l-8 15q-38 -6 -79 -8.5t-76 -2.5q-172 0 -266 95t-94 276q0 141 43.5 265.5t131.5 202t221 77.5q136 0 226 -77.5t141 -208t68 -289.5h49v-341h-62q-46 -190 -219 -325t-468 -229l-147 306q121 29 230 68.5t190.5 85t118.5 90.5zM606 335q-1 60 -16 114t-46.5 88.5
t-84.5 34.5q-58 0 -90.5 -45t-32.5 -104q0 -50 31 -71.5t84 -21.5q37 0 76.5 0.5t78.5 4.5z" />
    <glyph glyph-name="uniFBD9" unicode="&#x6c6;" horiz-adv-x="965" arabic-form="isolated" 
d="M535 1090h-142l-209 282l128 96l152 -217l152 217l128 -96zM596 3l-9 15q-33 -10 -72.5 -15.5t-77.5 -5.5q-175 0 -269.5 96t-94.5 276q0 141 43.5 266t131.5 203t221 78q118 0 202 -60t137.5 -164t79 -236.5t25.5 -278.5q0 -264 -177 -440.5t-532 -290.5l-147 306
q123 30 232.5 70.5t190 87t116.5 93.5zM605 339q-2 90 -35.5 161.5t-110.5 71.5q-58 0 -90.5 -46.5t-32.5 -105.5q0 -49 31 -71.5t84 -22.5q40 0 78.5 4t75.5 9z" />
    <glyph glyph-name="uniFBDA" unicode="&#x6c6;" horiz-adv-x="953" arabic-form="final" 
d="M535 1090h-142l-209 282l128 96l152 -217l152 217l128 -96zM596 -4l-8 15q-38 -6 -79 -8.5t-76 -2.5q-172 0 -266 95t-94 276q0 141 43.5 265.5t131.5 202t221 77.5q136 0 226 -77.5t141 -208t68 -289.5h49v-341h-62q-46 -190 -219 -325t-468 -229l-147 306
q121 29 230 68.5t190.5 85t118.5 90.5zM606 335q-1 60 -16 114t-46.5 88.5t-84.5 34.5q-58 0 -90.5 -45t-32.5 -104q0 -50 31 -71.5t84 -21.5q37 0 76.5 0.5t78.5 4.5z" />
    <glyph glyph-name="uniFBDB" unicode="&#x6c8;" horiz-adv-x="965" arabic-form="isolated" 
d="M399 1506h152v-426h-152v426zM596 3l-9 15q-33 -10 -72.5 -15.5t-77.5 -5.5q-175 0 -269.5 96t-94.5 276q0 141 43.5 266t131.5 203t221 78q118 0 202 -60t137.5 -164t79 -236.5t25.5 -278.5q0 -264 -177 -440.5t-532 -290.5l-147 306q123 30 232.5 70.5t190 87
t116.5 93.5zM605 339q-2 90 -35.5 161.5t-110.5 71.5q-58 0 -90.5 -46.5t-32.5 -105.5q0 -49 31 -71.5t84 -22.5q40 0 78.5 4t75.5 9z" />
    <glyph glyph-name="uniFBDC" unicode="&#x6c8;" horiz-adv-x="953" arabic-form="final" 
d="M399 1506h152v-426h-152v426zM596 -4l-8 15q-38 -6 -79 -8.5t-76 -2.5q-172 0 -266 95t-94 276q0 141 43.5 265.5t131.5 202t221 77.5q136 0 226 -77.5t141 -208t68 -289.5h49v-341h-62q-46 -190 -219 -325t-468 -229l-147 306q121 29 230 68.5t190.5 85t118.5 90.5z
M606 335q-1 60 -16 114t-46.5 88.5t-84.5 34.5q-58 0 -90.5 -45t-32.5 -104q0 -50 31 -71.5t84 -21.5q37 0 76.5 0.5t78.5 4.5z" />
    <glyph glyph-name="uniFBDD" unicode="&#x677;" horiz-adv-x="965" arabic-form="isolated" 
d="M341 1625q72 0 115.5 -49t43.5 -134q0 -83 -58 -161t-160.5 -140.5t-235.5 -97.5l-38 144q38 10 92.5 31t109.5 49q-44 23 -67.5 64.5t-23.5 92.5q0 53 31 99t82 74t109 28zM320 1484q-25 0 -52.5 -21t-27.5 -41q0 -42 87 -76q32 32 32 89q0 21 -11 35t-28 14zM893 1592
l-37 -133q-33 10 -60 10q-46 0 -76.5 -23.5t-30.5 -61.5q0 -32 25.5 -53t63.5 -21q14 0 28.5 2t30.5 7l109 36l43 -144l-465 -150l-43 146l146 42v10q-70 38 -70 138q0 92 64 152t164 60q24 0 50.5 -4.5t57.5 -12.5zM596 3l-9 15q-33 -10 -72.5 -15.5t-77.5 -5.5
q-175 0 -269.5 96t-94.5 276q0 141 43.5 266t131.5 203t221 78q118 0 202 -60t137.5 -164t79 -236.5t25.5 -278.5q0 -264 -177 -440.5t-532 -290.5l-147 306q123 30 232.5 70.5t190 87t116.5 93.5zM605 339q-2 90 -35.5 161.5t-110.5 71.5q-58 0 -90.5 -46.5t-32.5 -105.5
q0 -49 31 -71.5t84 -22.5q40 0 78.5 4t75.5 9z" />
    <glyph glyph-name="uniFBDE" unicode="&#x6cb;" horiz-adv-x="965" arabic-form="isolated" 
d="M291 1620l189 189l190 -189l-190 -189zM116 1284l189 190l175 -175l175 175l190 -190l-190 -189l-175 175l-175 -175zM596 3l-9 15q-33 -10 -72.5 -15.5t-77.5 -5.5q-175 0 -269.5 96t-94.5 276q0 141 43.5 266t131.5 203t221 78q118 0 202 -60t137.5 -164t79 -236.5
t25.5 -278.5q0 -264 -177 -440.5t-532 -290.5l-147 306q123 30 232.5 70.5t190 87t116.5 93.5zM605 339q-2 90 -35.5 161.5t-110.5 71.5q-58 0 -90.5 -46.5t-32.5 -105.5q0 -49 31 -71.5t84 -22.5q40 0 78.5 4t75.5 9z" />
    <glyph glyph-name="uniFBDF" unicode="&#x6cb;" horiz-adv-x="953" arabic-form="final" 
d="M291 1620l189 189l190 -189l-190 -189zM116 1284l189 190l175 -175l175 175l190 -190l-190 -189l-175 175l-175 -175zM596 -4l-8 15q-38 -6 -79 -8.5t-76 -2.5q-172 0 -266 95t-94 276q0 141 43.5 265.5t131.5 202t221 77.5q136 0 226 -77.5t141 -208t68 -289.5h49v-341
h-62q-46 -190 -219 -325t-468 -229l-147 306q121 29 230 68.5t190.5 85t118.5 90.5zM606 335q-1 60 -16 114t-46.5 88.5t-84.5 34.5q-58 0 -90.5 -45t-32.5 -104q0 -50 31 -71.5t84 -21.5q37 0 76.5 0.5t78.5 4.5z" />
    <glyph glyph-name="uniFBE0" unicode="&#x6c5;" horiz-adv-x="965" arabic-form="isolated" 
d="M764 -51v-134h-697v134h697zM596 3l-9 15q-33 -10 -72.5 -15.5t-77.5 -5.5q-175 0 -269.5 96t-94.5 276q0 141 43.5 266t131.5 203t221 78q118 0 202 -60t137.5 -164t79 -236.5t25.5 -278.5q0 -264 -177 -440.5t-532 -290.5l-147 306q123 30 232.5 70.5t190 87
t116.5 93.5zM605 339q-2 90 -35.5 161.5t-110.5 71.5q-58 0 -90.5 -46.5t-32.5 -105.5q0 -49 31 -71.5t84 -22.5q40 0 78.5 4t75.5 9z" />
    <glyph glyph-name="uniFBE1" unicode="&#x6c5;" horiz-adv-x="953" arabic-form="final" 
d="M764 -51v-134h-697v134h697zM596 -4l-8 15q-38 -6 -79 -8.5t-76 -2.5q-172 0 -266 95t-94 276q0 141 43.5 265.5t131.5 202t221 77.5q136 0 226 -77.5t141 -208t68 -289.5h49v-341h-62q-46 -190 -219 -325t-468 -229l-147 306q121 29 230 68.5t190.5 85t118.5 90.5z
M606 335q-1 60 -16 114t-46.5 88.5t-84.5 34.5q-58 0 -90.5 -45t-32.5 -104q0 -50 31 -71.5t84 -21.5q37 0 76.5 0.5t78.5 4.5z" />
    <glyph glyph-name="uniFBE2" unicode="&#x6c9;" horiz-adv-x="965" arabic-form="isolated" 
d="M412 1455h142l209 -282l-128 -96l-152 217l-152 -217l-128 96zM596 3l-9 15q-33 -10 -72.5 -15.5t-77.5 -5.5q-175 0 -269.5 96t-94.5 276q0 141 43.5 266t131.5 203t221 78q118 0 202 -60t137.5 -164t79 -236.5t25.5 -278.5q0 -264 -177 -440.5t-532 -290.5l-147 306
q123 30 232.5 70.5t190 87t116.5 93.5zM605 339q-2 90 -35.5 161.5t-110.5 71.5q-58 0 -90.5 -46.5t-32.5 -105.5q0 -49 31 -71.5t84 -22.5q40 0 78.5 4t75.5 9z" />
    <glyph glyph-name="uniFBE3" unicode="&#x6c9;" horiz-adv-x="953" arabic-form="final" 
d="M412 1455h142l209 -282l-128 -96l-152 217l-152 -217l-128 96zM596 -4l-8 15q-38 -6 -79 -8.5t-76 -2.5q-172 0 -266 95t-94 276q0 141 43.5 265.5t131.5 202t221 77.5q136 0 226 -77.5t141 -208t68 -289.5h49v-341h-62q-46 -190 -219 -325t-468 -229l-147 306
q121 29 230 68.5t190.5 85t118.5 90.5zM606 335q-1 60 -16 114t-46.5 88.5t-84.5 34.5q-58 0 -90.5 -45t-32.5 -104q0 -50 31 -71.5t84 -21.5q37 0 76.5 0.5t78.5 4.5z" />
    <glyph glyph-name="uniFBE4" unicode="&#x6d0;" horiz-adv-x="1600" arabic-form="isolated" 
d="M635 -1142l174 175l-174 175l188 189l190 -189l-175 -175l175 -175l-190 -189zM1493 990l-103 -292q-107 43 -209 43q-112 0 -188.5 -62t-76.5 -157q0 -41 26.5 -63t93.5 -34t188 -23q152 -13 230.5 -80t78.5 -208q0 -169 -96.5 -295.5t-270.5 -196.5t-405 -70
q-337 0 -516 153.5t-179 433.5q0 50 6.5 129t18 170.5t24.5 177.5l311 -56q-25 -141 -36.5 -232.5t-11.5 -156.5q0 -142 92.5 -211t301.5 -69q125 0 230.5 21.5t169.5 56.5t64 75q0 38 -49 49.5t-123 16.5q-220 17 -328.5 100.5t-108.5 266.5q0 122 44 227.5t122.5 185.5
t182.5 124.5t223 44.5q138 0 294 -69z" />
    <glyph glyph-name="uniFBE5" unicode="&#x6d0;" horiz-adv-x="1566" arabic-form="final" 
d="M600 -1214l167 167l-167 168l171 171l173 -171l-169 -168l169 -167l-173 -172zM1379 -10q47 -52 67 -98.5t20 -104.5q0 -83 -54 -156.5t-149.5 -129.5t-221 -88t-267.5 -32q-362 0 -539.5 153t-177.5 467q0 127 13.5 272t38.5 293l297 -58q-23 -136 -35.5 -258
t-12.5 -221q0 -161 98.5 -233t321.5 -72q156 0 255 37.5t99 96.5q0 27 -34.5 47.5t-121.5 40t-243 43.5l49 352h784v-341h-187v-10z" />
    <glyph glyph-name="uniFBE6" unicode="&#x6d0;" horiz-adv-x="610" arabic-form="initial" 
d="M-49 -686l174 175l-174 175l188 189l190 -189l-175 -175l175 -175l-190 -189zM493 882q31 -124 48 -230.5t17 -185.5q0 -466 -524 -466h-34q-46 0 -46 172q0 169 46 169h34q106 0 156 40t50 128q0 41 -13.5 116.5t-37.5 173.5z" />
    <glyph glyph-name="uniFBE7" unicode="&#x6d0;" horiz-adv-x="821" arabic-form="medial" 
d="M-49 -686l174 175l-174 175l188 189l190 -189l-175 -175l175 -175l-190 -189zM575 558q0 -88 14.5 -135t59.5 -64.5t138 -17.5h34v-341h-36q-127 0 -226 60t-142 163h-10q-42 -103 -145.5 -163t-227.5 -60h-34q-25 0 -35.5 40.5t-10.5 131.5q0 90 10.5 129.5t35.5 39.5
h34q93 0 139.5 18t62 65t15.5 134v180h324v-180z" />
    <glyph glyph-name="uniFBE8" unicode="&#x649;" horiz-adv-x="610" arabic-form="initial" 
d="M493 882q31 -124 48 -230.5t17 -185.5q0 -466 -524 -466h-34q-46 0 -46 172q0 169 46 169h34q106 0 156 40t50 128q0 41 -13.5 116.5t-37.5 173.5z" />
    <glyph glyph-name="uniFBE9" unicode="&#x649;" horiz-adv-x="821" arabic-form="medial" 
d="M575 558q0 -88 14.5 -135t59.5 -64.5t138 -17.5h34v-341h-36q-127 0 -226 60t-142 163h-10q-42 -103 -145.5 -163t-227.5 -60h-34q-25 0 -35.5 40.5t-10.5 131.5q0 90 10.5 129.5t35.5 39.5h34q93 0 139.5 18t62 65t15.5 134v180h324v-180z" />
    <glyph glyph-name="uniFBFC" unicode="&#x6cc;" horiz-adv-x="1600" arabic-form="isolated" 
d="M1493 990l-103 -292q-107 43 -209 43q-112 0 -188.5 -62t-76.5 -157q0 -41 26.5 -63t93.5 -34t188 -23q152 -13 230.5 -80t78.5 -208q0 -169 -96.5 -295.5t-270.5 -196.5t-405 -70q-337 0 -516 153.5t-179 433.5q0 50 6.5 129t18 170.5t24.5 177.5l311 -56
q-25 -141 -36.5 -232.5t-11.5 -156.5q0 -142 92.5 -211t301.5 -69q125 0 230.5 21.5t169.5 56.5t64 75q0 38 -49 49.5t-123 16.5q-220 17 -328.5 100.5t-108.5 266.5q0 122 44 227.5t122.5 185.5t182.5 124.5t223 44.5q138 0 294 -69z" />
    <glyph glyph-name="uniFBFD" unicode="&#x6cc;" horiz-adv-x="1566" arabic-form="final" 
d="M1379 -10q47 -52 67 -98.5t20 -104.5q0 -83 -54 -156.5t-149.5 -129.5t-221 -88t-267.5 -32q-362 0 -539.5 153t-177.5 467q0 127 13.5 272t38.5 293l297 -58q-23 -136 -35.5 -258t-12.5 -221q0 -161 98.5 -233t321.5 -72q156 0 255 37.5t99 96.5q0 27 -34.5 47.5
t-121.5 40t-243 43.5l49 352h784v-341h-187v-10z" />
    <glyph glyph-name="uniFBFE" unicode="&#x6cc;" horiz-adv-x="610" arabic-form="initial" 
d="M493 882q31 -124 48 -230.5t17 -185.5q0 -466 -524 -466h-34q-46 0 -46 172q0 169 46 169h34q106 0 156 40t50 128q0 41 -13.5 116.5t-37.5 173.5zM-249 -336l189 190l175 -175l175 175l190 -190l-190 -189l-175 175l-175 -175z" />
    <glyph glyph-name="uniFBFF" unicode="&#x6cc;" horiz-adv-x="821" arabic-form="medial" 
d="M575 558q0 -88 14.5 -135t59.5 -64.5t138 -17.5h34v-341h-36q-127 0 -226 60t-142 163h-10q-42 -103 -145.5 -163t-227.5 -60h-34q-25 0 -35.5 40.5t-10.5 131.5q0 90 10.5 129.5t35.5 39.5h34q93 0 139.5 18t62 65t15.5 134v180h324v-180zM-280 -336l189 190l175 -175
l175 175l190 -190l-190 -189l-175 175l-175 -175z" />
    <glyph glyph-name="uniFCF2" unicode="&#xfcf2;" horiz-adv-x="868" arabic-form="medial" 
d="M0 341h868v-341h-868q-22 0 -34 34.5t-12 137.5t12 136t34 33zM661 1326l46 -152l-466 -151l-46 154zM436 707q-13 -38 -43 -61t-71 -23q-69 0 -110.5 43.5t-41.5 116.5q0 54 9 94t25 89l117 -38q-8 -22 -16.5 -52.5t-8.5 -53.5q0 -48 41 -48q50 0 50 87v40h109v-40
q0 -87 50 -87q39 0 39 48q0 23 -7.5 53.5t-16.5 52.5l118 38q16 -49 24.5 -89t8.5 -94q0 -73 -41.5 -116.5t-110.5 -43.5q-40 0 -70.5 23t-43.5 61h-10z" />
    <glyph glyph-name="uniFCF3" unicode="&#xfcf3;" horiz-adv-x="868" arabic-form="medial" 
d="M0 341h868v-341h-868q-22 0 -34 34.5t-12 137.5t12 136t34 33zM535 1587q72 0 115.5 -49t43.5 -134q0 -83 -58 -161t-160.5 -140.5t-235.5 -97.5l-38 144q38 10 92.5 31t109.5 49q-44 23 -67.5 64.5t-23.5 92.5q0 53 31 99t82 74t109 28zM514 1446q-25 0 -52.5 -21
t-27.5 -41q0 -42 87 -76q32 32 32 89q0 21 -11 35t-28 14zM436 707q-13 -38 -43 -61t-71 -23q-69 0 -110.5 43.5t-41.5 116.5q0 54 9 94t25 89l117 -38q-8 -22 -16.5 -52.5t-8.5 -53.5q0 -48 41 -48q50 0 50 87v40h109v-40q0 -87 50 -87q39 0 39 48q0 23 -7.5 53.5
t-16.5 52.5l118 38q16 -49 24.5 -89t8.5 -94q0 -73 -41.5 -116.5t-110.5 -43.5q-40 0 -70.5 23t-43.5 61h-10z" />
    <glyph glyph-name="uniFCF4" unicode="&#xfcf4;" horiz-adv-x="868" arabic-form="medial" 
d="M0 341h868v-341h-868q-22 0 -34 34.5t-12 137.5t12 136t34 33zM661 905l46 -152l-466 -151l-46 154zM436 1038q-13 -38 -43 -61t-71 -23q-69 0 -110.5 43.5t-41.5 116.5q0 54 9 94t25 89l117 -38q-8 -22 -16.5 -52.5t-8.5 -53.5q0 -48 41 -48q50 0 50 87v40h109v-40
q0 -87 50 -87q39 0 39 48q0 23 -7.5 53.5t-16.5 52.5l118 38q16 -49 24.5 -89t8.5 -94q0 -73 -41.5 -116.5t-110.5 -43.5q-40 0 -70.5 23t-43.5 61h-10z" />
    <glyph glyph-name="uniFD3C" unicode="&#xfd3c;" horiz-adv-x="657" arabic-form="final" 
d="M113 1275h325v-759q0 -98 49.5 -136.5t168.5 -38.5h1v-341h-1q-254 0 -398.5 128t-144.5 380v767zM495 2007l46 -152l-466 -151l-46 154zM495 1722l46 -152l-466 -151l-46 154z" />
    <glyph glyph-name="uniFD3D" unicode="&#xfd3d;" horiz-adv-x="573" arabic-form="isolated" 
d="M449 1275v-1275h-323v1275h323zM497 2007l46 -152l-466 -151l-46 154zM497 1722l46 -152l-466 -151l-46 154z" />
    <glyph glyph-name="uniFDFC" unicode="&#xfdfc;" horiz-adv-x="3538" arabic-form="isolated" 
d="M2555 882q31 -124 48 -230.5t17 -185.5q0 -466 -524 -466h-34q-46 0 -46 172q0 169 46 169h34q106 0 156 40t50 128q0 41 -13.5 116.5t-37.5 173.5zM1812 -336l189 190l175 -175l175 175l190 -190l-190 -189l-175 175l-175 -175zM3037 692l305 105q55 -170 90.5 -328
t35.5 -289q0 -258 -161 -434t-507 -300l-147 306q253 83 375 178.5t122 248.5q0 61 -15 146t-40.5 180.5t-57.5 186.5zM1537 1434h325v-918q0 -98 49.5 -136.5t168.5 -38.5h1v-341h-1q-254 0 -398.5 128t-144.5 380v926zM680 -161q175 0 258 82.5t83 254.5v1258h326v-1284
q0 -200 -85 -346.5t-240.5 -226t-367.5 -79.5q-291 0 -446 154t-155 444q0 72 14.5 166t49.5 250l292 -73q-48 -204 -48 -318q0 -146 77 -214t242 -68z" />
    <glyph glyph-name="uniFE80" unicode="&#x621;" horiz-adv-x="872" arabic-form="isolated" 
d="M121 487q0 122 50 202.5t128 121t161 40.5q80 0 150.5 -31.5t130.5 -80.5l-94 -142q-38 23 -81.5 38.5t-90.5 15.5q-72 0 -122.5 -45t-50.5 -116q0 -58 48.5 -98.5t136.5 -40.5q112 0 267 47l67 -182l-709 -223l-59 187l222 59v10q-63 28 -108.5 92t-45.5 146z" />
    <glyph glyph-name="uniFE81" unicode="&#x622;" horiz-adv-x="573" arabic-form="isolated" 
d="M506 1756l126 -67q-77 -221 -215 -221q-57 0 -132 45q-39 23 -62 31.5t-42 8.5q-33 0 -58 -23t-59 -83l-123 80q91 212 221 212q55 0 126 -43q45 -26 71 -38.5t45 -12.5q30 0 51.5 23.5t50.5 87.5zM449 1275v-1275h-323v1275h323z" />
    <glyph glyph-name="uniFE82" unicode="&#x622;" horiz-adv-x="657" arabic-form="final" 
d="M113 1275h325v-759q0 -98 49.5 -136.5t168.5 -38.5h1v-341h-1q-254 0 -398.5 128t-144.5 380v767zM-33 1540q78 171 204 171q26 0 53.5 -6.5t55.5 -22.5q34 -18 58 -28t40 -10q26 0 43.5 20.5t41.5 67.5l128 -67q-65 -179 -197 -179q-52 0 -112 31q-28 14 -50.5 22.5
t-40.5 8.5q-28 0 -49.5 -20t-49.5 -64z" />
    <glyph glyph-name="uniFE83" unicode="&#x623;" horiz-adv-x="573" arabic-form="isolated" 
d="M449 1275v-1275h-323v1275h323zM445 1952l-37 -133q-33 10 -60 10q-46 0 -76.5 -23.5t-30.5 -61.5q0 -32 25.5 -53t63.5 -21q14 0 28.5 2t30.5 7l109 36l43 -144l-465 -150l-43 146l146 42v10q-70 38 -70 138q0 92 64 152t164 60q24 0 50.5 -4.5t57.5 -12.5z" />
    <glyph glyph-name="uniFE84" unicode="&#x623;" horiz-adv-x="657" arabic-form="final" 
d="M113 1275h325v-759q0 -98 49.5 -136.5t168.5 -38.5h1v-341h-1q-254 0 -398.5 128t-144.5 380v767zM456 1954l-37 -133q-33 10 -60 10q-46 0 -76.5 -23.5t-30.5 -61.5q0 -32 25.5 -53t63.5 -21q14 0 28.5 2t30.5 7l109 36l43 -144l-465 -150l-43 146l146 42v10
q-70 38 -70 138q0 92 64 152t164 60q24 0 50.5 -4.5t57.5 -12.5z" />
    <glyph glyph-name="uniFE85" unicode="&#x624;" horiz-adv-x="965" arabic-form="isolated" 
d="M644 1587l-37 -133q-33 10 -60 10q-46 0 -76.5 -23.5t-30.5 -61.5q0 -32 25.5 -53t63.5 -21q14 0 28.5 2t30.5 7l109 36l43 -144l-465 -150l-43 146l146 42v10q-70 38 -70 138q0 92 64 152t164 60q24 0 50.5 -4.5t57.5 -12.5zM596 3l-9 15q-33 -10 -72.5 -15.5
t-77.5 -5.5q-175 0 -269.5 96t-94.5 276q0 141 43.5 266t131.5 203t221 78q118 0 202 -60t137.5 -164t79 -236.5t25.5 -278.5q0 -264 -177 -440.5t-532 -290.5l-147 306q123 30 232.5 70.5t190 87t116.5 93.5zM605 339q-2 90 -35.5 161.5t-110.5 71.5q-58 0 -90.5 -46.5
t-32.5 -105.5q0 -49 31 -71.5t84 -22.5q40 0 78.5 4t75.5 9z" />
    <glyph glyph-name="uniFE86" unicode="&#x624;" horiz-adv-x="953" arabic-form="final" 
d="M626 1588l-37 -133q-33 10 -60 10q-46 0 -76.5 -23.5t-30.5 -61.5q0 -32 25.5 -53t63.5 -21q14 0 28.5 2t30.5 7l109 36l43 -144l-465 -150l-43 146l146 42v10q-70 38 -70 138q0 92 64 152t164 60q24 0 50.5 -4.5t57.5 -12.5zM596 -4l-8 15q-38 -6 -79 -8.5t-76 -2.5
q-172 0 -266 95t-94 276q0 141 43.5 265.5t131.5 202t221 77.5q136 0 226 -77.5t141 -208t68 -289.5h49v-341h-62q-46 -190 -219 -325t-468 -229l-147 306q121 29 230 68.5t190.5 85t118.5 90.5zM606 335q-1 60 -16 114t-46.5 88.5t-84.5 34.5q-58 0 -90.5 -45t-32.5 -104
q0 -50 31 -71.5t84 -21.5q37 0 76.5 0.5t78.5 4.5z" />
    <glyph glyph-name="uniFE87" unicode="&#x625;" horiz-adv-x="573" arabic-form="isolated" 
d="M434 -191l-37 -133q-33 10 -60 10q-46 0 -76.5 -23.5t-30.5 -61.5q0 -32 25.5 -53t63.5 -21q14 0 28.5 2t30.5 7l109 36l43 -144l-465 -150l-43 146l146 42v10q-70 38 -70 138q0 92 64 152t164 60q24 0 50.5 -4.5t57.5 -12.5zM449 0h-323v1434h323v-1434z" />
    <glyph glyph-name="uniFE88" unicode="&#x625;" horiz-adv-x="657" arabic-form="final" 
d="M508 -189l-37 -133q-33 10 -60 10q-46 0 -76.5 -23.5t-30.5 -61.5q0 -32 25.5 -53t63.5 -21q14 0 28.5 2t30.5 7l109 36l43 -144l-465 -150l-43 146l146 42v10q-70 38 -70 138q0 92 64 152t164 60q24 0 50.5 -4.5t57.5 -12.5zM113 1434h325v-918q0 -98 49.5 -136.5
t168.5 -38.5h1v-341h-1q-254 0 -398.5 128t-144.5 380v926z" />
    <glyph glyph-name="uniFE89" unicode="&#x626;" horiz-adv-x="1600" arabic-form="isolated" 
d="M542 1330l-37 -133q-33 10 -60 10q-46 0 -76.5 -23.5t-30.5 -61.5q0 -32 25.5 -53t63.5 -21q14 0 28.5 2t30.5 7l109 36l43 -144l-465 -150l-43 146l146 42v10q-70 38 -70 138q0 92 64 152t164 60q24 0 50.5 -4.5t57.5 -12.5zM1496 990l-103 -292q-107 43 -209 43
q-112 0 -188.5 -62t-76.5 -157q0 -41 26.5 -63t93.5 -34t188 -23q152 -13 230.5 -80t78.5 -208q0 -169 -96.5 -295.5t-270.5 -196.5t-405 -70q-337 0 -516 153.5t-179 433.5q0 50 6.5 129t18 170.5t24.5 177.5l311 -56q-25 -141 -36.5 -232.5t-11.5 -156.5q0 -142 92.5 -211
t301.5 -69q125 0 230.5 21.5t169.5 56.5t64 75q0 38 -49 49.5t-123 16.5q-220 17 -328.5 100.5t-108.5 266.5q0 122 44 227.5t122.5 185.5t182.5 124.5t223 44.5q138 0 294 -69z" />
    <glyph glyph-name="uniFE8A" unicode="&#x626;" horiz-adv-x="1566" arabic-form="final" 
d="M1063 1046l-37 -133q-33 10 -60 10q-46 0 -76.5 -23.5t-30.5 -61.5q0 -32 25.5 -53t63.5 -21q14 0 28.5 2t30.5 7l109 36l43 -144l-465 -150l-43 146l146 42v10q-70 38 -70 138q0 92 64 152t164 60q24 0 50.5 -4.5t57.5 -12.5zM1379 -10q47 -52 67 -98.5t20 -104.5
q0 -83 -54 -156.5t-149.5 -129.5t-221 -88t-267.5 -32q-362 0 -539.5 153t-177.5 467q0 127 13.5 272t38.5 293l297 -58q-23 -136 -35.5 -258t-12.5 -221q0 -161 98.5 -233t321.5 -72q156 0 255 37.5t99 96.5q0 27 -34.5 47.5t-121.5 40t-243 43.5l49 352h784v-341h-187v-10
z" />
    <glyph glyph-name="uniFE8B" unicode="&#x626;" horiz-adv-x="610" arabic-form="initial" 
d="M454 1530l-37 -133q-33 10 -60 10q-46 0 -76.5 -23.5t-30.5 -61.5q0 -32 25.5 -53t63.5 -21q14 0 28.5 2t30.5 7l109 36l43 -144l-465 -150l-43 146l146 42v10q-70 38 -70 138q0 92 64 152t164 60q24 0 50.5 -4.5t57.5 -12.5zM493 882q31 -124 48 -230.5t17 -185.5
q0 -466 -524 -466h-34q-46 0 -46 172q0 169 46 169h34q106 0 156 40t50 128q0 41 -13.5 116.5t-37.5 173.5z" />
    <glyph glyph-name="uniFE8C" unicode="&#x626;" horiz-adv-x="821" arabic-form="medial" 
d="M408 1402l-37 -133q-33 10 -60 10q-46 0 -76.5 -23.5t-30.5 -61.5q0 -32 25.5 -53t63.5 -21q14 0 28.5 2t30.5 7l109 36l43 -144l-465 -150l-43 146l146 42v10q-70 38 -70 138q0 92 64 152t164 60q24 0 50.5 -4.5t57.5 -12.5zM575 558q0 -88 14.5 -135t59.5 -64.5
t138 -17.5h34v-341h-36q-127 0 -226 60t-142 163h-10q-42 -103 -145.5 -163t-227.5 -60h-34q-25 0 -35.5 40.5t-10.5 131.5q0 90 10.5 129.5t35.5 39.5h34q93 0 139.5 18t62 65t15.5 134v180h324v-180z" />
    <glyph glyph-name="uniFE8D" unicode="&#x627;" horiz-adv-x="573" arabic-form="isolated" 
d="M449 0h-323v1434h323v-1434z" />
    <glyph glyph-name="uniFE8E" unicode="&#x627;" horiz-adv-x="657" arabic-form="final" 
d="M113 1434h325v-918q0 -98 49.5 -136.5t168.5 -38.5h1v-341h-1q-254 0 -398.5 128t-144.5 380v926z" />
    <glyph glyph-name="uniFE8F" unicode="&#x628;" horiz-adv-x="1811" arabic-form="isolated" 
d="M715 -336l188 190l190 -190l-190 -189zM1708 901q23 -93 36.5 -188t13.5 -172q0 -200 -86 -318.5t-273.5 -170.5t-492.5 -52q-304 0 -492 52t-274.5 170t-86.5 316q0 77 15 173t37 190l289 -63q-13 -66 -23.5 -139t-10.5 -120q0 -102 50.5 -153t169.5 -68t326 -17
q208 0 327 17.5t169 69t50 154.5q0 47 -9.5 119t-23.5 137z" />
    <glyph glyph-name="uniFE90" unicode="&#x628;" horiz-adv-x="1969" arabic-form="final" 
d="M1805 767q-16 -89 -24.5 -153.5t-8.5 -103.5q0 -79 47 -124t149 -45h1v-341h-1q-151 0 -266.5 60t-172.5 206h-10q-110 -153 -293.5 -209.5t-434.5 -56.5q-738 0 -738 562q0 159 60 379l282 -76q-19 -74 -30 -144.5t-11 -112.5q0 -144 111.5 -205.5t374.5 -61.5
q211 0 345 47t210.5 151t114.5 276zM693 -336l188 190l190 -190l-190 -189z" />
    <glyph glyph-name="uniFE91" unicode="&#x628;" horiz-adv-x="610" arabic-form="initial" 
d="M493 882q31 -124 48 -230.5t17 -185.5q0 -466 -524 -466h-34q-46 0 -46 172q0 169 46 169h34q106 0 156 40t50 128q0 41 -13.5 116.5t-37.5 173.5zM-49 -336l188 190l190 -190l-190 -189z" />
    <glyph glyph-name="uniFE92" unicode="&#x628;" horiz-adv-x="821" arabic-form="medial" 
d="M575 558q0 -88 14.5 -135t59.5 -64.5t138 -17.5h34v-341h-36q-127 0 -226 60t-142 163h-10q-42 -103 -145.5 -163t-227.5 -60h-34q-25 0 -35.5 40.5t-10.5 131.5q0 90 10.5 129.5t35.5 39.5h34q93 0 139.5 18t62 65t15.5 134v180h324v-180zM-49 -336l188 190l190 -190
l-190 -189z" />
    <glyph glyph-name="uniFE93" unicode="&#x629;" horiz-adv-x="952" arabic-form="isolated" 
d="M65 1427l189 190l175 -175l175 175l190 -190l-190 -189l-175 175l-175 -175zM471 -11q-133 0 -226.5 49t-142.5 131.5t-49 182.5q0 140 67.5 258.5t170.5 225.5q-22 23 -49 47t-53 46l199 238q86 -70 176 -156.5t166 -186.5t123 -211t47 -231q0 -112 -54.5 -201
t-151 -140.5t-223.5 -51.5zM471 331q68 0 93.5 29.5t25.5 63.5q0 44 -28.5 102.5t-90.5 116.5q-62 -58 -92 -117.5t-30 -101.5q0 -34 26 -63.5t96 -29.5z" />
    <glyph glyph-name="uniFE94" unicode="&#x629;" horiz-adv-x="1195" arabic-form="final" 
d="M412 1525l189 190l175 -175l175 175l190 -190l-190 -189l-175 175l-175 -175zM648 996l-10 172l324 19l37 -626q8 -121 51.5 -170.5t143.5 -49.5h1v-341h-1q-282 0 -410 197q-50 -23 -111.5 -36.5t-115.5 -13.5q-195 0 -314.5 89t-119.5 243q0 198 135.5 331t389.5 186z
M671 686q-121 -7 -194.5 -46t-73.5 -98q0 -43 47 -65.5t126 -22.5q35 0 62.5 3t51.5 8q-8 45 -9 74z" />
    <glyph glyph-name="uniFE95" unicode="&#x62a;" horiz-adv-x="1811" arabic-form="isolated" 
d="M1708 901q23 -93 36.5 -188t13.5 -172q0 -200 -86 -318.5t-273.5 -170.5t-492.5 -52q-304 0 -492 52t-274.5 170t-86.5 316q0 77 15 173t37 190l289 -63q-13 -66 -23.5 -139t-10.5 -120q0 -102 50.5 -153t169.5 -68t326 -17q208 0 327 17.5t169 69t50 154.5
q0 47 -9.5 119t-23.5 137zM541 915l189 190l175 -175l175 175l190 -190l-190 -189l-175 175l-175 -175z" />
    <glyph glyph-name="uniFE96" unicode="&#x62a;" horiz-adv-x="1969" arabic-form="final" 
d="M1805 767q-16 -89 -24.5 -153.5t-8.5 -103.5q0 -79 47 -124t149 -45h1v-341h-1q-151 0 -266.5 60t-172.5 206h-10q-110 -153 -293.5 -209.5t-434.5 -56.5q-738 0 -738 562q0 159 60 379l282 -76q-19 -74 -30 -144.5t-11 -112.5q0 -144 111.5 -205.5t374.5 -61.5
q211 0 345 47t210.5 151t114.5 276zM557 871l189 190l175 -175l175 175l190 -190l-190 -189l-175 175l-175 -175z" />
    <glyph glyph-name="uniFE97" unicode="&#x62a;" horiz-adv-x="610" arabic-form="initial" 
d="M493 882q31 -124 48 -230.5t17 -185.5q0 -466 -524 -466h-34q-46 0 -46 172q0 169 46 169h34q106 0 156 40t50 128q0 41 -13.5 116.5t-37.5 173.5zM-118 1178l189 190l175 -175l175 175l190 -190l-190 -189l-175 175l-175 -175z" />
    <glyph glyph-name="uniFE98" unicode="&#x62a;" horiz-adv-x="821" arabic-form="medial" 
d="M575 558q0 -88 14.5 -135t59.5 -64.5t138 -17.5h34v-341h-36q-127 0 -226 60t-142 163h-10q-42 -103 -145.5 -163t-227.5 -60h-34q-25 0 -35.5 40.5t-10.5 131.5q0 90 10.5 129.5t35.5 39.5h34q93 0 139.5 18t62 65t15.5 134v180h324v-180zM-51 1090l189 190l175 -175
l175 175l190 -190l-190 -189l-175 175l-175 -175z" />
    <glyph glyph-name="uniFE99" unicode="&#x62b;" horiz-adv-x="1811" arabic-form="isolated" 
d="M1708 901q23 -93 36.5 -188t13.5 -172q0 -200 -86 -318.5t-273.5 -170.5t-492.5 -52q-304 0 -492 52t-274.5 170t-86.5 316q0 77 15 173t37 190l289 -63q-13 -66 -23.5 -139t-10.5 -120q0 -102 50.5 -153t169.5 -68t326 -17q208 0 327 17.5t169 69t50 154.5
q0 47 -9.5 119t-23.5 137zM716 1251l189 189l190 -189l-190 -189zM541 915l189 190l175 -175l175 175l190 -190l-190 -189l-175 175l-175 -175z" />
    <glyph glyph-name="uniFE9A" unicode="&#x62b;" horiz-adv-x="1969" arabic-form="final" 
d="M1805 767q-16 -89 -24.5 -153.5t-8.5 -103.5q0 -79 47 -124t149 -45h1v-341h-1q-151 0 -266.5 60t-172.5 206h-10q-110 -153 -293.5 -209.5t-434.5 -56.5q-738 0 -738 562q0 159 60 379l282 -76q-19 -74 -30 -144.5t-11 -112.5q0 -144 111.5 -205.5t374.5 -61.5
q211 0 345 47t210.5 151t114.5 276zM732 1207l189 189l190 -189l-190 -189zM557 871l189 190l175 -175l175 175l190 -190l-190 -189l-175 175l-175 -175z" />
    <glyph glyph-name="uniFE9B" unicode="&#x62b;" horiz-adv-x="610" arabic-form="initial" 
d="M493 882q31 -124 48 -230.5t17 -185.5q0 -466 -524 -466h-34q-46 0 -46 172q0 169 46 169h34q106 0 156 40t50 128q0 41 -13.5 116.5t-37.5 173.5zM57 1514l189 189l190 -189l-190 -189zM-118 1178l189 190l175 -175l175 175l190 -190l-190 -189l-175 175l-175 -175z" />
    <glyph glyph-name="uniFE9C" unicode="&#x62b;" horiz-adv-x="821" arabic-form="medial" 
d="M575 558q0 -88 14.5 -135t59.5 -64.5t138 -17.5h34v-341h-36q-127 0 -226 60t-142 163h-10q-42 -103 -145.5 -163t-227.5 -60h-34q-25 0 -35.5 40.5t-10.5 131.5q0 90 10.5 129.5t35.5 39.5h34q93 0 139.5 18t62 65t15.5 134v180h324v-180zM124 1415l189 189l190 -189
l-190 -189zM-51 1079l189 190l175 -175l175 175l190 -190l-190 -189l-175 175l-175 -175z" />
    <glyph glyph-name="uniFE9D" unicode="&#x62c;" horiz-adv-x="1467" arabic-form="isolated" 
d="M639 14l188 190l190 -190l-190 -189zM496 1135q62 0 146 -25t221 -87q127 -57 216.5 -94t155.5 -58.5t122 -34.5l-41 -345q-125 -9 -258 -38.5t-256.5 -77t-221.5 -112t-155.5 -144t-57.5 -171.5q0 -127 125 -198t325 -71q277 0 493 107l145 -293q-319 -161 -636 -161
q-227 0 -400 71.5t-270 202t-97 307.5q0 189 111.5 343t306 260.5t442.5 149.5v10q-45 11 -96.5 28.5t-119.5 45.5q-82 30 -127.5 42.5t-74.5 12.5q-64 0 -102.5 -35.5t-69.5 -121.5l-8 -24l-234 71l7 25q65 219 161.5 317t247.5 98z" />
    <glyph glyph-name="uniFE9E" unicode="&#x62c;" horiz-adv-x="1485" arabic-form="final" 
d="M603 -46l188 190l190 -190l-190 -189zM496 1095q63 0 147 -25.5t220 -86.5q128 -57 217.5 -94t155 -59t121.5 -34l-41 -345q-66 -6 -112 -15v-11q68 -84 216 -84h65v-341h-17q-371 0 -449 379q-135 -17 -253 -62t-207.5 -109.5t-140.5 -141.5t-51 -158q0 -123 122.5 -196
t327.5 -73q135 0 262.5 28t230.5 79l145 -293q-319 -161 -636 -161q-231 0 -403.5 72.5t-268 203t-95.5 305.5q0 182 107 336t300.5 263t452.5 154v10q-83 20 -216 74q-82 30 -127.5 42.5t-74.5 12.5q-64 0 -102.5 -35.5t-69.5 -121.5l-8 -24l-234 71l7 25q65 219 161.5 317
t247.5 98z" />
    <glyph glyph-name="uniFE9F" unicode="&#x62c;" horiz-adv-x="1368" arabic-form="initial" 
d="M425 -336l188 190l190 -190l-190 -189zM481 1041q58 0 138.5 -25.5t235.5 -93.5q155 -64 259.5 -100t201.5 -57v-263l-513 -307q-172 -103 -322 -149t-317 -46h-164q-24 0 -35 39.5t-11 132.5q0 92 11 130.5t35 38.5h232q74 0 137 11t134.5 37.5t168.5 72.5l223 111v10
q-45 11 -95.5 29t-118.5 45q-80 29 -126.5 42t-75.5 13q-64 0 -102 -36t-70 -121l-8 -23l-235 71l7 24q62 220 161 317t249 97z" />
    <glyph glyph-name="uniFEA0" unicode="&#x62c;" horiz-adv-x="1419" arabic-form="medial" 
d="M425 -336l188 190l190 -190l-190 -189zM481 1041q58 0 139 -25.5t235 -93.5q155 -64 259.5 -100t201.5 -57v-263l-184 -100v-10q53 -29 127 -40t135 -11h25v-341h-26q-144 0 -264.5 63t-213.5 199l-112 -67q-172 -103 -322 -149t-317 -46h-164q-24 0 -35 39.5t-11 132.5
q0 92 11 130.5t35 38.5h232q74 0 137 11t134.5 37.5t168.5 72.5l223 111v10q-45 11 -95.5 29t-118.5 45q-80 29 -126.5 42t-75.5 13q-64 0 -102 -36t-70 -121l-8 -23l-235 71l7 24q62 220 161 317t249 97z" />
    <glyph glyph-name="uniFEA1" unicode="&#x62d;" horiz-adv-x="1467" arabic-form="isolated" 
d="M496 1135q62 0 146 -25t221 -87q127 -57 216.5 -94t155.5 -58.5t122 -34.5l-41 -345q-125 -9 -258 -38.5t-256.5 -77t-221.5 -112t-155.5 -144t-57.5 -171.5q0 -127 125 -198t325 -71q277 0 493 107l145 -293q-319 -161 -636 -161q-227 0 -400 71.5t-270 202t-97 307.5
q0 189 111.5 343t306 260.5t442.5 149.5v10q-45 11 -96.5 28.5t-119.5 45.5q-82 30 -127.5 42.5t-74.5 12.5q-64 0 -102.5 -35.5t-69.5 -121.5l-8 -24l-234 71l7 25q65 219 161.5 317t247.5 98z" />
    <glyph glyph-name="uniFEA2" unicode="&#x62d;" horiz-adv-x="1485" arabic-form="final" 
d="M496 1095q63 0 147 -25.5t220 -86.5q128 -57 217.5 -94t155 -59t121.5 -34l-41 -345q-66 -6 -112 -15v-11q68 -84 216 -84h65v-341h-17q-371 0 -449 379q-135 -17 -253 -62t-207.5 -109.5t-140.5 -141.5t-51 -158q0 -123 122.5 -196t327.5 -73q135 0 262.5 28t230.5 79
l145 -293q-319 -161 -636 -161q-231 0 -403.5 72.5t-268 203t-95.5 305.5q0 182 107 336t300.5 263t452.5 154v10q-83 20 -216 74q-82 30 -127.5 42.5t-74.5 12.5q-64 0 -102.5 -35.5t-69.5 -121.5l-8 -24l-234 71l7 25q65 219 161.5 317t247.5 98z" />
    <glyph glyph-name="uniFEA3" unicode="&#x62d;" horiz-adv-x="1368" arabic-form="initial" 
d="M481 1041q58 0 138.5 -25.5t235.5 -93.5q155 -64 259.5 -100t201.5 -57v-263l-513 -307q-172 -103 -322 -149t-317 -46h-164q-24 0 -35 39.5t-11 132.5q0 92 11 130.5t35 38.5h232q74 0 137 11t134.5 37.5t168.5 72.5l223 111v10q-45 11 -95.5 29t-118.5 45
q-80 29 -126.5 42t-75.5 13q-64 0 -102 -36t-70 -121l-8 -23l-235 71l7 24q62 220 161 317t249 97z" />
    <glyph glyph-name="uniFEA4" unicode="&#x62d;" horiz-adv-x="1419" arabic-form="medial" 
d="M481 1041q58 0 139 -25.5t235 -93.5q155 -64 259.5 -100t201.5 -57v-263l-184 -100v-10q53 -29 127 -40t135 -11h25v-341h-26q-144 0 -264.5 63t-213.5 199l-112 -67q-172 -103 -322 -149t-317 -46h-164q-24 0 -35 39.5t-11 132.5q0 92 11 130.5t35 38.5h232q74 0 137 11
t134.5 37.5t168.5 72.5l223 111v10q-45 11 -95.5 29t-118.5 45q-80 29 -126.5 42t-75.5 13q-64 0 -102 -36t-70 -121l-8 -23l-235 71l7 24q62 220 161 317t249 97z" />
    <glyph glyph-name="uniFEA5" unicode="&#x62e;" horiz-adv-x="1467" arabic-form="isolated" 
d="M496 1135q62 0 146 -25t221 -87q127 -57 216.5 -94t155.5 -58.5t122 -34.5l-41 -345q-125 -9 -258 -38.5t-256.5 -77t-221.5 -112t-155.5 -144t-57.5 -171.5q0 -127 125 -198t325 -71q277 0 493 107l145 -293q-319 -161 -636 -161q-227 0 -400 71.5t-270 202t-97 307.5
q0 189 111.5 343t306 260.5t442.5 149.5v10q-45 11 -96.5 28.5t-119.5 45.5q-82 30 -127.5 42.5t-74.5 12.5q-64 0 -102.5 -35.5t-69.5 -121.5l-8 -24l-234 71l7 25q65 219 161.5 317t247.5 98zM548 1523l188 190l190 -190l-190 -189z" />
    <glyph glyph-name="uniFEA6" unicode="&#x62e;" horiz-adv-x="1485" arabic-form="final" 
d="M496 1095q63 0 147 -25.5t220 -86.5q128 -57 217.5 -94t155 -59t121.5 -34l-41 -345q-66 -6 -112 -15v-11q68 -84 216 -84h65v-341h-17q-371 0 -449 379q-135 -17 -253 -62t-207.5 -109.5t-140.5 -141.5t-51 -158q0 -123 122.5 -196t327.5 -73q135 0 262.5 28t230.5 79
l145 -293q-319 -161 -636 -161q-231 0 -403.5 72.5t-268 203t-95.5 305.5q0 182 107 336t300.5 263t452.5 154v10q-83 20 -216 74q-82 30 -127.5 42.5t-74.5 12.5q-64 0 -102.5 -35.5t-69.5 -121.5l-8 -24l-234 71l7 25q65 219 161.5 317t247.5 98zM548 1483l188 190
l190 -190l-190 -189z" />
    <glyph glyph-name="uniFEA7" unicode="&#x62e;" horiz-adv-x="1368" arabic-form="initial" 
d="M481 1041q58 0 138.5 -25.5t235.5 -93.5q155 -64 259.5 -100t201.5 -57v-263l-513 -307q-172 -103 -322 -149t-317 -46h-164q-24 0 -35 39.5t-11 132.5q0 92 11 130.5t35 38.5h232q74 0 137 11t134.5 37.5t168.5 72.5l223 111v10q-45 11 -95.5 29t-118.5 45
q-80 29 -126.5 42t-75.5 13q-64 0 -102 -36t-70 -121l-8 -23l-235 71l7 24q62 220 161 317t249 97zM499 1428l188 190l190 -190l-190 -189z" />
    <glyph glyph-name="uniFEA8" unicode="&#x62e;" horiz-adv-x="1419" arabic-form="medial" 
d="M481 1041q58 0 139 -25.5t235 -93.5q155 -64 259.5 -100t201.5 -57v-263l-184 -100v-10q53 -29 127 -40t135 -11h25v-341h-26q-144 0 -264.5 63t-213.5 199l-112 -67q-172 -103 -322 -149t-317 -46h-164q-24 0 -35 39.5t-11 132.5q0 92 11 130.5t35 38.5h232q74 0 137 11
t134.5 37.5t168.5 72.5l223 111v10q-45 11 -95.5 29t-118.5 45q-80 29 -126.5 42t-75.5 13q-64 0 -102 -36t-70 -121l-8 -23l-235 71l7 24q62 220 161 317t249 97zM499 1428l188 190l190 -190l-190 -189z" />
    <glyph glyph-name="uniFEA9" unicode="&#x62f;" horiz-adv-x="1030" arabic-form="isolated" 
d="M977 448q0 -145 -71.5 -246t-200 -154t-300.5 -53q-164 0 -360 49l75 320q154 -31 273 -31q125 0 195 32t70 93q0 46 -43.5 119.5t-119 160t-171.5 170.5l214 255q223 -196 331 -370.5t108 -344.5z" />
    <glyph glyph-name="uniFEAA" unicode="&#x62f;" horiz-adv-x="1312" arabic-form="final" 
d="M806 1148l257 -605q37 -87 68 -130t71 -57.5t104 -14.5h6v-341h-6q-147 0 -238.5 54.5t-146.5 181.5h-10q-44 -115 -163.5 -180.5t-277.5 -65.5q-226 0 -425 147l143 270q71 -37 142.5 -56t132.5 -19q87 0 163.5 26.5t128.5 76.5l-251 567z" />
    <glyph glyph-name="uniFEAB" unicode="&#x630;" horiz-adv-x="1030" arabic-form="isolated" 
d="M977 448q0 -145 -71.5 -246t-200 -154t-300.5 -53q-164 0 -360 49l75 320q154 -31 273 -31q125 0 195 32t70 93q0 46 -43.5 119.5t-119 160t-171.5 170.5l214 255q223 -196 331 -370.5t108 -344.5zM340 1536l188 190l190 -190l-190 -189z" />
    <glyph glyph-name="uniFEAC" unicode="&#x630;" horiz-adv-x="1312" arabic-form="final" 
d="M413 1519l188 190l190 -190l-190 -189zM806 1148l257 -605q37 -87 68 -130t71 -57.5t104 -14.5h6v-341h-6q-147 0 -238.5 54.5t-146.5 181.5h-10q-44 -115 -163.5 -180.5t-277.5 -65.5q-226 0 -425 147l143 270q71 -37 142.5 -56t132.5 -19q87 0 163.5 26.5t128.5 76.5
l-251 567z" />
    <glyph glyph-name="uniFEAD" unicode="&#x631;" horiz-adv-x="650" arabic-form="isolated" 
d="M147 692l305 105q55 -170 90.5 -328t35.5 -289q0 -258 -161 -434t-507 -300l-147 306q253 83 375 178.5t122 248.5q0 61 -15 146t-40.5 180.5t-57.5 186.5z" />
    <glyph glyph-name="uniFEAE" unicode="&#x631;" horiz-adv-x="802" arabic-form="final" 
d="M147 692l305 105l72 -224q30 -93 61.5 -143.5t81.5 -69.5t134 -19h1v-341h-1q-147 0 -231 108l-10 -3q-6 -232 -176.5 -392t-473.5 -267l-147 306q180 60 289 122t158.5 135.5t49.5 169.5q0 83 -30.5 219.5t-82.5 293.5z" />
    <glyph glyph-name="uniFEAF" unicode="&#x632;" horiz-adv-x="650" arabic-form="isolated" 
d="M147 692l305 105q55 -170 90.5 -328t35.5 -289q0 -258 -161 -434t-507 -300l-147 306q253 83 375 178.5t122 248.5q0 61 -15 146t-40.5 180.5t-57.5 186.5zM107 1130l188 190l190 -190l-190 -189z" />
    <glyph glyph-name="uniFEB0" unicode="&#x632;" horiz-adv-x="802" arabic-form="final" 
d="M107 1130l188 190l190 -190l-190 -189zM147 692l305 105l72 -224q30 -93 61.5 -143.5t81.5 -69.5t134 -19h1v-341h-1q-147 0 -231 108l-10 -3q-6 -232 -176.5 -392t-473.5 -267l-147 306q180 60 289 122t158.5 135.5t49.5 169.5q0 83 -30.5 219.5t-82.5 293.5z" />
    <glyph glyph-name="uniFEB1" unicode="&#x633;" horiz-adv-x="2606" arabic-form="isolated" 
d="M1643 0q-33 0 -68 9.5t-64 28.5l-6 -4q-41 -243 -231.5 -375.5t-483.5 -132.5q-364 0 -545.5 161.5t-181.5 496.5q0 101 15.5 220.5t48.5 259.5l306 -70q-33 -156 -45 -241t-12 -148q0 -178 99 -258t306 -80q214 0 321.5 68t107.5 213q0 55 -14.5 121t-47.5 156.5
t-90 218.5l302 144l120 -324q22 -58 53 -90.5t86 -32.5q56 0 81.5 32.5t31.5 108.5l15 206l277 -18l-14 -215q-4 -56 26.5 -85t87.5 -29q109 0 109 117q0 18 -4.5 63t-12.5 103.5t-18 114.5l314 74q20 -99 31 -187.5t11 -162.5q0 -463 -369 -463q-120 0 -199.5 53.5
t-109.5 169.5h-10q-25 -106 -81 -164.5t-142 -58.5z" />
    <glyph glyph-name="uniFEB2" unicode="&#x633;" horiz-adv-x="2786" arabic-form="final" 
d="M2444 241q-57 -241 -274 -241q-109 0 -187.5 53.5t-106.5 169.5h-10q-24 -106 -80.5 -164.5t-142.5 -58.5q-33 0 -68 9.5t-64 28.5l-6 -4q-41 -243 -231.5 -375.5t-483.5 -132.5q-364 0 -545.5 161.5t-181.5 496.5q0 101 15.5 220.5t48.5 259.5l306 -70
q-33 -156 -45 -241t-12 -148q0 -178 99 -258t306 -80q214 0 321.5 68t107.5 213q0 55 -14.5 121t-47.5 156.5t-90 218.5l302 144l120 -324q24 -65 54 -94t85 -29q56 0 81.5 32.5t31.5 108.5l15 206l277 -18l-14 -215q-4 -56 26.5 -85t87.5 -29q111 0 111 119q0 19 -5.5 64.5
t-13.5 103.5t-18 112l311 64l25 -154q22 -132 46.5 -198.5t71.5 -88.5t134 -22v-341q-142 0 -219.5 58.5t-112.5 182.5h-10z" />
    <glyph glyph-name="uniFEB3" unicode="&#x633;" horiz-adv-x="1690" arabic-form="initial" 
d="M685 341q63 0 87 35t31 101l17 211l280 -18l-14 -215q-5 -52 24 -83t88 -31q60 0 89.5 32.5t29.5 87.5q0 23 -5 71.5t-13 107t-17 110.5l313 75q17 -88 29.5 -182.5t12.5 -177.5q0 -240 -97.5 -352.5t-280.5 -112.5q-133 0 -204 63t-95 160h-10q-48 -223 -283 -223
q-124 0 -191.5 57t-95.5 163h-10q-47 -99 -130.5 -159.5t-205.5 -60.5h-34q-24 0 -35 41.5t-11 132.5q0 89 11 128t35 39h34q105 0 151.5 44t55.5 136l19 222l323 -22l-21 -257q-5 -52 27 -87.5t96 -35.5z" />
    <glyph glyph-name="uniFEB4" unicode="&#x633;" horiz-adv-x="1871" arabic-form="medial" 
d="M1528 241q-27 -114 -92 -177.5t-184 -63.5q-130 0 -199 63t-93 160h-10q-48 -223 -283 -223q-126 0 -192 57t-95 163h-10q-47 -99 -130.5 -159.5t-205.5 -60.5h-34q-24 0 -35 41.5t-11 132.5q0 89 11 128t35 39h34q105 0 151.5 44t55.5 136l19 222l323 -22l-21 -257
q-5 -52 27 -87.5t96 -35.5q63 0 87.5 35t30.5 101l17 211l280 -18l-14 -215q-5 -52 23.5 -83t87.5 -31q62 0 92 32t30 87q0 18 -5.5 63t-13.5 103t-18 114l311 64l23 -154q19 -128 45 -195t74.5 -90.5t134.5 -23.5h1v-341h-1q-154 0 -227.5 64.5t-104.5 176.5h-10z" />
    <glyph glyph-name="uniFEB5" unicode="&#x634;" horiz-adv-x="2606" arabic-form="isolated" 
d="M1643 0q-33 0 -68 9.5t-64 28.5l-6 -4q-41 -243 -231.5 -375.5t-483.5 -132.5q-364 0 -545.5 161.5t-181.5 496.5q0 101 15.5 220.5t48.5 259.5l306 -70q-33 -156 -45 -241t-12 -148q0 -178 99 -258t306 -80q214 0 321.5 68t107.5 213q0 55 -14.5 121t-47.5 156.5
t-90 218.5l302 144l120 -324q22 -58 53 -90.5t86 -32.5q56 0 81.5 32.5t31.5 108.5l15 206l277 -18l-14 -215q-4 -56 26.5 -85t87.5 -29q109 0 109 117q0 18 -4.5 63t-12.5 103.5t-18 114.5l314 74q20 -99 31 -187.5t11 -162.5q0 -463 -369 -463q-120 0 -199.5 53.5
t-109.5 169.5h-10q-25 -106 -81 -164.5t-142 -58.5zM1651 1414l189 189l190 -189l-190 -189zM1476 1078l189 190l175 -175l175 175l190 -190l-190 -189l-175 175l-175 -175z" />
    <glyph glyph-name="uniFEB6" unicode="&#x634;" horiz-adv-x="2786" arabic-form="final" 
d="M1647 1414l189 189l190 -189l-190 -189zM1472 1078l189 190l175 -175l175 175l190 -190l-190 -189l-175 175l-175 -175zM2444 241q-57 -241 -274 -241q-109 0 -187.5 53.5t-106.5 169.5h-10q-24 -106 -80.5 -164.5t-142.5 -58.5q-33 0 -68 9.5t-64 28.5l-6 -4
q-41 -243 -231.5 -375.5t-483.5 -132.5q-364 0 -545.5 161.5t-181.5 496.5q0 101 15.5 220.5t48.5 259.5l306 -70q-33 -156 -45 -241t-12 -148q0 -178 99 -258t306 -80q214 0 321.5 68t107.5 213q0 55 -14.5 121t-47.5 156.5t-90 218.5l302 144l120 -324q24 -65 54 -94
t85 -29q56 0 81.5 32.5t31.5 108.5l15 206l277 -18l-14 -215q-4 -56 26.5 -85t87.5 -29q111 0 111 119q0 19 -5.5 64.5t-13.5 103.5t-18 112l311 64l25 -154q22 -132 46.5 -198.5t71.5 -88.5t134 -22v-341q-142 0 -219.5 58.5t-112.5 182.5h-10z" />
    <glyph glyph-name="uniFEB7" unicode="&#x634;" horiz-adv-x="1690" arabic-form="initial" 
d="M749 1414l189 189l190 -189l-190 -189zM574 1078l189 190l175 -175l175 175l190 -190l-190 -189l-175 175l-175 -175zM685 341q63 0 87 35t31 101l17 211l280 -18l-14 -215q-5 -52 24 -83t88 -31q60 0 89.5 32.5t29.5 87.5q0 23 -5 71.5t-13 107t-17 110.5l313 75
q17 -88 29.5 -182.5t12.5 -177.5q0 -240 -97.5 -352.5t-280.5 -112.5q-133 0 -204 63t-95 160h-10q-48 -223 -283 -223q-124 0 -191.5 57t-95.5 163h-10q-47 -99 -130.5 -159.5t-205.5 -60.5h-34q-24 0 -35 41.5t-11 132.5q0 89 11 128t35 39h34q105 0 151.5 44t55.5 136
l19 222l323 -22l-21 -257q-5 -52 27 -87.5t96 -35.5z" />
    <glyph glyph-name="uniFEB8" unicode="&#x634;" horiz-adv-x="1871" arabic-form="medial" 
d="M749 1414l189 189l190 -189l-190 -189zM574 1078l189 190l175 -175l175 175l190 -190l-190 -189l-175 175l-175 -175zM1528 241q-27 -114 -92 -177.5t-184 -63.5q-130 0 -199 63t-93 160h-10q-48 -223 -283 -223q-126 0 -192 57t-95 163h-10q-47 -99 -130.5 -159.5
t-205.5 -60.5h-34q-24 0 -35 41.5t-11 132.5q0 89 11 128t35 39h34q105 0 151.5 44t55.5 136l19 222l323 -22l-21 -257q-5 -52 27 -87.5t96 -35.5q63 0 87.5 35t30.5 101l17 211l280 -18l-14 -215q-5 -52 23.5 -83t87.5 -31q62 0 92 32t30 87q0 18 -5.5 63t-13.5 103
t-18 114l311 64l23 -154q19 -128 45 -195t74.5 -90.5t134.5 -23.5h1v-341h-1q-154 0 -227.5 64.5t-104.5 176.5h-10z" />
    <glyph glyph-name="uniFEB9" unicode="&#x635;" horiz-adv-x="2558" arabic-form="isolated" 
d="M2126 929q111 0 196.5 -57t134.5 -158.5t49 -234.5q0 -139 -72 -247.5t-203.5 -170t-310.5 -61.5q-241 0 -404 110q-25 -274 -217 -429t-512 -155q-365 0 -544.5 162.5t-179.5 495.5q0 102 15.5 221.5t48.5 258.5l306 -70q-31 -154 -44 -239t-13 -150q0 -175 97 -256.5
t305 -81.5q426 0 426 291q0 54 -14 118t-47 153t-89 215l303 145q42 -94 72 -178.5t49 -160.5q146 230 312 354.5t336 124.5zM2075 595q-89 0 -184.5 -62t-166.5 -162q79 -30 194 -30q140 0 215.5 40.5t75.5 101.5q0 50 -37 81t-97 31z" />
    <glyph glyph-name="uniFEBA" unicode="&#x635;" horiz-adv-x="2601" arabic-form="final" 
d="M2126 929q111 0 196.5 -57t134.5 -158.5t49 -234.5q0 -69 -23 -124q53 -14 117 -14h1v-341h-1q-88 0 -153 28t-120 90q-75 -55 -178 -86.5t-229 -31.5q-241 0 -404 110q-25 -274 -217.5 -429t-511.5 -155q-365 0 -544.5 162.5t-179.5 495.5q0 102 15.5 222t48.5 258
l306 -70q-32 -154 -44.5 -239t-12.5 -150q0 -175 97 -256.5t305 -81.5q426 0 426 291q0 54 -14 118t-47 153t-89 215l303 145q42 -94 72 -178.5t49 -160.5q146 230 312 354.5t336 124.5zM2075 595q-89 0 -184.5 -62t-166.5 -162q79 -30 194 -30q140 0 215.5 40.5t75.5 101.5
q0 50 -37 81t-97 31z" />
    <glyph glyph-name="uniFEBB" unicode="&#x635;" horiz-adv-x="1651" arabic-form="initial" 
d="M431 233q-46 -115 -155.5 -174t-270.5 -59h-5q-25 0 -35.5 40t-10.5 132q0 90 10.5 129.5t35.5 39.5h5q122 0 167.5 44t45.5 138v225h324v-213q7 -27 18.5 -39.5t26.5 -21.5q171 238 323.5 346.5t299.5 108.5q114 0 202 -58.5t137.5 -160.5t49.5 -231
q0 -145 -80.5 -252.5t-219 -167t-313.5 -59.5q-214 0 -346.5 56t-199.5 177h-9zM1167 595q-83 0 -178 -56.5t-172 -167.5q80 -30 192 -30q122 0 206.5 35.5t84.5 106.5q0 50 -36.5 81t-96.5 31z" />
    <glyph glyph-name="uniFEBC" unicode="&#x635;" horiz-adv-x="1691" arabic-form="medial" 
d="M218 748h324v-213q7 -27 18.5 -39.5t26.5 -21.5q171 238 323.5 346.5t299.5 108.5q114 0 202 -58.5t137.5 -160.5t49.5 -231q0 -34 -6.5 -65t-17.5 -60q26 -6 55 -9.5t60 -3.5h1v-341h-1q-184 0 -280 120q-166 -120 -424 -120q-214 0 -346.5 56t-199.5 177h-9
q-46 -115 -155.5 -174t-270.5 -59h-5q-25 0 -35.5 40t-10.5 132q0 90 10.5 129.5t35.5 39.5h5q122 0 167.5 44t45.5 138v225zM1167 595q-83 0 -178 -56.5t-172 -167.5q80 -30 192 -30q122 0 206.5 35.5t84.5 106.5q0 50 -36.5 81t-96.5 31z" />
    <glyph glyph-name="uniFEBD" unicode="&#x636;" horiz-adv-x="2558" arabic-form="isolated" 
d="M2126 929q111 0 196.5 -57t134.5 -158.5t49 -234.5q0 -139 -72 -247.5t-203.5 -170t-310.5 -61.5q-241 0 -404 110q-25 -274 -217 -429t-512 -155q-365 0 -544.5 162.5t-179.5 495.5q0 102 15.5 221.5t48.5 258.5l306 -70q-31 -154 -44 -239t-13 -150q0 -175 97 -256.5
t305 -81.5q426 0 426 291q0 54 -14 118t-47 153t-89 215l303 145q42 -94 72 -178.5t49 -160.5q146 230 312 354.5t336 124.5zM2075 595q-89 0 -184.5 -62t-166.5 -162q79 -30 194 -30q140 0 215.5 40.5t75.5 101.5q0 50 -37 81t-97 31zM1934 1300l188 190l190 -190
l-190 -189z" />
    <glyph glyph-name="uniFEBE" unicode="&#x636;" horiz-adv-x="2601" arabic-form="final" 
d="M2126 929q111 0 196.5 -57t134.5 -158.5t49 -234.5q0 -69 -23 -124q53 -14 117 -14h1v-341h-1q-88 0 -153 28t-120 90q-75 -55 -178 -86.5t-229 -31.5q-241 0 -404 110q-25 -274 -217.5 -429t-511.5 -155q-365 0 -544.5 162.5t-179.5 495.5q0 102 15.5 222t48.5 258
l306 -70q-32 -154 -44.5 -239t-12.5 -150q0 -175 97 -256.5t305 -81.5q426 0 426 291q0 54 -14 118t-47 153t-89 215l303 145q42 -94 72 -178.5t49 -160.5q146 230 312 354.5t336 124.5zM2075 595q-89 0 -184.5 -62t-166.5 -162q79 -30 194 -30q140 0 215.5 40.5t75.5 101.5
q0 50 -37 81t-97 31zM1934 1300l188 190l190 -190l-190 -189z" />
    <glyph glyph-name="uniFEBF" unicode="&#x636;" horiz-adv-x="1651" arabic-form="initial" 
d="M1004 1300l188 190l190 -190l-190 -189zM431 233q-46 -115 -155.5 -174t-270.5 -59h-5q-25 0 -35.5 40t-10.5 132q0 90 10.5 129.5t35.5 39.5h5q122 0 167.5 44t45.5 138v225h324v-213q7 -27 18.5 -39.5t26.5 -21.5q171 238 323.5 346.5t299.5 108.5q114 0 202 -58.5
t137.5 -160.5t49.5 -231q0 -145 -80.5 -252.5t-219 -167t-313.5 -59.5q-214 0 -346.5 56t-199.5 177h-9zM1167 595q-83 0 -178 -56.5t-172 -167.5q80 -30 192 -30q122 0 206.5 35.5t84.5 106.5q0 50 -36.5 81t-96.5 31z" />
    <glyph glyph-name="uniFEC0" unicode="&#x636;" horiz-adv-x="1691" arabic-form="medial" 
d="M1004 1300l188 190l190 -190l-190 -189zM218 748h324v-213q7 -27 18.5 -39.5t26.5 -21.5q171 238 323.5 346.5t299.5 108.5q114 0 202 -58.5t137.5 -160.5t49.5 -231q0 -34 -6.5 -65t-17.5 -60q26 -6 55 -9.5t60 -3.5h1v-341h-1q-184 0 -280 120q-166 -120 -424 -120
q-214 0 -346.5 56t-199.5 177h-9q-46 -115 -155.5 -174t-270.5 -59h-5q-25 0 -35.5 40t-10.5 132q0 90 10.5 129.5t35.5 39.5h5q122 0 167.5 44t45.5 138v225zM1167 595q-83 0 -178 -56.5t-172 -167.5q80 -30 192 -30q122 0 206.5 35.5t84.5 106.5q0 50 -36.5 81t-96.5 31z
" />
    <glyph glyph-name="uniFEC1" unicode="&#x637;" horiz-adv-x="1578" arabic-form="isolated" 
d="M329 341q6 9 12 17.5t12 17.5v1058h324v-526q0 -149 -65 -292l9 -8q271 321 521 321q116 0 202 -55t133.5 -152.5t47.5 -224.5q0 -237 -169.5 -367t-494.5 -130h-808v341h276zM692 341h249q119 0 203 30t84 108q0 49 -40.5 82.5t-99.5 33.5q-76 0 -171 -54t-225 -200z
" />
    <glyph glyph-name="uniFEC2" unicode="&#x637;" horiz-adv-x="1616" arabic-form="final" 
d="M329 341q6 9 12 17.5t12 17.5v1058h324v-526q0 -149 -65 -292l9 -8q271 321 521 321q116 0 202 -55t133.5 -152.5t47.5 -224.5q0 -34 -4 -65.5t-14 -63.5q26 -13 51 -20t57 -7h1v-341h-1q-88 0 -152 33t-111 94q-82 -62 -204 -94.5t-287 -32.5h-808v341h276zM692 341h249
q119 0 203 30t84 108q0 49 -40.5 82.5t-99.5 33.5q-76 0 -171 -54t-225 -200z" />
    <glyph glyph-name="uniFEC3" unicode="&#x637;" horiz-adv-x="1357" arabic-form="initial" 
d="M0 0q-22 0 -34 34.5t-12 137.5t12 136t34 33h110q6 9 11.5 17.5t12.5 17.5v1058h324v-526q0 -87 -19.5 -157.5t-48.5 -134.5l9 -8q128 152 260 236.5t263 84.5q112 0 198 -53.5t135.5 -150.5t49.5 -228q0 -237 -169.5 -367t-493.5 -130h-642zM470 341h251q119 0 203 30
t84 108q0 49 -40.5 82.5t-99.5 33.5q-76 0 -171.5 -54t-226.5 -200z" />
    <glyph glyph-name="uniFEC4" unicode="&#x637;" horiz-adv-x="1394" arabic-form="medial" 
d="M0 0q-25 0 -35.5 41t-10.5 131q0 89 10.5 129t35.5 40h110q6 9 11.5 17.5t12.5 17.5v1058h324v-526q0 -146 -68 -292l9 -8q273 321 523 321q116 0 202 -55t133.5 -152.5t47.5 -224.5q0 -66 -19 -129q48 -27 107 -27h1v-341h-1q-88 0 -151.5 33t-110.5 94
q-82 -61 -203.5 -94t-285.5 -33h-642zM470 341h251q119 0 203 30t84 108q0 49 -40.5 82.5t-99.5 33.5q-76 0 -171.5 -54t-226.5 -200z" />
    <glyph glyph-name="uniFEC5" unicode="&#x638;" horiz-adv-x="1578" arabic-form="isolated" 
d="M329 341q6 9 12 17.5t12 17.5v1058h324v-526q0 -149 -65 -292l9 -8q271 321 521 321q116 0 202 -55t133.5 -152.5t47.5 -224.5q0 -237 -169.5 -367t-494.5 -130h-808v341h276zM692 341h249q119 0 203 30t84 108q0 49 -40.5 82.5t-99.5 33.5q-76 0 -171 -54t-225 -200z
M935 1300l188 190l190 -190l-190 -189z" />
    <glyph glyph-name="uniFEC6" unicode="&#x638;" horiz-adv-x="1616" arabic-form="final" 
d="M935 1300l188 190l190 -190l-190 -189zM329 341q6 9 12 17.5t12 17.5v1058h324v-526q0 -149 -65 -292l9 -8q271 321 521 321q116 0 202 -55t133.5 -152.5t47.5 -224.5q0 -34 -4 -65.5t-14 -63.5q26 -13 51 -20t57 -7h1v-341h-1q-88 0 -152 33t-111 94q-82 -62 -204 -94.5
t-287 -32.5h-808v341h276zM692 341h249q119 0 203 30t84 108q0 49 -40.5 82.5t-99.5 33.5q-76 0 -171 -54t-225 -200z" />
    <glyph glyph-name="uniFEC7" unicode="&#x638;" horiz-adv-x="1357" arabic-form="initial" 
d="M714 1300l188 190l190 -190l-190 -189zM0 0q-22 0 -34 34.5t-12 137.5t12 136t34 33h110q6 9 11.5 17.5t12.5 17.5v1058h324v-526q0 -87 -19.5 -157.5t-48.5 -134.5l9 -8q128 152 260 236.5t263 84.5q112 0 198 -53.5t135.5 -150.5t49.5 -228q0 -237 -169.5 -367
t-493.5 -130h-642zM470 341h251q119 0 203 30t84 108q0 49 -40.5 82.5t-99.5 33.5q-76 0 -171.5 -54t-226.5 -200z" />
    <glyph glyph-name="uniFEC8" unicode="&#x638;" horiz-adv-x="1394" arabic-form="medial" 
d="M714 1300l188 190l190 -190l-190 -189zM0 0q-25 0 -35.5 41t-10.5 131q0 89 10.5 129t35.5 40h110q6 9 11.5 17.5t12.5 17.5v1058h324v-526q0 -146 -68 -292l9 -8q273 321 523 321q116 0 202 -55t133.5 -152.5t47.5 -224.5q0 -66 -19 -129q48 -27 107 -27h1v-341h-1
q-88 0 -151.5 33t-110.5 94q-82 -61 -203.5 -94t-285.5 -33h-642zM470 341h251q119 0 203 30t84 108q0 49 -40.5 82.5t-99.5 33.5q-76 0 -171.5 -54t-226.5 -200z" />
    <glyph glyph-name="uniFEC9" unicode="&#x639;" horiz-adv-x="1224" arabic-form="isolated" 
d="M1080 1191l-144 -262q-67 35 -126.5 54.5t-112.5 19.5q-91 0 -152.5 -50t-61.5 -124q0 -161 359 -161q56 0 123.5 3.5t138.5 9.5l-1 -321q-217 -9 -382.5 -66t-259 -150t-93.5 -210q0 -124 113 -191t322 -67q105 0 217 17t209 48l110 -306q-265 -106 -549 -106
q-225 0 -390.5 67.5t-256 192.5t-90.5 295q0 176 97 323.5t275 244.5v10q-126 59 -185.5 143.5t-59.5 205.5q0 146 69 264.5t185.5 188.5t258.5 70q203 0 387 -143z" />
    <glyph glyph-name="uniFECA" unicode="&#x639;" horiz-adv-x="1235" arabic-form="final" 
d="M1137 671q0 -152 -163 -285v-10q64 -35 167 -35h94v-341h-49q-130 0 -238.5 41t-224.5 132q-161 -72 -257.5 -161.5t-96.5 -199.5q0 -97 120.5 -155.5t325.5 -58.5q83 0 165.5 11t161.5 30l75 -327q-205 -61 -401 -61q-229 0 -400.5 65.5t-266.5 184t-95 276.5
q0 173 114 317.5t322 246.5v10l-340 295v196q113 100 248.5 153t276.5 53q136 0 240 -48t163 -133t59 -196zM849 639q0 37 -41 58.5t-112 21.5q-104 0 -189 -38v-2l200 -203q142 93 142 163z" />
    <glyph glyph-name="uniFECB" unicode="&#x639;" horiz-adv-x="1093" arabic-form="initial" 
d="M387 537q0 -146 229 -146q74 0 158 10l199 26l34 -331l-399 -46q-197 -24 -344.5 -37t-227.5 -13h-36q-24 0 -35 40.5t-11 131.5q0 90 11 129.5t35 39.5h22q31 0 67 1t64 2v19q-78 73 -78 215q0 133 65.5 237.5t180.5 165t261 60.5q223 0 375 -138l-143 -249
q-120 55 -230 55q-88 0 -142.5 -47.5t-54.5 -124.5z" />
    <glyph glyph-name="uniFECC" unicode="&#x639;" horiz-adv-x="1182" arabic-form="medial" 
d="M626 1048q133 0 237.5 -47t165 -132t60.5 -198q0 -79 -44.5 -151.5t-123.5 -138.5v-10q46 -19 91 -24.5t97 -5.5h73v-341h-112q-121 0 -218 36.5t-196 124.5q-115 -78 -249.5 -119.5t-286.5 -41.5h-120q-25 0 -35.5 40.5t-10.5 131.5q0 90 10.5 129.5t35.5 39.5h110
q83 0 161.5 10t132.5 23v10l-302 262v196q110 98 245 152t279 54zM646 719q-49 0 -97 -9t-90 -29v-2l196 -203q71 46 108 86t37 77q0 41 -44 60.5t-110 19.5z" />
    <glyph glyph-name="uniFECD" unicode="&#x63a;" horiz-adv-x="1224" arabic-form="isolated" 
d="M1080 1191l-144 -262q-67 35 -126.5 54.5t-112.5 19.5q-91 0 -152.5 -50t-61.5 -124q0 -161 359 -161q56 0 123.5 3.5t138.5 9.5l-1 -321q-217 -9 -382.5 -66t-259 -150t-93.5 -210q0 -124 113 -191t322 -67q105 0 217 17t209 48l110 -306q-265 -106 -549 -106
q-225 0 -390.5 67.5t-256 192.5t-90.5 295q0 176 97 323.5t275 244.5v10q-126 59 -185.5 143.5t-59.5 205.5q0 146 69 264.5t185.5 188.5t258.5 70q203 0 387 -143zM484 1753l188 190l190 -190l-190 -189z" />
    <glyph glyph-name="uniFECE" unicode="&#x63a;" horiz-adv-x="1235" arabic-form="final" 
d="M493 1446l188 190l190 -190l-190 -189zM1137 671q0 -152 -163 -285v-10q64 -35 167 -35h94v-341h-49q-130 0 -238.5 41t-224.5 132q-161 -72 -257.5 -161.5t-96.5 -199.5q0 -97 120.5 -155.5t325.5 -58.5q83 0 165.5 11t161.5 30l75 -327q-205 -61 -401 -61
q-229 0 -400.5 65.5t-266.5 184t-95 276.5q0 173 114 317.5t322 246.5v10l-340 295v196q113 100 248.5 153t276.5 53q136 0 240 -48t163 -133t59 -196zM849 639q0 37 -41 58.5t-112 21.5q-104 0 -189 -38v-2l200 -203q142 93 142 163z" />
    <glyph glyph-name="uniFECF" unicode="&#x63a;" horiz-adv-x="1093" arabic-form="initial" 
d="M384 1471l188 190l190 -190l-190 -189zM387 537q0 -146 229 -146q74 0 158 10l199 26l34 -331l-399 -46q-197 -24 -344.5 -37t-227.5 -13h-36q-24 0 -35 40.5t-11 131.5q0 90 11 129.5t35 39.5h22q31 0 67 1t64 2v19q-78 73 -78 215q0 133 65.5 237.5t180.5 165t261 60.5
q223 0 375 -138l-143 -249q-120 55 -230 55q-88 0 -142.5 -47.5t-54.5 -124.5z" />
    <glyph glyph-name="uniFED0" unicode="&#x63a;" horiz-adv-x="1182" arabic-form="medial" 
d="M448 1442l188 190l190 -190l-190 -189zM626 1048q133 0 237.5 -47t165 -132t60.5 -198q0 -79 -44.5 -151.5t-123.5 -138.5v-10q46 -19 91 -24.5t97 -5.5h73v-341h-112q-121 0 -218 36.5t-196 124.5q-115 -78 -249.5 -119.5t-286.5 -41.5h-120q-25 0 -35.5 40.5
t-10.5 131.5q0 90 10.5 129.5t35.5 39.5h110q83 0 161.5 10t132.5 23v10l-302 262v196q110 98 245 152t279 54zM646 719q-49 0 -97 -9t-90 -29v-2l196 -203q71 46 108 86t37 77q0 41 -44 60.5t-110 19.5z" />
    <glyph glyph-name="uniFED1" unicode="&#x641;" horiz-adv-x="1845" arabic-form="isolated" 
d="M1122 1730l188 190l190 -190l-190 -189zM1500 501q-115 -31 -220 -31q-181 0 -267 80t-86 248q0 169 48.5 292t137.5 190.5t209 67.5q141 0 244.5 -96t160 -271t56.5 -413q0 -209 -84.5 -334t-278 -179.5t-520.5 -54.5q-304 0 -490.5 52.5t-271.5 168t-85 304.5
q0 68 13 161t33 191l294 -64q-33 -178 -33 -252q0 -86 50.5 -134t174 -67t342.5 -19q184 0 297.5 5.5t173 22t81 48.5t21.5 84zM1451 778q-23 236 -142 236q-57 0 -90 -46t-33 -119q0 -86 119 -86q33 0 70 4t76 11z" />
    <glyph glyph-name="uniFED2" unicode="&#x641;" horiz-adv-x="1954" arabic-form="final" 
d="M1260 1489l188 190l190 -190l-190 -189zM1443 132q-109 -62 -253 -97t-314 -35q-412 0 -617.5 113t-205.5 386q0 90 25 206t65 237l284 -92q-23 -74 -43 -158.5t-20 -133.5q0 -121 118.5 -166t393.5 -51q66 -1 131 1t128 6l5 9q-64 50 -98.5 119t-34.5 154
q0 132 59.5 233t159.5 158.5t222 57.5q121 0 221.5 -57.5t160.5 -157.5t60 -230q0 -85 -35.5 -156.5t-97.5 -122.5l5 -8q29 -2 57.5 -4t59.5 -2h75v-341h-94q-139 0 -238 35.5t-179 96.5zM1447 420q59 34 93 81.5t34 110.5q0 50 -35 87.5t-91 37.5q-57 0 -91.5 -36.5
t-34.5 -88.5q0 -58 35 -107t90 -85z" />
    <glyph glyph-name="uniFED3" unicode="&#x641;" horiz-adv-x="962" arabic-form="initial" 
d="M248 1717l188 190l190 -190l-190 -189zM0 341h323q117 0 181.5 14.5t90 49.5t25.5 96q-124 -31 -220 -31q-181 0 -267 80t-86 248q0 253 106.5 401.5t287.5 148.5q141 0 245 -96t160.5 -271t56.5 -413q0 -294 -140 -431t-442 -137h-321q-24 0 -35 40.5t-11 131.5
q0 90 11 129.5t35 39.5zM570 778q-23 236 -143 236q-55 0 -88.5 -45.5t-33.5 -119.5q0 -86 119 -86q61 0 146 15z" />
    <glyph glyph-name="uniFED4" unicode="&#x641;" horiz-adv-x="1050" arabic-form="medial" 
d="M334 1472l188 190l190 -190l-190 -189zM83 630q0 132 59.5 233t159.5 158.5t222 57.5q121 0 221.5 -57.5t160.5 -157.5t60 -230q0 -85 -35.5 -156.5t-97.5 -122.5l5 -8l56 -4t59 -2h97v-341h-116q-139 0 -237.5 35.5t-178.5 96.5q-78 -61 -174 -96.5t-230 -35.5h-114
q-25 0 -36 41t-11 131q0 89 11 129t36 40h73q37 0 71.5 2t68.5 4l4 9q-63 50 -98.5 119.5t-35.5 154.5zM523 419q59 35 93 82t34 111q0 50 -35 87.5t-91 37.5q-57 0 -91.5 -36.5t-34.5 -88.5q0 -58 35 -107.5t90 -85.5z" />
    <glyph glyph-name="uniFED5" unicode="&#x642;" horiz-adv-x="1572" arabic-form="isolated" 
d="M711 1310l189 190l175 -175l175 175l190 -190l-190 -189l-175 175l-175 -175zM1077 965q145 0 244 -95t149.5 -261.5t50.5 -380.5q0 -226 -89 -388t-257 -248.5t-406 -86.5q-351 0 -531.5 155.5t-180.5 456.5q0 84 14 204.5t45 301.5l314 -62q-26 -143 -38 -242t-12 -174
q0 -150 102 -223.5t298 -73.5q166 0 274.5 51.5t149.5 151.5l-9 15q-66 -21 -155 -21q-170 0 -264.5 95t-94.5 278q0 158 48.5 281.5t137.5 194.5t210 71zM1213 391q-1 59 -16 111.5t-46.5 85.5t-83.5 33q-59 0 -91 -46.5t-32 -105.5q0 -49 31 -71.5t83 -22.5q44 0 82.5 4.5
t72.5 11.5z" />
    <glyph glyph-name="uniFED6" unicode="&#x642;" horiz-adv-x="1563" arabic-form="final" 
d="M712 1261l189 190l175 -175l175 175l190 -190l-190 -189l-175 175l-175 -175zM1077 916q129 0 219.5 -73.5t144.5 -203t72 -298.5h50v-341h-60q-48 -259 -239 -401.5t-493 -142.5q-352 0 -533 155t-181 457q0 84 14 204.5t45 301.5l314 -62q-26 -142 -38 -241t-12 -174
q0 -298 402 -298q161 0 271.5 50t151.5 147l-9 15q-74 -11 -154 -11q-170 0 -265 94t-95 277q0 158 48.5 281t137.5 193.5t209 70.5zM1069 572q-59 0 -91.5 -45t-32.5 -104q0 -50 31 -71.5t83 -21.5q41 0 80 0.5t76 4.5q-1 60 -15.5 114t-46.5 88.5t-84 34.5z" />
    </font>
</defs>
</svg>
