<?xml version="1.0" standalone="no"?>
<!DOCTYPE svg PUBLIC "-//W3C//DTD SVG 1.1//EN" "http://www.w3.org/Graphics/SVG/1.1/DTD/svg11.dtd" >
<svg xmlns="http://www.w3.org/2000/svg" xmlns:xlink="http://www.w3.org/1999/xlink" version="1.1">
<metadata>
Created by FontForge 20170731 at Fri Apr 29 11:11:12 2022
 By Aleksey,,,
Copyright 2022 The Mikhak Project Authors (https://github.com/aminabedi68/Mikhak)
</metadata>
<defs>
<font id="Mikhak-DS1-Black" horiz-adv-x="0" >
  <font-face 
    font-family="Mikhak-DS1 Black"
    font-weight="900"
    font-stretch="normal"
    units-per-em="2048"
    panose-1="0 0 0 0 0 0 0 0 0 0"
    ascent="1638"
    descent="-410"
    x-height="1086"
    cap-height="1532"
    bbox="-587 -1506.48 2622 2615.17"
    underline-thickness="120"
    underline-position="-780"
    unicode-range="U+0020-FEFF"
  />
<missing-glyph horiz-adv-x="1024" 
d="M102 -410v2048h820v-2048h-820zM204 -308h616v1844h-616v-1844z" />
    <glyph glyph-name="uni0622" unicode="&#x627;&#x653;" horiz-adv-x="522" 
d="M-125 1361q-36 36 -44.5 92t25.5 101q36 48 81 96t98 80.5t113 32.5q78 0 149 -38q53 -28 99 -28q47 0 79 23.5t60 51.5q41 41 100 40t100 -38t46.5 -96t-33.5 -105q-62 -73 -147.5 -118.5t-179.5 -45.5q-73 0 -172 35q-23 8 -38 12.5t-28 4.5q-33 0 -56 -24t-40 -47
q-37 -51 -99.5 -64.5t-112.5 35.5zM110 1123q-9 70 34 127t113 66t127 -34t66 -113q23 -171 34.5 -346t11.5 -348q0 -115 -5 -235t-16 -253q-6 -70 -60 -116.5t-125 -40.5q-70 6 -116.5 60.5t-40.5 124.5q10 111 14.5 224.5t4.5 228.5q0 345 -42 655z" />
    <glyph glyph-name="uni0623" unicode="&#x627;&#x654;" horiz-adv-x="497" 
d="M-6 1459q-11 29 4 60.5t46 41.5l76 26q-58 64 -58 166q0 103 65.5 170.5t188.5 67.5q36 0 66 -5q33 -5 53.5 -30.5t17.5 -55.5q-4 -31 -29.5 -53.5t-57.5 -17.5q-14 2 -27 2q-64 0 -92.5 -25t-28.5 -64q0 -74 94 -74q24 0 49.5 6t88.5 28q33 11 64 -6.5t38 -50.5
q7 -30 -8 -57.5t-42 -35.5l-406 -143q-30 -10 -60.5 4.5t-41.5 45.5zM71 1143q-9 70 34 127t113 66t127 -34t66 -113q18 -135 28 -237t14 -196t4 -206q0 -148 -5.5 -294t-15.5 -269q-6 -70 -60.5 -116.5t-125.5 -40.5q-70 6 -116 60.5t-40 124.5q10 124 15.5 267.5
t5.5 285.5q0 98 -3.5 178t-13 172t-27.5 225z" />
    <glyph glyph-name="uni0624" unicode="&#x648;&#x654;" horiz-adv-x="948" 
d="M129 943q-11 29 4 60.5t46 41.5l76 26q-58 64 -58 166q0 103 65.5 170.5t188.5 67.5q36 0 66 -5q33 -5 53.5 -30.5t17.5 -55.5q-4 -31 -29.5 -53.5t-57.5 -17.5q-14 2 -27 2q-64 0 -92.5 -25t-28.5 -64q0 -74 94 -74q24 0 49.5 6t88.5 28q33 11 64 -6.5t38 -50.5
q7 -30 -8 -57.5t-42 -35.5l-406 -143q-30 -10 -60.5 4.5t-41.5 45.5zM460 787q135 0 238.5 -81t162.5 -220t59 -313q0 -159 -58 -298t-157.5 -248.5t-226.5 -181.5t-265 -98q-68 -13 -127.5 28t-72.5 110t28.5 125t108.5 75q113 32 197 83.5t139 115.5h-12
q-214 0 -327.5 98.5t-113.5 297.5q0 144 58.5 259t155.5 181.5t213 66.5zM352 294q0 -55 29.5 -75.5t89.5 -20.5q33 0 62.5 4.5t54.5 9.5q-6 61 -23.5 116.5t-46 91t-66.5 35.5q-40 0 -70 -46t-30 -115z" />
    <glyph glyph-name="uni0625" unicode="&#x627;&#x655;" horiz-adv-x="497" 
d="M-56 -785q-11 29 4 60.5t46 41.5l76 26q-58 64 -58 166q0 103 65.5 170.5t188.5 67.5q36 0 66 -5q33 -5 53.5 -30.5t17.5 -55.5q-4 -31 -29.5 -53.5t-57.5 -17.5q-14 2 -27 2q-64 0 -92.5 -25t-28.5 -64q0 -74 94 -74q24 0 49.5 6t88.5 28q33 11 64 -6.5t38 -50.5
q7 -30 -8 -57.5t-42 -35.5l-406 -143q-30 -10 -60.5 4.5t-41.5 45.5zM71 1143q-9 70 34 127t113 66t127 -34t66 -113q18 -135 28 -237t14 -196t4 -206q0 -148 -5.5 -294t-15.5 -269q-6 -70 -60.5 -116.5t-125.5 -40.5q-70 6 -116 60.5t-40 124.5q10 124 15.5 267.5
t5.5 285.5q0 98 -3.5 178t-13 172t-27.5 225z" />
    <glyph glyph-name="uni0626" unicode="&#x64a;&#x654;" horiz-adv-x="1454" 
d="M30 744q-11 29 4 60.5t46 41.5l76 26q-58 64 -58 166q0 103 65.5 170.5t188.5 67.5q36 0 66 -5q33 -5 53.5 -30.5t17.5 -55.5q-4 -31 -29.5 -53.5t-57.5 -17.5q-14 2 -27 2q-64 0 -92.5 -25t-28.5 -64q0 -74 94 -74q24 0 49.5 6t88.5 28q33 11 64 -6.5t38 -50.5
q7 -30 -8 -57.5t-42 -35.5l-406 -143q-30 -10 -60.5 4.5t-41.5 45.5zM18 2q0 83 12.5 162t37.5 182q17 68 78 106t128 21q68 -16 106.5 -77t21.5 -129q-19 -79 -29.5 -145.5t-10.5 -133.5q0 -93 33 -146t112 -75t216 -22q210 0 300 43t90 84q0 27 -36.5 37t-94.5 13
q-67 4 -149.5 16t-158.5 48t-125 110.5t-49 201.5q0 108 43 208.5t117 181t170 127.5t201 47q67 0 116 -8t110 -25q64 -19 99 -82.5t15 -128.5q-19 -64 -79 -99.5t-124 -13.5q-30 10 -68 14t-67 4q-79 0 -137.5 -52t-58.5 -137q0 -53 56.5 -70t138.5 -24q65 -6 135.5 -20
t131.5 -50t99.5 -104.5t38.5 -182.5q0 -97 -57 -184t-157.5 -153t-231 -104t-277.5 -38q-347 0 -521.5 162.5t-174.5 435.5z" />
    <glyph glyph-name="uni06C2" unicode="&#x647;&#x654;" horiz-adv-x="920" 
d="M19 242q0 125 56 253.5t150 240.5q-32 47 -29.5 105.5t40.5 103.5q46 53 117.5 58.5t124.5 -40.5q119 -103 216.5 -219t155 -239.5t57.5 -247.5q0 -140 -61.5 -231.5t-163 -136.5t-222.5 -45q-119 0 -219.5 43.5t-161 132t-60.5 222.5zM363 264q0 -35 21.5 -56.5
t75.5 -21.5q62 0 83.5 20.5t21.5 59.5q0 38 -25.5 94.5t-76.5 124.5q-49 -65 -74.5 -125t-25.5 -96zM649 1791q-4 -35 -30 -57.5t-61 -18.5q-21 3 -41 3q-66 0 -112.5 -24.5t-46.5 -64.5q0 -22 27 -33t67 -21q46 -11 95.5 -30.5t84 -60.5t34.5 -118q0 -102 -92 -165.5
t-238 -63.5q-33 0 -60 1.5t-48 3.5q-35 4 -57 31.5t-18 63.5q5 37 32.5 59t63.5 17q20 -2 43.5 -4t48.5 -2q57 0 104.5 11.5t47.5 42.5q0 16 -23.5 25.5t-58.5 19.5q-45 13 -97.5 34t-90 64.5t-37.5 122.5q0 73 44.5 132t119.5 94t167 35q22 0 56 -3q35 -3 57.5 -30
t18.5 -64z" />
    <glyph glyph-name="uniFB00" unicode="ff" horiz-adv-x="1426" 
d="M669 1020q70 0 139 -2q4 84 9 161t11 144q5 57 20.5 134.5t50 151.5t96.5 122.5t160 48.5q76 0 130.5 -35.5t89.5 -76.5q42 -49 39 -117t-37 -107q-39 -46 -71.5 -53.5t-69.5 -0.5q-22 5 -35 5q-12 0 -19 -19.5t-12 -81.5q-5 -63 -9.5 -138t-8.5 -158q60 -5 120 -12
q70 -8 114.5 -64t36.5 -126t-64.5 -114t-126.5 -36q-46 5 -92 9q-5 -180 -7 -353.5t-2 -305.5q0 -70 -50.5 -120.5t-121.5 -50.5q-70 0 -120.5 50t-50.5 121q0 136 2 314.5t6 364.5q-62 1 -127 1q-71 0 -139 -1q-5 -186 -7.5 -365t-2.5 -314q0 -70 -50.5 -120.5
t-121.5 -50.5q-70 0 -120.5 50t-50.5 121q0 133 2 307t6 356q-66 1 -116 46t-54 112q-4 71 42 125.5t116 58.5l24 2q4 88 9 169t11 151q5 57 20.5 134.5t50 151.5t96.5 122.5t160 48.5q76 0 130.5 -35.5t89.5 -76.5q42 -49 39 -117t-37 -107q-39 -46 -71.5 -53.5t-69.5 -0.5
q-22 5 -35 5q-12 0 -19 -19.5t-12 -81.5q-5 -59 -9 -128.5t-8 -146.5q64 1 127 1z" />
    <glyph glyph-name="uniFB05" unicode="ft" horiz-adv-x="1365" 
d="M676 1020q54 0 108 -1q5 54 11 108.5t12 108.5q8 70 64 114t126 36t114 -64t36 -126q-6 -49 -11.5 -98.5t-10.5 -97.5q45 -5 87 -10q70 -9 113.5 -65.5t34.5 -126.5t-65.5 -113.5t-126.5 -34.5q-34 4 -70 8q-4 -76 -6.5 -151.5t-2.5 -151.5q0 -67 5.5 -118t18.5 -51
q17 0 44 5q69 13 127.5 -28t71.5 -109q13 -69 -27.5 -128.5t-109.5 -72.5q-28 -5 -54.5 -7t-51.5 -2q-96 0 -161 36.5t-105.5 95.5t-62 128t-29.5 135t-8 116q0 81 2.5 161t6.5 159q-39 1 -80 1q-73 0 -146 -2q-5 -185 -7.5 -364t-2.5 -314q0 -70 -50.5 -120.5t-121.5 -50.5
q-70 0 -120.5 50.5t-50.5 120.5q0 133 2 307t6 356q-67 0 -117 46t-54 113q-4 71 42.5 125t116.5 58l24 2q4 88 9 169t11 151q5 57 20.5 134.5t50 151.5t96.5 122.5t160 48.5q76 0 130.5 -35.5t89.5 -76.5q42 -49 39 -117t-37 -107q-39 -46 -71.5 -53.5t-69.5 -0.5
q-22 5 -35 5q-12 0 -19 -19.5t-12 -81.5q-5 -59 -9 -129t-8 -147q69 2 134 2z" />
    <glyph glyph-name="uniFBA5" unicode="&#xfeea;&#x654;" horiz-adv-x="1100" arabic-form="final" 
d="M59 373q0 145 88.5 266.5t262.5 201.5q49 22 97.5 50.5t67.5 50.5q3 63 47.5 110t109.5 53q70 7 124.5 -39t61.5 -117l50 -558q10 -112 37 -143.5t94 -31.5h1q71 0 120.5 -50t49.5 -121q0 -70 -49.5 -120.5t-120.5 -50.5h-1q-129 0 -216 38t-141 104q-20 -9 -42 -12
q-33 -4 -70.5 -6t-60.5 -2q-180 0 -292.5 49.5t-165 135t-52.5 192.5zM403 395q0 -25 35 -41t131 -16q24 0 59 3l-2 20l-17 194q-26 -13 -53 -26q-153 -73 -153 -134zM719 1821q-4 -35 -30 -57.5t-61 -18.5q-21 3 -41 3q-66 0 -112.5 -24.5t-46.5 -64.5q0 -22 27 -33t67 -21
q46 -11 95.5 -30.5t84 -60.5t34.5 -118q0 -102 -92 -165.5t-238 -63.5q-33 0 -60 1.5t-48 3.5q-35 4 -57 31.5t-18 63.5q5 37 32.5 59t63.5 17q20 -2 43.5 -4t48.5 -2q57 0 104.5 11.5t47.5 42.5q0 16 -23.5 25.5t-58.5 19.5q-45 13 -97.5 34t-90 64.5t-37.5 122.5
q0 73 44.5 132t119.5 94t167 35q22 0 56 -3q35 -3 57.5 -30t18.5 -64z" />
    <glyph glyph-name="uniFE71" unicode="&#x640;&#x64b;" horiz-adv-x="668" arabic-form="medial" 
d="M-172 45q0 71 51 121t121 50h668q71 0 121.5 -50t50.5 -121q0 -70 -50.5 -120.5t-121.5 -50.5h-668q-70 0 -121 50.5t-51 120.5zM57 987q-11 30 5 60t46 41l404 144q30 11 60.5 -5t41.5 -46t-4.5 -60t-45.5 -41l-406 -144q-30 -11 -60 5t-41 46zM57 1245q-11 30 5 60
t46 41l404 144q30 11 60.5 -5t41.5 -46t-4.5 -60t-45.5 -41l-406 -144q-30 -11 -60 5t-41 46z" />
    <glyph glyph-name="uniFE77" unicode="&#x640;&#x64e;" horiz-adv-x="668" arabic-form="medial" 
d="M57 1037q-11 30 5 60t46 41l404 144q30 11 60.5 -5t41.5 -46t-4.5 -60t-45.5 -41l-406 -144q-30 -11 -60 5t-41 46zM-172 45q0 71 51 121t121 50h668q71 0 121.5 -50t50.5 -121q0 -70 -50.5 -120.5t-121.5 -50.5h-668q-70 0 -121 50.5t-51 120.5z" />
    <glyph glyph-name="uniFE79" unicode="&#x640;&#x64f;" horiz-adv-x="668" arabic-form="medial" 
d="M67 947q-8 27 2.5 59t46.5 42q71 18 136 55q-52 30 -74.5 69.5t-22.5 91.5q0 60 30.5 114.5t78.5 89t101 34.5q46 0 87 -30.5t66.5 -81t25.5 -110.5q0 -50 -23 -103q7 -1 17 -3q39 -7 53.5 -36t9.5 -56q-5 -31 -30 -48t-64 -11q-48 9 -88 19q-51 -48 -117.5 -85
t-140.5 -57q-42 -12 -64 4.5t-30 42.5zM291 1268q0 -34 84 -59q24 37 24 72q0 36 -13 50.5t-31 14.5q-25 0 -44.5 -27.5t-19.5 -50.5zM-172 45q0 71 51 121t121 50h668q71 0 121.5 -50t50.5 -121q0 -70 -50.5 -120.5t-121.5 -50.5h-668q-70 0 -121 50.5t-51 120.5z" />
    <glyph glyph-name="uniFE7B" unicode="&#x640;&#x650;" horiz-adv-x="668" arabic-form="medial" 
d="M57 -554q-11 30 5 60t46 41l404 144q30 11 60.5 -5t41.5 -46t-4.5 -60t-45.5 -41l-406 -144q-30 -11 -60 5t-41 46zM-172 45q0 71 51 121t121 50h668q71 0 121.5 -50t50.5 -121q0 -70 -50.5 -120.5t-121.5 -50.5h-668q-70 0 -121 50.5t-51 120.5z" />
    <glyph glyph-name="uniFE7D" unicode="&#x640;&#x651;" horiz-adv-x="668" arabic-form="medial" 
d="M-7 1350q0 31 8 77.5t37 107.5q14 29 45 40t61 -4q29 -13 39 -45t-3 -63q-16 -39 -22.5 -57.5t-6.5 -35.5q0 -29 24 -29q45 0 49 100q2 29 22 51.5t48 26.5q33 5 61 -18t29 -58q3 -54 9 -78.5t27 -24.5q28 0 28 51q0 20 -2 51.5t-9 65.5q-6 32 11.5 59.5t48.5 33.5
q32 6 60 -11t34 -49q8 -41 12.5 -79.5t4.5 -76.5q0 -97 -49.5 -151t-125.5 -54q-49 0 -84 28.5t-47 76.5q-12 -46 -52.5 -75t-90.5 -29q-72 0 -119 41.5t-47 127.5zM-172 45q0 71 51 121t121 50h668q71 0 121.5 -50t50.5 -121q0 -70 -50.5 -120.5t-121.5 -50.5h-668
q-70 0 -121 50.5t-51 120.5z" />
    <glyph glyph-name="uniFE7F" unicode="&#x640;&#x652;" horiz-adv-x="668" arabic-form="medial" 
d="M109 1250q0 64 30 117.5t79.5 85.5t109.5 32q65 0 114 -31.5t76 -81.5t27 -104q0 -97 -63 -166t-155 -69q-64 0 -113 31t-77 81t-28 105zM269 1250q0 -20 17 -38.5t41 -18.5q20 0 39 17.5t19 57.5q0 23 -15 40t-42 17q-18 0 -38.5 -18.5t-20.5 -56.5zM-172 45
q0 71 51 121t121 50h668q71 0 121.5 -50t50.5 -121q0 -70 -50.5 -120.5t-121.5 -50.5h-668q-70 0 -121 50.5t-51 120.5z" />
    <glyph glyph-name="uniFEF5" unicode="&#xfedf;&#xfe82;" horiz-adv-x="1272" arabic-form="isolated" 
d="M51 1569q35 62 95 107t139 45q46 0 80.5 -18.5t62.5 -32.5l40 -20t42 -10q16 0 37.5 17.5t43.5 65.5q14 29 45.5 40t60.5 -3t39.5 -46t-3.5 -61q-18 -37 -47 -77t-72 -68t-104 -28q-43 0 -75.5 17t-57.5 29q-23 11 -45.5 23t-46.5 12q-22 0 -47.5 -16t-48.5 -54
q-16 -28 -47.5 -37t-60.5 7q-28 17 -37 48.5t7 59.5zM36 77q6 71 61.5 117.5t124.5 38.5q72 -8 126 -12t109 -4q163 0 257 29.5t134 81.5t40 117q0 115 -5 249.5t-14.5 264t-22.5 228.5q-9 69 34.5 126t113.5 66t126.5 -35t65.5 -113q15 -112 25 -248.5t15.5 -276
t5.5 -261.5q0 -160 -87 -288t-269.5 -202.5t-467.5 -74.5q-55 0 -104 2.5t-112 9.5q-70 8 -116 61.5t-40 123.5zM162 1128q-23 66 7.5 130.5t96.5 88.5t130 -7t88 -97q38 -106 62 -188.5t39.5 -157.5t26.5 -158t21 -191q6 -70 -40 -125t-117 -61q-70 -6 -124.5 40t-60.5 116
q-9 96 -18 169t-22.5 138.5t-34.5 137.5t-54 165z" />
    <glyph glyph-name="uniFEF6" unicode="&#xfee0;&#xfe82;" horiz-adv-x="1441" arabic-form="final" 
d="M51 1569q35 62 95 107t139 45q46 0 80.5 -18.5t62.5 -32.5l40 -20t42 -10q16 0 37.5 17.5t43.5 65.5q14 29 45.5 40t60.5 -3t39.5 -46t-3.5 -61q-18 -37 -47 -77t-72 -68t-104 -28q-43 0 -75.5 17t-57.5 29q-23 11 -45.5 23t-46.5 12q-22 0 -47.5 -16t-48.5 -54
q-16 -28 -47.5 -37t-60.5 7q-28 17 -37 48.5t7 59.5zM846 1187q-9 69 34.5 126t113.5 66t126.5 -35t65.5 -113q15 -112 25 -248.5t15.5 -276t5.5 -261.5q0 -127 53 -178t155 -51h1q71 0 120.5 -50t49.5 -121q0 -70 -49.5 -120.5t-120.5 -50.5h-1q-114 0 -219.5 43.5
t-183.5 127.5q-101 -77 -257.5 -121t-371.5 -44q-55 0 -104 2.5t-112 9.5q-70 8 -116 61.5t-40 123.5q6 71 61.5 117.5t124.5 38.5q72 -8 126 -12t109 -4q163 0 257 29.5t134 81.5t40 117q0 115 -5 249.5t-14.5 264t-22.5 228.5zM162 1128q-23 66 7.5 130.5t96.5 88.5
t130 -7t88 -97q38 -106 62 -188.5t39.5 -157.5t26.5 -158t21 -191q6 -70 -40 -125t-117 -61q-70 -6 -124.5 40t-60.5 116q-9 96 -18 169t-22.5 138.5t-34.5 137.5t-54 165z" />
    <glyph glyph-name="uniFEF7" unicode="&#xfedf;&#xfe84;" horiz-adv-x="1272" arabic-form="isolated" 
d="M44 1435q-11 29 4 60.5t46 41.5l76 26q-58 64 -58 166q0 103 65.5 170.5t188.5 67.5q36 0 66 -5q33 -5 53.5 -30.5t17.5 -55.5q-4 -31 -29.5 -53.5t-57.5 -17.5q-14 2 -27 2q-64 0 -92.5 -25t-28.5 -64q0 -74 94 -74q24 0 49.5 6t88.5 28q33 11 64 -6.5t38 -50.5
q7 -30 -8 -57.5t-42 -35.5l-406 -143q-30 -10 -60.5 4.5t-41.5 45.5zM36 77q6 71 61.5 117.5t124.5 38.5q72 -8 126 -12t109 -4q163 0 257 29.5t134 81.5t40 117q0 115 -5 249.5t-14.5 264t-22.5 228.5q-9 69 34.5 126t113.5 66t126.5 -35t65.5 -113q15 -112 25 -248.5
t15.5 -276t5.5 -261.5q0 -160 -87 -288t-269.5 -202.5t-467.5 -74.5q-55 0 -104 2.5t-112 9.5q-70 8 -116 61.5t-40 123.5zM162 1128q-23 66 7.5 130.5t96.5 88.5t130 -7t88 -97q38 -106 62 -188.5t39.5 -157.5t26.5 -158t21 -191q6 -70 -40 -125t-117 -61q-70 -6 -124.5 40
t-60.5 116q-9 96 -18 169t-22.5 138.5t-34.5 137.5t-54 165z" />
    <glyph glyph-name="uniFEF8" unicode="&#xfee0;&#xfe84;" horiz-adv-x="1441" arabic-form="final" 
d="M44 1435q-11 29 4 60.5t46 41.5l76 26q-58 64 -58 166q0 103 65.5 170.5t188.5 67.5q36 0 66 -5q33 -5 53.5 -30.5t17.5 -55.5q-4 -31 -29.5 -53.5t-57.5 -17.5q-14 2 -27 2q-64 0 -92.5 -25t-28.5 -64q0 -74 94 -74q24 0 49.5 6t88.5 28q33 11 64 -6.5t38 -50.5
q7 -30 -8 -57.5t-42 -35.5l-406 -143q-30 -10 -60.5 4.5t-41.5 45.5zM846 1187q-9 69 34.5 126t113.5 66t126.5 -35t65.5 -113q15 -112 25 -248.5t15.5 -276t5.5 -261.5q0 -127 53 -178t155 -51h1q71 0 120.5 -50t49.5 -121q0 -70 -49.5 -120.5t-120.5 -50.5h-1
q-114 0 -219.5 43.5t-183.5 127.5q-101 -77 -257.5 -121t-371.5 -44q-55 0 -104 2.5t-112 9.5q-70 8 -116 61.5t-40 123.5q6 71 61.5 117.5t124.5 38.5q72 -8 126 -12t109 -4q163 0 257 29.5t134 81.5t40 117q0 115 -5 249.5t-14.5 264t-22.5 228.5zM162 1128
q-23 66 7.5 130.5t96.5 88.5t130 -7t88 -97q38 -106 62 -188.5t39.5 -157.5t26.5 -158t21 -191q6 -70 -40 -125t-117 -61q-70 -6 -124.5 40t-60.5 116q-9 96 -18 169t-22.5 138.5t-34.5 137.5t-54 165z" />
    <glyph glyph-name="uniFEF9" unicode="&#xfedf;&#xfe88;" horiz-adv-x="1272" arabic-form="isolated" 
d="M44 -739q-11 29 4 60.5t46 41.5l76 26q-58 64 -58 166q0 103 65.5 170.5t188.5 67.5q36 0 66 -5q33 -5 53.5 -30.5t17.5 -55.5q-4 -31 -29.5 -53.5t-57.5 -17.5q-14 2 -27 2q-64 0 -92.5 -25t-28.5 -64q0 -74 94 -74q24 0 49.5 6t88.5 28q33 11 64 -6.5t38 -50.5
q7 -30 -8 -57.5t-42 -35.5l-406 -143q-30 -10 -60.5 4.5t-41.5 45.5zM36 77q6 71 61.5 117.5t124.5 38.5q72 -8 126 -12t109 -4q163 0 257 29.5t134 81.5t40 117q0 115 -5 249.5t-14.5 264t-22.5 228.5q-9 69 34.5 126t113.5 66t126.5 -35t65.5 -113q15 -112 25 -248.5
t15.5 -276t5.5 -261.5q0 -160 -87 -288t-269.5 -202.5t-467.5 -74.5q-55 0 -104 2.5t-112 9.5q-70 8 -116 61.5t-40 123.5zM162 1128q-23 66 7.5 130.5t96.5 88.5t130 -7t88 -97q38 -106 62 -188.5t39.5 -157.5t26.5 -158t21 -191q6 -70 -40 -125t-117 -61q-70 -6 -124.5 40
t-60.5 116q-9 96 -18 169t-22.5 138.5t-34.5 137.5t-54 165z" />
    <glyph glyph-name="uniFEFA" unicode="&#xfee0;&#xfe88;" horiz-adv-x="1441" arabic-form="final" 
d="M44 -739q-11 29 4 60.5t46 41.5l76 26q-58 64 -58 166q0 103 65.5 170.5t188.5 67.5q36 0 66 -5q33 -5 53.5 -30.5t17.5 -55.5q-4 -31 -29.5 -53.5t-57.5 -17.5q-14 2 -27 2q-64 0 -92.5 -25t-28.5 -64q0 -74 94 -74q24 0 49.5 6t88.5 28q33 11 64 -6.5t38 -50.5
q7 -30 -8 -57.5t-42 -35.5l-406 -143q-30 -10 -60.5 4.5t-41.5 45.5zM846 1187q-9 69 34.5 126t113.5 66t126.5 -35t65.5 -113q15 -112 25 -248.5t15.5 -276t5.5 -261.5q0 -127 53 -178t155 -51h1q71 0 120.5 -50t49.5 -121q0 -70 -49.5 -120.5t-120.5 -50.5h-1
q-114 0 -219.5 43.5t-183.5 127.5q-101 -77 -257.5 -121t-371.5 -44q-55 0 -104 2.5t-112 9.5q-70 8 -116 61.5t-40 123.5q6 71 61.5 117.5t124.5 38.5q72 -8 126 -12t109 -4q163 0 257 29.5t134 81.5t40 117q0 115 -5 249.5t-14.5 264t-22.5 228.5zM162 1128
q-23 66 7.5 130.5t96.5 88.5t130 -7t88 -97q38 -106 62 -188.5t39.5 -157.5t26.5 -158t21 -191q6 -70 -40 -125t-117 -61q-70 -6 -124.5 40t-60.5 116q-9 96 -18 169t-22.5 138.5t-34.5 137.5t-54 165z" />
    <glyph glyph-name="uniFEFB" unicode="&#xfedf;&#xfe8e;" horiz-adv-x="1272" arabic-form="isolated" 
d="M36 77q6 71 61.5 117.5t124.5 38.5q72 -8 126 -12t109 -4q163 0 257 29.5t134 81.5t40 117q0 115 -5 249.5t-14.5 264t-22.5 228.5q-9 69 34.5 126t113.5 66t126.5 -35t65.5 -113q15 -112 25 -248.5t15.5 -276t5.5 -261.5q0 -160 -87 -288t-269.5 -202.5t-467.5 -74.5
q-55 0 -104 2.5t-112 9.5q-70 8 -116 61.5t-40 123.5zM162 1128q-23 66 7.5 130.5t96.5 88.5t130 -7t88 -97q38 -106 62 -188.5t39.5 -157.5t26.5 -158t21 -191q6 -70 -40 -125t-117 -61q-70 -6 -124.5 40t-60.5 116q-9 96 -18 169t-22.5 138.5t-34.5 137.5t-54 165z" />
    <glyph glyph-name="uniFEFC" unicode="&#xfee0;&#xfe8e;" horiz-adv-x="1441" arabic-form="final" 
d="M846 1187q-9 69 34.5 126t113.5 66t126.5 -35t65.5 -113q15 -112 25 -248.5t15.5 -276t5.5 -261.5q0 -127 53 -178t155 -51h1q71 0 120.5 -50t49.5 -121q0 -70 -49.5 -120.5t-120.5 -50.5h-1q-114 0 -219.5 43.5t-183.5 127.5q-101 -77 -257.5 -121t-371.5 -44
q-55 0 -104 2.5t-112 9.5q-70 8 -116 61.5t-40 123.5q6 71 61.5 117.5t124.5 38.5q72 -8 126 -12t109 -4q163 0 257 29.5t134 81.5t40 117q0 115 -5 249.5t-14.5 264t-22.5 228.5zM162 1128q-23 66 7.5 130.5t96.5 88.5t130 -7t88 -97q38 -106 62 -188.5t39.5 -157.5
t26.5 -158t21 -191q6 -70 -40 -125t-117 -61q-70 -6 -124.5 40t-60.5 116q-9 96 -18 169t-22.5 138.5t-34.5 137.5t-54 165z" />
    <glyph glyph-name="uni0695.fina" unicode="&#x695;" horiz-adv-x="947" 
d="M640 -716q30 -19 38.5 -55t-10.5 -67l-166 -270q-13 -21 -42 -29t-58.5 -2t-44.5 24l-192 241q-22 28 -18 65.5t32 59.5t65 18t59 -33l115 -142l98 162q19 30 56 38.5t68 -10.5zM375 445q-16 44 -2 87t49 75.5t81 43.5q24 6 49 4q59 -3 101.5 -41t54.5 -87l2 -6
q48 -172 106.5 -238.5t129.5 -66.5h1q71 0 120.5 -50t49.5 -121q0 -70 -49.5 -120.5t-120.5 -50.5h-1q-54 0 -105.5 16.5t-99.5 45.5q-46 -228 -187.5 -374.5t-338.5 -212.5q-76 -25 -138 12.5t-80 98.5q-23 80 14 137.5t94 76.5q148 50 232 160.5t84 305.5q0 131 -43 297
q-1 4 -3 8z" />
    <glyph glyph-name="uni06A4.init" unicode="&#x6a4;" horiz-adv-x="924" arabic-form="initial" 
d="M222 1778q0 60 44 107t111 47q50 0 84 -21t53 -52q25 -41 25 -81q0 -31 -13.5 -68t-48 -63.5t-97.5 -26.5q-64 0 -97.5 26.5t-47.5 62.5q-13 33 -13 69zM52 1464q0 60 44 107t111 47q50 0 84 -20.5t53 -51.5q25 -41 25 -82q0 -31 -13.5 -68t-48 -63.5t-97.5 -26.5
q-64 0 -97.5 27t-47.5 63q-13 33 -13 68zM394 1464q0 60 44 107t111 47q50 0 84 -20.5t53 -51.5q25 -41 25 -82q0 -31 -13.5 -68t-48 -63.5t-97.5 -26.5q-64 0 -97.5 27t-47.5 63q-13 33 -13 68zM-171 45q0 71 50.5 121t120.5 50q218 0 338.5 11.5t175.5 48.5q18 12 31 28
q-50 -6 -98 -6q-214 0 -322 89t-108 284q0 160 55.5 282t149 190.5t207.5 68.5q143 0 250.5 -90.5t167.5 -258.5t60 -401q0 -135 -35 -240.5t-117 -176.5q-107 -93 -295.5 -132t-459.5 -39q-70 0 -120.5 50.5t-50.5 120.5zM325 714q0 -103 123 -103q34 0 65.5 6t57.5 13h1
q-15 132 -52 184.5t-83 52.5q-43 0 -77.5 -41t-34.5 -112z" />
    <glyph glyph-name="uni06A4.medi" unicode="&#x6a4;" horiz-adv-x="944" arabic-form="medial" 
d="M277 1504q0 60 44 107t111 47q50 0 84 -21t53 -52q25 -41 25 -81q0 -31 -13.5 -68t-48 -63.5t-97.5 -26.5q-64 0 -97.5 26.5t-47.5 62.5q-13 33 -13 69zM107 1190q0 60 44 107t111 47q50 0 84 -20.5t53 -51.5q25 -41 25 -82q0 -31 -13.5 -68t-48 -63.5t-97.5 -26.5
q-64 0 -97.5 27t-47.5 63q-13 33 -13 68zM449 1190q0 60 44 107t111 47q50 0 84 -20.5t53 -51.5q25 -41 25 -82q0 -31 -13.5 -68t-48 -63.5t-97.5 -26.5q-64 0 -97.5 27t-47.5 63q-13 33 -13 68zM-171 45q0 71 50.5 121t120.5 50q66 0 123 3q-48 60 -74 126t-26 135
q0 133 58.5 241.5t160 172.5t229.5 64t230 -64t161 -172.5t59 -241.5q0 -69 -26 -135t-73 -126q56 -3 121 -3h1q71 0 120.5 -50t49.5 -121q0 -70 -49.5 -120.5t-120.5 -50.5h-1q-126 0 -245.5 25t-224.5 69q-106 -44 -226 -69t-247 -25q-70 0 -120.5 50.5t-50.5 120.5z
M365 480q0 -119 107 -183q107 64 107 183q0 59 -28 96.5t-80 37.5t-79 -37.5t-27 -96.5z" />
    <glyph glyph-name="uni06A4.fina" unicode="&#x6a4;" horiz-adv-x="1857" arabic-form="final" 
d="M1217 1504q0 60 44 107t111 47q50 0 84 -21t53 -52q25 -41 25 -81q0 -31 -13.5 -68t-48 -63.5t-97.5 -26.5q-64 0 -97.5 26.5t-47.5 62.5q-13 33 -13 69zM1047 1190q0 60 44 107t111 47q50 0 84 -20.5t53 -51.5q25 -41 25 -82q0 -31 -13.5 -68t-48 -63.5t-97.5 -26.5
q-64 0 -97.5 27t-47.5 63q-13 33 -13 68zM1389 1190q0 60 44 107t111 47q50 0 84 -20.5t53 -51.5q25 -41 25 -82q0 -31 -13.5 -68t-48 -63.5t-97.5 -26.5q-64 0 -97.5 27t-47.5 63q-13 33 -13 68zM19 377q0 72 11.5 147.5t45.5 139.5q32 63 100 85.5t131 -9.5
q127 -64 76 -231l-5 -24t-10 -55t-5 -53q0 -60 28.5 -103t114.5 -65.5t258 -22.5q163 0 287 14q-56 65 -87 136.5t-31 146.5q0 133 59 241t161.5 172.5t230.5 64.5t229.5 -64.5t161 -173t59.5 -241.5q0 -136 -98 -263q56 -3 120 -3h1q71 0 120.5 -50t49.5 -121
q0 -70 -49.5 -120.5t-120.5 -50.5h-1q-124 0 -242.5 24.5t-223.5 68.5q-131 -58 -289.5 -90.5t-336.5 -32.5q-79 0 -178 7.5t-198.5 34t-183 84t-134.5 156.5t-51 251zM1275 483q0 -121 112 -186q105 69 105 185q0 59 -28 97t-80 38q-53 0 -81 -38t-28 -96z" />
    <glyph glyph-name="uni06AA.init" unicode="&#x6aa;" horiz-adv-x="1059" 
d="M0 216q105 0 224.5 1.5t226.5 7t174.5 17.5t67.5 34q0 23 -60.5 51t-159 58t-213.5 57t-224 48q-52 10 -85.5 45.5t-44.5 83.5t6 97t66 86l600 451q59 44 127.5 32t108.5 -62q47 -60 32.5 -132.5t-64.5 -110.5l-318 -240q87 -24 187.5 -58t189.5 -85.5t146 -129
t57 -189.5q0 -120 -68.5 -196.5t-182 -119t-251 -61.5t-279 -23t-263.5 -4q-70 0 -120 50.5t-50 120.5q0 71 50 121t120 50z" />
    <glyph glyph-name="uni06AA.medi" unicode="&#x6aa;" horiz-adv-x="1266" 
d="M0 216q105 0 224.5 1.5t226.5 7t174.5 17.5t67.5 34q0 23 -60.5 51t-159 58t-213.5 57t-224 48q-52 10 -85.5 45.5t-44.5 83.5t6 97t66 86l600 451q59 44 127.5 32t108.5 -62q47 -60 32.5 -132.5t-64.5 -110.5l-318 -240q85 -24 184 -56.5t187.5 -82.5t144.5 -125
q8 -10 13 -20q11 -16 19 -33q58 -101 119 -154.5t134 -53.5h1q73 0 121.5 -49t48.5 -121q0 -73 -49 -121.5t-121 -48.5h-1q-102 0 -192 38.5t-168 107.5q-79 -55 -188.5 -85t-234.5 -43t-249.5 -16t-232.5 -3q-70 0 -120 50.5t-50 120.5q0 71 50 121t120 50z" />
    <glyph glyph-name="uni06AA.fina" unicode="&#x6aa;" horiz-adv-x="1941" 
d="M1131 740q85 -24 184 -56.5t187.5 -82.5t144.5 -125q8 -10 13 -20q10 -16 18 -32q59 -101 124 -155t138 -54h1q73 0 121.5 -49t48.5 -121q0 -73 -49 -121.5t-121 -48.5h-1q-99 0 -187.5 35.5t-165.5 100.5q-70 -57 -167.5 -90.5t-210 -50.5t-228.5 -22.5t-224 -5.5
q-163 0 -320.5 13t-281.5 43q-78 19 -109.5 77t-15.5 130q15 66 74.5 104t142.5 18q93 -22 236 -32.5t284 -10.5q105 0 209.5 6t191.5 18t139.5 29t52.5 39q0 23 -60.5 51t-159 58t-213.5 57t-224 48q-52 10 -85.5 45.5t-44.5 83.5t6 97t66 86l600 451q59 44 127.5 32
t108.5 -62q47 -60 32.5 -132.5t-64.5 -110.5z" />
    <glyph glyph-name="uni06B5.init" unicode="&#x6b5;" horiz-adv-x="494" 
d="M453 1958q30 -19 38.5 -55t-10.5 -67l-166 -270q-13 -21 -42 -29t-58.5 -2t-44.5 24l-192 241q-22 28 -18 65.5t32 59.5t65 18t59 -33l115 -142l98 162q19 30 56 38.5t68 -10.5zM-171 45q0 71 50.5 121t120.5 50q65 0 98 79.5t33 254.5q0 56 -5.5 135t-17.5 200.5
t-33 302.5q-8 70 34.5 127t112.5 66t127 -34t66 -113q27 -209 39 -355.5t12 -265.5q0 -268 -47 -430.5t-149.5 -235.5t-269.5 -73q-70 0 -120.5 50.5t-50.5 120.5z" />
    <glyph glyph-name="uni06B5.medi" unicode="&#x6b5;" horiz-adv-x="674" 
d="M503 1958q30 -19 38.5 -55t-10.5 -67l-166 -270q-13 -21 -42 -29t-58.5 -2t-44.5 24l-192 241q-22 28 -18 65.5t32 59.5t65 18t59 -33l115 -142l98 162q19 30 56 38.5t68 -10.5zM-171 45q0 71 50.5 121t120.5 50q75 0 110 9.5t45.5 42.5t10.5 101q0 152 -5.5 286.5
t-15 265.5t-23.5 274q-7 71 39 125.5t116 61.5t125 -38.5t62 -116.5q20 -213 31.5 -411t12.5 -429q1 -9 1 -18q0 -94 33 -123.5t131 -29.5h1q71 0 120.5 -50t49.5 -121q0 -70 -49.5 -120.5t-120.5 -50.5h-1q-92 0 -178.5 27.5t-154.5 81.5q-136 -109 -340 -109
q-70 0 -120.5 50.5t-50.5 120.5z" />
    <glyph glyph-name="uni06B5.fina" unicode="&#x6b5;" horiz-adv-x="1448" 
d="M1242 1958q30 -19 38.5 -55t-10.5 -67l-166 -270q-13 -21 -42 -29t-58.5 -2t-44.5 24l-192 241q-22 28 -18 65.5t32 59.5t65 18t59 -33l115 -142l98 162q19 30 56 38.5t68 -10.5zM19 -37q0 125 33.5 225.5t79.5 191.5q31 63 99.5 85t131.5 -9t85 -99t-9 -131
q-29 -59 -52.5 -127t-23.5 -136q0 -106 67.5 -166t187.5 -60q175 0 239.5 100t64.5 311q0 254 -13.5 506.5t-34.5 544.5q-4 71 42.5 125t116.5 58q71 5 125 -41.5t58 -117.5q15 -215 27.5 -409.5t18.5 -386.5q4 -72 13.5 -119t46.5 -69.5t125 -22.5h1q71 0 120.5 -50
t49.5 -121q0 -70 -49.5 -120.5t-120.5 -50.5h-1q-108 0 -206 46q-32 -138 -107.5 -258.5t-202.5 -194.5t-313 -74q-116 0 -223.5 40.5t-192 116t-134 180.5t-49.5 233z" />
    <glyph glyph-name="uni06CA.fina" unicode="&#x6ca;" horiz-adv-x="951" 
d="M109 1069q0 63 46.5 112.5t116.5 49.5q52 0 88 -22t56 -54q26 -41 26 -86q0 -33 -14 -71.5t-50.5 -66.5t-102.5 -28q-68 0 -103.5 28.5t-49.5 65.5q-13 35 -13 72zM469 1069q0 63 46.5 112.5t116.5 49.5q52 0 88 -22t56 -54q26 -41 26 -86q0 -33 -14 -71.5t-50.5 -66.5
t-102.5 -28q-68 0 -103.5 28.5t-49.5 65.5q-13 35 -13 72zM474 -126q-214 0 -327.5 103.5t-113.5 302.5q0 144 58.5 259t155.5 181.5t213 66.5q129 0 230 -74.5t161 -204t68 -292.5h32q71 0 120.5 -50t49.5 -121q0 -70 -49.5 -120.5t-120.5 -50.5h-90q-56 -138 -156 -247.5
t-227 -181.5t-265 -98q-68 -13 -127.5 28t-72.5 110t28.5 125t108.5 75q109 31 190.5 79.5t136.5 109.5h-3zM471 216h116q-6 60 -23.5 114.5t-45.5 89.5t-66 35q-40 0 -70 -37t-30 -106q0 -55 29.5 -75.5t89.5 -20.5z" />
    <glyph glyph-name="uni06CE.init" unicode="&#x6ce;" horiz-adv-x="560" 
d="M-242 -452q0 63 46.5 112.5t116.5 49.5q52 0 88 -22t56 -54q26 -41 26 -86q0 -33 -14 -71.5t-50.5 -66.5t-102.5 -28q-68 0 -103.5 28.5t-49.5 65.5q-13 35 -13 72zM118 -452q0 63 46.5 112.5t116.5 49.5q52 0 88 -22t56 -54q26 -41 26 -86q0 -33 -14 -71.5t-50.5 -66.5
t-102.5 -28q-68 0 -103.5 28.5t-49.5 65.5q-13 35 -13 72zM479 1264q30 -19 38.5 -55t-10.5 -67l-166 -270q-13 -21 -42 -29t-58.5 -2t-44.5 24l-192 241q-22 28 -18 65.5t32 59.5t65 18t59 -33l115 -142l98 162q19 30 56 38.5t68 -10.5zM-171 45q0 71 50.5 121t120.5 50
q113 0 156 30t43 117q0 34 -3.5 78t-10.5 99q-8 70 35 126.5t113 65.5t125.5 -34t66.5 -113q21 -134 21 -224q0 -226 -140.5 -356.5t-405.5 -130.5q-70 0 -120.5 50.5t-50.5 120.5z" />
    <glyph glyph-name="uni06CE.medi" unicode="&#x6ce;" horiz-adv-x="811" 
d="M-242 -452q0 63 46.5 112.5t116.5 49.5q52 0 88 -22t56 -54q26 -41 26 -86q0 -33 -14 -71.5t-50.5 -66.5t-102.5 -28q-68 0 -103.5 28.5t-49.5 65.5q-13 35 -13 72zM118 -452q0 63 46.5 112.5t116.5 49.5q52 0 88 -22t56 -54q26 -41 26 -86q0 -33 -14 -71.5t-50.5 -66.5
t-102.5 -28q-68 0 -103.5 28.5t-49.5 65.5q-13 35 -13 72zM485 1173q30 -19 38.5 -55t-10.5 -67l-166 -270q-13 -21 -42 -29t-58.5 -2t-44.5 24l-192 241q-22 28 -18 65.5t32 59.5t65 18t59 -33l115 -142l98 162q19 30 56 38.5t68 -10.5zM-172 45q0 71 51 121t121 50
q121 0 175.5 26t71 86.5t22.5 163.5q5 79 58.5 123t125.5 39q71 -4 117.5 -58.5t41.5 -123.5q-13 -138 32 -197t166 -59h1q71 0 120.5 -50t49.5 -121q0 -70 -49.5 -120.5t-120.5 -50.5h-1q-117 0 -213 41.5t-161 138.5q-85 -106 -193 -143t-243 -37q-70 0 -121 50.5
t-51 120.5z" />
    <glyph glyph-name="uni06CE.fina" unicode="&#x6ce;" horiz-adv-x="1390" 
d="M1071 780q30 -19 38.5 -55t-10.5 -67l-166 -270q-13 -21 -42 -29t-58.5 -2t-44.5 24l-192 241q-22 28 -18 65.5t32 59.5t65 18t59 -33l115 -142l98 162q19 30 56 38.5t68 -10.5zM17 -84q0 150 28 277.5t86 284.5q24 66 89 96t131 6t96 -89t6 -131q-92 -255 -92 -435
q0 -149 88 -206t266 -57q148 0 236 29.5t88 76.5q0 38 -71.5 64.5t-204.5 42.5q-60 8 -102.5 52t-47.5 105q-6 74 45.5 129t125.5 55h606q71 0 120.5 -50t49.5 -121q0 -70 -49.5 -120.5t-120.5 -50.5h-62q35 -87 35 -162q0 -109 -85 -198.5t-234 -142.5t-342 -53
q-205 0 -359.5 74t-240 208.5t-85.5 315.5z" />
    <glyph glyph-name="uniFB51" unicode="&#x671;" horiz-adv-x="574" arabic-form="final" 
d="M515 1874q87 0 144.5 -55t57.5 -141q0 -99 -70 -151.5t-157 -52.5q-50 0 -87.5 10.5t-69.5 25.5q-6 -10 -12.5 -20.5t-12.5 -21.5q-13 -25 -39.5 -41t-60.5 -5q-28 9 -48 41t-2 65l10 18l10 18q-11 1 -22 1q-36 0 -65.5 -39t-49.5 -71q-16 -27 -50 -35t-63 11
q-25 18 -31.5 48.5t9.5 59.5q23 38 55.5 81.5t80 74t114.5 30.5q30 0 56.5 -5.5t50.5 -13.5q51 73 111.5 120.5t140.5 47.5zM509 1714q-23 0 -45.5 -18t-46.5 -50q44 -12 87 -12q13 0 33 7.5t20 32.5q0 40 -48 40zM75 374q0 135 2 253.5t2 245t-7 282.5q-2 71 46 123.5
t118 55.5t123 -45.5t56 -119.5q7 -153 7 -280.5t-2.5 -249.5t-2.5 -260q0 -90 35.5 -126.5t120.5 -36.5h1q71 0 120.5 -50t49.5 -121q0 -70 -49.5 -120.5t-120.5 -50.5h-1q-150 0 -262 50t-174 160t-62 290z" />
    <glyph glyph-name="uniFB57" unicode="&#x67e;" horiz-adv-x="1937" arabic-form="final" 
d="M19 414q0 63 12 128t33 132t84 100t130 12t100 -84t12 -130q-15 -48 -21 -88t-6 -70q0 -63 29.5 -115t111.5 -82.5t238 -30.5q222 0 364 44t219.5 131.5t103.5 217.5q12 62 63.5 103t121.5 33q67 -7 113 -60t41 -121q-2 -34 -3.5 -65t-1.5 -60q0 -88 37 -140.5t136 -52.5
h1q71 0 120.5 -50t49.5 -121q0 -70 -49.5 -120.5t-120.5 -50.5h-1q-134 0 -227.5 66t-141.5 177q-106 -103 -239.5 -162.5t-282.5 -85t-303 -25.5q-197 0 -361.5 63.5t-263 190t-98.5 316.5zM472 -409q0 60 44 107t111 47q50 0 84 -20.5t53 -51.5q25 -41 25 -82
q0 -31 -13.5 -68t-48 -63.5t-97.5 -26.5q-64 0 -97.5 27t-47.5 63q-13 33 -13 68zM814 -409q0 60 44 107t111 47q50 0 84 -20.5t53 -51.5q25 -41 25 -82q0 -31 -13.5 -68t-48 -63.5t-97.5 -26.5q-64 0 -97.5 27t-47.5 63q-13 33 -13 68zM642 -708q0 60 44 107t111 47
q50 0 84 -21t53 -52q25 -41 25 -81q0 -31 -13.5 -68t-48 -63.5t-97.5 -26.5q-64 0 -97.5 26.5t-47.5 62.5q-13 33 -13 69z" />
    <glyph glyph-name="uniFB58" unicode="&#x67e;" horiz-adv-x="560" arabic-form="initial" 
d="M-171 45q0 71 50.5 121t120.5 50q113 0 156 30t43 117q0 34 -3.5 78t-10.5 99q-8 70 35 126.5t113 65.5t125.5 -34t66.5 -113q21 -134 21 -224q0 -226 -140.5 -356.5t-405.5 -130.5q-70 0 -120.5 50.5t-50.5 120.5zM-227 -400q0 60 44 107t111 47q50 0 84 -20.5t53 -51.5
q25 -41 25 -82q0 -31 -13.5 -68t-48 -63.5t-97.5 -26.5q-64 0 -97.5 27t-47.5 63q-13 33 -13 68zM115 -400q0 60 44 107t111 47q50 0 84 -20.5t53 -51.5q25 -41 25 -82q0 -31 -13.5 -68t-48 -63.5t-97.5 -26.5q-64 0 -97.5 27t-47.5 63q-13 33 -13 68zM-57 -699q0 60 44 107
t111 47q50 0 84 -21t53 -52q25 -41 25 -81q0 -31 -13.5 -68t-48 -63.5t-97.5 -26.5q-64 0 -97.5 26.5t-47.5 62.5q-13 33 -13 69z" />
    <glyph glyph-name="uniFB59" unicode="&#x67e;" horiz-adv-x="811" arabic-form="medial" 
d="M-172 45q0 71 51 121t121 50q121 0 175.5 26t71 86.5t22.5 163.5q5 79 58.5 123t125.5 39q71 -4 117.5 -58.5t41.5 -123.5q-13 -138 32 -197t166 -59h1q71 0 120.5 -50t49.5 -121q0 -70 -49.5 -120.5t-120.5 -50.5h-1q-117 0 -213 41.5t-161 138.5q-85 -106 -193 -143
t-243 -37q-70 0 -121 50.5t-51 120.5zM-227 -400q0 60 44 107t111 47q50 0 84 -20.5t53 -51.5q25 -41 25 -82q0 -31 -13.5 -68t-48 -63.5t-97.5 -26.5q-64 0 -97.5 27t-47.5 63q-13 33 -13 68zM115 -400q0 60 44 107t111 47q50 0 84 -20.5t53 -51.5q25 -41 25 -82
q0 -31 -13.5 -68t-48 -63.5t-97.5 -26.5q-64 0 -97.5 27t-47.5 63q-13 33 -13 68zM-57 -699q0 60 44 107t111 47q50 0 84 -21t53 -52q25 -41 25 -81q0 -31 -13.5 -68t-48 -63.5t-97.5 -26.5q-64 0 -97.5 26.5t-47.5 62.5q-13 33 -13 69z" />
    <glyph glyph-name="uniFB67" unicode="&#x679;" horiz-adv-x="1937" arabic-form="final" 
d="M574 656q4 32 29.5 51.5t56.5 14.5q23 -3 45 -5q2 9 6 17q12 26 26 50q0 5 1 9q3 23 4 48.5t1 56.5q0 67 -5 132t-10 102q-4 31 16.5 55.5t48.5 28.5q35 5 60 -16.5t29 -52.5q6 -37 11 -90t5 -99v-8q64 36 132 36q84 0 137 -51.5t53 -139.5q0 -90 -53 -142.5t-141 -75
t-195 -22.5q-88 0 -191 14q-31 5 -50.5 30.5t-15.5 56.5zM1011 831q-78 0 -148 -122q44 0 91 5t79.5 20t32.5 46q0 17 -14.5 34t-40.5 17zM19 414q0 63 12 128t33 132t84 100t130 12t100 -84t12 -130q-15 -48 -21 -88t-6 -70q0 -63 29.5 -115t111.5 -82.5t238 -30.5
q222 0 364 44t219.5 131.5t103.5 217.5q12 62 63.5 103t121.5 33q67 -7 113 -60t41 -121q-2 -34 -3.5 -65t-1.5 -60q0 -88 37 -140.5t136 -52.5h1q71 0 120.5 -50t49.5 -121q0 -70 -49.5 -120.5t-120.5 -50.5h-1q-134 0 -227.5 66t-141.5 177q-106 -103 -239.5 -162.5
t-282.5 -85t-303 -25.5q-197 0 -361.5 63.5t-263 190t-98.5 316.5z" />
    <glyph glyph-name="uniFB68" unicode="&#x679;" horiz-adv-x="560" arabic-form="initial" 
d="M-70 952q4 32 29.5 51.5t56.5 14.5q23 -3 45 -5q2 9 6 17q12 26 26 50q0 5 1 9q3 23 4 48.5t1 56.5q0 67 -5 132t-10 102q-4 31 16.5 55.5t48.5 28.5q35 5 60 -16.5t29 -52.5q6 -37 11 -90t5 -99v-8q64 36 132 36q84 0 137 -51.5t53 -139.5q0 -90 -53 -142.5t-141 -75
t-195 -22.5q-88 0 -191 14q-31 5 -50.5 30.5t-15.5 56.5zM367 1127q-78 0 -148 -122q44 0 91 5t79.5 20t32.5 46q0 17 -14.5 34t-40.5 17zM-171 45q0 71 50.5 121t120.5 50q113 0 156 30t43 117q0 34 -3.5 78t-10.5 99q-8 70 35 126.5t113 65.5t125.5 -34t66.5 -113
q21 -134 21 -224q0 -226 -140.5 -356.5t-405.5 -130.5q-70 0 -120.5 50.5t-50.5 120.5z" />
    <glyph glyph-name="uniFB69" unicode="&#x679;" horiz-adv-x="811" arabic-form="medial" 
d="M12 864q4 32 29.5 51.5t56.5 14.5q23 -3 45 -5q2 9 6 17q12 26 26 50q0 5 1 9q3 23 4 48.5t1 56.5q0 67 -5 132t-10 102q-4 31 16.5 55.5t48.5 28.5q35 5 60 -16.5t29 -52.5q6 -37 11 -90t5 -99v-8q64 36 132 36q84 0 137 -51.5t53 -139.5q0 -90 -53 -142.5t-141 -75
t-195 -22.5q-88 0 -191 14q-31 5 -50.5 30.5t-15.5 56.5zM449 1039q-78 0 -148 -122q44 0 91 5t79.5 20t32.5 46q0 17 -14.5 34t-40.5 17zM-172 45q0 71 51 121t121 50q121 0 175.5 26t71 86.5t22.5 163.5q5 79 58.5 123t125.5 39q71 -4 117.5 -58.5t41.5 -123.5
q-13 -138 32 -197t166 -59h1q71 0 120.5 -50t49.5 -121q0 -70 -49.5 -120.5t-120.5 -50.5h-1q-117 0 -213 41.5t-161 138.5q-85 -106 -193 -143t-243 -37q-70 0 -121 50.5t-51 120.5z" />
    <glyph glyph-name="uniFB7B" unicode="&#x686;" horiz-adv-x="1392" arabic-form="final" 
d="M406 961q75 0 157.5 -31t173 -77.5t192 -93t215.5 -76.5q153 -42 153 -176q0 -54 -37.5 -97t-104.5 -68q19 -55 44 -82t70 -35.5t122 -8.5h1q71 0 120.5 -50t49.5 -121q0 -70 -49.5 -120.5t-120.5 -50.5h-1q-450 0 -565 378q-227 -78 -349.5 -185.5t-122.5 -232.5
q0 -110 93 -173.5t253 -63.5q162 0 357 71q69 25 132 0.5t88 -86.5q27 -64 0.5 -130.5t-90.5 -95.5q-211 -98 -458 -98q-215 0 -375 71.5t-247.5 202t-87.5 305.5q0 144 66 263t208 223.5t369 205.5q-150 78 -205 78q-52 0 -69 -68q-19 -68 -81 -105t-128 -20
q-67 17 -104.5 79.5t-20.5 129.5q38 155 133.5 246.5t218.5 91.5zM462 -59q0 42 31 75t77 33q35 0 59 -14.5t37 -36.5q18 -29 18 -57q0 -32 -23 -71.5t-89 -39.5q-45 0 -68 19t-33 44q-9 24 -9 48zM701 -59q0 42 31.5 75t77.5 33q35 0 58.5 -14.5t36.5 -36.5q18 -29 18 -57
q0 -32 -22.5 -71.5t-88.5 -39.5q-45 0 -68.5 19t-33.5 44q-9 24 -9 48zM581 -268q0 42 31 75t77 33q35 0 59 -15t37 -37q17 -28 17 -56q0 -32 -22.5 -71.5t-88.5 -39.5q-45 0 -68 18.5t-33 43.5q-9 24 -9 49z" />
    <glyph glyph-name="uniFB7C" unicode="&#x686;" horiz-adv-x="1299" arabic-form="initial" 
d="M388 894q103 0 213 -47.5t213 -100.5q69 -36 157.5 -76t198.5 -87q45 -19 74.5 -63.5t29.5 -93.5q0 -94 -80 -145q-285 -180 -578.5 -293.5t-615.5 -113.5q-71 0 -121.5 51.5t-50.5 119.5t50.5 119.5t121.5 51.5q182 0 363.5 49t362.5 141q-34 17 -68.5 35t-69.5 37
q-52 29 -93.5 48.5t-72.5 19.5q-39 0 -56 -23t-41 -83q-14 -36 -54.5 -64t-92.5 -32.5t-101 27.5q-47 31 -68 92t8 124q41 88 90.5 157.5t117 109.5t163.5 40zM122 -370q0 60 44 107t111 47q50 0 84 -20.5t53 -51.5q25 -41 25 -82q0 -31 -13.5 -68t-48 -63.5t-97.5 -26.5
q-64 0 -97.5 27t-47.5 63q-13 33 -13 68zM464 -370q0 60 44 107t111 47q50 0 84 -20.5t53 -51.5q25 -41 25 -82q0 -31 -13.5 -68t-48 -63.5t-97.5 -26.5q-64 0 -97.5 27t-47.5 63q-13 33 -13 68zM292 -669q0 60 44 107t111 47q50 0 84 -21t53 -52q25 -41 25 -81
q0 -31 -13.5 -68t-48 -63.5t-97.5 -26.5q-64 0 -97.5 26.5t-47.5 62.5q-13 33 -13 69z" />
    <glyph glyph-name="uniFB7D" unicode="&#x686;" horiz-adv-x="1321" arabic-form="medial" 
d="M388 894q103 0 213 -47.5t213 -100.5q69 -36 157.5 -76t198.5 -87q45 -19 74.5 -63.5t29.5 -93.5q0 -94 -80 -145q-24 -15 -47 -29q51 -36 173 -36h1q71 0 120.5 -50t49.5 -121q0 -70 -49.5 -120.5t-120.5 -50.5h-1q-144 0 -272.5 52t-204.5 158q-201 -97 -410.5 -153.5
t-432.5 -56.5q-71 0 -121.5 51.5t-50.5 119.5t50.5 119.5t121.5 51.5q182 0 363.5 49t362.5 141q-34 17 -68.5 35t-69.5 37q-52 29 -93.5 48.5t-72.5 19.5q-39 0 -56 -23t-41 -83q-14 -36 -54.5 -64t-92.5 -32.5t-101 27.5q-47 31 -68 92t8 124q41 88 90.5 157.5t117 109.5
t163.5 40zM184 -370q0 60 44 107t111 47q50 0 84 -20.5t53 -51.5q25 -41 25 -82q0 -31 -13.5 -68t-48 -63.5t-97.5 -26.5q-64 0 -97.5 27t-47.5 63q-13 33 -13 68zM526 -370q0 60 44 107t111 47q50 0 84 -20.5t53 -51.5q25 -41 25 -82q0 -31 -13.5 -68t-48 -63.5
t-97.5 -26.5q-64 0 -97.5 27t-47.5 63q-13 33 -13 68zM354 -669q0 60 44 107t111 47q50 0 84 -21t53 -52q25 -41 25 -81q0 -31 -13.5 -68t-48 -63.5t-97.5 -26.5q-64 0 -97.5 26.5t-47.5 62.5q-13 33 -13 69z" />
    <glyph glyph-name="uniFB89" unicode="&#x688;" horiz-adv-x="1121" arabic-form="final" 
d="M230 1173q4 32 29.5 51.5t56.5 14.5q23 -3 45 -5q2 9 6 17q12 26 26 50q0 5 1 9q3 23 4 48.5t1 56.5q0 67 -5 132t-10 102q-4 31 16.5 55.5t48.5 28.5q35 5 60 -16.5t29 -52.5q6 -37 11 -90t5 -99v-8q64 36 132 36q84 0 137 -51.5t53 -139.5q0 -90 -53 -142.5t-141 -75
t-195 -22.5q-88 0 -191 14q-31 5 -50.5 30.5t-15.5 56.5zM667 1348q-78 0 -148 -122q44 0 91 5t79.5 20t32.5 46q0 17 -14.5 34t-40.5 17zM26 85q19 68 79 100t132 17q41 -7 76 -11.5t77 -4.5q90 0 131.5 15t53 40t11.5 56q0 14 -3 27q-7 19 -14 40q-22 68 -64.5 149.5
t-103.5 178.5q-37 60 -20 129.5t77 106.5t129.5 20t106.5 -77q61 -97 110.5 -188.5t88.5 -206.5q35 -98 65 -155t68 -81t94 -24h1q71 0 120.5 -50t49.5 -121q0 -70 -49.5 -120.5t-120.5 -50.5h-1q-103 0 -181.5 30.5t-137.5 78.5q-83 -76 -196 -107.5t-215 -31.5
q-71 0 -121 6t-125 24q-67 17 -102 80.5t-16 130.5z" />
    <glyph glyph-name="uniFB8B" unicode="&#x698;" horiz-adv-x="947" arabic-form="final" 
d="M375 445q-16 44 -2 87t49 75.5t81 43.5q24 6 49 4q59 -3 101.5 -41t54.5 -87l2 -6q48 -172 106.5 -238.5t129.5 -66.5h1q71 0 120.5 -50t49.5 -121q0 -70 -49.5 -120.5t-120.5 -50.5h-1q-54 0 -105.5 16.5t-99.5 45.5q-46 -228 -187.5 -374.5t-338.5 -212.5
q-76 -25 -138 12.5t-80 98.5q-23 80 14 137.5t94 76.5q148 50 232 160.5t84 305.5q0 131 -43 297q-1 4 -3 8zM354 1225q0 60 44 107t111 47q50 0 84 -21t53 -52q25 -41 25 -81q0 -31 -13.5 -68t-48 -63.5t-97.5 -26.5q-64 0 -97.5 26.5t-47.5 62.5q-13 33 -13 69zM184 911
q0 60 44 107t111 47q50 0 84 -20.5t53 -51.5q25 -41 25 -82q0 -31 -13.5 -68t-48 -63.5t-97.5 -26.5q-64 0 -97.5 27t-47.5 63q-13 33 -13 68zM526 911q0 60 44 107t111 47q50 0 84 -20.5t53 -51.5q25 -41 25 -82q0 -31 -13.5 -68t-48 -63.5t-97.5 -26.5q-64 0 -97.5 27
t-47.5 63q-13 33 -13 68z" />
    <glyph glyph-name="uniFB8D" unicode="&#x691;" horiz-adv-x="947" arabic-form="final" 
d="M187 933q4 32 29.5 51.5t56.5 14.5q23 -3 45 -5q2 9 6 17q12 26 26 50q0 5 1 9q3 23 4 48.5t1 56.5q0 67 -5 132t-10 102q-4 31 16.5 55.5t48.5 28.5q35 5 60 -16.5t29 -52.5q6 -37 11 -90t5 -99v-8q64 36 132 36q84 0 137 -51.5t53 -139.5q0 -90 -53 -142.5t-141 -75
t-195 -22.5q-88 0 -191 14q-31 5 -50.5 30.5t-15.5 56.5zM624 1108q-78 0 -148 -122q44 0 91 5t79.5 20t32.5 46q0 17 -14.5 34t-40.5 17zM375 445q-16 44 -2 87t49 75.5t81 43.5q24 6 49 4q59 -3 101.5 -41t54.5 -87l2 -6q48 -172 106.5 -238.5t129.5 -66.5h1
q71 0 120.5 -50t49.5 -121q0 -70 -49.5 -120.5t-120.5 -50.5h-1q-54 0 -105.5 16.5t-99.5 45.5q-46 -228 -187.5 -374.5t-338.5 -212.5q-76 -25 -138 12.5t-80 98.5q-23 80 14 137.5t94 76.5q148 50 232 160.5t84 305.5q0 131 -43 297q-1 4 -3 8z" />
    <glyph glyph-name="uniFB8F" unicode="&#x6a9;" horiz-adv-x="2019" arabic-form="final" 
d="M16 381q0 170 59 282q31 63 99.5 85.5t131.5 -9.5q127 -64 76 -231q-9 -25 -15.5 -67t-6.5 -74q0 -101 99.5 -141t344.5 -40q243 0 361 34t118 94q0 59 -85 180.5t-228 268.5q-52 54 -78 92t-26 99q0 56 33.5 101.5t92.5 64.5l679 224q84 27 150 -0.5t87 -102.5
q21 -78 -9.5 -134.5t-98.5 -76.5l-481 -143q84 -98 141 -174.5t94 -141.5v-1q71 -125 129 -203t134.5 -114.5t200.5 -36.5h1q71 0 120.5 -50t49.5 -121q0 -70 -49.5 -120.5t-120.5 -50.5h-1q-152 0 -268.5 46t-215.5 134q-92 -103 -274 -156.5t-453 -53.5q-409 0 -600 129
t-191 408z" />
    <glyph glyph-name="uniFB90" unicode="&#x6a9;" horiz-adv-x="1022" arabic-form="initial" 
d="M-172 45q0 71 51 121t121 50q219 0 309 33t90 82q0 72 -85 178.5t-228 253.5q-52 53 -78 90.5t-26 99.5q0 56 33.5 102t93.5 65l679 224q84 27 150 -0.5t87 -102.5q21 -78 -9.5 -134.5t-98.5 -76.5l-481 -143q118 -137 184.5 -227.5t94.5 -163t28 -156.5
q0 -225 -180 -345.5t-563 -120.5q-70 0 -121 50.5t-51 120.5z" />
    <glyph glyph-name="uniFB91" unicode="&#x6a9;" horiz-adv-x="1143" arabic-form="medial" 
d="M-172 45q0 71 51 121t121 50q219 0 309 33t90 82q0 72 -85 178.5t-228 253.5q-52 53 -78 90.5t-26 99.5q0 56 33.5 102t93.5 65l679 224q84 27 150 -0.5t87 -102.5q21 -78 -9.5 -134.5t-98.5 -76.5l-481 -143q85 -99 143 -172t94 -133q4 -6 7 -12q71 -125 128.5 -203
t133.5 -114.5t200 -36.5h1q71 0 120.5 -50t49.5 -121q0 -70 -49.5 -120.5t-120.5 -50.5h-1q-157 0 -276 49t-219 143q-84 -94 -244.5 -143t-402.5 -49q-70 0 -121 50.5t-51 120.5z" />
    <glyph glyph-name="uniFB93" unicode="&#x6af;" horiz-adv-x="2019" arabic-form="final" 
d="M16 381q0 170 59 282q31 63 99.5 85.5t131.5 -9.5q127 -64 76 -231q-9 -25 -15.5 -67t-6.5 -74q0 -101 99.5 -141t344.5 -40q243 0 361 34t118 94q0 59 -85 180.5t-228 268.5q-52 54 -78 92t-26 99q0 56 33.5 101.5t92.5 64.5l679 224q84 27 150 -0.5t87 -102.5
q21 -78 -9.5 -134.5t-98.5 -76.5l-481 -143q84 -98 141 -174.5t94 -141.5v-1q71 -125 129 -203t134.5 -114.5t200.5 -36.5h1q71 0 120.5 -50t49.5 -121q0 -70 -49.5 -120.5t-120.5 -50.5h-1q-152 0 -268.5 46t-215.5 134q-92 -103 -274 -156.5t-453 -53.5q-409 0 -600 129
t-191 408zM861 1338q-16 54 9.5 104t79.5 68l600 192q53 17 103 -9.5t66 -80.5t-9.5 -104t-79.5 -67l-600 -192q-53 -18 -103 8.5t-66 80.5z" />
    <glyph glyph-name="uniFB94" unicode="&#x6af;" horiz-adv-x="1022" arabic-form="initial" 
d="M-172 45q0 71 51 121t121 50q219 0 309 33t90 82q0 72 -85 178.5t-228 253.5q-52 53 -78 90.5t-26 99.5q0 56 33.5 102t93.5 65l679 224q84 27 150 -0.5t87 -102.5q21 -78 -9.5 -134.5t-98.5 -76.5l-481 -143q118 -137 184.5 -227.5t94.5 -163t28 -156.5
q0 -225 -180 -345.5t-563 -120.5q-70 0 -121 50.5t-51 120.5zM-12 1338q-16 54 9.5 104t79.5 68l600 192q53 17 103 -9.5t66 -80.5t-9.5 -104t-79.5 -67l-600 -192q-53 -18 -103 8.5t-66 80.5z" />
    <glyph glyph-name="uniFB95" unicode="&#x6af;" horiz-adv-x="1143" arabic-form="medial" 
d="M-172 45q0 71 51 121t121 50q219 0 309 33t90 82q0 72 -85 178.5t-228 253.5q-52 53 -78 90.5t-26 99.5q0 56 33.5 102t93.5 65l679 224q84 27 150 -0.5t87 -102.5q21 -78 -9.5 -134.5t-98.5 -76.5l-481 -143q85 -99 143 -172t94 -133q4 -6 7 -12q71 -125 128.5 -203
t133.5 -114.5t200 -36.5h1q71 0 120.5 -50t49.5 -121q0 -70 -49.5 -120.5t-120.5 -50.5h-1q-157 0 -276 49t-219 143q-84 -94 -244.5 -143t-402.5 -49q-70 0 -121 50.5t-51 120.5zM-12 1338q-16 54 9.5 104t79.5 68l600 192q53 17 103 -9.5t66 -80.5t-9.5 -104t-79.5 -67
l-600 -192q-53 -18 -103 8.5t-66 80.5z" />
    <glyph glyph-name="uniFB9F" unicode="&#x6ba;" horiz-adv-x="1526" arabic-form="final" 
d="M714 -596q-206 0 -363 79t-244.5 216t-87.5 310q0 108 23.5 225t62.5 220q26 65 91 95t130 4q65 -25 95 -90.5t4 -130.5q-26 -67 -44 -146.5t-18 -144.5q0 -139 89 -217t264 -78t271 78t96 223q0 48 -10 100.5t-28 106.5q-9 23 -16 46l-1 3q-12 32 -27 67q-28 65 -1 131
t91 94q65 28 131.5 1t94.5 -92q20 -46 36 -92q3 -7 5 -14v-1q6 -17 11 -33q24 -67 58.5 -107.5t97.5 -40.5h1q71 0 120.5 -50t49.5 -121q0 -70 -49.5 -120.5t-120.5 -50.5h-1q-54 0 -111 18q-30 -144 -127 -254t-244 -172t-329 -62z" />
    <glyph glyph-name="uniFBA7" unicode="&#x6c1;" horiz-adv-x="987" arabic-form="final" 
d="M987 216q72 0 121 -49.5t49 -121.5t-49 -121.5t-121 -49.5h-1q-134 0 -241.5 77t-196.5 238q-25 47 -38.5 63.5t-24.5 16.5q-20 0 -41 -55t-39.5 -151t-30.5 -219q-6 -61 -54.5 -102t-114.5 -41q-80 0 -130.5 59.5t-37.5 138.5q62 383 173.5 586t259.5 203
q92 0 159 -58.5t141 -203.5q61 -118 108 -164t108 -46h1z" />
    <glyph glyph-name="uniFBA8" unicode="&#x6c1;" horiz-adv-x="560" arabic-form="initial" 
d="M235 -911q-115 0 -179 70t-64 197q0 140 62 249.5t179 175.5q48 27 86 14t54 -45q16 -30 7.5 -66t-51.5 -58q-51 -25 -90.5 -68.5t-46.5 -92.5q28 7 59 7q82 0 133.5 -51t51.5 -133q0 -96 -54.5 -147.5t-146.5 -51.5zM-171 45q0 71 50.5 121t120.5 50q113 0 156 30
t43 117q0 34 -3.5 78t-10.5 99q-8 70 35 126.5t113 65.5t125.5 -34t66.5 -113q21 -134 21 -224q0 -226 -140.5 -356.5t-405.5 -130.5q-70 0 -120.5 50.5t-50.5 120.5z" />
    <glyph glyph-name="uniFBA9" unicode="&#x6c1;" horiz-adv-x="1001" arabic-form="medial" 
d="M639 152q75 34 167 48.5t195 14.5q73 0 121.5 -49t48.5 -121q0 -73 -49 -121.5t-121 -48.5q-87 0 -150.5 -8.5t-98 -44t-34.5 -117.5q0 -87 35 -227q6 -19 6 -44q0 -73 -49 -121.5t-121 -48.5q-64 0 -107.5 38t-57.5 90q-43 170 -68 305.5t-42 268.5
q-64 -42 -146.5 -66.5t-167.5 -24.5q-73 0 -121.5 49t-48.5 121q0 73 49 121.5t121 48.5q80 0 138.5 42.5t98.5 103.5t64 117q44 104 156 104q69 0 119.5 -49.5t50.5 -120.5q0 -29 1.5 -78t4.5 -99.5t6 -82.5z" />
    <glyph glyph-name="uniFBAB" unicode="&#x6be;" horiz-adv-x="1100" arabic-form="final" 
d="M59 373q0 145 88.5 266.5t262.5 201.5q49 22 97.5 50.5t67.5 50.5q3 63 47.5 110t109.5 53q70 7 124.5 -39t61.5 -117l50 -558q10 -112 37 -143.5t94 -31.5h1q71 0 120.5 -50t49.5 -121q0 -70 -49.5 -120.5t-120.5 -50.5h-1q-129 0 -216 38t-141 104q-20 -9 -42 -12
q-33 -4 -70.5 -6t-60.5 -2q-180 0 -292.5 49.5t-165 135t-52.5 192.5zM403 395q0 -25 35 -41t131 -16q24 0 59 3l-2 20l-17 194q-26 -13 -53 -26q-153 -73 -153 -134z" />
    <glyph glyph-name="uniFBAC" unicode="&#x6be;" horiz-adv-x="1359" arabic-form="initial" 
d="M-171 45q0 71 50.5 121t120.5 50q49 0 95 2q-65 98 -65 204q0 102 35.5 193t97.5 161.5t142 111t169 40.5q63 0 120.5 -25t105.5 -69q16 1 33 -1q198 -26 329 -87t196 -172t65 -287q0 -123 -56 -216t-156 -145t-234 -52q-107 0 -213 20t-202 56q-197 -76 -462 -76
q-70 0 -120.5 50.5t-50.5 120.5zM364 454q0 -49 29 -88.5t80 -69.5q113 61 113 160q0 53 -34 92t-79 39q-48 0 -78.5 -40t-30.5 -93zM1013 306q0 57 -44 93t-118 59q-1 -132 -60 -240q39 -2 80 -2q142 0 142 90z" />
    <glyph glyph-name="uniFBAD" unicode="&#x6be;" horiz-adv-x="990" arabic-form="medial" 
d="M-171 45q0 71 50 121t121 50q23 0 44 1q7 112 36.5 236.5t89.5 232.5t157 176t240 68q108 0 184.5 -59t117 -147.5t40.5 -177.5q0 -174 -119 -330h200q71 0 120.5 -50t49.5 -121q0 -70 -49.5 -120.5t-120.5 -50.5h-68q3 -28 4 -53.5t1 -52.5q0 -63 -18.5 -134.5
t-58.5 -134.5t-105 -103t-158 -40q-106 0 -189.5 44.5t-147 119t-106.5 167.5t-68 189q-38 -2 -76 -2q-70 0 -120.5 50.5t-50.5 120.5zM532 573q-51 0 -89 -70t-52 -217q101 44 150 104t49 115q0 32 -11.5 50t-46.5 18zM570 -115q-12 31 -22.5 60.5t-16.5 55.5
q-62 -34 -130 -59q24 -128 73 -185t96 -57q42 0 42 37q0 27 -13 66t-29 82z" />
    <glyph glyph-name="uniFBAF" unicode="&#x6d2;" horiz-adv-x="1579" arabic-form="final" 
d="M1357 -519q0 -70 -49.5 -118t-120.5 -52q-328 -19 -550.5 -6t-356 57t-192 119t-58.5 180q0 254 388.5 404t1159.5 150h1q71 0 120.5 -49.5t49.5 -120.5q0 -70 -49.5 -120t-120.5 -50h-1q-174 0 -342.5 -10.5t-315.5 -29t-259.5 -42.5t-176.5 -51.5t-64 -56.5
q0 -17 28 -31.5t107.5 -21.5t231.5 -3.5t400 22.5q71 5 120.5 -47t49.5 -123z" />
    <glyph glyph-name="uniFBDA" unicode="&#x6c6;" horiz-adv-x="951" arabic-form="final" 
d="M696 1320q30 -19 38.5 -55t-10.5 -67l-166 -270q-13 -21 -42 -29t-58.5 -2t-44.5 24l-192 241q-22 28 -18 65.5t32 59.5t65 18t59 -33l115 -142l98 162q19 30 56 38.5t68 -10.5zM474 -126q-214 0 -327.5 103.5t-113.5 302.5q0 144 58.5 259t155.5 181.5t213 66.5
q129 0 230 -74.5t161 -204t68 -292.5h32q71 0 120.5 -50t49.5 -121q0 -70 -49.5 -120.5t-120.5 -50.5h-90q-56 -138 -156 -247.5t-227 -181.5t-265 -98q-68 -13 -127.5 28t-72.5 110t28.5 125t108.5 75q109 31 190.5 79.5t136.5 109.5h-3zM471 216h116q-6 60 -23.5 114.5
t-45.5 89.5t-66 35q-40 0 -70 -37t-30 -106q0 -55 29.5 -75.5t89.5 -20.5z" />
    <glyph glyph-name="uniFBE8" unicode="&#x649;" horiz-adv-x="560" arabic-form="initial" 
d="M-171 45q0 71 50.5 121t120.5 50q113 0 156 30t43 117q0 34 -3.5 78t-10.5 99q-8 70 35 126.5t113 65.5t125.5 -34t66.5 -113q21 -134 21 -224q0 -226 -140.5 -356.5t-405.5 -130.5q-70 0 -120.5 50.5t-50.5 120.5z" />
    <glyph glyph-name="uniFBE9" unicode="&#x649;" horiz-adv-x="811" arabic-form="medial" 
d="M-172 45q0 71 51 121t121 50q121 0 175.5 26t71 86.5t22.5 163.5q5 79 58.5 123t125.5 39q71 -4 117.5 -58.5t41.5 -123.5q-13 -138 32 -197t166 -59h1q71 0 120.5 -50t49.5 -121q0 -70 -49.5 -120.5t-120.5 -50.5h-1q-117 0 -213 41.5t-161 138.5q-85 -106 -193 -143
t-243 -37q-70 0 -121 50.5t-51 120.5z" />
    <glyph glyph-name="uniFBFD" unicode="&#x6cc;" horiz-adv-x="1390" arabic-form="final" 
d="M17 -84q0 150 28 277.5t86 284.5q24 66 89 96t131 6t96 -89t6 -131q-92 -255 -92 -435q0 -149 88 -206t266 -57q148 0 236 29.5t88 76.5q0 38 -71.5 64.5t-204.5 42.5q-60 8 -102.5 52t-47.5 105q-6 74 45.5 129t125.5 55h606q71 0 120.5 -50t49.5 -121
q0 -70 -49.5 -120.5t-120.5 -50.5h-62q35 -87 35 -162q0 -109 -85 -198.5t-234 -142.5t-342 -53q-205 0 -359.5 74t-240 208.5t-85.5 315.5z" />
    <glyph glyph-name="uniFBFE" unicode="&#x6cc;" horiz-adv-x="560" arabic-form="initial" 
d="M-171 45q0 71 50.5 121t120.5 50q113 0 156 30t43 117q0 34 -3.5 78t-10.5 99q-8 70 35 126.5t113 65.5t125.5 -34t66.5 -113q21 -134 21 -224q0 -226 -140.5 -356.5t-405.5 -130.5q-70 0 -120.5 50.5t-50.5 120.5zM-242 -452q0 63 46.5 112.5t116.5 49.5q52 0 88 -22
t56 -54q26 -41 26 -86q0 -33 -14 -71.5t-50.5 -66.5t-102.5 -28q-68 0 -103.5 28.5t-49.5 65.5q-13 35 -13 72zM118 -452q0 63 46.5 112.5t116.5 49.5q52 0 88 -22t56 -54q26 -41 26 -86q0 -33 -14 -71.5t-50.5 -66.5t-102.5 -28q-68 0 -103.5 28.5t-49.5 65.5
q-13 35 -13 72z" />
    <glyph glyph-name="uniFBFF" unicode="&#x6cc;" horiz-adv-x="811" arabic-form="medial" 
d="M-172 45q0 71 51 121t121 50q121 0 175.5 26t71 86.5t22.5 163.5q5 79 58.5 123t125.5 39q71 -4 117.5 -58.5t41.5 -123.5q-13 -138 32 -197t166 -59h1q71 0 120.5 -50t49.5 -121q0 -70 -49.5 -120.5t-120.5 -50.5h-1q-117 0 -213 41.5t-161 138.5q-85 -106 -193 -143
t-243 -37q-70 0 -121 50.5t-51 120.5zM-242 -452q0 63 46.5 112.5t116.5 49.5q52 0 88 -22t56 -54q26 -41 26 -86q0 -33 -14 -71.5t-50.5 -66.5t-102.5 -28q-68 0 -103.5 28.5t-49.5 65.5q-13 35 -13 72zM118 -452q0 63 46.5 112.5t116.5 49.5q52 0 88 -22t56 -54
q26 -41 26 -86q0 -33 -14 -71.5t-50.5 -66.5t-102.5 -28q-68 0 -103.5 28.5t-49.5 65.5q-13 35 -13 72z" />
    <glyph glyph-name="uniFE82" unicode="&#x622;" horiz-adv-x="574" arabic-form="final" 
d="M-99 1519q35 62 95 107t139 45q46 0 80.5 -18.5t62.5 -32.5l40 -20t42 -10q16 0 37.5 17.5t43.5 65.5q14 29 45.5 40t60.5 -3t39.5 -46t-3.5 -61q-18 -37 -47 -77t-72 -68t-104 -28q-43 0 -75.5 17t-57.5 29q-23 11 -45.5 23t-46.5 12q-22 0 -47.5 -16t-48.5 -54
q-16 -28 -47.5 -37t-60.5 7q-28 17 -37 48.5t7 59.5zM75 374q0 135 2 253.5t2 245t-7 282.5q-2 71 46 123.5t118 55.5t123 -45.5t56 -119.5q7 -153 7 -280.5t-2.5 -249.5t-2.5 -260q0 -90 35.5 -126.5t120.5 -36.5h1q71 0 120.5 -50t49.5 -121q0 -70 -49.5 -120.5
t-120.5 -50.5h-1q-150 0 -262 50t-174 160t-62 290z" />
    <glyph glyph-name="uniFE84" unicode="&#x623;" horiz-adv-x="574" arabic-form="final" 
d="M11 1495q-11 29 4 60.5t46 41.5l76 26q-58 64 -58 166q0 103 65.5 170.5t188.5 67.5q36 0 66 -5q33 -5 53.5 -30.5t17.5 -55.5q-4 -31 -29.5 -53.5t-57.5 -17.5q-14 2 -27 2q-64 0 -92.5 -25t-28.5 -64q0 -74 94 -74q24 0 49.5 6t88.5 28q33 11 64 -6.5t38 -50.5
q7 -30 -8 -57.5t-42 -35.5l-406 -143q-30 -10 -60.5 4.5t-41.5 45.5zM75 374q0 135 2 253.5t2 245t-7 282.5q-2 71 46 123.5t118 55.5t123 -45.5t56 -119.5q7 -153 7 -280.5t-2.5 -249.5t-2.5 -260q0 -90 35.5 -126.5t120.5 -36.5h1q71 0 120.5 -50t49.5 -121
q0 -70 -49.5 -120.5t-120.5 -50.5h-1q-150 0 -262 50t-174 160t-62 290z" />
    <glyph glyph-name="uniFE86" unicode="&#x624;" horiz-adv-x="951" arabic-form="final" 
d="M474 -126q-214 0 -327.5 103.5t-113.5 302.5q0 144 58.5 259t155.5 181.5t213 66.5q129 0 230 -74.5t161 -204t68 -292.5h32q71 0 120.5 -50t49.5 -121q0 -70 -49.5 -120.5t-120.5 -50.5h-90q-56 -138 -156 -247.5t-227 -181.5t-265 -98q-68 -13 -127.5 28t-72.5 110
t28.5 125t108.5 75q109 31 190.5 79.5t136.5 109.5h-3zM471 216h116q-6 60 -23.5 114.5t-45.5 89.5t-66 35q-40 0 -70 -37t-30 -106q0 -55 29.5 -75.5t89.5 -20.5zM129 943q-11 29 4 60.5t46 41.5l76 26q-58 64 -58 166q0 103 65.5 170.5t188.5 67.5q36 0 66 -5
q33 -5 53.5 -30.5t17.5 -55.5q-4 -31 -29.5 -53.5t-57.5 -17.5q-14 2 -27 2q-64 0 -92.5 -25t-28.5 -64q0 -74 94 -74q24 0 49.5 6t88.5 28q33 11 64 -6.5t38 -50.5q7 -30 -8 -57.5t-42 -35.5l-406 -143q-30 -10 -60.5 4.5t-41.5 45.5z" />
    <glyph glyph-name="uniFE88" unicode="&#x625;" horiz-adv-x="574" arabic-form="final" 
d="M-2 -785q-11 29 4 60.5t46 41.5l76 26q-58 64 -58 166q0 103 65.5 170.5t188.5 67.5q36 0 66 -5q33 -5 53.5 -30.5t17.5 -55.5q-4 -31 -29.5 -53.5t-57.5 -17.5q-14 2 -27 2q-64 0 -92.5 -25t-28.5 -64q0 -74 94 -74q24 0 49.5 6t88.5 28q33 11 64 -6.5t38 -50.5
q7 -30 -8 -57.5t-42 -35.5l-406 -143q-30 -10 -60.5 4.5t-41.5 45.5zM75 374q0 135 2 253.5t2 245t-7 282.5q-2 71 46 123.5t118 55.5t123 -45.5t56 -119.5q7 -153 7 -280.5t-2.5 -249.5t-2.5 -260q0 -90 35.5 -126.5t120.5 -36.5h1q71 0 120.5 -50t49.5 -121
q0 -70 -49.5 -120.5t-120.5 -50.5h-1q-150 0 -262 50t-174 160t-62 290z" />
    <glyph glyph-name="uniFE8A" unicode="&#x626;" horiz-adv-x="1390" arabic-form="final" 
d="M607 394q-11 29 4 60.5t46 41.5l76 26q-58 64 -58 166q0 103 65.5 170.5t188.5 67.5q36 0 66 -5q33 -5 53.5 -30.5t17.5 -55.5q-4 -31 -29.5 -53.5t-57.5 -17.5q-14 2 -27 2q-64 0 -92.5 -25t-28.5 -64q0 -74 94 -74q24 0 49.5 6t88.5 28q33 11 64 -6.5t38 -50.5
q7 -30 -8 -57.5t-42 -35.5l-406 -143q-30 -10 -60.5 4.5t-41.5 45.5zM17 -84q0 150 28 277.5t86 284.5q24 66 89 96t131 6t96 -89t6 -131q-92 -255 -92 -435q0 -149 88 -206t266 -57q148 0 236 29.5t88 76.5q0 38 -71.5 64.5t-204.5 42.5q-60 8 -102.5 52t-47.5 105
q-6 74 45.5 129t125.5 55h606q71 0 120.5 -50t49.5 -121q0 -70 -49.5 -120.5t-120.5 -50.5h-62q35 -87 35 -162q0 -109 -85 -198.5t-234 -142.5t-342 -53q-205 0 -359.5 74t-240 208.5t-85.5 315.5z" />
    <glyph glyph-name="uniFE8B" unicode="&#x626;" horiz-adv-x="560" arabic-form="initial" 
d="M-76 823q-11 29 4 60.5t46 41.5l76 26q-58 64 -58 166q0 103 65.5 170.5t188.5 67.5q36 0 66 -5q33 -5 53.5 -30.5t17.5 -55.5q-4 -31 -29.5 -53.5t-57.5 -17.5q-14 2 -27 2q-64 0 -92.5 -25t-28.5 -64q0 -74 94 -74q24 0 49.5 6t88.5 28q33 11 64 -6.5t38 -50.5
q7 -30 -8 -57.5t-42 -35.5l-406 -143q-30 -10 -60.5 4.5t-41.5 45.5zM-171 45q0 71 50.5 121t120.5 50q113 0 156 30t43 117q0 34 -3.5 78t-10.5 99q-8 70 35 126.5t113 65.5t125.5 -34t66.5 -113q21 -134 21 -224q0 -226 -140.5 -356.5t-405.5 -130.5q-70 0 -120.5 50.5
t-50.5 120.5z" />
    <glyph glyph-name="uniFE8C" unicode="&#x626;" horiz-adv-x="811" arabic-form="medial" 
d="M-26 740q-11 29 4 60.5t46 41.5l76 26q-58 64 -58 166q0 103 65.5 170.5t188.5 67.5q36 0 66 -5q33 -5 53.5 -30.5t17.5 -55.5q-4 -31 -29.5 -53.5t-57.5 -17.5q-14 2 -27 2q-64 0 -92.5 -25t-28.5 -64q0 -74 94 -74q24 0 49.5 6t88.5 28q33 11 64 -6.5t38 -50.5
q7 -30 -8 -57.5t-42 -35.5l-406 -143q-30 -10 -60.5 4.5t-41.5 45.5zM-172 45q0 71 51 121t121 50q121 0 175.5 26t71 86.5t22.5 163.5q5 79 58.5 123t125.5 39q71 -4 117.5 -58.5t41.5 -123.5q-13 -138 32 -197t166 -59h1q71 0 120.5 -50t49.5 -121q0 -70 -49.5 -120.5
t-120.5 -50.5h-1q-117 0 -213 41.5t-161 138.5q-85 -106 -193 -143t-243 -37q-70 0 -121 50.5t-51 120.5z" />
    <glyph glyph-name="uniFE8E" unicode="&#x627;" horiz-adv-x="574" arabic-form="final" 
d="M75 374q0 135 2 253.5t2 245t-7 282.5q-2 71 46 123.5t118 55.5t123 -45.5t56 -119.5q7 -153 7 -280.5t-2.5 -249.5t-2.5 -260q0 -90 35.5 -126.5t120.5 -36.5h1q71 0 120.5 -50t49.5 -121q0 -70 -49.5 -120.5t-120.5 -50.5h-1q-150 0 -262 50t-174 160t-62 290z" />
    <glyph glyph-name="uniFE90" unicode="&#x628;" horiz-adv-x="1937" arabic-form="final" 
d="M19 414q0 63 12 128t33 132t84 100t130 12t100 -84t12 -130q-15 -48 -21 -88t-6 -70q0 -63 29.5 -115t111.5 -82.5t238 -30.5q222 0 364 44t219.5 131.5t103.5 217.5q12 62 63.5 103t121.5 33q67 -7 113 -60t41 -121q-2 -34 -3.5 -65t-1.5 -60q0 -88 37 -140.5t136 -52.5
h1q71 0 120.5 -50t49.5 -121q0 -70 -49.5 -120.5t-120.5 -50.5h-1q-134 0 -227.5 66t-141.5 177q-106 -103 -239.5 -162.5t-282.5 -85t-303 -25.5q-197 0 -361.5 63.5t-263 190t-98.5 316.5zM597 -432q0 63 46.5 112.5t116.5 49.5q52 0 88 -22t56 -54q26 -41 26 -86
q0 -32 -14 -71t-50.5 -67t-102.5 -28q-68 0 -103.5 28.5t-49.5 65.5q-13 35 -13 72z" />
    <glyph glyph-name="uniFE91" unicode="&#x628;" horiz-adv-x="560" arabic-form="initial" 
d="M-171 45q0 71 50.5 121t120.5 50q113 0 156 30t43 117q0 34 -3.5 78t-10.5 99q-8 70 35 126.5t113 65.5t125.5 -34t66.5 -113q21 -134 21 -224q0 -226 -140.5 -356.5t-405.5 -130.5q-70 0 -120.5 50.5t-50.5 120.5zM-92 -432q0 63 46.5 112.5t116.5 49.5q52 0 88 -22
t56 -54q26 -41 26 -86q0 -32 -14 -71t-50.5 -67t-102.5 -28q-68 0 -103.5 28.5t-49.5 65.5q-13 35 -13 72z" />
    <glyph glyph-name="uniFE92" unicode="&#x628;" horiz-adv-x="811" arabic-form="medial" 
d="M-172 45q0 71 51 121t121 50q121 0 175.5 26t71 86.5t22.5 163.5q5 79 58.5 123t125.5 39q71 -4 117.5 -58.5t41.5 -123.5q-13 -138 32 -197t166 -59h1q71 0 120.5 -50t49.5 -121q0 -70 -49.5 -120.5t-120.5 -50.5h-1q-117 0 -213 41.5t-161 138.5q-85 -106 -193 -143
t-243 -37q-70 0 -121 50.5t-51 120.5zM-92 -432q0 63 46.5 112.5t116.5 49.5q52 0 88 -22t56 -54q26 -41 26 -86q0 -32 -14 -71t-50.5 -67t-102.5 -28q-68 0 -103.5 28.5t-49.5 65.5q-13 35 -13 72z" />
    <glyph glyph-name="uniFE94" unicode="&#x629;" horiz-adv-x="1100" arabic-form="final" 
d="M59 373q0 145 88.5 266.5t262.5 201.5q49 22 97.5 50.5t67.5 50.5q3 63 47.5 110t109.5 53q70 7 124.5 -39t61.5 -117l50 -558q10 -112 37 -143.5t94 -31.5h1q71 0 120.5 -50t49.5 -121q0 -70 -49.5 -120.5t-120.5 -50.5h-1q-129 0 -216 38t-141 104q-20 -9 -42 -12
q-33 -4 -70.5 -6t-60.5 -2q-180 0 -292.5 49.5t-165 135t-52.5 192.5zM403 395q0 -25 35 -41t131 -16q24 0 59 3l-2 20l-17 194q-26 -13 -53 -26q-153 -73 -153 -134zM193 1388q0 63 46.5 112.5t116.5 49.5q52 0 88 -22t56 -54q26 -41 26 -86q0 -33 -14 -71.5t-50.5 -66.5
t-102.5 -28q-68 0 -103.5 28.5t-49.5 65.5q-13 35 -13 72zM553 1388q0 63 46.5 112.5t116.5 49.5q52 0 88 -22t56 -54q26 -41 26 -86q0 -33 -14 -71.5t-50.5 -66.5t-102.5 -28q-68 0 -103.5 28.5t-49.5 65.5q-13 35 -13 72z" />
    <glyph glyph-name="uniFE96" unicode="&#x62a;" horiz-adv-x="1937" arabic-form="final" 
d="M19 414q0 63 12 128t33 132t84 100t130 12t100 -84t12 -130q-15 -48 -21 -88t-6 -70q0 -63 29.5 -115t111.5 -82.5t238 -30.5q222 0 364 44t219.5 131.5t103.5 217.5q12 62 63.5 103t121.5 33q67 -7 113 -60t41 -121q-2 -34 -3.5 -65t-1.5 -60q0 -88 37 -140.5t136 -52.5
h1q71 0 120.5 -50t49.5 -121q0 -70 -49.5 -120.5t-120.5 -50.5h-1q-134 0 -227.5 66t-141.5 177q-106 -103 -239.5 -162.5t-282.5 -85t-303 -25.5q-197 0 -361.5 63.5t-263 190t-98.5 316.5zM482 757q0 63 46.5 112.5t116.5 49.5q52 0 88 -22t56 -54q26 -41 26 -86
q0 -33 -14 -71.5t-50.5 -66.5t-102.5 -28q-68 0 -103.5 28.5t-49.5 65.5q-13 35 -13 72zM842 757q0 63 46.5 112.5t116.5 49.5q52 0 88 -22t56 -54q26 -41 26 -86q0 -33 -14 -71.5t-50.5 -66.5t-102.5 -28q-68 0 -103.5 28.5t-49.5 65.5q-13 35 -13 72z" />
    <glyph glyph-name="uniFE97" unicode="&#x62a;" horiz-adv-x="560" arabic-form="initial" 
d="M-171 45q0 71 50.5 121t120.5 50q113 0 156 30t43 117q0 34 -3.5 78t-10.5 99q-8 70 35 126.5t113 65.5t125.5 -34t66.5 -113q21 -134 21 -224q0 -226 -140.5 -356.5t-405.5 -130.5q-70 0 -120.5 50.5t-50.5 120.5zM-113 1007q0 63 46.5 112.5t116.5 49.5q52 0 88 -22
t56 -54q26 -41 26 -86q0 -33 -14 -71.5t-50.5 -66.5t-102.5 -28q-68 0 -103.5 28.5t-49.5 65.5q-13 35 -13 72zM247 1007q0 63 46.5 112.5t116.5 49.5q52 0 88 -22t56 -54q26 -41 26 -86q0 -33 -14 -71.5t-50.5 -66.5t-102.5 -28q-68 0 -103.5 28.5t-49.5 65.5
q-13 35 -13 72z" />
    <glyph glyph-name="uniFE98" unicode="&#x62a;" horiz-adv-x="811" arabic-form="medial" 
d="M-172 45q0 71 51 121t121 50q121 0 175.5 26t71 86.5t22.5 163.5q5 79 58.5 123t125.5 39q71 -4 117.5 -58.5t41.5 -123.5q-13 -138 32 -197t166 -59h1q71 0 120.5 -50t49.5 -121q0 -70 -49.5 -120.5t-120.5 -50.5h-1q-117 0 -213 41.5t-161 138.5q-85 -106 -193 -143
t-243 -37q-70 0 -121 50.5t-51 120.5zM-47 949q0 63 46.5 112.5t116.5 49.5q52 0 88 -22t56 -54q26 -41 26 -86q0 -33 -14 -71.5t-50.5 -66.5t-102.5 -28q-68 0 -103.5 28.5t-49.5 65.5q-13 35 -13 72zM313 949q0 63 46.5 112.5t116.5 49.5q52 0 88 -22t56 -54
q26 -41 26 -86q0 -33 -14 -71.5t-50.5 -66.5t-102.5 -28q-68 0 -103.5 28.5t-49.5 65.5q-13 35 -13 72z" />
    <glyph glyph-name="uniFE9A" unicode="&#x62b;" horiz-adv-x="1937" arabic-form="final" 
d="M19 414q0 63 12 128t33 132t84 100t130 12t100 -84t12 -130q-15 -48 -21 -88t-6 -70q0 -63 29.5 -115t111.5 -82.5t238 -30.5q222 0 364 44t219.5 131.5t103.5 217.5q12 62 63.5 103t121.5 33q67 -7 113 -60t41 -121q-2 -34 -3.5 -65t-1.5 -60q0 -88 37 -140.5t136 -52.5
h1q71 0 120.5 -50t49.5 -121q0 -70 -49.5 -120.5t-120.5 -50.5h-1q-134 0 -227.5 66t-141.5 177q-106 -103 -239.5 -162.5t-282.5 -85t-303 -25.5q-197 0 -361.5 63.5t-263 190t-98.5 316.5zM651 999q0 60 44 107t111 47q50 0 84 -21t53 -52q25 -41 25 -81q0 -31 -13.5 -68
t-48 -63.5t-97.5 -26.5q-64 0 -97.5 26.5t-47.5 62.5q-13 33 -13 69zM481 685q0 60 44 107t111 47q50 0 84 -20.5t53 -51.5q25 -41 25 -82q0 -31 -13.5 -68t-48 -63.5t-97.5 -26.5q-64 0 -97.5 27t-47.5 63q-13 33 -13 68zM823 685q0 60 44 107t111 47q50 0 84 -20.5
t53 -51.5q25 -41 25 -82q0 -31 -13.5 -68t-48 -63.5t-97.5 -26.5q-64 0 -97.5 27t-47.5 63q-13 33 -13 68z" />
    <glyph glyph-name="uniFE9B" unicode="&#x62b;" horiz-adv-x="560" arabic-form="initial" 
d="M-171 45q0 71 50.5 121t120.5 50q113 0 156 30t43 117q0 34 -3.5 78t-10.5 99q-8 70 35 126.5t113 65.5t125.5 -34t66.5 -113q21 -134 21 -224q0 -226 -140.5 -356.5t-405.5 -130.5q-70 0 -120.5 50.5t-50.5 120.5zM71 1242q0 60 44 107t111 47q50 0 84 -21t53 -52
q25 -41 25 -81q0 -31 -13.5 -68t-48 -63.5t-97.5 -26.5q-64 0 -97.5 26.5t-47.5 62.5q-13 33 -13 69zM-99 928q0 60 44 107t111 47q50 0 84 -20.5t53 -51.5q25 -41 25 -82q0 -31 -13.5 -68t-48 -63.5t-97.5 -26.5q-64 0 -97.5 27t-47.5 63q-13 33 -13 68zM243 928
q0 60 44 107t111 47q50 0 84 -20.5t53 -51.5q25 -41 25 -82q0 -31 -13.5 -68t-48 -63.5t-97.5 -26.5q-64 0 -97.5 27t-47.5 63q-13 33 -13 68z" />
    <glyph glyph-name="uniFE9C" unicode="&#x62b;" horiz-adv-x="811" arabic-form="medial" 
d="M-172 45q0 71 51 121t121 50q121 0 175.5 26t71 86.5t22.5 163.5q5 79 58.5 123t125.5 39q71 -4 117.5 -58.5t41.5 -123.5q-13 -138 32 -197t166 -59h1q71 0 120.5 -50t49.5 -121q0 -70 -49.5 -120.5t-120.5 -50.5h-1q-117 0 -213 41.5t-161 138.5q-85 -106 -193 -143
t-243 -37q-70 0 -121 50.5t-51 120.5zM85 1226q0 60 44 107t111 47q50 0 84 -21t53 -52q25 -41 25 -81q0 -31 -13.5 -68t-48 -63.5t-97.5 -26.5q-64 0 -97.5 26.5t-47.5 62.5q-13 33 -13 69zM-85 912q0 60 44 107t111 47q50 0 84 -20.5t53 -51.5q25 -41 25 -82
q0 -31 -13.5 -68t-48 -63.5t-97.5 -26.5q-64 0 -97.5 27t-47.5 63q-13 33 -13 68zM257 912q0 60 44 107t111 47q50 0 84 -20.5t53 -51.5q25 -41 25 -82q0 -31 -13.5 -68t-48 -63.5t-97.5 -26.5q-64 0 -97.5 27t-47.5 63q-13 33 -13 68z" />
    <glyph glyph-name="uniFE9E" unicode="&#x62c;" horiz-adv-x="1392" arabic-form="final" 
d="M406 961q75 0 157.5 -31t173 -77.5t192 -93t215.5 -76.5q153 -42 153 -176q0 -54 -37.5 -97t-104.5 -68q19 -55 44 -82t70 -35.5t122 -8.5h1q71 0 120.5 -50t49.5 -121q0 -70 -49.5 -120.5t-120.5 -50.5h-1q-450 0 -565 378q-227 -78 -349.5 -185.5t-122.5 -232.5
q0 -110 93 -173.5t253 -63.5q162 0 357 71q69 25 132 0.5t88 -86.5q27 -64 0.5 -130.5t-90.5 -95.5q-211 -98 -458 -98q-215 0 -375 71.5t-247.5 202t-87.5 305.5q0 144 66 263t208 223.5t369 205.5q-150 78 -205 78q-52 0 -69 -68q-19 -68 -81 -105t-128 -20
q-67 17 -104.5 79.5t-20.5 129.5q38 155 133.5 246.5t218.5 91.5zM501 -112q0 63 46.5 112.5t116.5 49.5q52 0 88 -22t56 -54q26 -41 26 -86q0 -32 -14 -71t-50.5 -67t-102.5 -28q-68 0 -103.5 28.5t-49.5 65.5q-13 35 -13 72z" />
    <glyph glyph-name="uniFE9F" unicode="&#x62c;" horiz-adv-x="1299" arabic-form="initial" 
d="M388 894q103 0 213 -47.5t213 -100.5q69 -36 157.5 -76t198.5 -87q45 -19 74.5 -63.5t29.5 -93.5q0 -94 -80 -145q-285 -180 -578.5 -293.5t-615.5 -113.5q-71 0 -121.5 51.5t-50.5 119.5t50.5 119.5t121.5 51.5q182 0 363.5 49t362.5 141q-34 17 -68.5 35t-69.5 37
q-52 29 -93.5 48.5t-72.5 19.5q-39 0 -56 -23t-41 -83q-14 -36 -54.5 -64t-92.5 -32.5t-101 27.5q-47 31 -68 92t8 124q41 88 90.5 157.5t117 109.5t163.5 40zM299 -327q0 63 46.5 112.5t116.5 49.5q52 0 88 -22t56 -54q26 -41 26 -86q0 -32 -14 -71t-50.5 -67t-102.5 -28
q-68 0 -103.5 28.5t-49.5 65.5q-13 35 -13 72z" />
    <glyph glyph-name="uniFEA0" unicode="&#x62c;" horiz-adv-x="1321" arabic-form="medial" 
d="M388 894q103 0 213 -47.5t213 -100.5q69 -36 157.5 -76t198.5 -87q45 -19 74.5 -63.5t29.5 -93.5q0 -94 -80 -145q-24 -15 -47 -29q51 -36 173 -36h1q71 0 120.5 -50t49.5 -121q0 -70 -49.5 -120.5t-120.5 -50.5h-1q-144 0 -272.5 52t-204.5 158q-201 -97 -410.5 -153.5
t-432.5 -56.5q-71 0 -121.5 51.5t-50.5 119.5t50.5 119.5t121.5 51.5q182 0 363.5 49t362.5 141q-34 17 -68.5 35t-69.5 37q-52 29 -93.5 48.5t-72.5 19.5q-39 0 -56 -23t-41 -83q-14 -36 -54.5 -64t-92.5 -32.5t-101 27.5q-47 31 -68 92t8 124q41 88 90.5 157.5t117 109.5
t163.5 40zM423 -327q0 63 46.5 112.5t116.5 49.5q52 0 88 -22t56 -54q26 -41 26 -86q0 -32 -14 -71t-50.5 -67t-102.5 -28q-68 0 -103.5 28.5t-49.5 65.5q-13 35 -13 72z" />
    <glyph glyph-name="uniFEA2" unicode="&#x62d;" horiz-adv-x="1392" arabic-form="final" 
d="M406 961q75 0 157.5 -31t173 -77.5t192 -93t215.5 -76.5q153 -42 153 -176q0 -54 -37.5 -97t-104.5 -68q19 -55 44 -82t70 -35.5t122 -8.5h1q71 0 120.5 -50t49.5 -121q0 -70 -49.5 -120.5t-120.5 -50.5h-1q-450 0 -565 378q-227 -78 -349.5 -185.5t-122.5 -232.5
q0 -110 93 -173.5t253 -63.5q162 0 357 71q69 25 132 0.5t88 -86.5q27 -64 0.5 -130.5t-90.5 -95.5q-211 -98 -458 -98q-215 0 -375 71.5t-247.5 202t-87.5 305.5q0 144 66 263t208 223.5t369 205.5q-150 78 -205 78q-52 0 -69 -68q-19 -68 -81 -105t-128 -20
q-67 17 -104.5 79.5t-20.5 129.5q38 155 133.5 246.5t218.5 91.5z" />
    <glyph glyph-name="uniFEA3" unicode="&#x62d;" horiz-adv-x="1299" arabic-form="initial" 
d="M388 894q103 0 213 -47.5t213 -100.5q69 -36 157.5 -76t198.5 -87q45 -19 74.5 -63.5t29.5 -93.5q0 -94 -80 -145q-285 -180 -578.5 -293.5t-615.5 -113.5q-71 0 -121.5 51.5t-50.5 119.5t50.5 119.5t121.5 51.5q182 0 363.5 49t362.5 141q-34 17 -68.5 35t-69.5 37
q-52 29 -93.5 48.5t-72.5 19.5q-39 0 -56 -23t-41 -83q-14 -36 -54.5 -64t-92.5 -32.5t-101 27.5q-47 31 -68 92t8 124q41 88 90.5 157.5t117 109.5t163.5 40z" />
    <glyph glyph-name="uniFEA4" unicode="&#x62d;" horiz-adv-x="1321" arabic-form="medial" 
d="M388 894q103 0 213 -47.5t213 -100.5q69 -36 157.5 -76t198.5 -87q45 -19 74.5 -63.5t29.5 -93.5q0 -94 -80 -145q-24 -15 -47 -29q51 -36 173 -36h1q71 0 120.5 -50t49.5 -121q0 -70 -49.5 -120.5t-120.5 -50.5h-1q-144 0 -272.5 52t-204.5 158q-201 -97 -410.5 -153.5
t-432.5 -56.5q-71 0 -121.5 51.5t-50.5 119.5t50.5 119.5t121.5 51.5q182 0 363.5 49t362.5 141q-34 17 -68.5 35t-69.5 37q-52 29 -93.5 48.5t-72.5 19.5q-39 0 -56 -23t-41 -83q-14 -36 -54.5 -64t-92.5 -32.5t-101 27.5q-47 31 -68 92t8 124q41 88 90.5 157.5t117 109.5
t163.5 40z" />
    <glyph glyph-name="uniFEA6" unicode="&#x62e;" horiz-adv-x="1392" arabic-form="final" 
d="M406 961q75 0 157.5 -31t173 -77.5t192 -93t215.5 -76.5q153 -42 153 -176q0 -54 -37.5 -97t-104.5 -68q19 -55 44 -82t70 -35.5t122 -8.5h1q71 0 120.5 -50t49.5 -121q0 -70 -49.5 -120.5t-120.5 -50.5h-1q-450 0 -565 378q-227 -78 -349.5 -185.5t-122.5 -232.5
q0 -110 93 -173.5t253 -63.5q162 0 357 71q69 25 132 0.5t88 -86.5q27 -64 0.5 -130.5t-90.5 -95.5q-211 -98 -458 -98q-215 0 -375 71.5t-247.5 202t-87.5 305.5q0 144 66 263t208 223.5t369 205.5q-150 78 -205 78q-52 0 -69 -68q-19 -68 -81 -105t-128 -20
q-67 17 -104.5 79.5t-20.5 129.5q38 155 133.5 246.5t218.5 91.5zM258 1272q0 63 46.5 112.5t116.5 49.5q52 0 88 -22t56 -54q26 -41 26 -86q0 -32 -14 -71t-50.5 -67t-102.5 -28q-68 0 -103.5 28.5t-49.5 65.5q-13 35 -13 72z" />
    <glyph glyph-name="uniFEA7" unicode="&#x62e;" horiz-adv-x="1299" arabic-form="initial" 
d="M388 894q103 0 213 -47.5t213 -100.5q69 -36 157.5 -76t198.5 -87q45 -19 74.5 -63.5t29.5 -93.5q0 -94 -80 -145q-285 -180 -578.5 -293.5t-615.5 -113.5q-71 0 -121.5 51.5t-50.5 119.5t50.5 119.5t121.5 51.5q182 0 363.5 49t362.5 141q-34 17 -68.5 35t-69.5 37
q-52 29 -93.5 48.5t-72.5 19.5q-39 0 -56 -23t-41 -83q-14 -36 -54.5 -64t-92.5 -32.5t-101 27.5q-47 31 -68 92t8 124q41 88 90.5 157.5t117 109.5t163.5 40zM234 1205q0 63 46.5 112.5t116.5 49.5q52 0 88 -22t56 -54q26 -41 26 -86q0 -32 -14 -71t-50.5 -67t-102.5 -28
q-68 0 -103.5 28.5t-49.5 65.5q-13 35 -13 72z" />
    <glyph glyph-name="uniFEA8" unicode="&#x62e;" horiz-adv-x="1321" arabic-form="medial" 
d="M388 894q103 0 213 -47.5t213 -100.5q69 -36 157.5 -76t198.5 -87q45 -19 74.5 -63.5t29.5 -93.5q0 -94 -80 -145q-24 -15 -47 -29q51 -36 173 -36h1q71 0 120.5 -50t49.5 -121q0 -70 -49.5 -120.5t-120.5 -50.5h-1q-144 0 -272.5 52t-204.5 158q-201 -97 -410.5 -153.5
t-432.5 -56.5q-71 0 -121.5 51.5t-50.5 119.5t50.5 119.5t121.5 51.5q182 0 363.5 49t362.5 141q-34 17 -68.5 35t-69.5 37q-52 29 -93.5 48.5t-72.5 19.5q-39 0 -56 -23t-41 -83q-14 -36 -54.5 -64t-92.5 -32.5t-101 27.5q-47 31 -68 92t8 124q41 88 90.5 157.5t117 109.5
t163.5 40zM198 1205q0 63 46.5 112.5t116.5 49.5q52 0 88 -22t56 -54q26 -41 26 -86q0 -32 -14 -71t-50.5 -67t-102.5 -28q-68 0 -103.5 28.5t-49.5 65.5q-13 35 -13 72z" />
    <glyph glyph-name="uniFEAA" unicode="&#x62f;" horiz-adv-x="1121" arabic-form="final" 
d="M26 85q19 68 79 100t132 17q41 -7 76 -11.5t77 -4.5q90 0 131.5 15t53 40t11.5 56q0 14 -3 27q-7 19 -14 40q-22 68 -64.5 149.5t-103.5 178.5q-37 60 -20 129.5t77 106.5t129.5 20t106.5 -77q61 -97 110.5 -188.5t88.5 -206.5q35 -98 65 -155t68 -81t94 -24h1
q71 0 120.5 -50t49.5 -121q0 -70 -49.5 -120.5t-120.5 -50.5h-1q-103 0 -181.5 30.5t-137.5 78.5q-83 -76 -196 -107.5t-215 -31.5q-71 0 -121 6t-125 24q-67 17 -102 80.5t-16 130.5z" />
    <glyph glyph-name="uniFEAC" unicode="&#x630;" horiz-adv-x="1121" arabic-form="final" 
d="M26 85q19 68 79 100t132 17q41 -7 76 -11.5t77 -4.5q90 0 131.5 15t53 40t11.5 56q0 14 -3 27q-7 19 -14 40q-22 68 -64.5 149.5t-103.5 178.5q-37 60 -20 129.5t77 106.5t129.5 20t106.5 -77q61 -97 110.5 -188.5t88.5 -206.5q35 -98 65 -155t68 -81t94 -24h1
q71 0 120.5 -50t49.5 -121q0 -70 -49.5 -120.5t-120.5 -50.5h-1q-103 0 -181.5 30.5t-137.5 78.5q-83 -76 -196 -107.5t-215 -31.5q-71 0 -121 6t-125 24q-67 17 -102 80.5t-16 130.5zM376 1265q0 63 46.5 112.5t116.5 49.5q52 0 88 -22t56 -54q26 -41 26 -86q0 -32 -14 -71
t-50.5 -67t-102.5 -28q-68 0 -103.5 28.5t-49.5 65.5q-13 35 -13 72z" />
    <glyph glyph-name="uniFEAE" unicode="&#x631;" horiz-adv-x="947" arabic-form="final" 
d="M375 445q-16 44 -2 87t49 75.5t81 43.5q24 6 49 4q59 -3 101.5 -41t54.5 -87l2 -6q48 -172 106.5 -238.5t129.5 -66.5h1q71 0 120.5 -50t49.5 -121q0 -70 -49.5 -120.5t-120.5 -50.5h-1q-54 0 -105.5 16.5t-99.5 45.5q-46 -228 -187.5 -374.5t-338.5 -212.5
q-76 -25 -138 12.5t-80 98.5q-23 80 14 137.5t94 76.5q148 50 232 160.5t84 305.5q0 131 -43 297q-1 4 -3 8z" />
    <glyph glyph-name="uniFEB0" unicode="&#x632;" horiz-adv-x="947" arabic-form="final" 
d="M375 445q-16 44 -2 87t49 75.5t81 43.5q24 6 49 4q59 -3 101.5 -41t54.5 -87l2 -6q48 -172 106.5 -238.5t129.5 -66.5h1q71 0 120.5 -50t49.5 -121q0 -70 -49.5 -120.5t-120.5 -50.5h-1q-54 0 -105.5 16.5t-99.5 45.5q-46 -228 -187.5 -374.5t-338.5 -212.5
q-76 -25 -138 12.5t-80 98.5q-23 80 14 137.5t94 76.5q148 50 232 160.5t84 305.5q0 131 -43 297q-1 4 -3 8zM352 999q0 63 46.5 112.5t116.5 49.5q52 0 88 -22t56 -54q26 -41 26 -86q0 -32 -14 -71t-50.5 -67t-102.5 -28q-68 0 -103.5 28.5t-49.5 65.5q-13 35 -13 72z" />
    <glyph glyph-name="uniFEB2" unicode="&#x633;" horiz-adv-x="2430" arabic-form="final" 
d="M17 -48q0 92 24 198.5t76 241.5q26 65 92.5 94t130.5 3q65 -26 94 -91.5t3 -130.5q-39 -97 -57.5 -176t-18.5 -139q0 -254 299 -254q149 0 232.5 70.5t83.5 203.5q0 71 -20.5 167t-54.5 181l-2 6q-25 65 3.5 132t93.5 92q28 11 58 11h1h4q35 0 68 -15q66 -29 91 -94
q40 -102 68 -158.5t52 -79t53 -22.5q42 0 62 43.5t35 146.5q1 16 5 39q2 18 9 35v0l2 4v1l2 4l1 1q0 2 1 3t1 2q1 2 2 3v1q2 2 3 5v0q24 37 66 58t89 15q63 -8 101.5 -60t29.5 -115q-1 -5 -1 -8q-2 -10 -3 -21q-6 -41 -6 -81q0 -31 21 -55.5t63 -24.5q82 0 82 87
q0 39 -1 71.5t-5 65.5q-3 16 -6 33q-10 64 24 119t94 73q10 3 21 5q30 5 61 0q52 -10 91 -46.5t47 -91.5q5 -32 9 -56q16 -105 32.5 -154.5t40.5 -63.5t65 -14h1q71 0 120.5 -50t49.5 -121q0 -70 -49.5 -120.5t-120.5 -50.5h-1q-153 1 -257 81q-55 -52 -126 -81.5
t-149 -29.5t-145.5 30.5t-119.5 80.5q-48 -51 -109.5 -79t-137.5 -28q-41 0 -79 8q-31 -148 -121.5 -260.5t-224.5 -176t-296 -63.5q-198 0 -343 72t-224.5 205.5t-79.5 318.5z" />
    <glyph glyph-name="uniFEB3" unicode="&#x633;" horiz-adv-x="1652" arabic-form="initial" 
d="M-171 45q0 71 50.5 121t120.5 50q171 0 208 195q4 30 10 76q11 70 68 113t127 32q70 -10 113 -68t32 -127q-9 -59 -11.5 -84t-2.5 -37q0 -120 87 -120q49 0 79.5 43t47.5 163q2 31 8 71q9 64 61 104q1 1 2 1l1 1q47 35 104 33v0q1 0 3 -1q7 0 14 -1q65 -10 106 -63.5
t31 -119.5q-2 -23 -6 -47q-2 -22 -2 -42q0 -61 20.5 -100.5t80.5 -39.5q44 0 71 30.5t27 89.5q0 45 -6.5 89.5t-17.5 93.5q-16 68 22.5 128.5t106.5 76.5t128.5 -22.5t76.5 -106.5q14 -60 21 -98t9 -68.5t2 -70.5q0 -145 -53.5 -254t-147.5 -169.5t-216 -60.5
q-94 0 -173.5 34.5t-138.5 97.5q-63 -64 -137 -99t-152 -35q-87 0 -160 37.5t-126 101.5q-68 -55 -148.5 -87t-168.5 -32q-70 0 -120.5 50.5t-50.5 120.5z" />
    <glyph glyph-name="uniFEB4" unicode="&#x633;" horiz-adv-x="1817" arabic-form="medial" 
d="M-171 45q0 71 50.5 121t120.5 50q171 0 208 195q4 30 10 76q11 70 68 113t127 32q70 -10 113 -68t32 -127q-9 -59 -11.5 -84t-2.5 -37q0 -120 87 -120q49 0 79.5 43t47.5 163q2 31 8 71q9 64 61 104q1 1 2 1l1 1q47 35 104 33v0q1 0 3 -1q7 0 14 -1q65 -10 106 -63.5
t31 -119.5q-2 -23 -6 -47q-2 -22 -2 -42q0 -61 20.5 -100.5t80.5 -39.5q44 0 71 30.5t27 89.5q0 45 -6.5 89.5t-17.5 93.5q-17 63 18 122q38 66 111 83q68 18 130 -21t75 -107l2 -8q9 -41 15 -69q28 -121 58.5 -182t67 -82t84.5 -21h1q71 0 120.5 -50t49.5 -121
q0 -70 -49.5 -120.5t-120.5 -50.5h-1q-89 0 -164.5 32.5t-138.5 92.5q-56 -68 -135 -105.5t-174 -37.5q-94 0 -173.5 34.5t-138.5 97.5q-63 -64 -137 -99t-152 -35q-87 0 -160 37.5t-126 101.5q-68 -55 -148.5 -87t-168.5 -32q-70 0 -120.5 50.5t-50.5 120.5z" />
    <glyph glyph-name="uniFEB6" unicode="&#x634;" horiz-adv-x="2430" arabic-form="final" 
d="M17 -48q0 92 24 198.5t76 241.5q26 65 92.5 94t130.5 3q65 -26 94 -91.5t3 -130.5q-39 -97 -57.5 -176t-18.5 -139q0 -254 299 -254q149 0 232.5 70.5t83.5 203.5q0 71 -20.5 167t-54.5 181l-2 6q-25 65 3.5 132t93.5 92q28 11 58 11h1h4q35 0 68 -15q66 -29 91 -94
q40 -102 68 -158.5t52 -79t53 -22.5q42 0 62 43.5t35 146.5q1 16 5 39q2 18 9 35v0l2 4v1l2 4l1 1q0 2 1 3t1 2q1 2 2 3v1q2 2 3 5v0q24 37 66 58t89 15q63 -8 101.5 -60t29.5 -115q-1 -5 -1 -8q-2 -10 -3 -21q-6 -41 -6 -81q0 -31 21 -55.5t63 -24.5q82 0 82 87
q0 39 -1 71.5t-5 65.5q-3 16 -6 33q-10 64 24 119t94 73q10 3 21 5q30 5 61 0q52 -10 91 -46.5t47 -91.5q5 -32 9 -56q16 -105 32.5 -154.5t40.5 -63.5t65 -14h1q71 0 120.5 -50t49.5 -121q0 -70 -49.5 -120.5t-120.5 -50.5h-1q-153 1 -257 81q-55 -52 -126 -81.5
t-149 -29.5t-145.5 30.5t-119.5 80.5q-48 -51 -109.5 -79t-137.5 -28q-41 0 -79 8q-31 -148 -121.5 -260.5t-224.5 -176t-296 -63.5q-198 0 -343 72t-224.5 205.5t-79.5 318.5zM1291 1139q0 60 44 107t111 47q50 0 84 -21t53 -52q25 -41 25 -81q0 -31 -13.5 -68t-48 -63.5
t-97.5 -26.5q-64 0 -97.5 26.5t-47.5 62.5q-13 33 -13 69zM1121 825q0 60 44 107t111 47q50 0 84 -20.5t53 -51.5q25 -41 25 -82q0 -31 -13.5 -68t-48 -63.5t-97.5 -26.5q-64 0 -97.5 27t-47.5 63q-13 33 -13 68zM1463 825q0 60 44 107t111 47q50 0 84 -20.5t53 -51.5
q25 -41 25 -82q0 -31 -13.5 -68t-48 -63.5t-97.5 -26.5q-64 0 -97.5 27t-47.5 63q-13 33 -13 68z" />
    <glyph glyph-name="uniFEB7" unicode="&#x634;" horiz-adv-x="1652" arabic-form="initial" 
d="M-171 45q0 71 50.5 121t120.5 50q171 0 208 195q4 30 10 76q11 70 68 113t127 32q70 -10 113 -68t32 -127q-9 -59 -11.5 -84t-2.5 -37q0 -120 87 -120q49 0 79.5 43t47.5 163q2 31 8 71q9 64 61 104q1 1 2 1l1 1q47 35 104 33v0q1 0 3 -1q7 0 14 -1q65 -10 106 -63.5
t31 -119.5q-2 -23 -6 -47q-2 -22 -2 -42q0 -61 20.5 -100.5t80.5 -39.5q44 0 71 30.5t27 89.5q0 45 -6.5 89.5t-17.5 93.5q-16 68 22.5 128.5t106.5 76.5t128.5 -22.5t76.5 -106.5q14 -60 21 -98t9 -68.5t2 -70.5q0 -145 -53.5 -254t-147.5 -169.5t-216 -60.5
q-94 0 -173.5 34.5t-138.5 97.5q-63 -64 -137 -99t-152 -35q-87 0 -160 37.5t-126 101.5q-68 -55 -148.5 -87t-168.5 -32q-70 0 -120.5 50.5t-50.5 120.5zM648 1206q0 60 44 107t111 47q50 0 84 -21t53 -52q25 -41 25 -81q0 -31 -13.5 -68t-48 -63.5t-97.5 -26.5
q-64 0 -97.5 26.5t-47.5 62.5q-13 33 -13 69zM478 892q0 60 44 107t111 47q50 0 84 -20.5t53 -51.5q25 -41 25 -82q0 -31 -13.5 -68t-48 -63.5t-97.5 -26.5q-64 0 -97.5 27t-47.5 63q-13 33 -13 68zM820 892q0 60 44 107t111 47q50 0 84 -20.5t53 -51.5q25 -41 25 -82
q0 -31 -13.5 -68t-48 -63.5t-97.5 -26.5q-64 0 -97.5 27t-47.5 63q-13 33 -13 68z" />
    <glyph glyph-name="uniFEB8" unicode="&#x634;" horiz-adv-x="1817" arabic-form="medial" 
d="M-171 45q0 71 50.5 121t120.5 50q171 0 208 195q4 30 10 76q11 70 68 113t127 32q70 -10 113 -68t32 -127q-9 -59 -11.5 -84t-2.5 -37q0 -120 87 -120q49 0 79.5 43t47.5 163q2 31 8 71q9 64 61 104q1 1 2 1l1 1q47 35 104 33v0q1 0 3 -1q7 0 14 -1q65 -10 106 -63.5
t31 -119.5q-2 -23 -6 -47q-2 -22 -2 -42q0 -61 20.5 -100.5t80.5 -39.5q44 0 71 30.5t27 89.5q0 45 -6.5 89.5t-17.5 93.5q-17 63 18 122q38 66 111 83q68 18 130 -21t75 -107l2 -8q9 -41 15 -69q28 -121 58.5 -182t67 -82t84.5 -21h1q71 0 120.5 -50t49.5 -121
q0 -70 -49.5 -120.5t-120.5 -50.5h-1q-89 0 -164.5 32.5t-138.5 92.5q-56 -68 -135 -105.5t-174 -37.5q-94 0 -173.5 34.5t-138.5 97.5q-63 -64 -137 -99t-152 -35q-87 0 -160 37.5t-126 101.5q-68 -55 -148.5 -87t-168.5 -32q-70 0 -120.5 50.5t-50.5 120.5zM648 1206
q0 60 44 107t111 47q50 0 84 -21t53 -52q25 -41 25 -81q0 -31 -13.5 -68t-48 -63.5t-97.5 -26.5q-64 0 -97.5 26.5t-47.5 62.5q-13 33 -13 69zM478 892q0 60 44 107t111 47q50 0 84 -20.5t53 -51.5q25 -41 25 -82q0 -31 -13.5 -68t-48 -63.5t-97.5 -26.5q-64 0 -97.5 27
t-47.5 63q-13 33 -13 68zM820 892q0 60 44 107t111 47q50 0 84 -20.5t53 -51.5q25 -41 25 -82q0 -31 -13.5 -68t-48 -63.5t-97.5 -26.5q-64 0 -97.5 27t-47.5 63q-13 33 -13 68z" />
    <glyph glyph-name="uniFEBA" unicode="&#x635;" horiz-adv-x="2452" arabic-form="final" 
d="M16 -49q0 95 24.5 202t76.5 241q26 65 92.5 94t130.5 3q65 -26 94 -91.5t3 -130.5q-77 -199 -77 -318q0 -118 70.5 -185.5t229.5 -67.5q139 0 227 66.5t88 206.5q0 68 -21 165.5t-56 189.5q-6 16 -9 33q-11 58 18 112t85 77q65 27 131 0t93 -92q23 -57 59 -102
q121 206 285 327.5t353 121.5q125 0 222 -52t153 -146.5t56 -224.5q0 -73 -22 -142q18 -10 49 -16t80 -6h1q71 0 120.5 -50t49.5 -121q0 -70 -49.5 -120.5t-120.5 -50.5h-1q-97 0 -183 26t-153 71q-86 -59 -197 -93t-236 -34q-202 0 -368 68q-20 -166 -111 -291t-231 -195
t-308 -70q-208 0 -352.5 75.5t-220 209.5t-75.5 310zM1871 459q-83 0 -163 -70.5t-150 -192.5q58 -10 124 -10q140 0 230 48t90 111q0 54 -36.5 84t-94.5 30z" />
    <glyph glyph-name="uniFEBB" unicode="&#x635;" horiz-adv-x="1694" arabic-form="initial" 
d="M-171 45q0 71 50.5 121t120.5 50q65 0 116.5 18.5t85.5 77.5t45 180q2 24 11 46q17 46 58.5 77t94.5 33q71 3 124 -45t55 -118q2 -67 16 -114q258 436 612 436q128 0 225 -54.5t151 -151t54 -223.5q0 -144 -87.5 -260.5t-240.5 -185t-348 -68.5q-151 0 -283 45l-6 -14
q-29 -67 -89 -84t-110 12q-43 26 -57 77.5t8 110.5l14 34q-9 8 -17 15q-161 -186 -432 -186q-70 0 -120.5 50.5t-50.5 120.5zM1176 463q-163 0 -326 -251q53 -6 122 -6q334 0 334 147q0 56 -38 83t-92 27z" />
    <glyph glyph-name="uniFEBC" unicode="&#x635;" horiz-adv-x="1791" arabic-form="medial" 
d="M-171 45q0 71 50.5 121t120.5 50q65 0 116.5 18.5t85.5 77.5t45 180q2 24 11 46q17 46 58.5 77t94.5 33q71 3 124 -45t55 -118q2 -67 16 -114q258 436 612 436q128 0 225 -54.5t151 -151t54 -223.5q0 -61 -17 -118q19 -26 54.5 -35t104.5 -9h1q71 0 120.5 -50.5
t49.5 -120.5t-49.5 -120.5t-120.5 -50.5h-1q-100 0 -194 32t-166 88q-89 -61 -205.5 -95.5t-252.5 -34.5q-151 0 -283 45l-6 -14q-29 -67 -89 -84t-110 12q-43 26 -57 77.5t8 110.5l14 34q-9 8 -17 15q-161 -186 -432 -186q-70 0 -120.5 50.5t-50.5 120.5zM1176 463
q-163 0 -326 -251q53 -6 122 -6q334 0 334 147q0 56 -38 83t-92 27z" />
    <glyph glyph-name="uniFEBE" unicode="&#x636;" horiz-adv-x="2452" arabic-form="final" 
d="M16 -49q0 95 24.5 202t76.5 241q26 65 92.5 94t130.5 3q65 -26 94 -91.5t3 -130.5q-77 -199 -77 -318q0 -118 70.5 -185.5t229.5 -67.5q139 0 227 66.5t88 206.5q0 68 -21 165.5t-56 189.5q-6 16 -9 33q-11 58 18 112t85 77q65 27 131 0t93 -92q23 -57 59 -102
q121 206 285 327.5t353 121.5q125 0 222 -52t153 -146.5t56 -224.5q0 -73 -22 -142q18 -10 49 -16t80 -6h1q71 0 120.5 -50t49.5 -121q0 -70 -49.5 -120.5t-120.5 -50.5h-1q-97 0 -183 26t-153 71q-86 -59 -197 -93t-236 -34q-202 0 -368 68q-20 -166 -111 -291t-231 -195
t-308 -70q-208 0 -352.5 75.5t-220 209.5t-75.5 310zM1871 459q-83 0 -163 -70.5t-150 -192.5q58 -10 124 -10q140 0 230 48t90 111q0 54 -36.5 84t-94.5 30zM1754 1081q0 63 46.5 112.5t116.5 49.5q52 0 88 -22t56 -54q26 -41 26 -86q0 -32 -14 -71t-50.5 -67t-102.5 -28
q-68 0 -103.5 28.5t-49.5 65.5q-13 35 -13 72z" />
    <glyph glyph-name="uniFEBF" unicode="&#x636;" horiz-adv-x="1694" arabic-form="initial" 
d="M-171 45q0 71 50.5 121t120.5 50q65 0 116.5 18.5t85.5 77.5t45 180q2 24 11 46q17 46 58.5 77t94.5 33q71 3 124 -45t55 -118q2 -67 16 -114q258 436 612 436q128 0 225 -54.5t151 -151t54 -223.5q0 -144 -87.5 -260.5t-240.5 -185t-348 -68.5q-151 0 -283 45l-6 -14
q-29 -67 -89 -84t-110 12q-43 26 -57 77.5t8 110.5l14 34q-9 8 -17 15q-161 -186 -432 -186q-70 0 -120.5 50.5t-50.5 120.5zM1176 463q-163 0 -326 -251q53 -6 122 -6q334 0 334 147q0 56 -38 83t-92 27zM1044 1093q0 63 46.5 112.5t116.5 49.5q52 0 88 -22t56 -54
q26 -41 26 -86q0 -32 -14 -71t-50.5 -67t-102.5 -28q-68 0 -103.5 28.5t-49.5 65.5q-13 35 -13 72z" />
    <glyph glyph-name="uniFEC0" unicode="&#x636;" horiz-adv-x="1791" arabic-form="medial" 
d="M-171 45q0 71 50.5 121t120.5 50q65 0 116.5 18.5t85.5 77.5t45 180q2 24 11 46q17 46 58.5 77t94.5 33q71 3 124 -45t55 -118q2 -67 16 -114q258 436 612 436q128 0 225 -54.5t151 -151t54 -223.5q0 -61 -17 -118q19 -26 54.5 -35t104.5 -9h1q71 0 120.5 -50.5
t49.5 -120.5t-49.5 -120.5t-120.5 -50.5h-1q-100 0 -194 32t-166 88q-89 -61 -205.5 -95.5t-252.5 -34.5q-151 0 -283 45l-6 -14q-29 -67 -89 -84t-110 12q-43 26 -57 77.5t8 110.5l14 34q-9 8 -17 15q-161 -186 -432 -186q-70 0 -120.5 50.5t-50.5 120.5zM1176 463
q-163 0 -326 -251q53 -6 122 -6q334 0 334 147q0 56 -38 83t-92 27zM1044 1093q0 63 46.5 112.5t116.5 49.5q52 0 88 -22t56 -54q26 -41 26 -86q0 -32 -14 -71t-50.5 -67t-102.5 -28q-68 0 -103.5 28.5t-49.5 65.5q-13 35 -13 72z" />
    <glyph glyph-name="uniFEC2" unicode="&#x637;" horiz-adv-x="1619" arabic-form="final" 
d="M20 68q9 70 66.5 113.5t126.5 33.5q52 -7 100 -12q4 20 13 38q27 57 57 109q1 12 2 23q6 50 8.5 107t2.5 126q0 110 -5 224.5t-12.5 211t-15.5 152.5q-10 69 37 123t108 63q78 11 132.5 -37t64.5 -116q9 -56 17 -140t13 -176t5 -171v-18q143 80 294 80q125 0 220 -52
t148.5 -147t53.5 -225q0 -56 -10 -106q23 -23 66 -39.5t106 -16.5h1q71 0 120.5 -50t49.5 -121q0 -70 -49.5 -120.5t-120.5 -50.5h-1q-98 0 -193.5 29.5t-171.5 86.5q-120 -79 -291.5 -112.5t-368.5 -33.5q-200 0 -426 31q-69 10 -112.5 66.5t-34.5 126.5zM992 458
q-82 0 -167.5 -70t-161.5 -202q74 1 152.5 6.5t146.5 21.5t110 47.5t42 82.5q0 39 -31.5 76.5t-90.5 37.5z" />
    <glyph glyph-name="uniFEC3" unicode="&#x637;" horiz-adv-x="1178" arabic-form="initial" 
d="M-170 46q0 71 50 120.5t120 49.5h22q4 12 9 23q28 59 59 112q1 11 2 21q6 50 8 107.5t2 126.5q0 110 -5 224.5t-12 211t-15 152.5q-10 69 37 123t108 63q78 11 132.5 -37t64.5 -116q9 -56 17 -140t13 -176t5 -171v-18q143 80 294 80q125 0 220 -52t148 -147t53 -225
q0 -150 -66.5 -247.5t-185 -152.5t-275 -77.5t-335.5 -22.5h-300q-70 0 -120 50t-50 118zM699 458q-77 0 -157.5 -62t-153.5 -180q167 2 261 13t132.5 39t38.5 80q0 51 -31 80.5t-90 29.5z" />
    <glyph glyph-name="uniFEC4" unicode="&#x637;" horiz-adv-x="1269" arabic-form="medial" 
d="M-170 46q0 71 50 120.5t120 49.5h22q4 12 9 23q28 59 59 112q1 11 2 21q6 50 8 107.5t2 126.5q0 110 -5 224.5t-12 211t-15 152.5q-10 69 37 123t108 63q78 11 132.5 -37t64.5 -116q9 -56 17 -140t13 -176t5 -171v-18q143 80 294 80q125 0 220 -52t148 -147t53 -225
q0 -57 -10 -107q15 -23 41.5 -39t74.5 -16h1q71 0 120.5 -50t49.5 -121q0 -70 -49.5 -120.5t-120.5 -50.5h-1q-198 0 -327 120q-118 -66 -284 -91t-357 -25h-300q-70 0 -120 50t-50 118zM699 458q-77 0 -157.5 -62t-153.5 -180q167 2 261 13t132.5 39t38.5 80q0 51 -31 80.5
t-90 29.5z" />
    <glyph glyph-name="uniFEC6" unicode="&#x638;" horiz-adv-x="1619" arabic-form="final" 
d="M20 68q9 70 66.5 113.5t126.5 33.5q52 -7 100 -12q4 20 13 38q27 57 57 109q1 12 2 23q6 50 8.5 107t2.5 126q0 110 -5 224.5t-12.5 211t-15.5 152.5q-10 69 37 123t108 63q78 11 132.5 -37t64.5 -116q9 -56 17 -140t13 -176t5 -171v-18q143 80 294 80q125 0 220 -52
t148.5 -147t53.5 -225q0 -56 -10 -106q23 -23 66 -39.5t106 -16.5h1q71 0 120.5 -50t49.5 -121q0 -70 -49.5 -120.5t-120.5 -50.5h-1q-98 0 -193.5 29.5t-171.5 86.5q-120 -79 -291.5 -112.5t-368.5 -33.5q-200 0 -426 31q-69 10 -112.5 66.5t-34.5 126.5zM992 458
q-82 0 -167.5 -70t-161.5 -202q74 1 152.5 6.5t146.5 21.5t110 47.5t42 82.5q0 39 -31.5 76.5t-90.5 37.5zM894 1089q0 63 46.5 112.5t116.5 49.5q52 0 88 -22t56 -54q26 -41 26 -86q0 -32 -14 -71t-50.5 -67t-102.5 -28q-68 0 -103.5 28.5t-49.5 65.5q-13 35 -13 72z" />
    <glyph glyph-name="uniFEC7" unicode="&#x638;" horiz-adv-x="1178" arabic-form="initial" 
d="M-170 46q0 71 50 120.5t120 49.5h22q4 12 9 23q28 59 59 112q1 11 2 21q6 50 8 107.5t2 126.5q0 110 -5 224.5t-12 211t-15 152.5q-10 69 37 123t108 63q78 11 132.5 -37t64.5 -116q9 -56 17 -140t13 -176t5 -171v-18q143 80 294 80q125 0 220 -52t148 -147t53 -225
q0 -150 -66.5 -247.5t-185 -152.5t-275 -77.5t-335.5 -22.5h-300q-70 0 -120 50t-50 118zM699 458q-77 0 -157.5 -62t-153.5 -180q167 2 261 13t132.5 39t38.5 80q0 51 -31 80.5t-90 29.5zM601 1089q0 63 46.5 112.5t116.5 49.5q52 0 88 -22t56 -54q26 -41 26 -86
q0 -32 -14 -71t-50.5 -67t-102.5 -28q-68 0 -103.5 28.5t-49.5 65.5q-13 35 -13 72z" />
    <glyph glyph-name="uniFEC8" unicode="&#x638;" horiz-adv-x="1269" arabic-form="medial" 
d="M-170 46q0 71 50 120.5t120 49.5h22q4 12 9 23q28 59 59 112q1 11 2 21q6 50 8 107.5t2 126.5q0 110 -5 224.5t-12 211t-15 152.5q-10 69 37 123t108 63q78 11 132.5 -37t64.5 -116q9 -56 17 -140t13 -176t5 -171v-18q143 80 294 80q125 0 220 -52t148 -147t53 -225
q0 -57 -10 -107q15 -23 41.5 -39t74.5 -16h1q71 0 120.5 -50t49.5 -121q0 -70 -49.5 -120.5t-120.5 -50.5h-1q-198 0 -327 120q-118 -66 -284 -91t-357 -25h-300q-70 0 -120 50t-50 118zM699 458q-77 0 -157.5 -62t-153.5 -180q167 2 261 13t132.5 39t38.5 80q0 51 -31 80.5
t-90 29.5zM601 1089q0 63 46.5 112.5t116.5 49.5q52 0 88 -22t56 -54q26 -41 26 -86q0 -32 -14 -71t-50.5 -67t-102.5 -28q-68 0 -103.5 28.5t-49.5 65.5q-13 35 -13 72z" />
    <glyph glyph-name="uniFECA" unicode="&#x639;" horiz-adv-x="1132" arabic-form="final" 
d="M15 -285q0 118 42 214t110.5 173.5t147.5 139.5q-65 64 -125.5 132.5t-119.5 137.5l-1 2q-10 9 -18 20q-22 30 -27 69q-8 37 0 74t38 69q8 10 17 18q104 89 236 136t271 47q126 0 234.5 -41.5t174.5 -125t66 -210.5q0 -105 -41.5 -183.5t-105.5 -140.5q50 -15 104 -23
t113 -8h1q68 0 119 -49.5t51 -120.5q0 -70 -51 -120t-119 -50h-1q-161 0 -294 40t-245 107q-98 -63 -167.5 -134t-69.5 -173q0 -74 54.5 -115.5t135 -58t158.5 -16.5q93 0 201 20q80 14 137 -32.5t64 -115.5q6 -61 -34.5 -118t-104.5 -70q-67 -13 -133.5 -18.5t-129.5 -5.5
q-135 0 -258.5 31.5t-220.5 97t-153 165.5t-56 236zM586 605q-69 0 -136 -21q34 -40 70.5 -78.5t76.5 -74.5q55 36 89.5 65t34.5 54q0 35 -45.5 45t-89.5 10z" />
    <glyph glyph-name="uniFECB" unicode="&#x639;" horiz-adv-x="1023" arabic-form="initial" 
d="M-171 45q0 71 50.5 121t120.5 50q50 0 93 2q-58 100 -58 228q0 105 37.5 199.5t105 168.5t157.5 116.5t195 42.5q149 0 285 -81q60 -37 78.5 -105t-17.5 -129t-104 -78.5t-130 17.5q-23 13 -59 22.5t-62 9.5q-44 0 -84.5 -26.5t-66 -68t-25.5 -87.5q0 -128 241 -128
q50 0 111 8q48 8 105 16q2 1 5 1v0q24 3 49 0q56 -8 96 -44q44 -39 53 -94q8 -51 -12 -98q-9 -21 -23 -38q-40 -53 -104 -63q-4 -1 -7 -1q-26 -6 -58 -11q-110 -22 -206 -47q-106 -27 -198 -43.5t-187.5 -23.5t-209.5 -7q-70 0 -120.5 50.5t-50.5 120.5z" />
    <glyph glyph-name="uniFECC" unicode="&#x639;" horiz-adv-x="1094" arabic-form="medial" 
d="M-171 45q0 71 50.5 121t120.5 50q59 0 121.5 9t124.5 24q-51 48 -100.5 99.5t-97.5 107.5q-24 27 -33 61.5t-3 68.5q5 41 28 74q15 21 34 37q86 83 217.5 136.5t312.5 53.5q77 0 158.5 -23t151 -70.5t112 -121.5t42.5 -177q0 -76 -33.5 -143.5t-91.5 -126.5q66 -9 150 -9
h1q71 0 120.5 -50t49.5 -121q0 -70 -49.5 -120.5t-120.5 -50.5h-1q-140 0 -266.5 33.5t-241.5 94.5q-153 -63 -311 -95.5t-274 -32.5q-70 0 -120.5 50.5t-50.5 120.5zM590 543q-69 0 -136 -22q79 -82 145 -136q57 32 91.5 61t34.5 47q0 25 -39.5 37.5t-95.5 12.5z" />
    <glyph glyph-name="uniFECE" unicode="&#x63a;" horiz-adv-x="1132" arabic-form="final" 
d="M15 -285q0 118 42 214t110.5 173.5t147.5 139.5q-65 64 -125.5 132.5t-119.5 137.5l-1 2q-10 9 -18 20q-22 30 -27 69q-8 37 0 74t38 69q8 10 17 18q104 89 236 136t271 47q126 0 234.5 -41.5t174.5 -125t66 -210.5q0 -105 -41.5 -183.5t-105.5 -140.5q50 -15 104 -23
t113 -8h1q68 0 119 -49.5t51 -120.5q0 -70 -51 -120t-119 -50h-1q-161 0 -294 40t-245 107q-98 -63 -167.5 -134t-69.5 -173q0 -74 54.5 -115.5t135 -58t158.5 -16.5q93 0 201 20q80 14 137 -32.5t64 -115.5q6 -61 -34.5 -118t-104.5 -70q-67 -13 -133.5 -18.5t-129.5 -5.5
q-135 0 -258.5 31.5t-220.5 97t-153 165.5t-56 236zM586 605q-69 0 -136 -21q34 -40 70.5 -78.5t76.5 -74.5q55 36 89.5 65t34.5 54q0 35 -45.5 45t-89.5 10zM346 1256q0 63 46.5 112.5t116.5 49.5q52 0 88 -22t56 -54q26 -41 26 -86q0 -32 -14 -71t-50.5 -67t-102.5 -28
q-68 0 -103.5 28.5t-49.5 65.5q-13 35 -13 72z" />
    <glyph glyph-name="uniFECF" unicode="&#x63a;" horiz-adv-x="1023" arabic-form="initial" 
d="M-171 45q0 71 50.5 121t120.5 50q50 0 93 2q-58 100 -58 228q0 105 37.5 199.5t105 168.5t157.5 116.5t195 42.5q149 0 285 -81q60 -37 78.5 -105t-17.5 -129t-104 -78.5t-130 17.5q-23 13 -59 22.5t-62 9.5q-44 0 -84.5 -26.5t-66 -68t-25.5 -87.5q0 -128 241 -128
q50 0 111 8q48 8 105 16q2 1 5 1v0q24 3 49 0q56 -8 96 -44q44 -39 53 -94q8 -51 -12 -98q-9 -21 -23 -38q-40 -53 -104 -63q-4 -1 -7 -1q-26 -6 -58 -11q-110 -22 -206 -47q-106 -27 -198 -43.5t-187.5 -23.5t-209.5 -7q-70 0 -120.5 50.5t-50.5 120.5zM359 1302
q0 63 46.5 112.5t116.5 49.5q52 0 88 -22t56 -54q26 -41 26 -86q0 -32 -14 -71t-50.5 -67t-102.5 -28q-68 0 -103.5 28.5t-49.5 65.5q-13 35 -13 72z" />
    <glyph glyph-name="uniFED0" unicode="&#x63a;" horiz-adv-x="1094" arabic-form="medial" 
d="M-171 45q0 71 50.5 121t120.5 50q59 0 121.5 9t124.5 24q-51 48 -100.5 99.5t-97.5 107.5q-24 27 -33 61.5t-3 68.5q5 41 28 74q15 21 34 37q86 83 217.5 136.5t312.5 53.5q77 0 158.5 -23t151 -70.5t112 -121.5t42.5 -177q0 -76 -33.5 -143.5t-91.5 -126.5q66 -9 150 -9
h1q71 0 120.5 -50t49.5 -121q0 -70 -49.5 -120.5t-120.5 -50.5h-1q-140 0 -266.5 33.5t-241.5 94.5q-153 -63 -311 -95.5t-274 -32.5q-70 0 -120.5 50.5t-50.5 120.5zM590 543q-69 0 -136 -22q79 -82 145 -136q57 32 91.5 61t34.5 47q0 25 -39.5 37.5t-95.5 12.5zM420 1224
q0 63 46.5 112.5t116.5 49.5q52 0 88 -22t56 -54q26 -41 26 -86q0 -32 -14 -71t-50.5 -67t-102.5 -28q-68 0 -103.5 28.5t-49.5 65.5q-13 35 -13 72z" />
    <glyph glyph-name="uniFED2" unicode="&#x641;" horiz-adv-x="1857" arabic-form="final" 
d="M19 377q0 72 11.5 147.5t45.5 139.5q32 63 100 85.5t131 -9.5q127 -64 76 -231l-5 -24t-10 -55t-5 -53q0 -60 28.5 -103t114.5 -65.5t258 -22.5q163 0 287 14q-56 65 -87 136.5t-31 146.5q0 133 59 241t161.5 172.5t230.5 64.5t229.5 -64.5t161 -173t59.5 -241.5
q0 -136 -98 -263q56 -3 120 -3h1q71 0 120.5 -50t49.5 -121q0 -70 -49.5 -120.5t-120.5 -50.5h-1q-124 0 -242.5 24.5t-223.5 68.5q-131 -58 -289.5 -90.5t-336.5 -32.5q-79 0 -178 7.5t-198.5 34t-183 84t-134.5 156.5t-51 251zM1275 483q0 -121 112 -186q105 69 105 185
q0 59 -28 97t-80 38q-53 0 -81 -38t-28 -96zM1222 1301q0 63 46.5 112.5t116.5 49.5q52 0 88 -22t56 -54q26 -41 26 -86q0 -32 -14 -71t-50.5 -67t-102.5 -28q-68 0 -103.5 28.5t-49.5 65.5q-13 35 -13 72z" />
    <glyph glyph-name="uniFED3" unicode="&#x641;" horiz-adv-x="924" arabic-form="initial" 
d="M-171 45q0 71 50.5 121t120.5 50q218 0 338.5 11.5t175.5 48.5q18 12 31 28q-50 -6 -98 -6q-214 0 -322 89t-108 284q0 160 55.5 282t149 190.5t207.5 68.5q143 0 250.5 -90.5t167.5 -258.5t60 -401q0 -135 -35 -240.5t-117 -176.5q-107 -93 -295.5 -132t-459.5 -39
q-70 0 -120.5 50.5t-50.5 120.5zM325 714q0 -103 123 -103q34 0 65.5 6t57.5 13h1q-15 132 -52 184.5t-83 52.5q-43 0 -77.5 -41t-34.5 -112zM263 1563q0 63 46.5 112.5t116.5 49.5q52 0 88 -22t56 -54q26 -41 26 -86q0 -32 -14 -71t-50.5 -67t-102.5 -28q-68 0 -103.5 28.5
t-49.5 65.5q-13 35 -13 72z" />
    <glyph glyph-name="uniFED4" unicode="&#x641;" horiz-adv-x="944" arabic-form="medial" 
d="M-171 45q0 71 50.5 121t120.5 50q66 0 123 3q-48 60 -74 126t-26 135q0 133 58.5 241.5t160 172.5t229.5 64t230 -64t161 -172.5t59 -241.5q0 -69 -26 -135t-73 -126q56 -3 121 -3h1q71 0 120.5 -50t49.5 -121q0 -70 -49.5 -120.5t-120.5 -50.5h-1q-126 0 -245.5 25
t-224.5 69q-106 -44 -226 -69t-247 -25q-70 0 -120.5 50.5t-50.5 120.5zM365 480q0 -119 107 -183q107 64 107 183q0 59 -28 96.5t-80 37.5t-79 -37.5t-27 -96.5zM325 1301q0 63 46.5 112.5t116.5 49.5q52 0 88 -22t56 -54q26 -41 26 -86q0 -32 -14 -71t-50.5 -67
t-102.5 -28q-68 0 -103.5 28.5t-49.5 65.5q-13 35 -13 72z" />
    <glyph glyph-name="uniFED6" unicode="&#x642;" horiz-adv-x="1521" arabic-form="final" 
d="M670 1079q0 63 46.5 112.5t116.5 49.5q52 0 88 -22t56 -54q26 -41 26 -86q0 -33 -14 -71.5t-50.5 -66.5t-102.5 -28q-68 0 -103.5 28.5t-49.5 65.5q-13 35 -13 72zM1030 1079q0 63 46.5 112.5t116.5 49.5q52 0 88 -22t56 -54q26 -41 26 -86q0 -33 -14 -71.5t-50.5 -66.5
t-102.5 -28q-68 0 -103.5 28.5t-49.5 65.5q-13 35 -13 72zM1033 787q141 0 234.5 -75t145 -204.5t68.5 -291.5h40q71 0 120.5 -50t49.5 -121q0 -70 -49.5 -120.5t-120.5 -50.5h-49q-33 -155 -127 -272t-244.5 -182t-352.5 -65q-220 0 -383.5 76t-254 214.5t-90.5 323.5
q0 126 26.5 248t72.5 238q26 65 93 94t131 3q65 -26 94 -91.5t3 -130.5q-31 -79 -53.5 -169t-22.5 -179q0 -148 99.5 -216.5t280.5 -68.5q169 0 263 43.5t130 133.5h-90q-214 0 -327.5 103.5t-113.5 302.5q0 144 58.5 259t155.5 181.5t213 66.5zM1044 216h112
q-10 94 -38.5 166.5t-92.5 72.5q-40 0 -70 -37t-30 -106q0 -55 29.5 -75.5t89.5 -20.5z" />
    <glyph glyph-name="uniFED7" unicode="&#x642;" horiz-adv-x="924" arabic-form="initial" 
d="M-171 45q0 71 50.5 121t120.5 50q218 0 338.5 11.5t175.5 48.5q18 12 31 28q-50 -6 -98 -6q-214 0 -322 89t-108 284q0 160 55.5 282t149 190.5t207.5 68.5q143 0 250.5 -90.5t167.5 -258.5t60 -401q0 -135 -35 -240.5t-117 -176.5q-107 -93 -295.5 -132t-459.5 -39
q-70 0 -120.5 50.5t-50.5 120.5zM325 714q0 -103 123 -103q34 0 65.5 6t57.5 13h1q-15 132 -52 184.5t-83 52.5q-43 0 -77.5 -41t-34.5 -112zM90 1494q0 63 46.5 112.5t116.5 49.5q52 0 88 -22t56 -54q26 -41 26 -86q0 -33 -14 -71.5t-50.5 -66.5t-102.5 -28
q-68 0 -103.5 28.5t-49.5 65.5q-13 35 -13 72zM450 1494q0 63 46.5 112.5t116.5 49.5q52 0 88 -22t56 -54q26 -41 26 -86q0 -33 -14 -71.5t-50.5 -66.5t-102.5 -28q-68 0 -103.5 28.5t-49.5 65.5q-13 35 -13 72z" />
    <glyph glyph-name="uniFED8" unicode="&#x642;" horiz-adv-x="944" arabic-form="medial" 
d="M-171 45q0 71 50.5 121t120.5 50q66 0 123 3q-48 60 -74 126t-26 135q0 133 58.5 241.5t160 172.5t229.5 64t230 -64t161 -172.5t59 -241.5q0 -69 -26 -135t-73 -126q56 -3 121 -3h1q71 0 120.5 -50t49.5 -121q0 -70 -49.5 -120.5t-120.5 -50.5h-1q-126 0 -245.5 25
t-224.5 69q-106 -44 -226 -69t-247 -25q-70 0 -120.5 50.5t-50.5 120.5zM365 480q0 -119 107 -183q107 64 107 183q0 59 -28 96.5t-80 37.5t-79 -37.5t-27 -96.5zM150 1263q0 63 46.5 112.5t116.5 49.5q52 0 88 -22t56 -54q26 -41 26 -86q0 -33 -14 -71.5t-50.5 -66.5
t-102.5 -28q-68 0 -103.5 28.5t-49.5 65.5q-13 35 -13 72zM510 1263q0 63 46.5 112.5t116.5 49.5q52 0 88 -22t56 -54q26 -41 26 -86q0 -33 -14 -71.5t-50.5 -66.5t-102.5 -28q-68 0 -103.5 28.5t-49.5 65.5q-13 35 -13 72z" />
    <glyph glyph-name="uniFEDA" unicode="&#x643;" horiz-adv-x="1800" arabic-form="final" 
d="M19 381q0 175 57 284q31 63 99.5 85.5t131.5 -9.5q62 -31 81.5 -91t-5.5 -140q-8 -27 -14 -69t-6 -74q0 -66 36 -105.5t127 -57.5t256 -18q180 0 282 25t143.5 79t41.5 141q0 115 -5 252.5t-14.5 271t-22.5 234.5q-9 70 34.5 126.5t113.5 65.5t126.5 -34.5t65.5 -113.5
q15 -114 25 -254t15.5 -282.5t5.5 -265.5q0 -128 50.5 -171.5t155.5 -43.5h1q71 0 120.5 -50t49.5 -121q0 -70 -49.5 -120.5t-120.5 -50.5h-1q-106 0 -204 34.5t-173 102.5q-97 -82 -254.5 -124.5t-382.5 -42.5q-275 0 -443.5 57.5t-245.5 176.5t-77 303zM1002 1084
q-4 -35 -30 -57.5t-61 -18.5q-21 3 -41 3q-66 0 -112.5 -24.5t-46.5 -64.5q0 -22 27 -33t67 -21q46 -11 95.5 -30.5t84 -60.5t34.5 -118q0 -102 -92 -165.5t-238 -63.5q-33 0 -60 1.5t-48 3.5q-35 4 -57 31.5t-18 63.5q5 37 32.5 59t63.5 17q20 -2 43.5 -4t48.5 -2
q57 0 104.5 11.5t47.5 42.5q0 16 -23.5 25.5t-58.5 19.5q-45 13 -97.5 34t-90 64.5t-37.5 122.5q0 73 44.5 132t119.5 94t167 35q22 0 56 -3q35 -3 57.5 -30t18.5 -64z" />
    <glyph glyph-name="uniFEDB" unicode="&#x643;" horiz-adv-x="1054" arabic-form="initial" 
d="M-172 45q0 71 51 121t121 50q219 0 309 33t90 82q0 72 -85 178.5t-228 253.5q-52 53 -78 90.5t-26 99.5q0 56 33.5 102t93.5 65l679 224q84 27 150 -0.5t87 -102.5q21 -78 -9.5 -134.5t-98.5 -76.5l-481 -143q118 -137 184.5 -227.5t94.5 -163t28 -156.5
q0 -225 -180 -345.5t-563 -120.5q-70 0 -121 50.5t-51 120.5z" />
    <glyph glyph-name="uniFEDC" unicode="&#x643;" horiz-adv-x="1143" arabic-form="medial" 
d="M-172 45q0 71 51 121t121 50q219 0 309 33t90 82q0 72 -85 178.5t-228 253.5q-52 53 -78 90.5t-26 99.5q0 56 33.5 102t93.5 65l679 224q84 27 150 -0.5t87 -102.5q21 -78 -9.5 -134.5t-98.5 -76.5l-481 -143q85 -99 143 -172t94 -133q4 -6 7 -12q71 -125 128.5 -203
t133.5 -114.5t200 -36.5h1q71 0 120.5 -50t49.5 -121q0 -70 -49.5 -120.5t-120.5 -50.5h-1q-157 0 -276 49t-219 143q-84 -94 -244.5 -143t-402.5 -49q-70 0 -121 50.5t-51 120.5z" />
    <glyph glyph-name="uniFEDE" unicode="&#x644;" horiz-adv-x="1448" arabic-form="final" 
d="M19 -37q0 125 33.5 225.5t79.5 191.5q31 63 99.5 85t131.5 -9t85 -99t-9 -131q-29 -59 -52.5 -127t-23.5 -136q0 -106 67.5 -166t187.5 -60q175 0 239.5 100t64.5 311q0 254 -13.5 506.5t-34.5 544.5q-4 71 42.5 125t116.5 58q71 5 125 -41.5t58 -117.5
q15 -215 27.5 -409.5t18.5 -386.5q4 -72 13.5 -119t46.5 -69.5t125 -22.5h1q71 0 120.5 -50t49.5 -121q0 -70 -49.5 -120.5t-120.5 -50.5h-1q-108 0 -206 46q-32 -138 -107.5 -258.5t-202.5 -194.5t-313 -74q-116 0 -223.5 40.5t-192 116t-134 180.5t-49.5 233z" />
    <glyph glyph-name="uniFEDF" unicode="&#x644;" horiz-adv-x="494" arabic-form="initial" 
d="M-171 45q0 71 50.5 121t120.5 50q65 0 98 79.5t33 254.5q0 56 -5.5 135t-17.5 200.5t-33 302.5q-8 70 34.5 127t112.5 66t127 -34t66 -113q27 -209 39 -355.5t12 -265.5q0 -268 -47 -430.5t-149.5 -235.5t-269.5 -73q-70 0 -120.5 50.5t-50.5 120.5z" />
    <glyph glyph-name="uniFEE0" unicode="&#x644;" horiz-adv-x="674" arabic-form="medial" 
d="M-171 45q0 71 50.5 121t120.5 50q75 0 110 9.5t45.5 42.5t10.5 101q0 152 -5.5 286.5t-15 265.5t-23.5 274q-7 71 39 125.5t116 61.5t125 -38.5t62 -116.5q20 -213 31.5 -411t12.5 -429q1 -9 1 -18q0 -94 33 -123.5t131 -29.5h1q71 0 120.5 -50t49.5 -121
q0 -70 -49.5 -120.5t-120.5 -50.5h-1q-92 0 -178.5 27.5t-154.5 81.5q-136 -109 -340 -109q-70 0 -120.5 50.5t-50.5 120.5z" />
    <glyph glyph-name="uniFEE2" unicode="&#x645;" horiz-adv-x="1352" arabic-form="final" 
d="M751 737q140 0 235.5 -65t146.5 -173t56 -238q23 -28 54 -36.5t108 -8.5h1q74 0 122 -51t48 -120t-48 -120t-122 -51h-1q-87 0 -157.5 16t-126.5 45q-61 -49 -147.5 -71.5t-190.5 -22.5q-89 0 -174 12t-157 25q-21 4 -27.5 -2t-5.5 -23l34 -596q4 -76 -46 -131t-124 -55
q-68 0 -117 46.5t-53 114.5l-38 677q-8 142 64 224.5t190 99.5q18 89 54.5 178t94 163t138.5 118.5t189 44.5zM751 397q-66 0 -99 -56t-55 -146q39 -7 76.5 -10.5t73.5 -3.5q44 0 73.5 13t29.5 61q0 50 -20.5 96t-78.5 46z" />
    <glyph glyph-name="uniFEE3" unicode="&#x645;" horiz-adv-x="1114" arabic-form="initial" 
d="M-171 45q0 71 50.5 121t120.5 50q71 0 116 63.5t108 190.5q35 70 69 131.5t71 107.5q2 3 5 5q31 39 79.5 51t94.5 -1q35 -10 63 -33l3 -2q48 41 114 39.5t114 -46.5q237 -228 237 -502q0 -174 -120.5 -275t-322.5 -101q-121 0 -209 34t-143 95q-54 -44 -123.5 -71.5
t-155.5 -27.5q-70 0 -120.5 50.5t-50.5 120.5zM507 271q0 -85 115 -85q109 0 109 82q0 42 -29 89.5t-93 108.5q-30 -38 -50 -69q-15 -24 -27 -45q-25 -47 -25 -81z" />
    <glyph glyph-name="uniFEE4" unicode="&#x645;" horiz-adv-x="1239" arabic-form="medial" 
d="M-171 45q0 71 50.5 121t120.5 50q71 0 116 63.5t108 190.5q35 70 69 131.5t71 107.5q2 3 5 5q31 39 79.5 51t94.5 -1q35 -10 63 -33l2 -2q52 43 120 40t114 -51q8 -9 16 -17q27 -28 51 -56q55 -64 83.5 -115.5t56.5 -124.5q41 -109 78.5 -149t110.5 -40h1q71 0 120.5 -50
t49.5 -121q0 -70 -49.5 -120.5t-120.5 -50.5h-1q-89 0 -157.5 21t-119.5 56q-121 -107 -330 -107q-121 0 -209 34t-143 95q-54 -44 -123.5 -71.5t-155.5 -27.5q-70 0 -120.5 50.5t-50.5 120.5zM507 271q0 -85 115 -85q109 0 109 82q0 42 -29 89.5t-93 108.5q-30 -38 -50 -69
q-15 -24 -27 -45q-25 -47 -25 -81z" />
    <glyph glyph-name="uniFEE6" unicode="&#x646;" horiz-adv-x="1526" arabic-form="final" 
d="M714 -596q-206 0 -363 79t-244.5 216t-87.5 310q0 108 23.5 225t62.5 220q26 65 91 95t130 4q65 -25 95 -90.5t4 -130.5q-26 -67 -44 -146.5t-18 -144.5q0 -139 89 -217t264 -78t271 78t96 223q0 48 -10 100.5t-28 106.5q-9 23 -16 46l-1 3q-12 32 -27 67q-28 65 -1 131
t91 94q65 28 131.5 1t94.5 -92q20 -46 36 -92q3 -7 5 -14v-1q6 -17 11 -33q24 -67 58.5 -107.5t97.5 -40.5h1q71 0 120.5 -50t49.5 -121q0 -70 -49.5 -120.5t-120.5 -50.5h-1q-54 0 -111 18q-30 -144 -127 -254t-244 -172t-329 -62zM545 356q0 63 46.5 112.5t116.5 49.5
q52 0 88 -22t56 -54q26 -41 26 -86q0 -32 -14 -71t-50.5 -67t-102.5 -28q-68 0 -103.5 28.5t-49.5 65.5q-13 35 -13 72z" />
    <glyph glyph-name="uniFEE7" unicode="&#x646;" horiz-adv-x="560" arabic-form="initial" 
d="M-171 45q0 71 50.5 121t120.5 50q113 0 156 30t43 117q0 34 -3.5 78t-10.5 99q-8 70 35 126.5t113 65.5t125.5 -34t66.5 -113q21 -134 21 -224q0 -226 -140.5 -356.5t-405.5 -130.5q-70 0 -120.5 50.5t-50.5 120.5zM36 1018q0 63 46.5 112.5t116.5 49.5q52 0 88 -22
t56 -54q26 -41 26 -86q0 -32 -14 -71t-50.5 -67t-102.5 -28q-68 0 -103.5 28.5t-49.5 65.5q-13 35 -13 72z" />
    <glyph glyph-name="uniFEE8" unicode="&#x646;" horiz-adv-x="811" arabic-form="medial" 
d="M-172 45q0 71 51 121t121 50q121 0 175.5 26t71 86.5t22.5 163.5q5 79 58.5 123t125.5 39q71 -4 117.5 -58.5t41.5 -123.5q-13 -138 32 -197t166 -59h1q71 0 120.5 -50t49.5 -121q0 -70 -49.5 -120.5t-120.5 -50.5h-1q-117 0 -213 41.5t-161 138.5q-85 -106 -193 -143
t-243 -37q-70 0 -121 50.5t-51 120.5zM72 928q0 63 46.5 112.5t116.5 49.5q52 0 88 -22t56 -54q26 -41 26 -86q0 -32 -14 -71t-50.5 -67t-102.5 -28q-68 0 -103.5 28.5t-49.5 65.5q-13 35 -13 72z" />
    <glyph glyph-name="uniFEEA" unicode="&#x647;" horiz-adv-x="1100" arabic-form="final" 
d="M59 373q0 145 88.5 266.5t262.5 201.5q49 22 97.5 50.5t67.5 50.5q3 63 47.5 110t109.5 53q70 7 124.5 -39t61.5 -117l50 -558q10 -112 37 -143.5t94 -31.5h1q71 0 120.5 -50t49.5 -121q0 -70 -49.5 -120.5t-120.5 -50.5h-1q-129 0 -216 38t-141 104q-20 -9 -42 -12
q-33 -4 -70.5 -6t-60.5 -2q-180 0 -292.5 49.5t-165 135t-52.5 192.5zM403 395q0 -25 35 -41t131 -16q24 0 59 3l-2 20l-17 194q-26 -13 -53 -26q-153 -73 -153 -134z" />
    <glyph glyph-name="uniFEEB" unicode="&#x647;" horiz-adv-x="1359" arabic-form="initial" 
d="M-171 45q0 71 50.5 121t120.5 50q49 0 95 2q-65 98 -65 204q0 102 35.5 193t97.5 161.5t142 111t169 40.5q63 0 120.5 -25t105.5 -69q16 1 33 -1q198 -26 329 -87t196 -172t65 -287q0 -123 -56 -216t-156 -145t-234 -52q-107 0 -213 20t-202 56q-197 -76 -462 -76
q-70 0 -120.5 50.5t-50.5 120.5zM364 454q0 -49 29 -88.5t80 -69.5q113 61 113 160q0 53 -34 92t-79 39q-48 0 -78.5 -40t-30.5 -93zM1013 306q0 57 -44 93t-118 59q-1 -132 -60 -240q39 -2 80 -2q142 0 142 90z" />
    <glyph glyph-name="uniFEEC" unicode="&#x647;" horiz-adv-x="990" arabic-form="medial" 
d="M-171 45q0 71 50 121t121 50q23 0 44 1q7 112 36.5 236.5t89.5 232.5t157 176t240 68q108 0 184.5 -59t117 -147.5t40.5 -177.5q0 -174 -119 -330h200q71 0 120.5 -50t49.5 -121q0 -70 -49.5 -120.5t-120.5 -50.5h-68q3 -28 4 -53.5t1 -52.5q0 -63 -18.5 -134.5
t-58.5 -134.5t-105 -103t-158 -40q-106 0 -189.5 44.5t-147 119t-106.5 167.5t-68 189q-38 -2 -76 -2q-70 0 -120.5 50.5t-50.5 120.5zM532 573q-51 0 -89 -70t-52 -217q101 44 150 104t49 115q0 32 -11.5 50t-46.5 18zM570 -115q-12 31 -22.5 60.5t-16.5 55.5
q-62 -34 -130 -59q24 -128 73 -185t96 -57q42 0 42 37q0 27 -13 66t-29 82z" />
    <glyph glyph-name="uniFEEE" unicode="&#x648;" horiz-adv-x="951" arabic-form="final" 
d="M474 -126q-214 0 -327.5 103.5t-113.5 302.5q0 144 58.5 259t155.5 181.5t213 66.5q129 0 230 -74.5t161 -204t68 -292.5h32q71 0 120.5 -50t49.5 -121q0 -70 -49.5 -120.5t-120.5 -50.5h-90q-56 -138 -156 -247.5t-227 -181.5t-265 -98q-68 -13 -127.5 28t-72.5 110
t28.5 125t108.5 75q109 31 190.5 79.5t136.5 109.5h-3zM471 216h116q-6 60 -23.5 114.5t-45.5 89.5t-66 35q-40 0 -70 -37t-30 -106q0 -55 29.5 -75.5t89.5 -20.5z" />
    <glyph glyph-name="uniFEF0" unicode="&#x649;" horiz-adv-x="1390" arabic-form="final" 
d="M17 -84q0 150 28 277.5t86 284.5q24 66 89 96t131 6t96 -89t6 -131q-92 -255 -92 -435q0 -149 88 -206t266 -57q148 0 236 29.5t88 76.5q0 38 -71.5 64.5t-204.5 42.5q-60 8 -102.5 52t-47.5 105q-6 74 45.5 129t125.5 55h606q71 0 120.5 -50t49.5 -121
q0 -70 -49.5 -120.5t-120.5 -50.5h-62q35 -87 35 -162q0 -109 -85 -198.5t-234 -142.5t-342 -53q-205 0 -359.5 74t-240 208.5t-85.5 315.5z" />
    <glyph glyph-name="uniFEF2" unicode="&#x64a;" horiz-adv-x="1390" arabic-form="final" 
d="M17 -84q0 150 28 277.5t86 284.5q24 66 89 96t131 6t96 -89t6 -131q-92 -255 -92 -435q0 -149 88 -206t266 -57q148 0 236 29.5t88 76.5q0 38 -71.5 64.5t-204.5 42.5q-60 8 -102.5 52t-47.5 105q-6 74 45.5 129t125.5 55h606q71 0 120.5 -50t49.5 -121
q0 -70 -49.5 -120.5t-120.5 -50.5h-62q35 -87 35 -162q0 -109 -85 -198.5t-234 -142.5t-342 -53q-205 0 -359.5 74t-240 208.5t-85.5 315.5zM357 -975q0 63 46.5 112.5t116.5 49.5q52 0 88 -22t56 -54q26 -41 26 -86q0 -33 -14 -71.5t-50.5 -66.5t-102.5 -28
q-68 0 -103.5 28.5t-49.5 65.5q-13 35 -13 72zM717 -975q0 63 46.5 112.5t116.5 49.5q52 0 88 -22t56 -54q26 -41 26 -86q0 -33 -14 -71.5t-50.5 -66.5t-102.5 -28q-68 0 -103.5 28.5t-49.5 65.5q-13 35 -13 72z" />
    <glyph glyph-name="uniFEF3" unicode="&#x64a;" horiz-adv-x="560" arabic-form="initial" 
d="M-171 45q0 71 50.5 121t120.5 50q113 0 156 30t43 117q0 34 -3.5 78t-10.5 99q-8 70 35 126.5t113 65.5t125.5 -34t66.5 -113q21 -134 21 -224q0 -226 -140.5 -356.5t-405.5 -130.5q-70 0 -120.5 50.5t-50.5 120.5zM-242 -452q0 63 46.5 112.5t116.5 49.5q52 0 88 -22
t56 -54q26 -41 26 -86q0 -33 -14 -71.5t-50.5 -66.5t-102.5 -28q-68 0 -103.5 28.5t-49.5 65.5q-13 35 -13 72zM118 -452q0 63 46.5 112.5t116.5 49.5q52 0 88 -22t56 -54q26 -41 26 -86q0 -33 -14 -71.5t-50.5 -66.5t-102.5 -28q-68 0 -103.5 28.5t-49.5 65.5
q-13 35 -13 72z" />
    <glyph glyph-name="uniFEF4" unicode="&#x64a;" horiz-adv-x="811" arabic-form="medial" 
d="M-172 45q0 71 51 121t121 50q121 0 175.5 26t71 86.5t22.5 163.5q5 79 58.5 123t125.5 39q71 -4 117.5 -58.5t41.5 -123.5q-13 -138 32 -197t166 -59h1q71 0 120.5 -50t49.5 -121q0 -70 -49.5 -120.5t-120.5 -50.5h-1q-117 0 -213 41.5t-161 138.5q-85 -106 -193 -143
t-243 -37q-70 0 -121 50.5t-51 120.5zM-242 -452q0 63 46.5 112.5t116.5 49.5q52 0 88 -22t56 -54q26 -41 26 -86q0 -33 -14 -71.5t-50.5 -66.5t-102.5 -28q-68 0 -103.5 28.5t-49.5 65.5q-13 35 -13 72zM118 -452q0 63 46.5 112.5t116.5 49.5q52 0 88 -22t56 -54
q26 -41 26 -86q0 -33 -14 -71.5t-50.5 -66.5t-102.5 -28q-68 0 -103.5 28.5t-49.5 65.5q-13 35 -13 72z" />
    <glyph glyph-name=".notdef" horiz-adv-x="1024" 
d="M102 -410v2048h820v-2048h-820zM204 -308h616v1844h-616v-1844z" />
    <glyph glyph-name=".null" 
 />
    <glyph glyph-name="nonmarkingreturn" horiz-adv-x="682" 
 />
    <glyph glyph-name="space" unicode=" " horiz-adv-x="300" 
 />
    <glyph glyph-name="exclam" unicode="!" horiz-adv-x="593" 
d="M237 1531q70 10 126.5 -33.5t66.5 -113.5q19 -137 29 -246.5t14 -222t4 -258.5v-61t-1 -65q-1 -70 -51 -117.5t-121 -47.5t-121.5 50.5t-49.5 120.5q1 30 1 60.5v59.5q0 143 -3.5 248.5t-13 206t-27.5 226.5q-10 70 33.5 126.5t113.5 66.5zM514 85q0 -39 -23.5 -88.5
t-69 -86t-113.5 -36.5q-37 0 -89 19.5t-91.5 65.5t-39.5 125q0 89 63.5 152.5t152.5 63.5q66 0 113 -34t72 -84t25 -97z" />
    <glyph glyph-name="quotedbl" unicode="&#x22;" horiz-adv-x="568" 
d="M399 830q-33 3 -54 29t-18 59q11 97 11 208q0 115 -11 228q-3 33 19 58.5t55 28.5t58 -18.5t28 -54.5q11 -119 11 -242q0 -120 -11 -224q-3 -33 -29 -54t-59 -18zM162 830q-33 3 -54 29t-18 59q11 97 11 208q0 115 -11 228q-3 33 19 58.5t55 28.5t58 -18.5t28 -54.5
q11 -119 11 -242q0 -120 -11 -224q-3 -33 -29 -54t-59 -18z" />
    <glyph glyph-name="numbersign" unicode="#" horiz-adv-x="1744" 
d="M381 -173q-67 18 -104 80t-19 129l55 213h-144q-70 0 -120.5 51t-50.5 121q0 71 51 120.5t121 49.5h231l60 233l-200 2q-70 0 -120 51t-50 121q0 71 50.5 120.5t120.5 49.5l287 -2l64 246q18 68 80 104t129 18q68 -18 104.5 -79.5t18.5 -129.5l-42 -162l206 -2l45 233
q13 69 73 109t129 27t109 -73t27 -129l-32 -170l125 -1q71 0 120.5 -50.5t49.5 -121.5q0 -70 -50 -120t-121 -50l-190 2l-43 -225h170q71 0 121 -50.5t50 -121.5q0 -70 -50.5 -120t-121.5 -50h-234l-54 -283q-13 -69 -73 -109t-129 -27t-109 73t-27 129l41 217l-268 -1
l-77 -300q-18 -67 -79.5 -103.5t-129.5 -18.5zM815 821l-59 -230l245 1l43 227z" />
    <glyph glyph-name="dollar" unicode="$" horiz-adv-x="1122" 
d="M1035 1176q-34 -61 -102.5 -80t-130.5 15q-54 31 -89 44.5t-74 16.5v-353q230 -83 355 -206.5t125 -269.5q0 -135 -59.5 -241t-167.5 -172t-253 -81v-134q0 -36 -27 -62.5t-62 -26.5t-62 26.5t-27 62.5v132q-103 8 -197 35t-182 76q-61 35 -81 103.5t14 129.5
q35 62 104 82t130 -15q47 -25 101.5 -41.5t110.5 -24.5v325q-442 149 -442 479q0 132 55.5 238.5t155 176.5t231.5 95v113q0 35 27 62t62 27t62 -27t27 -62v-102q83 -5 158.5 -29.5t172.5 -78.5q62 -34 81 -102.5t-16 -130.5zM361 996q0 -32 22.5 -57.5t77.5 -51.5v263
q-100 -44 -100 -154zM775 312q0 79 -136 142v-260q63 13 99.5 43.5t36.5 74.5z" />
    <glyph glyph-name="percent" unicode="%" horiz-adv-x="1480" 
d="M40 1188q0 93 49 159.5t124.5 101.5t154.5 35q90 0 158 -42t106.5 -112t38.5 -155q0 -83 -38.5 -158t-109 -122.5t-165.5 -47.5q-98 0 -169.5 51.5t-110 130t-38.5 159.5zM1244 1429q53 -46 54 -114t-37 -128l-763 -1193q-37 -60 -97.5 -91.5t-125.5 -4.5q-43 18 -74 56
t-39 83t17 84l823 1291q26 40 69.5 53.5t90.5 4t82 -40.5zM282 1188q0 -43 28 -71t48 -28q26 0 46.5 21.5t20.5 64.5q0 41 -11.5 52t-45.5 11q-49 0 -67.5 -21t-18.5 -29zM1098 -145q-93 0 -159.5 48.5t-102 124t-35.5 155.5q0 89 41.5 157t112 106.5t155.5 38.5
q83 0 158.5 -38t123.5 -108t48 -166q0 -99 -52 -170t-130.5 -109.5t-159.5 -38.5zM1098 97q44 0 72 28.5t28 47.5q0 25 -22 47.5t-66 22.5q-40 0 -51.5 -12.5t-11.5 -47.5q0 -48 21.5 -67t29.5 -19z" />
    <glyph glyph-name="ampersand" unicode="&#x26;" horiz-adv-x="1384" 
d="M95 272q0 103 51 198t175 201q-74 100 -99.5 183.5t-25.5 175.5q0 149 55.5 260.5t156.5 173.5t239 62q134 0 239.5 -56.5t166 -154.5t60.5 -221q0 -72 -26.5 -139t-90 -139t-173.5 -158q97 -101 219 -212q21 34 42 73q34 62 98 88.5t128 -1.5t91 -97t-4 -131
q-44 -88 -90 -159q17 -14 35 -28q55 -44 61.5 -115.5t-37.5 -125.5t-116 -60t-126 38q-24 19 -46 38q-174 -126 -418 -126q-172 0 -299 54t-196.5 151.5t-69.5 226.5zM534 1087q0 -68 91 -195q87 64 116.5 104t29.5 81q0 50 -29 80t-85 30q-55 0 -89 -29t-34 -71zM441 282
q0 -104 176 -104q94 0 170 31q-151 130 -253 228q-52 -49 -72.5 -85.5t-20.5 -69.5z" />
    <glyph glyph-name="quotesingle" unicode="'" horiz-adv-x="341" 
d="M162 830q-33 3 -54 29t-18 59q11 97 11 208q0 115 -11 228q-3 33 19 58.5t55 28.5t58 -18.5t28 -54.5q11 -119 11 -242q0 -120 -11 -224q-3 -33 -29 -54t-59 -18z" />
    <glyph glyph-name="parenleft" unicode="(" horiz-adv-x="616" 
d="M445 1567q63 -31 87 -99t-7 -131q-59 -121 -90 -218t-42 -199t-11 -238q0 -125 20.5 -223t62.5 -198t106 -232q31 -63 7 -131t-87 -99t-130.5 -7t-98.5 87q-64 132 -114.5 255t-80 255.5t-29.5 292.5q0 149 15.5 279t54 257.5t107.5 268.5q31 63 99 87t131 -7z" />
    <glyph glyph-name="parenright" unicode=")" horiz-adv-x="616" 
d="M181 -201q-63 31 -87 99t7 131q59 122 90 218.5t42 198.5t11 238q0 125 -20.5 223t-62.5 198.5t-106 231.5q-31 63 -7 131t87 99t131 7t99 -87q64 -131 114.5 -254.5t79.5 -256t29 -292.5q0 -149 -15.5 -279t-54 -257t-107.5 -269q-31 -63 -99 -87t-131 7z" />
    <glyph glyph-name="asterisk" unicode="*" horiz-adv-x="1118" 
d="M104 579q-37 44 -32.5 104t49.5 98q72 62 153 120q-77 35 -160 66q-55 20 -79 75t-4 110t74 80t109 5q103 -38 199 -83q-4 89 -12 179q-5 59 33.5 104.5t96.5 50.5t104 -33t52 -97q10 -112 15 -208q101 47 209 87q55 20 109.5 -5t74.5 -80t-4.5 -110t-79.5 -75
q-83 -31 -160 -66q82 -58 154 -120q45 -38 50 -98t-33 -104q-38 -45 -97.5 -51t-104.5 32q-59 49 -121 94q-2 -45 -5.5 -91t-7.5 -93q-4 -58 -49.5 -96.5t-104.5 -34.5q-58 5 -96.5 50.5t-34.5 103.5q6 77 10 150q-54 -40 -105 -83q-45 -38 -104.5 -32t-97.5 51z" />
    <glyph glyph-name="plus" unicode="+" horiz-adv-x="1094" 
d="M20 420q-8 70 35.5 126.5t113.5 64.5q103 13 210 19q-5 81 -15 160q-8 70 35 127t113 65t127 -36t65 -114q12 -95 18 -194q94 -2 189 -6q71 -3 118.5 -55.5t44.5 -123.5q-3 -70 -55.5 -118t-123.5 -45q-84 4 -165 5q-1 -103 -6 -205q-3 -70 -55 -117.5t-123 -44.5
q-70 3 -118.5 55.5t-45.5 122.5q4 92 6 182q-89 -6 -177 -17q-70 -8 -126.5 35.5t-64.5 113.5z" />
    <glyph glyph-name="comma" unicode="," horiz-adv-x="488" 
d="M36 -355q-61 35 -79 104t17 130l230 396q35 61 104 79t130 -17t79 -104t-17 -130l-230 -396q-35 -61 -104 -79t-130 17z" />
    <glyph glyph-name="hyphen" unicode="-" horiz-adv-x="1094" 
d="M20 420q-8 70 35.5 126.5t113.5 64.5q124 15 242.5 21t236.5 6q131 0 263 -6q71 -3 118.5 -55.5t44.5 -123.5q-3 -70 -55.5 -118t-123.5 -45q-126 6 -247 6q-110 0 -217.5 -5.5t-219.5 -19.5q-70 -8 -126.5 35.5t-64.5 113.5z" />
    <glyph glyph-name="period" unicode="." horiz-adv-x="490" 
d="M43 87q0 51 28.5 98t76 77t103.5 30q72 0 115 -34.5t62 -81t19 -82.5q0 -40 -22.5 -90t-67.5 -86t-111 -36q-79 0 -123 36.5t-62 84.5t-18 84z" />
    <glyph glyph-name="slash" unicode="/" horiz-adv-x="975" 
d="M122 -147q-60 36 -73 103t14 132l544 1308q27 65 80.5 106.5t122.5 26.5q46 -10 83 -42t52.5 -74.5t-2.5 -86.5l-586 -1414q-18 -43 -58.5 -64.5t-88.5 -20t-88 25.5z" />
    <glyph glyph-name="zero" unicode="0" horiz-adv-x="1171" 
d="M8 600q0 277 81.5 483.5t220.5 320.5t312 114q162 0 286 -102t194 -285t70 -427q0 -260 -83.5 -453.5t-228 -300t-327.5 -106.5q-245 0 -385 197t-140 559zM352 533q0 -185 43 -266t133 -81q85 0 153.5 65t108.5 184.5t40 283.5q0 206 -54.5 330.5t-139.5 124.5
q-74 0 -139 -83t-105 -227.5t-40 -330.5z" />
    <glyph glyph-name="one" unicode="1" horiz-adv-x="845" 
d="M605 -171q-70 1 -120.5 51.5t-49.5 120.5l7 980q-93 -50 -186 -87q-65 -26 -132 -5.5t-98 83.5t-9 134t88 96q62 23 134 58t138.5 79t111.5 93q23 25 54 39q35 16 73 16q18 0 36 -4q46 -10 80 -41q28 -26 41.5 -60.5t12.5 -70.5l-9 -1312q-1 -70 -51 -120.5t-121 -49.5z
" />
    <glyph glyph-name="two" unicode="2" horiz-adv-x="1201" 
d="M228 798q-80 0 -126 54t-46 148q0 157 70.5 271.5t199 177.5t303.5 63q147 0 263.5 -71.5t184 -189.5t67.5 -259q0 -139 -64.5 -257t-173.5 -228t-242 -227l-48 -42q24 1 49 1.5t50 0.5q73 0 150.5 -3.5t153.5 -8.5q71 -5 118.5 -56.5t44.5 -122.5q-3 -70 -55.5 -118
t-123.5 -45q-118 5 -198.5 7.5t-158.5 2.5q-236 0 -449 -22q-79 -6 -135 46q-53 50 -52 124.5t55 126.5l377 358q140 133 218 218.5t110 144t32 108.5q0 75 -51.5 121.5t-134.5 46.5q-105 0 -160.5 -59t-55.5 -171q0 -140 -172 -140z" />
    <glyph glyph-name="three" unicode="3" horiz-adv-x="1123" 
d="M47 235q45 54 116 61t126 -37q41 -34 103.5 -53.5t155.5 -19.5q108 0 163 49.5t55 115.5q1 97 -65 135t-168 38q-22 0 -52 -3q-16 -3 -31 -5.5t-28 -4.5l-14 -2q-40 -7 -77.5 7t-62.5 42q-32 35 -39 81q-3 19 0 38q5 51 41 89v0q1 0 1 1q38 39 90 46l5 1q13 2 27 4t29 4
q144 24 220 66.5t76 139.5q0 68 -38 107t-94 39q-67 0 -104 -22.5t-81 -82.5q-38 -59 -108 -74.5t-129 22.5t-74.5 108.5t22.5 129.5q91 131 207.5 197t281.5 66q120 0 225 -60.5t170.5 -174.5t65.5 -275q0 -100 -35.5 -174.5t-93.5 -127.5q74 -54 123.5 -136.5t53.5 -198.5
q0 -124 -49.5 -222t-134.5 -166t-194 -103.5t-228 -35.5q-114 0 -226.5 36t-206.5 113q-54 45 -61.5 116.5t37.5 125.5z" />
    <glyph glyph-name="four" unicode="4" horiz-adv-x="1308" 
d="M926 817q70 -7 115.5 -62t38.5 -125l-9 -88q14 3 27 6q68 17 129.5 -21t77.5 -106q17 -67 -21 -128.5t-106 -78.5t-145 -30l-21 -200q-8 -70 -62.5 -116t-124.5 -39t-116.5 62t-38.5 125l14 129q-135 -8 -267.5 -4t-250.5 21q-12 2 -31.5 8.5t-34.5 15.5
q-63 39 -77.5 113.5t29.5 134.5q41 56 98.5 144.5t121 194.5t125.5 216t113.5 211.5t82.5 179.5q26 65 92 93t131 2t93 -92t2 -131q-44 -110 -112 -242.5t-146 -269t-155 -258.5q109 1 222 9l18 171q7 70 62.5 116t125.5 39z" />
    <glyph glyph-name="five" unicode="5" horiz-adv-x="1163" 
d="M1131 1373q15 -69 -24 -129t-108 -75q-119 -25 -331 -25q-58 0 -115.5 1.5t-124.5 5.5l-10 -233q36 17 88 29t110 12q150 0 269.5 -64.5t189 -183.5t69.5 -283q0 -174 -78.5 -305.5t-218.5 -205t-325 -73.5q-255 0 -449 154q-55 44 -63 115t36 126t114 61t127 -34
q55 -38 112.5 -59t135.5 -21q135 0 201 60t66 160q0 105 -64.5 168t-181.5 63q-78 0 -129.5 -22.5t-93.5 -48.5q-33 -20 -65 -35t-71 -15q-71 0 -113.5 53t-35.5 134l56 654q5 50 36.5 87.5t79.5 55.5t99 7q26 -5 80 -9.5t122 -7t133 -2.5q87 0 162.5 5t110.5 12
q69 15 129 -24t75 -108z" />
    <glyph glyph-name="six" unicode="6" horiz-adv-x="1149" 
d="M1140 420q0 -157 -72.5 -288t-199.5 -209.5t-290 -78.5q-146 0 -252 56t-174 154.5t-101 226t-33 271.5q0 125 14 256.5t51.5 253t107.5 217.5t182 152.5t276 56.5q130 0 274 -43q67 -20 101 -83t14 -130q-19 -67 -82.5 -101t-130.5 -14q-53 16 -97 22.5t-79 6.5
q-95 0 -161 -53.5t-98 -200.5q54 23 113.5 36.5t123.5 13.5q94 0 185 -31.5t165 -95.5t118.5 -162.5t44.5 -232.5zM578 186q98 0 159 66.5t61 161.5q0 91 -33.5 134.5t-84 57.5t-99.5 14q-67 0 -120.5 -29.5t-98.5 -72.5q4 -129 28.5 -201.5t71 -101.5t116.5 -29z" />
    <glyph glyph-name="seven" unicode="7" horiz-adv-x="1110" 
d="M9 1254q-4 71 43 124.5t117 57.5l754 49q74 5 128.5 -47t53.5 -126q0 -42 -17 -74q-84 -169 -151 -378.5t-117.5 -437t-87.5 -449.5q-11 -70 -69 -111.5t-128 -30.5t-111.5 68.5t-30.5 127.5q44 273 109 556t162 541l-473 -30q-70 -4 -123.5 43t-58.5 117z" />
    <glyph glyph-name="eight" unicode="8" horiz-adv-x="1109" 
d="M18 285q0 115 42.5 213t129.5 197q-90 89 -131 179t-41 193q0 130 63.5 231.5t174.5 160.5t251 59q176 0 309.5 -90.5t200.5 -252.5q8 -10 16 -21q41 -59 34.5 -124.5t-60.5 -103.5q-78 -55 -147.5 -104.5t-130.5 -94.5q132 -93 202 -209t70 -243q0 -125 -61.5 -221.5
t-170 -151t-250.5 -54.5q-148 0 -261 55.5t-176.5 154t-63.5 227.5zM360 1067q0 -60 81 -142q51 41 108.5 85t121.5 92q-54 74 -164 74q-66 0 -106.5 -30t-40.5 -79zM360 285q0 -95 159 -95q63 0 101.5 23.5t38.5 61.5q0 32 -54 89t-151 125q-94 -107 -94 -204z" />
    <glyph glyph-name="nine" unicode="9" horiz-adv-x="1088" 
d="M538 1483q138 0 238.5 -55t166 -151t97 -220t31.5 -262q0 -215 -65.5 -404.5t-182 -331.5t-270.5 -216q-72 -36 -138.5 -6.5t-93.5 90.5q-31 71 1 134t82 87q64 31 118.5 87t96.5 129q-30 -2 -64 -2q-171 0 -293 68.5t-186.5 191t-64.5 284.5q0 163 63 293.5t181.5 207
t282.5 76.5zM351 906q0 -121 48 -162.5t156 -41.5q50 0 92.5 10.5t81.5 26.5q2 28 2 56q0 84 -15.5 164t-57.5 132t-120 52q-97 0 -142 -69.5t-45 -167.5z" />
    <glyph glyph-name="colon" unicode=":" horiz-adv-x="490" 
d="M43 916q0 51 28.5 98t76 77t103.5 30q72 0 115 -34.5t62 -81t19 -82.5q0 -40 -22.5 -90t-67.5 -86t-111 -36q-79 0 -123 36.5t-62 84.5t-18 84zM43 393q0 51 28.5 98t76 77t103.5 30q72 0 115 -34.5t62 -81t19 -82.5q0 -40 -22.5 -90t-67.5 -86t-111 -36q-79 0 -123 36.5
t-62 84.5t-18 84z" />
    <glyph glyph-name="semicolon" unicode=";" horiz-adv-x="600" 
d="M136 916q0 51 28.5 98t76 77t103.5 30q72 0 115 -34.5t62 -81t19 -82.5q0 -40 -22.5 -90t-67.5 -86t-111 -36q-79 0 -123 36.5t-62 84.5t-18 84zM36 -332q-61 35 -79 104t17 130l230 396q35 61 104 79t130 -17t79 -104t-17 -130l-230 -396q-35 -61 -104 -79t-130 17z" />
    <glyph glyph-name="less" unicode="&#x3c;" horiz-adv-x="655" 
d="M556 213q-40 -24 -88.5 -12.5t-72.5 51.5q-105 171 -242 289q-25 22 -32 57t2.5 69t31.5 52q69 57 129 127t109 156q23 41 71 54.5t88 -9.5q41 -23 54.5 -70.5t-9.5 -88.5q-43 -75 -92.5 -137.5t-103.5 -123.5q53 -59 102 -120.5t92 -132.5q24 -40 12.5 -88.5
t-51.5 -72.5z" />
    <glyph glyph-name="equal" unicode="=" horiz-adv-x="1047" 
d="M54 836q4 47 41.5 78t85.5 27q54 -4 127 -7.5t143.5 -5t115.5 -1.5q80 0 161.5 4t148.5 10q47 4 84.5 -27.5t41.5 -78.5q4 -48 -27 -85t-78 -41q-72 -6 -158.5 -10t-172.5 -4q-47 0 -119.5 1t-149.5 4.5t-139 8.5q-46 4 -77.5 42t-27.5 85zM55 443q10 47 50.5 74.5
t86.5 18.5q17 -3 73 -6t124 -5t119 -2q77 0 176 3.5t194 10.5q47 4 84 -27.5t41 -79.5q4 -47 -27.5 -84t-79.5 -41q-100 -7 -202.5 -11.5t-185.5 -4.5q-56 0 -124 1t-131 4.5t-105 11.5q-46 10 -74 50.5t-19 86.5z" />
    <glyph glyph-name="greater" unicode="&#x3e;" horiz-adv-x="655" 
d="M109 1046q40 24 88.5 12.5t72.5 -51.5q105 -171 242 -289q26 -22 32.5 -57t-3 -68.5t-31.5 -52.5q-69 -57 -129.5 -126.5t-109.5 -156.5q-22 -41 -69.5 -54.5t-88.5 9.5t-54 70.5t10 88.5q42 74 91 137t104 124q-53 59 -102 121t-92 132q-24 40 -12.5 88.5t51.5 72.5z
" />
    <glyph glyph-name="question" unicode="?" horiz-adv-x="1165" 
d="M98 1118q-36 61 -28.5 115.5t39.5 98.5t71 72q77 56 180 92t230 36q134 0 244 -54t176 -153.5t66 -237.5q0 -91 -37 -156t-92 -111t-108 -82q-55 -37 -92 -71t-37 -81q0 -19 3 -34q19 -81 -28 -136.5t-110 -65.5q-85 -13 -136.5 26.5t-68.5 103.5q-12 47 -12 100
q0 94 35 158t87.5 110t106.5 84q64 45 95.5 72.5t41.5 47.5t10 40q0 56 -44 77t-104 21q-59 0 -122 -24.5t-98 -53.5q-43 -35 -95 -49.5t-99 -2t-74 57.5zM756 89q0 -88 -63.5 -151.5t-152.5 -63.5q-85 0 -150.5 61t-65.5 154q0 90 63 153.5t153 63.5q62 0 110.5 -30.5
t77 -80t28.5 -106.5z" />
    <glyph glyph-name="at" unicode="@" horiz-adv-x="2276" 
d="M1798 -274q37 -60 20.5 -129.5t-76.5 -106.5q-127 -79 -273.5 -122.5t-307.5 -43.5q-240 0 -447.5 73.5t-363.5 213t-243 339t-87 450.5q0 181 57.5 356.5t163 329t251.5 270.5t324 183.5t378 66.5q225 0 418 -75t337.5 -213t225.5 -329.5t81 -424.5q0 -69 -14 -161.5
t-49.5 -188t-97.5 -177.5t-157.5 -132.5t-231.5 -50.5q-92 0 -162 37t-120 95q-67 -63 -158.5 -102.5t-212.5 -39.5q-153 0 -271.5 71t-186 191t-67.5 266q0 155 51 287t141 230t209 152.5t255 54.5q113 0 225 -36.5t212 -109.5q39 -28 58 -74t12 -90l-52 -357l-2 -14
q-4 -31 -7 -66.5t-3 -59.5q0 -61 22.5 -76t43.5 -15q53 0 104 46.5t84 129.5t33 190q0 211 -92 368t-254 244.5t-374 87.5q-172 0 -322.5 -74.5t-264.5 -199.5t-178.5 -278.5t-64.5 -311.5q0 -228 98 -392.5t277.5 -253t421.5 -88.5q110 0 211.5 30.5t189.5 85.5
q60 37 129.5 20.5t106.5 -76.5zM1335 722q-75 30 -151 30q-75 0 -146.5 -42.5t-118.5 -127t-47 -210.5q0 -88 47 -137t134 -49q105 0 166 84.5t80 208.5z" />
    <glyph glyph-name="A" unicode="A" horiz-adv-x="1376" 
d="M114 -165q-64 29 -89 96.5t3 131.5l538 1324q30 68 103 91.5t137 -12.5q56 -32 77 -87l478 -1316q26 -65 -3 -131t-94 -92q-65 -25 -131 3.5t-92 93.5l-63 181l-551 23l-85 -220q-28 -64 -96 -89t-132 3zM712 875l-154 -397l297 -12z" />
    <glyph glyph-name="B" unicode="B" horiz-adv-x="1178" 
d="M1175 356q0 -154 -62.5 -254t-161.5 -156.5t-211.5 -79t-213.5 -22.5q-85 0 -169.5 11.5t-162.5 35.5q-63 12 -102 64t-35 117q11 145 16.5 308.5t5.5 303.5q0 175 -7 310t-18 272q-4 45 15 85t53 66v0l2 2q18 13 39 21q91 35 192 56.5t203 21.5q96 0 191 -34
t172.5 -99.5t124.5 -160t47 -216.5q0 -88 -34.5 -156.5t-91.5 -121.5q95 -57 151.5 -149.5t56.5 -224.5zM558 1174q-71 0 -152 -18q6 -78 9.5 -159t4.5 -175q143 23 214 56.5t94 74t23 84.5q0 58 -45.5 97.5t-147.5 39.5zM561 518q-21 0 -60 -3.5t-82 -7.5
q-2 -77 -4.5 -156.5t-6.5 -156.5q60 -8 118 -8q164 0 234.5 39t70.5 131q0 66 -20.5 101t-78.5 48t-171 13z" />
    <glyph glyph-name="C" unicode="C" horiz-adv-x="1261" 
d="M1208 1222q-28 -64 -95.5 -89.5t-131.5 2.5q-88 39 -192 39q-138 0 -234.5 -67t-147 -183t-50.5 -262q0 -140 48 -247.5t143 -168t237 -60.5q120 0 222 54q62 33 129.5 11.5t100.5 -83.5t11.5 -129.5t-83.5 -100.5q-179 -94 -380 -94q-175 0 -317.5 62t-244 173.5
t-156 260.5t-54.5 322t53.5 327t154.5 273.5t244.5 187.5t323.5 68q84 0 168 -16.5t164 -52.5q64 -28 90 -95.5t-3 -131.5z" />
    <glyph glyph-name="D" unicode="D" horiz-adv-x="1319" 
d="M204 1493q110 25 227 25q184 0 344.5 -52.5t281.5 -156t189.5 -256t68.5 -352.5q0 -177 -63 -332.5t-176.5 -273.5t-266 -184.5t-332.5 -66.5q-165 0 -314 58q-57 22 -86 76t-22 106q21 162 32.5 354.5t11.5 372.5q0 97 -3 173.5t-9 152.5t-16 171q-7 68 35.5 120.5
t97.5 64.5zM428 1176q7 -87 10 -173.5t3 -191.5q0 -313 -29 -621q16 -1 32.5 -2.5t32.5 -1.5q142 0 254 67t177 183.5t65 264.5q0 245 -135 359t-407 114q-1 0 -3 2z" />
    <glyph glyph-name="E" unicode="E" horiz-adv-x="1138" 
d="M15 674q-6 50 16 95t63 71q1 62 1 120q0 70 -2 122.5t-6.5 104t-13.5 116.5q-4 36 15 83t61 80.5t104 29.5t123 -6t121 -2q112 0 228 9.5t200 28.5q69 16 129 -22t76 -107t-22.5 -129t-106.5 -76q-117 -27 -248 -37.5t-256 -10.5h-32.5t-31.5 1q2 -41 4 -86.5t2 -98.5
q0 -37 -1 -75q43 1 87 1q190 0 380 -23q70 -8 114 -64.5t36 -126.5t-64.5 -113.5t-126.5 -35.5q-164 19 -339 19q-55 0 -102 -1q-5 -69 -12 -134t-15 -124q-3 -18 -3 -38q0 -17 12.5 -24t52.5 -7.5t120 1t215 1.5h77.5t73.5 1q71 2 122.5 -47.5t52.5 -120.5q2 -70 -48 -121
t-121 -53q-39 -1 -78 -1h-79q-68 0 -163.5 -3.5t-196 5t-187.5 44t-141 113t-54 212.5q0 18 1 37t4 41q7 52 13.5 112.5t10.5 124.5q-57 44 -65 114z" />
    <glyph glyph-name="F" unicode="F" horiz-adv-x="1132" 
d="M15 620q-6 52 18 98t67 71q-3 130 -10 249t-22 245q-4 36 15 82.5t61 80t104 29.5q60 -4 121 -5.5t122 -1.5q112 0 228 9t200 28q69 16 129 -22t76 -107t-22.5 -129t-106.5 -76q-117 -27 -248 -37t-256 -10h-62q5 -73 8.5 -145.5t5.5 -147.5q35 1 71 1q95 0 188.5 -6
t186.5 -17q70 -8 113.5 -64.5t35.5 -126.5t-64.5 -113.5t-126.5 -35.5q-84 10 -167 15.5t-166 5.5q-34 0 -70 -1q-4 -267 -31 -507q-8 -70 -64 -115.5t-126 -37.5t-114.5 63.5t-36.5 125.5q24 218 28 475q-34 19 -57 52.5t-28 74.5z" />
    <glyph glyph-name="G" unicode="G" horiz-adv-x="1389" 
d="M541 649q0 71 51 121t121 50h496q71 0 119 -51t52 -108q2 -31 3.5 -62.5t1.5 -61.5q0 -132 -34 -255.5t-109.5 -222.5t-199 -157t-301.5 -58q-149 0 -281 52.5t-232.5 154t-157.5 249.5t-57 339q0 165 46.5 322t141.5 282.5t241 200t346 74.5q209 0 376 -125
q56 -42 67 -112.5t-31 -126.5t-113 -66.5t-127 31.5q-75 55 -172 55q-218 0 -324.5 -140.5t-106.5 -394.5q0 -172 50 -271t137 -140.5t197 -41.5q119 0 181.5 28.5t87.5 92.5t31 171h-328q-70 0 -121 50.5t-51 120.5z" />
    <glyph glyph-name="H" unicode="H" horiz-adv-x="1359" 
d="M1315 646q-2 -44 -24 -80t-57 -57l5 -529q1 -70 -48.5 -121t-120.5 -52q-70 -1 -121.5 49t-52.5 120l-5 516q-109 3 -223.5 6t-218.5 4q-3 -130 -8.5 -258.5t-13.5 -255.5q-4 -70 -58 -117.5t-124 -42.5t-117.5 58.5t-43.5 123.5q9 133 14.5 269t8.5 273q-53 52 -53 124
q0 75 55 126q0 127 -1.5 254.5t-4.5 255.5q-1 71 47.5 122.5t118.5 53.5q71 2 123 -46.5t53 -119.5q3 -119 5 -238t2 -238q103 -2 215.5 -5t220.5 -6l-4 480q-1 71 49 121.5t120 51.5q71 1 122 -48.5t52 -120.5l5 -518q39 -24 62 -65t21 -90z" />
    <glyph glyph-name="I" unicode="I" horiz-adv-x="475" 
d="M221 -171q-70 2 -119 53.5t-48 121.5l35 1361q2 71 53.5 120t121.5 47q71 -1 120 -52.5t47 -122.5l-35 -1361q-1 -70 -52.5 -119t-122.5 -48z" />
    <glyph glyph-name="J" unicode="J" horiz-adv-x="720" 
d="M27 1317q0 71 50.5 121t120.5 50h377q71 0 121.5 -50t50.5 -121q0 -57 -34 -101.5t-86 -61.5q23 -209 33.5 -417t10.5 -437q0 -110 -41.5 -215t-132.5 -173t-239 -68q-42 0 -87 3q-70 6 -116.5 60.5t-40.5 124.5q6 71 60.5 117t124.5 40q29 -3 59 -3h51t17.5 23t2.5 91
q0 230 -11 434t-35 412h-85q-70 0 -120.5 50.5t-50.5 120.5z" />
    <glyph glyph-name="K" unicode="K" horiz-adv-x="1222" 
d="M221 -171q-70 2 -119 53.5t-48 121.5l16 619q-12 31 -11.5 67.5t14.5 70.5l16 603q2 71 53.5 120t121.5 47q71 -1 120 -52.5t47 -122.5l-9 -340q135 96 258.5 206.5t212.5 230.5q42 56 113 67t127 -31t67 -113t-31 -127q-90 -121 -202.5 -230t-234 -202t-238.5 -167
q147 -147 308 -271.5t333 -234.5q59 -38 74 -108t-23 -129q-38 -58 -108 -73.5t-129 22.5q-141 90 -278.5 194t-267.5 220l-7 -274q-1 -70 -52.5 -119t-122.5 -48z" />
    <glyph glyph-name="L" unicode="L" horiz-adv-x="1156" 
d="M232 1487q71 5 124.5 -42t57.5 -118q8 -128 12.5 -252t4.5 -245q0 -157 -5.5 -311t-16.5 -307l576 -19q71 -1 120 -52.5t47 -122.5q-1 -70 -52.5 -119t-122.5 -48l-756 23q-44 1 -84 26t-63.5 66.5t-19.5 91.5q15 197 24 388t9 384q0 116 -3.5 234.5t-11.5 240.5
q-4 71 43 124.5t117 57.5z" />
    <glyph glyph-name="M" unicode="M" horiz-adv-x="1639" 
d="M197 -171q-70 8 -115 63.5t-38 125.5l137 1300q8 74 69 119.5t134 31.5q52 -10 86.5 -48.5t46.5 -74.5q35 -107 85.5 -230.5t104 -241t94.5 -206.5q6 -14 12 -14q5 0 13 14q32 66 72 157t78.5 189t68.5 187t42 149q15 73 79.5 111.5t135.5 18.5q59 -16 91 -66.5t33 -91.5
q7 -189 20.5 -350.5t35 -309.5t51 -297t68.5 -314q17 -69 -21 -129t-107 -77q-69 -16 -129 21.5t-77 106.5q-36 153 -66 295.5t-53 281.5q-13 -21 -25 -39.5t-23 -38.5q-25 -44 -61.5 -94t-91 -85t-135.5 -35q-88 0 -146 40.5t-93.5 95.5t-57.5 97q-14 28 -30 57.5t-35 60.5
l-64 -627q-7 -70 -63 -115t-126 -38z" />
    <glyph glyph-name="N" unicode="N" horiz-adv-x="1347" 
d="M216 -171q-70 3 -117.5 56.5t-44.5 123.5q17 333 29 652.5t16 656.5q1 74 57 125t129 44q37 -3 70.5 -24t50.5 -44q146 -191 283 -390.5t264 -402.5l8 737q1 71 52 120.5t121 48.5q71 -1 120.5 -51.5t48.5 -121.5l-15 -1357q-1 -39 -20.5 -78t-55.5 -63q-61 -40 -135 -22
t-110 82q-122 221 -256.5 442.5t-280.5 437.5q-6 -200 -15 -402t-19 -408q-3 -70 -56 -117.5t-124 -44.5z" />
    <glyph glyph-name="O" unicode="O" horiz-adv-x="1525" 
d="M738 -156q-157 0 -289.5 58.5t-230.5 163t-151.5 244.5t-53.5 303q0 171 57.5 332.5t164 291t256 205.5t333.5 76q173 0 303 -73.5t218 -195.5t132 -269.5t44 -295.5q0 -175 -58 -327.5t-164 -268t-248.5 -180t-312.5 -64.5zM738 186q123 0 223 60.5t159 172t59 265.5
q0 147 -49 257.5t-129.5 171.5t-176.5 61q-125 0 -231.5 -74.5t-171 -201.5t-64.5 -285q0 -205 108 -316t273 -111z" />
    <glyph glyph-name="P" unicode="P" horiz-adv-x="1309" 
d="M72 1038q-52 47 -56.5 118t41.5 124q72 82 172.5 134.5t213 78t218.5 25.5q138 0 255 -51.5t204.5 -142t136 -209.5t48.5 -253q0 -152 -66 -268.5t-173 -195.5t-233.5 -119.5t-247.5 -40.5q-24 0 -52.5 0.5t-60.5 2.5l-18 -253q-4 -70 -58 -116.5t-125 -42.5
q-70 5 -116.5 59t-42.5 124l27 382q-19 59 4 116q3 7 6 13l34 473q-64 0 -111 42zM661 1174q-56 0 -123 -16l-41 -571q26 -3 49.5 -5t38.5 -2q105 0 190.5 42t136.5 107t51 133q0 90 -40 160.5t-108 111t-154 40.5z" />
    <glyph glyph-name="Q" unicode="Q" horiz-adv-x="1525" 
d="M738 -156q-157 0 -289.5 58.5t-230.5 163t-151.5 244.5t-53.5 303q0 171 57.5 332.5t164 291t256 205.5t333.5 76q173 0 303 -73.5t218 -195.5t132 -269.5t44 -295.5q0 -152 -44.5 -288t-125.5 -245q45 -43 95 -87q53 -46 58.5 -117.5t-41.5 -124.5q-46 -53 -118 -57.5
t-125 41.5q-69 60 -131 122q-78 -40 -166.5 -62t-184.5 -22zM738 186q58 0 112 14q-39 51 -81 109q-40 57 -29 128t68 111q57 41 128 29.5t111 -68.5q37 -51 70 -95q30 56 46 124t16 146q0 147 -49 257.5t-129.5 171.5t-176.5 61q-125 0 -231.5 -74.5t-171 -201.5
t-64.5 -285q0 -205 108 -316t273 -111z" />
    <glyph glyph-name="R" unicode="R" horiz-adv-x="1310" 
d="M158 560l10 16l26 443q-40 -2 -77 12.5t-64 47.5q-43 55 -36.5 127.5t63.5 113.5q125 90 265.5 144t301.5 54q140 0 255 -53t198 -144.5t128 -209.5t45 -249q0 -185 -100.5 -327t-254.5 -220l303 -166q62 -34 80 -104t-17 -131t-105 -80t-130 17l-560 334l-11 -195
q-4 -70 -57 -117.5t-124 -43.5q-70 4 -117.5 57.5t-43.5 123.5l23 395q-21 35 -21.5 76.5t20.5 78.5zM647 1174q-48 0 -102 -12l-33 -581q19 -2 37.5 -2.5t35.5 -0.5q102 0 180 42.5t122 107.5t44 134q0 143 -80.5 227.5t-203.5 84.5z" />
    <glyph glyph-name="S" unicode="S" horiz-adv-x="1122" 
d="M1035 1176q-34 -61 -102.5 -80t-130.5 15q-68 39 -108.5 51t-99.5 12q-111 0 -172 -46.5t-61 -131.5q0 -47 53.5 -83t192.5 -83q245 -82 378.5 -209t133.5 -278q0 -148 -71.5 -260.5t-198.5 -175.5t-296 -63q-131 0 -247.5 27t-223.5 87q-61 35 -81 103.5t14 129.5
q35 62 104 82t130 -15q66 -36 147 -54t157 -18q101 0 161.5 34.5t60.5 91.5q0 109 -268 190q-488 147 -488 494q0 153 73.5 270.5t203.5 184.5t298 67q100 0 183.5 -24t192.5 -85q62 -34 81 -102.5t-16 -130.5z" />
    <glyph glyph-name="T" unicode="T" horiz-adv-x="1463" 
d="M738 -168q-70 -2 -122 47t-54 119q-4 138 -7.5 276t-3.5 277q0 148 3 294.5t9 292.5l-381 7q-70 1 -119.5 52.5t-48.5 121.5q1 71 52.5 120t121.5 48l1103 -19q71 -1 120 -52t48 -122q-1 -70 -52 -119.5t-122 -48.5l-380 7q-5 -145 -7.5 -289.5t-2.5 -292.5
q0 -270 9 -543q2 -70 -46.5 -122t-119.5 -54z" />
    <glyph glyph-name="U" unicode="U" horiz-adv-x="1350" 
d="M335 1502q69 -15 108 -75t24 -129q-25 -117 -40.5 -220.5t-22.5 -208.5t-7 -227q0 -456 259 -456q158 0 232.5 193.5t74.5 605.5q0 52 -1 124.5t-2.5 140t-3.5 103.5q-3 71 45 123.5t118 55.5t122.5 -44.5t56.5 -118.5q2 -38 4 -108t3.5 -145.5t1.5 -130.5
q0 -372 -64.5 -626.5t-207.5 -384.5t-379 -130q-201 0 -335 101.5t-201 289t-67 443.5q0 178 18.5 339.5t59.5 352.5q15 69 75.5 108t128.5 24z" />
    <glyph glyph-name="V" unicode="V" horiz-adv-x="1408" 
d="M128 1478q66 23 131.5 -8t87.5 -97l303 -877l428 894q30 63 98 87t131 -6t87 -98t-6 -131l-608 -1271q-10 -22 -33.5 -46.5t-52.5 -36.5q-67 -29 -136.5 0.5t-94.5 99.5l-440 1271q-23 66 8 131.5t97 87.5z" />
    <glyph glyph-name="W" unicode="W" horiz-adv-x="1986" 
d="M136 1513q67 20 130 -14t83 -101l196 -848l292 695q29 68 100 94.5t136 -8.5q30 -16 52 -42.5t32 -54.5l223 -655l269 793q23 66 87.5 97.5t130.5 8.5q66 -22 97.5 -87t8.5 -131l-431 -1270q-10 -31 -35.5 -59.5t-59.5 -43.5q-67 -29 -136 2t-93 101l-240 706l-302 -717
q-11 -27 -37 -54t-59 -40q-69 -27 -137 6.5t-89 104.5l-333 1304q-20 67 14 130t101 83z" />
    <glyph glyph-name="X" unicode="X" horiz-adv-x="1307" 
d="M88 -142q-58 39 -71 110t26 129l396 582l-352 499q-41 57 -28 128.5t70 111.5t128.5 27.5t111.5 -69.5l277 -392l307 451q39 58 110 71t129 -26t71 -110t-26 -129l-379 -558l415 -588q40 -57 27.5 -127.5t-69.5 -111.5q-57 -40 -128.5 -28t-111.5 69l-340 482l-324 -476
q-39 -58 -110 -71t-129 26z" />
    <glyph glyph-name="Y" unicode="Y" horiz-adv-x="1307" 
d="M664 -171q-70 -1 -121.5 48.5t-52.5 119.5l-10 583l-434 638q-40 57 -28.5 127.5t68.5 110.5q57 41 127.5 29t110.5 -69l323 -484l343 473q39 58 110 71t129 -26t71 -110t-26 -129l-452 -633l10 -575q1 -70 -48 -121.5t-120 -52.5z" />
    <glyph glyph-name="Z" unicode="Z" horiz-adv-x="1412" 
d="M18 1229q-17 68 21 129.5t105 78.5q162 40 344 57t359.5 10t326.5 -40q73 -16 111.5 -67.5t36.5 -113t-51 -110.5q-214 -214 -389.5 -449.5t-336.5 -472.5q176 13 340 19t352 6q71 0 121.5 -50.5t50.5 -121.5q0 -70 -50.5 -121t-121.5 -51q-183 0 -345 -6t-318.5 -18.5
t-324.5 -31.5q-74 -8 -123.5 35t-62.5 106.5t21 118.5q155 255 330 516.5t397 511.5q-159 2 -312 -14.5t-273 -46.5q-67 -17 -129 21t-79 105z" />
    <glyph glyph-name="bracketleft" unicode="[" horiz-adv-x="725" 
d="M696 1335q6 -70 -40 -124.5t-117 -60.5q-19 -1 -36.5 -2t-35.5 -2q-16 -1 -33 -1h-33q2 -43 3.5 -86.5t1.5 -86.5q0 -112 -4 -220.5t-11 -212.5q-4 -65 -6 -102t-2.5 -73t-0.5 -98q0 -28 31.5 -37t114.5 -13q71 -3 118.5 -55.5t44.5 -123.5q-3 -70 -55.5 -118t-123.5 -45
q-86 4 -170 25t-153 66t-110 118.5t-41 182.5q0 61 0.5 102t2.5 83.5t6 107.5q6 103 10.5 207t4.5 206q0 83 -4 164.5t-14 163.5q-4 38 16 84.5t62.5 79.5t104.5 28q35 -3 70.5 -3.5t73.5 -0.5t72.5 1t67.5 3q71 6 125 -40t60 -117z" />
    <glyph glyph-name="backslash" unicode="\" horiz-adv-x="975" 
d="M875 -147q-40 -24 -88 -25.5t-88.5 20t-58.5 64.5l-586 1414q-18 44 -2.5 86.5t52.5 74.5t83 42q69 15 122.5 -26.5t80.5 -106.5l544 -1308q27 -65 14 -132t-73 -103z" />
    <glyph glyph-name="bracketright" unicode="]" horiz-adv-x="736" 
d="M40 1370q11 70 69 112t128 31q65 -10 139 -17t147 -9q56 -1 97 -33.5t60 -80t8 -94.5q-17 -76 -24 -131.5t-8.5 -116.5t-1.5 -156q0 -63 7 -130.5t18 -139.5q11 -76 20 -156.5t9 -163.5q0 -126 -48.5 -206.5t-124 -125t-160.5 -62t-158 -17.5q-70 0 -120.5 50.5
t-50.5 120.5q0 71 50.5 121t120.5 50q78 0 108.5 4.5t34.5 19t4 45.5q0 62 -7 129t-18 139q-11 77 -20 157.5t-9 164.5q0 83 1.5 149t7.5 132q-70 8 -136 17q-70 11 -111.5 69t-31.5 128z" />
    <glyph glyph-name="asciicircum" unicode="^" horiz-adv-x="728" 
d="M142 1094q-30 19 -38.5 55t10.5 67l166 270q13 22 42 29.5t59 2t44 -24.5l192 -241q22 -28 18.5 -65t-32.5 -60q-28 -22 -65 -17.5t-59 32.5l-115 142l-98 -162q-19 -30 -56 -38.5t-68 10.5z" />
    <glyph glyph-name="underscore" unicode="_" horiz-adv-x="610" 
d="M782 45q0 -70 -50.5 -120.5t-121.5 -50.5h-610q-70 0 -121 50.5t-51 120.5q0 71 51 121t121 50h610q71 0 121.5 -50t50.5 -121z" />
    <glyph glyph-name="grave" unicode="`" horiz-adv-x="549" 
d="M136 1552q28 22 65 18t59 -33q52 -66 103 -158t88 -173q14 -32 0.5 -68.5t-45.5 -50.5t-68 -0.5t-50 45.5q-22 49 -52 105.5t-60.5 107t-55.5 82.5q-22 29 -17 66t33 59z" />
    <glyph glyph-name="a" unicode="a" horiz-adv-x="1309" 
d="M1134 -126q-146 0 -234 101q-155 -131 -359 -131q-152 0 -271.5 75t-188 208.5t-68.5 306.5q0 151 46.5 284.5t129 235.5t192 160t236.5 58q128 0 237 -64q56 60 140 48q71 -10 119 -67.5t44 -125.5l-23 -468q-1 -28 -2.5 -68.5t-2 -77t0.5 -55.5q2 -28 13 -50.5
t48 -36.5q41 -15 78 -51t37 -111q0 -70 -50.5 -120.5t-121.5 -50.5zM546 186q103 0 168.5 83.5t75.5 270.5v3l9 176q-77 111 -186 111q-76 0 -134 -53t-90 -144t-32 -204q0 -121 49 -182t140 -61z" />
    <glyph glyph-name="b" unicode="b" horiz-adv-x="1203" 
d="M272 1532q71 -2 119.5 -53.5t46.5 -122.5l-8 -264q60 38 123 59t123 21q125 0 215 -42t149.5 -110t94.5 -148.5t49.5 -159t14.5 -140.5q0 -216 -87 -380t-236 -256t-336 -92q-95 0 -185 24q-28 8 -53 24q-38 -19 -82 -18q-70 2 -119 54t-47 122l42 1316q2 71 54 119.5
t122 46.5zM443 198q47 -12 97 -12q140 0 228.5 100t88.5 275q0 119 -42 194t-139 75q-71 0 -149 -74t-113 -235q-1 -6 -3 -11l-10 -306q21 -1 42 -6z" />
    <glyph glyph-name="c" unicode="c" horiz-adv-x="1071" 
d="M1010 795q-46 -53 -117.5 -58.5t-124.5 40.5q-61 53 -132 53q-121 0 -200 -102t-79 -273q0 -130 62.5 -199.5t179.5 -69.5q50 0 121 11.5t129 28.5q68 20 130.5 -15t81.5 -103t-15.5 -129.5t-102.5 -81.5q-180 -53 -315 -53q-187 0 -325.5 77.5t-214 219.5t-75.5 335
q0 200 80 357.5t218.5 248t314.5 90.5q211 0 366 -135q53 -46 58.5 -117.5t-40.5 -124.5z" />
    <glyph glyph-name="d" unicode="d" horiz-adv-x="1237" 
d="M656 1172q85 0 163 -26l5 219q2 71 53.5 120t121.5 47q71 -1 120 -52.5t47 -122.5l-11 -515q17 -52 -2 -107l-5 -226q0 -155 5.5 -229t12 -97.5t9.5 -28.5q45 -54 37.5 -125.5t-61.5 -116.5t-126 -38t-116 62q-10 13 -19 26q-156 -118 -351 -118q-152 0 -271 75
t-187 207.5t-68 303.5q0 151 51.5 285t141.5 237t206 161.5t244 58.5zM357 424q0 -238 187 -238q108 0 183.5 89.5t76.5 283.5q0 11 3 22l3 175q-27 34 -68 54t-91 20q-79 0 -146 -54.5t-107.5 -146.5t-40.5 -205z" />
    <glyph glyph-name="e" unicode="e" horiz-adv-x="1191" 
d="M1101 4q-107 -97 -229.5 -128.5t-236.5 -31.5q-175 0 -319.5 87t-207.5 265q-35 21 -58 56t-26 79q-5 74 45 128q4 129 50.5 255.5t132 230t205.5 165.5t271 62q66 0 137 -22t132.5 -67.5t99.5 -114.5t38 -163q0 -83 -28.5 -152t-71 -122.5t-85 -89t-70.5 -52.5
q-92 -55 -186 -96.5t-193 -69.5q52 -37 134 -37q80 0 139.5 19.5t96.5 52.5q53 47 124 44t118 -56q47 -52 44 -123.5t-56 -118.5zM718 830q-65 0 -126.5 -35t-107.5 -98t-64 -147q154 38 271 108q71 42 91.5 70.5t20.5 47.5q0 54 -85 54z" />
    <glyph glyph-name="f" unicode="f" horiz-adv-x="813" 
d="M14 816q-4 71 42 125.5t116 58.5q12 1 25 2q4 88 9 169.5t11 151.5q5 57 20.5 134.5t50 151.5t96.5 122.5t160 48.5q76 0 130.5 -35.5t89.5 -76.5q42 -49 39 -117t-37 -107q-39 -46 -71.5 -53.5t-69.5 -0.5q-22 5 -35 5q-12 0 -19 -19.5t-12 -81.5q-5 -63 -9.5 -138
t-8.5 -158q57 -5 117 -12q70 -8 114.5 -64t36.5 -126t-64.5 -114t-126.5 -36q-46 5 -89 9q-5 -181 -7 -354t-2 -305q0 -70 -50.5 -120.5t-121.5 -50.5q-70 0 -120.5 50.5t-50.5 120.5q0 133 1.5 306.5t6.5 355.5q-66 0 -116.5 45.5t-54.5 112.5z" />
    <glyph glyph-name="g" unicode="g" horiz-adv-x="1258" 
d="M992 1158h14l18 -2q25 -4 49 -15q47 -19 78.5 -57.5t33.5 -83.5q3 -19 2 -37l-2 -44q-2 -361 -23 -621.5t-68 -436t-125 -278.5t-193 -147t-273 -44q-115 0 -232 47.5t-200 138.5q-47 53 -46.5 124.5t49.5 118.5q53 51 127 50.5t116 -52.5q39 -47 85 -65.5t91 -18.5
q105 0 172 33.5t105 138.5q-108 -43 -229 -43q-152 0 -269 70t-183 198.5t-66 301.5q0 153 47 287t130 235t192.5 158.5t234.5 57.5q134 0 253 -69q12 14 27 25q37 30 85 30zM546 186q119 0 192.5 95.5t81.5 261.5l9 175q-40 52 -94 82t-112 30q-74 0 -132 -51.5t-91 -142
t-33 -207.5q0 -243 179 -243z" />
    <glyph glyph-name="h" unicode="h" horiz-adv-x="1206" 
d="M215 -170q-63 5 -112.5 52t-43.5 130l97 1386q6 86 63 125t121 34t114 -51.5t44 -131.5l-20 -288q54 40 115 62.5t130 22.5q134 0 231 -64.5t149.5 -175.5t52.5 -250q0 -163 -1.5 -338t-10.5 -344q-4 -64 -49 -116t-127 -52q-84 0 -128.5 50.5t-40.5 116.5q5 103 8 193
t3 167q0 236 -30.5 353.5t-100.5 117.5q-65 0 -111.5 -64.5t-79.5 -170t-58 -229.5q-1 -7 -4 -14l-25 -363q-6 -86 -63.5 -125t-122.5 -33z" />
    <glyph glyph-name="i" unicode="i" horiz-adv-x="475" 
d="M66 1423q0 51 28.5 98t76 77t103.5 30q72 0 115 -34.5t62 -81t19 -82.5q0 -40 -22.5 -90t-67.5 -86t-111 -36q-79 0 -123 36.5t-62 84.5t-18 84zM253 1142q71 -3 118.5 -55.5t44.5 -123.5q-3 -68 -5.5 -166.5t-4 -210.5t-2.5 -223t-1.5 -206t-0.5 -157
q0 -70 -50.5 -120.5t-121.5 -50.5q-70 0 -120.5 50.5t-50.5 120.5q0 64 0.5 159t1.5 206.5t3 225t4.5 214.5t5.5 174q3 71 56 118.5t123 44.5z" />
    <glyph glyph-name="j" unicode="j" horiz-adv-x="464" 
d="M236 1142q71 0 121 -50t50 -121q0 -230 -1.5 -417t-6.5 -336q-6 -148 -19.5 -291t-53 -259t-120.5 -185t-221 -69q-70 0 -120.5 51t-50.5 121q0 71 50.5 121.5t120.5 50.5q40 0 52.5 119.5t19.5 354.5q4 143 6 326t2 413q0 71 50.5 121t120.5 50zM55 1423q0 51 28.5 98
t76 77t103.5 30q72 0 115 -34.5t62 -81t19 -82.5q0 -40 -22.5 -90t-67.5 -86t-111 -36q-79 0 -123 36.5t-62 84.5t-18 84z" />
    <glyph glyph-name="k" unicode="k" horiz-adv-x="1059" 
d="M1004 -97q-40 -58 -111 -69.5t-128 29.5q-190 135 -362 295l-7 -162q-3 -70 -55.5 -118t-123.5 -45q-70 3 -118 56t-45 123l60 1357q3 71 56 118.5t123 44.5q71 -3 118.5 -55.5t44.5 -123.5l-23 -525q85 58 162 122.5t131 129.5q44 54 116 61.5t126 -37.5t61 -116.5
t-37 -125.5q-82 -100 -205.5 -192.5t-239.5 -171.5q104 -100 210 -192t207 -163q57 -41 69 -111.5t-29 -128.5z" />
    <glyph glyph-name="l" unicode="l" horiz-adv-x="489" 
d="M262 1521q71 -3 118.5 -55.5t44.5 -123.5q-6 -126 -9.5 -294.5t-5.5 -354.5t-2.5 -366t-0.5 -327q0 -70 -50.5 -120.5t-121.5 -50.5q-70 0 -120.5 50.5t-50.5 120.5q0 148 0.5 328t3 367.5t6 359t9.5 303.5q3 71 56 118.5t123 44.5z" />
    <glyph glyph-name="m" unicode="m" horiz-adv-x="1761" 
d="M59 24q27 286 35 462q-1 17 1 33q3 69 3 128q0 94 -6 171.5t-19 156.5q-13 78 27 126t98 62q54 13 109 -5.5t84 -70.5q55 40 122 62.5t149 22.5q108 0 180.5 -41.5t118.5 -112.5q75 73 169 113t211 40q134 0 215 -64.5t118 -175.5t37 -250q0 -163 -1.5 -338t-10.5 -344
q-4 -64 -49 -116t-127 -52q-84 0 -128.5 50.5t-40.5 116.5q5 103 8 193t3 167q0 183 -9 285.5t-32 144t-67 41.5q-34 0 -65 -20.5t-62 -75.5t-65 -160q1 -33 1 -69q0 -69 -1 -124t-4 -109.5t-7.5 -122t-11.5 -160.5q-6 -81 -63 -119t-122 -34q-64 5 -113.5 49t-43.5 128
q9 119 14 196.5t7.5 144t2.5 151.5q0 189 -22 257.5t-81 68.5q-57 0 -99.5 -65.5t-82.5 -210.5q-3 -112 -13 -249t-27 -313q-7 -82 -66.5 -119t-124.5 -30q-62 6 -109 52t-40 129z" />
    <glyph glyph-name="n" unicode="n" horiz-adv-x="1206" 
d="M59 24q20 214 29.5 362.5t9.5 260.5q0 94 -6 171.5t-19 156.5q-13 78 27 126t98 62q67 16 133 -16.5t80 -117.5q65 64 143 103t169 39q134 0 231 -64.5t149.5 -175.5t52.5 -250q0 -163 -1.5 -338t-10.5 -344q-4 -64 -49 -116t-127 -52q-84 0 -128.5 50.5t-40.5 116.5
q5 103 8 193t3 167q0 236 -30.5 353.5t-100.5 117.5q-65 0 -111.5 -64.5t-79.5 -170t-58 -229.5v-2q-6 -80 -13.5 -172t-17.5 -199q-7 -82 -66.5 -119t-124.5 -30q-62 6 -109 52t-40 129z" />
    <glyph glyph-name="o" unicode="o" horiz-adv-x="1159" 
d="M592 1172q142 0 246 -58.5t172 -153t101.5 -206t33.5 -216.5q0 -115 -36 -236.5t-108 -225.5t-181 -168t-255 -64q-135 0 -238.5 57t-173 151t-105 207.5t-35.5 226.5q0 114 34 234t104 223t180 166t261 63zM592 830q-97 0 -166 -91t-69 -253q0 -97 31.5 -164
t79.5 -101.5t97 -34.5q55 0 110 44.5t91.5 123.5t36.5 184q0 134 -63.5 213t-147.5 79z" />
    <glyph glyph-name="p" unicode="p" horiz-adv-x="1237" 
d="M210 -604q-70 3 -118 56t-45 123l32 688q6 98 10 182.5t4 157.5q0 98 -12.5 178.5t-29.5 113.5q-31 63 -8 130.5t86 98.5t131 8.5t99 -85.5q5 -9 9 -19q74 69 164 106.5t191 37.5q147 0 259.5 -79.5t176.5 -216t64 -308.5q0 -114 -41.5 -239.5t-131.5 -236t-235.5 -179.5
t-353.5 -69q-30 0 -58 10l-14 -295q-3 -70 -55.5 -118t-123.5 -45zM421 243l-3 -62q21 5 43 5q126 0 208 35t128 92t65 124t19 131q0 110 -27.5 166.5t-64.5 76t-66 19.5q-30 0 -77 -27t-95.5 -89.5t-84.5 -167.5t-42 -262q0 -9 -2 -18q0 -13 -1 -23z" />
    <glyph glyph-name="q" unicode="q" horiz-adv-x="1203" 
d="M1001 1148q71 -4 117 -58.5t41 -125.5q-16 -220 -25 -438.5t-9 -438.5q0 -126 3 -251.5t8 -252.5q3 -70 -44.5 -123t-118.5 -56q-70 -3 -123 45t-56 118q-3 84 -5.5 167.5t-4.5 167.5q-53 -28 -116 -44t-137 -16q-148 0 -248 60t-159.5 156.5t-85 208.5t-25.5 217
q0 82 18 176t57 184.5t102 164.5t154 118.5t213 44.5q85 0 159 -25.5t133 -68.5q26 34 66 53.5t86 16.5zM357 484q0 -173 46 -235.5t128 -62.5q173 0 257 257q5 135 12 271q-81 3 -129 64q-18 23 -44 37.5t-70 14.5q-73 0 -136.5 -89.5t-63.5 -256.5z" />
    <glyph glyph-name="r" unicode="r" horiz-adv-x="945" 
d="M222 -171q-20 2 -39 9h-1q-1 1 -3 1q-67 26 -96 91h-1q0 1 -1 3q-18 40 -13 84q1 6 1 13q3 33 6 67.5t6 68.5q6 85 10 179.5t4 186.5q0 125 -10 233.5t-24 156.5q-19 67 15 130.5t101 82.5q67 20 130 -14t82 -101q3 -9 5 -17q65 55 149.5 95.5t193.5 61.5q69 13 129 -27
t73 -109t-27 -129t-109 -73q-137 -27 -212 -108.5t-111 -222.5t-56 -345q-6 -88 -14 -163q-2 -20 -9 -39v-1q-1 -1 -1 -3q-26 -67 -91 -96v-1q-1 0 -3 -1q-40 -18 -84 -13z" />
    <glyph glyph-name="s" unicode="s" horiz-adv-x="1020" 
d="M951 799q-43 -55 -108.5 -63t-130.5 32q-53 33 -102.5 47.5t-90.5 14.5q-52 0 -83.5 -19.5t-31.5 -51.5q0 -35 51 -56.5t125 -44.5q68 -21 144 -49.5t142.5 -74t108.5 -117t42 -178.5q0 -112 -66.5 -201.5t-180.5 -141.5t-257 -52q-153 0 -275.5 52.5t-195.5 149.5
q-39 58 -24.5 128.5t72.5 109.5q58 38 110 21.5t87 -39.5q47 -31 116.5 -55.5t150.5 -24.5q45 0 82 10t37 35q0 34 -49 54.5t-121 42.5q-68 21 -144.5 50t-144.5 76t-110.5 121t-42.5 185q0 113 64 207t171.5 150.5t235.5 56.5q126 0 213 -33.5t175 -101.5q56 -43 65 -113.5
t-34 -126.5z" />
    <glyph glyph-name="t" unicode="t" horiz-adv-x="815" 
d="M810 798q-9 -70 -65.5 -113.5t-126.5 -34.5q-34 4 -70 7q-4 -75 -6.5 -150.5t-2.5 -151.5q0 -67 5.5 -118t18.5 -51q17 0 44 5q69 13 127.5 -28t71.5 -109q13 -69 -27.5 -128.5t-109.5 -72.5q-28 -5 -54.5 -7t-51.5 -2q-96 0 -161 36.5t-105.5 95.5t-62 128t-29.5 135
t-8 116q0 74 2 148t6 147q-69 -8 -125.5 35.5t-64.5 113.5t35.5 126.5t113.5 64.5q33 4 67 7q6 60 12.5 120t13.5 119q8 70 64 114t126 36t114 -64t36 -126q-6 -50 -11.5 -99t-10.5 -99q45 -3 87 -8q70 -9 113.5 -65.5t34.5 -126.5z" />
    <glyph glyph-name="u" unicode="u" horiz-adv-x="1206" 
d="M1147 978q-20 -214 -29.5 -362.5t-9.5 -260.5q0 -94 6 -171.5t19 -156.5q13 -78 -27 -126t-98 -62q-67 -16 -133 16t-79 115q-64 -63 -139 -101t-161 -38q-140 0 -240 64.5t-153 175.5t-53 250q0 163 1.5 338t10.5 344q4 64 49 116t127 52q84 0 128 -50.5t41 -116.5
q-3 -68 -5.5 -137.5t-4 -158t-1.5 -215.5q0 -176 30.5 -248t100.5 -72q65 0 111.5 64.5t79.5 170t58 229.5v2q6 80 13.5 172t17.5 199q8 82 67 119t124 30q62 -6 109.5 -52t39.5 -129z" />
    <glyph glyph-name="v" unicode="v" horiz-adv-x="1124" 
d="M112 1127q64 29 131.5 5t97.5 -88q57 -121 119.5 -262.5t118.5 -291.5q62 128 114.5 260.5t91.5 268.5q20 67 82.5 101.5t129.5 14.5q67 -19 101.5 -82t14.5 -130q-76 -265 -192.5 -510.5t-247.5 -457.5q-34 -56 -100 -75q-71 -19 -136 20t-79 112q-29 146 -83 300
t-118.5 303.5t-127.5 282.5q-30 64 -5.5 132t88.5 97z" />
    <glyph glyph-name="w" unicode="w" horiz-adv-x="1551" 
d="M418 1092q57 -38 73 -99t-15 -123q-49 -97 -84 -239t-35 -288q0 -83 22 -120t71 -37q54 0 89 47t58 155.5t41 293.5q8 75 50 120t106 45q70 0 118 -47t48 -116q0 -206 14.5 -313.5t41.5 -146t64 -38.5q69 0 96 70.5t27 173.5q0 110 -22.5 233.5t-48.5 211.5
q-22 74 -6.5 138.5t87.5 95.5q66 29 125.5 6t91.5 -88q107 -216 107 -521q0 -204 -51 -352.5t-144.5 -229t-222.5 -80.5q-114 0 -209 61t-142 192q-66 -118 -168 -185.5t-214 -67.5q-111 0 -195 66.5t-131 185.5t-47 277q0 108 21.5 229.5t58.5 236t85 199.5q37 67 106 82.5
t134 -28.5z" />
    <glyph glyph-name="x" unicode="x" horiz-adv-x="1177" 
d="M76 -133q-54 44 -61 116t37 126l304 372q-72 98 -135.5 199t-113.5 201q-31 63 -8.5 130.5t85.5 98.5t130.5 8.5t98.5 -85.5q33 -66 75.5 -136t92.5 -141l266 324q44 54 116 61t126 -37t61 -116t-37 -126l-316 -386q82 -97 165.5 -187.5t160.5 -167.5q50 -49 50 -120.5
t-50 -121.5q-49 -49 -120.5 -49t-121.5 49q-72 72 -149.5 154.5t-155.5 172.5l-258 -315q-44 -54 -116 -61t-126 37z" />
    <glyph glyph-name="y" unicode="y" horiz-adv-x="1177" 
d="M274 1142q70 -7 115.5 -63.5t37.5 -126.5q-7 -64 -11.5 -146.5t-7 -161.5t-2.5 -135q0 -146 15 -214.5t48 -88.5t87 -20q79 0 137 55t91 149q2 71 2 156q0 144 -1.5 248t-3.5 162q-3 71 45 123.5t118 55.5q71 3 123.5 -45t55.5 -119q2 -39 3 -97t1.5 -158t0.5 -266
q0 -547 -157 -801.5t-479 -254.5q-142 0 -257.5 56t-186.5 159q-39 58 -26 129t71 110t129 26t110 -71q45 -65 160 -65q83 0 138.5 36.5t89.5 123.5q-79 -29 -164 -29q-118 0 -209.5 28t-154.5 98t-95.5 195t-32.5 319q0 72 2.5 160.5t7 174t11.5 146.5q8 70 63.5 115
t125.5 37z" />
    <glyph glyph-name="z" unicode="z" horiz-adv-x="1094" 
d="M16 854q-11 70 30 128t111 69q69 11 175.5 23t230.5 12q134 0 234 -27.5t166 -68.5q49 -30 67.5 -82t7 -105t-55.5 -90q-52 -44 -131.5 -127t-167 -186t-166.5 -208q109 4 213 6t189 2q71 0 121.5 -50t50.5 -121q0 -70 -50.5 -120.5t-121.5 -50.5q-76 0 -171 -2
t-193.5 -5.5t-189 -8.5t-159.5 -11q-73 -6 -120.5 34.5t-61 101.5t14.5 115q54 104 133.5 218.5t172 229t185.5 217.5q-55 -2 -104 -6.5t-90 -9.5q-37 -5 -67 -9.5t-56 -8.5q-70 -11 -128 30t-69 111z" />
    <glyph glyph-name="braceleft" unicode="{" horiz-adv-x="705" 
d="M676 93q0 -70 -50 -120.5t-121 -50.5q-126 0 -198.5 47.5t-107 122.5t-45.5 159t-11.5 159t-4.5 122.5t-28 47.5h-6h-1h-4v0q-67 5 -114 54.5t-47 117.5q0 63 40.5 110.5t100.5 58.5h1q2 1 4 1h2t3 1h3h3h2q2 1 3 1h3h3h4q27 0 33 47.5t6.5 122.5t10.5 159t43 159
t105 122.5t197 47.5q71 0 121.5 -50t50.5 -121q0 -70 -50.5 -120.5t-121.5 -50.5q-29 0 -38 -32.5t-9 -86t0.5 -119t-8 -133t-36.5 -126.5q28 -73 31 -156t1 -156.5t8 -120t51 -46.5q71 0 121 -50t50 -121z" />
    <glyph glyph-name="bar" unicode="|" horiz-adv-x="427" 
d="M227 1630q71 0 121 -50t50 -121q0 -158 -1.5 -353t-4 -398t-5 -388t-5.5 -323q-1 -70 -52.5 -119.5t-122.5 -48.5q-70 2 -119.5 53t-48.5 121q2 110 4.5 251t4.5 299t4 319t3 311.5t1 275.5q0 71 50.5 121t120.5 50z" />
    <glyph glyph-name="braceright" unicode="}" horiz-adv-x="705" 
d="M777 752q0 -63 -40.5 -110.5t-100.5 -58.5h-1q-2 -1 -4 -1h-2t-3 -1h-3h-3h-2q-2 -1 -3 -1h-3h-3h-4q-27 0 -33 -47.5t-6.5 -122.5t-10.5 -159t-43 -159t-104.5 -122.5t-197.5 -47.5q-70 0 -121 50.5t-51 120.5q0 71 51 121t121 50q29 0 38 32.5t9 86t-0.5 119t8 133
t36.5 126.5q-28 73 -31 156t-1 156.5t-8 120t-51 46.5q-70 0 -120.5 50.5t-50.5 120.5q0 71 50.5 121t120.5 50q126 0 198.5 -47.5t107 -122.5t45.5 -159t11.5 -159t5 -122.5t27.5 -47.5h6h1h4v0q67 -5 114 -54.5t47 -117.5z" />
    <glyph glyph-name="asciitilde" unicode="~" horiz-adv-x="880" 
d="M87 1033q-48 16 -72 63.5t-9 93.5q19 54 55.5 106t92.5 86t135 34q81 0 142 -31.5t109 -61.5q17 -9 28.5 -17t32.5 -8q37 0 52 19t16.5 36.5t-2.5 12.5q18 48 68 67t95 0q47 -19 66.5 -68.5t0.5 -94.5q-42 -94 -120 -159t-176 -65q-61 0 -113 20.5t-102 57.5
q-21 17 -38.5 28.5t-43.5 11.5q-28 0 -42 -15.5t-17.5 -28.5t-0.5 -6q-16 -48 -63 -72.5t-94 -8.5z" />
    <glyph glyph-name="uni00A0" unicode="&#xa0;" horiz-adv-x="300" 
 />
    <glyph glyph-name="exclamdown" unicode="&#xa1;" horiz-adv-x="583" 
d="M69 1029q0 39 23.5 88.5t69.5 86t113 36.5q38 0 89.5 -19.5t91 -65t39.5 -125.5q0 -88 -63.5 -152t-152.5 -64q-66 0 -113 34t-72 84t-25 97zM346 -417q-70 -10 -126.5 33.5t-66.5 113.5q-18 138 -28.5 247t-14.5 221.5t-4 258.5v61t1 65q2 71 52 118t120 47
q71 0 122 -50t49 -121q-1 -30 -1 -60.5v-59.5q0 -143 3.5 -248.5t13.5 -205.5t27 -227q10 -70 -33.5 -126.5t-113.5 -66.5z" />
    <glyph glyph-name="cent" unicode="&#xa2;" horiz-adv-x="1071" 
d="M572 -536q-70 0 -120.5 50.5t-50.5 120.5v244q-182 60 -285 215.5t-103 381.5q0 154 48.5 284t136 225t203.5 143v188q0 71 50.5 121.5t120.5 50.5q71 0 121 -50.5t50 -121.5v-156q140 -28 249 -123q53 -46 58.5 -117.5t-40.5 -124.5t-117.5 -58.5t-124.5 40.5
q-61 53 -132 53q-121 0 -200 -102t-79 -273q0 -130 62.5 -199.5t179.5 -69.5q50 0 121 11.5t129 28.5q68 20 130.5 -15t81.5 -103t-15.5 -129.5t-102.5 -81.5q-113 -33 -200 -45v-217q0 -70 -50 -120.5t-121 -50.5z" />
    <glyph glyph-name="sterling" unicode="&#xa3;" horiz-adv-x="1464" 
d="M65 688q12 51 51.5 87.5t93.5 42.5v121q0 154 50 285.5t152 212t258 80.5q136 0 235 -56t159.5 -149.5t80.5 -208.5q13 -74 -29 -129t-106 -68q-76 -15 -133 29t-68 110q-11 65 -41 97.5t-98 32.5q-47 0 -73 -37.5t-35.5 -92t-9.5 -106.5v-142q52 4 102.5 11t94.5 15
q74 14 129 -26t70 -102q19 -77 -24 -136t-110 -72q-62 -12 -133.5 -21t-147.5 -12q-23 -132 -69 -240q54 -13 115 -20.5t131 -7.5q58 0 126.5 7t121 28.5t60.5 65.5q11 59 58 99t110 40q51 0 93.5 -27.5t64 -73t10.5 -101.5q-26 -138 -118.5 -221.5t-229.5 -121t-296 -37.5
q-171 0 -317 37.5t-256 80.5q-48 19 -78 63.5t-30 95.5q0 36 16 70.5t39 55.5q39 36 65.5 98.5t41.5 136.5h-2q-63 16 -102.5 73.5t-21.5 132.5z" />
    <glyph glyph-name="currency" unicode="&#xa4;" horiz-adv-x="1159" 
d="M1096 -85q-53 -46 -124.5 -41t-116.5 57q-60 -40 -132.5 -63.5t-157.5 -23.5q-79 0 -146.5 20.5t-124.5 56.5q-47 -46 -115 -47t-118 44q-52 47 -55 118.5t43 123.5l26 28q-62 143 -62 298q0 81 17 167t52 166l-33 35q-47 52 -44.5 123.5t54.5 118.5t123 44.5t117 -52.5
q60 39 133 61.5t160 22.5q81 0 149.5 -20.5t125.5 -56.5q48 44 114.5 45.5t115.5 -42.5q53 -46 58 -117t-42 -124l-27 -30q30 -71 44.5 -145t14.5 -144q0 -81 -18 -167t-54 -167l41 -47q46 -53 40.5 -124.5t-58.5 -117.5zM592 830q-97 0 -166 -91t-69 -253q0 -97 31.5 -164
t79.5 -101.5t97 -34.5q55 0 110 44.5t91.5 123.5t36.5 184q0 134 -63.5 213t-147.5 79z" />
    <glyph glyph-name="yen" unicode="&#xa5;" horiz-adv-x="1307" 
d="M137 100q-8 70 35.5 126.5t113.5 64.5q124 15 242.5 21t236.5 6q131 0 263 -6q71 -3 118.5 -55.5t44.5 -123.5q-3 -70 -55.5 -118t-123.5 -45q-126 6 -247 6q-110 0 -217.5 -5.5t-219.5 -19.5q-70 -8 -126.5 35.5t-64.5 113.5zM128 517q-8 70 35.5 126.5t113.5 64.5
q124 15 242.5 21t236.5 6q131 0 263 -6q71 -3 118.5 -55.5t44.5 -123.5q-3 -70 -55.5 -118t-123.5 -45q-126 6 -247 6q-110 0 -217.5 -5.5t-219.5 -19.5q-70 -8 -126.5 35.5t-64.5 113.5zM664 -171q-70 -1 -121.5 48.5t-52.5 119.5l-10 583l-434 638q-40 57 -28.5 127.5
t68.5 110.5q57 41 127.5 29t110.5 -69l323 -484l343 473q39 58 110 71t129 -26t71 -110t-26 -129l-452 -633l10 -575q1 -70 -48 -121.5t-120 -52.5z" />
    <glyph glyph-name="brokenbar" unicode="&#xa6;" horiz-adv-x="429" 
d="M214 1532q71 0 121.5 -50t50.5 -121q0 -109 -1 -227.5t-3 -241.5q-1 -70 -52.5 -119.5t-122.5 -48.5q-70 2 -119.5 53t-48.5 121q2 122 2.5 238.5t0.5 224.5q0 71 51 121t121 50zM232 668q71 -1 120.5 -52t47.5 -122q-3 -136 -7.5 -264.5t-10.5 -239.5
q-4 -70 -56.5 -117.5t-123.5 -43.5q-70 4 -118 57.5t-44 123.5q6 108 10.5 232t7.5 258q2 71 53 120.5t121 47.5z" />
    <glyph glyph-name="section" unicode="&#xa7;" horiz-adv-x="1000" 
d="M18 670q0 85 35.5 147.5t95.5 105.5q-44 44 -70 101.5t-26 131.5q0 127 69.5 208t181.5 125.5t243 62t255 17.5q71 0 120.5 -49.5t49.5 -120.5q0 -70 -49.5 -120t-120.5 -50q-50 0 -117 -3.5t-130.5 -13t-105.5 -28.5t-42 -51q0 -37 61.5 -62t135.5 -45
q65 -17 131.5 -43.5t122.5 -68.5t90 -105t34 -154q0 -85 -35.5 -147.5t-94.5 -105.5q43 -44 69 -101.5t26 -131.5q0 -127 -69.5 -208t-181.5 -125.5t-243 -62t-255 -17.5q-70 0 -120 50t-50 120q0 71 50 120.5t120 49.5q50 0 117.5 3.5t131 13t105.5 29t42 50.5
q0 38 -61.5 63t-135.5 44q-65 17 -131.5 43.5t-122.5 68.5t-90.5 105t-34.5 154zM328 670q0 -33 29 -53t68.5 -31t69.5 -17q74 8 126 31.5t52 54.5q0 33 -29 53t-68 31t-70 17q-74 -7 -126 -30.5t-52 -55.5z" />
    <glyph glyph-name="dieresis" unicode="&#xa8;" horiz-adv-x="698" 
d="M656 1210q0 -61 -43 -98t-95 -37q-60 0 -99 42t-39 92q0 58 36 100.5t92 42.5q61 0 104.5 -41.5t43.5 -100.5zM328 1226q0 -63 -44 -107t-107 -44q-59 0 -92 45.5t-33 93.5q0 57 40 97.5t97 40.5q50 0 94.5 -33.5t44.5 -92.5z" />
    <glyph glyph-name="copyright" unicode="&#xa9;" horiz-adv-x="1693" 
d="M1059 861q-26 -30 -66.5 -33t-70.5 23q-32 29 -74 29q-69 0 -122 -61t-53 -142q0 -67 28 -101t101 -34q44 0 77 11.5t66 30.5q34 21 73 10.5t60 -44.5t11.5 -73t-43.5 -60q-48 -30 -109 -49t-135 -19q-105 0 -177.5 46t-110 121t-37.5 161q0 97 46.5 188t130 149.5
t194.5 58.5q59 0 110 -20t91 -55q30 -26 33 -66.5t-23 -70.5zM-12 616q0 204 69.5 372t188.5 290t270.5 188t314.5 66q186 0 345 -60.5t277.5 -167.5t184.5 -246.5t66 -297.5q0 -205 -71.5 -368.5t-200 -279t-302 -177t-378.5 -61.5q-141 0 -277 57.5t-246 159.5
t-175.5 236.5t-65.5 288.5zM332 616q0 -72 38 -142.5t100 -129t136 -93.5t146 -35q300 0 455 143t155 401q0 102 -61.5 201t-180 164t-289.5 65q-89 0 -177.5 -38t-161 -111t-116.5 -180t-44 -245z" />
    <glyph glyph-name="ordfeminine" unicode="&#xaa;" horiz-adv-x="946" 
d="M404 816q-91 0 -157 48t-101.5 125.5t-35.5 166.5q0 98 41.5 185.5t117 142.5t178.5 55q107 0 182 -60q3 8 7 15q14 29 45.5 39.5t60.5 -3.5t39.5 -45.5t-3.5 -60.5q-12 -25 -28 -87t-23 -130q-2 -16 -3 -32q-2 -22 -2 -41q0 -93 20 -125.5t24 -32.5q32 0 56 -24t24 -56
t-24 -56t-56 -24q-56 0 -93.5 25t-59.5 63q-37 -39 -88.5 -63.5t-120.5 -24.5zM404 976q65 0 106 58t53 143q2 28 5 56v14q0 81 -30.5 106.5t-90.5 25.5q-70 0 -123.5 -60.5t-53.5 -162.5q0 -91 41 -135.5t93 -44.5z" />
    <glyph glyph-name="guillemotleft" unicode="&#xab;" horiz-adv-x="1103" 
d="M974 213q-40 -24 -88.5 -12.5t-72.5 51.5q-105 171 -242 289q-25 22 -32 57t2.5 69t31.5 52q69 57 129 127t109 156q23 41 71 54.5t88 -9.5q41 -23 54.5 -70.5t-9.5 -88.5q-43 -75 -92.5 -137.5t-103.5 -123.5q53 -59 102 -120.5t92 -132.5q24 -40 12.5 -88.5
t-51.5 -72.5zM536 213q-40 -24 -88.5 -12.5t-72.5 51.5q-105 171 -242 289q-25 22 -32 57t2.5 69t31.5 52q69 57 129 127t109 156q23 41 71 54.5t88 -9.5q41 -23 54.5 -70.5t-9.5 -88.5q-43 -75 -92.5 -137.5t-103.5 -123.5q53 -59 102 -120.5t92 -132.5q24 -40 12.5 -88.5
t-51.5 -72.5z" />
    <glyph glyph-name="logicalnot" unicode="&#xac;" horiz-adv-x="985" 
d="M-12 661q0 71 51 121t121 50h645q52 0 90 -27.5t59.5 -67t21.5 -76.5v-273q0 -70 -50 -121t-121 -51q-70 0 -120.5 51t-50.5 121v102h-474q-70 0 -121 50.5t-51 120.5z" />
    <glyph glyph-name="uni00AD" unicode="&#xad;" horiz-adv-x="1037" 
d="M20 620q-8 70 35.5 126.5t113.5 64.5q124 15 242.5 21t236.5 6q131 0 263 -6q71 -3 118.5 -55.5t44.5 -123.5q-3 -70 -55.5 -118t-123.5 -45q-126 6 -247 6q-110 0 -217.5 -5.5t-219.5 -19.5q-70 -8 -126.5 35.5t-64.5 113.5z" />
    <glyph glyph-name="registered" unicode="&#xae;" horiz-adv-x="1693" 
d="M565 830q-31 24 -37 64t18 71q45 62 113.5 95.5t141.5 33.5q70 0 140.5 -32t118 -93t47.5 -150q0 -63 -28.5 -118.5t-75.5 -90.5q23 -15 45 -28.5t45 -25.5q35 -19 46.5 -58t-8.5 -74q-19 -34 -58 -45.5t-74 7.5q-53 29 -106.5 65.5t-101.5 82.5q-4 -40 -8 -79
q-4 -40 -35.5 -65t-71.5 -21t-65 36t-21 72q8 80 15.5 165t12.5 169q-30 1 -53 19zM815 884q-3 -63 -7 -131h3q63 0 82 21.5t19 44.5q0 22 -26 48t-71 30v-13zM-12 616q0 204 69.5 372t188.5 290t270.5 188t314.5 66q186 0 345 -60.5t277.5 -167.5t184.5 -246.5t66 -297.5
q0 -205 -71.5 -368.5t-200 -279t-302 -177t-378.5 -61.5q-141 0 -277 57.5t-246 159.5t-175.5 236.5t-65.5 288.5zM332 616q0 -72 38 -142.5t100 -129t136 -93.5t146 -35q300 0 455 143t155 401q0 102 -61.5 201t-180 164t-289.5 65q-89 0 -177.5 -38t-161 -111t-116.5 -180
t-44 -245z" />
    <glyph glyph-name="macron" unicode="&#xaf;" horiz-adv-x="1037" 
d="M20 1328q-8 70 35.5 126.5t113.5 64.5q124 15 242.5 21t236.5 6q131 0 263 -6q71 -3 118.5 -55.5t44.5 -123.5q-3 -70 -55.5 -118t-123.5 -45q-126 6 -247 6q-110 0 -217.5 -5.5t-219.5 -19.5q-70 -8 -126.5 35.5t-64.5 113.5z" />
    <glyph glyph-name="degree" unicode="&#xb0;" horiz-adv-x="840" 
d="M719 1398q0 -80 -43 -145.5t-113.5 -104t-152.5 -38.5q-75 0 -138.5 39t-102 103t-38.5 139q0 81 41 151t108 113t144 43q83 0 149.5 -43t106 -111.5t39.5 -145.5zM523 1401q0 38 -29.5 69.5t-69.5 31.5q-34 0 -65.5 -32t-31.5 -73q0 -36 27.5 -63.5t61.5 -27.5
q44 0 75.5 29.5t31.5 65.5z" />
    <glyph glyph-name="plusminus" unicode="&#xb1;" horiz-adv-x="1037" 
d="M21 624q-8 70 35.5 126.5t113.5 64.5q103 13 210 19q-5 81 -15 160q-8 70 35 127t113 65t127 -36t65 -114q12 -95 18 -194q94 -2 189 -6q71 -3 118.5 -55.5t44.5 -123.5q-3 -70 -55.5 -118t-123.5 -45q-84 4 -165 5q-1 -103 -6 -205q-3 -70 -55 -117.5t-123 -44.5
q-70 3 -118.5 55.5t-45.5 122.5q4 92 6 182q-89 -6 -177 -17q-70 -8 -126.5 35.5t-64.5 113.5zM20 128q-8 70 35.5 126.5t113.5 64.5q124 15 242.5 21t236.5 6q131 0 263 -6q71 -3 118.5 -55.5t44.5 -123.5q-3 -70 -55.5 -118t-123.5 -45q-126 6 -247 6q-110 0 -217.5 -5.5
t-219.5 -19.5q-70 -8 -126.5 35.5t-64.5 113.5z" />
    <glyph glyph-name="uni00B2" unicode="&#xb2;" horiz-adv-x="728" 
d="M196 1232q-32 2 -55 27t-23 57q0 62 26.5 117t76.5 90t120 35q109 0 176 -68t67 -178q0 -71 -19 -118t-55 -83.5t-87 -76.5l-35 -21l140 -7q32 0 55.5 -24t23.5 -56t-24.5 -56t-56.5 -24l-350 8q-33 0 -56 24q-25 23 -24.5 59.5t28.5 58.5l174 134q69 54 97.5 93.5
t28.5 97.5q0 35 -18.5 56t-53.5 21q-33 0 -54.5 -23.5t-21.5 -67.5q0 -32 -24 -54.5t-56 -20.5z" />
    <glyph glyph-name="uni00B3" unicode="&#xb3;" horiz-adv-x="674" 
d="M194 1168q-2 31 19 55t51 25l7 1h1h4q1 0 3 1l5 1h1q49 9 81 35.5t32 51.5q0 41 -45 41q-47 0 -86 -45q-16 -26 -50 -33.5t-63 8.5q-26 16 -32.5 49t9.5 63q49 67 99 92.5t123 25.5q86 0 145.5 -53t59.5 -134q0 -79 -67 -147q37 -30 60 -70t23 -80q0 -56 -30.5 -105
t-82.5 -79.5t-117 -30.5q-125 0 -202 62q-25 20 -29.5 53.5t15.5 58.5q20 26 53 29t59 -17q17 -13 40.5 -19.5t69.5 -6.5q64 0 64 52q0 23 -16 39.5t-51 16.5q-22 0 -60 -7q-5 -1 -11 -2q-26 -5 -49 12t-31 43v1q0 2 -1 4v3l-1 3v3z" />
    <glyph glyph-name="acute" unicode="&#xb4;" horiz-adv-x="532" 
d="M427 1551q29 -22 33 -59.5t-19 -65.5q-56 -70 -102 -137.5t-87 -156.5q-14 -32 -50.5 -45.5t-68.5 0.5q-31 14 -44.5 50t0.5 69q47 104 102 182t111 148q23 29 60 33t65 -18z" />
    <glyph glyph-name="mu" unicode="&#xb5;" horiz-adv-x="1206" 
d="M1147 978q-20 -214 -29.5 -362.5t-9.5 -260.5q0 -94 6 -171.5t19 -156.5q13 -78 -27 -126t-98 -62q-67 -16 -133 16.5t-80 117.5q-65 -64 -143 -103t-169 -39q-36 0 -70 5q6 -82 13.5 -161t14.5 -151q8 -70 -38 -125t-116 -63q-70 -7 -125 38.5t-63 115.5
q-18 182 -33.5 399.5t-15.5 431.5q0 163 1.5 338t10.5 344q4 64 49 116t127 52q69 0 121 -50.5t48 -116.5q-5 -103 -8 -193t-3 -167q0 -236 30.5 -353.5t100.5 -117.5q65 0 111.5 64.5t79.5 170t58 229.5v2q6 80 13.5 172t17.5 199q8 82 67 119t124 30q62 -6 109.5 -52
t39.5 -129z" />
    <glyph glyph-name="paragraph" unicode="&#xb6;" horiz-adv-x="1329" 
d="M630 1117q41 0 69 -28t28 -69v-539q16 -1 33 -1q41 0 81 7v473q0 41 26 69t66 28q41 0 66.5 -28t25.5 -69v-443q41 -9 75 -36.5t50 -69.5q25 -65 -4.5 -130.5t-94.5 -90.5q-13 -5 -26 -9v-623q0 -40 -25.5 -68.5t-66.5 -28.5q-40 0 -66 28.5t-26 68.5v582q-40 -4 -81 -4
q-16 0 -33 1v-519q0 -40 -28 -68.5t-69 -28.5q-40 0 -68.5 28.5t-28.5 68.5v550q-141 40 -263 127t-197 217t-75 299q0 150 58.5 278.5t160 225t232.5 150t276 53.5q183 0 329.5 -72.5t244.5 -185.5q46 -53 41 -125t-58 -118t-125 -41t-118 58q-56 64 -131.5 102t-182.5 38
q-105 0 -192 -50t-139 -132.5t-52 -180.5q0 -84 52 -157.5t139 -119.5v486q0 41 28.5 69t68.5 28z" />
    <glyph glyph-name="periodcentered" unicode="&#xb7;" horiz-adv-x="488" 
d="M87 750q0 51 28.5 98t76 77t103.5 30q72 0 115 -34.5t62 -81t19 -82.5q0 -40 -22.5 -90t-67.5 -86t-111 -36q-79 0 -123 36.5t-62 84.5t-18 84z" />
    <glyph glyph-name="cedilla" unicode="&#xb8;" horiz-adv-x="727" 
d="M204 108q44 55 115 62t126 -37q39 -32 89 -81t96.5 -112t77 -139t30.5 -162q0 -88 -37 -148t-97.5 -96t-132.5 -51.5t-142 -15.5q-58 0 -110.5 7t-95.5 19q-67 19 -101.5 82t-15.5 130q19 68 81.5 103.5t129.5 14.5q14 -4 45 -9t56 -5q23 0 47 5.5t24 23.5q0 16 -30 48.5
t-68 66.5t-62 53q-55 44 -62 115t37 126z" />
    <glyph glyph-name="uni00B9" unicode="&#xb9;" horiz-adv-x="536" 
d="M338 860q-32 2 -53.5 28t-20.5 58l22 346q-24 -10 -44.5 -19.5t-43.5 -18.5q-30 -12 -59.5 2t-41.5 44t1.5 61t43.5 43q50 20 95 49t85 65q25 21 52 21q35 0 59.5 -25t22.5 -60l-32 -520q-1 -32 -27.5 -53.5t-58.5 -20.5z" />
    <glyph glyph-name="ordmasculine" unicode="&#xba;" horiz-adv-x="830" 
d="M719 1398q0 -80 -43 -145.5t-113.5 -104t-152.5 -38.5q-75 0 -138.5 39t-102 103t-38.5 139q0 81 41 151t108 113t144 43q83 0 149.5 -43t106 -111.5t39.5 -145.5zM523 1401q0 38 -29.5 69.5t-69.5 31.5q-34 0 -65.5 -32t-31.5 -73q0 -36 27.5 -63.5t61.5 -27.5
q44 0 75.5 29.5t31.5 65.5z" />
    <glyph glyph-name="guillemotright" unicode="&#xbb;" horiz-adv-x="1103" 
d="M587 1046q40 24 88.5 12.5t72.5 -51.5q105 -171 242 -289q26 -22 32.5 -57t-3 -68.5t-31.5 -52.5q-69 -57 -129.5 -126.5t-109.5 -156.5q-22 -41 -69.5 -54.5t-88.5 9.5t-54 70.5t10 88.5q42 74 91 137t104 124q-53 59 -102 121t-92 132q-24 40 -12.5 88.5t51.5 72.5z
M149 1046q40 24 88.5 12.5t72.5 -51.5q105 -171 242 -289q26 -22 32.5 -57t-3 -68.5t-31.5 -52.5q-69 -57 -129.5 -126.5t-109.5 -156.5q-22 -41 -69.5 -54.5t-88.5 9.5t-54 70.5t10 88.5q42 74 91 137t104 124q-53 59 -102 121t-92 132q-24 40 -12.5 88.5t51.5 72.5z" />
    <glyph glyph-name="onequarter" unicode="&#xbc;" horiz-adv-x="2016" 
d="M388 404q-48 3 -79.5 40t-28.5 84l54 819q-28 -15 -54.5 -29t-49.5 -28q-41 -24 -89.5 -11.5t-71.5 51.5q-23 41 -10 89t53 71q62 36 123.5 83.5t115.5 98.5q11 11 35.5 21t44.5 10h35q49 0 84 -37.5t32 -86.5l-70 -1067q-3 -48 -40 -79.5t-84 -28.5zM415 -41
q-34 32 -36 82t30 84q132 140 275.5 312t281.5 355.5t256 358t198 319.5q23 41 71 55t88 -9q41 -23 54.5 -70t-9.5 -88q-87 -155 -208 -336t-262 -369t-288 -364.5t-285 -323.5q-32 -35 -81.5 -36.5t-84.5 30.5zM1624 373q47 -4 78 -42t27 -85l-21 -219q68 10 121 23
q46 11 88 -14.5t52 -71.5q11 -46 -14.5 -87.5t-71.5 -52.5q-90 -22 -199 -36l-16 -167q-4 -46 -42 -77.5t-85 -27.5q-46 4 -77.5 42.5t-27.5 84.5l12 125q-100 -4 -198.5 -0.5t-184.5 15.5q-7 1 -22.5 6t-23.5 9q-40 26 -51.5 77t19.5 92q42 57 103 152t125.5 206
t120.5 217.5t87 185.5q18 44 62 63.5t89 1.5q44 -18 63.5 -62t1.5 -89q-37 -93 -95.5 -204t-125 -225t-128.5 -216q45 1 91 3t90 4l26 264q4 47 42.5 78t84.5 27z" />
    <glyph glyph-name="onehalf" unicode="&#xbd;" horiz-adv-x="2070" 
d="M388 404q-48 3 -79.5 40t-28.5 84l54 819q-28 -15 -54.5 -29t-49.5 -28q-41 -24 -89.5 -11.5t-71.5 51.5q-23 41 -10 89t53 71q62 36 123.5 83.5t115.5 98.5q11 11 35.5 21t44.5 10h35q49 0 84 -37.5t32 -86.5l-70 -1067q-3 -48 -40 -79.5t-84 -28.5zM415 -41
q-34 32 -36 82t30 84q132 140 275.5 312t281.5 355.5t256 358t198 319.5q23 41 71 55t88 -9q41 -23 54.5 -70t-9.5 -88q-87 -155 -208 -336t-262 -369t-288 -364.5t-285 -323.5q-32 -35 -81.5 -36.5t-84.5 30.5zM1752 413q0 62 -43.5 99.5t-117.5 37.5q-76 0 -119 -49
t-43 -135q0 -52 -31.5 -73t-86.5 -21q-59 0 -88.5 39.5t-29.5 101.5q0 171 110.5 272t291.5 101q116 0 204 -52t138 -138t50 -189q0 -101 -47.5 -193t-128 -178.5t-180.5 -174.5l-58 -51q19 1 38.5 1h38.5q62 0 125.5 -2t128.5 -6q47 -3 79.5 -37t32.5 -81q0 -49 -35.5 -84
t-82.5 -33q-84 5 -149.5 6.5t-124.5 1.5q-91 0 -176.5 -4.5t-170.5 -12.5q-54 -5 -85 31.5t-32 86.5t36 86l283 269q112 107 171 173t80.5 113t21.5 95z" />
    <glyph glyph-name="threequarters" unicode="&#xbe;" horiz-adv-x="2166" 
d="M851 829q0 -129 -64.5 -220.5t-164.5 -139.5t-210 -48q-83 0 -165.5 28t-150.5 83q-37 29 -42 78.5t25 85.5q30 37 79.5 41t85.5 -25q33 -28 77.5 -42.5t90.5 -14.5q90 0 148 38.5t58 114.5q0 50 -38 82.5t-106 32.5q-25 0 -57 -6q-20 -5 -39 -9t-35 -8q-46 -10 -87.5 16
t-52.5 72q-10 47 16 88.5t72 51.5l5 1q13 4 26.5 7t28.5 7q115 31 176.5 75t61.5 109q0 52 -32 84t-76 32q-58 0 -95 -36t-48 -82q-10 -46 -51.5 -72t-88.5 -16q-46 11 -72 52.5t-16 87.5q21 95 80 161.5t138.5 101.5t160.5 35q86 0 161.5 -43.5t123 -126t47.5 -198.5
q0 -77 -25.5 -134.5t-67.5 -100.5q53 -41 86.5 -102t36.5 -141zM565 -41q-34 32 -36 82t30 84q132 140 275.5 312t281.5 355.5t256 358t198 319.5q23 41 71 55t88 -9q41 -23 54.5 -70t-9.5 -88q-87 -155 -208 -336t-262 -369t-288 -364.5t-285 -323.5q-32 -35 -81.5 -36.5
t-84.5 30.5zM1774 373q47 -4 78 -42t27 -85l-21 -219q68 10 121 23q46 11 88 -14.5t52 -71.5q11 -46 -14.5 -87.5t-71.5 -52.5q-90 -22 -199 -36l-16 -167q-4 -46 -42 -77.5t-85 -27.5q-46 4 -77.5 42.5t-27.5 84.5l12 125q-100 -4 -198.5 -0.5t-184.5 15.5q-7 1 -22.5 6
t-23.5 9q-40 26 -51.5 77t19.5 92q42 57 103 152t125.5 206t120.5 217.5t87 185.5q18 44 62 63.5t89 1.5q44 -18 63.5 -62t1.5 -89q-37 -93 -95.5 -204t-125 -225t-128.5 -216q45 1 91 3t90 4l26 264q4 47 42.5 78t84.5 27z" />
    <glyph glyph-name="questiondown" unicode="&#xbf;" horiz-adv-x="1155" 
d="M399 1025q0 89 63.5 152t152.5 63q86 0 151 -61t65 -154q0 -90 -63 -153.5t-153 -63.5q-61 0 -110 30.5t-77.5 80t-28.5 106.5zM1057 -4q36 -61 28.5 -115.5t-39.5 -98t-71 -72.5q-76 -55 -179.5 -91.5t-230.5 -36.5q-133 0 -243.5 54t-176.5 154t-66 237q0 92 37 156.5
t92 111t108 81.5q55 37 92 71t37 81q0 19 -3 34q-19 81 28 136.5t110 65.5q86 14 137 -25.5t68 -104.5q12 -46 12 -100q0 -93 -34.5 -157.5t-87.5 -110.5t-107 -84q-64 -45 -95.5 -72.5t-41.5 -47t-10 -40.5q0 -55 44 -76.5t104 -21.5q59 0 122 24.5t98 53.5q43 36 95 50.5
t99 2t74 -58.5z" />
    <glyph glyph-name="Agrave" unicode="&#xc0;" horiz-adv-x="1376" 
d="M114 -165q-64 29 -89 96.5t3 131.5l538 1324q30 68 103 91.5t137 -12.5q56 -32 77 -87l478 -1316q26 -65 -3 -131t-94 -92q-65 -25 -131 3.5t-92 93.5l-63 181l-551 23l-85 -220q-28 -64 -96 -89t-132 3zM712 875l-154 -397l297 -12zM612 2150q28 22 65 18t59 -33
q52 -66 103 -158t88 -173q14 -32 0.5 -68.5t-45.5 -50.5t-68 -0.5t-50 45.5q-22 49 -52 105.5t-60.5 107t-55.5 82.5q-22 29 -17 66t33 59z" />
    <glyph glyph-name="Aacute" unicode="&#xc1;" horiz-adv-x="1376" 
d="M114 -165q-64 29 -89 96.5t3 131.5l538 1324q30 68 103 91.5t137 -12.5q56 -32 77 -87l478 -1316q26 -65 -3 -131t-94 -92q-65 -25 -131 3.5t-92 93.5l-63 181l-551 23l-85 -220q-28 -64 -96 -89t-132 3zM712 875l-154 -397l297 -12zM903 2148q29 -22 33 -59.5t-19 -65.5
q-56 -70 -102 -137.5t-87 -156.5q-14 -32 -50.5 -45.5t-68.5 0.5q-31 14 -44.5 50t0.5 69q47 104 102 182t111 148q23 29 60 33t65 -18z" />
    <glyph glyph-name="Acircumflex" unicode="&#xc2;" horiz-adv-x="1376" 
d="M114 -165q-64 29 -89 96.5t3 131.5l538 1324q30 68 103 91.5t137 -12.5q56 -32 77 -87l478 -1316q26 -65 -3 -131t-94 -92q-65 -25 -131 3.5t-92 93.5l-63 181l-551 23l-85 -220q-28 -64 -96 -89t-132 3zM712 875l-154 -397l297 -12zM529 1691q-30 19 -38.5 55t10.5 67
l166 270q13 22 42 29.5t59 2t44 -24.5l192 -241q22 -28 18.5 -65t-32.5 -60q-28 -22 -65 -17.5t-59 32.5l-115 142l-98 -162q-19 -30 -56 -38.5t-68 10.5z" />
    <glyph glyph-name="Atilde" unicode="&#xc3;" horiz-adv-x="1376" 
d="M114 -165q-64 29 -89 96.5t3 131.5l538 1324q30 68 103 91.5t137 -12.5q56 -32 77 -87l478 -1316q26 -65 -3 -131t-94 -92q-65 -25 -131 3.5t-92 93.5l-63 181l-551 23l-85 -220q-28 -64 -96 -89t-132 3zM712 875l-154 -397l297 -12zM389 1650q-48 16 -72 63.5t-9 93.5
q19 54 55.5 106t92.5 86t135 34q81 0 142 -31.5t109 -61.5q17 -9 28.5 -17t32.5 -8q37 0 52 19t16.5 36.5t-2.5 12.5q18 48 68 67t95 0q47 -19 66.5 -68.5t0.5 -94.5q-42 -94 -120 -159t-176 -65q-61 0 -113 20.5t-102 57.5q-21 17 -38.5 28.5t-43.5 11.5q-28 0 -42 -15.5
t-17.5 -28.5t-0.5 -6q-16 -48 -63 -72.5t-94 -8.5z" />
    <glyph glyph-name="Adieresis" unicode="&#xc4;" horiz-adv-x="1376" 
d="M114 -165q-64 29 -89 96.5t3 131.5l538 1324q30 68 103 91.5t137 -12.5q56 -32 77 -87l478 -1316q26 -65 -3 -131t-94 -92q-65 -25 -131 3.5t-92 93.5l-63 181l-551 23l-85 -220q-28 -64 -96 -89t-132 3zM712 875l-154 -397l297 -12zM1061 1827q0 -61 -43 -98t-95 -37
q-60 0 -99 42t-39 92q0 58 36 100.5t92 42.5q61 0 104.5 -41.5t43.5 -100.5zM733 1843q0 -63 -44 -107t-107 -44q-59 0 -92 45.5t-33 93.5q0 57 40 97.5t97 40.5q50 0 94.5 -33.5t44.5 -92.5z" />
    <glyph glyph-name="Aring" unicode="&#xc5;" horiz-adv-x="1376" 
d="M114 -165q-64 29 -89 96.5t3 131.5l538 1324q30 68 103 91.5t137 -12.5q56 -32 77 -87l478 -1316q26 -65 -3 -131t-94 -92q-65 -25 -131 3.5t-92 93.5l-63 181l-551 23l-85 -220q-28 -64 -96 -89t-132 3zM712 875l-154 -397l297 -12zM1132 1967q0 -80 -43 -145.5
t-113.5 -104t-152.5 -38.5q-75 0 -138.5 39t-102 103t-38.5 139q0 81 41 151t108 113t144 43q83 0 149.5 -43t106 -111.5t39.5 -145.5zM936 1970q0 38 -29.5 69.5t-69.5 31.5q-34 0 -65.5 -32t-31.5 -73q0 -36 27.5 -63.5t61.5 -27.5q44 0 75.5 29.5t31.5 65.5z" />
    <glyph glyph-name="AE" unicode="&#xc6;" horiz-adv-x="1918" 
d="M1925 1413q17 -69 -21 -129t-107 -77q-136 -31 -276.5 -46t-286.5 -15h-26v-27v-131.5t-1 -135.5q132 -1 255.5 -5t224.5 -13q71 -6 117 -60t40 -125q-6 -70 -60 -116.5t-125 -40.5q-92 7 -212.5 12t-250.5 6q-5 -76 -12 -145.5t-17 -130.5q-4 -25 -5 -35t-1 -16
q0 -4 35 -7t70 -5q95 -6 174 -9.5t172 -3.5h61t59 1q71 2 123 -47t53 -120q2 -70 -47.5 -121.5t-120.5 -53.5q-33 -1 -64.5 -1h-63.5q-99 0 -184.5 3.5t-181.5 9.5q-58 3 -131.5 20.5t-142 56t-112.5 103.5t-44 164q0 22 2 39.5t6 36.5q9 53 15.5 118.5t11.5 139.5
q-94 -2 -187.5 -4.5t-166.5 -6.5l-179 -549q-19 -67 -81.5 -94.5t-133.5 0.5q-64 25 -78 83.5t2 126.5l343 1262q19 70 62.5 122.5t118.5 48.5q18 -1 86.5 -2t160.5 -2t184.5 -2t162 -1.5t89.5 -0.5q129 0 250.5 13t234.5 40q69 17 129.5 -21t76.5 -107zM711 1150l-100 -306
q61 2 125.5 3.5t127.5 2.5q1 70 1.5 138t0.5 131v29q-39 1 -78.5 1t-76.5 1z" />
    <glyph glyph-name="Ccedilla" unicode="&#xc7;" horiz-adv-x="1261" 
d="M1208 1222q-28 -64 -95.5 -89.5t-131.5 2.5q-88 39 -192 39q-138 0 -234.5 -67t-147 -183t-50.5 -262q0 -140 48 -247.5t143 -168t237 -60.5q120 0 222 54q62 33 129.5 11.5t100.5 -83.5t11.5 -129.5t-83.5 -100.5q-179 -94 -380 -94q-175 0 -317.5 62t-244 173.5
t-156 260.5t-54.5 322t53.5 327t154.5 273.5t244.5 187.5t323.5 68q84 0 168 -16.5t164 -52.5q64 -28 90 -95.5t-3 -131.5zM586 122q44 55 115 62t126 -37q39 -32 89 -81t96.5 -112t77 -139t30.5 -162q0 -88 -37 -148t-97.5 -96t-132.5 -51.5t-142 -15.5q-58 0 -110.5 7
t-95.5 19q-67 19 -101.5 82t-15.5 130q19 68 81.5 103.5t129.5 14.5q14 -4 45 -9t56 -5q23 0 47 5.5t24 23.5q0 16 -30 48.5t-68 66.5t-62 53q-55 44 -62 115t37 126z" />
    <glyph glyph-name="Egrave" unicode="&#xc8;" horiz-adv-x="1138" 
d="M15 674q-6 50 16 95t63 71q1 62 1 120q0 70 -2 122.5t-6.5 104t-13.5 116.5q-4 36 15 83t61 80.5t104 29.5t123 -6t121 -2q112 0 228 9.5t200 28.5q69 16 129 -22t76 -107t-22.5 -129t-106.5 -76q-117 -27 -248 -37.5t-256 -10.5h-32.5t-31.5 1q2 -41 4 -86.5t2 -98.5
q0 -37 -1 -75q43 1 87 1q190 0 380 -23q70 -8 114 -64.5t36 -126.5t-64.5 -113.5t-126.5 -35.5q-164 19 -339 19q-55 0 -102 -1q-5 -69 -12 -134t-15 -124q-3 -18 -3 -38q0 -17 12.5 -24t52.5 -7.5t120 1t215 1.5h77.5t73.5 1q71 2 122.5 -47.5t52.5 -120.5q2 -70 -48 -121
t-121 -53q-39 -1 -78 -1h-79q-68 0 -163.5 -3.5t-196 5t-187.5 44t-141 113t-54 212.5q0 18 1 37t4 41q7 52 13.5 112.5t10.5 124.5q-57 44 -65 114zM453 2149q28 22 65 18t59 -33q52 -66 103 -158t88 -173q14 -32 0.5 -68.5t-45.5 -50.5t-68 -0.5t-50 45.5
q-22 49 -52 105.5t-60.5 107t-55.5 82.5q-22 29 -17 66t33 59z" />
    <glyph glyph-name="Eacute" unicode="&#xc9;" horiz-adv-x="1138" 
d="M15 674q-6 50 16 95t63 71q1 62 1 120q0 70 -2 122.5t-6.5 104t-13.5 116.5q-4 36 15 83t61 80.5t104 29.5t123 -6t121 -2q112 0 228 9.5t200 28.5q69 16 129 -22t76 -107t-22.5 -129t-106.5 -76q-117 -27 -248 -37.5t-256 -10.5h-32.5t-31.5 1q2 -41 4 -86.5t2 -98.5
q0 -37 -1 -75q43 1 87 1q190 0 380 -23q70 -8 114 -64.5t36 -126.5t-64.5 -113.5t-126.5 -35.5q-164 19 -339 19q-55 0 -102 -1q-5 -69 -12 -134t-15 -124q-3 -18 -3 -38q0 -17 12.5 -24t52.5 -7.5t120 1t215 1.5h77.5t73.5 1q71 2 122.5 -47.5t52.5 -120.5q2 -70 -48 -121
t-121 -53q-39 -1 -78 -1h-79q-68 0 -163.5 -3.5t-196 5t-187.5 44t-141 113t-54 212.5q0 18 1 37t4 41q7 52 13.5 112.5t10.5 124.5q-57 44 -65 114zM758 2148q29 -22 33 -59.5t-19 -65.5q-56 -70 -102 -137.5t-87 -156.5q-14 -32 -50.5 -45.5t-68.5 0.5q-31 14 -44.5 50
t0.5 69q47 104 102 182t111 148q23 29 60 33t65 -18z" />
    <glyph glyph-name="Ecircumflex" unicode="&#xca;" horiz-adv-x="1138" 
d="M15 674q-6 50 16 95t63 71q1 62 1 120q0 70 -2 122.5t-6.5 104t-13.5 116.5q-4 36 15 83t61 80.5t104 29.5t123 -6t121 -2q112 0 228 9.5t200 28.5q69 16 129 -22t76 -107t-22.5 -129t-106.5 -76q-117 -27 -248 -37.5t-256 -10.5h-32.5t-31.5 1q2 -41 4 -86.5t2 -98.5
q0 -37 -1 -75q43 1 87 1q190 0 380 -23q70 -8 114 -64.5t36 -126.5t-64.5 -113.5t-126.5 -35.5q-164 19 -339 19q-55 0 -102 -1q-5 -69 -12 -134t-15 -124q-3 -18 -3 -38q0 -17 12.5 -24t52.5 -7.5t120 1t215 1.5h77.5t73.5 1q71 2 122.5 -47.5t52.5 -120.5q2 -70 -48 -121
t-121 -53q-39 -1 -78 -1h-79q-68 0 -163.5 -3.5t-196 5t-187.5 44t-141 113t-54 212.5q0 18 1 37t4 41q7 52 13.5 112.5t10.5 124.5q-57 44 -65 114zM380 1691q-30 19 -38.5 55t10.5 67l166 270q13 22 42 29.5t59 2t44 -24.5l192 -241q22 -28 18.5 -65t-32.5 -60
q-28 -22 -65 -17.5t-59 32.5l-115 142l-98 -162q-19 -30 -56 -38.5t-68 10.5z" />
    <glyph glyph-name="Edieresis" unicode="&#xcb;" horiz-adv-x="1138" 
d="M15 674q-6 50 16 95t63 71q1 62 1 120q0 70 -2 122.5t-6.5 104t-13.5 116.5q-4 36 15 83t61 80.5t104 29.5t123 -6t121 -2q112 0 228 9.5t200 28.5q69 16 129 -22t76 -107t-22.5 -129t-106.5 -76q-117 -27 -248 -37.5t-256 -10.5h-32.5t-31.5 1q2 -41 4 -86.5t2 -98.5
q0 -37 -1 -75q43 1 87 1q190 0 380 -23q70 -8 114 -64.5t36 -126.5t-64.5 -113.5t-126.5 -35.5q-164 19 -339 19q-55 0 -102 -1q-5 -69 -12 -134t-15 -124q-3 -18 -3 -38q0 -17 12.5 -24t52.5 -7.5t120 1t215 1.5h77.5t73.5 1q71 2 122.5 -47.5t52.5 -120.5q2 -70 -48 -121
t-121 -53q-39 -1 -78 -1h-79q-68 0 -163.5 -3.5t-196 5t-187.5 44t-141 113t-54 212.5q0 18 1 37t4 41q7 52 13.5 112.5t10.5 124.5q-57 44 -65 114zM909 1827q0 -61 -43 -98t-95 -37q-60 0 -99 42t-39 92q0 58 36 100.5t92 42.5q61 0 104.5 -41.5t43.5 -100.5zM581 1843
q0 -63 -44 -107t-107 -44q-59 0 -92 45.5t-33 93.5q0 57 40 97.5t97 40.5q50 0 94.5 -33.5t44.5 -92.5z" />
    <glyph glyph-name="Igrave" unicode="&#xcc;" horiz-adv-x="475" 
d="M221 -171q-70 2 -119 53.5t-48 121.5l35 1361q2 71 53.5 120t121.5 47q71 -1 120 -52.5t47 -122.5l-35 -1361q-1 -70 -52.5 -119t-122.5 -48zM105 2149q28 22 65 18t59 -33q52 -66 103 -158t88 -173q14 -32 0.5 -68.5t-45.5 -50.5t-68 -0.5t-50 45.5q-22 49 -52 105.5
t-60.5 107t-55.5 82.5q-22 29 -17 66t33 59z" />
    <glyph glyph-name="Iacute" unicode="&#xcd;" horiz-adv-x="475" 
d="M221 -171q-70 2 -119 53.5t-48 121.5l35 1361q2 71 53.5 120t121.5 47q71 -1 120 -52.5t47 -122.5l-35 -1361q-1 -70 -52.5 -119t-122.5 -48zM396 2148q29 -22 33 -59.5t-19 -65.5q-56 -70 -102 -137.5t-87 -156.5q-14 -32 -50.5 -45.5t-68.5 0.5q-31 14 -44.5 50t0.5 69
q47 104 102 182t111 148q23 29 60 33t65 -18z" />
    <glyph glyph-name="Icircumflex" unicode="&#xce;" horiz-adv-x="475" 
d="M221 -171q-70 2 -119 53.5t-48 121.5l35 1361q2 71 53.5 120t121.5 47q71 -1 120 -52.5t47 -122.5l-35 -1361q-1 -70 -52.5 -119t-122.5 -48zM22 1691q-30 19 -38.5 55t10.5 67l166 270q13 22 42 29.5t59 2t44 -24.5l192 -241q22 -28 18.5 -65t-32.5 -60
q-28 -22 -65 -17.5t-59 32.5l-115 142l-98 -162q-19 -30 -56 -38.5t-68 10.5z" />
    <glyph glyph-name="Idieresis" unicode="&#xcf;" horiz-adv-x="475" 
d="M221 -171q-70 2 -119 53.5t-48 121.5l35 1361q2 71 53.5 120t121.5 47q71 -1 120 -52.5t47 -122.5l-35 -1361q-1 -70 -52.5 -119t-122.5 -48zM554 1827q0 -61 -43 -98t-95 -37q-60 0 -99 42t-39 92q0 58 36 100.5t92 42.5q61 0 104.5 -41.5t43.5 -100.5zM226 1843
q0 -63 -44 -107t-107 -44q-59 0 -92 45.5t-33 93.5q0 57 40 97.5t97 40.5q50 0 94.5 -33.5t44.5 -92.5z" />
    <glyph glyph-name="Eth" unicode="&#xd0;" horiz-adv-x="1341" 
d="M-54 685q-4 59 35 105t97 50q85 7 171 10q-1 85 -4 155.5t-9 142t-15 160.5q-7 68 35.5 120.5t97.5 64.5q110 25 227 25q184 0 344.5 -52.5t281.5 -156t189.5 -256t68.5 -352.5q0 -177 -63 -332.5t-176.5 -273.5t-266 -184.5t-332.5 -66.5q-165 0 -314 58q-57 22 -86 76
t-22 106q14 107 24 229t15 247q-73 -3 -144 -8q-58 -4 -103.5 35.5t-50.5 97.5zM578 1176q6 -80 9 -158.5t4 -171.5q44 -2 86 -6q58 -4 97 -50.5t34 -105.5q-4 -58 -50.5 -97t-104.5 -35q-33 3 -67 5q-7 -188 -24 -367q16 -1 32.5 -2.5t32.5 -1.5q142 0 254 67t177 183.5
t65 264.5q0 245 -135 359t-407 114q-1 0 -3 2z" />
    <glyph glyph-name="Ntilde" unicode="&#xd1;" horiz-adv-x="1347" 
d="M216 -171q-70 3 -117.5 56.5t-44.5 123.5q17 333 29 652.5t16 656.5q1 74 57 125t129 44q37 -3 70.5 -24t50.5 -44q146 -191 283 -390.5t264 -402.5l8 737q1 71 52 120.5t121 48.5q71 -1 120.5 -51.5t48.5 -121.5l-15 -1357q-1 -39 -20.5 -78t-55.5 -63q-61 -40 -135 -22
t-110 82q-122 221 -256.5 442.5t-280.5 437.5q-6 -200 -15 -402t-19 -408q-3 -70 -56 -117.5t-124 -44.5zM322 1585q-48 16 -72 63.5t-9 93.5q19 54 55.5 106t92.5 86t135 34q81 0 142 -31.5t109 -61.5q17 -9 28.5 -17t32.5 -8q37 0 52 19t16.5 36.5t-2.5 12.5q18 48 68 67
t95 0q47 -19 66.5 -68.5t0.5 -94.5q-42 -94 -120 -159t-176 -65q-61 0 -113 20.5t-102 57.5q-21 17 -38.5 28.5t-43.5 11.5q-28 0 -42 -15.5t-17.5 -28.5t-0.5 -6q-16 -48 -63 -72.5t-94 -8.5z" />
    <glyph glyph-name="Ograve" unicode="&#xd2;" horiz-adv-x="1525" 
d="M738 -156q-157 0 -289.5 58.5t-230.5 163t-151.5 244.5t-53.5 303q0 171 57.5 332.5t164 291t256 205.5t333.5 76q173 0 303 -73.5t218 -195.5t132 -269.5t44 -295.5q0 -175 -58 -327.5t-164 -268t-248.5 -180t-312.5 -64.5zM738 186q123 0 223 60.5t159 172t59 265.5
q0 147 -49 257.5t-129.5 171.5t-176.5 61q-125 0 -231.5 -74.5t-171 -201.5t-64.5 -285q0 -205 108 -316t273 -111zM652 2149q28 22 65 18t59 -33q52 -66 103 -158t88 -173q14 -32 0.5 -68.5t-45.5 -50.5t-68 -0.5t-50 45.5q-22 49 -52 105.5t-60.5 107t-55.5 82.5
q-22 29 -17 66t33 59z" />
    <glyph glyph-name="Oacute" unicode="&#xd3;" horiz-adv-x="1525" 
d="M738 -156q-157 0 -289.5 58.5t-230.5 163t-151.5 244.5t-53.5 303q0 171 57.5 332.5t164 291t256 205.5t333.5 76q173 0 303 -73.5t218 -195.5t132 -269.5t44 -295.5q0 -175 -58 -327.5t-164 -268t-248.5 -180t-312.5 -64.5zM738 186q123 0 223 60.5t159 172t59 265.5
q0 147 -49 257.5t-129.5 171.5t-176.5 61q-125 0 -231.5 -74.5t-171 -201.5t-64.5 -285q0 -205 108 -316t273 -111zM943 2148q29 -22 33 -59.5t-19 -65.5q-56 -70 -102 -137.5t-87 -156.5q-14 -32 -50.5 -45.5t-68.5 0.5q-31 14 -44.5 50t0.5 69q47 104 102 182t111 148
q23 29 60 33t65 -18z" />
    <glyph glyph-name="Ocircumflex" unicode="&#xd4;" horiz-adv-x="1525" 
d="M738 -156q-157 0 -289.5 58.5t-230.5 163t-151.5 244.5t-53.5 303q0 171 57.5 332.5t164 291t256 205.5t333.5 76q173 0 303 -73.5t218 -195.5t132 -269.5t44 -295.5q0 -175 -58 -327.5t-164 -268t-248.5 -180t-312.5 -64.5zM738 186q123 0 223 60.5t159 172t59 265.5
q0 147 -49 257.5t-129.5 171.5t-176.5 61q-125 0 -231.5 -74.5t-171 -201.5t-64.5 -285q0 -205 108 -316t273 -111zM569 1691q-30 19 -38.5 55t10.5 67l166 270q13 22 42 29.5t59 2t44 -24.5l192 -241q22 -28 18.5 -65t-32.5 -60q-28 -22 -65 -17.5t-59 32.5l-115 142
l-98 -162q-19 -30 -56 -38.5t-68 10.5z" />
    <glyph glyph-name="Otilde" unicode="&#xd5;" horiz-adv-x="1525" 
d="M738 -156q-157 0 -289.5 58.5t-230.5 163t-151.5 244.5t-53.5 303q0 171 57.5 332.5t164 291t256 205.5t333.5 76q173 0 303 -73.5t218 -195.5t132 -269.5t44 -295.5q0 -175 -58 -327.5t-164 -268t-248.5 -180t-312.5 -64.5zM738 186q123 0 223 60.5t159 172t59 265.5
q0 147 -49 257.5t-129.5 171.5t-176.5 61q-125 0 -231.5 -74.5t-171 -201.5t-64.5 -285q0 -205 108 -316t273 -111zM429 1650q-48 16 -72 63.5t-9 93.5q19 54 55.5 106t92.5 86t135 34q81 0 142 -31.5t109 -61.5q17 -9 28.5 -17t32.5 -8q37 0 52 19t16.5 36.5t-2.5 12.5
q18 48 68 67t95 0q47 -19 66.5 -68.5t0.5 -94.5q-42 -94 -120 -159t-176 -65q-61 0 -113 20.5t-102 57.5q-21 17 -38.5 28.5t-43.5 11.5q-28 0 -42 -15.5t-17.5 -28.5t-0.5 -6q-16 -48 -63 -72.5t-94 -8.5z" />
    <glyph glyph-name="Odieresis" unicode="&#xd6;" horiz-adv-x="1525" 
d="M738 -156q-157 0 -289.5 58.5t-230.5 163t-151.5 244.5t-53.5 303q0 171 57.5 332.5t164 291t256 205.5t333.5 76q173 0 303 -73.5t218 -195.5t132 -269.5t44 -295.5q0 -175 -58 -327.5t-164 -268t-248.5 -180t-312.5 -64.5zM738 186q123 0 223 60.5t159 172t59 265.5
q0 147 -49 257.5t-129.5 171.5t-176.5 61q-125 0 -231.5 -74.5t-171 -201.5t-64.5 -285q0 -205 108 -316t273 -111zM1101 1827q0 -61 -43 -98t-95 -37q-60 0 -99 42t-39 92q0 58 36 100.5t92 42.5q61 0 104.5 -41.5t43.5 -100.5zM773 1843q0 -63 -44 -107t-107 -44
q-59 0 -92 45.5t-33 93.5q0 57 40 97.5t97 40.5q50 0 94.5 -33.5t44.5 -92.5z" />
    <glyph glyph-name="multiply" unicode="&#xd7;" horiz-adv-x="882" 
d="M62 265q-51 44 -53 115.5t46 126.5q75 86 157 170q-65 53 -123 92q-57 38 -66.5 107.5t33.5 129.5t114 75.5t128 -22.5q43 -29 87.5 -63t87.5 -72q34 31 69.5 61t70.5 60q57 47 127.5 44t113.5 -56q43 -52 33.5 -123.5t-66.5 -118.5q-29 -25 -58 -49.5t-57 -48.5
q48 -55 79 -101t63 -99q35 -58 19 -129.5t-75 -114.5t-129 -32t-105 69q-8 12 -39.5 59.5t-72.5 99.5q-71 -73 -140 -152q-48 -55 -120.5 -63t-123.5 35z" />
    <glyph glyph-name="Oslash" unicode="&#xd8;" horiz-adv-x="1494" 
d="M66 -129q-31 20 -38 57t13 66q52 78 109 157q-66 95 -101.5 212.5t-35.5 249.5q0 171 57.5 332.5t164 291t256 205.5t333.5 76q129 0 234 -42.5t187 -115.5q42 38 84 77q27 24 64.5 22.5t61.5 -28.5t22.5 -64.5t-28.5 -61.5q-44 -40 -87 -80q79 -117 119 -258.5
t40 -282.5q0 -175 -58 -327.5t-164 -268t-248.5 -180t-312.5 -64.5q-137 0 -256 45t-211 126q-43 -60 -82 -119q-20 -30 -57 -37t-66 12zM357 613q0 -89 23 -163q144 177 299.5 345t313.5 324q-78 55 -169 55q-125 0 -231.5 -74.5t-171 -201.5t-64.5 -285zM738 186
q123 0 223 60.5t159 172t59 265.5q0 88 -18.5 164t-51.5 136q-164 -163 -325 -338.5t-308 -359.5q102 -100 262 -100z" />
    <glyph glyph-name="Ugrave" unicode="&#xd9;" horiz-adv-x="1350" 
d="M335 1502q69 -15 108 -75t24 -129q-25 -117 -40.5 -220.5t-22.5 -208.5t-7 -227q0 -456 259 -456q158 0 232.5 193.5t74.5 605.5q0 52 -1 124.5t-2.5 140t-3.5 103.5q-3 71 45 123.5t118 55.5t122.5 -44.5t56.5 -118.5q2 -38 4 -108t3.5 -145.5t1.5 -130.5
q0 -372 -64.5 -626.5t-207.5 -384.5t-379 -130q-201 0 -335 101.5t-201 289t-67 443.5q0 178 18.5 339.5t59.5 352.5q15 69 75.5 108t128.5 24zM533 2149q28 22 65 18t59 -33q52 -66 103 -158t88 -173q14 -32 0.5 -68.5t-45.5 -50.5t-68 -0.5t-50 45.5q-22 49 -52 105.5
t-60.5 107t-55.5 82.5q-22 29 -17 66t33 59z" />
    <glyph glyph-name="Uacute" unicode="&#xda;" horiz-adv-x="1350" 
d="M335 1502q69 -15 108 -75t24 -129q-25 -117 -40.5 -220.5t-22.5 -208.5t-7 -227q0 -456 259 -456q158 0 232.5 193.5t74.5 605.5q0 52 -1 124.5t-2.5 140t-3.5 103.5q-3 71 45 123.5t118 55.5t122.5 -44.5t56.5 -118.5q2 -38 4 -108t3.5 -145.5t1.5 -130.5
q0 -372 -64.5 -626.5t-207.5 -384.5t-379 -130q-201 0 -335 101.5t-201 289t-67 443.5q0 178 18.5 339.5t59.5 352.5q15 69 75.5 108t128.5 24zM824 2148q29 -22 33 -59.5t-19 -65.5q-56 -70 -102 -137.5t-87 -156.5q-14 -32 -50.5 -45.5t-68.5 0.5q-31 14 -44.5 50t0.5 69
q47 104 102 182t111 148q23 29 60 33t65 -18z" />
    <glyph glyph-name="Ucircumflex" unicode="&#xdb;" horiz-adv-x="1350" 
d="M335 1502q69 -15 108 -75t24 -129q-25 -117 -40.5 -220.5t-22.5 -208.5t-7 -227q0 -456 259 -456q158 0 232.5 193.5t74.5 605.5q0 52 -1 124.5t-2.5 140t-3.5 103.5q-3 71 45 123.5t118 55.5t122.5 -44.5t56.5 -118.5q2 -38 4 -108t3.5 -145.5t1.5 -130.5
q0 -372 -64.5 -626.5t-207.5 -384.5t-379 -130q-201 0 -335 101.5t-201 289t-67 443.5q0 178 18.5 339.5t59.5 352.5q15 69 75.5 108t128.5 24zM456 1691q-30 19 -38.5 55t10.5 67l166 270q13 22 42 29.5t59 2t44 -24.5l192 -241q22 -28 18.5 -65t-32.5 -60
q-28 -22 -65 -17.5t-59 32.5l-115 142l-98 -162q-19 -30 -56 -38.5t-68 10.5z" />
    <glyph glyph-name="Udieresis" unicode="&#xdc;" horiz-adv-x="1350" 
d="M335 1502q69 -15 108 -75t24 -129q-25 -117 -40.5 -220.5t-22.5 -208.5t-7 -227q0 -456 259 -456q158 0 232.5 193.5t74.5 605.5q0 52 -1 124.5t-2.5 140t-3.5 103.5q-3 71 45 123.5t118 55.5t122.5 -44.5t56.5 -118.5q2 -38 4 -108t3.5 -145.5t1.5 -130.5
q0 -372 -64.5 -626.5t-207.5 -384.5t-379 -130q-201 0 -335 101.5t-201 289t-67 443.5q0 178 18.5 339.5t59.5 352.5q15 69 75.5 108t128.5 24zM987 1827q0 -61 -43 -98t-95 -37q-60 0 -99 42t-39 92q0 58 36 100.5t92 42.5q61 0 104.5 -41.5t43.5 -100.5zM659 1843
q0 -63 -44 -107t-107 -44q-59 0 -92 45.5t-33 93.5q0 57 40 97.5t97 40.5q50 0 94.5 -33.5t44.5 -92.5z" />
    <glyph glyph-name="Yacute" unicode="&#xdd;" horiz-adv-x="1307" 
d="M664 -171q-70 -1 -121.5 48.5t-52.5 119.5l-10 583l-434 638q-40 57 -28.5 127.5t68.5 110.5q57 41 127.5 29t110.5 -69l323 -484l343 473q39 58 110 71t129 -26t71 -110t-26 -129l-452 -633l10 -575q1 -70 -48 -121.5t-120 -52.5zM816 2148q29 -22 33 -59.5t-19 -65.5
q-56 -70 -102 -137.5t-87 -156.5q-14 -32 -50.5 -45.5t-68.5 0.5q-31 14 -44.5 50t0.5 69q47 104 102 182t111 148q23 29 60 33t65 -18z" />
    <glyph glyph-name="Thorn" unicode="&#xde;" horiz-adv-x="1166" 
d="M221 -565q-70 2 -119 68t-48 156l16 809v20q0 26 2 53l17 857q2 90 53.5 153t121.5 61q71 -2 120 -68t47 -156l-5 -260q48 22 104 34t119 12q142 0 246 -58.5t172 -153t101.5 -206t33.5 -216.5q0 -115 -36 -236.5t-108 -225.5t-181 -168t-255 -64q-62 0 -117.5 13
t-103.5 36l-5 -246q-1 -90 -52.5 -153t-122.5 -61zM649 832q-97 0 -166 -91t-69 -253q0 -97 31.5 -164t79.5 -101.5t97 -34.5q55 0 110 44.5t91.5 123.5t36.5 184q0 134 -63.5 213t-147.5 79z" />
    <glyph glyph-name="germandbls" unicode="&#xdf;" horiz-adv-x="1134" 
d="M571 1518q110 0 193 -42.5t138.5 -111.5t83.5 -149t28 -155q0 -122 -46 -215.5t-126 -156.5q-49 -39 -49 -52q0 -9 10.5 -15.5t22.5 -12.5q39 -20 93.5 -53t106 -83.5t86 -122t34.5 -167.5q0 -100 -48.5 -166.5t-122 -104t-152.5 -53.5t-141 -16q-63 0 -130.5 12.5
t-132.5 49.5q-28 16 -48 40q-19 -51 -67 -83t-106 -28q-70 5 -116.5 59t-42.5 124q19 279 38.5 534.5t48.5 482.5q28 218 145.5 351.5t299.5 133.5zM562 207q23 -7 58 -16t64 -9q19 0 46.5 2t48.5 8.5t21 21.5q0 23 -129 90q-43 23 -95 63t-89 102t-37 150q0 117 56.5 201
t119.5 136q22 18 33 47.5t11 56.5q0 47 -28.5 80.5t-70.5 33.5q-19 0 -39.5 -12.5t-37.5 -51.5t-28 -121q-23 -177 -39.5 -378.5t-32.5 -423.5q65 55 168 20z" />
    <glyph glyph-name="agrave" unicode="&#xe0;" horiz-adv-x="1309" 
d="M1134 -126q-146 0 -234 101q-155 -131 -359 -131q-152 0 -271.5 75t-188 208.5t-68.5 306.5q0 151 46.5 284.5t129 235.5t192 160t236.5 58q128 0 237 -64q56 60 140 48q71 -10 119 -67.5t44 -125.5l-23 -468q-1 -28 -2.5 -68.5t-2 -77t0.5 -55.5q2 -28 13 -50.5
t48 -36.5q41 -15 78 -51t37 -111q0 -70 -50.5 -120.5t-121.5 -50.5zM546 186q103 0 168.5 83.5t75.5 270.5v3l9 176q-77 111 -186 111q-76 0 -134 -53t-90 -144t-32 -204q0 -121 49 -182t140 -61zM483 1804q28 22 65 18t59 -33q52 -66 103 -158t88 -173q14 -32 0.5 -68.5
t-45.5 -50.5t-68 -0.5t-50 45.5q-22 49 -52 105.5t-60.5 107t-55.5 82.5q-22 29 -17 66t33 59z" />
    <glyph glyph-name="aacute" unicode="&#xe1;" horiz-adv-x="1309" 
d="M1134 -126q-146 0 -234 101q-155 -131 -359 -131q-152 0 -271.5 75t-188 208.5t-68.5 306.5q0 151 46.5 284.5t129 235.5t192 160t236.5 58q128 0 237 -64q56 60 140 48q71 -10 119 -67.5t44 -125.5l-23 -468q-1 -28 -2.5 -68.5t-2 -77t0.5 -55.5q2 -28 13 -50.5
t48 -36.5q41 -15 78 -51t37 -111q0 -70 -50.5 -120.5t-121.5 -50.5zM546 186q103 0 168.5 83.5t75.5 270.5v3l9 176q-77 111 -186 111q-76 0 -134 -53t-90 -144t-32 -204q0 -121 49 -182t140 -61zM788 1803q29 -22 33 -59.5t-19 -65.5q-56 -70 -102 -137.5t-87 -156.5
q-14 -32 -50.5 -45.5t-68.5 0.5q-31 14 -44.5 50t0.5 69q47 104 102 182t111 148q23 29 60 33t65 -18z" />
    <glyph glyph-name="acircumflex" unicode="&#xe2;" horiz-adv-x="1309" 
d="M1134 -126q-146 0 -234 101q-155 -131 -359 -131q-152 0 -271.5 75t-188 208.5t-68.5 306.5q0 151 46.5 284.5t129 235.5t192 160t236.5 58q128 0 237 -64q56 60 140 48q71 -10 119 -67.5t44 -125.5l-23 -468q-1 -28 -2.5 -68.5t-2 -77t0.5 -55.5q2 -28 13 -50.5
t48 -36.5q41 -15 78 -51t37 -111q0 -70 -50.5 -120.5t-121.5 -50.5zM546 186q103 0 168.5 83.5t75.5 270.5v3l9 176q-77 111 -186 111q-76 0 -134 -53t-90 -144t-32 -204q0 -121 49 -182t140 -61zM410 1346q-30 19 -38.5 55t10.5 67l166 270q13 22 42 29.5t59 2t44 -24.5
l192 -241q22 -28 18.5 -65t-32.5 -60q-28 -22 -65 -17.5t-59 32.5l-115 142l-98 -162q-19 -30 -56 -38.5t-68 10.5z" />
    <glyph glyph-name="atilde" unicode="&#xe3;" horiz-adv-x="1309" 
d="M1134 -126q-146 0 -234 101q-155 -131 -359 -131q-152 0 -271.5 75t-188 208.5t-68.5 306.5q0 151 46.5 284.5t129 235.5t192 160t236.5 58q128 0 237 -64q56 60 140 48q71 -10 119 -67.5t44 -125.5l-23 -468q-1 -28 -2.5 -68.5t-2 -77t0.5 -55.5q2 -28 13 -50.5
t48 -36.5q41 -15 78 -51t37 -111q0 -70 -50.5 -120.5t-121.5 -50.5zM546 186q103 0 168.5 83.5t75.5 270.5v3l9 176q-77 111 -186 111q-76 0 -134 -53t-90 -144t-32 -204q0 -121 49 -182t140 -61zM266 1332q-48 16 -72 63.5t-9 93.5q19 54 55.5 106t92.5 86t135 34
q81 0 142 -31.5t109 -61.5q17 -9 28.5 -17t32.5 -8q37 0 52 19t16.5 36.5t-2.5 12.5q18 48 68 67t95 0q47 -19 66.5 -68.5t0.5 -94.5q-42 -94 -120 -159t-176 -65q-61 0 -113 20.5t-102 57.5q-21 17 -38.5 28.5t-43.5 11.5q-28 0 -42 -15.5t-17.5 -28.5t-0.5 -6
q-16 -48 -63 -72.5t-94 -8.5z" />
    <glyph glyph-name="adieresis" unicode="&#xe4;" horiz-adv-x="1309" 
d="M1134 -126q-146 0 -234 101q-155 -131 -359 -131q-152 0 -271.5 75t-188 208.5t-68.5 306.5q0 151 46.5 284.5t129 235.5t192 160t236.5 58q128 0 237 -64q56 60 140 48q71 -10 119 -67.5t44 -125.5l-23 -468q-1 -28 -2.5 -68.5t-2 -77t0.5 -55.5q2 -28 13 -50.5
t48 -36.5q41 -15 78 -51t37 -111q0 -70 -50.5 -120.5t-121.5 -50.5zM546 186q103 0 168.5 83.5t75.5 270.5v3l9 176q-77 111 -186 111q-76 0 -134 -53t-90 -144t-32 -204q0 -121 49 -182t140 -61zM939 1483q0 -61 -43 -98t-95 -37q-60 0 -99 42t-39 92q0 58 36 100.5
t92 42.5q61 0 104.5 -41.5t43.5 -100.5zM611 1499q0 -63 -44 -107t-107 -44q-59 0 -92 45.5t-33 93.5q0 57 40 97.5t97 40.5q50 0 94.5 -33.5t44.5 -92.5z" />
    <glyph glyph-name="aring" unicode="&#xe5;" horiz-adv-x="1309" 
d="M1134 -126q-146 0 -234 101q-155 -131 -359 -131q-152 0 -271.5 75t-188 208.5t-68.5 306.5q0 151 46.5 284.5t129 235.5t192 160t236.5 58q128 0 237 -64q56 60 140 48q71 -10 119 -67.5t44 -125.5l-23 -468q-1 -28 -2.5 -68.5t-2 -77t0.5 -55.5q2 -28 13 -50.5
t48 -36.5q41 -15 78 -51t37 -111q0 -70 -50.5 -120.5t-121.5 -50.5zM546 186q103 0 168.5 83.5t75.5 270.5v3l9 176q-77 111 -186 111q-76 0 -134 -53t-90 -144t-32 -204q0 -121 49 -182t140 -61zM1012 1623q0 -80 -43 -145.5t-113.5 -104t-152.5 -38.5q-75 0 -138.5 39
t-102 103t-38.5 139q0 81 41 151t108 113t144 43q83 0 149.5 -43t106 -111.5t39.5 -145.5zM816 1626q0 38 -29.5 69.5t-69.5 31.5q-34 0 -65.5 -32t-31.5 -73q0 -36 27.5 -63.5t61.5 -27.5q44 0 75.5 29.5t31.5 65.5z" />
    <glyph glyph-name="ae" unicode="&#xe6;" horiz-adv-x="1926" 
d="M1836 4q-107 -97 -229.5 -128.5t-236.5 -31.5q-125 0 -237 44.5t-191 135.5q-164 -180 -401 -180q-152 0 -271.5 75t-188 208.5t-68.5 306.5q0 151 51 284.5t139.5 235.5t202.5 160t241 58q140 0 262 -73q28 31 68.5 47t84.5 10q64 -9 106 -59q64 35 138 55t157 20
q66 0 137 -22t132.5 -67.5t99.5 -114.5t38 -163q0 -83 -28.5 -152t-71 -122.5t-85 -89t-70.5 -52.5q-92 -55 -186 -96.5t-193 -69.5q52 -37 134 -37q80 0 139.5 19.5t96.5 52.5q53 47 124 44t118 -56q47 -52 44 -123.5t-56 -118.5zM1453 830q-65 0 -126.5 -35t-107.5 -98
t-64 -147q154 38 271 108q71 42 91.5 70.5t20.5 47.5q0 54 -85 54zM546 186q72 0 125.5 40.5t87.5 128.5q3 40 24 75q13 51 21 113l24 176q-70 111 -185 111q-76 0 -141.5 -53t-105 -144t-39.5 -204q0 -121 49 -182t140 -61z" />
    <glyph glyph-name="ccedilla" unicode="&#xe7;" horiz-adv-x="1071" 
d="M1010 795q-46 -53 -117.5 -58.5t-124.5 40.5q-61 53 -132 53q-121 0 -200 -102t-79 -273q0 -130 62.5 -199.5t179.5 -69.5q50 0 121 11.5t129 28.5q68 20 130.5 -15t81.5 -103t-15.5 -129.5t-102.5 -81.5q-180 -53 -315 -53q-187 0 -325.5 77.5t-214 219.5t-75.5 335
q0 200 80 357.5t218.5 248t314.5 90.5q211 0 366 -135q53 -46 58.5 -117.5t-40.5 -124.5zM372 126q44 55 115 62t126 -37q39 -32 89 -81t96.5 -112t77 -139t30.5 -162q0 -88 -37 -148t-97.5 -96t-132.5 -51.5t-142 -15.5q-58 0 -110.5 7t-95.5 19q-67 19 -101.5 82
t-15.5 130q19 68 81.5 103.5t129.5 14.5q14 -4 45 -9t56 -5q23 0 47 5.5t24 23.5q0 16 -30 48.5t-68 66.5t-62 53q-55 44 -62 115t37 126z" />
    <glyph glyph-name="egrave" unicode="&#xe8;" horiz-adv-x="1191" 
d="M1101 4q-107 -97 -229.5 -128.5t-236.5 -31.5q-175 0 -319.5 87t-207.5 265q-35 21 -58 56t-26 79q-5 74 45 128q4 129 50.5 255.5t132 230t205.5 165.5t271 62q66 0 137 -22t132.5 -67.5t99.5 -114.5t38 -163q0 -83 -28.5 -152t-71 -122.5t-85 -89t-70.5 -52.5
q-92 -55 -186 -96.5t-193 -69.5q52 -37 134 -37q80 0 139.5 19.5t96.5 52.5q53 47 124 44t118 -56q47 -52 44 -123.5t-56 -118.5zM718 830q-65 0 -126.5 -35t-107.5 -98t-64 -147q154 38 271 108q71 42 91.5 70.5t20.5 47.5q0 54 -85 54zM470 1804q28 22 65 18t59 -33
q52 -66 103 -158t88 -173q14 -32 0.5 -68.5t-45.5 -50.5t-68 -0.5t-50 45.5q-22 49 -52 105.5t-60.5 107t-55.5 82.5q-22 29 -17 66t33 59z" />
    <glyph glyph-name="eacute" unicode="&#xe9;" horiz-adv-x="1191" 
d="M1101 4q-107 -97 -229.5 -128.5t-236.5 -31.5q-175 0 -319.5 87t-207.5 265q-35 21 -58 56t-26 79q-5 74 45 128q4 129 50.5 255.5t132 230t205.5 165.5t271 62q66 0 137 -22t132.5 -67.5t99.5 -114.5t38 -163q0 -83 -28.5 -152t-71 -122.5t-85 -89t-70.5 -52.5
q-92 -55 -186 -96.5t-193 -69.5q52 -37 134 -37q80 0 139.5 19.5t96.5 52.5q53 47 124 44t118 -56q47 -52 44 -123.5t-56 -118.5zM718 830q-65 0 -126.5 -35t-107.5 -98t-64 -147q154 38 271 108q71 42 91.5 70.5t20.5 47.5q0 54 -85 54zM775 1803q29 -22 33 -59.5
t-19 -65.5q-56 -70 -102 -137.5t-87 -156.5q-14 -32 -50.5 -45.5t-68.5 0.5q-31 14 -44.5 50t0.5 69q47 104 102 182t111 148q23 29 60 33t65 -18z" />
    <glyph glyph-name="ecircumflex" unicode="&#xea;" horiz-adv-x="1191" 
d="M1101 4q-107 -97 -229.5 -128.5t-236.5 -31.5q-175 0 -319.5 87t-207.5 265q-35 21 -58 56t-26 79q-5 74 45 128q4 129 50.5 255.5t132 230t205.5 165.5t271 62q66 0 137 -22t132.5 -67.5t99.5 -114.5t38 -163q0 -83 -28.5 -152t-71 -122.5t-85 -89t-70.5 -52.5
q-92 -55 -186 -96.5t-193 -69.5q52 -37 134 -37q80 0 139.5 19.5t96.5 52.5q53 47 124 44t118 -56q47 -52 44 -123.5t-56 -118.5zM718 830q-65 0 -126.5 -35t-107.5 -98t-64 -147q154 38 271 108q71 42 91.5 70.5t20.5 47.5q0 54 -85 54zM397 1346q-30 19 -38.5 55t10.5 67
l166 270q13 22 42 29.5t59 2t44 -24.5l192 -241q22 -28 18.5 -65t-32.5 -60q-28 -22 -65 -17.5t-59 32.5l-115 142l-98 -162q-19 -30 -56 -38.5t-68 10.5z" />
    <glyph glyph-name="edieresis" unicode="&#xeb;" horiz-adv-x="1191" 
d="M1101 4q-107 -97 -229.5 -128.5t-236.5 -31.5q-175 0 -319.5 87t-207.5 265q-35 21 -58 56t-26 79q-5 74 45 128q4 129 50.5 255.5t132 230t205.5 165.5t271 62q66 0 137 -22t132.5 -67.5t99.5 -114.5t38 -163q0 -83 -28.5 -152t-71 -122.5t-85 -89t-70.5 -52.5
q-92 -55 -186 -96.5t-193 -69.5q52 -37 134 -37q80 0 139.5 19.5t96.5 52.5q53 47 124 44t118 -56q47 -52 44 -123.5t-56 -118.5zM718 830q-65 0 -126.5 -35t-107.5 -98t-64 -147q154 38 271 108q71 42 91.5 70.5t20.5 47.5q0 54 -85 54zM926 1483q0 -61 -43 -98t-95 -37
q-60 0 -99 42t-39 92q0 58 36 100.5t92 42.5q61 0 104.5 -41.5t43.5 -100.5zM598 1499q0 -63 -44 -107t-107 -44q-59 0 -92 45.5t-33 93.5q0 57 40 97.5t97 40.5q50 0 94.5 -33.5t44.5 -92.5z" />
    <glyph glyph-name="igrave" unicode="&#xec;" horiz-adv-x="475" 
d="M253 1142q71 -3 118.5 -55.5t44.5 -123.5q-3 -68 -5.5 -166.5t-4 -210.5t-2.5 -223t-1.5 -206t-0.5 -157q0 -70 -50.5 -120.5t-121.5 -50.5q-70 0 -120.5 50.5t-50.5 120.5q0 64 0.5 159t1.5 206.5t3 225t4.5 214.5t5.5 174q3 71 56 118.5t123 44.5zM70 1804q28 22 65 18
t59 -33q52 -66 103 -158t88 -173q14 -32 0.5 -68.5t-45.5 -50.5t-68 -0.5t-50 45.5q-22 49 -52 105.5t-60.5 107t-55.5 82.5q-22 29 -17 66t33 59z" />
    <glyph glyph-name="iacute" unicode="&#xed;" horiz-adv-x="475" 
d="M253 1142q71 -3 118.5 -55.5t44.5 -123.5q-3 -68 -5.5 -166.5t-4 -210.5t-2.5 -223t-1.5 -206t-0.5 -157q0 -70 -50.5 -120.5t-121.5 -50.5q-70 0 -120.5 50.5t-50.5 120.5q0 64 0.5 159t1.5 206.5t3 225t4.5 214.5t5.5 174q3 71 56 118.5t123 44.5zM361 1803
q29 -22 33 -59.5t-19 -65.5q-56 -70 -102 -137.5t-87 -156.5q-14 -32 -50.5 -45.5t-68.5 0.5q-31 14 -44.5 50t0.5 69q47 104 102 182t111 148q23 29 60 33t65 -18z" />
    <glyph glyph-name="icircumflex" unicode="&#xee;" horiz-adv-x="475" 
d="M253 1142q71 -3 118.5 -55.5t44.5 -123.5q-3 -68 -5.5 -166.5t-4 -210.5t-2.5 -223t-1.5 -206t-0.5 -157q0 -70 -50.5 -120.5t-121.5 -50.5q-70 0 -120.5 50.5t-50.5 120.5q0 64 0.5 159t1.5 206.5t3 225t4.5 214.5t5.5 174q3 71 56 118.5t123 44.5zM-13 1346
q-30 19 -38.5 55t10.5 67l166 270q13 22 42 29.5t59 2t44 -24.5l192 -241q22 -28 18.5 -65t-32.5 -60q-28 -22 -65 -17.5t-59 32.5l-115 142l-98 -162q-19 -30 -56 -38.5t-68 10.5z" />
    <glyph glyph-name="idieresis" unicode="&#xef;" horiz-adv-x="475" 
d="M253 1142q71 -3 118.5 -55.5t44.5 -123.5q-3 -68 -5.5 -166.5t-4 -210.5t-2.5 -223t-1.5 -206t-0.5 -157q0 -70 -50.5 -120.5t-121.5 -50.5q-70 0 -120.5 50.5t-50.5 120.5q0 64 0.5 159t1.5 206.5t3 225t4.5 214.5t5.5 174q3 71 56 118.5t123 44.5zM519 1483
q0 -61 -43 -98t-95 -37q-60 0 -99 42t-39 92q0 58 36 100.5t92 42.5q61 0 104.5 -41.5t43.5 -100.5zM191 1499q0 -63 -44 -107t-107 -44q-59 0 -92 45.5t-33 93.5q0 57 40 97.5t97 40.5q50 0 94.5 -33.5t44.5 -92.5z" />
    <glyph glyph-name="eth" unicode="&#xf0;" horiz-adv-x="1099" 
d="M546 -156q-145 0 -250.5 50.5t-173.5 135t-101 188t-33 209.5q0 121 44.5 230.5t124.5 192.5q-18 9 -34 23q-52 47 -55.5 118.5t43.5 123.5q51 56 139 127q-21 9 -44 18q-65 26 -94.5 91t-4.5 130q26 65 91 95t130 4q67 -26 127.5 -56t114.5 -64q64 37 123 65t107 44
q67 21 130.5 -11t84.5 -99t-11 -131t-99 -85q-18 -6 -53 -24q99 -116 158 -240t84.5 -241t25.5 -213q0 -191 -67 -345.5t-195 -245t-312 -90.5zM558 1034q-7 -4 -13 -9q10 1 21 1zM332 427q0 -123 45 -182t169 -59q70 0 122 27t81 100.5t29 211.5q0 51 -11.5 115t-39.5 135
q-22 -41 -62.5 -67t-89.5 -26q-105 0 -174 -72t-69 -183z" />
    <glyph glyph-name="ntilde" unicode="&#xf1;" horiz-adv-x="1206" 
d="M59 24q20 214 29.5 362.5t9.5 260.5q0 94 -6 171.5t-19 156.5q-13 78 27 126t98 62q67 16 133 -16.5t80 -117.5q65 64 143 103t169 39q134 0 231 -64.5t149.5 -175.5t52.5 -250q0 -163 -1.5 -338t-10.5 -344q-4 -64 -49 -116t-127 -52q-84 0 -128.5 50.5t-40.5 116.5
q5 103 8 193t3 167q0 236 -30.5 353.5t-100.5 117.5q-65 0 -111.5 -64.5t-79.5 -170t-58 -229.5v-2q-6 -80 -13.5 -172t-17.5 -199q-7 -82 -66.5 -119t-124.5 -30q-62 6 -109 52t-40 129zM260 1311q-48 16 -72 63.5t-9 93.5q19 54 55.5 106t92.5 86t135 34q81 0 142 -31.5
t109 -61.5q17 -9 28.5 -17t32.5 -8q37 0 52 19t16.5 36.5t-2.5 12.5q18 48 68 67t95 0q47 -19 66.5 -68.5t0.5 -94.5q-42 -94 -120 -159t-176 -65q-61 0 -113 20.5t-102 57.5q-21 17 -38.5 28.5t-43.5 11.5q-28 0 -42 -15.5t-17.5 -28.5t-0.5 -6q-16 -48 -63 -72.5t-94 -8.5
z" />
    <glyph glyph-name="ograve" unicode="&#xf2;" horiz-adv-x="1159" 
d="M592 1172q142 0 246 -58.5t172 -153t101.5 -206t33.5 -216.5q0 -115 -36 -236.5t-108 -225.5t-181 -168t-255 -64q-135 0 -238.5 57t-173 151t-105 207.5t-35.5 226.5q0 114 34 234t104 223t180 166t261 63zM592 830q-97 0 -166 -91t-69 -253q0 -97 31.5 -164
t79.5 -101.5t97 -34.5q55 0 110 44.5t91.5 123.5t36.5 184q0 134 -63.5 213t-147.5 79zM453 1804q28 22 65 18t59 -33q52 -66 103 -158t88 -173q14 -32 0.5 -68.5t-45.5 -50.5t-68 -0.5t-50 45.5q-22 49 -52 105.5t-60.5 107t-55.5 82.5q-22 29 -17 66t33 59z" />
    <glyph glyph-name="oacute" unicode="&#xf3;" horiz-adv-x="1159" 
d="M592 1172q142 0 246 -58.5t172 -153t101.5 -206t33.5 -216.5q0 -115 -36 -236.5t-108 -225.5t-181 -168t-255 -64q-135 0 -238.5 57t-173 151t-105 207.5t-35.5 226.5q0 114 34 234t104 223t180 166t261 63zM592 830q-97 0 -166 -91t-69 -253q0 -97 31.5 -164
t79.5 -101.5t97 -34.5q55 0 110 44.5t91.5 123.5t36.5 184q0 134 -63.5 213t-147.5 79zM744 1803q29 -22 33 -59.5t-19 -65.5q-56 -70 -102 -137.5t-87 -156.5q-14 -32 -50.5 -45.5t-68.5 0.5q-31 14 -44.5 50t0.5 69q47 104 102 182t111 148q23 29 60 33t65 -18z" />
    <glyph glyph-name="ocircumflex" unicode="&#xf4;" horiz-adv-x="1159" 
d="M592 1172q142 0 246 -58.5t172 -153t101.5 -206t33.5 -216.5q0 -115 -36 -236.5t-108 -225.5t-181 -168t-255 -64q-135 0 -238.5 57t-173 151t-105 207.5t-35.5 226.5q0 114 34 234t104 223t180 166t261 63zM592 830q-97 0 -166 -91t-69 -253q0 -97 31.5 -164
t79.5 -101.5t97 -34.5q55 0 110 44.5t91.5 123.5t36.5 184q0 134 -63.5 213t-147.5 79zM371 1346q-30 19 -38.5 55t10.5 67l166 270q13 22 42 29.5t59 2t44 -24.5l192 -241q22 -28 18.5 -65t-32.5 -60q-28 -22 -65 -17.5t-59 32.5l-115 142l-98 -162q-19 -30 -56 -38.5
t-68 10.5z" />
    <glyph glyph-name="otilde" unicode="&#xf5;" horiz-adv-x="1159" 
d="M592 1172q142 0 246 -58.5t172 -153t101.5 -206t33.5 -216.5q0 -115 -36 -236.5t-108 -225.5t-181 -168t-255 -64q-135 0 -238.5 57t-173 151t-105 207.5t-35.5 226.5q0 114 34 234t104 223t180 166t261 63zM592 830q-97 0 -166 -91t-69 -253q0 -97 31.5 -164
t79.5 -101.5t97 -34.5q55 0 110 44.5t91.5 123.5t36.5 184q0 134 -63.5 213t-147.5 79zM232 1306q-48 16 -72 63.5t-9 93.5q19 54 55.5 106t92.5 86t135 34q81 0 142 -31.5t109 -61.5q17 -9 28.5 -17t32.5 -8q37 0 52 19t16.5 36.5t-2.5 12.5q18 48 68 67t95 0
q47 -19 66.5 -68.5t0.5 -94.5q-42 -94 -120 -159t-176 -65q-61 0 -113 20.5t-102 57.5q-21 17 -38.5 28.5t-43.5 11.5q-28 0 -42 -15.5t-17.5 -28.5t-0.5 -6q-16 -48 -63 -72.5t-94 -8.5z" />
    <glyph glyph-name="odieresis" unicode="&#xf6;" horiz-adv-x="1159" 
d="M592 1172q142 0 246 -58.5t172 -153t101.5 -206t33.5 -216.5q0 -115 -36 -236.5t-108 -225.5t-181 -168t-255 -64q-135 0 -238.5 57t-173 151t-105 207.5t-35.5 226.5q0 114 34 234t104 223t180 166t261 63zM592 830q-97 0 -166 -91t-69 -253q0 -97 31.5 -164
t79.5 -101.5t97 -34.5q55 0 110 44.5t91.5 123.5t36.5 184q0 134 -63.5 213t-147.5 79zM902 1483q0 -61 -43 -98t-95 -37q-60 0 -99 42t-39 92q0 58 36 100.5t92 42.5q61 0 104.5 -41.5t43.5 -100.5zM574 1499q0 -63 -44 -107t-107 -44q-59 0 -92 45.5t-33 93.5
q0 57 40 97.5t97 40.5q50 0 94.5 -33.5t44.5 -92.5z" />
    </font>
</defs>
</svg>
