<?xml version="1.0" standalone="no"?>
<!DOCTYPE svg PUBLIC "-//W3C//DTD SVG 1.1//EN" "http://www.w3.org/Graphics/SVG/1.1/DTD/svg11.dtd" >
<svg xmlns="http://www.w3.org/2000/svg" xmlns:xlink="http://www.w3.org/1999/xlink" version="1.1">
<metadata>
Created by FontForge 20170731 at Fri Apr 29 11:11:13 2022
 By Aleksey,,,
Copyright 2022 The Mikhak Project Authors (https://github.com/aminabedi68/Mikhak)
</metadata>
<defs>
<font id="Mikhak-SemiBold" horiz-adv-x="0" >
  <font-face 
    font-family="Mikhak SemiBold"
    font-weight="600"
    font-stretch="normal"
    units-per-em="2048"
    panose-1="0 0 0 0 0 0 0 0 0 0"
    ascent="1638"
    descent="-410"
    x-height="1028"
    cap-height="1474"
    bbox="-564 -1482.37 2565 2591.23"
    underline-thickness="120"
    underline-position="-780"
    unicode-range="U+0020-FEFF"
  />
<missing-glyph horiz-adv-x="1024" 
d="M102 -410v2048h820v-2048h-820zM204 -308h616v1844h-616v-1844z" />
    <glyph glyph-name="uni0622" unicode="&#x627;&#x653;" horiz-adv-x="522" 
d="M-92 1396q-25 24 -30.5 61.5t17.5 67.5q57 76 119 133t136 57q33 0 66 -9.5t61 -24.5q26 -13 53.5 -22t66.5 -9q56 0 96.5 24.5t74.5 62.5q27 28 66.5 27.5t67.5 -24.5q28 -25 31.5 -64.5t-22.5 -70.5q-58 -68 -134 -108t-165 -40q-49 0 -88 10.5t-83 26.5
q-22 9 -37.5 14t-31.5 5q-33 0 -60.5 -25.5t-61.5 -72.5q-25 -34 -66.5 -42.5t-75.5 23.5zM167 1131q-5 46 23.5 84t74.5 44t84 -22.5t44 -75.5q45 -336 45 -689q0 -115 -5 -234t-15 -246q-4 -46 -40 -77t-83 -27q-46 4 -77 40t-27 82q10 114 14.5 228.5t4.5 229.5
q0 173 -10.5 339.5t-32.5 323.5z" />
    <glyph glyph-name="uni0623" unicode="&#x627;&#x654;" horiz-adv-x="497" 
d="M17 1467q-8 20 2.5 42t32.5 30l124 43q-44 22 -70 63.5t-26 100.5q0 96 62 158.5t171 62.5q38 0 68 -5q23 -4 37.5 -21.5t12.5 -38.5q-2 -22 -20.5 -38.5t-41.5 -12.5q-20 4 -42 4q-67 0 -101.5 -33t-34.5 -83q0 -46 30 -70t82 -24q29 0 62 7t93 28q23 8 44.5 -4.5
t26.5 -35.5q5 -22 -5.5 -41.5t-29.5 -24.5l-405 -142q-22 -8 -43 2.5t-29 32.5zM113 1151q-6 46 23 84t75 44t83.5 -22.5t43.5 -75.5q18 -129 28 -228.5t14 -195t4 -214.5q0 -139 -5 -283t-16 -268q-4 -46 -40 -77t-83 -27q-46 4 -77 40t-27 82q11 124 16 266.5t5 277.5
q0 111 -4 197.5t-13.5 179t-26.5 220.5z" />
    <glyph glyph-name="uni0624" unicode="&#x648;&#x654;" horiz-adv-x="948" 
d="M152 951q-8 20 2.5 42t32.5 30l124 43q-44 22 -70 63.5t-26 100.5q0 96 62 158.5t171 62.5q38 0 68 -5q23 -4 37.5 -21.5t12.5 -38.5q-2 -22 -20.5 -38.5t-41.5 -12.5q-20 4 -42 4q-67 0 -101.5 -33t-34.5 -83q0 -46 30 -70t82 -24q29 0 62 7t93 28q23 8 44.5 -4.5
t26.5 -35.5q5 -22 -5.5 -41.5t-29.5 -24.5l-405 -142q-22 -8 -43 2.5t-29 32.5zM462 729q122 0 211.5 -78.5t139 -204.5t49.5 -271q0 -149 -53 -277.5t-146.5 -229.5t-214.5 -168.5t-258 -96.5q-46 -9 -85.5 18t-47.5 72q-9 47 18.5 84t71.5 50q160 43 272.5 124t169.5 191
q-59 -9 -112 -9q-183 0 -284.5 85.5t-101.5 259.5q0 120 49 222.5t133 165.5t189 63zM303 287q0 -79 45 -111.5t127 -32.5q40 0 79 6t74 15q8 2 15 2v1q0 74 -21.5 153.5t-62.5 134t-102 54.5q-44 0 -79 -33t-55 -83.5t-20 -105.5z" />
    <glyph glyph-name="uni0625" unicode="&#x627;&#x655;" horiz-adv-x="497" 
d="M-33 -777q-8 20 2.5 42t32.5 30l124 43q-44 22 -70 63.5t-26 100.5q0 96 62 158.5t171 62.5q38 0 68 -5q23 -4 37.5 -21.5t12.5 -38.5q-2 -22 -20.5 -38.5t-41.5 -12.5q-20 4 -42 4q-67 0 -101.5 -33t-34.5 -83q0 -46 30 -70t82 -24q29 0 62 7t93 28q23 8 44.5 -4.5
t26.5 -35.5q5 -22 -5.5 -41.5t-29.5 -24.5l-405 -142q-22 -8 -43 2.5t-29 32.5zM113 1151q-6 46 23 84t75 44t83.5 -22.5t43.5 -75.5q18 -129 28 -228.5t14 -195t4 -214.5q0 -139 -5 -283t-16 -268q-4 -46 -40 -77t-83 -27q-46 4 -77 40t-27 82q11 124 16 266.5t5 277.5
q0 111 -4 197.5t-13.5 179t-26.5 220.5z" />
    <glyph glyph-name="uni0626" unicode="&#x64a;&#x654;" horiz-adv-x="1454" 
d="M53 752q-8 20 2.5 42t32.5 30l124 43q-44 22 -70 63.5t-26 100.5q0 96 62 158.5t171 62.5q38 0 68 -5q23 -4 37.5 -21.5t12.5 -38.5q-2 -22 -20.5 -38.5t-41.5 -12.5q-20 4 -42 4q-67 0 -101.5 -33t-34.5 -83q0 -46 30 -70t82 -24q29 0 62 7t93 28q23 8 44.5 -4.5
t26.5 -35.5q5 -22 -5.5 -41.5t-29.5 -24.5l-405 -142q-22 -8 -43 2.5t-29 32.5zM76 0q0 76 11 153t33 172q11 45 51 70.5t85 14.5q45 -10 70.5 -50t14.5 -86q-18 -81 -27.5 -149.5t-9.5 -133.5q0 -173 100 -238t316 -65q209 0 328.5 55.5t119.5 136.5q0 53 -52.5 68
t-128.5 20q-65 4 -139.5 15.5t-141 43t-108.5 96t-42 175.5q0 98 38 187t105 159.5t153.5 111t182.5 40.5q62 0 113.5 -8.5t106.5 -28.5q43 -13 65.5 -55.5t8.5 -85.5q-13 -43 -52.5 -66t-82.5 -8q-36 14 -78 20.5t-80 6.5q-70 0 -128 -32.5t-93 -89t-35 -128.5
q0 -58 33.5 -87t88.5 -39.5t119 -16.5q62 -5 125.5 -17t117 -41t86.5 -84.5t33 -148.5t-54 -170.5t-147.5 -134.5t-214 -88.5t-253.5 -31.5q-307 0 -472.5 138t-165.5 400z" />
    <glyph glyph-name="uni06C2" unicode="&#x647;&#x654;" horiz-adv-x="920" 
d="M65 242q0 120 61.5 251.5t165.5 243.5l-12 10q-35 30 -38.5 77.5t26.5 82.5q31 35 78.5 39t82.5 -27q117 -100 209.5 -212t146 -226.5t53.5 -223.5q0 -116 -52.5 -195t-140.5 -119.5t-197 -40.5q-106 0 -193 39.5t-138.5 115t-51.5 185.5zM294 256q0 -55 38 -91.5
t116 -36.5q84 0 123.5 37t39.5 98q0 57 -41 138t-118 174q-76 -84 -117 -172t-41 -147zM622 1791q-2 -25 -20.5 -40.5t-43.5 -12.5q-10 2 -20.5 2h-21.5q-80 0 -131 -33t-51 -80q0 -32 32 -47.5t78 -28.5q42 -11 87 -28.5t76 -53.5t31 -101q0 -92 -86.5 -147t-214.5 -55
q-29 0 -54.5 1.5t-48.5 3.5q-25 2 -40.5 21.5t-12.5 44.5q4 26 23 41.5t44 12.5q22 -2 45 -4t47 -2q67 0 122 19.5t55 60.5q0 27 -29 41.5t-73 27.5q-42 12 -88.5 31.5t-79.5 57t-33 103.5q0 65 40.5 117.5t109 84t152.5 31.5q22 0 53 -3q25 -2 40 -20.5t13 -44.5z" />
    <glyph glyph-name="uniFB00" unicode="ff" horiz-adv-x="1426" 
d="M669 962q98 0 196 -4q4 101 9.5 192.5t12.5 168.5q5 57 19.5 126.5t44 132.5t79.5 103.5t126 40.5q57 0 101 -27.5t76 -64.5q28 -32 26 -78t-25 -72q-26 -30 -49.5 -34.5t-48.5 1.5q-29 22 -51 22q-25 0 -45 -43.5t-27 -126.5q-6 -74 -11.5 -164t-9.5 -190q87 -6 173 -16
q46 -6 75.5 -43t24.5 -83t-42.5 -75.5t-84.5 -24.5q-75 9 -154 15q-5 -196 -7.5 -387.5t-2.5 -334.5q0 -46 -33.5 -79.5t-80.5 -33.5t-80 33t-33 80q0 146 2 340.5t8 394.5q-92 3 -188 3q-101 0 -196 -3q-6 -198 -8.5 -393.5t-2.5 -341.5q0 -46 -33.5 -79.5t-80.5 -33.5
q-46 0 -79.5 33t-33.5 80q0 144 2 335.5t8 389.5q-26 -2 -51 -4q-46 -3 -82 27.5t-40 77.5q-3 47 28 82.5t77 38.5q38 3 75 5q5 103 10.5 197.5t12.5 173.5q5 57 19.5 126.5t44 132.5t79.5 103.5t126 40.5q57 0 101.5 -27.5t75.5 -64.5q29 -32 26.5 -78t-25.5 -72
q-26 -30 -49.5 -34.5t-47.5 1.5q-31 22 -52 22q-57 0 -72 -170q-6 -72 -11 -158.5t-9 -181.5q96 3 188 3z" />
    <glyph glyph-name="uniFB05" unicode="ft" horiz-adv-x="1365" 
d="M676 962q81 0 160 -2q6 67 13 134.5t15 134.5q6 47 43 76t83 24q47 -6 76 -43t24 -83l-14 -128t-13 -128q73 -6 142 -14q46 -6 75 -43.5t23 -83.5t-43.5 -75t-83.5 -24q-63 8 -132 14q-6 -91 -9.5 -182.5t-3.5 -183.5q0 -56 5 -108.5t22.5 -85.5t54.5 -33q24 0 54 6
q46 8 85 -19t47 -72q8 -46 -18.5 -85.5t-72.5 -47.5q-25 -4 -49 -6t-46 -2q-104 0 -165.5 47.5t-92.5 120t-40.5 149.5t-9.5 136q0 96 3.5 190t9.5 187q-68 2 -142 2q-101 0 -203 -3q-6 -199 -8.5 -394t-2.5 -341q0 -46 -33.5 -79.5t-80.5 -33.5q-46 0 -79.5 33.5
t-33.5 79.5q0 144 2 335.5t8 388.5q-26 -1 -52 -3q-47 -3 -82.5 28t-38.5 77q-3 47 28 82.5t77 38.5q38 3 75 5q5 103 10.5 197.5t12.5 173.5q5 57 19.5 126.5t44 132.5t79.5 103.5t126 40.5q57 0 101.5 -27.5t75.5 -64.5q29 -32 26.5 -78t-25.5 -72q-26 -30 -49.5 -34.5
t-47.5 1.5q-31 22 -52 22q-57 0 -72 -170q-6 -72 -11 -158.5t-9 -181.5q48 1 97 2t98 1z" />
    <glyph glyph-name="uniFBA5" unicode="&#xfeea;&#x654;" horiz-adv-x="1100" arabic-form="final" 
d="M105 372q0 136 91 239.5t238 175.5q59 29 111.5 62t68.5 66v5q-4 46 26.5 82.5t76.5 40.5q47 5 83 -25.5t40 -77.5l2 -19q1 -6 1 -12l47 -523q9 -100 32 -148.5t66 -64t111 -15.5h1q47 0 80 -33t33 -80q0 -46 -33 -79.5t-80 -33.5h-1q-137 0 -224 41.5t-136 122.5
q-28 -29 -67 -35q-28 -4 -60 -5.5t-55 -1.5q-222 0 -337 86.5t-115 231.5zM334 385q0 -105 223 -105q16 0 38.5 2t44.5 5q17 2 34 -1q-6 37 -10 80l-25 274q-47 -29 -108 -60q-83 -43 -140 -90.5t-57 -104.5zM692 1821q-2 -25 -20.5 -40.5t-43.5 -12.5q-10 2 -20.5 2h-21.5
q-80 0 -131 -33t-51 -80q0 -32 32 -47.5t78 -28.5q42 -11 87 -28.5t76 -53.5t31 -101q0 -92 -86.5 -147t-214.5 -55q-29 0 -54.5 1.5t-48.5 3.5q-25 2 -40.5 21.5t-12.5 44.5q4 26 23 41.5t44 12.5q22 -2 45 -4t47 -2q67 0 122 19.5t55 60.5q0 27 -29 41.5t-73 27.5
q-42 12 -88.5 31.5t-79.5 57t-33 103.5q0 65 40.5 117.5t109 84t152.5 31.5q22 0 53 -3q25 -2 40 -20.5t13 -44.5z" />
    <glyph glyph-name="uniFE71" unicode="&#x640;&#x64b;" horiz-adv-x="668" arabic-form="medial" 
d="M-114 45q0 47 34 80t80 33h668q47 0 80.5 -33t33.5 -80q0 -46 -33.5 -79.5t-80.5 -33.5h-668q-46 0 -80 33.5t-34 79.5zM80 994q-8 22 3 43t32 29l405 144q21 8 42.5 -3.5t29.5 -32.5t-3 -42t-32 -29l-406 -144q-21 -8 -42 3t-29 32zM80 1252q-8 22 3 43t32 29l405 144
q21 8 42.5 -3.5t29.5 -32.5t-3 -42t-32 -29l-406 -144q-21 -8 -42 3t-29 32z" />
    <glyph glyph-name="uniFE77" unicode="&#x640;&#x64e;" horiz-adv-x="668" arabic-form="medial" 
d="M80 1044q-8 22 3 43t32 29l405 144q21 8 42.5 -3.5t29.5 -32.5t-3 -42t-32 -29l-406 -144q-21 -8 -42 3t-29 32zM-114 45q0 47 34 80t80 33h668q47 0 80.5 -33t33.5 -80q0 -46 -33.5 -79.5t-80.5 -33.5h-668q-46 0 -80 33.5t-34 79.5z" />
    <glyph glyph-name="uniFE79" unicode="&#x640;&#x64f;" horiz-adv-x="668" arabic-form="medial" 
d="M88 955q-6 20 2 42t33 29q98 24 176 77q-123 56 -123 163q0 55 27 103t70 78t92 30q65 0 111.5 -57.5t46.5 -136.5q0 -62 -32 -123q20 -4 44 -8q27 -5 37 -25.5t7 -39.5q-4 -22 -21 -34.5t-45 -8.5q-53 10 -96 20q-105 -103 -263 -143q-29 -8 -45 3.5t-21 30.5zM274 1268
q0 -50 110 -83q35 49 35 98q0 84 -60 84q-34 0 -59.5 -32t-25.5 -67zM-114 45q0 47 34 80t80 33h668q47 0 80.5 -33t33.5 -80q0 -46 -33.5 -79.5t-80.5 -33.5h-668q-46 0 -80 33.5t-34 79.5z" />
    <glyph glyph-name="uniFE7B" unicode="&#x640;&#x650;" horiz-adv-x="668" arabic-form="medial" 
d="M80 -547q-8 22 3 43t32 29l405 144q21 8 42.5 -3.5t29.5 -32.5t-3 -42t-32 -29l-406 -144q-21 -8 -42 3t-29 32zM-114 45q0 47 34 80t80 33h668q47 0 80.5 -33t33.5 -80q0 -46 -33.5 -79.5t-80.5 -33.5h-668q-46 0 -80 33.5t-34 79.5z" />
    <glyph glyph-name="uniFE7D" unicode="&#x640;&#x651;" horiz-adv-x="668" arabic-form="medial" 
d="M16 1353q0 35 12 81.5t40 97.5q11 20 33 27t43 -4q20 -10 27 -32.5t-3 -44.5q-39 -70 -39 -113q0 -47 43 -47q29 0 49.5 31t23.5 92q1 20 15 35.5t34 18.5q23 4 42.5 -12.5t20.5 -40.5q7 -126 63 -126q49 0 49 68q0 29 -7 67.5t-17 72.5q-4 22 7.5 42t33.5 25q23 5 43 -7
t25 -34q11 -39 19 -83t8 -87q0 -85 -43 -130.5t-109 -45.5q-48 0 -81.5 28.5t-47.5 75.5q-14 -46 -52.5 -75t-85.5 -29q-62 0 -104 36.5t-42 112.5zM-114 45q0 47 34 80t80 33h668q47 0 80.5 -33t33.5 -80q0 -46 -33.5 -79.5t-80.5 -33.5h-668q-46 0 -80 33.5t-34 79.5z" />
    <glyph glyph-name="uniFE7F" unicode="&#x640;&#x652;" horiz-adv-x="668" arabic-form="medial" 
d="M133 1250q0 88 58 149.5t137 61.5q88 0 140.5 -60t52.5 -133q0 -89 -56.5 -150t-137.5 -61q-85 0 -139.5 59.5t-54.5 133.5zM245 1250q0 -29 24 -55t58 -26q30 0 56 25t26 74q0 31 -21.5 56t-59.5 25q-28 0 -55.5 -26.5t-27.5 -72.5zM-114 45q0 47 34 80t80 33h668
q47 0 80.5 -33t33.5 -80q0 -46 -33.5 -79.5t-80.5 -33.5h-668q-46 0 -80 33.5t-34 79.5z" />
    <glyph glyph-name="uniFEF5" unicode="&#xfedf;&#xfe82;" horiz-adv-x="1272" arabic-form="isolated" 
d="M71 1558q33 58 88 98.5t126 40.5q40 0 73 -15.5t62 -32.5q24 -13 46 -22.5t44 -9.5q57 0 102 96q10 21 32 28.5t43 -2.5t28.5 -32.5t-3.5 -43.5q-26 -54 -74 -107t-128 -53q-37 0 -69 15t-60 31q-25 14 -48.5 25t-47.5 11q-68 0 -116 -83q-12 -19 -34.5 -25.5t-42.5 4.5
q-19 12 -25.5 34.5t4.5 42.5zM72 72q5 47 41.5 77.5t82.5 25.5q71 -7 130 -11.5t116 -4.5q246 0 375 75.5t129 236.5q0 116 -5 244t-14.5 254t-23.5 234q-6 46 22.5 83.5t74.5 43.5q47 6 84.5 -23t43.5 -75q23 -176 34.5 -377.5t11.5 -383.5q0 -256 -199 -395.5t-564 -139.5
q-109 0 -235 13q-47 5 -77.5 41t-26.5 82zM200 1157q-16 44 4.5 86.5t63.5 58.5q44 17 86.5 -3.5t58.5 -64.5q46 -122 76.5 -231t49 -221t26.5 -244q4 -47 -26.5 -83t-77.5 -40t-82.5 26.5t-39.5 77.5q-7 121 -24 224t-45 203t-70 211z" />
    <glyph glyph-name="uniFEF6" unicode="&#xfee0;&#xfe82;" horiz-adv-x="1441" arabic-form="final" 
d="M71 1558q33 58 88 98.5t126 40.5q40 0 73 -15.5t62 -32.5q24 -13 46 -22.5t44 -9.5q57 0 102 96q10 21 32 28.5t43 -2.5t28.5 -32.5t-3.5 -43.5q-26 -54 -74 -107t-128 -53q-37 0 -69 15t-60 31q-25 14 -48.5 25t-47.5 11q-68 0 -116 -83q-12 -19 -34.5 -25.5t-42.5 4.5
q-19 12 -25.5 34.5t4.5 42.5zM903 1203q-6 46 22.5 83.5t74.5 43.5q47 6 84.5 -23t43.5 -75q23 -176 34.5 -377.5t11.5 -383.5q0 -313 266 -313h1q47 0 80 -33t33 -80q0 -46 -33 -79.5t-80 -33.5h-1q-124 0 -227.5 52t-170.5 148q-195 -196 -631 -196q-109 0 -235 13
q-47 5 -77.5 41t-26.5 82q5 47 41.5 77.5t82.5 25.5q71 -7 130 -11.5t116 -4.5q246 0 375 75.5t129 236.5q0 116 -5 244t-14.5 254t-23.5 234zM200 1157q-16 44 4.5 86.5t63.5 58.5q44 17 86.5 -3.5t58.5 -64.5q46 -122 76.5 -231t49 -221t26.5 -244q4 -47 -26.5 -83
t-77.5 -40t-82.5 26.5t-39.5 77.5q-7 121 -24 224t-45 203t-70 211z" />
    <glyph glyph-name="uniFEF7" unicode="&#xfedf;&#xfe84;" horiz-adv-x="1272" arabic-form="isolated" 
d="M67 1443q-8 20 2.5 42t32.5 30l124 43q-44 22 -70 63.5t-26 100.5q0 96 62 158.5t171 62.5q38 0 68 -5q23 -4 37.5 -21.5t12.5 -38.5q-2 -22 -20.5 -38.5t-41.5 -12.5q-20 4 -42 4q-67 0 -101.5 -33t-34.5 -83q0 -46 30 -70t82 -24q29 0 62 7t93 28q23 8 44.5 -4.5
t26.5 -35.5q5 -22 -5.5 -41.5t-29.5 -24.5l-405 -142q-22 -8 -43 2.5t-29 32.5zM72 72q5 47 41.5 77.5t82.5 25.5q71 -7 130 -11.5t116 -4.5q246 0 375 75.5t129 236.5q0 116 -5 244t-14.5 254t-23.5 234q-6 46 22.5 83.5t74.5 43.5q47 6 84.5 -23t43.5 -75
q23 -176 34.5 -377.5t11.5 -383.5q0 -256 -199 -395.5t-564 -139.5q-109 0 -235 13q-47 5 -77.5 41t-26.5 82zM200 1157q-16 44 4.5 86.5t63.5 58.5q44 17 86.5 -3.5t58.5 -64.5q46 -122 76.5 -231t49 -221t26.5 -244q4 -47 -26.5 -83t-77.5 -40t-82.5 26.5t-39.5 77.5
q-7 121 -24 224t-45 203t-70 211z" />
    <glyph glyph-name="uniFEF8" unicode="&#xfee0;&#xfe84;" horiz-adv-x="1441" arabic-form="final" 
d="M67 1443q-8 20 2.5 42t32.5 30l124 43q-44 22 -70 63.5t-26 100.5q0 96 62 158.5t171 62.5q38 0 68 -5q23 -4 37.5 -21.5t12.5 -38.5q-2 -22 -20.5 -38.5t-41.5 -12.5q-20 4 -42 4q-67 0 -101.5 -33t-34.5 -83q0 -46 30 -70t82 -24q29 0 62 7t93 28q23 8 44.5 -4.5
t26.5 -35.5q5 -22 -5.5 -41.5t-29.5 -24.5l-405 -142q-22 -8 -43 2.5t-29 32.5zM903 1203q-6 46 22.5 83.5t74.5 43.5q47 6 84.5 -23t43.5 -75q23 -176 34.5 -377.5t11.5 -383.5q0 -313 266 -313h1q47 0 80 -33t33 -80q0 -46 -33 -79.5t-80 -33.5h-1q-124 0 -227.5 52
t-170.5 148q-195 -196 -631 -196q-109 0 -235 13q-47 5 -77.5 41t-26.5 82q5 47 41.5 77.5t82.5 25.5q71 -7 130 -11.5t116 -4.5q246 0 375 75.5t129 236.5q0 116 -5 244t-14.5 254t-23.5 234zM200 1157q-16 44 4.5 86.5t63.5 58.5q44 17 86.5 -3.5t58.5 -64.5
q46 -122 76.5 -231t49 -221t26.5 -244q4 -47 -26.5 -83t-77.5 -40t-82.5 26.5t-39.5 77.5q-7 121 -24 224t-45 203t-70 211z" />
    <glyph glyph-name="uniFEF9" unicode="&#xfedf;&#xfe88;" horiz-adv-x="1272" arabic-form="isolated" 
d="M67 -731q-8 20 2.5 42t32.5 30l124 43q-44 22 -70 63.5t-26 100.5q0 96 62 158.5t171 62.5q38 0 68 -5q23 -4 37.5 -21.5t12.5 -38.5q-2 -22 -20.5 -38.5t-41.5 -12.5q-20 4 -42 4q-67 0 -101.5 -33t-34.5 -83q0 -46 30 -70t82 -24q29 0 62 7t93 28q23 8 44.5 -4.5
t26.5 -35.5q5 -22 -5.5 -41.5t-29.5 -24.5l-405 -142q-22 -8 -43 2.5t-29 32.5zM72 72q5 47 41.5 77.5t82.5 25.5q71 -7 130 -11.5t116 -4.5q246 0 375 75.5t129 236.5q0 116 -5 244t-14.5 254t-23.5 234q-6 46 22.5 83.5t74.5 43.5q47 6 84.5 -23t43.5 -75
q23 -176 34.5 -377.5t11.5 -383.5q0 -256 -199 -395.5t-564 -139.5q-109 0 -235 13q-47 5 -77.5 41t-26.5 82zM200 1157q-16 44 4.5 86.5t63.5 58.5q44 17 86.5 -3.5t58.5 -64.5q46 -122 76.5 -231t49 -221t26.5 -244q4 -47 -26.5 -83t-77.5 -40t-82.5 26.5t-39.5 77.5
q-7 121 -24 224t-45 203t-70 211z" />
    <glyph glyph-name="uniFEFA" unicode="&#xfee0;&#xfe88;" horiz-adv-x="1441" arabic-form="final" 
d="M67 -731q-8 20 2.5 42t32.5 30l124 43q-44 22 -70 63.5t-26 100.5q0 96 62 158.5t171 62.5q38 0 68 -5q23 -4 37.5 -21.5t12.5 -38.5q-2 -22 -20.5 -38.5t-41.5 -12.5q-20 4 -42 4q-67 0 -101.5 -33t-34.5 -83q0 -46 30 -70t82 -24q29 0 62 7t93 28q23 8 44.5 -4.5
t26.5 -35.5q5 -22 -5.5 -41.5t-29.5 -24.5l-405 -142q-22 -8 -43 2.5t-29 32.5zM903 1203q-6 46 22.5 83.5t74.5 43.5q47 6 84.5 -23t43.5 -75q23 -176 34.5 -377.5t11.5 -383.5q0 -313 266 -313h1q47 0 80 -33t33 -80q0 -46 -33 -79.5t-80 -33.5h-1q-124 0 -227.5 52
t-170.5 148q-195 -196 -631 -196q-109 0 -235 13q-47 5 -77.5 41t-26.5 82q5 47 41.5 77.5t82.5 25.5q71 -7 130 -11.5t116 -4.5q246 0 375 75.5t129 236.5q0 116 -5 244t-14.5 254t-23.5 234zM200 1157q-16 44 4.5 86.5t63.5 58.5q44 17 86.5 -3.5t58.5 -64.5
q46 -122 76.5 -231t49 -221t26.5 -244q4 -47 -26.5 -83t-77.5 -40t-82.5 26.5t-39.5 77.5q-7 121 -24 224t-45 203t-70 211z" />
    <glyph glyph-name="uniFEFB" unicode="&#xfedf;&#xfe8e;" horiz-adv-x="1272" arabic-form="isolated" 
d="M72 72q5 47 41.5 77.5t82.5 25.5q71 -7 130 -11.5t116 -4.5q246 0 375 75.5t129 236.5q0 116 -5 244t-14.5 254t-23.5 234q-6 46 22.5 83.5t74.5 43.5q47 6 84.5 -23t43.5 -75q23 -176 34.5 -377.5t11.5 -383.5q0 -256 -199 -395.5t-564 -139.5q-109 0 -235 13
q-47 5 -77.5 41t-26.5 82zM200 1157q-16 44 4.5 86.5t63.5 58.5q44 17 86.5 -3.5t58.5 -64.5q46 -122 76.5 -231t49 -221t26.5 -244q4 -47 -26.5 -83t-77.5 -40t-82.5 26.5t-39.5 77.5q-7 121 -24 224t-45 203t-70 211z" />
    <glyph glyph-name="uniFEFC" unicode="&#xfee0;&#xfe8e;" horiz-adv-x="1441" arabic-form="final" 
d="M903 1203q-6 46 22.5 83.5t74.5 43.5q47 6 84.5 -23t43.5 -75q23 -176 34.5 -377.5t11.5 -383.5q0 -313 266 -313h1q47 0 80 -33t33 -80q0 -46 -33 -79.5t-80 -33.5h-1q-124 0 -227.5 52t-170.5 148q-195 -196 -631 -196q-109 0 -235 13q-47 5 -77.5 41t-26.5 82
q5 47 41.5 77.5t82.5 25.5q71 -7 130 -11.5t116 -4.5q246 0 375 75.5t129 236.5q0 116 -5 244t-14.5 254t-23.5 234zM200 1157q-16 44 4.5 86.5t63.5 58.5q44 17 86.5 -3.5t58.5 -64.5q46 -122 76.5 -231t49 -221t26.5 -244q4 -47 -26.5 -83t-77.5 -40t-82.5 26.5
t-39.5 77.5q-7 121 -24 224t-45 203t-70 211z" />
    <glyph glyph-name="uni0695.fina" unicode="&#x695;" horiz-adv-x="947" 
d="M623 -740q21 -13 27 -38.5t-7 -47.5l-166 -269q-14 -24 -50 -24t-52 19l-192 241q-15 19 -12 45t22 42q20 16 46 13t41 -23l138 -172l119 194q13 21 39 27t47 -7zM431 458q-15 44 12 85t73 52q16 4 31 3q38 -2 65.5 -25t37.5 -54q2 -4 3 -9q47 -181 108 -266.5t185 -85.5
h1q47 0 80 -33t33 -80q0 -46 -33 -79.5t-80 -33.5h-1q-74 0 -136 22.5t-113 61.5q-30 -238 -165 -391.5t-335 -220.5q-51 -17 -92 8t-53 65q-16 53 9 91.5t62 51.5q166 56 260.5 182.5t94.5 337.5q0 136 -41 298z" />
    <glyph glyph-name="uni06A4.init" unicode="&#x6a4;" horiz-adv-x="924" arabic-form="initial" 
d="M99 1578q0 89 40.5 148t104.5 88.5t135.5 29.5t135.5 -29t104.5 -87.5t40.5 -146.5q0 -35 -6.5 -68t-21.5 -61q-16 -34 -49.5 -51.5t-72.5 4.5q-30 18 -37.5 48t5.5 63q16 30 16 65q0 49 -34.5 73.5t-80 24t-80 -25.5t-34.5 -75q0 -43 20.5 -73t63.5 -72
q23 -24 17.5 -57.5t-29.5 -54.5q-26 -24 -60.5 -18t-59.5 30q-46 44 -82 97.5t-36 147.5zM-113 45q0 47 33.5 80t79.5 33q190 0 311 9t185 40q58 22 89.5 53t43.5 85q-98 -21 -185 -21q-180 0 -277 78.5t-97 250.5q0 134 46 241.5t127 170.5t186 63q135 0 229.5 -89.5
t144 -246t49.5 -357.5q0 -147 -47.5 -237.5t-155.5 -147.5q-97 -65 -261.5 -91.5t-387.5 -26.5q-46 0 -79.5 33.5t-33.5 79.5zM275 680q0 -79 44.5 -113.5t125.5 -34.5q41 0 85 8t81 18q10 3 20 3q-14 164 -64.5 251.5t-132.5 87.5q-71 0 -115 -64.5t-44 -155.5z" />
    <glyph glyph-name="uni06A4.medi" unicode="&#x6a4;" horiz-adv-x="944" arabic-form="medial" 
d="M164 1322q0 89 40.5 148t104.5 88.5t135.5 29.5t135.5 -29t104.5 -87.5t40.5 -146.5q0 -35 -6.5 -68t-21.5 -61q-16 -34 -49.5 -51.5t-72.5 4.5q-30 18 -37.5 48t5.5 63q16 30 16 65q0 49 -34.5 73.5t-80 24t-80 -25.5t-34.5 -75q0 -43 20.5 -73t63.5 -72
q23 -24 17.5 -57.5t-29.5 -54.5q-26 -24 -60.5 -18t-59.5 30q-46 44 -82 97.5t-36 147.5zM-113 45q0 47 33.5 80t79.5 33q128 0 234 16q-72 66 -113 145.5t-41 169.5q0 117 51.5 212t141.5 151.5t203 56.5q114 0 201.5 -57t137 -152.5t49.5 -212.5q0 -89 -41.5 -168.5
t-113.5 -144.5q105 -16 234 -16h1q47 0 80 -33t33 -80q0 -46 -33 -79.5t-80 -33.5h-1q-125 0 -246 24.5t-226 69.5q-106 -45 -226.5 -69.5t-244.5 -24.5q-46 0 -79.5 33.5t-33.5 79.5zM307 489q0 -82 43 -143t121 -102q79 41 122.5 101.5t43.5 141.5q0 83 -42.5 138
t-118.5 55t-122.5 -54.5t-46.5 -136.5z" />
    <glyph glyph-name="uni06A4.fina" unicode="&#x6a4;" horiz-adv-x="1857" arabic-form="final" 
d="M1109 1322q0 89 40.5 148t104.5 88.5t135.5 29.5t135.5 -29t104.5 -87.5t40.5 -146.5q0 -35 -6.5 -68t-21.5 -61q-16 -34 -49.5 -51.5t-72.5 4.5q-30 18 -37.5 48t5.5 63q16 30 16 65q0 49 -34.5 73.5t-80 24t-80 -25.5t-34.5 -75q0 -43 20.5 -73t63.5 -72
q23 -24 17.5 -57.5t-29.5 -54.5q-26 -24 -60.5 -18t-59.5 30q-46 44 -82 97.5t-36 147.5zM65 362q0 65 12.5 135t43.5 137q20 42 65 57t87 -6q86 -42 52 -153q-10 -26 -20.5 -79t-10.5 -91q0 -132 115.5 -183t383.5 -51q108 0 203 7t176 22q-74 66 -116.5 147.5t-42.5 174.5
q0 119 50.5 214.5t138.5 151.5t199 56q115 0 202 -55.5t136 -150.5t49 -212q0 -91 -38 -169.5t-106 -143.5q95 -12 212 -12h1q47 0 80 -33t33 -80q0 -46 -33 -79.5t-80 -33.5h-1q-121 0 -236 22t-216 63q-264 -115 -611 -115q-91 0 -191.5 7t-195.5 30.5t-172 73.5
t-123 134.5t-46 214.5zM1240 479q0 -85 42.5 -145.5t121.5 -99.5q76 42 116.5 104t40.5 145q0 85 -41 137t-119 52q-73 0 -117 -53.5t-44 -139.5z" />
    <glyph glyph-name="uni06AA.init" unicode="&#x6aa;" horiz-adv-x="1059" 
d="M0 158q83 0 184 2t200.5 8t183 19t134 35t50.5 56q0 41 -68 79.5t-175.5 73.5t-230 64.5t-232.5 51.5q-45 9 -69 46.5t-18.5 82.5t48.5 78l603 453q39 29 84.5 21.5t71.5 -41.5q31 -40 22.5 -87t-43.5 -73l-416 -314q96 -24 209 -57.5t214.5 -83t166.5 -121t65 -172.5
t-66 -166t-174.5 -102t-239 -54t-262.5 -21t-242 -4q-46 0 -79.5 33.5t-33.5 79.5q0 47 33.5 80t79.5 33z" />
    <glyph glyph-name="uni06AA.medi" unicode="&#x6aa;" horiz-adv-x="1266" 
d="M0 158q83 0 184 2t200.5 8t183 19t134 35t50.5 56q0 41 -68 79.5t-175.5 73.5t-230 64.5t-232.5 51.5q-45 9 -69 46.5t-18.5 82.5t48.5 78l603 453q39 29 84.5 21.5t71.5 -41.5q31 -40 22.5 -87t-43.5 -73l-416 -314q87 -22 189 -51.5t197.5 -71.5t165.5 -101t93 -140
q48 -99 117.5 -145t173.5 -46h1q48 0 80.5 -32.5t32.5 -80.5t-32.5 -80.5t-80.5 -32.5h-1q-119 0 -212.5 39.5t-165.5 114.5q-70 -56 -177.5 -87.5t-232 -45.5t-249 -17.5t-228.5 -3.5q-46 0 -79.5 33.5t-33.5 79.5q0 47 33.5 80t79.5 33z" />
    <glyph glyph-name="uni06AA.fina" unicode="&#x6aa;" horiz-adv-x="1941" 
d="M999 713q88 -22 190.5 -52t198 -72t165.5 -101.5t92 -141.5q49 -98 120.5 -143t174.5 -45h1q48 0 80.5 -32.5t32.5 -80.5t-32.5 -80.5t-80.5 -32.5h-1q-115 0 -207.5 37t-163.5 107q-62 -59 -155.5 -94t-205 -53t-226.5 -23.5t-219 -5.5q-169 0 -327 14.5t-267 40.5
q-51 12 -72.5 50t-11.5 87q10 44 49.5 68.5t94.5 11.5q89 -20 237.5 -32.5t303.5 -12.5q104 0 217.5 7t212.5 23.5t160.5 46t61.5 74.5q0 41 -68 79.5t-176 73.5t-230.5 64.5t-232.5 51.5q-45 9 -69 46.5t-18 82.5t49 78l603 453q39 29 84.5 21.5t71.5 -41.5q31 -40 22 -87
t-43 -73z" />
    <glyph glyph-name="uni06B5.init" unicode="&#x6b5;" horiz-adv-x="494" 
d="M436 1934q21 -13 27 -38.5t-7 -47.5l-166 -269q-14 -24 -50 -24t-52 19l-192 241q-15 19 -12 45t22 42q20 16 46 13t41 -23l138 -172l119 194q13 21 39 27t47 -7zM-113 45q0 47 33.5 80t79.5 33q104 0 144.5 88.5t40.5 263.5q0 94 -5 188t-16.5 212.5t-31.5 285.5
q-5 46 23.5 84t74.5 44t84 -22.5t44 -75.5q18 -141 29 -253t16 -213t5 -210q0 -322 -91.5 -470t-316.5 -148q-46 0 -79.5 33.5t-33.5 79.5z" />
    <glyph glyph-name="uni06B5.medi" unicode="&#x6b5;" horiz-adv-x="674" 
d="M486 1934q21 -13 27 -38.5t-7 -47.5l-166 -269q-14 -24 -50 -24t-52 19l-192 241q-15 19 -12 45t22 42q20 16 46 13t41 -23l138 -172l119 194q13 21 39 27t47 -7zM-113 45q0 47 33.5 80t79.5 33q130 0 177 43t47 168q0 153 -5.5 288.5t-15 267.5t-23.5 275q-4 47 26 83.5
t76 40.5q47 5 83.5 -25t40.5 -77q20 -213 32 -410.5t12 -427.5q1 -7 1 -15q0 -120 53.5 -165.5t168.5 -45.5h1q47 0 80 -33t33 -80q0 -46 -33 -79.5t-80 -33.5h-1q-97 0 -184 31.5t-149 94.5q-121 -126 -340 -126q-46 0 -79.5 33.5t-33.5 79.5z" />
    <glyph glyph-name="uni06B5.fina" unicode="&#x6b5;" horiz-adv-x="1448" 
d="M1225 1934q21 -13 27 -38.5t-7 -47.5l-166 -269q-14 -24 -50 -24t-52 19l-192 241q-15 19 -12 45t22 42q20 16 46 13t41 -23l138 -172l119 194q13 21 39 27t47 -7zM65 -29q0 116 32 217.5t75 186.5q20 42 66 56t88 -6q41 -20 55.5 -65.5t-5.5 -86.5q-32 -65 -57 -145
t-25 -157q0 -131 83.5 -209.5t237.5 -78.5q141 0 220.5 54t112.5 157.5t33 253.5q0 256 -13.5 509.5t-34.5 545.5q-4 47 27 82.5t78 38.5t82.5 -27.5t38.5 -77.5q16 -224 28.5 -427t18.5 -402q6 -87 27 -138t70.5 -72.5t143.5 -21.5h1q47 0 80 -33t33 -80q0 -46 -33 -79.5
t-80 -33.5h-1q-141 0 -248 63q-21 -144 -86.5 -267t-187.5 -198t-310 -75q-153 0 -277.5 65t-198.5 181t-74 270z" />
    <glyph glyph-name="uni06CA.fina" unicode="&#x6ca;" horiz-adv-x="951" 
d="M146 1036q-10 36 7.5 69t54.5 45q56 17 129.5 26t145.5 9q71 0 128.5 -9t97.5 -25q37 -20 47.5 -60t-12.5 -74q-19 -27 -46 -36.5t-56 -2.5q-29 8 -72.5 13t-86.5 5q-68 0 -126.5 -5.5t-96.5 -17.5q-36 -10 -69.5 9t-44.5 54zM481 -68q-184 0 -287 86t-103 260
q0 120 49 222.5t133 165.5t189 63q122 0 211.5 -78.5t139 -204.5t49.5 -271v-17h89q47 0 80 -33t33 -80q0 -46 -33 -79.5t-80 -33.5h-130q-47 -137 -141.5 -245.5t-220.5 -181t-269 -102.5q-46 -9 -85.5 18t-47.5 72q-9 47 18.5 84t71.5 50q156 42 267 120.5t170 184.5h-103
zM479 158h164v9q0 74 -21.5 153.5t-62.5 134t-102 54.5q-67 0 -110.5 -64.5t-43.5 -146.5q0 -79 47 -109.5t129 -30.5z" />
    <glyph glyph-name="uni06CE.init" unicode="&#x6ce;" horiz-adv-x="560" 
d="M-205 -485q-10 36 7.5 69t54.5 45q56 17 129.5 26t145.5 9q71 0 128.5 -9t97.5 -25q37 -20 47.5 -60t-12.5 -74q-19 -27 -46 -36.5t-56 -2.5q-29 8 -72.5 13t-86.5 5q-68 0 -126.5 -5.5t-96.5 -17.5q-36 -10 -69.5 9t-44.5 54zM462 1240q21 -13 27 -38.5t-7 -47.5
l-166 -269q-14 -24 -50 -24t-52 19l-192 241q-15 19 -12 45t22 42q20 16 46 13t41 -23l138 -172l119 194q13 21 39 27t47 -7zM-113 45q0 47 33.5 80t79.5 33q134 0 192 41t58 155q0 40 -6 102.5t-18 125.5q-6 46 22.5 83.5t74.5 44.5q47 7 84 -21.5t45 -74.5q14 -74 21 -142
t7 -119q0 -205 -122.5 -313t-357.5 -108q-46 0 -79.5 33.5t-33.5 79.5z" />
    <glyph glyph-name="uni06CE.medi" unicode="&#x6ce;" horiz-adv-x="811" 
d="M-205 -485q-10 36 7.5 69t54.5 45q56 17 129.5 26t145.5 9q71 0 128.5 -9t97.5 -25q37 -20 47.5 -60t-12.5 -74q-19 -27 -46 -36.5t-56 -2.5q-29 8 -72.5 13t-86.5 5q-68 0 -126.5 -5.5t-96.5 -17.5q-36 -10 -69.5 9t-44.5 54zM468 1149q21 -13 27 -38.5t-7 -47.5
l-166 -269q-14 -24 -50 -24t-52 19l-192 241q-15 19 -12 45t22 42q20 16 46 13t41 -23l138 -172l119 194q13 21 39 27t47 -7zM-114 45q0 47 34 80t80 33q136 0 201.5 31.5t87 106.5t24.5 203q3 53 38.5 82t83.5 26q47 -3 78 -38.5t27 -81.5q-4 -121 16.5 -193t80.5 -104
t173 -32h1q47 0 80 -33t33 -80q0 -46 -33 -79.5t-80 -33.5h-1q-146 0 -240.5 47.5t-144.5 161.5q-65 -118 -166.5 -163.5t-258.5 -45.5q-46 0 -80 33.5t-34 79.5z" />
    <glyph glyph-name="uni06CE.fina" unicode="&#x6ce;" horiz-adv-x="1390" 
d="M1054 756q21 -13 27 -38.5t-7 -47.5l-166 -269q-14 -24 -50 -24t-52 19l-192 241q-15 19 -12 45t22 42q20 16 46 13t41 -23l138 -172l119 194q13 21 39 27t47 -7zM71 -76q0 135 28.5 261.5t82.5 272.5q16 44 59 64t87 4t64 -59t4 -87q-46 -127 -71 -241t-25 -209
q0 -164 96.5 -245t314.5 -81q182 0 282 49t100 114q0 56 -81 101t-245 64q-40 5 -68 35t-32 70q-4 49 30.5 85t83.5 36h609q47 0 80 -33t33 -80q0 -46 -33 -79.5t-80 -33.5h-203q122 -87 122 -200q0 -98 -76.5 -179t-213 -129t-317.5 -48q-202 0 -343 69t-214.5 192.5
t-73.5 286.5z" />
    <glyph glyph-name="uniFB51" unicode="&#x671;" horiz-adv-x="574" arabic-form="final" 
d="M515 1850q75 0 126.5 -47.5t51.5 -121.5q0 -90 -63 -136.5t-146 -46.5q-50 0 -90 12t-75 28q-9 -15 -17 -30t-16 -31q-9 -18 -28 -29t-43 -3q-20 6 -33.5 28.5t-1.5 45.5q8 16 16 31.5t16 30.5q-29 8 -56 8q-44 0 -77 -40.5t-58 -81.5q-11 -19 -34.5 -24.5t-44.5 7.5
q-18 13 -23 34.5t7 42.5q22 37 52.5 77.5t74 68.5t103.5 28q31 0 58.5 -6.5t54.5 -17.5q48 74 108 123.5t138 49.5zM511 1738q-36 0 -69.5 -29t-66.5 -76q28 -10 57 -16.5t61 -6.5q31 0 59.5 15t28.5 53q0 28 -19.5 44t-50.5 16zM128 383q0 192 4 378t-3 403q-1 47 31 82
t78 36q47 2 82 -30t36 -79q7 -214 3 -402.5t-4 -384.5q0 -128 44 -178t174 -50h1q47 0 80 -33t33 -80q0 -46 -33 -79.5t-80 -33.5h-1q-221 0 -333 102t-112 349z" />
    <glyph glyph-name="uniFB57" unicode="&#x67e;" horiz-adv-x="1937" arabic-form="final" 
d="M65 414q0 58 11 118.5t31 124.5q14 44 56 66t86 8q44 -13 66.5 -55.5t8.5 -86.5q-16 -51 -23 -95t-7 -80q0 -84 41 -148.5t136.5 -101t258.5 -36.5q342 0 520.5 111t223.5 333q8 41 42 68t80 22q44 -4 75 -39.5t28 -80.5q-2 -31 -3.5 -58.5t-1.5 -53.5q0 -138 53 -205
t189 -67h1q47 0 80 -33t33 -80q0 -46 -33 -79.5t-80 -33.5h-1q-159 0 -251.5 76.5t-125.5 224.5q-132 -178 -348.5 -254.5t-480.5 -76.5q-190 0 -340.5 58t-237.5 172t-87 282zM712 -730q-19 70 59 108q79 35 123 73.5t44 66.5q0 34 -64 34q-33 0 -81 -12t-95.5 -28.5
t-80.5 -32.5q-81 -34 -120 19q-21 29 -16 64.5t34 57.5q55 40 157 68.5t202 28.5q95 0 162 -51t67 -148q0 -56 -40.5 -119t-105.5 -114.5t-137 -73.5q-34 -10 -65.5 7.5t-42.5 51.5z" />
    <glyph glyph-name="uniFB58" unicode="&#x67e;" horiz-adv-x="560" arabic-form="initial" 
d="M-113 45q0 47 33.5 80t79.5 33q134 0 192 41t58 155q0 40 -6 102.5t-18 125.5q-6 46 22.5 83.5t74.5 44.5q47 7 84 -21.5t45 -74.5q14 -74 21 -142t7 -119q0 -205 -122.5 -313t-357.5 -108q-46 0 -79.5 33.5t-33.5 79.5zM13 -721q-19 70 59 108q79 35 123 73.5t44 66.5
q0 34 -64 34q-33 0 -81 -12t-95.5 -28.5t-80.5 -32.5q-81 -34 -120 19q-21 29 -16 64.5t34 57.5q55 40 157 68.5t202 28.5q95 0 162 -51t67 -148q0 -56 -40.5 -119t-105.5 -114.5t-137 -73.5q-34 -10 -65.5 7.5t-42.5 51.5z" />
    <glyph glyph-name="uniFB59" unicode="&#x67e;" horiz-adv-x="811" arabic-form="medial" 
d="M-114 45q0 47 34 80t80 33q136 0 201.5 31.5t87 106.5t24.5 203q3 53 38.5 82t83.5 26q47 -3 78 -38.5t27 -81.5q-4 -121 16.5 -193t80.5 -104t173 -32h1q47 0 80 -33t33 -80q0 -46 -33 -79.5t-80 -33.5h-1q-146 0 -240.5 47.5t-144.5 161.5q-65 -118 -166.5 -163.5
t-258.5 -45.5q-46 0 -80 33.5t-34 79.5zM13 -721q-19 70 59 108q79 35 123 73.5t44 66.5q0 34 -64 34q-33 0 -81 -12t-95.5 -28.5t-80.5 -32.5q-81 -34 -120 19q-21 29 -16 64.5t34 57.5q55 40 157 68.5t202 28.5q95 0 162 -51t67 -148q0 -56 -40.5 -119t-105.5 -114.5
t-137 -73.5q-34 -10 -65.5 7.5t-42.5 51.5z" />
    <glyph glyph-name="uniFB67" unicode="&#x679;" horiz-adv-x="1937" arabic-form="final" 
d="M591 655q2 23 20 36.5t40 9.5q35 -5 67 -8q1 6 4 12q17 37 36 69q0 3 1 9q3 23 4 52t1 63q0 62 -4.5 128.5t-10.5 110.5q-3 22 12 39.5t34 20.5q25 3 42.5 -12t20.5 -37q7 -45 11.5 -103t4.5 -107v-31q74 56 154 56q74 0 121.5 -45t47.5 -122q0 -81 -50.5 -128.5
t-134.5 -68t-185 -20.5q-87 0 -190 14q-22 4 -35.5 22t-10.5 40zM1015 854q-54 0 -102 -47.5t-84 -118.5h6q59 0 117 7.5t97 28.5t39 62q0 27 -20 47.5t-53 20.5zM65 414q0 58 11 118.5t31 124.5q14 44 56 66t86 8q44 -13 66.5 -55.5t8.5 -86.5q-16 -51 -23 -95t-7 -80
q0 -84 41 -148.5t136.5 -101t258.5 -36.5q342 0 520.5 111t223.5 333q8 41 42 68t80 22q44 -4 75 -39.5t28 -80.5q-2 -31 -3.5 -58.5t-1.5 -53.5q0 -138 53 -205t189 -67h1q47 0 80 -33t33 -80q0 -46 -33 -79.5t-80 -33.5h-1q-159 0 -251.5 76.5t-125.5 224.5
q-132 -178 -348.5 -254.5t-480.5 -76.5q-190 0 -340.5 58t-237.5 172t-87 282z" />
    <glyph glyph-name="uniFB68" unicode="&#x679;" horiz-adv-x="560" arabic-form="initial" 
d="M-53 951q2 23 20 36.5t40 9.5q35 -5 67 -8q1 6 4 12q17 37 36 69q0 3 1 9q3 23 4 52t1 63q0 62 -4.5 128.5t-10.5 110.5q-3 22 12 39.5t34 20.5q25 3 42.5 -12t20.5 -37q7 -45 11.5 -103t4.5 -107v-31q74 56 154 56q74 0 121.5 -45t47.5 -122q0 -81 -50.5 -128.5
t-134.5 -68t-185 -20.5q-87 0 -190 14q-22 4 -35.5 22t-10.5 40zM371 1150q-54 0 -102 -47.5t-84 -118.5h6q59 0 117 7.5t97 28.5t39 62q0 27 -20 47.5t-53 20.5zM-113 45q0 47 33.5 80t79.5 33q134 0 192 41t58 155q0 40 -6 102.5t-18 125.5q-6 46 22.5 83.5t74.5 44.5
q47 7 84 -21.5t45 -74.5q14 -74 21 -142t7 -119q0 -205 -122.5 -313t-357.5 -108q-46 0 -79.5 33.5t-33.5 79.5z" />
    <glyph glyph-name="uniFB69" unicode="&#x679;" horiz-adv-x="811" arabic-form="medial" 
d="M29 863q2 23 20 36.5t40 9.5q35 -5 67 -8q1 6 4 12q17 37 36 69q0 3 1 9q3 23 4 52t1 63q0 62 -4.5 128.5t-10.5 110.5q-3 22 12 39.5t34 20.5q25 3 42.5 -12t20.5 -37q7 -45 11.5 -103t4.5 -107v-31q74 56 154 56q74 0 121.5 -45t47.5 -122q0 -81 -50.5 -128.5
t-134.5 -68t-185 -20.5q-87 0 -190 14q-22 4 -35.5 22t-10.5 40zM453 1062q-54 0 -102 -47.5t-84 -118.5h6q59 0 117 7.5t97 28.5t39 62q0 27 -20 47.5t-53 20.5zM-114 45q0 47 34 80t80 33q136 0 201.5 31.5t87 106.5t24.5 203q3 53 38.5 82t83.5 26q47 -3 78 -38.5
t27 -81.5q-4 -121 16.5 -193t80.5 -104t173 -32h1q47 0 80 -33t33 -80q0 -46 -33 -79.5t-80 -33.5h-1q-146 0 -240.5 47.5t-144.5 161.5q-65 -118 -166.5 -163.5t-258.5 -45.5q-46 0 -80 33.5t-34 79.5z" />
    <glyph glyph-name="uniFB7B" unicode="&#x686;" horiz-adv-x="1392" arabic-form="final" 
d="M403 900q66 0 152 -31.5t183 -78t199 -92.5t201 -75q100 -28 100 -116q0 -43 -35 -75.5t-94 -44.5q-19 -3 -39 -7q30 -127 104.5 -174.5t216.5 -47.5h1q47 0 80 -33t33 -80q0 -46 -33 -79.5t-80 -33.5h-1q-217 0 -357.5 100t-182.5 296q-263 -77 -413 -202t-150 -280
q0 -94 54 -160.5t148 -101.5t215 -35q89 0 187.5 18t192.5 53q46 17 88 0.5t58 -57.5q18 -43 0 -86.5t-60 -63.5q-99 -43 -216 -65.5t-232 -22.5q-191 0 -339.5 63.5t-233 180.5t-84.5 279q0 229 191 394.5t555 279.5q-65 30 -140.5 63.5t-140 57t-96.5 23.5q-40 0 -66 -35
t-42 -86q-12 -45 -53.5 -69.5t-85.5 -13.5q-44 12 -69.5 53.5t-13.5 86.5q36 131 113 214.5t185 83.5zM479 -124q-15 20 -11 45t24 41q38 28 109.5 47.5t141.5 19.5q66 0 112.5 -35.5t48.5 -102.5v-1q0 -39 -28.5 -83t-74 -80t-96.5 -52q-23 -7 -45.5 5.5t-29.5 36.5
q-15 47 41 75q55 25 86 52t31 46q0 23 -45 23q-35 0 -90 -17.5t-90 -33.5q-56 -23 -84 14z" />
    <glyph glyph-name="uniFB7C" unicode="&#x686;" horiz-adv-x="1299" arabic-form="initial" 
d="M380 836q89 0 190 -42.5t210 -98.5q71 -37 160 -77.5t200 -87.5q30 -13 49 -42.5t19 -61.5q0 -63 -53 -96q-279 -184 -562 -291t-593 -107q-47 0 -80.5 33.5t-33.5 79.5t33.5 79.5t80.5 33.5q217 0 426 64.5t419 189.5q-59 28 -112 53t-101 51q-77 41 -133.5 65t-97.5 24
q-46 0 -75.5 -35.5t-67.5 -118.5q-14 -37 -64.5 -57.5t-99.5 10.5q-31 20 -45 61t5 83q60 129 134 208.5t192 79.5zM362 -691q-19 70 59 108q79 35 123 73.5t44 66.5q0 34 -64 34q-33 0 -81 -12t-95.5 -28.5t-80.5 -32.5q-81 -34 -120 19q-21 29 -16 64.5t34 57.5
q55 40 157 68.5t202 28.5q95 0 162 -51t67 -148q0 -56 -40.5 -119t-105.5 -114.5t-137 -73.5q-34 -10 -65.5 7.5t-42.5 51.5z" />
    <glyph glyph-name="uniFB7D" unicode="&#x686;" horiz-adv-x="1321" arabic-form="medial" 
d="M380 836q89 0 190 -42.5t210 -98.5q71 -37 160 -77.5t200 -87.5q30 -13 49 -42.5t19 -61.5q0 -63 -53 -96q-46 -30 -90 -58q21 -58 82.5 -86t172.5 -28h1q47 0 80 -33t33 -80q0 -46 -33 -79.5t-80 -33.5h-1q-150 0 -272.5 55.5t-180.5 172.5q-208 -108 -422.5 -168
t-444.5 -60q-47 0 -80.5 33.5t-33.5 79.5t33.5 79.5t80.5 33.5q217 0 426 64.5t419 189.5q-59 28 -112 53t-101 51q-77 41 -133.5 65t-97.5 24q-46 0 -75.5 -35.5t-67.5 -118.5q-14 -37 -64.5 -57.5t-99.5 10.5q-31 20 -45 61t5 83q60 129 134 208.5t192 79.5zM424 -691
q-19 70 59 108q79 35 123 73.5t44 66.5q0 34 -64 34q-33 0 -81 -12t-95.5 -28.5t-80.5 -32.5q-81 -34 -120 19q-21 29 -16 64.5t34 57.5q55 40 157 68.5t202 28.5q95 0 162 -51t67 -148q0 -56 -40.5 -119t-105.5 -114.5t-137 -73.5q-34 -10 -65.5 7.5t-42.5 51.5z" />
    <glyph glyph-name="uniFB89" unicode="&#x688;" horiz-adv-x="1121" arabic-form="final" 
d="M247 1172q2 23 20 36.5t40 9.5q35 -5 67 -8q1 6 4 12q17 37 36 69q0 3 1 9q3 23 4 52t1 63q0 62 -4.5 128.5t-10.5 110.5q-3 22 12 39.5t34 20.5q25 3 42.5 -12t20.5 -37q7 -45 11.5 -103t4.5 -107v-31q74 56 154 56q74 0 121.5 -45t47.5 -122q0 -81 -50.5 -128.5
t-134.5 -68t-185 -20.5q-87 0 -190 14q-22 4 -35.5 22t-10.5 40zM671 1371q-54 0 -102 -47.5t-84 -118.5h6q59 0 117 7.5t97 28.5t39 62q0 27 -20 47.5t-53 20.5zM70 76q13 45 53 66.5t87 10.5q47 -12 89.5 -18.5t90.5 -6.5q140 0 199 43.5t59 125.5q0 22 -6 44
q-7 19 -15 42q-28 83 -67 161.5t-96 177.5q-24 41 -12.5 87t51.5 70t86 13t70 -52q57 -98 101.5 -184t81.5 -199q34 -96 68.5 -162.5t83.5 -101t126 -35.5h1q47 0 80 -33t33 -80q0 -46 -33 -79.5t-80 -33.5h-1q-108 0 -186 37t-134 94q-71 -88 -185 -124.5t-225 -36.5
q-67 0 -120.5 7.5t-121.5 26.5q-45 11 -67.5 53t-10.5 87z" />
    <glyph glyph-name="uniFB8B" unicode="&#x698;" horiz-adv-x="947" arabic-form="final" 
d="M431 458q-15 44 12 85t73 52q16 4 31 3q38 -2 65.5 -25t37.5 -54q2 -4 3 -9q47 -181 108 -266.5t185 -85.5h1q47 0 80 -33t33 -80q0 -46 -33 -79.5t-80 -33.5h-1q-74 0 -136 22.5t-113 61.5q-30 -238 -165 -391.5t-335 -220.5q-51 -17 -92 8t-53 65q-16 53 9 91.5
t62 51.5q166 56 260.5 182.5t94.5 337.5q0 136 -41 298zM231 1062q0 89 40.5 148t104.5 88.5t135.5 29.5t135.5 -29t104.5 -87.5t40.5 -146.5q0 -35 -6.5 -68t-21.5 -61q-16 -34 -49.5 -51.5t-72.5 4.5q-30 18 -37.5 48t5.5 63q16 30 16 65q0 49 -34.5 73.5t-80 24
t-80 -25.5t-34.5 -75q0 -43 20.5 -73t63.5 -72q23 -24 17.5 -57.5t-29.5 -54.5q-26 -24 -60.5 -18t-59.5 30q-46 44 -82 97.5t-36 147.5z" />
    <glyph glyph-name="uniFB8D" unicode="&#x691;" horiz-adv-x="947" arabic-form="final" 
d="M204 932q2 23 20 36.5t40 9.5q35 -5 67 -8q1 6 4 12q17 37 36 69q0 3 1 9q3 23 4 52t1 63q0 62 -4.5 128.5t-10.5 110.5q-3 22 12 39.5t34 20.5q25 3 42.5 -12t20.5 -37q7 -45 11.5 -103t4.5 -107v-31q74 56 154 56q74 0 121.5 -45t47.5 -122q0 -81 -50.5 -128.5
t-134.5 -68t-185 -20.5q-87 0 -190 14q-22 4 -35.5 22t-10.5 40zM628 1131q-54 0 -102 -47.5t-84 -118.5h6q59 0 117 7.5t97 28.5t39 62q0 27 -20 47.5t-53 20.5zM431 458q-15 44 12 85t73 52q16 4 31 3q38 -2 65.5 -25t37.5 -54q2 -4 3 -9q47 -181 108 -266.5t185 -85.5h1
q47 0 80 -33t33 -80q0 -46 -33 -79.5t-80 -33.5h-1q-74 0 -136 22.5t-113 61.5q-30 -238 -165 -391.5t-335 -220.5q-51 -17 -92 8t-53 65q-16 53 9 91.5t62 51.5q166 56 260.5 182.5t94.5 337.5q0 136 -41 298z" />
    <glyph glyph-name="uniFB8F" unicode="&#x6a9;" horiz-adv-x="2019" arabic-form="final" 
d="M73 373q0 147 51 266q20 43 65.5 58t87.5 -6q86 -42 52 -153q-28 -86 -28 -174q0 -135 125 -185.5t372 -50.5q155 0 277.5 16t194 56t71.5 112q0 60 -50.5 145.5t-131 182.5t-170.5 189q-33 35 -50 59.5t-17 64.5q0 37 22.5 67.5t61.5 42.5l699 233q56 18 99.5 -0.5
t57.5 -67.5q14 -51 -6.5 -89t-66.5 -52l-565 -179q93 -106 166 -200t118 -180q3 -4 5 -9q66 -131 126.5 -210.5t147.5 -115t231 -35.5h1q47 0 80 -33t33 -80q0 -46 -33 -79.5t-80 -33.5h-1q-172 0 -291 47.5t-212 144.5q-82 -118 -270 -170t-445 -52q-353 0 -540 109
t-187 362z" />
    <glyph glyph-name="uniFB90" unicode="&#x6a9;" horiz-adv-x="1022" arabic-form="initial" 
d="M-114 45q0 47 34 80t80 33q212 0 336.5 34.5t124.5 130.5q0 64 -50.5 146.5t-130.5 175t-171 184.5q-34 35 -50.5 59t-16.5 64q0 38 22.5 68.5t61.5 42.5l700 233q56 18 99.5 -0.5t56.5 -67.5q14 -51 -6 -89t-66 -52l-565 -179q155 -175 249.5 -311.5t94.5 -268.5
q0 -142 -83 -229t-237.5 -127t-368.5 -40q-46 0 -80 33.5t-34 79.5z" />
    <glyph glyph-name="uniFB91" unicode="&#x6a9;" horiz-adv-x="1143" arabic-form="medial" 
d="M-114 45q0 47 34 80t80 33q212 0 336.5 34.5t124.5 130.5q0 64 -50.5 146.5t-130.5 175t-171 184.5q-34 35 -50.5 59t-16.5 64q0 38 22.5 68.5t61.5 42.5l700 233q56 18 99.5 -0.5t56.5 -67.5q14 -51 -6 -89t-66 -52l-565 -179q99 -112 174.5 -206.5t118.5 -180.5l1 -2
q66 -131 126 -210.5t146.5 -115t230.5 -35.5h1q47 0 80 -33t33 -80q0 -46 -33 -79.5t-80 -33.5h-1q-176 0 -296 49.5t-214 150.5q-74 -106 -236.5 -153t-395.5 -47q-46 0 -80 33.5t-34 79.5z" />
    <glyph glyph-name="uniFB93" unicode="&#x6af;" horiz-adv-x="2019" arabic-form="final" 
d="M73 373q0 147 51 266q20 43 65.5 58t87.5 -6q86 -42 52 -153q-28 -86 -28 -174q0 -135 125 -185.5t372 -50.5q155 0 277.5 16t194 56t71.5 112q0 60 -50.5 145.5t-131 182.5t-170.5 189q-33 35 -50 59.5t-17 64.5q0 37 22.5 67.5t61.5 42.5l699 233q56 18 99.5 -0.5
t57.5 -67.5q14 -51 -6.5 -89t-66.5 -52l-565 -179q93 -106 166 -200t118 -180q3 -4 5 -9q66 -131 126.5 -210.5t147.5 -115t231 -35.5h1q47 0 80 -33t33 -80q0 -46 -33 -79.5t-80 -33.5h-1q-172 0 -291 47.5t-212 144.5q-82 -118 -270 -170t-445 -52q-353 0 -540 109
t-187 362zM912 1312q-11 37 7 70.5t54 45.5l596 196q36 11 70 -5.5t44 -53.5q11 -37 -6 -70t-53 -45l-597 -197q-37 -12 -70.5 5t-44.5 54z" />
    <glyph glyph-name="uniFB94" unicode="&#x6af;" horiz-adv-x="1022" arabic-form="initial" 
d="M-114 45q0 47 34 80t80 33q212 0 336.5 34.5t124.5 130.5q0 64 -50.5 146.5t-130.5 175t-171 184.5q-34 35 -50.5 59t-16.5 64q0 38 22.5 68.5t61.5 42.5l700 233q56 18 99.5 -0.5t56.5 -67.5q14 -51 -6 -89t-66 -52l-565 -179q155 -175 249.5 -311.5t94.5 -268.5
q0 -142 -83 -229t-237.5 -127t-368.5 -40q-46 0 -80 33.5t-34 79.5zM39 1312q-11 37 7 70.5t54 45.5l596 196q36 11 70 -5.5t44 -53.5q11 -37 -6 -70t-53 -45l-597 -197q-37 -12 -70.5 5t-44.5 54z" />
    <glyph glyph-name="uniFB95" unicode="&#x6af;" horiz-adv-x="1143" arabic-form="medial" 
d="M-114 45q0 47 34 80t80 33q212 0 336.5 34.5t124.5 130.5q0 64 -50.5 146.5t-130.5 175t-171 184.5q-34 35 -50.5 59t-16.5 64q0 38 22.5 68.5t61.5 42.5l700 233q56 18 99.5 -0.5t56.5 -67.5q14 -51 -6 -89t-66 -52l-565 -179q99 -112 174.5 -206.5t118.5 -180.5l1 -2
q66 -131 126 -210.5t146.5 -115t230.5 -35.5h1q47 0 80 -33t33 -80q0 -46 -33 -79.5t-80 -33.5h-1q-176 0 -296 49.5t-214 150.5q-74 -106 -236.5 -153t-395.5 -47q-46 0 -80 33.5t-34 79.5zM39 1312q-11 37 7 70.5t54 45.5l596 196q36 11 70 -5.5t44 -53.5q11 -37 -6 -70
t-53 -45l-597 -197q-37 -12 -70.5 5t-44.5 54z" />
    <glyph glyph-name="uniFB9F" unicode="&#x6ba;" horiz-adv-x="1526" arabic-form="final" 
d="M717 -538q-193 0 -336 71t-222 196t-79 288q0 101 21 208t55 208q17 44 60 64t86 3q43 -16 63.5 -59t3.5 -87q-27 -79 -44 -162t-17 -155q0 -164 104.5 -256.5t303.5 -92.5q200 0 309 92t109 255q0 83 -22.5 173t-60.5 187q-19 44 -0.5 87t60.5 61q43 18 87 0.5t63 -61.5
q28 -71 49 -138q34 -100 84 -143t131 -43h1q47 0 80 -33t33 -80q0 -46 -33 -79.5t-80 -33.5h-1q-85 0 -164 36q-12 -150 -95.5 -264t-224 -178t-324.5 -64z" />
    <glyph glyph-name="uniFBA7" unicode="&#x6c1;" horiz-adv-x="987" arabic-form="final" 
d="M987 158q47 0 80 -33t33 -80t-33 -80t-80 -33h-1q-127 0 -226.5 75.5t-190.5 241.5q-33 61 -52.5 84t-37.5 23q-44 0 -88 -138t-74 -365q-4 -40 -36 -67.5t-76 -27.5q-53 0 -86.5 40t-24.5 92q59 360 155.5 550.5t220.5 190.5q72 0 128.5 -51.5t120.5 -176.5
q73 -137 131 -191t136 -54h1z" />
    <glyph glyph-name="uniFBA8" unicode="&#x6c1;" horiz-adv-x="560" arabic-form="initial" 
d="M228 -881q-92 0 -144.5 57t-52.5 160q0 248 211 385q33 19 59.5 10t37.5 -31q11 -21 6 -46t-34 -41q-61 -40 -98.5 -91t-44.5 -111q15 11 33 18t40 7q68 0 110.5 -43t42.5 -111q0 -76 -44.5 -119.5t-121.5 -43.5zM-113 45q0 47 33.5 80t79.5 33q134 0 192 41t58 155
q0 40 -6 102.5t-18 125.5q-6 46 22.5 83.5t74.5 44.5q47 7 84 -21.5t45 -74.5q14 -74 21 -142t7 -119q0 -205 -122.5 -313t-357.5 -108q-46 0 -79.5 33.5t-33.5 79.5z" />
    <glyph glyph-name="uniFBA9" unicode="&#x6c1;" horiz-adv-x="1001" arabic-form="medial" 
d="M600 7q54 83 156.5 117t244.5 34q48 0 80.5 -32.5t32.5 -80.5t-32.5 -80.5t-80.5 -32.5q-106 0 -182 -15.5t-117 -64t-41 -147.5q0 -47 9 -107.5t28 -134.5q2 -6 3 -13t1 -16q0 -48 -32.5 -80.5t-80.5 -32.5q-42 0 -71 25.5t-38 59.5q-52 209 -79 371t-39 329
q-68 -78 -160.5 -126t-201.5 -48q-48 0 -80.5 32.5t-32.5 80.5t32.5 80.5t80.5 32.5q90 0 157.5 44.5t116 113t80.5 141.5q29 67 103 67q46 0 79 -32.5t34 -79.5q0 -55 3.5 -127.5t10.5 -145.5t16 -132z" />
    <glyph glyph-name="uniFBAB" unicode="&#x6be;" horiz-adv-x="1100" arabic-form="final" 
d="M105 372q0 136 91 239.5t238 175.5q59 29 111.5 62t68.5 66v5q-4 46 26.5 82.5t76.5 40.5q47 5 83 -25.5t40 -77.5l2 -19q1 -6 1 -12l47 -523q9 -100 32 -148.5t66 -64t111 -15.5h1q47 0 80 -33t33 -80q0 -46 -33 -79.5t-80 -33.5h-1q-137 0 -224 41.5t-136 122.5
q-28 -29 -67 -35q-28 -4 -60 -5.5t-55 -1.5q-222 0 -337 86.5t-115 231.5zM334 385q0 -105 223 -105q16 0 38.5 2t44.5 5q17 2 34 -1q-6 37 -10 80l-25 274q-47 -29 -108 -60q-83 -43 -140 -90.5t-57 -104.5z" />
    <glyph glyph-name="uniFBAC" unicode="&#x6be;" horiz-adv-x="1359" arabic-form="initial" 
d="M-113 45q0 47 33 80t80 33q111 0 204 10q-55 55 -87 119.5t-32 137.5q0 119 54 220.5t144 163t196 61.5q61 0 114.5 -24.5t95.5 -66.5q10 0 20 -1q275 -35 416 -152.5t141 -338.5q0 -106 -50.5 -186t-140 -124.5t-208.5 -44.5q-208 0 -402 75q-98 -37 -216 -56t-249 -19
q-46 0 -79.5 33.5t-33.5 79.5zM307 445q0 -67 45.5 -120t122.5 -90q76 36 118 90t42 129q0 74 -44.5 132t-112.5 58q-71 0 -121 -59.5t-50 -139.5zM814 459q0 -87 -27.5 -159.5t-78.5 -130.5q76 -11 156 -11q92 0 144 38t52 103q0 79 -67 137t-184 91q5 -34 5 -68z" />
    <glyph glyph-name="uniFBAD" unicode="&#x6be;" horiz-adv-x="990" arabic-form="medial" 
d="M-113 45q0 47 33.5 80t79.5 33q45 0 87 3q3 112 27.5 234.5t78.5 229t143 173t219 66.5q92 0 155 -48t96 -121t33 -149q0 -106 -51.5 -209t-146.5 -187q20 8 43 8h306q47 0 80 -33t33 -80q0 -46 -33 -79.5t-80 -33.5h-155q22 -80 22 -164q0 -76 -27 -158.5t-89 -139
t-166 -56.5q-95 0 -172 45t-135.5 120.5t-98 168.5t-60.5 189q-54 -5 -109 -5q-46 0 -79.5 33.5t-33.5 79.5zM533 628q-93 0 -150.5 -114t-65.5 -309q156 52 232.5 142t76.5 173q0 47 -21 77.5t-72 30.5zM570 45q0 35 20 63q-55 -40 -121 -73t-141 -56q26 -156 94 -246.5
t142 -90.5q46 0 64.5 30.5t18.5 76.5q0 44 -14.5 95.5t-33.5 97.5q-11 29 -20 56.5t-9 46.5z" />
    <glyph glyph-name="uniFBAF" unicode="&#x6d2;" horiz-adv-x="1579" arabic-form="final" 
d="M1300 -519q0 -46 -33 -78t-80 -35q-386 -25 -629 -1t-357 97.5t-114 196.5q0 117 105.5 209t302 156.5t471 98t612.5 33.5h1q47 0 80 -33t33 -80q0 -46 -33 -79.5t-80 -33.5h-1q-185 0 -364.5 -12.5t-336.5 -35.5t-277 -55t-188 -70.5t-68 -82.5q0 -42 78 -69.5
t262.5 -32.5t502.5 20q47 3 80 -31.5t33 -81.5z" />
    <glyph glyph-name="uniFBDA" unicode="&#x6c6;" horiz-adv-x="951" arabic-form="final" 
d="M679 1296q21 -13 27 -38.5t-7 -47.5l-166 -269q-14 -24 -50 -24t-52 19l-192 241q-15 19 -12 45t22 42q20 16 46 13t41 -23l138 -172l119 194q13 21 39 27t47 -7zM481 -68q-184 0 -287 86t-103 260q0 120 49 222.5t133 165.5t189 63q122 0 211.5 -78.5t139 -204.5
t49.5 -271v-17h89q47 0 80 -33t33 -80q0 -46 -33 -79.5t-80 -33.5h-130q-47 -137 -141.5 -245.5t-220.5 -181t-269 -102.5q-46 -9 -85.5 18t-47.5 72q-9 47 18.5 84t71.5 50q156 42 267 120.5t170 184.5h-103zM479 158h164v9q0 74 -21.5 153.5t-62.5 134t-102 54.5
q-67 0 -110.5 -64.5t-43.5 -146.5q0 -79 47 -109.5t129 -30.5z" />
    <glyph glyph-name="uniFBE8" unicode="&#x649;" horiz-adv-x="560" arabic-form="initial" 
d="M-113 45q0 47 33.5 80t79.5 33q134 0 192 41t58 155q0 40 -6 102.5t-18 125.5q-6 46 22.5 83.5t74.5 44.5q47 7 84 -21.5t45 -74.5q14 -74 21 -142t7 -119q0 -205 -122.5 -313t-357.5 -108q-46 0 -79.5 33.5t-33.5 79.5z" />
    <glyph glyph-name="uniFBE9" unicode="&#x649;" horiz-adv-x="811" arabic-form="medial" 
d="M-114 45q0 47 34 80t80 33q136 0 201.5 31.5t87 106.5t24.5 203q3 53 38.5 82t83.5 26q47 -3 78 -38.5t27 -81.5q-4 -121 16.5 -193t80.5 -104t173 -32h1q47 0 80 -33t33 -80q0 -46 -33 -79.5t-80 -33.5h-1q-146 0 -240.5 47.5t-144.5 161.5q-65 -118 -166.5 -163.5
t-258.5 -45.5q-46 0 -80 33.5t-34 79.5z" />
    <glyph glyph-name="uniFBFD" unicode="&#x6cc;" horiz-adv-x="1390" arabic-form="final" 
d="M71 -76q0 135 28.5 261.5t82.5 272.5q16 44 59 64t87 4t64 -59t4 -87q-46 -127 -71 -241t-25 -209q0 -164 96.5 -245t314.5 -81q182 0 282 49t100 114q0 56 -81 101t-245 64q-40 5 -68 35t-32 70q-4 49 30.5 85t83.5 36h609q47 0 80 -33t33 -80q0 -46 -33 -79.5
t-80 -33.5h-203q122 -87 122 -200q0 -98 -76.5 -179t-213 -129t-317.5 -48q-202 0 -343 69t-214.5 192.5t-73.5 286.5z" />
    <glyph glyph-name="uniFBFE" unicode="&#x6cc;" horiz-adv-x="560" arabic-form="initial" 
d="M-113 45q0 47 33.5 80t79.5 33q134 0 192 41t58 155q0 40 -6 102.5t-18 125.5q-6 46 22.5 83.5t74.5 44.5q47 7 84 -21.5t45 -74.5q14 -74 21 -142t7 -119q0 -205 -122.5 -313t-357.5 -108q-46 0 -79.5 33.5t-33.5 79.5zM-205 -485q-10 36 7.5 69t54.5 45q56 17 129.5 26
t145.5 9q71 0 128.5 -9t97.5 -25q37 -20 47.5 -60t-12.5 -74q-19 -27 -46 -36.5t-56 -2.5q-29 8 -72.5 13t-86.5 5q-68 0 -126.5 -5.5t-96.5 -17.5q-36 -10 -69.5 9t-44.5 54z" />
    <glyph glyph-name="uniFBFF" unicode="&#x6cc;" horiz-adv-x="811" arabic-form="medial" 
d="M-114 45q0 47 34 80t80 33q136 0 201.5 31.5t87 106.5t24.5 203q3 53 38.5 82t83.5 26q47 -3 78 -38.5t27 -81.5q-4 -121 16.5 -193t80.5 -104t173 -32h1q47 0 80 -33t33 -80q0 -46 -33 -79.5t-80 -33.5h-1q-146 0 -240.5 47.5t-144.5 161.5q-65 -118 -166.5 -163.5
t-258.5 -45.5q-46 0 -80 33.5t-34 79.5zM-205 -485q-10 36 7.5 69t54.5 45q56 17 129.5 26t145.5 9q71 0 128.5 -9t97.5 -25q37 -20 47.5 -60t-12.5 -74q-19 -27 -46 -36.5t-56 -2.5q-29 8 -72.5 13t-86.5 5q-68 0 -126.5 -5.5t-96.5 -17.5q-36 -10 -69.5 9t-44.5 54z" />
    <glyph glyph-name="uniFE82" unicode="&#x622;" horiz-adv-x="574" arabic-form="final" 
d="M-79 1508q33 58 88 98.5t126 40.5q40 0 73 -15.5t62 -32.5q24 -13 46 -22.5t44 -9.5q57 0 102 96q10 21 32 28.5t43 -2.5t28.5 -32.5t-3.5 -43.5q-26 -54 -74 -107t-128 -53q-37 0 -69 15t-60 31q-25 14 -48.5 25t-47.5 11q-68 0 -116 -83q-12 -19 -34.5 -25.5t-42.5 4.5
q-19 12 -25.5 34.5t4.5 42.5zM128 383q0 192 4 378t-3 403q-1 47 31 82t78 36q47 2 82 -30t36 -79q7 -214 3 -402.5t-4 -384.5q0 -128 44 -178t174 -50h1q47 0 80 -33t33 -80q0 -46 -33 -79.5t-80 -33.5h-1q-221 0 -333 102t-112 349z" />
    <glyph glyph-name="uniFE84" unicode="&#x623;" horiz-adv-x="574" arabic-form="final" 
d="M34 1503q-8 20 2.5 42t32.5 30l124 43q-44 22 -70 63.5t-26 100.5q0 96 62 158.5t171 62.5q38 0 68 -5q23 -4 37.5 -21.5t12.5 -38.5q-2 -22 -20.5 -38.5t-41.5 -12.5q-20 4 -42 4q-67 0 -101.5 -33t-34.5 -83q0 -46 30 -70t82 -24q29 0 62 7t93 28q23 8 44.5 -4.5
t26.5 -35.5q5 -22 -5.5 -41.5t-29.5 -24.5l-405 -142q-22 -8 -43 2.5t-29 32.5zM128 383q0 192 4 378t-3 403q-1 47 31 82t78 36q47 2 82 -30t36 -79q7 -214 3 -402.5t-4 -384.5q0 -128 44 -178t174 -50h1q47 0 80 -33t33 -80q0 -46 -33 -79.5t-80 -33.5h-1q-221 0 -333 102
t-112 349z" />
    <glyph glyph-name="uniFE86" unicode="&#x624;" horiz-adv-x="951" arabic-form="final" 
d="M481 -68q-184 0 -287 86t-103 260q0 120 49 222.5t133 165.5t189 63q122 0 211.5 -78.5t139 -204.5t49.5 -271v-17h89q47 0 80 -33t33 -80q0 -46 -33 -79.5t-80 -33.5h-130q-47 -137 -141.5 -245.5t-220.5 -181t-269 -102.5q-46 -9 -85.5 18t-47.5 72q-9 47 18.5 84
t71.5 50q156 42 267 120.5t170 184.5h-103zM479 158h164v9q0 74 -21.5 153.5t-62.5 134t-102 54.5q-67 0 -110.5 -64.5t-43.5 -146.5q0 -79 47 -109.5t129 -30.5zM152 951q-8 20 2.5 42t32.5 30l124 43q-44 22 -70 63.5t-26 100.5q0 96 62 158.5t171 62.5q38 0 68 -5
q23 -4 37.5 -21.5t12.5 -38.5q-2 -22 -20.5 -38.5t-41.5 -12.5q-20 4 -42 4q-67 0 -101.5 -33t-34.5 -83q0 -46 30 -70t82 -24q29 0 62 7t93 28q23 8 44.5 -4.5t26.5 -35.5q5 -22 -5.5 -41.5t-29.5 -24.5l-405 -142q-22 -8 -43 2.5t-29 32.5z" />
    <glyph glyph-name="uniFE88" unicode="&#x625;" horiz-adv-x="574" arabic-form="final" 
d="M21 -777q-8 20 2.5 42t32.5 30l124 43q-44 22 -70 63.5t-26 100.5q0 96 62 158.5t171 62.5q38 0 68 -5q23 -4 37.5 -21.5t12.5 -38.5q-2 -22 -20.5 -38.5t-41.5 -12.5q-20 4 -42 4q-67 0 -101.5 -33t-34.5 -83q0 -46 30 -70t82 -24q29 0 62 7t93 28q23 8 44.5 -4.5
t26.5 -35.5q5 -22 -5.5 -41.5t-29.5 -24.5l-405 -142q-22 -8 -43 2.5t-29 32.5zM128 383q0 192 4 378t-3 403q-1 47 31 82t78 36q47 2 82 -30t36 -79q7 -214 3 -402.5t-4 -384.5q0 -128 44 -178t174 -50h1q47 0 80 -33t33 -80q0 -46 -33 -79.5t-80 -33.5h-1q-221 0 -333 102
t-112 349z" />
    <glyph glyph-name="uniFE8A" unicode="&#x626;" horiz-adv-x="1390" arabic-form="final" 
d="M630 402q-8 20 2.5 42t32.5 30l124 43q-44 22 -70 63.5t-26 100.5q0 96 62 158.5t171 62.5q38 0 68 -5q23 -4 37.5 -21.5t12.5 -38.5q-2 -22 -20.5 -38.5t-41.5 -12.5q-20 4 -42 4q-67 0 -101.5 -33t-34.5 -83q0 -46 30 -70t82 -24q29 0 62 7t93 28q23 8 44.5 -4.5
t26.5 -35.5q5 -22 -5.5 -41.5t-29.5 -24.5l-405 -142q-22 -8 -43 2.5t-29 32.5zM71 -76q0 135 28.5 261.5t82.5 272.5q16 44 59 64t87 4t64 -59t4 -87q-46 -127 -71 -241t-25 -209q0 -164 96.5 -245t314.5 -81q182 0 282 49t100 114q0 56 -81 101t-245 64q-40 5 -68 35
t-32 70q-4 49 30.5 85t83.5 36h609q47 0 80 -33t33 -80q0 -46 -33 -79.5t-80 -33.5h-203q122 -87 122 -200q0 -98 -76.5 -179t-213 -129t-317.5 -48q-202 0 -343 69t-214.5 192.5t-73.5 286.5z" />
    <glyph glyph-name="uniFE8B" unicode="&#x626;" horiz-adv-x="560" arabic-form="initial" 
d="M-53 831q-8 20 2.5 42t32.5 30l124 43q-44 22 -70 63.5t-26 100.5q0 96 62 158.5t171 62.5q38 0 68 -5q23 -4 37.5 -21.5t12.5 -38.5q-2 -22 -20.5 -38.5t-41.5 -12.5q-20 4 -42 4q-67 0 -101.5 -33t-34.5 -83q0 -46 30 -70t82 -24q29 0 62 7t93 28q23 8 44.5 -4.5
t26.5 -35.5q5 -22 -5.5 -41.5t-29.5 -24.5l-405 -142q-22 -8 -43 2.5t-29 32.5zM-113 45q0 47 33.5 80t79.5 33q134 0 192 41t58 155q0 40 -6 102.5t-18 125.5q-6 46 22.5 83.5t74.5 44.5q47 7 84 -21.5t45 -74.5q14 -74 21 -142t7 -119q0 -205 -122.5 -313t-357.5 -108
q-46 0 -79.5 33.5t-33.5 79.5z" />
    <glyph glyph-name="uniFE8C" unicode="&#x626;" horiz-adv-x="811" arabic-form="medial" 
d="M-3 748q-8 20 2.5 42t32.5 30l124 43q-44 22 -70 63.5t-26 100.5q0 96 62 158.5t171 62.5q38 0 68 -5q23 -4 37.5 -21.5t12.5 -38.5q-2 -22 -20.5 -38.5t-41.5 -12.5q-20 4 -42 4q-67 0 -101.5 -33t-34.5 -83q0 -46 30 -70t82 -24q29 0 62 7t93 28q23 8 44.5 -4.5
t26.5 -35.5q5 -22 -5.5 -41.5t-29.5 -24.5l-405 -142q-22 -8 -43 2.5t-29 32.5zM-114 45q0 47 34 80t80 33q136 0 201.5 31.5t87 106.5t24.5 203q3 53 38.5 82t83.5 26q47 -3 78 -38.5t27 -81.5q-4 -121 16.5 -193t80.5 -104t173 -32h1q47 0 80 -33t33 -80q0 -46 -33 -79.5
t-80 -33.5h-1q-146 0 -240.5 47.5t-144.5 161.5q-65 -118 -166.5 -163.5t-258.5 -45.5q-46 0 -80 33.5t-34 79.5z" />
    <glyph glyph-name="uniFE8E" unicode="&#x627;" horiz-adv-x="574" arabic-form="final" 
d="M128 383q0 192 4 378t-3 403q-1 47 31 82t78 36q47 2 82 -30t36 -79q7 -214 3 -402.5t-4 -384.5q0 -128 44 -178t174 -50h1q47 0 80 -33t33 -80q0 -46 -33 -79.5t-80 -33.5h-1q-221 0 -333 102t-112 349z" />
    <glyph glyph-name="uniFE90" unicode="&#x628;" horiz-adv-x="1937" arabic-form="final" 
d="M65 414q0 58 11 118.5t31 124.5q14 44 56 66t86 8q44 -13 66.5 -55.5t8.5 -86.5q-16 -51 -23 -95t-7 -80q0 -84 41 -148.5t136.5 -101t258.5 -36.5q342 0 520.5 111t223.5 333q8 41 42 68t80 22q44 -4 75 -39.5t28 -80.5q-2 -31 -3.5 -58.5t-1.5 -53.5q0 -138 53 -205
t189 -67h1q47 0 80 -33t33 -80q0 -46 -33 -79.5t-80 -33.5h-1q-159 0 -251.5 76.5t-125.5 224.5q-132 -178 -348.5 -254.5t-480.5 -76.5q-190 0 -340.5 58t-237.5 172t-87 282zM642 -428q0 45 33.5 81.5t86.5 36.5q38 0 64 -16t41 -39q20 -33 20 -64q0 -37 -25.5 -80.5
t-98.5 -43.5q-50 0 -75.5 21.5t-36.5 49.5q-9 26 -9 54z" />
    <glyph glyph-name="uniFE91" unicode="&#x628;" horiz-adv-x="560" arabic-form="initial" 
d="M-113 45q0 47 33.5 80t79.5 33q134 0 192 41t58 155q0 40 -6 102.5t-18 125.5q-6 46 22.5 83.5t74.5 44.5q47 7 84 -21.5t45 -74.5q14 -74 21 -142t7 -119q0 -205 -122.5 -313t-357.5 -108q-46 0 -79.5 33.5t-33.5 79.5zM-47 -428q0 45 33.5 81.5t86.5 36.5q38 0 64 -16
t41 -39q20 -33 20 -64q0 -37 -25.5 -80.5t-98.5 -43.5q-50 0 -75.5 21.5t-36.5 49.5q-9 26 -9 54z" />
    <glyph glyph-name="uniFE92" unicode="&#x628;" horiz-adv-x="811" arabic-form="medial" 
d="M-114 45q0 47 34 80t80 33q136 0 201.5 31.5t87 106.5t24.5 203q3 53 38.5 82t83.5 26q47 -3 78 -38.5t27 -81.5q-4 -121 16.5 -193t80.5 -104t173 -32h1q47 0 80 -33t33 -80q0 -46 -33 -79.5t-80 -33.5h-1q-146 0 -240.5 47.5t-144.5 161.5q-65 -118 -166.5 -163.5
t-258.5 -45.5q-46 0 -80 33.5t-34 79.5zM-47 -428q0 45 33.5 81.5t86.5 36.5q38 0 64 -16t41 -39q20 -33 20 -64q0 -37 -25.5 -80.5t-98.5 -43.5q-50 0 -75.5 21.5t-36.5 49.5q-9 26 -9 54z" />
    <glyph glyph-name="uniFE94" unicode="&#x629;" horiz-adv-x="1100" arabic-form="final" 
d="M105 372q0 136 91 239.5t238 175.5q59 29 111.5 62t68.5 66v5q-4 46 26.5 82.5t76.5 40.5q47 5 83 -25.5t40 -77.5l2 -19q1 -6 1 -12l47 -523q9 -100 32 -148.5t66 -64t111 -15.5h1q47 0 80 -33t33 -80q0 -46 -33 -79.5t-80 -33.5h-1q-137 0 -224 41.5t-136 122.5
q-28 -29 -67 -35q-28 -4 -60 -5.5t-55 -1.5q-222 0 -337 86.5t-115 231.5zM334 385q0 -105 223 -105q16 0 38.5 2t44.5 5q17 2 34 -1q-6 37 -10 80l-25 274q-47 -29 -108 -60q-83 -43 -140 -90.5t-57 -104.5zM230 1355q-10 36 7.5 69t54.5 45q56 17 129.5 26t145.5 9
q71 0 128.5 -9t97.5 -25q37 -20 47.5 -60t-12.5 -74q-19 -27 -46 -36.5t-56 -2.5q-29 8 -72.5 13t-86.5 5q-68 0 -126.5 -5.5t-96.5 -17.5q-36 -10 -69.5 9t-44.5 54z" />
    <glyph glyph-name="uniFE96" unicode="&#x62a;" horiz-adv-x="1937" arabic-form="final" 
d="M65 414q0 58 11 118.5t31 124.5q14 44 56 66t86 8q44 -13 66.5 -55.5t8.5 -86.5q-16 -51 -23 -95t-7 -80q0 -84 41 -148.5t136.5 -101t258.5 -36.5q342 0 520.5 111t223.5 333q8 41 42 68t80 22q44 -4 75 -39.5t28 -80.5q-2 -31 -3.5 -58.5t-1.5 -53.5q0 -138 53 -205
t189 -67h1q47 0 80 -33t33 -80q0 -46 -33 -79.5t-80 -33.5h-1q-159 0 -251.5 76.5t-125.5 224.5q-132 -178 -348.5 -254.5t-480.5 -76.5q-190 0 -340.5 58t-237.5 172t-87 282zM519 724q-10 36 7.5 69t54.5 45q56 17 129.5 26t145.5 9q71 0 128.5 -9t97.5 -25
q37 -20 47.5 -60t-12.5 -74q-19 -27 -46 -36.5t-56 -2.5q-29 8 -72.5 13t-86.5 5q-68 0 -126.5 -5.5t-96.5 -17.5q-36 -10 -69.5 9t-44.5 54z" />
    <glyph glyph-name="uniFE97" unicode="&#x62a;" horiz-adv-x="560" arabic-form="initial" 
d="M-113 45q0 47 33.5 80t79.5 33q134 0 192 41t58 155q0 40 -6 102.5t-18 125.5q-6 46 22.5 83.5t74.5 44.5q47 7 84 -21.5t45 -74.5q14 -74 21 -142t7 -119q0 -205 -122.5 -313t-357.5 -108q-46 0 -79.5 33.5t-33.5 79.5zM-76 974q-10 36 7.5 69t54.5 45q56 17 129.5 26
t145.5 9q71 0 128.5 -9t97.5 -25q37 -20 47.5 -60t-12.5 -74q-19 -27 -46 -36.5t-56 -2.5q-29 8 -72.5 13t-86.5 5q-68 0 -126.5 -5.5t-96.5 -17.5q-36 -10 -69.5 9t-44.5 54z" />
    <glyph glyph-name="uniFE98" unicode="&#x62a;" horiz-adv-x="811" arabic-form="medial" 
d="M-114 45q0 47 34 80t80 33q136 0 201.5 31.5t87 106.5t24.5 203q3 53 38.5 82t83.5 26q47 -3 78 -38.5t27 -81.5q-4 -121 16.5 -193t80.5 -104t173 -32h1q47 0 80 -33t33 -80q0 -46 -33 -79.5t-80 -33.5h-1q-146 0 -240.5 47.5t-144.5 161.5q-65 -118 -166.5 -163.5
t-258.5 -45.5q-46 0 -80 33.5t-34 79.5zM-10 916q-10 36 7.5 69t54.5 45q56 17 129.5 26t145.5 9q71 0 128.5 -9t97.5 -25q37 -20 47.5 -60t-12.5 -74q-19 -27 -46 -36.5t-56 -2.5q-29 8 -72.5 13t-86.5 5q-68 0 -126.5 -5.5t-96.5 -17.5q-36 -10 -69.5 9t-44.5 54z" />
    <glyph glyph-name="uniFE9A" unicode="&#x62b;" horiz-adv-x="1937" arabic-form="final" 
d="M65 414q0 58 11 118.5t31 124.5q14 44 56 66t86 8q44 -13 66.5 -55.5t8.5 -86.5q-16 -51 -23 -95t-7 -80q0 -84 41 -148.5t136.5 -101t258.5 -36.5q342 0 520.5 111t223.5 333q8 41 42 68t80 22q44 -4 75 -39.5t28 -80.5q-2 -31 -3.5 -58.5t-1.5 -53.5q0 -138 53 -205
t189 -67h1q47 0 80 -33t33 -80q0 -46 -33 -79.5t-80 -33.5h-1q-159 0 -251.5 76.5t-125.5 224.5q-132 -178 -348.5 -254.5t-480.5 -76.5q-190 0 -340.5 58t-237.5 172t-87 282zM528 836q0 89 40.5 148t104.5 88.5t135.5 29.5t135.5 -29t104.5 -87.5t40.5 -146.5
q0 -35 -6.5 -68t-21.5 -61q-16 -34 -49.5 -51.5t-72.5 4.5q-30 18 -37.5 48t5.5 63q16 30 16 65q0 49 -34.5 73.5t-80 24t-80 -25.5t-34.5 -75q0 -43 20.5 -73t63.5 -72q23 -24 17.5 -57.5t-29.5 -54.5q-26 -24 -60.5 -18t-59.5 30q-46 44 -82 97.5t-36 147.5z" />
    <glyph glyph-name="uniFE9B" unicode="&#x62b;" horiz-adv-x="560" arabic-form="initial" 
d="M-113 45q0 47 33.5 80t79.5 33q134 0 192 41t58 155q0 40 -6 102.5t-18 125.5q-6 46 22.5 83.5t74.5 44.5q47 7 84 -21.5t45 -74.5q14 -74 21 -142t7 -119q0 -205 -122.5 -313t-357.5 -108q-46 0 -79.5 33.5t-33.5 79.5zM-52 1079q0 89 40.5 148t104.5 88.5t135.5 29.5
t135.5 -29t104.5 -87.5t40.5 -146.5q0 -35 -6.5 -68t-21.5 -61q-16 -34 -49.5 -51.5t-72.5 4.5q-30 18 -37.5 48t5.5 63q16 30 16 65q0 49 -34.5 73.5t-80 24t-80 -25.5t-34.5 -75q0 -43 20.5 -73t63.5 -72q23 -24 17.5 -57.5t-29.5 -54.5q-26 -24 -60.5 -18t-59.5 30
q-46 44 -82 97.5t-36 147.5z" />
    <glyph glyph-name="uniFE9C" unicode="&#x62b;" horiz-adv-x="811" arabic-form="medial" 
d="M-114 45q0 47 34 80t80 33q136 0 201.5 31.5t87 106.5t24.5 203q3 53 38.5 82t83.5 26q47 -3 78 -38.5t27 -81.5q-4 -121 16.5 -193t80.5 -104t173 -32h1q47 0 80 -33t33 -80q0 -46 -33 -79.5t-80 -33.5h-1q-146 0 -240.5 47.5t-144.5 161.5q-65 -118 -166.5 -163.5
t-258.5 -45.5q-46 0 -80 33.5t-34 79.5zM-38 1063q0 89 40.5 148t104.5 88.5t135.5 29.5t135.5 -29t104.5 -87.5t40.5 -146.5q0 -35 -6.5 -68t-21.5 -61q-16 -34 -49.5 -51.5t-72.5 4.5q-30 18 -37.5 48t5.5 63q16 30 16 65q0 49 -34.5 73.5t-80 24t-80 -25.5t-34.5 -75
q0 -43 20.5 -73t63.5 -72q23 -24 17.5 -57.5t-29.5 -54.5q-26 -24 -60.5 -18t-59.5 30q-46 44 -82 97.5t-36 147.5z" />
    <glyph glyph-name="uniFE9E" unicode="&#x62c;" horiz-adv-x="1392" arabic-form="final" 
d="M403 900q66 0 152 -31.5t183 -78t199 -92.5t201 -75q100 -28 100 -116q0 -43 -35 -75.5t-94 -44.5q-19 -3 -39 -7q30 -127 104.5 -174.5t216.5 -47.5h1q47 0 80 -33t33 -80q0 -46 -33 -79.5t-80 -33.5h-1q-217 0 -357.5 100t-182.5 296q-263 -77 -413 -202t-150 -280
q0 -94 54 -160.5t148 -101.5t215 -35q89 0 187.5 18t192.5 53q47 17 88.5 0.5t57.5 -57.5q18 -43 0.5 -86.5t-60.5 -63.5q-98 -43 -215.5 -65.5t-232.5 -22.5q-191 0 -339.5 63t-233 180.5t-84.5 279.5q0 229 190.5 394.5t555.5 279.5q-64 30 -140 63.5t-140.5 57
t-96.5 23.5q-41 0 -66 -34.5t-42 -86.5q-13 -45 -54 -69.5t-85 -13.5q-44 12 -69.5 53.5t-13.5 86.5q36 130 113 214t185 84zM546 -97q0 45 33.5 81.5t86.5 36.5q38 0 64 -16t41 -39q20 -33 20 -64q0 -37 -25.5 -80.5t-98.5 -43.5q-50 0 -75.5 21.5t-36.5 49.5q-9 26 -9 54z
" />
    <glyph glyph-name="uniFE9F" unicode="&#x62c;" horiz-adv-x="1299" arabic-form="initial" 
d="M380 836q89 0 190 -42.5t210 -98.5q71 -37 160 -77.5t200 -87.5q30 -13 49 -42.5t19 -61.5q0 -63 -53 -96q-279 -184 -562 -291t-593 -107q-47 0 -80.5 33.5t-33.5 79.5t33.5 79.5t80.5 33.5q217 0 426 64.5t419 189.5q-59 28 -112 53t-101 51q-77 41 -133.5 65t-97.5 24
q-46 0 -75.5 -35.5t-67.5 -118.5q-14 -37 -64.5 -57.5t-99.5 10.5q-31 20 -45 61t5 83q60 129 134 208.5t192 79.5zM344 -323q0 45 33.5 81.5t86.5 36.5q38 0 64 -16t41 -39q20 -33 20 -64q0 -37 -25.5 -80.5t-98.5 -43.5q-50 0 -75.5 21.5t-36.5 49.5q-9 26 -9 54z" />
    <glyph glyph-name="uniFEA0" unicode="&#x62c;" horiz-adv-x="1321" arabic-form="medial" 
d="M380 836q89 0 190 -42.5t210 -98.5q71 -37 160 -77.5t200 -87.5q30 -13 49 -42.5t19 -61.5q0 -63 -53 -96q-46 -30 -90 -58q21 -58 82.5 -86t172.5 -28h1q47 0 80 -33t33 -80q0 -46 -33 -79.5t-80 -33.5h-1q-150 0 -272.5 55.5t-180.5 172.5q-208 -108 -422.5 -168
t-444.5 -60q-47 0 -80.5 33.5t-33.5 79.5t33.5 79.5t80.5 33.5q217 0 426 64.5t419 189.5q-59 28 -112 53t-101 51q-77 41 -133.5 65t-97.5 24q-46 0 -75.5 -35.5t-67.5 -118.5q-14 -37 -64.5 -57.5t-99.5 10.5q-31 20 -45 61t5 83q60 129 134 208.5t192 79.5zM468 -323
q0 45 33.5 81.5t86.5 36.5q38 0 64 -16t41 -39q20 -33 20 -64q0 -37 -25.5 -80.5t-98.5 -43.5q-50 0 -75.5 21.5t-36.5 49.5q-9 26 -9 54z" />
    <glyph glyph-name="uniFEA2" unicode="&#x62d;" horiz-adv-x="1392" arabic-form="final" 
d="M403 900q66 0 152 -31.5t183 -78t199 -92.5t201 -75q100 -28 100 -116q0 -43 -35 -75.5t-94 -44.5q-19 -3 -39 -7q30 -127 104.5 -174.5t216.5 -47.5h1q47 0 80 -33t33 -80q0 -46 -33 -79.5t-80 -33.5h-1q-217 0 -357.5 100t-182.5 296q-263 -77 -413 -202t-150 -280
q0 -94 54 -160.5t148 -101.5t215 -35q89 0 187.5 18t192.5 53q47 17 88.5 0.5t57.5 -57.5q18 -43 0.5 -86.5t-60.5 -63.5q-98 -43 -215.5 -65.5t-232.5 -22.5q-191 0 -339.5 63t-233 180.5t-84.5 279.5q0 229 190.5 394.5t555.5 279.5q-64 30 -140 63.5t-140.5 57
t-96.5 23.5q-41 0 -66 -34.5t-42 -86.5q-13 -45 -54 -69.5t-85 -13.5q-44 12 -69.5 53.5t-13.5 86.5q36 130 113 214t185 84z" />
    <glyph glyph-name="uniFEA3" unicode="&#x62d;" horiz-adv-x="1299" arabic-form="initial" 
d="M380 836q89 0 190 -42.5t210 -98.5q71 -37 160 -77.5t200 -87.5q30 -13 49 -42.5t19 -61.5q0 -63 -53 -96q-279 -184 -562 -291t-593 -107q-47 0 -80.5 33.5t-33.5 79.5t33.5 79.5t80.5 33.5q217 0 426 64.5t419 189.5q-59 28 -112 53t-101 51q-77 41 -133.5 65t-97.5 24
q-46 0 -75.5 -35.5t-67.5 -118.5q-14 -37 -64.5 -57.5t-99.5 10.5q-31 20 -45 61t5 83q60 129 134 208.5t192 79.5z" />
    <glyph glyph-name="uniFEA4" unicode="&#x62d;" horiz-adv-x="1321" arabic-form="medial" 
d="M380 836q89 0 190 -42.5t210 -98.5q71 -37 160 -77.5t200 -87.5q30 -13 49 -42.5t19 -61.5q0 -63 -53 -96q-46 -30 -90 -58q21 -58 82.5 -86t172.5 -28h1q47 0 80 -33t33 -80q0 -46 -33 -79.5t-80 -33.5h-1q-150 0 -272.5 55.5t-180.5 172.5q-208 -108 -422.5 -168
t-444.5 -60q-47 0 -80.5 33.5t-33.5 79.5t33.5 79.5t80.5 33.5q217 0 426 64.5t419 189.5q-59 28 -112 53t-101 51q-77 41 -133.5 65t-97.5 24q-46 0 -75.5 -35.5t-67.5 -118.5q-14 -37 -64.5 -57.5t-99.5 10.5q-31 20 -45 61t5 83q60 129 134 208.5t192 79.5z" />
    <glyph glyph-name="uniFEA6" unicode="&#x62e;" horiz-adv-x="1392" arabic-form="final" 
d="M403 900q66 0 152 -31.5t183 -78t199 -92.5t201 -75q100 -28 100 -116q0 -43 -35 -75.5t-94 -44.5q-19 -3 -39 -7q30 -127 104.5 -174.5t216.5 -47.5h1q47 0 80 -33t33 -80q0 -46 -33 -79.5t-80 -33.5h-1q-217 0 -357.5 100t-182.5 296q-263 -77 -413 -202t-150 -280
q0 -94 54 -160.5t148 -101.5t215 -35q89 0 187.5 18t192.5 53q47 17 88.5 0.5t57.5 -57.5q18 -43 0.5 -86.5t-60.5 -63.5q-98 -43 -215.5 -65.5t-232.5 -22.5q-191 0 -339.5 63t-233 180.5t-84.5 279.5q0 229 190.5 394.5t555.5 279.5q-64 30 -140 63.5t-140.5 57
t-96.5 23.5q-41 0 -66 -34.5t-42 -86.5q-13 -45 -54 -69.5t-85 -13.5q-44 12 -69.5 53.5t-13.5 86.5q36 130 113 214t185 84zM303 1276q0 45 33.5 81.5t86.5 36.5q38 0 64 -16t41 -39q20 -33 20 -64q0 -37 -25.5 -80.5t-98.5 -43.5q-50 0 -75.5 21.5t-36.5 49.5q-9 26 -9 54
z" />
    <glyph glyph-name="uniFEA7" unicode="&#x62e;" horiz-adv-x="1299" arabic-form="initial" 
d="M380 836q89 0 190 -42.5t210 -98.5q71 -37 160 -77.5t200 -87.5q30 -13 49 -42.5t19 -61.5q0 -63 -53 -96q-279 -184 -562 -291t-593 -107q-47 0 -80.5 33.5t-33.5 79.5t33.5 79.5t80.5 33.5q217 0 426 64.5t419 189.5q-59 28 -112 53t-101 51q-77 41 -133.5 65t-97.5 24
q-46 0 -75.5 -35.5t-67.5 -118.5q-14 -37 -64.5 -57.5t-99.5 10.5q-31 20 -45 61t5 83q60 129 134 208.5t192 79.5zM279 1209q0 45 33.5 81.5t86.5 36.5q38 0 64 -16t41 -39q20 -33 20 -64q0 -37 -25.5 -80.5t-98.5 -43.5q-50 0 -75.5 21.5t-36.5 49.5q-9 26 -9 54z" />
    <glyph glyph-name="uniFEA8" unicode="&#x62e;" horiz-adv-x="1321" arabic-form="medial" 
d="M380 836q89 0 190 -42.5t210 -98.5q71 -37 160 -77.5t200 -87.5q30 -13 49 -42.5t19 -61.5q0 -63 -53 -96q-46 -30 -90 -58q21 -58 82.5 -86t172.5 -28h1q47 0 80 -33t33 -80q0 -46 -33 -79.5t-80 -33.5h-1q-150 0 -272.5 55.5t-180.5 172.5q-208 -108 -422.5 -168
t-444.5 -60q-47 0 -80.5 33.5t-33.5 79.5t33.5 79.5t80.5 33.5q217 0 426 64.5t419 189.5q-59 28 -112 53t-101 51q-77 41 -133.5 65t-97.5 24q-46 0 -75.5 -35.5t-67.5 -118.5q-14 -37 -64.5 -57.5t-99.5 10.5q-31 20 -45 61t5 83q60 129 134 208.5t192 79.5zM243 1209
q0 45 33.5 81.5t86.5 36.5q38 0 64 -16t41 -39q20 -33 20 -64q0 -37 -25.5 -80.5t-98.5 -43.5q-50 0 -75.5 21.5t-36.5 49.5q-9 26 -9 54z" />
    <glyph glyph-name="uniFEAA" unicode="&#x62f;" horiz-adv-x="1121" arabic-form="final" 
d="M70 76q13 45 53 66.5t87 10.5q47 -12 89.5 -18.5t90.5 -6.5q140 0 199 43.5t59 125.5q0 22 -6 44q-7 19 -15 42q-28 83 -67 161.5t-96 177.5q-24 41 -12.5 87t51.5 70t86 13t70 -52q57 -98 101.5 -184t81.5 -199q34 -96 68.5 -162.5t83.5 -101t126 -35.5h1q47 0 80 -33
t33 -80q0 -46 -33 -79.5t-80 -33.5h-1q-108 0 -186 37t-134 94q-71 -88 -185 -124.5t-225 -36.5q-67 0 -120.5 7.5t-121.5 26.5q-45 11 -67.5 53t-10.5 87z" />
    <glyph glyph-name="uniFEAC" unicode="&#x630;" horiz-adv-x="1121" arabic-form="final" 
d="M70 76q13 45 53 66.5t87 10.5q47 -12 89.5 -18.5t90.5 -6.5q140 0 199 43.5t59 125.5q0 22 -6 44q-7 19 -15 42q-28 83 -67 161.5t-96 177.5q-24 41 -12.5 87t51.5 70t86 13t70 -52q57 -98 101.5 -184t81.5 -199q34 -96 68.5 -162.5t83.5 -101t126 -35.5h1q47 0 80 -33
t33 -80q0 -46 -33 -79.5t-80 -33.5h-1q-108 0 -186 37t-134 94q-71 -88 -185 -124.5t-225 -36.5q-67 0 -120.5 7.5t-121.5 26.5q-45 11 -67.5 53t-10.5 87zM421 1269q0 45 33.5 81.5t86.5 36.5q38 0 64 -16t41 -39q20 -33 20 -64q0 -37 -25.5 -80.5t-98.5 -43.5
q-50 0 -75.5 21.5t-36.5 49.5q-9 26 -9 54z" />
    <glyph glyph-name="uniFEAE" unicode="&#x631;" horiz-adv-x="947" arabic-form="final" 
d="M431 458q-15 44 12 85t73 52q16 4 31 3q38 -2 65.5 -25t37.5 -54q2 -4 3 -9q47 -181 108 -266.5t185 -85.5h1q47 0 80 -33t33 -80q0 -46 -33 -79.5t-80 -33.5h-1q-74 0 -136 22.5t-113 61.5q-30 -238 -165 -391.5t-335 -220.5q-51 -17 -92 8t-53 65q-16 53 9 91.5
t62 51.5q166 56 260.5 182.5t94.5 337.5q0 136 -41 298z" />
    <glyph glyph-name="uniFEB0" unicode="&#x632;" horiz-adv-x="947" arabic-form="final" 
d="M431 458q-15 44 12 85t73 52q16 4 31 3q38 -2 65.5 -25t37.5 -54q2 -4 3 -9q47 -181 108 -266.5t185 -85.5h1q47 0 80 -33t33 -80q0 -46 -33 -79.5t-80 -33.5h-1q-74 0 -136 22.5t-113 61.5q-30 -238 -165 -391.5t-335 -220.5q-51 -17 -92 8t-53 65q-16 53 9 91.5
t62 51.5q166 56 260.5 182.5t94.5 337.5q0 136 -41 298zM397 1003q0 45 33.5 81.5t86.5 36.5q38 0 64 -16t41 -39q20 -33 20 -64q0 -37 -25.5 -80.5t-98.5 -43.5q-50 0 -75.5 21.5t-36.5 49.5q-9 26 -9 54z" />
    <glyph glyph-name="uniFEB2" unicode="&#x633;" horiz-adv-x="2430" arabic-form="final" 
d="M71 -52q0 96 25.5 203.5t74.5 230.5q17 44 61 62.5t87 1.5t62 -60.5t2 -86.5q-83 -204 -83 -351q0 -142 89 -225t273 -83q181 0 275 91t94 243q0 78 -20.5 176t-55.5 189l-2 6q-17 44 2 88t62 60q20 8 42 7q23 0 44 -9q45 -20 61 -63q63 -163 111 -228.5t113 -65.5
q63 0 98 53t56 196q1 15 4 35q2 13 7 24v1l2 4v1l2 4h1q15 27 43.5 42.5t61.5 11.5q42 -5 68 -40t20 -77q-1 -4 -1 -8q-1 -9 -3 -18q-3 -28 -4.5 -50.5t-1.5 -49.5q0 -64 39 -98.5t99 -34.5q65 0 100.5 44t35.5 114q0 37 -1.5 71t-6.5 69q-3 20 -7 41q-7 42 15 78t61 49
q8 3 16 4q25 4 49 -2q31 -8 54.5 -32t28.5 -57q3 -18 5 -34q21 -126 41.5 -194.5t56.5 -95.5t102 -27h1q47 0 80 -33t33 -80q0 -46 -33 -79.5t-80 -33.5h-1q-167 0 -264 105q-47 -62 -117 -98.5t-155 -36.5q-81 0 -148.5 34.5t-115.5 90.5q-92 -121 -245 -121q-69 0 -128 25
q-13 -150 -90 -266.5t-205.5 -183.5t-296.5 -67q-188 0 -320.5 66.5t-202.5 186.5t-70 281z" />
    <glyph glyph-name="uniFEB3" unicode="&#x633;" horiz-adv-x="1652" arabic-form="initial" 
d="M-113 45q0 47 33 80t80 33q112 0 177.5 65t87.5 181q4 29 10 76q8 47 45.5 75t83.5 21t74.5 -45t22.5 -85q-1 -8 -2 -14l-4 -30q-5 -34 -6.5 -54t-1.5 -39q0 -77 35.5 -124t101.5 -47q79 0 124.5 67.5t64.5 199.5q2 24 6 50v4q5 53 51 81q0 1 1 1h1q33 20 71 15
q35 -5 60 -30t31 -58v-2v-1q2 -13 1 -26q-3 -27 -7 -53q-2 -24 -2 -45q0 -89 38 -145t121 -56q77 0 114 49t37 137q0 44 -6.5 90.5t-18.5 97.5q-10 46 15 85.5t70 49.5q45 11 86 -13.5t51 -71.5q18 -77 24 -123t6 -101q0 -193 -97 -309.5t-267 -116.5q-98 0 -175 40
t-128 112q-57 -72 -130.5 -113t-159.5 -41q-90 0 -162 43.5t-117 116.5q-64 -64 -147 -102t-180 -38q-46 0 -79.5 33.5t-33.5 79.5z" />
    <glyph glyph-name="uniFEB4" unicode="&#x633;" horiz-adv-x="1817" arabic-form="medial" 
d="M-113 45q0 47 33 80t80 33q112 0 177.5 65t87.5 181q4 29 10 76q8 47 45.5 75t83.5 21t74.5 -45t22.5 -85q-1 -8 -2 -14l-4 -30q-5 -34 -6.5 -54t-1.5 -39q0 -77 35.5 -124t101.5 -47q79 0 124.5 67.5t64.5 199.5q2 24 6 50v4q5 53 51 81q0 1 1 1h1q33 20 71 15
q35 -5 60 -30t31 -58v-2v-1q2 -13 1 -26q-3 -27 -7 -53q-2 -24 -2 -45q0 -89 38 -145t121 -56q77 0 114 49t37 137q0 44 -6.5 90.5t-18.5 97.5q-7 27 1 55q18 66 84 80q45 13 86 -12.5t51 -71.5q1 -6 2 -11q5 -20 9 -37q43 -188 106.5 -273.5t165.5 -85.5h1q47 0 80 -33
t33 -80q0 -46 -33 -79.5t-80 -33.5h-1q-95 0 -172 41.5t-139 114.5q-45 -82 -123 -128t-183 -46q-98 0 -175 40t-128 112q-57 -72 -130.5 -113t-159.5 -41q-90 0 -162 43.5t-117 116.5q-64 -64 -147 -102t-180 -38q-46 0 -79.5 33.5t-33.5 79.5z" />
    <glyph glyph-name="uniFEB6" unicode="&#x634;" horiz-adv-x="2430" arabic-form="final" 
d="M71 -52q0 96 25.5 203.5t74.5 230.5q17 44 61 62.5t87 1.5t62 -60.5t2 -86.5q-83 -204 -83 -351q0 -142 89 -225t273 -83q181 0 275 91t94 243q0 78 -20.5 176t-55.5 189l-2 6q-17 44 2 88t62 60q20 8 42 7q23 0 44 -9q45 -20 61 -63q63 -163 111 -228.5t113 -65.5
q63 0 98 53t56 196q1 15 4 35q2 13 7 24v1l2 4v1l2 4h1q15 27 43.5 42.5t61.5 11.5q42 -5 68 -40t20 -77q-1 -4 -1 -8q-1 -9 -3 -18q-3 -28 -4.5 -50.5t-1.5 -49.5q0 -64 39 -98.5t99 -34.5q65 0 100.5 44t35.5 114q0 37 -1.5 71t-6.5 69q-3 20 -7 41q-7 42 15 78t61 49
q8 3 16 4q25 4 49 -2q31 -8 54.5 -32t28.5 -57q3 -18 5 -34q21 -126 41.5 -194.5t56.5 -95.5t102 -27h1q47 0 80 -33t33 -80q0 -46 -33 -79.5t-80 -33.5h-1q-167 0 -264 105q-47 -62 -117 -98.5t-155 -36.5q-81 0 -148.5 34.5t-115.5 90.5q-92 -121 -245 -121q-69 0 -128 25
q-13 -150 -90 -266.5t-205.5 -183.5t-296.5 -67q-188 0 -320.5 66.5t-202.5 186.5t-70 281zM1168 976q0 89 40.5 148t104.5 88.5t135.5 29.5t135.5 -29t104.5 -87.5t40.5 -146.5q0 -35 -6.5 -68t-21.5 -61q-16 -34 -49.5 -51.5t-72.5 4.5q-30 18 -37.5 48t5.5 63
q16 30 16 65q0 49 -34.5 73.5t-80 24t-80 -25.5t-34.5 -75q0 -43 20.5 -73t63.5 -72q23 -24 17.5 -57.5t-29.5 -54.5q-26 -24 -60.5 -18t-59.5 30q-46 44 -82 97.5t-36 147.5z" />
    <glyph glyph-name="uniFEB7" unicode="&#x634;" horiz-adv-x="1652" arabic-form="initial" 
d="M-113 45q0 47 33 80t80 33q112 0 177.5 65t87.5 181q4 29 10 76q8 47 45.5 75t83.5 21t74.5 -45t22.5 -85q-1 -8 -2 -14l-4 -30q-5 -34 -6.5 -54t-1.5 -39q0 -77 35.5 -124t101.5 -47q79 0 124.5 67.5t64.5 199.5q2 24 6 50v4q5 53 51 81q0 1 1 1h1q33 20 71 15
q35 -5 60 -30t31 -58v-2v-1q2 -13 1 -26q-3 -27 -7 -53q-2 -24 -2 -45q0 -89 38 -145t121 -56q77 0 114 49t37 137q0 44 -6.5 90.5t-18.5 97.5q-10 46 15 85.5t70 49.5q45 11 86 -13.5t51 -71.5q18 -77 24 -123t6 -101q0 -193 -97 -309.5t-267 -116.5q-98 0 -175 40
t-128 112q-57 -72 -130.5 -113t-159.5 -41q-90 0 -162 43.5t-117 116.5q-64 -64 -147 -102t-180 -38q-46 0 -79.5 33.5t-33.5 79.5zM525 1043q0 89 40.5 148t104.5 88.5t135.5 29.5t135.5 -29t104.5 -87.5t40.5 -146.5q0 -35 -6.5 -68t-21.5 -61q-16 -34 -49.5 -51.5
t-72.5 4.5q-30 18 -37.5 48t5.5 63q16 30 16 65q0 49 -34.5 73.5t-80 24t-80 -25.5t-34.5 -75q0 -43 20.5 -73t63.5 -72q23 -24 17.5 -57.5t-29.5 -54.5q-26 -24 -60.5 -18t-59.5 30q-46 44 -82 97.5t-36 147.5z" />
    <glyph glyph-name="uniFEB8" unicode="&#x634;" horiz-adv-x="1817" arabic-form="medial" 
d="M-113 45q0 47 33 80t80 33q112 0 177.5 65t87.5 181q4 29 10 76q8 47 45.5 75t83.5 21t74.5 -45t22.5 -85q-1 -8 -2 -14l-4 -30q-5 -34 -6.5 -54t-1.5 -39q0 -77 35.5 -124t101.5 -47q79 0 124.5 67.5t64.5 199.5q2 24 6 50v4q5 53 51 81q0 1 1 1h1q33 20 71 15
q35 -5 60 -30t31 -58v-2v-1q2 -13 1 -26q-3 -27 -7 -53q-2 -24 -2 -45q0 -89 38 -145t121 -56q77 0 114 49t37 137q0 44 -6.5 90.5t-18.5 97.5q-7 27 1 55q18 66 84 80q45 13 86 -12.5t51 -71.5q1 -6 2 -11q5 -20 9 -37q43 -188 106.5 -273.5t165.5 -85.5h1q47 0 80 -33
t33 -80q0 -46 -33 -79.5t-80 -33.5h-1q-95 0 -172 41.5t-139 114.5q-45 -82 -123 -128t-183 -46q-98 0 -175 40t-128 112q-57 -72 -130.5 -113t-159.5 -41q-90 0 -162 43.5t-117 116.5q-64 -64 -147 -102t-180 -38q-46 0 -79.5 33.5t-33.5 79.5zM525 1043q0 89 40.5 148
t104.5 88.5t135.5 29.5t135.5 -29t104.5 -87.5t40.5 -146.5q0 -35 -6.5 -68t-21.5 -61q-16 -34 -49.5 -51.5t-72.5 4.5q-30 18 -37.5 48t5.5 63q16 30 16 65q0 49 -34.5 73.5t-80 24t-80 -25.5t-34.5 -75q0 -43 20.5 -73t63.5 -72q23 -24 17.5 -57.5t-29.5 -54.5
q-26 -24 -60.5 -18t-59.5 30q-46 44 -82 97.5t-36 147.5z" />
    <glyph glyph-name="uniFEBA" unicode="&#x635;" horiz-adv-x="2452" arabic-form="final" 
d="M75 -50q0 183 96 426q18 44 62 62.5t86 1.5q44 -17 63 -60t1 -87q-80 -203 -80 -343q0 -148 91 -229t267 -81q169 0 271 84t102 251q0 70 -17.5 166t-54.5 189q-4 8 -7 16q-16 39 -2.5 78.5t47.5 61.5q9 5 18 9q6 3 13 4h1q1 1 2 1q40 9 77.5 -9.5t53.5 -57.5
q45 -109 121 -178q119 226 278 354t345 128q110 0 195 -44.5t134 -126t49 -192.5q0 -81 -31 -154q25 -30 69 -46t126 -16h1q47 0 80 -33t33 -80q0 -46 -33 -79.5t-80 -33.5h-1q-107 0 -191 29t-144 81q-84 -66 -200 -103t-252 -37q-232 0 -402 93v-5q0 -173 -78 -303
t-213 -201.5t-307 -71.5q-185 0 -317 66.5t-202 187t-70 282.5zM1882 509q-111 0 -213.5 -93t-192.5 -265q84 -23 188 -23q179 0 288 65t109 159q0 74 -50 115.5t-129 41.5z" />
    <glyph glyph-name="uniFEBB" unicode="&#x635;" horiz-adv-x="1694" arabic-form="initial" 
d="M-113 45q0 47 33.5 80t79.5 33q131 0 211.5 71t93.5 257q2 19 10 37q25 56 87 65q13 2 26 1q29 -3 53 -19q48 -32 51 -88q10 -138 71 -214q120 220 271.5 348.5t336.5 128.5q109 0 194.5 -46.5t135 -129t49.5 -192.5q0 -138 -83.5 -240.5t-223 -158.5t-309.5 -56
q-168 0 -304 53q-14 -30 -28 -62q-19 -44 -59.5 -55.5t-73.5 7.5q-29 17 -39 51.5t5 74.5q16 40 32 77q-44 35 -79 78q-69 -103 -178.5 -158.5t-249.5 -55.5q-46 0 -79.5 33.5t-33.5 79.5zM1185 517q-118 0 -221 -94.5t-195 -252.5q83 -22 205 -22q170 0 279.5 51t109.5 163
q0 74 -53 114.5t-125 40.5z" />
    <glyph glyph-name="uniFEBC" unicode="&#x635;" horiz-adv-x="1791" arabic-form="medial" 
d="M-113 45q0 47 33.5 80t79.5 33q131 0 211.5 71t93.5 257q2 19 10 37q25 56 87 65q13 2 26 1q29 -3 53 -19q48 -32 51 -88q10 -138 71 -214q120 220 271.5 348.5t336.5 128.5q109 0 194.5 -46.5t135 -129t49.5 -192.5q0 -63 -19 -120q25 -53 72 -76t147 -23h1q47 0 80 -33
t33 -80q0 -46 -33 -79.5t-80 -33.5h-1q-111 0 -201.5 35t-153.5 98q-85 -68 -204.5 -105.5t-256.5 -37.5q-168 0 -304 53q-14 -30 -28 -62q-19 -44 -59.5 -55.5t-73.5 7.5q-29 17 -39 51.5t5 74.5q16 40 32 77q-44 35 -79 78q-69 -103 -178.5 -158.5t-249.5 -55.5
q-46 0 -79.5 33.5t-33.5 79.5zM1185 517q-118 0 -221 -94.5t-195 -252.5q83 -22 205 -22q170 0 279.5 51t109.5 163q0 74 -53 114.5t-125 40.5z" />
    <glyph glyph-name="uniFEBE" unicode="&#x636;" horiz-adv-x="2452" arabic-form="final" 
d="M75 -50q0 183 96 426q18 44 62 62.5t86 1.5q44 -17 63 -60t1 -87q-80 -203 -80 -343q0 -148 91 -229t267 -81q169 0 271 84t102 251q0 70 -17.5 166t-54.5 189q-4 8 -7 16q-16 39 -2.5 78.5t47.5 61.5q9 5 18 9q6 3 13 4h1q1 1 2 1q40 9 77.5 -9.5t53.5 -57.5
q45 -109 121 -178q119 226 278 354t345 128q110 0 195 -44.5t134 -126t49 -192.5q0 -81 -31 -154q25 -30 69 -46t126 -16h1q47 0 80 -33t33 -80q0 -46 -33 -79.5t-80 -33.5h-1q-107 0 -191 29t-144 81q-84 -66 -200 -103t-252 -37q-232 0 -402 93v-5q0 -173 -78 -303
t-213 -201.5t-307 -71.5q-185 0 -317 66.5t-202 187t-70 282.5zM1882 509q-111 0 -213.5 -93t-192.5 -265q84 -23 188 -23q179 0 288 65t109 159q0 74 -50 115.5t-129 41.5zM1799 1085q0 45 33.5 81.5t86.5 36.5q38 0 64 -16t41 -39q20 -33 20 -64q0 -37 -25.5 -80.5
t-98.5 -43.5q-50 0 -75.5 21.5t-36.5 49.5q-9 26 -9 54z" />
    <glyph glyph-name="uniFEBF" unicode="&#x636;" horiz-adv-x="1694" arabic-form="initial" 
d="M-113 45q0 47 33.5 80t79.5 33q131 0 211.5 71t93.5 257q2 19 10 37q25 56 87 65q13 2 26 1q29 -3 53 -19q48 -32 51 -88q10 -138 71 -214q120 220 271.5 348.5t336.5 128.5q109 0 194.5 -46.5t135 -129t49.5 -192.5q0 -138 -83.5 -240.5t-223 -158.5t-309.5 -56
q-168 0 -304 53q-14 -30 -28 -62q-19 -44 -59.5 -55.5t-73.5 7.5q-29 17 -39 51.5t5 74.5q16 40 32 77q-44 35 -79 78q-69 -103 -178.5 -158.5t-249.5 -55.5q-46 0 -79.5 33.5t-33.5 79.5zM1185 517q-118 0 -221 -94.5t-195 -252.5q83 -22 205 -22q170 0 279.5 51t109.5 163
q0 74 -53 114.5t-125 40.5zM1089 1097q0 45 33.5 81.5t86.5 36.5q38 0 64 -16t41 -39q20 -33 20 -64q0 -37 -25.5 -80.5t-98.5 -43.5q-50 0 -75.5 21.5t-36.5 49.5q-9 26 -9 54z" />
    <glyph glyph-name="uniFEC0" unicode="&#x636;" horiz-adv-x="1791" arabic-form="medial" 
d="M-113 45q0 47 33.5 80t79.5 33q131 0 211.5 71t93.5 257q2 19 10 37q25 56 87 65q13 2 26 1q29 -3 53 -19q48 -32 51 -88q10 -138 71 -214q120 220 271.5 348.5t336.5 128.5q109 0 194.5 -46.5t135 -129t49.5 -192.5q0 -63 -19 -120q25 -53 72 -76t147 -23h1q47 0 80 -33
t33 -80q0 -46 -33 -79.5t-80 -33.5h-1q-111 0 -201.5 35t-153.5 98q-85 -68 -204.5 -105.5t-256.5 -37.5q-168 0 -304 53q-14 -30 -28 -62q-19 -44 -59.5 -55.5t-73.5 7.5q-29 17 -39 51.5t5 74.5q16 40 32 77q-44 35 -79 78q-69 -103 -178.5 -158.5t-249.5 -55.5
q-46 0 -79.5 33.5t-33.5 79.5zM1185 517q-118 0 -221 -94.5t-195 -252.5q83 -22 205 -22q170 0 279.5 51t109.5 163q0 74 -53 114.5t-125 40.5zM1089 1097q0 45 33.5 81.5t86.5 36.5q38 0 64 -16t41 -39q20 -33 20 -64q0 -37 -25.5 -80.5t-98.5 -43.5q-50 0 -75.5 21.5
t-36.5 49.5q-9 26 -9 54z" />
    <glyph glyph-name="uniFEC2" unicode="&#x637;" horiz-adv-x="1619" arabic-form="final" 
d="M66 61q6 46 44 75t84 22q81 -11 155 -18q2 11 7 22q39 85 85 161q0 9 1 19q7 50 10 115.5t3 143.5q0 107 -5 220t-12.5 213t-17.5 168q-6 47 25 82.5t71 41.5q51 7 87.5 -24.5t43.5 -77.5q10 -68 18 -160.5t12.5 -191.5t4.5 -187v-80q79 63 167 98.5t184 35.5
q161 0 264 -97.5t103 -264.5q0 -60 -14 -112q31 -49 88.5 -78t143.5 -29h1q47 0 80 -33t33 -80q0 -46 -33 -79.5t-80 -33.5h-1q-103 0 -197.5 34t-164.5 101q-111 -90 -288 -127.5t-384 -37.5q-201 0 -420 30q-46 7 -75 45t-23 84zM1006 512q-84 0 -161.5 -51.5
t-144.5 -138.5t-121 -194h21q101 0 202.5 9.5t185.5 34.5t134.5 69.5t50.5 114.5q0 63 -45.5 109.5t-121.5 46.5z" />
    <glyph glyph-name="uniFEC3" unicode="&#x637;" horiz-adv-x="1178" arabic-form="initial" 
d="M-113 46q0 47 33.5 79.5t79.5 32.5h59q1 6 4 11q38 84 83 158q0 8 1 15q7 51 9 116t2 143q0 107 -4.5 220t-12 213t-16.5 168q-7 47 24 82.5t72 41.5q51 7 87 -24.5t43 -77.5q10 -68 18 -160.5t13 -191.5t5 -187v-77q78 62 166 96.5t184 34.5q161 0 264 -98t103 -264
q0 -138 -66.5 -225t-180.5 -134.5t-260.5 -65.5t-307.5 -18h-289q-46 0 -79.5 33t-33.5 79zM711 512q-83 0 -157.5 -47t-139 -127t-116.5 -180h6q181 0 309 13t196 56t68 132q0 71 -45 112t-121 41z" />
    <glyph glyph-name="uniFEC4" unicode="&#x637;" horiz-adv-x="1269" arabic-form="medial" 
d="M-113 46q0 47 33.5 79.5t79.5 32.5h59q1 6 4 11q38 84 83 158q0 8 1 15q7 51 9 116t2 143q0 107 -4.5 220t-12 213t-16.5 168q-7 47 24 82.5t72 41.5q51 7 87 -24.5t43 -77.5q10 -68 18 -160.5t13 -191.5t5 -187v-77q78 62 166 96.5t184 34.5q161 0 264 -98t103 -264
q0 -72 -20 -133q26 -40 70 -63t114 -23h1q47 0 80 -33t33 -80q0 -46 -33 -79.5t-80 -33.5h-1q-208 0 -329 129q-115 -75 -286.5 -101t-363.5 -26h-289q-46 0 -79.5 33t-33.5 79zM711 512q-83 0 -157.5 -47t-139 -127t-116.5 -180h6q223 0 365.5 20.5t187.5 98.5q3 8 8 15
q12 30 12 67q0 71 -45 112t-121 41z" />
    <glyph glyph-name="uniFEC6" unicode="&#x638;" horiz-adv-x="1619" arabic-form="final" 
d="M66 61q6 46 44 75t84 22q81 -11 155 -18q2 11 7 22q39 85 85 161q0 9 1 19q7 50 10 115.5t3 143.5q0 107 -5 220t-12.5 213t-17.5 168q-6 47 25 82.5t71 41.5q51 7 87.5 -24.5t43.5 -77.5q10 -68 18 -160.5t12.5 -191.5t4.5 -187v-80q79 63 167 98.5t184 35.5
q161 0 264 -97.5t103 -264.5q0 -60 -14 -112q31 -49 88.5 -78t143.5 -29h1q47 0 80 -33t33 -80q0 -46 -33 -79.5t-80 -33.5h-1q-103 0 -197.5 34t-164.5 101q-111 -90 -288 -127.5t-384 -37.5q-201 0 -420 30q-46 7 -75 45t-23 84zM1006 512q-84 0 -161.5 -51.5
t-144.5 -138.5t-121 -194h21q101 0 202.5 9.5t185.5 34.5t134.5 69.5t50.5 114.5q0 63 -45.5 109.5t-121.5 46.5zM939 1093q0 45 33.5 81.5t86.5 36.5q38 0 64 -16t41 -39q20 -33 20 -64q0 -37 -25.5 -80.5t-98.5 -43.5q-50 0 -75.5 21.5t-36.5 49.5q-9 26 -9 54z" />
    <glyph glyph-name="uniFEC7" unicode="&#x638;" horiz-adv-x="1178" arabic-form="initial" 
d="M-113 46q0 47 33.5 79.5t79.5 32.5h59q1 6 4 11q38 84 83 158q0 8 1 15q7 51 9 116t2 143q0 107 -4.5 220t-12 213t-16.5 168q-7 47 24 82.5t72 41.5q51 7 87 -24.5t43 -77.5q10 -68 18 -160.5t13 -191.5t5 -187v-77q78 62 166 96.5t184 34.5q161 0 264 -98t103 -264
q0 -138 -66.5 -225t-180.5 -134.5t-260.5 -65.5t-307.5 -18h-289q-46 0 -79.5 33t-33.5 79zM711 512q-83 0 -157.5 -47t-139 -127t-116.5 -180h6q181 0 309 13t196 56t68 132q0 71 -45 112t-121 41zM646 1093q0 45 33.5 81.5t86.5 36.5q38 0 64 -16t41 -39q20 -33 20 -64
q0 -37 -25.5 -80.5t-98.5 -43.5q-50 0 -75.5 21.5t-36.5 49.5q-9 26 -9 54z" />
    <glyph glyph-name="uniFEC8" unicode="&#x638;" horiz-adv-x="1269" arabic-form="medial" 
d="M-113 46q0 47 33.5 79.5t79.5 32.5h59q1 6 4 11q38 84 83 158q0 8 1 15q7 51 9 116t2 143q0 107 -4.5 220t-12 213t-16.5 168q-7 47 24 82.5t72 41.5q51 7 87 -24.5t43 -77.5q10 -68 18 -160.5t13 -191.5t5 -187v-77q78 62 166 96.5t184 34.5q161 0 264 -98t103 -264
q0 -72 -20 -133q26 -40 70 -63t114 -23h1q47 0 80 -33t33 -80q0 -46 -33 -79.5t-80 -33.5h-1q-208 0 -329 129q-115 -75 -286.5 -101t-363.5 -26h-289q-46 0 -79.5 33t-33.5 79zM711 512q-83 0 -157.5 -47t-139 -127t-116.5 -180h6q223 0 365.5 20.5t187.5 98.5q3 8 8 15
q12 30 12 67q0 71 -45 112t-121 41zM646 1093q0 45 33.5 81.5t86.5 36.5q38 0 64 -16t41 -39q20 -33 20 -64q0 -37 -25.5 -80.5t-98.5 -43.5q-50 0 -75.5 21.5t-36.5 49.5q-9 26 -9 54z" />
    <glyph glyph-name="uniFECA" unicode="&#x639;" horiz-adv-x="1132" arabic-form="final" 
d="M72 -285q0 114 46 207.5t122.5 171t167.5 143.5q-73 69 -146.5 148.5t-151.5 167.5l-1 1q-6 6 -11 13q-14 20 -18 45q-6 26 0.5 52.5t28.5 48.5q4 4 8 7q96 83 218 126.5t251 43.5q114 0 209 -36t152 -107t57 -177q0 -109 -57 -190t-147 -151q71 -34 153 -52.5t178 -18.5
h1q46 0 79.5 -33t33.5 -80q0 -46 -33.5 -79.5t-79.5 -33.5h-1q-165 0 -295.5 41.5t-242.5 116.5q-134 -90 -214.5 -177t-80.5 -198q0 -89 60 -143.5t153 -79t192 -24.5q98 0 212 20q53 10 90.5 -21t42.5 -76q4 -40 -22.5 -78.5t-69.5 -46.5q-65 -13 -129 -18.5t-124 -5.5
q-125 0 -238.5 29t-202 87.5t-139.5 147.5t-51 209zM586 662q-119 0 -225 -51q60 -70 118.5 -132t118.5 -114q88 59 134 105.5t46 87.5q0 53 -57 78.5t-135 25.5z" />
    <glyph glyph-name="uniFECB" unicode="&#x639;" horiz-adv-x="1023" arabic-form="initial" 
d="M-114 45q0 47 34 80t80 33q109 0 197 8q-53 53 -82.5 123t-29.5 154q0 126 59.5 233.5t160.5 173t225 65.5q138 0 256 -73q41 -25 52.5 -70t-12.5 -85t-69 -52t-86 12q-29 17 -69.5 28.5t-77.5 11.5q-60 0 -113.5 -34.5t-86.5 -90t-33 -119.5q0 -85 70 -133t197 -48
q43 0 88 3.5t105 11.5q16 3 34 5q12 2 26 4q29 4 56 -5h1t3 -1q1 0 2 -1h2l4 -2v0q26 -11 44 -32.5t23 -50.5q5 -28 -4 -55q-1 0 -1 -1t-1 -3q-14 -38 -48 -58q-1 0 -1 -1q-1 0 -2 -1q-16 -9 -35 -12q-76 -12 -142 -25.5t-138 -33.5q-104 -27 -193.5 -42.5t-180.5 -22.5
t-200 -7q-46 0 -80 33.5t-34 79.5z" />
    <glyph glyph-name="uniFECC" unicode="&#x639;" horiz-adv-x="1094" arabic-form="medial" 
d="M-114 45q0 47 33.5 80t80.5 33q84 0 179.5 17.5t187.5 46.5q-70 59 -138 127t-137 143q-31 35 -25 84q3 31 22 55q9 13 21 22l1 1q83 79 205.5 128.5t276.5 49.5q102 0 197.5 -36.5t157.5 -111.5t62 -189q0 -87 -50.5 -162.5t-132.5 -137.5q116 -37 266 -37h1
q47 0 80 -33t33 -80q0 -46 -33 -79.5t-80 -33.5h-1q-143 0 -266.5 34.5t-234.5 97.5q-151 -64 -311.5 -98t-280.5 -34q-46 0 -80 33.5t-34 79.5zM584 603q-117 0 -231 -59q67 -71 127.5 -128t118.5 -100q82 43 132.5 89.5t50.5 87.5q0 50 -54.5 80t-143.5 30z" />
    <glyph glyph-name="uniFECE" unicode="&#x63a;" horiz-adv-x="1132" arabic-form="final" 
d="M72 -285q0 114 46 207.5t122.5 171t167.5 143.5q-73 69 -146.5 148.5t-151.5 167.5l-1 1q-6 6 -11 13q-14 20 -18 45q-6 26 0.5 52.5t28.5 48.5q4 4 8 7q96 83 218 126.5t251 43.5q114 0 209 -36t152 -107t57 -177q0 -109 -57 -190t-147 -151q71 -34 153 -52.5t178 -18.5
h1q46 0 79.5 -33t33.5 -80q0 -46 -33.5 -79.5t-79.5 -33.5h-1q-165 0 -295.5 41.5t-242.5 116.5q-134 -90 -214.5 -177t-80.5 -198q0 -89 60 -143.5t153 -79t192 -24.5q98 0 212 20q53 10 90.5 -21t42.5 -76q4 -40 -22.5 -78.5t-69.5 -46.5q-65 -13 -129 -18.5t-124 -5.5
q-125 0 -238.5 29t-202 87.5t-139.5 147.5t-51 209zM586 662q-119 0 -225 -51q60 -70 118.5 -132t118.5 -114q88 59 134 105.5t46 87.5q0 53 -57 78.5t-135 25.5zM391 1260q0 45 33.5 81.5t86.5 36.5q38 0 64 -16t41 -39q20 -33 20 -64q0 -37 -25.5 -80.5t-98.5 -43.5
q-50 0 -75.5 21.5t-36.5 49.5q-9 26 -9 54z" />
    <glyph glyph-name="uniFECF" unicode="&#x63a;" horiz-adv-x="1023" arabic-form="initial" 
d="M-114 45q0 47 34 80t80 33q109 0 197 8q-53 53 -82.5 123t-29.5 154q0 126 59.5 233.5t160.5 173t225 65.5q138 0 256 -73q41 -25 52.5 -70t-12.5 -85t-69 -52t-86 12q-29 17 -69.5 28.5t-77.5 11.5q-60 0 -113.5 -34.5t-86.5 -90t-33 -119.5q0 -85 70 -133t197 -48
q43 0 88 3.5t105 11.5q16 3 34 5q12 2 26 4q29 4 56 -5h1t3 -1q1 0 2 -1h2l4 -2v0q26 -11 44 -32.5t23 -50.5q5 -28 -4 -55q-1 0 -1 -1t-1 -3q-14 -38 -48 -58q-1 0 -1 -1q-1 0 -2 -1q-16 -9 -35 -12q-76 -12 -142 -25.5t-138 -33.5q-104 -27 -193.5 -42.5t-180.5 -22.5
t-200 -7q-46 0 -80 33.5t-34 79.5zM404 1306q0 45 33.5 81.5t86.5 36.5q38 0 64 -16t41 -39q20 -33 20 -64q0 -37 -25.5 -80.5t-98.5 -43.5q-50 0 -75.5 21.5t-36.5 49.5q-9 26 -9 54z" />
    <glyph glyph-name="uniFED0" unicode="&#x63a;" horiz-adv-x="1094" arabic-form="medial" 
d="M-114 45q0 47 33.5 80t80.5 33q84 0 179.5 17.5t187.5 46.5q-70 59 -138 127t-137 143q-31 35 -25 84q3 31 22 55q9 13 21 22l1 1q83 79 205.5 128.5t276.5 49.5q102 0 197.5 -36.5t157.5 -111.5t62 -189q0 -87 -50.5 -162.5t-132.5 -137.5q116 -37 266 -37h1
q47 0 80 -33t33 -80q0 -46 -33 -79.5t-80 -33.5h-1q-143 0 -266.5 34.5t-234.5 97.5q-151 -64 -311.5 -98t-280.5 -34q-46 0 -80 33.5t-34 79.5zM584 603q-117 0 -231 -59q67 -71 127.5 -128t118.5 -100q82 43 132.5 89.5t50.5 87.5q0 50 -54.5 80t-143.5 30zM465 1228
q0 45 33.5 81.5t86.5 36.5q38 0 64 -16t41 -39q20 -33 20 -64q0 -37 -25.5 -80.5t-98.5 -43.5q-50 0 -75.5 21.5t-36.5 49.5q-9 26 -9 54z" />
    <glyph glyph-name="uniFED2" unicode="&#x641;" horiz-adv-x="1857" arabic-form="final" 
d="M65 362q0 65 12.5 135t43.5 137q20 42 65 57t87 -6q86 -42 52 -153q-10 -26 -20.5 -79t-10.5 -91q0 -132 115.5 -183t383.5 -51q108 0 203 7t176 22q-74 66 -116.5 147.5t-42.5 174.5q0 119 50.5 214.5t138.5 151.5t199 56q115 0 202 -55.5t136 -150.5t49 -212
q0 -91 -38 -169.5t-106 -143.5q95 -12 212 -12h1q47 0 80 -33t33 -80q0 -46 -33 -79.5t-80 -33.5h-1q-121 0 -236 22t-216 63q-264 -115 -611 -115q-91 0 -191.5 7t-195.5 30.5t-172 73.5t-123 134.5t-46 214.5zM1240 479q0 -85 42.5 -145.5t121.5 -99.5q76 42 116.5 104
t40.5 145q0 85 -41 137t-119 52q-73 0 -117 -53.5t-44 -139.5zM1267 1305q0 45 33.5 81.5t86.5 36.5q38 0 64 -16t41 -39q20 -33 20 -64q0 -37 -25.5 -80.5t-98.5 -43.5q-50 0 -75.5 21.5t-36.5 49.5q-9 26 -9 54z" />
    <glyph glyph-name="uniFED3" unicode="&#x641;" horiz-adv-x="924" arabic-form="initial" 
d="M-113 45q0 47 33.5 80t79.5 33q190 0 311 9t185 40q58 22 89.5 53t43.5 85q-98 -21 -185 -21q-180 0 -277 78.5t-97 250.5q0 134 46 241.5t127 170.5t186 63q135 0 229.5 -89.5t144 -246t49.5 -357.5q0 -147 -47.5 -237.5t-155.5 -147.5q-97 -65 -261.5 -91.5
t-387.5 -26.5q-46 0 -79.5 33.5t-33.5 79.5zM275 680q0 -79 44.5 -113.5t125.5 -34.5q41 0 85 8t81 18q10 3 20 3q-14 164 -64.5 251.5t-132.5 87.5q-71 0 -115 -64.5t-44 -155.5zM308 1567q0 45 33.5 81.5t86.5 36.5q38 0 64 -16t41 -39q20 -33 20 -64q0 -37 -25.5 -80.5
t-98.5 -43.5q-50 0 -75.5 21.5t-36.5 49.5q-9 26 -9 54z" />
    <glyph glyph-name="uniFED4" unicode="&#x641;" horiz-adv-x="944" arabic-form="medial" 
d="M-113 45q0 47 33.5 80t79.5 33q128 0 234 16q-72 66 -113 145.5t-41 169.5q0 117 51.5 212t141.5 151.5t203 56.5q114 0 201.5 -57t137 -152.5t49.5 -212.5q0 -89 -41.5 -168.5t-113.5 -144.5q105 -16 234 -16h1q47 0 80 -33t33 -80q0 -46 -33 -79.5t-80 -33.5h-1
q-125 0 -246 24.5t-226 69.5q-106 -45 -226.5 -69.5t-244.5 -24.5q-46 0 -79.5 33.5t-33.5 79.5zM307 489q0 -82 43 -143t121 -102q79 41 122.5 101.5t43.5 141.5q0 83 -42.5 138t-118.5 55t-122.5 -54.5t-46.5 -136.5zM370 1305q0 45 33.5 81.5t86.5 36.5q38 0 64 -16
t41 -39q20 -33 20 -64q0 -37 -25.5 -80.5t-98.5 -43.5q-50 0 -75.5 21.5t-36.5 49.5q-9 26 -9 54z" />
    <glyph glyph-name="uniFED6" unicode="&#x642;" horiz-adv-x="1521" arabic-form="final" 
d="M707 1046q-10 36 7.5 69t54.5 45q56 17 129.5 26t145.5 9q71 0 128.5 -9t97.5 -25q37 -20 47.5 -60t-12.5 -74q-19 -27 -46 -36.5t-56 -2.5q-29 8 -72.5 13t-86.5 5q-68 0 -126.5 -5.5t-96.5 -17.5q-36 -10 -69.5 9t-44.5 54zM1015 733q129 0 213.5 -79.5t129.5 -210.5
t56 -285h107q47 0 80 -33t33 -80q0 -46 -33 -79.5t-80 -33.5h-113q-38 -236 -214 -377t-463 -141q-196 0 -343 67t-228.5 192t-81.5 299q0 123 27 243t69 226q17 43 61 62t87 2q44 -17 62.5 -60t1.5 -87q-31 -82 -55.5 -181t-24.5 -197q0 -175 113.5 -257t309.5 -82
q203 0 316 73.5t144 217.5h-166q-182 0 -280.5 87t-98.5 259q0 124 48.5 227.5t132.5 165.5t190 62zM1021 158h175q-7 86 -27 167t-58.5 134t-100.5 53q-67 0 -110.5 -61t-43.5 -153q0 -78 42 -109t123 -31z" />
    <glyph glyph-name="uniFED7" unicode="&#x642;" horiz-adv-x="924" arabic-form="initial" 
d="M-113 45q0 47 33.5 80t79.5 33q190 0 311 9t185 40q58 22 89.5 53t43.5 85q-98 -21 -185 -21q-180 0 -277 78.5t-97 250.5q0 134 46 241.5t127 170.5t186 63q135 0 229.5 -89.5t144 -246t49.5 -357.5q0 -147 -47.5 -237.5t-155.5 -147.5q-97 -65 -261.5 -91.5
t-387.5 -26.5q-46 0 -79.5 33.5t-33.5 79.5zM275 680q0 -79 44.5 -113.5t125.5 -34.5q41 0 85 8t81 18q10 3 20 3q-14 164 -64.5 251.5t-132.5 87.5q-71 0 -115 -64.5t-44 -155.5zM127 1461q-10 36 7.5 69t54.5 45q56 17 129.5 26t145.5 9q71 0 128.5 -9t97.5 -25
q37 -20 47.5 -60t-12.5 -74q-19 -27 -46 -36.5t-56 -2.5q-29 8 -72.5 13t-86.5 5q-68 0 -126.5 -5.5t-96.5 -17.5q-36 -10 -69.5 9t-44.5 54z" />
    <glyph glyph-name="uniFED8" unicode="&#x642;" horiz-adv-x="944" arabic-form="medial" 
d="M-113 45q0 47 33.5 80t79.5 33q128 0 234 16q-72 66 -113 145.5t-41 169.5q0 117 51.5 212t141.5 151.5t203 56.5q114 0 201.5 -57t137 -152.5t49.5 -212.5q0 -89 -41.5 -168.5t-113.5 -144.5q105 -16 234 -16h1q47 0 80 -33t33 -80q0 -46 -33 -79.5t-80 -33.5h-1
q-125 0 -246 24.5t-226 69.5q-106 -45 -226.5 -69.5t-244.5 -24.5q-46 0 -79.5 33.5t-33.5 79.5zM307 489q0 -82 43 -143t121 -102q79 41 122.5 101.5t43.5 141.5q0 83 -42.5 138t-118.5 55t-122.5 -54.5t-46.5 -136.5zM187 1230q-10 36 7.5 69t54.5 45q56 17 129.5 26
t145.5 9q71 0 128.5 -9t97.5 -25q37 -20 47.5 -60t-12.5 -74q-19 -27 -46 -36.5t-56 -2.5q-29 8 -72.5 13t-86.5 5q-68 0 -126.5 -5.5t-96.5 -17.5q-36 -10 -69.5 9t-44.5 54z" />
    <glyph glyph-name="uniFEDA" unicode="&#x643;" horiz-adv-x="1800" arabic-form="final" 
d="M65 374q0 146 56 260q20 41 65.5 56t87.5 -6q85 -42 51 -153q-14 -35 -22.5 -81t-8.5 -84q0 -142 124.5 -189.5t365.5 -47.5q251 0 381 70.5t130 231.5q0 116 -5 254.5t-14 273.5t-23 238q-6 46 23 83.5t75 43.5t83.5 -23t43.5 -75q15 -112 25 -251t15.5 -281t5.5 -263
q0 -153 75.5 -213t199.5 -60h1q47 0 80 -33t33 -80q0 -46 -33 -79.5t-80 -33.5h-1q-115 0 -218.5 42t-174.5 126q-182 -198 -621 -198q-228 0 -389 45t-246 148.5t-85 278.5zM975 1084q-2 -25 -20.5 -40.5t-43.5 -12.5q-10 2 -20.5 2h-21.5q-80 0 -131 -33t-51 -80
q0 -32 32 -47.5t78 -28.5q42 -11 87 -28.5t76 -53.5t31 -101q0 -92 -86.5 -147t-214.5 -55q-29 0 -54.5 1.5t-48.5 3.5q-25 2 -40.5 21.5t-12.5 44.5q4 26 23 41.5t44 12.5q22 -2 45 -4t47 -2q67 0 122 19.5t55 60.5q0 27 -29 41.5t-73 27.5q-42 12 -88.5 31.5t-79.5 57
t-33 103.5q0 65 40.5 117.5t109 84t152.5 31.5q22 0 53 -3q25 -2 40 -20.5t13 -44.5z" />
    <glyph glyph-name="uniFEDB" unicode="&#x643;" horiz-adv-x="1054" arabic-form="initial" 
d="M-114 45q0 47 34 80t80 33q212 0 336.5 34.5t124.5 130.5q0 64 -50.5 146.5t-130.5 175t-171 184.5q-34 35 -50.5 59t-16.5 64q0 38 22.5 68.5t61.5 42.5l700 233q56 18 99.5 -0.5t56.5 -67.5q14 -51 -6 -89t-66 -52l-565 -179q155 -175 249.5 -311.5t94.5 -268.5
q0 -142 -83 -229t-237.5 -127t-368.5 -40q-46 0 -80 33.5t-34 79.5z" />
    <glyph glyph-name="uniFEDC" unicode="&#x643;" horiz-adv-x="1143" arabic-form="medial" 
d="M-114 45q0 47 34 80t80 33q212 0 336.5 34.5t124.5 130.5q0 64 -50.5 146.5t-130.5 175t-171 184.5q-34 35 -50.5 59t-16.5 64q0 38 22.5 68.5t61.5 42.5l700 233q56 18 99.5 -0.5t56.5 -67.5q14 -51 -6 -89t-66 -52l-565 -179q99 -112 174.5 -206.5t118.5 -180.5l1 -2
q66 -131 126 -210.5t146.5 -115t230.5 -35.5h1q47 0 80 -33t33 -80q0 -46 -33 -79.5t-80 -33.5h-1q-176 0 -296 49.5t-214 150.5q-74 -106 -236.5 -153t-395.5 -47q-46 0 -80 33.5t-34 79.5z" />
    <glyph glyph-name="uniFEDE" unicode="&#x644;" horiz-adv-x="1448" arabic-form="final" 
d="M65 -29q0 116 32 217.5t75 186.5q20 42 66 56t88 -6q41 -20 55.5 -65.5t-5.5 -86.5q-32 -65 -57 -145t-25 -157q0 -131 83.5 -209.5t237.5 -78.5q141 0 220.5 54t112.5 157.5t33 253.5q0 256 -13.5 509.5t-34.5 545.5q-4 47 27 82.5t78 38.5t82.5 -27.5t38.5 -77.5
q16 -224 28.5 -427t18.5 -402q6 -87 27 -138t70.5 -72.5t143.5 -21.5h1q47 0 80 -33t33 -80q0 -46 -33 -79.5t-80 -33.5h-1q-141 0 -248 63q-21 -144 -86.5 -267t-187.5 -198t-310 -75q-153 0 -277.5 65t-198.5 181t-74 270z" />
    <glyph glyph-name="uniFEDF" unicode="&#x644;" horiz-adv-x="494" arabic-form="initial" 
d="M-113 45q0 47 33.5 80t79.5 33q104 0 144.5 88.5t40.5 263.5q0 94 -5 188t-16.5 212.5t-31.5 285.5q-5 46 23.5 84t74.5 44t84 -22.5t44 -75.5q18 -141 29 -253t16 -213t5 -210q0 -322 -91.5 -470t-316.5 -148q-46 0 -79.5 33.5t-33.5 79.5z" />
    <glyph glyph-name="uniFEE0" unicode="&#x644;" horiz-adv-x="674" arabic-form="medial" 
d="M-113 45q0 47 33.5 80t79.5 33q130 0 177 43t47 168q0 153 -5.5 288.5t-15 267.5t-23.5 275q-4 47 26 83.5t76 40.5q47 5 83.5 -25t40.5 -77q20 -213 32 -410.5t12 -427.5q1 -7 1 -15q0 -120 53.5 -165.5t168.5 -45.5h1q47 0 80 -33t33 -80q0 -46 -33 -79.5t-80 -33.5h-1
q-97 0 -184 31.5t-149 94.5q-121 -126 -340 -126q-46 0 -79.5 33.5t-33.5 79.5z" />
    <glyph glyph-name="uniFEE2" unicode="&#x645;" horiz-adv-x="1352" arabic-form="final" 
d="M751 678q124 0 208 -60.5t127.5 -160t45.5 -216.5q37 -47 78.5 -65t140.5 -18h1q49 0 81 -33.5t32 -79.5t-32 -79.5t-81 -33.5h-1q-96 0 -167.5 19t-126.5 56q-54 -59 -140 -84.5t-190 -25.5q-84 0 -166.5 11.5t-154.5 24.5q-54 9 -79 -2t-23 -55l36 -626
q2 -50 -31 -86.5t-82 -36.5q-45 0 -77.5 30.5t-34.5 75.5l-38 677q-7 129 62.5 195t183.5 69q-3 20 1 41q16 83 49 165t85 149.5t125 108t168 40.5zM535 176q-3 -16 -10 -30q54 -11 108 -17.5t105 -6.5q71 0 120 22.5t49 97.5q0 80 -36.5 145.5t-119.5 65.5
q-94 0 -143.5 -82t-72.5 -195z" />
    <glyph glyph-name="uniFEE3" unicode="&#x645;" horiz-adv-x="1114" arabic-form="initial" 
d="M-113 45q0 47 33.5 80t79.5 33q93 0 153.5 81.5t121.5 204.5q32 65 68.5 124.5t73.5 103.5l3 3q29 35 76.5 37.5t82.5 -27.5q12 -10 21 -24q5 8 12 15q32 34 79.5 35t81.5 -31q227 -216 227 -454q0 -147 -102.5 -235.5t-285.5 -88.5q-120 0 -203 40.5t-125 111.5
q-54 -53 -124 -87.5t-160 -34.5q-46 0 -79.5 33.5t-33.5 79.5zM449 254q0 -56 40.5 -91t116.5 -35q86 0 126 35.5t40 92.5q0 111 -156 260q-10 9 -17 20q-3 -5 -7 -10q-27 -31 -57.5 -74t-52.5 -83q-33 -65 -33 -115z" />
    <glyph glyph-name="uniFEE4" unicode="&#x645;" horiz-adv-x="1239" arabic-form="medial" 
d="M-113 45q0 47 33.5 80t79.5 33q93 0 153.5 81.5t121.5 204.5q32 65 68.5 124.5t73.5 103.5l3 3q29 35 76.5 37.5t82.5 -27.5q12 -10 21 -23q6 10 15 18q34 32 81.5 31.5t79.5 -33.5q6 -7 12 -13q44 -44 79 -89q46 -55 73.5 -104.5t49.5 -109.5q39 -104 89.5 -154
t158.5 -50h1q47 0 80 -33t33 -80q0 -46 -33 -79.5t-80 -33.5h-1q-104 0 -177.5 27.5t-124.5 73.5q-50 -62 -132.5 -96.5t-191.5 -34.5q-123 0 -205.5 40t-123.5 111q-54 -52 -123.5 -86.5t-159.5 -34.5q-46 0 -79.5 33.5t-33.5 79.5zM449 254q0 -56 37.5 -91t119.5 -35
q81 0 123.5 35.5t42.5 92.5q0 111 -156 260l-3 3q-8 7 -15 15l-6 -8q-27 -31 -57.5 -74t-52.5 -83q-33 -65 -33 -115z" />
    <glyph glyph-name="uniFEE6" unicode="&#x646;" horiz-adv-x="1526" arabic-form="final" 
d="M717 -538q-193 0 -336 71t-222 196t-79 288q0 101 21 208t55 208q17 44 60 64t86 3q43 -16 63.5 -59t3.5 -87q-27 -79 -44 -162t-17 -155q0 -164 104.5 -256.5t303.5 -92.5q200 0 309 92t109 255q0 83 -22.5 173t-60.5 187q-19 44 -0.5 87t60.5 61q43 18 87 0.5t63 -61.5
q28 -71 49 -138q34 -100 84 -143t131 -43h1q47 0 80 -33t33 -80q0 -46 -33 -79.5t-80 -33.5h-1q-85 0 -164 36q-12 -150 -95.5 -264t-224 -178t-324.5 -64zM590 360q0 45 33.5 81.5t86.5 36.5q38 0 64 -16t41 -39q20 -33 20 -64q0 -37 -25.5 -80.5t-98.5 -43.5
q-50 0 -75.5 21.5t-36.5 49.5q-9 26 -9 54z" />
    <glyph glyph-name="uniFEE7" unicode="&#x646;" horiz-adv-x="560" arabic-form="initial" 
d="M-113 45q0 47 33.5 80t79.5 33q134 0 192 41t58 155q0 40 -6 102.5t-18 125.5q-6 46 22.5 83.5t74.5 44.5q47 7 84 -21.5t45 -74.5q14 -74 21 -142t7 -119q0 -205 -122.5 -313t-357.5 -108q-46 0 -79.5 33.5t-33.5 79.5zM81 1022q0 45 33.5 81.5t86.5 36.5q38 0 64 -16
t41 -39q20 -33 20 -64q0 -37 -25.5 -80.5t-98.5 -43.5q-50 0 -75.5 21.5t-36.5 49.5q-9 26 -9 54z" />
    <glyph glyph-name="uniFEE8" unicode="&#x646;" horiz-adv-x="811" arabic-form="medial" 
d="M-114 45q0 47 34 80t80 33q136 0 201.5 31.5t87 106.5t24.5 203q3 53 38.5 82t83.5 26q47 -3 78 -38.5t27 -81.5q-4 -121 16.5 -193t80.5 -104t173 -32h1q47 0 80 -33t33 -80q0 -46 -33 -79.5t-80 -33.5h-1q-146 0 -240.5 47.5t-144.5 161.5q-65 -118 -166.5 -163.5
t-258.5 -45.5q-46 0 -80 33.5t-34 79.5zM117 932q0 45 33.5 81.5t86.5 36.5q38 0 64 -16t41 -39q20 -33 20 -64q0 -37 -25.5 -80.5t-98.5 -43.5q-50 0 -75.5 21.5t-36.5 49.5q-9 26 -9 54z" />
    <glyph glyph-name="uniFEEA" unicode="&#x647;" horiz-adv-x="1100" arabic-form="final" 
d="M105 372q0 136 91 239.5t238 175.5q59 29 111.5 62t68.5 66v5q-4 46 26.5 82.5t76.5 40.5q47 5 83 -25.5t40 -77.5l2 -19q1 -6 1 -12l47 -523q9 -100 32 -148.5t66 -64t111 -15.5h1q47 0 80 -33t33 -80q0 -46 -33 -79.5t-80 -33.5h-1q-137 0 -224 41.5t-136 122.5
q-28 -29 -67 -35q-28 -4 -60 -5.5t-55 -1.5q-222 0 -337 86.5t-115 231.5zM334 385q0 -105 223 -105q16 0 38.5 2t44.5 5q17 2 34 -1q-6 37 -10 80l-25 274q-47 -29 -108 -60q-83 -43 -140 -90.5t-57 -104.5z" />
    <glyph glyph-name="uniFEEB" unicode="&#x647;" horiz-adv-x="1359" arabic-form="initial" 
d="M-113 45q0 47 33 80t80 33q111 0 204 10q-55 55 -87 119.5t-32 137.5q0 119 54 220.5t144 163t196 61.5q61 0 114.5 -24.5t95.5 -66.5q10 0 20 -1q275 -35 416 -152.5t141 -338.5q0 -106 -50.5 -186t-140 -124.5t-208.5 -44.5q-208 0 -402 75q-98 -37 -216 -56t-249 -19
q-46 0 -79.5 33.5t-33.5 79.5zM307 445q0 -67 45.5 -120t122.5 -90q76 36 118 90t42 129q0 74 -44.5 132t-112.5 58q-71 0 -121 -59.5t-50 -139.5zM814 459q0 -87 -27.5 -159.5t-78.5 -130.5q76 -11 156 -11q92 0 144 38t52 103q0 79 -67 137t-184 91q5 -34 5 -68z" />
    <glyph glyph-name="uniFEEC" unicode="&#x647;" horiz-adv-x="990" arabic-form="medial" 
d="M-113 45q0 47 33.5 80t79.5 33q45 0 87 3q3 112 27.5 234.5t78.5 229t143 173t219 66.5q92 0 155 -48t96 -121t33 -149q0 -106 -51.5 -209t-146.5 -187q20 8 43 8h306q47 0 80 -33t33 -80q0 -46 -33 -79.5t-80 -33.5h-155q22 -80 22 -164q0 -76 -27 -158.5t-89 -139
t-166 -56.5q-95 0 -172 45t-135.5 120.5t-98 168.5t-60.5 189q-54 -5 -109 -5q-46 0 -79.5 33.5t-33.5 79.5zM533 628q-93 0 -150.5 -114t-65.5 -309q156 52 232.5 142t76.5 173q0 47 -21 77.5t-72 30.5zM570 45q0 35 20 63q-55 -40 -121 -73t-141 -56q26 -156 94 -246.5
t142 -90.5q46 0 64.5 30.5t18.5 76.5q0 44 -14.5 95.5t-33.5 97.5q-11 29 -20 56.5t-9 46.5z" />
    <glyph glyph-name="uniFEEE" unicode="&#x648;" horiz-adv-x="951" arabic-form="final" 
d="M481 -68q-184 0 -287 86t-103 260q0 120 49 222.5t133 165.5t189 63q122 0 211.5 -78.5t139 -204.5t49.5 -271v-17h89q47 0 80 -33t33 -80q0 -46 -33 -79.5t-80 -33.5h-130q-47 -137 -141.5 -245.5t-220.5 -181t-269 -102.5q-46 -9 -85.5 18t-47.5 72q-9 47 18.5 84
t71.5 50q156 42 267 120.5t170 184.5h-103zM479 158h164v9q0 74 -21.5 153.5t-62.5 134t-102 54.5q-67 0 -110.5 -64.5t-43.5 -146.5q0 -79 47 -109.5t129 -30.5z" />
    <glyph glyph-name="uniFEF0" unicode="&#x649;" horiz-adv-x="1390" arabic-form="final" 
d="M71 -76q0 135 28.5 261.5t82.5 272.5q16 44 59 64t87 4t64 -59t4 -87q-46 -127 -71 -241t-25 -209q0 -164 96.5 -245t314.5 -81q182 0 282 49t100 114q0 56 -81 101t-245 64q-40 5 -68 35t-32 70q-4 49 30.5 85t83.5 36h609q47 0 80 -33t33 -80q0 -46 -33 -79.5
t-80 -33.5h-203q122 -87 122 -200q0 -98 -76.5 -179t-213 -129t-317.5 -48q-202 0 -343 69t-214.5 192.5t-73.5 286.5z" />
    <glyph glyph-name="uniFEF2" unicode="&#x64a;" horiz-adv-x="1390" arabic-form="final" 
d="M71 -76q0 135 28.5 261.5t82.5 272.5q16 44 59 64t87 4t64 -59t4 -87q-46 -127 -71 -241t-25 -209q0 -164 96.5 -245t314.5 -81q182 0 282 49t100 114q0 56 -81 101t-245 64q-40 5 -68 35t-32 70q-4 49 30.5 85t83.5 36h609q47 0 80 -33t33 -80q0 -46 -33 -79.5
t-80 -33.5h-203q122 -87 122 -200q0 -98 -76.5 -179t-213 -129t-317.5 -48q-202 0 -343 69t-214.5 192.5t-73.5 286.5zM394 -1008q-10 36 7.5 69t54.5 45q56 17 129.5 26t145.5 9q71 0 128.5 -9t97.5 -25q37 -20 47.5 -60t-12.5 -74q-19 -27 -46 -36.5t-56 -2.5
q-29 8 -72.5 13t-86.5 5q-68 0 -126.5 -5.5t-96.5 -17.5q-36 -10 -69.5 9t-44.5 54z" />
    <glyph glyph-name="uniFEF3" unicode="&#x64a;" horiz-adv-x="560" arabic-form="initial" 
d="M-113 45q0 47 33.5 80t79.5 33q134 0 192 41t58 155q0 40 -6 102.5t-18 125.5q-6 46 22.5 83.5t74.5 44.5q47 7 84 -21.5t45 -74.5q14 -74 21 -142t7 -119q0 -205 -122.5 -313t-357.5 -108q-46 0 -79.5 33.5t-33.5 79.5zM-205 -485q-10 36 7.5 69t54.5 45q56 17 129.5 26
t145.5 9q71 0 128.5 -9t97.5 -25q37 -20 47.5 -60t-12.5 -74q-19 -27 -46 -36.5t-56 -2.5q-29 8 -72.5 13t-86.5 5q-68 0 -126.5 -5.5t-96.5 -17.5q-36 -10 -69.5 9t-44.5 54z" />
    <glyph glyph-name="uniFEF4" unicode="&#x64a;" horiz-adv-x="811" arabic-form="medial" 
d="M-114 45q0 47 34 80t80 33q136 0 201.5 31.5t87 106.5t24.5 203q3 53 38.5 82t83.5 26q47 -3 78 -38.5t27 -81.5q-4 -121 16.5 -193t80.5 -104t173 -32h1q47 0 80 -33t33 -80q0 -46 -33 -79.5t-80 -33.5h-1q-146 0 -240.5 47.5t-144.5 161.5q-65 -118 -166.5 -163.5
t-258.5 -45.5q-46 0 -80 33.5t-34 79.5zM-205 -485q-10 36 7.5 69t54.5 45q56 17 129.5 26t145.5 9q71 0 128.5 -9t97.5 -25q37 -20 47.5 -60t-12.5 -74q-19 -27 -46 -36.5t-56 -2.5q-29 8 -72.5 13t-86.5 5q-68 0 -126.5 -5.5t-96.5 -17.5q-36 -10 -69.5 9t-44.5 54z" />
    <glyph glyph-name=".notdef" horiz-adv-x="1024" 
d="M102 -410v2048h820v-2048h-820zM204 -308h616v1844h-616v-1844z" />
    <glyph glyph-name=".null" 
 />
    <glyph glyph-name="nonmarkingreturn" horiz-adv-x="682" 
 />
    <glyph glyph-name="space" unicode=" " horiz-adv-x="300" 
 />
    <glyph glyph-name="exclam" unicode="!" horiz-adv-x="593" 
d="M245 1474q46 6 83.5 -22.5t44.5 -75.5q18 -135 28 -253.5t14 -239.5t4 -267v-61t-1 -64q-1 -47 -34 -78.5t-80 -31.5t-81 33.5t-33 80.5q1 30 1.5 61t0.5 60q0 144 -4 261t-13.5 229t-27.5 240q-6 46 23 83.5t75 44.5zM456 85q0 -30 -16.5 -65.5t-49.5 -61.5t-82 -26
q-29 0 -67 14.5t-66.5 47.5t-28.5 90q0 65 46.5 111.5t111.5 46.5q72 0 112 -52t40 -105z" />
    <glyph glyph-name="quotedbl" unicode="&#x22;" horiz-adv-x="568" 
d="M401 854q-23 2 -37.5 20.5t-12.5 41.5q11 97 11 210q0 117 -11 230q-2 23 13.5 41.5t38.5 19.5q23 2 41 -13t20 -38q5 -56 7.5 -117.5t2.5 -122.5q0 -118 -11 -222q-1 -23 -20 -37.5t-42 -12.5zM164 854q-23 2 -37.5 20.5t-12.5 41.5q11 97 11 210q0 117 -11 230
q-2 23 13.5 41.5t38.5 19.5q23 2 41 -13t20 -38q5 -56 7.5 -117.5t2.5 -122.5q0 -118 -11 -222q-1 -23 -20 -37.5t-42 -12.5z" />
    <glyph glyph-name="numbersign" unicode="#" horiz-adv-x="1744" 
d="M399 -118q-44 12 -68.5 53t-12.5 85l72 286h-221q-46 0 -79.5 33.5t-33.5 80.5t34 79.5t80 32.5l277 1l87 346h-273q-46 0 -79 33.5t-33 79.5q0 47 33 80t80 33h329l74 293q12 45 53 69t86 12q44 -12 69 -53t12 -85l-60 -236l333 -1l53 279q8 46 48 72t86 18t72 -48
t18 -86l-45 -235h195q47 0 79.5 -33t32.5 -80t-33 -80t-80 -33h-237l-66 -344l240 1q47 0 80 -33t33 -80t-33.5 -80t-80.5 -33l-282 -1l-63 -330q-8 -46 -48 -72t-86 -18t-72 48t-18 86l55 286l-381 -1l-87 -344q-12 -45 -53 -69t-86 -12zM769 879l-87 -346l367 1l66 344z
" />
    <glyph glyph-name="dollar" unicode="$" horiz-adv-x="1122" 
d="M992 1204q-22 -40 -67.5 -52.5t-86.5 9.5q-69 39 -117.5 54t-108.5 17v-465q220 -75 334.5 -185.5t114.5 -248.5q0 -180 -122.5 -295.5t-326.5 -132.5v-136q0 -25 -18.5 -44t-43.5 -19t-43.5 19t-18.5 44v135q-104 5 -201.5 30.5t-183.5 74.5q-41 23 -54 68.5t9 85.5
q23 41 69 54t86 -10q59 -32 131 -51.5t144 -24.5v437q-411 138 -411 435q0 177 113 298t298 151v167q0 25 18.5 43.5t43.5 18.5t43.5 -18.5t18.5 -43.5v-159q88 -2 164.5 -25t172.5 -76q41 -23 53.5 -68.5t-10.5 -86.5zM303 1003q0 -60 42.5 -105t142.5 -86v408
q-87 -22 -136 -78t-49 -139zM833 312q0 130 -221 215v-396q102 12 161.5 60t59.5 121z" />
    <glyph glyph-name="percent" unicode="%" horiz-adv-x="1480" 
d="M82 1199q0 79 42.5 136.5t109 89t138.5 31.5q118 0 190.5 -78t72.5 -192q0 -74 -34 -140t-95 -107.5t-144 -41.5q-85 0 -148 45t-97.5 114.5t-34.5 142.5zM1222 1406q35 -30 37.5 -75t-23.5 -85l-811 -1268q-25 -40 -65 -59.5t-83 -0.5q-43 18 -64.5 63.5t3.5 84.5
l846 1325q26 40 75 42t85 -27zM247 1199q0 -55 37 -96t78 -41q44 0 75.5 34t31.5 90q0 103 -97 103q-60 0 -92.5 -30.5t-32.5 -59.5zM1094 -114q-78 0 -136 42.5t-89.5 109t-31.5 138.5q0 117 77.5 190t191.5 73q75 0 141.5 -34t108.5 -95t42 -144q0 -85 -46 -148
t-115.5 -97.5t-142.5 -34.5zM1094 51q56 0 97.5 37.5t41.5 77.5q0 44 -35 76t-92 32q-102 0 -102 -98q0 -60 30.5 -92.5t59.5 -32.5z" />
    <glyph glyph-name="ampersand" unicode="&#x26;" horiz-adv-x="1384" 
d="M155 270q0 114 64.5 210t186.5 192q-82 105 -117.5 194.5t-35.5 182.5q0 126 49.5 220t138.5 146.5t209 52.5q117 0 208 -48.5t143.5 -132t52.5 -190.5q0 -125 -79 -226t-233 -213q64 -68 141.5 -142t168.5 -155q43 60 88 140q23 41 65.5 58.5t84.5 -1.5t60 -64.5
t-4 -86.5q-59 -113 -120 -197q42 -35 86 -71q37 -30 41 -77t-25 -83t-76.5 -40t-83.5 25q-50 42 -95 79q-87 -72 -190.5 -108t-232.5 -36q-146 0 -258 45t-174.5 128t-62.5 198zM478 1084q0 -102 130 -271q104 71 162 133.5t58 140.5q0 70 -46 112.5t-126 42.5
q-79 0 -128.5 -43.5t-49.5 -114.5zM384 276q0 -77 65 -115t174 -38q152 0 267 76q-106 91 -192 169.5t-153 147.5q-76 -61 -118.5 -118.5t-42.5 -121.5z" />
    <glyph glyph-name="quotesingle" unicode="'" horiz-adv-x="341" 
d="M164 854q-23 2 -37.5 20.5t-12.5 41.5q11 97 11 210q0 117 -11 230q-2 23 13.5 41.5t38.5 19.5q23 2 41 -13t20 -38q5 -56 7.5 -117.5t2.5 -122.5q0 -118 -11 -222q-1 -23 -20 -37.5t-42 -12.5z" />
    <glyph glyph-name="parenleft" unicode="(" horiz-adv-x="616" 
d="M420 1515q42 -20 57.5 -65.5t-4.5 -87.5q-60 -125 -92.5 -227t-44.5 -208t-12 -245q0 -131 22 -235t65.5 -207.5t107.5 -235.5q20 -42 4.5 -87.5t-57.5 -65.5t-87 -4.5t-65 57.5q-64 132 -113 251t-77 246t-28 281q0 147 15 272t52 247.5t104 260.5q20 42 65.5 57.5
t87.5 -4.5z" />
    <glyph glyph-name="parenright" unicode=")" horiz-adv-x="616" 
d="M206 -149q-42 20 -57.5 65.5t4.5 87.5q61 125 93 227t44 208.5t12 244.5q0 131 -22 235t-65.5 208t-107.5 235q-20 42 -4.5 87.5t57.5 65.5t87.5 4.5t65.5 -57.5q64 -131 113 -250.5t76.5 -246.5t27.5 -281q0 -146 -14.5 -271.5t-51.5 -248t-105 -260.5
q-20 -42 -65.5 -57.5t-87.5 4.5z" />
    <glyph glyph-name="asterisk" unicode="*" horiz-adv-x="1118" 
d="M139 609q-25 30 -22 70.5t33 65.5q53 45 108 86t112 78q-58 29 -117.5 54t-119.5 48q-37 14 -53 50.5t-3 73.5q14 37 50 54t73 3q138 -51 265 -114q-2 64 -6 129t-9 130q-4 39 22 69.5t65 34.5t69.5 -22t34.5 -65q13 -143 17 -278q129 65 268 116q37 14 74 -3t50 -54
q14 -37 -3 -73.5t-54 -50.5q-60 -23 -119 -48t-117 -54q56 -37 111 -78t108 -86q30 -25 33.5 -65.5t-21.5 -70.5t-65.5 -34t-70.5 21q-94 78 -194 146q-3 -67 -7.5 -133t-9.5 -135q-3 -39 -33.5 -65t-69.5 -23q-39 4 -65 34.5t-23 69.5q10 123 14 248q-48 -33 -96 -68.5
t-94 -73.5q-30 -25 -69.5 -21t-65.5 34z" />
    <glyph glyph-name="plus" unicode="+" horiz-adv-x="1094" 
d="M77 427q-5 47 24 84t75 43q68 8 134 13t131 8q-3 55 -8 110.5t-12 111.5q-5 47 24 84.5t75 42.5q46 6 83.5 -23.5t43.5 -75.5q7 -63 12 -124t8 -121q120 0 241 -6q47 -1 79 -36t30 -82t-37 -78.5t-82 -29.5q-115 5 -225 6q0 -131 -6 -261q-2 -47 -36.5 -78t-81.5 -30
q-47 2 -78.5 37t-30.5 81q6 125 6 246q-60 -3 -120 -8t-122 -13q-46 -5 -83.5 24t-43.5 75z" />
    <glyph glyph-name="comma" unicode="," horiz-adv-x="488" 
d="M65 -305q-40 23 -52 69t11 86l230 396q23 41 69 52.5t86 -11.5q41 -23 52.5 -68.5t-11.5 -86.5l-230 -396q-23 -40 -68.5 -52t-86.5 11z" />
    <glyph glyph-name="hyphen" unicode="-" horiz-adv-x="1094" 
d="M77 427q-5 47 24 84t75 43q122 14 239 20t233 6q130 0 260 -6q47 -1 79 -36t30 -82t-37 -78.5t-82 -29.5q-127 6 -250 6q-111 0 -220.5 -6t-223.5 -20q-46 -5 -83.5 24t-43.5 75z" />
    <glyph glyph-name="period" unicode="." horiz-adv-x="490" 
d="M101 87q0 56 44 101.5t106 45.5q50 0 80.5 -24.5t44 -57t13.5 -58.5q0 -31 -16.5 -67t-48 -61.5t-78.5 -25.5q-55 0 -87 26t-45 60.5t-13 60.5z" />
    <glyph glyph-name="slash" unicode="/" horiz-adv-x="975" 
d="M152 -97q-40 23 -48.5 67.5t9.5 87.5l551 1326q18 44 53.5 71.5t80.5 16.5q46 -10 76 -50.5t12 -83.5l-578 -1396q-18 -43 -67 -53t-89 14z" />
    <glyph glyph-name="zero" unicode="0" horiz-adv-x="1171" 
d="M66 557q0 176 36 337.5t105.5 289.5t172 202t234.5 74q152 0 264 -92t174 -251t62 -361q0 -174 -37.5 -328t-111.5 -272.5t-182.5 -186t-250.5 -67.5q-153 0 -256.5 81.5t-156.5 229t-53 344.5zM294 515q0 -184 55.5 -285.5t179.5 -101.5q122 0 201.5 87.5t118.5 233
t39 317.5q0 133 -32.5 238t-92 166.5t-140.5 61.5t-142.5 -60.5t-103 -163.5t-62.5 -231t-21 -262z" />
    <glyph glyph-name="one" unicode="1" horiz-adv-x="845" 
d="M605 -113q-46 0 -79.5 33.5t-32.5 80.5l7 1083q-66 -42 -135.5 -77.5t-133.5 -60.5q-43 -17 -88 -3.5t-65 55.5q-20 41 -5.5 88.5t57.5 63.5q98 38 211.5 102.5t189.5 140.5q15 16 35 25q23 11 50 11q13 0 25 -3q30 -6 52 -26q42 -39 35 -97l-9 -1304q0 -46 -33.5 -79.5
t-80.5 -32.5z" />
    <glyph glyph-name="two" unicode="2" horiz-adv-x="1201" 
d="M228 844q-52 0 -83 35.5t-31 96.5q0 141 61.5 249t174 169.5t266.5 61.5q133 0 239.5 -63.5t168.5 -169t62 -232.5t-62 -238t-166 -217t-230 -218l-157 -144q54 4 108.5 5.5t109.5 1.5q81 0 162 -3t165 -8q47 -3 78.5 -37t29.5 -81q-1 -46 -36 -78t-82 -30
q-110 5 -193 7.5t-167 2.5q-236 0 -455 -22q-53 -5 -90 32q-34 33 -33 82t36 82l377 355q193 182 286 297t93 216q0 99 -72 165.5t-181 66.5q-126 0 -195.5 -80.5t-69.5 -209.5q0 -94 -114 -94z" />
    <glyph glyph-name="three" unicode="3" horiz-adv-x="1123" 
d="M92 198q30 36 77 41t83 -25q50 -40 120 -63t160 -23q131 0 211.5 72.5t80.5 173.5q-1 116 -81.5 161t-202.5 45q-27 0 -60 -4q-19 -3 -37.5 -6t-34.5 -5q-4 -1 -9 -2q-41 -7 -76 18t-43 66q-7 42 18 76.5t66 42.5q18 3 38 6t41 6q146 25 239.5 77.5t93.5 165.5
q0 107 -55 159t-129 52q-91 0 -148 -40.5t-95 -124.5q-25 -40 -70.5 -51t-85.5 13q-40 25 -51 71t14 86q68 134 179 204t266 70q105 0 197 -52t149 -152.5t57 -247.5q0 -103 -43.5 -175.5t-111.5 -121.5q83 -45 141 -124t62 -201q0 -147 -76.5 -256t-201 -168.5
t-270.5 -59.5q-105 0 -208 33t-188 103q-36 29 -41 77t25 83z" />
    <glyph glyph-name="four" unicode="4" horiz-adv-x="1308" 
d="M911 772q47 -4 77 -40.5t25 -83.5l-19 -181q64 12 118 25q44 11 85 -14.5t52 -69.5q11 -45 -14.5 -86t-69.5 -52q-91 -22 -197 -38l-26 -243q-5 -46 -41.5 -76t-82.5 -26q-46 5 -77 41.5t-26 82.5l21 196q-145 -11 -290 -8.5t-272 20.5q-7 2 -20 6t-24 10
q-41 26 -51 75.5t20 89.5q43 58 100.5 147t122 195.5t126.5 218t114 214.5t85 184q17 43 61 61.5t87 0.5q43 -17 61.5 -60.5t0.5 -87.5q-36 -91 -91 -200t-119 -224t-129.5 -222.5t-123.5 -195.5q87 -4 181 -2t186 9l25 232q5 46 42 76.5t83 25.5z" />
    <glyph glyph-name="five" unicode="5" horiz-adv-x="1163" 
d="M1074 1361q11 -46 -15 -85.5t-72 -49.5q-57 -13 -137 -18.5t-186 -5.5q-153 0 -287 12l-25 -335q48 29 109.5 46t125.5 17q137 0 250.5 -56.5t181 -167t67.5 -274.5q0 -165 -74 -286.5t-201.5 -188.5t-290.5 -67q-234 0 -411 141q-36 29 -41.5 76.5t23.5 83.5t76 40
t84 -22q61 -45 128.5 -69t148.5 -24q151 0 241.5 80t90.5 222q0 152 -88 224.5t-223 72.5q-78 0 -140 -25t-114 -63q-22 -13 -43 -23t-47 -10q-47 0 -75 35.5t-24 88.5l56 622q5 50 47.5 80t94.5 19q47 -9 148 -15t203 -6q92 0 168 5t116 13q46 11 85.5 -15t49.5 -72z" />
    <glyph glyph-name="six" unicode="6" horiz-adv-x="1149" 
d="M1082 419q1 -141 -64 -258.5t-179 -188t-261 -70.5q-174 0 -285 87t-164 239.5t-53 346.5q0 112 13.5 231.5t48.5 230.5t99.5 200t165.5 141t246 52q120 0 258 -40q44 -13 66.5 -55t9.5 -86t-55 -67t-86 -10q-57 17 -105 24.5t-88 7.5q-143 0 -223.5 -99.5t-107.5 -291.5
q65 37 141.5 61.5t159.5 24.5q115 0 220.5 -52t173.5 -158t69 -270zM578 128q82 0 144.5 38.5t98.5 104t35 144.5q-1 106 -40.5 164.5t-100.5 82t-125 23.5q-90 0 -164 -43t-122 -95q4 -228 71 -323.5t203 -95.5z" />
    <glyph glyph-name="seven" unicode="7" horiz-adv-x="1110" 
d="M67 1258q-3 47 28 82t78 38l754 49q49 3 85 -31t35 -83q0 -29 -11 -49q-87 -174 -155 -386.5t-118.5 -442t-87.5 -453.5q-7 -46 -45.5 -73.5t-85.5 -20.5q-46 8 -73.5 46t-20.5 84q48 296 121 601t183 569l-567 -36q-46 -3 -81.5 28t-38.5 78z" />
    <glyph glyph-name="eight" unicode="8" horiz-adv-x="1109" 
d="M76 285q0 115 51 216.5t144 199.5q-91 84 -143 173.5t-52 192.5q0 113 56.5 202t154 140t220.5 51q160 0 276.5 -80.5t176.5 -216.5q25 -13 43 -40q26 -39 22 -82.5t-40 -68.5q-100 -66 -191 -128t-169 -122q89 -56 161.5 -127.5t115 -153t42.5 -166.5q0 -111 -56.5 -194
t-153 -129t-215.5 -46q-129 0 -229 47.5t-157 132.5t-57 199zM302 1067q0 -52 38.5 -107t97.5 -106q67 55 144.5 111.5t164.5 116.5q-32 73 -91 112.5t-149 39.5t-147.5 -47.5t-57.5 -119.5zM302 285q0 -74 58.5 -113.5t158.5 -39.5q83 0 140 38t57 105q0 40 -38.5 89
t-100 101t-131.5 100l-1 1q-67 -71 -105 -140.5t-38 -140.5z" />
    <glyph glyph-name="nine" unicode="9" horiz-adv-x="1088" 
d="M539 1426q161 0 266.5 -85.5t157.5 -229t52 -316.5q0 -194 -60 -374t-169.5 -318t-257.5 -209q-48 -24 -92.5 -3.5t-61.5 62.5q-19 47 2 87t54 56q94 45 167.5 135t120.5 203q-70 -15 -162 -15q-227 0 -356.5 130.5t-129.5 356.5q0 145 56 262.5t161 187.5t252 70z
M295 906q0 -145 65.5 -203t195.5 -58q72 0 125 14t104 38q5 49 5 98q0 108 -25 200.5t-80 148.5t-146 56q-122 0 -183 -87t-61 -207z" />
    <glyph glyph-name="colon" unicode=":" horiz-adv-x="490" 
d="M101 916q0 56 44 101.5t106 45.5q50 0 80.5 -24.5t44 -57t13.5 -58.5q0 -31 -16.5 -67t-48 -61.5t-78.5 -25.5q-55 0 -87 26t-45 60.5t-13 60.5zM101 393q0 56 44 101.5t106 45.5q50 0 80.5 -24.5t44 -57t13.5 -58.5q0 -31 -16.5 -67t-48 -61.5t-78.5 -25.5q-55 0 -87 26
t-45 60.5t-13 60.5z" />
    <glyph glyph-name="semicolon" unicode=";" horiz-adv-x="600" 
d="M194 916q0 56 44 101.5t106 45.5q50 0 80.5 -24.5t44 -57t13.5 -58.5q0 -31 -16.5 -67t-48 -61.5t-78.5 -25.5q-55 0 -87 26t-45 60.5t-13 60.5zM65 -282q-40 23 -52 69t11 86l230 396q23 41 69 52.5t86 -11.5q41 -23 52.5 -68.5t-11.5 -86.5l-230 -396
q-23 -40 -68.5 -52t-86.5 11z" />
    <glyph glyph-name="less" unicode="&#x3c;" horiz-adv-x="655" 
d="M537 245q-28 -16 -60.5 -8.5t-49.5 35.5q-106 172 -250 297q-26 23 -23 62.5t25 58.5q71 59 133.5 132t113.5 162q16 28 48 37.5t60 -7.5q28 -16 37.5 -48t-7.5 -60q-46 -82 -100.5 -149t-116.5 -129q60 -61 115 -128.5t101 -144.5q17 -28 9 -60.5t-35 -49.5z" />
    <glyph glyph-name="equal" unicode="=" horiz-adv-x="1047" 
d="M91 833q3 32 28.5 52.5t58.5 18.5q55 -4 128.5 -7.5t144.5 -5t116 -1.5q81 0 163 4t150 10q32 2 58 -19t28 -53q3 -33 -18 -58t-53 -28q-72 -6 -157 -10t-171 -4q-47 0 -119 1.5t-148.5 4.5t-137.5 8q-31 3 -52 29t-19 58zM92 436q7 32 34.5 51t58.5 12q20 -4 77.5 -7
t126 -4.5t119.5 -1.5q78 0 177.5 3.5t195.5 10.5q32 2 57.5 -19t27.5 -54q3 -32 -18.5 -57t-54.5 -28q-99 -7 -201 -11.5t-184 -4.5q-55 0 -123 1t-130 5t-100 11q-31 7 -50 34.5t-13 58.5z" />
    <glyph glyph-name="greater" unicode="&#x3e;" horiz-adv-x="655" 
d="M129 1014q27 17 60 9t49 -35q105 -173 250 -298q26 -23 23.5 -62.5t-25.5 -58.5q-71 -59 -134 -131.5t-113 -162.5q-16 -28 -48 -37t-60 7t-37 48t7 60q47 81 101.5 149t115.5 129q-60 62 -114.5 129.5t-101.5 144.5q-16 27 -8.5 60t35.5 49z" />
    <glyph glyph-name="question" unicode="?" horiz-adv-x="1165" 
d="M145 1152q-36 59 -12 109.5t62 78.5q67 58 171.5 96t223.5 38q120 0 217 -47.5t154 -134.5t57 -205q0 -81 -32 -141t-84 -107.5t-112 -89.5q-67 -47 -104 -91.5t-37 -101.5q0 -24 4 -41q14 -54 -17.5 -91t-72.5 -44q-57 -9 -91 17t-46 69q-10 34 -10 88q0 118 61 191
t145 133q98 71 134 116.5t36 97.5q0 77 -59 116.5t-147 39.5q-74 0 -149 -29.5t-116 -69.5q-42 -36 -95.5 -39t-80.5 42zM698 89q0 -64 -46 -110.5t-112 -46.5q-63 0 -110.5 44.5t-47.5 112.5q0 66 46 112.5t112 46.5q68 0 113 -48t45 -111z" />
    <glyph glyph-name="at" unicode="@" horiz-adv-x="2276" 
d="M1749 -289q24 -40 13.5 -86t-50.5 -71q-121 -75 -260 -116t-291 -41q-223 0 -417 70t-340.5 201t-228.5 316t-82 416q0 172 55 337t155.5 309t238 253.5t303 171.5t349.5 62q207 0 386.5 -71t315 -200.5t211.5 -307t76 -390.5q0 -68 -14 -154t-46.5 -173.5t-87.5 -161
t-136 -118.5t-193 -45q-94 0 -162.5 47.5t-112.5 118.5q-63 -76 -155.5 -126t-222.5 -50q-137 0 -242.5 62.5t-165 169t-59.5 238.5q0 145 47 267t129.5 211.5t191 138.5t230.5 49q104 0 206.5 -33.5t196.5 -101.5q26 -19 39 -49.5t8 -59.5l-52 -357q-1 -9 -3 -19
q-7 -55 -7 -101q0 -82 39 -129.5t87 -47.5q72 0 130.5 60.5t93.5 157.5t35 206q0 164 -57.5 300t-161 235t-242.5 153.5t-302 54.5q-142 0 -272 -50t-239.5 -138.5t-190.5 -204t-126 -247t-45 -267.5q0 -236 107.5 -411t297 -270.5t435.5 -95.5q119 0 228 33.5t203 91.5
q40 24 86 13.5t71 -50.5zM1398 752q-104 58 -214 58q-93 0 -177.5 -51.5t-138.5 -149t-54 -237.5q0 -110 64 -177t175 -67q93 0 155.5 49.5t98.5 128t49 165.5z" />
    <glyph glyph-name="A" unicode="A" horiz-adv-x="1376" 
d="M138 -112q-42 19 -59 64t2 87l538 1324q20 45 68 60.5t91 -8.5q38 -22 51 -57l478 -1316q17 -43 -2 -87t-62 -61q-43 -16 -87 2.5t-61 61.5l-95 267l-593 18l-118 -298q-19 -42 -63.5 -59t-87.5 2zM716 1024l-220 -557l422 -12z" />
    <glyph glyph-name="B" unicode="B" horiz-adv-x="1178" 
d="M1117 356q0 -136 -54.5 -224.5t-143.5 -138.5t-192 -70.5t-201 -20.5q-84 0 -167.5 11.5t-158.5 35.5q-46 12 -70 54l-2 4v0q-14 27 -13 57v4q11 146 16.5 307t5.5 302q0 176 -7 316t-18 274v7q-4 54 37 91h1v0q15 14 34 21q86 33 182.5 53.5t191.5 20.5
q118 0 227.5 -51.5t179.5 -148t70 -231.5q0 -101 -46 -174t-118 -124q111 -48 178.5 -140.5t67.5 -234.5zM558 1232q-101 0 -212 -31q7 -99 11 -201.5t6 -224.5q223 28 334.5 91.5t111.5 180.5q0 79 -67 132t-184 53zM561 580q-30 0 -87.5 -4.5t-111.5 -9.5
q-1 -101 -5 -209.5t-10 -210.5q90 -18 179 -18q170 0 266.5 50t96.5 178q0 127 -73 175.5t-255 48.5z" />
    <glyph glyph-name="C" unicode="C" horiz-adv-x="1261" 
d="M1155 1246q-19 -43 -63.5 -60t-86.5 2q-100 44 -216 44q-155 0 -265 -76t-167.5 -205t-57.5 -289q0 -155 56 -276t164.5 -189.5t265.5 -68.5q132 0 249 61q41 22 85.5 7.5t66.5 -55.5q22 -40 7.5 -85t-55.5 -67q-166 -87 -353 -87q-218 0 -378.5 100t-248 272.5
t-87.5 387.5q0 162 49 306t142.5 255t226.5 174t300 63q79 0 157 -15.5t151 -48.5q43 -19 60 -63.5t-2 -86.5z" />
    <glyph glyph-name="D" unicode="D" horiz-adv-x="1319" 
d="M217 1436q105 24 214 24q235 0 422 -86t295.5 -254.5t108.5 -418.5q0 -166 -58.5 -311t-164 -254.5t-248 -171.5t-309.5 -62q-153 0 -293 54q-37 14 -56.5 50t-15.5 71q22 164 33.5 358t11.5 376q0 98 -3 175.5t-9 154.5t-16 173q-5 44 23.5 79.5t64.5 42.5zM365 1227
q10 -106 14 -201t4 -215q0 -163 -8.5 -334.5t-25.5 -329.5q65 -19 128 -19q158 0 283.5 75t198 205t72.5 293q0 271 -156 401t-444 130q-16 0 -32.5 -1t-33.5 -4z" />
    <glyph glyph-name="E" unicode="E" horiz-adv-x="1138" 
d="M72 681q-5 41 18 75.5t61 46.5q2 82 2 157q0 71 -2 125t-7 107t-14 119q-3 24 10 55t41 53t69 19q62 -4 124 -6t123 -2q114 0 232.5 9.5t208.5 30.5q46 11 86 -14.5t50 -71.5q11 -46 -14.5 -85.5t-71.5 -50.5q-111 -25 -239.5 -35.5t-251.5 -10.5q-65 0 -128 3
q6 -60 9 -116.5t3 -128.5q0 -65 -2 -135q71 3 146 3q95 0 188.5 -5.5t184.5 -16.5q46 -6 75.5 -43t23.5 -84q-5 -46 -42.5 -75t-83.5 -24q-85 11 -171 15.5t-175 4.5q-41 0 -79.5 -1t-76.5 -2q-5 -83 -12.5 -161.5t-17.5 -147.5q-4 -20 -4 -43q0 -57 44 -74t144.5 -15
t269.5 2h77.5t74.5 1q47 2 81 -31t35 -80q2 -47 -31.5 -80.5t-80.5 -34.5q-38 -1 -77 -1h-79q-75 0 -166 -3.5t-182 4t-167.5 37.5t-122.5 95t-46 180q0 35 4 70q9 60 15.5 130.5t11.5 145.5q-60 26 -68 90z" />
    <glyph glyph-name="F" unicode="F" horiz-adv-x="1132" 
d="M72 627q-5 43 20 78.5t66 46.5q-2 143 -9 271.5t-24 266.5q-3 24 10 55t41 53t69 19q61 -4 123 -5.5t123 -1.5q114 0 232.5 9t208.5 30q46 11 86 -14.5t50 -71.5q11 -46 -14.5 -85.5t-71.5 -50.5q-111 -25 -239.5 -35t-251.5 -10q-31 0 -63 0.5t-63 1.5
q10 -104 14.5 -205t6.5 -208q64 3 128 3q92 0 184.5 -5.5t183.5 -16.5q46 -6 75 -43t24 -84q-6 -46 -43 -75t-84 -24q-85 11 -170 16.5t-170 5.5q-63 0 -127 -3q-2 -296 -32 -557q-5 -46 -42 -76t-84 -25q-46 5 -75.5 42t-24.5 83q14 118 21.5 250t8.5 269q-34 8 -58 34
t-29 62z" />
    <glyph glyph-name="G" unicode="G" horiz-adv-x="1389" 
d="M599 649q0 47 34 80t80 33h496q47 0 79 -33.5t34 -71.5q2 -31 3.5 -61t1.5 -59q0 -126 -30.5 -240t-98.5 -203t-180.5 -140.5t-276.5 -51.5q-184 0 -336 84t-243 248t-91 405q0 159 43 306t131 263t223.5 184t319.5 68q190 0 342 -113q38 -28 45 -74.5t-21 -83.5
t-75 -44.5t-84 20.5q-92 67 -207 67q-166 0 -274.5 -74.5t-161.5 -207.5t-53 -311q0 -186 58.5 -298.5t158.5 -162.5t225 -50q148 0 224.5 46.5t104.5 137.5t28 224h-385q-46 0 -80 33.5t-34 79.5z" />
    <glyph glyph-name="H" unicode="H" horiz-adv-x="1359" 
d="M1257 649q-1 -38 -24 -66t-57 -38l5 -565q0 -47 -32.5 -81t-79.5 -34q-46 0 -80 32.5t-35 79.5l-5 571q-136 5 -283.5 8t-273.5 5q-2 -144 -7.5 -286.5t-14.5 -282.5q-4 -46 -39.5 -78t-81.5 -28q-46 3 -78 39t-29 82q9 141 15 284t8 289q-53 34 -53 96q0 64 55 98
q1 134 -1 269t-5 270q-1 47 31 81.5t79 35.5t81 -31t35 -79q4 -133 5.5 -266t1.5 -265q126 -2 272 -5.5t281 -8.5l-5 540q0 47 32.5 81t79.5 34t80.5 -32.5t34.5 -79.5l5 -555q38 -10 61.5 -42t21.5 -72z" />
    <glyph glyph-name="I" unicode="I" horiz-adv-x="475" 
d="M223 -113q-47 1 -79.5 35t-31.5 81l35 1361q1 47 35 79.5t81 30.5q47 -1 79.5 -34.5t30.5 -80.5l-35 -1361q-1 -47 -34.5 -79.5t-80.5 -31.5z" />
    <glyph glyph-name="J" unicode="J" horiz-adv-x="720" 
d="M85 1317q0 47 33.5 80t79.5 33h377q47 0 80.5 -33t33.5 -80q0 -46 -33.5 -79.5t-80.5 -33.5h-12q26 -223 38 -442t12 -462q0 -103 -35 -194t-113 -147.5t-207 -56.5q-40 0 -82 3q-46 4 -77 40t-27 82q4 47 40.5 78t82.5 26q30 -3 63 -3q55 0 82.5 12t37 48.5t9.5 111.5
q0 245 -12.5 462.5t-40.5 441.5h-136q-46 0 -79.5 33.5t-33.5 79.5z" />
    <glyph glyph-name="K" unicode="K" horiz-adv-x="1222" 
d="M223 -113q-47 1 -79.5 35t-31.5 81l16 628q-13 24 -13 55t16 58l16 619q1 47 35 79.5t81 30.5q47 -1 79.5 -34.5t30.5 -80.5l-12 -455q161 107 311.5 240t259.5 279q28 38 75 45.5t84 -21.5q38 -28 45 -74.5t-21 -84.5q-94 -126 -212 -241t-246 -213t-253 -174
q155 -162 335.5 -303t371.5 -260q39 -25 49.5 -72t-15.5 -85q-25 -39 -71.5 -49.5t-85.5 14.5q-167 104 -330 228.5t-310 264.5l-10 -399q-1 -47 -34.5 -79.5t-80.5 -31.5z" />
    <glyph glyph-name="L" unicode="L" horiz-adv-x="1156" 
d="M236 1429q47 3 82 -28t38 -78q8 -127 12.5 -250t4.5 -243q0 -171 -7 -338.5t-19 -335.5l637 -21q47 -1 79.5 -34.5t30.5 -80.5q-1 -47 -34.5 -79.5t-80.5 -31.5l-756 23q-44 1 -79.5 36.5t-31.5 85.5q15 197 24 389t9 387q0 117 -3.5 236t-11.5 243q-3 47 28 82t78 38z
" />
    <glyph glyph-name="M" unicode="M" horiz-adv-x="1639" 
d="M203 -113q-46 5 -76 42t-25 83l137 1300q5 49 45.5 79t88.5 21q35 -6 58 -31.5t31 -49.5q34 -111 85.5 -238t107 -246.5t100.5 -209.5q34 -61 58 -61q23 0 55 55q37 70 79.5 164t82.5 195t70.5 192.5t43.5 155.5q10 49 52.5 75t89.5 12q39 -11 60 -44.5t22 -60.5
q7 -190 21 -353t35.5 -313t51.5 -300.5t69 -315.5q11 -46 -14 -86t-71 -51q-46 -10 -86 14.5t-51 70.5q-49 211 -84 401.5t-55 404.5q-25 -69 -61.5 -149.5t-72.5 -140.5q-26 -44 -58 -87t-75.5 -71t-104.5 -28q-66 0 -112.5 32.5t-78.5 80t-56 91.5q-35 63 -76 148t-73 167
l-88 -847q-4 -46 -41 -76t-84 -25z" />
    <glyph glyph-name="N" unicode="N" horiz-adv-x="1347" 
d="M219 -113q-46 2 -77.5 37.5t-29.5 81.5q17 333 29 653t16 658q0 50 37 83.5t86 28.5q25 -1 47 -15.5t33 -28.5q177 -232 339.5 -477t308.5 -490l11 944q0 47 34 80t80 32q47 0 80 -33.5t32 -80.5l-15 -1357q0 -26 -13 -52t-37 -42q-40 -27 -89 -15t-73 55
q-143 258 -304 518t-338 508q-5 -247 -15.5 -489.5t-22.5 -491.5q-1 -46 -36.5 -77.5t-82.5 -29.5z" />
    <glyph glyph-name="O" unicode="O" horiz-adv-x="1525" 
d="M738 -98q-145 0 -266.5 53t-211.5 149.5t-139.5 226t-49.5 282.5q0 162 54 313.5t154 272t238 191t307 70.5q156 0 275 -67t200 -179.5t122.5 -250.5t41.5 -279q0 -165 -54 -307.5t-152 -249t-230 -166t-289 -59.5zM738 128q141 0 254 69t179 194.5t66 292.5
q0 156 -54 280t-147 196t-212 72q-109 0 -204.5 -48.5t-167.5 -133.5t-112.5 -197t-40.5 -240q0 -150 57 -258.5t156 -167.5t226 -59z" />
    <glyph glyph-name="P" unicode="P" horiz-adv-x="1309" 
d="M110 1082q-34 31 -37.5 78t27.5 82q63 73 156.5 121t199 72.5t205.5 24.5q125 0 232 -47t186.5 -129t123.5 -190.5t44 -231.5q0 -135 -59.5 -240t-157.5 -178t-214.5 -110.5t-230.5 -37.5q-32 0 -76 2t-91 7l-22 -313q-3 -46 -38.5 -77t-82.5 -28q-46 3 -77 38.5
t-28 82.5l28 394q-18 44 -1 87q4 9 9 17l40 566q-31 -20 -69 -17.5t-67 27.5zM661 1232q-43 0 -88.5 -7.5t-89.5 -20.5l-48 -669q40 -5 82.5 -9t67.5 -4q114 0 213.5 47t161 124.5t61.5 168.5q0 105 -47.5 188.5t-129 132.5t-183.5 49z" />
    <glyph glyph-name="Q" unicode="Q" horiz-adv-x="1525" 
d="M738 -98q-145 0 -266.5 53t-211.5 149.5t-139.5 226t-49.5 282.5q0 162 54 313.5t154 272t238 191t307 70.5q156 0 275 -67t200 -179.5t122.5 -250.5t41.5 -279q0 -158 -50 -295.5t-139 -241.5q62 -63 134 -126q35 -31 38.5 -78.5t-27.5 -82.5t-78.5 -38t-82.5 28
q-84 74 -158 150q-78 -47 -169.5 -72.5t-192.5 -25.5zM738 128q111 0 208 45q-63 77 -130 170q-27 38 -19.5 84.5t45.5 73.5t84.5 19.5t73.5 -45.5q31 -43 61.5 -82.5t60.5 -76.5q54 70 84.5 163.5t30.5 204.5q0 156 -54 280t-147 196t-212 72q-109 0 -204.5 -48.5
t-167.5 -133.5t-112.5 -197t-40.5 -240q0 -150 57 -258.5t156 -167.5t226 -59z" />
    <glyph glyph-name="R" unicode="R" horiz-adv-x="1310" 
d="M204 535q9 15 22 26l30 529q-38 -25 -83.5 -22t-74.5 39t-24.5 84t41.5 76q106 88 243.5 140.5t288.5 52.5q170 0 297.5 -82.5t199 -218.5t71.5 -297q0 -130 -57 -238t-153.5 -185t-216.5 -114l404 -226q41 -22 53 -68.5t-11 -87.5q-23 -40 -69.5 -53t-86.5 11l-642 378
l-16 -286q-2 -46 -37.5 -77.5t-82.5 -28.5q-46 2 -77.5 37.5t-28.5 82.5l23 406q-22 24 -26 58t13 64zM647 1232q-39 0 -79 -6.5t-79 -17.5l-38 -674q34 -8 68.5 -11t65.5 -3q115 0 206 48.5t144.5 127t53.5 166.5q0 109 -44 192t-121 130.5t-177 47.5z" />
    <glyph glyph-name="S" unicode="S" horiz-adv-x="1122" 
d="M992 1204q-22 -40 -67.5 -52.5t-86.5 9.5q-73 41 -124 56t-117 15q-136 0 -215 -61.5t-79 -167.5q0 -73 66 -125.5t223 -103.5q230 -75 349.5 -187.5t119.5 -253.5q0 -129 -64 -226t-179.5 -151t-270.5 -54q-120 0 -233 26t-211 81q-41 23 -54 68.5t9 85.5q23 41 69 54
t86 -10q71 -39 161 -59t175 -20q129 0 206.5 50t77.5 134q0 152 -307 244q-449 137 -449 447q0 135 66.5 238t183.5 161t270 58q93 0 172.5 -22.5t179.5 -78.5q41 -23 53.5 -68.5t-10.5 -86.5z" />
    <glyph glyph-name="T" unicode="T" horiz-adv-x="1463" 
d="M737 -110q-47 -1 -81 31t-36 79q-4 137 -7.5 275t-3.5 276q0 163 3.5 323.5t10.5 320.5l-440 8q-46 0 -79 34t-32 81q0 47 34 79.5t81 31.5l1103 -19q47 0 79.5 -34t31.5 -81q0 -46 -34 -79t-81 -32l-435 8q-14 -320 -14 -641q0 -271 9 -544q2 -47 -30 -81t-79 -36z" />
    <glyph glyph-name="U" unicode="U" horiz-adv-x="1350" 
d="M323 1445q46 -10 72 -49.5t15 -85.5q-35 -163 -53 -310.5t-18 -322.5q0 -165 30 -288.5t99.5 -192t187.5 -68.5q110 0 181 68.5t111 191t56.5 285.5t16.5 353q0 49 -1 111t-2.5 121t-3.5 98q-2 47 29.5 82t78.5 36q47 2 81.5 -29.5t37.5 -78.5q2 -40 4 -100t3 -124
t1 -116q0 -234 -27 -437.5t-92.5 -358t-181 -241.5t-292.5 -87q-196 0 -316 104t-174.5 284t-54.5 409q0 173 19.5 329t57.5 330q10 46 50 72t85 15z" />
    <glyph glyph-name="V" unicode="V" horiz-adv-x="1408" 
d="M147 1424q44 15 87.5 -5.5t58.5 -64.5l349 -1010l488 1021q20 42 65 58t87 -4t58 -65t-4 -87l-608 -1271q-7 -15 -22.5 -31t-34.5 -24q-45 -19 -91 0.5t-63 65.5l-440 1271q-15 44 6 87.5t64 58.5z" />
    <glyph glyph-name="W" unicode="W" horiz-adv-x="1986" 
d="M153 1458q44 14 86 -9t55 -67l242 -1002l354 843q20 45 67 62.5t90 -5.5q40 -22 56 -64l277 -817l323 954q15 44 58.5 65t86.5 6q44 -15 65 -58t6 -87l-431 -1271q-15 -46 -63 -68q-45 -19 -90.5 1.5t-62.5 66.5l-288 851l-361 -858q-7 -18 -24.5 -36t-39.5 -26
q-46 -18 -91 4t-59 70l-333 1304q-13 44 10 86t67 55z" />
    <glyph glyph-name="X" unicode="X" horiz-adv-x="1307" 
d="M121 -94q-38 26 -46.5 73t16.5 85l419 616l-375 531q-28 38 -19 85.5t46 73.5q38 26 85.5 18.5t73.5 -45.5l326 -462l354 521q26 39 73 47.5t85 -17.5q39 -25 47.5 -72.5t-17.5 -85.5l-402 -591l438 -621q26 -38 18.5 -85t-45.5 -74q-38 -26 -85.5 -18t-73.5 45l-389 551
l-371 -545q-25 -38 -72.5 -46.5t-85.5 16.5z" />
    <glyph glyph-name="Y" unicode="Y" horiz-adv-x="1307" 
d="M663 -113q-47 -1 -81 32t-34 79l-10 599l-445 654q-27 38 -19 84.5t45 73.5q38 27 84.5 19.5t73.5 -45.5l371 -551l390 540q26 39 73 47.5t85 -17.5q39 -25 47.5 -72.5t-17.5 -85.5l-462 -647l10 -595q1 -47 -31.5 -81t-79.5 -34z" />
    <glyph glyph-name="Z" unicode="Z" horiz-adv-x="1412" 
d="M74 1243q-11 45 14 86t70 52q158 39 338.5 55.5t355.5 9.5t314 -39q49 -11 74 -45t23.5 -75t-33.5 -73q-239 -239 -428.5 -504t-361.5 -528q203 19 390.5 27.5t406.5 8.5q47 0 80.5 -33.5t33.5 -80.5q0 -46 -33.5 -80t-80.5 -34q-184 0 -346.5 -6t-320.5 -18.5
t-327 -31.5q-49 -5 -82 23t-41.5 70t14.5 79q167 275 356.5 557t434.5 546q-112 11 -238 8t-249 -17.5t-226 -40.5q-44 -11 -85.5 14t-52.5 70z" />
    <glyph glyph-name="bracketleft" unicode="[" horiz-adv-x="725" 
d="M638 1330q5 -46 -26 -82t-78 -40q-26 -2 -51.5 -3t-51.5 -2q-23 -1 -46.5 -0.5t-46.5 1.5q5 -58 7.5 -116t2.5 -116q0 -111 -4.5 -218.5t-10.5 -211.5q-4 -65 -6 -103t-2.5 -74.5t-0.5 -98.5q0 -66 46.5 -84.5t154.5 -23.5q47 -1 79 -36t30 -82t-37 -78.5t-82 -29.5
q-109 5 -204.5 34.5t-155 100.5t-59.5 199q0 61 0.5 101t2.5 82t6 107q6 103 10.5 208t4.5 208q0 85 -4 168.5t-15 166.5q-3 25 10.5 56t42 53t69.5 18q36 -3 72.5 -3.5t75.5 -0.5t75 1t70 3q47 5 82.5 -26t39.5 -78z" />
    <glyph glyph-name="backslash" unicode="\" horiz-adv-x="975" 
d="M841 -97q-40 -24 -89 -14t-67 53l-579 1396q-18 43 12 83.5t76 50.5q46 11 81.5 -16.5t53.5 -71.5l551 -1326q18 -43 9.5 -87.5t-48.5 -67.5z" />
    <glyph glyph-name="bracketright" unicode="]" horiz-adv-x="736" 
d="M97 1361q8 47 46.5 74.5t84.5 20.5q68 -11 143 -18t151 -9q56 -1 88 -46t21 -92q-17 -78 -24.5 -136.5t-9 -121.5t-1.5 -158q0 -67 7.5 -136t18.5 -143q11 -75 19.5 -153.5t8.5 -157.5q0 -109 -40 -178t-105 -107t-140.5 -53t-147.5 -15q-46 0 -79.5 33.5t-33.5 79.5
q0 47 33.5 80t79.5 33q124 0 164.5 23t40.5 104q0 65 -7.5 134.5t-18.5 142.5q-11 76 -19.5 154.5t-8.5 158.5q0 103 2.5 176.5t15.5 158.5q-103 6 -194 20q-46 8 -74 46.5t-21 84.5z" />
    <glyph glyph-name="asciicircum" unicode="^" horiz-adv-x="728" 
d="M157 1117q-21 13 -27 38t7 47l166 269q14 24 50 25t51 -19l192 -241q16 -19 13.5 -45.5t-22.5 -42.5q-19 -15 -45.5 -12t-41.5 23l-138 172l-119 -195q-13 -21 -39 -26.5t-47 7.5z" />
    <glyph glyph-name="underscore" unicode="_" horiz-adv-x="610" 
d="M724 45q0 -46 -33.5 -79.5t-80.5 -33.5h-610q-46 0 -80 33.5t-34 79.5q0 47 34 80t80 33h610q47 0 80.5 -33t33.5 -80z" />
    <glyph glyph-name="grave" unicode="`" horiz-adv-x="549" 
d="M152 1531q20 15 46 12.5t41 -22.5q50 -63 100.5 -154.5t86.5 -171.5q11 -22 1 -47.5t-32 -35.5t-47 -0.5t-36 31.5q-22 50 -52 106.5t-61 108.5t-58 86q-15 20 -11.5 45.5t22.5 41.5z" />
    <glyph glyph-name="a" unicode="a" horiz-adv-x="1309" 
d="M1143 -68q-82 0 -139 34.5t-92 94.5q-68 -75 -159 -117t-200 -42q-142 0 -249.5 69t-168 188.5t-62.5 268.5q-2 132 37.5 254.5t114 220t177.5 154.5t227 57q74 0 137 -23.5t119 -67.5q10 38 43 59.5t74 16.5q47 -7 78.5 -45t28.5 -83l-29 -468q-1 -19 -3 -38
q-3 -42 -3.5 -91t1.5 -80q3 -53 22.5 -93t80.5 -48q29 -10 54 -34t25 -74q1 -46 -33 -79.5t-81 -33.5zM555 128q134 0 206 100t88 271q1 8 1 15q0 6 1 11t1 10l13 198q-22 15 -35 37q-36 54 -87 86t-116 32q-103 0 -177 -66.5t-112.5 -172.5t-36.5 -224q3 -134 68.5 -215.5
t185.5 -81.5z" />
    <glyph glyph-name="b" unicode="b" horiz-adv-x="1203" 
d="M271 1474q47 -1 79 -35t30 -81l-12 -361q68 55 144 86t152 31q138 0 230 -56.5t146.5 -145t77.5 -187t23 -182.5q0 -186 -79 -331t-214.5 -227.5t-307.5 -82.5q-89 0 -170 22q-39 10 -63 43q-35 -37 -85 -35q-47 2 -79 36t-31 81l42 1316q2 47 36 79t81 30zM428 143
q54 -15 112 -15q109 0 193.5 52t133 144t48.5 212q0 97 -26 177t-81 127.5t-144 47.5q-90 0 -174 -70.5t-129 -222.5q-2 -9 -6 -18l-14 -447q41 25 87 13z" />
    <glyph glyph-name="c" unicode="c" horiz-adv-x="1071" 
d="M966 833q-30 -35 -77.5 -38.5t-82.5 26.5q-77 67 -170 67q-100 0 -176 -63t-118.5 -165t-42.5 -221q0 -136 68 -223.5t215 -87.5q69 0 143.5 17.5t137.5 43.5q45 14 87 -8.5t55 -67.5t-9.5 -86t-66.5 -55q-87 -34 -165.5 -52t-163.5 -18q-170 0 -288.5 71.5t-179.5 196
t-61 282.5q0 131 40.5 250t115 211.5t177 146.5t226.5 54q94 0 175.5 -31t148.5 -90q35 -30 39 -77.5t-27 -82.5z" />
    <glyph glyph-name="d" unicode="d" horiz-adv-x="1237" 
d="M632 1114q131 0 243 -71l7 321q1 47 35 79.5t81 30.5q47 -1 79.5 -34.5t30.5 -80.5l-18 -849q0 -153 5 -232t14 -112t21 -49q30 -35 25 -83t-41 -77q-35 -30 -83 -25t-77 41q-28 35 -47 75q-71 -70 -163.5 -108t-195.5 -38q-142 0 -249.5 70t-167.5 192t-60 279
q0 131 43 251.5t119.5 215t178.5 149.5t220 55zM299 439q0 -145 65.5 -228t186.5 -83q126 0 210.5 94.5t100.5 263.5q0 4 1 7v19l5 221q-17 14 -27 33q-37 57 -92 89t-120 32q-94 0 -169 -63t-118 -165t-43 -220z" />
    <glyph glyph-name="e" unicode="e" horiz-adv-x="1191" 
d="M1062 47q-95 -87 -207 -116t-220 -29q-169 0 -302.5 84.5t-182.5 265.5q-31 11 -52.5 38t-23.5 62q-4 67 53 103q3 122 46 239t121.5 212t188 151.5t245.5 56.5q79 0 159.5 -34t135 -102.5t54.5 -172.5q0 -92 -41 -162.5t-94.5 -118t-90.5 -69.5q-223 -133 -466 -183
q64 -144 250 -144q178 0 275 87q35 32 82 29.5t78 -37.5q32 -34 29.5 -81.5t-37.5 -78.5zM722 888q-93 0 -173 -52.5t-132.5 -141.5t-61.5 -198q101 20 194.5 55t176.5 84q131 78 131 152q0 47 -38.5 74t-96.5 27z" />
    <glyph glyph-name="f" unicode="f" horiz-adv-x="813" 
d="M72 821q-3 47 27.5 82.5t77.5 38.5q37 3 75 5q5 103 10.5 198t12.5 174q5 57 19.5 126.5t44 132.5t79.5 103.5t126 40.5q57 0 101.5 -27.5t75.5 -64.5q29 -32 26.5 -78t-25.5 -72q-26 -30 -49.5 -34.5t-47.5 1.5q-31 22 -52 22q-57 0 -72 -170q-6 -74 -11.5 -164.5
t-9.5 -190.5q81 -5 171 -15q47 -6 76.5 -43t23.5 -83q-5 -46 -42.5 -75.5t-83.5 -24.5q-77 9 -153 13q-5 -195 -7.5 -386t-2.5 -334q0 -46 -33.5 -79.5t-80.5 -33.5q-46 0 -79.5 33t-33.5 80q0 144 2 335t8 388q-26 -1 -51 -3q-47 -3 -83 27.5t-39 77.5z" />
    <glyph glyph-name="g" unicode="g" horiz-adv-x="1258" 
d="M996 1100h3q8 0 17 -1q22 -3 42 -14q56 -30 63 -84q4 -15 3 -30l-2 -64q-3 -344 -20.5 -593.5t-57.5 -416.5t-107.5 -265.5t-170 -141t-246.5 -42.5q-104 0 -212.5 45t-187.5 132q-31 35 -30.5 82.5t32.5 78.5q35 34 84.5 33t77.5 -35q48 -58 109.5 -83t119.5 -25
q95 0 160.5 27t108 97t66.5 198q-61 -40 -134.5 -62t-155.5 -22q-147 0 -254.5 66t-167 182.5t-62.5 265.5q-2 133 38 256t114.5 220t177.5 153.5t226 56.5q147 0 269 -93q8 33 34 54q26 26 63 25zM564 128q140 0 223.5 111t90.5 296l8 194q-27 16 -42 41q-35 52 -91.5 85
t-123.5 33q-101 0 -175.5 -65.5t-113.5 -171.5t-37 -226q3 -135 67 -216t194 -81z" />
    <glyph glyph-name="h" unicode="h" horiz-adv-x="1206" 
d="M220 -113q-42 4 -74.5 35t-28.5 86l97 1386q4 56 41.5 82.5t80.5 23.5q42 -4 75.5 -35t28.5 -87l-29 -421q61 70 137.5 113t168.5 43q123 0 203.5 -62t120.5 -166.5t40 -230.5q0 -159 -2 -323t-11 -332q-2 -42 -32.5 -76.5t-83.5 -34.5q-55 0 -84.5 33.5t-27.5 77.5
q6 127 9 237.5t3 215.5q0 200 -34 317.5t-129 117.5q-64 0 -113.5 -43.5t-87 -117t-66 -163t-49.5 -182.5q-1 -7 -4 -13l-26 -376q-4 -56 -41.5 -82.5t-81.5 -22.5z" />
    <glyph glyph-name="i" unicode="i" horiz-adv-x="475" 
d="M124 1423q0 56 44 101.5t106 45.5q50 0 80.5 -24.5t44 -57t13.5 -58.5q0 -31 -16.5 -67t-48 -61.5t-78.5 -25.5q-55 0 -87 26t-45 60.5t-13 60.5zM250 1084q47 -1 78.5 -36t29.5 -82q-3 -69 -5.5 -168t-4 -211t-2.5 -223t-1.5 -206t-0.5 -158q0 -46 -33.5 -79.5
t-80.5 -33.5q-46 0 -79.5 33.5t-33.5 79.5q0 63 0.5 158.5t1.5 207t3 224.5t4.5 213.5t5.5 172.5q2 47 37 78.5t81 29.5z" />
    <glyph glyph-name="j" unicode="j" horiz-adv-x="464" 
d="M236 1084q47 0 80 -33t33 -80q0 -230 -1.5 -416.5t-6.5 -334.5q-6 -158 -20 -294t-49.5 -238t-104 -159t-182.5 -57q-46 0 -79.5 34t-33.5 80q0 47 33.5 80.5t79.5 33.5q68 0 94.5 124t35.5 406q5 143 6.5 327t1.5 414q0 47 33.5 80t79.5 33zM113 1423q0 56 44 101.5
t106 45.5q50 0 80.5 -24.5t44 -57t13.5 -58.5q0 -31 -16.5 -67t-48 -61.5t-78.5 -25.5q-55 0 -87 26t-45 60.5t-13 60.5z" />
    <glyph glyph-name="k" unicode="k" horiz-adv-x="1059" 
d="M957 -64q-27 -38 -74 -46t-85 19q-119 84 -232 180.5t-215 199.5l-13 -290q-1 -47 -36 -78.5t-82 -29.5t-78.5 37t-29.5 81l60 1357q2 47 37 78.5t81 29.5q47 -1 78.5 -36t29.5 -82l-28 -637q114 69 222 153t179 171q29 36 77 41t83 -25q36 -29 41 -77t-25 -83
q-89 -109 -225 -208.5t-266 -179.5q111 -115 233 -223t241 -194q38 -27 46 -73.5t-19 -84.5z" />
    <glyph glyph-name="l" unicode="l" horiz-adv-x="489" 
d="M259 1463q47 -1 78.5 -36t29.5 -82q-6 -127 -9.5 -296.5t-5.5 -355.5t-2.5 -366t-0.5 -327q0 -46 -33.5 -79.5t-80.5 -33.5q-46 0 -79.5 33.5t-33.5 79.5q0 148 0.5 328t3 367t6 358.5t9.5 301.5q2 47 37 78.5t81 29.5z" />
    <glyph glyph-name="m" unicode="m" horiz-adv-x="1761" 
d="M116 19q24 254 33 421q0 5 1 11q5 108 5 196q0 96 -6 176t-19 161q-9 52 18 83.5t65 40.5q44 11 87.5 -10.5t53.5 -78.5l8 -54q57 69 130.5 109t166.5 40q119 0 189.5 -59.5t106.5 -156.5q70 98 164 156.5t213 58.5t187.5 -63.5t97 -168t28.5 -227.5q0 -159 -2 -323
t-10 -332q-2 -43 -32.5 -77t-84.5 -34q-55 0 -84.5 33.5t-26.5 77.5q6 127 8.5 237.5t2.5 215.5q0 219 -24.5 327t-111.5 108q-90 0 -156.5 -101.5t-115.5 -282.5q0 -91 -2 -160t-7 -148.5t-14 -202.5q-4 -54 -42 -79t-80 -22q-43 2 -75.5 31.5t-28.5 85.5q9 120 13.5 198
t6.5 145t2 153q0 184 -27.5 284t-120.5 100q-87 0 -149 -111t-106 -289q-4 -100 -13.5 -220.5t-23.5 -270.5q-4 -54 -43 -78t-83 -20q-41 4 -72.5 34t-26.5 86z" />
    <glyph glyph-name="n" unicode="n" horiz-adv-x="1206" 
d="M116 19q20 214 29.5 364t9.5 264q0 96 -6 176t-19 161q-9 52 18 83.5t65 40.5q44 11 87.5 -10.5t53.5 -78.5q9 -58 15 -113q67 90 153.5 148.5t194.5 58.5q123 0 203.5 -62t120.5 -166.5t40 -230.5q0 -159 -2 -323t-11 -332q-2 -42 -32.5 -76.5t-83.5 -34.5
q-55 0 -84.5 33.5t-27.5 77.5q6 127 9 237.5t3 215.5q0 200 -34 317.5t-129 117.5q-64 0 -113.5 -43.5t-87 -117t-66 -163t-49.5 -182.5l-1 -3q-5 -82 -13 -176t-18 -205q-4 -54 -43 -78t-83 -20q-41 4 -72.5 34.5t-26.5 85.5z" />
    <glyph glyph-name="o" unicode="o" horiz-adv-x="1159" 
d="M592 1114q125 0 218 -52t154.5 -137t92 -186.5t30.5 -200.5q0 -109 -33.5 -221t-99 -206t-163 -151.5t-226.5 -57.5q-119 0 -211 50.5t-155 135t-95.5 188.5t-32.5 210q0 108 31 219t95 203.5t162.5 149t232.5 56.5zM592 888q-88 0 -154 -52.5t-102.5 -143t-36.5 -206.5
q0 -106 36.5 -186.5t97.5 -126t132 -45.5q79 0 146 55.5t108.5 148.5t41.5 206q0 98 -34.5 177.5t-95 126t-139.5 46.5z" />
    <glyph glyph-name="p" unicode="p" horiz-adv-x="1237" 
d="M213 -546q-47 2 -78.5 37t-29.5 81l32 688q6 98 10 183t4 160q0 101 -13 187.5t-35 130.5q-20 41 -5 86.5t57 65.5q41 20 86.5 5t65.5 -56q23 -47 39 -103q76 93 172 144t205 51q127 0 226.5 -69t157.5 -192t58 -285q0 -105 -37.5 -221t-120.5 -217t-217.5 -164.5
t-328.5 -63.5q-39 0 -69.5 24t-40.5 60l-20 -424q-1 -47 -36 -78.5t-82 -29.5zM363 246l-9 -192q12 33 41.5 53.5t65.5 20.5q140 0 232.5 41t146.5 107t76.5 143t22.5 149q0 121 -34 190.5t-83.5 99.5t-98.5 30q-48 0 -106.5 -33.5t-113 -105.5t-92.5 -186.5t-44 -276.5
q0 -11 -3 -22q0 -10 -1 -18z" />
    <glyph glyph-name="q" unicode="q" horiz-adv-x="1203" 
d="M997 1090q47 -3 77 -38.5t27 -82.5q-16 -222 -25 -441.5t-9 -440.5q0 -127 3.5 -253t8.5 -254q2 -46 -30 -81t-79 -37q-46 -2 -81 29.5t-37 78.5q-4 110 -7 220t-4 219q-60 -49 -137 -79t-173 -30q-130 0 -219 52t-141.5 138t-76 189t-23.5 205q0 99 26.5 209t84 205.5
t150 155.5t225.5 60q99 0 180.5 -37.5t136.5 -97.5q1 3 1 7q3 47 39 77t83 27zM299 484q0 -356 232 -356q120 0 195.5 82.5t119.5 224.5q5 174 16 352q-36 -20 -78 -13t-68 40q-25 32 -63.5 53t-95.5 21q-75 0 -133 -53t-91.5 -144t-33.5 -207z" />
    <glyph glyph-name="r" unicode="r" horiz-adv-x="945" 
d="M228 -113q-15 1 -29 7h-2q-1 1 -2 1q-55 23 -67 80v2q-1 1 -1 2q-3 16 -1 32q0 5 1 9q3 33 5.5 66t5.5 67q7 87 11 185t4 194q0 127 -10 238.5t-27 168.5q-13 44 10 86t67 55t86 -9.5t55 -66.5q15 -52 25 -120q66 80 161 136.5t228 82.5q46 8 86 -18t48 -72t-18 -86
t-72 -48q-159 -31 -244 -125.5t-123.5 -247t-58.5 -358.5q-6 -86 -14 -159q-1 -15 -7 -29v-2q-1 -1 -1 -2q-23 -55 -80 -67h-2q-1 -1 -2 -1q-16 -3 -32 -1z" />
    <glyph glyph-name="s" unicode="s" horiz-adv-x="1020" 
d="M909 799q-29 -35 -73 -39t-85 24q-42 50 -102 77t-125 27q-76 0 -127 -39t-51 -94q0 -41 32 -68.5t83 -47t107 -36.5q62 -18 130 -43.5t127 -65t96.5 -100t37.5 -149.5q0 -98 -59 -176t-160 -122.5t-227 -44.5q-133 0 -247 46.5t-176 129.5q-25 39 -15.5 85.5t47.5 71.5
q38 26 73 15.5t59 -27.5q43 -40 121.5 -67.5t163.5 -27.5q80 0 136 31t56 81q0 40 -31 66t-80 44.5t-104 34.5q-62 19 -131 44.5t-129.5 66.5t-98.5 103.5t-38 155.5q0 99 56.5 181t150.5 131t206 49q121 0 208.5 -41t152.5 -118q36 -30 40.5 -76.5t-24.5 -81.5z" />
    <glyph glyph-name="t" unicode="t" horiz-adv-x="815" 
d="M753 806q-6 -46 -43.5 -75t-83.5 -24q-62 8 -132 11q-6 -90 -9.5 -181t-3.5 -182q0 -56 5 -108.5t22.5 -85.5t54.5 -33q24 0 54 6q46 8 85 -19t47 -72q8 -46 -18.5 -85.5t-72.5 -47.5q-25 -4 -49 -6t-46 -2q-104 0 -165.5 47.5t-92.5 120t-40.5 149.5t-9.5 136
q0 91 3 180.5t9 178.5q-35 -3 -68 -7q-46 -5 -83.5 24t-43.5 75q-5 47 24 84t75 43q56 6 113 9q7 72 14.5 144t15.5 143q6 47 43 76t83 24q47 -6 76 -43t24 -83q-8 -65 -15 -129.5t-13 -129.5q75 -3 143 -11q46 -6 75 -43.5t23 -83.5z" />
    <glyph glyph-name="u" unicode="u" horiz-adv-x="1206" 
d="M1090 983q-20 -214 -29.5 -364t-9.5 -265q0 -95 6 -175t19 -161q9 -52 -17.5 -83.5t-65.5 -41.5q-44 -10 -87.5 11t-53.5 78q-9 57 -15 112q-65 -90 -149.5 -148t-189.5 -58q-127 0 -209.5 62.5t-123 166.5t-40.5 230q0 159 2 323t11 332q2 43 32.5 77t83.5 34
q56 0 85 -33.5t27 -77.5q-4 -84 -6.5 -165t-4 -172.5t-1.5 -209.5q0 -162 34 -251t129 -89q64 0 113.5 43.5t87 116.5t66 163t49.5 183l1 3q5 82 13 176t18 204q5 54 44 79t82 20q41 -4 72.5 -34.5t26.5 -85.5z" />
    <glyph glyph-name="v" unicode="v" horiz-adv-x="1124" 
d="M137 1075q42 19 87 3t65 -59q69 -147 144 -322t130 -356q83 155 155 321.5t122 340.5q14 44 55.5 67t85.5 10t67 -55t10 -86q-76 -260 -190.5 -502t-243.5 -452q-24 -38 -66 -49q-47 -13 -90.5 13t-52.5 74q-29 151 -84 308t-120.5 308t-128.5 284q-20 42 -4 87.5
t59 64.5z" />
    <glyph glyph-name="w" unicode="w" horiz-adv-x="1551" 
d="M387 1046q38 -25 48.5 -66t-9.5 -82q-31 -59 -60 -148t-48 -191.5t-19 -203.5q0 -103 32.5 -165t111.5 -62q77 0 128.5 74t81.5 199.5t41 280.5q5 50 33 80t71 29q47 0 78.5 -31t31.5 -77q1 -266 35 -410.5t131 -144.5q67 0 107.5 46t58.5 122t18 165q0 114 -23.5 234.5
t-54.5 205.5q-15 49 -4.5 91.5t58.5 63.5q44 19 83.5 4t60.5 -58q48 -97 74.5 -225t26.5 -268q0 -174 -42.5 -311.5t-127.5 -216.5t-211 -79q-128 0 -207 96t-113 239q-36 -88 -92 -164.5t-127.5 -123.5t-155.5 -47q-107 0 -181.5 62.5t-112.5 169.5t-38 239q0 109 22 228.5
t58 227.5t77 181q25 44 70.5 54.5t88.5 -18.5z" />
    <glyph glyph-name="x" unicode="x" horiz-adv-x="1177" 
d="M113 -88q-36 29 -40.5 77t24.5 83l333 407q-79 105 -149 213t-123 215q-20 41 -5 86.5t57 65.5q41 20 86.5 5t65.5 -56q41 -83 96.5 -171t120.5 -176l313 382q29 36 77 41t83 -25q36 -29 41 -77t-25 -83l-346 -422q90 -109 182.5 -210.5t177.5 -186.5q33 -33 33 -80
t-33 -80t-80 -33t-80 33q-82 82 -170.5 177.5t-176.5 199.5l-302 -369q-29 -36 -77 -40.5t-83 24.5z" />
    <glyph glyph-name="y" unicode="y" horiz-adv-x="1177" 
d="M268 1084q46 -4 76 -41.5t25 -84.5q-7 -63 -11.5 -146t-7 -163.5t-2.5 -139.5q0 -143 17 -226.5t62 -119t129 -35.5q108 0 179.5 73.5t107.5 192.5q0 36 0.5 74t0.5 78q0 133 -1.5 241t-4.5 172q-1 47 30.5 82t78.5 36q47 2 82 -30t36 -79q3 -65 4 -174.5t1 -307.5
q0 -235 -27.5 -425.5t-93 -326.5t-177.5 -209t-280 -73q-130 0 -232 50t-164 140q-26 38 -17 85.5t47 72.5q38 26 85.5 17t72.5 -47q63 -90 208 -90q138 0 211 79.5t105 234.5q-54 -36 -117 -56.5t-135 -20.5q-155 0 -251 59.5t-139.5 190t-43.5 342.5q0 69 2.5 156t7 172
t11.5 147q5 46 42 75.5t83 24.5z" />
    <glyph glyph-name="z" unicode="z" horiz-adv-x="1094" 
d="M73 863q-7 47 20 85.5t73 45.5q68 11 172 22.5t225 11.5q128 0 220.5 -26t148.5 -61q49 -30 53 -88.5t-40 -94.5q-49 -41 -117.5 -111.5t-144 -158t-148 -181t-129.5 -179.5q124 7 264 10.5t249 3.5q47 0 80.5 -33t33.5 -80q0 -46 -33.5 -79.5t-80.5 -33.5
q-103 0 -235 -3.5t-260.5 -9.5t-222.5 -14q-48 -4 -80 22.5t-41 67t10 76.5q45 85 110.5 182t142 195t155.5 188.5t149 162.5q-49 6 -106.5 9.5t-119.5 0.5q-65 -3 -121.5 -10t-95.5 -13q-46 -7 -84.5 20t-46.5 73z" />
    <glyph glyph-name="braceleft" unicode="{" horiz-adv-x="705" 
d="M618 93q0 -46 -33 -79.5t-80 -33.5q-101 0 -161 35.5t-91 94.5t-43 129t-15 140t-7.5 129t-21 94.5t-56.5 35.5h-6v0q-45 3 -76.5 36t-31.5 78q0 41 25.5 72t63.5 39h1q2 1 4 1q1 0 2 1h4h2q1 1 3 1h3h2h4q42 0 59.5 35.5t22 94.5t7.5 129t14 140t41 129t90 94.5
t161 35.5q47 0 80.5 -33t33.5 -80q0 -46 -33.5 -79.5t-80.5 -33.5q-50 0 -70.5 -38.5t-24.5 -100.5t-5 -135.5t-12 -146t-46 -128.5q32 -57 41.5 -128.5t10 -144t5 -134t26.5 -99t75 -37.5q47 0 80 -33t33 -80z" />
    <glyph glyph-name="bar" unicode="|" horiz-adv-x="427" 
d="M227 1572q47 0 80 -33t33 -80q0 -126 -1 -277t-2.5 -312.5t-3.5 -319.5t-4.5 -300t-4.5 -252q-1 -46 -35 -79t-81 -32q-46 1 -79 34.5t-32 80.5q2 110 4.5 251t4.5 299t4 319t3 312t1 276q0 47 33.5 80t79.5 33z" />
    <glyph glyph-name="braceright" unicode="}" horiz-adv-x="705" 
d="M719 752q0 -46 -33.5 -80t-80.5 -34q-42 0 -59.5 -35.5t-22 -94.5t-7.5 -129t-14 -140t-41.5 -129t-90 -94.5t-160.5 -35.5q-46 0 -80 33.5t-34 79.5q0 47 34 80t80 33q50 0 70.5 38.5t24.5 100.5t5 136t12 146t46 128q-32 57 -41 128.5t-9.5 144.5t-5.5 134t-27 98.5
t-75 37.5q-46 0 -80 33.5t-34 79.5q0 47 34 80t80 33q101 0 161 -35.5t91 -94.5t43 -129t15 -140t7.5 -129t21 -94.5t56.5 -35.5q47 0 80.5 -33.5t33.5 -80.5z" />
    <glyph glyph-name="asciitilde" unicode="~" horiz-adv-x="880" 
d="M99 1071q-32 11 -48.5 43.5t-6.5 63.5q26 74 85.5 136t159.5 62q72 0 126.5 -27.5t98.5 -56.5q23 -15 42.5 -24.5t44.5 -9.5q53 0 74 35t29 58q13 32 46.5 45t64.5 0q32 -13 45 -46.5t0 -64.5q-39 -88 -107 -143t-152 -55q-52 0 -99 18t-92 52q-26 20 -51.5 34t-60.5 14
q-46 0 -66.5 -32t-25.5 -47q-10 -32 -42.5 -48.5t-64.5 -6.5z" />
    <glyph glyph-name="uni00A0" unicode="&#xa0;" horiz-adv-x="300" 
 />
    <glyph glyph-name="exclamdown" unicode="&#xa1;" horiz-adv-x="583" 
d="M127 1029q0 30 16.5 66t49.5 61.5t82 25.5q29 0 67 -14.5t66.5 -47.5t28.5 -90q0 -64 -46 -111t-112 -47q-72 0 -112 52t-40 105zM338 -360q-46 -6 -83.5 23t-44.5 75q-18 136 -28 254t-14 239.5t-4 266.5v61t1 64q1 47 34.5 78.5t79.5 31.5q48 0 81.5 -33.5t32.5 -80.5
q-1 -30 -1.5 -61t-0.5 -60q0 -143 3.5 -260t13.5 -229t28 -241q6 -46 -22.5 -83.5t-75.5 -44.5z" />
    <glyph glyph-name="cent" unicode="&#xa2;" horiz-adv-x="1071" 
d="M572 -478q-46 0 -79.5 33.5t-33.5 79.5v282q-189 42 -288.5 187t-99.5 348q0 142 48 270t135 223.5t205 138.5v232q0 47 33.5 80.5t79.5 33.5q47 0 80 -33.5t33 -80.5v-205q151 -16 269 -118q35 -30 39 -77.5t-27 -82.5q-30 -35 -77.5 -38.5t-82.5 26.5q-77 67 -170 67
q-100 0 -176 -63t-118.5 -165t-42.5 -221q0 -136 68 -223.5t215 -87.5q69 0 143.5 17.5t137.5 43.5q45 14 87 -8.5t55 -67.5t-9.5 -86t-66.5 -55q-65 -25 -124.5 -41.5t-119.5 -23.5v-272q0 -46 -33 -79.5t-80 -33.5z" />
    <glyph glyph-name="sterling" unicode="&#xa3;" horiz-adv-x="1464" 
d="M121 675q11 43 49.5 69.5t88.5 13.5q4 -1 9 -2v183q0 137 43 255.5t132.5 192t226.5 73.5q120 0 207 -49t140.5 -132t70.5 -186q9 -49 -19 -85.5t-70 -44.5q-50 -10 -87.5 19t-45.5 73q-14 83 -60.5 130t-135.5 47q-64 0 -102.5 -43t-56 -110.5t-17.5 -139.5v-203
q71 2 139.5 10.5t126.5 19.5q49 10 85 -16.5t46 -67.5q13 -51 -15 -90.5t-73 -47.5q-70 -14 -152 -23.5t-169 -10.5q-12 -93 -37 -178t-63 -156q69 -21 149.5 -34.5t178.5 -13.5q76 0 155.5 11.5t138.5 43.5t71 93q8 41 39.5 67t73.5 25q50 0 85 -39t24 -94
q-23 -124 -109 -197t-211.5 -104.5t-266.5 -31.5q-173 0 -311 36.5t-241 77.5q-31 12 -51 41.5t-20 63.5q0 24 10.5 47t25.5 37q52 48 85.5 134.5t47.5 187.5q-27 4 -53 11q-42 11 -67.5 49.5t-14.5 87.5z" />
    <glyph glyph-name="currency" unicode="&#xa4;" horiz-adv-x="1159" 
d="M1062 -41q-35 -30 -82.5 -26.5t-77.5 38.5l-36 42q-60 -51 -135 -81t-166 -30q-83 0 -153 25.5t-126 70.5l-26 -29q-31 -35 -78 -37t-82 29t-37 78.5t29 81.5l51 56q-72 143 -72 309q0 86 19.5 175t59.5 168l-59 64q-31 35 -29 82.5t36 78.5q35 31 82.5 29.5t78.5 -36.5
l33 -36q59 48 133.5 75.5t166.5 27.5q87 0 158 -26t127 -71l25 28q31 35 79 38t82 -28q35 -31 38 -78t-28 -82l-54 -61q34 -70 51 -146t17 -150q0 -85 -20.5 -173t-60.5 -168l68 -78q30 -35 26.5 -82.5t-38.5 -77.5zM592 888q-88 0 -154 -52.5t-102.5 -143t-36.5 -206.5
q0 -106 36.5 -186.5t97.5 -126t132 -45.5q79 0 146 55.5t108.5 148.5t41.5 206q0 98 -34.5 177.5t-95 126t-139.5 46.5z" />
    <glyph glyph-name="yen" unicode="&#xa5;" horiz-adv-x="1307" 
d="M194 122q-5 47 24 84t75 43q122 14 239 20t233 6q130 0 260 -6q47 -1 79 -36t30 -82t-37 -78.5t-82 -29.5q-127 6 -250 6q-111 0 -220.5 -6t-223.5 -20q-46 -5 -83.5 24t-43.5 75zM185 490q-5 47 24 84t75 43q122 14 239 20t233 6q130 0 260 -6q47 -1 79 -36t30 -82
t-37 -78.5t-82 -29.5q-127 6 -250 6q-111 0 -220.5 -6t-223.5 -20q-46 -5 -83.5 24t-43.5 75zM663 -113q-47 -1 -81 32t-34 79l-10 599l-445 654q-27 38 -19 84.5t45 73.5q38 27 84.5 19.5t73.5 -45.5l371 -551l390 540q26 39 73 47.5t85 -17.5q39 -25 47.5 -72.5
t-17.5 -85.5l-462 -647l10 -595q1 -47 -31.5 -81t-79.5 -34z" />
    <glyph glyph-name="brokenbar" unicode="&#xa6;" horiz-adv-x="429" 
d="M214 1474q47 0 80.5 -33t33.5 -80q0 -109 -1 -227t-3 -241q-1 -46 -35 -79t-81 -32q-46 1 -79 34.5t-32 80.5q2 122 2.5 239t0.5 225q0 47 34 80t80 33zM231 610q47 -1 80 -34.5t31 -80.5q-3 -135 -7 -263t-10 -239q-3 -46 -38 -77.5t-82 -28.5q-46 2 -78 37.5t-29 82.5
q6 108 10.5 233t7.5 259q1 47 34.5 80t80.5 31z" />
    <glyph glyph-name="section" unicode="&#xa7;" horiz-adv-x="1000" 
d="M75 676q0 87 43 148t112 100q-55 40 -89 96t-34 132q0 108 65 177.5t169.5 108.5t226 54.5t234.5 15.5q47 0 80 -33t33 -80q0 -46 -33 -79t-80 -33q-64 0 -143 -6.5t-151.5 -22.5t-119.5 -44t-47 -72q0 -38 33.5 -64.5t87 -45.5t112.5 -35q80 -21 161 -58t135.5 -103.5
t54.5 -176.5q0 -87 -43 -148t-111 -100q54 -39 88 -95t34 -133q0 -108 -65 -177.5t-169.5 -108.5t-226 -54.5t-234.5 -15.5q-47 0 -80 33t-33 80t33 79.5t80 32.5q64 0 143 6.5t152 22.5t120 44t47 72q0 39 -33.5 65.5t-87 45.5t-112.5 34q-79 21 -160.5 58t-136.5 104
t-55 176zM281 676q0 -50 34 -81t82 -48t91 -27h2q58 3 110.5 20t85.5 46t33 69q0 50 -33.5 81t-82 48t-90.5 27h-2q-58 -3 -110.5 -20t-86 -46t-33.5 -69z" />
    <glyph glyph-name="dieresis" unicode="&#xa8;" horiz-adv-x="698" 
d="M622 1210q0 -48 -34 -77t-76 -29q-47 0 -78 33t-31 72q0 48 29 81.5t72 33.5q50 0 84 -33.5t34 -80.5zM305 1225q0 -52 -35 -86.5t-86 -34.5q-45 0 -71.5 35.5t-26.5 74.5q0 45 31.5 77.5t77.5 32.5q41 0 75.5 -27t34.5 -72z" />
    <glyph glyph-name="copyright" unicode="&#xa9;" horiz-adv-x="1693" 
d="M1058 903q-18 -21 -46 -23t-49 16q-45 42 -107 42q-64 0 -117.5 -37.5t-85.5 -98t-32 -129.5q0 -87 42.5 -138t141.5 -51q54 0 96.5 14t81.5 38q23 14 50.5 7t41.5 -30q15 -24 8 -51t-30 -42q-49 -31 -111 -50.5t-137 -19.5q-104 0 -175.5 44.5t-107.5 118.5t-36 160
q0 99 46.5 190.5t130 150t193.5 58.5q57 0 106.5 -20t89.5 -54q20 -18 22 -46t-16 -49zM46 616q0 193 65 350.5t176.5 271t252 175t291.5 61.5q177 0 325.5 -57t258.5 -156t170.5 -228t60.5 -273q0 -256 -115 -441.5t-316.5 -286t-462.5 -100.5q-129 0 -254.5 53.5
t-227.5 148t-163 218.5t-61 264zM274 616q0 -85 42.5 -167t113 -147.5t154.5 -104.5t168 -39q319 0 493.5 159.5t174.5 442.5q0 90 -40 177t-116.5 157t-185.5 112t-247 42q-102 0 -201 -42.5t-179.5 -124t-128.5 -199t-48 -266.5z" />
    <glyph glyph-name="ordfeminine" unicode="&#xaa;" horiz-adv-x="946" 
d="M404 839q-82 0 -143 44t-94.5 116t-33.5 157q0 94 39 175.5t110 132.5t165 51q57 0 106.5 -19t84.5 -57q10 26 19 45q10 21 32 28.5t43 -3.5q21 -10 28.5 -32t-3.5 -43q-13 -27 -29 -89.5t-24 -131.5q-1 -20 -4 -39q-1 -21 -1 -40q0 -90 22 -135.5t45 -45.5t40 -17
t17 -40t-17 -40t-40 -17q-58 0 -93.5 31.5t-54.5 76.5q-35 -48 -87.5 -78t-126.5 -30zM404 953q79 0 124.5 66.5t57.5 156.5q2 26 5 53v18q0 90 -38 123t-106 33q-82 0 -141 -69t-59 -178q0 -97 46.5 -150t110.5 -53z" />
    <glyph glyph-name="guillemotleft" unicode="&#xab;" horiz-adv-x="1103" 
d="M955 245q-28 -16 -60.5 -8.5t-49.5 35.5q-106 172 -250 297q-26 23 -23 62.5t25 58.5q71 59 133.5 132t113.5 162q16 28 48 37.5t60 -7.5q28 -16 37.5 -48t-7.5 -60q-46 -82 -100.5 -149t-116.5 -129q60 -61 115 -128.5t101 -144.5q17 -28 9 -60.5t-35 -49.5zM517 245
q-28 -16 -60.5 -8.5t-49.5 35.5q-106 172 -250 297q-26 23 -23 62.5t25 58.5q71 59 133.5 132t113.5 162q16 28 48 37.5t60 -7.5q28 -16 37.5 -48t-7.5 -60q-46 -82 -100.5 -149t-116.5 -129q60 -61 115 -128.5t101 -144.5q17 -28 9 -60.5t-35 -49.5z" />
    <glyph glyph-name="logicalnot" unicode="&#xac;" horiz-adv-x="985" 
d="M46 661q0 47 34 80t80 33h645q52 0 82.5 -38t30.5 -75v-273q0 -46 -33 -80t-80 -34q-46 0 -79.5 34t-33.5 80v160h-532q-46 0 -80 33.5t-34 79.5z" />
    <glyph glyph-name="uni00AD" unicode="&#xad;" horiz-adv-x="1037" 
d="M77 627q-5 47 24 84t75 43q122 14 239 20t233 6q130 0 260 -6q47 -1 79 -36t30 -82t-37 -78.5t-82 -29.5q-127 6 -250 6q-111 0 -220.5 -6t-223.5 -20q-46 -5 -83.5 24t-43.5 75z" />
    <glyph glyph-name="registered" unicode="&#xae;" horiz-adv-x="1693" 
d="M561 872q-22 17 -26 44.5t12 49.5q44 60 111 92.5t139 32.5q70 0 138.5 -31t114 -90t45.5 -142q0 -74 -42 -131.5t-111 -83.5q35 -32 75.5 -60t83.5 -51q23 -13 31.5 -40t-5.5 -51q-14 -23 -41 -31t-51 5q-74 41 -148.5 95.5t-131.5 124.5l-1 1q-7 -87 -16 -176
q-3 -27 -25 -44.5t-50 -14.5q-27 2 -44.5 24.5t-14.5 50.5q10 101 19 209.5t14 214.5q-40 -25 -76 2zM773 902q-4 -98 -12 -206q20 20 47 20q81 0 116.5 33t35.5 79q0 50 -47.5 89t-115.5 39q-21 0 -42 -5q19 -20 18 -49zM46 616q0 193 65 350.5t176.5 271t252 175
t291.5 61.5q177 0 325.5 -57t258.5 -156t170.5 -228t60.5 -273q0 -256 -115 -441.5t-316.5 -286t-462.5 -100.5q-129 0 -254.5 53.5t-227.5 148t-163 218.5t-61 264zM274 616q0 -85 42.5 -167t113 -147.5t154.5 -104.5t168 -39q319 0 493.5 159.5t174.5 442.5q0 90 -40 177
t-116.5 157t-185.5 112t-247 42q-102 0 -201 -42.5t-179.5 -124t-128.5 -199t-48 -266.5z" />
    <glyph glyph-name="macron" unicode="&#xaf;" horiz-adv-x="1037" 
d="M77 1335q-5 47 24 84t75 43q122 14 239 20t233 6q130 0 260 -6q47 -1 79 -36t30 -82t-37 -78.5t-82 -29.5q-127 6 -250 6q-111 0 -220.5 -6t-223.5 -20q-46 -5 -83.5 24t-43.5 75z" />
    <glyph glyph-name="degree" unicode="&#xb0;" horiz-adv-x="840" 
d="M694 1398q0 -72 -39.5 -132t-103.5 -95.5t-140 -35.5q-68 0 -126 35.5t-93.5 94t-35.5 126.5q0 74 38 138.5t99 104t131 39.5q76 0 137 -39.5t97 -102t36 -133.5zM559 1400q0 53 -40 95.5t-95 42.5q-48 0 -90.5 -43.5t-42.5 -99.5q0 -49 38 -87t86 -38q59 0 101.5 40
t42.5 90z" />
    <glyph glyph-name="plusminus" unicode="&#xb1;" horiz-adv-x="1037" 
d="M78 631q-5 47 24 84t75 43q68 8 134 13t131 8q-3 55 -8 110.5t-12 111.5q-5 47 24 84.5t75 42.5q46 6 83.5 -23.5t43.5 -75.5q7 -63 12 -124t8 -121q120 0 241 -6q47 -1 79 -36t30 -82t-37 -78.5t-82 -29.5q-115 5 -225 6q0 -131 -6 -261q-2 -47 -36.5 -78t-81.5 -30
q-47 2 -78.5 37t-30.5 81q6 125 6 246q-60 -3 -120 -8t-122 -13q-46 -5 -83.5 24t-43.5 75zM77 135q-5 47 24 84t75 43q122 14 239 20t233 6q130 0 260 -6q47 -1 79 -36t30 -82t-37 -78.5t-82 -29.5q-127 6 -250 6q-111 0 -220.5 -6t-223.5 -20q-46 -5 -83.5 24t-43.5 75z
" />
    <glyph glyph-name="uni00B2" unicode="&#xb2;" horiz-adv-x="728" 
d="M194 1250q-23 2 -39.5 19.5t-16.5 39.5q0 86 55.5 155.5t152.5 69.5q95 0 154 -61t59 -155q0 -101 -44 -158t-116 -118l-65 -56l201 2q23 0 39.5 -16.5t16.5 -39.5q1 -23 -16 -40t-40 -17l-351 -2q-24 0 -40 16q-18 17 -17 42.5t20 41.5l165 138q68 58 100.5 102
t32.5 110q0 44 -24.5 71t-68.5 27q-45 0 -73 -32.5t-28 -84.5q0 -23 -17 -39t-40 -15z" />
    <glyph glyph-name="uni00B3" unicode="&#xb3;" horiz-adv-x="674" 
d="M215 1170q-1 22 13.5 39t36.5 18q62 5 109 36.5t47 70.5q0 69 -68 69q-31 0 -57 -18.5t-41 -46.5q-10 -19 -33.5 -25t-44.5 4q-19 11 -24.5 34t5.5 44q35 61 81 90.5t114 29.5q77 0 129.5 -49.5t52.5 -123.5q0 -76 -73 -139q39 -24 64 -63t25 -84q0 -81 -63.5 -137
t-152.5 -56q-108 0 -179 57q-18 14 -21 38t11 41q14 18 37.5 20.5t41.5 -11.5q20 -15 47 -23t67 -8q46 0 72.5 20.5t26.5 56.5q0 76 -89 76q-13 0 -33.5 -2.5t-41.5 -5.5q-21 -4 -39 11t-20 37z" />
    <glyph glyph-name="acute" unicode="&#xb4;" horiz-adv-x="532" 
d="M411 1530q20 -16 22.5 -42t-13.5 -45q-56 -70 -104 -139.5t-89 -160.5q-10 -22 -35 -31.5t-48 0.5q-22 10 -31.5 35t0.5 48q46 101 100 178t110 147q16 20 42.5 22.5t45.5 -12.5z" />
    <glyph glyph-name="mu" unicode="&#xb5;" horiz-adv-x="1206" 
d="M1090 983q-20 -214 -29.5 -364t-9.5 -265q0 -95 6 -175t19 -161q9 -52 -17.5 -83.5t-65.5 -41.5q-44 -10 -87.5 11t-53.5 78q-9 58 -15 113q-67 -90 -153.5 -148.5t-194.5 -58.5q-65 0 -120 19q7 -95 15 -187t16 -175q5 -46 -25 -83t-77 -42q-46 -5 -82.5 25.5
t-41.5 76.5q-18 182 -33.5 398t-15.5 427q0 159 2 323t11 332q2 43 32.5 77t83.5 34q47 0 80.5 -33.5t31.5 -77.5q-6 -127 -9 -237t-3 -216q0 -199 34 -316.5t129 -117.5q64 0 113.5 43.5t87 116.5t66 163t49.5 183l1 3q5 82 13 176t18 204q5 54 44 79t82 20
q41 -4 72.5 -34.5t26.5 -85.5z" />
    <glyph glyph-name="paragraph" unicode="&#xb6;" horiz-adv-x="1329" 
d="M630 1087q29 0 48 -19t19 -48v-594q31 -4 63 -4q55 0 109 11v527q0 29 18 48t46 19q29 0 46.5 -19t17.5 -48v-497q32 -2 59.5 -21.5t39.5 -51.5q17 -43 -2.5 -86t-63.5 -60q-16 -6 -33 -12v-674q0 -28 -17.5 -47.5t-46.5 -19.5q-28 0 -46 19.5t-18 47.5v644
q-54 -8 -109 -8q-31 0 -63 3v-579q0 -28 -19 -47.5t-48 -19.5q-28 0 -47.5 19.5t-19.5 47.5v602q-134 35 -249.5 115.5t-186.5 200.5t-71 275q0 137 54 255t147 206.5t214 138t254 49.5q170 0 304.5 -66.5t225.5 -171.5q31 -35 27.5 -83t-38.5 -78t-83 -27t-78 38
q-63 72 -151 116t-207 44q-120 0 -220 -57t-160.5 -152.5t-60.5 -211.5q0 -118 79 -212.5t200 -140.5v562q0 29 19.5 48t47.5 19z" />
    <glyph glyph-name="periodcentered" unicode="&#xb7;" horiz-adv-x="488" 
d="M145 750q0 56 44 101.5t106 45.5q50 0 80.5 -24.5t44 -57t13.5 -58.5q0 -31 -16.5 -67t-48 -61.5t-78.5 -25.5q-55 0 -87 26t-45 60.5t-13 60.5z" />
    <glyph glyph-name="cedilla" unicode="&#xb8;" horiz-adv-x="727" 
d="M249 72q29 36 76 41t84 -25q50 -40 113.5 -108.5t110.5 -156t47 -184.5q0 -91 -49.5 -147t-129.5 -81t-172 -25q-108 0 -190 24q-45 12 -68 54t-10 86q13 45 54.5 69t85.5 10q20 -6 54.5 -11.5t66.5 -5.5q127 0 127 65q0 31 -33 76.5t-76 89.5t-75 69q-36 29 -40.5 76
t24.5 84z" />
    <glyph glyph-name="uni00B9" unicode="&#xb9;" horiz-adv-x="536" 
d="M338 860q-23 2 -38 20t-14 41l26 419q-58 -38 -122 -64q-21 -8 -42 1.5t-30 31.5q-8 21 1.5 42.5t30.5 30.5q53 21 99.5 51.5t88.5 67.5q18 14 37 14q24 0 41.5 -17.5t15.5 -41.5l-33 -544q-1 -22 -19.5 -37.5t-41.5 -14.5z" />
    <glyph glyph-name="ordmasculine" unicode="&#xba;" horiz-adv-x="830" 
d="M694 1398q0 -72 -39.5 -132t-103.5 -95.5t-140 -35.5q-68 0 -126 35.5t-93.5 94t-35.5 126.5q0 74 38 138.5t99 104t131 39.5q76 0 137 -39.5t97 -102t36 -133.5zM559 1400q0 53 -40 95.5t-95 42.5q-48 0 -90.5 -43.5t-42.5 -99.5q0 -49 38 -87t86 -38q59 0 101.5 40
t42.5 90z" />
    <glyph glyph-name="guillemotright" unicode="&#xbb;" horiz-adv-x="1103" 
d="M607 1014q27 17 60 9t49 -35q105 -173 250 -298q26 -23 23.5 -62.5t-25.5 -58.5q-71 -59 -134 -131.5t-113 -162.5q-16 -28 -48 -37t-60 7t-37 48t7 60q47 81 101.5 149t115.5 129q-60 62 -114.5 129.5t-101.5 144.5q-16 27 -8.5 60t35.5 49zM169 1014q27 17 60 9t49 -35
q105 -173 250 -298q26 -23 23.5 -62.5t-25.5 -58.5q-71 -59 -134 -131.5t-113 -162.5q-16 -28 -48 -37t-60 7t-37 48t7 60q47 81 101.5 149t115.5 129q-60 62 -114.5 129.5t-101.5 144.5q-16 27 -8.5 60t35.5 49z" />
    <glyph glyph-name="onequarter" unicode="&#xbc;" horiz-adv-x="2016" 
d="M391 441q-33 2 -54.5 27t-19.5 57l59 908q-40 -30 -82 -58t-83 -53q-28 -16 -61 -8t-49 35q-16 28 -7 60.5t36 48.5q65 38 128.5 86.5t118.5 100.5q8 8 24 14.5t30 6.5h35q33 0 57 -25.5t22 -58.5l-70 -1067q-2 -33 -27 -54.5t-57 -19.5zM441 -14q-24 23 -25.5 56.5
t20.5 57.5q133 141 277.5 314t283 357t257 359.5t199.5 321.5q16 28 48 37.5t60 -6.5t37 -47.5t-7 -59.5q-85 -153 -206 -333t-261.5 -367t-286.5 -363t-283 -322q-22 -24 -56 -25.5t-57 20.5zM1621 336q32 -3 52.5 -29t18.5 -58l-26 -266q98 13 172 31q31 8 59.5 -9.5
t35.5 -49.5q8 -31 -9.5 -59t-49.5 -36q-100 -24 -224 -39l-19 -197q-3 -31 -29 -52t-58 -19q-31 3 -52 29.5t-19 57.5l16 167q-109 -6 -217.5 -3t-201.5 16q-5 0 -15.5 3.5t-15.5 6.5q-28 17 -35.5 52t13.5 63q43 58 104.5 154t126.5 207.5t121 219.5t89 189q12 29 42 42.5
t61 1.5q29 -13 42.5 -43t1.5 -60q-40 -100 -106.5 -224t-140 -247t-135.5 -220q67 -2 139 -1t143 5l29 296q3 32 29.5 52.5t57.5 18.5z" />
    <glyph glyph-name="onehalf" unicode="&#xbd;" horiz-adv-x="2070" 
d="M390 442q-32 2 -53.5 26.5t-19.5 56.5l59 908q-40 -30 -82 -58t-83 -53q-28 -17 -61 -8t-48 35q-16 28 -8 60.5t36 48.5q65 38 128.5 86.5t118.5 100.5q8 8 24 14.5t30 6.5h35q33 0 57 -25.5t22 -58.5l-70 -1067q-2 -33 -27.5 -54t-57.5 -19zM441 -13q-24 22 -25.5 55.5
t20.5 57.5q133 141 277.5 314t283 356.5t257 359t199.5 322.5q16 29 48 37.5t60 -6.5t37 -46.5t-7 -60.5q-85 -154 -206 -334t-261.5 -367t-286.5 -362.5t-283 -321.5q-22 -25 -56 -25.5t-57 21.5zM1790 409q0 82 -54 137t-149 55q-91 0 -145 -62.5t-54 -160.5
q0 -36 -21.5 -51t-58.5 -15q-39 0 -59.5 26.5t-20.5 68.5q0 156 99 255.5t262 99.5q109 0 190 -49.5t126 -130.5t45 -178q0 -96 -47.5 -183.5t-126 -171t-173.5 -167.5l-129 -118q41 3 81.5 4t81.5 1q65 0 133 -2t137 -6q32 -2 54 -25.5t22 -55.5q0 -34 -24.5 -57t-56.5 -22
q-80 5 -149 6.5t-133 1.5q-91 0 -177 -4.5t-172 -12.5q-37 -3 -58.5 21.5t-22 59t24.5 58.5l285 268q103 97 166.5 166t93.5 126t30 118z" />
    <glyph glyph-name="threequarters" unicode="&#xbe;" horiz-adv-x="2166" 
d="M814 828q0 -117 -58 -199.5t-149.5 -126.5t-194.5 -44q-77 0 -153.5 26t-138.5 77q-25 20 -28.5 53.5t16.5 57.5q21 26 54.5 29t57.5 -17q39 -32 89.5 -49t102.5 -17q104 0 174 51t70 146q-1 66 -51 105.5t-131 39.5q-30 0 -67 -7q-19 -5 -37.5 -9t-34.5 -8
q-31 -7 -59.5 11t-36.5 49q-7 32 11 60.5t49 35.5q6 1 11 2q11 4 23.5 7t26.5 6q115 31 190.5 80.5t75.5 132.5q0 80 -43 120t-99 40q-66 0 -117 -42.5t-65 -104.5q-7 -31 -35.5 -49t-60.5 -11q-31 8 -49 36.5t-11 59.5q19 85 72.5 145t125.5 92t145 32q76 0 143.5 -38
t109.5 -111.5t42 -181.5q0 -81 -32.5 -139t-83.5 -98q62 -36 102.5 -97t43.5 -145zM591 -14q-23 23 -25 56.5t20 57.5q133 141 277.5 314t283 357t257 359.5t199.5 321.5q16 28 48 37.5t60 -6.5t37 -47.5t-7 -59.5q-85 -153 -206 -333t-261.5 -367t-286.5 -363t-283 -322
q-22 -24 -56 -25.5t-57 20.5zM1771 336q32 -3 52.5 -29t18.5 -58l-26 -266q98 13 172 31q31 8 59.5 -9.5t35.5 -49.5q8 -31 -9.5 -59t-49.5 -36q-100 -24 -224 -39l-19 -197q-3 -31 -29 -52t-58 -19q-31 3 -52 29.5t-19 57.5l16 167q-109 -6 -217.5 -3t-201.5 16
q-5 0 -15.5 3.5t-15.5 6.5q-28 17 -35.5 52t13.5 63q43 58 104.5 154t126.5 207.5t121 219.5t89 189q12 29 42 42.5t61 1.5q29 -13 42.5 -43t1.5 -60q-40 -100 -106.5 -224t-140 -247t-135.5 -220q67 -2 139 -1t143 5l29 296q3 32 29.5 52.5t57.5 18.5z" />
    <glyph glyph-name="questiondown" unicode="&#xbf;" horiz-adv-x="1155" 
d="M457 1025q0 65 46.5 111t111.5 46q63 0 110.5 -44.5t47.5 -112.5q0 -66 -46 -112.5t-112 -46.5q-67 0 -112.5 48t-45.5 111zM1011 -38q35 -59 11 -109t-62 -79q-67 -58 -171.5 -96t-223.5 -38q-120 0 -217 47.5t-154 134.5t-57 205q0 81 32 141t84.5 108t112.5 90
q66 47 103.5 91t37.5 101q0 13 -1.5 22.5t-3.5 19.5q-13 53 18 90t72 44q57 9 91 -17t46 -69q10 -34 10 -88q0 -118 -61 -191t-144 -133q-98 -71 -134.5 -116.5t-36.5 -97.5q0 -76 59 -116t147 -40q74 0 149.5 29.5t115.5 69.5q42 36 95.5 39t81.5 -42z" />
    <glyph glyph-name="Agrave" unicode="&#xc0;" horiz-adv-x="1376" 
d="M138 -112q-42 19 -59 64t2 87l538 1324q20 45 68 60.5t91 -8.5q38 -22 51 -57l478 -1316q17 -43 -2 -87t-62 -61q-43 -16 -87 2.5t-61 61.5l-95 267l-593 18l-118 -298q-19 -42 -63.5 -59t-87.5 2zM716 1024l-220 -557l422 -12zM628 2129q20 15 46 12.5t41 -22.5
q50 -63 100.5 -154.5t86.5 -171.5q11 -22 1 -47.5t-32 -35.5t-47 -0.5t-36 31.5q-22 50 -52 106.5t-61 108.5t-58 86q-15 20 -11.5 45.5t22.5 41.5z" />
    <glyph glyph-name="Aacute" unicode="&#xc1;" horiz-adv-x="1376" 
d="M138 -112q-42 19 -59 64t2 87l538 1324q20 45 68 60.5t91 -8.5q38 -22 51 -57l478 -1316q17 -43 -2 -87t-62 -61q-43 -16 -87 2.5t-61 61.5l-95 267l-593 18l-118 -298q-19 -42 -63.5 -59t-87.5 2zM716 1024l-220 -557l422 -12zM887 2127q20 -16 22.5 -42t-13.5 -45
q-56 -70 -104 -139.5t-89 -160.5q-10 -22 -35 -31.5t-48 0.5q-22 10 -31.5 35t0.5 48q46 101 100 178t110 147q16 20 42.5 22.5t45.5 -12.5z" />
    <glyph glyph-name="Acircumflex" unicode="&#xc2;" horiz-adv-x="1376" 
d="M138 -112q-42 19 -59 64t2 87l538 1324q20 45 68 60.5t91 -8.5q38 -22 51 -57l478 -1316q17 -43 -2 -87t-62 -61q-43 -16 -87 2.5t-61 61.5l-95 267l-593 18l-118 -298q-19 -42 -63.5 -59t-87.5 2zM716 1024l-220 -557l422 -12zM544 1714q-21 13 -27 38t7 47l166 269
q14 24 50 25t51 -19l192 -241q16 -19 13.5 -45.5t-22.5 -42.5q-19 -15 -45.5 -12t-41.5 23l-138 172l-119 -195q-13 -21 -39 -26.5t-47 7.5z" />
    <glyph glyph-name="Atilde" unicode="&#xc3;" horiz-adv-x="1376" 
d="M138 -112q-42 19 -59 64t2 87l538 1324q20 45 68 60.5t91 -8.5q38 -22 51 -57l478 -1316q17 -43 -2 -87t-62 -61q-43 -16 -87 2.5t-61 61.5l-95 267l-593 18l-118 -298q-19 -42 -63.5 -59t-87.5 2zM716 1024l-220 -557l422 -12zM401 1688q-32 11 -48.5 43.5t-6.5 63.5
q26 74 85.5 136t159.5 62q72 0 126.5 -27.5t98.5 -56.5q23 -15 42.5 -24.5t44.5 -9.5q53 0 74 35t29 58q13 32 46.5 45t64.5 0q32 -13 45 -46.5t0 -64.5q-39 -88 -107 -143t-152 -55q-52 0 -99 18t-92 52q-26 20 -51.5 34t-60.5 14q-46 0 -66.5 -32t-25.5 -47
q-10 -32 -42.5 -48.5t-64.5 -6.5z" />
    <glyph glyph-name="Adieresis" unicode="&#xc4;" horiz-adv-x="1376" 
d="M138 -112q-42 19 -59 64t2 87l538 1324q20 45 68 60.5t91 -8.5q38 -22 51 -57l478 -1316q17 -43 -2 -87t-62 -61q-43 -16 -87 2.5t-61 61.5l-95 267l-593 18l-118 -298q-19 -42 -63.5 -59t-87.5 2zM716 1024l-220 -557l422 -12zM1027 1827q0 -48 -34 -77t-76 -29
q-47 0 -78 33t-31 72q0 48 29 81.5t72 33.5q50 0 84 -33.5t34 -80.5zM710 1842q0 -52 -35 -86.5t-86 -34.5q-45 0 -71.5 35.5t-26.5 74.5q0 45 31.5 77.5t77.5 32.5q41 0 75.5 -27t34.5 -72z" />
    <glyph glyph-name="Aring" unicode="&#xc5;" horiz-adv-x="1376" 
d="M138 -112q-42 19 -59 64t2 87l538 1324q20 45 68 60.5t91 -8.5q38 -22 51 -57l478 -1316q17 -43 -2 -87t-62 -61q-43 -16 -87 2.5t-61 61.5l-95 267l-593 18l-118 -298q-19 -42 -63.5 -59t-87.5 2zM716 1024l-220 -557l422 -12zM1107 1967q0 -72 -39.5 -132t-103.5 -95.5
t-140 -35.5q-68 0 -126 35.5t-93.5 94t-35.5 126.5q0 74 38 138.5t99 104t131 39.5q76 0 137 -39.5t97 -102t36 -133.5zM972 1969q0 53 -40 95.5t-95 42.5q-48 0 -90.5 -43.5t-42.5 -99.5q0 -49 38 -87t86 -38q59 0 101.5 40t42.5 90z" />
    <glyph glyph-name="AE" unicode="&#xc6;" horiz-adv-x="1918" 
d="M1869 1400q11 -46 -14 -86t-71 -51q-132 -31 -269.5 -45t-280.5 -14h-84v-85q0 -77 -0.5 -159.5t-1.5 -165.5q147 0 285.5 -4.5t249.5 -13.5q47 -4 77.5 -39.5t26.5 -82.5t-40 -77.5t-83 -26.5q-104 8 -241 13t-282 5q-5 -94 -12.5 -181t-20.5 -160q-3 -20 -4 -30.5
t-1 -17.5q0 -31 49 -46.5t111 -19.5q95 -6 175 -9.5t174 -3.5h61.5t60.5 1q47 2 81 -30.5t35 -79.5q2 -47 -31 -81t-80 -35q-32 -1 -63.5 -1h-63.5q-97 0 -182 3.5t-181 9.5q-56 3 -121 18t-123 47t-94.5 86t-36.5 135q0 18 2 33.5t5 31.5q12 66 19.5 150.5t12.5 177.5
q-125 -2 -255 -5.5t-215 -9.5l-175 -586q-13 -44 -54 -62.5t-88 -0.5q-42 17 -51.5 55.5t0.5 84.5l338 1283q12 47 41.5 81.5t78.5 31.5q20 -1 90.5 -2t165 -2l189 -2t165.5 -1.5t91 -0.5q266 0 498 55q46 11 86 -14t51 -71zM639 1209l-127 -427q89 4 198 6.5t211 4.5
q2 84 2.5 167t0.5 159v87q-78 0 -153.5 1t-131.5 2z" />
    <glyph glyph-name="Ccedilla" unicode="&#xc7;" horiz-adv-x="1261" 
d="M1155 1246q-19 -43 -63.5 -60t-86.5 2q-100 44 -216 44q-155 0 -265 -76t-167.5 -205t-57.5 -289q0 -155 56 -276t164.5 -189.5t265.5 -68.5q132 0 249 61q41 22 85.5 7.5t66.5 -55.5q22 -40 7.5 -85t-55.5 -67q-166 -87 -353 -87q-218 0 -378.5 100t-248 272.5
t-87.5 387.5q0 162 49 306t142.5 255t226.5 174t300 63q79 0 157 -15.5t151 -48.5q43 -19 60 -63.5t-2 -86.5zM631 86q29 36 76 41t84 -25q50 -40 113.5 -108.5t110.5 -156t47 -184.5q0 -91 -49.5 -147t-129.5 -81t-172 -25q-108 0 -190 24q-45 12 -68 54t-10 86
q13 45 54.5 69t85.5 10q20 -6 54.5 -11.5t66.5 -5.5q127 0 127 65q0 31 -33 76.5t-76 89.5t-75 69q-36 29 -40.5 76t24.5 84z" />
    <glyph glyph-name="Egrave" unicode="&#xc8;" horiz-adv-x="1138" 
d="M72 681q-5 41 18 75.5t61 46.5q2 82 2 157q0 71 -2 125t-7 107t-14 119q-3 24 10 55t41 53t69 19q62 -4 124 -6t123 -2q114 0 232.5 9.5t208.5 30.5q46 11 86 -14.5t50 -71.5q11 -46 -14.5 -85.5t-71.5 -50.5q-111 -25 -239.5 -35.5t-251.5 -10.5q-65 0 -128 3
q6 -60 9 -116.5t3 -128.5q0 -65 -2 -135q71 3 146 3q95 0 188.5 -5.5t184.5 -16.5q46 -6 75.5 -43t23.5 -84q-5 -46 -42.5 -75t-83.5 -24q-85 11 -171 15.5t-175 4.5q-41 0 -79.5 -1t-76.5 -2q-5 -83 -12.5 -161.5t-17.5 -147.5q-4 -20 -4 -43q0 -57 44 -74t144.5 -15
t269.5 2h77.5t74.5 1q47 2 81 -31t35 -80q2 -47 -31.5 -80.5t-80.5 -34.5q-38 -1 -77 -1h-79q-75 0 -166 -3.5t-182 4t-167.5 37.5t-122.5 95t-46 180q0 35 4 70q9 60 15.5 130.5t11.5 145.5q-60 26 -68 90zM469 2128q20 15 46 12.5t41 -22.5q50 -63 100.5 -154.5
t86.5 -171.5q11 -22 1 -47.5t-32 -35.5t-47 -0.5t-36 31.5q-22 50 -52 106.5t-61 108.5t-58 86q-15 20 -11.5 45.5t22.5 41.5z" />
    <glyph glyph-name="Eacute" unicode="&#xc9;" horiz-adv-x="1138" 
d="M72 681q-5 41 18 75.5t61 46.5q2 82 2 157q0 71 -2 125t-7 107t-14 119q-3 24 10 55t41 53t69 19q62 -4 124 -6t123 -2q114 0 232.5 9.5t208.5 30.5q46 11 86 -14.5t50 -71.5q11 -46 -14.5 -85.5t-71.5 -50.5q-111 -25 -239.5 -35.5t-251.5 -10.5q-65 0 -128 3
q6 -60 9 -116.5t3 -128.5q0 -65 -2 -135q71 3 146 3q95 0 188.5 -5.5t184.5 -16.5q46 -6 75.5 -43t23.5 -84q-5 -46 -42.5 -75t-83.5 -24q-85 11 -171 15.5t-175 4.5q-41 0 -79.5 -1t-76.5 -2q-5 -83 -12.5 -161.5t-17.5 -147.5q-4 -20 -4 -43q0 -57 44 -74t144.5 -15
t269.5 2h77.5t74.5 1q47 2 81 -31t35 -80q2 -47 -31.5 -80.5t-80.5 -34.5q-38 -1 -77 -1h-79q-75 0 -166 -3.5t-182 4t-167.5 37.5t-122.5 95t-46 180q0 35 4 70q9 60 15.5 130.5t11.5 145.5q-60 26 -68 90zM742 2127q20 -16 22.5 -42t-13.5 -45q-56 -70 -104 -139.5
t-89 -160.5q-10 -22 -35 -31.5t-48 0.5q-22 10 -31.5 35t0.5 48q46 101 100 178t110 147q16 20 42.5 22.5t45.5 -12.5z" />
    <glyph glyph-name="Ecircumflex" unicode="&#xca;" horiz-adv-x="1138" 
d="M72 681q-5 41 18 75.5t61 46.5q2 82 2 157q0 71 -2 125t-7 107t-14 119q-3 24 10 55t41 53t69 19q62 -4 124 -6t123 -2q114 0 232.5 9.5t208.5 30.5q46 11 86 -14.5t50 -71.5q11 -46 -14.5 -85.5t-71.5 -50.5q-111 -25 -239.5 -35.5t-251.5 -10.5q-65 0 -128 3
q6 -60 9 -116.5t3 -128.5q0 -65 -2 -135q71 3 146 3q95 0 188.5 -5.5t184.5 -16.5q46 -6 75.5 -43t23.5 -84q-5 -46 -42.5 -75t-83.5 -24q-85 11 -171 15.5t-175 4.5q-41 0 -79.5 -1t-76.5 -2q-5 -83 -12.5 -161.5t-17.5 -147.5q-4 -20 -4 -43q0 -57 44 -74t144.5 -15
t269.5 2h77.5t74.5 1q47 2 81 -31t35 -80q2 -47 -31.5 -80.5t-80.5 -34.5q-38 -1 -77 -1h-79q-75 0 -166 -3.5t-182 4t-167.5 37.5t-122.5 95t-46 180q0 35 4 70q9 60 15.5 130.5t11.5 145.5q-60 26 -68 90zM395 1714q-21 13 -27 38t7 47l166 269q14 24 50 25t51 -19
l192 -241q16 -19 13.5 -45.5t-22.5 -42.5q-19 -15 -45.5 -12t-41.5 23l-138 172l-119 -195q-13 -21 -39 -26.5t-47 7.5z" />
    <glyph glyph-name="Edieresis" unicode="&#xcb;" horiz-adv-x="1138" 
d="M72 681q-5 41 18 75.5t61 46.5q2 82 2 157q0 71 -2 125t-7 107t-14 119q-3 24 10 55t41 53t69 19q62 -4 124 -6t123 -2q114 0 232.5 9.5t208.5 30.5q46 11 86 -14.5t50 -71.5q11 -46 -14.5 -85.5t-71.5 -50.5q-111 -25 -239.5 -35.5t-251.5 -10.5q-65 0 -128 3
q6 -60 9 -116.5t3 -128.5q0 -65 -2 -135q71 3 146 3q95 0 188.5 -5.5t184.5 -16.5q46 -6 75.5 -43t23.5 -84q-5 -46 -42.5 -75t-83.5 -24q-85 11 -171 15.5t-175 4.5q-41 0 -79.5 -1t-76.5 -2q-5 -83 -12.5 -161.5t-17.5 -147.5q-4 -20 -4 -43q0 -57 44 -74t144.5 -15
t269.5 2h77.5t74.5 1q47 2 81 -31t35 -80q2 -47 -31.5 -80.5t-80.5 -34.5q-38 -1 -77 -1h-79q-75 0 -166 -3.5t-182 4t-167.5 37.5t-122.5 95t-46 180q0 35 4 70q9 60 15.5 130.5t11.5 145.5q-60 26 -68 90zM875 1827q0 -48 -34 -77t-76 -29q-47 0 -78 33t-31 72
q0 48 29 81.5t72 33.5q50 0 84 -33.5t34 -80.5zM558 1842q0 -52 -35 -86.5t-86 -34.5q-45 0 -71.5 35.5t-26.5 74.5q0 45 31.5 77.5t77.5 32.5q41 0 75.5 -27t34.5 -72z" />
    <glyph glyph-name="Igrave" unicode="&#xcc;" horiz-adv-x="475" 
d="M223 -113q-47 1 -79.5 35t-31.5 81l35 1361q1 47 35 79.5t81 30.5q47 -1 79.5 -34.5t30.5 -80.5l-35 -1361q-1 -47 -34.5 -79.5t-80.5 -31.5zM121 2128q20 15 46 12.5t41 -22.5q50 -63 100.5 -154.5t86.5 -171.5q11 -22 1 -47.5t-32 -35.5t-47 -0.5t-36 31.5
q-22 50 -52 106.5t-61 108.5t-58 86q-15 20 -11.5 45.5t22.5 41.5z" />
    <glyph glyph-name="Iacute" unicode="&#xcd;" horiz-adv-x="475" 
d="M223 -113q-47 1 -79.5 35t-31.5 81l35 1361q1 47 35 79.5t81 30.5q47 -1 79.5 -34.5t30.5 -80.5l-35 -1361q-1 -47 -34.5 -79.5t-80.5 -31.5zM380 2127q20 -16 22.5 -42t-13.5 -45q-56 -70 -104 -139.5t-89 -160.5q-10 -22 -35 -31.5t-48 0.5q-22 10 -31.5 35t0.5 48
q46 101 100 178t110 147q16 20 42.5 22.5t45.5 -12.5z" />
    <glyph glyph-name="Icircumflex" unicode="&#xce;" horiz-adv-x="475" 
d="M223 -113q-47 1 -79.5 35t-31.5 81l35 1361q1 47 35 79.5t81 30.5q47 -1 79.5 -34.5t30.5 -80.5l-35 -1361q-1 -47 -34.5 -79.5t-80.5 -31.5zM37 1714q-21 13 -27 38t7 47l166 269q14 24 50 25t51 -19l192 -241q16 -19 13.5 -45.5t-22.5 -42.5q-19 -15 -45.5 -12
t-41.5 23l-138 172l-119 -195q-13 -21 -39 -26.5t-47 7.5z" />
    <glyph glyph-name="Idieresis" unicode="&#xcf;" horiz-adv-x="475" 
d="M223 -113q-47 1 -79.5 35t-31.5 81l35 1361q1 47 35 79.5t81 30.5q47 -1 79.5 -34.5t30.5 -80.5l-35 -1361q-1 -47 -34.5 -79.5t-80.5 -31.5zM520 1827q0 -48 -34 -77t-76 -29q-47 0 -78 33t-31 72q0 48 29 81.5t72 33.5q50 0 84 -33.5t34 -80.5zM203 1842
q0 -52 -35 -86.5t-86 -34.5q-45 0 -71.5 35.5t-26.5 74.5q0 45 31.5 77.5t77.5 32.5q41 0 75.5 -27t34.5 -72z" />
    <glyph glyph-name="Eth" unicode="&#xd0;" horiz-adv-x="1341" 
d="M-7 701q-3 40 23 70.5t66 33.5q59 4 115 7t110 4q0 96 -3 173t-9 153.5t-16 171.5q-5 44 23.5 79.5t64.5 42.5q105 24 214 24q235 0 422 -86t295.5 -254.5t108.5 -418.5q0 -166 -58.5 -311t-164 -254.5t-248 -171.5t-309.5 -62q-153 0 -293 54q-37 14 -56.5 50t-15.5 71
q16 123 27 263.5t15 281.5q-50 -1 -102 -3.5t-106 -6.5q-39 -3 -69.5 23.5t-33.5 65.5zM515 1227q10 -106 14 -200.5t4 -213.5q68 -3 132 -8q39 -3 65 -34t23 -70q-3 -40 -34.5 -66t-69.5 -23q-58 5 -119 7q-7 -245 -31 -472q65 -19 128 -19q158 0 283.5 75t198 205
t72.5 293q0 271 -156 401t-444 130q-16 0 -32.5 -1t-33.5 -4z" />
    <glyph glyph-name="Ntilde" unicode="&#xd1;" horiz-adv-x="1347" 
d="M219 -113q-46 2 -77.5 37.5t-29.5 81.5q17 333 29 653t16 658q0 50 37 83.5t86 28.5q25 -1 47 -15.5t33 -28.5q177 -232 339.5 -477t308.5 -490l11 944q0 47 34 80t80 32q47 0 80 -33.5t32 -80.5l-15 -1357q0 -26 -13 -52t-37 -42q-40 -27 -89 -15t-73 55
q-143 258 -304 518t-338 508q-5 -247 -15.5 -489.5t-22.5 -491.5q-1 -46 -36.5 -77.5t-82.5 -29.5zM334 1623q-32 11 -48.5 43.5t-6.5 63.5q26 74 85.5 136t159.5 62q72 0 126.5 -27.5t98.5 -56.5q23 -15 42.5 -24.5t44.5 -9.5q53 0 74 35t29 58q13 32 46.5 45t64.5 0
q32 -13 45 -46.5t0 -64.5q-39 -88 -107 -143t-152 -55q-52 0 -99 18t-92 52q-26 20 -51.5 34t-60.5 14q-46 0 -66.5 -32t-25.5 -47q-10 -32 -42.5 -48.5t-64.5 -6.5z" />
    <glyph glyph-name="Ograve" unicode="&#xd2;" horiz-adv-x="1525" 
d="M738 -98q-145 0 -266.5 53t-211.5 149.5t-139.5 226t-49.5 282.5q0 162 54 313.5t154 272t238 191t307 70.5q156 0 275 -67t200 -179.5t122.5 -250.5t41.5 -279q0 -165 -54 -307.5t-152 -249t-230 -166t-289 -59.5zM738 128q141 0 254 69t179 194.5t66 292.5
q0 156 -54 280t-147 196t-212 72q-109 0 -204.5 -48.5t-167.5 -133.5t-112.5 -197t-40.5 -240q0 -150 57 -258.5t156 -167.5t226 -59zM668 2128q20 15 46 12.5t41 -22.5q50 -63 100.5 -154.5t86.5 -171.5q11 -22 1 -47.5t-32 -35.5t-47 -0.5t-36 31.5q-22 50 -52 106.5
t-61 108.5t-58 86q-15 20 -11.5 45.5t22.5 41.5z" />
    <glyph glyph-name="Oacute" unicode="&#xd3;" horiz-adv-x="1525" 
d="M738 -98q-145 0 -266.5 53t-211.5 149.5t-139.5 226t-49.5 282.5q0 162 54 313.5t154 272t238 191t307 70.5q156 0 275 -67t200 -179.5t122.5 -250.5t41.5 -279q0 -165 -54 -307.5t-152 -249t-230 -166t-289 -59.5zM738 128q141 0 254 69t179 194.5t66 292.5
q0 156 -54 280t-147 196t-212 72q-109 0 -204.5 -48.5t-167.5 -133.5t-112.5 -197t-40.5 -240q0 -150 57 -258.5t156 -167.5t226 -59zM927 2127q20 -16 22.5 -42t-13.5 -45q-56 -70 -104 -139.5t-89 -160.5q-10 -22 -35 -31.5t-48 0.5q-22 10 -31.5 35t0.5 48
q46 101 100 178t110 147q16 20 42.5 22.5t45.5 -12.5z" />
    <glyph glyph-name="Ocircumflex" unicode="&#xd4;" horiz-adv-x="1525" 
d="M738 -98q-145 0 -266.5 53t-211.5 149.5t-139.5 226t-49.5 282.5q0 162 54 313.5t154 272t238 191t307 70.5q156 0 275 -67t200 -179.5t122.5 -250.5t41.5 -279q0 -165 -54 -307.5t-152 -249t-230 -166t-289 -59.5zM738 128q141 0 254 69t179 194.5t66 292.5
q0 156 -54 280t-147 196t-212 72q-109 0 -204.5 -48.5t-167.5 -133.5t-112.5 -197t-40.5 -240q0 -150 57 -258.5t156 -167.5t226 -59zM584 1714q-21 13 -27 38t7 47l166 269q14 24 50 25t51 -19l192 -241q16 -19 13.5 -45.5t-22.5 -42.5q-19 -15 -45.5 -12t-41.5 23
l-138 172l-119 -195q-13 -21 -39 -26.5t-47 7.5z" />
    <glyph glyph-name="Otilde" unicode="&#xd5;" horiz-adv-x="1525" 
d="M738 -98q-145 0 -266.5 53t-211.5 149.5t-139.5 226t-49.5 282.5q0 162 54 313.5t154 272t238 191t307 70.5q156 0 275 -67t200 -179.5t122.5 -250.5t41.5 -279q0 -165 -54 -307.5t-152 -249t-230 -166t-289 -59.5zM738 128q141 0 254 69t179 194.5t66 292.5
q0 156 -54 280t-147 196t-212 72q-109 0 -204.5 -48.5t-167.5 -133.5t-112.5 -197t-40.5 -240q0 -150 57 -258.5t156 -167.5t226 -59zM441 1688q-32 11 -48.5 43.5t-6.5 63.5q26 74 85.5 136t159.5 62q72 0 126.5 -27.5t98.5 -56.5q23 -15 42.5 -24.5t44.5 -9.5q53 0 74 35
t29 58q13 32 46.5 45t64.5 0q32 -13 45 -46.5t0 -64.5q-39 -88 -107 -143t-152 -55q-52 0 -99 18t-92 52q-26 20 -51.5 34t-60.5 14q-46 0 -66.5 -32t-25.5 -47q-10 -32 -42.5 -48.5t-64.5 -6.5z" />
    <glyph glyph-name="Odieresis" unicode="&#xd6;" horiz-adv-x="1525" 
d="M738 -98q-145 0 -266.5 53t-211.5 149.5t-139.5 226t-49.5 282.5q0 162 54 313.5t154 272t238 191t307 70.5q156 0 275 -67t200 -179.5t122.5 -250.5t41.5 -279q0 -165 -54 -307.5t-152 -249t-230 -166t-289 -59.5zM738 128q141 0 254 69t179 194.5t66 292.5
q0 156 -54 280t-147 196t-212 72q-109 0 -204.5 -48.5t-167.5 -133.5t-112.5 -197t-40.5 -240q0 -150 57 -258.5t156 -167.5t226 -59zM1067 1827q0 -48 -34 -77t-76 -29q-47 0 -78 33t-31 72q0 48 29 81.5t72 33.5q50 0 84 -33.5t34 -80.5zM750 1842q0 -52 -35 -86.5
t-86 -34.5q-45 0 -71.5 35.5t-26.5 74.5q0 45 31.5 77.5t77.5 32.5q41 0 75.5 -27t34.5 -72z" />
    <glyph glyph-name="multiply" unicode="&#xd7;" horiz-adv-x="882" 
d="M102 310q-34 29 -35.5 77t30.5 84q49 56 99 109t101 104q-90 78 -173 134q-37 25 -43.5 71t21.5 86q29 40 76 50t84 -15q51 -34 103.5 -75.5t103.5 -87.5q84 77 179 155q38 32 85 29.5t75 -37.5q28 -34 22 -81.5t-44 -78.5q-42 -36 -82.5 -70.5t-79.5 -69.5q4 -5 9 -10
q60 -65 98 -119t70 -107q23 -38 13 -85.5t-50 -76.5q-39 -28 -85.5 -21t-69.5 46q-14 22 -55.5 83t-94.5 120q-3 4 -6 7q-97 -97 -189 -202q-32 -36 -80 -41.5t-82 22.5z" />
    <glyph glyph-name="Oslash" unicode="&#xd8;" horiz-adv-x="1494" 
d="M101 -86q-21 14 -25.5 40t8.5 46q58 86 120 173q-63 89 -98 201t-35 239q0 162 54 313.5t154 272t238 191t307 70.5q122 0 222 -43t176 -116q51 48 104 96q20 17 46 16t43 -21q17 -19 16 -45t-21 -43q-54 -49 -106 -97q78 -110 118.5 -247t40.5 -276q0 -165 -54 -307.5
t-152 -249t-230 -166t-289 -59.5q-134 0 -248.5 46t-201.5 128q-52 -72 -100 -145q-14 -21 -40.5 -25.5t-46.5 8.5zM299 613q0 -139 51 -246q164 209 343 403t363 373q-49 43 -107.5 66t-124.5 23q-109 0 -204.5 -48.5t-167.5 -133.5t-112.5 -197t-40.5 -240zM738 128
q141 0 254 69t179 194.5t66 292.5q0 107 -26.5 200t-73.5 165q-187 -182 -368 -380t-346 -411q121 -130 315 -130z" />
    <glyph glyph-name="Ugrave" unicode="&#xd9;" horiz-adv-x="1350" 
d="M323 1445q46 -10 72 -49.5t15 -85.5q-35 -163 -53 -310.5t-18 -322.5q0 -165 30 -288.5t99.5 -192t187.5 -68.5q110 0 181 68.5t111 191t56.5 285.5t16.5 353q0 49 -1 111t-2.5 121t-3.5 98q-2 47 29.5 82t78.5 36q47 2 81.5 -29.5t37.5 -78.5q2 -40 4 -100t3 -124
t1 -116q0 -234 -27 -437.5t-92.5 -358t-181 -241.5t-292.5 -87q-196 0 -316 104t-174.5 284t-54.5 409q0 173 19.5 329t57.5 330q10 46 50 72t85 15zM549 2128q20 15 46 12.5t41 -22.5q50 -63 100.5 -154.5t86.5 -171.5q11 -22 1 -47.5t-32 -35.5t-47 -0.5t-36 31.5
q-22 50 -52 106.5t-61 108.5t-58 86q-15 20 -11.5 45.5t22.5 41.5z" />
    <glyph glyph-name="Uacute" unicode="&#xda;" horiz-adv-x="1350" 
d="M323 1445q46 -10 72 -49.5t15 -85.5q-35 -163 -53 -310.5t-18 -322.5q0 -165 30 -288.5t99.5 -192t187.5 -68.5q110 0 181 68.5t111 191t56.5 285.5t16.5 353q0 49 -1 111t-2.5 121t-3.5 98q-2 47 29.5 82t78.5 36q47 2 81.5 -29.5t37.5 -78.5q2 -40 4 -100t3 -124
t1 -116q0 -234 -27 -437.5t-92.5 -358t-181 -241.5t-292.5 -87q-196 0 -316 104t-174.5 284t-54.5 409q0 173 19.5 329t57.5 330q10 46 50 72t85 15zM808 2127q20 -16 22.5 -42t-13.5 -45q-56 -70 -104 -139.5t-89 -160.5q-10 -22 -35 -31.5t-48 0.5q-22 10 -31.5 35t0.5 48
q46 101 100 178t110 147q16 20 42.5 22.5t45.5 -12.5z" />
    <glyph glyph-name="Ucircumflex" unicode="&#xdb;" horiz-adv-x="1350" 
d="M323 1445q46 -10 72 -49.5t15 -85.5q-35 -163 -53 -310.5t-18 -322.5q0 -165 30 -288.5t99.5 -192t187.5 -68.5q110 0 181 68.5t111 191t56.5 285.5t16.5 353q0 49 -1 111t-2.5 121t-3.5 98q-2 47 29.5 82t78.5 36q47 2 81.5 -29.5t37.5 -78.5q2 -40 4 -100t3 -124
t1 -116q0 -234 -27 -437.5t-92.5 -358t-181 -241.5t-292.5 -87q-196 0 -316 104t-174.5 284t-54.5 409q0 173 19.5 329t57.5 330q10 46 50 72t85 15zM471 1714q-21 13 -27 38t7 47l166 269q14 24 50 25t51 -19l192 -241q16 -19 13.5 -45.5t-22.5 -42.5q-19 -15 -45.5 -12
t-41.5 23l-138 172l-119 -195q-13 -21 -39 -26.5t-47 7.5z" />
    <glyph glyph-name="Udieresis" unicode="&#xdc;" horiz-adv-x="1350" 
d="M323 1445q46 -10 72 -49.5t15 -85.5q-35 -163 -53 -310.5t-18 -322.5q0 -165 30 -288.5t99.5 -192t187.5 -68.5q110 0 181 68.5t111 191t56.5 285.5t16.5 353q0 49 -1 111t-2.5 121t-3.5 98q-2 47 29.5 82t78.5 36q47 2 81.5 -29.5t37.5 -78.5q2 -40 4 -100t3 -124
t1 -116q0 -234 -27 -437.5t-92.5 -358t-181 -241.5t-292.5 -87q-196 0 -316 104t-174.5 284t-54.5 409q0 173 19.5 329t57.5 330q10 46 50 72t85 15zM953 1827q0 -48 -34 -77t-76 -29q-47 0 -78 33t-31 72q0 48 29 81.5t72 33.5q50 0 84 -33.5t34 -80.5zM636 1842
q0 -52 -35 -86.5t-86 -34.5q-45 0 -71.5 35.5t-26.5 74.5q0 45 31.5 77.5t77.5 32.5q41 0 75.5 -27t34.5 -72z" />
    <glyph glyph-name="Yacute" unicode="&#xdd;" horiz-adv-x="1307" 
d="M663 -113q-47 -1 -81 32t-34 79l-10 599l-445 654q-27 38 -19 84.5t45 73.5q38 27 84.5 19.5t73.5 -45.5l371 -551l390 540q26 39 73 47.5t85 -17.5q39 -25 47.5 -72.5t-17.5 -85.5l-462 -647l10 -595q1 -47 -31.5 -81t-79.5 -34zM800 2127q20 -16 22.5 -42t-13.5 -45
q-56 -70 -104 -139.5t-89 -160.5q-10 -22 -35 -31.5t-48 0.5q-22 10 -31.5 35t0.5 48q46 101 100 178t110 147q16 20 42.5 22.5t45.5 -12.5z" />
    <glyph glyph-name="Thorn" unicode="&#xde;" horiz-adv-x="1166" 
d="M223 -491q-47 2 -79.5 45t-31.5 103l16 810v21q0 26 2 53l17 855q1 60 35 102t81 40q47 -1 79.5 -44.5t30.5 -103.5l-7 -364q56 42 127 66t156 24q125 0 218 -52t154.5 -137t92 -186.5t30.5 -200.5q0 -109 -33.5 -221t-99 -206t-163 -151.5t-226.5 -57.5
q-82 0 -151.5 25.5t-125.5 68.5l-7 -347q-1 -60 -34.5 -101.5t-80.5 -40.5zM649 890q-88 0 -154 -52.5t-102.5 -143t-36.5 -206.5q0 -106 36.5 -186.5t97.5 -126t132 -45.5q79 0 146 55.5t108.5 148.5t41.5 206q0 98 -34.5 177.5t-95 126t-139.5 46.5z" />
    <glyph glyph-name="germandbls" unicode="&#xdf;" horiz-adv-x="1134" 
d="M571 1460q95 0 167 -37t120.5 -96.5t73 -130t24.5 -136.5q0 -115 -38 -191.5t-112 -135.5q-71 -55 -71 -103q0 -25 18.5 -42t46.5 -31q39 -20 88.5 -50.5t95 -75t75 -106t29.5 -143.5q0 -80 -40.5 -134.5t-103.5 -87t-133 -46.5t-129 -14q-58 0 -118 11.5t-116 42.5
q-41 23 -53.5 69t9.5 86q46 80 139 46q28 -12 66 -20.5t74 -8.5q39 0 80 8t68.5 25t27.5 43q0 43 -46 80t-116 73q-41 22 -85 56t-74 85t-30 123q0 98 48.5 172t105.5 120q38 30 52 62.5t14 86.5q0 64 -42.5 118t-114.5 54q-36 0 -68.5 -18.5t-57 -69t-36.5 -147.5
q-28 -217 -47.5 -469.5t-38.5 -531.5q-3 -46 -38.5 -77t-82.5 -28q-46 3 -77 38.5t-28 82.5q19 279 38.5 533.5t47.5 480.5q27 207 130 320.5t258 113.5z" />
    <glyph glyph-name="agrave" unicode="&#xe0;" horiz-adv-x="1309" 
d="M1143 -68q-82 0 -139 34.5t-92 94.5q-68 -75 -159 -117t-200 -42q-142 0 -249.5 69t-168 188.5t-62.5 268.5q-2 132 37.5 254.5t114 220t177.5 154.5t227 57q74 0 137 -23.5t119 -67.5q10 38 43 59.5t74 16.5q47 -7 78.5 -45t28.5 -83l-29 -468q-1 -19 -3 -38
q-3 -42 -3.5 -91t1.5 -80q3 -53 22.5 -93t80.5 -48q29 -10 54 -34t25 -74q1 -46 -33 -79.5t-81 -33.5zM555 128q134 0 206 100t88 271q1 8 1 15q0 6 1 11t1 10l13 198q-22 15 -35 37q-36 54 -87 86t-116 32q-103 0 -177 -66.5t-112.5 -172.5t-36.5 -224q3 -134 68.5 -215.5
t185.5 -81.5zM499 1783q20 15 46 12.5t41 -22.5q50 -63 100.5 -154.5t86.5 -171.5q11 -22 1 -47.5t-32 -35.5t-47 -0.5t-36 31.5q-22 50 -52 106.5t-61 108.5t-58 86q-15 20 -11.5 45.5t22.5 41.5z" />
    <glyph glyph-name="aacute" unicode="&#xe1;" horiz-adv-x="1309" 
d="M1143 -68q-82 0 -139 34.5t-92 94.5q-68 -75 -159 -117t-200 -42q-142 0 -249.5 69t-168 188.5t-62.5 268.5q-2 132 37.5 254.5t114 220t177.5 154.5t227 57q74 0 137 -23.5t119 -67.5q10 38 43 59.5t74 16.5q47 -7 78.5 -45t28.5 -83l-29 -468q-1 -19 -3 -38
q-3 -42 -3.5 -91t1.5 -80q3 -53 22.5 -93t80.5 -48q29 -10 54 -34t25 -74q1 -46 -33 -79.5t-81 -33.5zM555 128q134 0 206 100t88 271q1 8 1 15q0 6 1 11t1 10l13 198q-22 15 -35 37q-36 54 -87 86t-116 32q-103 0 -177 -66.5t-112.5 -172.5t-36.5 -224q3 -134 68.5 -215.5
t185.5 -81.5zM772 1782q20 -16 22.5 -42t-13.5 -45q-56 -70 -104 -139.5t-89 -160.5q-10 -22 -35 -31.5t-48 0.5q-22 10 -31.5 35t0.5 48q46 101 100 178t110 147q16 20 42.5 22.5t45.5 -12.5z" />
    <glyph glyph-name="acircumflex" unicode="&#xe2;" horiz-adv-x="1309" 
d="M1143 -68q-82 0 -139 34.5t-92 94.5q-68 -75 -159 -117t-200 -42q-142 0 -249.5 69t-168 188.5t-62.5 268.5q-2 132 37.5 254.5t114 220t177.5 154.5t227 57q74 0 137 -23.5t119 -67.5q10 38 43 59.5t74 16.5q47 -7 78.5 -45t28.5 -83l-29 -468q-1 -19 -3 -38
q-3 -42 -3.5 -91t1.5 -80q3 -53 22.5 -93t80.5 -48q29 -10 54 -34t25 -74q1 -46 -33 -79.5t-81 -33.5zM555 128q134 0 206 100t88 271q1 8 1 15q0 6 1 11t1 10l13 198q-22 15 -35 37q-36 54 -87 86t-116 32q-103 0 -177 -66.5t-112.5 -172.5t-36.5 -224q3 -134 68.5 -215.5
t185.5 -81.5zM425 1369q-21 13 -27 38t7 47l166 269q14 24 50 25t51 -19l192 -241q16 -19 13.5 -45.5t-22.5 -42.5q-19 -15 -45.5 -12t-41.5 23l-138 172l-119 -195q-13 -21 -39 -26.5t-47 7.5z" />
    <glyph glyph-name="atilde" unicode="&#xe3;" horiz-adv-x="1309" 
d="M1143 -68q-82 0 -139 34.5t-92 94.5q-68 -75 -159 -117t-200 -42q-142 0 -249.5 69t-168 188.5t-62.5 268.5q-2 132 37.5 254.5t114 220t177.5 154.5t227 57q74 0 137 -23.5t119 -67.5q10 38 43 59.5t74 16.5q47 -7 78.5 -45t28.5 -83l-29 -468q-1 -19 -3 -38
q-3 -42 -3.5 -91t1.5 -80q3 -53 22.5 -93t80.5 -48q29 -10 54 -34t25 -74q1 -46 -33 -79.5t-81 -33.5zM555 128q134 0 206 100t88 271q1 8 1 15q0 6 1 11t1 10l13 198q-22 15 -35 37q-36 54 -87 86t-116 32q-103 0 -177 -66.5t-112.5 -172.5t-36.5 -224q3 -134 68.5 -215.5
t185.5 -81.5zM278 1370q-32 11 -48.5 43.5t-6.5 63.5q26 74 85.5 136t159.5 62q72 0 126.5 -27.5t98.5 -56.5q23 -15 42.5 -24.5t44.5 -9.5q53 0 74 35t29 58q13 32 46.5 45t64.5 0q32 -13 45 -46.5t0 -64.5q-39 -88 -107 -143t-152 -55q-52 0 -99 18t-92 52
q-26 20 -51.5 34t-60.5 14q-46 0 -66.5 -32t-25.5 -47q-10 -32 -42.5 -48.5t-64.5 -6.5z" />
    <glyph glyph-name="adieresis" unicode="&#xe4;" horiz-adv-x="1309" 
d="M1143 -68q-82 0 -139 34.5t-92 94.5q-68 -75 -159 -117t-200 -42q-142 0 -249.5 69t-168 188.5t-62.5 268.5q-2 132 37.5 254.5t114 220t177.5 154.5t227 57q74 0 137 -23.5t119 -67.5q10 38 43 59.5t74 16.5q47 -7 78.5 -45t28.5 -83l-29 -468q-1 -19 -3 -38
q-3 -42 -3.5 -91t1.5 -80q3 -53 22.5 -93t80.5 -48q29 -10 54 -34t25 -74q1 -46 -33 -79.5t-81 -33.5zM555 128q134 0 206 100t88 271q1 8 1 15q0 6 1 11t1 10l13 198q-22 15 -35 37q-36 54 -87 86t-116 32q-103 0 -177 -66.5t-112.5 -172.5t-36.5 -224q3 -134 68.5 -215.5
t185.5 -81.5zM905 1483q0 -48 -34 -77t-76 -29q-47 0 -78 33t-31 72q0 48 29 81.5t72 33.5q50 0 84 -33.5t34 -80.5zM588 1498q0 -52 -35 -86.5t-86 -34.5q-45 0 -71.5 35.5t-26.5 74.5q0 45 31.5 77.5t77.5 32.5q41 0 75.5 -27t34.5 -72z" />
    <glyph glyph-name="aring" unicode="&#xe5;" horiz-adv-x="1309" 
d="M1143 -68q-82 0 -139 34.5t-92 94.5q-68 -75 -159 -117t-200 -42q-142 0 -249.5 69t-168 188.5t-62.5 268.5q-2 132 37.5 254.5t114 220t177.5 154.5t227 57q74 0 137 -23.5t119 -67.5q10 38 43 59.5t74 16.5q47 -7 78.5 -45t28.5 -83l-29 -468q-1 -19 -3 -38
q-3 -42 -3.5 -91t1.5 -80q3 -53 22.5 -93t80.5 -48q29 -10 54 -34t25 -74q1 -46 -33 -79.5t-81 -33.5zM555 128q134 0 206 100t88 271q1 8 1 15q0 6 1 11t1 10l13 198q-22 15 -35 37q-36 54 -87 86t-116 32q-103 0 -177 -66.5t-112.5 -172.5t-36.5 -224q3 -134 68.5 -215.5
t185.5 -81.5zM987 1623q0 -72 -39.5 -132t-103.5 -95.5t-140 -35.5q-68 0 -126 35.5t-93.5 94t-35.5 126.5q0 74 38 138.5t99 104t131 39.5q76 0 137 -39.5t97 -102t36 -133.5zM852 1625q0 53 -40 95.5t-95 42.5q-48 0 -90.5 -43.5t-42.5 -99.5q0 -49 38 -87t86 -38
q59 0 101.5 40t42.5 90z" />
    <glyph glyph-name="ae" unicode="&#xe6;" horiz-adv-x="1926" 
d="M1795 47q-95 -87 -207 -116t-220 -29q-133 0 -245 51.5t-181 160.5q-70 -99 -171 -155.5t-228 -56.5q-142 0 -248.5 69t-165 188.5t-58.5 268.5q0 132 44.5 254.5t124.5 220t187 154.5t231 57q150 0 271 -95q12 39 47.5 62t77.5 18q34 -5 59 -28t34 -55q66 46 145 72
t169 26q79 0 159.5 -34t135 -102.5t54.5 -172.5q0 -92 -41 -162.5t-94.5 -118t-90.5 -69.5q-226 -134 -466 -183q63 -144 250 -144q86 0 156 22t118 65q35 32 82.5 29.5t78.5 -37.5q32 -34 29.5 -81.5t-37.5 -78.5zM1455 888q-93 0 -173 -52.5t-132.5 -141.5t-61.5 -198
q101 20 193.5 54t177.5 85q131 78 131 152q0 47 -38.5 74t-96.5 27zM546 128q106 0 174.5 64.5t104.5 179.5q3 20 12 39q15 56 24 124l27 197q-22 15 -34 38q-31 54 -82.5 86t-116.5 32q-102 0 -182.5 -66.5t-127 -172.5t-46.5 -224q0 -134 63 -215.5t184 -81.5z" />
    <glyph glyph-name="ccedilla" unicode="&#xe7;" horiz-adv-x="1071" 
d="M966 833q-30 -35 -77.5 -38.5t-82.5 26.5q-77 67 -170 67q-100 0 -176 -63t-118.5 -165t-42.5 -221q0 -136 68 -223.5t215 -87.5q69 0 143.5 17.5t137.5 43.5q45 14 87 -8.5t55 -67.5t-9.5 -86t-66.5 -55q-87 -34 -165.5 -52t-163.5 -18q-170 0 -288.5 71.5t-179.5 196
t-61 282.5q0 131 40.5 250t115 211.5t177 146.5t226.5 54q94 0 175.5 -31t148.5 -90q35 -30 39 -77.5t-27 -82.5zM417 90q29 36 76 41t84 -25q50 -40 113.5 -108.5t110.5 -156t47 -184.5q0 -91 -49.5 -147t-129.5 -81t-172 -25q-108 0 -190 24q-45 12 -68 54t-10 86
q13 45 54.5 69t85.5 10q20 -6 54.5 -11.5t66.5 -5.5q127 0 127 65q0 31 -33 76.5t-76 89.5t-75 69q-36 29 -40.5 76t24.5 84z" />
    <glyph glyph-name="egrave" unicode="&#xe8;" horiz-adv-x="1191" 
d="M1062 47q-95 -87 -207 -116t-220 -29q-169 0 -302.5 84.5t-182.5 265.5q-31 11 -52.5 38t-23.5 62q-4 67 53 103q3 122 46 239t121.5 212t188 151.5t245.5 56.5q79 0 159.5 -34t135 -102.5t54.5 -172.5q0 -92 -41 -162.5t-94.5 -118t-90.5 -69.5q-223 -133 -466 -183
q64 -144 250 -144q178 0 275 87q35 32 82 29.5t78 -37.5q32 -34 29.5 -81.5t-37.5 -78.5zM722 888q-93 0 -173 -52.5t-132.5 -141.5t-61.5 -198q101 20 194.5 55t176.5 84q131 78 131 152q0 47 -38.5 74t-96.5 27zM486 1783q20 15 46 12.5t41 -22.5q50 -63 100.5 -154.5
t86.5 -171.5q11 -22 1 -47.5t-32 -35.5t-47 -0.5t-36 31.5q-22 50 -52 106.5t-61 108.5t-58 86q-15 20 -11.5 45.5t22.5 41.5z" />
    <glyph glyph-name="eacute" unicode="&#xe9;" horiz-adv-x="1191" 
d="M1062 47q-95 -87 -207 -116t-220 -29q-169 0 -302.5 84.5t-182.5 265.5q-31 11 -52.5 38t-23.5 62q-4 67 53 103q3 122 46 239t121.5 212t188 151.5t245.5 56.5q79 0 159.5 -34t135 -102.5t54.5 -172.5q0 -92 -41 -162.5t-94.5 -118t-90.5 -69.5q-223 -133 -466 -183
q64 -144 250 -144q178 0 275 87q35 32 82 29.5t78 -37.5q32 -34 29.5 -81.5t-37.5 -78.5zM722 888q-93 0 -173 -52.5t-132.5 -141.5t-61.5 -198q101 20 194.5 55t176.5 84q131 78 131 152q0 47 -38.5 74t-96.5 27zM759 1782q20 -16 22.5 -42t-13.5 -45q-56 -70 -104 -139.5
t-89 -160.5q-10 -22 -35 -31.5t-48 0.5q-22 10 -31.5 35t0.5 48q46 101 100 178t110 147q16 20 42.5 22.5t45.5 -12.5z" />
    <glyph glyph-name="ecircumflex" unicode="&#xea;" horiz-adv-x="1191" 
d="M1062 47q-95 -87 -207 -116t-220 -29q-169 0 -302.5 84.5t-182.5 265.5q-31 11 -52.5 38t-23.5 62q-4 67 53 103q3 122 46 239t121.5 212t188 151.5t245.5 56.5q79 0 159.5 -34t135 -102.5t54.5 -172.5q0 -92 -41 -162.5t-94.5 -118t-90.5 -69.5q-223 -133 -466 -183
q64 -144 250 -144q178 0 275 87q35 32 82 29.5t78 -37.5q32 -34 29.5 -81.5t-37.5 -78.5zM722 888q-93 0 -173 -52.5t-132.5 -141.5t-61.5 -198q101 20 194.5 55t176.5 84q131 78 131 152q0 47 -38.5 74t-96.5 27zM412 1369q-21 13 -27 38t7 47l166 269q14 24 50 25t51 -19
l192 -241q16 -19 13.5 -45.5t-22.5 -42.5q-19 -15 -45.5 -12t-41.5 23l-138 172l-119 -195q-13 -21 -39 -26.5t-47 7.5z" />
    <glyph glyph-name="edieresis" unicode="&#xeb;" horiz-adv-x="1191" 
d="M1062 47q-95 -87 -207 -116t-220 -29q-169 0 -302.5 84.5t-182.5 265.5q-31 11 -52.5 38t-23.5 62q-4 67 53 103q3 122 46 239t121.5 212t188 151.5t245.5 56.5q79 0 159.5 -34t135 -102.5t54.5 -172.5q0 -92 -41 -162.5t-94.5 -118t-90.5 -69.5q-223 -133 -466 -183
q64 -144 250 -144q178 0 275 87q35 32 82 29.5t78 -37.5q32 -34 29.5 -81.5t-37.5 -78.5zM722 888q-93 0 -173 -52.5t-132.5 -141.5t-61.5 -198q101 20 194.5 55t176.5 84q131 78 131 152q0 47 -38.5 74t-96.5 27zM892 1483q0 -48 -34 -77t-76 -29q-47 0 -78 33t-31 72
q0 48 29 81.5t72 33.5q50 0 84 -33.5t34 -80.5zM575 1498q0 -52 -35 -86.5t-86 -34.5q-45 0 -71.5 35.5t-26.5 74.5q0 45 31.5 77.5t77.5 32.5q41 0 75.5 -27t34.5 -72z" />
    <glyph glyph-name="igrave" unicode="&#xec;" horiz-adv-x="475" 
d="M250 1084q47 -1 78.5 -36t29.5 -82q-3 -69 -5.5 -168t-4 -211t-2.5 -223t-1.5 -206t-0.5 -158q0 -46 -33.5 -79.5t-80.5 -33.5q-46 0 -79.5 33.5t-33.5 79.5q0 63 0.5 158.5t1.5 207t3 224.5t4.5 213.5t5.5 172.5q2 47 37 78.5t81 29.5zM86 1783q20 15 46 12.5t41 -22.5
q50 -63 100.5 -154.5t86.5 -171.5q11 -22 1 -47.5t-32 -35.5t-47 -0.5t-36 31.5q-22 50 -52 106.5t-61 108.5t-58 86q-15 20 -11.5 45.5t22.5 41.5z" />
    <glyph glyph-name="iacute" unicode="&#xed;" horiz-adv-x="475" 
d="M250 1084q47 -1 78.5 -36t29.5 -82q-3 -69 -5.5 -168t-4 -211t-2.5 -223t-1.5 -206t-0.5 -158q0 -46 -33.5 -79.5t-80.5 -33.5q-46 0 -79.5 33.5t-33.5 79.5q0 63 0.5 158.5t1.5 207t3 224.5t4.5 213.5t5.5 172.5q2 47 37 78.5t81 29.5zM345 1782q20 -16 22.5 -42
t-13.5 -45q-56 -70 -104 -139.5t-89 -160.5q-10 -22 -35 -31.5t-48 0.5q-22 10 -31.5 35t0.5 48q46 101 100 178t110 147q16 20 42.5 22.5t45.5 -12.5z" />
    <glyph glyph-name="icircumflex" unicode="&#xee;" horiz-adv-x="475" 
d="M250 1084q47 -1 78.5 -36t29.5 -82q-3 -69 -5.5 -168t-4 -211t-2.5 -223t-1.5 -206t-0.5 -158q0 -46 -33.5 -79.5t-80.5 -33.5q-46 0 -79.5 33.5t-33.5 79.5q0 63 0.5 158.5t1.5 207t3 224.5t4.5 213.5t5.5 172.5q2 47 37 78.5t81 29.5zM2 1369q-21 13 -27 38t7 47
l166 269q14 24 50 25t51 -19l192 -241q16 -19 13.5 -45.5t-22.5 -42.5q-19 -15 -45.5 -12t-41.5 23l-138 172l-119 -195q-13 -21 -39 -26.5t-47 7.5z" />
    <glyph glyph-name="idieresis" unicode="&#xef;" horiz-adv-x="475" 
d="M250 1084q47 -1 78.5 -36t29.5 -82q-3 -69 -5.5 -168t-4 -211t-2.5 -223t-1.5 -206t-0.5 -158q0 -46 -33.5 -79.5t-80.5 -33.5q-46 0 -79.5 33.5t-33.5 79.5q0 63 0.5 158.5t1.5 207t3 224.5t4.5 213.5t5.5 172.5q2 47 37 78.5t81 29.5zM485 1483q0 -48 -34 -77t-76 -29
q-47 0 -78 33t-31 72q0 48 29 81.5t72 33.5q50 0 84 -33.5t34 -80.5zM168 1498q0 -52 -35 -86.5t-86 -34.5q-45 0 -71.5 35.5t-26.5 74.5q0 45 31.5 77.5t77.5 32.5q41 0 75.5 -27t34.5 -72z" />
    <glyph glyph-name="eth" unicode="&#xf0;" horiz-adv-x="1099" 
d="M546 -98q-131 0 -225.5 44.5t-155.5 120t-90 169t-29 191.5q0 146 68.5 269t188 197.5t272.5 74.5q47 0 80 -33.5t33 -80.5q0 -46 -33 -80t-80 -34q-87 0 -155 -41.5t-107 -112t-39 -159.5q0 -138 60 -218.5t212 -80.5q134 0 212 88t78 309q0 76 -24.5 175.5t-84 206
t-164.5 203.5q-80 -54 -147 -105t-94 -81q-31 -35 -78 -37t-82 29t-37 78.5t29 81.5q34 38 88.5 83.5t118.5 93.5q-63 34 -134 61q-43 17 -62.5 60t-3.5 86q17 44 60 63.5t86 2.5q74 -29 140 -62.5t123 -72.5q70 42 134.5 74.5t113.5 48.5q44 14 86.5 -7.5t55.5 -65.5
q14 -44 -7.5 -86.5t-65.5 -56.5q-20 -7 -53.5 -23.5t-73.5 -40.5q113 -116 179 -243t94.5 -248t28.5 -218q0 -182 -60 -323t-175.5 -220.5t-280.5 -79.5z" />
    <glyph glyph-name="ntilde" unicode="&#xf1;" horiz-adv-x="1206" 
d="M116 19q20 214 29.5 364t9.5 264q0 96 -6 176t-19 161q-9 52 18 83.5t65 40.5q44 11 87.5 -10.5t53.5 -78.5q9 -58 15 -113q67 90 153.5 148.5t194.5 58.5q123 0 203.5 -62t120.5 -166.5t40 -230.5q0 -159 -2 -323t-11 -332q-2 -42 -32.5 -76.5t-83.5 -34.5
q-55 0 -84.5 33.5t-27.5 77.5q6 127 9 237.5t3 215.5q0 200 -34 317.5t-129 117.5q-64 0 -113.5 -43.5t-87 -117t-66 -163t-49.5 -182.5l-1 -3q-5 -82 -13 -176t-18 -205q-4 -54 -43 -78t-83 -20q-41 4 -72.5 34.5t-26.5 85.5zM272 1349q-32 11 -48.5 43.5t-6.5 63.5
q26 74 85.5 136t159.5 62q72 0 126.5 -27.5t98.5 -56.5q23 -15 42.5 -24.5t44.5 -9.5q53 0 74 35t29 58q13 32 46.5 45t64.5 0q32 -13 45 -46.5t0 -64.5q-39 -88 -107 -143t-152 -55q-52 0 -99 18t-92 52q-26 20 -51.5 34t-60.5 14q-46 0 -66.5 -32t-25.5 -47
q-10 -32 -42.5 -48.5t-64.5 -6.5z" />
    <glyph glyph-name="ograve" unicode="&#xf2;" horiz-adv-x="1159" 
d="M592 1114q125 0 218 -52t154.5 -137t92 -186.5t30.5 -200.5q0 -109 -33.5 -221t-99 -206t-163 -151.5t-226.5 -57.5q-119 0 -211 50.5t-155 135t-95.5 188.5t-32.5 210q0 108 31 219t95 203.5t162.5 149t232.5 56.5zM592 888q-88 0 -154 -52.5t-102.5 -143t-36.5 -206.5
q0 -106 36.5 -186.5t97.5 -126t132 -45.5q79 0 146 55.5t108.5 148.5t41.5 206q0 98 -34.5 177.5t-95 126t-139.5 46.5zM469 1783q20 15 46 12.5t41 -22.5q50 -63 100.5 -154.5t86.5 -171.5q11 -22 1 -47.5t-32 -35.5t-47 -0.5t-36 31.5q-22 50 -52 106.5t-61 108.5t-58 86
q-15 20 -11.5 45.5t22.5 41.5z" />
    <glyph glyph-name="oacute" unicode="&#xf3;" horiz-adv-x="1159" 
d="M592 1114q125 0 218 -52t154.5 -137t92 -186.5t30.5 -200.5q0 -109 -33.5 -221t-99 -206t-163 -151.5t-226.5 -57.5q-119 0 -211 50.5t-155 135t-95.5 188.5t-32.5 210q0 108 31 219t95 203.5t162.5 149t232.5 56.5zM592 888q-88 0 -154 -52.5t-102.5 -143t-36.5 -206.5
q0 -106 36.5 -186.5t97.5 -126t132 -45.5q79 0 146 55.5t108.5 148.5t41.5 206q0 98 -34.5 177.5t-95 126t-139.5 46.5zM728 1782q20 -16 22.5 -42t-13.5 -45q-56 -70 -104 -139.5t-89 -160.5q-10 -22 -35 -31.5t-48 0.5q-22 10 -31.5 35t0.5 48q46 101 100 178t110 147
q16 20 42.5 22.5t45.5 -12.5z" />
    <glyph glyph-name="ocircumflex" unicode="&#xf4;" horiz-adv-x="1159" 
d="M592 1114q125 0 218 -52t154.5 -137t92 -186.5t30.5 -200.5q0 -109 -33.5 -221t-99 -206t-163 -151.5t-226.5 -57.5q-119 0 -211 50.5t-155 135t-95.5 188.5t-32.5 210q0 108 31 219t95 203.5t162.5 149t232.5 56.5zM592 888q-88 0 -154 -52.5t-102.5 -143t-36.5 -206.5
q0 -106 36.5 -186.5t97.5 -126t132 -45.5q79 0 146 55.5t108.5 148.5t41.5 206q0 98 -34.5 177.5t-95 126t-139.5 46.5zM386 1369q-21 13 -27 38t7 47l166 269q14 24 50 25t51 -19l192 -241q16 -19 13.5 -45.5t-22.5 -42.5q-19 -15 -45.5 -12t-41.5 23l-138 172l-119 -195
q-13 -21 -39 -26.5t-47 7.5z" />
    <glyph glyph-name="otilde" unicode="&#xf5;" horiz-adv-x="1159" 
d="M592 1114q125 0 218 -52t154.5 -137t92 -186.5t30.5 -200.5q0 -109 -33.5 -221t-99 -206t-163 -151.5t-226.5 -57.5q-119 0 -211 50.5t-155 135t-95.5 188.5t-32.5 210q0 108 31 219t95 203.5t162.5 149t232.5 56.5zM592 888q-88 0 -154 -52.5t-102.5 -143t-36.5 -206.5
q0 -106 36.5 -186.5t97.5 -126t132 -45.5q79 0 146 55.5t108.5 148.5t41.5 206q0 98 -34.5 177.5t-95 126t-139.5 46.5zM244 1344q-32 11 -48.5 43.5t-6.5 63.5q26 74 85.5 136t159.5 62q72 0 126.5 -27.5t98.5 -56.5q23 -15 42.5 -24.5t44.5 -9.5q53 0 74 35t29 58
q13 32 46.5 45t64.5 0q32 -13 45 -46.5t0 -64.5q-39 -88 -107 -143t-152 -55q-52 0 -99 18t-92 52q-26 20 -51.5 34t-60.5 14q-46 0 -66.5 -32t-25.5 -47q-10 -32 -42.5 -48.5t-64.5 -6.5z" />
    <glyph glyph-name="odieresis" unicode="&#xf6;" horiz-adv-x="1159" 
d="M592 1114q125 0 218 -52t154.5 -137t92 -186.5t30.5 -200.5q0 -109 -33.5 -221t-99 -206t-163 -151.5t-226.5 -57.5q-119 0 -211 50.5t-155 135t-95.5 188.5t-32.5 210q0 108 31 219t95 203.5t162.5 149t232.5 56.5zM592 888q-88 0 -154 -52.5t-102.5 -143t-36.5 -206.5
q0 -106 36.5 -186.5t97.5 -126t132 -45.5q79 0 146 55.5t108.5 148.5t41.5 206q0 98 -34.5 177.5t-95 126t-139.5 46.5zM868 1483q0 -48 -34 -77t-76 -29q-47 0 -78 33t-31 72q0 48 29 81.5t72 33.5q50 0 84 -33.5t34 -80.5zM551 1498q0 -52 -35 -86.5t-86 -34.5
q-45 0 -71.5 35.5t-26.5 74.5q0 45 31.5 77.5t77.5 32.5q41 0 75.5 -27t34.5 -72z" />
    <glyph glyph-name="divide" unicode="&#xf7;" horiz-adv-x="1094" 
d="M77 641q-5 47 24 84t75 43q122 14 239 20t233 6q130 0 260 -6q47 -1 79 -36t30 -82t-37 -78.5t-82 -29.5q-127 6 -250 6q-111 0 -220.5 -6t-223.5 -20q-46 -5 -83.5 24t-43.5 75zM399 1119q0 56 44 101.5t106 45.5q50 0 80.5 -24.5t44 -57t13.5 -58.5q0 -31 -16.5 -67
t-48 -61.5t-78.5 -25.5q-55 0 -87 26t-45 60.5t-13 60.5zM423 244q0 56 44 101.5t106 45.5q50 0 80.5 -24.5t44 -57t13.5 -58.5q0 -31 -16.5 -67t-48 -61.5t-78.5 -25.5q-55 0 -87 26t-45 60.5t-13 60.5z" />
    <glyph glyph-name="oslash" unicode="&#xf8;" horiz-adv-x="1144" 
d="M93 -134q-22 14 -28.5 40t9.5 45l131 164q-53 80 -80.5 176.5t-27.5 194.5q0 108 31 219t95 203.5t162.5 149t232.5 56.5q92 0 167 -29.5t132 -79.5l80 99q16 19 43.5 16.5t44.5 -20.5t15 -43t-18 -44l-82 -102q57 -82 85 -180t28 -193q0 -109 -33.5 -221t-99 -206
t-163 -151.5t-226.5 -57.5q-93 0 -169 32t-135 86l-109 -136q-16 -20 -40.5 -25.5t-44.5 7.5zM618 888q-88 0 -154 -52.5t-102.5 -143t-36.5 -206.5q0 -98 34 -179l416 519q-68 62 -157 62zM887 538q0 101 -38 184l-419 -523q71 -71 161 -71q79 0 146 55.5t108.5 148.5
t41.5 206z" />
    <glyph glyph-name="ugrave" unicode="&#xf9;" horiz-adv-x="1206" 
d="M1090 983q-20 -214 -29.5 -364t-9.5 -265q0 -95 6 -175t19 -161q9 -52 -17.5 -83.5t-65.5 -41.5q-44 -10 -87.5 11t-53.5 78q-9 57 -15 112q-65 -90 -149.5 -148t-189.5 -58q-127 0 -209.5 62.5t-123 166.5t-40.5 230q0 159 2 323t11 332q2 43 32.5 77t83.5 34
q56 0 85 -33.5t27 -77.5q-4 -84 -6.5 -165t-4 -172.5t-1.5 -209.5q0 -162 34 -251t129 -89q64 0 113.5 43.5t87 116.5t66 163t49.5 183l1 3q5 82 13 176t18 204q5 54 44 79t82 20q41 -4 72.5 -34.5t26.5 -85.5zM454 1783q20 15 46 12.5t41 -22.5q50 -63 100.5 -154.5
t86.5 -171.5q11 -22 1 -47.5t-32 -35.5t-47 -0.5t-36 31.5q-22 50 -52 106.5t-61 108.5t-58 86q-15 20 -11.5 45.5t22.5 41.5z" />
    <glyph glyph-name="uacute" unicode="&#xfa;" horiz-adv-x="1206" 
d="M1090 983q-20 -214 -29.5 -364t-9.5 -265q0 -95 6 -175t19 -161q9 -52 -17.5 -83.5t-65.5 -41.5q-44 -10 -87.5 11t-53.5 78q-9 57 -15 112q-65 -90 -149.5 -148t-189.5 -58q-127 0 -209.5 62.5t-123 166.5t-40.5 230q0 159 2 323t11 332q2 43 32.5 77t83.5 34
q56 0 85 -33.5t27 -77.5q-4 -84 -6.5 -165t-4 -172.5t-1.5 -209.5q0 -162 34 -251t129 -89q64 0 113.5 43.5t87 116.5t66 163t49.5 183l1 3q5 82 13 176t18 204q5 54 44 79t82 20q41 -4 72.5 -34.5t26.5 -85.5zM727 1782q20 -16 22.5 -42t-13.5 -45q-56 -70 -104 -139.5
t-89 -160.5q-10 -22 -35 -31.5t-48 0.5q-22 10 -31.5 35t0.5 48q46 101 100 178t110 147q16 20 42.5 22.5t45.5 -12.5z" />
    <glyph glyph-name="ucircumflex" unicode="&#xfb;" horiz-adv-x="1206" 
d="M1090 983q-20 -214 -29.5 -364t-9.5 -265q0 -95 6 -175t19 -161q9 -52 -17.5 -83.5t-65.5 -41.5q-44 -10 -87.5 11t-53.5 78q-9 57 -15 112q-65 -90 -149.5 -148t-189.5 -58q-127 0 -209.5 62.5t-123 166.5t-40.5 230q0 159 2 323t11 332q2 43 32.5 77t83.5 34
q56 0 85 -33.5t27 -77.5q-4 -84 -6.5 -165t-4 -172.5t-1.5 -209.5q0 -162 34 -251t129 -89q64 0 113.5 43.5t87 116.5t66 163t49.5 183l1 3q5 82 13 176t18 204q5 54 44 79t82 20q41 -4 72.5 -34.5t26.5 -85.5zM380 1369q-21 13 -27 38t7 47l166 269q14 24 50 25t51 -19
l192 -241q16 -19 13.5 -45.5t-22.5 -42.5q-19 -15 -45.5 -12t-41.5 23l-138 172l-119 -195q-13 -21 -39 -26.5t-47 7.5z" />
    <glyph glyph-name="udieresis" unicode="&#xfc;" horiz-adv-x="1206" 
d="M1090 983q-20 -214 -29.5 -364t-9.5 -265q0 -95 6 -175t19 -161q9 -52 -17.5 -83.5t-65.5 -41.5q-44 -10 -87.5 11t-53.5 78q-9 57 -15 112q-65 -90 -149.5 -148t-189.5 -58q-127 0 -209.5 62.5t-123 166.5t-40.5 230q0 159 2 323t11 332q2 43 32.5 77t83.5 34
q56 0 85 -33.5t27 -77.5q-4 -84 -6.5 -165t-4 -172.5t-1.5 -209.5q0 -162 34 -251t129 -89q64 0 113.5 43.5t87 116.5t66 163t49.5 183l1 3q5 82 13 176t18 204q5 54 44 79t82 20q41 -4 72.5 -34.5t26.5 -85.5zM860 1483q0 -48 -34 -77t-76 -29q-47 0 -78 33t-31 72
q0 48 29 81.5t72 33.5q50 0 84 -33.5t34 -80.5zM543 1498q0 -52 -35 -86.5t-86 -34.5q-45 0 -71.5 35.5t-26.5 74.5q0 45 31.5 77.5t77.5 32.5q41 0 75.5 -27t34.5 -72z" />
    </font>
</defs>
</svg>
