<?xml version="1.0" standalone="no"?>
<!DOCTYPE svg PUBLIC "-//W3C//DTD SVG 1.1//EN" "http://www.w3.org/Graphics/SVG/1.1/DTD/svg11.dtd" >
<svg xmlns="http://www.w3.org/2000/svg" xmlns:xlink="http://www.w3.org/1999/xlink" version="1.1">
<metadata>
Created by FontForge 20170731 at Fri Apr 29 11:11:13 2022
 By Aleksey,,,
Copyright 2022 The Mikhak Project Authors (https://github.com/aminabedi68/Mikhak)
</metadata>
<defs>
<font id="Mikhak-Light" horiz-adv-x="0" >
  <font-face 
    font-family="Mikhak Light"
    font-weight="300"
    font-stretch="normal"
    units-per-em="2048"
    panose-1="0 0 0 0 0 0 0 0 0 0"
    ascent="1638"
    descent="-410"
    x-height="971"
    cap-height="1417"
    bbox="-541 -1458.6 2507 2568.11"
    underline-thickness="120"
    underline-position="-780"
    unicode-range="U+0020-FEFF"
  />
<missing-glyph horiz-adv-x="1024" 
d="M102 -410v2048h820v-2048h-820zM204 -308h616v1844h-616v-1844z" />
    <glyph glyph-name="uni0622" unicode="&#x627;&#x653;" horiz-adv-x="522" 
d="M-60 1431q-12 12 -15 30.5t8 34.5q61 80 111.5 125t108.5 45q29 0 55 -8t49 -21q26 -13 57.5 -23.5t83.5 -10.5q66 0 114.5 25.5t89.5 73.5q13 14 32.5 14.5t33.5 -11.5q15 -12 18 -32.5t-11 -36.5q-53 -63 -120.5 -97t-150.5 -34q-59 0 -98.5 12.5t-72.5 27.5
q-21 9 -36.5 14.5t-35.5 5.5q-33 0 -65 -27.5t-84 -97.5q-12 -16 -33.5 -20.5t-38.5 11.5zM225 1139q-3 23 11.5 41.5t36.5 20.5q23 3 41.5 -11t20.5 -37q23 -164 34.5 -335.5t11.5 -347.5q0 -230 -21 -473q-1 -22 -19 -37.5t-41 -13.5q-22 2 -37.5 19.5t-13.5 39.5
q10 116 14.5 232t4.5 231q0 174 -10.5 342.5t-32.5 328.5z" />
    <glyph glyph-name="uni0623" unicode="&#x627;&#x654;" horiz-adv-x="497" 
d="M40 1474q-4 12 1 25t18 17l174 61q-61 11 -97.5 53t-36.5 109q0 89 58 147t152 58q16 0 37 -1.5t35 -3.5q30 -6 28 -35q-1 -13 -12 -22.5t-25 -7.5q-10 2 -27.5 3t-29.5 1q-68 0 -110 -40t-42 -102q0 -57 35.5 -85.5t96.5 -28.5q32 0 73 8t97 27q14 5 26 -2t15 -20
q4 -13 -2.5 -24.5t-17.5 -14.5l-405 -142q-13 -4 -24.5 2t-16.5 18zM155 1159q-3 23 11.5 41.5t36.5 20.5q23 3 41.5 -11t21.5 -37q17 -123 26.5 -219.5t14 -193.5t4.5 -224q0 -130 -5 -272.5t-15 -266.5q-2 -22 -20 -37.5t-41 -13.5q-22 2 -37.5 19.5t-13.5 39.5
q11 124 16 265.5t5 269.5q0 123 -4.5 216t-14 186.5t-26.5 216.5z" />
    <glyph glyph-name="uni0624" unicode="&#x648;&#x654;" horiz-adv-x="948" 
d="M175 958q-4 12 1 25t18 17l174 61q-61 11 -97.5 53t-36.5 109q0 89 58 147t152 58q16 0 37 -1.5t35 -3.5q30 -6 28 -35q-1 -13 -12 -22.5t-25 -7.5q-10 2 -27.5 3t-29.5 1q-68 0 -110 -40t-42 -102q0 -57 35.5 -85.5t96.5 -28.5q32 0 73 8t97 27q14 5 26 -2t15 -20
q4 -13 -2.5 -24.5t-17.5 -14.5l-405 -142q-13 -4 -24.5 2t-16.5 18zM463 672q81 0 144.5 -44t107.5 -116.5t67 -160t23 -173.5q0 -186 -84.5 -333t-229 -246t-324.5 -141q-23 -4 -42 9t-24 35q-5 23 8.5 41.5t35.5 24.5q200 51 339 164t188 276q-103 -26 -192 -26
q-153 0 -242 72.5t-89 221.5q0 95 40 186t110.5 150.5t163.5 59.5zM254 280q0 -103 61 -148t164 -45q44 0 88.5 7t90.5 18q17 5 35 -3q3 32 3 65q0 61 -15 128.5t-44.5 127t-73.5 96.5t-102 37q-62 0 -109 -44.5t-72.5 -110t-25.5 -128.5z" />
    <glyph glyph-name="uni0625" unicode="&#x627;&#x655;" horiz-adv-x="497" 
d="M-10 -770q-4 12 1 25t18 17l174 61q-61 11 -97.5 53t-36.5 109q0 89 58 147t152 58q16 0 37 -1.5t35 -3.5q30 -6 28 -35q-1 -13 -12 -22.5t-25 -7.5q-10 2 -27.5 3t-29.5 1q-68 0 -110 -40t-42 -102q0 -57 35.5 -85.5t96.5 -28.5q32 0 73 8t97 27q14 5 26 -2t15 -20
q4 -13 -2.5 -24.5t-17.5 -14.5l-405 -142q-13 -4 -24.5 2t-16.5 18zM155 1159q-3 23 11.5 41.5t36.5 20.5q23 3 41.5 -11t21.5 -37q17 -123 26.5 -219.5t14 -193.5t4.5 -224q0 -130 -5 -272.5t-15 -266.5q-2 -22 -20 -37.5t-41 -13.5q-22 2 -37.5 19.5t-13.5 39.5
q11 124 16 265.5t5 269.5q0 123 -4.5 216t-14 186.5t-26.5 216.5z" />
    <glyph glyph-name="uni0626" unicode="&#x64a;&#x654;" horiz-adv-x="1454" 
d="M76 759q-4 12 1 25t18 17l174 61q-61 11 -97.5 53t-36.5 109q0 89 58 147t152 58q16 0 37 -1.5t35 -3.5q30 -6 28 -35q-1 -13 -12 -22.5t-25 -7.5q-10 2 -27.5 3t-29.5 1q-68 0 -110 -40t-42 -102q0 -57 35.5 -85.5t96.5 -28.5q32 0 73 8t97 27q14 5 26 -2t15 -20
q4 -13 -2.5 -24.5t-17.5 -14.5l-405 -142q-13 -4 -24.5 2t-16.5 18zM134 -2q0 69 9.5 144t28.5 163q5 23 24.5 35t41.5 7q22 -4 35 -23.5t8 -42.5q-35 -166 -35 -286q0 -207 122 -286t348 -79q139 0 254 31t184 89t69 139q0 51 -31.5 76t-84 34.5t-116.5 14.5
q-63 5 -129.5 15t-122.5 37.5t-91 82.5t-35 149q0 117 58 215t155 157t213 59q118 0 214 -40q22 -7 32 -28.5t2 -42.5q-7 -20 -26 -31t-42 -3q-40 18 -87.5 26.5t-92.5 8.5q-87 0 -159 -41.5t-115 -112t-43 -158.5q0 -81 41.5 -119.5t107.5 -51.5t139 -20q79 -7 152 -22.5
t120.5 -61t47.5 -141.5q0 -87 -51 -156t-138.5 -117t-197.5 -73t-229 -25q-268 0 -424 113.5t-156 364.5z" />
    <glyph glyph-name="uni06C2" unicode="&#x647;&#x654;" horiz-adv-x="920" 
d="M111 242q0 116 69 251.5t184 245.5q-28 27 -57 52q-17 15 -19 38t13 40q14 17 37.5 19t40.5 -13q114 -98 202 -206t137.5 -213.5t49.5 -198.5q0 -138 -94 -217.5t-237 -79.5q-142 0 -234 77.5t-92 204.5zM224 248q0 -73 55 -125t158 -52q105 0 162.5 53t57.5 135
q0 76 -56.5 182t-158.5 219q-102 -98 -160 -213.5t-58 -198.5zM595 1791q-3 -33 -36 -30q-12 1 -22.5 1h-21.5q-94 0 -149.5 -41.5t-55.5 -95.5q0 -42 36.5 -62t89.5 -36q39 -11 79 -27.5t67 -46.5t27 -83q0 -55 -37.5 -94t-99.5 -59.5t-134 -20.5q-25 0 -49.5 1t-49.5 3
q-32 4 -30 36q4 36 39 32q23 -2 46 -3.5t45 -1.5q77 0 139 27.5t62 78.5q0 38 -34 57.5t-87 35.5q-38 11 -79 28t-69.5 49t-28.5 86q0 57 36.5 103.5t98.5 74t138 27.5q22 0 49 -3q14 -1 23.5 -11.5t7.5 -24.5z" />
    <glyph glyph-name="uniFB00" unicode="ff" horiz-adv-x="1426" 
d="M668 905q127 0 253 -6q4 116 10 222t14 193q7 77 29 158t66.5 137t116.5 56q38 0 72 -20.5t62 -52.5q14 -16 13 -39t-13 -36q-25 -28 -54 -13q-39 39 -69 39q-39 0 -71 -67t-41 -172q-7 -85 -13 -190.5t-10 -221.5q113 -8 225 -21q23 -2 37 -20t12 -41q-3 -22 -21 -37
t-41 -12q-105 12 -216 20q-7 -210 -9.5 -420t-2.5 -365q0 -23 -16.5 -39t-39.5 -16t-39.5 16t-16.5 39q0 156 2.5 367.5t9.5 423.5q-121 5 -249 5q-129 0 -251 -4q-5 -141 -7.5 -284t-3.5 -273.5t-1 -234.5q0 -23 -17 -39t-40 -16t-39 16t-16 39q0 156 2.5 365.5t9.5 420.5
q-59 -3 -116 -7q-23 -2 -40 13t-19 38q-1 23 13.5 40.5t37.5 19.5q65 5 127 8q5 118 11 225t14 195q7 77 29 158t66.5 137t115.5 56q39 0 72.5 -20.5t62.5 -52.5q14 -16 13 -39t-14 -36q-24 -27 -54 -13q-39 39 -68 39q-39 0 -71.5 -67t-40.5 -172q-8 -84 -13.5 -187.5
t-10.5 -216.5q128 5 248 5z" />
    <glyph glyph-name="uniFB05" unicode="ft" horiz-adv-x="1365" 
d="M676 905q110 0 213 -4q7 80 15.5 161t17.5 161q2 23 21 37t41 11q23 -2 37 -20t11 -41q-9 -79 -17.5 -158t-15.5 -158q105 -7 198 -19q23 -2 37 -20.5t11 -41.5q-2 -22 -20.5 -36.5t-41.5 -11.5q-89 11 -192 18q-8 -106 -12.5 -213t-4.5 -215q0 -68 7.5 -133.5t37 -108
t94.5 -42.5q30 0 64 6q23 5 42 -8.5t23 -36.5q5 -22 -8.5 -41t-36.5 -24q-42 -7 -84 -7q-88 0 -138.5 40t-74.5 102t-30.5 129.5t-6.5 123.5q0 110 4.5 218t12.5 215q-51 2 -102 3t-102 1q-130 0 -259 -5q-5 -141 -7.5 -283.5t-3.5 -273t-1 -234.5q0 -23 -17 -39t-40 -16
t-39 16t-16 39q0 155 2.5 365t9.5 421q-59 -3 -116 -7q-23 -2 -40 13t-19 38t13 40.5t38 19.5q65 5 127 8q5 117 11 224.5t14 195.5q7 77 29 158t66.5 137t115.5 56q39 0 72.5 -20.5t62.5 -52.5q14 -16 13 -39t-14 -36q-24 -27 -54 -13q-39 39 -68 39q-39 0 -71.5 -67
t-40.5 -172q-8 -84 -13.5 -187.5t-10.5 -217.5q64 3 128 4.5t128 1.5z" />
    <glyph glyph-name="uniFBA5" unicode="&#xfeea;&#x654;" horiz-adv-x="1100" arabic-form="final" 
d="M151 372q0 84 43.5 149.5t114 117.5t150.5 93q70 38 128 77t68 84l-3 28q-2 23 13 40.5t37 19.5q23 2 41 -12.5t20 -37.5l50 -550q12 -126 44.5 -185.5t92 -77t149.5 -17.5h1q23 0 39 -16.5t16 -39.5t-16 -39t-39 -16h-1q-127 0 -210 34t-128 117t-59 230l-33 362
q-33 -27 -74.5 -52t-87.5 -50q-61 -34 -117 -71t-91 -82t-35 -103q0 -77 76.5 -114.5t205.5 -37.5q40 0 83 6q23 3 41.5 -10.5t21.5 -36.5q3 -22 -11 -41t-37 -22q-25 -4 -50 -5.5t-48 -1.5q-175 0 -285 64.5t-110 195.5zM665 1821q-3 -33 -36 -30q-12 1 -22.5 1h-21.5
q-94 0 -149.5 -41.5t-55.5 -95.5q0 -42 36.5 -62t89.5 -36q39 -11 79 -27.5t67 -46.5t27 -83q0 -55 -37.5 -94t-99.5 -59.5t-134 -20.5q-25 0 -49.5 1t-49.5 3q-32 4 -30 36q4 36 39 32q23 -2 46 -3.5t45 -1.5q77 0 139 27.5t62 78.5q0 38 -34 57.5t-87 35.5q-38 11 -79 28
t-69.5 49t-28.5 86q0 57 36.5 103.5t98.5 74t138 27.5q22 0 49 -3q14 -1 23.5 -11.5t7.5 -24.5z" />
    <glyph glyph-name="uniFE71" unicode="&#x640;&#x64b;" horiz-adv-x="668" arabic-form="medial" 
d="M-56 45q0 23 16.5 39.5t39.5 16.5h668q23 0 40 -16.5t17 -39.5t-17 -39t-40 -16h-668q-23 0 -39.5 16t-16.5 39zM102 1001q-4 13 2 25.5t18 16.5l405 144q13 5 25.5 -1t16.5 -19q5 -13 -1 -25t-19 -17l-405 -144q-13 -4 -25 2t-17 18zM102 1259q-4 13 2 25.5t18 16.5
l405 144q13 5 25.5 -1t16.5 -19q5 -13 -1 -25t-19 -17l-405 -144q-13 -4 -25 2t-17 18z" />
    <glyph glyph-name="uniFE77" unicode="&#x640;&#x64e;" horiz-adv-x="668" arabic-form="medial" 
d="M102 1051q-4 13 2 25.5t18 16.5l405 144q13 5 25.5 -1t16.5 -19q5 -13 -1 -25t-19 -17l-405 -144q-13 -4 -25 2t-17 18zM-56 45q0 23 16.5 39.5t39.5 16.5h668q23 0 40 -16.5t17 -39.5t-17 -39t-40 -16h-668q-23 0 -39.5 16t-16.5 39z" />
    <glyph glyph-name="uniFE79" unicode="&#x640;&#x64f;" horiz-adv-x="668" arabic-form="medial" 
d="M108 963q-3 12 1.5 24.5t20.5 16.5q129 30 214 104q-147 53 -147 160q0 73 50.5 129t118.5 56q61 0 98 -49.5t37 -118.5q0 -74 -43 -142q33 -7 73 -14q17 -3 22.5 -14.5t3.5 -23.5t-12 -20t-26 -5q-59 10 -104 21q-101 -105 -268 -146q-16 -4 -25.5 3.5t-13.5 18.5z
M257 1269q0 -35 31.5 -61.5t103.5 -47.5q46 61 46 126q0 45 -18.5 73.5t-56.5 28.5q-41 0 -73.5 -36.5t-32.5 -82.5zM-56 45q0 23 16.5 39.5t39.5 16.5h668q23 0 40 -16.5t17 -39.5t-17 -39t-40 -16h-668q-23 0 -39.5 16t-16.5 39z" />
    <glyph glyph-name="uniFE7B" unicode="&#x640;&#x650;" horiz-adv-x="668" arabic-form="medial" 
d="M102 -540q-4 13 2 25.5t18 16.5l405 144q13 5 25.5 -1t16.5 -19q5 -13 -1 -25t-19 -17l-405 -144q-13 -4 -25 2t-17 18zM-56 45q0 23 16.5 39.5t39.5 16.5h668q23 0 40 -16.5t17 -39.5t-17 -39t-40 -16h-668q-23 0 -39.5 16t-16.5 39z" />
    <glyph glyph-name="uniFE7D" unicode="&#x640;&#x651;" horiz-adv-x="668" arabic-form="medial" 
d="M40 1355q0 41 16 86.5t43 86.5q16 28 45 12q12 -7 15 -20.5t-4 -25.5q-21 -32 -35 -67.5t-14 -66.5q0 -34 17.5 -49.5t45.5 -15.5q37 0 65 36.5t31 108.5q2 29 29 32q33 4 37 -31q4 -74 29 -111t61 -37q31 0 49.5 19t18.5 64q0 39 -11.5 85t-23.5 79q-9 31 21 40
q32 9 41 -22q14 -37 26.5 -86t12.5 -97q0 -73 -37 -110.5t-94 -37.5q-45 0 -77.5 28.5t-48.5 76.5q-16 -47 -52 -75.5t-81 -28.5q-52 0 -88.5 31.5t-36.5 95.5zM-56 45q0 23 16.5 39.5t39.5 16.5h668q23 0 40 -16.5t17 -39.5t-17 -39t-40 -16h-668q-23 0 -39.5 16t-16.5 39z
" />
    <glyph glyph-name="uniFE7F" unicode="&#x640;&#x652;" horiz-adv-x="668" arabic-form="medial" 
d="M156 1250q0 80 51.5 134t120.5 54q77 0 123.5 -52.5t46.5 -117.5q0 -80 -50 -134t-121 -54q-74 0 -122.5 53t-48.5 117zM222 1250q0 -39 30 -71.5t75 -32.5q41 0 73 32.5t32 89.5q0 40 -28.5 72t-75.5 32q-39 0 -72.5 -33.5t-33.5 -88.5zM-56 45q0 23 16.5 39.5
t39.5 16.5h668q23 0 40 -16.5t17 -39.5t-17 -39t-40 -16h-668q-23 0 -39.5 16t-16.5 39z" />
    <glyph glyph-name="uniFEF5" unicode="&#xfedf;&#xfe82;" horiz-adv-x="1272" arabic-form="isolated" 
d="M92 1547q31 54 81 90.5t112 36.5q34 0 65.5 -12.5t61.5 -32.5q55 -35 98 -35q38 0 68.5 29.5t53.5 79.5q15 29 45 15q29 -15 15 -45q-26 -53 -69.5 -99.5t-112.5 -46.5q-31 0 -62 12.5t-63 32.5q-56 36 -100 36q-82 0 -136 -94q-7 -12 -20.5 -15.5t-24.5 3.5
q-12 7 -15.5 20t3.5 25zM109 67q2 23 19.5 37.5t41.5 12.5q71 -7 134 -11.5t122 -4.5q167 0 297.5 36.5t205.5 123.5t75 236q0 177 -11.5 360.5t-33.5 361.5q-2 23 12 41t36 21q23 3 41.5 -11t21.5 -37q23 -184 34 -369.5t11 -366.5t-91.5 -292.5t-249.5 -162.5t-360 -51
q-60 0 -123 4t-132 11q-24 2 -38 20t-12 41zM238 1187q-9 22 1 42.5t31 28.5t42.5 -1t29.5 -31q64 -155 107 -336t48 -363q2 -23 -13.5 -40t-38.5 -19q-23 -1 -40 14t-19 38q-4 171 -46 346t-102 321z" />
    <glyph glyph-name="uniFEF6" unicode="&#xfee0;&#xfe82;" horiz-adv-x="1441" arabic-form="final" 
d="M92 1547q31 54 81 90.5t112 36.5q34 0 65.5 -12.5t61.5 -32.5q55 -35 98 -35q38 0 68.5 29.5t53.5 79.5q15 29 45 15q29 -15 15 -45q-26 -53 -69.5 -99.5t-112.5 -46.5q-31 0 -62 12.5t-63 32.5q-56 36 -100 36q-82 0 -136 -94q-7 -12 -20.5 -15.5t-24.5 3.5
q-12 7 -15.5 20t3.5 25zM959 1219q-2 23 12 41t36 21q23 3 41.5 -11t21.5 -37q23 -184 34 -369.5t11 -366.5q0 -186 79.5 -291t245.5 -105h1q23 0 39 -16.5t16 -39.5t-16 -39t-39 -16h-1q-141 0 -240.5 67t-149.5 187q-82 -134 -250 -193.5t-386 -59.5q-60 0 -123 4t-132 11
q-24 2 -38 20t-12 41t19.5 37.5t41.5 12.5q71 -7 134 -11.5t122 -4.5q167 0 297.5 36.5t205.5 123.5t75 236q0 177 -11.5 360.5t-33.5 361.5zM238 1187q-9 22 1 42.5t31 28.5t42.5 -1t29.5 -31q64 -155 107 -336t48 -363q2 -23 -13.5 -40t-38.5 -19q-23 -1 -40 14t-19 38
q-4 171 -46 346t-102 321z" />
    <glyph glyph-name="uniFEF7" unicode="&#xfedf;&#xfe84;" horiz-adv-x="1272" arabic-form="isolated" 
d="M90 1450q-4 12 1 25t18 17l174 61q-61 11 -97.5 53t-36.5 109q0 89 58 147t152 58q16 0 37 -1.5t35 -3.5q30 -6 28 -35q-1 -13 -12 -22.5t-25 -7.5q-10 2 -27.5 3t-29.5 1q-68 0 -110 -40t-42 -102q0 -57 35.5 -85.5t96.5 -28.5q32 0 73 8t97 27q14 5 26 -2t15 -20
q4 -13 -2.5 -24.5t-17.5 -14.5l-405 -142q-13 -4 -24.5 2t-16.5 18zM109 67q2 23 19.5 37.5t41.5 12.5q71 -7 134 -11.5t122 -4.5q167 0 297.5 36.5t205.5 123.5t75 236q0 177 -11.5 360.5t-33.5 361.5q-2 23 12 41t36 21q23 3 41.5 -11t21.5 -37q23 -184 34 -369.5
t11 -366.5t-91.5 -292.5t-249.5 -162.5t-360 -51q-60 0 -123 4t-132 11q-24 2 -38 20t-12 41zM238 1187q-9 22 1 42.5t31 28.5t42.5 -1t29.5 -31q64 -155 107 -336t48 -363q2 -23 -13.5 -40t-38.5 -19q-23 -1 -40 14t-19 38q-4 171 -46 346t-102 321z" />
    <glyph glyph-name="uniFEF8" unicode="&#xfee0;&#xfe84;" horiz-adv-x="1441" arabic-form="final" 
d="M90 1450q-4 12 1 25t18 17l174 61q-61 11 -97.5 53t-36.5 109q0 89 58 147t152 58q16 0 37 -1.5t35 -3.5q30 -6 28 -35q-1 -13 -12 -22.5t-25 -7.5q-10 2 -27.5 3t-29.5 1q-68 0 -110 -40t-42 -102q0 -57 35.5 -85.5t96.5 -28.5q32 0 73 8t97 27q14 5 26 -2t15 -20
q4 -13 -2.5 -24.5t-17.5 -14.5l-405 -142q-13 -4 -24.5 2t-16.5 18zM959 1219q-2 23 12 41t36 21q23 3 41.5 -11t21.5 -37q23 -184 34 -369.5t11 -366.5q0 -186 79.5 -291t245.5 -105h1q23 0 39 -16.5t16 -39.5t-16 -39t-39 -16h-1q-141 0 -240.5 67t-149.5 187
q-82 -134 -250 -193.5t-386 -59.5q-60 0 -123 4t-132 11q-24 2 -38 20t-12 41t19.5 37.5t41.5 12.5q71 -7 134 -11.5t122 -4.5q167 0 297.5 36.5t205.5 123.5t75 236q0 177 -11.5 360.5t-33.5 361.5zM238 1187q-9 22 1 42.5t31 28.5t42.5 -1t29.5 -31q64 -155 107 -336
t48 -363q2 -23 -13.5 -40t-38.5 -19q-23 -1 -40 14t-19 38q-4 171 -46 346t-102 321z" />
    <glyph glyph-name="uniFEF9" unicode="&#xfedf;&#xfe88;" horiz-adv-x="1272" arabic-form="isolated" 
d="M90 -724q-4 12 1 25t18 17l174 61q-61 11 -97.5 53t-36.5 109q0 89 58 147t152 58q16 0 37 -1.5t35 -3.5q30 -6 28 -35q-1 -13 -12 -22.5t-25 -7.5q-10 2 -27.5 3t-29.5 1q-68 0 -110 -40t-42 -102q0 -57 35.5 -85.5t96.5 -28.5q32 0 73 8t97 27q14 5 26 -2t15 -20
q4 -13 -2.5 -24.5t-17.5 -14.5l-405 -142q-13 -4 -24.5 2t-16.5 18zM109 67q2 23 19.5 37.5t41.5 12.5q71 -7 134 -11.5t122 -4.5q167 0 297.5 36.5t205.5 123.5t75 236q0 177 -11.5 360.5t-33.5 361.5q-2 23 12 41t36 21q23 3 41.5 -11t21.5 -37q23 -184 34 -369.5
t11 -366.5t-91.5 -292.5t-249.5 -162.5t-360 -51q-60 0 -123 4t-132 11q-24 2 -38 20t-12 41zM238 1187q-9 22 1 42.5t31 28.5t42.5 -1t29.5 -31q64 -155 107 -336t48 -363q2 -23 -13.5 -40t-38.5 -19q-23 -1 -40 14t-19 38q-4 171 -46 346t-102 321z" />
    <glyph glyph-name="uniFEFA" unicode="&#xfee0;&#xfe88;" horiz-adv-x="1441" arabic-form="final" 
d="M90 -724q-4 12 1 25t18 17l174 61q-61 11 -97.5 53t-36.5 109q0 89 58 147t152 58q16 0 37 -1.5t35 -3.5q30 -6 28 -35q-1 -13 -12 -22.5t-25 -7.5q-10 2 -27.5 3t-29.5 1q-68 0 -110 -40t-42 -102q0 -57 35.5 -85.5t96.5 -28.5q32 0 73 8t97 27q14 5 26 -2t15 -20
q4 -13 -2.5 -24.5t-17.5 -14.5l-405 -142q-13 -4 -24.5 2t-16.5 18zM959 1219q-2 23 12 41t36 21q23 3 41.5 -11t21.5 -37q23 -184 34 -369.5t11 -366.5q0 -186 79.5 -291t245.5 -105h1q23 0 39 -16.5t16 -39.5t-16 -39t-39 -16h-1q-141 0 -240.5 67t-149.5 187
q-82 -134 -250 -193.5t-386 -59.5q-60 0 -123 4t-132 11q-24 2 -38 20t-12 41t19.5 37.5t41.5 12.5q71 -7 134 -11.5t122 -4.5q167 0 297.5 36.5t205.5 123.5t75 236q0 177 -11.5 360.5t-33.5 361.5zM238 1187q-9 22 1 42.5t31 28.5t42.5 -1t29.5 -31q64 -155 107 -336
t48 -363q2 -23 -13.5 -40t-38.5 -19q-23 -1 -40 14t-19 38q-4 171 -46 346t-102 321z" />
    <glyph glyph-name="uniFEFB" unicode="&#xfedf;&#xfe8e;" horiz-adv-x="1272" arabic-form="isolated" 
d="M109 67q2 23 19.5 37.5t41.5 12.5q71 -7 134 -11.5t122 -4.5q167 0 297.5 36.5t205.5 123.5t75 236q0 177 -11.5 360.5t-33.5 361.5q-2 23 12 41t36 21q23 3 41.5 -11t21.5 -37q23 -184 34 -369.5t11 -366.5t-91.5 -292.5t-249.5 -162.5t-360 -51q-60 0 -123 4t-132 11
q-24 2 -38 20t-12 41zM238 1187q-9 22 1 42.5t31 28.5t42.5 -1t29.5 -31q64 -155 107 -336t48 -363q2 -23 -13.5 -40t-38.5 -19q-23 -1 -40 14t-19 38q-4 171 -46 346t-102 321z" />
    <glyph glyph-name="uniFEFC" unicode="&#xfee0;&#xfe8e;" horiz-adv-x="1441" arabic-form="final" 
d="M959 1219q-2 23 12 41t36 21q23 3 41.5 -11t21.5 -37q23 -184 34 -369.5t11 -366.5q0 -186 79.5 -291t245.5 -105h1q23 0 39 -16.5t16 -39.5t-16 -39t-39 -16h-1q-141 0 -240.5 67t-149.5 187q-82 -134 -250 -193.5t-386 -59.5q-60 0 -123 4t-132 11q-24 2 -38 20t-12 41
t19.5 37.5t41.5 12.5q71 -7 134 -11.5t122 -4.5q167 0 297.5 36.5t205.5 123.5t75 236q0 177 -11.5 360.5t-33.5 361.5zM238 1187q-9 22 1 42.5t31 28.5t42.5 -1t29.5 -31q64 -155 107 -336t48 -363q2 -23 -13.5 -40t-38.5 -19q-23 -1 -40 14t-19 38q-4 171 -46 346
t-102 321z" />
    <glyph glyph-name="uni0695.fina" unicode="&#x695;" horiz-adv-x="947" 
d="M606 -765q12 -7 16 -21.5t-4 -26.5l-166 -269q-9 -16 -29 -15.5t-29 11.5l-192 241q-9 11 -7 26t13 24t26 7t23 -13l161 -202l139 227q8 12 22.5 15.5t26.5 -4.5zM178 -541q-25 -8 -44.5 4t-26.5 32q-7 26 4.5 45t30.5 25q182 62 288 204t106 371q0 76 -12.5 159
t-35.5 171l-1 5q-5 21 8 40t34 24q14 3 28 -1q25 -6 36 -30q2 -5 4 -11q31 -125 66 -214t100 -135.5t183 -46.5h1q23 0 39 -16.5t16 -39.5t-16 -39t-39 -16h-1q-105 0 -177.5 33t-122.5 90q-7 -254 -133.5 -419.5t-334.5 -234.5z" />
    <glyph glyph-name="uni06A4.init" unicode="&#x6a4;" horiz-adv-x="924" arabic-form="initial" 
d="M147 1541q0 88 48 140.5t118.5 70.5t141.5 0.5t119 -70.5t48 -142q0 -69 -31 -120q-8 -17 -26 -25t-38 3q-32 21 -15 60q10 17 16 36.5t6 45.5q0 54 -30 86t-74.5 42.5t-89.5 0t-75 -42.5t-30 -85q0 -56 26.5 -92t69.5 -77q13 -12 10.5 -30t-14.5 -30
q-13 -13 -31.5 -10.5t-31.5 15.5q-44 41 -80.5 90.5t-36.5 133.5zM-55 45q0 23 16 39.5t39 16.5q161 0 283.5 7t193.5 29q75 20 121.5 47t68.5 74.5t24 131.5q-6 -3 -12 -5q-58 -17 -120.5 -26t-117.5 -9q-145 0 -231.5 68t-86.5 216q0 109 36.5 202.5t105 151t165.5 57.5
q126 0 207.5 -89t121 -234t39.5 -315q0 -157 -60 -233t-194 -120q-88 -37 -228 -50.5t-316 -13.5q-23 0 -39 16t-16 39zM225 645q0 -102 58.5 -146.5t157.5 -44.5q49 0 105 9t105 24q20 6 38 -5q-7 127 -36.5 229t-84.5 162t-136 60q-67 0 -113 -40.5t-70 -106.5t-24 -141z
" />
    <glyph glyph-name="uni06A4.medi" unicode="&#x6a4;" horiz-adv-x="944" arabic-form="medial" 
d="M222 1305q0 88 48 140.5t118.5 70.5t141.5 0.5t119 -70.5t48 -142q0 -69 -31 -120q-8 -17 -26 -25t-38 3q-32 21 -15 60q10 17 16 36.5t6 45.5q0 54 -30 86t-74.5 42.5t-89.5 0t-75 -42.5t-30 -85q0 -56 26.5 -92t69.5 -77q13 -12 10.5 -30t-14.5 -30
q-13 -13 -31.5 -10.5t-31.5 15.5q-44 41 -80.5 90.5t-36.5 133.5zM-55 45q0 23 16 39.5t39 16.5q93 0 182 11.5t168 34.5q-96 64 -154 152t-58 199q0 100 44.5 181.5t122 130.5t175.5 49q99 0 173 -49.5t114.5 -132.5t40.5 -183q0 -110 -60 -197t-158 -150q157 -46 353 -46
h1q23 0 39 -16.5t16 -39.5t-16 -39t-39 -16h-1q-124 0 -246.5 23.5t-226.5 69.5q-106 -46 -228 -69.5t-242 -23.5q-23 0 -39 16t-16 39zM249 498q0 -104 60 -180t161 -125q102 48 163.5 123.5t61.5 177.5q0 107 -57 179.5t-158 72.5t-166 -72t-65 -176z" />
    <glyph glyph-name="uni06A4.fina" unicode="&#x6a4;" horiz-adv-x="1857" arabic-form="final" 
d="M1172 1305q0 88 48 140.5t118.5 70.5t141.5 0.5t119 -70.5t48 -142q0 -69 -31 -120q-8 -17 -26 -25t-38 3q-32 21 -15 60q10 17 16 36.5t6 45.5q0 54 -30 86t-74.5 42.5t-89.5 0t-75 -42.5t-30 -85q0 -56 26.5 -92t69.5 -77q13 -12 10.5 -30t-14.5 -30
q-13 -13 -31.5 -10.5t-31.5 15.5q-44 41 -80.5 90.5t-36.5 133.5zM111 346q0 57 13 122t41 135q10 21 32 29t43 -2q43 -21 27 -74q-19 -53 -31 -109.5t-12 -100.5q0 -114 72.5 -173.5t206.5 -80.5t318 -21q133 0 254.5 13t222.5 42q-93 60 -148.5 147t-55.5 202
q0 105 42 187.5t115 130t166 47.5q152 0 238.5 -101.5t86.5 -254.5q0 -115 -53 -202.5t-144 -149.5q68 -16 146.5 -23.5t164.5 -7.5h1q23 0 39 -16.5t16 -39.5t-16 -39t-39 -16h-1q-118 0 -229.5 18.5t-206.5 56.5q-126 -55 -281.5 -80t-317.5 -25q-128 0 -254 11t-229 48.5
t-165 115.5t-62 211zM1205 475q0 -109 57.5 -183.5t157.5 -118.5q97 48 153 124.5t56 186.5q0 111 -53.5 177t-158.5 66q-92 0 -152 -68.5t-60 -183.5z" />
    <glyph glyph-name="uni06AA.init" unicode="&#x6aa;" horiz-adv-x="1059" 
d="M0 101q83 0 189 3t215 12.5t201.5 29t149 52t56.5 82.5q0 47 -49.5 88t-131.5 76t-182 64.5t-202 53.5t-190 42q-33 7 -42 42.5t23 59.5l605 456q20 14 42 10t35 -21q14 -19 10.5 -41.5t-20.5 -36.5l-514 -387q84 -19 182.5 -44t195 -58.5t176 -77t127.5 -99.5t48 -127
q0 -82 -63.5 -136t-167 -85t-227 -46t-246 -19t-220.5 -4q-23 0 -39 16.5t-16 38.5q0 23 16 39.5t39 16.5z" />
    <glyph glyph-name="uni06AA.medi" unicode="&#x6aa;" horiz-adv-x="1266" 
d="M0 101q83 0 189 3t215 12.5t201.5 29t149 52t56.5 82.5q0 47 -49.5 88t-131.5 76t-182 64.5t-202 53.5t-190 42q-33 7 -42 42.5t23 59.5l605 456q20 14 42 10t35 -21q14 -19 10.5 -41.5t-20.5 -36.5l-514 -387q81 -19 176 -43t189 -55.5t173 -72.5t130 -93.5t60 -118.5
q39 -113 120 -158t222 -45h1q23 0 39 -16t16 -39t-16 -39t-39 -16h-1q-141 0 -236.5 40.5t-153.5 128.5q-57 -60 -161 -94t-231 -50t-254 -20.5t-229 -4.5q-23 0 -39 16.5t-16 38.5q0 23 16 39.5t39 16.5z" />
    <glyph glyph-name="uni06AA.fina" unicode="&#x6aa;" horiz-adv-x="1941" 
d="M867 686q82 -19 177 -43t188.5 -55.5t172.5 -72.5t130 -93.5t59 -117.5q40 -114 122.5 -159t223.5 -45h1q23 0 39 -16t16 -39t-16 -39t-39 -16h-1q-137 0 -232 38.5t-155 121.5q-47 -64 -136.5 -102.5t-201.5 -57.5t-228 -25.5t-218 -6.5q-175 0 -334 15.5t-253 37.5
q-23 6 -35 24.5t-7 42.5q5 23 25 34.5t45 5.5q56 -13 145 -24t197 -18t220 -7q83 0 179 4.5t190 17.5t171.5 36.5t124 61t46.5 91.5q0 47 -49.5 88t-131.5 76t-181.5 64.5t-202 53.5t-190.5 42q-33 7 -42 42.5t23 59.5l605 456q20 14 42 10t35 -21q14 -19 10.5 -42
t-20.5 -36z" />
    <glyph glyph-name="uni06B5.init" unicode="&#x6b5;" horiz-adv-x="494" 
d="M419 1909q12 -7 16 -21.5t-4 -26.5l-166 -269q-9 -16 -29 -15.5t-29 11.5l-192 241q-9 11 -7 26t13 24t26 7t23 -13l161 -202l139 227q8 12 22.5 15.5t26.5 -4.5zM-55 45q0 23 16 39.5t39 16.5q142 0 191 97.5t49 272.5q0 132 -4.5 240t-15 223.5t-30.5 269.5
q-3 23 11.5 41.5t36.5 20.5q23 3 41.5 -11t20.5 -37q19 -143 30 -256.5t16 -225t5 -250.5q0 -240 -75 -368t-276 -128q-23 0 -39 16t-16 39z" />
    <glyph glyph-name="uni06B5.medi" unicode="&#x6b5;" horiz-adv-x="674" 
d="M469 1909q12 -7 16 -21.5t-4 -26.5l-166 -269q-9 -16 -29 -15.5t-29 11.5l-192 241q-9 11 -7 26t13 24t26 7t23 -13l161 -202l139 227q8 12 22.5 15.5t26.5 -4.5zM-55 45q0 23 16 39.5t39 16.5q147 0 214.5 60t67.5 208q0 154 -5.5 290.5t-15 269.5t-23.5 277
q-2 23 13 41t37 20q23 2 41 -12.5t20 -37.5q20 -214 32 -410.5t12 -427.5q1 -5 1 -10q0 -145 74 -206.5t205 -61.5h1q23 0 39 -16.5t16 -39.5t-16 -39t-39 -16h-1q-107 0 -194.5 39t-138.5 119q-48 -80 -135 -119t-205 -39q-23 0 -39 16t-16 39z" />
    <glyph glyph-name="uni06B5.fina" unicode="&#x6b5;" horiz-adv-x="1448" 
d="M1208 1909q12 -7 16 -21.5t-4 -26.5l-166 -269q-9 -16 -29 -15.5t-29 11.5l-192 241q-9 11 -7 26t13 24t26 7t23 -13l161 -202l139 227q8 12 22.5 15.5t26.5 -4.5zM111 -20q0 105 30.5 207.5t70.5 182.5q11 20 33 27.5t43 -2.5t28 -32.5t-3 -43.5q-34 -70 -61.5 -161.5
t-27.5 -177.5q0 -157 99.5 -253.5t287.5 -96.5q166 0 259 63t131 179t38 276q0 257 -13.5 512t-34.5 547q-1 23 14 40.5t38 19.5t40.5 -13.5t18.5 -38.5q17 -234 30 -443.5t17 -415.5q10 -103 41.5 -158.5t93.5 -76t163 -20.5h1q23 0 39 -16.5t16 -39.5t-16 -39t-39 -16h-1
q-94 0 -169 22t-128 72q-8 -157 -62 -285.5t-169.5 -205t-307.5 -76.5q-150 0 -262.5 58.5t-175 163t-62.5 241.5z" />
    <glyph glyph-name="uni06CA.fina" unicode="&#x6ca;" horiz-adv-x="951" 
d="M181 1046q-5 18 3.5 35.5t27.5 22.5q53 19 126.5 28t144.5 9q131 0 206 -29q19 -10 25 -29.5t-5 -37.5q-21 -32 -54 -21q-28 10 -75 15.5t-97 5.5q-69 0 -134.5 -7.5t-108.5 -22.5q-19 -6 -36.5 4t-22.5 27zM488 -10q-153 0 -246 68.5t-93 217.5q0 95 40 186t110.5 150.5
t163.5 59.5q81 0 144.5 -44t107.5 -116.5t67 -160t23 -173.5q0 -39 -4 -77h150q23 0 39 -16.5t16 -39.5t-16 -39t-39 -16h-171q-38 -136 -126.5 -243.5t-213.5 -180.5t-273 -108q-23 -4 -42 9t-24 35q-5 23 8.5 41.5t35.5 24.5q195 50 332 158t190 264h-179zM487 101h205
q4 36 4 73q0 61 -15 128.5t-44.5 127t-73.5 96.5t-102 37q-62 0 -109 -43.5t-72.5 -108t-25.5 -127.5q0 -103 64.5 -143t168.5 -40z" />
    <glyph glyph-name="uni06CE.init" unicode="&#x6ce;" horiz-adv-x="560" 
d="M-170 -475q-5 18 3.5 35.5t27.5 22.5q53 19 126.5 28t144.5 9q131 0 206 -29q19 -10 25 -29.5t-5 -37.5q-21 -32 -54 -21q-28 10 -75 15.5t-97 5.5q-69 0 -134.5 -7.5t-108.5 -22.5q-19 -6 -36.5 4t-22.5 27zM445 1215q12 -7 16 -21.5t-4 -26.5l-166 -269
q-9 -16 -29 -15.5t-29 11.5l-192 241q-9 11 -7 26t13 24t26 7t23 -13l161 -202l139 227q8 12 22.5 15.5t26.5 -4.5zM-55 45q0 23 16 39.5t39 16.5q155 0 227.5 51.5t72.5 192.5q0 46 -7.5 127t-24.5 151q-4 23 10 42t36 23q23 4 41.5 -9.5t22.5 -36.5q19 -75 27.5 -159.5
t8.5 -137.5q0 -185 -104.5 -270t-309.5 -85q-23 0 -39 16t-16 39z" />
    <glyph glyph-name="uni06CE.medi" unicode="&#x6ce;" horiz-adv-x="811" 
d="M-170 -475q-5 18 3.5 35.5t27.5 22.5q53 19 126.5 28t144.5 9q131 0 206 -29q19 -10 25 -29.5t-5 -37.5q-21 -32 -54 -21q-28 10 -75 15.5t-97 5.5q-69 0 -134.5 -7.5t-108.5 -22.5q-19 -6 -36.5 4t-22.5 27zM451 1124q12 -7 16 -21.5t-4 -26.5l-166 -269
q-9 -16 -29 -15.5t-29 11.5l-192 241q-9 11 -7 26t13 24t26 7t23 -13l161 -202l139 227q8 12 22.5 15.5t26.5 -4.5zM-56 45q0 23 16.5 39.5t39.5 16.5q152 0 228.5 37.5t102.5 126t26 241.5q2 26 19.5 41t40.5 13q23 -1 38.5 -18t13.5 -40q0 -150 24 -237.5t97 -125.5
t220 -38h1q23 0 39 -16.5t16 -39.5t-16 -39t-39 -16h-1q-176 0 -269 53.5t-127 183.5q-45 -130 -140 -183.5t-274 -53.5q-23 0 -39.5 16t-16.5 39z" />
    <glyph glyph-name="uni06CE.fina" unicode="&#x6ce;" horiz-adv-x="1390" 
d="M1037 731q12 -7 16 -21.5t-4 -26.5l-166 -269q-9 -16 -29 -15.5t-29 11.5l-192 241q-9 11 -7 26t13 24t26 7t23 -13l161 -202l139 227q8 12 22.5 15.5t26.5 -4.5zM126 -67q0 120 29 245t78 260q8 22 29 31.5t43 1.5q21 -7 31 -28t2 -43q-46 -127 -72.5 -245.5
t-26.5 -219.5q0 -119 45 -206.5t147.5 -134.5t274.5 -47q217 0 329.5 68t112.5 152q0 74 -90.5 136.5t-286.5 86.5q-19 2 -33 17t-16 34q-2 24 14.5 42t40.5 18h613q23 0 39 -16.5t16 -39.5t-16 -39t-39 -16h-345q104 -41 156.5 -103t52.5 -134q0 -87 -67.5 -159.5
t-191 -116t-292.5 -43.5q-200 0 -327.5 63.5t-188.5 176.5t-61 259z" />
    <glyph glyph-name="uniFB51" unicode="&#x671;" horiz-adv-x="574" arabic-form="final" 
d="M515 1827q62 0 108.5 -39.5t46.5 -104.5q0 -79 -57 -120.5t-134 -41.5q-51 0 -94.5 14t-81.5 31q-19 -36 -39 -80q-5 -10 -16.5 -16.5t-25.5 -2.5q-11 4 -19 17t-1 26q9 21 19 41.5t21 40.5q-22 9 -43.5 14.5t-42.5 5.5q-52 0 -88.5 -41.5t-66.5 -90.5q-7 -10 -20 -14
t-25 3q-27 16 -11 45q22 37 50.5 74.5t67.5 63.5t93 26q31 0 60 -8.5t58 -20.5q46 74 105.5 126t135.5 52zM514 1761q-51 0 -96 -40.5t-82 -98.5q34 -15 70 -25t76 -10q49 0 85.5 22t36.5 73q0 36 -26 57.5t-64 21.5zM181 392q0 182 4 382t1 399q-1 23 15 40t39 18t39.5 -15
t17.5 -39q3 -199 -0.5 -399t-3.5 -385q0 -111 21 -174.5t81.5 -90.5t177.5 -27h1q23 0 39 -16.5t16 -39.5t-16 -39t-39 -16h-1q-145 0 -231 39t-123.5 127t-37.5 236z" />
    <glyph glyph-name="uniFB57" unicode="&#x67e;" horiz-adv-x="1937" arabic-form="final" 
d="M111 414q0 52 10 108.5t29 117.5q8 22 28 33t42 4t33.5 -27.5t3.5 -42.5q-17 -55 -25 -103.5t-8 -89.5q0 -158 119.5 -250.5t375.5 -92.5q700 0 800 493q5 20 21 33.5t38 11.5q23 -2 38 -19t13 -40q-3 -54 -3 -99q0 -187 69 -268.5t241 -81.5h1q23 0 39 -16.5t16 -39.5
t-16 -39t-39 -16h-1q-183 0 -274.5 87t-110.5 273q-105 -202 -319.5 -296t-512.5 -94q-183 0 -320 52.5t-212.5 153.5t-75.5 248zM752 -721q-10 38 31 56q47 18 92 52.5t74.5 74t29.5 70.5q0 59 -104 59q-47 0 -104.5 -13t-107.5 -31t-75 -33q-39 -20 -62 10q-10 14 -8 32.5
t18 31.5q30 22 86 42.5t123 34.5t130 14q75 0 133 -35t59 -112q0 -54 -40.5 -112.5t-100.5 -105t-118 -66.5q-19 -6 -34.5 3.5t-21.5 27.5z" />
    <glyph glyph-name="uniFB58" unicode="&#x67e;" horiz-adv-x="560" arabic-form="initial" 
d="M-55 45q0 23 16 39.5t39 16.5q155 0 227.5 51.5t72.5 192.5q0 46 -7.5 127t-24.5 151q-4 23 10 42t36 23q23 4 41.5 -9.5t22.5 -36.5q19 -75 27.5 -159.5t8.5 -137.5q0 -185 -104.5 -270t-309.5 -85q-23 0 -39 16t-16 39zM53 -712q-10 38 31 56q47 18 92 52.5t74.5 74
t29.5 70.5q0 59 -104 59q-47 0 -104.5 -13t-107.5 -31t-75 -33q-39 -20 -62 10q-10 14 -8 32.5t18 31.5q30 22 86 42.5t123 34.5t130 14q75 0 133 -35t59 -112q0 -54 -40.5 -112.5t-100.5 -105t-118 -66.5q-19 -6 -34.5 3.5t-21.5 27.5z" />
    <glyph glyph-name="uniFB59" unicode="&#x67e;" horiz-adv-x="811" arabic-form="medial" 
d="M-56 45q0 23 16.5 39.5t39.5 16.5q152 0 228.5 37.5t102.5 126t26 241.5q2 26 19.5 41t40.5 13q23 -1 38.5 -18t13.5 -40q0 -150 24 -237.5t97 -125.5t220 -38h1q23 0 39 -16.5t16 -39.5t-16 -39t-39 -16h-1q-176 0 -269 53.5t-127 183.5q-45 -130 -140 -183.5
t-274 -53.5q-23 0 -39.5 16t-16.5 39zM53 -712q-10 38 31 56q47 18 92 52.5t74.5 74t29.5 70.5q0 59 -104 59q-47 0 -104.5 -13t-107.5 -31t-75 -33q-39 -20 -62 10q-10 14 -8 32.5t18 31.5q30 22 86 42.5t123 34.5t130 14q75 0 133 -35t59 -112q0 -54 -40.5 -112.5
t-100.5 -105t-118 -66.5q-19 -6 -34.5 3.5t-21.5 27.5z" />
    <glyph glyph-name="uniFB67" unicode="&#x679;" horiz-adv-x="1937" arabic-form="final" 
d="M607 654q2 13 12 21t24 6q45 -6 89 -9q0 2 1 4q21 48 47 90q-1 1 0 6q6 48 6 125q0 59 -4.5 126t-11.5 119q-2 14 7 24t20 11q14 2 24.5 -6.5t12.5 -21.5q8 -52 12 -115.5t4 -115.5q0 -33 -1 -62q38 38 82.5 61t94.5 23q65 0 106.5 -38.5t41.5 -104.5q0 -72 -48 -114.5
t-128 -61t-176 -18.5q-84 0 -187 14q-32 5 -28 37zM1019 877q-72 0 -129 -64.5t-93 -144.5h30q72 0 137 10.5t105.5 37.5t40.5 76q0 37 -25.5 61t-65.5 24zM111 414q0 52 10 108.5t29 117.5q8 22 28 33t42 4t33.5 -27.5t3.5 -42.5q-17 -55 -25 -103.5t-8 -89.5
q0 -158 119.5 -250.5t375.5 -92.5q700 0 800 493q5 20 21 33.5t38 11.5q23 -2 38 -19t13 -40q-3 -54 -3 -99q0 -187 69 -268.5t241 -81.5h1q23 0 39 -16.5t16 -39.5t-16 -39t-39 -16h-1q-183 0 -274.5 87t-110.5 273q-105 -202 -319.5 -296t-512.5 -94q-183 0 -320 52.5
t-212.5 153.5t-75.5 248z" />
    <glyph glyph-name="uniFB68" unicode="&#x679;" horiz-adv-x="560" arabic-form="initial" 
d="M-37 950q2 13 12 21t24 6q45 -6 89 -9q0 2 1 4q21 48 47 90q-1 1 0 6q6 48 6 125q0 59 -4.5 126t-11.5 119q-2 14 7 24t20 11q14 2 24.5 -6.5t12.5 -21.5q8 -52 12 -115.5t4 -115.5q0 -33 -1 -62q38 38 82.5 61t94.5 23q65 0 106.5 -38.5t41.5 -104.5q0 -72 -48 -114.5
t-128 -61t-176 -18.5q-84 0 -187 14q-32 5 -28 37zM375 1173q-72 0 -129 -64.5t-93 -144.5h30q72 0 137 10.5t105.5 37.5t40.5 76q0 37 -25.5 61t-65.5 24zM-55 45q0 23 16 39.5t39 16.5q155 0 227.5 51.5t72.5 192.5q0 46 -7.5 127t-24.5 151q-4 23 10 42t36 23
q23 4 41.5 -9.5t22.5 -36.5q19 -75 27.5 -159.5t8.5 -137.5q0 -185 -104.5 -270t-309.5 -85q-23 0 -39 16t-16 39z" />
    <glyph glyph-name="uniFB69" unicode="&#x679;" horiz-adv-x="811" arabic-form="medial" 
d="M45 862q2 13 12 21t24 6q45 -6 89 -9q0 2 1 4q21 48 47 90q-1 1 0 6q6 48 6 125q0 59 -4.5 126t-11.5 119q-2 14 7 24t20 11q14 2 24.5 -6.5t12.5 -21.5q8 -52 12 -115.5t4 -115.5q0 -33 -1 -62q38 38 82.5 61t94.5 23q65 0 106.5 -38.5t41.5 -104.5q0 -72 -48 -114.5
t-128 -61t-176 -18.5q-84 0 -187 14q-32 5 -28 37zM457 1085q-72 0 -129 -64.5t-93 -144.5h30q72 0 137 10.5t105.5 37.5t40.5 76q0 37 -25.5 61t-65.5 24zM-56 45q0 23 16.5 39.5t39.5 16.5q152 0 228.5 37.5t102.5 126t26 241.5q2 26 19.5 41t40.5 13q23 -1 38.5 -18
t13.5 -40q0 -150 24 -237.5t97 -125.5t220 -38h1q23 0 39 -16.5t16 -39.5t-16 -39t-39 -16h-1q-176 0 -269 53.5t-127 183.5q-45 -130 -140 -183.5t-274 -53.5q-23 0 -39.5 16t-16.5 39z" />
    <glyph glyph-name="uniFB7B" unicode="&#x686;" horiz-adv-x="1392" arabic-form="final" 
d="M401 839q57 0 146 -32t192.5 -78.5t206 -92.5t186.5 -74q47 -14 47 -56q0 -47 -60 -58q-66 -9 -130 -21q18 -169 126.5 -247.5t275.5 -78.5h1q23 0 39 -16.5t16 -39.5t-16 -39t-39 -16h-1q-135 0 -245.5 47t-180 139t-83.5 228q-201 -49 -349.5 -129.5t-230 -186
t-81.5 -230.5q0 -115 66 -194.5t177 -120.5t246 -41q96 0 204.5 18t198.5 52q23 9 44 0t29 -29q9 -22 -0.5 -42.5t-30.5 -30.5q-94 -38 -211.5 -58t-226.5 -20q-167 0 -304.5 54.5t-219 159t-81.5 253.5q0 161 104.5 290.5t295.5 222t449 143.5q-61 26 -140 61.5
t-159.5 69.5t-146.5 56.5t-101 22.5q-58 0 -91 -52t-57 -123q-6 -21 -26.5 -33.5t-43.5 -5.5q-20 6 -33 26.5t-6 42.5q32 106 91 182.5t153 76.5zM499 -106q-18 25 8 45q31 23 101 43t136 20v0q52 0 92.5 -24t41.5 -77v-1q0 -38 -28 -79t-70 -73.5t-83 -46.5q-13 -4 -24 2.5
t-15 18.5q-7 28 21 40q50 19 93.5 62t43.5 76q0 41 -72 41q-50 0 -112.5 -19t-88.5 -35q-28 -14 -44 7z" />
    <glyph glyph-name="uniFB7C" unicode="&#x686;" horiz-adv-x="1299" arabic-form="initial" 
d="M372 779q76 0 167 -38t206 -97q73 -37 163 -78.5t201 -88.5q34 -13 34 -51q0 -31 -26 -47q-274 -188 -546 -288.5t-571 -100.5q-23 0 -39.5 16.5t-16.5 38.5q0 23 16.5 39.5t39.5 16.5q252 0 488 79.5t477 238.5q-85 37 -156 70t-132 64q-103 53 -174.5 82.5t-121.5 29.5
q-52 0 -95.5 -48t-93.5 -156q-8 -18 -32 -28.5t-48 4.5q-16 10 -23.5 30.5t2.5 40.5q59 128 124.5 199.5t156.5 71.5zM402 -682q-10 38 31 56q47 18 92 52.5t74.5 74t29.5 70.5q0 59 -104 59q-47 0 -104.5 -13t-107.5 -31t-75 -33q-39 -20 -62 10q-10 14 -8 32.5t18 31.5
q30 22 86 42.5t123 34.5t130 14q75 0 133 -35t59 -112q0 -54 -40.5 -112.5t-100.5 -105t-118 -66.5q-19 -6 -34.5 3.5t-21.5 27.5z" />
    <glyph glyph-name="uniFB7D" unicode="&#x686;" horiz-adv-x="1321" arabic-form="medial" 
d="M372 779q76 0 167 -38t206 -97q73 -37 163 -78.5t201 -88.5q34 -13 34 -51q0 -31 -26 -47q-57 -39 -112 -74q11 -107 90 -155.5t225 -48.5h1q23 0 39 -16.5t16 -39.5t-16 -39t-39 -16h-1q-161 0 -273.5 61t-143.5 194q-219 -124 -441 -189.5t-462 -65.5q-23 0 -39.5 16.5
t-16.5 38.5q0 23 16.5 39.5t39.5 16.5q252 0 488 79.5t477 238.5q-85 37 -156 70t-132 64q-103 53 -174.5 82.5t-121.5 29.5q-52 0 -95.5 -48t-93.5 -156q-8 -18 -32 -28.5t-48 4.5q-16 10 -23.5 30.5t2.5 40.5q59 128 124.5 199.5t156.5 71.5zM464 -682q-10 38 31 56
q47 18 92 52.5t74.5 74t29.5 70.5q0 59 -104 59q-47 0 -104.5 -13t-107.5 -31t-75 -33q-39 -20 -62 10q-10 14 -8 32.5t18 31.5q30 22 86 42.5t123 34.5t130 14q75 0 133 -35t59 -112q0 -54 -40.5 -112.5t-100.5 -105t-118 -66.5q-19 -6 -34.5 3.5t-21.5 27.5z" />
    <glyph glyph-name="uniFB89" unicode="&#x688;" horiz-adv-x="1121" arabic-form="final" 
d="M263 1171q2 13 12 21t24 6q45 -6 89 -9q0 2 1 4q21 48 47 90q-1 1 0 6q6 48 6 125q0 59 -4.5 126t-11.5 119q-2 14 7 24t20 11q14 2 24.5 -6.5t12.5 -21.5q8 -52 12 -115.5t4 -115.5q0 -33 -1 -62q38 38 82.5 61t94.5 23q65 0 106.5 -38.5t41.5 -104.5q0 -72 -48 -114.5
t-128 -61t-176 -18.5q-84 0 -187 14q-32 5 -28 37zM675 1394q-72 0 -129 -64.5t-93 -144.5h30q72 0 137 10.5t105.5 37.5t40.5 76q0 37 -25.5 61t-65.5 24zM115 67q6 22 26 32t43 5q98 -33 205 -33q148 0 234 54t86 172q0 19 -3.5 36.5t-8.5 34.5q-5 15 -12 34
q-33 98 -69 174t-89 177q-11 20 -5 43t25 34q20 11 43 5.5t34 -25.5q54 -101 92.5 -181t75.5 -190q33 -94 71 -171t98 -122t159 -45h1q23 0 39 -16.5t16 -39.5t-16 -39t-39 -16h-1q-119 0 -196.5 49.5t-127.5 122.5q-32 -73 -96 -117.5t-145 -64.5t-166 -20
q-62 0 -118.5 8.5t-118.5 29.5q-22 6 -33 26.5t-4 42.5z" />
    <glyph glyph-name="uniFB8B" unicode="&#x698;" horiz-adv-x="947" arabic-form="final" 
d="M178 -541q-25 -8 -44.5 4t-26.5 32q-7 26 4.5 45t30.5 25q182 62 288 204t106 371q0 76 -12.5 159t-35.5 171l-1 5q-5 21 8 40t34 24q14 3 28 -1q25 -6 36 -30q2 -5 4 -11q31 -125 66 -214t100 -135.5t183 -46.5h1q23 0 39 -16.5t16 -39.5t-16 -39t-39 -16h-1
q-105 0 -177.5 33t-122.5 90q-7 -254 -133.5 -419.5t-334.5 -234.5zM279 1063q0 88 48 140.5t118.5 70.5t141.5 0.5t119 -70.5t48 -142q0 -69 -31 -120q-8 -17 -26 -25t-38 3q-32 21 -15 60q10 17 16 36.5t6 45.5q0 54 -30 86t-74.5 42.5t-89.5 0t-75 -42.5t-30 -85
q0 -56 26.5 -92t69.5 -77q13 -12 10.5 -30t-14.5 -30q-13 -13 -31.5 -10.5t-31.5 15.5q-44 41 -80.5 90.5t-36.5 133.5z" />
    <glyph glyph-name="uniFB8D" unicode="&#x691;" horiz-adv-x="947" arabic-form="final" 
d="M220 931q2 13 12 21t24 6q45 -6 89 -9q0 2 1 4q21 48 47 90q-1 1 0 6q6 48 6 125q0 59 -4.5 126t-11.5 119q-2 14 7 24t20 11q14 2 24.5 -6.5t12.5 -21.5q8 -52 12 -115.5t4 -115.5q0 -33 -1 -62q38 38 82.5 61t94.5 23q65 0 106.5 -38.5t41.5 -104.5q0 -72 -48 -114.5
t-128 -61t-176 -18.5q-84 0 -187 14q-32 5 -28 37zM632 1154q-72 0 -129 -64.5t-93 -144.5h30q72 0 137 10.5t105.5 37.5t40.5 76q0 37 -25.5 61t-65.5 24zM178 -541q-25 -8 -44.5 4t-26.5 32q-7 26 4.5 45t30.5 25q182 62 288 204t106 371q0 76 -12.5 159t-35.5 171l-1 5
q-5 21 8 40t34 24q14 3 28 -1q25 -6 36 -30q2 -5 4 -11q31 -125 66 -214t100 -135.5t183 -46.5h1q23 0 39 -16.5t16 -39.5t-16 -39t-39 -16h-1q-105 0 -177.5 33t-122.5 90q-7 -254 -133.5 -419.5t-334.5 -234.5z" />
    <glyph glyph-name="uniFB8F" unicode="&#x6a9;" horiz-adv-x="2019" arabic-form="final" 
d="M131 365q0 128 42 249q11 23 33 31t42 -2q45 -22 28 -75q-34 -108 -34 -206q0 -114 68.5 -177t192.5 -88.5t289 -25.5q111 0 218.5 8.5t195.5 33t140.5 72t52.5 125.5q0 60 -36.5 134t-95 153.5t-127 156t-132.5 141.5q-14 15 -22 27t-8 30q0 41 41 54l720 243
q28 9 49 -1t27 -34q7 -24 -3.5 -43t-33.5 -26l-649 -216q101 -109 200 -232.5t148 -239.5q45 -100 90 -168.5t103.5 -109.5t142 -59.5t205.5 -18.5h1q23 0 39 -16.5t16 -39.5t-16 -39t-39 -16h-1q-201 0 -320.5 51t-204.5 166q-37 -100 -143 -153.5t-252 -73.5t-305 -20
q-197 0 -346.5 38t-232.5 126.5t-83 240.5z" />
    <glyph glyph-name="uniFB90" unicode="&#x6a9;" horiz-adv-x="1022" arabic-form="initial" 
d="M-56 45q0 23 16.5 39.5t39.5 16.5q102 0 196.5 7t168 28.5t116.5 64.5t43 114q0 60 -36.5 133t-95.5 151.5t-127 154.5t-132 141q-15 15 -23 26.5t-8 30.5q0 41 42 54l719 243q28 9 49 -1t28 -33q15 -55 -37 -70l-650 -216q90 -96 178 -203t146 -212t58 -197
q0 -101 -50 -165t-137.5 -99.5t-202.5 -49t-245 -13.5q-23 0 -39.5 16t-16.5 39z" />
    <glyph glyph-name="uniFB91" unicode="&#x6a9;" horiz-adv-x="1143" arabic-form="medial" 
d="M-56 45q0 23 16.5 39.5t39.5 16.5q102 0 196.5 7t168 28.5t116.5 64.5t43 114q0 60 -36.5 133t-95.5 151.5t-127 154.5t-132 141q-15 15 -23 26.5t-8 30.5q0 41 42 54l719 243q28 9 49 -1t28 -33q15 -55 -37 -70l-650 -216q103 -111 203.5 -235.5t148.5 -240.5
q44 -99 88.5 -166.5t102.5 -108.5t141.5 -59t204.5 -18h1q23 0 39 -16.5t16 -39.5t-16 -39t-39 -16h-1q-202 0 -321.5 52t-203.5 168q-35 -89 -124.5 -136.5t-217 -65.5t-275.5 -18q-23 0 -39.5 16t-16.5 39z" />
    <glyph glyph-name="uniFB93" unicode="&#x6af;" horiz-adv-x="2019" arabic-form="final" 
d="M131 365q0 128 42 249q11 23 33 31t42 -2q45 -22 28 -75q-34 -108 -34 -206q0 -114 68.5 -177t192.5 -88.5t289 -25.5q111 0 218.5 8.5t195.5 33t140.5 72t52.5 125.5q0 60 -36.5 134t-95 153.5t-127 156t-132.5 141.5q-14 15 -22 27t-8 30q0 41 41 54l720 243
q28 9 49 -1t27 -34q7 -24 -3.5 -43t-33.5 -26l-649 -216q101 -109 200 -232.5t148 -239.5q45 -100 90 -168.5t103.5 -109.5t142 -59.5t205.5 -18.5h1q23 0 39 -16.5t16 -39.5t-16 -39t-39 -16h-1q-201 0 -320.5 51t-204.5 166q-37 -100 -143 -153.5t-252 -73.5t-305 -20
q-197 0 -346.5 38t-232.5 126.5t-83 240.5zM963 1286q-6 20 4.5 37t28.5 23l593 201q18 5 35.5 -2.5t22.5 -27.5q14 -43 -30 -58l-594 -203q-19 -6 -36 2t-24 28z" />
    <glyph glyph-name="uniFB94" unicode="&#x6af;" horiz-adv-x="1022" arabic-form="initial" 
d="M-56 45q0 23 16.5 39.5t39.5 16.5q102 0 196.5 7t168 28.5t116.5 64.5t43 114q0 60 -36.5 133t-95.5 151.5t-127 154.5t-132 141q-15 15 -23 26.5t-8 30.5q0 41 42 54l719 243q28 9 49 -1t28 -33q15 -55 -37 -70l-650 -216q90 -96 178 -203t146 -212t58 -197
q0 -101 -50 -165t-137.5 -99.5t-202.5 -49t-245 -13.5q-23 0 -39.5 16t-16.5 39zM90 1286q-6 20 4.5 37t28.5 23l593 201q18 5 35.5 -2.5t22.5 -27.5q14 -43 -30 -58l-594 -203q-19 -6 -36 2t-24 28z" />
    <glyph glyph-name="uniFB95" unicode="&#x6af;" horiz-adv-x="1143" arabic-form="medial" 
d="M-56 45q0 23 16.5 39.5t39.5 16.5q102 0 196.5 7t168 28.5t116.5 64.5t43 114q0 60 -36.5 133t-95.5 151.5t-127 154.5t-132 141q-15 15 -23 26.5t-8 30.5q0 41 42 54l719 243q28 9 49 -1t28 -33q15 -55 -37 -70l-650 -216q103 -111 203.5 -235.5t148.5 -240.5
q44 -99 88.5 -166.5t102.5 -108.5t141.5 -59t204.5 -18h1q23 0 39 -16.5t16 -39.5t-16 -39t-39 -16h-1q-202 0 -321.5 52t-203.5 168q-35 -89 -124.5 -136.5t-217 -65.5t-275.5 -18q-23 0 -39.5 16t-16.5 39zM90 1286q-6 20 4.5 37t28.5 23l593 201q18 5 35.5 -2.5
t22.5 -27.5q14 -43 -30 -58l-594 -203q-19 -6 -36 2t-24 28z" />
    <glyph glyph-name="uniFB9F" unicode="&#x6ba;" horiz-adv-x="1526" arabic-form="final" 
d="M721 -480q-179 0 -309.5 62.5t-200.5 176t-70 266.5q0 93 18 190t48 198q8 23 29 32.5t42 1.5q21 -7 32 -27.5t3 -43.5q-27 -91 -43.5 -177.5t-16.5 -166.5q0 -189 120 -295t343 -106q224 0 346.5 104.5t122.5 286.5q0 94 -23 191.5t-61 206.5q-9 23 0.5 43.5t30.5 28.5
t42 -1t31 -31q12 -34 23.5 -68t20.5 -68q45 -136 111 -179.5t165 -43.5h1q23 0 39 -16.5t16 -39.5t-16 -39t-39 -16h-1q-65 0 -122.5 16t-105.5 52q1 -23 1 -45q0 -149 -70 -260t-199.5 -172t-307.5 -61z" />
    <glyph glyph-name="uniFBA7" unicode="&#x6c1;" horiz-adv-x="987" arabic-form="final" 
d="M987 101q23 0 39 -16.5t16 -39.5t-16 -39t-39 -16h-1q-120 0 -211.5 73.5t-184.5 245.5q-40 74 -66 104t-50 30q-59 0 -116 -155t-98 -426q-2 -19 -18 -32.5t-37 -13.5q-26 0 -42.5 19.5t-12.5 44.5q56 339 137.5 516t182.5 177q53 0 98 -43.5t100 -149.5
q84 -157 154 -218t164 -61h1z" />
    <glyph glyph-name="uniFBA8" unicode="&#x6c1;" horiz-adv-x="560" arabic-form="initial" 
d="M221 -852q-68 0 -109 45t-41 123q0 104 43.5 189.5t137.5 154.5q17 11 32 6t22 -16q7 -12 4.5 -26t-18.5 -23q-71 -55 -105.5 -114t-42.5 -129q15 17 36 29t52 12q54 0 87 -35.5t33 -88.5q0 -55 -34.5 -91t-96.5 -36zM-55 45q0 23 16 39.5t39 16.5q155 0 227.5 51.5
t72.5 192.5q0 46 -7.5 127t-24.5 151q-4 23 10 42t36 23q23 4 41.5 -9.5t22.5 -36.5q19 -75 27.5 -159.5t8.5 -137.5q0 -185 -104.5 -270t-309.5 -85q-23 0 -39 16t-16 39z" />
    <glyph glyph-name="uniFBA9" unicode="&#x6c1;" horiz-adv-x="1001" arabic-form="medial" 
d="M560 -139q33 134 146.5 186.5t294.5 52.5q23 0 39 -16t16 -39t-16 -39t-39 -16q-124 0 -213 -23t-137 -84.5t-48 -177.5q0 -102 39 -257q2 -8 2 -14q0 -23 -16 -39t-39 -16q-20 0 -34 12.5t-19 28.5q-41 166 -67 302.5t-40 263t-20 261.5q-71 -115 -173 -186t-236 -71
q-23 0 -39 16t-16 39t16 39t39 16q100 0 177 46.5t133.5 122.5t96.5 166q14 31 50 31q23 0 39 -16t16 -39q1 -122 13 -272t35 -278z" />
    <glyph glyph-name="uniFBAB" unicode="&#x6be;" horiz-adv-x="1100" arabic-form="final" 
d="M151 372q0 84 43.5 149.5t114 117.5t150.5 93q70 38 128 77t68 84l-3 28q-2 23 13 40.5t37 19.5q23 2 41 -12.5t20 -37.5l50 -550q12 -126 44.5 -185.5t92 -77t149.5 -17.5h1q23 0 39 -16.5t16 -39.5t-16 -39t-39 -16h-1q-127 0 -210 34t-128 117t-59 230l-33 362
q-33 -27 -74.5 -52t-87.5 -50q-61 -34 -117 -71t-91 -82t-35 -103q0 -77 76.5 -114.5t205.5 -37.5q40 0 83 6q23 3 41.5 -10.5t21.5 -36.5q3 -22 -11 -41t-37 -22q-25 -4 -50 -5.5t-48 -1.5q-175 0 -285 64.5t-110 195.5z" />
    <glyph glyph-name="uniFBAC" unicode="&#x6be;" horiz-adv-x="1359" arabic-form="initial" 
d="M-55 45q0 23 16 39.5t39 16.5q90 0 174.5 7t159.5 24q-87 55 -140.5 129.5t-53.5 166.5q0 102 47 189.5t125.5 141.5t171.5 54q59 0 108.5 -24.5t86.5 -65.5h6q252 -31 388 -144t136 -293q0 -133 -98 -214.5t-253 -81.5q-95 0 -195.5 18.5t-192.5 54.5
q-101 -38 -222 -55.5t-248 -17.5q-23 0 -39 16t-16 39zM249 436q0 -85 64 -151t163 -109q95 40 151.5 108t56.5 168q0 64 -25 120.5t-70 92t-105 35.5q-63 0 -116.5 -36.5t-86 -96.5t-32.5 -131zM776 454q0 -108 -46 -187.5t-126 -134.5q124 -31 252 -31q116 0 183 52
t67 138q0 104 -94 188.5t-261 120.5q25 -71 25 -146z" />
    <glyph glyph-name="uniFBAD" unicode="&#x6be;" horiz-adv-x="990" arabic-form="medial" 
d="M-55 45q0 23 16 39.5t39 16.5q69 0 133 8q-1 13 -1 27q0 113 22.5 229.5t71 214.5t127 158t189.5 60q76 0 126.5 -37t75.5 -94.5t25 -120.5q0 -107 -60 -213t-175 -190t-281 -124q17 -119 63 -217.5t109.5 -157.5t132.5 -59q68 0 96.5 50.5t28.5 124.5q0 61 -16 125.5
t-39 113.5q-5 14 -9 26t-4 21q0 23 16 39t40 16h319q23 0 39 -16.5t16 -39.5t-16 -39t-39 -16h-242q18 -49 28.5 -106.5t10.5 -115.5q0 -69 -21 -137.5t-70.5 -113.5t-133.5 -45q-83 0 -152.5 45.5t-123.5 122t-90 170t-52 189.5q-70 -9 -144 -9q-23 0 -39 16t-16 39z
M245 136v-7q141 35 233.5 102.5t138.5 148.5t46 156q0 62 -30.5 104.5t-98.5 42.5q-94 0 -158.5 -74t-97.5 -198.5t-33 -274.5z" />
    <glyph glyph-name="uniFBAF" unicode="&#x6d2;" horiz-adv-x="1579" arabic-form="final" 
d="M1242 -519q0 -23 -16 -38t-39 -17q-502 -37 -772 18.5t-270 216.5q0 107 113.5 189t312.5 137.5t457.5 84t549.5 28.5h1q23 0 39 -16t16 -39t-16 -39t-39 -16h-1q-196 0 -386.5 -15t-357 -43t-294 -67.5t-200 -89.5t-72.5 -108q0 -91 230.5 -129.5t688.5 -1.5
q23 2 39 -15t16 -40z" />
    <glyph glyph-name="uniFBDA" unicode="&#x6c6;" horiz-adv-x="951" arabic-form="final" 
d="M662 1271q12 -7 16 -21.5t-4 -26.5l-166 -269q-9 -16 -29 -15.5t-29 11.5l-192 241q-9 11 -7 26t13 24t26 7t23 -13l161 -202l139 227q8 12 22.5 15.5t26.5 -4.5zM488 -10q-153 0 -246 68.5t-93 217.5q0 95 40 186t110.5 150.5t163.5 59.5q81 0 144.5 -44t107.5 -116.5
t67 -160t23 -173.5q0 -39 -4 -77h150q23 0 39 -16.5t16 -39.5t-16 -39t-39 -16h-171q-38 -136 -126.5 -243.5t-213.5 -180.5t-273 -108q-23 -4 -42 9t-24 35q-5 23 8.5 41.5t35.5 24.5q195 50 332 158t190 264h-179zM487 101h205q4 36 4 73q0 61 -15 128.5t-44.5 127
t-73.5 96.5t-102 37q-62 0 -109 -43.5t-72.5 -108t-25.5 -127.5q0 -103 64.5 -143t168.5 -40z" />
    <glyph glyph-name="uniFBE8" unicode="&#x649;" horiz-adv-x="560" arabic-form="initial" 
d="M-55 45q0 23 16 39.5t39 16.5q155 0 227.5 51.5t72.5 192.5q0 46 -7.5 127t-24.5 151q-4 23 10 42t36 23q23 4 41.5 -9.5t22.5 -36.5q19 -75 27.5 -159.5t8.5 -137.5q0 -185 -104.5 -270t-309.5 -85q-23 0 -39 16t-16 39z" />
    <glyph glyph-name="uniFBE9" unicode="&#x649;" horiz-adv-x="811" arabic-form="medial" 
d="M-56 45q0 23 16.5 39.5t39.5 16.5q152 0 228.5 37.5t102.5 126t26 241.5q2 26 19.5 41t40.5 13q23 -1 38.5 -18t13.5 -40q0 -150 24 -237.5t97 -125.5t220 -38h1q23 0 39 -16.5t16 -39.5t-16 -39t-39 -16h-1q-176 0 -269 53.5t-127 183.5q-45 -130 -140 -183.5
t-274 -53.5q-23 0 -39.5 16t-16.5 39z" />
    <glyph glyph-name="uniFBFD" unicode="&#x6cc;" horiz-adv-x="1390" arabic-form="final" 
d="M126 -67q0 120 29 245t78 260q8 22 29 31.5t43 1.5q21 -7 31 -28t2 -43q-46 -127 -72.5 -245.5t-26.5 -219.5q0 -119 45 -206.5t147.5 -134.5t274.5 -47q217 0 329.5 68t112.5 152q0 74 -90.5 136.5t-286.5 86.5q-19 2 -33 17t-16 34q-2 24 14.5 42t40.5 18h613
q23 0 39 -16.5t16 -39.5t-16 -39t-39 -16h-345q104 -41 156.5 -103t52.5 -134q0 -87 -67.5 -159.5t-191 -116t-292.5 -43.5q-200 0 -327.5 63.5t-188.5 176.5t-61 259z" />
    <glyph glyph-name="uniFBFE" unicode="&#x6cc;" horiz-adv-x="560" arabic-form="initial" 
d="M-55 45q0 23 16 39.5t39 16.5q155 0 227.5 51.5t72.5 192.5q0 46 -7.5 127t-24.5 151q-4 23 10 42t36 23q23 4 41.5 -9.5t22.5 -36.5q19 -75 27.5 -159.5t8.5 -137.5q0 -185 -104.5 -270t-309.5 -85q-23 0 -39 16t-16 39zM-170 -475q-5 18 3.5 35.5t27.5 22.5
q53 19 126.5 28t144.5 9q131 0 206 -29q19 -10 25 -29.5t-5 -37.5q-21 -32 -54 -21q-28 10 -75 15.5t-97 5.5q-69 0 -134.5 -7.5t-108.5 -22.5q-19 -6 -36.5 4t-22.5 27z" />
    <glyph glyph-name="uniFBFF" unicode="&#x6cc;" horiz-adv-x="811" arabic-form="medial" 
d="M-56 45q0 23 16.5 39.5t39.5 16.5q152 0 228.5 37.5t102.5 126t26 241.5q2 26 19.5 41t40.5 13q23 -1 38.5 -18t13.5 -40q0 -150 24 -237.5t97 -125.5t220 -38h1q23 0 39 -16.5t16 -39.5t-16 -39t-39 -16h-1q-176 0 -269 53.5t-127 183.5q-45 -130 -140 -183.5
t-274 -53.5q-23 0 -39.5 16t-16.5 39zM-170 -475q-5 18 3.5 35.5t27.5 22.5q53 19 126.5 28t144.5 9q131 0 206 -29q19 -10 25 -29.5t-5 -37.5q-21 -32 -54 -21q-28 10 -75 15.5t-97 5.5q-69 0 -134.5 -7.5t-108.5 -22.5q-19 -6 -36.5 4t-22.5 27z" />
    <glyph glyph-name="uniFE82" unicode="&#x622;" horiz-adv-x="574" arabic-form="final" 
d="M-58 1497q31 54 81 90.5t112 36.5q34 0 65.5 -12.5t61.5 -32.5q55 -35 98 -35q38 0 68.5 29.5t53.5 79.5q15 29 45 15q29 -15 15 -45q-26 -53 -69.5 -99.5t-112.5 -46.5q-31 0 -62 12.5t-63 32.5q-56 36 -100 36q-82 0 -136 -94q-7 -12 -20.5 -15.5t-24.5 3.5
q-12 7 -15.5 20t3.5 25zM181 392q0 182 4 382t1 399q-1 23 15 40t39 18t39.5 -15t17.5 -39q3 -199 -0.5 -399t-3.5 -385q0 -111 21 -174.5t81.5 -90.5t177.5 -27h1q23 0 39 -16.5t16 -39.5t-16 -39t-39 -16h-1q-145 0 -231 39t-123.5 127t-37.5 236z" />
    <glyph glyph-name="uniFE84" unicode="&#x623;" horiz-adv-x="574" arabic-form="final" 
d="M57 1510q-4 12 1 25t18 17l174 61q-61 11 -97.5 53t-36.5 109q0 89 58 147t152 58q16 0 37 -1.5t35 -3.5q30 -6 28 -35q-1 -13 -12 -22.5t-25 -7.5q-10 2 -27.5 3t-29.5 1q-68 0 -110 -40t-42 -102q0 -57 35.5 -85.5t96.5 -28.5q32 0 73 8t97 27q14 5 26 -2t15 -20
q4 -13 -2.5 -24.5t-17.5 -14.5l-405 -142q-13 -4 -24.5 2t-16.5 18zM181 392q0 182 4 382t1 399q-1 23 15 40t39 18t39.5 -15t17.5 -39q3 -199 -0.5 -399t-3.5 -385q0 -111 21 -174.5t81.5 -90.5t177.5 -27h1q23 0 39 -16.5t16 -39.5t-16 -39t-39 -16h-1q-145 0 -231 39
t-123.5 127t-37.5 236z" />
    <glyph glyph-name="uniFE86" unicode="&#x624;" horiz-adv-x="951" arabic-form="final" 
d="M488 -10q-153 0 -246 68.5t-93 217.5q0 95 40 186t110.5 150.5t163.5 59.5q81 0 144.5 -44t107.5 -116.5t67 -160t23 -173.5q0 -39 -4 -77h150q23 0 39 -16.5t16 -39.5t-16 -39t-39 -16h-171q-38 -136 -126.5 -243.5t-213.5 -180.5t-273 -108q-23 -4 -42 9t-24 35
q-5 23 8.5 41.5t35.5 24.5q195 50 332 158t190 264h-179zM487 101h205q4 36 4 73q0 61 -15 128.5t-44.5 127t-73.5 96.5t-102 37q-62 0 -109 -43.5t-72.5 -108t-25.5 -127.5q0 -103 64.5 -143t168.5 -40zM175 958q-4 12 1 25t18 17l174 61q-61 11 -97.5 53t-36.5 109
q0 89 58 147t152 58q16 0 37 -1.5t35 -3.5q30 -6 28 -35q-1 -13 -12 -22.5t-25 -7.5q-10 2 -27.5 3t-29.5 1q-68 0 -110 -40t-42 -102q0 -57 35.5 -85.5t96.5 -28.5q32 0 73 8t97 27q14 5 26 -2t15 -20q4 -13 -2.5 -24.5t-17.5 -14.5l-405 -142q-13 -4 -24.5 2t-16.5 18z
" />
    <glyph glyph-name="uniFE88" unicode="&#x625;" horiz-adv-x="574" arabic-form="final" 
d="M44 -770q-4 12 1 25t18 17l174 61q-61 11 -97.5 53t-36.5 109q0 89 58 147t152 58q16 0 37 -1.5t35 -3.5q30 -6 28 -35q-1 -13 -12 -22.5t-25 -7.5q-10 2 -27.5 3t-29.5 1q-68 0 -110 -40t-42 -102q0 -57 35.5 -85.5t96.5 -28.5q32 0 73 8t97 27q14 5 26 -2t15 -20
q4 -13 -2.5 -24.5t-17.5 -14.5l-405 -142q-13 -4 -24.5 2t-16.5 18zM181 392q0 182 4 382t1 399q-1 23 15 40t39 18t39.5 -15t17.5 -39q3 -199 -0.5 -399t-3.5 -385q0 -111 21 -174.5t81.5 -90.5t177.5 -27h1q23 0 39 -16.5t16 -39.5t-16 -39t-39 -16h-1q-145 0 -231 39
t-123.5 127t-37.5 236z" />
    <glyph glyph-name="uniFE8A" unicode="&#x626;" horiz-adv-x="1390" arabic-form="final" 
d="M653 409q-4 12 1 25t18 17l174 61q-61 11 -97.5 53t-36.5 109q0 89 58 147t152 58q16 0 37 -1.5t35 -3.5q30 -6 28 -35q-1 -13 -12 -22.5t-25 -7.5q-10 2 -27.5 3t-29.5 1q-68 0 -110 -40t-42 -102q0 -57 35.5 -85.5t96.5 -28.5q32 0 73 8t97 27q14 5 26 -2t15 -20
q4 -13 -2.5 -24.5t-17.5 -14.5l-405 -142q-13 -4 -24.5 2t-16.5 18zM126 -67q0 120 29 245t78 260q8 22 29 31.5t43 1.5q21 -7 31 -28t2 -43q-46 -127 -72.5 -245.5t-26.5 -219.5q0 -119 45 -206.5t147.5 -134.5t274.5 -47q217 0 329.5 68t112.5 152q0 74 -90.5 136.5
t-286.5 86.5q-19 2 -33 17t-16 34q-2 24 14.5 42t40.5 18h613q23 0 39 -16.5t16 -39.5t-16 -39t-39 -16h-345q104 -41 156.5 -103t52.5 -134q0 -87 -67.5 -159.5t-191 -116t-292.5 -43.5q-200 0 -327.5 63.5t-188.5 176.5t-61 259z" />
    <glyph glyph-name="uniFE8B" unicode="&#x626;" horiz-adv-x="560" arabic-form="initial" 
d="M-30 838q-4 12 1 25t18 17l174 61q-61 11 -97.5 53t-36.5 109q0 89 58 147t152 58q16 0 37 -1.5t35 -3.5q30 -6 28 -35q-1 -13 -12 -22.5t-25 -7.5q-10 2 -27.5 3t-29.5 1q-68 0 -110 -40t-42 -102q0 -57 35.5 -85.5t96.5 -28.5q32 0 73 8t97 27q14 5 26 -2t15 -20
q4 -13 -2.5 -24.5t-17.5 -14.5l-405 -142q-13 -4 -24.5 2t-16.5 18zM-55 45q0 23 16 39.5t39 16.5q155 0 227.5 51.5t72.5 192.5q0 46 -7.5 127t-24.5 151q-4 23 10 42t36 23q23 4 41.5 -9.5t22.5 -36.5q19 -75 27.5 -159.5t8.5 -137.5q0 -185 -104.5 -270t-309.5 -85
q-23 0 -39 16t-16 39z" />
    <glyph glyph-name="uniFE8C" unicode="&#x626;" horiz-adv-x="811" arabic-form="medial" 
d="M20 755q-4 12 1 25t18 17l174 61q-61 11 -97.5 53t-36.5 109q0 89 58 147t152 58q16 0 37 -1.5t35 -3.5q30 -6 28 -35q-1 -13 -12 -22.5t-25 -7.5q-10 2 -27.5 3t-29.5 1q-68 0 -110 -40t-42 -102q0 -57 35.5 -85.5t96.5 -28.5q32 0 73 8t97 27q14 5 26 -2t15 -20
q4 -13 -2.5 -24.5t-17.5 -14.5l-405 -142q-13 -4 -24.5 2t-16.5 18zM-56 45q0 23 16.5 39.5t39.5 16.5q152 0 228.5 37.5t102.5 126t26 241.5q2 26 19.5 41t40.5 13q23 -1 38.5 -18t13.5 -40q0 -150 24 -237.5t97 -125.5t220 -38h1q23 0 39 -16.5t16 -39.5t-16 -39t-39 -16
h-1q-176 0 -269 53.5t-127 183.5q-45 -130 -140 -183.5t-274 -53.5q-23 0 -39.5 16t-16.5 39z" />
    <glyph glyph-name="uniFE8E" unicode="&#x627;" horiz-adv-x="574" arabic-form="final" 
d="M181 392q0 182 4 382t1 399q-1 23 15 40t39 18t39.5 -15t17.5 -39q3 -199 -0.5 -399t-3.5 -385q0 -111 21 -174.5t81.5 -90.5t177.5 -27h1q23 0 39 -16.5t16 -39.5t-16 -39t-39 -16h-1q-145 0 -231 39t-123.5 127t-37.5 236z" />
    <glyph glyph-name="uniFE90" unicode="&#x628;" horiz-adv-x="1937" arabic-form="final" 
d="M111 414q0 52 10 108.5t29 117.5q8 22 28 33t42 4t33.5 -27.5t3.5 -42.5q-17 -55 -25 -103.5t-8 -89.5q0 -158 119.5 -250.5t375.5 -92.5q700 0 800 493q5 20 21 33.5t38 11.5q23 -2 38 -19t13 -40q-3 -54 -3 -99q0 -187 69 -268.5t241 -81.5h1q23 0 39 -16.5t16 -39.5
t-16 -39t-39 -16h-1q-183 0 -274.5 87t-110.5 273q-105 -202 -319.5 -296t-512.5 -94q-183 0 -320 52.5t-212.5 153.5t-75.5 248zM686 -424q0 27 21 50t58 23q44 0 66 -34q12 -19 12 -41q0 -25 -16.5 -54t-63.5 -29q-31 0 -48 15t-23 34q-6 17 -6 36z" />
    <glyph glyph-name="uniFE91" unicode="&#x628;" horiz-adv-x="560" arabic-form="initial" 
d="M-55 45q0 23 16 39.5t39 16.5q155 0 227.5 51.5t72.5 192.5q0 46 -7.5 127t-24.5 151q-4 23 10 42t36 23q23 4 41.5 -9.5t22.5 -36.5q19 -75 27.5 -159.5t8.5 -137.5q0 -185 -104.5 -270t-309.5 -85q-23 0 -39 16t-16 39zM-3 -424q0 27 21 50t58 23q44 0 66 -34
q12 -19 12 -41q0 -25 -16.5 -54t-63.5 -29q-31 0 -48 15t-23 34q-6 17 -6 36z" />
    <glyph glyph-name="uniFE92" unicode="&#x628;" horiz-adv-x="811" arabic-form="medial" 
d="M-56 45q0 23 16.5 39.5t39.5 16.5q152 0 228.5 37.5t102.5 126t26 241.5q2 26 19.5 41t40.5 13q23 -1 38.5 -18t13.5 -40q0 -150 24 -237.5t97 -125.5t220 -38h1q23 0 39 -16.5t16 -39.5t-16 -39t-39 -16h-1q-176 0 -269 53.5t-127 183.5q-45 -130 -140 -183.5
t-274 -53.5q-23 0 -39.5 16t-16.5 39zM-3 -424q0 27 21 50t58 23q44 0 66 -34q12 -19 12 -41q0 -25 -16.5 -54t-63.5 -29q-31 0 -48 15t-23 34q-6 17 -6 36z" />
    <glyph glyph-name="uniFE94" unicode="&#x629;" horiz-adv-x="1100" arabic-form="final" 
d="M151 372q0 84 43.5 149.5t114 117.5t150.5 93q70 38 128 77t68 84l-3 28q-2 23 13 40.5t37 19.5q23 2 41 -12.5t20 -37.5l50 -550q12 -126 44.5 -185.5t92 -77t149.5 -17.5h1q23 0 39 -16.5t16 -39.5t-16 -39t-39 -16h-1q-127 0 -210 34t-128 117t-59 230l-33 362
q-33 -27 -74.5 -52t-87.5 -50q-61 -34 -117 -71t-91 -82t-35 -103q0 -77 76.5 -114.5t205.5 -37.5q40 0 83 6q23 3 41.5 -10.5t21.5 -36.5q3 -22 -11 -41t-37 -22q-25 -4 -50 -5.5t-48 -1.5q-175 0 -285 64.5t-110 195.5zM265 1365q-5 18 3.5 35.5t27.5 22.5q53 19 126.5 28
t144.5 9q131 0 206 -29q19 -10 25 -29.5t-5 -37.5q-21 -32 -54 -21q-28 10 -75 15.5t-97 5.5q-69 0 -134.5 -7.5t-108.5 -22.5q-19 -6 -36.5 4t-22.5 27z" />
    <glyph glyph-name="uniFE96" unicode="&#x62a;" horiz-adv-x="1937" arabic-form="final" 
d="M111 414q0 52 10 108.5t29 117.5q8 22 28 33t42 4t33.5 -27.5t3.5 -42.5q-17 -55 -25 -103.5t-8 -89.5q0 -158 119.5 -250.5t375.5 -92.5q700 0 800 493q5 20 21 33.5t38 11.5q23 -2 38 -19t13 -40q-3 -54 -3 -99q0 -187 69 -268.5t241 -81.5h1q23 0 39 -16.5t16 -39.5
t-16 -39t-39 -16h-1q-183 0 -274.5 87t-110.5 273q-105 -202 -319.5 -296t-512.5 -94q-183 0 -320 52.5t-212.5 153.5t-75.5 248zM554 734q-5 18 3.5 35.5t27.5 22.5q53 19 126.5 28t144.5 9q131 0 206 -29q19 -10 25 -29.5t-5 -37.5q-21 -32 -54 -21q-28 10 -75 15.5
t-97 5.5q-69 0 -134.5 -7.5t-108.5 -22.5q-19 -6 -36.5 4t-22.5 27z" />
    <glyph glyph-name="uniFE97" unicode="&#x62a;" horiz-adv-x="560" arabic-form="initial" 
d="M-55 45q0 23 16 39.5t39 16.5q155 0 227.5 51.5t72.5 192.5q0 46 -7.5 127t-24.5 151q-4 23 10 42t36 23q23 4 41.5 -9.5t22.5 -36.5q19 -75 27.5 -159.5t8.5 -137.5q0 -185 -104.5 -270t-309.5 -85q-23 0 -39 16t-16 39zM-41 984q-5 18 3.5 35.5t27.5 22.5
q53 19 126.5 28t144.5 9q131 0 206 -29q19 -10 25 -29.5t-5 -37.5q-21 -32 -54 -21q-28 10 -75 15.5t-97 5.5q-69 0 -134.5 -7.5t-108.5 -22.5q-19 -6 -36.5 4t-22.5 27z" />
    <glyph glyph-name="uniFE98" unicode="&#x62a;" horiz-adv-x="811" arabic-form="medial" 
d="M-56 45q0 23 16.5 39.5t39.5 16.5q152 0 228.5 37.5t102.5 126t26 241.5q2 26 19.5 41t40.5 13q23 -1 38.5 -18t13.5 -40q0 -150 24 -237.5t97 -125.5t220 -38h1q23 0 39 -16.5t16 -39.5t-16 -39t-39 -16h-1q-176 0 -269 53.5t-127 183.5q-45 -130 -140 -183.5
t-274 -53.5q-23 0 -39.5 16t-16.5 39zM25 926q-5 18 3.5 35.5t27.5 22.5q53 19 126.5 28t144.5 9q131 0 206 -29q19 -10 25 -29.5t-5 -37.5q-21 -32 -54 -21q-28 10 -75 15.5t-97 5.5q-69 0 -134.5 -7.5t-108.5 -22.5q-19 -6 -36.5 4t-22.5 27z" />
    <glyph glyph-name="uniFE9A" unicode="&#x62b;" horiz-adv-x="1937" arabic-form="final" 
d="M111 414q0 52 10 108.5t29 117.5q8 22 28 33t42 4t33.5 -27.5t3.5 -42.5q-17 -55 -25 -103.5t-8 -89.5q0 -158 119.5 -250.5t375.5 -92.5q700 0 800 493q5 20 21 33.5t38 11.5q23 -2 38 -19t13 -40q-3 -54 -3 -99q0 -187 69 -268.5t241 -81.5h1q23 0 39 -16.5t16 -39.5
t-16 -39t-39 -16h-1q-183 0 -274.5 87t-110.5 273q-105 -202 -319.5 -296t-512.5 -94q-183 0 -320 52.5t-212.5 153.5t-75.5 248zM576 837q0 88 48 140.5t118.5 70.5t141.5 0.5t119 -70.5t48 -142q0 -69 -31 -120q-8 -17 -26 -25t-38 3q-32 21 -15 60q10 17 16 36.5t6 45.5
q0 54 -30 86t-74.5 42.5t-89.5 0t-75 -42.5t-30 -85q0 -56 26.5 -92t69.5 -77q13 -12 10.5 -30t-14.5 -30q-13 -13 -31.5 -10.5t-31.5 15.5q-44 41 -80.5 90.5t-36.5 133.5z" />
    <glyph glyph-name="uniFE9B" unicode="&#x62b;" horiz-adv-x="560" arabic-form="initial" 
d="M-55 45q0 23 16 39.5t39 16.5q155 0 227.5 51.5t72.5 192.5q0 46 -7.5 127t-24.5 151q-4 23 10 42t36 23q23 4 41.5 -9.5t22.5 -36.5q19 -75 27.5 -159.5t8.5 -137.5q0 -185 -104.5 -270t-309.5 -85q-23 0 -39 16t-16 39zM-4 1080q0 88 48 140.5t118.5 70.5t141.5 0.5
t119 -70.5t48 -142q0 -69 -31 -120q-8 -17 -26 -25t-38 3q-32 21 -15 60q10 17 16 36.5t6 45.5q0 54 -30 86t-74.5 42.5t-89.5 0t-75 -42.5t-30 -85q0 -56 26.5 -92t69.5 -77q13 -12 10.5 -30t-14.5 -30q-13 -13 -31.5 -10.5t-31.5 15.5q-44 41 -80.5 90.5t-36.5 133.5z" />
    <glyph glyph-name="uniFE9C" unicode="&#x62b;" horiz-adv-x="811" arabic-form="medial" 
d="M-56 45q0 23 16.5 39.5t39.5 16.5q152 0 228.5 37.5t102.5 126t26 241.5q2 26 19.5 41t40.5 13q23 -1 38.5 -18t13.5 -40q0 -150 24 -237.5t97 -125.5t220 -38h1q23 0 39 -16.5t16 -39.5t-16 -39t-39 -16h-1q-176 0 -269 53.5t-127 183.5q-45 -130 -140 -183.5
t-274 -53.5q-23 0 -39.5 16t-16.5 39zM10 1064q0 88 48 140.5t118.5 70.5t141.5 0.5t119 -70.5t48 -142q0 -69 -31 -120q-8 -17 -26 -25t-38 3q-32 21 -15 60q10 17 16 36.5t6 45.5q0 54 -30 86t-74.5 42.5t-89.5 0t-75 -42.5t-30 -85q0 -56 26.5 -92t69.5 -77
q13 -12 10.5 -30t-14.5 -30q-13 -13 -31.5 -10.5t-31.5 15.5q-44 41 -80.5 90.5t-36.5 133.5z" />
    <glyph glyph-name="uniFE9E" unicode="&#x62c;" horiz-adv-x="1392" arabic-form="final" 
d="M401 839q57 0 146 -32t192.5 -78.5t206 -92.5t186.5 -74q47 -14 47 -56q0 -47 -60 -58q-66 -9 -130 -21q18 -169 126.5 -247.5t275.5 -78.5h1q23 0 39 -16.5t16 -39.5t-16 -39t-39 -16h-1q-135 0 -245.5 47t-180 139t-83.5 228q-201 -49 -349.5 -129.5t-230 -186
t-81.5 -230.5q0 -115 66 -194.5t177 -120.5t246 -41q96 0 204.5 18t198.5 52q23 9 44 0t29 -29q8 -22 -1 -42.5t-30 -30.5q-94 -38 -211.5 -58t-226.5 -20q-167 0 -304.5 54.5t-219 159t-81.5 253.5q0 161 104.5 290.5t295.5 222t449 143.5q-61 26 -140 61.5t-159.5 69.5
t-147 56.5t-101.5 22.5q-57 0 -90 -52t-57 -123q-6 -21 -26.5 -33.5t-43.5 -5.5q-21 6 -33.5 26.5t-5.5 42.5q32 106 91 182.5t153 76.5zM590 -81q0 27 21 50t58 23q44 0 66 -34q12 -19 12 -41q0 -25 -16.5 -54t-63.5 -29q-31 0 -48 15t-23 34q-6 17 -6 36z" />
    <glyph glyph-name="uniFE9F" unicode="&#x62c;" horiz-adv-x="1299" arabic-form="initial" 
d="M372 779q76 0 167 -38t206 -97q73 -37 163 -78.5t201 -88.5q34 -13 34 -51q0 -31 -26 -47q-274 -188 -546 -288.5t-571 -100.5q-23 0 -39.5 16.5t-16.5 38.5q0 23 16.5 39.5t39.5 16.5q252 0 488 79.5t477 238.5q-85 37 -156 70t-132 64q-103 53 -174.5 82.5t-121.5 29.5
q-52 0 -95.5 -48t-93.5 -156q-8 -18 -32 -28.5t-48 4.5q-16 10 -23.5 30.5t2.5 40.5q59 128 124.5 199.5t156.5 71.5zM388 -319q0 27 21 50t58 23q44 0 66 -34q12 -19 12 -41q0 -25 -16.5 -54t-63.5 -29q-31 0 -48 15t-23 34q-6 17 -6 36z" />
    <glyph glyph-name="uniFEA0" unicode="&#x62c;" horiz-adv-x="1321" arabic-form="medial" 
d="M372 779q76 0 167 -38t206 -97q73 -37 163 -78.5t201 -88.5q34 -13 34 -51q0 -31 -26 -47q-57 -39 -112 -74q11 -107 90 -155.5t225 -48.5h1q23 0 39 -16.5t16 -39.5t-16 -39t-39 -16h-1q-161 0 -273.5 61t-143.5 194q-219 -124 -441 -189.5t-462 -65.5q-23 0 -39.5 16.5
t-16.5 38.5q0 23 16.5 39.5t39.5 16.5q252 0 488 79.5t477 238.5q-85 37 -156 70t-132 64q-103 53 -174.5 82.5t-121.5 29.5q-52 0 -95.5 -48t-93.5 -156q-8 -18 -32 -28.5t-48 4.5q-16 10 -23.5 30.5t2.5 40.5q59 128 124.5 199.5t156.5 71.5zM512 -319q0 27 21 50t58 23
q44 0 66 -34q12 -19 12 -41q0 -25 -16.5 -54t-63.5 -29q-31 0 -48 15t-23 34q-6 17 -6 36z" />
    <glyph glyph-name="uniFEA2" unicode="&#x62d;" horiz-adv-x="1392" arabic-form="final" 
d="M401 839q57 0 146 -32t192.5 -78.5t206 -92.5t186.5 -74q47 -14 47 -56q0 -47 -60 -58q-66 -9 -130 -21q18 -169 126.5 -247.5t275.5 -78.5h1q23 0 39 -16.5t16 -39.5t-16 -39t-39 -16h-1q-135 0 -245.5 47t-180 139t-83.5 228q-201 -49 -349.5 -129.5t-230 -186
t-81.5 -230.5q0 -115 66 -194.5t177 -120.5t246 -41q96 0 204.5 18t198.5 52q23 9 44 0t29 -29q8 -22 -1 -42.5t-30 -30.5q-94 -38 -211.5 -58t-226.5 -20q-167 0 -304.5 54.5t-219 159t-81.5 253.5q0 161 104.5 290.5t295.5 222t449 143.5q-61 26 -140 61.5t-159.5 69.5
t-147 56.5t-101.5 22.5q-57 0 -90 -52t-57 -123q-6 -21 -26.5 -33.5t-43.5 -5.5q-21 6 -33.5 26.5t-5.5 42.5q32 106 91 182.5t153 76.5z" />
    <glyph glyph-name="uniFEA3" unicode="&#x62d;" horiz-adv-x="1299" arabic-form="initial" 
d="M372 779q76 0 167 -38t206 -97q73 -37 163 -78.5t201 -88.5q34 -13 34 -51q0 -31 -26 -47q-274 -188 -546 -288.5t-571 -100.5q-23 0 -39.5 16.5t-16.5 38.5q0 23 16.5 39.5t39.5 16.5q252 0 488 79.5t477 238.5q-85 37 -156 70t-132 64q-103 53 -174.5 82.5t-121.5 29.5
q-52 0 -95.5 -48t-93.5 -156q-8 -18 -32 -28.5t-48 4.5q-16 10 -23.5 30.5t2.5 40.5q59 128 124.5 199.5t156.5 71.5z" />
    <glyph glyph-name="uniFEA4" unicode="&#x62d;" horiz-adv-x="1321" arabic-form="medial" 
d="M372 779q76 0 167 -38t206 -97q73 -37 163 -78.5t201 -88.5q34 -13 34 -51q0 -31 -26 -47q-57 -39 -112 -74q11 -107 90 -155.5t225 -48.5h1q23 0 39 -16.5t16 -39.5t-16 -39t-39 -16h-1q-161 0 -273.5 61t-143.5 194q-219 -124 -441 -189.5t-462 -65.5q-23 0 -39.5 16.5
t-16.5 38.5q0 23 16.5 39.5t39.5 16.5q252 0 488 79.5t477 238.5q-85 37 -156 70t-132 64q-103 53 -174.5 82.5t-121.5 29.5q-52 0 -95.5 -48t-93.5 -156q-8 -18 -32 -28.5t-48 4.5q-16 10 -23.5 30.5t2.5 40.5q59 128 124.5 199.5t156.5 71.5z" />
    <glyph glyph-name="uniFEA6" unicode="&#x62e;" horiz-adv-x="1392" arabic-form="final" 
d="M401 839q57 0 146 -32t192.5 -78.5t206 -92.5t186.5 -74q47 -14 47 -56q0 -47 -60 -58q-66 -9 -130 -21q18 -169 126.5 -247.5t275.5 -78.5h1q23 0 39 -16.5t16 -39.5t-16 -39t-39 -16h-1q-135 0 -245.5 47t-180 139t-83.5 228q-201 -49 -349.5 -129.5t-230 -186
t-81.5 -230.5q0 -115 66 -194.5t177 -120.5t246 -41q96 0 204.5 18t198.5 52q23 9 44 0t29 -29q8 -22 -1 -42.5t-30 -30.5q-94 -38 -211.5 -58t-226.5 -20q-167 0 -304.5 54.5t-219 159t-81.5 253.5q0 161 104.5 290.5t295.5 222t449 143.5q-61 26 -140 61.5t-159.5 69.5
t-147 56.5t-101.5 22.5q-57 0 -90 -52t-57 -123q-6 -21 -26.5 -33.5t-43.5 -5.5q-21 6 -33.5 26.5t-5.5 42.5q32 106 91 182.5t153 76.5zM347 1280q0 27 21 50t58 23q44 0 66 -34q12 -19 12 -41q0 -25 -16.5 -54t-63.5 -29q-31 0 -48 15t-23 34q-6 17 -6 36z" />
    <glyph glyph-name="uniFEA7" unicode="&#x62e;" horiz-adv-x="1299" arabic-form="initial" 
d="M372 779q76 0 167 -38t206 -97q73 -37 163 -78.5t201 -88.5q34 -13 34 -51q0 -31 -26 -47q-274 -188 -546 -288.5t-571 -100.5q-23 0 -39.5 16.5t-16.5 38.5q0 23 16.5 39.5t39.5 16.5q252 0 488 79.5t477 238.5q-85 37 -156 70t-132 64q-103 53 -174.5 82.5t-121.5 29.5
q-52 0 -95.5 -48t-93.5 -156q-8 -18 -32 -28.5t-48 4.5q-16 10 -23.5 30.5t2.5 40.5q59 128 124.5 199.5t156.5 71.5zM323 1213q0 27 21 50t58 23q44 0 66 -34q12 -19 12 -41q0 -25 -16.5 -54t-63.5 -29q-31 0 -48 15t-23 34q-6 17 -6 36z" />
    <glyph glyph-name="uniFEA8" unicode="&#x62e;" horiz-adv-x="1321" arabic-form="medial" 
d="M372 779q76 0 167 -38t206 -97q73 -37 163 -78.5t201 -88.5q34 -13 34 -51q0 -31 -26 -47q-57 -39 -112 -74q11 -107 90 -155.5t225 -48.5h1q23 0 39 -16.5t16 -39.5t-16 -39t-39 -16h-1q-161 0 -273.5 61t-143.5 194q-219 -124 -441 -189.5t-462 -65.5q-23 0 -39.5 16.5
t-16.5 38.5q0 23 16.5 39.5t39.5 16.5q252 0 488 79.5t477 238.5q-85 37 -156 70t-132 64q-103 53 -174.5 82.5t-121.5 29.5q-52 0 -95.5 -48t-93.5 -156q-8 -18 -32 -28.5t-48 4.5q-16 10 -23.5 30.5t2.5 40.5q59 128 124.5 199.5t156.5 71.5zM287 1213q0 27 21 50t58 23
q44 0 66 -34q12 -19 12 -41q0 -25 -16.5 -54t-63.5 -29q-31 0 -48 15t-23 34q-6 17 -6 36z" />
    <glyph glyph-name="uniFEAA" unicode="&#x62f;" horiz-adv-x="1121" arabic-form="final" 
d="M115 67q6 22 26 32t43 5q98 -33 205 -33q148 0 234 54t86 172q0 19 -3.5 36.5t-8.5 34.5q-5 15 -12 34q-33 98 -69 174t-89 177q-11 20 -5 43t25 34q20 11 43 5.5t34 -25.5q54 -101 92.5 -181t75.5 -190q33 -94 71 -171t98 -122t159 -45h1q23 0 39 -16.5t16 -39.5
t-16 -39t-39 -16h-1q-119 0 -196.5 49.5t-127.5 122.5q-32 -73 -96 -117.5t-145 -64.5t-166 -20q-62 0 -118.5 8.5t-118.5 29.5q-22 6 -33 26.5t-4 42.5z" />
    <glyph glyph-name="uniFEAC" unicode="&#x630;" horiz-adv-x="1121" arabic-form="final" 
d="M115 67q6 22 26 32t43 5q98 -33 205 -33q148 0 234 54t86 172q0 19 -3.5 36.5t-8.5 34.5q-5 15 -12 34q-33 98 -69 174t-89 177q-11 20 -5 43t25 34q20 11 43 5.5t34 -25.5q54 -101 92.5 -181t75.5 -190q33 -94 71 -171t98 -122t159 -45h1q23 0 39 -16.5t16 -39.5
t-16 -39t-39 -16h-1q-119 0 -196.5 49.5t-127.5 122.5q-32 -73 -96 -117.5t-145 -64.5t-166 -20q-62 0 -118.5 8.5t-118.5 29.5q-22 6 -33 26.5t-4 42.5zM465 1273q0 27 21 50t58 23q44 0 66 -34q12 -19 12 -41q0 -25 -16.5 -54t-63.5 -29q-31 0 -48 15t-23 34q-6 17 -6 36z
" />
    <glyph glyph-name="uniFEAE" unicode="&#x631;" horiz-adv-x="947" arabic-form="final" 
d="M178 -541q-25 -8 -44.5 4t-26.5 32q-7 26 4.5 45t30.5 25q182 62 288 204t106 371q0 76 -12.5 159t-35.5 171l-1 5q-5 21 8 40t34 24q14 3 28 -1q25 -6 36 -30q2 -5 4 -11q31 -125 66 -214t100 -135.5t183 -46.5h1q23 0 39 -16.5t16 -39.5t-16 -39t-39 -16h-1
q-105 0 -177.5 33t-122.5 90q-7 -254 -133.5 -419.5t-334.5 -234.5z" />
    <glyph glyph-name="uniFEB0" unicode="&#x632;" horiz-adv-x="947" arabic-form="final" 
d="M178 -541q-25 -8 -44.5 4t-26.5 32q-7 26 4.5 45t30.5 25q182 62 288 204t106 371q0 76 -12.5 159t-35.5 171l-1 5q-5 21 8 40t34 24q14 3 28 -1q25 -6 36 -30q2 -5 4 -11q31 -125 66 -214t100 -135.5t183 -46.5h1q23 0 39 -16.5t16 -39.5t-16 -39t-39 -16h-1
q-105 0 -177.5 33t-122.5 90q-7 -254 -133.5 -419.5t-334.5 -234.5zM441 1007q0 27 21 50t58 23q44 0 66 -34q12 -19 12 -41q0 -25 -16.5 -54t-63.5 -29q-31 0 -48 15t-23 34q-6 17 -6 36z" />
    <glyph glyph-name="uniFEB2" unicode="&#x633;" horiz-adv-x="2430" arabic-form="final" 
d="M126 -55q0 99 26.5 207.5t71.5 220.5q9 21 30.5 30t42.5 1q22 -9 31 -30.5t0 -42.5q-41 -101 -65 -200t-24 -186q0 -157 102 -259.5t322 -102.5q214 0 318.5 110.5t104.5 282.5q0 87 -21 188t-59 200q-7 21 2 42.5t30 29.5q10 4 21 4q38 -1 51 -36q66 -172 127 -249.5
t147 -77.5q55 0 95 23.5t68 84.5t45 173q3 25 8 56q2 21 19.5 34t38.5 11q21 -3 34 -20.5t10 -37.5q-2 -18 -5 -36q-6 -53 -6 -107q0 -97 58 -141t134 -44q92 0 141.5 64.5t49.5 163.5q0 82 -13 165q-3 14 -5 28q-1 5 -1 11q1 19 13.5 34.5t30.5 18.5h2q25 5 45 -12
q17 -13 20 -33q5 -25 8 -48q22 -130 47.5 -210.5t72.5 -117t135 -36.5h1q23 0 39 -16.5t16 -39.5t-16 -39t-39 -16h-1q-101 0 -166 38t-106 113q-34 -80 -102.5 -130.5t-165.5 -50.5q-85 0 -155.5 40.5t-108.5 111.5q-41 -77 -101 -112.5t-141 -35.5q-106 0 -186 72
q2 -28 2 -54q0 -145 -62.5 -260.5t-182 -182.5t-290.5 -67q-178 0 -297.5 61t-180 168t-60.5 244z" />
    <glyph glyph-name="uniFEB3" unicode="&#x633;" horiz-adv-x="1652" arabic-form="initial" 
d="M-55 45q0 23 16 39.5t39 16.5q136 0 216.5 82t106.5 213q3 29 10 77q3 23 21.5 36.5t40.5 10.5l8 -2q1 0 1 -1h2q20 -7 30 -26q1 -1 1 -2l1 -2q7 -14 5 -31l-1 -7q-2 -23 -6 -46q-7 -54 -7 -101q0 -96 49 -158.5t138 -62.5q112 0 172 92t80 233q2 23 6 50q2 16 12 27l1 1
l1 1q19 20 44 17q14 -2 26 -10q27 -19 22 -51l-1 -4q-1 -19 -4 -37q-3 -30 -3 -55q0 -117 55.5 -189.5t161.5 -72.5q111 0 157.5 66.5t46.5 184.5q0 89 -25 193q-6 23 6 42t34 24q23 5 43 -6.5t26 -34.5q15 -65 21 -114t6 -99q0 -166 -76.5 -266.5t-233.5 -100.5
q-106 0 -180.5 51.5t-112.5 139.5q-46 -87 -119 -140t-173 -53q-98 0 -167.5 55t-100.5 143q-58 -81 -144 -129.5t-197 -48.5q-23 0 -39 16t-16 39z" />
    <glyph glyph-name="uniFEB4" unicode="&#x633;" horiz-adv-x="1817" arabic-form="medial" 
d="M-55 45q0 23 16 39.5t39 16.5q136 0 216.5 82t106.5 213q3 29 10 77q3 23 21.5 36.5t40.5 10.5l8 -2q1 0 1 -1h2q20 -7 30 -26q1 -1 1 -2l1 -2q7 -14 5 -31l-1 -7q-2 -23 -6 -46q-7 -54 -7 -101q0 -96 49 -158.5t138 -62.5q112 0 172 92t80 233q2 23 6 50q2 16 12 27l1 1
l1 1q19 20 44 17q14 -2 26 -10q27 -19 22 -51l-1 -4q-1 -19 -4 -37q-3 -30 -3 -55q0 -117 55.5 -189.5t161.5 -72.5q111 0 157.5 66.5t46.5 184.5q0 89 -25 193q-1 4 -1 8q-3 21 9 37t32 21q22 6 43 -6t26 -35q3 -12 5 -24q29 -124 72.5 -220.5t107.5 -151.5t154 -55h1
q23 0 39 -16.5t16 -39.5t-16 -39t-39 -16h-1q-108 0 -188.5 59.5t-137.5 155.5q-27 -108 -100 -170.5t-196 -62.5q-106 0 -180.5 51.5t-112.5 139.5q-46 -87 -119 -140t-173 -53q-98 0 -167.5 55t-100.5 143q-58 -81 -144 -129.5t-197 -48.5q-23 0 -39 16t-16 39z" />
    <glyph glyph-name="uniFEB6" unicode="&#x634;" horiz-adv-x="2430" arabic-form="final" 
d="M126 -55q0 99 26.5 207.5t71.5 220.5q9 21 30.5 30t42.5 1q22 -9 31 -30.5t0 -42.5q-41 -101 -65 -200t-24 -186q0 -157 102 -259.5t322 -102.5q214 0 318.5 110.5t104.5 282.5q0 87 -21 188t-59 200q-7 21 2 42.5t30 29.5q10 4 21 4q38 -1 51 -36q66 -172 127 -249.5
t147 -77.5q55 0 95 23.5t68 84.5t45 173q3 25 8 56q2 21 19.5 34t38.5 11q21 -3 34 -20.5t10 -37.5q-2 -18 -5 -36q-6 -53 -6 -107q0 -97 58 -141t134 -44q92 0 141.5 64.5t49.5 163.5q0 82 -13 165q-3 14 -5 28q-1 5 -1 11q1 19 13.5 34.5t30.5 18.5h2q25 5 45 -12
q17 -13 20 -33q5 -25 8 -48q22 -130 47.5 -210.5t72.5 -117t135 -36.5h1q23 0 39 -16.5t16 -39.5t-16 -39t-39 -16h-1q-101 0 -166 38t-106 113q-34 -80 -102.5 -130.5t-165.5 -50.5q-85 0 -155.5 40.5t-108.5 111.5q-41 -77 -101 -112.5t-141 -35.5q-106 0 -186 72
q2 -28 2 -54q0 -145 -62.5 -260.5t-182 -182.5t-290.5 -67q-178 0 -297.5 61t-180 168t-60.5 244zM1216 977q0 88 48 140.5t118.5 70.5t141.5 0.5t119 -70.5t48 -142q0 -69 -31 -120q-8 -17 -26 -25t-38 3q-32 21 -15 60q10 17 16 36.5t6 45.5q0 54 -30 86t-74.5 42.5
t-89.5 0t-75 -42.5t-30 -85q0 -56 26.5 -92t69.5 -77q13 -12 10.5 -30t-14.5 -30q-13 -13 -31.5 -10.5t-31.5 15.5q-44 41 -80.5 90.5t-36.5 133.5z" />
    <glyph glyph-name="uniFEB7" unicode="&#x634;" horiz-adv-x="1652" arabic-form="initial" 
d="M-55 45q0 23 16 39.5t39 16.5q136 0 216.5 82t106.5 213q3 29 10 77q3 23 21.5 36.5t40.5 10.5l8 -2q1 0 1 -1h2q20 -7 30 -26q1 -1 1 -2l1 -2q7 -14 5 -31l-1 -7q-2 -23 -6 -46q-7 -54 -7 -101q0 -96 49 -158.5t138 -62.5q112 0 172 92t80 233q2 23 6 50q2 16 12 27l1 1
l1 1q19 20 44 17q14 -2 26 -10q27 -19 22 -51l-1 -4q-1 -19 -4 -37q-3 -30 -3 -55q0 -117 55.5 -189.5t161.5 -72.5q111 0 157.5 66.5t46.5 184.5q0 89 -25 193q-6 23 6 42t34 24q23 5 43 -6.5t26 -34.5q15 -65 21 -114t6 -99q0 -166 -76.5 -266.5t-233.5 -100.5
q-106 0 -180.5 51.5t-112.5 139.5q-46 -87 -119 -140t-173 -53q-98 0 -167.5 55t-100.5 143q-58 -81 -144 -129.5t-197 -48.5q-23 0 -39 16t-16 39zM573 1044q0 88 48 140.5t118.5 70.5t141.5 0.5t119 -70.5t48 -142q0 -69 -31 -120q-8 -17 -26 -25t-38 3q-32 21 -15 60
q10 17 16 36.5t6 45.5q0 54 -30 86t-74.5 42.5t-89.5 0t-75 -42.5t-30 -85q0 -56 26.5 -92t69.5 -77q13 -12 10.5 -30t-14.5 -30q-13 -13 -31.5 -10.5t-31.5 15.5q-44 41 -80.5 90.5t-36.5 133.5z" />
    <glyph glyph-name="uniFEB8" unicode="&#x634;" horiz-adv-x="1817" arabic-form="medial" 
d="M-55 45q0 23 16 39.5t39 16.5q136 0 216.5 82t106.5 213q3 29 10 77q3 23 21.5 36.5t40.5 10.5l8 -2q1 0 1 -1h2q20 -7 30 -26q1 -1 1 -2l1 -2q7 -14 5 -31l-1 -7q-2 -23 -6 -46q-7 -54 -7 -101q0 -96 49 -158.5t138 -62.5q112 0 172 92t80 233q2 23 6 50q2 16 12 27l1 1
l1 1q19 20 44 17q14 -2 26 -10q27 -19 22 -51l-1 -4q-1 -19 -4 -37q-3 -30 -3 -55q0 -117 55.5 -189.5t161.5 -72.5q111 0 157.5 66.5t46.5 184.5q0 89 -25 193q-1 4 -1 8q-3 21 9 37t32 21q22 6 43 -6t26 -35q3 -12 5 -24q29 -124 72.5 -220.5t107.5 -151.5t154 -55h1
q23 0 39 -16.5t16 -39.5t-16 -39t-39 -16h-1q-108 0 -188.5 59.5t-137.5 155.5q-27 -108 -100 -170.5t-196 -62.5q-106 0 -180.5 51.5t-112.5 139.5q-46 -87 -119 -140t-173 -53q-98 0 -167.5 55t-100.5 143q-58 -81 -144 -129.5t-197 -48.5q-23 0 -39 16t-16 39zM573 1044
q0 88 48 140.5t118.5 70.5t141.5 0.5t119 -70.5t48 -142q0 -69 -31 -120q-8 -17 -26 -25t-38 3q-32 21 -15 60q10 17 16 36.5t6 45.5q0 54 -30 86t-74.5 42.5t-89.5 0t-75 -42.5t-30 -85q0 -56 26.5 -92t69.5 -77q13 -12 10.5 -30t-14.5 -30q-13 -13 -31.5 -10.5t-31.5 15.5
q-44 41 -80.5 90.5t-36.5 133.5z" />
    <glyph glyph-name="uniFEBA" unicode="&#x635;" horiz-adv-x="2452" arabic-form="final" 
d="M133 -50q0 181 93 409q9 22 30.5 30.5t42.5 0.5t30.5 -29t0.5 -44q-84 -205 -84 -367q0 -178 111 -272.5t305 -94.5q198 0 314.5 101t116.5 295q0 80 -17 184.5t-65 204.5q-6 14 -4 28q4 32 34 44q5 2 10 3q24 6 44 -9h1q1 -1 2 -1q11 -9 17 -23q34 -82 80.5 -144.5
t108.5 -105.5q1 8 5 16q120 239 270 367.5t325 128.5q142 0 234 -82.5t92 -222.5q0 -83 -37 -154q35 -56 90.5 -84t167.5 -28h1q23 0 39 -16.5t16 -39.5t-16 -39t-39 -16h-1q-120 0 -199 33t-129 96q-78 -75 -201 -117t-275 -42q-147 0 -257.5 37.5t-192.5 107.5
q9 -64 9 -120q0 -159 -68.5 -274t-191 -177t-283.5 -62q-242 0 -386 126.5t-144 351.5zM1406 130q-5 -10 -12 -17q106 -42 253 -42q144 0 250 37t164 102.5t58 148.5q0 95 -63.5 147.5t-161.5 52.5q-271 0 -488 -429z" />
    <glyph glyph-name="uniFEBB" unicode="&#x635;" horiz-adv-x="1694" arabic-form="initial" 
d="M-55 45q0 23 16 39.5t39 16.5q166 0 260 94.5t103 281.5v2v0v0q1 22 15.5 36t34.5 15q23 2 41.5 -12.5t19.5 -39.5q20 -199 139 -292q71 136 160 249t197 180.5t234 67.5q90 0 164.5 -38.5t119 -107.5t44.5 -160q0 -135 -79 -223t-206.5 -131t-271.5 -43q-188 0 -324 62
q-25 -53 -50 -111q-10 -22 -30 -28t-37 3q-35 19 -19 65q25 62 51 120q-89 64 -141 162q-54 -124 -162.5 -193.5t-262.5 -69.5q-23 0 -39 16t-16 39zM1193 571q-103 0 -192 -59.5t-165 -158.5t-138 -216q108 -46 277 -46q118 0 219.5 27.5t164 89t62.5 162.5q0 92 -69 146.5
t-159 54.5z" />
    <glyph glyph-name="uniFEBC" unicode="&#x635;" horiz-adv-x="1791" arabic-form="medial" 
d="M-55 45q0 23 16 39.5t39 16.5q166 0 260 94.5t103 281.5v2v0v0q1 22 15.5 36t34.5 15q23 2 41.5 -12.5t19.5 -39.5q20 -199 139 -292q71 136 160 249t197 180.5t234 67.5q90 0 164.5 -38.5t119 -107.5t44.5 -160q0 -63 -20 -118q33 -83 91 -120.5t187 -37.5h1
q23 0 39 -16.5t16 -39.5t-16 -39t-39 -16h-1q-127 0 -211 40.5t-134 117.5q-76 -85 -202.5 -126.5t-267.5 -41.5q-188 0 -324 62q-25 -53 -50 -111q-10 -22 -30 -28t-37 3q-35 19 -19 65q25 62 51 120q-89 64 -141 162q-54 -124 -162.5 -193.5t-262.5 -69.5q-23 0 -39 16
t-16 39zM1193 571q-103 0 -192 -59.5t-165 -158.5t-138 -216q108 -46 277 -46q118 0 219.5 27.5t164 89t62.5 162.5q0 92 -69 146.5t-159 54.5z" />
    <glyph glyph-name="uniFEBE" unicode="&#x636;" horiz-adv-x="2452" arabic-form="final" 
d="M133 -50q0 181 93 409q9 22 30.5 30.5t42.5 0.5t30.5 -29t0.5 -44q-84 -205 -84 -367q0 -178 111 -272.5t305 -94.5q198 0 314.5 101t116.5 295q0 80 -17 184.5t-65 204.5q-6 14 -4 28q4 32 34 44q5 2 10 3q24 6 44 -9h1q1 -1 2 -1q11 -9 17 -23q34 -82 80.5 -144.5
t108.5 -105.5q1 8 5 16q120 239 270 367.5t325 128.5q142 0 234 -82.5t92 -222.5q0 -83 -37 -154q35 -56 90.5 -84t167.5 -28h1q23 0 39 -16.5t16 -39.5t-16 -39t-39 -16h-1q-120 0 -199 33t-129 96q-78 -75 -201 -117t-275 -42q-147 0 -257.5 37.5t-192.5 107.5
q9 -64 9 -120q0 -159 -68.5 -274t-191 -177t-283.5 -62q-242 0 -386 126.5t-144 351.5zM1406 130q-5 -10 -12 -17q106 -42 253 -42q144 0 250 37t164 102.5t58 148.5q0 95 -63.5 147.5t-161.5 52.5q-271 0 -488 -429zM1843 1089q0 27 21 50t58 23q44 0 66 -34q12 -19 12 -41
q0 -25 -16.5 -54t-63.5 -29q-31 0 -48 15t-23 34q-6 17 -6 36z" />
    <glyph glyph-name="uniFEBF" unicode="&#x636;" horiz-adv-x="1694" arabic-form="initial" 
d="M-55 45q0 23 16 39.5t39 16.5q166 0 260 94.5t103 281.5v2v0v0q1 22 15.5 36t34.5 15q23 2 41.5 -12.5t19.5 -39.5q20 -199 139 -292q71 136 160 249t197 180.5t234 67.5q90 0 164.5 -38.5t119 -107.5t44.5 -160q0 -135 -79 -223t-206.5 -131t-271.5 -43q-188 0 -324 62
q-25 -53 -50 -111q-10 -22 -30 -28t-37 3q-35 19 -19 65q25 62 51 120q-89 64 -141 162q-54 -124 -162.5 -193.5t-262.5 -69.5q-23 0 -39 16t-16 39zM1193 571q-103 0 -192 -59.5t-165 -158.5t-138 -216q108 -46 277 -46q118 0 219.5 27.5t164 89t62.5 162.5q0 92 -69 146.5
t-159 54.5zM1133 1101q0 27 21 50t58 23q44 0 66 -34q12 -19 12 -41q0 -25 -16.5 -54t-63.5 -29q-31 0 -48 15t-23 34q-6 17 -6 36z" />
    <glyph glyph-name="uniFEC0" unicode="&#x636;" horiz-adv-x="1791" arabic-form="medial" 
d="M-55 45q0 23 16 39.5t39 16.5q166 0 260 94.5t103 281.5v2v0v0q1 22 15.5 36t34.5 15q23 2 41.5 -12.5t19.5 -39.5q20 -199 139 -292q71 136 160 249t197 180.5t234 67.5q90 0 164.5 -38.5t119 -107.5t44.5 -160q0 -63 -20 -118q33 -83 91 -120.5t187 -37.5h1
q23 0 39 -16.5t16 -39.5t-16 -39t-39 -16h-1q-127 0 -211 40.5t-134 117.5q-76 -85 -202.5 -126.5t-267.5 -41.5q-188 0 -324 62q-25 -53 -50 -111q-10 -22 -30 -28t-37 3q-35 19 -19 65q25 62 51 120q-89 64 -141 162q-54 -124 -162.5 -193.5t-262.5 -69.5q-23 0 -39 16
t-16 39zM1193 571q-103 0 -192 -59.5t-165 -158.5t-138 -216q108 -46 277 -46q118 0 219.5 27.5t164 89t62.5 162.5q0 92 -69 146.5t-159 54.5zM1133 1101q0 27 21 50t58 23q44 0 66 -34q12 -19 12 -41q0 -25 -16.5 -54t-63.5 -29q-31 0 -48 15t-23 34q-6 17 -6 36z" />
    <glyph glyph-name="uniFEC2" unicode="&#x637;" horiz-adv-x="1619" arabic-form="final" 
d="M112 53q3 22 21.5 36.5t41.5 10.5q106 -15 210 -22q1 2 2 5q23 55 51.5 110t60.5 107q0 5 1 11q7 52 10 125t3 160q0 104 -4 215.5t-12 215.5t-19 184q-4 23 11.5 40.5t35.5 19.5q24 4 42 -11t22 -38q12 -81 20 -182t12 -207t4 -203q0 -89 -3 -165q85 94 188 153t221 59
q136 0 224.5 -81t88.5 -219q0 -59 -17 -111q80 -165 291 -165h1q23 0 39 -16.5t16 -39.5t-16 -39t-39 -16h-1q-111 0 -203 40.5t-152 124.5q-96 -107 -280.5 -151t-406.5 -44q-197 0 -416 30q-24 4 -37 22.5t-11 40.5zM1021 565q-115 0 -213.5 -73t-176.5 -186t-132 -234
q42 -1 83 -1q128 0 244.5 14.5t208.5 48.5t145 91.5t53 142.5q0 88 -60 142.5t-152 54.5z" />
    <glyph glyph-name="uniFEC3" unicode="&#x637;" horiz-adv-x="1178" arabic-form="initial" 
d="M-55 45q0 23 16 39.5t39 16.5h96q22 52 48.5 103.5t56.5 101.5q1 4 1 7q7 52 10 124t3 159q0 104 -4.5 215.5t-12 215.5t-18.5 184q-4 23 11.5 40.5t34.5 19.5q25 4 43 -11t22 -38q11 -81 19 -182t12 -207t4 -203q0 -89 -2 -159q83 91 185.5 148.5t223.5 57.5
q136 0 224 -81.5t88 -218.5q0 -126 -65.5 -203t-176 -116.5t-247 -53t-278.5 -13.5h-278q-23 0 -39 16t-16 38zM722 565q-116 0 -211.5 -68t-170 -174.5t-126.5 -221.5h70q127 0 243.5 8t208 34t145 80t53.5 146q0 91 -59 143.5t-153 52.5z" />
    <glyph glyph-name="uniFEC4" unicode="&#x637;" horiz-adv-x="1269" arabic-form="medial" 
d="M-55 45q0 23 16 39.5t39 16.5h96q22 52 48.5 103.5t56.5 101.5q1 4 1 7q7 52 10 124t3 159q0 104 -4.5 215.5t-12 215.5t-18.5 184q-4 23 11.5 40.5t34.5 19.5q25 4 43 -11t22 -38q11 -81 19 -182t12 -207t4 -203q0 -89 -2 -159q83 91 185.5 148.5t223.5 57.5
q136 0 224 -81.5t88 -218.5q0 -87 -34 -153q69 -123 257 -123h1q23 0 39 -16.5t16 -39.5t-16 -39t-39 -16h-1q-105 0 -190.5 34t-140.5 108q-71 -59 -176.5 -89.5t-230 -41t-252.5 -10.5h-278q-23 0 -39 16t-16 38zM722 565q-116 0 -211.5 -68t-170 -174.5t-126.5 -221.5h70
q127 0 243.5 8t208 34t145 80t53.5 146q0 91 -59 143.5t-153 52.5z" />
    <glyph glyph-name="uniFEC6" unicode="&#x638;" horiz-adv-x="1619" arabic-form="final" 
d="M112 53q3 22 21.5 36.5t41.5 10.5q106 -15 210 -22q1 2 2 5q23 55 51.5 110t60.5 107q0 5 1 11q7 52 10 125t3 160q0 104 -4 215.5t-12 215.5t-19 184q-4 23 11.5 40.5t35.5 19.5q24 4 42 -11t22 -38q12 -81 20 -182t12 -207t4 -203q0 -89 -3 -165q85 94 188 153t221 59
q136 0 224.5 -81t88.5 -219q0 -59 -17 -111q80 -165 291 -165h1q23 0 39 -16.5t16 -39.5t-16 -39t-39 -16h-1q-111 0 -203 40.5t-152 124.5q-96 -107 -280.5 -151t-406.5 -44q-197 0 -416 30q-24 4 -37 22.5t-11 40.5zM1021 565q-115 0 -213.5 -73t-176.5 -186t-132 -234
q42 -1 83 -1q128 0 244.5 14.5t208.5 48.5t145 91.5t53 142.5q0 88 -60 142.5t-152 54.5zM983 1097q0 27 21 50t58 23q44 0 66 -34q12 -19 12 -41q0 -25 -16.5 -54t-63.5 -29q-31 0 -48 15t-23 34q-6 17 -6 36z" />
    <glyph glyph-name="uniFEC7" unicode="&#x638;" horiz-adv-x="1178" arabic-form="initial" 
d="M-55 45q0 23 16 39.5t39 16.5h96q22 52 48.5 103.5t56.5 101.5q1 4 1 7q7 52 10 124t3 159q0 104 -4.5 215.5t-12 215.5t-18.5 184q-4 23 11.5 40.5t34.5 19.5q25 4 43 -11t22 -38q11 -81 19 -182t12 -207t4 -203q0 -89 -2 -159q83 91 185.5 148.5t223.5 57.5
q136 0 224 -81.5t88 -218.5q0 -126 -65.5 -203t-176 -116.5t-247 -53t-278.5 -13.5h-278q-23 0 -39 16t-16 38zM722 565q-116 0 -211.5 -68t-170 -174.5t-126.5 -221.5h70q127 0 243.5 8t208 34t145 80t53.5 146q0 91 -59 143.5t-153 52.5zM690 1097q0 27 21 50t58 23
q44 0 66 -34q12 -19 12 -41q0 -25 -16.5 -54t-63.5 -29q-31 0 -48 15t-23 34q-6 17 -6 36z" />
    <glyph glyph-name="uniFEC8" unicode="&#x638;" horiz-adv-x="1269" arabic-form="medial" 
d="M-55 45q0 23 16 39.5t39 16.5h96q22 52 48.5 103.5t56.5 101.5q1 4 1 7q7 52 10 124t3 159q0 104 -4.5 215.5t-12 215.5t-18.5 184q-4 23 11.5 40.5t34.5 19.5q25 4 43 -11t22 -38q11 -81 19 -182t12 -207t4 -203q0 -89 -2 -159q83 91 185.5 148.5t223.5 57.5
q136 0 224 -81.5t88 -218.5q0 -87 -34 -153q69 -123 257 -123h1q23 0 39 -16.5t16 -39.5t-16 -39t-39 -16h-1q-105 0 -190.5 34t-140.5 108q-71 -59 -176.5 -89.5t-230 -41t-252.5 -10.5h-278q-23 0 -39 16t-16 38zM722 565q-116 0 -211.5 -68t-170 -174.5t-126.5 -221.5h70
q127 0 243.5 8t208 34t145 80t53.5 146q0 91 -59 143.5t-153 52.5zM690 1097q0 27 21 50t58 23q44 0 66 -34q12 -19 12 -41q0 -25 -16.5 -54t-63.5 -29q-31 0 -48 15t-23 34q-6 17 -6 36z" />
    <glyph glyph-name="uniFECA" unicode="&#x639;" horiz-adv-x="1132" arabic-form="final" 
d="M130 -285q0 153 101.5 277t273.5 242q-81 71 -167 161t-188 200l-1 1q-2 2 -4 5q-8 11 -10 26v1v3q-1 12 3 23q5 13 16 22q88 76 200.5 116t231.5 40q102 0 183.5 -30.5t129 -89t47.5 -142.5q0 -98 -65.5 -179t-186.5 -165q94 -63 198 -94.5t239 -31.5h1q23 0 39 -16
t16 -39t-16 -39t-39 -16h-1q-167 0 -293.5 43t-241.5 127q-179 -119 -267.5 -223.5t-88.5 -221.5q0 -103 66 -171t171.5 -101t225.5 -33q109 0 222 22q26 5 44.5 -10.5t20.5 -37.5q2 -20 -10 -38.5t-35 -23.5q-122 -22 -242 -22q-153 0 -283.5 46t-210 138t-79.5 231z
M586 720q-174 0 -314 -93q94 -102 173 -184.5t154 -145.5q125 83 181 147t56 121q0 71 -68.5 113t-181.5 42z" />
    <glyph glyph-name="uniFECB" unicode="&#x639;" horiz-adv-x="1023" arabic-form="initial" 
d="M-56 45q0 23 16.5 39.5t39.5 16.5q99 0 180.5 6.5t164.5 21.5q-96 41 -153 122t-57 188q0 113 53.5 208t143 152.5t198.5 57.5q126 0 227 -65q20 -13 25 -35t-6 -42q-12 -19 -34.5 -24.5t-42.5 6.5q-72 48 -171 48q-77 0 -143 -42t-106.5 -111.5t-40.5 -151.5
q0 -103 80.5 -169.5t210.5 -66.5q51 0 106 4t122 12q32 5 67 9q21 2 39.5 -10t22.5 -33q1 -1 1 -3q4 -22 -8 -40.5t-36 -23.5q-20 -3 -38 -5q-62 -9 -121.5 -22t-131.5 -31q-101 -26 -188 -42t-174 -22.5t-190 -6.5q-23 0 -39.5 16t-16.5 39z" />
    <glyph glyph-name="uniFECC" unicode="&#x639;" horiz-adv-x="1094" arabic-form="medial" 
d="M-56 45q0 23 16.5 39.5t39.5 16.5q105 0 236.5 27t252.5 73q-88 66 -174.5 149t-178.5 178q-18 20 -12 47q3 16 14 27q80 78 197 126.5t247 48.5q100 0 184.5 -33t135.5 -96t51 -154q0 -92 -67.5 -170.5t-172.5 -140.5q83 -40 176 -61t204 -21h1q23 0 39 -16.5t16 -39.5
t-16 -39t-39 -16h-1q-145 0 -265.5 35.5t-227.5 100.5q-99 -44 -206 -74t-209 -46t-185 -16q-23 0 -39.5 16t-16.5 39zM579 664q-173 0 -318 -105q92 -98 174.5 -175.5t165.5 -134.5q104 51 171.5 114t67.5 131q0 75 -70.5 122.5t-190.5 47.5z" />
    <glyph glyph-name="uniFECE" unicode="&#x63a;" horiz-adv-x="1132" arabic-form="final" 
d="M130 -285q0 153 101.5 277t273.5 242q-81 71 -167 161t-188 200l-1 1q-2 2 -4 5q-8 11 -10 26v1v3q-1 12 3 23q5 13 16 22q88 76 200.5 116t231.5 40q102 0 183.5 -30.5t129 -89t47.5 -142.5q0 -98 -65.5 -179t-186.5 -165q94 -63 198 -94.5t239 -31.5h1q23 0 39 -16
t16 -39t-16 -39t-39 -16h-1q-167 0 -293.5 43t-241.5 127q-179 -119 -267.5 -223.5t-88.5 -221.5q0 -103 66 -171t171.5 -101t225.5 -33q109 0 222 22q26 5 44.5 -10.5t20.5 -37.5q2 -20 -10 -38.5t-35 -23.5q-122 -22 -242 -22q-153 0 -283.5 46t-210 138t-79.5 231z
M586 720q-174 0 -314 -93q94 -102 173 -184.5t154 -145.5q125 83 181 147t56 121q0 71 -68.5 113t-181.5 42zM435 1264q0 27 21 50t58 23q44 0 66 -34q12 -19 12 -41q0 -25 -16.5 -54t-63.5 -29q-31 0 -48 15t-23 34q-6 17 -6 36z" />
    <glyph glyph-name="uniFECF" unicode="&#x63a;" horiz-adv-x="1023" arabic-form="initial" 
d="M-56 45q0 23 16.5 39.5t39.5 16.5q99 0 180.5 6.5t164.5 21.5q-96 41 -153 122t-57 188q0 113 53.5 208t143 152.5t198.5 57.5q126 0 227 -65q20 -13 25 -35t-6 -42q-12 -19 -34.5 -24.5t-42.5 6.5q-72 48 -171 48q-77 0 -143 -42t-106.5 -111.5t-40.5 -151.5
q0 -103 80.5 -169.5t210.5 -66.5q51 0 106 4t122 12q32 5 67 9q21 2 39.5 -10t22.5 -33q1 -1 1 -3q4 -22 -8 -40.5t-36 -23.5q-20 -3 -38 -5q-62 -9 -121.5 -22t-131.5 -31q-101 -26 -188 -42t-174 -22.5t-190 -6.5q-23 0 -39.5 16t-16.5 39zM448 1310q0 27 21 50t58 23
q44 0 66 -34q12 -19 12 -41q0 -25 -16.5 -54t-63.5 -29q-31 0 -48 15t-23 34q-6 17 -6 36z" />
    <glyph glyph-name="uniFED0" unicode="&#x63a;" horiz-adv-x="1094" arabic-form="medial" 
d="M-56 45q0 23 16.5 39.5t39.5 16.5q105 0 236.5 27t252.5 73q-88 66 -174.5 149t-178.5 178q-18 20 -12 47q3 16 14 27q80 78 197 126.5t247 48.5q100 0 184.5 -33t135.5 -96t51 -154q0 -92 -67.5 -170.5t-172.5 -140.5q83 -40 176 -61t204 -21h1q23 0 39 -16.5t16 -39.5
t-16 -39t-39 -16h-1q-145 0 -265.5 35.5t-227.5 100.5q-99 -44 -206 -74t-209 -46t-185 -16q-23 0 -39.5 16t-16.5 39zM579 664q-173 0 -318 -105q92 -98 174.5 -175.5t165.5 -134.5q104 51 171.5 114t67.5 131q0 75 -70.5 122.5t-190.5 47.5zM509 1232q0 27 21 50t58 23
q44 0 66 -34q12 -19 12 -41q0 -25 -16.5 -54t-63.5 -29q-31 0 -48 15t-23 34q-6 17 -6 36z" />
    <glyph glyph-name="uniFED2" unicode="&#x641;" horiz-adv-x="1857" arabic-form="final" 
d="M111 346q0 57 13 122t41 135q10 21 32 29t43 -2q43 -21 27 -74q-19 -53 -31 -109.5t-12 -100.5q0 -114 72.5 -173.5t206.5 -80.5t318 -21q133 0 254.5 13t222.5 42q-93 60 -148.5 147t-55.5 202q0 105 42 187.5t115 130t166 47.5q152 0 238.5 -101.5t86.5 -254.5
q0 -115 -53 -202.5t-144 -149.5q68 -16 146.5 -23.5t164.5 -7.5h1q23 0 39 -16.5t16 -39.5t-16 -39t-39 -16h-1q-118 0 -229.5 18.5t-206.5 56.5q-126 -55 -281.5 -80t-317.5 -25q-128 0 -254 11t-229 48.5t-165 115.5t-62 211zM1205 475q0 -109 57.5 -183.5t157.5 -118.5
q97 48 153 124.5t56 186.5q0 111 -53.5 177t-158.5 66q-92 0 -152 -68.5t-60 -183.5zM1311 1309q0 27 21 50t58 23q44 0 66 -34q12 -19 12 -41q0 -25 -16.5 -54t-63.5 -29q-31 0 -48 15t-23 34q-6 17 -6 36z" />
    <glyph glyph-name="uniFED3" unicode="&#x641;" horiz-adv-x="924" arabic-form="initial" 
d="M-55 45q0 23 16 39.5t39 16.5q161 0 283.5 7t193.5 29q75 20 121.5 47t68.5 74.5t24 131.5q-6 -3 -12 -5q-58 -17 -120.5 -26t-117.5 -9q-145 0 -231.5 68t-86.5 216q0 109 36.5 202.5t105 151t165.5 57.5q126 0 207.5 -89t121 -234t39.5 -315q0 -157 -60 -233t-194 -120
q-88 -37 -228 -50.5t-316 -13.5q-23 0 -39 16t-16 39zM225 645q0 -102 58.5 -146.5t157.5 -44.5q49 0 105 9t105 24q20 6 38 -5q-7 127 -36.5 229t-84.5 162t-136 60q-67 0 -113 -40.5t-70 -106.5t-24 -141zM352 1571q0 27 21 50t58 23q44 0 66 -34q12 -19 12 -41
q0 -25 -16.5 -54t-63.5 -29q-31 0 -48 15t-23 34q-6 17 -6 36z" />
    <glyph glyph-name="uniFED4" unicode="&#x641;" horiz-adv-x="944" arabic-form="medial" 
d="M-55 45q0 23 16 39.5t39 16.5q93 0 182 11.5t168 34.5q-96 64 -154 152t-58 199q0 100 44.5 181.5t122 130.5t175.5 49q99 0 173 -49.5t114.5 -132.5t40.5 -183q0 -110 -60 -197t-158 -150q157 -46 353 -46h1q23 0 39 -16.5t16 -39.5t-16 -39t-39 -16h-1
q-124 0 -246.5 23.5t-226.5 69.5q-106 -46 -228 -69.5t-242 -23.5q-23 0 -39 16t-16 39zM249 498q0 -104 60 -180t161 -125q102 48 163.5 123.5t61.5 177.5q0 107 -57 179.5t-158 72.5t-166 -72t-65 -176zM414 1309q0 27 21 50t58 23q44 0 66 -34q12 -19 12 -41
q0 -25 -16.5 -54t-63.5 -29q-31 0 -48 15t-23 34q-6 17 -6 36z" />
    <glyph glyph-name="uniFED6" unicode="&#x642;" horiz-adv-x="1521" arabic-form="final" 
d="M742 1056q-5 18 3.5 35.5t27.5 22.5q53 19 126.5 28t144.5 9q131 0 206 -29q19 -10 25 -29.5t-5 -37.5q-21 -32 -54 -21q-28 10 -75 15.5t-97 5.5q-69 0 -134.5 -7.5t-108.5 -22.5q-19 -6 -36.5 4t-22.5 27zM997 680q88 0 152 -50t106 -134t64 -187t25 -208h177
q23 0 39 -16.5t16 -39.5t-16 -39t-39 -16h-181q-24 -240 -190 -378.5t-436 -138.5q-172 0 -302 58t-203 170t-73 273q0 120 27 238t66 215q8 20 29.5 30t43.5 1q21 -8 30 -29t1 -43q-34 -85 -60 -193t-26 -215q0 -201 128 -297t338 -96q228 0 362.5 104.5t157.5 300.5h-235
q-151 0 -233 70.5t-82 215.5q0 105 38.5 197t109 149.5t166.5 57.5zM998 101h238q-2 79 -17.5 161.5t-44.5 152.5t-73.5 112.5t-105.5 42.5q-62 0 -109 -39.5t-72.5 -104.5t-25.5 -142q0 -100 53.5 -141.5t156.5 -41.5z" />
    <glyph glyph-name="uniFED7" unicode="&#x642;" horiz-adv-x="924" arabic-form="initial" 
d="M-55 45q0 23 16 39.5t39 16.5q161 0 283.5 7t193.5 29q75 20 121.5 47t68.5 74.5t24 131.5q-6 -3 -12 -5q-58 -17 -120.5 -26t-117.5 -9q-145 0 -231.5 68t-86.5 216q0 109 36.5 202.5t105 151t165.5 57.5q126 0 207.5 -89t121 -234t39.5 -315q0 -157 -60 -233t-194 -120
q-88 -37 -228 -50.5t-316 -13.5q-23 0 -39 16t-16 39zM225 645q0 -102 58.5 -146.5t157.5 -44.5q49 0 105 9t105 24q20 6 38 -5q-7 127 -36.5 229t-84.5 162t-136 60q-67 0 -113 -40.5t-70 -106.5t-24 -141zM162 1471q-5 18 3.5 35.5t27.5 22.5q53 19 126.5 28t144.5 9
q131 0 206 -29q19 -10 25 -29.5t-5 -37.5q-21 -32 -54 -21q-28 10 -75 15.5t-97 5.5q-69 0 -134.5 -7.5t-108.5 -22.5q-19 -6 -36.5 4t-22.5 27z" />
    <glyph glyph-name="uniFED8" unicode="&#x642;" horiz-adv-x="944" arabic-form="medial" 
d="M-55 45q0 23 16 39.5t39 16.5q93 0 182 11.5t168 34.5q-96 64 -154 152t-58 199q0 100 44.5 181.5t122 130.5t175.5 49q99 0 173 -49.5t114.5 -132.5t40.5 -183q0 -110 -60 -197t-158 -150q157 -46 353 -46h1q23 0 39 -16.5t16 -39.5t-16 -39t-39 -16h-1
q-124 0 -246.5 23.5t-226.5 69.5q-106 -46 -228 -69.5t-242 -23.5q-23 0 -39 16t-16 39zM249 498q0 -104 60 -180t161 -125q102 48 163.5 123.5t61.5 177.5q0 107 -57 179.5t-158 72.5t-166 -72t-65 -176zM222 1240q-5 18 3.5 35.5t27.5 22.5q53 19 126.5 28t144.5 9
q131 0 206 -29q19 -10 25 -29.5t-5 -37.5q-21 -32 -54 -21q-28 10 -75 15.5t-97 5.5q-69 0 -134.5 -7.5t-108.5 -22.5q-19 -6 -36.5 4t-22.5 27z" />
    <glyph glyph-name="uniFEDA" unicode="&#x643;" horiz-adv-x="1800" arabic-form="final" 
d="M111 368q0 60 14.5 120.5t39.5 113.5q11 21 33 28.5t42 -2.5q44 -21 26 -75q-19 -44 -30.5 -94.5t-11.5 -94.5q0 -123 75 -186t202.5 -84.5t283.5 -21.5t282 36.5t200 116t74 206.5q0 117 -5 256.5t-14 275.5t-23 241q-3 23 11.5 41.5t36.5 20.5q23 3 41 -11t21 -37
q15 -109 25 -247t15 -279t5 -261q0 -118 46.5 -190.5t125 -106t173.5 -33.5h1q23 0 39 -16.5t16 -39.5t-16 -39t-39 -16h-1q-126 0 -236 53.5t-169 163.5q-79 -128 -243 -187.5t-365 -59.5q-136 0 -258 17t-216 61t-147.5 124t-53.5 206zM948 1084q-3 -33 -36 -30
q-12 1 -22.5 1h-21.5q-94 0 -149.5 -41.5t-55.5 -95.5q0 -42 36.5 -62t89.5 -36q39 -11 79 -27.5t67 -46.5t27 -83q0 -55 -37.5 -94t-99.5 -59.5t-134 -20.5q-25 0 -49.5 1t-49.5 3q-32 4 -30 36q4 36 39 32q23 -2 46 -3.5t45 -1.5q77 0 139 27.5t62 78.5q0 38 -34 57.5
t-87 35.5q-38 11 -79 28t-69.5 49t-28.5 86q0 57 36.5 103.5t98.5 74t138 27.5q22 0 49 -3q14 -1 23.5 -11.5t7.5 -24.5z" />
    <glyph glyph-name="uniFEDB" unicode="&#x643;" horiz-adv-x="1054" arabic-form="initial" 
d="M-56 45q0 23 16.5 39.5t39.5 16.5q102 0 196.5 7t168 28.5t116.5 64.5t43 114q0 60 -36.5 133t-95.5 151.5t-127 154.5t-132 141q-15 15 -23 26.5t-8 30.5q0 41 42 54l719 243q28 9 49 -1t28 -33q15 -55 -37 -70l-650 -216q90 -96 178 -203t146 -212t58 -197
q0 -101 -50 -165t-137.5 -99.5t-202.5 -49t-245 -13.5q-23 0 -39.5 16t-16.5 39z" />
    <glyph glyph-name="uniFEDC" unicode="&#x643;" horiz-adv-x="1143" arabic-form="medial" 
d="M-56 45q0 23 16.5 39.5t39.5 16.5q102 0 196.5 7t168 28.5t116.5 64.5t43 114q0 60 -36.5 133t-95.5 151.5t-127 154.5t-132 141q-15 15 -23 26.5t-8 30.5q0 41 42 54l719 243q28 9 49 -1t28 -33q15 -55 -37 -70l-650 -216q103 -111 203.5 -235.5t148.5 -240.5
q44 -99 88.5 -166.5t102.5 -108.5t141.5 -59t204.5 -18h1q23 0 39 -16.5t16 -39.5t-16 -39t-39 -16h-1q-202 0 -321.5 52t-203.5 168q-35 -89 -124.5 -136.5t-217 -65.5t-275.5 -18q-23 0 -39.5 16t-16.5 39z" />
    <glyph glyph-name="uniFEDE" unicode="&#x644;" horiz-adv-x="1448" arabic-form="final" 
d="M111 -20q0 105 30.5 207.5t70.5 182.5q11 20 33 27.5t43 -2.5t28 -32.5t-3 -43.5q-34 -70 -61.5 -161.5t-27.5 -177.5q0 -157 99.5 -253.5t287.5 -96.5q166 0 259 63t131 179t38 276q0 257 -13.5 512t-34.5 547q-1 23 14 40.5t38 19.5t40.5 -13.5t18.5 -38.5
q17 -234 30 -443.5t17 -415.5q10 -103 41.5 -158.5t93.5 -76t163 -20.5h1q23 0 39 -16.5t16 -39.5t-16 -39t-39 -16h-1q-94 0 -169 22t-128 72q-8 -157 -62 -285.5t-169.5 -205t-307.5 -76.5q-150 0 -262.5 58.5t-175 163t-62.5 241.5z" />
    <glyph glyph-name="uniFEDF" unicode="&#x644;" horiz-adv-x="494" arabic-form="initial" 
d="M-55 45q0 23 16 39.5t39 16.5q142 0 191 97.5t49 272.5q0 132 -4.5 240t-15 223.5t-30.5 269.5q-3 23 11.5 41.5t36.5 20.5q23 3 41.5 -11t20.5 -37q19 -143 30 -256.5t16 -225t5 -250.5q0 -240 -75 -368t-276 -128q-23 0 -39 16t-16 39z" />
    <glyph glyph-name="uniFEE0" unicode="&#x644;" horiz-adv-x="674" arabic-form="medial" 
d="M-55 45q0 23 16 39.5t39 16.5q147 0 214.5 60t67.5 208q0 154 -5.5 290.5t-15 269.5t-23.5 277q-2 23 13 41t37 20q23 2 41 -12.5t20 -37.5q20 -214 32 -410.5t12 -427.5q1 -5 1 -10q0 -145 74 -206.5t205 -61.5h1q23 0 39 -16.5t16 -39.5t-16 -39t-39 -16h-1
q-107 0 -194.5 39t-138.5 119q-48 -80 -135 -119t-205 -39q-23 0 -39 16t-16 39z" />
    <glyph glyph-name="uniFEE2" unicode="&#x645;" horiz-adv-x="1352" arabic-form="final" 
d="M751 619q108 0 180 -55.5t108 -145.5t36 -193v-5q32 -44 65.5 -70t82.5 -37.5t128 -11.5h1q24 0 39.5 -16.5t15.5 -39.5q0 -22 -15.5 -38.5t-39.5 -16.5h-1q-110 0 -182 24.5t-125 73.5q-41 -76 -127 -106t-192 -30q-78 0 -159 11.5t-152 24.5q-86 15 -130 -0.5
t-40 -88.5l37 -657q2 -25 -15 -42.5t-41 -17.5q-22 0 -38 15t-17 37l-38 677q-6 131 79 174t221 15q73 -15 149.5 -26t148.5 -11q98 0 166.5 32.5t68.5 134.5q0 72 -23.5 135.5t-71 103.5t-119.5 40q-78 0 -133.5 -47t-89.5 -122t-49 -160q-9 -46 -54 -44q-23 1 -39.5 19
t-11.5 44q18 103 65 199.5t125 158.5t187 62z" />
    <glyph glyph-name="uniFEE3" unicode="&#x645;" horiz-adv-x="1114" arabic-form="initial" 
d="M-55 45q0 23 16 39.5t39 16.5q77 0 135 46t104.5 118.5t86.5 152.5q21 42 50 87q39 64 94 130q14 18 38.5 19.5t41.5 -13.5q21 -17 18 -45v-2v0q-2 -18 -13 -31q-25 -30 -55 -70.5t-54 -81.5q-54 -97 -54 -174q0 -72 50.5 -119t147.5 -47q121 0 172.5 50t51.5 123
q0 141 -183 313q-16 17 -17 40t15 40t39.5 17.5t39.5 -15.5q106 -101 162 -204t56 -203q0 -119 -84.5 -195.5t-249.5 -76.5q-121 0 -197.5 53t-98.5 142q-54 -69 -126.5 -117t-169.5 -48q-23 0 -39 16t-16 39z" />
    <glyph glyph-name="uniFEE4" unicode="&#x645;" horiz-adv-x="1239" arabic-form="medial" 
d="M-55 45q0 23 16 39.5t39 16.5q77 0 135 46t104.5 118.5t86.5 152.5q21 42 50 87q39 64 94 130q14 18 38.5 19.5t41.5 -13.5q21 -17 18 -45v-2v0q-2 -18 -13 -31q-25 -30 -55 -70.5t-54 -81.5q-54 -97 -54 -174q0 -72 45 -119t153 -47q110 0 167 50t57 123q0 94 -85 205
q-29 38 -64 75q-16 16 -34 33q-3 3 -5 6q-15 15 -13.5 37.5t15.5 35.5l1 1l1 1l1 1l1 1q1 1 2 1q1 2 3 3h1q2 2 4 3v0q7 4 14 6h1h4l1 1h4h2h3h3h1q3 0 5 -1v0q3 0 5 -1v0q5 -1 10 -4v0l4 -2l1 -1q2 -1 3 -2q1 0 1 -1q2 -1 4 -3q64 -61 109 -122q78 -98 114 -197
q25 -67 59.5 -116t93.5 -76t154 -27h1q23 0 39 -16.5t16 -39.5t-16 -39t-39 -16h-1q-127 0 -206 39.5t-126 101.5q-32 -78 -113.5 -124.5t-200.5 -46.5q-130 0 -203.5 53t-93.5 141q-53 -68 -125.5 -116t-169.5 -48q-23 0 -39 16t-16 39z" />
    <glyph glyph-name="uniFEE6" unicode="&#x646;" horiz-adv-x="1526" arabic-form="final" 
d="M721 -480q-179 0 -309.5 62.5t-200.5 176t-70 266.5q0 93 18 190t48 198q8 23 29 32.5t42 1.5q21 -7 32 -27.5t3 -43.5q-27 -91 -43.5 -177.5t-16.5 -166.5q0 -189 120 -295t343 -106q224 0 346.5 104.5t122.5 286.5q0 94 -23 191.5t-61 206.5q-9 23 0.5 43.5t30.5 28.5
t42 -1t31 -31q12 -34 23.5 -68t20.5 -68q45 -136 111 -179.5t165 -43.5h1q23 0 39 -16.5t16 -39.5t-16 -39t-39 -16h-1q-65 0 -122.5 16t-105.5 52q1 -23 1 -45q0 -149 -70 -260t-199.5 -172t-307.5 -61zM634 364q0 27 21 50t58 23q44 0 66 -34q12 -19 12 -41
q0 -25 -16.5 -54t-63.5 -29q-31 0 -48 15t-23 34q-6 17 -6 36z" />
    <glyph glyph-name="uniFEE7" unicode="&#x646;" horiz-adv-x="560" arabic-form="initial" 
d="M-55 45q0 23 16 39.5t39 16.5q155 0 227.5 51.5t72.5 192.5q0 46 -7.5 127t-24.5 151q-4 23 10 42t36 23q23 4 41.5 -9.5t22.5 -36.5q19 -75 27.5 -159.5t8.5 -137.5q0 -185 -104.5 -270t-309.5 -85q-23 0 -39 16t-16 39zM125 1026q0 27 21 50t58 23q44 0 66 -34
q12 -19 12 -41q0 -25 -16.5 -54t-63.5 -29q-31 0 -48 15t-23 34q-6 17 -6 36z" />
    <glyph glyph-name="uniFEE8" unicode="&#x646;" horiz-adv-x="811" arabic-form="medial" 
d="M-56 45q0 23 16.5 39.5t39.5 16.5q152 0 228.5 37.5t102.5 126t26 241.5q2 26 19.5 41t40.5 13q23 -1 38.5 -18t13.5 -40q0 -150 24 -237.5t97 -125.5t220 -38h1q23 0 39 -16.5t16 -39.5t-16 -39t-39 -16h-1q-176 0 -269 53.5t-127 183.5q-45 -130 -140 -183.5
t-274 -53.5q-23 0 -39.5 16t-16.5 39zM161 936q0 27 21 50t58 23q44 0 66 -34q12 -19 12 -41q0 -25 -16.5 -54t-63.5 -29q-31 0 -48 15t-23 34q-6 17 -6 36z" />
    <glyph glyph-name="uniFEEA" unicode="&#x647;" horiz-adv-x="1100" arabic-form="final" 
d="M151 372q0 84 43.5 149.5t114 117.5t150.5 93q70 38 128 77t68 84l-3 28q-2 23 13 40.5t37 19.5q23 2 41 -12.5t20 -37.5l50 -550q12 -126 44.5 -185.5t92 -77t149.5 -17.5h1q23 0 39 -16.5t16 -39.5t-16 -39t-39 -16h-1q-127 0 -210 34t-128 117t-59 230l-33 362
q-33 -27 -74.5 -52t-87.5 -50q-61 -34 -117 -71t-91 -82t-35 -103q0 -77 76.5 -114.5t205.5 -37.5q40 0 83 6q23 3 41.5 -10.5t21.5 -36.5q3 -22 -11 -41t-37 -22q-25 -4 -50 -5.5t-48 -1.5q-175 0 -285 64.5t-110 195.5z" />
    <glyph glyph-name="uniFEEB" unicode="&#x647;" horiz-adv-x="1359" arabic-form="initial" 
d="M-55 45q0 23 16 39.5t39 16.5q90 0 174.5 7t159.5 24q-87 55 -140.5 129.5t-53.5 166.5q0 102 47 189.5t125.5 141.5t171.5 54q59 0 108.5 -24.5t86.5 -65.5h6q252 -31 388 -144t136 -293q0 -133 -98 -214.5t-253 -81.5q-95 0 -195.5 18.5t-192.5 54.5
q-101 -38 -222 -55.5t-248 -17.5q-23 0 -39 16t-16 39zM249 436q0 -85 64 -151t163 -109q95 40 151.5 108t56.5 168q0 64 -25 120.5t-70 92t-105 35.5q-63 0 -116.5 -36.5t-86 -96.5t-32.5 -131zM776 454q0 -108 -46 -187.5t-126 -134.5q124 -31 252 -31q116 0 183 52
t67 138q0 104 -94 188.5t-261 120.5q25 -71 25 -146z" />
    <glyph glyph-name="uniFEEC" unicode="&#x647;" horiz-adv-x="990" arabic-form="medial" 
d="M-55 45q0 23 16 39.5t39 16.5q69 0 133 8q-1 13 -1 27q0 113 22.5 229.5t71 214.5t127 158t189.5 60q76 0 126.5 -37t75.5 -94.5t25 -120.5q0 -107 -60 -213t-175 -190t-281 -124q17 -119 63 -217.5t109.5 -157.5t132.5 -59q68 0 96.5 50.5t28.5 124.5q0 61 -16 125.5
t-39 113.5q-5 14 -9 26t-4 21q0 23 16 39t40 16h319q23 0 39 -16.5t16 -39.5t-16 -39t-39 -16h-242q18 -49 28.5 -106.5t10.5 -115.5q0 -69 -21 -137.5t-70.5 -113.5t-133.5 -45q-83 0 -152.5 45.5t-123.5 122t-90 170t-52 189.5q-70 -9 -144 -9q-23 0 -39 16t-16 39z
M245 136v-7q141 35 233.5 102.5t138.5 148.5t46 156q0 62 -30.5 104.5t-98.5 42.5q-94 0 -158.5 -74t-97.5 -198.5t-33 -274.5z" />
    <glyph glyph-name="uniFEEE" unicode="&#x648;" horiz-adv-x="951" arabic-form="final" 
d="M488 -10q-153 0 -246 68.5t-93 217.5q0 95 40 186t110.5 150.5t163.5 59.5q81 0 144.5 -44t107.5 -116.5t67 -160t23 -173.5q0 -39 -4 -77h150q23 0 39 -16.5t16 -39.5t-16 -39t-39 -16h-171q-38 -136 -126.5 -243.5t-213.5 -180.5t-273 -108q-23 -4 -42 9t-24 35
q-5 23 8.5 41.5t35.5 24.5q195 50 332 158t190 264h-179zM487 101h205q4 36 4 73q0 61 -15 128.5t-44.5 127t-73.5 96.5t-102 37q-62 0 -109 -43.5t-72.5 -108t-25.5 -127.5q0 -103 64.5 -143t168.5 -40z" />
    <glyph glyph-name="uniFEF0" unicode="&#x649;" horiz-adv-x="1390" arabic-form="final" 
d="M126 -67q0 120 29 245t78 260q8 22 29 31.5t43 1.5q21 -7 31 -28t2 -43q-46 -127 -72.5 -245.5t-26.5 -219.5q0 -119 45 -206.5t147.5 -134.5t274.5 -47q217 0 329.5 68t112.5 152q0 74 -90.5 136.5t-286.5 86.5q-19 2 -33 17t-16 34q-2 24 14.5 42t40.5 18h613
q23 0 39 -16.5t16 -39.5t-16 -39t-39 -16h-345q104 -41 156.5 -103t52.5 -134q0 -87 -67.5 -159.5t-191 -116t-292.5 -43.5q-200 0 -327.5 63.5t-188.5 176.5t-61 259z" />
    <glyph glyph-name="uniFEF2" unicode="&#x64a;" horiz-adv-x="1390" arabic-form="final" 
d="M126 -67q0 120 29 245t78 260q8 22 29 31.5t43 1.5q21 -7 31 -28t2 -43q-46 -127 -72.5 -245.5t-26.5 -219.5q0 -119 45 -206.5t147.5 -134.5t274.5 -47q217 0 329.5 68t112.5 152q0 74 -90.5 136.5t-286.5 86.5q-19 2 -33 17t-16 34q-2 24 14.5 42t40.5 18h613
q23 0 39 -16.5t16 -39.5t-16 -39t-39 -16h-345q104 -41 156.5 -103t52.5 -134q0 -87 -67.5 -159.5t-191 -116t-292.5 -43.5q-200 0 -327.5 63.5t-188.5 176.5t-61 259zM429 -998q-5 18 3.5 35.5t27.5 22.5q53 19 126.5 28t144.5 9q131 0 206 -29q19 -10 25 -29.5t-5 -37.5
q-21 -32 -54 -21q-28 10 -75 15.5t-97 5.5q-69 0 -134.5 -7.5t-108.5 -22.5q-19 -6 -36.5 4t-22.5 27z" />
    <glyph glyph-name="uniFEF3" unicode="&#x64a;" horiz-adv-x="560" arabic-form="initial" 
d="M-55 45q0 23 16 39.5t39 16.5q155 0 227.5 51.5t72.5 192.5q0 46 -7.5 127t-24.5 151q-4 23 10 42t36 23q23 4 41.5 -9.5t22.5 -36.5q19 -75 27.5 -159.5t8.5 -137.5q0 -185 -104.5 -270t-309.5 -85q-23 0 -39 16t-16 39zM-170 -475q-5 18 3.5 35.5t27.5 22.5
q53 19 126.5 28t144.5 9q131 0 206 -29q19 -10 25 -29.5t-5 -37.5q-21 -32 -54 -21q-28 10 -75 15.5t-97 5.5q-69 0 -134.5 -7.5t-108.5 -22.5q-19 -6 -36.5 4t-22.5 27z" />
    <glyph glyph-name="uniFEF4" unicode="&#x64a;" horiz-adv-x="811" arabic-form="medial" 
d="M-56 45q0 23 16.5 39.5t39.5 16.5q152 0 228.5 37.5t102.5 126t26 241.5q2 26 19.5 41t40.5 13q23 -1 38.5 -18t13.5 -40q0 -150 24 -237.5t97 -125.5t220 -38h1q23 0 39 -16.5t16 -39.5t-16 -39t-39 -16h-1q-176 0 -269 53.5t-127 183.5q-45 -130 -140 -183.5
t-274 -53.5q-23 0 -39.5 16t-16.5 39zM-170 -475q-5 18 3.5 35.5t27.5 22.5q53 19 126.5 28t144.5 9q131 0 206 -29q19 -10 25 -29.5t-5 -37.5q-21 -32 -54 -21q-28 10 -75 15.5t-97 5.5q-69 0 -134.5 -7.5t-108.5 -22.5q-19 -6 -36.5 4t-22.5 27z" />
    <glyph glyph-name=".notdef" horiz-adv-x="1024" 
d="M102 -410v2048h820v-2048h-820zM204 -308h616v1844h-616v-1844z" />
    <glyph glyph-name=".null" 
 />
    <glyph glyph-name="nonmarkingreturn" horiz-adv-x="682" 
 />
    <glyph glyph-name="space" unicode=" " horiz-adv-x="300" 
 />
    <glyph glyph-name="exclam" unicode="!" horiz-adv-x="593" 
d="M253 1416q23 3 41 -11t21 -37q28 -200 37 -388t9 -405v-60.5t-1 -63.5q-1 -23 -17.5 -38.5t-39.5 -15.5t-39.5 16t-15.5 39q1 32 1.5 63t0.5 60q0 216 -9 399.5t-36 379.5q-3 23 11.5 41t36.5 21zM399 85q0 -31 -22.5 -63t-68.5 -32q-31 0 -67.5 21t-36.5 73q0 41 29 71
t71 30q45 0 70 -32t25 -68z" />
    <glyph glyph-name="quotedbl" unicode="&#x22;" horiz-adv-x="568" 
d="M404 877q-32 4 -30 37q11 97 11 212q0 117 -11 232q-2 32 30 36q14 2 25 -7t12 -23q5 -56 7.5 -116.5t2.5 -121.5q0 -117 -11 -219q-1 -13 -12 -22t-24 -8zM167 877q-32 4 -30 37q11 97 11 212q0 117 -11 232q-2 32 30 36q14 2 25 -7t12 -23q5 -56 7.5 -116.5t2.5 -121.5
q0 -117 -11 -219q-1 -13 -12 -22t-24 -8z" />
    <glyph glyph-name="numbersign" unicode="#" horiz-adv-x="1744" 
d="M418 -63q-22 6 -34.5 26t-6.5 42l88 358l-296 -1q-23 0 -39 16.5t-16 39.5t16.5 39t39.5 16l323 1l113 460l-344 -2q-23 0 -39 16t-16 39t15.5 39.5t38.5 16.5l372 2l84 339q7 23 26.5 35t41.5 6q23 -7 35 -26.5t6 -41.5l-77 -311l457 3l62 323q5 22 24.5 35.5t41.5 8.5
q22 -4 35.5 -23.5t8.5 -41.5l-58 -302l264 2q23 0 39.5 -16t16.5 -39t-16 -39.5t-39 -16.5l-286 -2l-88 -460l310 1q23 0 39 -16.5t16 -39.5t-16.5 -39t-39.5 -16l-330 -1l-72 -377q-4 -22 -23.5 -35.5t-41.5 -9.5q-22 5 -35.5 24.5t-9.5 41.5l68 355l-495 -2l-95 -387
q-6 -22 -26 -34.5t-42 -5.5zM722 935l-113 -460l488 2l88 461z" />
    <glyph glyph-name="dollar" unicode="$" horiz-adv-x="1122" 
d="M950 1232q-12 -19 -34.5 -25.5t-42.5 5.5q-76 43 -138 60.5t-135 17.5h-15v-574q419 -133 419 -394q0 -156 -114 -253t-305 -108v-139q0 -14 -10.5 -24.5t-24.5 -10.5t-24.5 10.5t-10.5 24.5v138q-103 3 -205.5 28t-186.5 71q-20 12 -26.5 34.5t4.5 41.5q12 20 34.5 26.5
t42.5 -4.5q70 -39 160 -60.5t177 -24.5v548q-194 63 -287 158.5t-93 231.5q0 156 104 261t276 127v221q0 14 10.5 24.5t24.5 10.5t24.5 -10.5t10.5 -24.5v-216h14q87 0 163 -22t167 -72q20 -12 26 -34.5t-5 -42.5zM246 1010q0 -90 63 -154.5t206 -116.5v545
q-124 -20 -196.5 -92.5t-72.5 -181.5zM891 312q0 184 -306 286v-526q141 9 223.5 73t82.5 167z" />
    <glyph glyph-name="percent" unicode="%" horiz-adv-x="1480" 
d="M125 1211q0 65 36 113.5t93.5 75.5t121.5 27q102 0 162.5 -65t60.5 -164q0 -66 -29.5 -123.5t-81.5 -92.5t-122 -35q-71 0 -125.5 39t-85 99.5t-30.5 125.5zM1200 1382q18 -13 20.5 -35.5t-9.5 -42.5l-858 -1342q-13 -19 -34 -27t-41 2q-20 11 -29 33t4 41l869 1360
q13 20 36.5 22.5t41.5 -11.5zM212 1211q0 -68 46.5 -122.5t107.5 -54.5q63 0 104.5 47t41.5 117q0 142 -136 142q-71 0 -117.5 -39.5t-46.5 -89.5zM1091 -83q-64 0 -113.5 36t-77 93.5t-27.5 121.5q0 101 65 163t165 62q66 0 123.5 -29.5t93 -82.5t35.5 -123
q0 -71 -39.5 -125.5t-100 -85t-124.5 -30.5zM1091 5q68 0 122.5 46t54.5 107q0 63 -48 105t-117 42q-143 0 -143 -137q0 -71 40 -117t91 -46z" />
    <glyph glyph-name="ampersand" unicode="&#x26;" horiz-adv-x="1384" 
d="M214 268q0 128 82.5 225.5t195.5 177.5q-91 110 -136.5 206.5t-45.5 190.5q0 154 95 247.5t248 93.5q99 0 176 -39.5t121.5 -109t44.5 -159.5q0 -97 -47 -174.5t-123 -142.5t-165 -124q78 -85 178.5 -180t220.5 -201q36 44 69.5 95.5t66.5 109.5q12 21 33.5 28t41.5 -3
t28.5 -31.5t-2.5 -42.5q-36 -65 -73.5 -123t-78.5 -107q34 -29 68.5 -58.5t70.5 -60.5q18 -15 19.5 -38t-12.5 -40q-15 -17 -37.5 -19.5t-40.5 12.5q-38 32 -73.5 62.5t-70.5 59.5q-84 -78 -187.5 -121t-239.5 -43q-121 0 -217.5 35t-153 104t-56.5 170zM422 1082
q0 -73 44 -159t126 -185q73 47 139.5 99t109.5 116t43 144q0 89 -62 144.5t-166 55.5q-105 0 -169.5 -58.5t-64.5 -156.5zM328 270q0 -103 87 -152t215 -49q111 0 196.5 33.5t155.5 95.5q-131 114 -236 211.5t-185 183.5q-92 -65 -162.5 -143t-70.5 -180z" />
    <glyph glyph-name="quotesingle" unicode="'" horiz-adv-x="341" 
d="M167 877q-32 4 -30 37q11 97 11 212q0 117 -11 232q-2 32 30 36q14 2 25 -7t12 -23q5 -56 7.5 -116.5t2.5 -121.5q0 -117 -11 -219q-1 -13 -12 -22t-24 -8z" />
    <glyph glyph-name="parenleft" unicode="(" horiz-adv-x="616" 
d="M395 1463q21 -10 28.5 -32.5t-2.5 -43.5q-62 -128 -95.5 -235t-46 -218t-12.5 -252q0 -136 23.5 -246t68 -217.5t108.5 -239.5q10 -21 2.5 -43t-28.5 -33q-21 -10 -43 -2t-32 28q-64 132 -111.5 247t-74 236.5t-26.5 269.5q0 145 14 265t49.5 237.5t101.5 252.5
q11 21 33 28.5t43 -2.5z" />
    <glyph glyph-name="parenright" unicode=")" horiz-adv-x="616" 
d="M231 -97q-20 11 -28 33t2 43q63 128 96.5 235t46 218.5t12.5 251.5q0 137 -23.5 246.5t-68.5 217.5t-109 239q-10 21 -2 43.5t28 32.5q21 10 43.5 2.5t32.5 -28.5q64 -131 111.5 -246.5t74 -236.5t26.5 -270q0 -144 -14 -264.5t-50 -238t-102 -252.5q-10 -20 -32.5 -28
t-43.5 2z" />
    <glyph glyph-name="asterisk" unicode="*" horiz-adv-x="1118" 
d="M173 639q-13 15 -11 35.5t18 33.5q69 58 140.5 109t144.5 96q-76 41 -154.5 76.5t-158.5 66.5q-19 7 -27.5 25t-1.5 37t25.5 27.5t37.5 1.5q84 -31 166.5 -68t162.5 -80q-1 83 -4.5 169t-11.5 173q-2 20 11.5 35.5t32.5 17.5q20 2 35.5 -11.5t17.5 -33.5q8 -91 12 -177.5
t5 -172.5q80 44 162.5 80.5t166.5 67.5q19 7 37 -1.5t25 -27.5t-1 -37t-27 -25q-81 -31 -159.5 -66.5t-154.5 -76.5q73 -45 144.5 -96t140.5 -109q16 -13 18 -33.5t-11 -35.5t-33.5 -17.5t-35.5 10.5q-130 107 -272 196q-1 -89 -5.5 -175t-11.5 -175q-2 -19 -17.5 -32.5
t-35.5 -12.5q-19 2 -32.5 18t-11.5 35q13 166 15 341q-69 -43 -137.5 -92t-134.5 -103q-15 -13 -35.5 -10.5t-33.5 17.5z" />
    <glyph glyph-name="plus" unicode="+" horiz-adv-x="1094" 
d="M135 434q-3 23 11.5 41.5t36.5 20.5q82 10 161 16t157 9q-2 70 -7.5 140.5t-14.5 142.5q-3 23 11.5 41.5t36.5 21.5q23 2 41.5 -12t20.5 -37q9 -76 15 -149.5t8 -145.5h36q128 0 258 -6q23 -1 38.5 -18.5t14.5 -40.5t-18.5 -38t-40.5 -14q-127 6 -252 6h-33v-59
q0 -127 -6 -258q-1 -23 -18 -38.5t-40 -14.5t-38.5 18.5t-14.5 40.5q6 127 6 252v57q-76 -3 -152.5 -8.5t-154.5 -15.5q-22 -3 -41 11.5t-21 36.5z" />
    <glyph glyph-name="comma" unicode="," horiz-adv-x="488" 
d="M94 -255q-19 11 -25.5 34t5.5 42l230 396q11 20 34 26t42 -6q20 -11 26 -33.5t-6 -42.5l-230 -396q-11 -19 -33.5 -25.5t-42.5 5.5z" />
    <glyph glyph-name="hyphen" unicode="-" horiz-adv-x="1094" 
d="M135 434q-3 23 11.5 41.5t36.5 20.5q120 15 235 21t230 6q128 0 258 -6q23 -1 38.5 -18.5t14.5 -40.5t-18.5 -38t-40.5 -14q-127 6 -252 6q-112 0 -223.5 -6t-227.5 -20q-22 -3 -41 11.5t-21 36.5z" />
    <glyph glyph-name="period" unicode="." horiz-adv-x="490" 
d="M159 87q0 35 26 62.5t66 27.5q44 0 62.5 -30t18.5 -53q0 -34 -22.5 -65t-63.5 -31q-49 0 -68 33t-19 56z" />
    <glyph glyph-name="slash" unicode="/" horiz-adv-x="975" 
d="M181 -48q-19 12 -23.5 33.5t4.5 43.5l558 1344q9 21 27 34.5t40 8.5q23 -5 37.5 -25t5.5 -42l-572 -1378q-9 -21 -33 -26t-44 7z" />
    <glyph glyph-name="zero" unicode="0" horiz-adv-x="1171" 
d="M124 515q0 114 15.5 237.5t50 239.5t90.5 208.5t137 147.5t189 55q141 0 242 -82.5t155 -218t54 -294.5q0 -152 -27.5 -302.5t-88.5 -274t-162 -197.5t-248 -74q-142 0 -232 75t-132.5 201t-42.5 279zM237 498q0 -122 29.5 -218.5t94 -152.5t169.5 -56q118 0 198 64
t128 171t69 238.5t21 267.5q0 129 -40.5 237.5t-116 174.5t-180.5 66q-84 0 -146 -48.5t-105.5 -131t-70 -185.5t-38.5 -213.5t-12 -213.5z" />
    <glyph glyph-name="one" unicode="1" horiz-adv-x="845" 
d="M606 -55q-23 0 -39.5 16t-15.5 39l8 1196q-82 -62 -175 -113t-179 -85q-22 -9 -43.5 -2.5t-31.5 27.5t-3.5 44.5t28.5 31.5q104 39 219 107t200 148l5 5q16 13 36 13q4 0 7 -1q18 -2 31 -14q17 -15 18 -40v-1v-1v-1l-9 -1314q-1 -23 -17 -39.5t-39 -15.5z" />
    <glyph glyph-name="two" unicode="2" horiz-adv-x="1201" 
d="M228 890q-56 0 -56 63q0 125 52.5 226t149.5 161t228 60q120 0 216.5 -56t153 -149.5t56.5 -205.5q0 -114 -59.5 -218t-158.5 -206t-218 -210l-267 -245q84 7 168.5 10t169.5 3q89 0 174 -3t177 -8q23 -1 38 -17.5t14 -39.5t-18 -38.5t-40 -14.5q-102 5 -187 7.5
t-175 2.5q-237 0 -460 -22q-28 -3 -46 17q-16 17 -14.5 40t17.5 39l377 350q176 165 287 297t111 258q0 82 -42.5 149.5t-114.5 107.5t-162 40q-98 0 -169 -47t-108.5 -126.5t-37.5 -177.5q0 -47 -56 -47z" />
    <glyph glyph-name="three" unicode="3" horiz-adv-x="1123" 
d="M137 162q15 17 38 19.5t41 -11.5q119 -99 299 -99q104 0 187 44t131.5 118t48.5 164q-4 134 -99 186t-236 52q-22 0 -44 -1.5t-43 -4.5q-30 -5 -63 -10q-3 0 -7 -1q-20 -4 -37 8l-1 1q-1 0 -2 1q-17 13 -20 34q-1 6 0 12q3 24 24 37q0 1 1 1q1 1 3 2q1 0 1 1q2 1 4 1h1
q4 2 9 3q22 4 46 8t49 7q99 19 182 52t133.5 88t50.5 139q0 146 -71.5 211.5t-165.5 65.5q-112 0 -190 -58.5t-110 -166.5q-10 -20 -32.5 -26.5t-42.5 3.5q-20 11 -26.5 33.5t3.5 41.5q46 135 151.5 210.5t250.5 75.5q90 0 169 -43.5t128 -131t49 -220.5q0 -110 -59 -181
t-146 -114q102 -31 175.5 -104.5t77.5 -206.5q0 -129 -68 -229t-179.5 -156.5t-243.5 -56.5q-96 0 -189.5 30t-169.5 92q-18 15 -20 38.5t12 41.5z" />
    <glyph glyph-name="four" unicode="4" horiz-adv-x="1308" 
d="M896 728q23 -2 37.5 -20t12.5 -41l-30 -270q116 16 209 39q22 5 42.5 -7.5t25.5 -34.5t-7.5 -42t-34.5 -25q-112 -27 -247 -45l-32 -287q-3 -22 -20.5 -37t-40.5 -13q-22 2 -37.5 20.5t-12.5 40.5l29 264q-155 -15 -313.5 -13.5t-293.5 20.5q-8 0 -22 7
q-21 13 -25.5 37.5t9.5 43.5q44 59 102.5 149.5t123.5 198t127.5 219.5t115 217t86.5 188q9 22 30.5 31t42.5 0q22 -9 31 -30.5t0 -42.5q-40 -99 -103 -222t-136 -251t-145 -243.5t-130 -199.5q117 -11 250 -9.5t263 14.5l32 294q2 23 20.5 37.5t40.5 12.5z" />
    <glyph glyph-name="five" unicode="5" horiz-adv-x="1163" 
d="M1018 1349q5 -22 -7.5 -42t-35.5 -25q-104 -22 -315 -22q-91 0 -179.5 4t-155.5 14l-40 -438q61 43 131.5 64t141.5 21q124 0 231 -48t173.5 -150.5t66.5 -266.5q0 -156 -69 -268t-185 -172t-257 -60q-101 0 -196.5 32t-176.5 96q-17 14 -20 38t11 41q14 18 37.5 20.5
t41.5 -11.5q137 -105 306 -105q111 0 201 45t143 130.5t53 207.5q0 133 -51.5 212.5t-137 115.5t-186.5 36q-162 0 -286 -106q-10 -6 -20.5 -10.5t-22.5 -4.5q-24 0 -38 17.5t-12 43.5l56 589q2 23 22.5 38t45.5 10q56 -10 159.5 -16t208.5 -6q200 0 295 19q23 5 42.5 -7.5
t24.5 -35.5z" />
    <glyph glyph-name="six" unicode="6" horiz-adv-x="1149" 
d="M1025 418q2 -126 -56 -230t-159.5 -166t-231.5 -62q-230 0 -337 170.5t-107 467.5q0 99 13 206t46 208.5t91.5 183t148 129.5t216.5 48q112 0 241 -38q22 -7 33.5 -27.5t4.5 -42.5t-27.5 -33.5t-42.5 -4.5q-117 35 -209 35q-134 0 -217.5 -74t-126.5 -196.5t-54 -269.5
q67 53 161 94t199 41q104 0 198 -47.5t154 -145t62 -246.5zM578 71q98 0 174.5 46.5t120 125t41.5 173.5q-2 121 -47.5 194.5t-116.5 107t-150 33.5q-77 0 -147 -28.5t-124 -69.5t-82 -78q4 -262 83.5 -383t247.5 -121z" />
    <glyph glyph-name="seven" unicode="7" horiz-adv-x="1110" 
d="M125 1262q-2 23 13.5 40t38.5 19l754 49q24 2 41.5 -15t17.5 -41q0 -15 -5 -25q-89 -178 -158.5 -394t-121 -447t-88.5 -457q-4 -22 -22.5 -36t-41.5 -10q-22 4 -36 23t-10 41q35 212 82 430t110.5 425.5t145.5 387.5l-661 -42q-23 -2 -40 13.5t-19 38.5z" />
    <glyph glyph-name="eight" unicode="8" horiz-adv-x="1109" 
d="M134 285q0 114 59.5 219.5t159.5 204.5q-90 75 -154.5 165t-64.5 193q0 96 49 172t133.5 120t190.5 44q155 0 258.5 -80.5t150.5 -206.5q36 9 57 -24q13 -19 10.5 -40.5t-21.5 -33.5q-117 -71 -230 -146.5t-209 -154.5q15 -10 31 -21q76 -49 152.5 -116t128 -145
t51.5 -160q0 -98 -51.5 -167.5t-135 -106.5t-180.5 -37q-110 0 -197 39t-137.5 111.5t-50.5 170.5zM245 1067q0 -76 58 -149t132 -134q83 71 181 139.5t202 134.5q-34 103 -110 168.5t-201 65.5q-114 0 -188 -65t-74 -160zM245 285q0 -100 77.5 -155t196.5 -55
q103 0 179 52.5t76 147.5q0 56 -47.5 117t-115 118t-129.5 101q-23 16 -43 31q-88 -86 -141 -175.5t-53 -181.5z" />
    <glyph glyph-name="nine" unicode="9" horiz-adv-x="1088" 
d="M540 1368q138 0 231 -75.5t140.5 -205t47.5 -292.5q0 -130 -31 -259.5t-90 -245t-143.5 -205t-190.5 -139.5q-25 -13 -47 -1.5t-29 33.5q-8 22 2 40.5t26 26.5q126 60 216.5 189t135.5 284q-54 -22 -111.5 -31.5t-139.5 -9.5q-198 0 -313.5 110.5t-115.5 318.5
q0 126 49 231t141 168t222 63zM239 906q0 -167 83.5 -243t234.5 -76q94 0 156 17.5t125 51.5q10 71 10 139q0 132 -34 236.5t-102 165.5t-172 61q-98 0 -165 -48.5t-101.5 -128.5t-34.5 -175z" />
    <glyph glyph-name="colon" unicode=":" horiz-adv-x="490" 
d="M159 916q0 35 26 62.5t66 27.5q44 0 62.5 -30t18.5 -53q0 -34 -22.5 -65t-63.5 -31q-49 0 -68 33t-19 56zM159 393q0 35 26 62.5t66 27.5q44 0 62.5 -30t18.5 -53q0 -34 -22.5 -65t-63.5 -31q-49 0 -68 33t-19 56z" />
    <glyph glyph-name="semicolon" unicode=";" horiz-adv-x="600" 
d="M252 916q0 35 26 62.5t66 27.5q44 0 62.5 -30t18.5 -53q0 -34 -22.5 -65t-63.5 -31q-49 0 -68 33t-19 56zM94 -232q-19 11 -25.5 34t5.5 42l230 396q11 20 34 26t42 -6q20 -11 26 -33.5t-6 -42.5l-230 -396q-11 -19 -33.5 -25.5t-42.5 5.5z" />
    <glyph glyph-name="less" unicode="&#x3c;" horiz-adv-x="655" 
d="M517 277q-14 -9 -31.5 -4.5t-26.5 18.5q-107 176 -257 306q-15 13 -13 33.5t14 30.5q74 62 138.5 137.5t116.5 167.5q9 15 26.5 19.5t31.5 -3.5q15 -9 19.5 -26t-3.5 -32q-51 -88 -110.5 -160t-128.5 -135q68 -64 128 -137.5t110 -156.5q9 -14 4.5 -31.5t-18.5 -26.5z
" />
    <glyph glyph-name="equal" unicode="=" horiz-adv-x="1047" 
d="M128 829q2 17 16 28.5t30 9.5q57 -5 131.5 -8t145.5 -4.5t116 -1.5q82 0 165 4t152 10q17 2 31 -10t15 -29q2 -16 -10 -29.5t-29 -15.5q-70 -6 -154.5 -10t-169.5 -4q-46 0 -118 1.5t-148 4.5t-135 8q-16 2 -27.5 16t-10.5 30zM129 429q3 17 18 27t31 7q24 -5 83 -8
t127.5 -4.5t119.5 -1.5q79 0 179 3.5t197 10.5q17 2 31 -9.5t15 -29.5q2 -17 -10 -30t-30 -15q-98 -7 -199 -11.5t-183 -4.5q-54 0 -122.5 1.5t-129.5 5.5t-94 10q-16 3 -26.5 18t-6.5 31z" />
    <glyph glyph-name="greater" unicode="&#x3e;" horiz-adv-x="655" 
d="M148 982q14 9 32 4.5t26 -18.5q107 -176 257 -306q15 -13 13 -33.5t-14 -30.5q-74 -61 -138 -136.5t-117 -168.5q-9 -15 -26 -19.5t-32 3.5q-15 9 -19.5 26t4.5 32q50 88 110 160.5t128 135.5q-67 64 -127.5 137t-110.5 156q-9 14 -4.5 32t18.5 26z" />
    <glyph glyph-name="question" unicode="?" horiz-adv-x="1165" 
d="M191 1186q-17 26 -7.5 50.5t27.5 40.5q57 59 162 99.5t217 40.5q107 0 191 -41.5t132 -115.5t48 -173q0 -104 -60.5 -179t-160.5 -149q-78 -58 -115.5 -112t-37.5 -120q0 -25 7 -50q8 -25 -8 -44t-36 -23q-27 -5 -44 7.5t-23 34.5q-9 27 -9 76q0 95 48 164t134 133
q101 74 147.5 134.5t46.5 132.5q0 98 -74 156t-190 58q-89 0 -176.5 -34.5t-132.5 -85.5q-19 -18 -45 -19.5t-41 19.5zM641 89q0 -41 -29.5 -70t-71.5 -29q-40 0 -70 28t-30 71q0 42 29 72t71 30q43 0 72 -30.5t29 -71.5z" />
    <glyph glyph-name="at" unicode="@" horiz-adv-x="2276" 
d="M1700 -305q12 -19 6.5 -42t-25.5 -35q-113 -70 -245 -109t-275 -39q-207 0 -387 66t-317 189t-214 294t-77 381q0 163 52.5 318t148 289.5t224 236.5t282 159.5t321.5 57.5q188 0 354 -67t292.5 -188t198.5 -284.5t72 -357.5q0 -85 -22.5 -187t-70.5 -195t-125 -152.5
t-187 -59.5q-97 0 -165 66.5t-101 156.5q-55 -96 -149 -164.5t-238 -68.5q-121 0 -213 54.5t-144 147.5t-52 210q0 180 74.5 317t197.5 214.5t268 77.5q94 0 188.5 -31t181.5 -94q27 -20 22 -53l-52 -357q0 -3 -1 -5q-6 -54 -6 -97q0 -68 25.5 -128t68 -96.5t92.5 -36.5
q67 0 121.5 43.5t94 114.5t60.5 156t21 167q0 169 -62.5 312.5t-173.5 249.5t-257 165t-313 59q-147 0 -283 -51.5t-251 -143t-200.5 -212t-133 -259.5t-47.5 -284q0 -184 67 -334.5t186.5 -259t280.5 -167t348 -58.5q127 0 244.5 35t217.5 98q20 12 42.5 6.5t34.5 -25.5z
M1460 783q-133 85 -276 85q-110 0 -208 -60t-158.5 -171t-60.5 -265q0 -132 80.5 -216.5t215.5 -84.5q115 0 190 60t116.5 150.5t54.5 181.5z" />
    <glyph glyph-name="A" unicode="A" horiz-adv-x="1376" 
d="M162 -59q-21 9 -29.5 31t1.5 43l538 1324q10 22 33.5 30t44.5 -4q18 -11 25 -29l478 -1316q8 -21 -1 -42.5t-31 -29.5q-21 -8 -42.5 1t-29.5 31l-127 353l-635 12l-151 -376q-9 -21 -31 -29.5t-43 1.5zM720 1172l-288 -716l550 -11z" />
    <glyph glyph-name="B" unicode="B" horiz-adv-x="1178" 
d="M1060 356q0 -118 -47 -195t-125.5 -121t-172.5 -62t-189 -18q-82 0 -162.5 11.5t-151.5 34.5l-2 1q-29 9 -36 38q-4 13 0 26q11 146 16 302.5t5 297.5q0 175 -6.5 318t-17.5 279q-3 12 0 24q6 32 38 42q81 30 171 49.5t178 19.5q108 0 204 -44t156 -123.5t60 -186.5
q0 -123 -67.5 -200.5t-165.5 -122.5q144 -31 229.5 -120.5t85.5 -249.5zM558 1290q-66 0 -137 -12.5t-137 -35.5q9 -117 15 -241t7 -270q107 10 207 30t180 56t127 94.5t47 145.5q0 100 -88 166.5t-221 66.5zM561 641q-27 0 -72.5 -2.5t-95 -5.5t-87.5 -6q-1 -124 -5.5 -260
t-13.5 -266q117 -30 239 -30q118 0 213 25.5t151.5 87.5t56.5 172q0 156 -95.5 220.5t-290.5 64.5z" />
    <glyph glyph-name="C" unicode="C" horiz-adv-x="1261" 
d="M1102 1269q-9 -21 -31 -29.5t-43 1.5q-111 49 -239 49q-173 0 -295.5 -84.5t-187 -227t-64.5 -316.5q0 -170 63.5 -304t185 -210.5t294.5 -76.5q148 0 275 67q20 11 43 4t33 -27q11 -20 3.5 -42t-27.5 -33q-154 -80 -327 -80q-203 0 -350 92t-226.5 251t-79.5 359
q0 152 45 286t130.5 236t208 160.5t276.5 58.5q73 0 145 -14.5t140 -45.5q21 -9 29.5 -31t-1.5 -43z" />
    <glyph glyph-name="D" unicode="D" horiz-adv-x="1319" 
d="M230 1380q100 23 201 23q224 0 397.5 -79t272.5 -235t99 -388q0 -155 -54.5 -289.5t-152.5 -236t-229.5 -158.5t-286.5 -57q-144 0 -272 50q-19 8 -28 25t-7 34q22 167 33.5 362.5t11.5 379.5q0 99 -3 177.5t-9 156.5t-16 174q-3 23 11 40t32 21zM303 1277
q12 -124 17.5 -227.5t5.5 -238.5q0 -175 -10 -359t-30 -349q93 -32 191 -32q175 0 313 83.5t218.5 226t80.5 320.5q0 297 -176.5 443t-481.5 146q-66 0 -128 -13z" />
    <glyph glyph-name="E" unicode="E" horiz-adv-x="1138" 
d="M130 688q-3 23 11.5 41.5t36.5 20.5q15 2 29 3q4 108 4 207q0 72 -2 127.5t-7 110t-14 120.5q-2 17 12.5 41t45.5 22q63 -4 126 -6t125 -2q116 0 237.5 9.5t216.5 31.5q22 5 42 -7.5t25 -34.5t-7.5 -42t-34.5 -25q-106 -25 -232 -35t-247 -10q-48 0 -96 2t-95 4
q9 -80 13.5 -147.5t4.5 -158.5q0 -93 -4 -196q97 7 205 7q182 0 366 -23q23 -2 37 -20.5t12 -41.5q-3 -22 -21 -36.5t-41 -11.5q-87 11 -175 15.5t-178 4.5q-55 0 -107 -1.5t-103 -4.5q-6 -97 -14.5 -189.5t-19.5 -170.5q-3 -24 -3 -47q0 -68 36 -100t103 -40.5t162.5 -6
t213.5 2.5h78t75 1q23 0 40 -16t18 -39q0 -23 -16.5 -39.5t-39.5 -16.5q-38 -1 -76.5 -1h-78.5q-82 0 -169 -3t-168.5 2.5t-146.5 30t-103.5 78t-38.5 147.5q0 31 4 62q10 72 18 158t13 176q-5 0 -10 -1q-22 -3 -41 11.5t-21 36.5z" />
    <glyph glyph-name="F" unicode="F" horiz-adv-x="1132" 
d="M130 634q-3 23 11.5 41.5t36.5 20.5q19 2 39 5q-2 161 -9 302.5t-25 293.5q-2 17 12.5 41t45.5 22q62 -4 124.5 -5.5t125.5 -1.5q116 0 237.5 9t216.5 31q22 5 42 -7.5t25 -34.5t-7.5 -42t-34.5 -25q-106 -25 -232 -34.5t-247 -9.5q-48 0 -95.5 1.5t-94.5 3.5
q14 -135 20.5 -263.5t7.5 -270.5q92 6 185 6q91 0 181 -6t180 -17q23 -2 37 -20.5t11 -41.5q-2 -22 -20.5 -36.5t-41.5 -11.5q-86 11 -173.5 16.5t-173.5 5.5q-91 0 -184 -7v-16q0 -155 -8.5 -304t-23.5 -285q-3 -22 -21 -37t-41 -12q-22 2 -37 20.5t-12 40.5
q15 131 22.5 278.5t7.5 298.5v6q-12 -1 -25 -3q-22 -3 -41 11.5t-21 36.5z" />
    <glyph glyph-name="G" unicode="G" horiz-adv-x="1389" 
d="M657 649q0 23 16.5 39.5t39.5 16.5h496q23 0 39 -16.5t17 -35.5q2 -30 3.5 -58.5t1.5 -57.5q0 -159 -49 -290t-164.5 -209t-315.5 -78q-169 0 -308 75t-221.5 226t-82.5 378q0 152 39.5 289.5t120.5 244.5t205.5 168.5t293.5 61.5q170 0 308 -102q19 -14 22 -36.5
t-11 -41.5q-13 -19 -36 -22t-42 10q-105 79 -241 79q-186 0 -307 -85t-180 -232t-59 -334q0 -200 66.5 -325.5t179.5 -184t253 -58.5q176 0 267.5 64.5t122.5 182.5t24 276h-442q-23 0 -39.5 16t-16.5 39z" />
    <glyph glyph-name="H" unicode="H" horiz-adv-x="1359" 
d="M1200 651q-1 -23 -18.5 -38t-40.5 -14q-12 1 -24 1l6 -621q0 -23 -16 -39.5t-39 -16.5t-39.5 16t-16.5 39l-6 626q-106 4 -224.5 7t-234 5.5t-211.5 2.5q-2 -157 -8 -313.5t-16 -309.5q-1 -23 -19 -38.5t-41 -13.5q-22 2 -37.5 19.5t-14.5 39.5q10 151 15.5 306t8.5 311
q-23 1 -38.5 17t-15.5 39t16 40t39 17q1 145 -0.5 290.5t-5.5 291.5q-1 23 14.5 39.5t38.5 17.5t40 -15t17 -39q4 -146 6 -292.5t1 -293.5q97 -1 212 -3.5t233 -5.5t224 -7l-5 600q0 23 16 39.5t39 16.5t39.5 -16t16.5 -39l5 -606q16 0 31 -1q23 -1 38.5 -18.5t14.5 -40.5z
" />
    <glyph glyph-name="I" unicode="I" horiz-adv-x="475" 
d="M224 -55q-23 0 -39 16.5t-15 39.5l35 1361q0 23 16.5 39t39.5 16q23 -1 39 -17.5t16 -39.5l-35 -1361q-1 -23 -17.5 -39t-39.5 -15z" />
    <glyph glyph-name="J" unicode="J" horiz-adv-x="720" 
d="M143 1317q0 23 16 39.5t39 16.5h377q23 0 40 -16.5t17 -39.5t-17 -39t-40 -16h-77q30 -240 44 -471t14 -491q0 -95 -28.5 -172.5t-94 -122.5t-175.5 -45q-39 0 -77 3q-22 2 -37.5 19.5t-13.5 39.5q2 23 20 38.5t40 13.5q33 -3 68 -3q111 0 149 53t38 176q0 261 -14 491
t-45 471h-188q-23 0 -39 16t-16 39z" />
    <glyph glyph-name="K" unicode="K" horiz-adv-x="1222" 
d="M224 -55q-23 0 -39 16.5t-15 39.5l17 643l-3 3q-12 14 -11.5 36.5t16.5 38.5l16 639q0 23 16.5 39t39.5 16q23 -1 39 -17.5t16 -39.5l-15 -567q184 115 362.5 270.5t307.5 329.5q14 18 36.5 22t41.5 -10t22.5 -37t-10.5 -41q-98 -132 -221.5 -253t-258 -223.5
t-266.5 -180.5q164 -178 363 -336t410 -286q19 -12 24 -34.5t-8 -42.5q-12 -19 -34.5 -24.5t-42.5 7.5q-195 118 -383.5 264t-348.5 311l-14 -529q-1 -23 -17.5 -39t-39.5 -15z" />
    <glyph glyph-name="L" unicode="L" horiz-adv-x="1156" 
d="M240 1372q23 2 40 -13.5t19 -38.5q8 -126 12.5 -248.5t4.5 -241.5q0 -184 -8.5 -365.5t-22.5 -364.5l697 -22q23 -1 39 -17.5t16 -39.5q-1 -23 -17.5 -39t-39.5 -15l-756 23q-22 0 -39 17.5t-15 41.5q15 198 24 391.5t9 389.5q0 118 -3.5 238.5t-11.5 244.5
q-2 23 13.5 40t38.5 19z" />
    <glyph glyph-name="M" unicode="M" horiz-adv-x="1639" 
d="M209 -55q-22 2 -37 20.5t-12 40.5l137 1300q2 24 22 39t43 10q17 -3 28.5 -15.5t15.5 -24.5q33 -114 85 -244.5t110.5 -252t107.5 -211.5q62 -109 103 -109q19 0 42.5 22.5t54.5 74.5q42 74 87.5 170.5t87 200t72.5 198t44 163.5q5 24 26 37t45 6q19 -5 29 -21.5
t11 -30.5q7 -192 21 -356t36 -316t52 -303.5t69 -317.5q5 -22 -7 -42t-35 -25q-22 -5 -42 7t-25 34q-42 180 -73.5 343t-53 331.5t-34.5 361.5q-24 -78 -60 -169.5t-77 -178.5t-82 -155q-39 -67 -82.5 -112.5t-105.5 -45.5q-67 0 -113 53t-84 122q-37 66 -79.5 151
t-82.5 178.5t-70 182.5l-112 -1067q-3 -22 -21 -37t-41 -12z" />
    <glyph glyph-name="N" unicode="N" horiz-adv-x="1347" 
d="M222 -55q-23 1 -38 18t-14 40q17 334 29 654t16 660q0 24 18 40.5t42 14.5q12 -1 23 -7.5t17 -14.5q207 -272 395 -561.5t353 -579.5l14 1153q0 23 16.5 39t39.5 16q23 -1 39 -17t16 -39l-15 -1357q-1 -13 -7 -26t-18 -21q-19 -13 -43.5 -7t-36.5 27q-164 296 -351 593.5
t-394 578.5q-5 -293 -16.5 -576t-25.5 -576q-1 -23 -18.5 -38t-40.5 -14z" />
    <glyph glyph-name="O" unicode="O" horiz-adv-x="1525" 
d="M738 -40q-176 0 -313.5 84t-216.5 231.5t-79 337.5q0 153 50.5 295t143 253.5t220 176.5t281.5 65q139 0 247 -61t182.5 -163.5t113.5 -231t39 -263.5q0 -155 -50 -287t-140.5 -230t-212 -152.5t-265.5 -54.5zM738 71q158 0 284 78t199.5 216t73.5 319q0 164 -59 302
t-165 221t-247 83q-124 0 -230.5 -54t-185 -148.5t-122.5 -216.5t-44 -258q0 -164 64 -286t176.5 -189t255.5 -67z" />
    <glyph glyph-name="P" unicode="P" horiz-adv-x="1309" 
d="M148 1125q-17 15 -18.5 38.5t13.5 40.5q55 63 141 107.5t185 68t192 23.5q151 0 270.5 -73t189 -196t69.5 -272q0 -118 -53.5 -212t-142 -160t-195.5 -101t-214 -35q-40 0 -101 4t-118 15l-27 -377q-2 -23 -19.5 -38t-40.5 -13t-38 19t-13 40l29 410q-18 25 -7 53
q4 11 13 19l51 711q-56 -32 -87 -67q-15 -17 -38.5 -18.5t-40.5 13.5zM428 1235l-54 -749q50 -9 112.5 -15t98.5 -6q93 0 181 30t158.5 83.5t112.5 126t42 157.5q0 120 -55 217t-149.5 154t-213.5 57q-57 0 -117 -11.5t-117 -30.5q1 -6 1 -13z" />
    <glyph glyph-name="Q" unicode="Q" horiz-adv-x="1525" 
d="M738 -40q-176 0 -313.5 84t-216.5 231.5t-79 337.5q0 153 50.5 295t143 253.5t220 176.5t281.5 65q139 0 247 -61t182.5 -163.5t113.5 -231t39 -263.5q0 -164 -56 -302.5t-155 -236.5q80 -84 175 -168q17 -15 18.5 -38.5t-13.5 -40.5t-38 -18.5t-40 13.5
q-102 89 -188 181q-78 -55 -172 -84.5t-199 -29.5zM738 71q164 0 296 86q-44 51 -86 105.5t-85 114.5q-13 19 -9.5 41.5t22.5 35.5q19 14 41.5 10.5t35.5 -22.5q43 -59 84 -112t84 -102q81 81 127.5 197.5t46.5 258.5q0 164 -59 302t-165 221t-247 83q-124 0 -230.5 -54
t-185 -148.5t-122.5 -216.5t-44 -258q0 -164 64 -286t176 -189t256 -67z" />
    <glyph glyph-name="R" unicode="R" horiz-adv-x="1310" 
d="M143 1135q-15 17 -13.5 41t19.5 38q86 86 222 137.5t276 51.5q152 0 267 -74t179.5 -196.5t64.5 -270.5q0 -139 -73 -250.5t-194 -180t-264 -78.5l536 -304q20 -11 26 -34t-5 -43q-12 -19 -34.5 -25.5t-42.5 5.5l-723 419l-21 -374q-1 -23 -18.5 -38t-40.5 -14
q-23 2 -38 18.5t-14 39.5l25 430l-9 5q-21 13 -25 38v0v3v3q0 -1 0 1q-1 12 6 25q4 7 11 13q9 9 22 12l39 670q-61 -33 -99 -73q-18 -13 -41 -12t-38 17zM434 1241l-43 -746q49 -17 98.5 -24.5t95.5 -7.5q127 0 232 55t167.5 146t62.5 198q0 122 -51 218.5t-141 153
t-208 56.5q-53 0 -107.5 -10t-106.5 -27q1 -6 1 -12z" />
    <glyph glyph-name="S" unicode="S" horiz-adv-x="1122" 
d="M950 1232q-12 -19 -34.5 -25.5t-42.5 5.5q-76 43 -138 60.5t-135 17.5q-160 0 -257 -76.5t-97 -203.5q0 -99 77.5 -167.5t254.5 -124.5q426 -133 426 -396q0 -164 -126.5 -263t-335.5 -99q-109 0 -219.5 25t-199.5 74q-20 12 -26.5 34.5t4.5 41.5q12 20 34.5 26.5
t42.5 -4.5q76 -42 175 -64t191 -22q158 0 252.5 65.5t94.5 175.5q0 194 -346 299q-210 63 -310 160.5t-100 238.5q0 116 58.5 204.5t163.5 138.5t242 50q87 0 163 -22t167 -72q20 -12 26 -34.5t-5 -42.5z" />
    <glyph glyph-name="T" unicode="T" horiz-adv-x="1463" 
d="M735 -52q-23 -1 -40 14.5t-17 38.5q-4 137 -7.5 275t-3.5 275q0 178 4.5 352.5t12.5 348.5l-500 9q-23 0 -39 16.5t-15 39.5q0 23 16.5 39t39.5 16l1103 -19q23 -1 39 -17.5t16 -39.5q-1 -23 -17.5 -39t-39.5 -15l-492 8q-8 -174 -11.5 -347.5t-3.5 -351.5q0 -271 9 -546
q0 -23 -15.5 -40t-38.5 -17z" />
    <glyph glyph-name="U" unicode="U" horiz-adv-x="1350" 
d="M311 1389q23 -5 35.5 -24.5t7.5 -42.5q-34 -151 -53 -297.5t-19 -313.5q0 -132 16.5 -248t58 -204t114.5 -138t185 -50t187.5 58.5t122.5 159t71.5 229t33 270t8.5 280.5q0 68 -2.5 148t-4.5 142q-1 23 14 40.5t38 18.5q23 0 40.5 -15t18.5 -38q3 -63 6 -144t3 -152
q0 -151 -11 -307t-42 -299.5t-90.5 -256.5t-155.5 -179t-237 -66q-144 0 -238.5 61.5t-149 168.5t-77 243.5t-22.5 286.5q0 167 20.5 318t54.5 308q5 23 25 35.5t42 7.5z" />
    <glyph glyph-name="V" unicode="V" horiz-adv-x="1408" 
d="M166 1369q22 8 43.5 -2t28.5 -32l396 -1143l548 1149q10 20 32.5 28t43.5 -2q20 -10 28 -32.5t-2 -42.5l-608 -1271q-7 -18 -28 -27q-22 -10 -45 -0.5t-31 32.5l-440 1271q-7 22 3 43.5t31 28.5z" />
    <glyph glyph-name="W" unicode="W" horiz-adv-x="1986" 
d="M169 1403q22 7 42.5 -4.5t27.5 -33.5l288 -1155l417 991q9 22 32 30.5t45 -2.5q21 -11 27 -32l332 -978l378 1116q8 21 29 31.5t43 2.5q21 -7 31.5 -28.5t2.5 -42.5l-431 -1271q-7 -23 -31 -33q-22 -10 -44.5 0t-30.5 33l-338 995l-419 -999q-10 -21 -32 -30t-44 2
t-30 34l-333 1304q-7 22 4.5 42.5t33.5 27.5z" />
    <glyph glyph-name="X" unicode="X" horiz-adv-x="1307" 
d="M153 -46q-19 13 -23 36t9 42l441 649l-398 564q-13 19 -9 42t23 36t42 9t36 -23l374 -529l401 590q13 19 36 23t42 -9t23 -35.5t-9 -42.5l-424 -624l461 -654q13 -19 9 -41.5t-23 -35.5t-42 -9.5t-36 22.5l-437 619l-418 -615q-13 -19 -35.5 -23t-42.5 9z" />
    <glyph glyph-name="Y" unicode="Y" horiz-adv-x="1307" 
d="M662 -55q-23 -1 -39.5 15t-16.5 39l-11 616l-455 670q-13 19 -9.5 41.5t22.5 35.5q19 14 41.5 10t35.5 -23l419 -618l437 609q13 19 36 23t42 -9t23 -35.5t-9 -42.5l-472 -661l11 -614q0 -23 -16 -39.5t-39 -16.5z" />
    <glyph glyph-name="Z" unicode="Z" horiz-adv-x="1412" 
d="M131 1257q-6 22 6.5 42t34.5 26q115 29 246 45t264.5 19t256 -6.5t219.5 -33.5q36 -7 45 -39t-14 -55q-264 -265 -468 -558.5t-386 -582.5q154 16 297.5 26t291 15.5t313.5 5.5q23 0 40 -17t17 -40t-17 -39.5t-40 -16.5q-185 0 -348.5 -6t-322 -18.5t-329.5 -31.5
q-36 -4 -53 26t-1 58q180 296 384 598.5t471 579.5q-118 20 -266 22t-298 -13.5t-276 -46.5q-22 -6 -42 6.5t-25 34.5z" />
    <glyph glyph-name="bracketleft" unicode="[" horiz-adv-x="725" 
d="M581 1325q2 -23 -13.5 -40t-38.5 -19q-66 -6 -134 -6q-60 0 -119 3q15 -147 15 -291q0 -109 -5.5 -215.5t-11.5 -210.5q-4 -65 -5.5 -104t-1.5 -76.5v-99.5q0 -103 61.5 -131t194.5 -34q23 -1 38.5 -18.5t14.5 -40.5t-18.5 -38t-40.5 -14q-103 5 -185 27t-130 80t-48 169
q0 62 0.5 101t2.5 79.5t6 105.5q6 104 10.5 209.5t4.5 210.5q0 86 -4 171.5t-15 170.5q-2 19 13 42t46 21q38 -3 76 -3.5t77 -0.5q40 0 77 0.5t73 3.5q23 2 40.5 -13.5t19.5 -38.5z" />
    <glyph glyph-name="backslash" unicode="\" horiz-adv-x="975" 
d="M807 -48q-19 -12 -43 -7t-33 26l-572 1378q-9 22 6 42t37 25q23 5 40 -8.5t26 -34.5l559 -1344q9 -22 4.5 -43.5t-24.5 -33.5z" />
    <glyph glyph-name="bracketright" unicode="]" horiz-adv-x="736" 
d="M155 1352q3 23 22.5 36.5t41.5 9.5q69 -10 146.5 -17t155.5 -9q27 -1 43 -23t11 -45q-18 -80 -25.5 -141.5t-9 -127.5t-1.5 -160q0 -70 7 -141.5t18 -145.5q11 -75 20 -151.5t9 -151.5q0 -122 -55 -185.5t-141.5 -86.5t-179.5 -23q-23 0 -39 16t-16 39t16 39.5t39 16.5
q131 0 197 34.5t66 149.5q0 69 -7.5 140.5t-18.5 144.5q-11 75 -19.5 152t-8.5 153q0 82 1.5 143.5t7 119t18.5 125.5q-64 3 -128.5 9.5t-123.5 15.5q-22 3 -35.5 22.5t-10.5 41.5z" />
    <glyph glyph-name="asciicircum" unicode="^" horiz-adv-x="728" 
d="M171 1139q-12 8 -15 22t4 27l166 269q9 15 29 14.5t29 -11.5l192 -241q9 -10 7 -25.5t-13 -24.5q-10 -9 -25.5 -7t-24.5 13l-160 202l-140 -226q-7 -12 -21.5 -15.5t-27.5 3.5z" />
    <glyph glyph-name="underscore" unicode="_" horiz-adv-x="610" 
d="M667 45q0 -23 -17 -39t-40 -16h-610q-23 0 -39.5 16t-16.5 39t16.5 39.5t39.5 16.5h610q23 0 40 -16.5t17 -39.5z" />
    <glyph glyph-name="grave" unicode="`" horiz-adv-x="549" 
d="M168 1510q11 9 26 7t24 -13q47 -60 97.5 -151t86.5 -169q5 -13 0 -27.5t-18 -19.5q-13 -6 -27 -0.5t-20 18.5q-34 75 -84 163.5t-91 141.5q-9 11 -6.5 26t12.5 24z" />
    <glyph glyph-name="a" unicode="a" horiz-adv-x="1309" 
d="M565 71q118 0 191.5 63t111.5 166.5t47 226.5l35 466q2 23 19.5 37t39.5 11q23 -3 39 -21.5t14 -40.5l-35 -467q-2 -30 -6 -59q-3 -40 -3.5 -81.5t1.5 -78.5q5 -78 32 -134.5t115 -60.5q16 -4 29 -16t14 -37q0 -23 -16.5 -39t-39.5 -16q-98 0 -150.5 51.5t-74.5 129.5
q-56 -95 -146 -153t-217 -58q-132 0 -227.5 63t-148 168.5t-57.5 231.5q-4 112 29 224t99 205t162 149t218 56q90 0 159 -36.5t121 -93.5q15 -18 12.5 -41t-19.5 -36q-18 -13 -41.5 -9t-37.5 23q-31 34 -80 58t-113 24q-97 0 -172 -46.5t-126 -123.5t-76 -169.5t-22 -184.5
q5 -98 42.5 -178t107.5 -126.5t170 -46.5z" />
    <glyph glyph-name="b" unicode="b" horiz-adv-x="1203" 
d="M269 1417q23 -1 38.5 -18t15.5 -40l-15 -474q69 82 157.5 127t185.5 45q120 0 203 -49.5t133.5 -130t73.5 -176t23 -187.5q0 -156 -71 -281.5t-194 -199t-279 -73.5q-82 0 -155 19q-22 6 -34 26t-6 42q5 22 26 34t43 6q60 -16 126 -16q125 0 222.5 58.5t154 158.5
t56.5 224q0 114 -33.5 213t-104.5 160t-184 61q-107 0 -197.5 -67.5t-145.5 -209.5q-2 -9 -8 -17l-19 -609q-1 -23 -18 -38.5t-40 -14.5q-23 0 -38.5 17t-14.5 40l42 1316q0 23 17 38.5t40 15.5z" />
    <glyph glyph-name="c" unicode="c" horiz-adv-x="1071" 
d="M922 871q-14 -17 -37.5 -19t-40.5 13q-44 38 -95 59.5t-113 21.5q-90 0 -162.5 -46t-124 -123t-79.5 -169.5t-28 -185.5t32 -173t103 -129t188 -49q89 0 167.5 22.5t145.5 59.5q21 8 42.5 -2.5t28.5 -31.5q8 -22 -2.5 -42.5t-31.5 -28.5q-79 -40 -162 -64t-181 -24
q-154 0 -252 65.5t-144.5 172t-46.5 229.5q0 111 35 222.5t101 204t159.5 148t209.5 55.5q83 0 153.5 -28.5t128.5 -79.5q17 -14 19 -37.5t-13 -40.5z" />
    <glyph glyph-name="d" unicode="d" horiz-adv-x="1237" 
d="M608 1055q88 0 170.5 -40t151.5 -122l10 469q0 23 16.5 39t39.5 16q23 -1 39 -17.5t16 -39.5l-19 -849q0 -150 4.5 -234.5t16.5 -127t33 -68.5q14 -18 11.5 -41.5t-19.5 -38.5q-18 -14 -41.5 -11.5t-38.5 20.5q-49 59 -64 151q-64 -90 -160.5 -145.5t-217.5 -55.5
q-132 0 -228 64.5t-147.5 176.5t-51.5 255q0 111 34 217.5t97 192.5t151.5 137.5t196.5 51.5zM242 455q0 -172 82.5 -278t233.5 -106q144 0 237 98t125 243l1 4v45.5v50.5l7 295l-6 -4q-19 -12 -42.5 -6t-34.5 25q-51 62 -112 92t-126 30q-110 0 -192 -71t-127.5 -183
t-45.5 -235z" />
    <glyph glyph-name="e" unicode="e" horiz-adv-x="1191" 
d="M1024 90q-84 -76 -185.5 -103t-203.5 -27q-166 0 -288 85t-153 277q-5 -1 -10 -1q-23 -2 -40 13t-19 38t13 40.5t38 19.5q5 0 9 1v7q0 114 38.5 224t110.5 199t172 141.5t222 52.5q70 0 137 -29t111 -85t44 -138q0 -73 -34 -129t-80.5 -94.5t-83.5 -60.5
q-245 -145 -517 -187q24 -141 111 -202t219 -61q92 0 172.5 23.5t140.5 78.5q17 15 40.5 14t39.5 -18q15 -17 14 -40.5t-18 -38.5zM726 946q-121 0 -218.5 -71t-154.5 -185t-57 -245q253 40 465 166q59 35 104.5 80.5t45.5 106.5q0 68 -55 108t-130 40z" />
    <glyph glyph-name="f" unicode="f" horiz-adv-x="813" 
d="M130 825q-2 23 13 40.5t38 19.5q68 5 127 6q5 118 11 226.5t14 196.5q7 77 29 158t66.5 137t115.5 56q39 0 72.5 -20.5t62.5 -52.5q14 -16 13 -39t-14 -36q-24 -27 -54 -13q-39 39 -68 39q-39 0 -71.5 -67t-40.5 -172q-8 -86 -14 -192t-10 -223q56 -2 111.5 -6.5
t113.5 -11.5q23 -2 37 -20t12 -41q-3 -22 -21 -37t-41 -12q-106 13 -216 16q-6 -209 -8.5 -418t-2.5 -363q0 -23 -17 -39t-40 -16t-39 16t-16 39q0 155 2.5 363.5t8.5 418.5q-29 0 -57.5 -1t-57.5 -3q-23 -2 -40 13t-19 38z" />
    <glyph glyph-name="g" unicode="g" horiz-adv-x="1258" 
d="M581 71q162 0 255.5 126t99.5 330l13 466q1 18 12 30q15 20 39 19q6 0 12 -2q7 -1 14 -5q34 -15 34 -48v-2v-6v-4q-3 -348 -16 -599.5t-45 -420t-89.5 -267.5t-149 -141t-223.5 -42q-93 0 -193 42.5t-175 124.5q-15 17 -14.5 40.5t16.5 38.5q17 17 41.5 16t37.5 -18
q58 -67 135 -99.5t149 -32.5q119 0 196 44.5t121 154.5t66 307q-61 -74 -147 -116t-194 -42q-142 0 -241 62t-151.5 166t-57.5 230q-4 113 29 225t99.5 204.5t162.5 148.5t217 56q89 0 161 -36t124 -94q15 -17 12.5 -40.5t-20.5 -36.5t-41.5 -8.5t-36.5 22.5
q-31 33 -82.5 57.5t-116.5 24.5q-96 0 -171 -46.5t-126.5 -123t-76.5 -169t-21 -185.5q6 -148 89.5 -249.5t252.5 -101.5z" />
    <glyph glyph-name="h" unicode="h" horiz-adv-x="1206" 
d="M226 -55q-21 2 -37 17.5t-14 41.5l97 1386q2 26 19.5 40t39.5 12q21 -1 37.5 -17t14.5 -43l-43 -614q63 120 154 204t216 84q112 0 176.5 -60t91.5 -158t27 -211q0 -154 -2 -307.5t-10 -320.5q-1 -21 -16 -37.5t-41 -16.5q-27 0 -41.5 16.5t-13.5 38.5q8 151 10 282
t2 264q0 109 -14.5 199.5t-56.5 145t-123 54.5q-79 0 -140 -50t-106.5 -131.5t-78.5 -178t-57 -188.5q-1 -6 -4 -11l-27 -390q-2 -26 -20 -39t-40 -12z" />
    <glyph glyph-name="i" unicode="i" horiz-adv-x="475" 
d="M182 1423q0 35 26 62.5t66 27.5q44 0 62.5 -30t18.5 -53q0 -34 -22.5 -65t-63.5 -31q-49 0 -68 33t-19 56zM248 1027q23 -1 38.5 -18.5t14.5 -40.5q-3 -70 -5.5 -169t-4 -211.5t-2.5 -223.5t-1.5 -206t-0.5 -158q0 -23 -17 -39t-40 -16t-39 16t-16 39q0 63 0.5 158.5
t1.5 206.5t3 224t4.5 213.5t5.5 171.5q1 23 18 38.5t40 14.5z" />
    <glyph glyph-name="j" unicode="j" horiz-adv-x="464" 
d="M236 1027q23 0 39.5 -16.5t16.5 -39.5q0 -230 -1.5 -416t-6.5 -332q-8 -225 -33 -379.5t-86.5 -234t-179.5 -79.5q-23 0 -39 16.5t-16 39.5t16 40t39 17q63 0 102 55t59 183t27 347q5 145 6.5 329t1.5 414q0 23 16 39.5t39 16.5zM171 1423q0 35 26 62.5t66 27.5
q44 0 62.5 -30t18.5 -53q0 -34 -22.5 -65t-63.5 -31q-49 0 -68 33t-19 56z" />
    <glyph glyph-name="k" unicode="k" horiz-adv-x="1059" 
d="M910 -32q-13 -19 -36.5 -23t-42.5 10q-141 101 -277 222t-254 249l-19 -425q-1 -23 -18.5 -38t-40.5 -14t-38 18t-14 40l60 1357q1 23 18 38.5t40 14.5t38.5 -18.5t14.5 -40.5l-33 -740q140 75 279.5 177.5t228.5 211.5q14 17 37.5 19.5t41.5 -11.5q17 -15 19.5 -38.5
t-11.5 -40.5q-64 -78 -153.5 -152.5t-189.5 -140.5t-196 -119q119 -129 257 -254.5t276 -223.5q18 -13 22 -36t-9 -42z" />
    <glyph glyph-name="l" unicode="l" horiz-adv-x="489" 
d="M257 1406q23 -1 38.5 -18.5t14.5 -40.5q-6 -127 -9.5 -297t-5.5 -356.5t-2.5 -366t-0.5 -327.5q0 -23 -17 -39t-40 -16t-39 16t-16 39q0 148 0.5 328t3 366.5t6 357.5t9.5 301q1 23 18 38.5t40 14.5z" />
    <glyph glyph-name="m" unicode="m" horiz-adv-x="1761" 
d="M173 14q20 214 30 365t10 268q0 98 -6.5 180t-20.5 165q-4 26 9.5 42t32.5 20q22 5 43 -5.5t25 -38.5q10 -59 16.5 -117.5t9.5 -120.5q58 123 141 204t193 81q91 0 148.5 -44t88.5 -118.5t45 -166.5q64 139 160 233.5t225 94.5q105 0 160 -63t75 -161t20 -205
q0 -154 -1.5 -307.5t-9.5 -320.5q-1 -22 -16 -38t-41 -16t-41 16.5t-14 38.5q8 151 9.5 282t1.5 264q0 109 -10.5 199.5t-45.5 145t-108 54.5q-87 0 -155.5 -73.5t-117.5 -192.5t-78 -255q-1 -65 -4 -123.5t-7.5 -130t-11.5 -174.5q-2 -26 -20.5 -38.5t-39.5 -11.5
q-21 2 -37 16t-14 42q9 121 13.5 199.5t6.5 146t2 153.5q0 119 -13 220t-54 162t-126 61q-80 0 -143.5 -76.5t-110 -199t-75.5 -262.5q-5 -85 -13.5 -185t-19.5 -220q-3 -27 -22 -39t-40 -10q-20 2 -35.5 17.5t-13.5 42.5z" />
    <glyph glyph-name="n" unicode="n" horiz-adv-x="1206" 
d="M173 14q20 214 30 365t10 268q0 98 -6.5 180t-20.5 165q-4 26 9 41.5t32 20.5q22 5 43.5 -5.5t25.5 -38.5q11 -68 18 -135t9 -140q43 88 99 160.5t127.5 116.5t160.5 44q112 0 176.5 -60t91.5 -158t27 -211q0 -154 -2 -307.5t-10 -320.5q-1 -21 -16 -37.5t-41 -16.5
q-27 0 -41.5 16.5t-13.5 38.5q8 151 10 282t2 264q0 109 -14.5 199.5t-56.5 145t-123 54.5q-79 0 -140 -50t-106.5 -131.5t-78.5 -178t-57 -188.5l-1 -3q-5 -83 -13 -179.5t-19 -211.5q-3 -27 -22 -39t-40 -10q-20 2 -35.5 17t-13.5 43z" />
    <glyph glyph-name="o" unicode="o" horiz-adv-x="1159" 
d="M592 1057q108 0 190 -45.5t137 -121.5t83 -167.5t28 -184.5q0 -103 -31 -205t-90.5 -186.5t-146 -135.5t-197.5 -51q-136 0 -233.5 76t-150 196.5t-52.5 253.5q0 103 28.5 204t86 184t144.5 133t204 50zM592 946q-111 0 -189.5 -63.5t-119.5 -168.5t-41 -228
q0 -115 42 -209t115 -150t166 -56q103 0 182.5 66.5t125.5 173t46 227.5q0 107 -40 200t-113 150.5t-174 57.5z" />
    <glyph glyph-name="p" unicode="p" horiz-adv-x="1237" 
d="M405 15q0 23 16.5 39.5t39.5 16.5q154 0 257.5 46.5t164.5 121.5t87.5 161.5t26.5 167.5q0 131 -40 214.5t-102.5 123.5t-131.5 40q-87 0 -179.5 -72t-159 -217.5t-75.5 -367.5q0 -6 -1 -11q-1 -18 -2 -28l-32 -686q-1 -23 -18.5 -38t-40.5 -14t-38 18t-14 40l32 686
q6 97 10 184t4 163q0 104 -13 196t-41 147q-10 21 -3 43t28 32q21 11 43.5 3.5t32.5 -28.5q24 -48 38 -106.5t20 -123.5q74 139 181.5 215t227.5 76q107 0 194.5 -59.5t139 -169t51.5 -260.5q0 -97 -34 -203t-109.5 -198t-199.5 -149.5t-304 -57.5q-23 0 -39.5 16t-16.5 39z
" />
    <glyph glyph-name="q" unicode="q" horiz-adv-x="1203" 
d="M840 841q-17 -14 -41 -11t-38 20q-33 42 -83.5 69t-120.5 27q-100 0 -170.5 -65.5t-107.5 -171t-37 -225.5q0 -185 67.5 -299t221.5 -114q149 0 237 100t134 249q1 3 2 5q4 139 11.5 278t17.5 278q2 23 19 38.5t40 13.5t38.5 -19.5t13.5 -40.5q-16 -222 -25 -443t-9 -443
q0 -127 3 -254t8 -255q1 -23 -14.5 -40t-38.5 -18t-40 14t-18 38q-5 129 -8 258.5t-3 256.5v70q-61 -86 -151.5 -142.5t-216.5 -56.5q-112 0 -189.5 44.5t-124 120t-67.5 169.5t-21 192q0 96 24.5 197t76 186t133 137.5t194.5 52.5q95 0 169.5 -38t122.5 -99
q14 -17 11.5 -41t-20.5 -38z" />
    <glyph glyph-name="r" unicode="r" horiz-adv-x="945" 
d="M233 -55q-7 1 -13 3q-1 0 -2 1h-1q-26 11 -32 38q0 1 -1 3v1q-1 7 0 15q0 4 1 9q3 33 5.5 66t5.5 66q6 89 10.5 188t4.5 197q0 129 -10 243.5t-30 179.5q-6 22 5 42.5t33 27.5t42.5 -4.5t27.5 -33.5q16 -54 25 -125.5t14 -153.5q59 127 164 216t278 122q22 5 41.5 -8.5
t23.5 -35.5q5 -22 -8.5 -41.5t-35.5 -24.5q-135 -26 -220.5 -93t-135.5 -169t-76 -233.5t-40 -285.5q-6 -86 -14 -161q-1 -7 -4 -14v0q0 -2 -1 -3q-11 -25 -38 -31h-3v-1q-8 -1 -16 0z" />
    <glyph glyph-name="s" unicode="s" horiz-adv-x="1020" 
d="M866 799q-15 -15 -36 -15t-39 16q-31 66 -102 106t-160 40q-101 0 -171 -58t-70 -138q0 -59 40.5 -97t102 -61.5t124.5 -42.5q56 -16 116 -38.5t112.5 -56t85 -83t32.5 -120.5q0 -84 -51.5 -150t-139.5 -103.5t-197 -37.5q-114 0 -219.5 40t-154.5 111q-13 20 -8.5 41.5
t23.5 34.5q18 12 36.5 7.5t30.5 -15.5q39 -48 126.5 -78t175.5 -30q116 0 191 51.5t75 126.5q0 57 -40 92.5t-99.5 59t-120.5 41.5q-57 17 -118 40t-114.5 57t-86.5 85.5t-33 125.5q0 85 49 155t129.5 111.5t176.5 41.5q116 0 204 -49t131 -134q16 -17 15.5 -39t-16.5 -37z
" />
    <glyph glyph-name="t" unicode="t" horiz-adv-x="815" 
d="M695 813q-2 -22 -20.5 -36.5t-41.5 -11.5q-88 12 -193 13q-7 -105 -11.5 -210.5t-4.5 -212.5q0 -68 7.5 -133.5t37 -108t94.5 -42.5q30 0 64 6q23 5 42 -8.5t23 -36.5q5 -22 -8.5 -41t-36.5 -24q-42 -7 -84 -7q-88 0 -138.5 40t-74.5 102t-30.5 129.5t-6.5 123.5
q0 107 4.5 212t11.5 209q-71 -3 -137 -11q-22 -3 -41 11.5t-21 36.5q-3 23 11.5 41.5t36.5 20.5q76 10 160 13q7 84 15.5 167.5t18.5 167.5q2 23 21 37t41 11q23 -2 37 -20t11 -41q-9 -81 -17.5 -161t-15.5 -160q51 -1 100.5 -4.5t97.5 -9.5q23 -2 37 -20.5t11 -41.5z" />
    <glyph glyph-name="u" unicode="u" horiz-adv-x="1206" 
d="M1033 987q-20 -214 -30 -365.5t-10 -267.5q0 -98 7 -180.5t20 -165.5q5 -25 -8.5 -40.5t-32.5 -20.5q-22 -5 -43.5 5.5t-25.5 38.5q-11 68 -17.5 135.5t-9.5 140.5q-42 -88 -98 -161t-127 -117t-159 -44q-113 0 -178.5 60t-92.5 158t-27 211q0 155 2 308t11 320
q1 21 16 37.5t40 16.5q28 0 42 -16.5t13 -39.5q-7 -150 -9.5 -286t-2.5 -297q0 -99 15 -181t57 -131t122 -49t141 50t106.5 131.5t78.5 178t56 188.5q1 4 2 7q5 82 13 178t19 209q2 27 21 39t41 10q20 -2 35 -17t13 -43z" />
    <glyph glyph-name="v" unicode="v" horiz-adv-x="1124" 
d="M162 1022q21 10 42.5 2t31.5 -29q82 -175 170 -383.5t140 -419.5q105 180 196.5 381.5t152.5 413.5q7 22 27.5 33.5t42.5 4.5t33.5 -27.5t4.5 -42.5q-74 -255 -187 -494t-241 -445q-11 -19 -33 -25q-23 -7 -44 6.5t-26 37.5q-30 155 -86 314.5t-122.5 312t-129.5 286.5
q-10 21 -1.5 42.5t29.5 31.5z" />
    <glyph glyph-name="w" unicode="w" horiz-adv-x="1551" 
d="M357 1000q42 -29 19 -74q-29 -53 -60.5 -145.5t-52.5 -201.5t-21 -213q0 -81 18.5 -148t61.5 -107t114 -40q74 0 131 59t96.5 153t61.5 199.5t25 198.5q2 25 16.5 40t35.5 14q23 0 38.5 -15t15.5 -38q1 -111 8.5 -219.5t28.5 -197t63 -141.5t111 -53q89 0 143 59.5
t78.5 156t24.5 205.5q0 117 -24.5 235t-60.5 199q-7 24 -1.5 45.5t27.5 31.5q22 9 42.5 2t30.5 -29q44 -88 69.5 -211t25.5 -254q0 -143 -35 -269t-111 -204t-199 -78q-95 0 -153.5 61t-90 157t-45.5 199q-29 -99 -80 -195t-123 -159t-165 -63q-103 0 -167.5 58.5t-94 153.5
t-29.5 202q0 109 23 226.5t58 219t69 162.5q12 21 34.5 26.5t43.5 -8.5z" />
    <glyph glyph-name="x" unicode="x" horiz-adv-x="1177" 
d="M150 -44q-18 15 -20.5 38.5t11.5 41.5l362 442q-86 112 -161.5 227t-131.5 227q-10 21 -3 43t28 32q21 11 43 3.5t32 -28.5q50 -100 118.5 -205.5t147.5 -209.5l360 440q15 17 38.5 19.5t41.5 -11.5q17 -14 19.5 -38t-11.5 -41l-376 -460q97 -120 198.5 -232t194.5 -205
q17 -16 17 -38.5t-17 -39.5q-16 -16 -38.5 -16.5t-39.5 16.5q-92 92 -191.5 200.5t-196.5 226.5l-346 -423q-14 -18 -38 -20.5t-41 11.5z" />
    <glyph glyph-name="y" unicode="y" horiz-adv-x="1177" 
d="M262 1027q23 -3 37.5 -21t12.5 -41q-7 -63 -11.5 -146.5t-7 -166t-2.5 -143.5q0 -141 19 -238.5t76 -148.5t170 -51q135 0 217 87.5t122 223.5q2 7 6 12q1 37 1 75v77q0 121 -1.5 233t-4.5 182q-1 23 14.5 40.5t38.5 18.5t40.5 -15t18.5 -39q2 -71 3.5 -184t1.5 -260
q0 -157 -9.5 -306t-39 -277t-86.5 -224.5t-151 -150.5t-235 -54q-118 0 -206.5 43.5t-141.5 120.5q-13 20 -9 42.5t23 35.5q20 13 43 9t36 -23q37 -55 100 -85t155 -30q137 0 218.5 64.5t122 179.5t55.5 266q-58 -76 -141 -121.5t-191 -45.5q-153 0 -234.5 66t-111.5 188
t-30 289q0 66 2.5 151t7 169.5t11.5 147.5q2 23 20.5 37.5t40.5 12.5z" />
    <glyph glyph-name="z" unicode="z" horiz-adv-x="1094" 
d="M130 873q-4 23 10 41.5t36 22.5q65 11 167 22.5t220 11.5q120 0 205.5 -24.5t133.5 -53.5q23 -15 25 -44t-19 -47q-59 -49 -140.5 -134.5t-169 -190t-167 -212t-135.5 -200.5q93 7 204 11t221 6.5t198 2.5q23 0 40 -16.5t17 -39.5t-17 -39t-40 -16q-104 0 -236.5 -3.5
t-262 -9.5t-224.5 -14q-35 -3 -52 25.5t-3 55.5q48 93 124 202t164.5 219t176 206t158.5 163q-44 15 -109.5 27t-148.5 10q-94 -1 -176.5 -10t-135.5 -18q-22 -4 -41 10t-23 36z" />
    <glyph glyph-name="braceleft" unicode="{" horiz-adv-x="705" 
d="M561 93q0 -23 -16.5 -39t-39.5 -16q-94 0 -146 35.5t-76 94.5t-30.5 129t-8.5 140t-11 129t-36.5 94.5t-86.5 35.5h-6v0q-21 2 -35.5 18t-14.5 38q0 44 42 55h1q2 1 4 1q1 0 2 1h3h4q60 0 88 35.5t36.5 94.5t10 129t8 140t30 129t76 94.5t146.5 35.5q23 0 40 -16.5
t17 -39.5t-17 -39t-40 -16q-64 0 -96 -33t-43 -88t-12.5 -121.5t-5 -134.5t-19 -127.5t-56.5 -99.5q39 -40 54.5 -99.5t18.5 -127.5t5 -134.5t13.5 -121t43.5 -87.5t97 -33q23 0 39.5 -16.5t16.5 -39.5z" />
    <glyph glyph-name="bar" unicode="|" horiz-adv-x="427" 
d="M227 1515q23 0 39.5 -16.5t16.5 -39.5q0 -126 -1 -276.5t-2.5 -312t-3.5 -319.5t-4.5 -300t-4.5 -252q-1 -23 -18 -39t-40 -15q-23 0 -39 16.5t-15 39.5q2 110 4.5 251.5t4.5 299.5t4 319t3 312t1 276q0 23 16 39.5t39 16.5z" />
    <glyph glyph-name="braceright" unicode="}" horiz-adv-x="705" 
d="M661 752q0 -23 -16.5 -39.5t-39.5 -16.5q-60 0 -88 -35.5t-36.5 -94.5t-10 -129t-8 -140t-30 -129t-75.5 -94.5t-147 -35.5q-23 0 -39.5 16t-16.5 39t16.5 39.5t39.5 16.5q64 0 96 33t43 88t12.5 121.5t5 134.5t19 127.5t56.5 99.5q-39 40 -54.5 99.5t-18.5 127.5
t-5 134.5t-13.5 121t-43.5 87.5t-97 33q-23 0 -39.5 16t-16.5 39t16.5 39.5t39.5 16.5q94 0 146.5 -35.5t76 -94.5t30.5 -129t9 -140t10.5 -129t36 -94.5t86.5 -35.5q23 0 39.5 -17t16.5 -40z" />
    <glyph glyph-name="asciitilde" unicode="~" horiz-adv-x="880" 
d="M112 1110q-17 5 -26 22t-3 33q23 69 74 119.5t132 50.5q62 0 110.5 -23t88.5 -52q60 -43 113 -43q50 0 84 33t56 85q7 17 24.5 24t33.5 0q17 -7 24 -24t0 -34q-36 -82 -94 -128t-128 -46q-83 0 -167 62q-32 24 -65 41t-76 17q-51 0 -81 -33.5t-44 -74.5q-6 -17 -22.5 -26
t-33.5 -3z" />
    <glyph glyph-name="uni00A0" unicode="&#xa0;" horiz-adv-x="300" 
 />
    <glyph glyph-name="exclamdown" unicode="&#xa1;" horiz-adv-x="583" 
d="M185 1029q0 32 22 64t68 32q31 0 68 -21.5t37 -73.5q0 -41 -29.5 -70.5t-71.5 -29.5q-45 0 -69.5 32t-24.5 67zM330 -302q-22 -3 -40.5 11.5t-21.5 36.5q-27 200 -36.5 388.5t-9.5 405.5v60.5t1 62.5q1 23 17.5 38.5t39.5 15.5t39.5 -16t15.5 -39q-1 -31 -1 -62v-60
q0 -217 9 -400.5t35 -379.5q3 -22 -11 -40.5t-37 -21.5z" />
    <glyph glyph-name="cent" unicode="&#xa2;" horiz-adv-x="1071" 
d="M572 -420q-23 0 -39 16t-16 39v327q-135 13 -220.5 79.5t-126.5 168t-41 217.5q0 129 46.5 256.5t133.5 224.5t208 132v276q0 23 16 40t39 17t39.5 -17t16.5 -40v-259h6q83 0 153.5 -28.5t128.5 -79.5q17 -14 19 -37.5t-13 -40.5q-14 -17 -37.5 -19t-40.5 13
q-44 38 -95 59.5t-113 21.5q-90 0 -162.5 -46t-124 -123t-79.5 -169.5t-28 -185.5t32 -173t103 -129t188 -49q89 0 167.5 22.5t145.5 59.5q21 8 42.5 -2.5t28.5 -31.5q8 -22 -2.5 -42.5t-31.5 -28.5q-67 -35 -137 -57.5t-150 -28.5v-327q0 -23 -16.5 -39t-39.5 -16z" />
    <glyph glyph-name="sterling" unicode="&#xa3;" horiz-adv-x="1464" 
d="M178 662q5 21 23.5 34t43.5 6q37 -9 81 -15v252q0 120 36.5 226t112.5 171.5t195 65.5q154 0 246 -91t116 -227q5 -25 -9.5 -42.5t-34.5 -21.5q-25 -4 -43 9t-23 36q-17 101 -79 163t-173 62q-80 0 -132 -49.5t-76.5 -129.5t-24.5 -172v-252v-8h23q83 0 163.5 9t147.5 22
q25 5 42 -8t22 -33q6 -25 -7 -44.5t-36 -24.5q-72 -13 -157.5 -22.5t-174.5 -9.5h-29q-11 -122 -45.5 -233t-91.5 -190q82 -30 183 -52t233 -22q94 0 185 16t156.5 58t79.5 120q10 48 58 46q24 -1 40.5 -20t11.5 -46q-20 -109 -100 -171t-193.5 -88t-237.5 -26
q-175 0 -305 36t-225 73q-35 15 -35 52q0 26 17 41q66 61 106 174t53 240q-55 6 -103 18q-22 5 -34 24.5t-6 43.5z" />
    <glyph glyph-name="currency" unicode="&#xa4;" horiz-adv-x="1159" 
d="M1028 3q-17 -15 -40.5 -13t-38.5 19l-78 90q-58 -63 -135 -101t-171 -38q-86 0 -157 32t-125 87l-65 -72q-15 -16 -39 -17.5t-41 14.5q-16 15 -17 38.5t14 40.5l79 86q-85 141 -85 317q0 92 22.5 183.5t68.5 169.5l-86 93q-15 17 -14 40.5t17 38.5q17 16 40.5 15
t38.5 -18l73 -79q56 59 131.5 93.5t171.5 34.5q92 0 165 -34t127 -90l66 74q15 17 38.5 18.5t40.5 -13.5t18.5 -38.5t-13.5 -40.5l-83 -92q39 -68 59 -146.5t20 -156.5q0 -89 -23.5 -179t-68.5 -167l96 -111q15 -17 13 -40t-19 -38zM592 946q-111 0 -189.5 -63.5
t-119.5 -168.5t-41 -228q0 -115 42 -209t115 -150t166 -56q103 0 182.5 66.5t125.5 173t46 227.5q0 107 -40 200t-113 150.5t-174 57.5z" />
    <glyph glyph-name="yen" unicode="&#xa5;" horiz-adv-x="1307" 
d="M252 143q-3 23 11.5 41.5t36.5 20.5q120 15 235 21t230 6q128 0 258 -6q23 -1 38.5 -18.5t14.5 -40.5t-18.5 -38t-40.5 -14q-127 6 -252 6q-112 0 -223.5 -6t-227.5 -20q-22 -3 -41 11.5t-21 36.5zM243 464q-3 23 11.5 41.5t36.5 20.5q120 15 235 21t230 6q128 0 258 -6
q23 -1 38.5 -18.5t14.5 -40.5t-18.5 -38t-40.5 -14q-127 6 -252 6q-112 0 -223.5 -6t-227.5 -20q-22 -3 -41 11.5t-21 36.5zM662 -55q-23 -1 -39.5 15t-16.5 39l-11 616l-455 670q-13 19 -9.5 41.5t22.5 35.5q19 14 41.5 10t35.5 -23l419 -618l437 609q13 19 36 23t42 -9
t23 -35.5t-9 -42.5l-472 -661l11 -614q0 -23 -16 -39.5t-39 -16.5z" />
    <glyph glyph-name="brokenbar" unicode="&#xa6;" horiz-adv-x="429" 
d="M214 1417q23 0 40 -16.5t17 -39.5q0 -109 -1 -226.5t-3 -240.5q-1 -23 -18 -39t-40 -15q-23 0 -39 16.5t-15 39.5q2 122 2.5 239t0.5 226q0 23 16.5 39.5t39.5 16.5zM230 553q23 -1 39 -17.5t16 -39.5q-3 -135 -7.5 -262t-10.5 -237q-1 -23 -18.5 -38t-40.5 -14
q-23 2 -38 18.5t-14 39.5q6 110 10.5 235t7.5 260q0 23 16.5 39t39.5 16z" />
    <glyph glyph-name="section" unicode="&#xa7;" horiz-adv-x="1000" 
d="M132 682q0 93 57.5 153.5t141.5 91.5q-73 34 -122 87.5t-49 134.5q0 88 60.5 146t158 91t209.5 47t215 14q23 0 39 -16t16 -39t-16 -39.5t-39 -16.5q-78 0 -169 -9t-173 -31t-134.5 -59t-52.5 -94q0 -51 39 -85t100.5 -57t129.5 -41q73 -19 148 -53t126 -93.5t51 -158.5
q0 -92 -57.5 -153t-139.5 -92q72 -34 120.5 -87t48.5 -135q0 -88 -60.5 -146t-158 -91t-209.5 -47t-215 -14q-22 0 -38.5 16.5t-16.5 39.5t16.5 39t38.5 16q78 0 169 9t173 31t134.5 59t52.5 94q0 53 -39 87t-100.5 56.5t-129.5 39.5q-72 20 -147.5 53.5t-126.5 93.5
t-51 158zM235 682q0 -69 40.5 -110.5t99 -64.5t113.5 -37q65 2 129 23.5t106 62t42 99.5q0 69 -40 110.5t-98.5 64.5t-113.5 37q-66 -2 -130 -23.5t-106 -62t-42 -99.5z" />
    <glyph glyph-name="dieresis" unicode="&#xa8;" horiz-adv-x="698" 
d="M589 1211q0 -35 -25 -56.5t-57 -21.5q-35 0 -57.5 24.5t-22.5 52.5q0 37 21 61t51 24q38 0 64 -24.5t26 -59.5zM282 1224q0 -40 -25.5 -65.5t-65.5 -25.5q-31 0 -51 25.5t-20 55.5q0 34 23 57.5t57 23.5q31 0 56.5 -20t25.5 -51z" />
    <glyph glyph-name="copyright" unicode="&#xa9;" horiz-adv-x="1693" 
d="M1058 945q-10 -11 -26 -12t-27 9q-62 54 -142 54q-82 0 -149 -47t-106 -121.5t-39 -157.5q0 -108 57.5 -175.5t180.5 -67.5q66 0 117.5 16.5t97.5 44.5q13 8 28 4t23 -17t4.5 -28t-17.5 -23q-52 -31 -113.5 -52t-139.5 -21q-103 0 -173 43.5t-105 116t-35 159.5
q0 100 47 192t130.5 150.5t191.5 58.5q56 0 104.5 -19.5t86.5 -53.5q12 -10 13 -26t-9 -27zM104 616q0 182 61 329.5t164.5 253t233.5 162t268 56.5q167 0 306 -53t240 -145t156.5 -210t55.5 -249q0 -239 -105.5 -411.5t-294 -265.5t-437.5 -93q-118 0 -233 50t-209 137
t-150 200t-56 239zM217 616q0 -99 47 -191.5t125 -165.5t173 -115.5t190 -42.5q225 0 388 79t250.5 226.5t87.5 353.5q0 104 -45.5 201.5t-130.5 175.5t-204 123.5t-267 45.5q-114 0 -223.5 -47.5t-198 -137.5t-140.5 -217.5t-52 -287.5z" />
    <glyph glyph-name="ordfeminine" unicode="&#xaa;" horiz-adv-x="946" 
d="M404 863q-74 0 -130 39.5t-86.5 106.5t-30.5 147q0 90 36.5 166.5t102 123t151.5 46.5q64 0 116.5 -25t83.5 -77q15 52 30 84q15 29 45 15q29 -15 15 -45q-14 -29 -31 -92.5t-25 -133.5q-1 -22 -4 -43q-1 -21 -1 -41q0 -87 23.5 -145.5t66.5 -58.5q14 0 24 -10t10 -24
q0 -13 -10 -23t-24 -10q-61 0 -94 41.5t-48 96.5q-32 -59 -85.5 -98.5t-134.5 -39.5zM404 930q62 0 105 35.5t68 91.5t33 119q2 25 5 51v20q0 100 -46 139.5t-122 39.5q-95 0 -159 -77.5t-64 -192.5q0 -103 51.5 -164.5t128.5 -61.5z" />
    <glyph glyph-name="guillemotleft" unicode="&#xab;" horiz-adv-x="1103" 
d="M935 277q-14 -9 -31.5 -4.5t-26.5 18.5q-107 176 -257 306q-15 13 -13 33.5t14 30.5q74 62 138.5 137.5t116.5 167.5q9 15 26.5 19.5t31.5 -3.5q15 -9 19.5 -26t-3.5 -32q-51 -88 -110.5 -160t-128.5 -135q68 -64 128 -137.5t110 -156.5q9 -14 4.5 -31.5t-18.5 -26.5z
M497 277q-14 -9 -31.5 -4.5t-26.5 18.5q-107 176 -257 306q-15 13 -13 33.5t14 30.5q74 62 138.5 137.5t116.5 167.5q9 15 26.5 19.5t31.5 -3.5q15 -9 19.5 -26t-3.5 -32q-51 -88 -110.5 -160t-128.5 -135q68 -64 128 -137.5t110 -156.5q9 -14 4.5 -31.5t-18.5 -26.5z" />
    <glyph glyph-name="logicalnot" unicode="&#xac;" horiz-adv-x="985" 
d="M104 661q0 23 16.5 39.5t39.5 16.5h645q26 0 41 -18.5t15 -37.5v-273q0 -23 -16.5 -39.5t-39.5 -16.5t-39 16.5t-16 39.5v218h-590q-23 0 -39.5 16t-16.5 39z" />
    <glyph glyph-name="uni00AD" unicode="&#xad;" horiz-adv-x="1037" 
d="M135 634q-3 23 11.5 41.5t36.5 20.5q120 15 235 21t230 6q128 0 258 -6q23 -1 38.5 -18.5t14.5 -40.5t-18.5 -38t-40.5 -14q-127 6 -252 6q-112 0 -223.5 -6t-227.5 -20q-22 -3 -41 11.5t-21 36.5z" />
    <glyph glyph-name="registered" unicode="&#xae;" horiz-adv-x="1693" 
d="M556 915q-12 9 -14.5 24t6.5 28q43 58 109 90t137 32q70 0 136.5 -30.5t110 -87t43.5 -133.5q0 -85 -56 -145t-147 -76q48 -50 107 -92t120 -76q14 -7 18 -22t-4 -28q-7 -13 -22 -17.5t-28 2.5q-79 44 -158 102t-138 131q-8 6 -8 21q-1 16 10 28t27 12q99 0 151 46
t52 114q0 74 -65 125t-149 51q-54 0 -104 -24t-82 -67q-9 -13 -24 -15.5t-28 7.5zM695 958q37 -2 35 -39q-5 -127 -15 -259t-23 -254q-1 -15 -13.5 -24.5t-27.5 -8.5q-15 2 -24.5 14t-8.5 27q13 122 23 252t16 257q0 16 11.5 25.5t26.5 9.5zM104 616q0 182 61 329.5
t164.5 253t233.5 162t268 56.5q167 0 306 -53t240 -145t156.5 -210t55.5 -249q0 -239 -105.5 -411.5t-294 -265.5t-437.5 -93q-118 0 -233 50t-209 137t-150 200t-56 239zM217 616q0 -99 47 -191.5t125 -165.5t173 -115.5t190 -42.5q225 0 388 79t250.5 226.5t87.5 353.5
q0 104 -45.5 201.5t-130.5 175.5t-204 123.5t-267 45.5q-114 0 -223.5 -47.5t-198 -137.5t-140.5 -217.5t-52 -287.5z" />
    <glyph glyph-name="macron" unicode="&#xaf;" horiz-adv-x="1037" 
d="M135 1342q-3 23 11.5 41.5t36.5 20.5q120 15 235 21t230 6q128 0 258 -6q23 -1 38.5 -18.5t14.5 -40.5t-18.5 -38t-40.5 -14q-127 6 -252 6q-112 0 -223.5 -6t-227.5 -20q-22 -3 -41 11.5t-21 36.5z" />
    <glyph glyph-name="degree" unicode="&#xb0;" horiz-adv-x="840" 
d="M670 1399q0 -65 -36 -119.5t-94.5 -87t-127.5 -32.5q-61 0 -114 32t-85 85t-32 115q0 67 34.5 125t90.5 94.5t118 36.5q69 0 124.5 -35.5t88.5 -92.5t33 -121zM594 1400q0 67 -50 120.5t-120 53.5q-41 0 -80 -25.5t-63.5 -67t-24.5 -88.5q0 -63 48 -111t109 -48
q74 0 127.5 50.5t53.5 115.5z" />
    <glyph glyph-name="plusminus" unicode="&#xb1;" horiz-adv-x="1037" 
d="M136 638q-3 23 11.5 41.5t36.5 20.5q82 10 161 16t157 9q-2 70 -7.5 140.5t-14.5 142.5q-3 23 11.5 41.5t36.5 21.5q23 2 41.5 -12t20.5 -37q9 -76 15 -149.5t8 -145.5h36q128 0 258 -6q23 -1 38.5 -18.5t14.5 -40.5t-18.5 -38t-40.5 -14q-127 6 -252 6h-33v-59
q0 -127 -6 -258q-1 -23 -18 -38.5t-40 -14.5t-38.5 18.5t-14.5 40.5q6 127 6 252v57q-76 -3 -152.5 -8.5t-154.5 -15.5q-22 -3 -41 11.5t-21 36.5zM135 142q-3 23 11.5 41.5t36.5 20.5q120 15 235 21t230 6q128 0 258 -6q23 -1 38.5 -18.5t14.5 -40.5t-18.5 -38t-40.5 -14
q-127 6 -252 6q-112 0 -223.5 -6t-227.5 -20q-22 -3 -41 11.5t-21 36.5z" />
    <glyph glyph-name="uni00B2" unicode="&#xb2;" horiz-adv-x="728" 
d="M192 1268q-33 2 -33 35q0 80 51.5 143.5t139.5 63.5q82 0 132.5 -53.5t50.5 -133.5q0 -95 -44.5 -153.5t-112.5 -120.5l-97 -90l263 10q32 2 34 -32q0 -31 -33 -33l-350 -12q-16 0 -24 9q-11 10 -10.5 24.5t11.5 24.5l157 143q67 61 103 110t36 123q0 51 -30.5 85
t-82.5 34q-57 0 -92.5 -42t-35.5 -103q0 -13 -9.5 -23t-23.5 -9z" />
    <glyph glyph-name="uni00B3" unicode="&#xb3;" horiz-adv-x="674" 
d="M237 1173q-1 13 7.5 23t21.5 11q68 5 123.5 39t55.5 83q0 41 -26.5 69t-65.5 28q-40 0 -69 -24.5t-40 -59.5q-5 -12 -18.5 -16.5t-25.5 0.5t-16.5 18t0.5 25q20 54 63 88.5t106 34.5q68 0 113.5 -47t45.5 -112q0 -41 -23.5 -75t-59.5 -58q42 -18 70.5 -54.5t28.5 -88.5
q0 -77 -60.5 -123.5t-141.5 -46.5q-93 0 -156 51q-10 8 -12 22.5t6 24.5q8 11 22.5 12t24.5 -7q45 -36 117 -36q57 0 95 26.5t38 75.5q0 50 -30 73t-79 23q-14 0 -29 -1.5t-30 -3.5q-11 -2 -21 -3q-13 -1 -23.5 7.5t-11.5 21.5z" />
    <glyph glyph-name="acute" unicode="&#xb4;" horiz-adv-x="532" 
d="M394 1509q11 -9 13 -24t-7 -26q-56 -70 -105.5 -140.5t-91.5 -163.5q-6 -13 -20 -18.5t-27 0.5q-13 5 -18.5 19.5t0.5 27.5q45 99 97.5 174t108.5 145q9 11 24.5 13t25.5 -7z" />
    <glyph glyph-name="mu" unicode="&#xb5;" horiz-adv-x="1206" 
d="M1033 987q-20 -214 -30 -365.5t-10 -267.5q0 -98 7 -180.5t20 -165.5q5 -25 -8.5 -40.5t-32.5 -20.5q-22 -5 -43.5 5.5t-25.5 38.5q-11 68 -17.5 135.5t-9.5 140.5q-42 -87 -98 -160.5t-128 -117.5t-161 -44q-54 0 -97 15t-75 43q6 -116 15.5 -227t19.5 -211
q3 -22 -11.5 -40.5t-37.5 -20.5q-22 -2 -40.5 13t-21.5 37q-18 181 -32.5 395.5t-14.5 424.5q0 155 2 308t11 320q1 21 16 37.5t40 16.5q24 0 40.5 -16.5t14.5 -39.5q-7 -150 -9.5 -281t-2.5 -265q0 -108 15 -198.5t57 -145t122 -54.5t141 50t106.5 131.5t78.5 178t56 188.5
q1 4 2 7q5 82 13 178t19 209q2 27 21 39t41 10q20 -2 35 -17t13 -43z" />
    <glyph glyph-name="paragraph" unicode="&#xb6;" horiz-adv-x="1329" 
d="M630 1058q16 0 27 -11t11 -27v-648q46 -7 92 -7q70 0 137 15v580q0 16 10 27t26 11t26 -11t10 -27v-558h1q22 8 43.5 -1.5t28.5 -30.5q8 -22 -1.5 -43t-30.5 -29q-20 -8 -41 -14v-726q0 -16 -10 -27t-26 -11t-26 11t-10 27v707q-67 -13 -137 -13q-46 0 -92 6v-640
q0 -16 -11 -27t-27 -11t-27 11t-11 27v654q-127 31 -236 104.5t-175.5 183.5t-66.5 251q0 124 49 231.5t134 188.5t195 126.5t233 45.5q158 0 280 -61t206 -158q15 -17 13.5 -40.5t-18.5 -38.5t-40.5 -13.5t-38.5 18.5q-70 80 -169.5 130t-232.5 50q-134 0 -247.5 -64.5
t-182 -173t-68.5 -241.5q0 -103 49 -188t131.5 -145.5t184.5 -89.5v632q0 16 11 27t27 11z" />
    <glyph glyph-name="periodcentered" unicode="&#xb7;" horiz-adv-x="488" 
d="M203 750q0 35 26 62.5t66 27.5q44 0 62.5 -30t18.5 -53q0 -34 -22.5 -65t-63.5 -31q-49 0 -68 33t-19 56z" />
    <glyph glyph-name="cedilla" unicode="&#xb8;" horiz-adv-x="727" 
d="M293 35q15 18 38.5 20.5t40.5 -11.5q48 -38 106.5 -103.5t101.5 -144t43 -157.5q0 -97 -79 -146t-215 -49q-101 0 -174 21q-22 7 -33.5 27.5t-5.5 42.5q7 22 27.5 33.5t42.5 4.5q24 -7 62.5 -12.5t77.5 -5.5q104 0 144 29t40 70q0 46 -36 104.5t-84.5 112.5t-87.5 85
q-18 15 -20.5 38.5t11.5 40.5z" />
    <glyph glyph-name="uni00B9" unicode="&#xb9;" horiz-adv-x="536" 
d="M338 860q-13 1 -22 11.5t-8 23.5l31 492q-75 -55 -157 -89q-12 -5 -24.5 1t-17.5 18q-5 13 0.5 25.5t18.5 17.5q55 22 103.5 54t91.5 70q10 8 22 8q14 0 24 -10.5t9 -24.5l-36 -566q-2 -33 -35 -31z" />
    <glyph glyph-name="ordmasculine" unicode="&#xba;" horiz-adv-x="830" 
d="M670 1399q0 -65 -36 -119.5t-94.5 -87t-127.5 -32.5q-61 0 -114 32t-85 85t-32 115q0 67 34.5 125t90.5 94.5t118 36.5q69 0 124.5 -35.5t88.5 -92.5t33 -121zM594 1400q0 67 -50 120.5t-120 53.5q-41 0 -80 -25.5t-63.5 -67t-24.5 -88.5q0 -63 48 -111t109 -48
q74 0 127.5 50.5t53.5 115.5z" />
    <glyph glyph-name="guillemotright" unicode="&#xbb;" horiz-adv-x="1103" 
d="M626 982q14 9 32 4.5t26 -18.5q107 -176 257 -306q15 -13 13 -33.5t-14 -30.5q-74 -61 -138 -136.5t-117 -168.5q-9 -15 -26 -19.5t-32 3.5q-15 9 -19.5 26t4.5 32q50 88 110 160.5t128 135.5q-67 64 -127.5 137t-110.5 156q-9 14 -4.5 32t18.5 26zM188 982q14 9 32 4.5
t26 -18.5q107 -176 257 -306q15 -13 13 -33.5t-14 -30.5q-74 -61 -138 -136.5t-117 -168.5q-9 -15 -26 -19.5t-32 3.5q-15 9 -19.5 26t4.5 32q50 88 110 160.5t128 135.5q-67 64 -127.5 137t-110.5 156q-9 14 -4.5 32t18.5 26z" />
    <glyph glyph-name="onequarter" unicode="&#xbc;" horiz-adv-x="2016" 
d="M393 478q-17 2 -28.5 15t-10.5 30l65 995q-53 -43 -110.5 -85.5t-116.5 -79.5q-15 -9 -32.5 -4t-25.5 19q-9 14 -4.5 31.5t19.5 26.5q67 38 132 89t121 103q13 11 29 11h35q18 0 31 -13.5t11 -31.5l-70 -1067q-1 -17 -14 -28.5t-31 -10.5zM466 14q-13 12 -13.5 29.5
t11.5 30.5q134 142 278.5 315.5t283.5 358.5t258 361.5t201 324.5q9 15 26.5 20t31.5 -3q15 -9 19.5 -25.5t-3.5 -31.5q-84 -152 -204.5 -331t-260.5 -365.5t-286 -362t-282 -319.5q-12 -13 -29.5 -13.5t-30.5 11.5zM1617 299q17 -1 28.5 -15t9.5 -31l-30 -312
q127 14 221 37q17 4 32 -5t19 -26q4 -16 -5 -31.5t-26 -19.5q-109 -27 -250 -41l-22 -227q-1 -16 -15 -27.5t-31 -10.5q-16 2 -27.5 16t-10.5 30l21 211q-119 -8 -237.5 -6t-217.5 16q-7 0 -17 5q-15 9 -19 27.5t7 33.5q44 59 105.5 156t127.5 209t122.5 221t89.5 192
q7 16 23 23t32 0t23 -22.5t0 -32.5q-32 -79 -82.5 -177.5t-109.5 -201t-116.5 -195.5t-104.5 -162q87 -7 185.5 -7t196.5 7l32 328q2 17 16 28.5t30 9.5z" />
    <glyph glyph-name="onehalf" unicode="&#xbd;" horiz-adv-x="2070" 
d="M393 479q-16 2 -28 14t-11 30l65 995q-53 -43 -110.5 -85.5t-116.5 -79.5q-16 -9 -32.5 -4t-25.5 19q-8 14 -4.5 31t19.5 27q67 38 132 89t121 103q13 11 29 11h35q18 0 31 -13.5t11 -31.5l-70 -1067q-1 -18 -14.5 -28.5t-30.5 -9.5zM466 15q-13 11 -14 28.5t12 30.5
q134 142 279 315.5t284 358t257.5 361.5t200.5 325q10 16 27 20.5t30 -3.5q15 -8 20.5 -24.5t-3.5 -32.5q-84 -152 -204 -331.5t-260 -365.5t-286 -361.5t-283 -319.5q-12 -13 -29.5 -13t-30.5 12zM1827 404q0 104 -64 176.5t-179 72.5q-108 0 -172.5 -76.5t-64.5 -186.5
q0 -38 -41 -38q-43 0 -43 48q0 95 39.5 171t111 121t168.5 45q102 0 176 -46.5t114.5 -123t40.5 -167.5q0 -89 -47.5 -172.5t-124.5 -164t-165 -161.5l-200 -184q62 5 123 7.5t124 2.5q70 0 142 -3t144 -7q18 -1 29.5 -13.5t11.5 -29.5q0 -18 -13 -30t-31 -11
q-76 4 -148.5 6t-140.5 2q-183 0 -352 -16q-31 -3 -41 25t10 48l286 267q140 131 223.5 230t83.5 208z" />
    <glyph glyph-name="threequarters" unicode="&#xbe;" horiz-adv-x="2166" 
d="M777 828q0 -105 -51.5 -179.5t-134.5 -114t-179 -39.5q-71 0 -141.5 24t-127.5 70q-13 11 -14.5 29t9.5 31t28.5 15t30.5 -9q44 -36 100.5 -55t114.5 -19q118 0 199.5 63t81.5 178q-3 83 -64 129t-155 46q-22 0 -44.5 -3t-44.5 -7q-15 -4 -29.5 -7.5t-28.5 -6.5
q-5 -1 -11 -1q-27 1 -37 25q-2 3 -3 7q-1 6 -1 11q1 17 12 28v0l1 1q8 9 19 11q15 4 32 8.5t35 7.5q76 21 142 51.5t106.5 77t40.5 112.5q0 107 -54 156t-122 49q-74 0 -139 -48t-83 -127q-4 -17 -18.5 -26.5t-31.5 -5.5t-26.5 19t-5.5 32q17 76 65 129.5t112 82t129 28.5
q67 0 125.5 -32t95.5 -97.5t37 -164.5q0 -88 -44.5 -146.5t-110.5 -96.5q77 -25 129.5 -85t55.5 -151zM616 14q-12 12 -13 29.5t11 30.5q134 142 278.5 315.5t283.5 358.5t258 361.5t201 324.5q9 15 26.5 20t31.5 -3q15 -9 19.5 -25.5t-3.5 -31.5q-84 -152 -204.5 -331
t-260.5 -365.5t-286 -362t-282 -319.5q-12 -13 -29.5 -13.5t-30.5 11.5zM1767 299q17 -1 28.5 -15t9.5 -31l-30 -312q127 14 221 37q17 4 32 -5t19 -26q4 -16 -5 -31.5t-26 -19.5q-109 -27 -250 -41l-22 -227q-1 -16 -15 -27.5t-31 -10.5q-16 2 -27.5 16t-10.5 30l21 211
q-119 -8 -237.5 -6t-217.5 16q-7 0 -17 5q-15 9 -19 27.5t7 33.5q44 59 105.5 156t127.5 209t122.5 221t89.5 192q7 16 23 23t32 0t23 -22.5t0 -32.5q-32 -79 -82.5 -177.5t-109.5 -201t-116.5 -195.5t-104.5 -162q87 -7 185.5 -7t196.5 7l32 328q2 17 16 28.5t30 9.5z" />
    <glyph glyph-name="questiondown" unicode="&#xbf;" horiz-adv-x="1155" 
d="M515 1025q0 41 29 70.5t71 29.5q41 0 71 -28.5t30 -71.5q0 -42 -29.5 -71.5t-71.5 -29.5q-43 0 -71.5 30.5t-28.5 70.5zM964 -71q17 -27 7.5 -51.5t-27.5 -39.5q-56 -60 -161.5 -100t-217.5 -40q-107 0 -190.5 41t-131.5 115t-48 173q0 105 60 179.5t160 148.5
q78 58 115.5 112t37.5 120q0 26 -7 50q-7 26 8.5 44.5t35.5 22.5q28 5 45 -7.5t23 -33.5q9 -34 9 -76q0 -96 -48.5 -165t-134.5 -133q-100 -74 -146.5 -134t-46.5 -133q0 -98 74 -155.5t189 -57.5q90 0 177 34t132 86q20 17 46 19t40 -19z" />
    <glyph glyph-name="Agrave" unicode="&#xc0;" horiz-adv-x="1376" 
d="M162 -59q-21 9 -29.5 31t1.5 43l538 1324q10 22 33.5 30t44.5 -4q18 -11 25 -29l478 -1316q8 -21 -1 -42.5t-31 -29.5q-21 -8 -42.5 1t-29.5 31l-127 353l-635 12l-151 -376q-9 -21 -31 -29.5t-43 1.5zM720 1172l-288 -716l550 -11zM644 2108q11 9 26 7t24 -13
q47 -60 97.5 -151t86.5 -169q5 -13 0 -27.5t-18 -19.5q-13 -6 -27 -0.5t-20 18.5q-34 75 -84 163.5t-91 141.5q-9 11 -6.5 26t12.5 24z" />
    <glyph glyph-name="Aacute" unicode="&#xc1;" horiz-adv-x="1376" 
d="M162 -59q-21 9 -29.5 31t1.5 43l538 1324q10 22 33.5 30t44.5 -4q18 -11 25 -29l478 -1316q8 -21 -1 -42.5t-31 -29.5q-21 -8 -42.5 1t-29.5 31l-127 353l-635 12l-151 -376q-9 -21 -31 -29.5t-43 1.5zM720 1172l-288 -716l550 -11zM870 2106q11 -9 13 -24t-7 -26
q-56 -70 -105.5 -140.5t-91.5 -163.5q-6 -13 -20 -18.5t-27 0.5q-13 5 -18.5 19.5t0.5 27.5q45 99 97.5 174t108.5 145q9 11 24.5 13t25.5 -7z" />
    <glyph glyph-name="Acircumflex" unicode="&#xc2;" horiz-adv-x="1376" 
d="M162 -59q-21 9 -29.5 31t1.5 43l538 1324q10 22 33.5 30t44.5 -4q18 -11 25 -29l478 -1316q8 -21 -1 -42.5t-31 -29.5q-21 -8 -42.5 1t-29.5 31l-127 353l-635 12l-151 -376q-9 -21 -31 -29.5t-43 1.5zM720 1172l-288 -716l550 -11zM558 1736q-12 8 -15 22t4 27l166 269
q9 15 29 14.5t29 -11.5l192 -241q9 -10 7 -25.5t-13 -24.5q-10 -9 -25.5 -7t-24.5 13l-160 202l-140 -226q-7 -12 -21.5 -15.5t-27.5 3.5z" />
    <glyph glyph-name="Atilde" unicode="&#xc3;" horiz-adv-x="1376" 
d="M162 -59q-21 9 -29.5 31t1.5 43l538 1324q10 22 33.5 30t44.5 -4q18 -11 25 -29l478 -1316q8 -21 -1 -42.5t-31 -29.5q-21 -8 -42.5 1t-29.5 31l-127 353l-635 12l-151 -376q-9 -21 -31 -29.5t-43 1.5zM720 1172l-288 -716l550 -11zM414 1727q-17 5 -26 22t-3 33
q23 69 74 119.5t132 50.5q62 0 110.5 -23t88.5 -52q60 -43 113 -43q50 0 84 33t56 85q7 17 24.5 24t33.5 0q17 -7 24 -24t0 -34q-36 -82 -94 -128t-128 -46q-83 0 -167 62q-32 24 -65 41t-76 17q-51 0 -81 -33.5t-44 -74.5q-6 -17 -22.5 -26t-33.5 -3z" />
    <glyph glyph-name="Adieresis" unicode="&#xc4;" horiz-adv-x="1376" 
d="M162 -59q-21 9 -29.5 31t1.5 43l538 1324q10 22 33.5 30t44.5 -4q18 -11 25 -29l478 -1316q8 -21 -1 -42.5t-31 -29.5q-21 -8 -42.5 1t-29.5 31l-127 353l-635 12l-151 -376q-9 -21 -31 -29.5t-43 1.5zM720 1172l-288 -716l550 -11zM994 1828q0 -35 -25 -56.5t-57 -21.5
q-35 0 -57.5 24.5t-22.5 52.5q0 37 21 61t51 24q38 0 64 -24.5t26 -59.5zM687 1841q0 -40 -25.5 -65.5t-65.5 -25.5q-31 0 -51 25.5t-20 55.5q0 34 23 57.5t57 23.5q31 0 56.5 -20t25.5 -51z" />
    <glyph glyph-name="Aring" unicode="&#xc5;" horiz-adv-x="1376" 
d="M162 -59q-21 9 -29.5 31t1.5 43l538 1324q10 22 33.5 30t44.5 -4q18 -11 25 -29l478 -1316q8 -21 -1 -42.5t-31 -29.5q-21 -8 -42.5 1t-29.5 31l-127 353l-635 12l-151 -376q-9 -21 -31 -29.5t-43 1.5zM720 1172l-288 -716l550 -11zM1083 1968q0 -65 -36 -119.5
t-94.5 -87t-127.5 -32.5q-61 0 -114 32t-85 85t-32 115q0 67 34.5 125t90.5 94.5t118 36.5q69 0 124.5 -35.5t88.5 -92.5t33 -121zM1007 1969q0 67 -50 120.5t-120 53.5q-41 0 -80 -25.5t-63.5 -67t-24.5 -88.5q0 -63 48 -111t109 -48q74 0 127.5 50.5t53.5 115.5z" />
    <glyph glyph-name="AE" unicode="&#xc6;" horiz-adv-x="1918" 
d="M1813 1387q5 -22 -7 -42t-35 -25q-128 -30 -262.5 -44t-274.5 -14h-52t-90 1q0 -34 0.5 -70t0.5 -74q0 -89 -0.5 -186.5t-3.5 -195.5h40q151 0 294 -4.5t255 -13.5q23 -2 38 -19.5t13 -40.5q-1 -23 -19 -38t-41 -13q-108 8 -249.5 13t-290.5 5h-43q-5 -113 -13.5 -217.5
t-23.5 -189.5q-4 -25 -4 -43q0 -58 63 -86.5t151 -33.5q95 -6 176.5 -9.5t176.5 -3.5h62t61 1q23 0 40 -16t18 -39q0 -23 -16 -39.5t-39 -16.5q-32 -1 -63 -1h-63q-97 0 -180.5 3.5t-178.5 9.5q-72 4 -146 26t-124.5 70.5t-50.5 131.5q0 14 2 27.5t4 26.5q14 80 22.5 183
t13.5 215q-100 -1 -209.5 -3.5t-206 -6t-156.5 -8.5q-7 -1 -15 1l-169 -624q-6 -22 -25.5 -31t-43.5 -1q-20 8 -25 27t0 41l332 1305q5 23 20 40.5t39 15.5q21 -1 93.5 -2.5t169.5 -2.5t193.5 -1.5t169 -1t93.5 -0.5q135 0 263 13.5t248 42.5q23 5 43 -7t25 -35zM567 1268
l-149 -548q67 4 162 7.5t199 5.5t199 3q2 99 3 196.5t1 186.5q0 38 -0.5 74.5t-0.5 69.5q-77 1 -157 1.5t-148 1.5t-109 2z" />
    <glyph glyph-name="Ccedilla" unicode="&#xc7;" horiz-adv-x="1261" 
d="M1102 1269q-9 -21 -31 -29.5t-43 1.5q-111 49 -239 49q-173 0 -295.5 -84.5t-187 -227t-64.5 -316.5q0 -170 63.5 -304t185 -210.5t294.5 -76.5q148 0 275 67q20 11 43 4t33 -27q11 -20 3.5 -42t-27.5 -33q-154 -80 -327 -80q-203 0 -350 92t-226.5 251t-79.5 359
q0 152 45 286t130.5 236t208 160.5t276.5 58.5q73 0 145 -14.5t140 -45.5q21 -9 29.5 -31t-1.5 -43zM675 49q15 18 38.5 20.5t40.5 -11.5q48 -38 106.5 -103.5t101.5 -144t43 -157.5q0 -97 -79 -146t-215 -49q-101 0 -174 21q-22 7 -33.5 27.5t-5.5 42.5q7 22 27.5 33.5
t42.5 4.5q24 -7 62.5 -12.5t77.5 -5.5q104 0 144 29t40 70q0 46 -36 104.5t-84.5 112.5t-87.5 85q-18 15 -20.5 38.5t11.5 40.5z" />
    <glyph glyph-name="Egrave" unicode="&#xc8;" horiz-adv-x="1138" 
d="M130 688q-3 23 11.5 41.5t36.5 20.5q15 2 29 3q4 108 4 207q0 72 -2 127.5t-7 110t-14 120.5q-2 17 12.5 41t45.5 22q63 -4 126 -6t125 -2q116 0 237.5 9.5t216.5 31.5q22 5 42 -7.5t25 -34.5t-7.5 -42t-34.5 -25q-106 -25 -232 -35t-247 -10q-48 0 -96 2t-95 4
q9 -80 13.5 -147.5t4.5 -158.5q0 -93 -4 -196q97 7 205 7q182 0 366 -23q23 -2 37 -20.5t12 -41.5q-3 -22 -21 -36.5t-41 -11.5q-87 11 -175 15.5t-178 4.5q-55 0 -107 -1.5t-103 -4.5q-6 -97 -14.5 -189.5t-19.5 -170.5q-3 -24 -3 -47q0 -68 36 -100t103 -40.5t162.5 -6
t213.5 2.5h78t75 1q23 0 40 -16t18 -39q0 -23 -16.5 -39.5t-39.5 -16.5q-38 -1 -76.5 -1h-78.5q-82 0 -169 -3t-168.5 2.5t-146.5 30t-103.5 78t-38.5 147.5q0 31 4 62q10 72 18 158t13 176q-5 0 -10 -1q-22 -3 -41 11.5t-21 36.5zM485 2107q11 9 26 7t24 -13
q47 -60 97.5 -151t86.5 -169q5 -13 0 -27.5t-18 -19.5q-13 -6 -27 -0.5t-20 18.5q-34 75 -84 163.5t-91 141.5q-9 11 -6.5 26t12.5 24z" />
    <glyph glyph-name="Eacute" unicode="&#xc9;" horiz-adv-x="1138" 
d="M130 688q-3 23 11.5 41.5t36.5 20.5q15 2 29 3q4 108 4 207q0 72 -2 127.5t-7 110t-14 120.5q-2 17 12.5 41t45.5 22q63 -4 126 -6t125 -2q116 0 237.5 9.5t216.5 31.5q22 5 42 -7.5t25 -34.5t-7.5 -42t-34.5 -25q-106 -25 -232 -35t-247 -10q-48 0 -96 2t-95 4
q9 -80 13.5 -147.5t4.5 -158.5q0 -93 -4 -196q97 7 205 7q182 0 366 -23q23 -2 37 -20.5t12 -41.5q-3 -22 -21 -36.5t-41 -11.5q-87 11 -175 15.5t-178 4.5q-55 0 -107 -1.5t-103 -4.5q-6 -97 -14.5 -189.5t-19.5 -170.5q-3 -24 -3 -47q0 -68 36 -100t103 -40.5t162.5 -6
t213.5 2.5h78t75 1q23 0 40 -16t18 -39q0 -23 -16.5 -39.5t-39.5 -16.5q-38 -1 -76.5 -1h-78.5q-82 0 -169 -3t-168.5 2.5t-146.5 30t-103.5 78t-38.5 147.5q0 31 4 62q10 72 18 158t13 176q-5 0 -10 -1q-22 -3 -41 11.5t-21 36.5zM725 2106q11 -9 13 -24t-7 -26
q-56 -70 -105.5 -140.5t-91.5 -163.5q-6 -13 -20 -18.5t-27 0.5q-13 5 -18.5 19.5t0.5 27.5q45 99 97.5 174t108.5 145q9 11 24.5 13t25.5 -7z" />
    <glyph glyph-name="Ecircumflex" unicode="&#xca;" horiz-adv-x="1138" 
d="M130 688q-3 23 11.5 41.5t36.5 20.5q15 2 29 3q4 108 4 207q0 72 -2 127.5t-7 110t-14 120.5q-2 17 12.5 41t45.5 22q63 -4 126 -6t125 -2q116 0 237.5 9.5t216.5 31.5q22 5 42 -7.5t25 -34.5t-7.5 -42t-34.5 -25q-106 -25 -232 -35t-247 -10q-48 0 -96 2t-95 4
q9 -80 13.5 -147.5t4.5 -158.5q0 -93 -4 -196q97 7 205 7q182 0 366 -23q23 -2 37 -20.5t12 -41.5q-3 -22 -21 -36.5t-41 -11.5q-87 11 -175 15.5t-178 4.5q-55 0 -107 -1.5t-103 -4.5q-6 -97 -14.5 -189.5t-19.5 -170.5q-3 -24 -3 -47q0 -68 36 -100t103 -40.5t162.5 -6
t213.5 2.5h78t75 1q23 0 40 -16t18 -39q0 -23 -16.5 -39.5t-39.5 -16.5q-38 -1 -76.5 -1h-78.5q-82 0 -169 -3t-168.5 2.5t-146.5 30t-103.5 78t-38.5 147.5q0 31 4 62q10 72 18 158t13 176q-5 0 -10 -1q-22 -3 -41 11.5t-21 36.5zM409 1736q-12 8 -15 22t4 27l166 269
q9 15 29 14.5t29 -11.5l192 -241q9 -10 7 -25.5t-13 -24.5q-10 -9 -25.5 -7t-24.5 13l-160 202l-140 -226q-7 -12 -21.5 -15.5t-27.5 3.5z" />
    <glyph glyph-name="Edieresis" unicode="&#xcb;" horiz-adv-x="1138" 
d="M130 688q-3 23 11.5 41.5t36.5 20.5q15 2 29 3q4 108 4 207q0 72 -2 127.5t-7 110t-14 120.5q-2 17 12.5 41t45.5 22q63 -4 126 -6t125 -2q116 0 237.5 9.5t216.5 31.5q22 5 42 -7.5t25 -34.5t-7.5 -42t-34.5 -25q-106 -25 -232 -35t-247 -10q-48 0 -96 2t-95 4
q9 -80 13.5 -147.5t4.5 -158.5q0 -93 -4 -196q97 7 205 7q182 0 366 -23q23 -2 37 -20.5t12 -41.5q-3 -22 -21 -36.5t-41 -11.5q-87 11 -175 15.5t-178 4.5q-55 0 -107 -1.5t-103 -4.5q-6 -97 -14.5 -189.5t-19.5 -170.5q-3 -24 -3 -47q0 -68 36 -100t103 -40.5t162.5 -6
t213.5 2.5h78t75 1q23 0 40 -16t18 -39q0 -23 -16.5 -39.5t-39.5 -16.5q-38 -1 -76.5 -1h-78.5q-82 0 -169 -3t-168.5 2.5t-146.5 30t-103.5 78t-38.5 147.5q0 31 4 62q10 72 18 158t13 176q-5 0 -10 -1q-22 -3 -41 11.5t-21 36.5zM842 1828q0 -35 -25 -56.5t-57 -21.5
q-35 0 -57.5 24.5t-22.5 52.5q0 37 21 61t51 24q38 0 64 -24.5t26 -59.5zM535 1841q0 -40 -25.5 -65.5t-65.5 -25.5q-31 0 -51 25.5t-20 55.5q0 34 23 57.5t57 23.5q31 0 56.5 -20t25.5 -51z" />
    <glyph glyph-name="Igrave" unicode="&#xcc;" horiz-adv-x="475" 
d="M224 -55q-23 0 -39 16.5t-15 39.5l35 1361q0 23 16.5 39t39.5 16q23 -1 39 -17.5t16 -39.5l-35 -1361q-1 -23 -17.5 -39t-39.5 -15zM137 2107q11 9 26 7t24 -13q47 -60 97.5 -151t86.5 -169q5 -13 0 -27.5t-18 -19.5q-13 -6 -27 -0.5t-20 18.5q-34 75 -84 163.5
t-91 141.5q-9 11 -6.5 26t12.5 24z" />
    <glyph glyph-name="Iacute" unicode="&#xcd;" horiz-adv-x="475" 
d="M224 -55q-23 0 -39 16.5t-15 39.5l35 1361q0 23 16.5 39t39.5 16q23 -1 39 -17.5t16 -39.5l-35 -1361q-1 -23 -17.5 -39t-39.5 -15zM363 2106q11 -9 13 -24t-7 -26q-56 -70 -105.5 -140.5t-91.5 -163.5q-6 -13 -20 -18.5t-27 0.5q-13 5 -18.5 19.5t0.5 27.5
q45 99 97.5 174t108.5 145q9 11 24.5 13t25.5 -7z" />
    <glyph glyph-name="Icircumflex" unicode="&#xce;" horiz-adv-x="475" 
d="M224 -55q-23 0 -39 16.5t-15 39.5l35 1361q0 23 16.5 39t39.5 16q23 -1 39 -17.5t16 -39.5l-35 -1361q-1 -23 -17.5 -39t-39.5 -15zM51 1736q-12 8 -15 22t4 27l166 269q9 15 29 14.5t29 -11.5l192 -241q9 -10 7 -25.5t-13 -24.5q-10 -9 -25.5 -7t-24.5 13l-160 202
l-140 -226q-7 -12 -21.5 -15.5t-27.5 3.5z" />
    <glyph glyph-name="Idieresis" unicode="&#xcf;" horiz-adv-x="475" 
d="M224 -55q-23 0 -39 16.5t-15 39.5l35 1361q0 23 16.5 39t39.5 16q23 -1 39 -17.5t16 -39.5l-35 -1361q-1 -23 -17.5 -39t-39.5 -15zM487 1828q0 -35 -25 -56.5t-57 -21.5q-35 0 -57.5 24.5t-22.5 52.5q0 37 21 61t51 24q38 0 64 -24.5t26 -59.5zM180 1841
q0 -40 -25.5 -65.5t-65.5 -25.5q-31 0 -51 25.5t-20 55.5q0 34 23 57.5t57 23.5q31 0 56.5 -20t25.5 -51z" />
    <glyph glyph-name="Eth" unicode="&#xd0;" horiz-adv-x="1341" 
d="M41 717q-2 20 11.5 35.5t33.5 17.5q75 6 144.5 8.5t134.5 2.5v30q0 99 -3 177.5t-9 156.5t-16 174q-3 23 11 40t32 21q100 23 201 23q224 0 397.5 -79t272.5 -235t99 -388q0 -155 -54.5 -289.5t-152.5 -236t-229.5 -158.5t-286.5 -57q-144 0 -272 50q-19 8 -28 25t-7 34
q18 139 29 298t15 316q-63 0 -131 -2.5t-140 -8.5q-20 -1 -35 12t-17 33zM453 1277q12 -124 17.5 -227.5t5.5 -238.5v-31q47 -2 91.5 -4.5t85.5 -5.5q20 -2 33.5 -17.5t11.5 -35.5q-1 -19 -17 -32.5t-36 -12.5q-39 3 -82 5.5t-88 4.5q-3 -147 -13 -295.5t-26 -283.5
q93 -32 191 -32q175 0 313 83.5t218.5 226t80.5 320.5q0 297 -176.5 443t-481.5 146q-66 0 -128 -13z" />
    <glyph glyph-name="Ntilde" unicode="&#xd1;" horiz-adv-x="1347" 
d="M222 -55q-23 1 -38 18t-14 40q17 334 29 654t16 660q0 24 18 40.5t42 14.5q12 -1 23 -7.5t17 -14.5q207 -272 395 -561.5t353 -579.5l14 1153q0 23 16.5 39t39.5 16q23 -1 39 -17t16 -39l-15 -1357q-1 -13 -7 -26t-18 -21q-19 -13 -43.5 -7t-36.5 27q-164 296 -351 593.5
t-394 578.5q-5 -293 -16.5 -576t-25.5 -576q-1 -23 -18.5 -38t-40.5 -14zM347 1662q-17 5 -26 22t-3 33q23 69 74 119.5t132 50.5q62 0 110.5 -23t88.5 -52q60 -43 113 -43q50 0 84 33t56 85q7 17 24.5 24t33.5 0q17 -7 24 -24t0 -34q-36 -82 -94 -128t-128 -46
q-83 0 -167 62q-32 24 -65 41t-76 17q-51 0 -81 -33.5t-44 -74.5q-6 -17 -22.5 -26t-33.5 -3z" />
    <glyph glyph-name="Ograve" unicode="&#xd2;" horiz-adv-x="1525" 
d="M738 -40q-176 0 -313.5 84t-216.5 231.5t-79 337.5q0 153 50.5 295t143 253.5t220 176.5t281.5 65q139 0 247 -61t182.5 -163.5t113.5 -231t39 -263.5q0 -155 -50 -287t-140.5 -230t-212 -152.5t-265.5 -54.5zM738 71q158 0 284 78t199.5 216t73.5 319q0 164 -59 302
t-165 221t-247 83q-124 0 -230.5 -54t-185 -148.5t-122.5 -216.5t-44 -258q0 -164 64 -286t176.5 -189t255.5 -67zM684 2107q11 9 26 7t24 -13q47 -60 97.5 -151t86.5 -169q5 -13 0 -27.5t-18 -19.5q-13 -6 -27 -0.5t-20 18.5q-34 75 -84 163.5t-91 141.5q-9 11 -6.5 26
t12.5 24z" />
    <glyph glyph-name="Oacute" unicode="&#xd3;" horiz-adv-x="1525" 
d="M738 -40q-176 0 -313.5 84t-216.5 231.5t-79 337.5q0 153 50.5 295t143 253.5t220 176.5t281.5 65q139 0 247 -61t182.5 -163.5t113.5 -231t39 -263.5q0 -155 -50 -287t-140.5 -230t-212 -152.5t-265.5 -54.5zM738 71q158 0 284 78t199.5 216t73.5 319q0 164 -59 302
t-165 221t-247 83q-124 0 -230.5 -54t-185 -148.5t-122.5 -216.5t-44 -258q0 -164 64 -286t176.5 -189t255.5 -67zM910 2106q11 -9 13 -24t-7 -26q-56 -70 -105.5 -140.5t-91.5 -163.5q-6 -13 -20 -18.5t-27 0.5q-13 5 -18.5 19.5t0.5 27.5q45 99 97.5 174t108.5 145
q9 11 24.5 13t25.5 -7z" />
    <glyph glyph-name="Ocircumflex" unicode="&#xd4;" horiz-adv-x="1525" 
d="M738 -40q-176 0 -313.5 84t-216.5 231.5t-79 337.5q0 153 50.5 295t143 253.5t220 176.5t281.5 65q139 0 247 -61t182.5 -163.5t113.5 -231t39 -263.5q0 -155 -50 -287t-140.5 -230t-212 -152.5t-265.5 -54.5zM738 71q158 0 284 78t199.5 216t73.5 319q0 164 -59 302
t-165 221t-247 83q-124 0 -230.5 -54t-185 -148.5t-122.5 -216.5t-44 -258q0 -164 64 -286t176.5 -189t255.5 -67zM598 1736q-12 8 -15 22t4 27l166 269q9 15 29 14.5t29 -11.5l192 -241q9 -10 7 -25.5t-13 -24.5q-10 -9 -25.5 -7t-24.5 13l-160 202l-140 -226
q-7 -12 -21.5 -15.5t-27.5 3.5z" />
    <glyph glyph-name="Otilde" unicode="&#xd5;" horiz-adv-x="1525" 
d="M738 -40q-176 0 -313.5 84t-216.5 231.5t-79 337.5q0 153 50.5 295t143 253.5t220 176.5t281.5 65q139 0 247 -61t182.5 -163.5t113.5 -231t39 -263.5q0 -155 -50 -287t-140.5 -230t-212 -152.5t-265.5 -54.5zM738 71q158 0 284 78t199.5 216t73.5 319q0 164 -59 302
t-165 221t-247 83q-124 0 -230.5 -54t-185 -148.5t-122.5 -216.5t-44 -258q0 -164 64 -286t176.5 -189t255.5 -67zM454 1727q-17 5 -26 22t-3 33q23 69 74 119.5t132 50.5q62 0 110.5 -23t88.5 -52q60 -43 113 -43q50 0 84 33t56 85q7 17 24.5 24t33.5 0q17 -7 24 -24t0 -34
q-36 -82 -94 -128t-128 -46q-83 0 -167 62q-32 24 -65 41t-76 17q-51 0 -81 -33.5t-44 -74.5q-6 -17 -22.5 -26t-33.5 -3z" />
    <glyph glyph-name="Odieresis" unicode="&#xd6;" horiz-adv-x="1525" 
d="M738 -40q-176 0 -313.5 84t-216.5 231.5t-79 337.5q0 153 50.5 295t143 253.5t220 176.5t281.5 65q139 0 247 -61t182.5 -163.5t113.5 -231t39 -263.5q0 -155 -50 -287t-140.5 -230t-212 -152.5t-265.5 -54.5zM738 71q158 0 284 78t199.5 216t73.5 319q0 164 -59 302
t-165 221t-247 83q-124 0 -230.5 -54t-185 -148.5t-122.5 -216.5t-44 -258q0 -164 64 -286t176.5 -189t255.5 -67zM1034 1828q0 -35 -25 -56.5t-57 -21.5q-35 0 -57.5 24.5t-22.5 52.5q0 37 21 61t51 24q38 0 64 -24.5t26 -59.5zM727 1841q0 -40 -25.5 -65.5t-65.5 -25.5
q-31 0 -51 25.5t-20 55.5q0 34 23 57.5t57 23.5q31 0 56.5 -20t25.5 -51z" />
    <glyph glyph-name="multiply" unicode="&#xd7;" horiz-adv-x="882" 
d="M142 356q-16 14 -17.5 38t14.5 41q59 68 119.5 131t122.5 123q-55 50 -112 96.5t-109 81.5q-19 12 -22 35t10 42q14 20 37 25t42 -7q58 -39 119 -89t119 -105q8 7 15 14q49 45 99.5 89.5t102.5 88.5q19 15 42.5 14t36.5 -18q14 -17 11.5 -40.5t-21.5 -38.5
q-52 -43 -102 -86t-97 -87q-6 -5 -11 -10q25 -26 48 -51q58 -63 98 -119t68 -100q11 -19 6 -42.5t-25 -37.5q-19 -14 -42.5 -10.5t-34.5 22.5q-19 30 -60 89.5t-95 119.5q-22 24 -46 49q-119 -116 -237 -249q-16 -17 -39.5 -20t-39.5 11z" />
    <glyph glyph-name="Oslash" unicode="&#xd8;" horiz-adv-x="1494" 
d="M137 -43q-13 8 -15.5 22.5t5.5 26.5q64 96 132 189q-62 83 -96 189t-34 229q0 153 50.5 295t143 253.5t220 176.5t281.5 65q116 0 210.5 -43.5t165.5 -117.5q60 56 124 114q11 10 26 9.5t24 -11.5q10 -10 9.5 -25.5t-11.5 -24.5q-65 -59 -126 -116q78 -101 119 -233.5
t41 -270.5q0 -155 -50 -287t-140.5 -230t-212 -152.5t-265.5 -54.5q-130 0 -240.5 47.5t-191.5 132.5q-62 -86 -120 -173q-7 -12 -22.5 -15t-26.5 5zM242 613q0 -95 22.5 -176.5t63.5 -147.5q183 243 380.5 458.5t409.5 417.5q-58 58 -132.5 91.5t-161.5 33.5
q-124 0 -230.5 -54t-185 -148.5t-122.5 -216.5t-44 -258zM738 71q158 0 284 78t199.5 216t73.5 319q0 123 -34 233.5t-97 193.5q-212 -203 -410.5 -420t-381.5 -461q67 -76 160.5 -117.5t205.5 -41.5z" />
    <glyph glyph-name="Ugrave" unicode="&#xd9;" horiz-adv-x="1350" 
d="M311 1389q23 -5 35.5 -24.5t7.5 -42.5q-34 -151 -53 -297.5t-19 -313.5q0 -132 16.5 -248t58 -204t114.5 -138t185 -50t187.5 58.5t122.5 159t71.5 229t33 270t8.5 280.5q0 68 -2.5 148t-4.5 142q-1 23 14 40.5t38 18.5q23 0 40.5 -15t18.5 -38q3 -63 6 -144t3 -152
q0 -151 -11 -307t-42 -299.5t-90.5 -256.5t-155.5 -179t-237 -66q-144 0 -238.5 61.5t-149 168.5t-77 243.5t-22.5 286.5q0 167 20.5 318t54.5 308q5 23 25 35.5t42 7.5zM565 2107q11 9 26 7t24 -13q47 -60 97.5 -151t86.5 -169q5 -13 0 -27.5t-18 -19.5q-13 -6 -27 -0.5
t-20 18.5q-34 75 -84 163.5t-91 141.5q-9 11 -6.5 26t12.5 24z" />
    <glyph glyph-name="Uacute" unicode="&#xda;" horiz-adv-x="1350" 
d="M311 1389q23 -5 35.5 -24.5t7.5 -42.5q-34 -151 -53 -297.5t-19 -313.5q0 -132 16.5 -248t58 -204t114.5 -138t185 -50t187.5 58.5t122.5 159t71.5 229t33 270t8.5 280.5q0 68 -2.5 148t-4.5 142q-1 23 14 40.5t38 18.5q23 0 40.5 -15t18.5 -38q3 -63 6 -144t3 -152
q0 -151 -11 -307t-42 -299.5t-90.5 -256.5t-155.5 -179t-237 -66q-144 0 -238.5 61.5t-149 168.5t-77 243.5t-22.5 286.5q0 167 20.5 318t54.5 308q5 23 25 35.5t42 7.5zM791 2106q11 -9 13 -24t-7 -26q-56 -70 -105.5 -140.5t-91.5 -163.5q-6 -13 -20 -18.5t-27 0.5
q-13 5 -18.5 19.5t0.5 27.5q45 99 97.5 174t108.5 145q9 11 24.5 13t25.5 -7z" />
    <glyph glyph-name="Ucircumflex" unicode="&#xdb;" horiz-adv-x="1350" 
d="M311 1389q23 -5 35.5 -24.5t7.5 -42.5q-34 -151 -53 -297.5t-19 -313.5q0 -132 16.5 -248t58 -204t114.5 -138t185 -50t187.5 58.5t122.5 159t71.5 229t33 270t8.5 280.5q0 68 -2.5 148t-4.5 142q-1 23 14 40.5t38 18.5q23 0 40.5 -15t18.5 -38q3 -63 6 -144t3 -152
q0 -151 -11 -307t-42 -299.5t-90.5 -256.5t-155.5 -179t-237 -66q-144 0 -238.5 61.5t-149 168.5t-77 243.5t-22.5 286.5q0 167 20.5 318t54.5 308q5 23 25 35.5t42 7.5zM485 1736q-12 8 -15 22t4 27l166 269q9 15 29 14.5t29 -11.5l192 -241q9 -10 7 -25.5t-13 -24.5
q-10 -9 -25.5 -7t-24.5 13l-160 202l-140 -226q-7 -12 -21.5 -15.5t-27.5 3.5z" />
    <glyph glyph-name="Udieresis" unicode="&#xdc;" horiz-adv-x="1350" 
d="M311 1389q23 -5 35.5 -24.5t7.5 -42.5q-34 -151 -53 -297.5t-19 -313.5q0 -132 16.5 -248t58 -204t114.5 -138t185 -50t187.5 58.5t122.5 159t71.5 229t33 270t8.5 280.5q0 68 -2.5 148t-4.5 142q-1 23 14 40.5t38 18.5q23 0 40.5 -15t18.5 -38q3 -63 6 -144t3 -152
q0 -151 -11 -307t-42 -299.5t-90.5 -256.5t-155.5 -179t-237 -66q-144 0 -238.5 61.5t-149 168.5t-77 243.5t-22.5 286.5q0 167 20.5 318t54.5 308q5 23 25 35.5t42 7.5zM920 1828q0 -35 -25 -56.5t-57 -21.5q-35 0 -57.5 24.5t-22.5 52.5q0 37 21 61t51 24q38 0 64 -24.5
t26 -59.5zM613 1841q0 -40 -25.5 -65.5t-65.5 -25.5q-31 0 -51 25.5t-20 55.5q0 34 23 57.5t57 23.5q31 0 56.5 -20t25.5 -51z" />
    <glyph glyph-name="Yacute" unicode="&#xdd;" horiz-adv-x="1307" 
d="M662 -55q-23 -1 -39.5 15t-16.5 39l-11 616l-455 670q-13 19 -9.5 41.5t22.5 35.5q19 14 41.5 10t35.5 -23l419 -618l437 609q13 19 36 23t42 -9t23 -35.5t-9 -42.5l-472 -661l11 -614q0 -23 -16 -39.5t-39 -16.5zM783 2106q11 -9 13 -24t-7 -26q-56 -70 -105.5 -140.5
t-91.5 -163.5q-6 -13 -20 -18.5t-27 0.5q-13 5 -18.5 19.5t0.5 27.5q45 99 97.5 174t108.5 145q9 11 24.5 13t25.5 -7z" />
    <glyph glyph-name="Thorn" unicode="&#xde;" horiz-adv-x="1166" 
d="M224 -417q-23 1 -39 22t-15 50l16 812v21q0 26 2 52l17 854q0 30 16.5 50.5t39.5 19.5q23 0 39 -21t16 -51l-10 -508q57 78 143 126.5t200 48.5q108 0 190 -45.5t137 -121.5t83 -167.5t28 -184.5q0 -103 -31 -205t-90.5 -186.5t-146 -135.5t-197.5 -51q-107 0 -191 49
t-140 130l-10 -488q-1 -30 -17.5 -50.5t-39.5 -19.5zM649 948q-111 0 -189.5 -63.5t-119.5 -168.5t-41 -228q0 -115 42 -209t115 -150t166 -56q103 0 182.5 66.5t125.5 173t46 227.5q0 107 -40 200t-113 150.5t-174 57.5z" />
    <glyph glyph-name="germandbls" unicode="&#xdf;" horiz-adv-x="1134" 
d="M571 1403q107 0 180 -53.5t110.5 -133t37.5 -156.5q0 -108 -30.5 -167t-99.5 -115q-39 -31 -65.5 -71.5t-26.5 -83.5q0 -42 27 -68.5t70 -48.5q53 -26 112.5 -67.5t102 -104t42.5 -152.5q0 -80 -56 -129.5t-137 -72t-156 -22.5q-53 0 -106 10.5t-100 36.5
q-19 11 -26 33.5t5 42.5q23 40 70 22q32 -16 73.5 -24.5t84.5 -8.5q59 0 112.5 14.5t87.5 41.5t34 64q0 77 -59.5 127.5t-134.5 88.5q-58 30 -107.5 79.5t-49.5 133.5q0 80 41 143t92 104q52 42 69.5 77.5t17.5 116.5q0 55 -25.5 107.5t-73.5 87.5t-116 35q-78 0 -138 -59.5
t-82 -226.5q-28 -219 -47 -472t-38 -532q-2 -23 -19.5 -38t-40.5 -13t-38 19t-13 40q19 279 38.5 533t47.5 477q26 196 113.5 290.5t216.5 94.5z" />
    <glyph glyph-name="agrave" unicode="&#xe0;" horiz-adv-x="1309" 
d="M565 71q118 0 191.5 63t111.5 166.5t47 226.5l35 466q2 23 19.5 37t39.5 11q23 -3 39 -21.5t14 -40.5l-35 -467q-2 -30 -6 -59q-3 -40 -3.5 -81.5t1.5 -78.5q5 -78 32 -134.5t115 -60.5q16 -4 29 -16t14 -37q0 -23 -16.5 -39t-39.5 -16q-98 0 -150.5 51.5t-74.5 129.5
q-56 -95 -146 -153t-217 -58q-132 0 -227.5 63t-148 168.5t-57.5 231.5q-4 112 29 224t99 205t162 149t218 56q90 0 159 -36.5t121 -93.5q15 -18 12.5 -41t-19.5 -36q-18 -13 -41.5 -9t-37.5 23q-31 34 -80 58t-113 24q-97 0 -172 -46.5t-126 -123.5t-76 -169.5t-22 -184.5
q5 -98 42.5 -178t107.5 -126.5t170 -46.5zM515 1762q11 9 26 7t24 -13q47 -60 97.5 -151t86.5 -169q5 -13 0 -27.5t-18 -19.5q-13 -6 -27 -0.5t-20 18.5q-34 75 -84 163.5t-91 141.5q-9 11 -6.5 26t12.5 24z" />
    <glyph glyph-name="aacute" unicode="&#xe1;" horiz-adv-x="1309" 
d="M565 71q118 0 191.5 63t111.5 166.5t47 226.5l35 466q2 23 19.5 37t39.5 11q23 -3 39 -21.5t14 -40.5l-35 -467q-2 -30 -6 -59q-3 -40 -3.5 -81.5t1.5 -78.5q5 -78 32 -134.5t115 -60.5q16 -4 29 -16t14 -37q0 -23 -16.5 -39t-39.5 -16q-98 0 -150.5 51.5t-74.5 129.5
q-56 -95 -146 -153t-217 -58q-132 0 -227.5 63t-148 168.5t-57.5 231.5q-4 112 29 224t99 205t162 149t218 56q90 0 159 -36.5t121 -93.5q15 -18 12.5 -41t-19.5 -36q-18 -13 -41.5 -9t-37.5 23q-31 34 -80 58t-113 24q-97 0 -172 -46.5t-126 -123.5t-76 -169.5t-22 -184.5
q5 -98 42.5 -178t107.5 -126.5t170 -46.5zM755 1761q11 -9 13 -24t-7 -26q-56 -70 -105.5 -140.5t-91.5 -163.5q-6 -13 -20 -18.5t-27 0.5q-13 5 -18.5 19.5t0.5 27.5q45 99 97.5 174t108.5 145q9 11 24.5 13t25.5 -7z" />
    <glyph glyph-name="acircumflex" unicode="&#xe2;" horiz-adv-x="1309" 
d="M565 71q118 0 191.5 63t111.5 166.5t47 226.5l35 466q2 23 19.5 37t39.5 11q23 -3 39 -21.5t14 -40.5l-35 -467q-2 -30 -6 -59q-3 -40 -3.5 -81.5t1.5 -78.5q5 -78 32 -134.5t115 -60.5q16 -4 29 -16t14 -37q0 -23 -16.5 -39t-39.5 -16q-98 0 -150.5 51.5t-74.5 129.5
q-56 -95 -146 -153t-217 -58q-132 0 -227.5 63t-148 168.5t-57.5 231.5q-4 112 29 224t99 205t162 149t218 56q90 0 159 -36.5t121 -93.5q15 -18 12.5 -41t-19.5 -36q-18 -13 -41.5 -9t-37.5 23q-31 34 -80 58t-113 24q-97 0 -172 -46.5t-126 -123.5t-76 -169.5t-22 -184.5
q5 -98 42.5 -178t107.5 -126.5t170 -46.5zM439 1391q-12 8 -15 22t4 27l166 269q9 15 29 14.5t29 -11.5l192 -241q9 -10 7 -25.5t-13 -24.5q-10 -9 -25.5 -7t-24.5 13l-160 202l-140 -226q-7 -12 -21.5 -15.5t-27.5 3.5z" />
    <glyph glyph-name="atilde" unicode="&#xe3;" horiz-adv-x="1309" 
d="M565 71q118 0 191.5 63t111.5 166.5t47 226.5l35 466q2 23 19.5 37t39.5 11q23 -3 39 -21.5t14 -40.5l-35 -467q-2 -30 -6 -59q-3 -40 -3.5 -81.5t1.5 -78.5q5 -78 32 -134.5t115 -60.5q16 -4 29 -16t14 -37q0 -23 -16.5 -39t-39.5 -16q-98 0 -150.5 51.5t-74.5 129.5
q-56 -95 -146 -153t-217 -58q-132 0 -227.5 63t-148 168.5t-57.5 231.5q-4 112 29 224t99 205t162 149t218 56q90 0 159 -36.5t121 -93.5q15 -18 12.5 -41t-19.5 -36q-18 -13 -41.5 -9t-37.5 23q-31 34 -80 58t-113 24q-97 0 -172 -46.5t-126 -123.5t-76 -169.5t-22 -184.5
q5 -98 42.5 -178t107.5 -126.5t170 -46.5zM291 1409q-17 5 -26 22t-3 33q23 69 74 119.5t132 50.5q62 0 110.5 -23t88.5 -52q60 -43 113 -43q50 0 84 33t56 85q7 17 24.5 24t33.5 0q17 -7 24 -24t0 -34q-36 -82 -94 -128t-128 -46q-83 0 -167 62q-32 24 -65 41t-76 17
q-51 0 -81 -33.5t-44 -74.5q-6 -17 -22.5 -26t-33.5 -3z" />
    <glyph glyph-name="adieresis" unicode="&#xe4;" horiz-adv-x="1309" 
d="M565 71q118 0 191.5 63t111.5 166.5t47 226.5l35 466q2 23 19.5 37t39.5 11q23 -3 39 -21.5t14 -40.5l-35 -467q-2 -30 -6 -59q-3 -40 -3.5 -81.5t1.5 -78.5q5 -78 32 -134.5t115 -60.5q16 -4 29 -16t14 -37q0 -23 -16.5 -39t-39.5 -16q-98 0 -150.5 51.5t-74.5 129.5
q-56 -95 -146 -153t-217 -58q-132 0 -227.5 63t-148 168.5t-57.5 231.5q-4 112 29 224t99 205t162 149t218 56q90 0 159 -36.5t121 -93.5q15 -18 12.5 -41t-19.5 -36q-18 -13 -41.5 -9t-37.5 23q-31 34 -80 58t-113 24q-97 0 -172 -46.5t-126 -123.5t-76 -169.5t-22 -184.5
q5 -98 42.5 -178t107.5 -126.5t170 -46.5zM872 1484q0 -35 -25 -56.5t-57 -21.5q-35 0 -57.5 24.5t-22.5 52.5q0 37 21 61t51 24q38 0 64 -24.5t26 -59.5zM565 1497q0 -40 -25.5 -65.5t-65.5 -25.5q-31 0 -51 25.5t-20 55.5q0 34 23 57.5t57 23.5q31 0 56.5 -20t25.5 -51z
" />
    <glyph glyph-name="aring" unicode="&#xe5;" horiz-adv-x="1309" 
d="M565 71q118 0 191.5 63t111.5 166.5t47 226.5l35 466q2 23 19.5 37t39.5 11q23 -3 39 -21.5t14 -40.5l-35 -467q-2 -30 -6 -59q-3 -40 -3.5 -81.5t1.5 -78.5q5 -78 32 -134.5t115 -60.5q16 -4 29 -16t14 -37q0 -23 -16.5 -39t-39.5 -16q-98 0 -150.5 51.5t-74.5 129.5
q-56 -95 -146 -153t-217 -58q-132 0 -227.5 63t-148 168.5t-57.5 231.5q-4 112 29 224t99 205t162 149t218 56q90 0 159 -36.5t121 -93.5q15 -18 12.5 -41t-19.5 -36q-18 -13 -41.5 -9t-37.5 23q-31 34 -80 58t-113 24q-97 0 -172 -46.5t-126 -123.5t-76 -169.5t-22 -184.5
q5 -98 42.5 -178t107.5 -126.5t170 -46.5zM963 1624q0 -65 -36 -119.5t-94.5 -87t-127.5 -32.5q-61 0 -114 32t-85 85t-32 115q0 67 34.5 125t90.5 94.5t118 36.5q69 0 124.5 -35.5t88.5 -92.5t33 -121zM887 1625q0 67 -50 120.5t-120 53.5q-41 0 -80 -25.5t-63.5 -67
t-24.5 -88.5q0 -63 48 -111t109 -48q74 0 127.5 50.5t53.5 115.5z" />
    <glyph glyph-name="ae" unicode="&#xe6;" horiz-adv-x="1926" 
d="M546 71q118 0 194.5 63t119 166.5t59.5 226.5l64 466q3 23 22 37t41 11q23 -3 36.5 -21.5t10.5 -40.5l-13 -98q70 79 166.5 127.5t212.5 48.5q70 0 136.5 -29t110.5 -85t44 -138q0 -73 -34 -129t-80.5 -94.5t-83.5 -60.5q-127 -75 -252 -119t-265 -68q25 -141 112 -202
t219 -61q91 0 171.5 23.5t141.5 78.5q17 15 40.5 14t38.5 -18t14 -40.5t-18 -38.5q-83 -76 -184.5 -103t-203.5 -27q-145 0 -257.5 63.5t-161.5 205.5q-59 -117 -157.5 -193t-244.5 -76q-132 0 -225 63t-142 168.5t-49 231.5q0 112 38 224t109.5 205t170.5 149t221 56
q90 0 161.5 -36.5t118.5 -93.5q14 -18 9 -41t-23 -36q-19 -13 -42 -9t-35 23q-29 34 -77.5 58t-112.5 24q-97 0 -175 -46.5t-134 -123.5t-86 -169.5t-30 -184.5q0 -98 34.5 -178t102 -126.5t167.5 -46.5zM1456 946q-121 0 -218.5 -71t-154.5 -185t-57 -245v0
q127 22 240 60.5t225 105.5q59 35 105 80.5t46 106.5q0 68 -55.5 108t-130.5 40z" />
    <glyph glyph-name="ccedilla" unicode="&#xe7;" horiz-adv-x="1071" 
d="M922 871q-14 -17 -37.5 -19t-40.5 13q-44 38 -95 59.5t-113 21.5q-90 0 -162.5 -46t-124 -123t-79.5 -169.5t-28 -185.5t32 -173t103 -129t188 -49q89 0 167.5 22.5t145.5 59.5q21 8 42.5 -2.5t28.5 -31.5q8 -22 -2.5 -42.5t-31.5 -28.5q-79 -40 -162 -64t-181 -24
q-154 0 -252 65.5t-144.5 172t-46.5 229.5q0 111 35 222.5t101 204t159.5 148t209.5 55.5q83 0 153.5 -28.5t128.5 -79.5q17 -14 19 -37.5t-13 -40.5zM461 53q15 18 38.5 20.5t40.5 -11.5q48 -38 106.5 -103.5t101.5 -144t43 -157.5q0 -97 -79 -146t-215 -49q-101 0 -174 21
q-22 7 -33.5 27.5t-5.5 42.5q7 22 27.5 33.5t42.5 4.5q24 -7 62.5 -12.5t77.5 -5.5q104 0 144 29t40 70q0 46 -36 104.5t-84.5 112.5t-87.5 85q-18 15 -20.5 38.5t11.5 40.5z" />
    <glyph glyph-name="egrave" unicode="&#xe8;" horiz-adv-x="1191" 
d="M1024 90q-84 -76 -185.5 -103t-203.5 -27q-166 0 -288 85t-153 277q-5 -1 -10 -1q-23 -2 -40 13t-19 38t13 40.5t38 19.5q5 0 9 1v7q0 114 38.5 224t110.5 199t172 141.5t222 52.5q70 0 137 -29t111 -85t44 -138q0 -73 -34 -129t-80.5 -94.5t-83.5 -60.5
q-245 -145 -517 -187q24 -141 111 -202t219 -61q92 0 172.5 23.5t140.5 78.5q17 15 40.5 14t39.5 -18q15 -17 14 -40.5t-18 -38.5zM726 946q-121 0 -218.5 -71t-154.5 -185t-57 -245q253 40 465 166q59 35 104.5 80.5t45.5 106.5q0 68 -55 108t-130 40zM502 1762q11 9 26 7
t24 -13q47 -60 97.5 -151t86.5 -169q5 -13 0 -27.5t-18 -19.5q-13 -6 -27 -0.5t-20 18.5q-34 75 -84 163.5t-91 141.5q-9 11 -6.5 26t12.5 24z" />
    <glyph glyph-name="eacute" unicode="&#xe9;" horiz-adv-x="1191" 
d="M1024 90q-84 -76 -185.5 -103t-203.5 -27q-166 0 -288 85t-153 277q-5 -1 -10 -1q-23 -2 -40 13t-19 38t13 40.5t38 19.5q5 0 9 1v7q0 114 38.5 224t110.5 199t172 141.5t222 52.5q70 0 137 -29t111 -85t44 -138q0 -73 -34 -129t-80.5 -94.5t-83.5 -60.5
q-245 -145 -517 -187q24 -141 111 -202t219 -61q92 0 172.5 23.5t140.5 78.5q17 15 40.5 14t39.5 -18q15 -17 14 -40.5t-18 -38.5zM726 946q-121 0 -218.5 -71t-154.5 -185t-57 -245q253 40 465 166q59 35 104.5 80.5t45.5 106.5q0 68 -55 108t-130 40zM742 1761
q11 -9 13 -24t-7 -26q-56 -70 -105.5 -140.5t-91.5 -163.5q-6 -13 -20 -18.5t-27 0.5q-13 5 -18.5 19.5t0.5 27.5q45 99 97.5 174t108.5 145q9 11 24.5 13t25.5 -7z" />
    <glyph glyph-name="ecircumflex" unicode="&#xea;" horiz-adv-x="1191" 
d="M1024 90q-84 -76 -185.5 -103t-203.5 -27q-166 0 -288 85t-153 277q-5 -1 -10 -1q-23 -2 -40 13t-19 38t13 40.5t38 19.5q5 0 9 1v7q0 114 38.5 224t110.5 199t172 141.5t222 52.5q70 0 137 -29t111 -85t44 -138q0 -73 -34 -129t-80.5 -94.5t-83.5 -60.5
q-245 -145 -517 -187q24 -141 111 -202t219 -61q92 0 172.5 23.5t140.5 78.5q17 15 40.5 14t39.5 -18q15 -17 14 -40.5t-18 -38.5zM726 946q-121 0 -218.5 -71t-154.5 -185t-57 -245q253 40 465 166q59 35 104.5 80.5t45.5 106.5q0 68 -55 108t-130 40zM426 1391
q-12 8 -15 22t4 27l166 269q9 15 29 14.5t29 -11.5l192 -241q9 -10 7 -25.5t-13 -24.5q-10 -9 -25.5 -7t-24.5 13l-160 202l-140 -226q-7 -12 -21.5 -15.5t-27.5 3.5z" />
    <glyph glyph-name="edieresis" unicode="&#xeb;" horiz-adv-x="1191" 
d="M1024 90q-84 -76 -185.5 -103t-203.5 -27q-166 0 -288 85t-153 277q-5 -1 -10 -1q-23 -2 -40 13t-19 38t13 40.5t38 19.5q5 0 9 1v7q0 114 38.5 224t110.5 199t172 141.5t222 52.5q70 0 137 -29t111 -85t44 -138q0 -73 -34 -129t-80.5 -94.5t-83.5 -60.5
q-245 -145 -517 -187q24 -141 111 -202t219 -61q92 0 172.5 23.5t140.5 78.5q17 15 40.5 14t39.5 -18q15 -17 14 -40.5t-18 -38.5zM726 946q-121 0 -218.5 -71t-154.5 -185t-57 -245q253 40 465 166q59 35 104.5 80.5t45.5 106.5q0 68 -55 108t-130 40zM859 1484
q0 -35 -25 -56.5t-57 -21.5q-35 0 -57.5 24.5t-22.5 52.5q0 37 21 61t51 24q38 0 64 -24.5t26 -59.5zM552 1497q0 -40 -25.5 -65.5t-65.5 -25.5q-31 0 -51 25.5t-20 55.5q0 34 23 57.5t57 23.5q31 0 56.5 -20t25.5 -51z" />
    <glyph glyph-name="igrave" unicode="&#xec;" horiz-adv-x="475" 
d="M248 1027q23 -1 38.5 -18.5t14.5 -40.5q-3 -70 -5.5 -169t-4 -211.5t-2.5 -223.5t-1.5 -206t-0.5 -158q0 -23 -17 -39t-40 -16t-39 16t-16 39q0 63 0.5 158.5t1.5 206.5t3 224t4.5 213.5t5.5 171.5q1 23 18 38.5t40 14.5zM102 1762q11 9 26 7t24 -13q47 -60 97.5 -151
t86.5 -169q5 -13 0 -27.5t-18 -19.5q-13 -6 -27 -0.5t-20 18.5q-34 75 -84 163.5t-91 141.5q-9 11 -6.5 26t12.5 24z" />
    <glyph glyph-name="iacute" unicode="&#xed;" horiz-adv-x="475" 
d="M248 1027q23 -1 38.5 -18.5t14.5 -40.5q-3 -70 -5.5 -169t-4 -211.5t-2.5 -223.5t-1.5 -206t-0.5 -158q0 -23 -17 -39t-40 -16t-39 16t-16 39q0 63 0.5 158.5t1.5 206.5t3 224t4.5 213.5t5.5 171.5q1 23 18 38.5t40 14.5zM328 1761q11 -9 13 -24t-7 -26
q-56 -70 -105.5 -140.5t-91.5 -163.5q-6 -13 -20 -18.5t-27 0.5q-13 5 -18.5 19.5t0.5 27.5q45 99 97.5 174t108.5 145q9 11 24.5 13t25.5 -7z" />
    <glyph glyph-name="icircumflex" unicode="&#xee;" horiz-adv-x="475" 
d="M248 1027q23 -1 38.5 -18.5t14.5 -40.5q-3 -70 -5.5 -169t-4 -211.5t-2.5 -223.5t-1.5 -206t-0.5 -158q0 -23 -17 -39t-40 -16t-39 16t-16 39q0 63 0.5 158.5t1.5 206.5t3 224t4.5 213.5t5.5 171.5q1 23 18 38.5t40 14.5zM16 1391q-12 8 -15 22t4 27l166 269
q9 15 29 14.5t29 -11.5l192 -241q9 -10 7 -25.5t-13 -24.5q-10 -9 -25.5 -7t-24.5 13l-160 202l-140 -226q-7 -12 -21.5 -15.5t-27.5 3.5z" />
    <glyph glyph-name="idieresis" unicode="&#xef;" horiz-adv-x="475" 
d="M248 1027q23 -1 38.5 -18.5t14.5 -40.5q-3 -70 -5.5 -169t-4 -211.5t-2.5 -223.5t-1.5 -206t-0.5 -158q0 -23 -17 -39t-40 -16t-39 16t-16 39q0 63 0.5 158.5t1.5 206.5t3 224t4.5 213.5t5.5 171.5q1 23 18 38.5t40 14.5zM452 1484q0 -35 -25 -56.5t-57 -21.5
q-35 0 -57.5 24.5t-22.5 52.5q0 37 21 61t51 24q38 0 64 -24.5t26 -59.5zM145 1497q0 -40 -25.5 -65.5t-65.5 -25.5q-31 0 -51 25.5t-20 55.5q0 34 23 57.5t57 23.5q31 0 56.5 -20t25.5 -51z" />
    <glyph glyph-name="eth" unicode="&#xf0;" horiz-adv-x="1099" 
d="M546 -40q-156 0 -253.5 66.5t-143 173t-45.5 227.5q0 131 61 241t167.5 176.5t242.5 66.5q23 0 39.5 -17t16.5 -40t-16.5 -39.5t-39.5 -16.5q-103 0 -184 -50t-127.5 -134t-46.5 -187q0 -102 32 -182.5t104.5 -127t192.5 -46.5q163 0 255.5 109.5t92.5 344.5
q0 87 -29.5 200.5t-101 233.5t-196.5 224q-92 -60 -172.5 -121.5t-114.5 -99.5q-16 -16 -39.5 -17t-40.5 14q-16 15 -17.5 38.5t14.5 40.5q39 43 112.5 101.5t158.5 116.5q-48 32 -103 60t-118 52q-21 8 -30.5 29t-1.5 43q8 21 29 30.5t43 1.5q81 -31 151.5 -69t130.5 -81
q77 48 147 85t119 53q22 7 43 -4t28 -33t-4 -42.5t-33 -27.5q-33 -11 -87 -39.5t-117 -67.5q128 -115 202.5 -245t106 -254t31.5 -222q0 -260 -120 -412.5t-339 -152.5z" />
    <glyph glyph-name="ntilde" unicode="&#xf1;" horiz-adv-x="1206" 
d="M173 14q20 214 30 365t10 268q0 98 -6.5 180t-20.5 165q-4 26 9 41.5t32 20.5q22 5 43.5 -5.5t25.5 -38.5q11 -68 18 -135t9 -140q43 88 99 160.5t127.5 116.5t160.5 44q112 0 176.5 -60t91.5 -158t27 -211q0 -154 -2 -307.5t-10 -320.5q-1 -21 -16 -37.5t-41 -16.5
q-27 0 -41.5 16.5t-13.5 38.5q8 151 10 282t2 264q0 109 -14.5 199.5t-56.5 145t-123 54.5q-79 0 -140 -50t-106.5 -131.5t-78.5 -178t-57 -188.5l-1 -3q-5 -83 -13 -179.5t-19 -211.5q-3 -27 -22 -39t-40 -10q-20 2 -35.5 17t-13.5 43zM285 1388q-17 5 -26 22t-3 33
q23 69 74 119.5t132 50.5q62 0 110.5 -23t88.5 -52q60 -43 113 -43q50 0 84 33t56 85q7 17 24.5 24t33.5 0q17 -7 24 -24t0 -34q-36 -82 -94 -128t-128 -46q-83 0 -167 62q-32 24 -65 41t-76 17q-51 0 -81 -33.5t-44 -74.5q-6 -17 -22.5 -26t-33.5 -3z" />
    <glyph glyph-name="ograve" unicode="&#xf2;" horiz-adv-x="1159" 
d="M592 1057q108 0 190 -45.5t137 -121.5t83 -167.5t28 -184.5q0 -103 -31 -205t-90.5 -186.5t-146 -135.5t-197.5 -51q-136 0 -233.5 76t-150 196.5t-52.5 253.5q0 103 28.5 204t86 184t144.5 133t204 50zM592 946q-111 0 -189.5 -63.5t-119.5 -168.5t-41 -228
q0 -115 42 -209t115 -150t166 -56q103 0 182.5 66.5t125.5 173t46 227.5q0 107 -40 200t-113 150.5t-174 57.5zM485 1762q11 9 26 7t24 -13q47 -60 97.5 -151t86.5 -169q5 -13 0 -27.5t-18 -19.5q-13 -6 -27 -0.5t-20 18.5q-34 75 -84 163.5t-91 141.5q-9 11 -6.5 26
t12.5 24z" />
    <glyph glyph-name="oacute" unicode="&#xf3;" horiz-adv-x="1159" 
d="M592 1057q108 0 190 -45.5t137 -121.5t83 -167.5t28 -184.5q0 -103 -31 -205t-90.5 -186.5t-146 -135.5t-197.5 -51q-136 0 -233.5 76t-150 196.5t-52.5 253.5q0 103 28.5 204t86 184t144.5 133t204 50zM592 946q-111 0 -189.5 -63.5t-119.5 -168.5t-41 -228
q0 -115 42 -209t115 -150t166 -56q103 0 182.5 66.5t125.5 173t46 227.5q0 107 -40 200t-113 150.5t-174 57.5zM711 1761q11 -9 13 -24t-7 -26q-56 -70 -105.5 -140.5t-91.5 -163.5q-6 -13 -20 -18.5t-27 0.5q-13 5 -18.5 19.5t0.5 27.5q45 99 97.5 174t108.5 145
q9 11 24.5 13t25.5 -7z" />
    <glyph glyph-name="ocircumflex" unicode="&#xf4;" horiz-adv-x="1159" 
d="M592 1057q108 0 190 -45.5t137 -121.5t83 -167.5t28 -184.5q0 -103 -31 -205t-90.5 -186.5t-146 -135.5t-197.5 -51q-136 0 -233.5 76t-150 196.5t-52.5 253.5q0 103 28.5 204t86 184t144.5 133t204 50zM592 946q-111 0 -189.5 -63.5t-119.5 -168.5t-41 -228
q0 -115 42 -209t115 -150t166 -56q103 0 182.5 66.5t125.5 173t46 227.5q0 107 -40 200t-113 150.5t-174 57.5zM400 1391q-12 8 -15 22t4 27l166 269q9 15 29 14.5t29 -11.5l192 -241q9 -10 7 -25.5t-13 -24.5q-10 -9 -25.5 -7t-24.5 13l-160 202l-140 -226
q-7 -12 -21.5 -15.5t-27.5 3.5z" />
    <glyph glyph-name="otilde" unicode="&#xf5;" horiz-adv-x="1159" 
d="M592 1057q108 0 190 -45.5t137 -121.5t83 -167.5t28 -184.5q0 -103 -31 -205t-90.5 -186.5t-146 -135.5t-197.5 -51q-136 0 -233.5 76t-150 196.5t-52.5 253.5q0 103 28.5 204t86 184t144.5 133t204 50zM592 946q-111 0 -189.5 -63.5t-119.5 -168.5t-41 -228
q0 -115 42 -209t115 -150t166 -56q103 0 182.5 66.5t125.5 173t46 227.5q0 107 -40 200t-113 150.5t-174 57.5zM257 1383q-17 5 -26 22t-3 33q23 69 74 119.5t132 50.5q62 0 110.5 -23t88.5 -52q60 -43 113 -43q50 0 84 33t56 85q7 17 24.5 24t33.5 0q17 -7 24 -24t0 -34
q-36 -82 -94 -128t-128 -46q-83 0 -167 62q-32 24 -65 41t-76 17q-51 0 -81 -33.5t-44 -74.5q-6 -17 -22.5 -26t-33.5 -3z" />
    <glyph glyph-name="odieresis" unicode="&#xf6;" horiz-adv-x="1159" 
d="M592 1057q108 0 190 -45.5t137 -121.5t83 -167.5t28 -184.5q0 -103 -31 -205t-90.5 -186.5t-146 -135.5t-197.5 -51q-136 0 -233.5 76t-150 196.5t-52.5 253.5q0 103 28.5 204t86 184t144.5 133t204 50zM592 946q-111 0 -189.5 -63.5t-119.5 -168.5t-41 -228
q0 -115 42 -209t115 -150t166 -56q103 0 182.5 66.5t125.5 173t46 227.5q0 107 -40 200t-113 150.5t-174 57.5zM835 1484q0 -35 -25 -56.5t-57 -21.5q-35 0 -57.5 24.5t-22.5 52.5q0 37 21 61t51 24q38 0 64 -24.5t26 -59.5zM528 1497q0 -40 -25.5 -65.5t-65.5 -25.5
q-31 0 -51 25.5t-20 55.5q0 34 23 57.5t57 23.5q31 0 56.5 -20t25.5 -51z" />
    <glyph glyph-name="divide" unicode="&#xf7;" horiz-adv-x="1094" 
d="M135 648q-3 23 11.5 41.5t36.5 20.5q120 15 235 21t230 6q128 0 258 -6q23 -1 38.5 -18.5t14.5 -40.5t-18.5 -38t-40.5 -14q-127 6 -252 6q-112 0 -223.5 -6t-227.5 -20q-22 -3 -41 11.5t-21 36.5zM457 1119q0 35 26 62.5t66 27.5q44 0 62.5 -30t18.5 -53
q0 -34 -22.5 -65t-63.5 -31q-49 0 -68 33t-19 56zM481 244q0 35 26 62.5t66 27.5q44 0 62.5 -30t18.5 -53q0 -34 -22.5 -65t-63.5 -31q-49 0 -68 33t-19 56z" />
    <glyph glyph-name="oslash" unicode="&#xf8;" horiz-adv-x="1144" 
d="M128 -63q-12 8 -16 23t5 26l134 166q-96 146 -96 334q0 103 28.5 204t86 184t144.5 133t204 50q85 0 154 -29t121 -79l89 111q10 11 25 9.5t25 -11.5t9 -24.5t-10 -25.5l-90 -112q57 -75 86 -169t29 -189q0 -103 -31 -205t-90.5 -186.5t-146 -135.5t-197.5 -51
q-92 0 -166.5 36.5t-130.5 98.5l-118 -147q-8 -11 -22 -14.5t-26 3.5zM618 946q-111 0 -189.5 -63.5t-119.5 -168.5t-41 -228q0 -135 57 -241l497 617q-40 39 -91.5 61.5t-112.5 22.5zM945 538q0 154 -77 268l-502 -622q43 -53 100.5 -83t124.5 -30q103 0 182.5 66.5
t125.5 173t46 227.5z" />
    <glyph glyph-name="ugrave" unicode="&#xf9;" horiz-adv-x="1206" 
d="M1033 987q-20 -214 -30 -365.5t-10 -267.5q0 -98 7 -180.5t20 -165.5q5 -25 -8.5 -40.5t-32.5 -20.5q-22 -5 -43.5 5.5t-25.5 38.5q-11 68 -17.5 135.5t-9.5 140.5q-42 -88 -98 -161t-127 -117t-159 -44q-113 0 -178.5 60t-92.5 158t-27 211q0 155 2 308t11 320
q1 21 16 37.5t40 16.5q28 0 42 -16.5t13 -39.5q-7 -150 -9.5 -286t-2.5 -297q0 -99 15 -181t57 -131t122 -49t141 50t106.5 131.5t78.5 178t56 188.5q1 4 2 7q5 82 13 178t19 209q2 27 21 39t41 10q20 -2 35 -17t13 -43zM470 1762q11 9 26 7t24 -13q47 -60 97.5 -151
t86.5 -169q5 -13 0 -27.5t-18 -19.5q-13 -6 -27 -0.5t-20 18.5q-34 75 -84 163.5t-91 141.5q-9 11 -6.5 26t12.5 24z" />
    <glyph glyph-name="uacute" unicode="&#xfa;" horiz-adv-x="1206" 
d="M1033 987q-20 -214 -30 -365.5t-10 -267.5q0 -98 7 -180.5t20 -165.5q5 -25 -8.5 -40.5t-32.5 -20.5q-22 -5 -43.5 5.5t-25.5 38.5q-11 68 -17.5 135.5t-9.5 140.5q-42 -88 -98 -161t-127 -117t-159 -44q-113 0 -178.5 60t-92.5 158t-27 211q0 155 2 308t11 320
q1 21 16 37.5t40 16.5q28 0 42 -16.5t13 -39.5q-7 -150 -9.5 -286t-2.5 -297q0 -99 15 -181t57 -131t122 -49t141 50t106.5 131.5t78.5 178t56 188.5q1 4 2 7q5 82 13 178t19 209q2 27 21 39t41 10q20 -2 35 -17t13 -43zM710 1761q11 -9 13 -24t-7 -26
q-56 -70 -105.5 -140.5t-91.5 -163.5q-6 -13 -20 -18.5t-27 0.5q-13 5 -18.5 19.5t0.5 27.5q45 99 97.5 174t108.5 145q9 11 24.5 13t25.5 -7z" />
    <glyph glyph-name="ucircumflex" unicode="&#xfb;" horiz-adv-x="1206" 
d="M1033 987q-20 -214 -30 -365.5t-10 -267.5q0 -98 7 -180.5t20 -165.5q5 -25 -8.5 -40.5t-32.5 -20.5q-22 -5 -43.5 5.5t-25.5 38.5q-11 68 -17.5 135.5t-9.5 140.5q-42 -88 -98 -161t-127 -117t-159 -44q-113 0 -178.5 60t-92.5 158t-27 211q0 155 2 308t11 320
q1 21 16 37.5t40 16.5q28 0 42 -16.5t13 -39.5q-7 -150 -9.5 -286t-2.5 -297q0 -99 15 -181t57 -131t122 -49t141 50t106.5 131.5t78.5 178t56 188.5q1 4 2 7q5 82 13 178t19 209q2 27 21 39t41 10q20 -2 35 -17t13 -43zM394 1391q-12 8 -15 22t4 27l166 269q9 15 29 14.5
t29 -11.5l192 -241q9 -10 7 -25.5t-13 -24.5q-10 -9 -25.5 -7t-24.5 13l-160 202l-140 -226q-7 -12 -21.5 -15.5t-27.5 3.5z" />
    <glyph glyph-name="udieresis" unicode="&#xfc;" horiz-adv-x="1206" 
d="M1033 987q-20 -214 -30 -365.5t-10 -267.5q0 -98 7 -180.5t20 -165.5q5 -25 -8.5 -40.5t-32.5 -20.5q-22 -5 -43.5 5.5t-25.5 38.5q-11 68 -17.5 135.5t-9.5 140.5q-42 -88 -98 -161t-127 -117t-159 -44q-113 0 -178.5 60t-92.5 158t-27 211q0 155 2 308t11 320
q1 21 16 37.5t40 16.5q28 0 42 -16.5t13 -39.5q-7 -150 -9.5 -286t-2.5 -297q0 -99 15 -181t57 -131t122 -49t141 50t106.5 131.5t78.5 178t56 188.5q1 4 2 7q5 82 13 178t19 209q2 27 21 39t41 10q20 -2 35 -17t13 -43zM827 1484q0 -35 -25 -56.5t-57 -21.5
q-35 0 -57.5 24.5t-22.5 52.5q0 37 21 61t51 24q38 0 64 -24.5t26 -59.5zM520 1497q0 -40 -25.5 -65.5t-65.5 -25.5q-31 0 -51 25.5t-20 55.5q0 34 23 57.5t57 23.5q31 0 56.5 -20t25.5 -51z" />
    </font>
</defs>
</svg>
